<?xml version="1.0" encoding="UTF-8" standalone="no"?>
<!DOCTYPE svg PUBLIC "-//W3C//DTD SVG 1.1//EN"
 "http://www.w3.org/Graphics/SVG/1.1/DTD/svg11.dtd">
<!-- Generated by graphviz version 5.0.0 (20220707.1540)
 -->
<!-- Title: dependencies Pages: 1 -->
<svg width="2009pt" height="247pt"
 viewBox="0.00 0.00 2009.00 246.80" xmlns="http://www.w3.org/2000/svg" xmlns:xlink="http://www.w3.org/1999/xlink">
<g id="graph0" class="graph" transform="scale(1 1) rotate(0) translate(4 242.8)">
<title>dependencies</title>
<polygon fill="white" stroke="transparent" points="-4,4 -4,-242.8 2005,-242.8 2005,4 -4,4"/>
<text text-anchor="middle" x="1000.5" y="-8.2" font-family="sans-serif" font-size="14.00">dependencies</text>
<g id="clust1" class="cluster">
<title>cluster_AuthenticationModule</title>
<polygon fill="none" stroke="black" stroke-dasharray="1,5" points="8,-32.8 8,-230.8 1993,-230.8 1993,-32.8 8,-32.8"/>
</g>
<g id="clust6" class="cluster">
<title>cluster_AuthenticationModule_providers</title>
<polygon fill="none" stroke="black" points="459,-40.8 459,-92.8 1985,-92.8 1985,-40.8 459,-40.8"/>
</g>
<g id="clust3" class="cluster">
<title>cluster_AuthenticationModule_imports</title>
<polygon fill="none" stroke="black" points="16,-40.8 16,-92.8 451,-92.8 451,-40.8 16,-40.8"/>
</g>
<g id="clust4" class="cluster">
<title>cluster_AuthenticationModule_exports</title>
<polygon fill="none" stroke="black" points="845,-170.8 845,-222.8 1005,-222.8 1005,-170.8 845,-170.8"/>
</g>
<!-- AccountModule -->
<g id="node1" class="node">
<title>AccountModule</title>
<polygon fill="#8dd3c7" stroke="black" points="443.48,-84.8 440.48,-88.8 419.48,-88.8 416.48,-84.8 336.52,-84.8 336.52,-48.8 443.48,-48.8 443.48,-84.8"/>
<text text-anchor="middle" x="390" y="-62.6" font-family="Times,serif" font-size="14.00">AccountModule</text>
</g>
<!-- AuthenticationModule -->
<g id="node4" class="node">
<title>AuthenticationModule</title>
<polygon fill="#8dd3c7" stroke="black" points="996.25,-149.8 993.25,-153.8 972.25,-153.8 969.25,-149.8 853.75,-149.8 853.75,-113.8 996.25,-113.8 996.25,-149.8"/>
<text text-anchor="middle" x="925" y="-127.6" font-family="Times,serif" font-size="14.00">AuthenticationModule</text>
</g>
<!-- AccountModule&#45;&gt;AuthenticationModule -->
<g id="edge1" class="edge">
<title>AccountModule&#45;&gt;AuthenticationModule</title>
<path fill="none" stroke="black" d="M390,-85.02C390,-105.17 390,-134.8 390,-134.8 390,-134.8 843.68,-134.8 843.68,-134.8"/>
<polygon fill="black" stroke="black" points="843.68,-138.3 853.68,-134.8 843.68,-131.3 843.68,-138.3"/>
</g>
<!-- IdentityManagementModule -->
<g id="node2" class="node">
<title>IdentityManagementModule</title>
<polygon fill="#8dd3c7" stroke="black" points="318.18,-84.8 315.18,-88.8 294.18,-88.8 291.18,-84.8 141.82,-84.8 141.82,-48.8 318.18,-48.8 318.18,-84.8"/>
<text text-anchor="middle" x="230" y="-62.6" font-family="Times,serif" font-size="14.00">IdentityManagementModule</text>
</g>
<!-- IdentityManagementModule&#45;&gt;AuthenticationModule -->
<g id="edge2" class="edge">
<title>IdentityManagementModule&#45;&gt;AuthenticationModule</title>
<path fill="none" stroke="black" d="M230,-84.84C230,-106.46 230,-139.8 230,-139.8 230,-139.8 843.57,-139.8 843.57,-139.8"/>
<polygon fill="black" stroke="black" points="843.57,-143.3 853.57,-139.8 843.56,-136.3 843.57,-143.3"/>
</g>
<!-- LoggerModule -->
<g id="node3" class="node">
<title>LoggerModule</title>
<polygon fill="#8dd3c7" stroke="black" points="123.98,-84.8 120.98,-88.8 99.98,-88.8 96.98,-84.8 24.02,-84.8 24.02,-48.8 123.98,-48.8 123.98,-84.8"/>
<text text-anchor="middle" x="74" y="-62.6" font-family="Times,serif" font-size="14.00">LoggerModule</text>
</g>
<!-- LoggerModule&#45;&gt;AuthenticationModule -->
<g id="edge3" class="edge">
<title>LoggerModule&#45;&gt;AuthenticationModule</title>
<path fill="none" stroke="black" d="M74,-84.89C74,-107.93 74,-144.8 74,-144.8 74,-144.8 843.54,-144.8 843.54,-144.8"/>
<polygon fill="black" stroke="black" points="843.54,-148.3 853.54,-144.8 843.54,-141.3 843.54,-148.3"/>
</g>
<!-- AuthenticationService  -->
<g id="node5" class="node">
<title>AuthenticationService </title>
<polygon fill="#fb8072" stroke="black" points="997.18,-214.8 852.82,-214.8 852.82,-178.8 997.18,-178.8 997.18,-214.8"/>
<text text-anchor="middle" x="925" y="-192.6" font-family="Times,serif" font-size="14.00">AuthenticationService </text>
</g>
<!-- AuthenticationModule&#45;&gt;AuthenticationService  -->
<g id="edge4" class="edge">
<title>AuthenticationModule&#45;&gt;AuthenticationService </title>
<path fill="none" stroke="black" stroke-dasharray="5,2" d="M925,-149.91C925,-149.91 925,-168.79 925,-168.79"/>
<polygon fill="black" stroke="black" points="921.5,-168.79 925,-178.79 928.5,-168.79 921.5,-168.79"/>
</g>
<!-- AuthenticationService -->
<g id="node6" class="node">
<title>AuthenticationService</title>
<ellipse fill="#fdb462" stroke="black" cx="1880" cy="-66.8" rx="97.27" ry="18"/>
<text text-anchor="middle" x="1880" y="-62.6" font-family="Times,serif" font-size="14.00">AuthenticationService</text>
</g>
<!-- AuthenticationService&#45;&gt;AuthenticationModule -->
<g id="edge5" class="edge">
<title>AuthenticationService&#45;&gt;AuthenticationModule</title>
<path fill="none" stroke="black" d="M1880,-84.89C1880,-107.93 1880,-144.8 1880,-144.8 1880,-144.8 1006.39,-144.8 1006.39,-144.8"/>
<polygon fill="black" stroke="black" points="1006.39,-141.3 996.39,-144.8 1006.39,-148.3 1006.39,-141.3"/>
</g>
<!-- JwtStrategy -->
<g id="node7" class="node">
<title>JwtStrategy</title>
<ellipse fill="#fdb462" stroke="black" cx="1708" cy="-66.8" rx="56.77" ry="18"/>
<text text-anchor="middle" x="1708" y="-62.6" font-family="Times,serif" font-size="14.00">JwtStrategy</text>
</g>
<!-- JwtStrategy&#45;&gt;AuthenticationModule -->
<g id="edge6" class="edge">
<title>JwtStrategy&#45;&gt;AuthenticationModule</title>
<path fill="none" stroke="black" d="M1708,-84.84C1708,-106.46 1708,-139.8 1708,-139.8 1708,-139.8 1006.56,-139.8 1006.56,-139.8"/>
<polygon fill="black" stroke="black" points="1006.56,-136.3 996.56,-139.8 1006.56,-143.3 1006.56,-136.3"/>
</g>
<!-- JwtValidationAdapter -->
<g id="node8" class="node">
<title>JwtValidationAdapter</title>
<ellipse fill="#fdb462" stroke="black" cx="1537" cy="-66.8" rx="96.14" ry="18"/>
<text text-anchor="middle" x="1537" y="-62.6" font-family="Times,serif" font-size="14.00">JwtValidationAdapter</text>
</g>
<!-- JwtValidationAdapter&#45;&gt;AuthenticationModule -->
<g id="edge7" class="edge">
<title>JwtValidationAdapter&#45;&gt;AuthenticationModule</title>
<path fill="none" stroke="black" d="M1537,-85.02C1537,-105.17 1537,-134.8 1537,-134.8 1537,-134.8 1006.4,-134.8 1006.4,-134.8"/>
<polygon fill="black" stroke="black" points="1006.4,-131.3 996.4,-134.8 1006.4,-138.3 1006.4,-131.3"/>
</g>
<!-- LdapService -->
<g id="node9" class="node">
<title>LdapService</title>
<ellipse fill="#fdb462" stroke="black" cx="1363" cy="-66.8" rx="59.67" ry="18"/>
<text text-anchor="middle" x="1363" y="-62.6" font-family="Times,serif" font-size="14.00">LdapService</text>
</g>
<!-- LdapService&#45;&gt;AuthenticationModule -->
<g id="edge8" class="edge">
<title>LdapService&#45;&gt;AuthenticationModule</title>
<path fill="none" stroke="black" d="M1363,-85.02C1363,-103.63 1363,-129.8 1363,-129.8 1363,-129.8 1006.35,-129.8 1006.35,-129.8"/>
<polygon fill="black" stroke="black" points="1006.35,-126.3 996.35,-129.8 1006.35,-133.3 1006.35,-126.3"/>
</g>
<!-- LdapStrategy -->
<g id="node10" class="node">
<title>LdapStrategy</title>
<ellipse fill="#fdb462" stroke="black" cx="1222" cy="-66.8" rx="63.12" ry="18"/>
<text text-anchor="middle" x="1222" y="-62.6" font-family="Times,serif" font-size="14.00">LdapStrategy</text>
</g>
<!-- LdapStrategy&#45;&gt;AuthenticationModule -->
<g id="edge9" class="edge">
<title>LdapStrategy&#45;&gt;AuthenticationModule</title>
<path fill="none" stroke="black" d="M1222,-84.83C1222,-101.86 1222,-124.8 1222,-124.8 1222,-124.8 1006.52,-124.8 1006.52,-124.8"/>
<polygon fill="black" stroke="black" points="1006.52,-121.3 996.52,-124.8 1006.52,-128.3 1006.52,-121.3"/>
</g>
<!-- LocalStrategy -->
<g id="node11" class="node">
<title>LocalStrategy</title>
<ellipse fill="#fdb462" stroke="black" cx="1076" cy="-66.8" rx="65.4" ry="18"/>
<text text-anchor="middle" x="1076" y="-62.6" font-family="Times,serif" font-size="14.00">LocalStrategy</text>
</g>
<!-- LocalStrategy&#45;&gt;AuthenticationModule -->
<g id="edge10" class="edge">
<title>LocalStrategy&#45;&gt;AuthenticationModule</title>
<path fill="none" stroke="black" d="M1076,-85.04C1076,-100.37 1076,-119.8 1076,-119.8 1076,-119.8 1006.52,-119.8 1006.52,-119.8"/>
<polygon fill="black" stroke="black" points="1006.52,-116.3 996.52,-119.8 1006.52,-123.3 1006.52,-116.3"/>
</g>
<!-- SchoolMapper -->
<g id="node12" class="node">
<title>SchoolMapper</title>
<ellipse fill="#fdb462" stroke="black" cx="925" cy="-66.8" rx="67.79" ry="18"/>
<text text-anchor="middle" x="925" y="-62.6" font-family="Times,serif" font-size="14.00">SchoolMapper</text>
</g>
<!-- SchoolMapper&#45;&gt;AuthenticationModule -->
<g id="edge11" class="edge">
<title>SchoolMapper&#45;&gt;AuthenticationModule</title>
<path fill="none" stroke="black" d="M925,-84.91C925,-84.91 925,-103.79 925,-103.79"/>
<polygon fill="black" stroke="black" points="921.5,-103.79 925,-113.79 928.5,-103.79 921.5,-103.79"/>
</g>
<!-- SchoolRepo -->
<g id="node13" class="node">
<title>SchoolRepo</title>
<ellipse fill="#fdb462" stroke="black" cx="781" cy="-66.8" rx="58.49" ry="18"/>
<text text-anchor="middle" x="781" y="-62.6" font-family="Times,serif" font-size="14.00">SchoolRepo</text>
</g>
<!-- SchoolRepo&#45;&gt;AuthenticationModule -->
<g id="edge12" class="edge">
<title>SchoolRepo&#45;&gt;AuthenticationModule</title>
<path fill="none" stroke="black" d="M781,-85.04C781,-100.37 781,-119.8 781,-119.8 781,-119.8 843.42,-119.8 843.42,-119.8"/>
<polygon fill="black" stroke="black" points="843.42,-123.3 853.42,-119.8 843.42,-116.3 843.42,-123.3"/>
</g>
<!-- SystemRepo -->
<g id="node14" class="node">
<title>SystemRepo</title>
<ellipse fill="#fdb462" stroke="black" cx="645" cy="-66.8" rx="59.72" ry="18"/>
<text text-anchor="middle" x="645" y="-62.6" font-family="Times,serif" font-size="14.00">SystemRepo</text>
</g>
<!-- SystemRepo&#45;&gt;AuthenticationModule -->
<g id="edge13" class="edge">
<title>SystemRepo&#45;&gt;AuthenticationModule</title>
<path fill="none" stroke="black" d="M645,-84.83C645,-101.86 645,-124.8 645,-124.8 645,-124.8 843.62,-124.8 843.62,-124.8"/>
<polygon fill="black" stroke="black" points="843.62,-128.3 853.62,-124.8 843.62,-121.3 843.62,-128.3"/>
</g>
<!-- UserRepo -->
<g id="node15" class="node">
<title>UserRepo</title>
<ellipse fill="#fdb462" stroke="black" cx="517" cy="-66.8" rx="49.81" ry="18"/>
<text text-anchor="middle" x="517" y="-62.6" font-family="Times,serif" font-size="14.00">UserRepo</text>
</g>
<!-- UserRepo&#45;&gt;AuthenticationModule -->
<g id="edge14" class="edge">
<title>UserRepo&#45;&gt;AuthenticationModule</title>
<path fill="none" stroke="black" d="M517,-85.02C517,-103.63 517,-129.8 517,-129.8 517,-129.8 843.46,-129.8 843.46,-129.8"/>
<polygon fill="black" stroke="black" points="843.46,-133.3 853.46,-129.8 843.46,-126.3 843.46,-133.3"/>
</g>
</g>
</svg>
