<?xml version="1.0" encoding="UTF-8" standalone="no"?>
<!DOCTYPE svg PUBLIC "-//W3C//DTD SVG 1.1//EN"
 "http://www.w3.org/Graphics/SVG/1.1/DTD/svg11.dtd">
<!-- Generated by graphviz version 5.0.0 (20220707.1540)
 -->
<!-- Title: dependencies Pages: 1 -->
<svg width="1814pt" height="247pt"
 viewBox="0.00 0.00 1814.00 246.80" xmlns="http://www.w3.org/2000/svg" xmlns:xlink="http://www.w3.org/1999/xlink">
<g id="graph0" class="graph" transform="scale(1 1) rotate(0) translate(4 242.8)">
<title>dependencies</title>
<polygon fill="white" stroke="transparent" points="-4,4 -4,-242.8 1810,-242.8 1810,4 -4,4"/>
<text text-anchor="middle" x="903" y="-8.2" font-family="sans-serif" font-size="14.00">dependencies</text>
<g id="clust1" class="cluster">
<title>cluster_AuthenticationModule</title>
<polygon fill="none" stroke="black" stroke-dasharray="1,5" points="8,-32.8 8,-230.8 1798,-230.8 1798,-32.8 8,-32.8"/>
</g>
<g id="clust3" class="cluster">
<title>cluster_AuthenticationModule_imports</title>
<polygon fill="none" stroke="black" points="1550,-40.8 1550,-92.8 1790,-92.8 1790,-40.8 1550,-40.8"/>
</g>
<g id="clust4" class="cluster">
<title>cluster_AuthenticationModule_exports</title>
<polygon fill="none" stroke="black" points="769,-170.8 769,-222.8 929,-222.8 929,-170.8 769,-170.8"/>
</g>
<g id="clust6" class="cluster">
<title>cluster_AuthenticationModule_providers</title>
<polygon fill="none" stroke="black" points="16,-40.8 16,-92.8 1542,-92.8 1542,-40.8 16,-40.8"/>
</g>
<!-- AccountModule -->
<g id="node1" class="node">
<title>AccountModule</title>
<polygon fill="#8dd3c7" stroke="black" points="1782.48,-84.8 1779.48,-88.8 1758.48,-88.8 1755.48,-84.8 1675.52,-84.8 1675.52,-48.8 1782.48,-48.8 1782.48,-84.8"/>
<text text-anchor="middle" x="1729" y="-62.6" font-family="Times,serif" font-size="14.00">AccountModule</text>
</g>
<!-- AuthenticationModule -->
<g id="node3" class="node">
<title>AuthenticationModule</title>
<polygon fill="#8dd3c7" stroke="black" points="920.25,-149.8 917.25,-153.8 896.25,-153.8 893.25,-149.8 777.75,-149.8 777.75,-113.8 920.25,-113.8 920.25,-149.8"/>
<text text-anchor="middle" x="849" y="-127.6" font-family="Times,serif" font-size="14.00">AuthenticationModule</text>
</g>
<!-- AccountModule&#45;&gt;AuthenticationModule -->
<g id="edge1" class="edge">
<title>AccountModule&#45;&gt;AuthenticationModule</title>
<path fill="none" stroke="black" d="M1729,-85.05C1729,-107.82 1729,-143.8 1729,-143.8 1729,-143.8 930.27,-143.8 930.27,-143.8"/>
<polygon fill="black" stroke="black" points="930.27,-140.3 920.27,-143.8 930.27,-147.3 930.27,-140.3"/>
</g>
<!-- LoggerModule -->
<g id="node2" class="node">
<title>LoggerModule</title>
<polygon fill="#8dd3c7" stroke="black" points="1657.98,-84.8 1654.98,-88.8 1633.98,-88.8 1630.98,-84.8 1558.02,-84.8 1558.02,-48.8 1657.98,-48.8 1657.98,-84.8"/>
<text text-anchor="middle" x="1608" y="-62.6" font-family="Times,serif" font-size="14.00">LoggerModule</text>
</g>
<!-- LoggerModule&#45;&gt;AuthenticationModule -->
<g id="edge2" class="edge">
<title>LoggerModule&#45;&gt;AuthenticationModule</title>
<path fill="none" stroke="black" d="M1608,-85.08C1608,-106.12 1608,-137.8 1608,-137.8 1608,-137.8 930.4,-137.8 930.4,-137.8"/>
<polygon fill="black" stroke="black" points="930.4,-134.3 920.4,-137.8 930.4,-141.3 930.4,-134.3"/>
</g>
<!-- AuthenticationService  -->
<g id="node4" class="node">
<title>AuthenticationService </title>
<polygon fill="#fb8072" stroke="black" points="921.18,-214.8 776.82,-214.8 776.82,-178.8 921.18,-178.8 921.18,-214.8"/>
<text text-anchor="middle" x="849" y="-192.6" font-family="Times,serif" font-size="14.00">AuthenticationService </text>
</g>
<!-- AuthenticationModule&#45;&gt;AuthenticationService  -->
<g id="edge3" class="edge">
<title>AuthenticationModule&#45;&gt;AuthenticationService </title>
<path fill="none" stroke="black" stroke-dasharray="5,2" d="M849,-149.91C849,-149.91 849,-168.79 849,-168.79"/>
<polygon fill="black" stroke="black" points="845.5,-168.79 849,-178.79 852.5,-168.79 845.5,-168.79"/>
</g>
<!-- AuthenticationService -->
<g id="node5" class="node">
<title>AuthenticationService</title>
<ellipse fill="#fdb462" stroke="black" cx="1437" cy="-66.8" rx="97.27" ry="18"/>
<text text-anchor="middle" x="1437" y="-62.6" font-family="Times,serif" font-size="14.00">AuthenticationService</text>
</g>
<!-- AuthenticationService&#45;&gt;AuthenticationModule -->
<g id="edge4" class="edge">
<title>AuthenticationService&#45;&gt;AuthenticationModule</title>
<path fill="none" stroke="black" d="M1437,-84.91C1437,-104.14 1437,-131.8 1437,-131.8 1437,-131.8 930.51,-131.8 930.51,-131.8"/>
<polygon fill="black" stroke="black" points="930.51,-128.3 920.51,-131.8 930.51,-135.3 930.51,-128.3"/>
</g>
<!-- JwtStrategy -->
<g id="node6" class="node">
<title>JwtStrategy</title>
<ellipse fill="#fdb462" stroke="black" cx="1265" cy="-66.8" rx="56.77" ry="18"/>
<text text-anchor="middle" x="1265" y="-62.6" font-family="Times,serif" font-size="14.00">JwtStrategy</text>
</g>
<!-- JwtStrategy&#45;&gt;AuthenticationModule -->
<g id="edge5" class="edge">
<title>JwtStrategy&#45;&gt;AuthenticationModule</title>
<path fill="none" stroke="black" d="M1265,-84.82C1265,-102.17 1265,-125.8 1265,-125.8 1265,-125.8 930.51,-125.8 930.51,-125.8"/>
<polygon fill="black" stroke="black" points="930.51,-122.3 920.51,-125.8 930.51,-129.3 930.51,-122.3"/>
</g>
<!-- JwtValidationAdapter -->
<g id="node7" class="node">
<title>JwtValidationAdapter</title>
<ellipse fill="#fdb462" stroke="black" cx="1094" cy="-66.8" rx="96.14" ry="18"/>
<text text-anchor="middle" x="1094" y="-62.6" font-family="Times,serif" font-size="14.00">JwtValidationAdapter</text>
</g>
<!-- JwtValidationAdapter&#45;&gt;AuthenticationModule -->
<g id="edge6" class="edge">
<title>JwtValidationAdapter&#45;&gt;AuthenticationModule</title>
<path fill="none" stroke="black" d="M1094,-85.04C1094,-100.37 1094,-119.8 1094,-119.8 1094,-119.8 930.52,-119.8 930.52,-119.8"/>
<polygon fill="black" stroke="black" points="930.52,-116.3 920.52,-119.8 930.52,-123.3 930.52,-116.3"/>
</g>
<!-- LdapService -->
<g id="node8" class="node">
<title>LdapService</title>
<ellipse fill="#fdb462" stroke="black" cx="920" cy="-66.8" rx="59.67" ry="18"/>
<text text-anchor="middle" x="920" y="-62.6" font-family="Times,serif" font-size="14.00">LdapService</text>
</g>
<!-- LdapService&#45;&gt;AuthenticationModule -->
<g id="edge7" class="edge">
<title>LdapService&#45;&gt;AuthenticationModule</title>
<path fill="none" stroke="black" d="M890.27,-82.53C890.27,-82.53 890.27,-103.45 890.27,-103.45"/>
<polygon fill="black" stroke="black" points="886.77,-103.45 890.27,-113.45 893.77,-103.45 886.77,-103.45"/>
</g>
<!-- LdapStrategy -->
<g id="node9" class="node">
<title>LdapStrategy</title>
<ellipse fill="#fdb462" stroke="black" cx="779" cy="-66.8" rx="63.12" ry="18"/>
<text text-anchor="middle" x="779" y="-62.6" font-family="Times,serif" font-size="14.00">LdapStrategy</text>
</g>
<!-- LdapStrategy&#45;&gt;AuthenticationModule -->
<g id="edge8" class="edge">
<title>LdapStrategy&#45;&gt;AuthenticationModule</title>
<path fill="none" stroke="black" d="M809.84,-82.53C809.84,-82.53 809.84,-103.45 809.84,-103.45"/>
<polygon fill="black" stroke="black" points="806.34,-103.45 809.84,-113.45 813.34,-103.45 806.34,-103.45"/>
</g>
<!-- LocalStrategy -->
<g id="node10" class="node">
<title>LocalStrategy</title>
<ellipse fill="#fdb462" stroke="black" cx="633" cy="-66.8" rx="65.4" ry="18"/>
<text text-anchor="middle" x="633" y="-62.6" font-family="Times,serif" font-size="14.00">LocalStrategy</text>
</g>
<!-- LocalStrategy&#45;&gt;AuthenticationModule -->
<g id="edge9" class="edge">
<title>LocalStrategy&#45;&gt;AuthenticationModule</title>
<path fill="none" stroke="black" d="M633,-85.04C633,-100.37 633,-119.8 633,-119.8 633,-119.8 767.67,-119.8 767.67,-119.8"/>
<polygon fill="black" stroke="black" points="767.67,-123.3 777.67,-119.8 767.67,-116.3 767.67,-123.3"/>
</g>
<!-- SchoolMapper -->
<g id="node11" class="node">
<title>SchoolMapper</title>
<ellipse fill="#fdb462" stroke="black" cx="482" cy="-66.8" rx="67.79" ry="18"/>
<text text-anchor="middle" x="482" y="-62.6" font-family="Times,serif" font-size="14.00">SchoolMapper</text>
</g>
<!-- SchoolMapper&#45;&gt;AuthenticationModule -->
<g id="edge10" class="edge">
<title>SchoolMapper&#45;&gt;AuthenticationModule</title>
<path fill="none" stroke="black" d="M482,-84.82C482,-102.17 482,-125.8 482,-125.8 482,-125.8 767.37,-125.8 767.37,-125.8"/>
<polygon fill="black" stroke="black" points="767.37,-129.3 777.37,-125.8 767.37,-122.3 767.37,-129.3"/>
</g>
<!-- SchoolRepo -->
<g id="node12" class="node">
<title>SchoolRepo</title>
<ellipse fill="#fdb462" stroke="black" cx="338" cy="-66.8" rx="58.49" ry="18"/>
<text text-anchor="middle" x="338" y="-62.6" font-family="Times,serif" font-size="14.00">SchoolRepo</text>
</g>
<!-- SchoolRepo&#45;&gt;AuthenticationModule -->
<g id="edge11" class="edge">
<title>SchoolRepo&#45;&gt;AuthenticationModule</title>
<path fill="none" stroke="black" d="M338,-84.91C338,-104.14 338,-131.8 338,-131.8 338,-131.8 767.68,-131.8 767.68,-131.8"/>
<polygon fill="black" stroke="black" points="767.68,-135.3 777.68,-131.8 767.68,-128.3 767.68,-135.3"/>
</g>
<!-- SystemRepo -->
<g id="node13" class="node">
<title>SystemRepo</title>
<ellipse fill="#fdb462" stroke="black" cx="202" cy="-66.8" rx="59.72" ry="18"/>
<text text-anchor="middle" x="202" y="-62.6" font-family="Times,serif" font-size="14.00">SystemRepo</text>
</g>
<!-- SystemRepo&#45;&gt;AuthenticationModule -->
<g id="edge12" class="edge">
<title>SystemRepo&#45;&gt;AuthenticationModule</title>
<path fill="none" stroke="black" d="M202,-85.08C202,-106.12 202,-137.8 202,-137.8 202,-137.8 767.6,-137.8 767.6,-137.8"/>
<polygon fill="black" stroke="black" points="767.6,-141.3 777.6,-137.8 767.6,-134.3 767.6,-141.3"/>
</g>
<!-- UserRepo -->
<g id="node14" class="node">
<title>UserRepo</title>
<ellipse fill="#fdb462" stroke="black" cx="74" cy="-66.8" rx="49.81" ry="18"/>
<text text-anchor="middle" x="74" y="-62.6" font-family="Times,serif" font-size="14.00">UserRepo</text>
</g>
<!-- UserRepo&#45;&gt;AuthenticationModule -->
<g id="edge13" class="edge">
<title>UserRepo&#45;&gt;AuthenticationModule</title>
<path fill="none" stroke="black" d="M74,-85.05C74,-107.82 74,-143.8 74,-143.8 74,-143.8 767.48,-143.8 767.48,-143.8"/>
<polygon fill="black" stroke="black" points="767.48,-147.3 777.48,-143.8 767.48,-140.3 767.48,-147.3"/>
</g>
</g>
</svg>
