<?xml version="1.0" encoding="UTF-8" standalone="no"?>
<!DOCTYPE svg PUBLIC "-//W3C//DTD SVG 1.1//EN"
 "http://www.w3.org/Graphics/SVG/1.1/DTD/svg11.dtd">
<!-- Generated by graphviz version 5.0.0 (20220707.1540)
 -->
<!-- Title: dependencies Pages: 1 -->
<svg width="2552pt" height="247pt"
 viewBox="0.00 0.00 2552.00 246.80" xmlns="http://www.w3.org/2000/svg" xmlns:xlink="http://www.w3.org/1999/xlink">
<g id="graph0" class="graph" transform="scale(1 1) rotate(0) translate(4 242.8)">
<title>dependencies</title>
<polygon fill="white" stroke="transparent" points="-4,4 -4,-242.8 2548,-242.8 2548,4 -4,4"/>
<text text-anchor="middle" x="1272" y="-8.2" font-family="sans-serif" font-size="14.00">dependencies</text>
<g id="clust1" class="cluster">
<title>cluster_AuthenticationModule</title>
<polygon fill="none" stroke="black" stroke-dasharray="1,5" points="8,-32.8 8,-230.8 2536,-230.8 2536,-32.8 8,-32.8"/>
</g>
<g id="clust3" class="cluster">
<title>cluster_AuthenticationModule_imports</title>
<polygon fill="none" stroke="black" points="1702,-40.8 1702,-92.8 2528,-92.8 2528,-40.8 1702,-40.8"/>
</g>
<g id="clust4" class="cluster">
<title>cluster_AuthenticationModule_exports</title>
<polygon fill="none" stroke="black" points="1166,-170.8 1166,-222.8 1326,-222.8 1326,-170.8 1166,-170.8"/>
</g>
<g id="clust6" class="cluster">
<title>cluster_AuthenticationModule_providers</title>
<polygon fill="none" stroke="black" points="16,-40.8 16,-92.8 1694,-92.8 1694,-40.8 16,-40.8"/>
</g>
<!-- AccountModule -->
<g id="node1" class="node">
<title>AccountModule</title>
<polygon fill="#8dd3c7" stroke="black" points="2520.48,-84.8 2517.48,-88.8 2496.48,-88.8 2493.48,-84.8 2413.52,-84.8 2413.52,-48.8 2520.48,-48.8 2520.48,-84.8"/>
<text text-anchor="middle" x="2467" y="-62.6" font-family="Times,serif" font-size="14.00">AccountModule</text>
</g>
<!-- AuthenticationModule -->
<g id="node7" class="node">
<title>AuthenticationModule</title>
<polygon fill="#8dd3c7" stroke="black" points="1317.25,-149.8 1314.25,-153.8 1293.25,-153.8 1290.25,-149.8 1174.75,-149.8 1174.75,-113.8 1317.25,-113.8 1317.25,-149.8"/>
<text text-anchor="middle" x="1246" y="-127.6" font-family="Times,serif" font-size="14.00">AuthenticationModule</text>
</g>
<!-- AccountModule&#45;&gt;AuthenticationModule -->
<g id="edge1" class="edge">
<title>AccountModule&#45;&gt;AuthenticationModule</title>
<path fill="none" stroke="black" d="M2467,-85.12C2467,-108.46 2467,-145.8 2467,-145.8 2467,-145.8 1327.37,-145.8 1327.37,-145.8"/>
<polygon fill="black" stroke="black" points="1327.37,-142.3 1317.37,-145.8 1327.37,-149.3 1327.37,-142.3"/>
</g>
<!-- CacheWrapperModule -->
<g id="node2" class="node">
<title>CacheWrapperModule</title>
<polygon fill="#8dd3c7" stroke="black" points="2396,-84.8 2393,-88.8 2372,-88.8 2369,-84.8 2252,-84.8 2252,-48.8 2396,-48.8 2396,-84.8"/>
<text text-anchor="middle" x="2324" y="-62.6" font-family="Times,serif" font-size="14.00">CacheWrapperModule</text>
</g>
<!-- CacheWrapperModule&#45;&gt;AuthenticationModule -->
<g id="edge2" class="edge">
<title>CacheWrapperModule&#45;&gt;AuthenticationModule</title>
<path fill="none" stroke="black" d="M2324,-84.96C2324,-107.15 2324,-141.8 2324,-141.8 2324,-141.8 1327.57,-141.8 1327.57,-141.8"/>
<polygon fill="black" stroke="black" points="1327.57,-138.3 1317.57,-141.8 1327.57,-145.3 1327.57,-138.3"/>
</g>
<!-- IdentityManagementModule -->
<g id="node3" class="node">
<title>IdentityManagementModule</title>
<polygon fill="#8dd3c7" stroke="black" points="2234.18,-84.8 2231.18,-88.8 2210.18,-88.8 2207.18,-84.8 2057.82,-84.8 2057.82,-48.8 2234.18,-48.8 2234.18,-84.8"/>
<text text-anchor="middle" x="2146" y="-62.6" font-family="Times,serif" font-size="14.00">IdentityManagementModule</text>
</g>
<!-- IdentityManagementModule&#45;&gt;AuthenticationModule -->
<g id="edge3" class="edge">
<title>IdentityManagementModule&#45;&gt;AuthenticationModule</title>
<path fill="none" stroke="black" d="M2146,-85.08C2146,-106.12 2146,-137.8 2146,-137.8 2146,-137.8 1327.37,-137.8 1327.37,-137.8"/>
<polygon fill="black" stroke="black" points="1327.37,-134.3 1317.37,-137.8 1327.37,-141.3 1327.37,-134.3"/>
</g>
<!-- LoggerModule -->
<g id="node4" class="node">
<title>LoggerModule</title>
<polygon fill="#8dd3c7" stroke="black" points="2039.98,-84.8 2036.98,-88.8 2015.98,-88.8 2012.98,-84.8 1940.02,-84.8 1940.02,-48.8 2039.98,-48.8 2039.98,-84.8"/>
<text text-anchor="middle" x="1990" y="-62.6" font-family="Times,serif" font-size="14.00">LoggerModule</text>
</g>
<!-- LoggerModule&#45;&gt;AuthenticationModule -->
<g id="edge4" class="edge">
<title>LoggerModule&#45;&gt;AuthenticationModule</title>
<path fill="none" stroke="black" d="M1990,-85.11C1990,-104.95 1990,-133.8 1990,-133.8 1990,-133.8 1327.34,-133.8 1327.34,-133.8"/>
<polygon fill="black" stroke="black" points="1327.34,-130.3 1317.34,-133.8 1327.34,-137.3 1327.34,-130.3"/>
</g>
<!-- OauthModule -->
<g id="node5" class="node">
<title>OauthModule</title>
<polygon fill="#8dd3c7" stroke="black" points="1921.77,-84.8 1918.77,-88.8 1897.77,-88.8 1894.77,-84.8 1828.23,-84.8 1828.23,-48.8 1921.77,-48.8 1921.77,-84.8"/>
<text text-anchor="middle" x="1875" y="-62.6" font-family="Times,serif" font-size="14.00">OauthModule</text>
</g>
<!-- OauthModule&#45;&gt;AuthenticationModule -->
<g id="edge5" class="edge">
<title>OauthModule&#45;&gt;AuthenticationModule</title>
<path fill="none" stroke="black" d="M1875,-85.02C1875,-103.63 1875,-129.8 1875,-129.8 1875,-129.8 1327.54,-129.8 1327.54,-129.8"/>
<polygon fill="black" stroke="black" points="1327.54,-126.3 1317.54,-129.8 1327.54,-133.3 1327.54,-126.3"/>
</g>
<!-- SystemModule -->
<g id="node6" class="node">
<title>SystemModule</title>
<polygon fill="#8dd3c7" stroke="black" points="1810.28,-84.8 1807.28,-88.8 1786.28,-88.8 1783.28,-84.8 1709.72,-84.8 1709.72,-48.8 1810.28,-48.8 1810.28,-84.8"/>
<text text-anchor="middle" x="1760" y="-62.6" font-family="Times,serif" font-size="14.00">SystemModule</text>
</g>
<!-- SystemModule&#45;&gt;AuthenticationModule -->
<g id="edge6" class="edge">
<title>SystemModule&#45;&gt;AuthenticationModule</title>
<path fill="none" stroke="black" d="M1760,-84.82C1760,-102.17 1760,-125.8 1760,-125.8 1760,-125.8 1327.47,-125.8 1327.47,-125.8"/>
<polygon fill="black" stroke="black" points="1327.47,-122.3 1317.47,-125.8 1327.47,-129.3 1327.47,-122.3"/>
</g>
<!-- AuthenticationService  -->
<g id="node8" class="node">
<title>AuthenticationService </title>
<polygon fill="#fb8072" stroke="black" points="1318.18,-214.8 1173.82,-214.8 1173.82,-178.8 1318.18,-178.8 1318.18,-214.8"/>
<text text-anchor="middle" x="1246" y="-192.6" font-family="Times,serif" font-size="14.00">AuthenticationService </text>
</g>
<!-- AuthenticationModule&#45;&gt;AuthenticationService  -->
<g id="edge7" class="edge">
<title>AuthenticationModule&#45;&gt;AuthenticationService </title>
<path fill="none" stroke="black" stroke-dasharray="5,2" d="M1246,-149.91C1246,-149.91 1246,-168.79 1246,-168.79"/>
<polygon fill="black" stroke="black" points="1242.5,-168.79 1246,-178.79 1249.5,-168.79 1242.5,-168.79"/>
</g>
<!-- AuthenticationService -->
<g id="node9" class="node">
<title>AuthenticationService</title>
<ellipse fill="#fdb462" stroke="black" cx="1589" cy="-66.8" rx="97.27" ry="18"/>
<text text-anchor="middle" x="1589" y="-62.6" font-family="Times,serif" font-size="14.00">AuthenticationService</text>
</g>
<!-- AuthenticationService&#45;&gt;AuthenticationModule -->
<g id="edge8" class="edge">
<title>AuthenticationService&#45;&gt;AuthenticationModule</title>
<path fill="none" stroke="black" d="M1589,-84.81C1589,-100.85 1589,-121.8 1589,-121.8 1589,-121.8 1327.49,-121.8 1327.49,-121.8"/>
<polygon fill="black" stroke="black" points="1327.49,-118.3 1317.49,-121.8 1327.49,-125.3 1327.49,-118.3"/>
</g>
<!-- JwtStrategy -->
<g id="node10" class="node">
<title>JwtStrategy</title>
<ellipse fill="#fdb462" stroke="black" cx="1417" cy="-66.8" rx="56.77" ry="18"/>
<text text-anchor="middle" x="1417" y="-62.6" font-family="Times,serif" font-size="14.00">JwtStrategy</text>
</g>
<!-- JwtStrategy&#45;&gt;AuthenticationModule -->
<g id="edge9" class="edge">
<title>JwtStrategy&#45;&gt;AuthenticationModule</title>
<path fill="none" stroke="black" d="M1417,-84.92C1417,-99.58 1417,-117.8 1417,-117.8 1417,-117.8 1327.53,-117.8 1327.53,-117.8"/>
<polygon fill="black" stroke="black" points="1327.53,-114.3 1317.53,-117.8 1327.53,-121.3 1327.53,-114.3"/>
</g>
<!-- JwtValidationAdapter -->
<g id="node11" class="node">
<title>JwtValidationAdapter</title>
<ellipse fill="#fdb462" stroke="black" cx="1246" cy="-66.8" rx="96.14" ry="18"/>
<text text-anchor="middle" x="1246" y="-62.6" font-family="Times,serif" font-size="14.00">JwtValidationAdapter</text>
</g>
<!-- JwtValidationAdapter&#45;&gt;AuthenticationModule -->
<g id="edge10" class="edge">
<title>JwtValidationAdapter&#45;&gt;AuthenticationModule</title>
<path fill="none" stroke="black" d="M1246,-84.91C1246,-84.91 1246,-103.79 1246,-103.79"/>
<polygon fill="black" stroke="black" points="1242.5,-103.79 1246,-113.79 1249.5,-103.79 1242.5,-103.79"/>
</g>
<!-- LdapService -->
<g id="node12" class="node">
<title>LdapService</title>
<ellipse fill="#fdb462" stroke="black" cx="1072" cy="-66.8" rx="59.67" ry="18"/>
<text text-anchor="middle" x="1072" y="-62.6" font-family="Times,serif" font-size="14.00">LdapService</text>
</g>
<!-- LdapService&#45;&gt;AuthenticationModule -->
<g id="edge11" class="edge">
<title>LdapService&#45;&gt;AuthenticationModule</title>
<path fill="none" stroke="black" d="M1072,-84.92C1072,-99.58 1072,-117.8 1072,-117.8 1072,-117.8 1164.73,-117.8 1164.73,-117.8"/>
<polygon fill="black" stroke="black" points="1164.73,-121.3 1174.73,-117.8 1164.73,-114.3 1164.73,-121.3"/>
</g>
<!-- LdapStrategy -->
<g id="node13" class="node">
<title>LdapStrategy</title>
<ellipse fill="#fdb462" stroke="black" cx="931" cy="-66.8" rx="63.12" ry="18"/>
<text text-anchor="middle" x="931" y="-62.6" font-family="Times,serif" font-size="14.00">LdapStrategy</text>
</g>
<!-- LdapStrategy&#45;&gt;AuthenticationModule -->
<g id="edge12" class="edge">
<title>LdapStrategy&#45;&gt;AuthenticationModule</title>
<path fill="none" stroke="black" d="M931,-84.81C931,-100.85 931,-121.8 931,-121.8 931,-121.8 1164.52,-121.8 1164.52,-121.8"/>
<polygon fill="black" stroke="black" points="1164.52,-125.3 1174.52,-121.8 1164.52,-118.3 1164.52,-125.3"/>
</g>
<!-- LocalStrategy -->
<g id="node14" class="node">
<title>LocalStrategy</title>
<ellipse fill="#fdb462" stroke="black" cx="785" cy="-66.8" rx="65.4" ry="18"/>
<text text-anchor="middle" x="785" y="-62.6" font-family="Times,serif" font-size="14.00">LocalStrategy</text>
</g>
<!-- LocalStrategy&#45;&gt;AuthenticationModule -->
<g id="edge13" class="edge">
<title>LocalStrategy&#45;&gt;AuthenticationModule</title>
<path fill="none" stroke="black" d="M785,-84.82C785,-102.17 785,-125.8 785,-125.8 785,-125.8 1164.73,-125.8 1164.73,-125.8"/>
<polygon fill="black" stroke="black" points="1164.73,-129.3 1174.73,-125.8 1164.73,-122.3 1164.73,-129.3"/>
</g>
<!-- OauthStrategy -->
<g id="node15" class="node">
<title>OauthStrategy</title>
<ellipse fill="#fdb462" stroke="black" cx="635" cy="-66.8" rx="66.64" ry="18"/>
<text text-anchor="middle" x="635" y="-62.6" font-family="Times,serif" font-size="14.00">OauthStrategy</text>
</g>
<!-- OauthStrategy&#45;&gt;AuthenticationModule -->
<g id="edge14" class="edge">
<title>OauthStrategy&#45;&gt;AuthenticationModule</title>
<path fill="none" stroke="black" d="M635,-85.02C635,-103.63 635,-129.8 635,-129.8 635,-129.8 1164.71,-129.8 1164.71,-129.8"/>
<polygon fill="black" stroke="black" points="1164.71,-133.3 1174.71,-129.8 1164.71,-126.3 1164.71,-133.3"/>
</g>
<!-- SchoolMapper -->
<g id="node16" class="node">
<title>SchoolMapper</title>
<ellipse fill="#fdb462" stroke="black" cx="482" cy="-66.8" rx="67.79" ry="18"/>
<text text-anchor="middle" x="482" y="-62.6" font-family="Times,serif" font-size="14.00">SchoolMapper</text>
</g>
<!-- SchoolMapper&#45;&gt;AuthenticationModule -->
<g id="edge15" class="edge">
<title>SchoolMapper&#45;&gt;AuthenticationModule</title>
<path fill="none" stroke="black" d="M482,-85.11C482,-104.95 482,-133.8 482,-133.8 482,-133.8 1164.47,-133.8 1164.47,-133.8"/>
<polygon fill="black" stroke="black" points="1164.47,-137.3 1174.47,-133.8 1164.47,-130.3 1164.47,-137.3"/>
</g>
<!-- SchoolRepo -->
<g id="node17" class="node">
<title>SchoolRepo</title>
<ellipse fill="#fdb462" stroke="black" cx="338" cy="-66.8" rx="58.49" ry="18"/>
<text text-anchor="middle" x="338" y="-62.6" font-family="Times,serif" font-size="14.00">SchoolRepo</text>
</g>
<!-- SchoolRepo&#45;&gt;AuthenticationModule -->
<g id="edge16" class="edge">
<title>SchoolRepo&#45;&gt;AuthenticationModule</title>
<path fill="none" stroke="black" d="M338,-85.08C338,-106.12 338,-137.8 338,-137.8 338,-137.8 1164.37,-137.8 1164.37,-137.8"/>
<polygon fill="black" stroke="black" points="1164.37,-141.3 1174.37,-137.8 1164.37,-134.3 1164.37,-141.3"/>
</g>
<!-- SystemRepo -->
<g id="node18" class="node">
<title>SystemRepo</title>
<ellipse fill="#fdb462" stroke="black" cx="202" cy="-66.8" rx="59.72" ry="18"/>
<text text-anchor="middle" x="202" y="-62.6" font-family="Times,serif" font-size="14.00">SystemRepo</text>
</g>
<!-- SystemRepo&#45;&gt;AuthenticationModule -->
<g id="edge17" class="edge">
<title>SystemRepo&#45;&gt;AuthenticationModule</title>
<path fill="none" stroke="black" d="M202,-84.96C202,-107.15 202,-141.8 202,-141.8 202,-141.8 1164.65,-141.8 1164.65,-141.8"/>
<polygon fill="black" stroke="black" points="1164.65,-145.3 1174.65,-141.8 1164.65,-138.3 1164.65,-145.3"/>
</g>
<!-- UserRepo -->
<g id="node19" class="node">
<title>UserRepo</title>
<ellipse fill="#fdb462" stroke="black" cx="74" cy="-66.8" rx="49.81" ry="18"/>
<text text-anchor="middle" x="74" y="-62.6" font-family="Times,serif" font-size="14.00">UserRepo</text>
</g>
<!-- UserRepo&#45;&gt;AuthenticationModule -->
<g id="edge18" class="edge">
<title>UserRepo&#45;&gt;AuthenticationModule</title>
<path fill="none" stroke="black" d="M74,-85.12C74,-108.46 74,-145.8 74,-145.8 74,-145.8 1164.45,-145.8 1164.45,-145.8"/>
<polygon fill="black" stroke="black" points="1164.45,-149.3 1174.45,-145.8 1164.45,-142.3 1164.45,-149.3"/>
</g>
</g>
</svg>
