<?xml version="1.0" encoding="UTF-8" standalone="no"?>
<!DOCTYPE svg PUBLIC "-//W3C//DTD SVG 1.1//EN"
 "http://www.w3.org/Graphics/SVG/1.1/DTD/svg11.dtd">
<!-- Generated by graphviz version 5.0.0 (20220707.1540)
 -->
<!-- Title: dependencies Pages: 1 -->
<svg width="2391pt" height="247pt"
 viewBox="0.00 0.00 2391.00 246.80" xmlns="http://www.w3.org/2000/svg" xmlns:xlink="http://www.w3.org/1999/xlink">
<g id="graph0" class="graph" transform="scale(1 1) rotate(0) translate(4 242.8)">
<title>dependencies</title>
<polygon fill="white" stroke="transparent" points="-4,4 -4,-242.8 2387,-242.8 2387,4 -4,4"/>
<text text-anchor="middle" x="1191.5" y="-8.2" font-family="sans-serif" font-size="14.00">dependencies</text>
<g id="clust1" class="cluster">
<title>cluster_AuthenticationModule</title>
<polygon fill="none" stroke="black" stroke-dasharray="1,5" points="8,-32.8 8,-230.8 2375,-230.8 2375,-32.8 8,-32.8"/>
</g>
<g id="clust4" class="cluster">
<title>cluster_AuthenticationModule_exports</title>
<polygon fill="none" stroke="black" points="1079,-170.8 1079,-222.8 1239,-222.8 1239,-170.8 1079,-170.8"/>
</g>
<g id="clust3" class="cluster">
<title>cluster_AuthenticationModule_imports</title>
<polygon fill="none" stroke="black" points="1702,-40.8 1702,-92.8 2367,-92.8 2367,-40.8 1702,-40.8"/>
</g>
<g id="clust6" class="cluster">
<title>cluster_AuthenticationModule_providers</title>
<polygon fill="none" stroke="black" points="16,-40.8 16,-92.8 1694,-92.8 1694,-40.8 16,-40.8"/>
</g>
<!-- AccountModule -->
<g id="node1" class="node">
<title>AccountModule</title>
<polygon fill="#8dd3c7" stroke="black" points="2359.48,-84.8 2356.48,-88.8 2335.48,-88.8 2332.48,-84.8 2252.52,-84.8 2252.52,-48.8 2359.48,-48.8 2359.48,-84.8"/>
<text text-anchor="middle" x="2306" y="-62.6" font-family="Times,serif" font-size="14.00">AccountModule</text>
</g>
<!-- AuthenticationModule -->
<g id="node6" class="node">
<title>AuthenticationModule</title>
<polygon fill="#8dd3c7" stroke="black" points="1230.25,-149.8 1227.25,-153.8 1206.25,-153.8 1203.25,-149.8 1087.75,-149.8 1087.75,-113.8 1230.25,-113.8 1230.25,-149.8"/>
<text text-anchor="middle" x="1159" y="-127.6" font-family="Times,serif" font-size="14.00">AuthenticationModule</text>
</g>
<!-- AccountModule&#45;&gt;AuthenticationModule -->
<g id="edge1" class="edge">
<title>AccountModule&#45;&gt;AuthenticationModule</title>
<path fill="none" stroke="black" d="M2306,-85.12C2306,-108.46 2306,-145.8 2306,-145.8 2306,-145.8 1240.32,-145.8 1240.32,-145.8"/>
<polygon fill="black" stroke="black" points="1240.32,-142.3 1230.32,-145.8 1240.32,-149.3 1240.32,-142.3"/>
</g>
<!-- IdentityManagementModule -->
<g id="node2" class="node">
<title>IdentityManagementModule</title>
<polygon fill="#8dd3c7" stroke="black" points="2234.18,-84.8 2231.18,-88.8 2210.18,-88.8 2207.18,-84.8 2057.82,-84.8 2057.82,-48.8 2234.18,-48.8 2234.18,-84.8"/>
<text text-anchor="middle" x="2146" y="-62.6" font-family="Times,serif" font-size="14.00">IdentityManagementModule</text>
</g>
<!-- IdentityManagementModule&#45;&gt;AuthenticationModule -->
<g id="edge2" class="edge">
<title>IdentityManagementModule&#45;&gt;AuthenticationModule</title>
<path fill="none" stroke="black" d="M2146,-85.09C2146,-107.01 2146,-140.8 2146,-140.8 2146,-140.8 1240.38,-140.8 1240.38,-140.8"/>
<polygon fill="black" stroke="black" points="1240.38,-137.3 1230.38,-140.8 1240.38,-144.3 1240.38,-137.3"/>
</g>
<!-- LoggerModule -->
<g id="node3" class="node">
<title>LoggerModule</title>
<polygon fill="#8dd3c7" stroke="black" points="2039.98,-84.8 2036.98,-88.8 2015.98,-88.8 2012.98,-84.8 1940.02,-84.8 1940.02,-48.8 2039.98,-48.8 2039.98,-84.8"/>
<text text-anchor="middle" x="1990" y="-62.6" font-family="Times,serif" font-size="14.00">LoggerModule</text>
</g>
<!-- LoggerModule&#45;&gt;AuthenticationModule -->
<g id="edge3" class="edge">
<title>LoggerModule&#45;&gt;AuthenticationModule</title>
<path fill="none" stroke="black" d="M1990,-84.83C1990,-105.57 1990,-136.8 1990,-136.8 1990,-136.8 1240.57,-136.8 1240.57,-136.8"/>
<polygon fill="black" stroke="black" points="1240.57,-133.3 1230.57,-136.8 1240.57,-140.3 1240.57,-133.3"/>
</g>
<!-- OauthModule -->
<g id="node4" class="node">
<title>OauthModule</title>
<polygon fill="#8dd3c7" stroke="black" points="1921.77,-84.8 1918.77,-88.8 1897.77,-88.8 1894.77,-84.8 1828.23,-84.8 1828.23,-48.8 1921.77,-48.8 1921.77,-84.8"/>
<text text-anchor="middle" x="1875" y="-62.6" font-family="Times,serif" font-size="14.00">OauthModule</text>
</g>
<!-- OauthModule&#45;&gt;AuthenticationModule -->
<g id="edge4" class="edge">
<title>OauthModule&#45;&gt;AuthenticationModule</title>
<path fill="none" stroke="black" d="M1875,-84.91C1875,-104.14 1875,-131.8 1875,-131.8 1875,-131.8 1240.27,-131.8 1240.27,-131.8"/>
<polygon fill="black" stroke="black" points="1240.27,-128.3 1230.27,-131.8 1240.27,-135.3 1240.27,-128.3"/>
</g>
<!-- SystemModule -->
<g id="node5" class="node">
<title>SystemModule</title>
<polygon fill="#8dd3c7" stroke="black" points="1810.28,-84.8 1807.28,-88.8 1786.28,-88.8 1783.28,-84.8 1709.72,-84.8 1709.72,-48.8 1810.28,-48.8 1810.28,-84.8"/>
<text text-anchor="middle" x="1760" y="-62.6" font-family="Times,serif" font-size="14.00">SystemModule</text>
</g>
<!-- SystemModule&#45;&gt;AuthenticationModule -->
<g id="edge5" class="edge">
<title>SystemModule&#45;&gt;AuthenticationModule</title>
<path fill="none" stroke="black" d="M1760,-85.1C1760,-103.07 1760,-127.8 1760,-127.8 1760,-127.8 1240.3,-127.8 1240.3,-127.8"/>
<polygon fill="black" stroke="black" points="1240.3,-124.3 1230.3,-127.8 1240.3,-131.3 1240.3,-124.3"/>
</g>
<!-- AuthenticationService  -->
<g id="node7" class="node">
<title>AuthenticationService </title>
<polygon fill="#fb8072" stroke="black" points="1231.18,-214.8 1086.82,-214.8 1086.82,-178.8 1231.18,-178.8 1231.18,-214.8"/>
<text text-anchor="middle" x="1159" y="-192.6" font-family="Times,serif" font-size="14.00">AuthenticationService </text>
</g>
<!-- AuthenticationModule&#45;&gt;AuthenticationService  -->
<g id="edge6" class="edge">
<title>AuthenticationModule&#45;&gt;AuthenticationService </title>
<path fill="none" stroke="black" stroke-dasharray="5,2" d="M1159,-149.91C1159,-149.91 1159,-168.79 1159,-168.79"/>
<polygon fill="black" stroke="black" points="1155.5,-168.79 1159,-178.79 1162.5,-168.79 1155.5,-168.79"/>
</g>
<!-- AuthenticationService -->
<g id="node8" class="node">
<title>AuthenticationService</title>
<ellipse fill="#fdb462" stroke="black" cx="1589" cy="-66.8" rx="97.27" ry="18"/>
<text text-anchor="middle" x="1589" y="-62.6" font-family="Times,serif" font-size="14.00">AuthenticationService</text>
</g>
<!-- AuthenticationService&#45;&gt;AuthenticationModule -->
<g id="edge7" class="edge">
<title>AuthenticationService&#45;&gt;AuthenticationModule</title>
<path fill="none" stroke="black" d="M1589,-84.83C1589,-101.2 1589,-122.8 1589,-122.8 1589,-122.8 1240.49,-122.8 1240.49,-122.8"/>
<polygon fill="black" stroke="black" points="1240.49,-119.3 1230.49,-122.8 1240.49,-126.3 1240.49,-119.3"/>
</g>
<!-- JwtStrategy -->
<g id="node9" class="node">
<title>JwtStrategy</title>
<ellipse fill="#fdb462" stroke="black" cx="1417" cy="-66.8" rx="56.77" ry="18"/>
<text text-anchor="middle" x="1417" y="-62.6" font-family="Times,serif" font-size="14.00">JwtStrategy</text>
</g>
<!-- JwtStrategy&#45;&gt;AuthenticationModule -->
<g id="edge8" class="edge">
<title>JwtStrategy&#45;&gt;AuthenticationModule</title>
<path fill="none" stroke="black" d="M1417,-84.99C1417,-99.98 1417,-118.8 1417,-118.8 1417,-118.8 1240.52,-118.8 1240.52,-118.8"/>
<polygon fill="black" stroke="black" points="1240.52,-115.3 1230.52,-118.8 1240.52,-122.3 1240.52,-115.3"/>
</g>
<!-- JwtValidationAdapter -->
<g id="node10" class="node">
<title>JwtValidationAdapter</title>
<ellipse fill="#fdb462" stroke="black" cx="1246" cy="-66.8" rx="96.14" ry="18"/>
<text text-anchor="middle" x="1246" y="-62.6" font-family="Times,serif" font-size="14.00">JwtValidationAdapter</text>
</g>
<!-- JwtValidationAdapter&#45;&gt;AuthenticationModule -->
<g id="edge9" class="edge">
<title>JwtValidationAdapter&#45;&gt;AuthenticationModule</title>
<path fill="none" stroke="black" d="M1190.03,-81.55C1190.03,-81.55 1190.03,-103.39 1190.03,-103.39"/>
<polygon fill="black" stroke="black" points="1186.53,-103.39 1190.03,-113.39 1193.53,-103.39 1186.53,-103.39"/>
</g>
<!-- LdapService -->
<g id="node11" class="node">
<title>LdapService</title>
<ellipse fill="#fdb462" stroke="black" cx="1072" cy="-66.8" rx="59.67" ry="18"/>
<text text-anchor="middle" x="1072" y="-62.6" font-family="Times,serif" font-size="14.00">LdapService</text>
</g>
<!-- LdapService&#45;&gt;AuthenticationModule -->
<g id="edge10" class="edge">
<title>LdapService&#45;&gt;AuthenticationModule</title>
<path fill="none" stroke="black" d="M1109.73,-80.9C1109.73,-80.9 1109.73,-103.52 1109.73,-103.52"/>
<polygon fill="black" stroke="black" points="1106.23,-103.52 1109.73,-113.52 1113.23,-103.52 1106.23,-103.52"/>
</g>
<!-- LdapStrategy -->
<g id="node12" class="node">
<title>LdapStrategy</title>
<ellipse fill="#fdb462" stroke="black" cx="931" cy="-66.8" rx="63.12" ry="18"/>
<text text-anchor="middle" x="931" y="-62.6" font-family="Times,serif" font-size="14.00">LdapStrategy</text>
</g>
<!-- LdapStrategy&#45;&gt;AuthenticationModule -->
<g id="edge11" class="edge">
<title>LdapStrategy&#45;&gt;AuthenticationModule</title>
<path fill="none" stroke="black" d="M931,-84.99C931,-99.98 931,-118.8 931,-118.8 931,-118.8 1077.48,-118.8 1077.48,-118.8"/>
<polygon fill="black" stroke="black" points="1077.48,-122.3 1087.48,-118.8 1077.48,-115.3 1077.48,-122.3"/>
</g>
<!-- LocalStrategy -->
<g id="node13" class="node">
<title>LocalStrategy</title>
<ellipse fill="#fdb462" stroke="black" cx="785" cy="-66.8" rx="65.4" ry="18"/>
<text text-anchor="middle" x="785" y="-62.6" font-family="Times,serif" font-size="14.00">LocalStrategy</text>
</g>
<!-- LocalStrategy&#45;&gt;AuthenticationModule -->
<g id="edge12" class="edge">
<title>LocalStrategy&#45;&gt;AuthenticationModule</title>
<path fill="none" stroke="black" d="M785,-84.83C785,-101.2 785,-122.8 785,-122.8 785,-122.8 1077.33,-122.8 1077.33,-122.8"/>
<polygon fill="black" stroke="black" points="1077.33,-126.3 1087.33,-122.8 1077.33,-119.3 1077.33,-126.3"/>
</g>
<!-- OauthStrategy -->
<g id="node14" class="node">
<title>OauthStrategy</title>
<ellipse fill="#fdb462" stroke="black" cx="635" cy="-66.8" rx="66.64" ry="18"/>
<text text-anchor="middle" x="635" y="-62.6" font-family="Times,serif" font-size="14.00">OauthStrategy</text>
</g>
<!-- OauthStrategy&#45;&gt;AuthenticationModule -->
<g id="edge13" class="edge">
<title>OauthStrategy&#45;&gt;AuthenticationModule</title>
<path fill="none" stroke="black" d="M635,-85.1C635,-103.07 635,-127.8 635,-127.8 635,-127.8 1077.51,-127.8 1077.51,-127.8"/>
<polygon fill="black" stroke="black" points="1077.51,-131.3 1087.51,-127.8 1077.51,-124.3 1077.51,-131.3"/>
</g>
<!-- SchoolMapper -->
<g id="node15" class="node">
<title>SchoolMapper</title>
<ellipse fill="#fdb462" stroke="black" cx="482" cy="-66.8" rx="67.79" ry="18"/>
<text text-anchor="middle" x="482" y="-62.6" font-family="Times,serif" font-size="14.00">SchoolMapper</text>
</g>
<!-- SchoolMapper&#45;&gt;AuthenticationModule -->
<g id="edge14" class="edge">
<title>SchoolMapper&#45;&gt;AuthenticationModule</title>
<path fill="none" stroke="black" d="M482,-84.91C482,-104.14 482,-131.8 482,-131.8 482,-131.8 1077.51,-131.8 1077.51,-131.8"/>
<polygon fill="black" stroke="black" points="1077.51,-135.3 1087.51,-131.8 1077.51,-128.3 1077.51,-135.3"/>
</g>
<!-- SchoolRepo -->
<g id="node16" class="node">
<title>SchoolRepo</title>
<ellipse fill="#fdb462" stroke="black" cx="338" cy="-66.8" rx="58.49" ry="18"/>
<text text-anchor="middle" x="338" y="-62.6" font-family="Times,serif" font-size="14.00">SchoolRepo</text>
</g>
<!-- SchoolRepo&#45;&gt;AuthenticationModule -->
<g id="edge15" class="edge">
<title>SchoolRepo&#45;&gt;AuthenticationModule</title>
<path fill="none" stroke="black" d="M338,-84.83C338,-105.57 338,-136.8 338,-136.8 338,-136.8 1077.58,-136.8 1077.58,-136.8"/>
<polygon fill="black" stroke="black" points="1077.58,-140.3 1087.58,-136.8 1077.58,-133.3 1077.58,-140.3"/>
</g>
<!-- SystemRepo -->
<g id="node17" class="node">
<title>SystemRepo</title>
<ellipse fill="#fdb462" stroke="black" cx="202" cy="-66.8" rx="59.72" ry="18"/>
<text text-anchor="middle" x="202" y="-62.6" font-family="Times,serif" font-size="14.00">SystemRepo</text>
</g>
<!-- SystemRepo&#45;&gt;AuthenticationModule -->
<g id="edge16" class="edge">
<title>SystemRepo&#45;&gt;AuthenticationModule</title>
<path fill="none" stroke="black" d="M202,-85.09C202,-107.01 202,-140.8 202,-140.8 202,-140.8 1077.46,-140.8 1077.46,-140.8"/>
<polygon fill="black" stroke="black" points="1077.46,-144.3 1087.46,-140.8 1077.46,-137.3 1077.46,-144.3"/>
</g>
<!-- UserRepo -->
<g id="node18" class="node">
<title>UserRepo</title>
<ellipse fill="#fdb462" stroke="black" cx="74" cy="-66.8" rx="49.81" ry="18"/>
<text text-anchor="middle" x="74" y="-62.6" font-family="Times,serif" font-size="14.00">UserRepo</text>
</g>
<!-- UserRepo&#45;&gt;AuthenticationModule -->
<g id="edge17" class="edge">
<title>UserRepo&#45;&gt;AuthenticationModule</title>
<path fill="none" stroke="black" d="M74,-85.12C74,-108.46 74,-145.8 74,-145.8 74,-145.8 1077.39,-145.8 1077.39,-145.8"/>
<polygon fill="black" stroke="black" points="1077.39,-149.3 1087.39,-145.8 1077.39,-142.3 1077.39,-149.3"/>
</g>
</g>
</svg>
