<?xml version="1.0" encoding="UTF-8" standalone="no"?>
<!DOCTYPE svg PUBLIC "-//W3C//DTD SVG 1.1//EN"
 "http://www.w3.org/Graphics/SVG/1.1/DTD/svg11.dtd">
<!-- Generated by graphviz version 5.0.0 (20220707.1540)
 -->
<!-- Title: dependencies Pages: 1 -->
<svg width="857pt" height="174pt"
 viewBox="0.00 0.00 857.00 173.80" xmlns="http://www.w3.org/2000/svg" xmlns:xlink="http://www.w3.org/1999/xlink">
<g id="graph0" class="graph" transform="scale(1 1) rotate(0) translate(4 169.8)">
<title>dependencies</title>
<polygon fill="white" stroke="transparent" points="-4,4 -4,-169.8 853,-169.8 853,4 -4,4"/>
<text text-anchor="middle" x="424.5" y="-8.2" font-family="sans-serif" font-size="14.00">dependencies</text>
<g id="clust1" class="cluster">
<title>cluster_SharingApiModule</title>
<polygon fill="none" stroke="black" stroke-dasharray="1,5" points="8,-32.8 8,-157.8 841,-157.8 841,-32.8 8,-32.8"/>
</g>
<g id="clust3" class="cluster">
<title>cluster_SharingApiModule_imports</title>
<polygon fill="none" stroke="black" points="182,-40.8 182,-92.8 833,-92.8 833,-40.8 182,-40.8"/>
</g>
<g id="clust6" class="cluster">
<title>cluster_SharingApiModule_providers</title>
<polygon fill="none" stroke="black" points="16,-40.8 16,-92.8 174,-92.8 174,-40.8 16,-40.8"/>
</g>
<!-- AuthorizationModule -->
<g id="node1" class="node">
<title>AuthorizationModule</title>
<polygon fill="#8dd3c7" stroke="black" points="824.81,-84.8 821.81,-88.8 800.81,-88.8 797.81,-84.8 687.19,-84.8 687.19,-48.8 824.81,-48.8 824.81,-84.8"/>
<text text-anchor="middle" x="756" y="-62.6" font-family="Times,serif" font-size="14.00">AuthorizationModule</text>
</g>
<!-- SharingApiModule -->
<g id="node6" class="node">
<title>SharingApiModule</title>
<polygon fill="#8dd3c7" stroke="black" points="483.1,-149.8 480.1,-153.8 459.1,-153.8 456.1,-149.8 358.9,-149.8 358.9,-113.8 483.1,-113.8 483.1,-149.8"/>
<text text-anchor="middle" x="421" y="-127.6" font-family="Times,serif" font-size="14.00">SharingApiModule</text>
</g>
<!-- AuthorizationModule&#45;&gt;SharingApiModule -->
<g id="edge1" class="edge">
<title>AuthorizationModule&#45;&gt;SharingApiModule</title>
<path fill="none" stroke="black" d="M756,-85.08C756,-106.12 756,-137.8 756,-137.8 756,-137.8 493.23,-137.8 493.23,-137.8"/>
<polygon fill="black" stroke="black" points="493.23,-134.3 483.23,-137.8 493.23,-141.3 493.23,-134.3"/>
</g>
<!-- LearnroomModule -->
<g id="node2" class="node">
<title>LearnroomModule</title>
<polygon fill="#8dd3c7" stroke="black" points="668.75,-84.8 665.75,-88.8 644.75,-88.8 641.75,-84.8 547.25,-84.8 547.25,-48.8 668.75,-48.8 668.75,-84.8"/>
<text text-anchor="middle" x="608" y="-62.6" font-family="Times,serif" font-size="14.00">LearnroomModule</text>
</g>
<!-- LearnroomModule&#45;&gt;SharingApiModule -->
<g id="edge2" class="edge">
<title>LearnroomModule&#45;&gt;SharingApiModule</title>
<path fill="none" stroke="black" d="M608,-84.82C608,-102.17 608,-125.8 608,-125.8 608,-125.8 493.27,-125.8 493.27,-125.8"/>
<polygon fill="black" stroke="black" points="493.27,-122.3 483.27,-125.8 493.27,-129.3 493.27,-122.3"/>
</g>
<!-- LessonModule -->
<g id="node3" class="node">
<title>LessonModule</title>
<polygon fill="#8dd3c7" stroke="black" points="529.71,-84.8 526.71,-88.8 505.71,-88.8 502.71,-84.8 430.29,-84.8 430.29,-48.8 529.71,-48.8 529.71,-84.8"/>
<text text-anchor="middle" x="480" y="-62.6" font-family="Times,serif" font-size="14.00">LessonModule</text>
</g>
<!-- LessonModule&#45;&gt;SharingApiModule -->
<g id="edge3" class="edge">
<title>LessonModule&#45;&gt;SharingApiModule</title>
<path fill="none" stroke="black" d="M456.72,-84.91C456.72,-84.91 456.72,-103.79 456.72,-103.79"/>
<polygon fill="black" stroke="black" points="453.22,-103.79 456.72,-113.79 460.22,-103.79 453.22,-103.79"/>
</g>
<!-- LoggerModule -->
<g id="node4" class="node">
<title>LoggerModule</title>
<polygon fill="#8dd3c7" stroke="black" points="411.98,-84.8 408.98,-88.8 387.98,-88.8 384.98,-84.8 312.02,-84.8 312.02,-48.8 411.98,-48.8 411.98,-84.8"/>
<text text-anchor="middle" x="362" y="-62.6" font-family="Times,serif" font-size="14.00">LoggerModule</text>
</g>
<!-- LoggerModule&#45;&gt;SharingApiModule -->
<g id="edge4" class="edge">
<title>LoggerModule&#45;&gt;SharingApiModule</title>
<path fill="none" stroke="black" d="M385.47,-84.91C385.47,-84.91 385.47,-103.79 385.47,-103.79"/>
<polygon fill="black" stroke="black" points="381.97,-103.79 385.47,-113.79 388.97,-103.79 381.97,-103.79"/>
</g>
<!-- SharingModule -->
<g id="node5" class="node">
<title>SharingModule</title>
<polygon fill="#8dd3c7" stroke="black" points="293.6,-84.8 290.6,-88.8 269.6,-88.8 266.6,-84.8 190.4,-84.8 190.4,-48.8 293.6,-48.8 293.6,-84.8"/>
<text text-anchor="middle" x="242" y="-62.6" font-family="Times,serif" font-size="14.00">SharingModule</text>
</g>
<!-- SharingModule&#45;&gt;SharingApiModule -->
<g id="edge5" class="edge">
<title>SharingModule&#45;&gt;SharingApiModule</title>
<path fill="none" stroke="black" d="M242,-84.82C242,-102.17 242,-125.8 242,-125.8 242,-125.8 348.9,-125.8 348.9,-125.8"/>
<polygon fill="black" stroke="black" points="348.9,-129.3 358.9,-125.8 348.9,-122.3 348.9,-129.3"/>
</g>
<!-- ShareTokenUC -->
<g id="node7" class="node">
<title>ShareTokenUC</title>
<ellipse fill="#fdb462" stroke="black" cx="95" cy="-66.8" rx="71.22" ry="18"/>
<text text-anchor="middle" x="95" y="-62.6" font-family="Times,serif" font-size="14.00">ShareTokenUC</text>
</g>
<!-- ShareTokenUC&#45;&gt;SharingApiModule -->
<g id="edge6" class="edge">
<title>ShareTokenUC&#45;&gt;SharingApiModule</title>
<path fill="none" stroke="black" d="M95,-85.08C95,-106.12 95,-137.8 95,-137.8 95,-137.8 348.91,-137.8 348.91,-137.8"/>
<polygon fill="black" stroke="black" points="348.91,-141.3 358.91,-137.8 348.91,-134.3 348.91,-141.3"/>
</g>
</g>
</svg>
