<?xml version="1.0" encoding="UTF-8" standalone="no"?>
<!DOCTYPE svg PUBLIC "-//W3C//DTD SVG 1.1//EN"
 "http://www.w3.org/Graphics/SVG/1.1/DTD/svg11.dtd">
<!-- Generated by graphviz version 5.0.0 (20220707.1540)
 -->
<!-- Title: dependencies Pages: 1 -->
<svg width="857pt" height="174pt"
 viewBox="0.00 0.00 857.00 173.80" xmlns="http://www.w3.org/2000/svg" xmlns:xlink="http://www.w3.org/1999/xlink">
<g id="graph0" class="graph" transform="scale(1 1) rotate(0) translate(4 169.8)">
<title>dependencies</title>
<polygon fill="white" stroke="transparent" points="-4,4 -4,-169.8 853,-169.8 853,4 -4,4"/>
<text text-anchor="middle" x="424.5" y="-8.2" font-family="sans-serif" font-size="14.00">dependencies</text>
<g id="clust1" class="cluster">
<title>cluster_SharingApiModule</title>
<polygon fill="none" stroke="black" stroke-dasharray="1,5" points="8,-32.8 8,-157.8 841,-157.8 841,-32.8 8,-32.8"/>
</g>
<g id="clust6" class="cluster">
<title>cluster_SharingApiModule_providers</title>
<polygon fill="none" stroke="black" points="675,-40.8 675,-92.8 833,-92.8 833,-40.8 675,-40.8"/>
</g>
<g id="clust3" class="cluster">
<title>cluster_SharingApiModule_imports</title>
<polygon fill="none" stroke="black" points="16,-40.8 16,-92.8 667,-92.8 667,-40.8 16,-40.8"/>
</g>
<!-- AuthorizationModule -->
<g id="node1" class="node">
<title>AuthorizationModule</title>
<polygon fill="#8dd3c7" stroke="black" points="658.81,-84.8 655.81,-88.8 634.81,-88.8 631.81,-84.8 521.19,-84.8 521.19,-48.8 658.81,-48.8 658.81,-84.8"/>
<text text-anchor="middle" x="590" y="-62.6" font-family="Times,serif" font-size="14.00">AuthorizationModule</text>
</g>
<!-- SharingApiModule -->
<g id="node6" class="node">
<title>SharingApiModule</title>
<polygon fill="#8dd3c7" stroke="black" points="440.1,-149.8 437.1,-153.8 416.1,-153.8 413.1,-149.8 315.9,-149.8 315.9,-113.8 440.1,-113.8 440.1,-149.8"/>
<text text-anchor="middle" x="378" y="-127.6" font-family="Times,serif" font-size="14.00">SharingApiModule</text>
</g>
<!-- AuthorizationModule&#45;&gt;SharingApiModule -->
<g id="edge1" class="edge">
<title>AuthorizationModule&#45;&gt;SharingApiModule</title>
<path fill="none" stroke="black" d="M590,-84.82C590,-102.17 590,-125.8 590,-125.8 590,-125.8 450.17,-125.8 450.17,-125.8"/>
<polygon fill="black" stroke="black" points="450.17,-122.3 440.17,-125.8 450.17,-129.3 450.17,-122.3"/>
</g>
<!-- LearnroomModule -->
<g id="node2" class="node">
<title>LearnroomModule</title>
<polygon fill="#8dd3c7" stroke="black" points="502.75,-84.8 499.75,-88.8 478.75,-88.8 475.75,-84.8 381.25,-84.8 381.25,-48.8 502.75,-48.8 502.75,-84.8"/>
<text text-anchor="middle" x="442" y="-62.6" font-family="Times,serif" font-size="14.00">LearnroomModule</text>
</g>
<!-- LearnroomModule&#45;&gt;SharingApiModule -->
<g id="edge2" class="edge">
<title>LearnroomModule&#45;&gt;SharingApiModule</title>
<path fill="none" stroke="black" d="M410.59,-84.91C410.59,-84.91 410.59,-103.79 410.59,-103.79"/>
<polygon fill="black" stroke="black" points="407.09,-103.79 410.59,-113.79 414.09,-103.79 407.09,-103.79"/>
</g>
<!-- LessonModule -->
<g id="node3" class="node">
<title>LessonModule</title>
<polygon fill="#8dd3c7" stroke="black" points="363.71,-84.8 360.71,-88.8 339.71,-88.8 336.71,-84.8 264.29,-84.8 264.29,-48.8 363.71,-48.8 363.71,-84.8"/>
<text text-anchor="middle" x="314" y="-62.6" font-family="Times,serif" font-size="14.00">LessonModule</text>
</g>
<!-- LessonModule&#45;&gt;SharingApiModule -->
<g id="edge3" class="edge">
<title>LessonModule&#45;&gt;SharingApiModule</title>
<path fill="none" stroke="black" d="M339.78,-84.91C339.78,-84.91 339.78,-103.79 339.78,-103.79"/>
<polygon fill="black" stroke="black" points="336.28,-103.79 339.78,-113.79 343.28,-103.79 336.28,-103.79"/>
</g>
<!-- LoggerModule -->
<g id="node4" class="node">
<title>LoggerModule</title>
<polygon fill="#8dd3c7" stroke="black" points="245.98,-84.8 242.98,-88.8 221.98,-88.8 218.98,-84.8 146.02,-84.8 146.02,-48.8 245.98,-48.8 245.98,-84.8"/>
<text text-anchor="middle" x="196" y="-62.6" font-family="Times,serif" font-size="14.00">LoggerModule</text>
</g>
<!-- LoggerModule&#45;&gt;SharingApiModule -->
<g id="edge4" class="edge">
<title>LoggerModule&#45;&gt;SharingApiModule</title>
<path fill="none" stroke="black" d="M196,-84.82C196,-102.17 196,-125.8 196,-125.8 196,-125.8 305.87,-125.8 305.87,-125.8"/>
<polygon fill="black" stroke="black" points="305.87,-129.3 315.87,-125.8 305.87,-122.3 305.87,-129.3"/>
</g>
<!-- SharingModule -->
<g id="node5" class="node">
<title>SharingModule</title>
<polygon fill="#8dd3c7" stroke="black" points="127.6,-84.8 124.6,-88.8 103.6,-88.8 100.6,-84.8 24.4,-84.8 24.4,-48.8 127.6,-48.8 127.6,-84.8"/>
<text text-anchor="middle" x="76" y="-62.6" font-family="Times,serif" font-size="14.00">SharingModule</text>
</g>
<!-- SharingModule&#45;&gt;SharingApiModule -->
<g id="edge5" class="edge">
<title>SharingModule&#45;&gt;SharingApiModule</title>
<path fill="none" stroke="black" d="M76,-85.08C76,-106.12 76,-137.8 76,-137.8 76,-137.8 305.79,-137.8 305.79,-137.8"/>
<polygon fill="black" stroke="black" points="305.79,-141.3 315.79,-137.8 305.79,-134.3 305.79,-141.3"/>
</g>
<!-- ShareTokenUC -->
<g id="node7" class="node">
<title>ShareTokenUC</title>
<ellipse fill="#fdb462" stroke="black" cx="754" cy="-66.8" rx="71.22" ry="18"/>
<text text-anchor="middle" x="754" y="-62.6" font-family="Times,serif" font-size="14.00">ShareTokenUC</text>
</g>
<!-- ShareTokenUC&#45;&gt;SharingApiModule -->
<g id="edge6" class="edge">
<title>ShareTokenUC&#45;&gt;SharingApiModule</title>
<path fill="none" stroke="black" d="M754,-85.08C754,-106.12 754,-137.8 754,-137.8 754,-137.8 450.09,-137.8 450.09,-137.8"/>
<polygon fill="black" stroke="black" points="450.09,-134.3 440.09,-137.8 450.09,-141.3 450.09,-134.3"/>
</g>
</g>
</svg>
