<?xml version="1.0" encoding="UTF-8" standalone="no"?>
<!DOCTYPE svg PUBLIC "-//W3C//DTD SVG 1.1//EN"
 "http://www.w3.org/Graphics/SVG/1.1/DTD/svg11.dtd">
<!-- Generated by graphviz version 5.0.0 (20220707.1540)
 -->
<!-- Title: dependencies Pages: 1 -->
<svg width="740pt" height="174pt"
 viewBox="0.00 0.00 740.00 173.80" xmlns="http://www.w3.org/2000/svg" xmlns:xlink="http://www.w3.org/1999/xlink">
<g id="graph0" class="graph" transform="scale(1 1) rotate(0) translate(4 169.8)">
<title>dependencies</title>
<polygon fill="white" stroke="transparent" points="-4,4 -4,-169.8 736,-169.8 736,4 -4,4"/>
<text text-anchor="middle" x="366" y="-8.2" font-family="sans-serif" font-size="14.00">dependencies</text>
<g id="clust1" class="cluster">
<title>cluster_SharingApiModule</title>
<polygon fill="none" stroke="black" stroke-dasharray="1,5" points="8,-32.8 8,-157.8 724,-157.8 724,-32.8 8,-32.8"/>
</g>
<g id="clust6" class="cluster">
<title>cluster_SharingApiModule_providers</title>
<polygon fill="none" stroke="black" points="558,-40.8 558,-92.8 716,-92.8 716,-40.8 558,-40.8"/>
</g>
<g id="clust3" class="cluster">
<title>cluster_SharingApiModule_imports</title>
<polygon fill="none" stroke="black" points="16,-40.8 16,-92.8 550,-92.8 550,-40.8 16,-40.8"/>
</g>
<!-- AuthorizationModule -->
<g id="node1" class="node">
<title>AuthorizationModule</title>
<polygon fill="#8dd3c7" stroke="black" points="541.81,-84.8 538.81,-88.8 517.81,-88.8 514.81,-84.8 404.19,-84.8 404.19,-48.8 541.81,-48.8 541.81,-84.8"/>
<text text-anchor="middle" x="473" y="-62.6" font-family="Times,serif" font-size="14.00">AuthorizationModule</text>
</g>
<!-- SharingApiModule -->
<g id="node5" class="node">
<title>SharingApiModule</title>
<polygon fill="#8dd3c7" stroke="black" points="387.1,-149.8 384.1,-153.8 363.1,-153.8 360.1,-149.8 262.9,-149.8 262.9,-113.8 387.1,-113.8 387.1,-149.8"/>
<text text-anchor="middle" x="325" y="-127.6" font-family="Times,serif" font-size="14.00">SharingApiModule</text>
</g>
<!-- AuthorizationModule&#45;&gt;SharingApiModule -->
<g id="edge1" class="edge">
<title>AuthorizationModule&#45;&gt;SharingApiModule</title>
<path fill="none" stroke="black" d="M473,-84.82C473,-102.17 473,-125.8 473,-125.8 473,-125.8 397.34,-125.8 397.34,-125.8"/>
<polygon fill="black" stroke="black" points="397.34,-122.3 387.34,-125.8 397.34,-129.3 397.34,-122.3"/>
</g>
<!-- LearnroomModule -->
<g id="node2" class="node">
<title>LearnroomModule</title>
<polygon fill="#8dd3c7" stroke="black" points="385.75,-84.8 382.75,-88.8 361.75,-88.8 358.75,-84.8 264.25,-84.8 264.25,-48.8 385.75,-48.8 385.75,-84.8"/>
<text text-anchor="middle" x="325" y="-62.6" font-family="Times,serif" font-size="14.00">LearnroomModule</text>
</g>
<!-- LearnroomModule&#45;&gt;SharingApiModule -->
<g id="edge2" class="edge">
<title>LearnroomModule&#45;&gt;SharingApiModule</title>
<path fill="none" stroke="black" d="M325,-84.91C325,-84.91 325,-103.79 325,-103.79"/>
<polygon fill="black" stroke="black" points="321.5,-103.79 325,-113.79 328.5,-103.79 321.5,-103.79"/>
</g>
<!-- LoggerModule -->
<g id="node3" class="node">
<title>LoggerModule</title>
<polygon fill="#8dd3c7" stroke="black" points="245.98,-84.8 242.98,-88.8 221.98,-88.8 218.98,-84.8 146.02,-84.8 146.02,-48.8 245.98,-48.8 245.98,-84.8"/>
<text text-anchor="middle" x="196" y="-62.6" font-family="Times,serif" font-size="14.00">LoggerModule</text>
</g>
<!-- LoggerModule&#45;&gt;SharingApiModule -->
<g id="edge3" class="edge">
<title>LoggerModule&#45;&gt;SharingApiModule</title>
<path fill="none" stroke="black" d="M196,-84.82C196,-102.17 196,-125.8 196,-125.8 196,-125.8 252.77,-125.8 252.77,-125.8"/>
<polygon fill="black" stroke="black" points="252.77,-129.3 262.77,-125.8 252.77,-122.3 252.77,-129.3"/>
</g>
<!-- SharingModule -->
<g id="node4" class="node">
<title>SharingModule</title>
<polygon fill="#8dd3c7" stroke="black" points="127.6,-84.8 124.6,-88.8 103.6,-88.8 100.6,-84.8 24.4,-84.8 24.4,-48.8 127.6,-48.8 127.6,-84.8"/>
<text text-anchor="middle" x="76" y="-62.6" font-family="Times,serif" font-size="14.00">SharingModule</text>
</g>
<!-- SharingModule&#45;&gt;SharingApiModule -->
<g id="edge4" class="edge">
<title>SharingModule&#45;&gt;SharingApiModule</title>
<path fill="none" stroke="black" d="M76,-85.08C76,-106.12 76,-137.8 76,-137.8 76,-137.8 252.81,-137.8 252.81,-137.8"/>
<polygon fill="black" stroke="black" points="252.81,-141.3 262.81,-137.8 252.81,-134.3 252.81,-141.3"/>
</g>
<!-- ShareTokenUC -->
<g id="node6" class="node">
<title>ShareTokenUC</title>
<ellipse fill="#fdb462" stroke="black" cx="637" cy="-66.8" rx="71.22" ry="18"/>
<text text-anchor="middle" x="637" y="-62.6" font-family="Times,serif" font-size="14.00">ShareTokenUC</text>
</g>
<!-- ShareTokenUC&#45;&gt;SharingApiModule -->
<g id="edge5" class="edge">
<title>ShareTokenUC&#45;&gt;SharingApiModule</title>
<path fill="none" stroke="black" d="M637,-85.08C637,-106.12 637,-137.8 637,-137.8 637,-137.8 397.39,-137.8 397.39,-137.8"/>
<polygon fill="black" stroke="black" points="397.39,-134.3 387.39,-137.8 397.39,-141.3 397.39,-134.3"/>
</g>
</g>
</svg>
