<?xml version="1.0" encoding="UTF-8" standalone="no"?>
<!DOCTYPE svg PUBLIC "-//W3C//DTD SVG 1.1//EN"
 "http://www.w3.org/Graphics/SVG/1.1/DTD/svg11.dtd">
<!-- Generated by graphviz version 5.0.0 (20220707.1540)
 -->
<!-- Title: dependencies Pages: 1 -->
<svg width="740pt" height="174pt"
 viewBox="0.00 0.00 740.00 173.80" xmlns="http://www.w3.org/2000/svg" xmlns:xlink="http://www.w3.org/1999/xlink">
<g id="graph0" class="graph" transform="scale(1 1) rotate(0) translate(4 169.8)">
<title>dependencies</title>
<polygon fill="white" stroke="transparent" points="-4,4 -4,-169.8 736,-169.8 736,4 -4,4"/>
<text text-anchor="middle" x="366" y="-8.2" font-family="sans-serif" font-size="14.00">dependencies</text>
<g id="clust1" class="cluster">
<title>cluster_SharingApiModule</title>
<polygon fill="none" stroke="black" stroke-dasharray="1,5" points="8,-32.8 8,-157.8 724,-157.8 724,-32.8 8,-32.8"/>
</g>
<g id="clust3" class="cluster">
<title>cluster_SharingApiModule_imports</title>
<polygon fill="none" stroke="black" points="182,-40.8 182,-92.8 716,-92.8 716,-40.8 182,-40.8"/>
</g>
<g id="clust6" class="cluster">
<title>cluster_SharingApiModule_providers</title>
<polygon fill="none" stroke="black" points="16,-40.8 16,-92.8 174,-92.8 174,-40.8 16,-40.8"/>
</g>
<!-- AuthorizationModule -->
<g id="node1" class="node">
<title>AuthorizationModule</title>
<polygon fill="#8dd3c7" stroke="black" points="707.81,-84.8 704.81,-88.8 683.81,-88.8 680.81,-84.8 570.19,-84.8 570.19,-48.8 707.81,-48.8 707.81,-84.8"/>
<text text-anchor="middle" x="639" y="-62.6" font-family="Times,serif" font-size="14.00">AuthorizationModule</text>
</g>
<!-- SharingApiModule -->
<g id="node5" class="node">
<title>SharingApiModule</title>
<polygon fill="#8dd3c7" stroke="black" points="424.1,-149.8 421.1,-153.8 400.1,-153.8 397.1,-149.8 299.9,-149.8 299.9,-113.8 424.1,-113.8 424.1,-149.8"/>
<text text-anchor="middle" x="362" y="-127.6" font-family="Times,serif" font-size="14.00">SharingApiModule</text>
</g>
<!-- AuthorizationModule&#45;&gt;SharingApiModule -->
<g id="edge1" class="edge">
<title>AuthorizationModule&#45;&gt;SharingApiModule</title>
<path fill="none" stroke="black" d="M639,-84.91C639,-104.14 639,-131.8 639,-131.8 639,-131.8 434.16,-131.8 434.16,-131.8"/>
<polygon fill="black" stroke="black" points="434.16,-128.3 424.16,-131.8 434.16,-135.3 434.16,-128.3"/>
</g>
<!-- LearnroomModule -->
<g id="node2" class="node">
<title>LearnroomModule</title>
<polygon fill="#8dd3c7" stroke="black" points="551.75,-84.8 548.75,-88.8 527.75,-88.8 524.75,-84.8 430.25,-84.8 430.25,-48.8 551.75,-48.8 551.75,-84.8"/>
<text text-anchor="middle" x="491" y="-62.6" font-family="Times,serif" font-size="14.00">LearnroomModule</text>
</g>
<!-- LearnroomModule&#45;&gt;SharingApiModule -->
<g id="edge2" class="edge">
<title>LearnroomModule&#45;&gt;SharingApiModule</title>
<path fill="none" stroke="black" d="M430.07,-66.8C422.87,-66.8 418.02,-66.8 418.02,-66.8 418.02,-66.8 418.02,-103.69 418.02,-103.69"/>
<polygon fill="black" stroke="black" points="414.52,-103.69 418.02,-113.69 421.52,-103.69 414.52,-103.69"/>
</g>
<!-- LoggerModule -->
<g id="node3" class="node">
<title>LoggerModule</title>
<polygon fill="#8dd3c7" stroke="black" points="411.98,-84.8 408.98,-88.8 387.98,-88.8 384.98,-84.8 312.02,-84.8 312.02,-48.8 411.98,-48.8 411.98,-84.8"/>
<text text-anchor="middle" x="362" y="-62.6" font-family="Times,serif" font-size="14.00">LoggerModule</text>
</g>
<!-- LoggerModule&#45;&gt;SharingApiModule -->
<g id="edge3" class="edge">
<title>LoggerModule&#45;&gt;SharingApiModule</title>
<path fill="none" stroke="black" d="M362,-84.91C362,-84.91 362,-103.79 362,-103.79"/>
<polygon fill="black" stroke="black" points="358.5,-103.79 362,-113.79 365.5,-103.79 358.5,-103.79"/>
</g>
<!-- SharingModule -->
<g id="node4" class="node">
<title>SharingModule</title>
<polygon fill="#8dd3c7" stroke="black" points="293.6,-84.8 290.6,-88.8 269.6,-88.8 266.6,-84.8 190.4,-84.8 190.4,-48.8 293.6,-48.8 293.6,-84.8"/>
<text text-anchor="middle" x="242" y="-62.6" font-family="Times,serif" font-size="14.00">SharingModule</text>
</g>
<!-- SharingModule&#45;&gt;SharingApiModule -->
<g id="edge4" class="edge">
<title>SharingModule&#45;&gt;SharingApiModule</title>
<path fill="none" stroke="black" d="M293.64,-66.8C300.92,-66.8 305.98,-66.8 305.98,-66.8 305.98,-66.8 305.98,-103.69 305.98,-103.69"/>
<polygon fill="black" stroke="black" points="302.48,-103.69 305.98,-113.69 309.48,-103.69 302.48,-103.69"/>
</g>
<!-- ShareTokenUC -->
<g id="node6" class="node">
<title>ShareTokenUC</title>
<ellipse fill="#fdb462" stroke="black" cx="95" cy="-66.8" rx="71.22" ry="18"/>
<text text-anchor="middle" x="95" y="-62.6" font-family="Times,serif" font-size="14.00">ShareTokenUC</text>
</g>
<!-- ShareTokenUC&#45;&gt;SharingApiModule -->
<g id="edge5" class="edge">
<title>ShareTokenUC&#45;&gt;SharingApiModule</title>
<path fill="none" stroke="black" d="M95,-84.91C95,-104.14 95,-131.8 95,-131.8 95,-131.8 289.74,-131.8 289.74,-131.8"/>
<polygon fill="black" stroke="black" points="289.74,-135.3 299.74,-131.8 289.74,-128.3 289.74,-135.3"/>
</g>
</g>
</svg>
