<?xml version="1.0" encoding="UTF-8" standalone="no"?>
<!DOCTYPE svg PUBLIC "-//W3C//DTD SVG 1.1//EN"
 "http://www.w3.org/Graphics/SVG/1.1/DTD/svg11.dtd">
<!-- Generated by graphviz version 5.0.0 (20220707.1540)
 -->
<!-- Title: dependencies Pages: 1 -->
<svg width="210pt" height="174pt"
 viewBox="0.00 0.00 210.00 173.80" xmlns="http://www.w3.org/2000/svg" xmlns:xlink="http://www.w3.org/1999/xlink">
<g id="graph0" class="graph" transform="scale(1 1) rotate(0) translate(4 169.8)">
<title>dependencies</title>
<polygon fill="white" stroke="transparent" points="-4,4 -4,-169.8 206,-169.8 206,4 -4,4"/>
<text text-anchor="middle" x="101" y="-8.2" font-family="sans-serif" font-size="14.00">dependencies</text>
<g id="clust1" class="cluster">
<title>cluster_ManagementServerModule</title>
<polygon fill="none" stroke="black" stroke-dasharray="1,5" points="8,-32.8 8,-157.8 194,-157.8 194,-32.8 8,-32.8"/>
</g>
<g id="clust3" class="cluster">
<title>cluster_ManagementServerModule_imports</title>
<polygon fill="none" stroke="black" points="27,-40.8 27,-92.8 175,-92.8 175,-40.8 27,-40.8"/>
</g>
<!-- ManagementModule -->
<g id="node1" class="node">
<title>ManagementModule</title>
<polygon fill="#8dd3c7" stroke="black" points="167.14,-84.8 164.14,-88.8 143.14,-88.8 140.14,-84.8 34.86,-84.8 34.86,-48.8 167.14,-48.8 167.14,-84.8"/>
<text text-anchor="middle" x="101" y="-62.6" font-family="Times,serif" font-size="14.00">ManagementModule</text>
</g>
<!-- ManagementServerModule -->
<g id="node2" class="node">
<title>ManagementServerModule</title>
<polygon fill="#8dd3c7" stroke="black" points="185.67,-149.8 182.67,-153.8 161.67,-153.8 158.67,-149.8 16.33,-149.8 16.33,-113.8 185.67,-113.8 185.67,-149.8"/>
<text text-anchor="middle" x="101" y="-127.6" font-family="Times,serif" font-size="14.00">ManagementServerModule</text>
</g>
<!-- ManagementModule&#45;&gt;ManagementServerModule -->
<g id="edge1" class="edge">
<title>ManagementModule&#45;&gt;ManagementServerModule</title>
<path fill="none" stroke="black" d="M101,-84.91C101,-84.91 101,-103.79 101,-103.79"/>
<polygon fill="black" stroke="black" points="97.5,-103.79 101,-113.79 104.5,-103.79 97.5,-103.79"/>
</g>
</g>
</svg>
