<?xml version="1.0" encoding="UTF-8" standalone="no"?>
<!DOCTYPE svg PUBLIC "-//W3C//DTD SVG 1.1//EN"
 "http://www.w3.org/Graphics/SVG/1.1/DTD/svg11.dtd">
<!-- Generated by graphviz version 5.0.0 (20220707.1540)
 -->
<!-- Title: dependencies Pages: 1 -->
<svg width="448pt" height="247pt"
 viewBox="0.00 0.00 448.00 246.80" xmlns="http://www.w3.org/2000/svg" xmlns:xlink="http://www.w3.org/1999/xlink">
<g id="graph0" class="graph" transform="scale(1 1) rotate(0) translate(4 242.8)">
<title>dependencies</title>
<polygon fill="white" stroke="transparent" points="-4,4 -4,-242.8 444,-242.8 444,4 -4,4"/>
<text text-anchor="middle" x="220" y="-8.2" font-family="sans-serif" font-size="14.00">dependencies</text>
<g id="clust1" class="cluster">
<title>cluster_KeycloakControllerModule</title>
<polygon fill="none" stroke="black" stroke-dasharray="1,5" points="8,-32.8 8,-230.8 432,-230.8 432,-32.8 8,-32.8"/>
</g>
<g id="clust4" class="cluster">
<title>cluster_KeycloakControllerModule_exports</title>
<polygon fill="none" stroke="black" points="131,-170.8 131,-222.8 267,-222.8 267,-170.8 131,-170.8"/>
</g>
<g id="clust3" class="cluster">
<title>cluster_KeycloakControllerModule_imports</title>
<polygon fill="none" stroke="black" points="16,-40.8 16,-92.8 424,-92.8 424,-40.8 16,-40.8"/>
</g>
<!-- ConsoleWriterModule -->
<g id="node1" class="node">
<title>ConsoleWriterModule</title>
<polygon fill="#8dd3c7" stroke="black" points="415.97,-84.8 412.97,-88.8 391.97,-88.8 388.97,-84.8 274.03,-84.8 274.03,-48.8 415.97,-48.8 415.97,-84.8"/>
<text text-anchor="middle" x="345" y="-62.6" font-family="Times,serif" font-size="14.00">ConsoleWriterModule</text>
</g>
<!-- KeycloakControllerModule -->
<g id="node4" class="node">
<title>KeycloakControllerModule</title>
<polygon fill="#8dd3c7" stroke="black" points="284.24,-149.8 281.24,-153.8 260.24,-153.8 257.24,-149.8 113.76,-149.8 113.76,-113.8 284.24,-113.8 284.24,-149.8"/>
<text text-anchor="middle" x="199" y="-127.6" font-family="Times,serif" font-size="14.00">KeycloakControllerModule</text>
</g>
<!-- ConsoleWriterModule&#45;&gt;KeycloakControllerModule -->
<g id="edge1" class="edge">
<title>ConsoleWriterModule&#45;&gt;KeycloakControllerModule</title>
<path fill="none" stroke="black" d="M279.19,-84.91C279.19,-84.91 279.19,-103.79 279.19,-103.79"/>
<polygon fill="black" stroke="black" points="275.69,-103.79 279.19,-113.79 282.69,-103.79 275.69,-103.79"/>
</g>
<!-- KeycloakModule -->
<g id="node2" class="node">
<title>KeycloakModule</title>
<polygon fill="#8dd3c7" stroke="black" points="255.69,-84.8 252.69,-88.8 231.69,-88.8 228.69,-84.8 142.31,-84.8 142.31,-48.8 255.69,-48.8 255.69,-84.8"/>
<text text-anchor="middle" x="199" y="-62.6" font-family="Times,serif" font-size="14.00">KeycloakModule</text>
</g>
<!-- KeycloakModule&#45;&gt;KeycloakControllerModule -->
<g id="edge2" class="edge">
<title>KeycloakModule&#45;&gt;KeycloakControllerModule</title>
<path fill="none" stroke="black" d="M199,-84.91C199,-84.91 199,-103.79 199,-103.79"/>
<polygon fill="black" stroke="black" points="195.5,-103.79 199,-113.79 202.5,-103.79 195.5,-103.79"/>
</g>
<!-- LoggerModule -->
<g id="node3" class="node">
<title>LoggerModule</title>
<polygon fill="#8dd3c7" stroke="black" points="123.98,-84.8 120.98,-88.8 99.98,-88.8 96.98,-84.8 24.02,-84.8 24.02,-48.8 123.98,-48.8 123.98,-84.8"/>
<text text-anchor="middle" x="74" y="-62.6" font-family="Times,serif" font-size="14.00">LoggerModule</text>
</g>
<!-- LoggerModule&#45;&gt;KeycloakControllerModule -->
<g id="edge3" class="edge">
<title>LoggerModule&#45;&gt;KeycloakControllerModule</title>
<path fill="none" stroke="black" d="M118.81,-84.91C118.81,-84.91 118.81,-103.79 118.81,-103.79"/>
<polygon fill="black" stroke="black" points="115.31,-103.79 118.81,-113.79 122.31,-103.79 115.31,-103.79"/>
</g>
<!-- KeycloakConsole  -->
<g id="node5" class="node">
<title>KeycloakConsole </title>
<polygon fill="#fb8072" stroke="black" points="258.53,-214.8 139.47,-214.8 139.47,-178.8 258.53,-178.8 258.53,-214.8"/>
<text text-anchor="middle" x="199" y="-192.6" font-family="Times,serif" font-size="14.00">KeycloakConsole </text>
</g>
<!-- KeycloakControllerModule&#45;&gt;KeycloakConsole  -->
<g id="edge4" class="edge">
<title>KeycloakControllerModule&#45;&gt;KeycloakConsole </title>
<path fill="none" stroke="black" stroke-dasharray="5,2" d="M199,-149.91C199,-149.91 199,-168.79 199,-168.79"/>
<polygon fill="black" stroke="black" points="195.5,-168.79 199,-178.79 202.5,-168.79 195.5,-168.79"/>
</g>
</g>
</svg>
