<?xml version="1.0" encoding="UTF-8" standalone="no"?>
<!DOCTYPE svg PUBLIC "-//W3C//DTD SVG 1.1//EN"
 "http://www.w3.org/Graphics/SVG/1.1/DTD/svg11.dtd">
<!-- Generated by graphviz version 5.0.0 (20220707.1540)
 -->
<!-- Title: dependencies Pages: 1 -->
<svg width="721pt" height="174pt"
 viewBox="0.00 0.00 721.00 173.80" xmlns="http://www.w3.org/2000/svg" xmlns:xlink="http://www.w3.org/1999/xlink">
<g id="graph0" class="graph" transform="scale(1 1) rotate(0) translate(4 169.8)">
<title>dependencies</title>
<polygon fill="white" stroke="transparent" points="-4,4 -4,-169.8 717,-169.8 717,4 -4,4"/>
<text text-anchor="middle" x="356.5" y="-8.2" font-family="sans-serif" font-size="14.00">dependencies</text>
<g id="clust1" class="cluster">
<title>cluster_FilesStorageApiModule</title>
<polygon fill="none" stroke="black" stroke-dasharray="1,5" points="8,-32.8 8,-157.8 705,-157.8 705,-32.8 8,-32.8"/>
</g>
<g id="clust6" class="cluster">
<title>cluster_FilesStorageApiModule_providers</title>
<polygon fill="none" stroke="black" points="535,-40.8 535,-92.8 697,-92.8 697,-40.8 535,-40.8"/>
</g>
<g id="clust3" class="cluster">
<title>cluster_FilesStorageApiModule_imports</title>
<polygon fill="none" stroke="black" points="16,-40.8 16,-92.8 527,-92.8 527,-40.8 16,-40.8"/>
</g>
<!-- AuthModule -->
<g id="node1" class="node">
<title>AuthModule</title>
<polygon fill="#8dd3c7" stroke="black" points="518.55,-84.8 515.55,-88.8 494.55,-88.8 491.55,-84.8 431.45,-84.8 431.45,-48.8 518.55,-48.8 518.55,-84.8"/>
<text text-anchor="middle" x="475" y="-62.6" font-family="Times,serif" font-size="14.00">AuthModule</text>
</g>
<!-- FilesStorageApiModule -->
<g id="node5" class="node">
<title>FilesStorageApiModule</title>
<polygon fill="#8dd3c7" stroke="black" points="420.05,-149.8 417.05,-153.8 396.05,-153.8 393.05,-149.8 269.95,-149.8 269.95,-113.8 420.05,-113.8 420.05,-149.8"/>
<text text-anchor="middle" x="345" y="-127.6" font-family="Times,serif" font-size="14.00">FilesStorageApiModule</text>
</g>
<!-- AuthModule&#45;&gt;FilesStorageApiModule -->
<g id="edge1" class="edge">
<title>AuthModule&#45;&gt;FilesStorageApiModule</title>
<path fill="none" stroke="black" d="M475,-84.82C475,-102.17 475,-125.8 475,-125.8 475,-125.8 430.25,-125.8 430.25,-125.8"/>
<polygon fill="black" stroke="black" points="430.25,-122.3 420.25,-125.8 430.25,-129.3 430.25,-122.3"/>
</g>
<!-- AuthorizationModule -->
<g id="node2" class="node">
<title>AuthorizationModule</title>
<polygon fill="#8dd3c7" stroke="black" points="413.81,-84.8 410.81,-88.8 389.81,-88.8 386.81,-84.8 276.19,-84.8 276.19,-48.8 413.81,-48.8 413.81,-84.8"/>
<text text-anchor="middle" x="345" y="-62.6" font-family="Times,serif" font-size="14.00">AuthorizationModule</text>
</g>
<!-- AuthorizationModule&#45;&gt;FilesStorageApiModule -->
<g id="edge2" class="edge">
<title>AuthorizationModule&#45;&gt;FilesStorageApiModule</title>
<path fill="none" stroke="black" d="M345,-84.91C345,-84.91 345,-103.79 345,-103.79"/>
<polygon fill="black" stroke="black" points="341.5,-103.79 345,-113.79 348.5,-103.79 341.5,-103.79"/>
</g>
<!-- CoreModule -->
<g id="node3" class="node">
<title>CoreModule</title>
<polygon fill="#8dd3c7" stroke="black" points="258.27,-84.8 255.27,-88.8 234.27,-88.8 231.27,-84.8 171.73,-84.8 171.73,-48.8 258.27,-48.8 258.27,-84.8"/>
<text text-anchor="middle" x="215" y="-62.6" font-family="Times,serif" font-size="14.00">CoreModule</text>
</g>
<!-- CoreModule&#45;&gt;FilesStorageApiModule -->
<g id="edge3" class="edge">
<title>CoreModule&#45;&gt;FilesStorageApiModule</title>
<path fill="none" stroke="black" d="M215,-84.82C215,-102.17 215,-125.8 215,-125.8 215,-125.8 259.75,-125.8 259.75,-125.8"/>
<polygon fill="black" stroke="black" points="259.75,-129.3 269.75,-125.8 259.75,-122.3 259.75,-129.3"/>
</g>
<!-- FilesStorageModule -->
<g id="node4" class="node">
<title>FilesStorageModule</title>
<polygon fill="#8dd3c7" stroke="black" points="153.55,-84.8 150.55,-88.8 129.55,-88.8 126.55,-84.8 24.45,-84.8 24.45,-48.8 153.55,-48.8 153.55,-84.8"/>
<text text-anchor="middle" x="89" y="-62.6" font-family="Times,serif" font-size="14.00">FilesStorageModule</text>
</g>
<!-- FilesStorageModule&#45;&gt;FilesStorageApiModule -->
<g id="edge4" class="edge">
<title>FilesStorageModule&#45;&gt;FilesStorageApiModule</title>
<path fill="none" stroke="black" d="M89,-85.08C89,-106.12 89,-137.8 89,-137.8 89,-137.8 259.92,-137.8 259.92,-137.8"/>
<polygon fill="black" stroke="black" points="259.92,-141.3 269.92,-137.8 259.92,-134.3 259.92,-141.3"/>
</g>
<!-- FilesStorageUC -->
<g id="node6" class="node">
<title>FilesStorageUC</title>
<ellipse fill="#fdb462" stroke="black" cx="616" cy="-66.8" rx="72.96" ry="18"/>
<text text-anchor="middle" x="616" y="-62.6" font-family="Times,serif" font-size="14.00">FilesStorageUC</text>
</g>
<!-- FilesStorageUC&#45;&gt;FilesStorageApiModule -->
<g id="edge5" class="edge">
<title>FilesStorageUC&#45;&gt;FilesStorageApiModule</title>
<path fill="none" stroke="black" d="M616,-85.08C616,-106.12 616,-137.8 616,-137.8 616,-137.8 430.13,-137.8 430.13,-137.8"/>
<polygon fill="black" stroke="black" points="430.13,-134.3 420.13,-137.8 430.13,-141.3 430.13,-134.3"/>
</g>
</g>
</svg>
