<?xml version="1.0" encoding="UTF-8" standalone="no"?>
<!DOCTYPE svg PUBLIC "-//W3C//DTD SVG 1.1//EN"
 "http://www.w3.org/Graphics/SVG/1.1/DTD/svg11.dtd">
<!-- Generated by graphviz version 5.0.0 (20220707.1540)
 -->
<!-- Title: dependencies Pages: 1 -->
<svg width="234pt" height="247pt"
 viewBox="0.00 0.00 234.00 246.80" xmlns="http://www.w3.org/2000/svg" xmlns:xlink="http://www.w3.org/1999/xlink">
<g id="graph0" class="graph" transform="scale(1 1) rotate(0) translate(4 242.8)">
<title>dependencies</title>
<polygon fill="white" stroke="transparent" points="-4,4 -4,-242.8 230,-242.8 230,4 -4,4"/>
<text text-anchor="middle" x="113" y="-8.2" font-family="sans-serif" font-size="14.00">dependencies</text>
<g id="clust1" class="cluster">
<title>cluster_IdentityManagementModule</title>
<polygon fill="none" stroke="black" stroke-dasharray="1,5" points="8,-32.8 8,-230.8 218,-230.8 218,-32.8 8,-32.8"/>
</g>
<g id="clust4" class="cluster">
<title>cluster_IdentityManagementModule_exports</title>
<polygon fill="none" stroke="black" points="16,-170.8 16,-222.8 210,-222.8 210,-170.8 16,-170.8"/>
</g>
<g id="clust3" class="cluster">
<title>cluster_IdentityManagementModule_imports</title>
<polygon fill="none" stroke="black" points="48,-40.8 48,-92.8 178,-92.8 178,-40.8 48,-40.8"/>
</g>
<!-- KeycloakModule -->
<g id="node1" class="node">
<title>KeycloakModule</title>
<polygon fill="#8dd3c7" stroke="black" points="169.69,-84.8 166.69,-88.8 145.69,-88.8 142.69,-84.8 56.31,-84.8 56.31,-48.8 169.69,-48.8 169.69,-84.8"/>
<text text-anchor="middle" x="113" y="-62.6" font-family="Times,serif" font-size="14.00">KeycloakModule</text>
</g>
<!-- IdentityManagementModule -->
<g id="node2" class="node">
<title>IdentityManagementModule</title>
<polygon fill="#8dd3c7" stroke="black" points="201.18,-149.8 198.18,-153.8 177.18,-153.8 174.18,-149.8 24.82,-149.8 24.82,-113.8 201.18,-113.8 201.18,-149.8"/>
<text text-anchor="middle" x="113" y="-127.6" font-family="Times,serif" font-size="14.00">IdentityManagementModule</text>
</g>
<!-- KeycloakModule&#45;&gt;IdentityManagementModule -->
<g id="edge1" class="edge">
<title>KeycloakModule&#45;&gt;IdentityManagementModule</title>
<path fill="none" stroke="black" d="M113,-84.91C113,-84.91 113,-103.79 113,-103.79"/>
<polygon fill="black" stroke="black" points="109.5,-103.79 113,-113.79 116.5,-103.79 109.5,-103.79"/>
</g>
<!-- IdentityManagementService  -->
<g id="node3" class="node">
<title>IdentityManagementService </title>
<polygon fill="#fb8072" stroke="black" points="202.11,-214.8 23.89,-214.8 23.89,-178.8 202.11,-178.8 202.11,-214.8"/>
<text text-anchor="middle" x="113" y="-192.6" font-family="Times,serif" font-size="14.00">IdentityManagementService </text>
</g>
<!-- IdentityManagementModule&#45;&gt;IdentityManagementService  -->
<g id="edge2" class="edge">
<title>IdentityManagementModule&#45;&gt;IdentityManagementService </title>
<path fill="none" stroke="black" stroke-dasharray="5,2" d="M113,-149.91C113,-149.91 113,-168.79 113,-168.79"/>
<polygon fill="black" stroke="black" points="109.5,-168.79 113,-178.79 116.5,-168.79 109.5,-168.79"/>
</g>
</g>
</svg>
