<?xml version="1.0" encoding="UTF-8" standalone="no"?>
<!DOCTYPE svg PUBLIC "-//W3C//DTD SVG 1.1//EN"
 "http://www.w3.org/Graphics/SVG/1.1/DTD/svg11.dtd">
<!-- Generated by graphviz version 2.47.3 (20210619.1520)
 -->
<!-- Title: dependencies Pages: 1 -->
<svg width="216pt" height="174pt"
 viewBox="0.00 0.00 216.00 173.80" xmlns="http://www.w3.org/2000/svg" xmlns:xlink="http://www.w3.org/1999/xlink">
<g id="graph0" class="graph" transform="scale(1 1) rotate(0) translate(4 169.8)">
<title>dependencies</title>
<polygon fill="white" stroke="transparent" points="-4,4 -4,-169.8 212,-169.8 212,4 -4,4"/>
<text text-anchor="middle" x="104" y="-8.2" font-family="sans-serif" font-size="14.00">dependencies</text>
<g id="clust1" class="cluster">
<title>cluster_IdentityManagementModule</title>
<polygon fill="none" stroke="black" stroke-dasharray="1,5" points="8,-32.8 8,-157.8 200,-157.8 200,-32.8 8,-32.8"/>
</g>
<g id="clust4" class="cluster">
<title>cluster_IdentityManagementModule_exports</title>
<polygon fill="none" stroke="black" points="28,-97.8 28,-149.8 180,-149.8 180,-97.8 28,-97.8"/>
</g>
<!-- IdentityManagement  -->
<g id="node1" class="node">
<title>IdentityManagement </title>
<polygon fill="#fb8072" stroke="black" points="172.13,-141.8 35.87,-141.8 35.87,-105.8 172.13,-105.8 172.13,-141.8"/>
<text text-anchor="middle" x="104" y="-119.6" font-family="Times,serif" font-size="14.00">IdentityManagement </text>
</g>
<!-- IdentityManagementModule -->
<g id="node2" class="node">
<title>IdentityManagementModule</title>
<polygon fill="#8dd3c7" stroke="black" points="192.18,-76.8 189.18,-80.8 168.18,-80.8 165.18,-76.8 15.82,-76.8 15.82,-40.8 192.18,-40.8 192.18,-76.8"/>
<text text-anchor="middle" x="104" y="-54.6" font-family="Times,serif" font-size="14.00">IdentityManagementModule</text>
</g>
<!-- IdentityManagementModule&#45;&gt;IdentityManagement  -->
<g id="edge1" class="edge">
<title>IdentityManagementModule&#45;&gt;IdentityManagement </title>
<path fill="none" stroke="black" stroke-dasharray="5,2" d="M104,-76.91C104,-76.91 104,-95.79 104,-95.79"/>
<polygon fill="black" stroke="black" points="100.5,-95.79 104,-105.79 107.5,-95.79 100.5,-95.79"/>
</g>
</g>
</svg>
