<?xml version="1.0" encoding="UTF-8" standalone="no"?>
<!DOCTYPE svg PUBLIC "-//W3C//DTD SVG 1.1//EN"
 "http://www.w3.org/Graphics/SVG/1.1/DTD/svg11.dtd">
<!-- Generated by graphviz version 5.0.0 (20220707.1540)
 -->
<!-- Title: dependencies Pages: 1 -->
<svg width="464pt" height="247pt"
 viewBox="0.00 0.00 464.00 246.80" xmlns="http://www.w3.org/2000/svg" xmlns:xlink="http://www.w3.org/1999/xlink">
<g id="graph0" class="graph" transform="scale(1 1) rotate(0) translate(4 242.8)">
<title>dependencies</title>
<polygon fill="white" stroke="transparent" points="-4,4 -4,-242.8 460,-242.8 460,4 -4,4"/>
<text text-anchor="middle" x="228" y="-8.2" font-family="sans-serif" font-size="14.00">dependencies</text>
<g id="clust1" class="cluster">
<title>cluster_IdentityManagementModule</title>
<polygon fill="none" stroke="black" stroke-dasharray="1,5" points="8,-32.8 8,-230.8 448,-230.8 448,-32.8 8,-32.8"/>
</g>
<g id="clust3" class="cluster">
<title>cluster_IdentityManagementModule_imports</title>
<polygon fill="none" stroke="black" points="154,-40.8 154,-92.8 284,-92.8 284,-40.8 154,-40.8"/>
</g>
<g id="clust4" class="cluster">
<title>cluster_IdentityManagementModule_exports</title>
<polygon fill="none" stroke="black" points="16,-170.8 16,-222.8 440,-222.8 440,-170.8 16,-170.8"/>
</g>
<!-- KeycloakModule -->
<g id="node1" class="node">
<title>KeycloakModule</title>
<polygon fill="#8dd3c7" stroke="black" points="275.69,-84.8 272.69,-88.8 251.69,-88.8 248.69,-84.8 162.31,-84.8 162.31,-48.8 275.69,-48.8 275.69,-84.8"/>
<text text-anchor="middle" x="219" y="-62.6" font-family="Times,serif" font-size="14.00">KeycloakModule</text>
</g>
<!-- IdentityManagementModule -->
<g id="node2" class="node">
<title>IdentityManagementModule</title>
<polygon fill="#8dd3c7" stroke="black" points="307.18,-149.8 304.18,-153.8 283.18,-153.8 280.18,-149.8 130.82,-149.8 130.82,-113.8 307.18,-113.8 307.18,-149.8"/>
<text text-anchor="middle" x="219" y="-127.6" font-family="Times,serif" font-size="14.00">IdentityManagementModule</text>
</g>
<!-- KeycloakModule&#45;&gt;IdentityManagementModule -->
<g id="edge1" class="edge">
<title>KeycloakModule&#45;&gt;IdentityManagementModule</title>
<path fill="none" stroke="black" d="M219,-84.91C219,-84.91 219,-103.79 219,-103.79"/>
<polygon fill="black" stroke="black" points="215.5,-103.79 219,-113.79 222.5,-103.79 215.5,-103.79"/>
</g>
<!-- IdentityManagementOauthService  -->
<g id="node3" class="node">
<title>IdentityManagementOauthService </title>
<polygon fill="#fb8072" stroke="black" points="432.32,-214.8 219.68,-214.8 219.68,-178.8 432.32,-178.8 432.32,-214.8"/>
<text text-anchor="middle" x="326" y="-192.6" font-family="Times,serif" font-size="14.00">IdentityManagementOauthService </text>
</g>
<!-- IdentityManagementModule&#45;&gt;IdentityManagementOauthService  -->
<g id="edge2" class="edge">
<title>IdentityManagementModule&#45;&gt;IdentityManagementOauthService </title>
<path fill="none" stroke="black" stroke-dasharray="5,2" d="M263.46,-149.91C263.46,-149.91 263.46,-168.79 263.46,-168.79"/>
<polygon fill="black" stroke="black" points="259.96,-168.79 263.46,-178.79 266.96,-168.79 259.96,-168.79"/>
</g>
<!-- IdentityManagementService  -->
<g id="node4" class="node">
<title>IdentityManagementService </title>
<polygon fill="#fb8072" stroke="black" points="202.11,-214.8 23.89,-214.8 23.89,-178.8 202.11,-178.8 202.11,-214.8"/>
<text text-anchor="middle" x="113" y="-192.6" font-family="Times,serif" font-size="14.00">IdentityManagementService </text>
</g>
<!-- IdentityManagementModule&#45;&gt;IdentityManagementService  -->
<g id="edge3" class="edge">
<title>IdentityManagementModule&#45;&gt;IdentityManagementService </title>
<path fill="none" stroke="black" stroke-dasharray="5,2" d="M166.48,-149.91C166.48,-149.91 166.48,-168.79 166.48,-168.79"/>
<polygon fill="black" stroke="black" points="162.98,-168.79 166.48,-178.79 169.98,-168.79 162.98,-168.79"/>
</g>
</g>
</svg>
