<?xml version="1.0" encoding="UTF-8" standalone="no"?>
<!DOCTYPE svg PUBLIC "-//W3C//DTD SVG 1.1//EN"
 "http://www.w3.org/Graphics/SVG/1.1/DTD/svg11.dtd">
<!-- Generated by graphviz version 5.0.0 (20220707.1540)
 -->
<!-- Title: dependencies Pages: 1 -->
<svg width="1065pt" height="247pt"
 viewBox="0.00 0.00 1065.00 246.80" xmlns="http://www.w3.org/2000/svg" xmlns:xlink="http://www.w3.org/1999/xlink">
<g id="graph0" class="graph" transform="scale(1 1) rotate(0) translate(4 242.8)">
<title>dependencies</title>
<polygon fill="white" stroke="transparent" points="-4,4 -4,-242.8 1061,-242.8 1061,4 -4,4"/>
<text text-anchor="middle" x="528.5" y="-8.2" font-family="sans-serif" font-size="14.00">dependencies</text>
<g id="clust1" class="cluster">
<title>cluster_UserLoginMigrationModule</title>
<polygon fill="none" stroke="black" stroke-dasharray="1,5" points="8,-32.8 8,-230.8 1049,-230.8 1049,-32.8 8,-32.8"/>
</g>
<g id="clust4" class="cluster">
<title>cluster_UserLoginMigrationModule_exports</title>
<polygon fill="none" stroke="black" points="460,-170.8 460,-222.8 794,-222.8 794,-170.8 460,-170.8"/>
</g>
<g id="clust3" class="cluster">
<title>cluster_UserLoginMigrationModule_imports</title>
<polygon fill="none" stroke="black" points="462,-40.8 462,-92.8 1041,-92.8 1041,-40.8 462,-40.8"/>
</g>
<g id="clust6" class="cluster">
<title>cluster_UserLoginMigrationModule_providers</title>
<polygon fill="none" stroke="black" points="16,-40.8 16,-92.8 454,-92.8 454,-40.8 16,-40.8"/>
</g>
<!-- AccountModule -->
<g id="node1" class="node">
<title>AccountModule</title>
<polygon fill="#8dd3c7" stroke="black" points="1033.48,-84.8 1030.48,-88.8 1009.48,-88.8 1006.48,-84.8 926.52,-84.8 926.52,-48.8 1033.48,-48.8 1033.48,-84.8"/>
<text text-anchor="middle" x="980" y="-62.6" font-family="Times,serif" font-size="14.00">AccountModule</text>
</g>
<!-- UserLoginMigrationModule -->
<g id="node6" class="node">
<title>UserLoginMigrationModule</title>
<polygon fill="#8dd3c7" stroke="black" points="711.92,-149.8 708.92,-153.8 687.92,-153.8 684.92,-149.8 536.08,-149.8 536.08,-113.8 711.92,-113.8 711.92,-149.8"/>
<text text-anchor="middle" x="624" y="-127.6" font-family="Times,serif" font-size="14.00">UserLoginMigrationModule</text>
</g>
<!-- AccountModule&#45;&gt;UserLoginMigrationModule -->
<g id="edge1" class="edge">
<title>AccountModule&#45;&gt;UserLoginMigrationModule</title>
<path fill="none" stroke="black" d="M980,-85.08C980,-106.12 980,-137.8 980,-137.8 980,-137.8 722,-137.8 722,-137.8"/>
<polygon fill="black" stroke="black" points="722,-134.3 712,-137.8 722,-141.3 722,-134.3"/>
</g>
<!-- LoggerModule -->
<g id="node2" class="node">
<title>LoggerModule</title>
<polygon fill="#8dd3c7" stroke="black" points="908.98,-84.8 905.98,-88.8 884.98,-88.8 881.98,-84.8 809.02,-84.8 809.02,-48.8 908.98,-48.8 908.98,-84.8"/>
<text text-anchor="middle" x="859" y="-62.6" font-family="Times,serif" font-size="14.00">LoggerModule</text>
</g>
<!-- LoggerModule&#45;&gt;UserLoginMigrationModule -->
<g id="edge2" class="edge">
<title>LoggerModule&#45;&gt;UserLoginMigrationModule</title>
<path fill="none" stroke="black" d="M859,-84.82C859,-102.17 859,-125.8 859,-125.8 859,-125.8 721.84,-125.8 721.84,-125.8"/>
<polygon fill="black" stroke="black" points="721.84,-122.3 711.84,-125.8 721.84,-129.3 721.84,-122.3"/>
</g>
<!-- SchoolModule -->
<g id="node3" class="node">
<title>SchoolModule</title>
<polygon fill="#8dd3c7" stroke="black" points="791.44,-84.8 788.44,-88.8 767.44,-88.8 764.44,-84.8 692.56,-84.8 692.56,-48.8 791.44,-48.8 791.44,-84.8"/>
<text text-anchor="middle" x="742" y="-62.6" font-family="Times,serif" font-size="14.00">SchoolModule</text>
</g>
<!-- SchoolModule&#45;&gt;UserLoginMigrationModule -->
<g id="edge3" class="edge">
<title>SchoolModule&#45;&gt;UserLoginMigrationModule</title>
<path fill="none" stroke="black" d="M702.24,-84.91C702.24,-84.91 702.24,-103.79 702.24,-103.79"/>
<polygon fill="black" stroke="black" points="698.74,-103.79 702.24,-113.79 705.74,-103.79 698.74,-103.79"/>
</g>
<!-- SystemModule -->
<g id="node4" class="node">
<title>SystemModule</title>
<polygon fill="#8dd3c7" stroke="black" points="674.28,-84.8 671.28,-88.8 650.28,-88.8 647.28,-84.8 573.72,-84.8 573.72,-48.8 674.28,-48.8 674.28,-84.8"/>
<text text-anchor="middle" x="624" y="-62.6" font-family="Times,serif" font-size="14.00">SystemModule</text>
</g>
<!-- SystemModule&#45;&gt;UserLoginMigrationModule -->
<g id="edge4" class="edge">
<title>SystemModule&#45;&gt;UserLoginMigrationModule</title>
<path fill="none" stroke="black" d="M624,-84.91C624,-84.91 624,-103.79 624,-103.79"/>
<polygon fill="black" stroke="black" points="620.5,-103.79 624,-113.79 627.5,-103.79 620.5,-103.79"/>
</g>
<!-- UserModule -->
<g id="node5" class="node">
<title>UserModule</title>
<polygon fill="#8dd3c7" stroke="black" points="555.99,-84.8 552.99,-88.8 531.99,-88.8 528.99,-84.8 470.01,-84.8 470.01,-48.8 555.99,-48.8 555.99,-84.8"/>
<text text-anchor="middle" x="513" y="-62.6" font-family="Times,serif" font-size="14.00">UserModule</text>
</g>
<!-- UserModule&#45;&gt;UserLoginMigrationModule -->
<g id="edge5" class="edge">
<title>UserModule&#45;&gt;UserLoginMigrationModule</title>
<path fill="none" stroke="black" d="M546.14,-84.91C546.14,-84.91 546.14,-103.79 546.14,-103.79"/>
<polygon fill="black" stroke="black" points="542.64,-103.79 546.14,-113.79 549.64,-103.79 542.64,-103.79"/>
</g>
<!-- SchoolMigrationService  -->
<g id="node7" class="node">
<title>SchoolMigrationService </title>
<polygon fill="#fb8072" stroke="black" points="786.36,-214.8 629.64,-214.8 629.64,-178.8 786.36,-178.8 786.36,-214.8"/>
<text text-anchor="middle" x="708" y="-192.6" font-family="Times,serif" font-size="14.00">SchoolMigrationService </text>
</g>
<!-- UserLoginMigrationModule&#45;&gt;SchoolMigrationService  -->
<g id="edge6" class="edge">
<title>UserLoginMigrationModule&#45;&gt;SchoolMigrationService </title>
<path fill="none" stroke="black" stroke-dasharray="5,2" d="M670.76,-149.91C670.76,-149.91 670.76,-168.79 670.76,-168.79"/>
<polygon fill="black" stroke="black" points="667.26,-168.79 670.76,-178.79 674.26,-168.79 667.26,-168.79"/>
</g>
<!-- UserMigrationService  -->
<g id="node8" class="node">
<title>UserMigrationService </title>
<polygon fill="#fb8072" stroke="black" points="611.91,-214.8 468.09,-214.8 468.09,-178.8 611.91,-178.8 611.91,-214.8"/>
<text text-anchor="middle" x="540" y="-192.6" font-family="Times,serif" font-size="14.00">UserMigrationService </text>
</g>
<!-- UserLoginMigrationModule&#45;&gt;UserMigrationService  -->
<g id="edge7" class="edge">
<title>UserLoginMigrationModule&#45;&gt;UserMigrationService </title>
<path fill="none" stroke="black" stroke-dasharray="5,2" d="M574.12,-149.91C574.12,-149.91 574.12,-168.79 574.12,-168.79"/>
<polygon fill="black" stroke="black" points="570.62,-168.79 574.12,-178.79 577.62,-168.79 570.62,-168.79"/>
</g>
<!-- SchoolMigrationService -->
<g id="node9" class="node">
<title>SchoolMigrationService</title>
<ellipse fill="#fdb462" stroke="black" cx="341" cy="-66.8" rx="105.38" ry="18"/>
<text text-anchor="middle" x="341" y="-62.6" font-family="Times,serif" font-size="14.00">SchoolMigrationService</text>
</g>
<!-- SchoolMigrationService&#45;&gt;UserLoginMigrationModule -->
<g id="edge8" class="edge">
<title>SchoolMigrationService&#45;&gt;UserLoginMigrationModule</title>
<path fill="none" stroke="black" d="M341,-84.82C341,-102.17 341,-125.8 341,-125.8 341,-125.8 526.01,-125.8 526.01,-125.8"/>
<polygon fill="black" stroke="black" points="526.01,-129.3 536.01,-125.8 526.01,-122.3 526.01,-129.3"/>
</g>
<!-- UserMigrationService -->
<g id="node10" class="node">
<title>UserMigrationService</title>
<ellipse fill="#fdb462" stroke="black" cx="121" cy="-66.8" rx="96.7" ry="18"/>
<text text-anchor="middle" x="121" y="-62.6" font-family="Times,serif" font-size="14.00">UserMigrationService</text>
</g>
<!-- UserMigrationService&#45;&gt;UserLoginMigrationModule -->
<g id="edge9" class="edge">
<title>UserMigrationService&#45;&gt;UserLoginMigrationModule</title>
<path fill="none" stroke="black" d="M121,-85.08C121,-106.12 121,-137.8 121,-137.8 121,-137.8 526.1,-137.8 526.1,-137.8"/>
<polygon fill="black" stroke="black" points="526.1,-141.3 536.1,-137.8 526.1,-134.3 526.1,-141.3"/>
</g>
</g>
</svg>
