<?xml version="1.0" encoding="UTF-8" standalone="no"?>
<!DOCTYPE svg PUBLIC "-//W3C//DTD SVG 1.1//EN"
 "http://www.w3.org/Graphics/SVG/1.1/DTD/svg11.dtd">
<!-- Generated by graphviz version 5.0.0 (20220707.1540)
 -->
<!-- Title: dependencies Pages: 1 -->
<svg width="1065pt" height="247pt"
 viewBox="0.00 0.00 1065.00 246.80" xmlns="http://www.w3.org/2000/svg" xmlns:xlink="http://www.w3.org/1999/xlink">
<g id="graph0" class="graph" transform="scale(1 1) rotate(0) translate(4 242.8)">
<title>dependencies</title>
<polygon fill="white" stroke="transparent" points="-4,4 -4,-242.8 1061,-242.8 1061,4 -4,4"/>
<text text-anchor="middle" x="528.5" y="-8.2" font-family="sans-serif" font-size="14.00">dependencies</text>
<g id="clust1" class="cluster">
<title>cluster_UserLoginMigrationModule</title>
<polygon fill="none" stroke="black" stroke-dasharray="1,5" points="8,-32.8 8,-230.8 1049,-230.8 1049,-32.8 8,-32.8"/>
</g>
<g id="clust6" class="cluster">
<title>cluster_UserLoginMigrationModule_providers</title>
<polygon fill="none" stroke="black" points="603,-40.8 603,-92.8 1041,-92.8 1041,-40.8 603,-40.8"/>
</g>
<g id="clust4" class="cluster">
<title>cluster_UserLoginMigrationModule_exports</title>
<polygon fill="none" stroke="black" points="249,-170.8 249,-222.8 583,-222.8 583,-170.8 249,-170.8"/>
</g>
<g id="clust3" class="cluster">
<title>cluster_UserLoginMigrationModule_imports</title>
<polygon fill="none" stroke="black" points="16,-40.8 16,-92.8 595,-92.8 595,-40.8 16,-40.8"/>
</g>
<!-- AccountModule -->
<g id="node1" class="node">
<title>AccountModule</title>
<polygon fill="#8dd3c7" stroke="black" points="587.48,-84.8 584.48,-88.8 563.48,-88.8 560.48,-84.8 480.52,-84.8 480.52,-48.8 587.48,-48.8 587.48,-84.8"/>
<text text-anchor="middle" x="534" y="-62.6" font-family="Times,serif" font-size="14.00">AccountModule</text>
</g>
<!-- UserLoginMigrationModule -->
<g id="node6" class="node">
<title>UserLoginMigrationModule</title>
<polygon fill="#8dd3c7" stroke="black" points="500.92,-149.8 497.92,-153.8 476.92,-153.8 473.92,-149.8 325.08,-149.8 325.08,-113.8 500.92,-113.8 500.92,-149.8"/>
<text text-anchor="middle" x="413" y="-127.6" font-family="Times,serif" font-size="14.00">UserLoginMigrationModule</text>
</g>
<!-- AccountModule&#45;&gt;UserLoginMigrationModule -->
<g id="edge1" class="edge">
<title>AccountModule&#45;&gt;UserLoginMigrationModule</title>
<path fill="none" stroke="black" d="M490.61,-84.91C490.61,-84.91 490.61,-103.79 490.61,-103.79"/>
<polygon fill="black" stroke="black" points="487.11,-103.79 490.61,-113.79 494.11,-103.79 487.11,-103.79"/>
</g>
<!-- LoggerModule -->
<g id="node2" class="node">
<title>LoggerModule</title>
<polygon fill="#8dd3c7" stroke="black" points="462.98,-84.8 459.98,-88.8 438.98,-88.8 435.98,-84.8 363.02,-84.8 363.02,-48.8 462.98,-48.8 462.98,-84.8"/>
<text text-anchor="middle" x="413" y="-62.6" font-family="Times,serif" font-size="14.00">LoggerModule</text>
</g>
<!-- LoggerModule&#45;&gt;UserLoginMigrationModule -->
<g id="edge2" class="edge">
<title>LoggerModule&#45;&gt;UserLoginMigrationModule</title>
<path fill="none" stroke="black" d="M413,-84.91C413,-84.91 413,-103.79 413,-103.79"/>
<polygon fill="black" stroke="black" points="409.5,-103.79 413,-113.79 416.5,-103.79 409.5,-103.79"/>
</g>
<!-- SchoolModule -->
<g id="node3" class="node">
<title>SchoolModule</title>
<polygon fill="#8dd3c7" stroke="black" points="345.44,-84.8 342.44,-88.8 321.44,-88.8 318.44,-84.8 246.56,-84.8 246.56,-48.8 345.44,-48.8 345.44,-84.8"/>
<text text-anchor="middle" x="296" y="-62.6" font-family="Times,serif" font-size="14.00">SchoolModule</text>
</g>
<!-- SchoolModule&#45;&gt;UserLoginMigrationModule -->
<g id="edge3" class="edge">
<title>SchoolModule&#45;&gt;UserLoginMigrationModule</title>
<path fill="none" stroke="black" d="M335.26,-84.91C335.26,-84.91 335.26,-103.79 335.26,-103.79"/>
<polygon fill="black" stroke="black" points="331.76,-103.79 335.26,-113.79 338.76,-103.79 331.76,-103.79"/>
</g>
<!-- SystemModule -->
<g id="node4" class="node">
<title>SystemModule</title>
<polygon fill="#8dd3c7" stroke="black" points="228.28,-84.8 225.28,-88.8 204.28,-88.8 201.28,-84.8 127.72,-84.8 127.72,-48.8 228.28,-48.8 228.28,-84.8"/>
<text text-anchor="middle" x="178" y="-62.6" font-family="Times,serif" font-size="14.00">SystemModule</text>
</g>
<!-- SystemModule&#45;&gt;UserLoginMigrationModule -->
<g id="edge4" class="edge">
<title>SystemModule&#45;&gt;UserLoginMigrationModule</title>
<path fill="none" stroke="black" d="M178,-84.82C178,-102.17 178,-125.8 178,-125.8 178,-125.8 315.16,-125.8 315.16,-125.8"/>
<polygon fill="black" stroke="black" points="315.16,-129.3 325.16,-125.8 315.16,-122.3 315.16,-129.3"/>
</g>
<!-- UserModule -->
<g id="node5" class="node">
<title>UserModule</title>
<polygon fill="#8dd3c7" stroke="black" points="109.99,-84.8 106.99,-88.8 85.99,-88.8 82.99,-84.8 24.01,-84.8 24.01,-48.8 109.99,-48.8 109.99,-84.8"/>
<text text-anchor="middle" x="67" y="-62.6" font-family="Times,serif" font-size="14.00">UserModule</text>
</g>
<!-- UserModule&#45;&gt;UserLoginMigrationModule -->
<g id="edge5" class="edge">
<title>UserModule&#45;&gt;UserLoginMigrationModule</title>
<path fill="none" stroke="black" d="M67,-85.08C67,-106.12 67,-137.8 67,-137.8 67,-137.8 315.24,-137.8 315.24,-137.8"/>
<polygon fill="black" stroke="black" points="315.24,-141.3 325.24,-137.8 315.24,-134.3 315.24,-141.3"/>
</g>
<!-- SchoolMigrationService  -->
<g id="node7" class="node">
<title>SchoolMigrationService </title>
<polygon fill="#fb8072" stroke="black" points="575.36,-214.8 418.64,-214.8 418.64,-178.8 575.36,-178.8 575.36,-214.8"/>
<text text-anchor="middle" x="497" y="-192.6" font-family="Times,serif" font-size="14.00">SchoolMigrationService </text>
</g>
<!-- UserLoginMigrationModule&#45;&gt;SchoolMigrationService  -->
<g id="edge6" class="edge">
<title>UserLoginMigrationModule&#45;&gt;SchoolMigrationService </title>
<path fill="none" stroke="black" stroke-dasharray="5,2" d="M459.76,-149.91C459.76,-149.91 459.76,-168.79 459.76,-168.79"/>
<polygon fill="black" stroke="black" points="456.26,-168.79 459.76,-178.79 463.26,-168.79 456.26,-168.79"/>
</g>
<!-- UserMigrationService  -->
<g id="node8" class="node">
<title>UserMigrationService </title>
<polygon fill="#fb8072" stroke="black" points="400.91,-214.8 257.09,-214.8 257.09,-178.8 400.91,-178.8 400.91,-214.8"/>
<text text-anchor="middle" x="329" y="-192.6" font-family="Times,serif" font-size="14.00">UserMigrationService </text>
</g>
<!-- UserLoginMigrationModule&#45;&gt;UserMigrationService  -->
<g id="edge7" class="edge">
<title>UserLoginMigrationModule&#45;&gt;UserMigrationService </title>
<path fill="none" stroke="black" stroke-dasharray="5,2" d="M363.12,-149.91C363.12,-149.91 363.12,-168.79 363.12,-168.79"/>
<polygon fill="black" stroke="black" points="359.62,-168.79 363.12,-178.79 366.62,-168.79 359.62,-168.79"/>
</g>
<!-- SchoolMigrationService -->
<g id="node9" class="node">
<title>SchoolMigrationService</title>
<ellipse fill="#fdb462" stroke="black" cx="928" cy="-66.8" rx="105.38" ry="18"/>
<text text-anchor="middle" x="928" y="-62.6" font-family="Times,serif" font-size="14.00">SchoolMigrationService</text>
</g>
<!-- SchoolMigrationService&#45;&gt;UserLoginMigrationModule -->
<g id="edge8" class="edge">
<title>SchoolMigrationService&#45;&gt;UserLoginMigrationModule</title>
<path fill="none" stroke="black" d="M928,-85.08C928,-106.12 928,-137.8 928,-137.8 928,-137.8 510.95,-137.8 510.95,-137.8"/>
<polygon fill="black" stroke="black" points="510.95,-134.3 500.95,-137.8 510.95,-141.3 510.95,-134.3"/>
</g>
<!-- UserMigrationService -->
<g id="node10" class="node">
<title>UserMigrationService</title>
<ellipse fill="#fdb462" stroke="black" cx="708" cy="-66.8" rx="96.7" ry="18"/>
<text text-anchor="middle" x="708" y="-62.6" font-family="Times,serif" font-size="14.00">UserMigrationService</text>
</g>
<!-- UserMigrationService&#45;&gt;UserLoginMigrationModule -->
<g id="edge9" class="edge">
<title>UserMigrationService&#45;&gt;UserLoginMigrationModule</title>
<path fill="none" stroke="black" d="M708,-84.82C708,-102.17 708,-125.8 708,-125.8 708,-125.8 510.71,-125.8 510.71,-125.8"/>
<polygon fill="black" stroke="black" points="510.71,-122.3 500.71,-125.8 510.71,-129.3 510.71,-122.3"/>
</g>
</g>
</svg>
