<?xml version="1.0" encoding="UTF-8" standalone="no"?>
<!DOCTYPE svg PUBLIC "-//W3C//DTD SVG 1.1//EN"
 "http://www.w3.org/Graphics/SVG/1.1/DTD/svg11.dtd">
<!-- Generated by graphviz version 5.0.0 (20220707.1540)
 -->
<!-- Title: dependencies Pages: 1 -->
<svg width="514pt" height="247pt"
 viewBox="0.00 0.00 514.00 246.80" xmlns="http://www.w3.org/2000/svg" xmlns:xlink="http://www.w3.org/1999/xlink">
<g id="graph0" class="graph" transform="scale(1 1) rotate(0) translate(4 242.8)">
<title>dependencies</title>
<polygon fill="white" stroke="transparent" points="-4,4 -4,-242.8 510,-242.8 510,4 -4,4"/>
<text text-anchor="middle" x="253" y="-8.2" font-family="sans-serif" font-size="14.00">dependencies</text>
<g id="clust1" class="cluster">
<title>cluster_LessonModule</title>
<polygon fill="none" stroke="black" stroke-dasharray="1,5" points="8,-32.8 8,-230.8 498,-230.8 498,-32.8 8,-32.8"/>
</g>
<g id="clust4" class="cluster">
<title>cluster_LessonModule_exports</title>
<polygon fill="none" stroke="black" points="176,-170.8 176,-222.8 294,-222.8 294,-170.8 176,-170.8"/>
</g>
<g id="clust3" class="cluster">
<title>cluster_LessonModule_imports</title>
<polygon fill="none" stroke="black" points="310,-40.8 310,-92.8 490,-92.8 490,-40.8 310,-40.8"/>
</g>
<g id="clust6" class="cluster">
<title>cluster_LessonModule_providers</title>
<polygon fill="none" stroke="black" points="16,-40.8 16,-92.8 302,-92.8 302,-40.8 16,-40.8"/>
</g>
<!-- FilesStorageClientModule -->
<g id="node1" class="node">
<title>FilesStorageClientModule</title>
<polygon fill="#8dd3c7" stroke="black" points="481.77,-84.8 478.77,-88.8 457.77,-88.8 454.77,-84.8 318.23,-84.8 318.23,-48.8 481.77,-48.8 481.77,-84.8"/>
<text text-anchor="middle" x="400" y="-62.6" font-family="Times,serif" font-size="14.00">FilesStorageClientModule</text>
</g>
<!-- LessonModule -->
<g id="node2" class="node">
<title>LessonModule</title>
<polygon fill="#8dd3c7" stroke="black" points="284.71,-149.8 281.71,-153.8 260.71,-153.8 257.71,-149.8 185.29,-149.8 185.29,-113.8 284.71,-113.8 284.71,-149.8"/>
<text text-anchor="middle" x="235" y="-127.6" font-family="Times,serif" font-size="14.00">LessonModule</text>
</g>
<!-- FilesStorageClientModule&#45;&gt;LessonModule -->
<g id="edge1" class="edge">
<title>FilesStorageClientModule&#45;&gt;LessonModule</title>
<path fill="none" stroke="black" d="M400,-84.91C400,-104.14 400,-131.8 400,-131.8 400,-131.8 294.95,-131.8 294.95,-131.8"/>
<polygon fill="black" stroke="black" points="294.95,-128.3 284.95,-131.8 294.95,-135.3 294.95,-128.3"/>
</g>
<!-- LessonService  -->
<g id="node3" class="node">
<title>LessonService </title>
<polygon fill="#fb8072" stroke="black" points="285.64,-214.8 184.36,-214.8 184.36,-178.8 285.64,-178.8 285.64,-214.8"/>
<text text-anchor="middle" x="235" y="-192.6" font-family="Times,serif" font-size="14.00">LessonService </text>
</g>
<!-- LessonModule&#45;&gt;LessonService  -->
<g id="edge2" class="edge">
<title>LessonModule&#45;&gt;LessonService </title>
<path fill="none" stroke="black" stroke-dasharray="5,2" d="M235,-149.91C235,-149.91 235,-168.79 235,-168.79"/>
<polygon fill="black" stroke="black" points="231.5,-168.79 235,-178.79 238.5,-168.79 231.5,-168.79"/>
</g>
<!-- LessonRepo -->
<g id="node4" class="node">
<title>LessonRepo</title>
<ellipse fill="#fdb462" stroke="black" cx="235" cy="-66.8" rx="58.56" ry="18"/>
<text text-anchor="middle" x="235" y="-62.6" font-family="Times,serif" font-size="14.00">LessonRepo</text>
</g>
<!-- LessonRepo&#45;&gt;LessonModule -->
<g id="edge3" class="edge">
<title>LessonRepo&#45;&gt;LessonModule</title>
<path fill="none" stroke="black" d="M235,-84.91C235,-84.91 235,-103.79 235,-103.79"/>
<polygon fill="black" stroke="black" points="231.5,-103.79 235,-113.79 238.5,-103.79 231.5,-103.79"/>
</g>
<!-- LessonService -->
<g id="node5" class="node">
<title>LessonService</title>
<ellipse fill="#fdb462" stroke="black" cx="91" cy="-66.8" rx="67.2" ry="18"/>
<text text-anchor="middle" x="91" y="-62.6" font-family="Times,serif" font-size="14.00">LessonService</text>
</g>
<!-- LessonService&#45;&gt;LessonModule -->
<g id="edge4" class="edge">
<title>LessonService&#45;&gt;LessonModule</title>
<path fill="none" stroke="black" d="M91,-84.91C91,-104.14 91,-131.8 91,-131.8 91,-131.8 175.04,-131.8 175.04,-131.8"/>
<polygon fill="black" stroke="black" points="175.04,-135.3 185.04,-131.8 175.04,-128.3 175.04,-135.3"/>
</g>
</g>
</svg>
