<?xml version="1.0" encoding="UTF-8" standalone="no"?>
<!DOCTYPE svg PUBLIC "-//W3C//DTD SVG 1.1//EN"
 "http://www.w3.org/Graphics/SVG/1.1/DTD/svg11.dtd">
<!-- Generated by graphviz version 5.0.0 (20220707.1540)
 -->
<!-- Title: dependencies Pages: 1 -->
<svg width="514pt" height="247pt"
 viewBox="0.00 0.00 514.00 246.80" xmlns="http://www.w3.org/2000/svg" xmlns:xlink="http://www.w3.org/1999/xlink">
<g id="graph0" class="graph" transform="scale(1 1) rotate(0) translate(4 242.8)">
<title>dependencies</title>
<polygon fill="white" stroke="transparent" points="-4,4 -4,-242.8 510,-242.8 510,4 -4,4"/>
<text text-anchor="middle" x="253" y="-8.2" font-family="sans-serif" font-size="14.00">dependencies</text>
<g id="clust1" class="cluster">
<title>cluster_LessonModule</title>
<polygon fill="none" stroke="black" stroke-dasharray="1,5" points="8,-32.8 8,-230.8 498,-230.8 498,-32.8 8,-32.8"/>
</g>
<g id="clust6" class="cluster">
<title>cluster_LessonModule_providers</title>
<polygon fill="none" stroke="black" points="204,-40.8 204,-92.8 490,-92.8 490,-40.8 204,-40.8"/>
</g>
<g id="clust3" class="cluster">
<title>cluster_LessonModule_imports</title>
<polygon fill="none" stroke="black" points="16,-40.8 16,-92.8 196,-92.8 196,-40.8 16,-40.8"/>
</g>
<g id="clust4" class="cluster">
<title>cluster_LessonModule_exports</title>
<polygon fill="none" stroke="black" points="220,-170.8 220,-222.8 338,-222.8 338,-170.8 220,-170.8"/>
</g>
<!-- FilesStorageClientModule -->
<g id="node1" class="node">
<title>FilesStorageClientModule</title>
<polygon fill="#8dd3c7" stroke="black" points="187.77,-84.8 184.77,-88.8 163.77,-88.8 160.77,-84.8 24.23,-84.8 24.23,-48.8 187.77,-48.8 187.77,-84.8"/>
<text text-anchor="middle" x="106" y="-62.6" font-family="Times,serif" font-size="14.00">FilesStorageClientModule</text>
</g>
<!-- LessonModule -->
<g id="node2" class="node">
<title>LessonModule</title>
<polygon fill="#8dd3c7" stroke="black" points="328.71,-149.8 325.71,-153.8 304.71,-153.8 301.71,-149.8 229.29,-149.8 229.29,-113.8 328.71,-113.8 328.71,-149.8"/>
<text text-anchor="middle" x="279" y="-127.6" font-family="Times,serif" font-size="14.00">LessonModule</text>
</g>
<!-- FilesStorageClientModule&#45;&gt;LessonModule -->
<g id="edge1" class="edge">
<title>FilesStorageClientModule&#45;&gt;LessonModule</title>
<path fill="none" stroke="black" d="M106,-84.91C106,-104.14 106,-131.8 106,-131.8 106,-131.8 218.96,-131.8 218.96,-131.8"/>
<polygon fill="black" stroke="black" points="218.96,-135.3 228.96,-131.8 218.96,-128.3 218.96,-135.3"/>
</g>
<!-- LessonService  -->
<g id="node3" class="node">
<title>LessonService </title>
<polygon fill="#fb8072" stroke="black" points="329.64,-214.8 228.36,-214.8 228.36,-178.8 329.64,-178.8 329.64,-214.8"/>
<text text-anchor="middle" x="279" y="-192.6" font-family="Times,serif" font-size="14.00">LessonService </text>
</g>
<!-- LessonModule&#45;&gt;LessonService  -->
<g id="edge2" class="edge">
<title>LessonModule&#45;&gt;LessonService </title>
<path fill="none" stroke="black" stroke-dasharray="5,2" d="M279,-149.91C279,-149.91 279,-168.79 279,-168.79"/>
<polygon fill="black" stroke="black" points="275.5,-168.79 279,-178.79 282.5,-168.79 275.5,-168.79"/>
</g>
<!-- LessonRepo -->
<g id="node4" class="node">
<title>LessonRepo</title>
<ellipse fill="#fdb462" stroke="black" cx="423" cy="-66.8" rx="58.56" ry="18"/>
<text text-anchor="middle" x="423" y="-62.6" font-family="Times,serif" font-size="14.00">LessonRepo</text>
</g>
<!-- LessonRepo&#45;&gt;LessonModule -->
<g id="edge3" class="edge">
<title>LessonRepo&#45;&gt;LessonModule</title>
<path fill="none" stroke="black" d="M423,-84.91C423,-104.14 423,-131.8 423,-131.8 423,-131.8 338.96,-131.8 338.96,-131.8"/>
<polygon fill="black" stroke="black" points="338.96,-128.3 328.96,-131.8 338.96,-135.3 338.96,-128.3"/>
</g>
<!-- LessonService -->
<g id="node5" class="node">
<title>LessonService</title>
<ellipse fill="#fdb462" stroke="black" cx="279" cy="-66.8" rx="67.2" ry="18"/>
<text text-anchor="middle" x="279" y="-62.6" font-family="Times,serif" font-size="14.00">LessonService</text>
</g>
<!-- LessonService&#45;&gt;LessonModule -->
<g id="edge4" class="edge">
<title>LessonService&#45;&gt;LessonModule</title>
<path fill="none" stroke="black" d="M279,-84.91C279,-84.91 279,-103.79 279,-103.79"/>
<polygon fill="black" stroke="black" points="275.5,-103.79 279,-113.79 282.5,-103.79 275.5,-103.79"/>
</g>
</g>
</svg>
