<?xml version="1.0" encoding="UTF-8" standalone="no"?>
<!DOCTYPE svg PUBLIC "-//W3C//DTD SVG 1.1//EN"
 "http://www.w3.org/Graphics/SVG/1.1/DTD/svg11.dtd">
<!-- Generated by graphviz version 5.0.0 (20220707.1540)
 -->
<!-- Title: dependencies Pages: 1 -->
<svg width="2592pt" height="174pt"
 viewBox="0.00 0.00 2592.00 173.80" xmlns="http://www.w3.org/2000/svg" xmlns:xlink="http://www.w3.org/1999/xlink">
<g id="graph0" class="graph" transform="scale(1 1) rotate(0) translate(4 169.8)">
<title>dependencies</title>
<polygon fill="white" stroke="transparent" points="-4,4 -4,-169.8 2588,-169.8 2588,4 -4,4"/>
<text text-anchor="middle" x="1292" y="-8.2" font-family="sans-serif" font-size="14.00">dependencies</text>
<g id="clust1" class="cluster">
<title>cluster_ServerTestModule</title>
<polygon fill="none" stroke="black" stroke-dasharray="1,5" points="8,-32.8 8,-157.8 2576,-157.8 2576,-32.8 8,-32.8"/>
</g>
<g id="clust3" class="cluster">
<title>cluster_ServerTestModule_imports</title>
<polygon fill="none" stroke="black" points="16,-40.8 16,-92.8 2568,-92.8 2568,-40.8 16,-40.8"/>
</g>
<!-- AuthModule -->
<g id="node1" class="node">
<title>AuthModule</title>
<polygon fill="#8dd3c7" stroke="black" points="2559.55,-84.8 2556.55,-88.8 2535.55,-88.8 2532.55,-84.8 2472.45,-84.8 2472.45,-48.8 2559.55,-48.8 2559.55,-84.8"/>
<text text-anchor="middle" x="2516" y="-62.6" font-family="Times,serif" font-size="14.00">AuthModule</text>
</g>
<!-- ServerTestModule -->
<g id="node19" class="node">
<title>ServerTestModule</title>
<polygon fill="#8dd3c7" stroke="black" points="1307.19,-149.8 1304.19,-153.8 1283.19,-153.8 1280.19,-149.8 1186.81,-149.8 1186.81,-113.8 1307.19,-113.8 1307.19,-149.8"/>
<text text-anchor="middle" x="1247" y="-127.6" font-family="Times,serif" font-size="14.00">ServerTestModule</text>
</g>
<!-- AuthModule&#45;&gt;ServerTestModule -->
<g id="edge1" class="edge">
<title>AuthModule&#45;&gt;ServerTestModule</title>
<path fill="none" stroke="black" d="M2516,-85.12C2516,-108.46 2516,-145.8 2516,-145.8 2516,-145.8 1317.35,-145.8 1317.35,-145.8"/>
<polygon fill="black" stroke="black" points="1317.35,-142.3 1307.35,-145.8 1317.35,-149.3 1317.35,-142.3"/>
</g>
<!-- CollaborativeStorageModule -->
<g id="node2" class="node">
<title>CollaborativeStorageModule</title>
<polygon fill="#8dd3c7" stroke="black" points="2454.02,-84.8 2451.02,-88.8 2430.02,-88.8 2427.02,-84.8 2275.98,-84.8 2275.98,-48.8 2454.02,-48.8 2454.02,-84.8"/>
<text text-anchor="middle" x="2365" y="-62.6" font-family="Times,serif" font-size="14.00">CollaborativeStorageModule</text>
</g>
<!-- CollaborativeStorageModule&#45;&gt;ServerTestModule -->
<g id="edge2" class="edge">
<title>CollaborativeStorageModule&#45;&gt;ServerTestModule</title>
<path fill="none" stroke="black" d="M2365,-84.96C2365,-107.15 2365,-141.8 2365,-141.8 2365,-141.8 1317.11,-141.8 1317.11,-141.8"/>
<polygon fill="black" stroke="black" points="1317.11,-138.3 1307.11,-141.8 1317.11,-145.3 1317.11,-138.3"/>
</g>
<!-- CoreModule -->
<g id="node3" class="node">
<title>CoreModule</title>
<polygon fill="#8dd3c7" stroke="black" points="2257.27,-84.8 2254.27,-88.8 2233.27,-88.8 2230.27,-84.8 2170.73,-84.8 2170.73,-48.8 2257.27,-48.8 2257.27,-84.8"/>
<text text-anchor="middle" x="2214" y="-62.6" font-family="Times,serif" font-size="14.00">CoreModule</text>
</g>
<!-- CoreModule&#45;&gt;ServerTestModule -->
<g id="edge3" class="edge">
<title>CoreModule&#45;&gt;ServerTestModule</title>
<path fill="none" stroke="black" d="M2214,-85.08C2214,-106.12 2214,-137.8 2214,-137.8 2214,-137.8 1317.12,-137.8 1317.12,-137.8"/>
<polygon fill="black" stroke="black" points="1317.12,-134.3 1307.12,-137.8 1317.12,-141.3 1317.12,-134.3"/>
</g>
<!-- FilesStorageClientModule -->
<g id="node4" class="node">
<title>FilesStorageClientModule</title>
<polygon fill="#8dd3c7" stroke="black" points="2152.77,-84.8 2149.77,-88.8 2128.77,-88.8 2125.77,-84.8 1989.23,-84.8 1989.23,-48.8 2152.77,-48.8 2152.77,-84.8"/>
<text text-anchor="middle" x="2071" y="-62.6" font-family="Times,serif" font-size="14.00">FilesStorageClientModule</text>
</g>
<!-- FilesStorageClientModule&#45;&gt;ServerTestModule -->
<g id="edge4" class="edge">
<title>FilesStorageClientModule&#45;&gt;ServerTestModule</title>
<path fill="none" stroke="black" d="M2071,-85.11C2071,-104.95 2071,-133.8 2071,-133.8 2071,-133.8 1317.26,-133.8 1317.26,-133.8"/>
<polygon fill="black" stroke="black" points="1317.26,-130.3 1307.26,-133.8 1317.26,-137.3 1317.26,-130.3"/>
</g>
<!-- ImportUserModule -->
<g id="node5" class="node">
<title>ImportUserModule</title>
<polygon fill="#8dd3c7" stroke="black" points="1971.09,-84.8 1968.09,-88.8 1947.09,-88.8 1944.09,-84.8 1846.91,-84.8 1846.91,-48.8 1971.09,-48.8 1971.09,-84.8"/>
<text text-anchor="middle" x="1909" y="-62.6" font-family="Times,serif" font-size="14.00">ImportUserModule</text>
</g>
<!-- ImportUserModule&#45;&gt;ServerTestModule -->
<g id="edge5" class="edge">
<title>ImportUserModule&#45;&gt;ServerTestModule</title>
<path fill="none" stroke="black" d="M1909,-85.02C1909,-103.63 1909,-129.8 1909,-129.8 1909,-129.8 1317.21,-129.8 1317.21,-129.8"/>
<polygon fill="black" stroke="black" points="1317.21,-126.3 1307.21,-129.8 1317.21,-133.3 1317.21,-126.3"/>
</g>
<!-- LearnroomModule -->
<g id="node6" class="node">
<title>LearnroomModule</title>
<polygon fill="#8dd3c7" stroke="black" points="1828.75,-84.8 1825.75,-88.8 1804.75,-88.8 1801.75,-84.8 1707.25,-84.8 1707.25,-48.8 1828.75,-48.8 1828.75,-84.8"/>
<text text-anchor="middle" x="1768" y="-62.6" font-family="Times,serif" font-size="14.00">LearnroomModule</text>
</g>
<!-- LearnroomModule&#45;&gt;ServerTestModule -->
<g id="edge6" class="edge">
<title>LearnroomModule&#45;&gt;ServerTestModule</title>
<path fill="none" stroke="black" d="M1768,-84.82C1768,-102.17 1768,-125.8 1768,-125.8 1768,-125.8 1317.27,-125.8 1317.27,-125.8"/>
<polygon fill="black" stroke="black" points="1317.27,-122.3 1307.27,-125.8 1317.27,-129.3 1317.27,-122.3"/>
</g>
<!-- MongoMemoryDatabaseModule -->
<g id="node7" class="node">
<title>MongoMemoryDatabaseModule</title>
<polygon fill="#8dd3c7" stroke="black" points="1688.52,-84.8 1685.52,-88.8 1664.52,-88.8 1661.52,-84.8 1489.48,-84.8 1489.48,-48.8 1688.52,-48.8 1688.52,-84.8"/>
<text text-anchor="middle" x="1589" y="-62.6" font-family="Times,serif" font-size="14.00">MongoMemoryDatabaseModule</text>
</g>
<!-- MongoMemoryDatabaseModule&#45;&gt;ServerTestModule -->
<g id="edge7" class="edge">
<title>MongoMemoryDatabaseModule&#45;&gt;ServerTestModule</title>
<path fill="none" stroke="black" d="M1589,-84.81C1589,-100.85 1589,-121.8 1589,-121.8 1589,-121.8 1317.36,-121.8 1317.36,-121.8"/>
<polygon fill="black" stroke="black" points="1317.36,-118.3 1307.36,-121.8 1317.36,-125.3 1317.36,-118.3"/>
</g>
<!-- NewsModule -->
<g id="node8" class="node">
<title>NewsModule</title>
<polygon fill="#8dd3c7" stroke="black" points="1471.94,-84.8 1468.94,-88.8 1447.94,-88.8 1444.94,-84.8 1380.06,-84.8 1380.06,-48.8 1471.94,-48.8 1471.94,-84.8"/>
<text text-anchor="middle" x="1426" y="-62.6" font-family="Times,serif" font-size="14.00">NewsModule</text>
</g>
<!-- NewsModule&#45;&gt;ServerTestModule -->
<g id="edge8" class="edge">
<title>NewsModule&#45;&gt;ServerTestModule</title>
<path fill="none" stroke="black" d="M1426,-84.92C1426,-99.58 1426,-117.8 1426,-117.8 1426,-117.8 1317.1,-117.8 1317.1,-117.8"/>
<polygon fill="black" stroke="black" points="1317.1,-114.3 1307.1,-117.8 1317.1,-121.3 1317.1,-114.3"/>
</g>
<!-- OauthModule -->
<g id="node9" class="node">
<title>OauthModule</title>
<polygon fill="#8dd3c7" stroke="black" points="1361.77,-84.8 1358.77,-88.8 1337.77,-88.8 1334.77,-84.8 1268.23,-84.8 1268.23,-48.8 1361.77,-48.8 1361.77,-84.8"/>
<text text-anchor="middle" x="1315" y="-62.6" font-family="Times,serif" font-size="14.00">OauthModule</text>
</g>
<!-- OauthModule&#45;&gt;ServerTestModule -->
<g id="edge9" class="edge">
<title>OauthModule&#45;&gt;ServerTestModule</title>
<path fill="none" stroke="black" d="M1287.61,-84.91C1287.61,-84.91 1287.61,-103.79 1287.61,-103.79"/>
<polygon fill="black" stroke="black" points="1284.11,-103.79 1287.61,-113.79 1291.11,-103.79 1284.11,-103.79"/>
</g>
<!-- OauthProviderModule -->
<g id="node10" class="node">
<title>OauthProviderModule</title>
<polygon fill="#8dd3c7" stroke="black" points="1249.98,-84.8 1246.98,-88.8 1225.98,-88.8 1222.98,-84.8 1108.02,-84.8 1108.02,-48.8 1249.98,-48.8 1249.98,-84.8"/>
<text text-anchor="middle" x="1179" y="-62.6" font-family="Times,serif" font-size="14.00">OauthProviderModule</text>
</g>
<!-- OauthProviderModule&#45;&gt;ServerTestModule -->
<g id="edge10" class="edge">
<title>OauthProviderModule&#45;&gt;ServerTestModule</title>
<path fill="none" stroke="black" d="M1218.45,-84.91C1218.45,-84.91 1218.45,-103.79 1218.45,-103.79"/>
<polygon fill="black" stroke="black" points="1214.95,-103.79 1218.45,-113.79 1221.95,-103.79 1214.95,-103.79"/>
</g>
<!-- ProvisioningModule -->
<g id="node11" class="node">
<title>ProvisioningModule</title>
<polygon fill="#8dd3c7" stroke="black" points="1089.62,-84.8 1086.62,-88.8 1065.62,-88.8 1062.62,-84.8 958.38,-84.8 958.38,-48.8 1089.62,-48.8 1089.62,-84.8"/>
<text text-anchor="middle" x="1024" y="-62.6" font-family="Times,serif" font-size="14.00">ProvisioningModule</text>
</g>
<!-- ProvisioningModule&#45;&gt;ServerTestModule -->
<g id="edge11" class="edge">
<title>ProvisioningModule&#45;&gt;ServerTestModule</title>
<path fill="none" stroke="black" d="M1024,-84.92C1024,-99.58 1024,-117.8 1024,-117.8 1024,-117.8 1176.65,-117.8 1176.65,-117.8"/>
<polygon fill="black" stroke="black" points="1176.65,-121.3 1186.65,-117.8 1176.65,-114.3 1176.65,-121.3"/>
</g>
<!-- RabbitMQWrapperTestModule -->
<g id="node12" class="node">
<title>RabbitMQWrapperTestModule</title>
<polygon fill="#8dd3c7" stroke="black" points="940.01,-84.8 937.01,-88.8 916.01,-88.8 913.01,-84.8 747.99,-84.8 747.99,-48.8 940.01,-48.8 940.01,-84.8"/>
<text text-anchor="middle" x="844" y="-62.6" font-family="Times,serif" font-size="14.00">RabbitMQWrapperTestModule</text>
</g>
<!-- RabbitMQWrapperTestModule&#45;&gt;ServerTestModule -->
<g id="edge12" class="edge">
<title>RabbitMQWrapperTestModule&#45;&gt;ServerTestModule</title>
<path fill="none" stroke="black" d="M844,-84.81C844,-100.85 844,-121.8 844,-121.8 844,-121.8 1176.67,-121.8 1176.67,-121.8"/>
<polygon fill="black" stroke="black" points="1176.67,-125.3 1186.67,-121.8 1176.67,-118.3 1176.67,-125.3"/>
</g>
<!-- RoleModule -->
<g id="node13" class="node">
<title>RoleModule</title>
<polygon fill="#8dd3c7" stroke="black" points="729.99,-84.8 726.99,-88.8 705.99,-88.8 702.99,-84.8 644.01,-84.8 644.01,-48.8 729.99,-48.8 729.99,-84.8"/>
<text text-anchor="middle" x="687" y="-62.6" font-family="Times,serif" font-size="14.00">RoleModule</text>
</g>
<!-- RoleModule&#45;&gt;ServerTestModule -->
<g id="edge13" class="edge">
<title>RoleModule&#45;&gt;ServerTestModule</title>
<path fill="none" stroke="black" d="M687,-84.82C687,-102.17 687,-125.8 687,-125.8 687,-125.8 1176.8,-125.8 1176.8,-125.8"/>
<polygon fill="black" stroke="black" points="1176.8,-129.3 1186.8,-125.8 1176.8,-122.3 1176.8,-129.3"/>
</g>
<!-- SchoolModule -->
<g id="node14" class="node">
<title>SchoolModule</title>
<polygon fill="#8dd3c7" stroke="black" points="626.44,-84.8 623.44,-88.8 602.44,-88.8 599.44,-84.8 527.56,-84.8 527.56,-48.8 626.44,-48.8 626.44,-84.8"/>
<text text-anchor="middle" x="577" y="-62.6" font-family="Times,serif" font-size="14.00">SchoolModule</text>
</g>
<!-- SchoolModule&#45;&gt;ServerTestModule -->
<g id="edge14" class="edge">
<title>SchoolModule&#45;&gt;ServerTestModule</title>
<path fill="none" stroke="black" d="M577,-85.02C577,-103.63 577,-129.8 577,-129.8 577,-129.8 1176.66,-129.8 1176.66,-129.8"/>
<polygon fill="black" stroke="black" points="1176.66,-133.3 1186.66,-129.8 1176.66,-126.3 1176.66,-133.3"/>
</g>
<!-- SystemModule -->
<g id="node15" class="node">
<title>SystemModule</title>
<polygon fill="#8dd3c7" stroke="black" points="509.28,-84.8 506.28,-88.8 485.28,-88.8 482.28,-84.8 408.72,-84.8 408.72,-48.8 509.28,-48.8 509.28,-84.8"/>
<text text-anchor="middle" x="459" y="-62.6" font-family="Times,serif" font-size="14.00">SystemModule</text>
</g>
<!-- SystemModule&#45;&gt;ServerTestModule -->
<g id="edge15" class="edge">
<title>SystemModule&#45;&gt;ServerTestModule</title>
<path fill="none" stroke="black" d="M459,-85.11C459,-104.95 459,-133.8 459,-133.8 459,-133.8 1176.8,-133.8 1176.8,-133.8"/>
<polygon fill="black" stroke="black" points="1176.8,-137.3 1186.8,-133.8 1176.8,-130.3 1176.8,-137.3"/>
</g>
<!-- TaskModule -->
<g id="node16" class="node">
<title>TaskModule</title>
<polygon fill="#8dd3c7" stroke="black" points="390.27,-84.8 387.27,-88.8 366.27,-88.8 363.27,-84.8 303.73,-84.8 303.73,-48.8 390.27,-48.8 390.27,-84.8"/>
<text text-anchor="middle" x="347" y="-62.6" font-family="Times,serif" font-size="14.00">TaskModule</text>
</g>
<!-- TaskModule&#45;&gt;ServerTestModule -->
<g id="edge16" class="edge">
<title>TaskModule&#45;&gt;ServerTestModule</title>
<path fill="none" stroke="black" d="M347,-85.08C347,-106.12 347,-137.8 347,-137.8 347,-137.8 1176.9,-137.8 1176.9,-137.8"/>
<polygon fill="black" stroke="black" points="1176.9,-141.3 1186.9,-137.8 1176.9,-134.3 1176.9,-141.3"/>
</g>
<!-- UserModule -->
<g id="node17" class="node">
<title>UserModule</title>
<polygon fill="#8dd3c7" stroke="black" points="285.99,-84.8 282.99,-88.8 261.99,-88.8 258.99,-84.8 200.01,-84.8 200.01,-48.8 285.99,-48.8 285.99,-84.8"/>
<text text-anchor="middle" x="243" y="-62.6" font-family="Times,serif" font-size="14.00">UserModule</text>
</g>
<!-- UserModule&#45;&gt;ServerTestModule -->
<g id="edge17" class="edge">
<title>UserModule&#45;&gt;ServerTestModule</title>
<path fill="none" stroke="black" d="M243,-84.96C243,-107.15 243,-141.8 243,-141.8 243,-141.8 1176.83,-141.8 1176.83,-141.8"/>
<polygon fill="black" stroke="black" points="1176.83,-145.3 1186.83,-141.8 1176.83,-138.3 1176.83,-145.3"/>
</g>
<!-- VideoConferenceModule -->
<g id="node18" class="node">
<title>VideoConferenceModule</title>
<polygon fill="#8dd3c7" stroke="black" points="182.28,-84.8 179.28,-88.8 158.28,-88.8 155.28,-84.8 23.72,-84.8 23.72,-48.8 182.28,-48.8 182.28,-84.8"/>
<text text-anchor="middle" x="103" y="-62.6" font-family="Times,serif" font-size="14.00">VideoConferenceModule</text>
</g>
<!-- VideoConferenceModule&#45;&gt;ServerTestModule -->
<g id="edge18" class="edge">
<title>VideoConferenceModule&#45;&gt;ServerTestModule</title>
<path fill="none" stroke="black" d="M103,-85.12C103,-108.46 103,-145.8 103,-145.8 103,-145.8 1176.7,-145.8 1176.7,-145.8"/>
<polygon fill="black" stroke="black" points="1176.7,-149.3 1186.7,-145.8 1176.7,-142.3 1176.7,-149.3"/>
</g>
</g>
</svg>
