<?xml version="1.0" encoding="UTF-8" standalone="no"?>
<!DOCTYPE svg PUBLIC "-//W3C//DTD SVG 1.1//EN"
 "http://www.w3.org/Graphics/SVG/1.1/DTD/svg11.dtd">
<!-- Generated by graphviz version 3.0.0 (20220226.1711)
 -->
<!-- Title: dependencies Pages: 1 -->
<svg width="2255pt" height="174pt"
 viewBox="0.00 0.00 2255.00 173.80" xmlns="http://www.w3.org/2000/svg" xmlns:xlink="http://www.w3.org/1999/xlink">
<g id="graph0" class="graph" transform="scale(1 1) rotate(0) translate(4 169.8)">
<title>dependencies</title>
<polygon fill="white" stroke="transparent" points="-4,4 -4,-169.8 2251,-169.8 2251,4 -4,4"/>
<text text-anchor="middle" x="1123.5" y="-8.2" font-family="sans-serif" font-size="14.00">dependencies</text>
<g id="clust1" class="cluster">
<title>cluster_ServerTestModule</title>
<polygon fill="none" stroke="black" stroke-dasharray="1,5" points="8,-32.8 8,-157.8 2239,-157.8 2239,-32.8 8,-32.8"/>
</g>
<g id="clust3" class="cluster">
<title>cluster_ServerTestModule_imports</title>
<polygon fill="none" stroke="black" points="16,-40.8 16,-92.8 2231,-92.8 2231,-40.8 16,-40.8"/>
</g>
<!-- AuthModule -->
<g id="node1" class="node">
<title>AuthModule</title>
<polygon fill="#8dd3c7" stroke="black" points="2222.55,-84.8 2219.55,-88.8 2198.55,-88.8 2195.55,-84.8 2135.45,-84.8 2135.45,-48.8 2222.55,-48.8 2222.55,-84.8"/>
<text text-anchor="middle" x="2179" y="-62.6" font-family="Times,serif" font-size="14.00">AuthModule</text>
</g>
<!-- ServerTestModule -->
<g id="node17" class="node">
<title>ServerTestModule</title>
<polygon fill="#8dd3c7" stroke="black" points="1093.19,-149.8 1090.19,-153.8 1069.19,-153.8 1066.19,-149.8 972.81,-149.8 972.81,-113.8 1093.19,-113.8 1093.19,-149.8"/>
<text text-anchor="middle" x="1033" y="-127.6" font-family="Times,serif" font-size="14.00">ServerTestModule</text>
</g>
<!-- AuthModule&#45;&gt;ServerTestModule -->
<g id="edge1" class="edge">
<title>AuthModule&#45;&gt;ServerTestModule</title>
<path fill="none" stroke="black" d="M2179,-85.12C2179,-108.46 2179,-145.8 2179,-145.8 2179,-145.8 1103.4,-145.8 1103.4,-145.8"/>
<polygon fill="black" stroke="black" points="1103.4,-142.3 1093.4,-145.8 1103.4,-149.3 1103.4,-142.3"/>
</g>
<!-- CollaborativeStorageModule -->
<g id="node2" class="node">
<title>CollaborativeStorageModule</title>
<polygon fill="#8dd3c7" stroke="black" points="2117.02,-84.8 2114.02,-88.8 2093.02,-88.8 2090.02,-84.8 1938.98,-84.8 1938.98,-48.8 2117.02,-48.8 2117.02,-84.8"/>
<text text-anchor="middle" x="2028" y="-62.6" font-family="Times,serif" font-size="14.00">CollaborativeStorageModule</text>
</g>
<!-- CollaborativeStorageModule&#45;&gt;ServerTestModule -->
<g id="edge2" class="edge">
<title>CollaborativeStorageModule&#45;&gt;ServerTestModule</title>
<path fill="none" stroke="black" d="M2028,-85.09C2028,-107.01 2028,-140.8 2028,-140.8 2028,-140.8 1103.37,-140.8 1103.37,-140.8"/>
<polygon fill="black" stroke="black" points="1103.37,-137.3 1093.37,-140.8 1103.37,-144.3 1103.37,-137.3"/>
</g>
<!-- CoreModule -->
<g id="node3" class="node">
<title>CoreModule</title>
<polygon fill="#8dd3c7" stroke="black" points="1920.27,-84.8 1917.27,-88.8 1896.27,-88.8 1893.27,-84.8 1833.73,-84.8 1833.73,-48.8 1920.27,-48.8 1920.27,-84.8"/>
<text text-anchor="middle" x="1877" y="-62.6" font-family="Times,serif" font-size="14.00">CoreModule</text>
</g>
<!-- CoreModule&#45;&gt;ServerTestModule -->
<g id="edge3" class="edge">
<title>CoreModule&#45;&gt;ServerTestModule</title>
<path fill="none" stroke="black" d="M1877,-84.83C1877,-105.57 1877,-136.8 1877,-136.8 1877,-136.8 1103.36,-136.8 1103.36,-136.8"/>
<polygon fill="black" stroke="black" points="1103.36,-133.3 1093.36,-136.8 1103.36,-140.3 1103.36,-133.3"/>
</g>
<!-- FilesStorageClientModule -->
<g id="node4" class="node">
<title>FilesStorageClientModule</title>
<polygon fill="#8dd3c7" stroke="black" points="1815.77,-84.8 1812.77,-88.8 1791.77,-88.8 1788.77,-84.8 1652.23,-84.8 1652.23,-48.8 1815.77,-48.8 1815.77,-84.8"/>
<text text-anchor="middle" x="1734" y="-62.6" font-family="Times,serif" font-size="14.00">FilesStorageClientModule</text>
</g>
<!-- FilesStorageClientModule&#45;&gt;ServerTestModule -->
<g id="edge4" class="edge">
<title>FilesStorageClientModule&#45;&gt;ServerTestModule</title>
<path fill="none" stroke="black" d="M1734,-84.91C1734,-104.14 1734,-131.8 1734,-131.8 1734,-131.8 1103.37,-131.8 1103.37,-131.8"/>
<polygon fill="black" stroke="black" points="1103.37,-128.3 1093.37,-131.8 1103.37,-135.3 1103.37,-128.3"/>
</g>
<!-- ImportUserModule -->
<g id="node5" class="node">
<title>ImportUserModule</title>
<polygon fill="#8dd3c7" stroke="black" points="1634.09,-84.8 1631.09,-88.8 1610.09,-88.8 1607.09,-84.8 1509.91,-84.8 1509.91,-48.8 1634.09,-48.8 1634.09,-84.8"/>
<text text-anchor="middle" x="1572" y="-62.6" font-family="Times,serif" font-size="14.00">ImportUserModule</text>
</g>
<!-- ImportUserModule&#45;&gt;ServerTestModule -->
<g id="edge5" class="edge">
<title>ImportUserModule&#45;&gt;ServerTestModule</title>
<path fill="none" stroke="black" d="M1572,-85.1C1572,-103.07 1572,-127.8 1572,-127.8 1572,-127.8 1103.26,-127.8 1103.26,-127.8"/>
<polygon fill="black" stroke="black" points="1103.26,-124.3 1093.26,-127.8 1103.26,-131.3 1103.26,-124.3"/>
</g>
<!-- LearnroomModule -->
<g id="node6" class="node">
<title>LearnroomModule</title>
<polygon fill="#8dd3c7" stroke="black" points="1491.75,-84.8 1488.75,-88.8 1467.75,-88.8 1464.75,-84.8 1370.25,-84.8 1370.25,-48.8 1491.75,-48.8 1491.75,-84.8"/>
<text text-anchor="middle" x="1431" y="-62.6" font-family="Times,serif" font-size="14.00">LearnroomModule</text>
</g>
<!-- LearnroomModule&#45;&gt;ServerTestModule -->
<g id="edge6" class="edge">
<title>LearnroomModule&#45;&gt;ServerTestModule</title>
<path fill="none" stroke="black" d="M1431,-84.83C1431,-101.2 1431,-122.8 1431,-122.8 1431,-122.8 1103.45,-122.8 1103.45,-122.8"/>
<polygon fill="black" stroke="black" points="1103.45,-119.3 1093.45,-122.8 1103.45,-126.3 1103.45,-119.3"/>
</g>
<!-- MongoMemoryDatabaseModule -->
<g id="node7" class="node">
<title>MongoMemoryDatabaseModule</title>
<polygon fill="#8dd3c7" stroke="black" points="1351.52,-84.8 1348.52,-88.8 1327.52,-88.8 1324.52,-84.8 1152.48,-84.8 1152.48,-48.8 1351.52,-48.8 1351.52,-84.8"/>
<text text-anchor="middle" x="1252" y="-62.6" font-family="Times,serif" font-size="14.00">MongoMemoryDatabaseModule</text>
</g>
<!-- MongoMemoryDatabaseModule&#45;&gt;ServerTestModule -->
<g id="edge7" class="edge">
<title>MongoMemoryDatabaseModule&#45;&gt;ServerTestModule</title>
<path fill="none" stroke="black" d="M1252,-84.99C1252,-99.98 1252,-118.8 1252,-118.8 1252,-118.8 1103.13,-118.8 1103.13,-118.8"/>
<polygon fill="black" stroke="black" points="1103.13,-115.3 1093.13,-118.8 1103.13,-122.3 1103.13,-115.3"/>
</g>
<!-- NewsModule -->
<g id="node8" class="node">
<title>NewsModule</title>
<polygon fill="#8dd3c7" stroke="black" points="1134.94,-84.8 1131.94,-88.8 1110.94,-88.8 1107.94,-84.8 1043.06,-84.8 1043.06,-48.8 1134.94,-48.8 1134.94,-84.8"/>
<text text-anchor="middle" x="1089" y="-62.6" font-family="Times,serif" font-size="14.00">NewsModule</text>
</g>
<!-- NewsModule&#45;&gt;ServerTestModule -->
<g id="edge8" class="edge">
<title>NewsModule&#45;&gt;ServerTestModule</title>
<path fill="none" stroke="black" d="M1068.19,-84.91C1068.19,-84.91 1068.19,-103.79 1068.19,-103.79"/>
<polygon fill="black" stroke="black" points="1064.69,-103.79 1068.19,-113.79 1071.69,-103.79 1064.69,-103.79"/>
</g>
<!-- OauthModule -->
<g id="node9" class="node">
<title>OauthModule</title>
<polygon fill="#8dd3c7" stroke="black" points="1024.77,-84.8 1021.77,-88.8 1000.77,-88.8 997.77,-84.8 931.23,-84.8 931.23,-48.8 1024.77,-48.8 1024.77,-84.8"/>
<text text-anchor="middle" x="978" y="-62.6" font-family="Times,serif" font-size="14.00">OauthModule</text>
</g>
<!-- OauthModule&#45;&gt;ServerTestModule -->
<g id="edge9" class="edge">
<title>OauthModule&#45;&gt;ServerTestModule</title>
<path fill="none" stroke="black" d="M998.89,-84.91C998.89,-84.91 998.89,-103.79 998.89,-103.79"/>
<polygon fill="black" stroke="black" points="995.39,-103.79 998.89,-113.79 1002.39,-103.79 995.39,-103.79"/>
</g>
<!-- ProvisioningModule -->
<g id="node10" class="node">
<title>ProvisioningModule</title>
<polygon fill="#8dd3c7" stroke="black" points="913.62,-84.8 910.62,-88.8 889.62,-88.8 886.62,-84.8 782.38,-84.8 782.38,-48.8 913.62,-48.8 913.62,-84.8"/>
<text text-anchor="middle" x="848" y="-62.6" font-family="Times,serif" font-size="14.00">ProvisioningModule</text>
</g>
<!-- ProvisioningModule&#45;&gt;ServerTestModule -->
<g id="edge10" class="edge">
<title>ProvisioningModule&#45;&gt;ServerTestModule</title>
<path fill="none" stroke="black" d="M848,-84.99C848,-99.98 848,-118.8 848,-118.8 848,-118.8 962.68,-118.8 962.68,-118.8"/>
<polygon fill="black" stroke="black" points="962.68,-122.3 972.68,-118.8 962.68,-115.3 962.68,-122.3"/>
</g>
<!-- RabbitMQWrapperTestModule -->
<g id="node11" class="node">
<title>RabbitMQWrapperTestModule</title>
<polygon fill="#8dd3c7" stroke="black" points="764.01,-84.8 761.01,-88.8 740.01,-88.8 737.01,-84.8 571.99,-84.8 571.99,-48.8 764.01,-48.8 764.01,-84.8"/>
<text text-anchor="middle" x="668" y="-62.6" font-family="Times,serif" font-size="14.00">RabbitMQWrapperTestModule</text>
</g>
<!-- RabbitMQWrapperTestModule&#45;&gt;ServerTestModule -->
<g id="edge11" class="edge">
<title>RabbitMQWrapperTestModule&#45;&gt;ServerTestModule</title>
<path fill="none" stroke="black" d="M668,-84.83C668,-101.2 668,-122.8 668,-122.8 668,-122.8 962.73,-122.8 962.73,-122.8"/>
<polygon fill="black" stroke="black" points="962.73,-126.3 972.73,-122.8 962.73,-119.3 962.73,-126.3"/>
</g>
<!-- RoleModule -->
<g id="node12" class="node">
<title>RoleModule</title>
<polygon fill="#8dd3c7" stroke="black" points="553.99,-84.8 550.99,-88.8 529.99,-88.8 526.99,-84.8 468.01,-84.8 468.01,-48.8 553.99,-48.8 553.99,-84.8"/>
<text text-anchor="middle" x="511" y="-62.6" font-family="Times,serif" font-size="14.00">RoleModule</text>
</g>
<!-- RoleModule&#45;&gt;ServerTestModule -->
<g id="edge12" class="edge">
<title>RoleModule&#45;&gt;ServerTestModule</title>
<path fill="none" stroke="black" d="M511,-85.1C511,-103.07 511,-127.8 511,-127.8 511,-127.8 962.87,-127.8 962.87,-127.8"/>
<polygon fill="black" stroke="black" points="962.87,-131.3 972.87,-127.8 962.87,-124.3 962.87,-131.3"/>
</g>
<!-- SchoolModule -->
<g id="node13" class="node">
<title>SchoolModule</title>
<polygon fill="#8dd3c7" stroke="black" points="450.44,-84.8 447.44,-88.8 426.44,-88.8 423.44,-84.8 351.56,-84.8 351.56,-48.8 450.44,-48.8 450.44,-84.8"/>
<text text-anchor="middle" x="401" y="-62.6" font-family="Times,serif" font-size="14.00">SchoolModule</text>
</g>
<!-- SchoolModule&#45;&gt;ServerTestModule -->
<g id="edge13" class="edge">
<title>SchoolModule&#45;&gt;ServerTestModule</title>
<path fill="none" stroke="black" d="M401,-84.91C401,-104.14 401,-131.8 401,-131.8 401,-131.8 962.69,-131.8 962.69,-131.8"/>
<polygon fill="black" stroke="black" points="962.69,-135.3 972.69,-131.8 962.69,-128.3 962.69,-135.3"/>
</g>
<!-- SystemModule -->
<g id="node14" class="node">
<title>SystemModule</title>
<polygon fill="#8dd3c7" stroke="black" points="333.28,-84.8 330.28,-88.8 309.28,-88.8 306.28,-84.8 232.72,-84.8 232.72,-48.8 333.28,-48.8 333.28,-84.8"/>
<text text-anchor="middle" x="283" y="-62.6" font-family="Times,serif" font-size="14.00">SystemModule</text>
</g>
<!-- SystemModule&#45;&gt;ServerTestModule -->
<g id="edge14" class="edge">
<title>SystemModule&#45;&gt;ServerTestModule</title>
<path fill="none" stroke="black" d="M283,-84.83C283,-105.57 283,-136.8 283,-136.8 283,-136.8 962.89,-136.8 962.89,-136.8"/>
<polygon fill="black" stroke="black" points="962.89,-140.3 972.89,-136.8 962.89,-133.3 962.89,-140.3"/>
</g>
<!-- TaskModule -->
<g id="node15" class="node">
<title>TaskModule</title>
<polygon fill="#8dd3c7" stroke="black" points="214.27,-84.8 211.27,-88.8 190.27,-88.8 187.27,-84.8 127.73,-84.8 127.73,-48.8 214.27,-48.8 214.27,-84.8"/>
<text text-anchor="middle" x="171" y="-62.6" font-family="Times,serif" font-size="14.00">TaskModule</text>
</g>
<!-- TaskModule&#45;&gt;ServerTestModule -->
<g id="edge15" class="edge">
<title>TaskModule&#45;&gt;ServerTestModule</title>
<path fill="none" stroke="black" d="M171,-85.09C171,-107.01 171,-140.8 171,-140.8 171,-140.8 962.73,-140.8 962.73,-140.8"/>
<polygon fill="black" stroke="black" points="962.73,-144.3 972.73,-140.8 962.73,-137.3 962.73,-144.3"/>
</g>
<!-- UserModule -->
<g id="node16" class="node">
<title>UserModule</title>
<polygon fill="#8dd3c7" stroke="black" points="109.99,-84.8 106.99,-88.8 85.99,-88.8 82.99,-84.8 24.01,-84.8 24.01,-48.8 109.99,-48.8 109.99,-84.8"/>
<text text-anchor="middle" x="67" y="-62.6" font-family="Times,serif" font-size="14.00">UserModule</text>
</g>
<!-- UserModule&#45;&gt;ServerTestModule -->
<g id="edge16" class="edge">
<title>UserModule&#45;&gt;ServerTestModule</title>
<path fill="none" stroke="black" d="M67,-85.12C67,-108.46 67,-145.8 67,-145.8 67,-145.8 962.57,-145.8 962.57,-145.8"/>
<polygon fill="black" stroke="black" points="962.57,-149.3 972.57,-145.8 962.57,-142.3 962.57,-149.3"/>
</g>
</g>
</svg>
