<?xml version="1.0" encoding="UTF-8" standalone="no"?>
<!DOCTYPE svg PUBLIC "-//W3C//DTD SVG 1.1//EN"
 "http://www.w3.org/Graphics/SVG/1.1/DTD/svg11.dtd">
<!-- Generated by graphviz version 5.0.0 (20220707.1540)
 -->
<!-- Title: dependencies Pages: 1 -->
<svg width="2975pt" height="174pt"
 viewBox="0.00 0.00 2975.00 173.80" xmlns="http://www.w3.org/2000/svg" xmlns:xlink="http://www.w3.org/1999/xlink">
<g id="graph0" class="graph" transform="scale(1 1) rotate(0) translate(4 169.8)">
<title>dependencies</title>
<polygon fill="white" stroke="transparent" points="-4,4 -4,-169.8 2971,-169.8 2971,4 -4,4"/>
<text text-anchor="middle" x="1483.5" y="-8.2" font-family="sans-serif" font-size="14.00">dependencies</text>
<g id="clust1" class="cluster">
<title>cluster_ServerTestModule</title>
<polygon fill="none" stroke="black" stroke-dasharray="1,5" points="8,-32.8 8,-157.8 2959,-157.8 2959,-32.8 8,-32.8"/>
</g>
<g id="clust3" class="cluster">
<title>cluster_ServerTestModule_imports</title>
<polygon fill="none" stroke="black" points="16,-40.8 16,-92.8 2951,-92.8 2951,-40.8 16,-40.8"/>
</g>
<!-- AuthModule -->
<g id="node1" class="node">
<title>AuthModule</title>
<polygon fill="#8dd3c7" stroke="black" points="2942.55,-84.8 2939.55,-88.8 2918.55,-88.8 2915.55,-84.8 2855.45,-84.8 2855.45,-48.8 2942.55,-48.8 2942.55,-84.8"/>
<text text-anchor="middle" x="2899" y="-62.6" font-family="Times,serif" font-size="14.00">AuthModule</text>
</g>
<!-- ServerTestModule -->
<g id="node22" class="node">
<title>ServerTestModule</title>
<polygon fill="#8dd3c7" stroke="black" points="1484.19,-149.8 1481.19,-153.8 1460.19,-153.8 1457.19,-149.8 1363.81,-149.8 1363.81,-113.8 1484.19,-113.8 1484.19,-149.8"/>
<text text-anchor="middle" x="1424" y="-127.6" font-family="Times,serif" font-size="14.00">ServerTestModule</text>
</g>
<!-- AuthModule&#45;&gt;ServerTestModule -->
<g id="edge1" class="edge">
<title>AuthModule&#45;&gt;ServerTestModule</title>
<path fill="none" stroke="black" d="M2899,-84.95C2899,-108.56 2899,-146.8 2899,-146.8 2899,-146.8 1494.11,-146.8 1494.11,-146.8"/>
<polygon fill="black" stroke="black" points="1494.11,-143.3 1484.11,-146.8 1494.11,-150.3 1494.11,-143.3"/>
</g>
<!-- CollaborativeStorageModule -->
<g id="node2" class="node">
<title>CollaborativeStorageModule</title>
<polygon fill="#8dd3c7" stroke="black" points="2837.02,-84.8 2834.02,-88.8 2813.02,-88.8 2810.02,-84.8 2658.98,-84.8 2658.98,-48.8 2837.02,-48.8 2837.02,-84.8"/>
<text text-anchor="middle" x="2748" y="-62.6" font-family="Times,serif" font-size="14.00">CollaborativeStorageModule</text>
</g>
<!-- CollaborativeStorageModule&#45;&gt;ServerTestModule -->
<g id="edge2" class="edge">
<title>CollaborativeStorageModule&#45;&gt;ServerTestModule</title>
<path fill="none" stroke="black" d="M2748,-85.05C2748,-107.82 2748,-143.8 2748,-143.8 2748,-143.8 1494.33,-143.8 1494.33,-143.8"/>
<polygon fill="black" stroke="black" points="1494.33,-140.3 1484.33,-143.8 1494.33,-147.3 1494.33,-140.3"/>
</g>
<!-- CoreModule -->
<g id="node3" class="node">
<title>CoreModule</title>
<polygon fill="#8dd3c7" stroke="black" points="2640.27,-84.8 2637.27,-88.8 2616.27,-88.8 2613.27,-84.8 2553.73,-84.8 2553.73,-48.8 2640.27,-48.8 2640.27,-84.8"/>
<text text-anchor="middle" x="2597" y="-62.6" font-family="Times,serif" font-size="14.00">CoreModule</text>
</g>
<!-- CoreModule&#45;&gt;ServerTestModule -->
<g id="edge3" class="edge">
<title>CoreModule&#45;&gt;ServerTestModule</title>
<path fill="none" stroke="black" d="M2597,-85.09C2597,-107.01 2597,-140.8 2597,-140.8 2597,-140.8 1494.19,-140.8 1494.19,-140.8"/>
<polygon fill="black" stroke="black" points="1494.19,-137.3 1484.19,-140.8 1494.19,-144.3 1494.19,-137.3"/>
</g>
<!-- FilesStorageClientModule -->
<g id="node4" class="node">
<title>FilesStorageClientModule</title>
<polygon fill="#8dd3c7" stroke="black" points="2535.77,-84.8 2532.77,-88.8 2511.77,-88.8 2508.77,-84.8 2372.23,-84.8 2372.23,-48.8 2535.77,-48.8 2535.77,-84.8"/>
<text text-anchor="middle" x="2454" y="-62.6" font-family="Times,serif" font-size="14.00">FilesStorageClientModule</text>
</g>
<!-- FilesStorageClientModule&#45;&gt;ServerTestModule -->
<g id="edge4" class="edge">
<title>FilesStorageClientModule&#45;&gt;ServerTestModule</title>
<path fill="none" stroke="black" d="M2454,-84.83C2454,-105.57 2454,-136.8 2454,-136.8 2454,-136.8 1494.21,-136.8 1494.21,-136.8"/>
<polygon fill="black" stroke="black" points="1494.21,-133.3 1484.21,-136.8 1494.21,-140.3 1494.21,-133.3"/>
</g>
<!-- ImportUserModule -->
<g id="node5" class="node">
<title>ImportUserModule</title>
<polygon fill="#8dd3c7" stroke="black" points="2354.09,-84.8 2351.09,-88.8 2330.09,-88.8 2327.09,-84.8 2229.91,-84.8 2229.91,-48.8 2354.09,-48.8 2354.09,-84.8"/>
<text text-anchor="middle" x="2292" y="-62.6" font-family="Times,serif" font-size="14.00">ImportUserModule</text>
</g>
<!-- ImportUserModule&#45;&gt;ServerTestModule -->
<g id="edge5" class="edge">
<title>ImportUserModule&#45;&gt;ServerTestModule</title>
<path fill="none" stroke="black" d="M2292,-85.11C2292,-104.95 2292,-133.8 2292,-133.8 2292,-133.8 1494.35,-133.8 1494.35,-133.8"/>
<polygon fill="black" stroke="black" points="1494.35,-130.3 1484.35,-133.8 1494.35,-137.3 1494.35,-130.3"/>
</g>
<!-- LearnroomModule -->
<g id="node6" class="node">
<title>LearnroomModule</title>
<polygon fill="#8dd3c7" stroke="black" points="2211.75,-84.8 2208.75,-88.8 2187.75,-88.8 2184.75,-84.8 2090.25,-84.8 2090.25,-48.8 2211.75,-48.8 2211.75,-84.8"/>
<text text-anchor="middle" x="2151" y="-62.6" font-family="Times,serif" font-size="14.00">LearnroomModule</text>
</g>
<!-- LearnroomModule&#45;&gt;ServerTestModule -->
<g id="edge6" class="edge">
<title>LearnroomModule&#45;&gt;ServerTestModule</title>
<path fill="none" stroke="black" d="M2151,-84.97C2151,-103.89 2151,-130.8 2151,-130.8 2151,-130.8 1494.11,-130.8 1494.11,-130.8"/>
<polygon fill="black" stroke="black" points="1494.11,-127.3 1484.11,-130.8 1494.11,-134.3 1494.11,-127.3"/>
</g>
<!-- LessonApiModule -->
<g id="node7" class="node">
<title>LessonApiModule</title>
<polygon fill="#8dd3c7" stroke="black" points="2072.21,-84.8 2069.21,-88.8 2048.21,-88.8 2045.21,-84.8 1951.79,-84.8 1951.79,-48.8 2072.21,-48.8 2072.21,-84.8"/>
<text text-anchor="middle" x="2012" y="-62.6" font-family="Times,serif" font-size="14.00">LessonApiModule</text>
</g>
<!-- LessonApiModule&#45;&gt;ServerTestModule -->
<g id="edge7" class="edge">
<title>LessonApiModule&#45;&gt;ServerTestModule</title>
<path fill="none" stroke="black" d="M2012,-85.1C2012,-103.07 2012,-127.8 2012,-127.8 2012,-127.8 1494.16,-127.8 1494.16,-127.8"/>
<polygon fill="black" stroke="black" points="1494.16,-124.3 1484.16,-127.8 1494.16,-131.3 1494.16,-124.3"/>
</g>
<!-- MongoMemoryDatabaseModule -->
<g id="node8" class="node">
<title>MongoMemoryDatabaseModule</title>
<polygon fill="#8dd3c7" stroke="black" points="1933.52,-84.8 1930.52,-88.8 1909.52,-88.8 1906.52,-84.8 1734.48,-84.8 1734.48,-48.8 1933.52,-48.8 1933.52,-84.8"/>
<text text-anchor="middle" x="1834" y="-62.6" font-family="Times,serif" font-size="14.00">MongoMemoryDatabaseModule</text>
</g>
<!-- MongoMemoryDatabaseModule&#45;&gt;ServerTestModule -->
<g id="edge8" class="edge">
<title>MongoMemoryDatabaseModule&#45;&gt;ServerTestModule</title>
<path fill="none" stroke="black" d="M1834,-84.84C1834,-101.53 1834,-123.8 1834,-123.8 1834,-123.8 1494.5,-123.8 1494.5,-123.8"/>
<polygon fill="black" stroke="black" points="1494.5,-120.3 1484.5,-123.8 1494.5,-127.3 1494.5,-120.3"/>
</g>
<!-- NewsModule -->
<g id="node9" class="node">
<title>NewsModule</title>
<polygon fill="#8dd3c7" stroke="black" points="1716.94,-84.8 1713.94,-88.8 1692.94,-88.8 1689.94,-84.8 1625.06,-84.8 1625.06,-48.8 1716.94,-48.8 1716.94,-84.8"/>
<text text-anchor="middle" x="1671" y="-62.6" font-family="Times,serif" font-size="14.00">NewsModule</text>
</g>
<!-- NewsModule&#45;&gt;ServerTestModule -->
<g id="edge9" class="edge">
<title>NewsModule&#45;&gt;ServerTestModule</title>
<path fill="none" stroke="black" d="M1671,-85.08C1671,-100.75 1671,-120.8 1671,-120.8 1671,-120.8 1494.11,-120.8 1494.11,-120.8"/>
<polygon fill="black" stroke="black" points="1494.11,-117.3 1484.11,-120.8 1494.11,-124.3 1494.11,-117.3"/>
</g>
<!-- OauthModule -->
<g id="node10" class="node">
<title>OauthModule</title>
<polygon fill="#8dd3c7" stroke="black" points="1606.77,-84.8 1603.77,-88.8 1582.77,-88.8 1579.77,-84.8 1513.23,-84.8 1513.23,-48.8 1606.77,-48.8 1606.77,-84.8"/>
<text text-anchor="middle" x="1560" y="-62.6" font-family="Times,serif" font-size="14.00">OauthModule</text>
</g>
<!-- OauthModule&#45;&gt;ServerTestModule -->
<g id="edge10" class="edge">
<title>OauthModule&#45;&gt;ServerTestModule</title>
<path fill="none" stroke="black" d="M1560,-84.92C1560,-99.58 1560,-117.8 1560,-117.8 1560,-117.8 1494.44,-117.8 1494.44,-117.8"/>
<polygon fill="black" stroke="black" points="1494.44,-114.3 1484.44,-117.8 1494.44,-121.3 1494.44,-114.3"/>
</g>
<!-- OauthProviderModule -->
<g id="node11" class="node">
<title>OauthProviderModule</title>
<polygon fill="#8dd3c7" stroke="black" points="1494.98,-84.8 1491.98,-88.8 1470.98,-88.8 1467.98,-84.8 1353.02,-84.8 1353.02,-48.8 1494.98,-48.8 1494.98,-84.8"/>
<text text-anchor="middle" x="1424" y="-62.6" font-family="Times,serif" font-size="14.00">OauthProviderModule</text>
</g>
<!-- OauthProviderModule&#45;&gt;ServerTestModule -->
<g id="edge11" class="edge">
<title>OauthProviderModule&#45;&gt;ServerTestModule</title>
<path fill="none" stroke="black" d="M1424,-84.91C1424,-84.91 1424,-103.79 1424,-103.79"/>
<polygon fill="black" stroke="black" points="1420.5,-103.79 1424,-113.79 1427.5,-103.79 1420.5,-103.79"/>
</g>
<!-- ProvisioningModule -->
<g id="node12" class="node">
<title>ProvisioningModule</title>
<polygon fill="#8dd3c7" stroke="black" points="1334.62,-84.8 1331.62,-88.8 1310.62,-88.8 1307.62,-84.8 1203.38,-84.8 1203.38,-48.8 1334.62,-48.8 1334.62,-84.8"/>
<text text-anchor="middle" x="1269" y="-62.6" font-family="Times,serif" font-size="14.00">ProvisioningModule</text>
</g>
<!-- ProvisioningModule&#45;&gt;ServerTestModule -->
<g id="edge12" class="edge">
<title>ProvisioningModule&#45;&gt;ServerTestModule</title>
<path fill="none" stroke="black" d="M1269,-84.92C1269,-99.58 1269,-117.8 1269,-117.8 1269,-117.8 1353.63,-117.8 1353.63,-117.8"/>
<polygon fill="black" stroke="black" points="1353.63,-121.3 1363.63,-117.8 1353.63,-114.3 1353.63,-121.3"/>
</g>
<!-- RabbitMQWrapperTestModule -->
<g id="node13" class="node">
<title>RabbitMQWrapperTestModule</title>
<polygon fill="#8dd3c7" stroke="black" points="1185.01,-84.8 1182.01,-88.8 1161.01,-88.8 1158.01,-84.8 992.99,-84.8 992.99,-48.8 1185.01,-48.8 1185.01,-84.8"/>
<text text-anchor="middle" x="1089" y="-62.6" font-family="Times,serif" font-size="14.00">RabbitMQWrapperTestModule</text>
</g>
<!-- RabbitMQWrapperTestModule&#45;&gt;ServerTestModule -->
<g id="edge13" class="edge">
<title>RabbitMQWrapperTestModule&#45;&gt;ServerTestModule</title>
<path fill="none" stroke="black" d="M1089,-85.08C1089,-100.75 1089,-120.8 1089,-120.8 1089,-120.8 1353.72,-120.8 1353.72,-120.8"/>
<polygon fill="black" stroke="black" points="1353.72,-124.3 1363.72,-120.8 1353.72,-117.3 1353.72,-124.3"/>
</g>
<!-- RoleModule -->
<g id="node14" class="node">
<title>RoleModule</title>
<polygon fill="#8dd3c7" stroke="black" points="974.99,-84.8 971.99,-88.8 950.99,-88.8 947.99,-84.8 889.01,-84.8 889.01,-48.8 974.99,-48.8 974.99,-84.8"/>
<text text-anchor="middle" x="932" y="-62.6" font-family="Times,serif" font-size="14.00">RoleModule</text>
</g>
<!-- RoleModule&#45;&gt;ServerTestModule -->
<g id="edge14" class="edge">
<title>RoleModule&#45;&gt;ServerTestModule</title>
<path fill="none" stroke="black" d="M932,-84.84C932,-101.53 932,-123.8 932,-123.8 932,-123.8 1353.67,-123.8 1353.67,-123.8"/>
<polygon fill="black" stroke="black" points="1353.67,-127.3 1363.67,-123.8 1353.67,-120.3 1353.67,-127.3"/>
</g>
<!-- SchoolModule -->
<g id="node15" class="node">
<title>SchoolModule</title>
<polygon fill="#8dd3c7" stroke="black" points="871.44,-84.8 868.44,-88.8 847.44,-88.8 844.44,-84.8 772.56,-84.8 772.56,-48.8 871.44,-48.8 871.44,-84.8"/>
<text text-anchor="middle" x="822" y="-62.6" font-family="Times,serif" font-size="14.00">SchoolModule</text>
</g>
<!-- SchoolModule&#45;&gt;ServerTestModule -->
<g id="edge15" class="edge">
<title>SchoolModule&#45;&gt;ServerTestModule</title>
<path fill="none" stroke="black" d="M822,-85.1C822,-103.07 822,-127.8 822,-127.8 822,-127.8 1353.8,-127.8 1353.8,-127.8"/>
<polygon fill="black" stroke="black" points="1353.8,-131.3 1363.8,-127.8 1353.8,-124.3 1353.8,-131.3"/>
</g>
<!-- SharingApiModule -->
<g id="node16" class="node">
<title>SharingApiModule</title>
<polygon fill="#8dd3c7" stroke="black" points="755.1,-84.8 752.1,-88.8 731.1,-88.8 728.1,-84.8 630.9,-84.8 630.9,-48.8 755.1,-48.8 755.1,-84.8"/>
<text text-anchor="middle" x="693" y="-62.6" font-family="Times,serif" font-size="14.00">SharingApiModule</text>
</g>
<!-- SharingApiModule&#45;&gt;ServerTestModule -->
<g id="edge16" class="edge">
<title>SharingApiModule&#45;&gt;ServerTestModule</title>
<path fill="none" stroke="black" d="M693,-84.97C693,-103.89 693,-130.8 693,-130.8 693,-130.8 1353.87,-130.8 1353.87,-130.8"/>
<polygon fill="black" stroke="black" points="1353.87,-134.3 1363.87,-130.8 1353.87,-127.3 1353.87,-134.3"/>
</g>
<!-- SystemModule -->
<g id="node17" class="node">
<title>SystemModule</title>
<polygon fill="#8dd3c7" stroke="black" points="613.28,-84.8 610.28,-88.8 589.28,-88.8 586.28,-84.8 512.72,-84.8 512.72,-48.8 613.28,-48.8 613.28,-84.8"/>
<text text-anchor="middle" x="563" y="-62.6" font-family="Times,serif" font-size="14.00">SystemModule</text>
</g>
<!-- SystemModule&#45;&gt;ServerTestModule -->
<g id="edge17" class="edge">
<title>SystemModule&#45;&gt;ServerTestModule</title>
<path fill="none" stroke="black" d="M563,-85.11C563,-104.95 563,-133.8 563,-133.8 563,-133.8 1353.8,-133.8 1353.8,-133.8"/>
<polygon fill="black" stroke="black" points="1353.8,-137.3 1363.8,-133.8 1353.8,-130.3 1353.8,-137.3"/>
</g>
<!-- TaskModule -->
<g id="node18" class="node">
<title>TaskModule</title>
<polygon fill="#8dd3c7" stroke="black" points="494.27,-84.8 491.27,-88.8 470.27,-88.8 467.27,-84.8 407.73,-84.8 407.73,-48.8 494.27,-48.8 494.27,-84.8"/>
<text text-anchor="middle" x="451" y="-62.6" font-family="Times,serif" font-size="14.00">TaskModule</text>
</g>
<!-- TaskModule&#45;&gt;ServerTestModule -->
<g id="edge18" class="edge">
<title>TaskModule&#45;&gt;ServerTestModule</title>
<path fill="none" stroke="black" d="M451,-84.83C451,-105.57 451,-136.8 451,-136.8 451,-136.8 1353.87,-136.8 1353.87,-136.8"/>
<polygon fill="black" stroke="black" points="1353.87,-140.3 1363.87,-136.8 1353.87,-133.3 1353.87,-140.3"/>
</g>
<!-- ToolModule -->
<g id="node19" class="node">
<title>ToolModule</title>
<polygon fill="#8dd3c7" stroke="black" points="389.99,-84.8 386.99,-88.8 365.99,-88.8 362.99,-84.8 304.01,-84.8 304.01,-48.8 389.99,-48.8 389.99,-84.8"/>
<text text-anchor="middle" x="347" y="-62.6" font-family="Times,serif" font-size="14.00">ToolModule</text>
</g>
<!-- ToolModule&#45;&gt;ServerTestModule -->
<g id="edge19" class="edge">
<title>ToolModule&#45;&gt;ServerTestModule</title>
<path fill="none" stroke="black" d="M347,-85.09C347,-107.01 347,-140.8 347,-140.8 347,-140.8 1353.79,-140.8 1353.79,-140.8"/>
<polygon fill="black" stroke="black" points="1353.79,-144.3 1363.79,-140.8 1353.79,-137.3 1353.79,-144.3"/>
</g>
<!-- UserModule -->
<g id="node20" class="node">
<title>UserModule</title>
<polygon fill="#8dd3c7" stroke="black" points="285.99,-84.8 282.99,-88.8 261.99,-88.8 258.99,-84.8 200.01,-84.8 200.01,-48.8 285.99,-48.8 285.99,-84.8"/>
<text text-anchor="middle" x="243" y="-62.6" font-family="Times,serif" font-size="14.00">UserModule</text>
</g>
<!-- UserModule&#45;&gt;ServerTestModule -->
<g id="edge20" class="edge">
<title>UserModule&#45;&gt;ServerTestModule</title>
<path fill="none" stroke="black" d="M243,-85.05C243,-107.82 243,-143.8 243,-143.8 243,-143.8 1353.81,-143.8 1353.81,-143.8"/>
<polygon fill="black" stroke="black" points="1353.81,-147.3 1363.81,-143.8 1353.81,-140.3 1353.81,-147.3"/>
</g>
<!-- VideoConferenceModule -->
<g id="node21" class="node">
<title>VideoConferenceModule</title>
<polygon fill="#8dd3c7" stroke="black" points="182.28,-84.8 179.28,-88.8 158.28,-88.8 155.28,-84.8 23.72,-84.8 23.72,-48.8 182.28,-48.8 182.28,-84.8"/>
<text text-anchor="middle" x="103" y="-62.6" font-family="Times,serif" font-size="14.00">VideoConferenceModule</text>
</g>
<!-- VideoConferenceModule&#45;&gt;ServerTestModule -->
<g id="edge21" class="edge">
<title>VideoConferenceModule&#45;&gt;ServerTestModule</title>
<path fill="none" stroke="black" d="M103,-84.95C103,-108.56 103,-146.8 103,-146.8 103,-146.8 1353.81,-146.8 1353.81,-146.8"/>
<polygon fill="black" stroke="black" points="1353.81,-150.3 1363.81,-146.8 1353.81,-143.3 1353.81,-150.3"/>
</g>
</g>
</svg>
