<?xml version="1.0" encoding="UTF-8" standalone="no"?>
<!DOCTYPE svg PUBLIC "-//W3C//DTD SVG 1.1//EN"
 "http://www.w3.org/Graphics/SVG/1.1/DTD/svg11.dtd">
<!-- Generated by graphviz version 5.0.0 (20220707.1540)
 -->
<!-- Title: dependencies Pages: 1 -->
<svg width="3834pt" height="174pt"
 viewBox="0.00 0.00 3834.00 173.80" xmlns="http://www.w3.org/2000/svg" xmlns:xlink="http://www.w3.org/1999/xlink">
<g id="graph0" class="graph" transform="scale(1 1) rotate(0) translate(4 169.8)">
<title>dependencies</title>
<polygon fill="white" stroke="transparent" points="-4,4 -4,-169.8 3830,-169.8 3830,4 -4,4"/>
<text text-anchor="middle" x="1913" y="-8.2" font-family="sans-serif" font-size="14.00">dependencies</text>
<g id="clust1" class="cluster">
<title>cluster_ServerTestModule</title>
<polygon fill="none" stroke="black" stroke-dasharray="1,5" points="8,-32.8 8,-157.8 3818,-157.8 3818,-32.8 8,-32.8"/>
</g>
<g id="clust3" class="cluster">
<title>cluster_ServerTestModule_imports</title>
<polygon fill="none" stroke="black" points="16,-40.8 16,-92.8 3810,-92.8 3810,-40.8 16,-40.8"/>
</g>
<!-- AccountApiModule -->
<g id="node1" class="node">
<title>AccountApiModule</title>
<polygon fill="#8dd3c7" stroke="black" points="3801.98,-84.8 3798.98,-88.8 3777.98,-88.8 3774.98,-84.8 3674.02,-84.8 3674.02,-48.8 3801.98,-48.8 3801.98,-84.8"/>
<text text-anchor="middle" x="3738" y="-62.6" font-family="Times,serif" font-size="14.00">AccountApiModule</text>
</g>
<!-- ServerTestModule -->
<g id="node27" class="node">
<title>ServerTestModule</title>
<polygon fill="#8dd3c7" stroke="black" points="1905.19,-149.8 1902.19,-153.8 1881.19,-153.8 1878.19,-149.8 1784.81,-149.8 1784.81,-113.8 1905.19,-113.8 1905.19,-149.8"/>
<text text-anchor="middle" x="1845" y="-127.6" font-family="Times,serif" font-size="14.00">ServerTestModule</text>
</g>
<!-- AccountApiModule&#45;&gt;ServerTestModule -->
<g id="edge1" class="edge">
<title>AccountApiModule&#45;&gt;ServerTestModule</title>
<path fill="none" stroke="black" d="M3738,-85.18C3738,-109.08 3738,-147.8 3738,-147.8 3738,-147.8 1915.31,-147.8 1915.31,-147.8"/>
<polygon fill="black" stroke="black" points="1915.31,-144.3 1905.31,-147.8 1915.31,-151.3 1915.31,-144.3"/>
</g>
<!-- AuthenticationApiModule -->
<g id="node2" class="node">
<title>AuthenticationApiModule</title>
<polygon fill="#8dd3c7" stroke="black" points="3655.75,-84.8 3652.75,-88.8 3631.75,-88.8 3628.75,-84.8 3492.25,-84.8 3492.25,-48.8 3655.75,-48.8 3655.75,-84.8"/>
<text text-anchor="middle" x="3574" y="-62.6" font-family="Times,serif" font-size="14.00">AuthenticationApiModule</text>
</g>
<!-- AuthenticationApiModule&#45;&gt;ServerTestModule -->
<g id="edge2" class="edge">
<title>AuthenticationApiModule&#45;&gt;ServerTestModule</title>
<path fill="none" stroke="black" d="M3574,-84.89C3574,-107.93 3574,-144.8 3574,-144.8 3574,-144.8 1915.27,-144.8 1915.27,-144.8"/>
<polygon fill="black" stroke="black" points="1915.27,-141.3 1905.27,-144.8 1915.27,-148.3 1915.27,-141.3"/>
</g>
<!-- CollaborativeStorageModule -->
<g id="node3" class="node">
<title>CollaborativeStorageModule</title>
<polygon fill="#8dd3c7" stroke="black" points="3474.02,-84.8 3471.02,-88.8 3450.02,-88.8 3447.02,-84.8 3295.98,-84.8 3295.98,-48.8 3474.02,-48.8 3474.02,-84.8"/>
<text text-anchor="middle" x="3385" y="-62.6" font-family="Times,serif" font-size="14.00">CollaborativeStorageModule</text>
</g>
<!-- CollaborativeStorageModule&#45;&gt;ServerTestModule -->
<g id="edge3" class="edge">
<title>CollaborativeStorageModule&#45;&gt;ServerTestModule</title>
<path fill="none" stroke="black" d="M3385,-84.96C3385,-107.15 3385,-141.8 3385,-141.8 3385,-141.8 1915.37,-141.8 1915.37,-141.8"/>
<polygon fill="black" stroke="black" points="1915.37,-138.3 1905.37,-141.8 1915.37,-145.3 1915.37,-138.3"/>
</g>
<!-- CoreModule -->
<g id="node4" class="node">
<title>CoreModule</title>
<polygon fill="#8dd3c7" stroke="black" points="3277.27,-84.8 3274.27,-88.8 3253.27,-88.8 3250.27,-84.8 3190.73,-84.8 3190.73,-48.8 3277.27,-48.8 3277.27,-84.8"/>
<text text-anchor="middle" x="3234" y="-62.6" font-family="Times,serif" font-size="14.00">CoreModule</text>
</g>
<!-- CoreModule&#45;&gt;ServerTestModule -->
<g id="edge4" class="edge">
<title>CoreModule&#45;&gt;ServerTestModule</title>
<path fill="none" stroke="black" d="M3234,-84.97C3234,-106.3 3234,-138.8 3234,-138.8 3234,-138.8 1915.13,-138.8 1915.13,-138.8"/>
<polygon fill="black" stroke="black" points="1915.13,-135.3 1905.13,-138.8 1915.13,-142.3 1915.13,-135.3"/>
</g>
<!-- FilesStorageClientModule -->
<g id="node5" class="node">
<title>FilesStorageClientModule</title>
<polygon fill="#8dd3c7" stroke="black" points="3172.77,-84.8 3169.77,-88.8 3148.77,-88.8 3145.77,-84.8 3009.23,-84.8 3009.23,-48.8 3172.77,-48.8 3172.77,-84.8"/>
<text text-anchor="middle" x="3091" y="-62.6" font-family="Times,serif" font-size="14.00">FilesStorageClientModule</text>
</g>
<!-- FilesStorageClientModule&#45;&gt;ServerTestModule -->
<g id="edge5" class="edge">
<title>FilesStorageClientModule&#45;&gt;ServerTestModule</title>
<path fill="none" stroke="black" d="M3091,-84.83C3091,-105.57 3091,-136.8 3091,-136.8 3091,-136.8 1915.1,-136.8 1915.1,-136.8"/>
<polygon fill="black" stroke="black" points="1915.1,-133.3 1905.1,-136.8 1915.1,-140.3 1915.1,-133.3"/>
</g>
<!-- ImportUserModule -->
<g id="node6" class="node">
<title>ImportUserModule</title>
<polygon fill="#8dd3c7" stroke="black" points="2991.09,-84.8 2988.09,-88.8 2967.09,-88.8 2964.09,-84.8 2866.91,-84.8 2866.91,-48.8 2991.09,-48.8 2991.09,-84.8"/>
<text text-anchor="middle" x="2929" y="-62.6" font-family="Times,serif" font-size="14.00">ImportUserModule</text>
</g>
<!-- ImportUserModule&#45;&gt;ServerTestModule -->
<g id="edge6" class="edge">
<title>ImportUserModule&#45;&gt;ServerTestModule</title>
<path fill="none" stroke="black" d="M2929,-85.11C2929,-104.95 2929,-133.8 2929,-133.8 2929,-133.8 1915.21,-133.8 1915.21,-133.8"/>
<polygon fill="black" stroke="black" points="1915.21,-130.3 1905.21,-133.8 1915.21,-137.3 1915.21,-130.3"/>
</g>
<!-- LearnroomModule -->
<g id="node7" class="node">
<title>LearnroomModule</title>
<polygon fill="#8dd3c7" stroke="black" points="2848.75,-84.8 2845.75,-88.8 2824.75,-88.8 2821.75,-84.8 2727.25,-84.8 2727.25,-48.8 2848.75,-48.8 2848.75,-84.8"/>
<text text-anchor="middle" x="2788" y="-62.6" font-family="Times,serif" font-size="14.00">LearnroomModule</text>
</g>
<!-- LearnroomModule&#45;&gt;ServerTestModule -->
<g id="edge7" class="edge">
<title>LearnroomModule&#45;&gt;ServerTestModule</title>
<path fill="none" stroke="black" d="M2788,-84.97C2788,-103.89 2788,-130.8 2788,-130.8 2788,-130.8 1915.42,-130.8 1915.42,-130.8"/>
<polygon fill="black" stroke="black" points="1915.42,-127.3 1905.42,-130.8 1915.42,-134.3 1915.42,-127.3"/>
</g>
<!-- LessonApiModule -->
<g id="node8" class="node">
<title>LessonApiModule</title>
<polygon fill="#8dd3c7" stroke="black" points="2709.21,-84.8 2706.21,-88.8 2685.21,-88.8 2682.21,-84.8 2588.79,-84.8 2588.79,-48.8 2709.21,-48.8 2709.21,-84.8"/>
<text text-anchor="middle" x="2649" y="-62.6" font-family="Times,serif" font-size="14.00">LessonApiModule</text>
</g>
<!-- LessonApiModule&#45;&gt;ServerTestModule -->
<g id="edge8" class="edge">
<title>LessonApiModule&#45;&gt;ServerTestModule</title>
<path fill="none" stroke="black" d="M2649,-85.1C2649,-103.07 2649,-127.8 2649,-127.8 2649,-127.8 1915.1,-127.8 1915.1,-127.8"/>
<polygon fill="black" stroke="black" points="1915.1,-124.3 1905.1,-127.8 1915.1,-131.3 1915.1,-124.3"/>
</g>
<!-- LoggerModule -->
<g id="node9" class="node">
<title>LoggerModule</title>
<polygon fill="#8dd3c7" stroke="black" points="2570.98,-84.8 2567.98,-88.8 2546.98,-88.8 2543.98,-84.8 2471.02,-84.8 2471.02,-48.8 2570.98,-48.8 2570.98,-84.8"/>
<text text-anchor="middle" x="2521" y="-62.6" font-family="Times,serif" font-size="14.00">LoggerModule</text>
</g>
<!-- LoggerModule&#45;&gt;ServerTestModule -->
<g id="edge9" class="edge">
<title>LoggerModule&#45;&gt;ServerTestModule</title>
<path fill="none" stroke="black" d="M2521,-84.82C2521,-102.17 2521,-125.8 2521,-125.8 2521,-125.8 1915.29,-125.8 1915.29,-125.8"/>
<polygon fill="black" stroke="black" points="1915.29,-122.3 1905.29,-125.8 1915.29,-129.3 1915.29,-122.3"/>
</g>
<!-- MongoMemoryDatabaseModule -->
<g id="node10" class="node">
<title>MongoMemoryDatabaseModule</title>
<polygon fill="#8dd3c7" stroke="black" points="2452.52,-84.8 2449.52,-88.8 2428.52,-88.8 2425.52,-84.8 2253.48,-84.8 2253.48,-48.8 2452.52,-48.8 2452.52,-84.8"/>
<text text-anchor="middle" x="2353" y="-62.6" font-family="Times,serif" font-size="14.00">MongoMemoryDatabaseModule</text>
</g>
<!-- MongoMemoryDatabaseModule&#45;&gt;ServerTestModule -->
<g id="edge10" class="edge">
<title>MongoMemoryDatabaseModule&#45;&gt;ServerTestModule</title>
<path fill="none" stroke="black" d="M2353,-84.83C2353,-101.2 2353,-122.8 2353,-122.8 2353,-122.8 1915.27,-122.8 1915.27,-122.8"/>
<polygon fill="black" stroke="black" points="1915.27,-119.3 1905.27,-122.8 1915.27,-126.3 1915.27,-119.3"/>
</g>
<!-- NewsModule -->
<g id="node11" class="node">
<title>NewsModule</title>
<polygon fill="#8dd3c7" stroke="black" points="2235.94,-84.8 2232.94,-88.8 2211.94,-88.8 2208.94,-84.8 2144.06,-84.8 2144.06,-48.8 2235.94,-48.8 2235.94,-84.8"/>
<text text-anchor="middle" x="2190" y="-62.6" font-family="Times,serif" font-size="14.00">NewsModule</text>
</g>
<!-- NewsModule&#45;&gt;ServerTestModule -->
<g id="edge11" class="edge">
<title>NewsModule&#45;&gt;ServerTestModule</title>
<path fill="none" stroke="black" d="M2190,-85.04C2190,-100.37 2190,-119.8 2190,-119.8 2190,-119.8 1915.49,-119.8 1915.49,-119.8"/>
<polygon fill="black" stroke="black" points="1915.49,-116.3 1905.49,-119.8 1915.49,-123.3 1915.49,-116.3"/>
</g>
<!-- OauthApiModule -->
<g id="node12" class="node">
<title>OauthApiModule</title>
<polygon fill="#8dd3c7" stroke="black" points="2126.27,-84.8 2123.27,-88.8 2102.27,-88.8 2099.27,-84.8 2011.73,-84.8 2011.73,-48.8 2126.27,-48.8 2126.27,-84.8"/>
<text text-anchor="middle" x="2069" y="-62.6" font-family="Times,serif" font-size="14.00">OauthApiModule</text>
</g>
<!-- OauthApiModule&#45;&gt;ServerTestModule -->
<g id="edge12" class="edge">
<title>OauthApiModule&#45;&gt;ServerTestModule</title>
<path fill="none" stroke="black" d="M2069,-84.85C2069,-99.17 2069,-116.8 2069,-116.8 2069,-116.8 1915.32,-116.8 1915.32,-116.8"/>
<polygon fill="black" stroke="black" points="1915.32,-113.3 1905.32,-116.8 1915.32,-120.3 1915.32,-113.3"/>
</g>
<!-- OauthProviderModule -->
<g id="node13" class="node">
<title>OauthProviderModule</title>
<polygon fill="#8dd3c7" stroke="black" points="1993.98,-84.8 1990.98,-88.8 1969.98,-88.8 1966.98,-84.8 1852.02,-84.8 1852.02,-48.8 1993.98,-48.8 1993.98,-84.8"/>
<text text-anchor="middle" x="1923" y="-62.6" font-family="Times,serif" font-size="14.00">OauthProviderModule</text>
</g>
<!-- OauthProviderModule&#45;&gt;ServerTestModule -->
<g id="edge13" class="edge">
<title>OauthProviderModule&#45;&gt;ServerTestModule</title>
<path fill="none" stroke="black" d="M1878.55,-84.91C1878.55,-84.91 1878.55,-103.79 1878.55,-103.79"/>
<polygon fill="black" stroke="black" points="1875.05,-103.79 1878.55,-113.79 1882.05,-103.79 1875.05,-103.79"/>
</g>
<!-- ProvisioningModule -->
<g id="node14" class="node">
<title>ProvisioningModule</title>
<polygon fill="#8dd3c7" stroke="black" points="1833.62,-84.8 1830.62,-88.8 1809.62,-88.8 1806.62,-84.8 1702.38,-84.8 1702.38,-48.8 1833.62,-48.8 1833.62,-84.8"/>
<text text-anchor="middle" x="1768" y="-62.6" font-family="Times,serif" font-size="14.00">ProvisioningModule</text>
</g>
<!-- ProvisioningModule&#45;&gt;ServerTestModule -->
<g id="edge14" class="edge">
<title>ProvisioningModule&#45;&gt;ServerTestModule</title>
<path fill="none" stroke="black" d="M1809.23,-84.91C1809.23,-84.91 1809.23,-103.79 1809.23,-103.79"/>
<polygon fill="black" stroke="black" points="1805.73,-103.79 1809.23,-113.79 1812.73,-103.79 1805.73,-103.79"/>
</g>
<!-- RabbitMQWrapperTestModule -->
<g id="node15" class="node">
<title>RabbitMQWrapperTestModule</title>
<polygon fill="#8dd3c7" stroke="black" points="1684.01,-84.8 1681.01,-88.8 1660.01,-88.8 1657.01,-84.8 1491.99,-84.8 1491.99,-48.8 1684.01,-48.8 1684.01,-84.8"/>
<text text-anchor="middle" x="1588" y="-62.6" font-family="Times,serif" font-size="14.00">RabbitMQWrapperTestModule</text>
</g>
<!-- RabbitMQWrapperTestModule&#45;&gt;ServerTestModule -->
<g id="edge15" class="edge">
<title>RabbitMQWrapperTestModule&#45;&gt;ServerTestModule</title>
<path fill="none" stroke="black" d="M1588,-84.85C1588,-99.17 1588,-116.8 1588,-116.8 1588,-116.8 1774.74,-116.8 1774.74,-116.8"/>
<polygon fill="black" stroke="black" points="1774.74,-120.3 1784.74,-116.8 1774.74,-113.3 1774.74,-120.3"/>
</g>
<!-- RedisModule -->
<g id="node16" class="node">
<title>RedisModule</title>
<polygon fill="#8dd3c7" stroke="black" points="1473.94,-84.8 1470.94,-88.8 1449.94,-88.8 1446.94,-84.8 1382.06,-84.8 1382.06,-48.8 1473.94,-48.8 1473.94,-84.8"/>
<text text-anchor="middle" x="1428" y="-62.6" font-family="Times,serif" font-size="14.00">RedisModule</text>
</g>
<!-- RedisModule&#45;&gt;ServerTestModule -->
<g id="edge16" class="edge">
<title>RedisModule&#45;&gt;ServerTestModule</title>
<path fill="none" stroke="black" d="M1428,-85.04C1428,-100.37 1428,-119.8 1428,-119.8 1428,-119.8 1774.81,-119.8 1774.81,-119.8"/>
<polygon fill="black" stroke="black" points="1774.81,-123.3 1784.81,-119.8 1774.81,-116.3 1774.81,-123.3"/>
</g>
<!-- RoleModule -->
<g id="node17" class="node">
<title>RoleModule</title>
<polygon fill="#8dd3c7" stroke="black" points="1363.99,-84.8 1360.99,-88.8 1339.99,-88.8 1336.99,-84.8 1278.01,-84.8 1278.01,-48.8 1363.99,-48.8 1363.99,-84.8"/>
<text text-anchor="middle" x="1321" y="-62.6" font-family="Times,serif" font-size="14.00">RoleModule</text>
</g>
<!-- RoleModule&#45;&gt;ServerTestModule -->
<g id="edge17" class="edge">
<title>RoleModule&#45;&gt;ServerTestModule</title>
<path fill="none" stroke="black" d="M1321,-84.83C1321,-101.2 1321,-122.8 1321,-122.8 1321,-122.8 1774.89,-122.8 1774.89,-122.8"/>
<polygon fill="black" stroke="black" points="1774.89,-126.3 1784.89,-122.8 1774.89,-119.3 1774.89,-126.3"/>
</g>
<!-- SchoolApiModule -->
<g id="node18" class="node">
<title>SchoolApiModule</title>
<polygon fill="#8dd3c7" stroke="black" points="1259.94,-84.8 1256.94,-88.8 1235.94,-88.8 1232.94,-84.8 1140.06,-84.8 1140.06,-48.8 1259.94,-48.8 1259.94,-84.8"/>
<text text-anchor="middle" x="1200" y="-62.6" font-family="Times,serif" font-size="14.00">SchoolApiModule</text>
</g>
<!-- SchoolApiModule&#45;&gt;ServerTestModule -->
<g id="edge18" class="edge">
<title>SchoolApiModule&#45;&gt;ServerTestModule</title>
<path fill="none" stroke="black" d="M1200,-84.82C1200,-102.17 1200,-125.8 1200,-125.8 1200,-125.8 1774.9,-125.8 1774.9,-125.8"/>
<polygon fill="black" stroke="black" points="1774.9,-129.3 1784.9,-125.8 1774.9,-122.3 1774.9,-129.3"/>
</g>
<!-- SharingApiModule -->
<g id="node19" class="node">
<title>SharingApiModule</title>
<polygon fill="#8dd3c7" stroke="black" points="1122.1,-84.8 1119.1,-88.8 1098.1,-88.8 1095.1,-84.8 997.9,-84.8 997.9,-48.8 1122.1,-48.8 1122.1,-84.8"/>
<text text-anchor="middle" x="1060" y="-62.6" font-family="Times,serif" font-size="14.00">SharingApiModule</text>
</g>
<!-- SharingApiModule&#45;&gt;ServerTestModule -->
<g id="edge19" class="edge">
<title>SharingApiModule&#45;&gt;ServerTestModule</title>
<path fill="none" stroke="black" d="M1060,-85.1C1060,-103.07 1060,-127.8 1060,-127.8 1060,-127.8 1774.71,-127.8 1774.71,-127.8"/>
<polygon fill="black" stroke="black" points="1774.71,-131.3 1784.71,-127.8 1774.71,-124.3 1774.71,-131.3"/>
</g>
<!-- SystemModule -->
<g id="node20" class="node">
<title>SystemModule</title>
<polygon fill="#8dd3c7" stroke="black" points="980.28,-84.8 977.28,-88.8 956.28,-88.8 953.28,-84.8 879.72,-84.8 879.72,-48.8 980.28,-48.8 980.28,-84.8"/>
<text text-anchor="middle" x="930" y="-62.6" font-family="Times,serif" font-size="14.00">SystemModule</text>
</g>
<!-- SystemModule&#45;&gt;ServerTestModule -->
<g id="edge20" class="edge">
<title>SystemModule&#45;&gt;ServerTestModule</title>
<path fill="none" stroke="black" d="M930,-84.97C930,-103.89 930,-130.8 930,-130.8 930,-130.8 1774.61,-130.8 1774.61,-130.8"/>
<polygon fill="black" stroke="black" points="1774.61,-134.3 1784.61,-130.8 1774.61,-127.3 1774.61,-134.3"/>
</g>
<!-- TaskCardModule -->
<g id="node21" class="node">
<title>TaskCardModule</title>
<polygon fill="#8dd3c7" stroke="black" points="861.98,-84.8 858.98,-88.8 837.98,-88.8 834.98,-84.8 748.02,-84.8 748.02,-48.8 861.98,-48.8 861.98,-84.8"/>
<text text-anchor="middle" x="805" y="-62.6" font-family="Times,serif" font-size="14.00">TaskCardModule</text>
</g>
<!-- TaskCardModule&#45;&gt;ServerTestModule -->
<g id="edge21" class="edge">
<title>TaskCardModule&#45;&gt;ServerTestModule</title>
<path fill="none" stroke="black" d="M805,-85.11C805,-104.95 805,-133.8 805,-133.8 805,-133.8 1774.59,-133.8 1774.59,-133.8"/>
<polygon fill="black" stroke="black" points="1774.59,-137.3 1784.59,-133.8 1774.59,-130.3 1774.59,-137.3"/>
</g>
<!-- TaskModule -->
<g id="node22" class="node">
<title>TaskModule</title>
<polygon fill="#8dd3c7" stroke="black" points="730.27,-84.8 727.27,-88.8 706.27,-88.8 703.27,-84.8 643.73,-84.8 643.73,-48.8 730.27,-48.8 730.27,-84.8"/>
<text text-anchor="middle" x="687" y="-62.6" font-family="Times,serif" font-size="14.00">TaskModule</text>
</g>
<!-- TaskModule&#45;&gt;ServerTestModule -->
<g id="edge22" class="edge">
<title>TaskModule&#45;&gt;ServerTestModule</title>
<path fill="none" stroke="black" d="M687,-84.83C687,-105.57 687,-136.8 687,-136.8 687,-136.8 1774.78,-136.8 1774.78,-136.8"/>
<polygon fill="black" stroke="black" points="1774.78,-140.3 1784.78,-136.8 1774.78,-133.3 1774.78,-140.3"/>
</g>
<!-- ToolApiModule -->
<g id="node23" class="node">
<title>ToolApiModule</title>
<polygon fill="#8dd3c7" stroke="black" points="625.49,-84.8 622.49,-88.8 601.49,-88.8 598.49,-84.8 518.51,-84.8 518.51,-48.8 625.49,-48.8 625.49,-84.8"/>
<text text-anchor="middle" x="572" y="-62.6" font-family="Times,serif" font-size="14.00">ToolApiModule</text>
</g>
<!-- ToolApiModule&#45;&gt;ServerTestModule -->
<g id="edge23" class="edge">
<title>ToolApiModule&#45;&gt;ServerTestModule</title>
<path fill="none" stroke="black" d="M572,-84.97C572,-106.3 572,-138.8 572,-138.8 572,-138.8 1774.88,-138.8 1774.88,-138.8"/>
<polygon fill="black" stroke="black" points="1774.88,-142.3 1784.88,-138.8 1774.88,-135.3 1774.88,-142.3"/>
</g>
<!-- UserLoginMigrationApiModule -->
<g id="node24" class="node">
<title>UserLoginMigrationApiModule</title>
<polygon fill="#8dd3c7" stroke="black" points="500.42,-84.8 497.42,-88.8 476.42,-88.8 473.42,-84.8 303.58,-84.8 303.58,-48.8 500.42,-48.8 500.42,-84.8"/>
<text text-anchor="middle" x="402" y="-62.6" font-family="Times,serif" font-size="14.00">UserLoginMigrationApiModule</text>
</g>
<!-- UserLoginMigrationApiModule&#45;&gt;ServerTestModule -->
<g id="edge24" class="edge">
<title>UserLoginMigrationApiModule&#45;&gt;ServerTestModule</title>
<path fill="none" stroke="black" d="M402,-84.96C402,-107.15 402,-141.8 402,-141.8 402,-141.8 1774.83,-141.8 1774.83,-141.8"/>
<polygon fill="black" stroke="black" points="1774.83,-145.3 1784.83,-141.8 1774.83,-138.3 1774.83,-145.3"/>
</g>
<!-- UserModule -->
<g id="node25" class="node">
<title>UserModule</title>
<polygon fill="#8dd3c7" stroke="black" points="285.99,-84.8 282.99,-88.8 261.99,-88.8 258.99,-84.8 200.01,-84.8 200.01,-48.8 285.99,-48.8 285.99,-84.8"/>
<text text-anchor="middle" x="243" y="-62.6" font-family="Times,serif" font-size="14.00">UserModule</text>
</g>
<!-- UserModule&#45;&gt;ServerTestModule -->
<g id="edge25" class="edge">
<title>UserModule&#45;&gt;ServerTestModule</title>
<path fill="none" stroke="black" d="M243,-84.89C243,-107.93 243,-144.8 243,-144.8 243,-144.8 1774.64,-144.8 1774.64,-144.8"/>
<polygon fill="black" stroke="black" points="1774.64,-148.3 1784.64,-144.8 1774.64,-141.3 1774.64,-148.3"/>
</g>
<!-- VideoConferenceModule -->
<g id="node26" class="node">
<title>VideoConferenceModule</title>
<polygon fill="#8dd3c7" stroke="black" points="182.28,-84.8 179.28,-88.8 158.28,-88.8 155.28,-84.8 23.72,-84.8 23.72,-48.8 182.28,-48.8 182.28,-84.8"/>
<text text-anchor="middle" x="103" y="-62.6" font-family="Times,serif" font-size="14.00">VideoConferenceModule</text>
</g>
<!-- VideoConferenceModule&#45;&gt;ServerTestModule -->
<g id="edge26" class="edge">
<title>VideoConferenceModule&#45;&gt;ServerTestModule</title>
<path fill="none" stroke="black" d="M103,-85.18C103,-109.08 103,-147.8 103,-147.8 103,-147.8 1774.78,-147.8 1774.78,-147.8"/>
<polygon fill="black" stroke="black" points="1774.78,-151.3 1784.78,-147.8 1774.78,-144.3 1774.78,-151.3"/>
</g>
</g>
</svg>
