<?xml version="1.0" encoding="UTF-8" standalone="no"?>
<!DOCTYPE svg PUBLIC "-//W3C//DTD SVG 1.1//EN"
 "http://www.w3.org/Graphics/SVG/1.1/DTD/svg11.dtd">
<!-- Generated by graphviz version 2.47.3 (20210619.1520)
 -->
<!-- Title: dependencies Pages: 1 -->
<svg width="1170pt" height="174pt"
 viewBox="0.00 0.00 1170.00 173.80" xmlns="http://www.w3.org/2000/svg" xmlns:xlink="http://www.w3.org/1999/xlink">
<g id="graph0" class="graph" transform="scale(1 1) rotate(0) translate(4 169.8)">
<title>dependencies</title>
<polygon fill="white" stroke="transparent" points="-4,4 -4,-169.8 1166,-169.8 1166,4 -4,4"/>
<text text-anchor="middle" x="581" y="-8.2" font-family="sans-serif" font-size="14.00">dependencies</text>
<g id="clust1" class="cluster">
<title>cluster_ServerTestModule</title>
<polygon fill="none" stroke="black" stroke-dasharray="1,5" points="8,-32.8 8,-157.8 1154,-157.8 1154,-32.8 8,-32.8"/>
</g>
<g id="clust3" class="cluster">
<title>cluster_ServerTestModule_imports</title>
<polygon fill="none" stroke="black" points="16,-40.8 16,-92.8 1146,-92.8 1146,-40.8 16,-40.8"/>
</g>
<!-- AuthModule -->
<g id="node1" class="node">
<title>AuthModule</title>
<polygon fill="#8dd3c7" stroke="black" points="1137.55,-84.8 1134.55,-88.8 1113.55,-88.8 1110.55,-84.8 1050.45,-84.8 1050.45,-48.8 1137.55,-48.8 1137.55,-84.8"/>
<text text-anchor="middle" x="1094" y="-62.6" font-family="Times,serif" font-size="14.00">AuthModule</text>
</g>
<!-- ServerTestModule -->
<g id="node10" class="node">
<title>ServerTestModule</title>
<polygon fill="#8dd3c7" stroke="black" points="680.19,-149.8 677.19,-153.8 656.19,-153.8 653.19,-149.8 559.81,-149.8 559.81,-113.8 680.19,-113.8 680.19,-149.8"/>
<text text-anchor="middle" x="620" y="-127.6" font-family="Times,serif" font-size="14.00">ServerTestModule</text>
</g>
<!-- AuthModule&#45;&gt;ServerTestModule -->
<g id="edge1" class="edge">
<title>AuthModule&#45;&gt;ServerTestModule</title>
<path fill="none" stroke="black" d="M1094,-84.81C1094,-107.29 1094,-142.8 1094,-142.8 1094,-142.8 690.51,-142.8 690.51,-142.8"/>
<polygon fill="black" stroke="black" points="690.51,-139.3 680.51,-142.8 690.51,-146.3 690.51,-139.3"/>
</g>
<!-- CoreModule -->
<g id="node2" class="node">
<title>CoreModule</title>
<polygon fill="#8dd3c7" stroke="black" points="1032.26,-84.8 1029.26,-88.8 1008.26,-88.8 1005.26,-84.8 945.74,-84.8 945.74,-48.8 1032.26,-48.8 1032.26,-84.8"/>
<text text-anchor="middle" x="989" y="-62.6" font-family="Times,serif" font-size="14.00">CoreModule</text>
</g>
<!-- CoreModule&#45;&gt;ServerTestModule -->
<g id="edge2" class="edge">
<title>CoreModule&#45;&gt;ServerTestModule</title>
<path fill="none" stroke="black" d="M989,-84.93C989,-105.37 989,-135.8 989,-135.8 989,-135.8 690.11,-135.8 690.11,-135.8"/>
<polygon fill="black" stroke="black" points="690.11,-132.3 680.11,-135.8 690.11,-139.3 690.11,-132.3"/>
</g>
<!-- FilesModule -->
<g id="node3" class="node">
<title>FilesModule</title>
<polygon fill="#8dd3c7" stroke="black" points="927.27,-84.8 924.27,-88.8 903.27,-88.8 900.27,-84.8 840.73,-84.8 840.73,-48.8 927.27,-48.8 927.27,-84.8"/>
<text text-anchor="middle" x="884" y="-62.6" font-family="Times,serif" font-size="14.00">FilesModule</text>
</g>
<!-- FilesModule&#45;&gt;ServerTestModule -->
<g id="edge3" class="edge">
<title>FilesModule&#45;&gt;ServerTestModule</title>
<path fill="none" stroke="black" d="M884,-85.07C884,-103.36 884,-128.8 884,-128.8 884,-128.8 690.24,-128.8 690.24,-128.8"/>
<polygon fill="black" stroke="black" points="690.24,-125.3 680.24,-128.8 690.24,-132.3 690.24,-125.3"/>
</g>
<!-- ImportUserModule -->
<g id="node4" class="node">
<title>ImportUserModule</title>
<polygon fill="#8dd3c7" stroke="black" points="823.08,-84.8 820.08,-88.8 799.08,-88.8 796.08,-84.8 698.92,-84.8 698.92,-48.8 823.08,-48.8 823.08,-84.8"/>
<text text-anchor="middle" x="761" y="-62.6" font-family="Times,serif" font-size="14.00">ImportUserModule</text>
</g>
<!-- ImportUserModule&#45;&gt;ServerTestModule -->
<g id="edge4" class="edge">
<title>ImportUserModule&#45;&gt;ServerTestModule</title>
<path fill="none" stroke="black" d="M761,-84.81C761,-100.85 761,-121.8 761,-121.8 761,-121.8 690.21,-121.8 690.21,-121.8"/>
<polygon fill="black" stroke="black" points="690.21,-118.3 680.21,-121.8 690.21,-125.3 690.21,-118.3"/>
</g>
<!-- LearnroomModule -->
<g id="node5" class="node">
<title>LearnroomModule</title>
<polygon fill="#8dd3c7" stroke="black" points="680.74,-84.8 677.74,-88.8 656.74,-88.8 653.74,-84.8 559.26,-84.8 559.26,-48.8 680.74,-48.8 680.74,-84.8"/>
<text text-anchor="middle" x="620" y="-62.6" font-family="Times,serif" font-size="14.00">LearnroomModule</text>
</g>
<!-- LearnroomModule&#45;&gt;ServerTestModule -->
<g id="edge5" class="edge">
<title>LearnroomModule&#45;&gt;ServerTestModule</title>
<path fill="none" stroke="black" d="M620,-84.91C620,-84.91 620,-103.79 620,-103.79"/>
<polygon fill="black" stroke="black" points="616.5,-103.79 620,-113.79 623.5,-103.79 616.5,-103.79"/>
</g>
<!-- MongoMemoryDatabaseModule -->
<g id="node6" class="node">
<title>MongoMemoryDatabaseModule</title>
<polygon fill="#8dd3c7" stroke="black" points="540.51,-84.8 537.51,-88.8 516.51,-88.8 513.51,-84.8 341.49,-84.8 341.49,-48.8 540.51,-48.8 540.51,-84.8"/>
<text text-anchor="middle" x="441" y="-62.6" font-family="Times,serif" font-size="14.00">MongoMemoryDatabaseModule</text>
</g>
<!-- MongoMemoryDatabaseModule&#45;&gt;ServerTestModule -->
<g id="edge6" class="edge">
<title>MongoMemoryDatabaseModule&#45;&gt;ServerTestModule</title>
<path fill="none" stroke="black" d="M441,-84.81C441,-100.85 441,-121.8 441,-121.8 441,-121.8 549.9,-121.8 549.9,-121.8"/>
<polygon fill="black" stroke="black" points="549.9,-125.3 559.9,-121.8 549.9,-118.3 549.9,-125.3"/>
</g>
<!-- NewsModule -->
<g id="node7" class="node">
<title>NewsModule</title>
<polygon fill="#8dd3c7" stroke="black" points="323.92,-84.8 320.92,-88.8 299.92,-88.8 296.92,-84.8 232.08,-84.8 232.08,-48.8 323.92,-48.8 323.92,-84.8"/>
<text text-anchor="middle" x="278" y="-62.6" font-family="Times,serif" font-size="14.00">NewsModule</text>
</g>
<!-- NewsModule&#45;&gt;ServerTestModule -->
<g id="edge7" class="edge">
<title>NewsModule&#45;&gt;ServerTestModule</title>
<path fill="none" stroke="black" d="M278,-85.07C278,-103.36 278,-128.8 278,-128.8 278,-128.8 549.64,-128.8 549.64,-128.8"/>
<polygon fill="black" stroke="black" points="549.64,-132.3 559.64,-128.8 549.64,-125.3 549.64,-132.3"/>
</g>
<!-- TaskModule -->
<g id="node8" class="node">
<title>TaskModule</title>
<polygon fill="#8dd3c7" stroke="black" points="214.26,-84.8 211.26,-88.8 190.26,-88.8 187.26,-84.8 127.74,-84.8 127.74,-48.8 214.26,-48.8 214.26,-84.8"/>
<text text-anchor="middle" x="171" y="-62.6" font-family="Times,serif" font-size="14.00">TaskModule</text>
</g>
<!-- TaskModule&#45;&gt;ServerTestModule -->
<g id="edge8" class="edge">
<title>TaskModule&#45;&gt;ServerTestModule</title>
<path fill="none" stroke="black" d="M171,-84.93C171,-105.37 171,-135.8 171,-135.8 171,-135.8 549.45,-135.8 549.45,-135.8"/>
<polygon fill="black" stroke="black" points="549.45,-139.3 559.45,-135.8 549.45,-132.3 549.45,-139.3"/>
</g>
<!-- UserModule -->
<g id="node9" class="node">
<title>UserModule</title>
<polygon fill="#8dd3c7" stroke="black" points="109.98,-84.8 106.98,-88.8 85.98,-88.8 82.98,-84.8 24.02,-84.8 24.02,-48.8 109.98,-48.8 109.98,-84.8"/>
<text text-anchor="middle" x="67" y="-62.6" font-family="Times,serif" font-size="14.00">UserModule</text>
</g>
<!-- UserModule&#45;&gt;ServerTestModule -->
<g id="edge9" class="edge">
<title>UserModule&#45;&gt;ServerTestModule</title>
<path fill="none" stroke="black" d="M67,-84.81C67,-107.29 67,-142.8 67,-142.8 67,-142.8 549.77,-142.8 549.77,-142.8"/>
<polygon fill="black" stroke="black" points="549.77,-146.3 559.77,-142.8 549.77,-139.3 549.77,-146.3"/>
</g>
</g>
</svg>
