<?xml version="1.0" encoding="UTF-8" standalone="no"?>
<!DOCTYPE svg PUBLIC "-//W3C//DTD SVG 1.1//EN"
 "http://www.w3.org/Graphics/SVG/1.1/DTD/svg11.dtd">
<!-- Generated by graphviz version 5.0.0 (20220707.1540)
 -->
<!-- Title: dependencies Pages: 1 -->
<svg width="4099pt" height="174pt"
 viewBox="0.00 0.00 4099.00 173.80" xmlns="http://www.w3.org/2000/svg" xmlns:xlink="http://www.w3.org/1999/xlink">
<g id="graph0" class="graph" transform="scale(1 1) rotate(0) translate(4 169.8)">
<title>dependencies</title>
<polygon fill="white" stroke="transparent" points="-4,4 -4,-169.8 4095,-169.8 4095,4 -4,4"/>
<text text-anchor="middle" x="2045.5" y="-8.2" font-family="sans-serif" font-size="14.00">dependencies</text>
<g id="clust1" class="cluster">
<title>cluster_ServerTestModule</title>
<polygon fill="none" stroke="black" stroke-dasharray="1,5" points="8,-32.8 8,-157.8 4083,-157.8 4083,-32.8 8,-32.8"/>
</g>
<g id="clust3" class="cluster">
<title>cluster_ServerTestModule_imports</title>
<polygon fill="none" stroke="black" points="16,-40.8 16,-92.8 4075,-92.8 4075,-40.8 16,-40.8"/>
</g>
<!-- AccountApiModule -->
<g id="node1" class="node">
<title>AccountApiModule</title>
<polygon fill="#8dd3c7" stroke="black" points="4066.98,-84.8 4063.98,-88.8 4042.98,-88.8 4039.98,-84.8 3939.02,-84.8 3939.02,-48.8 4066.98,-48.8 4066.98,-84.8"/>
<text text-anchor="middle" x="4003" y="-62.6" font-family="Times,serif" font-size="14.00">AccountApiModule</text>
</g>
<!-- ServerTestModule -->
<g id="node29" class="node">
<title>ServerTestModule</title>
<polygon fill="#8dd3c7" stroke="black" points="2077.19,-149.8 2074.19,-153.8 2053.19,-153.8 2050.19,-149.8 1956.81,-149.8 1956.81,-113.8 2077.19,-113.8 2077.19,-149.8"/>
<text text-anchor="middle" x="2017" y="-127.6" font-family="Times,serif" font-size="14.00">ServerTestModule</text>
</g>
<!-- AccountApiModule&#45;&gt;ServerTestModule -->
<g id="edge1" class="edge">
<title>AccountApiModule&#45;&gt;ServerTestModule</title>
<path fill="none" stroke="black" d="M4003,-85.18C4003,-109.08 4003,-147.8 4003,-147.8 4003,-147.8 2087.25,-147.8 2087.25,-147.8"/>
<polygon fill="black" stroke="black" points="2087.25,-144.3 2077.25,-147.8 2087.25,-151.3 2087.25,-144.3"/>
</g>
<!-- AuthenticationApiModule -->
<g id="node2" class="node">
<title>AuthenticationApiModule</title>
<polygon fill="#8dd3c7" stroke="black" points="3920.75,-84.8 3917.75,-88.8 3896.75,-88.8 3893.75,-84.8 3757.25,-84.8 3757.25,-48.8 3920.75,-48.8 3920.75,-84.8"/>
<text text-anchor="middle" x="3839" y="-62.6" font-family="Times,serif" font-size="14.00">AuthenticationApiModule</text>
</g>
<!-- AuthenticationApiModule&#45;&gt;ServerTestModule -->
<g id="edge2" class="edge">
<title>AuthenticationApiModule&#45;&gt;ServerTestModule</title>
<path fill="none" stroke="black" d="M3839,-84.89C3839,-107.93 3839,-144.8 3839,-144.8 3839,-144.8 2087.1,-144.8 2087.1,-144.8"/>
<polygon fill="black" stroke="black" points="2087.1,-141.3 2077.1,-144.8 2087.1,-148.3 2087.1,-141.3"/>
</g>
<!-- BoardApiModule -->
<g id="node3" class="node">
<title>BoardApiModule</title>
<polygon fill="#8dd3c7" stroke="black" points="3739.27,-84.8 3736.27,-88.8 3715.27,-88.8 3712.27,-84.8 3624.73,-84.8 3624.73,-48.8 3739.27,-48.8 3739.27,-84.8"/>
<text text-anchor="middle" x="3682" y="-62.6" font-family="Times,serif" font-size="14.00">BoardApiModule</text>
</g>
<!-- BoardApiModule&#45;&gt;ServerTestModule -->
<g id="edge3" class="edge">
<title>BoardApiModule&#45;&gt;ServerTestModule</title>
<path fill="none" stroke="black" d="M3682,-84.81C3682,-107.29 3682,-142.8 3682,-142.8 3682,-142.8 2087.24,-142.8 2087.24,-142.8"/>
<polygon fill="black" stroke="black" points="2087.24,-139.3 2077.24,-142.8 2087.24,-146.3 2087.24,-139.3"/>
</g>
<!-- BoardModule -->
<g id="node4" class="node">
<title>BoardModule</title>
<polygon fill="#8dd3c7" stroke="black" points="3606.77,-84.8 3603.77,-88.8 3582.77,-88.8 3579.77,-84.8 3513.23,-84.8 3513.23,-48.8 3606.77,-48.8 3606.77,-84.8"/>
<text text-anchor="middle" x="3560" y="-62.6" font-family="Times,serif" font-size="14.00">BoardModule</text>
</g>
<!-- BoardModule&#45;&gt;ServerTestModule -->
<g id="edge4" class="edge">
<title>BoardModule&#45;&gt;ServerTestModule</title>
<path fill="none" stroke="black" d="M3560,-84.84C3560,-106.46 3560,-139.8 3560,-139.8 3560,-139.8 2087.49,-139.8 2087.49,-139.8"/>
<polygon fill="black" stroke="black" points="2087.49,-136.3 2077.49,-139.8 2087.49,-143.3 2087.49,-136.3"/>
</g>
<!-- CollaborativeStorageModule -->
<g id="node5" class="node">
<title>CollaborativeStorageModule</title>
<polygon fill="#8dd3c7" stroke="black" points="3495.02,-84.8 3492.02,-88.8 3471.02,-88.8 3468.02,-84.8 3316.98,-84.8 3316.98,-48.8 3495.02,-48.8 3495.02,-84.8"/>
<text text-anchor="middle" x="3406" y="-62.6" font-family="Times,serif" font-size="14.00">CollaborativeStorageModule</text>
</g>
<!-- CollaborativeStorageModule&#45;&gt;ServerTestModule -->
<g id="edge5" class="edge">
<title>CollaborativeStorageModule&#45;&gt;ServerTestModule</title>
<path fill="none" stroke="black" d="M3406,-85.08C3406,-106.12 3406,-137.8 3406,-137.8 3406,-137.8 2087.13,-137.8 2087.13,-137.8"/>
<polygon fill="black" stroke="black" points="2087.13,-134.3 2077.13,-137.8 2087.13,-141.3 2087.13,-134.3"/>
</g>
<!-- CoreModule -->
<g id="node6" class="node">
<title>CoreModule</title>
<polygon fill="#8dd3c7" stroke="black" points="3298.27,-84.8 3295.27,-88.8 3274.27,-88.8 3271.27,-84.8 3211.73,-84.8 3211.73,-48.8 3298.27,-48.8 3298.27,-84.8"/>
<text text-anchor="middle" x="3255" y="-62.6" font-family="Times,serif" font-size="14.00">CoreModule</text>
</g>
<!-- CoreModule&#45;&gt;ServerTestModule -->
<g id="edge6" class="edge">
<title>CoreModule&#45;&gt;ServerTestModule</title>
<path fill="none" stroke="black" d="M3255,-85.02C3255,-105.17 3255,-134.8 3255,-134.8 3255,-134.8 2087.13,-134.8 2087.13,-134.8"/>
<polygon fill="black" stroke="black" points="2087.13,-131.3 2077.13,-134.8 2087.13,-138.3 2087.13,-131.3"/>
</g>
<!-- FilesStorageClientModule -->
<g id="node7" class="node">
<title>FilesStorageClientModule</title>
<polygon fill="#8dd3c7" stroke="black" points="3193.77,-84.8 3190.77,-88.8 3169.77,-88.8 3166.77,-84.8 3030.23,-84.8 3030.23,-48.8 3193.77,-48.8 3193.77,-84.8"/>
<text text-anchor="middle" x="3112" y="-62.6" font-family="Times,serif" font-size="14.00">FilesStorageClientModule</text>
</g>
<!-- FilesStorageClientModule&#45;&gt;ServerTestModule -->
<g id="edge7" class="edge">
<title>FilesStorageClientModule&#45;&gt;ServerTestModule</title>
<path fill="none" stroke="black" d="M3112,-84.91C3112,-104.14 3112,-131.8 3112,-131.8 3112,-131.8 2087.43,-131.8 2087.43,-131.8"/>
<polygon fill="black" stroke="black" points="2087.43,-128.3 2077.43,-131.8 2087.43,-135.3 2087.43,-128.3"/>
</g>
<!-- ImportUserModule -->
<g id="node8" class="node">
<title>ImportUserModule</title>
<polygon fill="#8dd3c7" stroke="black" points="3012.09,-84.8 3009.09,-88.8 2988.09,-88.8 2985.09,-84.8 2887.91,-84.8 2887.91,-48.8 3012.09,-48.8 3012.09,-84.8"/>
<text text-anchor="middle" x="2950" y="-62.6" font-family="Times,serif" font-size="14.00">ImportUserModule</text>
</g>
<!-- ImportUserModule&#45;&gt;ServerTestModule -->
<g id="edge8" class="edge">
<title>ImportUserModule&#45;&gt;ServerTestModule</title>
<path fill="none" stroke="black" d="M2950,-85.02C2950,-103.63 2950,-129.8 2950,-129.8 2950,-129.8 2087.14,-129.8 2087.14,-129.8"/>
<polygon fill="black" stroke="black" points="2087.14,-126.3 2077.14,-129.8 2087.14,-133.3 2087.14,-126.3"/>
</g>
<!-- LearnroomModule -->
<g id="node9" class="node">
<title>LearnroomModule</title>
<polygon fill="#8dd3c7" stroke="black" points="2869.75,-84.8 2866.75,-88.8 2845.75,-88.8 2842.75,-84.8 2748.25,-84.8 2748.25,-48.8 2869.75,-48.8 2869.75,-84.8"/>
<text text-anchor="middle" x="2809" y="-62.6" font-family="Times,serif" font-size="14.00">LearnroomModule</text>
</g>
<!-- LearnroomModule&#45;&gt;ServerTestModule -->
<g id="edge9" class="edge">
<title>LearnroomModule&#45;&gt;ServerTestModule</title>
<path fill="none" stroke="black" d="M2809,-84.8C2809,-102.48 2809,-126.8 2809,-126.8 2809,-126.8 2087.18,-126.8 2087.18,-126.8"/>
<polygon fill="black" stroke="black" points="2087.18,-123.3 2077.18,-126.8 2087.18,-130.3 2087.18,-123.3"/>
</g>
<!-- LessonApiModule -->
<g id="node10" class="node">
<title>LessonApiModule</title>
<polygon fill="#8dd3c7" stroke="black" points="2730.21,-84.8 2727.21,-88.8 2706.21,-88.8 2703.21,-84.8 2609.79,-84.8 2609.79,-48.8 2730.21,-48.8 2730.21,-84.8"/>
<text text-anchor="middle" x="2670" y="-62.6" font-family="Times,serif" font-size="14.00">LessonApiModule</text>
</g>
<!-- LessonApiModule&#45;&gt;ServerTestModule -->
<g id="edge10" class="edge">
<title>LessonApiModule&#45;&gt;ServerTestModule</title>
<path fill="none" stroke="black" d="M2670,-84.83C2670,-101.86 2670,-124.8 2670,-124.8 2670,-124.8 2087.26,-124.8 2087.26,-124.8"/>
<polygon fill="black" stroke="black" points="2087.26,-121.3 2077.26,-124.8 2087.26,-128.3 2087.26,-121.3"/>
</g>
<!-- LoggerModule -->
<g id="node11" class="node">
<title>LoggerModule</title>
<polygon fill="#8dd3c7" stroke="black" points="2591.98,-84.8 2588.98,-88.8 2567.98,-88.8 2564.98,-84.8 2492.02,-84.8 2492.02,-48.8 2591.98,-48.8 2591.98,-84.8"/>
<text text-anchor="middle" x="2542" y="-62.6" font-family="Times,serif" font-size="14.00">LoggerModule</text>
</g>
<!-- LoggerModule&#45;&gt;ServerTestModule -->
<g id="edge11" class="edge">
<title>LoggerModule&#45;&gt;ServerTestModule</title>
<path fill="none" stroke="black" d="M2542,-84.81C2542,-100.85 2542,-121.8 2542,-121.8 2542,-121.8 2087.22,-121.8 2087.22,-121.8"/>
<polygon fill="black" stroke="black" points="2087.22,-118.3 2077.22,-121.8 2087.22,-125.3 2087.22,-118.3"/>
</g>
<!-- MongoMemoryDatabaseModule -->
<g id="node12" class="node">
<title>MongoMemoryDatabaseModule</title>
<polygon fill="#8dd3c7" stroke="black" points="2473.52,-84.8 2470.52,-88.8 2449.52,-88.8 2446.52,-84.8 2274.48,-84.8 2274.48,-48.8 2473.52,-48.8 2473.52,-84.8"/>
<text text-anchor="middle" x="2374" y="-62.6" font-family="Times,serif" font-size="14.00">MongoMemoryDatabaseModule</text>
</g>
<!-- MongoMemoryDatabaseModule&#45;&gt;ServerTestModule -->
<g id="edge12" class="edge">
<title>MongoMemoryDatabaseModule&#45;&gt;ServerTestModule</title>
<path fill="none" stroke="black" d="M2374,-85.04C2374,-100.37 2374,-119.8 2374,-119.8 2374,-119.8 2087.16,-119.8 2087.16,-119.8"/>
<polygon fill="black" stroke="black" points="2087.16,-116.3 2077.16,-119.8 2087.16,-123.3 2087.16,-116.3"/>
</g>
<!-- NewsModule -->
<g id="node13" class="node">
<title>NewsModule</title>
<polygon fill="#8dd3c7" stroke="black" points="2256.94,-84.8 2253.94,-88.8 2232.94,-88.8 2229.94,-84.8 2165.06,-84.8 2165.06,-48.8 2256.94,-48.8 2256.94,-84.8"/>
<text text-anchor="middle" x="2211" y="-62.6" font-family="Times,serif" font-size="14.00">NewsModule</text>
</g>
<!-- NewsModule&#45;&gt;ServerTestModule -->
<g id="edge13" class="edge">
<title>NewsModule&#45;&gt;ServerTestModule</title>
<path fill="none" stroke="black" d="M2211,-84.85C2211,-99.17 2211,-116.8 2211,-116.8 2211,-116.8 2087.32,-116.8 2087.32,-116.8"/>
<polygon fill="black" stroke="black" points="2087.32,-113.3 2077.32,-116.8 2087.32,-120.3 2087.32,-113.3"/>
</g>
<!-- OauthApiModule -->
<g id="node14" class="node">
<title>OauthApiModule</title>
<polygon fill="#8dd3c7" stroke="black" points="2147.27,-84.8 2144.27,-88.8 2123.27,-88.8 2120.27,-84.8 2032.73,-84.8 2032.73,-48.8 2147.27,-48.8 2147.27,-84.8"/>
<text text-anchor="middle" x="2090" y="-62.6" font-family="Times,serif" font-size="14.00">OauthApiModule</text>
</g>
<!-- OauthApiModule&#45;&gt;ServerTestModule -->
<g id="edge14" class="edge">
<title>OauthApiModule&#45;&gt;ServerTestModule</title>
<path fill="none" stroke="black" d="M2054.86,-84.91C2054.86,-84.91 2054.86,-103.79 2054.86,-103.79"/>
<polygon fill="black" stroke="black" points="2051.36,-103.79 2054.86,-113.79 2058.36,-103.79 2051.36,-103.79"/>
</g>
<!-- OauthProviderModule -->
<g id="node15" class="node">
<title>OauthProviderModule</title>
<polygon fill="#8dd3c7" stroke="black" points="2014.98,-84.8 2011.98,-88.8 1990.98,-88.8 1987.98,-84.8 1873.02,-84.8 1873.02,-48.8 2014.98,-48.8 2014.98,-84.8"/>
<text text-anchor="middle" x="1944" y="-62.6" font-family="Times,serif" font-size="14.00">OauthProviderModule</text>
</g>
<!-- OauthProviderModule&#45;&gt;ServerTestModule -->
<g id="edge15" class="edge">
<title>OauthProviderModule&#45;&gt;ServerTestModule</title>
<path fill="none" stroke="black" d="M1985.95,-84.91C1985.95,-84.91 1985.95,-103.79 1985.95,-103.79"/>
<polygon fill="black" stroke="black" points="1982.45,-103.79 1985.95,-113.79 1989.45,-103.79 1982.45,-103.79"/>
</g>
<!-- ProvisioningModule -->
<g id="node16" class="node">
<title>ProvisioningModule</title>
<polygon fill="#8dd3c7" stroke="black" points="1854.62,-84.8 1851.62,-88.8 1830.62,-88.8 1827.62,-84.8 1723.38,-84.8 1723.38,-48.8 1854.62,-48.8 1854.62,-84.8"/>
<text text-anchor="middle" x="1789" y="-62.6" font-family="Times,serif" font-size="14.00">ProvisioningModule</text>
</g>
<!-- ProvisioningModule&#45;&gt;ServerTestModule -->
<g id="edge16" class="edge">
<title>ProvisioningModule&#45;&gt;ServerTestModule</title>
<path fill="none" stroke="black" d="M1789,-84.85C1789,-99.17 1789,-116.8 1789,-116.8 1789,-116.8 1946.8,-116.8 1946.8,-116.8"/>
<polygon fill="black" stroke="black" points="1946.8,-120.3 1956.8,-116.8 1946.8,-113.3 1946.8,-120.3"/>
</g>
<!-- RabbitMQWrapperTestModule -->
<g id="node17" class="node">
<title>RabbitMQWrapperTestModule</title>
<polygon fill="#8dd3c7" stroke="black" points="1705.01,-84.8 1702.01,-88.8 1681.01,-88.8 1678.01,-84.8 1512.99,-84.8 1512.99,-48.8 1705.01,-48.8 1705.01,-84.8"/>
<text text-anchor="middle" x="1609" y="-62.6" font-family="Times,serif" font-size="14.00">RabbitMQWrapperTestModule</text>
</g>
<!-- RabbitMQWrapperTestModule&#45;&gt;ServerTestModule -->
<g id="edge17" class="edge">
<title>RabbitMQWrapperTestModule&#45;&gt;ServerTestModule</title>
<path fill="none" stroke="black" d="M1609,-85.04C1609,-100.37 1609,-119.8 1609,-119.8 1609,-119.8 1946.8,-119.8 1946.8,-119.8"/>
<polygon fill="black" stroke="black" points="1946.8,-123.3 1956.8,-119.8 1946.8,-116.3 1946.8,-123.3"/>
</g>
<!-- RedisModule -->
<g id="node18" class="node">
<title>RedisModule</title>
<polygon fill="#8dd3c7" stroke="black" points="1494.94,-84.8 1491.94,-88.8 1470.94,-88.8 1467.94,-84.8 1403.06,-84.8 1403.06,-48.8 1494.94,-48.8 1494.94,-84.8"/>
<text text-anchor="middle" x="1449" y="-62.6" font-family="Times,serif" font-size="14.00">RedisModule</text>
</g>
<!-- RedisModule&#45;&gt;ServerTestModule -->
<g id="edge18" class="edge">
<title>RedisModule&#45;&gt;ServerTestModule</title>
<path fill="none" stroke="black" d="M1449,-84.81C1449,-100.85 1449,-121.8 1449,-121.8 1449,-121.8 1946.75,-121.8 1946.75,-121.8"/>
<polygon fill="black" stroke="black" points="1946.75,-125.3 1956.75,-121.8 1946.75,-118.3 1946.75,-125.3"/>
</g>
<!-- RoleModule -->
<g id="node19" class="node">
<title>RoleModule</title>
<polygon fill="#8dd3c7" stroke="black" points="1384.99,-84.8 1381.99,-88.8 1360.99,-88.8 1357.99,-84.8 1299.01,-84.8 1299.01,-48.8 1384.99,-48.8 1384.99,-84.8"/>
<text text-anchor="middle" x="1342" y="-62.6" font-family="Times,serif" font-size="14.00">RoleModule</text>
</g>
<!-- RoleModule&#45;&gt;ServerTestModule -->
<g id="edge19" class="edge">
<title>RoleModule&#45;&gt;ServerTestModule</title>
<path fill="none" stroke="black" d="M1342,-84.83C1342,-101.86 1342,-124.8 1342,-124.8 1342,-124.8 1946.8,-124.8 1946.8,-124.8"/>
<polygon fill="black" stroke="black" points="1946.8,-128.3 1956.8,-124.8 1946.8,-121.3 1946.8,-128.3"/>
</g>
<!-- SchoolApiModule -->
<g id="node20" class="node">
<title>SchoolApiModule</title>
<polygon fill="#8dd3c7" stroke="black" points="1280.94,-84.8 1277.94,-88.8 1256.94,-88.8 1253.94,-84.8 1161.06,-84.8 1161.06,-48.8 1280.94,-48.8 1280.94,-84.8"/>
<text text-anchor="middle" x="1221" y="-62.6" font-family="Times,serif" font-size="14.00">SchoolApiModule</text>
</g>
<!-- SchoolApiModule&#45;&gt;ServerTestModule -->
<g id="edge20" class="edge">
<title>SchoolApiModule&#45;&gt;ServerTestModule</title>
<path fill="none" stroke="black" d="M1221,-84.8C1221,-102.48 1221,-126.8 1221,-126.8 1221,-126.8 1946.84,-126.8 1946.84,-126.8"/>
<polygon fill="black" stroke="black" points="1946.84,-130.3 1956.84,-126.8 1946.84,-123.3 1946.84,-130.3"/>
</g>
<!-- SharingApiModule -->
<g id="node21" class="node">
<title>SharingApiModule</title>
<polygon fill="#8dd3c7" stroke="black" points="1143.1,-84.8 1140.1,-88.8 1119.1,-88.8 1116.1,-84.8 1018.9,-84.8 1018.9,-48.8 1143.1,-48.8 1143.1,-84.8"/>
<text text-anchor="middle" x="1081" y="-62.6" font-family="Times,serif" font-size="14.00">SharingApiModule</text>
</g>
<!-- SharingApiModule&#45;&gt;ServerTestModule -->
<g id="edge21" class="edge">
<title>SharingApiModule&#45;&gt;ServerTestModule</title>
<path fill="none" stroke="black" d="M1081,-85.02C1081,-103.63 1081,-129.8 1081,-129.8 1081,-129.8 1946.67,-129.8 1946.67,-129.8"/>
<polygon fill="black" stroke="black" points="1946.67,-133.3 1956.67,-129.8 1946.67,-126.3 1946.67,-133.3"/>
</g>
<!-- SystemModule -->
<g id="node22" class="node">
<title>SystemModule</title>
<polygon fill="#8dd3c7" stroke="black" points="1001.28,-84.8 998.28,-88.8 977.28,-88.8 974.28,-84.8 900.72,-84.8 900.72,-48.8 1001.28,-48.8 1001.28,-84.8"/>
<text text-anchor="middle" x="951" y="-62.6" font-family="Times,serif" font-size="14.00">SystemModule</text>
</g>
<!-- SystemModule&#45;&gt;ServerTestModule -->
<g id="edge22" class="edge">
<title>SystemModule&#45;&gt;ServerTestModule</title>
<path fill="none" stroke="black" d="M951,-84.91C951,-104.14 951,-131.8 951,-131.8 951,-131.8 1946.63,-131.8 1946.63,-131.8"/>
<polygon fill="black" stroke="black" points="1946.63,-135.3 1956.63,-131.8 1946.63,-128.3 1946.63,-135.3"/>
</g>
<!-- TaskCardModule -->
<g id="node23" class="node">
<title>TaskCardModule</title>
<polygon fill="#8dd3c7" stroke="black" points="882.98,-84.8 879.98,-88.8 858.98,-88.8 855.98,-84.8 769.02,-84.8 769.02,-48.8 882.98,-48.8 882.98,-84.8"/>
<text text-anchor="middle" x="826" y="-62.6" font-family="Times,serif" font-size="14.00">TaskCardModule</text>
</g>
<!-- TaskCardModule&#45;&gt;ServerTestModule -->
<g id="edge23" class="edge">
<title>TaskCardModule&#45;&gt;ServerTestModule</title>
<path fill="none" stroke="black" d="M826,-85.02C826,-105.17 826,-134.8 826,-134.8 826,-134.8 1946.71,-134.8 1946.71,-134.8"/>
<polygon fill="black" stroke="black" points="1946.71,-138.3 1956.71,-134.8 1946.71,-131.3 1946.71,-138.3"/>
</g>
<!-- TaskModule -->
<g id="node24" class="node">
<title>TaskModule</title>
<polygon fill="#8dd3c7" stroke="black" points="751.27,-84.8 748.27,-88.8 727.27,-88.8 724.27,-84.8 664.73,-84.8 664.73,-48.8 751.27,-48.8 751.27,-84.8"/>
<text text-anchor="middle" x="708" y="-62.6" font-family="Times,serif" font-size="14.00">TaskModule</text>
</g>
<!-- TaskModule&#45;&gt;ServerTestModule -->
<g id="edge24" class="edge">
<title>TaskModule&#45;&gt;ServerTestModule</title>
<path fill="none" stroke="black" d="M708,-85.08C708,-106.12 708,-137.8 708,-137.8 708,-137.8 1946.49,-137.8 1946.49,-137.8"/>
<polygon fill="black" stroke="black" points="1946.49,-141.3 1956.49,-137.8 1946.49,-134.3 1946.49,-141.3"/>
</g>
<!-- ToolApiModule -->
<g id="node25" class="node">
<title>ToolApiModule</title>
<polygon fill="#8dd3c7" stroke="black" points="646.49,-84.8 643.49,-88.8 622.49,-88.8 619.49,-84.8 539.51,-84.8 539.51,-48.8 646.49,-48.8 646.49,-84.8"/>
<text text-anchor="middle" x="593" y="-62.6" font-family="Times,serif" font-size="14.00">ToolApiModule</text>
</g>
<!-- ToolApiModule&#45;&gt;ServerTestModule -->
<g id="edge25" class="edge">
<title>ToolApiModule&#45;&gt;ServerTestModule</title>
<path fill="none" stroke="black" d="M593,-84.84C593,-106.46 593,-139.8 593,-139.8 593,-139.8 1946.72,-139.8 1946.72,-139.8"/>
<polygon fill="black" stroke="black" points="1946.72,-143.3 1956.72,-139.8 1946.72,-136.3 1946.72,-143.3"/>
</g>
<!-- UserApiModule -->
<g id="node26" class="node">
<title>UserApiModule</title>
<polygon fill="#8dd3c7" stroke="black" points="521.49,-84.8 518.49,-88.8 497.49,-88.8 494.49,-84.8 414.51,-84.8 414.51,-48.8 521.49,-48.8 521.49,-84.8"/>
<text text-anchor="middle" x="468" y="-62.6" font-family="Times,serif" font-size="14.00">UserApiModule</text>
</g>
<!-- UserApiModule&#45;&gt;ServerTestModule -->
<g id="edge26" class="edge">
<title>UserApiModule&#45;&gt;ServerTestModule</title>
<path fill="none" stroke="black" d="M468,-84.81C468,-107.29 468,-142.8 468,-142.8 468,-142.8 1946.75,-142.8 1946.75,-142.8"/>
<polygon fill="black" stroke="black" points="1946.75,-146.3 1956.75,-142.8 1946.75,-139.3 1946.75,-146.3"/>
</g>
<!-- UserLoginMigrationApiModule -->
<g id="node27" class="node">
<title>UserLoginMigrationApiModule</title>
<polygon fill="#8dd3c7" stroke="black" points="396.42,-84.8 393.42,-88.8 372.42,-88.8 369.42,-84.8 199.58,-84.8 199.58,-48.8 396.42,-48.8 396.42,-84.8"/>
<text text-anchor="middle" x="298" y="-62.6" font-family="Times,serif" font-size="14.00">UserLoginMigrationApiModule</text>
</g>
<!-- UserLoginMigrationApiModule&#45;&gt;ServerTestModule -->
<g id="edge27" class="edge">
<title>UserLoginMigrationApiModule&#45;&gt;ServerTestModule</title>
<path fill="none" stroke="black" d="M298,-84.89C298,-107.93 298,-144.8 298,-144.8 298,-144.8 1946.83,-144.8 1946.83,-144.8"/>
<polygon fill="black" stroke="black" points="1946.83,-148.3 1956.83,-144.8 1946.83,-141.3 1946.83,-148.3"/>
</g>
<!-- VideoConferenceModule -->
<g id="node28" class="node">
<title>VideoConferenceModule</title>
<polygon fill="#8dd3c7" stroke="black" points="182.28,-84.8 179.28,-88.8 158.28,-88.8 155.28,-84.8 23.72,-84.8 23.72,-48.8 182.28,-48.8 182.28,-84.8"/>
<text text-anchor="middle" x="103" y="-62.6" font-family="Times,serif" font-size="14.00">VideoConferenceModule</text>
</g>
<!-- VideoConferenceModule&#45;&gt;ServerTestModule -->
<g id="edge28" class="edge">
<title>VideoConferenceModule&#45;&gt;ServerTestModule</title>
<path fill="none" stroke="black" d="M103,-85.18C103,-109.08 103,-147.8 103,-147.8 103,-147.8 1946.82,-147.8 1946.82,-147.8"/>
<polygon fill="black" stroke="black" points="1946.82,-151.3 1956.82,-147.8 1946.82,-144.3 1946.82,-151.3"/>
</g>
</g>
</svg>
