<?xml version="1.0" encoding="UTF-8" standalone="no"?>
<!DOCTYPE svg PUBLIC "-//W3C//DTD SVG 1.1//EN"
 "http://www.w3.org/Graphics/SVG/1.1/DTD/svg11.dtd">
<!-- Generated by graphviz version 5.0.0 (20220707.1540)
 -->
<!-- Title: dependencies Pages: 1 -->
<svg width="2730pt" height="174pt"
 viewBox="0.00 0.00 2730.00 173.80" xmlns="http://www.w3.org/2000/svg" xmlns:xlink="http://www.w3.org/1999/xlink">
<g id="graph0" class="graph" transform="scale(1 1) rotate(0) translate(4 169.8)">
<title>dependencies</title>
<polygon fill="white" stroke="transparent" points="-4,4 -4,-169.8 2726,-169.8 2726,4 -4,4"/>
<text text-anchor="middle" x="1361" y="-8.2" font-family="sans-serif" font-size="14.00">dependencies</text>
<g id="clust1" class="cluster">
<title>cluster_ServerTestModule</title>
<polygon fill="none" stroke="black" stroke-dasharray="1,5" points="8,-32.8 8,-157.8 2714,-157.8 2714,-32.8 8,-32.8"/>
</g>
<g id="clust3" class="cluster">
<title>cluster_ServerTestModule_imports</title>
<polygon fill="none" stroke="black" points="16,-40.8 16,-92.8 2706,-92.8 2706,-40.8 16,-40.8"/>
</g>
<!-- AuthModule -->
<g id="node1" class="node">
<title>AuthModule</title>
<polygon fill="#8dd3c7" stroke="black" points="2697.55,-84.8 2694.55,-88.8 2673.55,-88.8 2670.55,-84.8 2610.45,-84.8 2610.45,-48.8 2697.55,-48.8 2697.55,-84.8"/>
<text text-anchor="middle" x="2654" y="-62.6" font-family="Times,serif" font-size="14.00">AuthModule</text>
</g>
<!-- ServerTestModule -->
<g id="node20" class="node">
<title>ServerTestModule</title>
<polygon fill="#8dd3c7" stroke="black" points="1375.19,-149.8 1372.19,-153.8 1351.19,-153.8 1348.19,-149.8 1254.81,-149.8 1254.81,-113.8 1375.19,-113.8 1375.19,-149.8"/>
<text text-anchor="middle" x="1315" y="-127.6" font-family="Times,serif" font-size="14.00">ServerTestModule</text>
</g>
<!-- AuthModule&#45;&gt;ServerTestModule -->
<g id="edge1" class="edge">
<title>AuthModule&#45;&gt;ServerTestModule</title>
<path fill="none" stroke="black" d="M2654,-85.12C2654,-108.46 2654,-145.8 2654,-145.8 2654,-145.8 1385.14,-145.8 1385.14,-145.8"/>
<polygon fill="black" stroke="black" points="1385.14,-142.3 1375.14,-145.8 1385.14,-149.3 1385.14,-142.3"/>
</g>
<!-- CollaborativeStorageModule -->
<g id="node2" class="node">
<title>CollaborativeStorageModule</title>
<polygon fill="#8dd3c7" stroke="black" points="2592.02,-84.8 2589.02,-88.8 2568.02,-88.8 2565.02,-84.8 2413.98,-84.8 2413.98,-48.8 2592.02,-48.8 2592.02,-84.8"/>
<text text-anchor="middle" x="2503" y="-62.6" font-family="Times,serif" font-size="14.00">CollaborativeStorageModule</text>
</g>
<!-- CollaborativeStorageModule&#45;&gt;ServerTestModule -->
<g id="edge2" class="edge">
<title>CollaborativeStorageModule&#45;&gt;ServerTestModule</title>
<path fill="none" stroke="black" d="M2503,-84.96C2503,-107.15 2503,-141.8 2503,-141.8 2503,-141.8 1385.14,-141.8 1385.14,-141.8"/>
<polygon fill="black" stroke="black" points="1385.14,-138.3 1375.14,-141.8 1385.14,-145.3 1385.14,-138.3"/>
</g>
<!-- CoreModule -->
<g id="node3" class="node">
<title>CoreModule</title>
<polygon fill="#8dd3c7" stroke="black" points="2395.27,-84.8 2392.27,-88.8 2371.27,-88.8 2368.27,-84.8 2308.73,-84.8 2308.73,-48.8 2395.27,-48.8 2395.27,-84.8"/>
<text text-anchor="middle" x="2352" y="-62.6" font-family="Times,serif" font-size="14.00">CoreModule</text>
</g>
<!-- CoreModule&#45;&gt;ServerTestModule -->
<g id="edge3" class="edge">
<title>CoreModule&#45;&gt;ServerTestModule</title>
<path fill="none" stroke="black" d="M2352,-85.08C2352,-106.12 2352,-137.8 2352,-137.8 2352,-137.8 1385.24,-137.8 1385.24,-137.8"/>
<polygon fill="black" stroke="black" points="1385.24,-134.3 1375.24,-137.8 1385.24,-141.3 1385.24,-134.3"/>
</g>
<!-- FilesStorageClientModule -->
<g id="node4" class="node">
<title>FilesStorageClientModule</title>
<polygon fill="#8dd3c7" stroke="black" points="2290.77,-84.8 2287.77,-88.8 2266.77,-88.8 2263.77,-84.8 2127.23,-84.8 2127.23,-48.8 2290.77,-48.8 2290.77,-84.8"/>
<text text-anchor="middle" x="2209" y="-62.6" font-family="Times,serif" font-size="14.00">FilesStorageClientModule</text>
</g>
<!-- FilesStorageClientModule&#45;&gt;ServerTestModule -->
<g id="edge4" class="edge">
<title>FilesStorageClientModule&#45;&gt;ServerTestModule</title>
<path fill="none" stroke="black" d="M2209,-85.11C2209,-104.95 2209,-133.8 2209,-133.8 2209,-133.8 1385.4,-133.8 1385.4,-133.8"/>
<polygon fill="black" stroke="black" points="1385.4,-130.3 1375.4,-133.8 1385.4,-137.3 1385.4,-130.3"/>
</g>
<!-- ImportUserModule -->
<g id="node5" class="node">
<title>ImportUserModule</title>
<polygon fill="#8dd3c7" stroke="black" points="2109.09,-84.8 2106.09,-88.8 2085.09,-88.8 2082.09,-84.8 1984.91,-84.8 1984.91,-48.8 2109.09,-48.8 2109.09,-84.8"/>
<text text-anchor="middle" x="2047" y="-62.6" font-family="Times,serif" font-size="14.00">ImportUserModule</text>
</g>
<!-- ImportUserModule&#45;&gt;ServerTestModule -->
<g id="edge5" class="edge">
<title>ImportUserModule&#45;&gt;ServerTestModule</title>
<path fill="none" stroke="black" d="M2047,-85.02C2047,-103.63 2047,-129.8 2047,-129.8 2047,-129.8 1385.21,-129.8 1385.21,-129.8"/>
<polygon fill="black" stroke="black" points="1385.21,-126.3 1375.21,-129.8 1385.21,-133.3 1385.21,-126.3"/>
</g>
<!-- LearnroomModule -->
<g id="node6" class="node">
<title>LearnroomModule</title>
<polygon fill="#8dd3c7" stroke="black" points="1966.75,-84.8 1963.75,-88.8 1942.75,-88.8 1939.75,-84.8 1845.25,-84.8 1845.25,-48.8 1966.75,-48.8 1966.75,-84.8"/>
<text text-anchor="middle" x="1906" y="-62.6" font-family="Times,serif" font-size="14.00">LearnroomModule</text>
</g>
<!-- LearnroomModule&#45;&gt;ServerTestModule -->
<g id="edge6" class="edge">
<title>LearnroomModule&#45;&gt;ServerTestModule</title>
<path fill="none" stroke="black" d="M1906,-84.82C1906,-102.17 1906,-125.8 1906,-125.8 1906,-125.8 1385.2,-125.8 1385.2,-125.8"/>
<polygon fill="black" stroke="black" points="1385.2,-122.3 1375.2,-125.8 1385.2,-129.3 1385.2,-122.3"/>
</g>
<!-- LessonApiModule -->
<g id="node7" class="node">
<title>LessonApiModule</title>
<polygon fill="#8dd3c7" stroke="black" points="1827.21,-84.8 1824.21,-88.8 1803.21,-88.8 1800.21,-84.8 1706.79,-84.8 1706.79,-48.8 1827.21,-48.8 1827.21,-84.8"/>
<text text-anchor="middle" x="1767" y="-62.6" font-family="Times,serif" font-size="14.00">LessonApiModule</text>
</g>
<!-- LessonApiModule&#45;&gt;ServerTestModule -->
<g id="edge7" class="edge">
<title>LessonApiModule&#45;&gt;ServerTestModule</title>
<path fill="none" stroke="black" d="M1767,-84.81C1767,-100.85 1767,-121.8 1767,-121.8 1767,-121.8 1385.49,-121.8 1385.49,-121.8"/>
<polygon fill="black" stroke="black" points="1385.49,-118.3 1375.49,-121.8 1385.49,-125.3 1385.49,-118.3"/>
</g>
<!-- MongoMemoryDatabaseModule -->
<g id="node8" class="node">
<title>MongoMemoryDatabaseModule</title>
<polygon fill="#8dd3c7" stroke="black" points="1688.52,-84.8 1685.52,-88.8 1664.52,-88.8 1661.52,-84.8 1489.48,-84.8 1489.48,-48.8 1688.52,-48.8 1688.52,-84.8"/>
<text text-anchor="middle" x="1589" y="-62.6" font-family="Times,serif" font-size="14.00">MongoMemoryDatabaseModule</text>
</g>
<!-- MongoMemoryDatabaseModule&#45;&gt;ServerTestModule -->
<g id="edge8" class="edge">
<title>MongoMemoryDatabaseModule&#45;&gt;ServerTestModule</title>
<path fill="none" stroke="black" d="M1589,-84.92C1589,-99.58 1589,-117.8 1589,-117.8 1589,-117.8 1385.13,-117.8 1385.13,-117.8"/>
<polygon fill="black" stroke="black" points="1385.13,-114.3 1375.13,-117.8 1385.13,-121.3 1385.13,-114.3"/>
</g>
<!-- NewsModule -->
<g id="node9" class="node">
<title>NewsModule</title>
<polygon fill="#8dd3c7" stroke="black" points="1471.94,-84.8 1468.94,-88.8 1447.94,-88.8 1444.94,-84.8 1380.06,-84.8 1380.06,-48.8 1471.94,-48.8 1471.94,-84.8"/>
<text text-anchor="middle" x="1426" y="-62.6" font-family="Times,serif" font-size="14.00">NewsModule</text>
</g>
<!-- NewsModule&#45;&gt;ServerTestModule -->
<g id="edge9" class="edge">
<title>NewsModule&#45;&gt;ServerTestModule</title>
<path fill="none" stroke="black" d="M1380.13,-66.8C1373.3,-66.8 1368.49,-66.8 1368.49,-66.8 1368.49,-66.8 1368.49,-103.69 1368.49,-103.69"/>
<polygon fill="black" stroke="black" points="1364.99,-103.69 1368.49,-113.69 1371.99,-103.69 1364.99,-103.69"/>
</g>
<!-- OauthModule -->
<g id="node10" class="node">
<title>OauthModule</title>
<polygon fill="#8dd3c7" stroke="black" points="1361.77,-84.8 1358.77,-88.8 1337.77,-88.8 1334.77,-84.8 1268.23,-84.8 1268.23,-48.8 1361.77,-48.8 1361.77,-84.8"/>
<text text-anchor="middle" x="1315" y="-62.6" font-family="Times,serif" font-size="14.00">OauthModule</text>
</g>
<!-- OauthModule&#45;&gt;ServerTestModule -->
<g id="edge10" class="edge">
<title>OauthModule&#45;&gt;ServerTestModule</title>
<path fill="none" stroke="black" d="M1315,-84.91C1315,-84.91 1315,-103.79 1315,-103.79"/>
<polygon fill="black" stroke="black" points="1311.5,-103.79 1315,-113.79 1318.5,-103.79 1311.5,-103.79"/>
</g>
<!-- OauthProviderModule -->
<g id="node11" class="node">
<title>OauthProviderModule</title>
<polygon fill="#8dd3c7" stroke="black" points="1249.98,-84.8 1246.98,-88.8 1225.98,-88.8 1222.98,-84.8 1108.02,-84.8 1108.02,-48.8 1249.98,-48.8 1249.98,-84.8"/>
<text text-anchor="middle" x="1179" y="-62.6" font-family="Times,serif" font-size="14.00">OauthProviderModule</text>
</g>
<!-- OauthProviderModule&#45;&gt;ServerTestModule -->
<g id="edge11" class="edge">
<title>OauthProviderModule&#45;&gt;ServerTestModule</title>
<path fill="none" stroke="black" d="M1250.04,-66.8C1256.98,-66.8 1261.51,-66.8 1261.51,-66.8 1261.51,-66.8 1261.51,-103.69 1261.51,-103.69"/>
<polygon fill="black" stroke="black" points="1258.01,-103.69 1261.51,-113.69 1265.01,-103.69 1258.01,-103.69"/>
</g>
<!-- ProvisioningModule -->
<g id="node12" class="node">
<title>ProvisioningModule</title>
<polygon fill="#8dd3c7" stroke="black" points="1089.62,-84.8 1086.62,-88.8 1065.62,-88.8 1062.62,-84.8 958.38,-84.8 958.38,-48.8 1089.62,-48.8 1089.62,-84.8"/>
<text text-anchor="middle" x="1024" y="-62.6" font-family="Times,serif" font-size="14.00">ProvisioningModule</text>
</g>
<!-- ProvisioningModule&#45;&gt;ServerTestModule -->
<g id="edge12" class="edge">
<title>ProvisioningModule&#45;&gt;ServerTestModule</title>
<path fill="none" stroke="black" d="M1024,-84.92C1024,-99.58 1024,-117.8 1024,-117.8 1024,-117.8 1244.7,-117.8 1244.7,-117.8"/>
<polygon fill="black" stroke="black" points="1244.7,-121.3 1254.7,-117.8 1244.7,-114.3 1244.7,-121.3"/>
</g>
<!-- RabbitMQWrapperTestModule -->
<g id="node13" class="node">
<title>RabbitMQWrapperTestModule</title>
<polygon fill="#8dd3c7" stroke="black" points="940.01,-84.8 937.01,-88.8 916.01,-88.8 913.01,-84.8 747.99,-84.8 747.99,-48.8 940.01,-48.8 940.01,-84.8"/>
<text text-anchor="middle" x="844" y="-62.6" font-family="Times,serif" font-size="14.00">RabbitMQWrapperTestModule</text>
</g>
<!-- RabbitMQWrapperTestModule&#45;&gt;ServerTestModule -->
<g id="edge13" class="edge">
<title>RabbitMQWrapperTestModule&#45;&gt;ServerTestModule</title>
<path fill="none" stroke="black" d="M844,-84.81C844,-100.85 844,-121.8 844,-121.8 844,-121.8 1244.87,-121.8 1244.87,-121.8"/>
<polygon fill="black" stroke="black" points="1244.87,-125.3 1254.87,-121.8 1244.87,-118.3 1244.87,-125.3"/>
</g>
<!-- RoleModule -->
<g id="node14" class="node">
<title>RoleModule</title>
<polygon fill="#8dd3c7" stroke="black" points="729.99,-84.8 726.99,-88.8 705.99,-88.8 702.99,-84.8 644.01,-84.8 644.01,-48.8 729.99,-48.8 729.99,-84.8"/>
<text text-anchor="middle" x="687" y="-62.6" font-family="Times,serif" font-size="14.00">RoleModule</text>
</g>
<!-- RoleModule&#45;&gt;ServerTestModule -->
<g id="edge14" class="edge">
<title>RoleModule&#45;&gt;ServerTestModule</title>
<path fill="none" stroke="black" d="M687,-84.82C687,-102.17 687,-125.8 687,-125.8 687,-125.8 1244.78,-125.8 1244.78,-125.8"/>
<polygon fill="black" stroke="black" points="1244.78,-129.3 1254.78,-125.8 1244.78,-122.3 1244.78,-129.3"/>
</g>
<!-- SchoolModule -->
<g id="node15" class="node">
<title>SchoolModule</title>
<polygon fill="#8dd3c7" stroke="black" points="626.44,-84.8 623.44,-88.8 602.44,-88.8 599.44,-84.8 527.56,-84.8 527.56,-48.8 626.44,-48.8 626.44,-84.8"/>
<text text-anchor="middle" x="577" y="-62.6" font-family="Times,serif" font-size="14.00">SchoolModule</text>
</g>
<!-- SchoolModule&#45;&gt;ServerTestModule -->
<g id="edge15" class="edge">
<title>SchoolModule&#45;&gt;ServerTestModule</title>
<path fill="none" stroke="black" d="M577,-85.02C577,-103.63 577,-129.8 577,-129.8 577,-129.8 1244.61,-129.8 1244.61,-129.8"/>
<polygon fill="black" stroke="black" points="1244.61,-133.3 1254.61,-129.8 1244.61,-126.3 1244.61,-133.3"/>
</g>
<!-- SystemModule -->
<g id="node16" class="node">
<title>SystemModule</title>
<polygon fill="#8dd3c7" stroke="black" points="509.28,-84.8 506.28,-88.8 485.28,-88.8 482.28,-84.8 408.72,-84.8 408.72,-48.8 509.28,-48.8 509.28,-84.8"/>
<text text-anchor="middle" x="459" y="-62.6" font-family="Times,serif" font-size="14.00">SystemModule</text>
</g>
<!-- SystemModule&#45;&gt;ServerTestModule -->
<g id="edge16" class="edge">
<title>SystemModule&#45;&gt;ServerTestModule</title>
<path fill="none" stroke="black" d="M459,-85.11C459,-104.95 459,-133.8 459,-133.8 459,-133.8 1244.81,-133.8 1244.81,-133.8"/>
<polygon fill="black" stroke="black" points="1244.81,-137.3 1254.81,-133.8 1244.81,-130.3 1244.81,-137.3"/>
</g>
<!-- TaskModule -->
<g id="node17" class="node">
<title>TaskModule</title>
<polygon fill="#8dd3c7" stroke="black" points="390.27,-84.8 387.27,-88.8 366.27,-88.8 363.27,-84.8 303.73,-84.8 303.73,-48.8 390.27,-48.8 390.27,-84.8"/>
<text text-anchor="middle" x="347" y="-62.6" font-family="Times,serif" font-size="14.00">TaskModule</text>
</g>
<!-- TaskModule&#45;&gt;ServerTestModule -->
<g id="edge17" class="edge">
<title>TaskModule&#45;&gt;ServerTestModule</title>
<path fill="none" stroke="black" d="M347,-85.08C347,-106.12 347,-137.8 347,-137.8 347,-137.8 1244.81,-137.8 1244.81,-137.8"/>
<polygon fill="black" stroke="black" points="1244.81,-141.3 1254.81,-137.8 1244.81,-134.3 1244.81,-141.3"/>
</g>
<!-- UserModule -->
<g id="node18" class="node">
<title>UserModule</title>
<polygon fill="#8dd3c7" stroke="black" points="285.99,-84.8 282.99,-88.8 261.99,-88.8 258.99,-84.8 200.01,-84.8 200.01,-48.8 285.99,-48.8 285.99,-84.8"/>
<text text-anchor="middle" x="243" y="-62.6" font-family="Times,serif" font-size="14.00">UserModule</text>
</g>
<!-- UserModule&#45;&gt;ServerTestModule -->
<g id="edge18" class="edge">
<title>UserModule&#45;&gt;ServerTestModule</title>
<path fill="none" stroke="black" d="M243,-84.96C243,-107.15 243,-141.8 243,-141.8 243,-141.8 1244.68,-141.8 1244.68,-141.8"/>
<polygon fill="black" stroke="black" points="1244.68,-145.3 1254.68,-141.8 1244.68,-138.3 1244.68,-145.3"/>
</g>
<!-- VideoConferenceModule -->
<g id="node19" class="node">
<title>VideoConferenceModule</title>
<polygon fill="#8dd3c7" stroke="black" points="182.28,-84.8 179.28,-88.8 158.28,-88.8 155.28,-84.8 23.72,-84.8 23.72,-48.8 182.28,-48.8 182.28,-84.8"/>
<text text-anchor="middle" x="103" y="-62.6" font-family="Times,serif" font-size="14.00">VideoConferenceModule</text>
</g>
<!-- VideoConferenceModule&#45;&gt;ServerTestModule -->
<g id="edge19" class="edge">
<title>VideoConferenceModule&#45;&gt;ServerTestModule</title>
<path fill="none" stroke="black" d="M103,-85.12C103,-108.46 103,-145.8 103,-145.8 103,-145.8 1244.9,-145.8 1244.9,-145.8"/>
<polygon fill="black" stroke="black" points="1244.9,-149.3 1254.9,-145.8 1244.9,-142.3 1244.9,-149.3"/>
</g>
</g>
</svg>
