<?xml version="1.0" encoding="UTF-8" standalone="no"?>
<!DOCTYPE svg PUBLIC "-//W3C//DTD SVG 1.1//EN"
 "http://www.w3.org/Graphics/SVG/1.1/DTD/svg11.dtd">
<!-- Generated by graphviz version 5.0.0 (20220707.1540)
 -->
<!-- Title: dependencies Pages: 1 -->
<svg width="3606pt" height="174pt"
 viewBox="0.00 0.00 3606.00 173.80" xmlns="http://www.w3.org/2000/svg" xmlns:xlink="http://www.w3.org/1999/xlink">
<g id="graph0" class="graph" transform="scale(1 1) rotate(0) translate(4 169.8)">
<title>dependencies</title>
<polygon fill="white" stroke="transparent" points="-4,4 -4,-169.8 3602,-169.8 3602,4 -4,4"/>
<text text-anchor="middle" x="1799" y="-8.2" font-family="sans-serif" font-size="14.00">dependencies</text>
<g id="clust1" class="cluster">
<title>cluster_ServerTestModule</title>
<polygon fill="none" stroke="black" stroke-dasharray="1,5" points="8,-32.8 8,-157.8 3590,-157.8 3590,-32.8 8,-32.8"/>
</g>
<g id="clust3" class="cluster">
<title>cluster_ServerTestModule_imports</title>
<polygon fill="none" stroke="black" points="16,-40.8 16,-92.8 3582,-92.8 3582,-40.8 16,-40.8"/>
</g>
<!-- AccountApiModule -->
<g id="node1" class="node">
<title>AccountApiModule</title>
<polygon fill="#8dd3c7" stroke="black" points="3573.98,-84.8 3570.98,-88.8 3549.98,-88.8 3546.98,-84.8 3446.02,-84.8 3446.02,-48.8 3573.98,-48.8 3573.98,-84.8"/>
<text text-anchor="middle" x="3510" y="-62.6" font-family="Times,serif" font-size="14.00">AccountApiModule</text>
</g>
<!-- ServerTestModule -->
<g id="node25" class="node">
<title>ServerTestModule</title>
<polygon fill="#8dd3c7" stroke="black" points="1795.19,-149.8 1792.19,-153.8 1771.19,-153.8 1768.19,-149.8 1674.81,-149.8 1674.81,-113.8 1795.19,-113.8 1795.19,-149.8"/>
<text text-anchor="middle" x="1735" y="-127.6" font-family="Times,serif" font-size="14.00">ServerTestModule</text>
</g>
<!-- AccountApiModule&#45;&gt;ServerTestModule -->
<g id="edge1" class="edge">
<title>AccountApiModule&#45;&gt;ServerTestModule</title>
<path fill="none" stroke="black" d="M3510,-84.95C3510,-108.56 3510,-146.8 3510,-146.8 3510,-146.8 1805.33,-146.8 1805.33,-146.8"/>
<polygon fill="black" stroke="black" points="1805.33,-143.3 1795.33,-146.8 1805.33,-150.3 1805.33,-143.3"/>
</g>
<!-- AuthenticationApiModule -->
<g id="node2" class="node">
<title>AuthenticationApiModule</title>
<polygon fill="#8dd3c7" stroke="black" points="3427.75,-84.8 3424.75,-88.8 3403.75,-88.8 3400.75,-84.8 3264.25,-84.8 3264.25,-48.8 3427.75,-48.8 3427.75,-84.8"/>
<text text-anchor="middle" x="3346" y="-62.6" font-family="Times,serif" font-size="14.00">AuthenticationApiModule</text>
</g>
<!-- AuthenticationApiModule&#45;&gt;ServerTestModule -->
<g id="edge2" class="edge">
<title>AuthenticationApiModule&#45;&gt;ServerTestModule</title>
<path fill="none" stroke="black" d="M3346,-84.89C3346,-107.93 3346,-144.8 3346,-144.8 3346,-144.8 1805.21,-144.8 1805.21,-144.8"/>
<polygon fill="black" stroke="black" points="1805.21,-141.3 1795.21,-144.8 1805.21,-148.3 1805.21,-141.3"/>
</g>
<!-- CollaborativeStorageModule -->
<g id="node3" class="node">
<title>CollaborativeStorageModule</title>
<polygon fill="#8dd3c7" stroke="black" points="3246.02,-84.8 3243.02,-88.8 3222.02,-88.8 3219.02,-84.8 3067.98,-84.8 3067.98,-48.8 3246.02,-48.8 3246.02,-84.8"/>
<text text-anchor="middle" x="3157" y="-62.6" font-family="Times,serif" font-size="14.00">CollaborativeStorageModule</text>
</g>
<!-- CollaborativeStorageModule&#45;&gt;ServerTestModule -->
<g id="edge3" class="edge">
<title>CollaborativeStorageModule&#45;&gt;ServerTestModule</title>
<path fill="none" stroke="black" d="M3157,-85.09C3157,-107.01 3157,-140.8 3157,-140.8 3157,-140.8 1805.19,-140.8 1805.19,-140.8"/>
<polygon fill="black" stroke="black" points="1805.19,-137.3 1795.19,-140.8 1805.19,-144.3 1805.19,-137.3"/>
</g>
<!-- CoreModule -->
<g id="node4" class="node">
<title>CoreModule</title>
<polygon fill="#8dd3c7" stroke="black" points="3049.27,-84.8 3046.27,-88.8 3025.27,-88.8 3022.27,-84.8 2962.73,-84.8 2962.73,-48.8 3049.27,-48.8 3049.27,-84.8"/>
<text text-anchor="middle" x="3006" y="-62.6" font-family="Times,serif" font-size="14.00">CoreModule</text>
</g>
<!-- CoreModule&#45;&gt;ServerTestModule -->
<g id="edge4" class="edge">
<title>CoreModule&#45;&gt;ServerTestModule</title>
<path fill="none" stroke="black" d="M3006,-85.08C3006,-106.12 3006,-137.8 3006,-137.8 3006,-137.8 1805.45,-137.8 1805.45,-137.8"/>
<polygon fill="black" stroke="black" points="1805.45,-134.3 1795.45,-137.8 1805.45,-141.3 1805.45,-134.3"/>
</g>
<!-- FilesStorageClientModule -->
<g id="node5" class="node">
<title>FilesStorageClientModule</title>
<polygon fill="#8dd3c7" stroke="black" points="2944.77,-84.8 2941.77,-88.8 2920.77,-88.8 2917.77,-84.8 2781.23,-84.8 2781.23,-48.8 2944.77,-48.8 2944.77,-84.8"/>
<text text-anchor="middle" x="2863" y="-62.6" font-family="Times,serif" font-size="14.00">FilesStorageClientModule</text>
</g>
<!-- FilesStorageClientModule&#45;&gt;ServerTestModule -->
<g id="edge5" class="edge">
<title>FilesStorageClientModule&#45;&gt;ServerTestModule</title>
<path fill="none" stroke="black" d="M2863,-85.02C2863,-105.17 2863,-134.8 2863,-134.8 2863,-134.8 1805.25,-134.8 1805.25,-134.8"/>
<polygon fill="black" stroke="black" points="1805.25,-131.3 1795.25,-134.8 1805.25,-138.3 1805.25,-131.3"/>
</g>
<!-- ImportUserModule -->
<g id="node6" class="node">
<title>ImportUserModule</title>
<polygon fill="#8dd3c7" stroke="black" points="2763.09,-84.8 2760.09,-88.8 2739.09,-88.8 2736.09,-84.8 2638.91,-84.8 2638.91,-48.8 2763.09,-48.8 2763.09,-84.8"/>
<text text-anchor="middle" x="2701" y="-62.6" font-family="Times,serif" font-size="14.00">ImportUserModule</text>
</g>
<!-- ImportUserModule&#45;&gt;ServerTestModule -->
<g id="edge6" class="edge">
<title>ImportUserModule&#45;&gt;ServerTestModule</title>
<path fill="none" stroke="black" d="M2701,-84.91C2701,-104.14 2701,-131.8 2701,-131.8 2701,-131.8 1805.43,-131.8 1805.43,-131.8"/>
<polygon fill="black" stroke="black" points="1805.43,-128.3 1795.43,-131.8 1805.43,-135.3 1805.43,-128.3"/>
</g>
<!-- LearnroomModule -->
<g id="node7" class="node">
<title>LearnroomModule</title>
<polygon fill="#8dd3c7" stroke="black" points="2620.75,-84.8 2617.75,-88.8 2596.75,-88.8 2593.75,-84.8 2499.25,-84.8 2499.25,-48.8 2620.75,-48.8 2620.75,-84.8"/>
<text text-anchor="middle" x="2560" y="-62.6" font-family="Times,serif" font-size="14.00">LearnroomModule</text>
</g>
<!-- LearnroomModule&#45;&gt;ServerTestModule -->
<g id="edge7" class="edge">
<title>LearnroomModule&#45;&gt;ServerTestModule</title>
<path fill="none" stroke="black" d="M2560,-85.02C2560,-103.63 2560,-129.8 2560,-129.8 2560,-129.8 1805.33,-129.8 1805.33,-129.8"/>
<polygon fill="black" stroke="black" points="1805.33,-126.3 1795.33,-129.8 1805.33,-133.3 1805.33,-126.3"/>
</g>
<!-- LessonApiModule -->
<g id="node8" class="node">
<title>LessonApiModule</title>
<polygon fill="#8dd3c7" stroke="black" points="2481.21,-84.8 2478.21,-88.8 2457.21,-88.8 2454.21,-84.8 2360.79,-84.8 2360.79,-48.8 2481.21,-48.8 2481.21,-84.8"/>
<text text-anchor="middle" x="2421" y="-62.6" font-family="Times,serif" font-size="14.00">LessonApiModule</text>
</g>
<!-- LessonApiModule&#45;&gt;ServerTestModule -->
<g id="edge8" class="edge">
<title>LessonApiModule&#45;&gt;ServerTestModule</title>
<path fill="none" stroke="black" d="M2421,-84.82C2421,-102.17 2421,-125.8 2421,-125.8 2421,-125.8 1805.28,-125.8 1805.28,-125.8"/>
<polygon fill="black" stroke="black" points="1805.28,-122.3 1795.28,-125.8 1805.28,-129.3 1805.28,-122.3"/>
</g>
<!-- MongoMemoryDatabaseModule -->
<g id="node9" class="node">
<title>MongoMemoryDatabaseModule</title>
<polygon fill="#8dd3c7" stroke="black" points="2342.52,-84.8 2339.52,-88.8 2318.52,-88.8 2315.52,-84.8 2143.48,-84.8 2143.48,-48.8 2342.52,-48.8 2342.52,-84.8"/>
<text text-anchor="middle" x="2243" y="-62.6" font-family="Times,serif" font-size="14.00">MongoMemoryDatabaseModule</text>
</g>
<!-- MongoMemoryDatabaseModule&#45;&gt;ServerTestModule -->
<g id="edge9" class="edge">
<title>MongoMemoryDatabaseModule&#45;&gt;ServerTestModule</title>
<path fill="none" stroke="black" d="M2243,-84.83C2243,-101.2 2243,-122.8 2243,-122.8 2243,-122.8 1805.27,-122.8 1805.27,-122.8"/>
<polygon fill="black" stroke="black" points="1805.27,-119.3 1795.27,-122.8 1805.27,-126.3 1805.27,-119.3"/>
</g>
<!-- NewsModule -->
<g id="node10" class="node">
<title>NewsModule</title>
<polygon fill="#8dd3c7" stroke="black" points="2125.94,-84.8 2122.94,-88.8 2101.94,-88.8 2098.94,-84.8 2034.06,-84.8 2034.06,-48.8 2125.94,-48.8 2125.94,-84.8"/>
<text text-anchor="middle" x="2080" y="-62.6" font-family="Times,serif" font-size="14.00">NewsModule</text>
</g>
<!-- NewsModule&#45;&gt;ServerTestModule -->
<g id="edge10" class="edge">
<title>NewsModule&#45;&gt;ServerTestModule</title>
<path fill="none" stroke="black" d="M2080,-85.04C2080,-100.37 2080,-119.8 2080,-119.8 2080,-119.8 1805.49,-119.8 1805.49,-119.8"/>
<polygon fill="black" stroke="black" points="1805.49,-116.3 1795.49,-119.8 1805.49,-123.3 1805.49,-116.3"/>
</g>
<!-- OauthApiModule -->
<g id="node11" class="node">
<title>OauthApiModule</title>
<polygon fill="#8dd3c7" stroke="black" points="2016.27,-84.8 2013.27,-88.8 1992.27,-88.8 1989.27,-84.8 1901.73,-84.8 1901.73,-48.8 2016.27,-48.8 2016.27,-84.8"/>
<text text-anchor="middle" x="1959" y="-62.6" font-family="Times,serif" font-size="14.00">OauthApiModule</text>
</g>
<!-- OauthApiModule&#45;&gt;ServerTestModule -->
<g id="edge11" class="edge">
<title>OauthApiModule&#45;&gt;ServerTestModule</title>
<path fill="none" stroke="black" d="M1959,-84.85C1959,-99.17 1959,-116.8 1959,-116.8 1959,-116.8 1805.32,-116.8 1805.32,-116.8"/>
<polygon fill="black" stroke="black" points="1805.32,-113.3 1795.32,-116.8 1805.32,-120.3 1805.32,-113.3"/>
</g>
<!-- OauthProviderModule -->
<g id="node12" class="node">
<title>OauthProviderModule</title>
<polygon fill="#8dd3c7" stroke="black" points="1883.98,-84.8 1880.98,-88.8 1859.98,-88.8 1856.98,-84.8 1742.02,-84.8 1742.02,-48.8 1883.98,-48.8 1883.98,-84.8"/>
<text text-anchor="middle" x="1813" y="-62.6" font-family="Times,serif" font-size="14.00">OauthProviderModule</text>
</g>
<!-- OauthProviderModule&#45;&gt;ServerTestModule -->
<g id="edge12" class="edge">
<title>OauthProviderModule&#45;&gt;ServerTestModule</title>
<path fill="none" stroke="black" d="M1768.55,-84.91C1768.55,-84.91 1768.55,-103.79 1768.55,-103.79"/>
<polygon fill="black" stroke="black" points="1765.05,-103.79 1768.55,-113.79 1772.05,-103.79 1765.05,-103.79"/>
</g>
<!-- ProvisioningModule -->
<g id="node13" class="node">
<title>ProvisioningModule</title>
<polygon fill="#8dd3c7" stroke="black" points="1723.62,-84.8 1720.62,-88.8 1699.62,-88.8 1696.62,-84.8 1592.38,-84.8 1592.38,-48.8 1723.62,-48.8 1723.62,-84.8"/>
<text text-anchor="middle" x="1658" y="-62.6" font-family="Times,serif" font-size="14.00">ProvisioningModule</text>
</g>
<!-- ProvisioningModule&#45;&gt;ServerTestModule -->
<g id="edge13" class="edge">
<title>ProvisioningModule&#45;&gt;ServerTestModule</title>
<path fill="none" stroke="black" d="M1699.23,-84.91C1699.23,-84.91 1699.23,-103.79 1699.23,-103.79"/>
<polygon fill="black" stroke="black" points="1695.73,-103.79 1699.23,-113.79 1702.73,-103.79 1695.73,-103.79"/>
</g>
<!-- RabbitMQWrapperTestModule -->
<g id="node14" class="node">
<title>RabbitMQWrapperTestModule</title>
<polygon fill="#8dd3c7" stroke="black" points="1574.01,-84.8 1571.01,-88.8 1550.01,-88.8 1547.01,-84.8 1381.99,-84.8 1381.99,-48.8 1574.01,-48.8 1574.01,-84.8"/>
<text text-anchor="middle" x="1478" y="-62.6" font-family="Times,serif" font-size="14.00">RabbitMQWrapperTestModule</text>
</g>
<!-- RabbitMQWrapperTestModule&#45;&gt;ServerTestModule -->
<g id="edge14" class="edge">
<title>RabbitMQWrapperTestModule&#45;&gt;ServerTestModule</title>
<path fill="none" stroke="black" d="M1478,-84.85C1478,-99.17 1478,-116.8 1478,-116.8 1478,-116.8 1664.74,-116.8 1664.74,-116.8"/>
<polygon fill="black" stroke="black" points="1664.74,-120.3 1674.74,-116.8 1664.74,-113.3 1664.74,-120.3"/>
</g>
<!-- RoleModule -->
<g id="node15" class="node">
<title>RoleModule</title>
<polygon fill="#8dd3c7" stroke="black" points="1363.99,-84.8 1360.99,-88.8 1339.99,-88.8 1336.99,-84.8 1278.01,-84.8 1278.01,-48.8 1363.99,-48.8 1363.99,-84.8"/>
<text text-anchor="middle" x="1321" y="-62.6" font-family="Times,serif" font-size="14.00">RoleModule</text>
</g>
<!-- RoleModule&#45;&gt;ServerTestModule -->
<g id="edge15" class="edge">
<title>RoleModule&#45;&gt;ServerTestModule</title>
<path fill="none" stroke="black" d="M1321,-85.04C1321,-100.37 1321,-119.8 1321,-119.8 1321,-119.8 1664.8,-119.8 1664.8,-119.8"/>
<polygon fill="black" stroke="black" points="1664.8,-123.3 1674.8,-119.8 1664.8,-116.3 1664.8,-123.3"/>
</g>
<!-- SchoolApiModule -->
<g id="node16" class="node">
<title>SchoolApiModule</title>
<polygon fill="#8dd3c7" stroke="black" points="1259.94,-84.8 1256.94,-88.8 1235.94,-88.8 1232.94,-84.8 1140.06,-84.8 1140.06,-48.8 1259.94,-48.8 1259.94,-84.8"/>
<text text-anchor="middle" x="1200" y="-62.6" font-family="Times,serif" font-size="14.00">SchoolApiModule</text>
</g>
<!-- SchoolApiModule&#45;&gt;ServerTestModule -->
<g id="edge16" class="edge">
<title>SchoolApiModule&#45;&gt;ServerTestModule</title>
<path fill="none" stroke="black" d="M1200,-84.83C1200,-101.2 1200,-122.8 1200,-122.8 1200,-122.8 1664.67,-122.8 1664.67,-122.8"/>
<polygon fill="black" stroke="black" points="1664.67,-126.3 1674.67,-122.8 1664.67,-119.3 1664.67,-126.3"/>
</g>
<!-- SharingApiModule -->
<g id="node17" class="node">
<title>SharingApiModule</title>
<polygon fill="#8dd3c7" stroke="black" points="1122.1,-84.8 1119.1,-88.8 1098.1,-88.8 1095.1,-84.8 997.9,-84.8 997.9,-48.8 1122.1,-48.8 1122.1,-84.8"/>
<text text-anchor="middle" x="1060" y="-62.6" font-family="Times,serif" font-size="14.00">SharingApiModule</text>
</g>
<!-- SharingApiModule&#45;&gt;ServerTestModule -->
<g id="edge17" class="edge">
<title>SharingApiModule&#45;&gt;ServerTestModule</title>
<path fill="none" stroke="black" d="M1060,-84.82C1060,-102.17 1060,-125.8 1060,-125.8 1060,-125.8 1664.8,-125.8 1664.8,-125.8"/>
<polygon fill="black" stroke="black" points="1664.8,-129.3 1674.8,-125.8 1664.8,-122.3 1664.8,-129.3"/>
</g>
<!-- SystemModule -->
<g id="node18" class="node">
<title>SystemModule</title>
<polygon fill="#8dd3c7" stroke="black" points="980.28,-84.8 977.28,-88.8 956.28,-88.8 953.28,-84.8 879.72,-84.8 879.72,-48.8 980.28,-48.8 980.28,-84.8"/>
<text text-anchor="middle" x="930" y="-62.6" font-family="Times,serif" font-size="14.00">SystemModule</text>
</g>
<!-- SystemModule&#45;&gt;ServerTestModule -->
<g id="edge18" class="edge">
<title>SystemModule&#45;&gt;ServerTestModule</title>
<path fill="none" stroke="black" d="M930,-85.02C930,-103.63 930,-129.8 930,-129.8 930,-129.8 1664.82,-129.8 1664.82,-129.8"/>
<polygon fill="black" stroke="black" points="1664.82,-133.3 1674.82,-129.8 1664.82,-126.3 1664.82,-133.3"/>
</g>
<!-- TaskCardModule -->
<g id="node19" class="node">
<title>TaskCardModule</title>
<polygon fill="#8dd3c7" stroke="black" points="861.98,-84.8 858.98,-88.8 837.98,-88.8 834.98,-84.8 748.02,-84.8 748.02,-48.8 861.98,-48.8 861.98,-84.8"/>
<text text-anchor="middle" x="805" y="-62.6" font-family="Times,serif" font-size="14.00">TaskCardModule</text>
</g>
<!-- TaskCardModule&#45;&gt;ServerTestModule -->
<g id="edge19" class="edge">
<title>TaskCardModule&#45;&gt;ServerTestModule</title>
<path fill="none" stroke="black" d="M805,-84.91C805,-104.14 805,-131.8 805,-131.8 805,-131.8 1664.7,-131.8 1664.7,-131.8"/>
<polygon fill="black" stroke="black" points="1664.7,-135.3 1674.7,-131.8 1664.7,-128.3 1664.7,-135.3"/>
</g>
<!-- TaskModule -->
<g id="node20" class="node">
<title>TaskModule</title>
<polygon fill="#8dd3c7" stroke="black" points="730.27,-84.8 727.27,-88.8 706.27,-88.8 703.27,-84.8 643.73,-84.8 643.73,-48.8 730.27,-48.8 730.27,-84.8"/>
<text text-anchor="middle" x="687" y="-62.6" font-family="Times,serif" font-size="14.00">TaskModule</text>
</g>
<!-- TaskModule&#45;&gt;ServerTestModule -->
<g id="edge20" class="edge">
<title>TaskModule&#45;&gt;ServerTestModule</title>
<path fill="none" stroke="black" d="M687,-85.02C687,-105.17 687,-134.8 687,-134.8 687,-134.8 1664.89,-134.8 1664.89,-134.8"/>
<polygon fill="black" stroke="black" points="1664.89,-138.3 1674.89,-134.8 1664.89,-131.3 1664.89,-138.3"/>
</g>
<!-- ToolApiModule -->
<g id="node21" class="node">
<title>ToolApiModule</title>
<polygon fill="#8dd3c7" stroke="black" points="625.49,-84.8 622.49,-88.8 601.49,-88.8 598.49,-84.8 518.51,-84.8 518.51,-48.8 625.49,-48.8 625.49,-84.8"/>
<text text-anchor="middle" x="572" y="-62.6" font-family="Times,serif" font-size="14.00">ToolApiModule</text>
</g>
<!-- ToolApiModule&#45;&gt;ServerTestModule -->
<g id="edge21" class="edge">
<title>ToolApiModule&#45;&gt;ServerTestModule</title>
<path fill="none" stroke="black" d="M572,-85.08C572,-106.12 572,-137.8 572,-137.8 572,-137.8 1664.52,-137.8 1664.52,-137.8"/>
<polygon fill="black" stroke="black" points="1664.52,-141.3 1674.52,-137.8 1664.52,-134.3 1664.52,-141.3"/>
</g>
<!-- UserLoginMigrationApiModule -->
<g id="node22" class="node">
<title>UserLoginMigrationApiModule</title>
<polygon fill="#8dd3c7" stroke="black" points="500.42,-84.8 497.42,-88.8 476.42,-88.8 473.42,-84.8 303.58,-84.8 303.58,-48.8 500.42,-48.8 500.42,-84.8"/>
<text text-anchor="middle" x="402" y="-62.6" font-family="Times,serif" font-size="14.00">UserLoginMigrationApiModule</text>
</g>
<!-- UserLoginMigrationApiModule&#45;&gt;ServerTestModule -->
<g id="edge22" class="edge">
<title>UserLoginMigrationApiModule&#45;&gt;ServerTestModule</title>
<path fill="none" stroke="black" d="M402,-85.09C402,-107.01 402,-140.8 402,-140.8 402,-140.8 1664.7,-140.8 1664.7,-140.8"/>
<polygon fill="black" stroke="black" points="1664.7,-144.3 1674.7,-140.8 1664.7,-137.3 1664.7,-144.3"/>
</g>
<!-- UserModule -->
<g id="node23" class="node">
<title>UserModule</title>
<polygon fill="#8dd3c7" stroke="black" points="285.99,-84.8 282.99,-88.8 261.99,-88.8 258.99,-84.8 200.01,-84.8 200.01,-48.8 285.99,-48.8 285.99,-84.8"/>
<text text-anchor="middle" x="243" y="-62.6" font-family="Times,serif" font-size="14.00">UserModule</text>
</g>
<!-- UserModule&#45;&gt;ServerTestModule -->
<g id="edge23" class="edge">
<title>UserModule&#45;&gt;ServerTestModule</title>
<path fill="none" stroke="black" d="M243,-84.89C243,-107.93 243,-144.8 243,-144.8 243,-144.8 1664.66,-144.8 1664.66,-144.8"/>
<polygon fill="black" stroke="black" points="1664.66,-148.3 1674.66,-144.8 1664.66,-141.3 1664.66,-148.3"/>
</g>
<!-- VideoConferenceModule -->
<g id="node24" class="node">
<title>VideoConferenceModule</title>
<polygon fill="#8dd3c7" stroke="black" points="182.28,-84.8 179.28,-88.8 158.28,-88.8 155.28,-84.8 23.72,-84.8 23.72,-48.8 182.28,-48.8 182.28,-84.8"/>
<text text-anchor="middle" x="103" y="-62.6" font-family="Times,serif" font-size="14.00">VideoConferenceModule</text>
</g>
<!-- VideoConferenceModule&#45;&gt;ServerTestModule -->
<g id="edge24" class="edge">
<title>VideoConferenceModule&#45;&gt;ServerTestModule</title>
<path fill="none" stroke="black" d="M103,-84.95C103,-108.56 103,-146.8 103,-146.8 103,-146.8 1664.49,-146.8 1664.49,-146.8"/>
<polygon fill="black" stroke="black" points="1664.49,-150.3 1674.49,-146.8 1664.49,-143.3 1664.49,-150.3"/>
</g>
</g>
</svg>
