<?xml version="1.0" encoding="UTF-8" standalone="no"?>
<!DOCTYPE svg PUBLIC "-//W3C//DTD SVG 1.1//EN"
 "http://www.w3.org/Graphics/SVG/1.1/DTD/svg11.dtd">
<!-- Generated by graphviz version 3.0.0 (20220226.1711)
 -->
<!-- Title: dependencies Pages: 1 -->
<svg width="1886pt" height="174pt"
 viewBox="0.00 0.00 1886.00 173.80" xmlns="http://www.w3.org/2000/svg" xmlns:xlink="http://www.w3.org/1999/xlink">
<g id="graph0" class="graph" transform="scale(1 1) rotate(0) translate(4 169.8)">
<title>dependencies</title>
<polygon fill="white" stroke="transparent" points="-4,4 -4,-169.8 1882,-169.8 1882,4 -4,4"/>
<text text-anchor="middle" x="939" y="-8.2" font-family="sans-serif" font-size="14.00">dependencies</text>
<g id="clust1" class="cluster">
<title>cluster_ServerTestModule</title>
<polygon fill="none" stroke="black" stroke-dasharray="1,5" points="8,-32.8 8,-157.8 1870,-157.8 1870,-32.8 8,-32.8"/>
</g>
<g id="clust3" class="cluster">
<title>cluster_ServerTestModule_imports</title>
<polygon fill="none" stroke="black" points="16,-40.8 16,-92.8 1862,-92.8 1862,-40.8 16,-40.8"/>
</g>
<!-- AuthModule -->
<g id="node1" class="node">
<title>AuthModule</title>
<polygon fill="#8dd3c7" stroke="black" points="1853.55,-84.8 1850.55,-88.8 1829.55,-88.8 1826.55,-84.8 1766.45,-84.8 1766.45,-48.8 1853.55,-48.8 1853.55,-84.8"/>
<text text-anchor="middle" x="1810" y="-62.6" font-family="Times,serif" font-size="14.00">AuthModule</text>
</g>
<!-- ServerTestModule -->
<g id="node14" class="node">
<title>ServerTestModule</title>
<polygon fill="#8dd3c7" stroke="black" points="943.19,-149.8 940.19,-153.8 919.19,-153.8 916.19,-149.8 822.81,-149.8 822.81,-113.8 943.19,-113.8 943.19,-149.8"/>
<text text-anchor="middle" x="883" y="-127.6" font-family="Times,serif" font-size="14.00">ServerTestModule</text>
</g>
<!-- AuthModule&#45;&gt;ServerTestModule -->
<g id="edge1" class="edge">
<title>AuthModule&#45;&gt;ServerTestModule</title>
<path fill="none" stroke="black" d="M1810,-84.89C1810,-107.93 1810,-144.8 1810,-144.8 1810,-144.8 953.11,-144.8 953.11,-144.8"/>
<polygon fill="black" stroke="black" points="953.11,-141.3 943.11,-144.8 953.11,-148.3 953.11,-141.3"/>
</g>
<!-- CollaborativeStorageModule -->
<g id="node2" class="node">
<title>CollaborativeStorageModule</title>
<polygon fill="#8dd3c7" stroke="black" points="1748.02,-84.8 1745.02,-88.8 1724.02,-88.8 1721.02,-84.8 1569.98,-84.8 1569.98,-48.8 1748.02,-48.8 1748.02,-84.8"/>
<text text-anchor="middle" x="1659" y="-62.6" font-family="Times,serif" font-size="14.00">CollaborativeStorageModule</text>
</g>
<!-- CollaborativeStorageModule&#45;&gt;ServerTestModule -->
<g id="edge2" class="edge">
<title>CollaborativeStorageModule&#45;&gt;ServerTestModule</title>
<path fill="none" stroke="black" d="M1659,-84.84C1659,-106.46 1659,-139.8 1659,-139.8 1659,-139.8 953.25,-139.8 953.25,-139.8"/>
<polygon fill="black" stroke="black" points="953.25,-136.3 943.25,-139.8 953.25,-143.3 953.25,-136.3"/>
</g>
<!-- CoreModule -->
<g id="node3" class="node">
<title>CoreModule</title>
<polygon fill="#8dd3c7" stroke="black" points="1551.27,-84.8 1548.27,-88.8 1527.27,-88.8 1524.27,-84.8 1464.73,-84.8 1464.73,-48.8 1551.27,-48.8 1551.27,-84.8"/>
<text text-anchor="middle" x="1508" y="-62.6" font-family="Times,serif" font-size="14.00">CoreModule</text>
</g>
<!-- CoreModule&#45;&gt;ServerTestModule -->
<g id="edge3" class="edge">
<title>CoreModule&#45;&gt;ServerTestModule</title>
<path fill="none" stroke="black" d="M1508,-85.02C1508,-105.17 1508,-134.8 1508,-134.8 1508,-134.8 953.21,-134.8 953.21,-134.8"/>
<polygon fill="black" stroke="black" points="953.21,-131.3 943.21,-134.8 953.21,-138.3 953.21,-131.3"/>
</g>
<!-- FilesStorageClientModule -->
<g id="node4" class="node">
<title>FilesStorageClientModule</title>
<polygon fill="#8dd3c7" stroke="black" points="1446.77,-84.8 1443.77,-88.8 1422.77,-88.8 1419.77,-84.8 1283.23,-84.8 1283.23,-48.8 1446.77,-48.8 1446.77,-84.8"/>
<text text-anchor="middle" x="1365" y="-62.6" font-family="Times,serif" font-size="14.00">FilesStorageClientModule</text>
</g>
<!-- FilesStorageClientModule&#45;&gt;ServerTestModule -->
<g id="edge4" class="edge">
<title>FilesStorageClientModule&#45;&gt;ServerTestModule</title>
<path fill="none" stroke="black" d="M1365,-85.02C1365,-103.63 1365,-129.8 1365,-129.8 1365,-129.8 953.56,-129.8 953.56,-129.8"/>
<polygon fill="black" stroke="black" points="953.56,-126.3 943.56,-129.8 953.56,-133.3 953.56,-126.3"/>
</g>
<!-- ImportUserModule -->
<g id="node5" class="node">
<title>ImportUserModule</title>
<polygon fill="#8dd3c7" stroke="black" points="1265.09,-84.8 1262.09,-88.8 1241.09,-88.8 1238.09,-84.8 1140.91,-84.8 1140.91,-48.8 1265.09,-48.8 1265.09,-84.8"/>
<text text-anchor="middle" x="1203" y="-62.6" font-family="Times,serif" font-size="14.00">ImportUserModule</text>
</g>
<!-- ImportUserModule&#45;&gt;ServerTestModule -->
<g id="edge5" class="edge">
<title>ImportUserModule&#45;&gt;ServerTestModule</title>
<path fill="none" stroke="black" d="M1203,-84.83C1203,-101.86 1203,-124.8 1203,-124.8 1203,-124.8 953.19,-124.8 953.19,-124.8"/>
<polygon fill="black" stroke="black" points="953.19,-121.3 943.19,-124.8 953.19,-128.3 953.19,-121.3"/>
</g>
<!-- LearnroomModule -->
<g id="node6" class="node">
<title>LearnroomModule</title>
<polygon fill="#8dd3c7" stroke="black" points="1122.75,-84.8 1119.75,-88.8 1098.75,-88.8 1095.75,-84.8 1001.25,-84.8 1001.25,-48.8 1122.75,-48.8 1122.75,-84.8"/>
<text text-anchor="middle" x="1062" y="-62.6" font-family="Times,serif" font-size="14.00">LearnroomModule</text>
</g>
<!-- LearnroomModule&#45;&gt;ServerTestModule -->
<g id="edge6" class="edge">
<title>LearnroomModule&#45;&gt;ServerTestModule</title>
<path fill="none" stroke="black" d="M1062,-85.04C1062,-100.37 1062,-119.8 1062,-119.8 1062,-119.8 953.1,-119.8 953.1,-119.8"/>
<polygon fill="black" stroke="black" points="953.1,-116.3 943.1,-119.8 953.1,-123.3 953.1,-116.3"/>
</g>
<!-- MongoMemoryDatabaseModule -->
<g id="node7" class="node">
<title>MongoMemoryDatabaseModule</title>
<polygon fill="#8dd3c7" stroke="black" points="982.52,-84.8 979.52,-88.8 958.52,-88.8 955.52,-84.8 783.48,-84.8 783.48,-48.8 982.52,-48.8 982.52,-84.8"/>
<text text-anchor="middle" x="883" y="-62.6" font-family="Times,serif" font-size="14.00">MongoMemoryDatabaseModule</text>
</g>
<!-- MongoMemoryDatabaseModule&#45;&gt;ServerTestModule -->
<g id="edge7" class="edge">
<title>MongoMemoryDatabaseModule&#45;&gt;ServerTestModule</title>
<path fill="none" stroke="black" d="M883,-84.91C883,-84.91 883,-103.79 883,-103.79"/>
<polygon fill="black" stroke="black" points="879.5,-103.79 883,-113.79 886.5,-103.79 879.5,-103.79"/>
</g>
<!-- NewsModule -->
<g id="node8" class="node">
<title>NewsModule</title>
<polygon fill="#8dd3c7" stroke="black" points="765.94,-84.8 762.94,-88.8 741.94,-88.8 738.94,-84.8 674.06,-84.8 674.06,-48.8 765.94,-48.8 765.94,-84.8"/>
<text text-anchor="middle" x="720" y="-62.6" font-family="Times,serif" font-size="14.00">NewsModule</text>
</g>
<!-- NewsModule&#45;&gt;ServerTestModule -->
<g id="edge8" class="edge">
<title>NewsModule&#45;&gt;ServerTestModule</title>
<path fill="none" stroke="black" d="M720,-85.04C720,-100.37 720,-119.8 720,-119.8 720,-119.8 812.77,-119.8 812.77,-119.8"/>
<polygon fill="black" stroke="black" points="812.77,-123.3 822.77,-119.8 812.77,-116.3 812.77,-123.3"/>
</g>
<!-- OauthModule -->
<g id="node9" class="node">
<title>OauthModule</title>
<polygon fill="#8dd3c7" stroke="black" points="655.77,-84.8 652.77,-88.8 631.77,-88.8 628.77,-84.8 562.23,-84.8 562.23,-48.8 655.77,-48.8 655.77,-84.8"/>
<text text-anchor="middle" x="609" y="-62.6" font-family="Times,serif" font-size="14.00">OauthModule</text>
</g>
<!-- OauthModule&#45;&gt;ServerTestModule -->
<g id="edge9" class="edge">
<title>OauthModule&#45;&gt;ServerTestModule</title>
<path fill="none" stroke="black" d="M609,-84.83C609,-101.86 609,-124.8 609,-124.8 609,-124.8 812.87,-124.8 812.87,-124.8"/>
<polygon fill="black" stroke="black" points="812.87,-128.3 822.87,-124.8 812.87,-121.3 812.87,-128.3"/>
</g>
<!-- RabbitMQWrapperTestModule -->
<g id="node10" class="node">
<title>RabbitMQWrapperTestModule</title>
<polygon fill="#8dd3c7" stroke="black" points="544.01,-84.8 541.01,-88.8 520.01,-88.8 517.01,-84.8 351.99,-84.8 351.99,-48.8 544.01,-48.8 544.01,-84.8"/>
<text text-anchor="middle" x="448" y="-62.6" font-family="Times,serif" font-size="14.00">RabbitMQWrapperTestModule</text>
</g>
<!-- RabbitMQWrapperTestModule&#45;&gt;ServerTestModule -->
<g id="edge10" class="edge">
<title>RabbitMQWrapperTestModule&#45;&gt;ServerTestModule</title>
<path fill="none" stroke="black" d="M448,-85.02C448,-103.63 448,-129.8 448,-129.8 448,-129.8 812.52,-129.8 812.52,-129.8"/>
<polygon fill="black" stroke="black" points="812.52,-133.3 822.52,-129.8 812.52,-126.3 812.52,-133.3"/>
</g>
<!-- SystemModule -->
<g id="node11" class="node">
<title>SystemModule</title>
<polygon fill="#8dd3c7" stroke="black" points="333.28,-84.8 330.28,-88.8 309.28,-88.8 306.28,-84.8 232.72,-84.8 232.72,-48.8 333.28,-48.8 333.28,-84.8"/>
<text text-anchor="middle" x="283" y="-62.6" font-family="Times,serif" font-size="14.00">SystemModule</text>
</g>
<!-- SystemModule&#45;&gt;ServerTestModule -->
<g id="edge11" class="edge">
<title>SystemModule&#45;&gt;ServerTestModule</title>
<path fill="none" stroke="black" d="M283,-85.02C283,-105.17 283,-134.8 283,-134.8 283,-134.8 812.72,-134.8 812.72,-134.8"/>
<polygon fill="black" stroke="black" points="812.72,-138.3 822.72,-134.8 812.72,-131.3 812.72,-138.3"/>
</g>
<!-- TaskModule -->
<g id="node12" class="node">
<title>TaskModule</title>
<polygon fill="#8dd3c7" stroke="black" points="214.27,-84.8 211.27,-88.8 190.27,-88.8 187.27,-84.8 127.73,-84.8 127.73,-48.8 214.27,-48.8 214.27,-84.8"/>
<text text-anchor="middle" x="171" y="-62.6" font-family="Times,serif" font-size="14.00">TaskModule</text>
</g>
<!-- TaskModule&#45;&gt;ServerTestModule -->
<g id="edge12" class="edge">
<title>TaskModule&#45;&gt;ServerTestModule</title>
<path fill="none" stroke="black" d="M171,-84.84C171,-106.46 171,-139.8 171,-139.8 171,-139.8 812.6,-139.8 812.6,-139.8"/>
<polygon fill="black" stroke="black" points="812.6,-143.3 822.6,-139.8 812.6,-136.3 812.6,-143.3"/>
</g>
<!-- UserModule -->
<g id="node13" class="node">
<title>UserModule</title>
<polygon fill="#8dd3c7" stroke="black" points="109.99,-84.8 106.99,-88.8 85.99,-88.8 82.99,-84.8 24.01,-84.8 24.01,-48.8 109.99,-48.8 109.99,-84.8"/>
<text text-anchor="middle" x="67" y="-62.6" font-family="Times,serif" font-size="14.00">UserModule</text>
</g>
<!-- UserModule&#45;&gt;ServerTestModule -->
<g id="edge13" class="edge">
<title>UserModule&#45;&gt;ServerTestModule</title>
<path fill="none" stroke="black" d="M67,-84.89C67,-107.93 67,-144.8 67,-144.8 67,-144.8 812.67,-144.8 812.67,-144.8"/>
<polygon fill="black" stroke="black" points="812.67,-148.3 822.67,-144.8 812.67,-141.3 812.67,-148.3"/>
</g>
</g>
</svg>
