<?xml version="1.0" encoding="UTF-8" standalone="no"?>
<!DOCTYPE svg PUBLIC "-//W3C//DTD SVG 1.1//EN"
 "http://www.w3.org/Graphics/SVG/1.1/DTD/svg11.dtd">
<!-- Generated by graphviz version 2.47.3 (20210619.1520)
 -->
<!-- Title: dependencies Pages: 1 -->
<svg width="1282pt" height="174pt"
 viewBox="0.00 0.00 1282.00 173.80" xmlns="http://www.w3.org/2000/svg" xmlns:xlink="http://www.w3.org/1999/xlink">
<g id="graph0" class="graph" transform="scale(1 1) rotate(0) translate(4 169.8)">
<title>dependencies</title>
<polygon fill="white" stroke="transparent" points="-4,4 -4,-169.8 1278,-169.8 1278,4 -4,4"/>
<text text-anchor="middle" x="637" y="-8.2" font-family="sans-serif" font-size="14.00">dependencies</text>
<g id="clust1" class="cluster">
<title>cluster_ServerTestModule</title>
<polygon fill="none" stroke="black" stroke-dasharray="1,5" points="8,-32.8 8,-157.8 1266,-157.8 1266,-32.8 8,-32.8"/>
</g>
<g id="clust3" class="cluster">
<title>cluster_ServerTestModule_imports</title>
<polygon fill="none" stroke="black" points="16,-40.8 16,-92.8 1258,-92.8 1258,-40.8 16,-40.8"/>
</g>
<!-- AuthModule -->
<g id="node1" class="node">
<title>AuthModule</title>
<polygon fill="#8dd3c7" stroke="black" points="1249.55,-84.8 1246.55,-88.8 1225.55,-88.8 1222.55,-84.8 1162.45,-84.8 1162.45,-48.8 1249.55,-48.8 1249.55,-84.8"/>
<text text-anchor="middle" x="1206" y="-62.6" font-family="Times,serif" font-size="14.00">AuthModule</text>
</g>
<!-- ServerTestModule -->
<g id="node11" class="node">
<title>ServerTestModule</title>
<polygon fill="#8dd3c7" stroke="black" points="702.19,-149.8 699.19,-153.8 678.19,-153.8 675.19,-149.8 581.81,-149.8 581.81,-113.8 702.19,-113.8 702.19,-149.8"/>
<text text-anchor="middle" x="642" y="-127.6" font-family="Times,serif" font-size="14.00">ServerTestModule</text>
</g>
<!-- AuthModule&#45;&gt;ServerTestModule -->
<g id="edge1" class="edge">
<title>AuthModule&#45;&gt;ServerTestModule</title>
<path fill="none" stroke="black" d="M1206,-84.81C1206,-107.29 1206,-142.8 1206,-142.8 1206,-142.8 712.36,-142.8 712.36,-142.8"/>
<polygon fill="black" stroke="black" points="712.36,-139.3 702.36,-142.8 712.36,-146.3 712.36,-139.3"/>
</g>
<!-- CoreModule -->
<g id="node2" class="node">
<title>CoreModule</title>
<polygon fill="#8dd3c7" stroke="black" points="1144.26,-84.8 1141.26,-88.8 1120.26,-88.8 1117.26,-84.8 1057.74,-84.8 1057.74,-48.8 1144.26,-48.8 1144.26,-84.8"/>
<text text-anchor="middle" x="1101" y="-62.6" font-family="Times,serif" font-size="14.00">CoreModule</text>
</g>
<!-- CoreModule&#45;&gt;ServerTestModule -->
<g id="edge2" class="edge">
<title>CoreModule&#45;&gt;ServerTestModule</title>
<path fill="none" stroke="black" d="M1101,-84.93C1101,-105.37 1101,-135.8 1101,-135.8 1101,-135.8 712.48,-135.8 712.48,-135.8"/>
<polygon fill="black" stroke="black" points="712.48,-132.3 702.48,-135.8 712.48,-139.3 712.48,-132.3"/>
</g>
<!-- FilesModule -->
<g id="node3" class="node">
<title>FilesModule</title>
<polygon fill="#8dd3c7" stroke="black" points="1039.27,-84.8 1036.27,-88.8 1015.27,-88.8 1012.27,-84.8 952.73,-84.8 952.73,-48.8 1039.27,-48.8 1039.27,-84.8"/>
<text text-anchor="middle" x="996" y="-62.6" font-family="Times,serif" font-size="14.00">FilesModule</text>
</g>
<!-- FilesModule&#45;&gt;ServerTestModule -->
<g id="edge3" class="edge">
<title>FilesModule&#45;&gt;ServerTestModule</title>
<path fill="none" stroke="black" d="M996,-85.07C996,-103.36 996,-128.8 996,-128.8 996,-128.8 712.45,-128.8 712.45,-128.8"/>
<polygon fill="black" stroke="black" points="712.45,-125.3 702.45,-128.8 712.45,-132.3 712.45,-125.3"/>
</g>
<!-- ImportUserModule -->
<g id="node4" class="node">
<title>ImportUserModule</title>
<polygon fill="#8dd3c7" stroke="black" points="935.08,-84.8 932.08,-88.8 911.08,-88.8 908.08,-84.8 810.92,-84.8 810.92,-48.8 935.08,-48.8 935.08,-84.8"/>
<text text-anchor="middle" x="873" y="-62.6" font-family="Times,serif" font-size="14.00">ImportUserModule</text>
</g>
<!-- ImportUserModule&#45;&gt;ServerTestModule -->
<g id="edge4" class="edge">
<title>ImportUserModule&#45;&gt;ServerTestModule</title>
<path fill="none" stroke="black" d="M873,-84.81C873,-100.85 873,-121.8 873,-121.8 873,-121.8 712.39,-121.8 712.39,-121.8"/>
<polygon fill="black" stroke="black" points="712.39,-118.3 702.39,-121.8 712.39,-125.3 712.39,-118.3"/>
</g>
<!-- LearnroomModule -->
<g id="node5" class="node">
<title>LearnroomModule</title>
<polygon fill="#8dd3c7" stroke="black" points="792.74,-84.8 789.74,-88.8 768.74,-88.8 765.74,-84.8 671.26,-84.8 671.26,-48.8 792.74,-48.8 792.74,-84.8"/>
<text text-anchor="middle" x="732" y="-62.6" font-family="Times,serif" font-size="14.00">LearnroomModule</text>
</g>
<!-- LearnroomModule&#45;&gt;ServerTestModule -->
<g id="edge5" class="edge">
<title>LearnroomModule&#45;&gt;ServerTestModule</title>
<path fill="none" stroke="black" d="M686.61,-84.91C686.61,-84.91 686.61,-103.79 686.61,-103.79"/>
<polygon fill="black" stroke="black" points="683.11,-103.79 686.61,-113.79 690.11,-103.79 683.11,-103.79"/>
</g>
<!-- MongoMemoryDatabaseModule -->
<g id="node6" class="node">
<title>MongoMemoryDatabaseModule</title>
<polygon fill="#8dd3c7" stroke="black" points="652.51,-84.8 649.51,-88.8 628.51,-88.8 625.51,-84.8 453.49,-84.8 453.49,-48.8 652.51,-48.8 652.51,-84.8"/>
<text text-anchor="middle" x="553" y="-62.6" font-family="Times,serif" font-size="14.00">MongoMemoryDatabaseModule</text>
</g>
<!-- MongoMemoryDatabaseModule&#45;&gt;ServerTestModule -->
<g id="edge6" class="edge">
<title>MongoMemoryDatabaseModule&#45;&gt;ServerTestModule</title>
<path fill="none" stroke="black" d="M617.33,-84.91C617.33,-84.91 617.33,-103.79 617.33,-103.79"/>
<polygon fill="black" stroke="black" points="613.83,-103.79 617.33,-113.79 620.83,-103.79 613.83,-103.79"/>
</g>
<!-- NewsModule -->
<g id="node7" class="node">
<title>NewsModule</title>
<polygon fill="#8dd3c7" stroke="black" points="435.92,-84.8 432.92,-88.8 411.92,-88.8 408.92,-84.8 344.08,-84.8 344.08,-48.8 435.92,-48.8 435.92,-84.8"/>
<text text-anchor="middle" x="390" y="-62.6" font-family="Times,serif" font-size="14.00">NewsModule</text>
</g>
<!-- NewsModule&#45;&gt;ServerTestModule -->
<g id="edge7" class="edge">
<title>NewsModule&#45;&gt;ServerTestModule</title>
<path fill="none" stroke="black" d="M390,-84.81C390,-100.85 390,-121.8 390,-121.8 390,-121.8 571.64,-121.8 571.64,-121.8"/>
<polygon fill="black" stroke="black" points="571.64,-125.3 581.64,-121.8 571.64,-118.3 571.64,-125.3"/>
</g>
<!-- OauthModule -->
<g id="node8" class="node">
<title>OauthModule</title>
<polygon fill="#8dd3c7" stroke="black" points="325.76,-84.8 322.76,-88.8 301.76,-88.8 298.76,-84.8 232.24,-84.8 232.24,-48.8 325.76,-48.8 325.76,-84.8"/>
<text text-anchor="middle" x="279" y="-62.6" font-family="Times,serif" font-size="14.00">OauthModule</text>
</g>
<!-- OauthModule&#45;&gt;ServerTestModule -->
<g id="edge8" class="edge">
<title>OauthModule&#45;&gt;ServerTestModule</title>
<path fill="none" stroke="black" d="M279,-85.07C279,-103.36 279,-128.8 279,-128.8 279,-128.8 571.65,-128.8 571.65,-128.8"/>
<polygon fill="black" stroke="black" points="571.65,-132.3 581.65,-128.8 571.65,-125.3 571.65,-132.3"/>
</g>
<!-- TaskModule -->
<g id="node9" class="node">
<title>TaskModule</title>
<polygon fill="#8dd3c7" stroke="black" points="214.26,-84.8 211.26,-88.8 190.26,-88.8 187.26,-84.8 127.74,-84.8 127.74,-48.8 214.26,-48.8 214.26,-84.8"/>
<text text-anchor="middle" x="171" y="-62.6" font-family="Times,serif" font-size="14.00">TaskModule</text>
</g>
<!-- TaskModule&#45;&gt;ServerTestModule -->
<g id="edge9" class="edge">
<title>TaskModule&#45;&gt;ServerTestModule</title>
<path fill="none" stroke="black" d="M171,-84.93C171,-105.37 171,-135.8 171,-135.8 171,-135.8 571.87,-135.8 571.87,-135.8"/>
<polygon fill="black" stroke="black" points="571.87,-139.3 581.87,-135.8 571.87,-132.3 571.87,-139.3"/>
</g>
<!-- UserModule -->
<g id="node10" class="node">
<title>UserModule</title>
<polygon fill="#8dd3c7" stroke="black" points="109.98,-84.8 106.98,-88.8 85.98,-88.8 82.98,-84.8 24.02,-84.8 24.02,-48.8 109.98,-48.8 109.98,-84.8"/>
<text text-anchor="middle" x="67" y="-62.6" font-family="Times,serif" font-size="14.00">UserModule</text>
</g>
<!-- UserModule&#45;&gt;ServerTestModule -->
<g id="edge10" class="edge">
<title>UserModule&#45;&gt;ServerTestModule</title>
<path fill="none" stroke="black" d="M67,-84.81C67,-107.29 67,-142.8 67,-142.8 67,-142.8 571.82,-142.8 571.82,-142.8"/>
<polygon fill="black" stroke="black" points="571.82,-146.3 581.82,-142.8 571.82,-139.3 571.82,-146.3"/>
</g>
</g>
</svg>
