<?xml version="1.0" encoding="UTF-8" standalone="no"?>
<!DOCTYPE svg PUBLIC "-//W3C//DTD SVG 1.1//EN"
 "http://www.w3.org/Graphics/SVG/1.1/DTD/svg11.dtd">
<!-- Generated by graphviz version 5.0.0 (20220707.1540)
 -->
<!-- Title: dependencies Pages: 1 -->
<svg width="3094pt" height="174pt"
 viewBox="0.00 0.00 3094.00 173.80" xmlns="http://www.w3.org/2000/svg" xmlns:xlink="http://www.w3.org/1999/xlink">
<g id="graph0" class="graph" transform="scale(1 1) rotate(0) translate(4 169.8)">
<title>dependencies</title>
<polygon fill="white" stroke="transparent" points="-4,4 -4,-169.8 3090,-169.8 3090,4 -4,4"/>
<text text-anchor="middle" x="1543" y="-8.2" font-family="sans-serif" font-size="14.00">dependencies</text>
<g id="clust1" class="cluster">
<title>cluster_ServerTestModule</title>
<polygon fill="none" stroke="black" stroke-dasharray="1,5" points="8,-32.8 8,-157.8 3078,-157.8 3078,-32.8 8,-32.8"/>
</g>
<g id="clust3" class="cluster">
<title>cluster_ServerTestModule_imports</title>
<polygon fill="none" stroke="black" points="16,-40.8 16,-92.8 3070,-92.8 3070,-40.8 16,-40.8"/>
</g>
<!-- AuthenticationApiModule -->
<g id="node1" class="node">
<title>AuthenticationApiModule</title>
<polygon fill="#8dd3c7" stroke="black" points="3061.75,-84.8 3058.75,-88.8 3037.75,-88.8 3034.75,-84.8 2898.25,-84.8 2898.25,-48.8 3061.75,-48.8 3061.75,-84.8"/>
<text text-anchor="middle" x="2980" y="-62.6" font-family="Times,serif" font-size="14.00">AuthenticationApiModule</text>
</g>
<!-- ServerTestModule -->
<g id="node22" class="node">
<title>ServerTestModule</title>
<polygon fill="#8dd3c7" stroke="black" points="1527.19,-149.8 1524.19,-153.8 1503.19,-153.8 1500.19,-149.8 1406.81,-149.8 1406.81,-113.8 1527.19,-113.8 1527.19,-149.8"/>
<text text-anchor="middle" x="1467" y="-127.6" font-family="Times,serif" font-size="14.00">ServerTestModule</text>
</g>
<!-- AuthenticationApiModule&#45;&gt;ServerTestModule -->
<g id="edge1" class="edge">
<title>AuthenticationApiModule&#45;&gt;ServerTestModule</title>
<path fill="none" stroke="black" d="M2980,-84.95C2980,-108.56 2980,-146.8 2980,-146.8 2980,-146.8 1537.25,-146.8 1537.25,-146.8"/>
<polygon fill="black" stroke="black" points="1537.25,-143.3 1527.25,-146.8 1537.25,-150.3 1537.25,-143.3"/>
</g>
<!-- CollaborativeStorageModule -->
<g id="node2" class="node">
<title>CollaborativeStorageModule</title>
<polygon fill="#8dd3c7" stroke="black" points="2880.02,-84.8 2877.02,-88.8 2856.02,-88.8 2853.02,-84.8 2701.98,-84.8 2701.98,-48.8 2880.02,-48.8 2880.02,-84.8"/>
<text text-anchor="middle" x="2791" y="-62.6" font-family="Times,serif" font-size="14.00">CollaborativeStorageModule</text>
</g>
<!-- CollaborativeStorageModule&#45;&gt;ServerTestModule -->
<g id="edge2" class="edge">
<title>CollaborativeStorageModule&#45;&gt;ServerTestModule</title>
<path fill="none" stroke="black" d="M2791,-85.05C2791,-107.82 2791,-143.8 2791,-143.8 2791,-143.8 1537.33,-143.8 1537.33,-143.8"/>
<polygon fill="black" stroke="black" points="1537.33,-140.3 1527.33,-143.8 1537.33,-147.3 1537.33,-140.3"/>
</g>
<!-- CoreModule -->
<g id="node3" class="node">
<title>CoreModule</title>
<polygon fill="#8dd3c7" stroke="black" points="2683.27,-84.8 2680.27,-88.8 2659.27,-88.8 2656.27,-84.8 2596.73,-84.8 2596.73,-48.8 2683.27,-48.8 2683.27,-84.8"/>
<text text-anchor="middle" x="2640" y="-62.6" font-family="Times,serif" font-size="14.00">CoreModule</text>
</g>
<!-- CoreModule&#45;&gt;ServerTestModule -->
<g id="edge3" class="edge">
<title>CoreModule&#45;&gt;ServerTestModule</title>
<path fill="none" stroke="black" d="M2640,-85.09C2640,-107.01 2640,-140.8 2640,-140.8 2640,-140.8 1537.19,-140.8 1537.19,-140.8"/>
<polygon fill="black" stroke="black" points="1537.19,-137.3 1527.19,-140.8 1537.19,-144.3 1537.19,-137.3"/>
</g>
<!-- FilesStorageClientModule -->
<g id="node4" class="node">
<title>FilesStorageClientModule</title>
<polygon fill="#8dd3c7" stroke="black" points="2578.77,-84.8 2575.77,-88.8 2554.77,-88.8 2551.77,-84.8 2415.23,-84.8 2415.23,-48.8 2578.77,-48.8 2578.77,-84.8"/>
<text text-anchor="middle" x="2497" y="-62.6" font-family="Times,serif" font-size="14.00">FilesStorageClientModule</text>
</g>
<!-- FilesStorageClientModule&#45;&gt;ServerTestModule -->
<g id="edge4" class="edge">
<title>FilesStorageClientModule&#45;&gt;ServerTestModule</title>
<path fill="none" stroke="black" d="M2497,-84.83C2497,-105.57 2497,-136.8 2497,-136.8 2497,-136.8 1537.21,-136.8 1537.21,-136.8"/>
<polygon fill="black" stroke="black" points="1537.21,-133.3 1527.21,-136.8 1537.21,-140.3 1537.21,-133.3"/>
</g>
<!-- ImportUserModule -->
<g id="node5" class="node">
<title>ImportUserModule</title>
<polygon fill="#8dd3c7" stroke="black" points="2397.09,-84.8 2394.09,-88.8 2373.09,-88.8 2370.09,-84.8 2272.91,-84.8 2272.91,-48.8 2397.09,-48.8 2397.09,-84.8"/>
<text text-anchor="middle" x="2335" y="-62.6" font-family="Times,serif" font-size="14.00">ImportUserModule</text>
</g>
<!-- ImportUserModule&#45;&gt;ServerTestModule -->
<g id="edge5" class="edge">
<title>ImportUserModule&#45;&gt;ServerTestModule</title>
<path fill="none" stroke="black" d="M2335,-85.11C2335,-104.95 2335,-133.8 2335,-133.8 2335,-133.8 1537.35,-133.8 1537.35,-133.8"/>
<polygon fill="black" stroke="black" points="1537.35,-130.3 1527.35,-133.8 1537.35,-137.3 1537.35,-130.3"/>
</g>
<!-- LearnroomModule -->
<g id="node6" class="node">
<title>LearnroomModule</title>
<polygon fill="#8dd3c7" stroke="black" points="2254.75,-84.8 2251.75,-88.8 2230.75,-88.8 2227.75,-84.8 2133.25,-84.8 2133.25,-48.8 2254.75,-48.8 2254.75,-84.8"/>
<text text-anchor="middle" x="2194" y="-62.6" font-family="Times,serif" font-size="14.00">LearnroomModule</text>
</g>
<!-- LearnroomModule&#45;&gt;ServerTestModule -->
<g id="edge6" class="edge">
<title>LearnroomModule&#45;&gt;ServerTestModule</title>
<path fill="none" stroke="black" d="M2194,-84.97C2194,-103.89 2194,-130.8 2194,-130.8 2194,-130.8 1537.11,-130.8 1537.11,-130.8"/>
<polygon fill="black" stroke="black" points="1537.11,-127.3 1527.11,-130.8 1537.11,-134.3 1537.11,-127.3"/>
</g>
<!-- LessonApiModule -->
<g id="node7" class="node">
<title>LessonApiModule</title>
<polygon fill="#8dd3c7" stroke="black" points="2115.21,-84.8 2112.21,-88.8 2091.21,-88.8 2088.21,-84.8 1994.79,-84.8 1994.79,-48.8 2115.21,-48.8 2115.21,-84.8"/>
<text text-anchor="middle" x="2055" y="-62.6" font-family="Times,serif" font-size="14.00">LessonApiModule</text>
</g>
<!-- LessonApiModule&#45;&gt;ServerTestModule -->
<g id="edge7" class="edge">
<title>LessonApiModule&#45;&gt;ServerTestModule</title>
<path fill="none" stroke="black" d="M2055,-85.1C2055,-103.07 2055,-127.8 2055,-127.8 2055,-127.8 1537.16,-127.8 1537.16,-127.8"/>
<polygon fill="black" stroke="black" points="1537.16,-124.3 1527.16,-127.8 1537.16,-131.3 1537.16,-124.3"/>
</g>
<!-- MongoMemoryDatabaseModule -->
<g id="node8" class="node">
<title>MongoMemoryDatabaseModule</title>
<polygon fill="#8dd3c7" stroke="black" points="1976.52,-84.8 1973.52,-88.8 1952.52,-88.8 1949.52,-84.8 1777.48,-84.8 1777.48,-48.8 1976.52,-48.8 1976.52,-84.8"/>
<text text-anchor="middle" x="1877" y="-62.6" font-family="Times,serif" font-size="14.00">MongoMemoryDatabaseModule</text>
</g>
<!-- MongoMemoryDatabaseModule&#45;&gt;ServerTestModule -->
<g id="edge8" class="edge">
<title>MongoMemoryDatabaseModule&#45;&gt;ServerTestModule</title>
<path fill="none" stroke="black" d="M1877,-84.84C1877,-101.53 1877,-123.8 1877,-123.8 1877,-123.8 1537.5,-123.8 1537.5,-123.8"/>
<polygon fill="black" stroke="black" points="1537.5,-120.3 1527.5,-123.8 1537.5,-127.3 1537.5,-120.3"/>
</g>
<!-- NewsModule -->
<g id="node9" class="node">
<title>NewsModule</title>
<polygon fill="#8dd3c7" stroke="black" points="1759.94,-84.8 1756.94,-88.8 1735.94,-88.8 1732.94,-84.8 1668.06,-84.8 1668.06,-48.8 1759.94,-48.8 1759.94,-84.8"/>
<text text-anchor="middle" x="1714" y="-62.6" font-family="Times,serif" font-size="14.00">NewsModule</text>
</g>
<!-- NewsModule&#45;&gt;ServerTestModule -->
<g id="edge9" class="edge">
<title>NewsModule&#45;&gt;ServerTestModule</title>
<path fill="none" stroke="black" d="M1714,-85.08C1714,-100.75 1714,-120.8 1714,-120.8 1714,-120.8 1537.11,-120.8 1537.11,-120.8"/>
<polygon fill="black" stroke="black" points="1537.11,-117.3 1527.11,-120.8 1537.11,-124.3 1537.11,-117.3"/>
</g>
<!-- OauthModule -->
<g id="node10" class="node">
<title>OauthModule</title>
<polygon fill="#8dd3c7" stroke="black" points="1649.77,-84.8 1646.77,-88.8 1625.77,-88.8 1622.77,-84.8 1556.23,-84.8 1556.23,-48.8 1649.77,-48.8 1649.77,-84.8"/>
<text text-anchor="middle" x="1603" y="-62.6" font-family="Times,serif" font-size="14.00">OauthModule</text>
</g>
<!-- OauthModule&#45;&gt;ServerTestModule -->
<g id="edge10" class="edge">
<title>OauthModule&#45;&gt;ServerTestModule</title>
<path fill="none" stroke="black" d="M1603,-84.92C1603,-99.58 1603,-117.8 1603,-117.8 1603,-117.8 1537.44,-117.8 1537.44,-117.8"/>
<polygon fill="black" stroke="black" points="1537.44,-114.3 1527.44,-117.8 1537.44,-121.3 1537.44,-114.3"/>
</g>
<!-- OauthProviderModule -->
<g id="node11" class="node">
<title>OauthProviderModule</title>
<polygon fill="#8dd3c7" stroke="black" points="1537.98,-84.8 1534.98,-88.8 1513.98,-88.8 1510.98,-84.8 1396.02,-84.8 1396.02,-48.8 1537.98,-48.8 1537.98,-84.8"/>
<text text-anchor="middle" x="1467" y="-62.6" font-family="Times,serif" font-size="14.00">OauthProviderModule</text>
</g>
<!-- OauthProviderModule&#45;&gt;ServerTestModule -->
<g id="edge11" class="edge">
<title>OauthProviderModule&#45;&gt;ServerTestModule</title>
<path fill="none" stroke="black" d="M1467,-84.91C1467,-84.91 1467,-103.79 1467,-103.79"/>
<polygon fill="black" stroke="black" points="1463.5,-103.79 1467,-113.79 1470.5,-103.79 1463.5,-103.79"/>
</g>
<!-- ProvisioningModule -->
<g id="node12" class="node">
<title>ProvisioningModule</title>
<polygon fill="#8dd3c7" stroke="black" points="1377.62,-84.8 1374.62,-88.8 1353.62,-88.8 1350.62,-84.8 1246.38,-84.8 1246.38,-48.8 1377.62,-48.8 1377.62,-84.8"/>
<text text-anchor="middle" x="1312" y="-62.6" font-family="Times,serif" font-size="14.00">ProvisioningModule</text>
</g>
<!-- ProvisioningModule&#45;&gt;ServerTestModule -->
<g id="edge12" class="edge">
<title>ProvisioningModule&#45;&gt;ServerTestModule</title>
<path fill="none" stroke="black" d="M1312,-84.92C1312,-99.58 1312,-117.8 1312,-117.8 1312,-117.8 1396.63,-117.8 1396.63,-117.8"/>
<polygon fill="black" stroke="black" points="1396.63,-121.3 1406.63,-117.8 1396.63,-114.3 1396.63,-121.3"/>
</g>
<!-- RabbitMQWrapperTestModule -->
<g id="node13" class="node">
<title>RabbitMQWrapperTestModule</title>
<polygon fill="#8dd3c7" stroke="black" points="1228.01,-84.8 1225.01,-88.8 1204.01,-88.8 1201.01,-84.8 1035.99,-84.8 1035.99,-48.8 1228.01,-48.8 1228.01,-84.8"/>
<text text-anchor="middle" x="1132" y="-62.6" font-family="Times,serif" font-size="14.00">RabbitMQWrapperTestModule</text>
</g>
<!-- RabbitMQWrapperTestModule&#45;&gt;ServerTestModule -->
<g id="edge13" class="edge">
<title>RabbitMQWrapperTestModule&#45;&gt;ServerTestModule</title>
<path fill="none" stroke="black" d="M1132,-85.08C1132,-100.75 1132,-120.8 1132,-120.8 1132,-120.8 1396.72,-120.8 1396.72,-120.8"/>
<polygon fill="black" stroke="black" points="1396.72,-124.3 1406.72,-120.8 1396.72,-117.3 1396.72,-124.3"/>
</g>
<!-- RoleModule -->
<g id="node14" class="node">
<title>RoleModule</title>
<polygon fill="#8dd3c7" stroke="black" points="1017.99,-84.8 1014.99,-88.8 993.99,-88.8 990.99,-84.8 932.01,-84.8 932.01,-48.8 1017.99,-48.8 1017.99,-84.8"/>
<text text-anchor="middle" x="975" y="-62.6" font-family="Times,serif" font-size="14.00">RoleModule</text>
</g>
<!-- RoleModule&#45;&gt;ServerTestModule -->
<g id="edge14" class="edge">
<title>RoleModule&#45;&gt;ServerTestModule</title>
<path fill="none" stroke="black" d="M975,-84.84C975,-101.53 975,-123.8 975,-123.8 975,-123.8 1396.67,-123.8 1396.67,-123.8"/>
<polygon fill="black" stroke="black" points="1396.67,-127.3 1406.67,-123.8 1396.67,-120.3 1396.67,-127.3"/>
</g>
<!-- SchoolApiModule -->
<g id="node15" class="node">
<title>SchoolApiModule</title>
<polygon fill="#8dd3c7" stroke="black" points="913.94,-84.8 910.94,-88.8 889.94,-88.8 886.94,-84.8 794.06,-84.8 794.06,-48.8 913.94,-48.8 913.94,-84.8"/>
<text text-anchor="middle" x="854" y="-62.6" font-family="Times,serif" font-size="14.00">SchoolApiModule</text>
</g>
<!-- SchoolApiModule&#45;&gt;ServerTestModule -->
<g id="edge15" class="edge">
<title>SchoolApiModule&#45;&gt;ServerTestModule</title>
<path fill="none" stroke="black" d="M854,-85.1C854,-103.07 854,-127.8 854,-127.8 854,-127.8 1396.83,-127.8 1396.83,-127.8"/>
<polygon fill="black" stroke="black" points="1396.83,-131.3 1406.83,-127.8 1396.83,-124.3 1396.83,-131.3"/>
</g>
<!-- SharingApiModule -->
<g id="node16" class="node">
<title>SharingApiModule</title>
<polygon fill="#8dd3c7" stroke="black" points="776.1,-84.8 773.1,-88.8 752.1,-88.8 749.1,-84.8 651.9,-84.8 651.9,-48.8 776.1,-48.8 776.1,-84.8"/>
<text text-anchor="middle" x="714" y="-62.6" font-family="Times,serif" font-size="14.00">SharingApiModule</text>
</g>
<!-- SharingApiModule&#45;&gt;ServerTestModule -->
<g id="edge16" class="edge">
<title>SharingApiModule&#45;&gt;ServerTestModule</title>
<path fill="none" stroke="black" d="M714,-84.97C714,-103.89 714,-130.8 714,-130.8 714,-130.8 1396.65,-130.8 1396.65,-130.8"/>
<polygon fill="black" stroke="black" points="1396.65,-134.3 1406.65,-130.8 1396.65,-127.3 1396.65,-134.3"/>
</g>
<!-- SystemModule -->
<g id="node17" class="node">
<title>SystemModule</title>
<polygon fill="#8dd3c7" stroke="black" points="634.28,-84.8 631.28,-88.8 610.28,-88.8 607.28,-84.8 533.72,-84.8 533.72,-48.8 634.28,-48.8 634.28,-84.8"/>
<text text-anchor="middle" x="584" y="-62.6" font-family="Times,serif" font-size="14.00">SystemModule</text>
</g>
<!-- SystemModule&#45;&gt;ServerTestModule -->
<g id="edge17" class="edge">
<title>SystemModule&#45;&gt;ServerTestModule</title>
<path fill="none" stroke="black" d="M584,-85.11C584,-104.95 584,-133.8 584,-133.8 584,-133.8 1396.66,-133.8 1396.66,-133.8"/>
<polygon fill="black" stroke="black" points="1396.66,-137.3 1406.66,-133.8 1396.66,-130.3 1396.66,-137.3"/>
</g>
<!-- TaskModule -->
<g id="node18" class="node">
<title>TaskModule</title>
<polygon fill="#8dd3c7" stroke="black" points="515.27,-84.8 512.27,-88.8 491.27,-88.8 488.27,-84.8 428.73,-84.8 428.73,-48.8 515.27,-48.8 515.27,-84.8"/>
<text text-anchor="middle" x="472" y="-62.6" font-family="Times,serif" font-size="14.00">TaskModule</text>
</g>
<!-- TaskModule&#45;&gt;ServerTestModule -->
<g id="edge18" class="edge">
<title>TaskModule&#45;&gt;ServerTestModule</title>
<path fill="none" stroke="black" d="M472,-84.83C472,-105.57 472,-136.8 472,-136.8 472,-136.8 1396.63,-136.8 1396.63,-136.8"/>
<polygon fill="black" stroke="black" points="1396.63,-140.3 1406.63,-136.8 1396.63,-133.3 1396.63,-140.3"/>
</g>
<!-- ToolApiModule -->
<g id="node19" class="node">
<title>ToolApiModule</title>
<polygon fill="#8dd3c7" stroke="black" points="410.49,-84.8 407.49,-88.8 386.49,-88.8 383.49,-84.8 303.51,-84.8 303.51,-48.8 410.49,-48.8 410.49,-84.8"/>
<text text-anchor="middle" x="357" y="-62.6" font-family="Times,serif" font-size="14.00">ToolApiModule</text>
</g>
<!-- ToolApiModule&#45;&gt;ServerTestModule -->
<g id="edge19" class="edge">
<title>ToolApiModule&#45;&gt;ServerTestModule</title>
<path fill="none" stroke="black" d="M357,-85.09C357,-107.01 357,-140.8 357,-140.8 357,-140.8 1396.53,-140.8 1396.53,-140.8"/>
<polygon fill="black" stroke="black" points="1396.53,-144.3 1406.53,-140.8 1396.53,-137.3 1396.53,-144.3"/>
</g>
<!-- UserModule -->
<g id="node20" class="node">
<title>UserModule</title>
<polygon fill="#8dd3c7" stroke="black" points="285.99,-84.8 282.99,-88.8 261.99,-88.8 258.99,-84.8 200.01,-84.8 200.01,-48.8 285.99,-48.8 285.99,-84.8"/>
<text text-anchor="middle" x="243" y="-62.6" font-family="Times,serif" font-size="14.00">UserModule</text>
</g>
<!-- UserModule&#45;&gt;ServerTestModule -->
<g id="edge20" class="edge">
<title>UserModule&#45;&gt;ServerTestModule</title>
<path fill="none" stroke="black" d="M243,-85.05C243,-107.82 243,-143.8 243,-143.8 243,-143.8 1396.72,-143.8 1396.72,-143.8"/>
<polygon fill="black" stroke="black" points="1396.72,-147.3 1406.72,-143.8 1396.72,-140.3 1396.72,-147.3"/>
</g>
<!-- VideoConferenceModule -->
<g id="node21" class="node">
<title>VideoConferenceModule</title>
<polygon fill="#8dd3c7" stroke="black" points="182.28,-84.8 179.28,-88.8 158.28,-88.8 155.28,-84.8 23.72,-84.8 23.72,-48.8 182.28,-48.8 182.28,-84.8"/>
<text text-anchor="middle" x="103" y="-62.6" font-family="Times,serif" font-size="14.00">VideoConferenceModule</text>
</g>
<!-- VideoConferenceModule&#45;&gt;ServerTestModule -->
<g id="edge21" class="edge">
<title>VideoConferenceModule&#45;&gt;ServerTestModule</title>
<path fill="none" stroke="black" d="M103,-84.95C103,-108.56 103,-146.8 103,-146.8 103,-146.8 1396.63,-146.8 1396.63,-146.8"/>
<polygon fill="black" stroke="black" points="1396.63,-150.3 1406.63,-146.8 1396.63,-143.3 1396.63,-150.3"/>
</g>
</g>
</svg>
