<?xml version="1.0" encoding="UTF-8" standalone="no"?>
<!DOCTYPE svg PUBLIC "-//W3C//DTD SVG 1.1//EN"
 "http://www.w3.org/Graphics/SVG/1.1/DTD/svg11.dtd">
<!-- Generated by graphviz version 3.0.0 (20220226.1711)
 -->
<!-- Title: dependencies Pages: 1 -->
<svg width="1388pt" height="174pt"
 viewBox="0.00 0.00 1388.00 173.80" xmlns="http://www.w3.org/2000/svg" xmlns:xlink="http://www.w3.org/1999/xlink">
<g id="graph0" class="graph" transform="scale(1 1) rotate(0) translate(4 169.8)">
<title>dependencies</title>
<polygon fill="white" stroke="transparent" points="-4,4 -4,-169.8 1384,-169.8 1384,4 -4,4"/>
<text text-anchor="middle" x="690" y="-8.2" font-family="sans-serif" font-size="14.00">dependencies</text>
<g id="clust1" class="cluster">
<title>cluster_ServerTestModule</title>
<polygon fill="none" stroke="black" stroke-dasharray="1,5" points="8,-32.8 8,-157.8 1372,-157.8 1372,-32.8 8,-32.8"/>
</g>
<g id="clust3" class="cluster">
<title>cluster_ServerTestModule_imports</title>
<polygon fill="none" stroke="black" points="16,-40.8 16,-92.8 1364,-92.8 1364,-40.8 16,-40.8"/>
</g>
<!-- AuthModule -->
<g id="node1" class="node">
<title>AuthModule</title>
<polygon fill="#8dd3c7" stroke="black" points="1355.55,-84.8 1352.55,-88.8 1331.55,-88.8 1328.55,-84.8 1268.45,-84.8 1268.45,-48.8 1355.55,-48.8 1355.55,-84.8"/>
<text text-anchor="middle" x="1312" y="-62.6" font-family="Times,serif" font-size="14.00">AuthModule</text>
</g>
<!-- ServerTestModule -->
<g id="node11" class="node">
<title>ServerTestModule</title>
<polygon fill="#8dd3c7" stroke="black" points="742.19,-149.8 739.19,-153.8 718.19,-153.8 715.19,-149.8 621.81,-149.8 621.81,-113.8 742.19,-113.8 742.19,-149.8"/>
<text text-anchor="middle" x="682" y="-127.6" font-family="Times,serif" font-size="14.00">ServerTestModule</text>
</g>
<!-- AuthModule&#45;&gt;ServerTestModule -->
<g id="edge1" class="edge">
<title>AuthModule&#45;&gt;ServerTestModule</title>
<path fill="none" stroke="black" d="M1312,-84.81C1312,-107.29 1312,-142.8 1312,-142.8 1312,-142.8 752.12,-142.8 752.12,-142.8"/>
<polygon fill="black" stroke="black" points="752.12,-139.3 742.12,-142.8 752.12,-146.3 752.12,-139.3"/>
</g>
<!-- CoreModule -->
<g id="node2" class="node">
<title>CoreModule</title>
<polygon fill="#8dd3c7" stroke="black" points="1250.27,-84.8 1247.27,-88.8 1226.27,-88.8 1223.27,-84.8 1163.73,-84.8 1163.73,-48.8 1250.27,-48.8 1250.27,-84.8"/>
<text text-anchor="middle" x="1207" y="-62.6" font-family="Times,serif" font-size="14.00">CoreModule</text>
</g>
<!-- CoreModule&#45;&gt;ServerTestModule -->
<g id="edge2" class="edge">
<title>CoreModule&#45;&gt;ServerTestModule</title>
<path fill="none" stroke="black" d="M1207,-84.93C1207,-105.37 1207,-135.8 1207,-135.8 1207,-135.8 752.22,-135.8 752.22,-135.8"/>
<polygon fill="black" stroke="black" points="752.22,-132.3 742.22,-135.8 752.22,-139.3 752.22,-132.3"/>
</g>
<!-- ImportUserModule -->
<g id="node3" class="node">
<title>ImportUserModule</title>
<polygon fill="#8dd3c7" stroke="black" points="1146.09,-84.8 1143.09,-88.8 1122.09,-88.8 1119.09,-84.8 1021.91,-84.8 1021.91,-48.8 1146.09,-48.8 1146.09,-84.8"/>
<text text-anchor="middle" x="1084" y="-62.6" font-family="Times,serif" font-size="14.00">ImportUserModule</text>
</g>
<!-- ImportUserModule&#45;&gt;ServerTestModule -->
<g id="edge3" class="edge">
<title>ImportUserModule&#45;&gt;ServerTestModule</title>
<path fill="none" stroke="black" d="M1084,-85.07C1084,-103.36 1084,-128.8 1084,-128.8 1084,-128.8 752.18,-128.8 752.18,-128.8"/>
<polygon fill="black" stroke="black" points="752.18,-125.3 742.18,-128.8 752.18,-132.3 752.18,-125.3"/>
</g>
<!-- LearnroomModule -->
<g id="node4" class="node">
<title>LearnroomModule</title>
<polygon fill="#8dd3c7" stroke="black" points="1003.75,-84.8 1000.75,-88.8 979.75,-88.8 976.75,-84.8 882.25,-84.8 882.25,-48.8 1003.75,-48.8 1003.75,-84.8"/>
<text text-anchor="middle" x="943" y="-62.6" font-family="Times,serif" font-size="14.00">LearnroomModule</text>
</g>
<!-- LearnroomModule&#45;&gt;ServerTestModule -->
<g id="edge4" class="edge">
<title>LearnroomModule&#45;&gt;ServerTestModule</title>
<path fill="none" stroke="black" d="M943,-84.81C943,-100.85 943,-121.8 943,-121.8 943,-121.8 752.21,-121.8 752.21,-121.8"/>
<polygon fill="black" stroke="black" points="752.21,-118.3 742.21,-121.8 752.21,-125.3 752.21,-118.3"/>
</g>
<!-- MongoMemoryDatabaseModule -->
<g id="node5" class="node">
<title>MongoMemoryDatabaseModule</title>
<polygon fill="#8dd3c7" stroke="black" points="863.52,-84.8 860.52,-88.8 839.52,-88.8 836.52,-84.8 664.48,-84.8 664.48,-48.8 863.52,-48.8 863.52,-84.8"/>
<text text-anchor="middle" x="764" y="-62.6" font-family="Times,serif" font-size="14.00">MongoMemoryDatabaseModule</text>
</g>
<!-- MongoMemoryDatabaseModule&#45;&gt;ServerTestModule -->
<g id="edge5" class="edge">
<title>MongoMemoryDatabaseModule&#45;&gt;ServerTestModule</title>
<path fill="none" stroke="black" d="M703.17,-84.91C703.17,-84.91 703.17,-103.79 703.17,-103.79"/>
<polygon fill="black" stroke="black" points="699.67,-103.79 703.17,-113.79 706.67,-103.79 699.67,-103.79"/>
</g>
<!-- NewsModule -->
<g id="node6" class="node">
<title>NewsModule</title>
<polygon fill="#8dd3c7" stroke="black" points="646.94,-84.8 643.94,-88.8 622.94,-88.8 619.94,-84.8 555.06,-84.8 555.06,-48.8 646.94,-48.8 646.94,-84.8"/>
<text text-anchor="middle" x="601" y="-62.6" font-family="Times,serif" font-size="14.00">NewsModule</text>
</g>
<!-- NewsModule&#45;&gt;ServerTestModule -->
<g id="edge6" class="edge">
<title>NewsModule&#45;&gt;ServerTestModule</title>
<path fill="none" stroke="black" d="M634.31,-84.91C634.31,-84.91 634.31,-103.79 634.31,-103.79"/>
<polygon fill="black" stroke="black" points="630.81,-103.79 634.31,-113.79 637.81,-103.79 630.81,-103.79"/>
</g>
<!-- OauthModule -->
<g id="node7" class="node">
<title>OauthModule</title>
<polygon fill="#8dd3c7" stroke="black" points="536.77,-84.8 533.77,-88.8 512.77,-88.8 509.77,-84.8 443.23,-84.8 443.23,-48.8 536.77,-48.8 536.77,-84.8"/>
<text text-anchor="middle" x="490" y="-62.6" font-family="Times,serif" font-size="14.00">OauthModule</text>
</g>
<!-- OauthModule&#45;&gt;ServerTestModule -->
<g id="edge7" class="edge">
<title>OauthModule&#45;&gt;ServerTestModule</title>
<path fill="none" stroke="black" d="M490,-84.81C490,-100.85 490,-121.8 490,-121.8 490,-121.8 611.78,-121.8 611.78,-121.8"/>
<polygon fill="black" stroke="black" points="611.78,-125.3 621.78,-121.8 611.78,-118.3 611.78,-125.3"/>
</g>
<!-- RabbitMQWrapperTestModule -->
<g id="node8" class="node">
<title>RabbitMQWrapperTestModule</title>
<polygon fill="#8dd3c7" stroke="black" points="425.01,-84.8 422.01,-88.8 401.01,-88.8 398.01,-84.8 232.99,-84.8 232.99,-48.8 425.01,-48.8 425.01,-84.8"/>
<text text-anchor="middle" x="329" y="-62.6" font-family="Times,serif" font-size="14.00">RabbitMQWrapperTestModule</text>
</g>
<!-- RabbitMQWrapperTestModule&#45;&gt;ServerTestModule -->
<g id="edge8" class="edge">
<title>RabbitMQWrapperTestModule&#45;&gt;ServerTestModule</title>
<path fill="none" stroke="black" d="M329,-85.07C329,-103.36 329,-128.8 329,-128.8 329,-128.8 611.72,-128.8 611.72,-128.8"/>
<polygon fill="black" stroke="black" points="611.72,-132.3 621.72,-128.8 611.72,-125.3 611.72,-132.3"/>
</g>
<!-- TaskModule -->
<g id="node9" class="node">
<title>TaskModule</title>
<polygon fill="#8dd3c7" stroke="black" points="214.27,-84.8 211.27,-88.8 190.27,-88.8 187.27,-84.8 127.73,-84.8 127.73,-48.8 214.27,-48.8 214.27,-84.8"/>
<text text-anchor="middle" x="171" y="-62.6" font-family="Times,serif" font-size="14.00">TaskModule</text>
</g>
<!-- TaskModule&#45;&gt;ServerTestModule -->
<g id="edge9" class="edge">
<title>TaskModule&#45;&gt;ServerTestModule</title>
<path fill="none" stroke="black" d="M171,-84.93C171,-105.37 171,-135.8 171,-135.8 171,-135.8 611.88,-135.8 611.88,-135.8"/>
<polygon fill="black" stroke="black" points="611.88,-139.3 621.88,-135.8 611.88,-132.3 611.88,-139.3"/>
</g>
<!-- UserModule -->
<g id="node10" class="node">
<title>UserModule</title>
<polygon fill="#8dd3c7" stroke="black" points="109.99,-84.8 106.99,-88.8 85.99,-88.8 82.99,-84.8 24.01,-84.8 24.01,-48.8 109.99,-48.8 109.99,-84.8"/>
<text text-anchor="middle" x="67" y="-62.6" font-family="Times,serif" font-size="14.00">UserModule</text>
</g>
<!-- UserModule&#45;&gt;ServerTestModule -->
<g id="edge10" class="edge">
<title>UserModule&#45;&gt;ServerTestModule</title>
<path fill="none" stroke="black" d="M67,-84.81C67,-107.29 67,-142.8 67,-142.8 67,-142.8 611.63,-142.8 611.63,-142.8"/>
<polygon fill="black" stroke="black" points="611.63,-146.3 621.63,-142.8 611.63,-139.3 611.63,-146.3"/>
</g>
</g>
</svg>
