<?xml version="1.0" encoding="UTF-8" standalone="no"?>
<!DOCTYPE svg PUBLIC "-//W3C//DTD SVG 1.1//EN"
 "http://www.w3.org/Graphics/SVG/1.1/DTD/svg11.dtd">
<!-- Generated by graphviz version 5.0.0 (20220707.1540)
 -->
<!-- Title: dependencies Pages: 1 -->
<svg width="3855pt" height="174pt"
 viewBox="0.00 0.00 3855.00 173.80" xmlns="http://www.w3.org/2000/svg" xmlns:xlink="http://www.w3.org/1999/xlink">
<g id="graph0" class="graph" transform="scale(1 1) rotate(0) translate(4 169.8)">
<title>dependencies</title>
<polygon fill="white" stroke="transparent" points="-4,4 -4,-169.8 3851,-169.8 3851,4 -4,4"/>
<text text-anchor="middle" x="1923.5" y="-8.2" font-family="sans-serif" font-size="14.00">dependencies</text>
<g id="clust1" class="cluster">
<title>cluster_ServerTestModule</title>
<polygon fill="none" stroke="black" stroke-dasharray="1,5" points="8,-32.8 8,-157.8 3839,-157.8 3839,-32.8 8,-32.8"/>
</g>
<g id="clust3" class="cluster">
<title>cluster_ServerTestModule_imports</title>
<polygon fill="none" stroke="black" points="16,-40.8 16,-92.8 3831,-92.8 3831,-40.8 16,-40.8"/>
</g>
<!-- AccountApiModule -->
<g id="node1" class="node">
<title>AccountApiModule</title>
<polygon fill="#8dd3c7" stroke="black" points="3822.98,-84.8 3819.98,-88.8 3798.98,-88.8 3795.98,-84.8 3695.02,-84.8 3695.02,-48.8 3822.98,-48.8 3822.98,-84.8"/>
<text text-anchor="middle" x="3759" y="-62.6" font-family="Times,serif" font-size="14.00">AccountApiModule</text>
</g>
<!-- ServerTestModule -->
<g id="node27" class="node">
<title>ServerTestModule</title>
<polygon fill="#8dd3c7" stroke="black" points="1926.19,-149.8 1923.19,-153.8 1902.19,-153.8 1899.19,-149.8 1805.81,-149.8 1805.81,-113.8 1926.19,-113.8 1926.19,-149.8"/>
<text text-anchor="middle" x="1866" y="-127.6" font-family="Times,serif" font-size="14.00">ServerTestModule</text>
</g>
<!-- AccountApiModule&#45;&gt;ServerTestModule -->
<g id="edge1" class="edge">
<title>AccountApiModule&#45;&gt;ServerTestModule</title>
<path fill="none" stroke="black" d="M3759,-85.18C3759,-109.08 3759,-147.8 3759,-147.8 3759,-147.8 1936.31,-147.8 1936.31,-147.8"/>
<polygon fill="black" stroke="black" points="1936.31,-144.3 1926.31,-147.8 1936.31,-151.3 1936.31,-144.3"/>
</g>
<!-- AuthenticationApiModule -->
<g id="node2" class="node">
<title>AuthenticationApiModule</title>
<polygon fill="#8dd3c7" stroke="black" points="3676.75,-84.8 3673.75,-88.8 3652.75,-88.8 3649.75,-84.8 3513.25,-84.8 3513.25,-48.8 3676.75,-48.8 3676.75,-84.8"/>
<text text-anchor="middle" x="3595" y="-62.6" font-family="Times,serif" font-size="14.00">AuthenticationApiModule</text>
</g>
<!-- AuthenticationApiModule&#45;&gt;ServerTestModule -->
<g id="edge2" class="edge">
<title>AuthenticationApiModule&#45;&gt;ServerTestModule</title>
<path fill="none" stroke="black" d="M3595,-84.89C3595,-107.93 3595,-144.8 3595,-144.8 3595,-144.8 1936.27,-144.8 1936.27,-144.8"/>
<polygon fill="black" stroke="black" points="1936.27,-141.3 1926.27,-144.8 1936.27,-148.3 1936.27,-141.3"/>
</g>
<!-- CollaborativeStorageModule -->
<g id="node3" class="node">
<title>CollaborativeStorageModule</title>
<polygon fill="#8dd3c7" stroke="black" points="3495.02,-84.8 3492.02,-88.8 3471.02,-88.8 3468.02,-84.8 3316.98,-84.8 3316.98,-48.8 3495.02,-48.8 3495.02,-84.8"/>
<text text-anchor="middle" x="3406" y="-62.6" font-family="Times,serif" font-size="14.00">CollaborativeStorageModule</text>
</g>
<!-- CollaborativeStorageModule&#45;&gt;ServerTestModule -->
<g id="edge3" class="edge">
<title>CollaborativeStorageModule&#45;&gt;ServerTestModule</title>
<path fill="none" stroke="black" d="M3406,-84.96C3406,-107.15 3406,-141.8 3406,-141.8 3406,-141.8 1936.37,-141.8 1936.37,-141.8"/>
<polygon fill="black" stroke="black" points="1936.37,-138.3 1926.37,-141.8 1936.37,-145.3 1936.37,-138.3"/>
</g>
<!-- CoreModule -->
<g id="node4" class="node">
<title>CoreModule</title>
<polygon fill="#8dd3c7" stroke="black" points="3298.27,-84.8 3295.27,-88.8 3274.27,-88.8 3271.27,-84.8 3211.73,-84.8 3211.73,-48.8 3298.27,-48.8 3298.27,-84.8"/>
<text text-anchor="middle" x="3255" y="-62.6" font-family="Times,serif" font-size="14.00">CoreModule</text>
</g>
<!-- CoreModule&#45;&gt;ServerTestModule -->
<g id="edge4" class="edge">
<title>CoreModule&#45;&gt;ServerTestModule</title>
<path fill="none" stroke="black" d="M3255,-84.97C3255,-106.3 3255,-138.8 3255,-138.8 3255,-138.8 1936.13,-138.8 1936.13,-138.8"/>
<polygon fill="black" stroke="black" points="1936.13,-135.3 1926.13,-138.8 1936.13,-142.3 1936.13,-135.3"/>
</g>
<!-- FilesStorageClientModule -->
<g id="node5" class="node">
<title>FilesStorageClientModule</title>
<polygon fill="#8dd3c7" stroke="black" points="3193.77,-84.8 3190.77,-88.8 3169.77,-88.8 3166.77,-84.8 3030.23,-84.8 3030.23,-48.8 3193.77,-48.8 3193.77,-84.8"/>
<text text-anchor="middle" x="3112" y="-62.6" font-family="Times,serif" font-size="14.00">FilesStorageClientModule</text>
</g>
<!-- FilesStorageClientModule&#45;&gt;ServerTestModule -->
<g id="edge5" class="edge">
<title>FilesStorageClientModule&#45;&gt;ServerTestModule</title>
<path fill="none" stroke="black" d="M3112,-84.83C3112,-105.57 3112,-136.8 3112,-136.8 3112,-136.8 1936.1,-136.8 1936.1,-136.8"/>
<polygon fill="black" stroke="black" points="1936.1,-133.3 1926.1,-136.8 1936.1,-140.3 1936.1,-133.3"/>
</g>
<!-- ImportUserModule -->
<g id="node6" class="node">
<title>ImportUserModule</title>
<polygon fill="#8dd3c7" stroke="black" points="3012.09,-84.8 3009.09,-88.8 2988.09,-88.8 2985.09,-84.8 2887.91,-84.8 2887.91,-48.8 3012.09,-48.8 3012.09,-84.8"/>
<text text-anchor="middle" x="2950" y="-62.6" font-family="Times,serif" font-size="14.00">ImportUserModule</text>
</g>
<!-- ImportUserModule&#45;&gt;ServerTestModule -->
<g id="edge6" class="edge">
<title>ImportUserModule&#45;&gt;ServerTestModule</title>
<path fill="none" stroke="black" d="M2950,-85.11C2950,-104.95 2950,-133.8 2950,-133.8 2950,-133.8 1936.21,-133.8 1936.21,-133.8"/>
<polygon fill="black" stroke="black" points="1936.21,-130.3 1926.21,-133.8 1936.21,-137.3 1936.21,-130.3"/>
</g>
<!-- LearnroomModule -->
<g id="node7" class="node">
<title>LearnroomModule</title>
<polygon fill="#8dd3c7" stroke="black" points="2869.75,-84.8 2866.75,-88.8 2845.75,-88.8 2842.75,-84.8 2748.25,-84.8 2748.25,-48.8 2869.75,-48.8 2869.75,-84.8"/>
<text text-anchor="middle" x="2809" y="-62.6" font-family="Times,serif" font-size="14.00">LearnroomModule</text>
</g>
<!-- LearnroomModule&#45;&gt;ServerTestModule -->
<g id="edge7" class="edge">
<title>LearnroomModule&#45;&gt;ServerTestModule</title>
<path fill="none" stroke="black" d="M2809,-84.97C2809,-103.89 2809,-130.8 2809,-130.8 2809,-130.8 1936.42,-130.8 1936.42,-130.8"/>
<polygon fill="black" stroke="black" points="1936.42,-127.3 1926.42,-130.8 1936.42,-134.3 1936.42,-127.3"/>
</g>
<!-- LessonApiModule -->
<g id="node8" class="node">
<title>LessonApiModule</title>
<polygon fill="#8dd3c7" stroke="black" points="2730.21,-84.8 2727.21,-88.8 2706.21,-88.8 2703.21,-84.8 2609.79,-84.8 2609.79,-48.8 2730.21,-48.8 2730.21,-84.8"/>
<text text-anchor="middle" x="2670" y="-62.6" font-family="Times,serif" font-size="14.00">LessonApiModule</text>
</g>
<!-- LessonApiModule&#45;&gt;ServerTestModule -->
<g id="edge8" class="edge">
<title>LessonApiModule&#45;&gt;ServerTestModule</title>
<path fill="none" stroke="black" d="M2670,-85.1C2670,-103.07 2670,-127.8 2670,-127.8 2670,-127.8 1936.1,-127.8 1936.1,-127.8"/>
<polygon fill="black" stroke="black" points="1936.1,-124.3 1926.1,-127.8 1936.1,-131.3 1936.1,-124.3"/>
</g>
<!-- LoggerModule -->
<g id="node9" class="node">
<title>LoggerModule</title>
<polygon fill="#8dd3c7" stroke="black" points="2591.98,-84.8 2588.98,-88.8 2567.98,-88.8 2564.98,-84.8 2492.02,-84.8 2492.02,-48.8 2591.98,-48.8 2591.98,-84.8"/>
<text text-anchor="middle" x="2542" y="-62.6" font-family="Times,serif" font-size="14.00">LoggerModule</text>
</g>
<!-- LoggerModule&#45;&gt;ServerTestModule -->
<g id="edge9" class="edge">
<title>LoggerModule&#45;&gt;ServerTestModule</title>
<path fill="none" stroke="black" d="M2542,-84.82C2542,-102.17 2542,-125.8 2542,-125.8 2542,-125.8 1936.29,-125.8 1936.29,-125.8"/>
<polygon fill="black" stroke="black" points="1936.29,-122.3 1926.29,-125.8 1936.29,-129.3 1936.29,-122.3"/>
</g>
<!-- MongoMemoryDatabaseModule -->
<g id="node10" class="node">
<title>MongoMemoryDatabaseModule</title>
<polygon fill="#8dd3c7" stroke="black" points="2473.52,-84.8 2470.52,-88.8 2449.52,-88.8 2446.52,-84.8 2274.48,-84.8 2274.48,-48.8 2473.52,-48.8 2473.52,-84.8"/>
<text text-anchor="middle" x="2374" y="-62.6" font-family="Times,serif" font-size="14.00">MongoMemoryDatabaseModule</text>
</g>
<!-- MongoMemoryDatabaseModule&#45;&gt;ServerTestModule -->
<g id="edge10" class="edge">
<title>MongoMemoryDatabaseModule&#45;&gt;ServerTestModule</title>
<path fill="none" stroke="black" d="M2374,-84.83C2374,-101.2 2374,-122.8 2374,-122.8 2374,-122.8 1936.27,-122.8 1936.27,-122.8"/>
<polygon fill="black" stroke="black" points="1936.27,-119.3 1926.27,-122.8 1936.27,-126.3 1936.27,-119.3"/>
</g>
<!-- NewsModule -->
<g id="node11" class="node">
<title>NewsModule</title>
<polygon fill="#8dd3c7" stroke="black" points="2256.94,-84.8 2253.94,-88.8 2232.94,-88.8 2229.94,-84.8 2165.06,-84.8 2165.06,-48.8 2256.94,-48.8 2256.94,-84.8"/>
<text text-anchor="middle" x="2211" y="-62.6" font-family="Times,serif" font-size="14.00">NewsModule</text>
</g>
<!-- NewsModule&#45;&gt;ServerTestModule -->
<g id="edge11" class="edge">
<title>NewsModule&#45;&gt;ServerTestModule</title>
<path fill="none" stroke="black" d="M2211,-85.04C2211,-100.37 2211,-119.8 2211,-119.8 2211,-119.8 1936.49,-119.8 1936.49,-119.8"/>
<polygon fill="black" stroke="black" points="1936.49,-116.3 1926.49,-119.8 1936.49,-123.3 1936.49,-116.3"/>
</g>
<!-- OauthApiModule -->
<g id="node12" class="node">
<title>OauthApiModule</title>
<polygon fill="#8dd3c7" stroke="black" points="2147.27,-84.8 2144.27,-88.8 2123.27,-88.8 2120.27,-84.8 2032.73,-84.8 2032.73,-48.8 2147.27,-48.8 2147.27,-84.8"/>
<text text-anchor="middle" x="2090" y="-62.6" font-family="Times,serif" font-size="14.00">OauthApiModule</text>
</g>
<!-- OauthApiModule&#45;&gt;ServerTestModule -->
<g id="edge12" class="edge">
<title>OauthApiModule&#45;&gt;ServerTestModule</title>
<path fill="none" stroke="black" d="M2090,-84.85C2090,-99.17 2090,-116.8 2090,-116.8 2090,-116.8 1936.32,-116.8 1936.32,-116.8"/>
<polygon fill="black" stroke="black" points="1936.32,-113.3 1926.32,-116.8 1936.32,-120.3 1936.32,-113.3"/>
</g>
<!-- OauthProviderModule -->
<g id="node13" class="node">
<title>OauthProviderModule</title>
<polygon fill="#8dd3c7" stroke="black" points="2014.98,-84.8 2011.98,-88.8 1990.98,-88.8 1987.98,-84.8 1873.02,-84.8 1873.02,-48.8 2014.98,-48.8 2014.98,-84.8"/>
<text text-anchor="middle" x="1944" y="-62.6" font-family="Times,serif" font-size="14.00">OauthProviderModule</text>
</g>
<!-- OauthProviderModule&#45;&gt;ServerTestModule -->
<g id="edge13" class="edge">
<title>OauthProviderModule&#45;&gt;ServerTestModule</title>
<path fill="none" stroke="black" d="M1899.55,-84.91C1899.55,-84.91 1899.55,-103.79 1899.55,-103.79"/>
<polygon fill="black" stroke="black" points="1896.05,-103.79 1899.55,-113.79 1903.05,-103.79 1896.05,-103.79"/>
</g>
<!-- ProvisioningModule -->
<g id="node14" class="node">
<title>ProvisioningModule</title>
<polygon fill="#8dd3c7" stroke="black" points="1854.62,-84.8 1851.62,-88.8 1830.62,-88.8 1827.62,-84.8 1723.38,-84.8 1723.38,-48.8 1854.62,-48.8 1854.62,-84.8"/>
<text text-anchor="middle" x="1789" y="-62.6" font-family="Times,serif" font-size="14.00">ProvisioningModule</text>
</g>
<!-- ProvisioningModule&#45;&gt;ServerTestModule -->
<g id="edge14" class="edge">
<title>ProvisioningModule&#45;&gt;ServerTestModule</title>
<path fill="none" stroke="black" d="M1830.23,-84.91C1830.23,-84.91 1830.23,-103.79 1830.23,-103.79"/>
<polygon fill="black" stroke="black" points="1826.73,-103.79 1830.23,-113.79 1833.73,-103.79 1826.73,-103.79"/>
</g>
<!-- RabbitMQWrapperTestModule -->
<g id="node15" class="node">
<title>RabbitMQWrapperTestModule</title>
<polygon fill="#8dd3c7" stroke="black" points="1705.01,-84.8 1702.01,-88.8 1681.01,-88.8 1678.01,-84.8 1512.99,-84.8 1512.99,-48.8 1705.01,-48.8 1705.01,-84.8"/>
<text text-anchor="middle" x="1609" y="-62.6" font-family="Times,serif" font-size="14.00">RabbitMQWrapperTestModule</text>
</g>
<!-- RabbitMQWrapperTestModule&#45;&gt;ServerTestModule -->
<g id="edge15" class="edge">
<title>RabbitMQWrapperTestModule&#45;&gt;ServerTestModule</title>
<path fill="none" stroke="black" d="M1609,-84.85C1609,-99.17 1609,-116.8 1609,-116.8 1609,-116.8 1795.74,-116.8 1795.74,-116.8"/>
<polygon fill="black" stroke="black" points="1795.74,-120.3 1805.74,-116.8 1795.74,-113.3 1795.74,-120.3"/>
</g>
<!-- RedisModule -->
<g id="node16" class="node">
<title>RedisModule</title>
<polygon fill="#8dd3c7" stroke="black" points="1494.94,-84.8 1491.94,-88.8 1470.94,-88.8 1467.94,-84.8 1403.06,-84.8 1403.06,-48.8 1494.94,-48.8 1494.94,-84.8"/>
<text text-anchor="middle" x="1449" y="-62.6" font-family="Times,serif" font-size="14.00">RedisModule</text>
</g>
<!-- RedisModule&#45;&gt;ServerTestModule -->
<g id="edge16" class="edge">
<title>RedisModule&#45;&gt;ServerTestModule</title>
<path fill="none" stroke="black" d="M1449,-85.04C1449,-100.37 1449,-119.8 1449,-119.8 1449,-119.8 1795.81,-119.8 1795.81,-119.8"/>
<polygon fill="black" stroke="black" points="1795.81,-123.3 1805.81,-119.8 1795.81,-116.3 1795.81,-123.3"/>
</g>
<!-- RoleModule -->
<g id="node17" class="node">
<title>RoleModule</title>
<polygon fill="#8dd3c7" stroke="black" points="1384.99,-84.8 1381.99,-88.8 1360.99,-88.8 1357.99,-84.8 1299.01,-84.8 1299.01,-48.8 1384.99,-48.8 1384.99,-84.8"/>
<text text-anchor="middle" x="1342" y="-62.6" font-family="Times,serif" font-size="14.00">RoleModule</text>
</g>
<!-- RoleModule&#45;&gt;ServerTestModule -->
<g id="edge17" class="edge">
<title>RoleModule&#45;&gt;ServerTestModule</title>
<path fill="none" stroke="black" d="M1342,-84.83C1342,-101.2 1342,-122.8 1342,-122.8 1342,-122.8 1795.89,-122.8 1795.89,-122.8"/>
<polygon fill="black" stroke="black" points="1795.89,-126.3 1805.89,-122.8 1795.89,-119.3 1795.89,-126.3"/>
</g>
<!-- SchoolApiModule -->
<g id="node18" class="node">
<title>SchoolApiModule</title>
<polygon fill="#8dd3c7" stroke="black" points="1280.94,-84.8 1277.94,-88.8 1256.94,-88.8 1253.94,-84.8 1161.06,-84.8 1161.06,-48.8 1280.94,-48.8 1280.94,-84.8"/>
<text text-anchor="middle" x="1221" y="-62.6" font-family="Times,serif" font-size="14.00">SchoolApiModule</text>
</g>
<!-- SchoolApiModule&#45;&gt;ServerTestModule -->
<g id="edge18" class="edge">
<title>SchoolApiModule&#45;&gt;ServerTestModule</title>
<path fill="none" stroke="black" d="M1221,-84.82C1221,-102.17 1221,-125.8 1221,-125.8 1221,-125.8 1795.9,-125.8 1795.9,-125.8"/>
<polygon fill="black" stroke="black" points="1795.9,-129.3 1805.9,-125.8 1795.9,-122.3 1795.9,-129.3"/>
</g>
<!-- SharingApiModule -->
<g id="node19" class="node">
<title>SharingApiModule</title>
<polygon fill="#8dd3c7" stroke="black" points="1143.1,-84.8 1140.1,-88.8 1119.1,-88.8 1116.1,-84.8 1018.9,-84.8 1018.9,-48.8 1143.1,-48.8 1143.1,-84.8"/>
<text text-anchor="middle" x="1081" y="-62.6" font-family="Times,serif" font-size="14.00">SharingApiModule</text>
</g>
<!-- SharingApiModule&#45;&gt;ServerTestModule -->
<g id="edge19" class="edge">
<title>SharingApiModule&#45;&gt;ServerTestModule</title>
<path fill="none" stroke="black" d="M1081,-85.1C1081,-103.07 1081,-127.8 1081,-127.8 1081,-127.8 1795.71,-127.8 1795.71,-127.8"/>
<polygon fill="black" stroke="black" points="1795.71,-131.3 1805.71,-127.8 1795.71,-124.3 1795.71,-131.3"/>
</g>
<!-- SystemModule -->
<g id="node20" class="node">
<title>SystemModule</title>
<polygon fill="#8dd3c7" stroke="black" points="1001.28,-84.8 998.28,-88.8 977.28,-88.8 974.28,-84.8 900.72,-84.8 900.72,-48.8 1001.28,-48.8 1001.28,-84.8"/>
<text text-anchor="middle" x="951" y="-62.6" font-family="Times,serif" font-size="14.00">SystemModule</text>
</g>
<!-- SystemModule&#45;&gt;ServerTestModule -->
<g id="edge20" class="edge">
<title>SystemModule&#45;&gt;ServerTestModule</title>
<path fill="none" stroke="black" d="M951,-84.97C951,-103.89 951,-130.8 951,-130.8 951,-130.8 1795.61,-130.8 1795.61,-130.8"/>
<polygon fill="black" stroke="black" points="1795.61,-134.3 1805.61,-130.8 1795.61,-127.3 1795.61,-134.3"/>
</g>
<!-- TaskCardModule -->
<g id="node21" class="node">
<title>TaskCardModule</title>
<polygon fill="#8dd3c7" stroke="black" points="882.98,-84.8 879.98,-88.8 858.98,-88.8 855.98,-84.8 769.02,-84.8 769.02,-48.8 882.98,-48.8 882.98,-84.8"/>
<text text-anchor="middle" x="826" y="-62.6" font-family="Times,serif" font-size="14.00">TaskCardModule</text>
</g>
<!-- TaskCardModule&#45;&gt;ServerTestModule -->
<g id="edge21" class="edge">
<title>TaskCardModule&#45;&gt;ServerTestModule</title>
<path fill="none" stroke="black" d="M826,-85.11C826,-104.95 826,-133.8 826,-133.8 826,-133.8 1795.59,-133.8 1795.59,-133.8"/>
<polygon fill="black" stroke="black" points="1795.59,-137.3 1805.59,-133.8 1795.59,-130.3 1795.59,-137.3"/>
</g>
<!-- TaskModule -->
<g id="node22" class="node">
<title>TaskModule</title>
<polygon fill="#8dd3c7" stroke="black" points="751.27,-84.8 748.27,-88.8 727.27,-88.8 724.27,-84.8 664.73,-84.8 664.73,-48.8 751.27,-48.8 751.27,-84.8"/>
<text text-anchor="middle" x="708" y="-62.6" font-family="Times,serif" font-size="14.00">TaskModule</text>
</g>
<!-- TaskModule&#45;&gt;ServerTestModule -->
<g id="edge22" class="edge">
<title>TaskModule&#45;&gt;ServerTestModule</title>
<path fill="none" stroke="black" d="M708,-84.83C708,-105.57 708,-136.8 708,-136.8 708,-136.8 1795.78,-136.8 1795.78,-136.8"/>
<polygon fill="black" stroke="black" points="1795.78,-140.3 1805.78,-136.8 1795.78,-133.3 1795.78,-140.3"/>
</g>
<!-- ToolApiModule -->
<g id="node23" class="node">
<title>ToolApiModule</title>
<polygon fill="#8dd3c7" stroke="black" points="646.49,-84.8 643.49,-88.8 622.49,-88.8 619.49,-84.8 539.51,-84.8 539.51,-48.8 646.49,-48.8 646.49,-84.8"/>
<text text-anchor="middle" x="593" y="-62.6" font-family="Times,serif" font-size="14.00">ToolApiModule</text>
</g>
<!-- ToolApiModule&#45;&gt;ServerTestModule -->
<g id="edge23" class="edge">
<title>ToolApiModule&#45;&gt;ServerTestModule</title>
<path fill="none" stroke="black" d="M593,-84.97C593,-106.3 593,-138.8 593,-138.8 593,-138.8 1795.88,-138.8 1795.88,-138.8"/>
<polygon fill="black" stroke="black" points="1795.88,-142.3 1805.88,-138.8 1795.88,-135.3 1795.88,-142.3"/>
</g>
<!-- UserApiModule -->
<g id="node24" class="node">
<title>UserApiModule</title>
<polygon fill="#8dd3c7" stroke="black" points="521.49,-84.8 518.49,-88.8 497.49,-88.8 494.49,-84.8 414.51,-84.8 414.51,-48.8 521.49,-48.8 521.49,-84.8"/>
<text text-anchor="middle" x="468" y="-62.6" font-family="Times,serif" font-size="14.00">UserApiModule</text>
</g>
<!-- UserApiModule&#45;&gt;ServerTestModule -->
<g id="edge24" class="edge">
<title>UserApiModule&#45;&gt;ServerTestModule</title>
<path fill="none" stroke="black" d="M468,-84.96C468,-107.15 468,-141.8 468,-141.8 468,-141.8 1795.48,-141.8 1795.48,-141.8"/>
<polygon fill="black" stroke="black" points="1795.48,-145.3 1805.48,-141.8 1795.48,-138.3 1795.48,-145.3"/>
</g>
<!-- UserLoginMigrationApiModule -->
<g id="node25" class="node">
<title>UserLoginMigrationApiModule</title>
<polygon fill="#8dd3c7" stroke="black" points="396.42,-84.8 393.42,-88.8 372.42,-88.8 369.42,-84.8 199.58,-84.8 199.58,-48.8 396.42,-48.8 396.42,-84.8"/>
<text text-anchor="middle" x="298" y="-62.6" font-family="Times,serif" font-size="14.00">UserLoginMigrationApiModule</text>
</g>
<!-- UserLoginMigrationApiModule&#45;&gt;ServerTestModule -->
<g id="edge25" class="edge">
<title>UserLoginMigrationApiModule&#45;&gt;ServerTestModule</title>
<path fill="none" stroke="black" d="M298,-84.89C298,-107.93 298,-144.8 298,-144.8 298,-144.8 1795.49,-144.8 1795.49,-144.8"/>
<polygon fill="black" stroke="black" points="1795.49,-148.3 1805.49,-144.8 1795.49,-141.3 1795.49,-148.3"/>
</g>
<!-- VideoConferenceModule -->
<g id="node26" class="node">
<title>VideoConferenceModule</title>
<polygon fill="#8dd3c7" stroke="black" points="182.28,-84.8 179.28,-88.8 158.28,-88.8 155.28,-84.8 23.72,-84.8 23.72,-48.8 182.28,-48.8 182.28,-84.8"/>
<text text-anchor="middle" x="103" y="-62.6" font-family="Times,serif" font-size="14.00">VideoConferenceModule</text>
</g>
<!-- VideoConferenceModule&#45;&gt;ServerTestModule -->
<g id="edge26" class="edge">
<title>VideoConferenceModule&#45;&gt;ServerTestModule</title>
<path fill="none" stroke="black" d="M103,-85.18C103,-109.08 103,-147.8 103,-147.8 103,-147.8 1795.82,-147.8 1795.82,-147.8"/>
<polygon fill="black" stroke="black" points="1795.82,-151.3 1805.82,-147.8 1795.82,-144.3 1795.82,-151.3"/>
</g>
</g>
</svg>
