<?xml version="1.0" encoding="UTF-8" standalone="no"?>
<!DOCTYPE svg PUBLIC "-//W3C//DTD SVG 1.1//EN"
 "http://www.w3.org/Graphics/SVG/1.1/DTD/svg11.dtd">
<!-- Generated by graphviz version 2.47.3 (20210619.1520)
 -->
<!-- Title: dependencies Pages: 1 -->
<svg width="1493pt" height="174pt"
 viewBox="0.00 0.00 1493.00 173.80" xmlns="http://www.w3.org/2000/svg" xmlns:xlink="http://www.w3.org/1999/xlink">
<g id="graph0" class="graph" transform="scale(1 1) rotate(0) translate(4 169.8)">
<title>dependencies</title>
<polygon fill="white" stroke="transparent" points="-4,4 -4,-169.8 1489,-169.8 1489,4 -4,4"/>
<text text-anchor="middle" x="742.5" y="-8.2" font-family="sans-serif" font-size="14.00">dependencies</text>
<g id="clust1" class="cluster">
<title>cluster_ServerTestModule</title>
<polygon fill="none" stroke="black" stroke-dasharray="1,5" points="8,-32.8 8,-157.8 1477,-157.8 1477,-32.8 8,-32.8"/>
</g>
<g id="clust3" class="cluster">
<title>cluster_ServerTestModule_imports</title>
<polygon fill="none" stroke="black" points="16,-40.8 16,-92.8 1469,-92.8 1469,-40.8 16,-40.8"/>
</g>
<!-- AuthModule -->
<g id="node1" class="node">
<title>AuthModule</title>
<polygon fill="#8dd3c7" stroke="black" points="1460.55,-84.8 1457.55,-88.8 1436.55,-88.8 1433.55,-84.8 1373.45,-84.8 1373.45,-48.8 1460.55,-48.8 1460.55,-84.8"/>
<text text-anchor="middle" x="1417" y="-62.6" font-family="Times,serif" font-size="14.00">AuthModule</text>
</g>
<!-- ServerTestModule -->
<g id="node12" class="node">
<title>ServerTestModule</title>
<polygon fill="#8dd3c7" stroke="black" points="824.19,-149.8 821.19,-153.8 800.19,-153.8 797.19,-149.8 703.81,-149.8 703.81,-113.8 824.19,-113.8 824.19,-149.8"/>
<text text-anchor="middle" x="764" y="-127.6" font-family="Times,serif" font-size="14.00">ServerTestModule</text>
</g>
<!-- AuthModule&#45;&gt;ServerTestModule -->
<g id="edge1" class="edge">
<title>AuthModule&#45;&gt;ServerTestModule</title>
<path fill="none" stroke="black" d="M1417,-84.89C1417,-107.93 1417,-144.8 1417,-144.8 1417,-144.8 834.26,-144.8 834.26,-144.8"/>
<polygon fill="black" stroke="black" points="834.26,-141.3 824.26,-144.8 834.26,-148.3 834.26,-141.3"/>
</g>
<!-- CoreModule -->
<g id="node2" class="node">
<title>CoreModule</title>
<polygon fill="#8dd3c7" stroke="black" points="1355.26,-84.8 1352.26,-88.8 1331.26,-88.8 1328.26,-84.8 1268.74,-84.8 1268.74,-48.8 1355.26,-48.8 1355.26,-84.8"/>
<text text-anchor="middle" x="1312" y="-62.6" font-family="Times,serif" font-size="14.00">CoreModule</text>
</g>
<!-- CoreModule&#45;&gt;ServerTestModule -->
<g id="edge2" class="edge">
<title>CoreModule&#45;&gt;ServerTestModule</title>
<path fill="none" stroke="black" d="M1312,-85.08C1312,-106.12 1312,-137.8 1312,-137.8 1312,-137.8 834.21,-137.8 834.21,-137.8"/>
<polygon fill="black" stroke="black" points="834.21,-134.3 824.21,-137.8 834.21,-141.3 834.21,-134.3"/>
</g>
<!-- FilesModule -->
<g id="node3" class="node">
<title>FilesModule</title>
<polygon fill="#8dd3c7" stroke="black" points="1250.27,-84.8 1247.27,-88.8 1226.27,-88.8 1223.27,-84.8 1163.73,-84.8 1163.73,-48.8 1250.27,-48.8 1250.27,-84.8"/>
<text text-anchor="middle" x="1207" y="-62.6" font-family="Times,serif" font-size="14.00">FilesModule</text>
</g>
<!-- FilesModule&#45;&gt;ServerTestModule -->
<g id="edge3" class="edge">
<title>FilesModule&#45;&gt;ServerTestModule</title>
<path fill="none" stroke="black" d="M1207,-84.91C1207,-104.14 1207,-131.8 1207,-131.8 1207,-131.8 834.21,-131.8 834.21,-131.8"/>
<polygon fill="black" stroke="black" points="834.21,-128.3 824.21,-131.8 834.21,-135.3 834.21,-128.3"/>
</g>
<!-- ImportUserModule -->
<g id="node4" class="node">
<title>ImportUserModule</title>
<polygon fill="#8dd3c7" stroke="black" points="1146.08,-84.8 1143.08,-88.8 1122.08,-88.8 1119.08,-84.8 1021.92,-84.8 1021.92,-48.8 1146.08,-48.8 1146.08,-84.8"/>
<text text-anchor="middle" x="1084" y="-62.6" font-family="Times,serif" font-size="14.00">ImportUserModule</text>
</g>
<!-- ImportUserModule&#45;&gt;ServerTestModule -->
<g id="edge4" class="edge">
<title>ImportUserModule&#45;&gt;ServerTestModule</title>
<path fill="none" stroke="black" d="M1084,-84.82C1084,-102.17 1084,-125.8 1084,-125.8 1084,-125.8 834.19,-125.8 834.19,-125.8"/>
<polygon fill="black" stroke="black" points="834.19,-122.3 824.19,-125.8 834.19,-129.3 834.19,-122.3"/>
</g>
<!-- LearnroomModule -->
<g id="node5" class="node">
<title>LearnroomModule</title>
<polygon fill="#8dd3c7" stroke="black" points="1003.74,-84.8 1000.74,-88.8 979.74,-88.8 976.74,-84.8 882.26,-84.8 882.26,-48.8 1003.74,-48.8 1003.74,-84.8"/>
<text text-anchor="middle" x="943" y="-62.6" font-family="Times,serif" font-size="14.00">LearnroomModule</text>
</g>
<!-- LearnroomModule&#45;&gt;ServerTestModule -->
<g id="edge5" class="edge">
<title>LearnroomModule&#45;&gt;ServerTestModule</title>
<path fill="none" stroke="black" d="M943,-85.04C943,-100.37 943,-119.8 943,-119.8 943,-119.8 834.1,-119.8 834.1,-119.8"/>
<polygon fill="black" stroke="black" points="834.1,-116.3 824.1,-119.8 834.1,-123.3 834.1,-116.3"/>
</g>
<!-- MongoMemoryDatabaseModule -->
<g id="node6" class="node">
<title>MongoMemoryDatabaseModule</title>
<polygon fill="#8dd3c7" stroke="black" points="863.51,-84.8 860.51,-88.8 839.51,-88.8 836.51,-84.8 664.49,-84.8 664.49,-48.8 863.51,-48.8 863.51,-84.8"/>
<text text-anchor="middle" x="764" y="-62.6" font-family="Times,serif" font-size="14.00">MongoMemoryDatabaseModule</text>
</g>
<!-- MongoMemoryDatabaseModule&#45;&gt;ServerTestModule -->
<g id="edge6" class="edge">
<title>MongoMemoryDatabaseModule&#45;&gt;ServerTestModule</title>
<path fill="none" stroke="black" d="M764,-84.91C764,-84.91 764,-103.79 764,-103.79"/>
<polygon fill="black" stroke="black" points="760.5,-103.79 764,-113.79 767.5,-103.79 760.5,-103.79"/>
</g>
<!-- NewsModule -->
<g id="node7" class="node">
<title>NewsModule</title>
<polygon fill="#8dd3c7" stroke="black" points="646.92,-84.8 643.92,-88.8 622.92,-88.8 619.92,-84.8 555.08,-84.8 555.08,-48.8 646.92,-48.8 646.92,-84.8"/>
<text text-anchor="middle" x="601" y="-62.6" font-family="Times,serif" font-size="14.00">NewsModule</text>
</g>
<!-- NewsModule&#45;&gt;ServerTestModule -->
<g id="edge7" class="edge">
<title>NewsModule&#45;&gt;ServerTestModule</title>
<path fill="none" stroke="black" d="M601,-85.04C601,-100.37 601,-119.8 601,-119.8 601,-119.8 693.77,-119.8 693.77,-119.8"/>
<polygon fill="black" stroke="black" points="693.77,-123.3 703.77,-119.8 693.77,-116.3 693.77,-123.3"/>
</g>
<!-- OauthModule -->
<g id="node8" class="node">
<title>OauthModule</title>
<polygon fill="#8dd3c7" stroke="black" points="536.76,-84.8 533.76,-88.8 512.76,-88.8 509.76,-84.8 443.24,-84.8 443.24,-48.8 536.76,-48.8 536.76,-84.8"/>
<text text-anchor="middle" x="490" y="-62.6" font-family="Times,serif" font-size="14.00">OauthModule</text>
</g>
<!-- OauthModule&#45;&gt;ServerTestModule -->
<g id="edge8" class="edge">
<title>OauthModule&#45;&gt;ServerTestModule</title>
<path fill="none" stroke="black" d="M490,-84.82C490,-102.17 490,-125.8 490,-125.8 490,-125.8 693.87,-125.8 693.87,-125.8"/>
<polygon fill="black" stroke="black" points="693.87,-129.3 703.87,-125.8 693.87,-122.3 693.87,-129.3"/>
</g>
<!-- RabbitMQWrapperTestModule -->
<g id="node9" class="node">
<title>RabbitMQWrapperTestModule</title>
<polygon fill="#8dd3c7" stroke="black" points="425,-84.8 422,-88.8 401,-88.8 398,-84.8 233,-84.8 233,-48.8 425,-48.8 425,-84.8"/>
<text text-anchor="middle" x="329" y="-62.6" font-family="Times,serif" font-size="14.00">RabbitMQWrapperTestModule</text>
</g>
<!-- RabbitMQWrapperTestModule&#45;&gt;ServerTestModule -->
<g id="edge9" class="edge">
<title>RabbitMQWrapperTestModule&#45;&gt;ServerTestModule</title>
<path fill="none" stroke="black" d="M329,-84.91C329,-104.14 329,-131.8 329,-131.8 329,-131.8 693.52,-131.8 693.52,-131.8"/>
<polygon fill="black" stroke="black" points="693.52,-135.3 703.52,-131.8 693.52,-128.3 693.52,-135.3"/>
</g>
<!-- TaskModule -->
<g id="node10" class="node">
<title>TaskModule</title>
<polygon fill="#8dd3c7" stroke="black" points="214.26,-84.8 211.26,-88.8 190.26,-88.8 187.26,-84.8 127.74,-84.8 127.74,-48.8 214.26,-48.8 214.26,-84.8"/>
<text text-anchor="middle" x="171" y="-62.6" font-family="Times,serif" font-size="14.00">TaskModule</text>
</g>
<!-- TaskModule&#45;&gt;ServerTestModule -->
<g id="edge10" class="edge">
<title>TaskModule&#45;&gt;ServerTestModule</title>
<path fill="none" stroke="black" d="M171,-85.08C171,-106.12 171,-137.8 171,-137.8 171,-137.8 693.88,-137.8 693.88,-137.8"/>
<polygon fill="black" stroke="black" points="693.88,-141.3 703.88,-137.8 693.88,-134.3 693.88,-141.3"/>
</g>
<!-- UserModule -->
<g id="node11" class="node">
<title>UserModule</title>
<polygon fill="#8dd3c7" stroke="black" points="109.98,-84.8 106.98,-88.8 85.98,-88.8 82.98,-84.8 24.02,-84.8 24.02,-48.8 109.98,-48.8 109.98,-84.8"/>
<text text-anchor="middle" x="67" y="-62.6" font-family="Times,serif" font-size="14.00">UserModule</text>
</g>
<!-- UserModule&#45;&gt;ServerTestModule -->
<g id="edge11" class="edge">
<title>UserModule&#45;&gt;ServerTestModule</title>
<path fill="none" stroke="black" d="M67,-84.89C67,-107.93 67,-144.8 67,-144.8 67,-144.8 693.67,-144.8 693.67,-144.8"/>
<polygon fill="black" stroke="black" points="693.67,-148.3 703.67,-144.8 693.67,-141.3 693.67,-148.3"/>
</g>
</g>
</svg>
