<?xml version="1.0" encoding="UTF-8" standalone="no"?>
<!DOCTYPE svg PUBLIC "-//W3C//DTD SVG 1.1//EN"
 "http://www.w3.org/Graphics/SVG/1.1/DTD/svg11.dtd">
<!-- Generated by graphviz version 5.0.0 (20220707.1540)
 -->
<!-- Title: dependencies Pages: 1 -->
<svg width="3225pt" height="174pt"
 viewBox="0.00 0.00 3225.00 173.80" xmlns="http://www.w3.org/2000/svg" xmlns:xlink="http://www.w3.org/1999/xlink">
<g id="graph0" class="graph" transform="scale(1 1) rotate(0) translate(4 169.8)">
<title>dependencies</title>
<polygon fill="white" stroke="transparent" points="-4,4 -4,-169.8 3221,-169.8 3221,4 -4,4"/>
<text text-anchor="middle" x="1608.5" y="-8.2" font-family="sans-serif" font-size="14.00">dependencies</text>
<g id="clust1" class="cluster">
<title>cluster_ServerTestModule</title>
<polygon fill="none" stroke="black" stroke-dasharray="1,5" points="8,-32.8 8,-157.8 3209,-157.8 3209,-32.8 8,-32.8"/>
</g>
<g id="clust3" class="cluster">
<title>cluster_ServerTestModule_imports</title>
<polygon fill="none" stroke="black" points="16,-40.8 16,-92.8 3201,-92.8 3201,-40.8 16,-40.8"/>
</g>
<!-- AuthenticationApiModule -->
<g id="node1" class="node">
<title>AuthenticationApiModule</title>
<polygon fill="#8dd3c7" stroke="black" points="3192.75,-84.8 3189.75,-88.8 3168.75,-88.8 3165.75,-84.8 3029.25,-84.8 3029.25,-48.8 3192.75,-48.8 3192.75,-84.8"/>
<text text-anchor="middle" x="3111" y="-62.6" font-family="Times,serif" font-size="14.00">AuthenticationApiModule</text>
</g>
<!-- ServerTestModule -->
<g id="node23" class="node">
<title>ServerTestModule</title>
<polygon fill="#8dd3c7" stroke="black" points="1580.19,-149.8 1577.19,-153.8 1556.19,-153.8 1553.19,-149.8 1459.81,-149.8 1459.81,-113.8 1580.19,-113.8 1580.19,-149.8"/>
<text text-anchor="middle" x="1520" y="-127.6" font-family="Times,serif" font-size="14.00">ServerTestModule</text>
</g>
<!-- AuthenticationApiModule&#45;&gt;ServerTestModule -->
<g id="edge1" class="edge">
<title>AuthenticationApiModule&#45;&gt;ServerTestModule</title>
<path fill="none" stroke="black" d="M3111,-84.95C3111,-108.56 3111,-146.8 3111,-146.8 3111,-146.8 1590.43,-146.8 1590.43,-146.8"/>
<polygon fill="black" stroke="black" points="1590.43,-143.3 1580.43,-146.8 1590.43,-150.3 1590.43,-143.3"/>
</g>
<!-- CollaborativeStorageModule -->
<g id="node2" class="node">
<title>CollaborativeStorageModule</title>
<polygon fill="#8dd3c7" stroke="black" points="3011.02,-84.8 3008.02,-88.8 2987.02,-88.8 2984.02,-84.8 2832.98,-84.8 2832.98,-48.8 3011.02,-48.8 3011.02,-84.8"/>
<text text-anchor="middle" x="2922" y="-62.6" font-family="Times,serif" font-size="14.00">CollaborativeStorageModule</text>
</g>
<!-- CollaborativeStorageModule&#45;&gt;ServerTestModule -->
<g id="edge2" class="edge">
<title>CollaborativeStorageModule&#45;&gt;ServerTestModule</title>
<path fill="none" stroke="black" d="M2922,-85.05C2922,-107.82 2922,-143.8 2922,-143.8 2922,-143.8 1590.24,-143.8 1590.24,-143.8"/>
<polygon fill="black" stroke="black" points="1590.24,-140.3 1580.24,-143.8 1590.24,-147.3 1590.24,-140.3"/>
</g>
<!-- CoreModule -->
<g id="node3" class="node">
<title>CoreModule</title>
<polygon fill="#8dd3c7" stroke="black" points="2814.27,-84.8 2811.27,-88.8 2790.27,-88.8 2787.27,-84.8 2727.73,-84.8 2727.73,-48.8 2814.27,-48.8 2814.27,-84.8"/>
<text text-anchor="middle" x="2771" y="-62.6" font-family="Times,serif" font-size="14.00">CoreModule</text>
</g>
<!-- CoreModule&#45;&gt;ServerTestModule -->
<g id="edge3" class="edge">
<title>CoreModule&#45;&gt;ServerTestModule</title>
<path fill="none" stroke="black" d="M2771,-85.09C2771,-107.01 2771,-140.8 2771,-140.8 2771,-140.8 1590.34,-140.8 1590.34,-140.8"/>
<polygon fill="black" stroke="black" points="1590.34,-137.3 1580.34,-140.8 1590.34,-144.3 1590.34,-137.3"/>
</g>
<!-- FilesStorageClientModule -->
<g id="node4" class="node">
<title>FilesStorageClientModule</title>
<polygon fill="#8dd3c7" stroke="black" points="2709.77,-84.8 2706.77,-88.8 2685.77,-88.8 2682.77,-84.8 2546.23,-84.8 2546.23,-48.8 2709.77,-48.8 2709.77,-84.8"/>
<text text-anchor="middle" x="2628" y="-62.6" font-family="Times,serif" font-size="14.00">FilesStorageClientModule</text>
</g>
<!-- FilesStorageClientModule&#45;&gt;ServerTestModule -->
<g id="edge4" class="edge">
<title>FilesStorageClientModule&#45;&gt;ServerTestModule</title>
<path fill="none" stroke="black" d="M2628,-84.83C2628,-105.57 2628,-136.8 2628,-136.8 2628,-136.8 1590.36,-136.8 1590.36,-136.8"/>
<polygon fill="black" stroke="black" points="1590.36,-133.3 1580.36,-136.8 1590.36,-140.3 1590.36,-133.3"/>
</g>
<!-- ImportUserModule -->
<g id="node5" class="node">
<title>ImportUserModule</title>
<polygon fill="#8dd3c7" stroke="black" points="2528.09,-84.8 2525.09,-88.8 2504.09,-88.8 2501.09,-84.8 2403.91,-84.8 2403.91,-48.8 2528.09,-48.8 2528.09,-84.8"/>
<text text-anchor="middle" x="2466" y="-62.6" font-family="Times,serif" font-size="14.00">ImportUserModule</text>
</g>
<!-- ImportUserModule&#45;&gt;ServerTestModule -->
<g id="edge5" class="edge">
<title>ImportUserModule&#45;&gt;ServerTestModule</title>
<path fill="none" stroke="black" d="M2466,-85.11C2466,-104.95 2466,-133.8 2466,-133.8 2466,-133.8 1590.25,-133.8 1590.25,-133.8"/>
<polygon fill="black" stroke="black" points="1590.25,-130.3 1580.25,-133.8 1590.25,-137.3 1590.25,-130.3"/>
</g>
<!-- LearnroomModule -->
<g id="node6" class="node">
<title>LearnroomModule</title>
<polygon fill="#8dd3c7" stroke="black" points="2385.75,-84.8 2382.75,-88.8 2361.75,-88.8 2358.75,-84.8 2264.25,-84.8 2264.25,-48.8 2385.75,-48.8 2385.75,-84.8"/>
<text text-anchor="middle" x="2325" y="-62.6" font-family="Times,serif" font-size="14.00">LearnroomModule</text>
</g>
<!-- LearnroomModule&#45;&gt;ServerTestModule -->
<g id="edge6" class="edge">
<title>LearnroomModule&#45;&gt;ServerTestModule</title>
<path fill="none" stroke="black" d="M2325,-84.97C2325,-103.89 2325,-130.8 2325,-130.8 2325,-130.8 1590.18,-130.8 1590.18,-130.8"/>
<polygon fill="black" stroke="black" points="1590.18,-127.3 1580.18,-130.8 1590.18,-134.3 1590.18,-127.3"/>
</g>
<!-- LessonApiModule -->
<g id="node7" class="node">
<title>LessonApiModule</title>
<polygon fill="#8dd3c7" stroke="black" points="2246.21,-84.8 2243.21,-88.8 2222.21,-88.8 2219.21,-84.8 2125.79,-84.8 2125.79,-48.8 2246.21,-48.8 2246.21,-84.8"/>
<text text-anchor="middle" x="2186" y="-62.6" font-family="Times,serif" font-size="14.00">LessonApiModule</text>
</g>
<!-- LessonApiModule&#45;&gt;ServerTestModule -->
<g id="edge7" class="edge">
<title>LessonApiModule&#45;&gt;ServerTestModule</title>
<path fill="none" stroke="black" d="M2186,-85.1C2186,-103.07 2186,-127.8 2186,-127.8 2186,-127.8 1590.28,-127.8 1590.28,-127.8"/>
<polygon fill="black" stroke="black" points="1590.28,-124.3 1580.28,-127.8 1590.28,-131.3 1590.28,-124.3"/>
</g>
<!-- MongoMemoryDatabaseModule -->
<g id="node8" class="node">
<title>MongoMemoryDatabaseModule</title>
<polygon fill="#8dd3c7" stroke="black" points="2107.52,-84.8 2104.52,-88.8 2083.52,-88.8 2080.52,-84.8 1908.48,-84.8 1908.48,-48.8 2107.52,-48.8 2107.52,-84.8"/>
<text text-anchor="middle" x="2008" y="-62.6" font-family="Times,serif" font-size="14.00">MongoMemoryDatabaseModule</text>
</g>
<!-- MongoMemoryDatabaseModule&#45;&gt;ServerTestModule -->
<g id="edge8" class="edge">
<title>MongoMemoryDatabaseModule&#45;&gt;ServerTestModule</title>
<path fill="none" stroke="black" d="M2008,-84.84C2008,-101.53 2008,-123.8 2008,-123.8 2008,-123.8 1590.33,-123.8 1590.33,-123.8"/>
<polygon fill="black" stroke="black" points="1590.33,-120.3 1580.33,-123.8 1590.33,-127.3 1590.33,-120.3"/>
</g>
<!-- NewsModule -->
<g id="node9" class="node">
<title>NewsModule</title>
<polygon fill="#8dd3c7" stroke="black" points="1890.94,-84.8 1887.94,-88.8 1866.94,-88.8 1863.94,-84.8 1799.06,-84.8 1799.06,-48.8 1890.94,-48.8 1890.94,-84.8"/>
<text text-anchor="middle" x="1845" y="-62.6" font-family="Times,serif" font-size="14.00">NewsModule</text>
</g>
<!-- NewsModule&#45;&gt;ServerTestModule -->
<g id="edge9" class="edge">
<title>NewsModule&#45;&gt;ServerTestModule</title>
<path fill="none" stroke="black" d="M1845,-85.08C1845,-100.75 1845,-120.8 1845,-120.8 1845,-120.8 1590.37,-120.8 1590.37,-120.8"/>
<polygon fill="black" stroke="black" points="1590.37,-117.3 1580.37,-120.8 1590.37,-124.3 1590.37,-117.3"/>
</g>
<!-- OauthModule -->
<g id="node10" class="node">
<title>OauthModule</title>
<polygon fill="#8dd3c7" stroke="black" points="1780.77,-84.8 1777.77,-88.8 1756.77,-88.8 1753.77,-84.8 1687.23,-84.8 1687.23,-48.8 1780.77,-48.8 1780.77,-84.8"/>
<text text-anchor="middle" x="1734" y="-62.6" font-family="Times,serif" font-size="14.00">OauthModule</text>
</g>
<!-- OauthModule&#45;&gt;ServerTestModule -->
<g id="edge10" class="edge">
<title>OauthModule&#45;&gt;ServerTestModule</title>
<path fill="none" stroke="black" d="M1734,-84.92C1734,-99.58 1734,-117.8 1734,-117.8 1734,-117.8 1590.18,-117.8 1590.18,-117.8"/>
<polygon fill="black" stroke="black" points="1590.18,-114.3 1580.18,-117.8 1590.18,-121.3 1590.18,-114.3"/>
</g>
<!-- OauthProviderModule -->
<g id="node11" class="node">
<title>OauthProviderModule</title>
<polygon fill="#8dd3c7" stroke="black" points="1668.98,-84.8 1665.98,-88.8 1644.98,-88.8 1641.98,-84.8 1527.02,-84.8 1527.02,-48.8 1668.98,-48.8 1668.98,-84.8"/>
<text text-anchor="middle" x="1598" y="-62.6" font-family="Times,serif" font-size="14.00">OauthProviderModule</text>
</g>
<!-- OauthProviderModule&#45;&gt;ServerTestModule -->
<g id="edge11" class="edge">
<title>OauthProviderModule&#45;&gt;ServerTestModule</title>
<path fill="none" stroke="black" d="M1553.55,-84.91C1553.55,-84.91 1553.55,-103.79 1553.55,-103.79"/>
<polygon fill="black" stroke="black" points="1550.05,-103.79 1553.55,-113.79 1557.05,-103.79 1550.05,-103.79"/>
</g>
<!-- ProvisioningModule -->
<g id="node12" class="node">
<title>ProvisioningModule</title>
<polygon fill="#8dd3c7" stroke="black" points="1508.62,-84.8 1505.62,-88.8 1484.62,-88.8 1481.62,-84.8 1377.38,-84.8 1377.38,-48.8 1508.62,-48.8 1508.62,-84.8"/>
<text text-anchor="middle" x="1443" y="-62.6" font-family="Times,serif" font-size="14.00">ProvisioningModule</text>
</g>
<!-- ProvisioningModule&#45;&gt;ServerTestModule -->
<g id="edge12" class="edge">
<title>ProvisioningModule&#45;&gt;ServerTestModule</title>
<path fill="none" stroke="black" d="M1484.23,-84.91C1484.23,-84.91 1484.23,-103.79 1484.23,-103.79"/>
<polygon fill="black" stroke="black" points="1480.73,-103.79 1484.23,-113.79 1487.73,-103.79 1480.73,-103.79"/>
</g>
<!-- RabbitMQWrapperTestModule -->
<g id="node13" class="node">
<title>RabbitMQWrapperTestModule</title>
<polygon fill="#8dd3c7" stroke="black" points="1359.01,-84.8 1356.01,-88.8 1335.01,-88.8 1332.01,-84.8 1166.99,-84.8 1166.99,-48.8 1359.01,-48.8 1359.01,-84.8"/>
<text text-anchor="middle" x="1263" y="-62.6" font-family="Times,serif" font-size="14.00">RabbitMQWrapperTestModule</text>
</g>
<!-- RabbitMQWrapperTestModule&#45;&gt;ServerTestModule -->
<g id="edge13" class="edge">
<title>RabbitMQWrapperTestModule&#45;&gt;ServerTestModule</title>
<path fill="none" stroke="black" d="M1263,-84.92C1263,-99.58 1263,-117.8 1263,-117.8 1263,-117.8 1449.74,-117.8 1449.74,-117.8"/>
<polygon fill="black" stroke="black" points="1449.74,-121.3 1459.74,-117.8 1449.74,-114.3 1449.74,-121.3"/>
</g>
<!-- RoleModule -->
<g id="node14" class="node">
<title>RoleModule</title>
<polygon fill="#8dd3c7" stroke="black" points="1148.99,-84.8 1145.99,-88.8 1124.99,-88.8 1121.99,-84.8 1063.01,-84.8 1063.01,-48.8 1148.99,-48.8 1148.99,-84.8"/>
<text text-anchor="middle" x="1106" y="-62.6" font-family="Times,serif" font-size="14.00">RoleModule</text>
</g>
<!-- RoleModule&#45;&gt;ServerTestModule -->
<g id="edge14" class="edge">
<title>RoleModule&#45;&gt;ServerTestModule</title>
<path fill="none" stroke="black" d="M1106,-85.08C1106,-100.75 1106,-120.8 1106,-120.8 1106,-120.8 1449.8,-120.8 1449.8,-120.8"/>
<polygon fill="black" stroke="black" points="1449.8,-124.3 1459.8,-120.8 1449.8,-117.3 1449.8,-124.3"/>
</g>
<!-- SchoolApiModule -->
<g id="node15" class="node">
<title>SchoolApiModule</title>
<polygon fill="#8dd3c7" stroke="black" points="1044.94,-84.8 1041.94,-88.8 1020.94,-88.8 1017.94,-84.8 925.06,-84.8 925.06,-48.8 1044.94,-48.8 1044.94,-84.8"/>
<text text-anchor="middle" x="985" y="-62.6" font-family="Times,serif" font-size="14.00">SchoolApiModule</text>
</g>
<!-- SchoolApiModule&#45;&gt;ServerTestModule -->
<g id="edge15" class="edge">
<title>SchoolApiModule&#45;&gt;ServerTestModule</title>
<path fill="none" stroke="black" d="M985,-84.84C985,-101.53 985,-123.8 985,-123.8 985,-123.8 1449.67,-123.8 1449.67,-123.8"/>
<polygon fill="black" stroke="black" points="1449.67,-127.3 1459.67,-123.8 1449.67,-120.3 1449.67,-127.3"/>
</g>
<!-- SharingApiModule -->
<g id="node16" class="node">
<title>SharingApiModule</title>
<polygon fill="#8dd3c7" stroke="black" points="907.1,-84.8 904.1,-88.8 883.1,-88.8 880.1,-84.8 782.9,-84.8 782.9,-48.8 907.1,-48.8 907.1,-84.8"/>
<text text-anchor="middle" x="845" y="-62.6" font-family="Times,serif" font-size="14.00">SharingApiModule</text>
</g>
<!-- SharingApiModule&#45;&gt;ServerTestModule -->
<g id="edge16" class="edge">
<title>SharingApiModule&#45;&gt;ServerTestModule</title>
<path fill="none" stroke="black" d="M845,-85.1C845,-103.07 845,-127.8 845,-127.8 845,-127.8 1449.8,-127.8 1449.8,-127.8"/>
<polygon fill="black" stroke="black" points="1449.8,-131.3 1459.8,-127.8 1449.8,-124.3 1449.8,-131.3"/>
</g>
<!-- SystemModule -->
<g id="node17" class="node">
<title>SystemModule</title>
<polygon fill="#8dd3c7" stroke="black" points="765.28,-84.8 762.28,-88.8 741.28,-88.8 738.28,-84.8 664.72,-84.8 664.72,-48.8 765.28,-48.8 765.28,-84.8"/>
<text text-anchor="middle" x="715" y="-62.6" font-family="Times,serif" font-size="14.00">SystemModule</text>
</g>
<!-- SystemModule&#45;&gt;ServerTestModule -->
<g id="edge17" class="edge">
<title>SystemModule&#45;&gt;ServerTestModule</title>
<path fill="none" stroke="black" d="M715,-84.97C715,-103.89 715,-130.8 715,-130.8 715,-130.8 1449.82,-130.8 1449.82,-130.8"/>
<polygon fill="black" stroke="black" points="1449.82,-134.3 1459.82,-130.8 1449.82,-127.3 1449.82,-134.3"/>
</g>
<!-- TaskCardModule -->
<g id="node18" class="node">
<title>TaskCardModule</title>
<polygon fill="#8dd3c7" stroke="black" points="646.98,-84.8 643.98,-88.8 622.98,-88.8 619.98,-84.8 533.02,-84.8 533.02,-48.8 646.98,-48.8 646.98,-84.8"/>
<text text-anchor="middle" x="590" y="-62.6" font-family="Times,serif" font-size="14.00">TaskCardModule</text>
</g>
<!-- TaskCardModule&#45;&gt;ServerTestModule -->
<g id="edge18" class="edge">
<title>TaskCardModule&#45;&gt;ServerTestModule</title>
<path fill="none" stroke="black" d="M590,-85.11C590,-104.95 590,-133.8 590,-133.8 590,-133.8 1449.7,-133.8 1449.7,-133.8"/>
<polygon fill="black" stroke="black" points="1449.7,-137.3 1459.7,-133.8 1449.7,-130.3 1449.7,-137.3"/>
</g>
<!-- TaskModule -->
<g id="node19" class="node">
<title>TaskModule</title>
<polygon fill="#8dd3c7" stroke="black" points="515.27,-84.8 512.27,-88.8 491.27,-88.8 488.27,-84.8 428.73,-84.8 428.73,-48.8 515.27,-48.8 515.27,-84.8"/>
<text text-anchor="middle" x="472" y="-62.6" font-family="Times,serif" font-size="14.00">TaskModule</text>
</g>
<!-- TaskModule&#45;&gt;ServerTestModule -->
<g id="edge19" class="edge">
<title>TaskModule&#45;&gt;ServerTestModule</title>
<path fill="none" stroke="black" d="M472,-84.83C472,-105.57 472,-136.8 472,-136.8 472,-136.8 1449.89,-136.8 1449.89,-136.8"/>
<polygon fill="black" stroke="black" points="1449.89,-140.3 1459.89,-136.8 1449.89,-133.3 1449.89,-140.3"/>
</g>
<!-- ToolApiModule -->
<g id="node20" class="node">
<title>ToolApiModule</title>
<polygon fill="#8dd3c7" stroke="black" points="410.49,-84.8 407.49,-88.8 386.49,-88.8 383.49,-84.8 303.51,-84.8 303.51,-48.8 410.49,-48.8 410.49,-84.8"/>
<text text-anchor="middle" x="357" y="-62.6" font-family="Times,serif" font-size="14.00">ToolApiModule</text>
</g>
<!-- ToolApiModule&#45;&gt;ServerTestModule -->
<g id="edge20" class="edge">
<title>ToolApiModule&#45;&gt;ServerTestModule</title>
<path fill="none" stroke="black" d="M357,-85.09C357,-107.01 357,-140.8 357,-140.8 357,-140.8 1449.52,-140.8 1449.52,-140.8"/>
<polygon fill="black" stroke="black" points="1449.52,-144.3 1459.52,-140.8 1449.52,-137.3 1449.52,-144.3"/>
</g>
<!-- UserModule -->
<g id="node21" class="node">
<title>UserModule</title>
<polygon fill="#8dd3c7" stroke="black" points="285.99,-84.8 282.99,-88.8 261.99,-88.8 258.99,-84.8 200.01,-84.8 200.01,-48.8 285.99,-48.8 285.99,-84.8"/>
<text text-anchor="middle" x="243" y="-62.6" font-family="Times,serif" font-size="14.00">UserModule</text>
</g>
<!-- UserModule&#45;&gt;ServerTestModule -->
<g id="edge21" class="edge">
<title>UserModule&#45;&gt;ServerTestModule</title>
<path fill="none" stroke="black" d="M243,-85.05C243,-107.82 243,-143.8 243,-143.8 243,-143.8 1449.69,-143.8 1449.69,-143.8"/>
<polygon fill="black" stroke="black" points="1449.69,-147.3 1459.69,-143.8 1449.69,-140.3 1449.69,-147.3"/>
</g>
<!-- VideoConferenceModule -->
<g id="node22" class="node">
<title>VideoConferenceModule</title>
<polygon fill="#8dd3c7" stroke="black" points="182.28,-84.8 179.28,-88.8 158.28,-88.8 155.28,-84.8 23.72,-84.8 23.72,-48.8 182.28,-48.8 182.28,-84.8"/>
<text text-anchor="middle" x="103" y="-62.6" font-family="Times,serif" font-size="14.00">VideoConferenceModule</text>
</g>
<!-- VideoConferenceModule&#45;&gt;ServerTestModule -->
<g id="edge22" class="edge">
<title>VideoConferenceModule&#45;&gt;ServerTestModule</title>
<path fill="none" stroke="black" d="M103,-84.95C103,-108.56 103,-146.8 103,-146.8 103,-146.8 1449.57,-146.8 1449.57,-146.8"/>
<polygon fill="black" stroke="black" points="1449.57,-150.3 1459.57,-146.8 1449.57,-143.3 1449.57,-150.3"/>
</g>
</g>
</svg>
