<?xml version="1.0" encoding="UTF-8" standalone="no"?>
<!DOCTYPE svg PUBLIC "-//W3C//DTD SVG 1.1//EN"
 "http://www.w3.org/Graphics/SVG/1.1/DTD/svg11.dtd">
<!-- Generated by graphviz version 3.0.0 (20220226.1711)
 -->
<!-- Title: dependencies Pages: 1 -->
<svg width="1507pt" height="174pt"
 viewBox="0.00 0.00 1507.00 173.80" xmlns="http://www.w3.org/2000/svg" xmlns:xlink="http://www.w3.org/1999/xlink">
<g id="graph0" class="graph" transform="scale(1 1) rotate(0) translate(4 169.8)">
<title>dependencies</title>
<polygon fill="white" stroke="transparent" points="-4,4 -4,-169.8 1503,-169.8 1503,4 -4,4"/>
<text text-anchor="middle" x="749.5" y="-8.2" font-family="sans-serif" font-size="14.00">dependencies</text>
<g id="clust1" class="cluster">
<title>cluster_ServerTestModule</title>
<polygon fill="none" stroke="black" stroke-dasharray="1,5" points="8,-32.8 8,-157.8 1491,-157.8 1491,-32.8 8,-32.8"/>
</g>
<g id="clust3" class="cluster">
<title>cluster_ServerTestModule_imports</title>
<polygon fill="none" stroke="black" points="16,-40.8 16,-92.8 1483,-92.8 1483,-40.8 16,-40.8"/>
</g>
<!-- AuthModule -->
<g id="node1" class="node">
<title>AuthModule</title>
<polygon fill="#8dd3c7" stroke="black" points="1474.55,-84.8 1471.55,-88.8 1450.55,-88.8 1447.55,-84.8 1387.45,-84.8 1387.45,-48.8 1474.55,-48.8 1474.55,-84.8"/>
<text text-anchor="middle" x="1431" y="-62.6" font-family="Times,serif" font-size="14.00">AuthModule</text>
</g>
<!-- ServerTestModule -->
<g id="node12" class="node">
<title>ServerTestModule</title>
<polygon fill="#8dd3c7" stroke="black" points="780.19,-149.8 777.19,-153.8 756.19,-153.8 753.19,-149.8 659.81,-149.8 659.81,-113.8 780.19,-113.8 780.19,-149.8"/>
<text text-anchor="middle" x="720" y="-127.6" font-family="Times,serif" font-size="14.00">ServerTestModule</text>
</g>
<!-- AuthModule&#45;&gt;ServerTestModule -->
<g id="edge1" class="edge">
<title>AuthModule&#45;&gt;ServerTestModule</title>
<path fill="none" stroke="black" d="M1431,-84.81C1431,-107.29 1431,-142.8 1431,-142.8 1431,-142.8 790.31,-142.8 790.31,-142.8"/>
<polygon fill="black" stroke="black" points="790.31,-139.3 780.31,-142.8 790.31,-146.3 790.31,-139.3"/>
</g>
<!-- CoreModule -->
<g id="node2" class="node">
<title>CoreModule</title>
<polygon fill="#8dd3c7" stroke="black" points="1369.27,-84.8 1366.27,-88.8 1345.27,-88.8 1342.27,-84.8 1282.73,-84.8 1282.73,-48.8 1369.27,-48.8 1369.27,-84.8"/>
<text text-anchor="middle" x="1326" y="-62.6" font-family="Times,serif" font-size="14.00">CoreModule</text>
</g>
<!-- CoreModule&#45;&gt;ServerTestModule -->
<g id="edge2" class="edge">
<title>CoreModule&#45;&gt;ServerTestModule</title>
<path fill="none" stroke="black" d="M1326,-84.93C1326,-105.37 1326,-135.8 1326,-135.8 1326,-135.8 790.32,-135.8 790.32,-135.8"/>
<polygon fill="black" stroke="black" points="790.32,-132.3 780.32,-135.8 790.32,-139.3 790.32,-132.3"/>
</g>
<!-- ImportUserModule -->
<g id="node3" class="node">
<title>ImportUserModule</title>
<polygon fill="#8dd3c7" stroke="black" points="1265.09,-84.8 1262.09,-88.8 1241.09,-88.8 1238.09,-84.8 1140.91,-84.8 1140.91,-48.8 1265.09,-48.8 1265.09,-84.8"/>
<text text-anchor="middle" x="1203" y="-62.6" font-family="Times,serif" font-size="14.00">ImportUserModule</text>
</g>
<!-- ImportUserModule&#45;&gt;ServerTestModule -->
<g id="edge3" class="edge">
<title>ImportUserModule&#45;&gt;ServerTestModule</title>
<path fill="none" stroke="black" d="M1203,-85.07C1203,-103.36 1203,-128.8 1203,-128.8 1203,-128.8 790.2,-128.8 790.2,-128.8"/>
<polygon fill="black" stroke="black" points="790.2,-125.3 780.2,-128.8 790.2,-132.3 790.2,-125.3"/>
</g>
<!-- LearnroomModule -->
<g id="node4" class="node">
<title>LearnroomModule</title>
<polygon fill="#8dd3c7" stroke="black" points="1122.75,-84.8 1119.75,-88.8 1098.75,-88.8 1095.75,-84.8 1001.25,-84.8 1001.25,-48.8 1122.75,-48.8 1122.75,-84.8"/>
<text text-anchor="middle" x="1062" y="-62.6" font-family="Times,serif" font-size="14.00">LearnroomModule</text>
</g>
<!-- LearnroomModule&#45;&gt;ServerTestModule -->
<g id="edge4" class="edge">
<title>LearnroomModule&#45;&gt;ServerTestModule</title>
<path fill="none" stroke="black" d="M1062,-84.81C1062,-100.85 1062,-121.8 1062,-121.8 1062,-121.8 790.36,-121.8 790.36,-121.8"/>
<polygon fill="black" stroke="black" points="790.36,-118.3 780.36,-121.8 790.36,-125.3 790.36,-118.3"/>
</g>
<!-- MongoMemoryDatabaseModule -->
<g id="node5" class="node">
<title>MongoMemoryDatabaseModule</title>
<polygon fill="#8dd3c7" stroke="black" points="982.52,-84.8 979.52,-88.8 958.52,-88.8 955.52,-84.8 783.48,-84.8 783.48,-48.8 982.52,-48.8 982.52,-84.8"/>
<text text-anchor="middle" x="883" y="-62.6" font-family="Times,serif" font-size="14.00">MongoMemoryDatabaseModule</text>
</g>
<!-- MongoMemoryDatabaseModule&#45;&gt;ServerTestModule -->
<g id="edge5" class="edge">
<title>MongoMemoryDatabaseModule&#45;&gt;ServerTestModule</title>
<path fill="none" stroke="black" d="M783.46,-66.8C776.94,-66.8 772.91,-66.8 772.91,-66.8 772.91,-66.8 772.91,-103.69 772.91,-103.69"/>
<polygon fill="black" stroke="black" points="769.41,-103.69 772.91,-113.69 776.41,-103.69 769.41,-103.69"/>
</g>
<!-- NewsModule -->
<g id="node6" class="node">
<title>NewsModule</title>
<polygon fill="#8dd3c7" stroke="black" points="765.94,-84.8 762.94,-88.8 741.94,-88.8 738.94,-84.8 674.06,-84.8 674.06,-48.8 765.94,-48.8 765.94,-84.8"/>
<text text-anchor="middle" x="720" y="-62.6" font-family="Times,serif" font-size="14.00">NewsModule</text>
</g>
<!-- NewsModule&#45;&gt;ServerTestModule -->
<g id="edge6" class="edge">
<title>NewsModule&#45;&gt;ServerTestModule</title>
<path fill="none" stroke="black" d="M720,-84.91C720,-84.91 720,-103.79 720,-103.79"/>
<polygon fill="black" stroke="black" points="716.5,-103.79 720,-113.79 723.5,-103.79 716.5,-103.79"/>
</g>
<!-- OauthModule -->
<g id="node7" class="node">
<title>OauthModule</title>
<polygon fill="#8dd3c7" stroke="black" points="655.77,-84.8 652.77,-88.8 631.77,-88.8 628.77,-84.8 562.23,-84.8 562.23,-48.8 655.77,-48.8 655.77,-84.8"/>
<text text-anchor="middle" x="609" y="-62.6" font-family="Times,serif" font-size="14.00">OauthModule</text>
</g>
<!-- OauthModule&#45;&gt;ServerTestModule -->
<g id="edge7" class="edge">
<title>OauthModule&#45;&gt;ServerTestModule</title>
<path fill="none" stroke="black" d="M655.89,-66.8C662.5,-66.8 667.09,-66.8 667.09,-66.8 667.09,-66.8 667.09,-103.69 667.09,-103.69"/>
<polygon fill="black" stroke="black" points="663.59,-103.69 667.09,-113.69 670.59,-103.69 663.59,-103.69"/>
</g>
<!-- RabbitMQWrapperTestModule -->
<g id="node8" class="node">
<title>RabbitMQWrapperTestModule</title>
<polygon fill="#8dd3c7" stroke="black" points="544.01,-84.8 541.01,-88.8 520.01,-88.8 517.01,-84.8 351.99,-84.8 351.99,-48.8 544.01,-48.8 544.01,-84.8"/>
<text text-anchor="middle" x="448" y="-62.6" font-family="Times,serif" font-size="14.00">RabbitMQWrapperTestModule</text>
</g>
<!-- RabbitMQWrapperTestModule&#45;&gt;ServerTestModule -->
<g id="edge8" class="edge">
<title>RabbitMQWrapperTestModule&#45;&gt;ServerTestModule</title>
<path fill="none" stroke="black" d="M448,-84.81C448,-100.85 448,-121.8 448,-121.8 448,-121.8 649.63,-121.8 649.63,-121.8"/>
<polygon fill="black" stroke="black" points="649.63,-125.3 659.63,-121.8 649.63,-118.3 649.63,-125.3"/>
</g>
<!-- SystemModule -->
<g id="node9" class="node">
<title>SystemModule</title>
<polygon fill="#8dd3c7" stroke="black" points="333.28,-84.8 330.28,-88.8 309.28,-88.8 306.28,-84.8 232.72,-84.8 232.72,-48.8 333.28,-48.8 333.28,-84.8"/>
<text text-anchor="middle" x="283" y="-62.6" font-family="Times,serif" font-size="14.00">SystemModule</text>
</g>
<!-- SystemModule&#45;&gt;ServerTestModule -->
<g id="edge9" class="edge">
<title>SystemModule&#45;&gt;ServerTestModule</title>
<path fill="none" stroke="black" d="M283,-85.07C283,-103.36 283,-128.8 283,-128.8 283,-128.8 649.7,-128.8 649.7,-128.8"/>
<polygon fill="black" stroke="black" points="649.7,-132.3 659.7,-128.8 649.7,-125.3 649.7,-132.3"/>
</g>
<!-- TaskModule -->
<g id="node10" class="node">
<title>TaskModule</title>
<polygon fill="#8dd3c7" stroke="black" points="214.27,-84.8 211.27,-88.8 190.27,-88.8 187.27,-84.8 127.73,-84.8 127.73,-48.8 214.27,-48.8 214.27,-84.8"/>
<text text-anchor="middle" x="171" y="-62.6" font-family="Times,serif" font-size="14.00">TaskModule</text>
</g>
<!-- TaskModule&#45;&gt;ServerTestModule -->
<g id="edge10" class="edge">
<title>TaskModule&#45;&gt;ServerTestModule</title>
<path fill="none" stroke="black" d="M171,-84.93C171,-105.37 171,-135.8 171,-135.8 171,-135.8 649.68,-135.8 649.68,-135.8"/>
<polygon fill="black" stroke="black" points="649.68,-139.3 659.68,-135.8 649.68,-132.3 649.68,-139.3"/>
</g>
<!-- UserModule -->
<g id="node11" class="node">
<title>UserModule</title>
<polygon fill="#8dd3c7" stroke="black" points="109.99,-84.8 106.99,-88.8 85.99,-88.8 82.99,-84.8 24.01,-84.8 24.01,-48.8 109.99,-48.8 109.99,-84.8"/>
<text text-anchor="middle" x="67" y="-62.6" font-family="Times,serif" font-size="14.00">UserModule</text>
</g>
<!-- UserModule&#45;&gt;ServerTestModule -->
<g id="edge11" class="edge">
<title>UserModule&#45;&gt;ServerTestModule</title>
<path fill="none" stroke="black" d="M67,-84.81C67,-107.29 67,-142.8 67,-142.8 67,-142.8 649.74,-142.8 649.74,-142.8"/>
<polygon fill="black" stroke="black" points="649.74,-146.3 659.74,-142.8 649.74,-139.3 649.74,-146.3"/>
</g>
</g>
</svg>
