<?xml version="1.0" encoding="UTF-8" standalone="no"?>
<!DOCTYPE svg PUBLIC "-//W3C//DTD SVG 1.1//EN"
 "http://www.w3.org/Graphics/SVG/1.1/DTD/svg11.dtd">
<!-- Generated by graphviz version 5.0.0 (20220707.1540)
 -->
<!-- Title: dependencies Pages: 1 -->
<svg width="2431pt" height="174pt"
 viewBox="0.00 0.00 2431.00 173.80" xmlns="http://www.w3.org/2000/svg" xmlns:xlink="http://www.w3.org/1999/xlink">
<g id="graph0" class="graph" transform="scale(1 1) rotate(0) translate(4 169.8)">
<title>dependencies</title>
<polygon fill="white" stroke="transparent" points="-4,4 -4,-169.8 2427,-169.8 2427,4 -4,4"/>
<text text-anchor="middle" x="1211.5" y="-8.2" font-family="sans-serif" font-size="14.00">dependencies</text>
<g id="clust1" class="cluster">
<title>cluster_ServerTestModule</title>
<polygon fill="none" stroke="black" stroke-dasharray="1,5" points="8,-32.8 8,-157.8 2415,-157.8 2415,-32.8 8,-32.8"/>
</g>
<g id="clust3" class="cluster">
<title>cluster_ServerTestModule_imports</title>
<polygon fill="none" stroke="black" points="16,-40.8 16,-92.8 2407,-92.8 2407,-40.8 16,-40.8"/>
</g>
<!-- AuthModule -->
<g id="node1" class="node">
<title>AuthModule</title>
<polygon fill="#8dd3c7" stroke="black" points="2398.55,-84.8 2395.55,-88.8 2374.55,-88.8 2371.55,-84.8 2311.45,-84.8 2311.45,-48.8 2398.55,-48.8 2398.55,-84.8"/>
<text text-anchor="middle" x="2355" y="-62.6" font-family="Times,serif" font-size="14.00">AuthModule</text>
</g>
<!-- ServerTestModule -->
<g id="node18" class="node">
<title>ServerTestModule</title>
<polygon fill="#8dd3c7" stroke="black" points="1214.19,-149.8 1211.19,-153.8 1190.19,-153.8 1187.19,-149.8 1093.81,-149.8 1093.81,-113.8 1214.19,-113.8 1214.19,-149.8"/>
<text text-anchor="middle" x="1154" y="-127.6" font-family="Times,serif" font-size="14.00">ServerTestModule</text>
</g>
<!-- AuthModule&#45;&gt;ServerTestModule -->
<g id="edge1" class="edge">
<title>AuthModule&#45;&gt;ServerTestModule</title>
<path fill="none" stroke="black" d="M2355,-85.12C2355,-108.46 2355,-145.8 2355,-145.8 2355,-145.8 1224.38,-145.8 1224.38,-145.8"/>
<polygon fill="black" stroke="black" points="1224.38,-142.3 1214.38,-145.8 1224.38,-149.3 1224.38,-142.3"/>
</g>
<!-- CollaborativeStorageModule -->
<g id="node2" class="node">
<title>CollaborativeStorageModule</title>
<polygon fill="#8dd3c7" stroke="black" points="2293.02,-84.8 2290.02,-88.8 2269.02,-88.8 2266.02,-84.8 2114.98,-84.8 2114.98,-48.8 2293.02,-48.8 2293.02,-84.8"/>
<text text-anchor="middle" x="2204" y="-62.6" font-family="Times,serif" font-size="14.00">CollaborativeStorageModule</text>
</g>
<!-- CollaborativeStorageModule&#45;&gt;ServerTestModule -->
<g id="edge2" class="edge">
<title>CollaborativeStorageModule&#45;&gt;ServerTestModule</title>
<path fill="none" stroke="black" d="M2204,-85.09C2204,-107.01 2204,-140.8 2204,-140.8 2204,-140.8 1224.22,-140.8 1224.22,-140.8"/>
<polygon fill="black" stroke="black" points="1224.22,-137.3 1214.22,-140.8 1224.22,-144.3 1224.22,-137.3"/>
</g>
<!-- CoreModule -->
<g id="node3" class="node">
<title>CoreModule</title>
<polygon fill="#8dd3c7" stroke="black" points="2096.27,-84.8 2093.27,-88.8 2072.27,-88.8 2069.27,-84.8 2009.73,-84.8 2009.73,-48.8 2096.27,-48.8 2096.27,-84.8"/>
<text text-anchor="middle" x="2053" y="-62.6" font-family="Times,serif" font-size="14.00">CoreModule</text>
</g>
<!-- CoreModule&#45;&gt;ServerTestModule -->
<g id="edge3" class="edge">
<title>CoreModule&#45;&gt;ServerTestModule</title>
<path fill="none" stroke="black" d="M2053,-84.83C2053,-105.57 2053,-136.8 2053,-136.8 2053,-136.8 1224.38,-136.8 1224.38,-136.8"/>
<polygon fill="black" stroke="black" points="1224.38,-133.3 1214.38,-136.8 1224.38,-140.3 1224.38,-133.3"/>
</g>
<!-- FilesStorageClientModule -->
<g id="node4" class="node">
<title>FilesStorageClientModule</title>
<polygon fill="#8dd3c7" stroke="black" points="1991.77,-84.8 1988.77,-88.8 1967.77,-88.8 1964.77,-84.8 1828.23,-84.8 1828.23,-48.8 1991.77,-48.8 1991.77,-84.8"/>
<text text-anchor="middle" x="1910" y="-62.6" font-family="Times,serif" font-size="14.00">FilesStorageClientModule</text>
</g>
<!-- FilesStorageClientModule&#45;&gt;ServerTestModule -->
<g id="edge4" class="edge">
<title>FilesStorageClientModule&#45;&gt;ServerTestModule</title>
<path fill="none" stroke="black" d="M1910,-84.91C1910,-104.14 1910,-131.8 1910,-131.8 1910,-131.8 1224.27,-131.8 1224.27,-131.8"/>
<polygon fill="black" stroke="black" points="1224.27,-128.3 1214.27,-131.8 1224.27,-135.3 1224.27,-128.3"/>
</g>
<!-- ImportUserModule -->
<g id="node5" class="node">
<title>ImportUserModule</title>
<polygon fill="#8dd3c7" stroke="black" points="1810.09,-84.8 1807.09,-88.8 1786.09,-88.8 1783.09,-84.8 1685.91,-84.8 1685.91,-48.8 1810.09,-48.8 1810.09,-84.8"/>
<text text-anchor="middle" x="1748" y="-62.6" font-family="Times,serif" font-size="14.00">ImportUserModule</text>
</g>
<!-- ImportUserModule&#45;&gt;ServerTestModule -->
<g id="edge5" class="edge">
<title>ImportUserModule&#45;&gt;ServerTestModule</title>
<path fill="none" stroke="black" d="M1748,-85.1C1748,-103.07 1748,-127.8 1748,-127.8 1748,-127.8 1224.22,-127.8 1224.22,-127.8"/>
<polygon fill="black" stroke="black" points="1224.22,-124.3 1214.22,-127.8 1224.22,-131.3 1224.22,-124.3"/>
</g>
<!-- LearnroomModule -->
<g id="node6" class="node">
<title>LearnroomModule</title>
<polygon fill="#8dd3c7" stroke="black" points="1667.75,-84.8 1664.75,-88.8 1643.75,-88.8 1640.75,-84.8 1546.25,-84.8 1546.25,-48.8 1667.75,-48.8 1667.75,-84.8"/>
<text text-anchor="middle" x="1607" y="-62.6" font-family="Times,serif" font-size="14.00">LearnroomModule</text>
</g>
<!-- LearnroomModule&#45;&gt;ServerTestModule -->
<g id="edge6" class="edge">
<title>LearnroomModule&#45;&gt;ServerTestModule</title>
<path fill="none" stroke="black" d="M1607,-84.83C1607,-101.2 1607,-122.8 1607,-122.8 1607,-122.8 1224.15,-122.8 1224.15,-122.8"/>
<polygon fill="black" stroke="black" points="1224.15,-119.3 1214.15,-122.8 1224.15,-126.3 1224.15,-119.3"/>
</g>
<!-- MongoMemoryDatabaseModule -->
<g id="node7" class="node">
<title>MongoMemoryDatabaseModule</title>
<polygon fill="#8dd3c7" stroke="black" points="1527.52,-84.8 1524.52,-88.8 1503.52,-88.8 1500.52,-84.8 1328.48,-84.8 1328.48,-48.8 1527.52,-48.8 1527.52,-84.8"/>
<text text-anchor="middle" x="1428" y="-62.6" font-family="Times,serif" font-size="14.00">MongoMemoryDatabaseModule</text>
</g>
<!-- MongoMemoryDatabaseModule&#45;&gt;ServerTestModule -->
<g id="edge7" class="edge">
<title>MongoMemoryDatabaseModule&#45;&gt;ServerTestModule</title>
<path fill="none" stroke="black" d="M1428,-84.99C1428,-99.98 1428,-118.8 1428,-118.8 1428,-118.8 1224.13,-118.8 1224.13,-118.8"/>
<polygon fill="black" stroke="black" points="1224.13,-115.3 1214.13,-118.8 1224.13,-122.3 1224.13,-115.3"/>
</g>
<!-- NewsModule -->
<g id="node8" class="node">
<title>NewsModule</title>
<polygon fill="#8dd3c7" stroke="black" points="1310.94,-84.8 1307.94,-88.8 1286.94,-88.8 1283.94,-84.8 1219.06,-84.8 1219.06,-48.8 1310.94,-48.8 1310.94,-84.8"/>
<text text-anchor="middle" x="1265" y="-62.6" font-family="Times,serif" font-size="14.00">NewsModule</text>
</g>
<!-- NewsModule&#45;&gt;ServerTestModule -->
<g id="edge8" class="edge">
<title>NewsModule&#45;&gt;ServerTestModule</title>
<path fill="none" stroke="black" d="M1219.13,-66.8C1212.3,-66.8 1207.49,-66.8 1207.49,-66.8 1207.49,-66.8 1207.49,-103.69 1207.49,-103.69"/>
<polygon fill="black" stroke="black" points="1203.99,-103.69 1207.49,-113.69 1210.99,-103.69 1203.99,-103.69"/>
</g>
<!-- OauthModule -->
<g id="node9" class="node">
<title>OauthModule</title>
<polygon fill="#8dd3c7" stroke="black" points="1200.77,-84.8 1197.77,-88.8 1176.77,-88.8 1173.77,-84.8 1107.23,-84.8 1107.23,-48.8 1200.77,-48.8 1200.77,-84.8"/>
<text text-anchor="middle" x="1154" y="-62.6" font-family="Times,serif" font-size="14.00">OauthModule</text>
</g>
<!-- OauthModule&#45;&gt;ServerTestModule -->
<g id="edge9" class="edge">
<title>OauthModule&#45;&gt;ServerTestModule</title>
<path fill="none" stroke="black" d="M1154,-84.91C1154,-84.91 1154,-103.79 1154,-103.79"/>
<polygon fill="black" stroke="black" points="1150.5,-103.79 1154,-113.79 1157.5,-103.79 1150.5,-103.79"/>
</g>
<!-- ProvisioningModule -->
<g id="node10" class="node">
<title>ProvisioningModule</title>
<polygon fill="#8dd3c7" stroke="black" points="1089.62,-84.8 1086.62,-88.8 1065.62,-88.8 1062.62,-84.8 958.38,-84.8 958.38,-48.8 1089.62,-48.8 1089.62,-84.8"/>
<text text-anchor="middle" x="1024" y="-62.6" font-family="Times,serif" font-size="14.00">ProvisioningModule</text>
</g>
<!-- ProvisioningModule&#45;&gt;ServerTestModule -->
<g id="edge10" class="edge">
<title>ProvisioningModule&#45;&gt;ServerTestModule</title>
<path fill="none" stroke="black" d="M1089.87,-66.8C1096.31,-66.8 1100.51,-66.8 1100.51,-66.8 1100.51,-66.8 1100.51,-103.69 1100.51,-103.69"/>
<polygon fill="black" stroke="black" points="1097.01,-103.69 1100.51,-113.69 1104.01,-103.69 1097.01,-103.69"/>
</g>
<!-- RabbitMQWrapperTestModule -->
<g id="node11" class="node">
<title>RabbitMQWrapperTestModule</title>
<polygon fill="#8dd3c7" stroke="black" points="940.01,-84.8 937.01,-88.8 916.01,-88.8 913.01,-84.8 747.99,-84.8 747.99,-48.8 940.01,-48.8 940.01,-84.8"/>
<text text-anchor="middle" x="844" y="-62.6" font-family="Times,serif" font-size="14.00">RabbitMQWrapperTestModule</text>
</g>
<!-- RabbitMQWrapperTestModule&#45;&gt;ServerTestModule -->
<g id="edge11" class="edge">
<title>RabbitMQWrapperTestModule&#45;&gt;ServerTestModule</title>
<path fill="none" stroke="black" d="M844,-84.99C844,-99.98 844,-118.8 844,-118.8 844,-118.8 1083.86,-118.8 1083.86,-118.8"/>
<polygon fill="black" stroke="black" points="1083.86,-122.3 1093.86,-118.8 1083.86,-115.3 1083.86,-122.3"/>
</g>
<!-- RoleModule -->
<g id="node12" class="node">
<title>RoleModule</title>
<polygon fill="#8dd3c7" stroke="black" points="729.99,-84.8 726.99,-88.8 705.99,-88.8 702.99,-84.8 644.01,-84.8 644.01,-48.8 729.99,-48.8 729.99,-84.8"/>
<text text-anchor="middle" x="687" y="-62.6" font-family="Times,serif" font-size="14.00">RoleModule</text>
</g>
<!-- RoleModule&#45;&gt;ServerTestModule -->
<g id="edge12" class="edge">
<title>RoleModule&#45;&gt;ServerTestModule</title>
<path fill="none" stroke="black" d="M687,-84.83C687,-101.2 687,-122.8 687,-122.8 687,-122.8 1083.43,-122.8 1083.43,-122.8"/>
<polygon fill="black" stroke="black" points="1083.43,-126.3 1093.43,-122.8 1083.43,-119.3 1083.43,-126.3"/>
</g>
<!-- SchoolModule -->
<g id="node13" class="node">
<title>SchoolModule</title>
<polygon fill="#8dd3c7" stroke="black" points="626.44,-84.8 623.44,-88.8 602.44,-88.8 599.44,-84.8 527.56,-84.8 527.56,-48.8 626.44,-48.8 626.44,-84.8"/>
<text text-anchor="middle" x="577" y="-62.6" font-family="Times,serif" font-size="14.00">SchoolModule</text>
</g>
<!-- SchoolModule&#45;&gt;ServerTestModule -->
<g id="edge13" class="edge">
<title>SchoolModule&#45;&gt;ServerTestModule</title>
<path fill="none" stroke="black" d="M577,-85.1C577,-103.07 577,-127.8 577,-127.8 577,-127.8 1083.88,-127.8 1083.88,-127.8"/>
<polygon fill="black" stroke="black" points="1083.88,-131.3 1093.88,-127.8 1083.88,-124.3 1083.88,-131.3"/>
</g>
<!-- SystemModule -->
<g id="node14" class="node">
<title>SystemModule</title>
<polygon fill="#8dd3c7" stroke="black" points="509.28,-84.8 506.28,-88.8 485.28,-88.8 482.28,-84.8 408.72,-84.8 408.72,-48.8 509.28,-48.8 509.28,-84.8"/>
<text text-anchor="middle" x="459" y="-62.6" font-family="Times,serif" font-size="14.00">SystemModule</text>
</g>
<!-- SystemModule&#45;&gt;ServerTestModule -->
<g id="edge14" class="edge">
<title>SystemModule&#45;&gt;ServerTestModule</title>
<path fill="none" stroke="black" d="M459,-84.91C459,-104.14 459,-131.8 459,-131.8 459,-131.8 1083.84,-131.8 1083.84,-131.8"/>
<polygon fill="black" stroke="black" points="1083.84,-135.3 1093.84,-131.8 1083.84,-128.3 1083.84,-135.3"/>
</g>
<!-- TaskModule -->
<g id="node15" class="node">
<title>TaskModule</title>
<polygon fill="#8dd3c7" stroke="black" points="390.27,-84.8 387.27,-88.8 366.27,-88.8 363.27,-84.8 303.73,-84.8 303.73,-48.8 390.27,-48.8 390.27,-84.8"/>
<text text-anchor="middle" x="347" y="-62.6" font-family="Times,serif" font-size="14.00">TaskModule</text>
</g>
<!-- TaskModule&#45;&gt;ServerTestModule -->
<g id="edge15" class="edge">
<title>TaskModule&#45;&gt;ServerTestModule</title>
<path fill="none" stroke="black" d="M347,-84.83C347,-105.57 347,-136.8 347,-136.8 347,-136.8 1083.67,-136.8 1083.67,-136.8"/>
<polygon fill="black" stroke="black" points="1083.67,-140.3 1093.67,-136.8 1083.67,-133.3 1083.67,-140.3"/>
</g>
<!-- UserModule -->
<g id="node16" class="node">
<title>UserModule</title>
<polygon fill="#8dd3c7" stroke="black" points="285.99,-84.8 282.99,-88.8 261.99,-88.8 258.99,-84.8 200.01,-84.8 200.01,-48.8 285.99,-48.8 285.99,-84.8"/>
<text text-anchor="middle" x="243" y="-62.6" font-family="Times,serif" font-size="14.00">UserModule</text>
</g>
<!-- UserModule&#45;&gt;ServerTestModule -->
<g id="edge16" class="edge">
<title>UserModule&#45;&gt;ServerTestModule</title>
<path fill="none" stroke="black" d="M243,-85.09C243,-107.01 243,-140.8 243,-140.8 243,-140.8 1083.87,-140.8 1083.87,-140.8"/>
<polygon fill="black" stroke="black" points="1083.87,-144.3 1093.87,-140.8 1083.87,-137.3 1083.87,-144.3"/>
</g>
<!-- VideoConferenceModule -->
<g id="node17" class="node">
<title>VideoConferenceModule</title>
<polygon fill="#8dd3c7" stroke="black" points="182.28,-84.8 179.28,-88.8 158.28,-88.8 155.28,-84.8 23.72,-84.8 23.72,-48.8 182.28,-48.8 182.28,-84.8"/>
<text text-anchor="middle" x="103" y="-62.6" font-family="Times,serif" font-size="14.00">VideoConferenceModule</text>
</g>
<!-- VideoConferenceModule&#45;&gt;ServerTestModule -->
<g id="edge17" class="edge">
<title>VideoConferenceModule&#45;&gt;ServerTestModule</title>
<path fill="none" stroke="black" d="M103,-85.12C103,-108.46 103,-145.8 103,-145.8 103,-145.8 1083.72,-145.8 1083.72,-145.8"/>
<polygon fill="black" stroke="black" points="1083.72,-149.3 1093.72,-145.8 1083.72,-142.3 1083.72,-149.3"/>
</g>
</g>
</svg>
