<?xml version="1.0" encoding="UTF-8" standalone="no"?>
<!DOCTYPE svg PUBLIC "-//W3C//DTD SVG 1.1//EN"
 "http://www.w3.org/Graphics/SVG/1.1/DTD/svg11.dtd">
<!-- Generated by graphviz version 5.0.0 (20220707.1540)
 -->
<!-- Title: dependencies Pages: 1 -->
<svg width="3406pt" height="174pt"
 viewBox="0.00 0.00 3406.00 173.80" xmlns="http://www.w3.org/2000/svg" xmlns:xlink="http://www.w3.org/1999/xlink">
<g id="graph0" class="graph" transform="scale(1 1) rotate(0) translate(4 169.8)">
<title>dependencies</title>
<polygon fill="white" stroke="transparent" points="-4,4 -4,-169.8 3402,-169.8 3402,4 -4,4"/>
<text text-anchor="middle" x="1699" y="-8.2" font-family="sans-serif" font-size="14.00">dependencies</text>
<g id="clust1" class="cluster">
<title>cluster_ServerTestModule</title>
<polygon fill="none" stroke="black" stroke-dasharray="1,5" points="8,-32.8 8,-157.8 3390,-157.8 3390,-32.8 8,-32.8"/>
</g>
<g id="clust3" class="cluster">
<title>cluster_ServerTestModule_imports</title>
<polygon fill="none" stroke="black" points="16,-40.8 16,-92.8 3382,-92.8 3382,-40.8 16,-40.8"/>
</g>
<!-- AuthenticationApiModule -->
<g id="node1" class="node">
<title>AuthenticationApiModule</title>
<polygon fill="#8dd3c7" stroke="black" points="3373.75,-84.8 3370.75,-88.8 3349.75,-88.8 3346.75,-84.8 3210.25,-84.8 3210.25,-48.8 3373.75,-48.8 3373.75,-84.8"/>
<text text-anchor="middle" x="3292" y="-62.6" font-family="Times,serif" font-size="14.00">AuthenticationApiModule</text>
</g>
<!-- ServerTestModule -->
<g id="node24" class="node">
<title>ServerTestModule</title>
<polygon fill="#8dd3c7" stroke="black" points="1684.19,-149.8 1681.19,-153.8 1660.19,-153.8 1657.19,-149.8 1563.81,-149.8 1563.81,-113.8 1684.19,-113.8 1684.19,-149.8"/>
<text text-anchor="middle" x="1624" y="-127.6" font-family="Times,serif" font-size="14.00">ServerTestModule</text>
</g>
<!-- AuthenticationApiModule&#45;&gt;ServerTestModule -->
<g id="edge1" class="edge">
<title>AuthenticationApiModule&#45;&gt;ServerTestModule</title>
<path fill="none" stroke="black" d="M3292,-84.95C3292,-108.56 3292,-146.8 3292,-146.8 3292,-146.8 1694.35,-146.8 1694.35,-146.8"/>
<polygon fill="black" stroke="black" points="1694.35,-143.3 1684.35,-146.8 1694.35,-150.3 1694.35,-143.3"/>
</g>
<!-- CollaborativeStorageModule -->
<g id="node2" class="node">
<title>CollaborativeStorageModule</title>
<polygon fill="#8dd3c7" stroke="black" points="3192.02,-84.8 3189.02,-88.8 3168.02,-88.8 3165.02,-84.8 3013.98,-84.8 3013.98,-48.8 3192.02,-48.8 3192.02,-84.8"/>
<text text-anchor="middle" x="3103" y="-62.6" font-family="Times,serif" font-size="14.00">CollaborativeStorageModule</text>
</g>
<!-- CollaborativeStorageModule&#45;&gt;ServerTestModule -->
<g id="edge2" class="edge">
<title>CollaborativeStorageModule&#45;&gt;ServerTestModule</title>
<path fill="none" stroke="black" d="M3103,-84.89C3103,-107.93 3103,-144.8 3103,-144.8 3103,-144.8 1694.27,-144.8 1694.27,-144.8"/>
<polygon fill="black" stroke="black" points="1694.27,-141.3 1684.27,-144.8 1694.27,-148.3 1694.27,-141.3"/>
</g>
<!-- CoreModule -->
<g id="node3" class="node">
<title>CoreModule</title>
<polygon fill="#8dd3c7" stroke="black" points="2995.27,-84.8 2992.27,-88.8 2971.27,-88.8 2968.27,-84.8 2908.73,-84.8 2908.73,-48.8 2995.27,-48.8 2995.27,-84.8"/>
<text text-anchor="middle" x="2952" y="-62.6" font-family="Times,serif" font-size="14.00">CoreModule</text>
</g>
<!-- CoreModule&#45;&gt;ServerTestModule -->
<g id="edge3" class="edge">
<title>CoreModule&#45;&gt;ServerTestModule</title>
<path fill="none" stroke="black" d="M2952,-85.09C2952,-107.01 2952,-140.8 2952,-140.8 2952,-140.8 1694.51,-140.8 1694.51,-140.8"/>
<polygon fill="black" stroke="black" points="1694.51,-137.3 1684.51,-140.8 1694.51,-144.3 1694.51,-137.3"/>
</g>
<!-- FilesStorageClientModule -->
<g id="node4" class="node">
<title>FilesStorageClientModule</title>
<polygon fill="#8dd3c7" stroke="black" points="2890.77,-84.8 2887.77,-88.8 2866.77,-88.8 2863.77,-84.8 2727.23,-84.8 2727.23,-48.8 2890.77,-48.8 2890.77,-84.8"/>
<text text-anchor="middle" x="2809" y="-62.6" font-family="Times,serif" font-size="14.00">FilesStorageClientModule</text>
</g>
<!-- FilesStorageClientModule&#45;&gt;ServerTestModule -->
<g id="edge4" class="edge">
<title>FilesStorageClientModule&#45;&gt;ServerTestModule</title>
<path fill="none" stroke="black" d="M2809,-85.08C2809,-106.12 2809,-137.8 2809,-137.8 2809,-137.8 1694.39,-137.8 1694.39,-137.8"/>
<polygon fill="black" stroke="black" points="1694.39,-134.3 1684.39,-137.8 1694.39,-141.3 1694.39,-134.3"/>
</g>
<!-- ImportUserModule -->
<g id="node5" class="node">
<title>ImportUserModule</title>
<polygon fill="#8dd3c7" stroke="black" points="2709.09,-84.8 2706.09,-88.8 2685.09,-88.8 2682.09,-84.8 2584.91,-84.8 2584.91,-48.8 2709.09,-48.8 2709.09,-84.8"/>
<text text-anchor="middle" x="2647" y="-62.6" font-family="Times,serif" font-size="14.00">ImportUserModule</text>
</g>
<!-- ImportUserModule&#45;&gt;ServerTestModule -->
<g id="edge5" class="edge">
<title>ImportUserModule&#45;&gt;ServerTestModule</title>
<path fill="none" stroke="black" d="M2647,-85.02C2647,-105.17 2647,-134.8 2647,-134.8 2647,-134.8 1694.17,-134.8 1694.17,-134.8"/>
<polygon fill="black" stroke="black" points="1694.17,-131.3 1684.17,-134.8 1694.17,-138.3 1694.17,-131.3"/>
</g>
<!-- LearnroomModule -->
<g id="node6" class="node">
<title>LearnroomModule</title>
<polygon fill="#8dd3c7" stroke="black" points="2566.75,-84.8 2563.75,-88.8 2542.75,-88.8 2539.75,-84.8 2445.25,-84.8 2445.25,-48.8 2566.75,-48.8 2566.75,-84.8"/>
<text text-anchor="middle" x="2506" y="-62.6" font-family="Times,serif" font-size="14.00">LearnroomModule</text>
</g>
<!-- LearnroomModule&#45;&gt;ServerTestModule -->
<g id="edge6" class="edge">
<title>LearnroomModule&#45;&gt;ServerTestModule</title>
<path fill="none" stroke="black" d="M2506,-84.91C2506,-104.14 2506,-131.8 2506,-131.8 2506,-131.8 1694.28,-131.8 1694.28,-131.8"/>
<polygon fill="black" stroke="black" points="1694.28,-128.3 1684.28,-131.8 1694.28,-135.3 1694.28,-128.3"/>
</g>
<!-- LessonApiModule -->
<g id="node7" class="node">
<title>LessonApiModule</title>
<polygon fill="#8dd3c7" stroke="black" points="2427.21,-84.8 2424.21,-88.8 2403.21,-88.8 2400.21,-84.8 2306.79,-84.8 2306.79,-48.8 2427.21,-48.8 2427.21,-84.8"/>
<text text-anchor="middle" x="2367" y="-62.6" font-family="Times,serif" font-size="14.00">LessonApiModule</text>
</g>
<!-- LessonApiModule&#45;&gt;ServerTestModule -->
<g id="edge7" class="edge">
<title>LessonApiModule&#45;&gt;ServerTestModule</title>
<path fill="none" stroke="black" d="M2367,-85.02C2367,-103.63 2367,-129.8 2367,-129.8 2367,-129.8 1694.17,-129.8 1694.17,-129.8"/>
<polygon fill="black" stroke="black" points="1694.17,-126.3 1684.17,-129.8 1694.17,-133.3 1694.17,-126.3"/>
</g>
<!-- MongoMemoryDatabaseModule -->
<g id="node8" class="node">
<title>MongoMemoryDatabaseModule</title>
<polygon fill="#8dd3c7" stroke="black" points="2288.52,-84.8 2285.52,-88.8 2264.52,-88.8 2261.52,-84.8 2089.48,-84.8 2089.48,-48.8 2288.52,-48.8 2288.52,-84.8"/>
<text text-anchor="middle" x="2189" y="-62.6" font-family="Times,serif" font-size="14.00">MongoMemoryDatabaseModule</text>
</g>
<!-- MongoMemoryDatabaseModule&#45;&gt;ServerTestModule -->
<g id="edge8" class="edge">
<title>MongoMemoryDatabaseModule&#45;&gt;ServerTestModule</title>
<path fill="none" stroke="black" d="M2189,-84.82C2189,-102.17 2189,-125.8 2189,-125.8 2189,-125.8 1694.2,-125.8 1694.2,-125.8"/>
<polygon fill="black" stroke="black" points="1694.2,-122.3 1684.2,-125.8 1694.2,-129.3 1694.2,-122.3"/>
</g>
<!-- NewsModule -->
<g id="node9" class="node">
<title>NewsModule</title>
<polygon fill="#8dd3c7" stroke="black" points="2071.94,-84.8 2068.94,-88.8 2047.94,-88.8 2044.94,-84.8 1980.06,-84.8 1980.06,-48.8 2071.94,-48.8 2071.94,-84.8"/>
<text text-anchor="middle" x="2026" y="-62.6" font-family="Times,serif" font-size="14.00">NewsModule</text>
</g>
<!-- NewsModule&#45;&gt;ServerTestModule -->
<g id="edge9" class="edge">
<title>NewsModule&#45;&gt;ServerTestModule</title>
<path fill="none" stroke="black" d="M2026,-84.83C2026,-101.2 2026,-122.8 2026,-122.8 2026,-122.8 1694.18,-122.8 1694.18,-122.8"/>
<polygon fill="black" stroke="black" points="1694.18,-119.3 1684.18,-122.8 1694.18,-126.3 1694.18,-119.3"/>
</g>
<!-- OauthModule -->
<g id="node10" class="node">
<title>OauthModule</title>
<polygon fill="#8dd3c7" stroke="black" points="1961.77,-84.8 1958.77,-88.8 1937.77,-88.8 1934.77,-84.8 1868.23,-84.8 1868.23,-48.8 1961.77,-48.8 1961.77,-84.8"/>
<text text-anchor="middle" x="1915" y="-62.6" font-family="Times,serif" font-size="14.00">OauthModule</text>
</g>
<!-- OauthModule&#45;&gt;ServerTestModule -->
<g id="edge10" class="edge">
<title>OauthModule&#45;&gt;ServerTestModule</title>
<path fill="none" stroke="black" d="M1915,-85.04C1915,-100.37 1915,-119.8 1915,-119.8 1915,-119.8 1694.3,-119.8 1694.3,-119.8"/>
<polygon fill="black" stroke="black" points="1694.3,-116.3 1684.3,-119.8 1694.3,-123.3 1694.3,-116.3"/>
</g>
<!-- OauthProviderModule -->
<g id="node11" class="node">
<title>OauthProviderModule</title>
<polygon fill="#8dd3c7" stroke="black" points="1849.98,-84.8 1846.98,-88.8 1825.98,-88.8 1822.98,-84.8 1708.02,-84.8 1708.02,-48.8 1849.98,-48.8 1849.98,-84.8"/>
<text text-anchor="middle" x="1779" y="-62.6" font-family="Times,serif" font-size="14.00">OauthProviderModule</text>
</g>
<!-- OauthProviderModule&#45;&gt;ServerTestModule -->
<g id="edge11" class="edge">
<title>OauthProviderModule&#45;&gt;ServerTestModule</title>
<path fill="none" stroke="black" d="M1779,-84.85C1779,-99.17 1779,-116.8 1779,-116.8 1779,-116.8 1694.37,-116.8 1694.37,-116.8"/>
<polygon fill="black" stroke="black" points="1694.37,-113.3 1684.37,-116.8 1694.37,-120.3 1694.37,-113.3"/>
</g>
<!-- ProvisioningModule -->
<g id="node12" class="node">
<title>ProvisioningModule</title>
<polygon fill="#8dd3c7" stroke="black" points="1689.62,-84.8 1686.62,-88.8 1665.62,-88.8 1662.62,-84.8 1558.38,-84.8 1558.38,-48.8 1689.62,-48.8 1689.62,-84.8"/>
<text text-anchor="middle" x="1624" y="-62.6" font-family="Times,serif" font-size="14.00">ProvisioningModule</text>
</g>
<!-- ProvisioningModule&#45;&gt;ServerTestModule -->
<g id="edge12" class="edge">
<title>ProvisioningModule&#45;&gt;ServerTestModule</title>
<path fill="none" stroke="black" d="M1624,-84.91C1624,-84.91 1624,-103.79 1624,-103.79"/>
<polygon fill="black" stroke="black" points="1620.5,-103.79 1624,-113.79 1627.5,-103.79 1620.5,-103.79"/>
</g>
<!-- RabbitMQWrapperTestModule -->
<g id="node13" class="node">
<title>RabbitMQWrapperTestModule</title>
<polygon fill="#8dd3c7" stroke="black" points="1540.01,-84.8 1537.01,-88.8 1516.01,-88.8 1513.01,-84.8 1347.99,-84.8 1347.99,-48.8 1540.01,-48.8 1540.01,-84.8"/>
<text text-anchor="middle" x="1444" y="-62.6" font-family="Times,serif" font-size="14.00">RabbitMQWrapperTestModule</text>
</g>
<!-- RabbitMQWrapperTestModule&#45;&gt;ServerTestModule -->
<g id="edge13" class="edge">
<title>RabbitMQWrapperTestModule&#45;&gt;ServerTestModule</title>
<path fill="none" stroke="black" d="M1444,-84.85C1444,-99.17 1444,-116.8 1444,-116.8 1444,-116.8 1553.81,-116.8 1553.81,-116.8"/>
<polygon fill="black" stroke="black" points="1553.81,-120.3 1563.81,-116.8 1553.81,-113.3 1553.81,-120.3"/>
</g>
<!-- RoleModule -->
<g id="node14" class="node">
<title>RoleModule</title>
<polygon fill="#8dd3c7" stroke="black" points="1329.99,-84.8 1326.99,-88.8 1305.99,-88.8 1302.99,-84.8 1244.01,-84.8 1244.01,-48.8 1329.99,-48.8 1329.99,-84.8"/>
<text text-anchor="middle" x="1287" y="-62.6" font-family="Times,serif" font-size="14.00">RoleModule</text>
</g>
<!-- RoleModule&#45;&gt;ServerTestModule -->
<g id="edge14" class="edge">
<title>RoleModule&#45;&gt;ServerTestModule</title>
<path fill="none" stroke="black" d="M1287,-85.04C1287,-100.37 1287,-119.8 1287,-119.8 1287,-119.8 1553.75,-119.8 1553.75,-119.8"/>
<polygon fill="black" stroke="black" points="1553.75,-123.3 1563.75,-119.8 1553.75,-116.3 1553.75,-123.3"/>
</g>
<!-- SchoolApiModule -->
<g id="node15" class="node">
<title>SchoolApiModule</title>
<polygon fill="#8dd3c7" stroke="black" points="1225.94,-84.8 1222.94,-88.8 1201.94,-88.8 1198.94,-84.8 1106.06,-84.8 1106.06,-48.8 1225.94,-48.8 1225.94,-84.8"/>
<text text-anchor="middle" x="1166" y="-62.6" font-family="Times,serif" font-size="14.00">SchoolApiModule</text>
</g>
<!-- SchoolApiModule&#45;&gt;ServerTestModule -->
<g id="edge15" class="edge">
<title>SchoolApiModule&#45;&gt;ServerTestModule</title>
<path fill="none" stroke="black" d="M1166,-84.83C1166,-101.2 1166,-122.8 1166,-122.8 1166,-122.8 1553.65,-122.8 1553.65,-122.8"/>
<polygon fill="black" stroke="black" points="1553.65,-126.3 1563.65,-122.8 1553.65,-119.3 1553.65,-126.3"/>
</g>
<!-- SharingApiModule -->
<g id="node16" class="node">
<title>SharingApiModule</title>
<polygon fill="#8dd3c7" stroke="black" points="1088.1,-84.8 1085.1,-88.8 1064.1,-88.8 1061.1,-84.8 963.9,-84.8 963.9,-48.8 1088.1,-48.8 1088.1,-84.8"/>
<text text-anchor="middle" x="1026" y="-62.6" font-family="Times,serif" font-size="14.00">SharingApiModule</text>
</g>
<!-- SharingApiModule&#45;&gt;ServerTestModule -->
<g id="edge16" class="edge">
<title>SharingApiModule&#45;&gt;ServerTestModule</title>
<path fill="none" stroke="black" d="M1026,-84.82C1026,-102.17 1026,-125.8 1026,-125.8 1026,-125.8 1553.65,-125.8 1553.65,-125.8"/>
<polygon fill="black" stroke="black" points="1553.65,-129.3 1563.65,-125.8 1553.65,-122.3 1553.65,-129.3"/>
</g>
<!-- SystemModule -->
<g id="node17" class="node">
<title>SystemModule</title>
<polygon fill="#8dd3c7" stroke="black" points="946.28,-84.8 943.28,-88.8 922.28,-88.8 919.28,-84.8 845.72,-84.8 845.72,-48.8 946.28,-48.8 946.28,-84.8"/>
<text text-anchor="middle" x="896" y="-62.6" font-family="Times,serif" font-size="14.00">SystemModule</text>
</g>
<!-- SystemModule&#45;&gt;ServerTestModule -->
<g id="edge17" class="edge">
<title>SystemModule&#45;&gt;ServerTestModule</title>
<path fill="none" stroke="black" d="M896,-85.02C896,-103.63 896,-129.8 896,-129.8 896,-129.8 1553.81,-129.8 1553.81,-129.8"/>
<polygon fill="black" stroke="black" points="1553.81,-133.3 1563.81,-129.8 1553.81,-126.3 1553.81,-133.3"/>
</g>
<!-- TaskCardModule -->
<g id="node18" class="node">
<title>TaskCardModule</title>
<polygon fill="#8dd3c7" stroke="black" points="827.98,-84.8 824.98,-88.8 803.98,-88.8 800.98,-84.8 714.02,-84.8 714.02,-48.8 827.98,-48.8 827.98,-84.8"/>
<text text-anchor="middle" x="771" y="-62.6" font-family="Times,serif" font-size="14.00">TaskCardModule</text>
</g>
<!-- TaskCardModule&#45;&gt;ServerTestModule -->
<g id="edge18" class="edge">
<title>TaskCardModule&#45;&gt;ServerTestModule</title>
<path fill="none" stroke="black" d="M771,-84.91C771,-104.14 771,-131.8 771,-131.8 771,-131.8 1553.68,-131.8 1553.68,-131.8"/>
<polygon fill="black" stroke="black" points="1553.68,-135.3 1563.68,-131.8 1553.68,-128.3 1553.68,-135.3"/>
</g>
<!-- TaskModule -->
<g id="node19" class="node">
<title>TaskModule</title>
<polygon fill="#8dd3c7" stroke="black" points="696.27,-84.8 693.27,-88.8 672.27,-88.8 669.27,-84.8 609.73,-84.8 609.73,-48.8 696.27,-48.8 696.27,-84.8"/>
<text text-anchor="middle" x="653" y="-62.6" font-family="Times,serif" font-size="14.00">TaskModule</text>
</g>
<!-- TaskModule&#45;&gt;ServerTestModule -->
<g id="edge19" class="edge">
<title>TaskModule&#45;&gt;ServerTestModule</title>
<path fill="none" stroke="black" d="M653,-85.02C653,-105.17 653,-134.8 653,-134.8 653,-134.8 1553.63,-134.8 1553.63,-134.8"/>
<polygon fill="black" stroke="black" points="1553.63,-138.3 1563.63,-134.8 1553.63,-131.3 1553.63,-138.3"/>
</g>
<!-- ToolApiModule -->
<g id="node20" class="node">
<title>ToolApiModule</title>
<polygon fill="#8dd3c7" stroke="black" points="591.49,-84.8 588.49,-88.8 567.49,-88.8 564.49,-84.8 484.51,-84.8 484.51,-48.8 591.49,-48.8 591.49,-84.8"/>
<text text-anchor="middle" x="538" y="-62.6" font-family="Times,serif" font-size="14.00">ToolApiModule</text>
</g>
<!-- ToolApiModule&#45;&gt;ServerTestModule -->
<g id="edge20" class="edge">
<title>ToolApiModule&#45;&gt;ServerTestModule</title>
<path fill="none" stroke="black" d="M538,-85.08C538,-106.12 538,-137.8 538,-137.8 538,-137.8 1553.68,-137.8 1553.68,-137.8"/>
<polygon fill="black" stroke="black" points="1553.68,-141.3 1563.68,-137.8 1553.68,-134.3 1553.68,-141.3"/>
</g>
<!-- UserMigrationApiModule -->
<g id="node21" class="node">
<title>UserMigrationApiModule</title>
<polygon fill="#8dd3c7" stroke="black" points="466.48,-84.8 463.48,-88.8 442.48,-88.8 439.48,-84.8 303.52,-84.8 303.52,-48.8 466.48,-48.8 466.48,-84.8"/>
<text text-anchor="middle" x="385" y="-62.6" font-family="Times,serif" font-size="14.00">UserMigrationApiModule</text>
</g>
<!-- UserMigrationApiModule&#45;&gt;ServerTestModule -->
<g id="edge21" class="edge">
<title>UserMigrationApiModule&#45;&gt;ServerTestModule</title>
<path fill="none" stroke="black" d="M385,-85.09C385,-107.01 385,-140.8 385,-140.8 385,-140.8 1553.82,-140.8 1553.82,-140.8"/>
<polygon fill="black" stroke="black" points="1553.82,-144.3 1563.82,-140.8 1553.82,-137.3 1553.82,-144.3"/>
</g>
<!-- UserModule -->
<g id="node22" class="node">
<title>UserModule</title>
<polygon fill="#8dd3c7" stroke="black" points="285.99,-84.8 282.99,-88.8 261.99,-88.8 258.99,-84.8 200.01,-84.8 200.01,-48.8 285.99,-48.8 285.99,-84.8"/>
<text text-anchor="middle" x="243" y="-62.6" font-family="Times,serif" font-size="14.00">UserModule</text>
</g>
<!-- UserModule&#45;&gt;ServerTestModule -->
<g id="edge22" class="edge">
<title>UserModule&#45;&gt;ServerTestModule</title>
<path fill="none" stroke="black" d="M243,-84.89C243,-107.93 243,-144.8 243,-144.8 243,-144.8 1553.77,-144.8 1553.77,-144.8"/>
<polygon fill="black" stroke="black" points="1553.77,-148.3 1563.77,-144.8 1553.77,-141.3 1553.77,-148.3"/>
</g>
<!-- VideoConferenceModule -->
<g id="node23" class="node">
<title>VideoConferenceModule</title>
<polygon fill="#8dd3c7" stroke="black" points="182.28,-84.8 179.28,-88.8 158.28,-88.8 155.28,-84.8 23.72,-84.8 23.72,-48.8 182.28,-48.8 182.28,-84.8"/>
<text text-anchor="middle" x="103" y="-62.6" font-family="Times,serif" font-size="14.00">VideoConferenceModule</text>
</g>
<!-- VideoConferenceModule&#45;&gt;ServerTestModule -->
<g id="edge23" class="edge">
<title>VideoConferenceModule&#45;&gt;ServerTestModule</title>
<path fill="none" stroke="black" d="M103,-84.95C103,-108.56 103,-146.8 103,-146.8 103,-146.8 1553.44,-146.8 1553.44,-146.8"/>
<polygon fill="black" stroke="black" points="1553.44,-150.3 1563.44,-146.8 1553.44,-143.3 1553.44,-150.3"/>
</g>
</g>
</svg>
