<?xml version="1.0" encoding="UTF-8" standalone="no"?>
<!DOCTYPE svg PUBLIC "-//W3C//DTD SVG 1.1//EN"
 "http://www.w3.org/Graphics/SVG/1.1/DTD/svg11.dtd">
<!-- Generated by graphviz version 5.0.0 (20220707.1540)
 -->
<!-- Title: dependencies Pages: 1 -->
<svg width="2996pt" height="174pt"
 viewBox="0.00 0.00 2996.00 173.80" xmlns="http://www.w3.org/2000/svg" xmlns:xlink="http://www.w3.org/1999/xlink">
<g id="graph0" class="graph" transform="scale(1 1) rotate(0) translate(4 169.8)">
<title>dependencies</title>
<polygon fill="white" stroke="transparent" points="-4,4 -4,-169.8 2992,-169.8 2992,4 -4,4"/>
<text text-anchor="middle" x="1494" y="-8.2" font-family="sans-serif" font-size="14.00">dependencies</text>
<g id="clust1" class="cluster">
<title>cluster_ServerTestModule</title>
<polygon fill="none" stroke="black" stroke-dasharray="1,5" points="8,-32.8 8,-157.8 2980,-157.8 2980,-32.8 8,-32.8"/>
</g>
<g id="clust3" class="cluster">
<title>cluster_ServerTestModule_imports</title>
<polygon fill="none" stroke="black" points="16,-40.8 16,-92.8 2972,-92.8 2972,-40.8 16,-40.8"/>
</g>
<!-- AuthModule -->
<g id="node1" class="node">
<title>AuthModule</title>
<polygon fill="#8dd3c7" stroke="black" points="2963.55,-84.8 2960.55,-88.8 2939.55,-88.8 2936.55,-84.8 2876.45,-84.8 2876.45,-48.8 2963.55,-48.8 2963.55,-84.8"/>
<text text-anchor="middle" x="2920" y="-62.6" font-family="Times,serif" font-size="14.00">AuthModule</text>
</g>
<!-- ServerTestModule -->
<g id="node22" class="node">
<title>ServerTestModule</title>
<polygon fill="#8dd3c7" stroke="black" points="1505.19,-149.8 1502.19,-153.8 1481.19,-153.8 1478.19,-149.8 1384.81,-149.8 1384.81,-113.8 1505.19,-113.8 1505.19,-149.8"/>
<text text-anchor="middle" x="1445" y="-127.6" font-family="Times,serif" font-size="14.00">ServerTestModule</text>
</g>
<!-- AuthModule&#45;&gt;ServerTestModule -->
<g id="edge1" class="edge">
<title>AuthModule&#45;&gt;ServerTestModule</title>
<path fill="none" stroke="black" d="M2920,-84.95C2920,-108.56 2920,-146.8 2920,-146.8 2920,-146.8 1515.11,-146.8 1515.11,-146.8"/>
<polygon fill="black" stroke="black" points="1515.11,-143.3 1505.11,-146.8 1515.11,-150.3 1515.11,-143.3"/>
</g>
<!-- CollaborativeStorageModule -->
<g id="node2" class="node">
<title>CollaborativeStorageModule</title>
<polygon fill="#8dd3c7" stroke="black" points="2858.02,-84.8 2855.02,-88.8 2834.02,-88.8 2831.02,-84.8 2679.98,-84.8 2679.98,-48.8 2858.02,-48.8 2858.02,-84.8"/>
<text text-anchor="middle" x="2769" y="-62.6" font-family="Times,serif" font-size="14.00">CollaborativeStorageModule</text>
</g>
<!-- CollaborativeStorageModule&#45;&gt;ServerTestModule -->
<g id="edge2" class="edge">
<title>CollaborativeStorageModule&#45;&gt;ServerTestModule</title>
<path fill="none" stroke="black" d="M2769,-85.05C2769,-107.82 2769,-143.8 2769,-143.8 2769,-143.8 1515.33,-143.8 1515.33,-143.8"/>
<polygon fill="black" stroke="black" points="1515.33,-140.3 1505.33,-143.8 1515.33,-147.3 1515.33,-140.3"/>
</g>
<!-- CoreModule -->
<g id="node3" class="node">
<title>CoreModule</title>
<polygon fill="#8dd3c7" stroke="black" points="2661.27,-84.8 2658.27,-88.8 2637.27,-88.8 2634.27,-84.8 2574.73,-84.8 2574.73,-48.8 2661.27,-48.8 2661.27,-84.8"/>
<text text-anchor="middle" x="2618" y="-62.6" font-family="Times,serif" font-size="14.00">CoreModule</text>
</g>
<!-- CoreModule&#45;&gt;ServerTestModule -->
<g id="edge3" class="edge">
<title>CoreModule&#45;&gt;ServerTestModule</title>
<path fill="none" stroke="black" d="M2618,-85.09C2618,-107.01 2618,-140.8 2618,-140.8 2618,-140.8 1515.19,-140.8 1515.19,-140.8"/>
<polygon fill="black" stroke="black" points="1515.19,-137.3 1505.19,-140.8 1515.19,-144.3 1515.19,-137.3"/>
</g>
<!-- FilesStorageClientModule -->
<g id="node4" class="node">
<title>FilesStorageClientModule</title>
<polygon fill="#8dd3c7" stroke="black" points="2556.77,-84.8 2553.77,-88.8 2532.77,-88.8 2529.77,-84.8 2393.23,-84.8 2393.23,-48.8 2556.77,-48.8 2556.77,-84.8"/>
<text text-anchor="middle" x="2475" y="-62.6" font-family="Times,serif" font-size="14.00">FilesStorageClientModule</text>
</g>
<!-- FilesStorageClientModule&#45;&gt;ServerTestModule -->
<g id="edge4" class="edge">
<title>FilesStorageClientModule&#45;&gt;ServerTestModule</title>
<path fill="none" stroke="black" d="M2475,-84.83C2475,-105.57 2475,-136.8 2475,-136.8 2475,-136.8 1515.21,-136.8 1515.21,-136.8"/>
<polygon fill="black" stroke="black" points="1515.21,-133.3 1505.21,-136.8 1515.21,-140.3 1515.21,-133.3"/>
</g>
<!-- ImportUserModule -->
<g id="node5" class="node">
<title>ImportUserModule</title>
<polygon fill="#8dd3c7" stroke="black" points="2375.09,-84.8 2372.09,-88.8 2351.09,-88.8 2348.09,-84.8 2250.91,-84.8 2250.91,-48.8 2375.09,-48.8 2375.09,-84.8"/>
<text text-anchor="middle" x="2313" y="-62.6" font-family="Times,serif" font-size="14.00">ImportUserModule</text>
</g>
<!-- ImportUserModule&#45;&gt;ServerTestModule -->
<g id="edge5" class="edge">
<title>ImportUserModule&#45;&gt;ServerTestModule</title>
<path fill="none" stroke="black" d="M2313,-85.11C2313,-104.95 2313,-133.8 2313,-133.8 2313,-133.8 1515.35,-133.8 1515.35,-133.8"/>
<polygon fill="black" stroke="black" points="1515.35,-130.3 1505.35,-133.8 1515.35,-137.3 1515.35,-130.3"/>
</g>
<!-- LearnroomModule -->
<g id="node6" class="node">
<title>LearnroomModule</title>
<polygon fill="#8dd3c7" stroke="black" points="2232.75,-84.8 2229.75,-88.8 2208.75,-88.8 2205.75,-84.8 2111.25,-84.8 2111.25,-48.8 2232.75,-48.8 2232.75,-84.8"/>
<text text-anchor="middle" x="2172" y="-62.6" font-family="Times,serif" font-size="14.00">LearnroomModule</text>
</g>
<!-- LearnroomModule&#45;&gt;ServerTestModule -->
<g id="edge6" class="edge">
<title>LearnroomModule&#45;&gt;ServerTestModule</title>
<path fill="none" stroke="black" d="M2172,-84.97C2172,-103.89 2172,-130.8 2172,-130.8 2172,-130.8 1515.11,-130.8 1515.11,-130.8"/>
<polygon fill="black" stroke="black" points="1515.11,-127.3 1505.11,-130.8 1515.11,-134.3 1515.11,-127.3"/>
</g>
<!-- LessonApiModule -->
<g id="node7" class="node">
<title>LessonApiModule</title>
<polygon fill="#8dd3c7" stroke="black" points="2093.21,-84.8 2090.21,-88.8 2069.21,-88.8 2066.21,-84.8 1972.79,-84.8 1972.79,-48.8 2093.21,-48.8 2093.21,-84.8"/>
<text text-anchor="middle" x="2033" y="-62.6" font-family="Times,serif" font-size="14.00">LessonApiModule</text>
</g>
<!-- LessonApiModule&#45;&gt;ServerTestModule -->
<g id="edge7" class="edge">
<title>LessonApiModule&#45;&gt;ServerTestModule</title>
<path fill="none" stroke="black" d="M2033,-85.1C2033,-103.07 2033,-127.8 2033,-127.8 2033,-127.8 1515.16,-127.8 1515.16,-127.8"/>
<polygon fill="black" stroke="black" points="1515.16,-124.3 1505.16,-127.8 1515.16,-131.3 1515.16,-124.3"/>
</g>
<!-- MongoMemoryDatabaseModule -->
<g id="node8" class="node">
<title>MongoMemoryDatabaseModule</title>
<polygon fill="#8dd3c7" stroke="black" points="1954.52,-84.8 1951.52,-88.8 1930.52,-88.8 1927.52,-84.8 1755.48,-84.8 1755.48,-48.8 1954.52,-48.8 1954.52,-84.8"/>
<text text-anchor="middle" x="1855" y="-62.6" font-family="Times,serif" font-size="14.00">MongoMemoryDatabaseModule</text>
</g>
<!-- MongoMemoryDatabaseModule&#45;&gt;ServerTestModule -->
<g id="edge8" class="edge">
<title>MongoMemoryDatabaseModule&#45;&gt;ServerTestModule</title>
<path fill="none" stroke="black" d="M1855,-84.84C1855,-101.53 1855,-123.8 1855,-123.8 1855,-123.8 1515.5,-123.8 1515.5,-123.8"/>
<polygon fill="black" stroke="black" points="1515.5,-120.3 1505.5,-123.8 1515.5,-127.3 1515.5,-120.3"/>
</g>
<!-- NewsModule -->
<g id="node9" class="node">
<title>NewsModule</title>
<polygon fill="#8dd3c7" stroke="black" points="1737.94,-84.8 1734.94,-88.8 1713.94,-88.8 1710.94,-84.8 1646.06,-84.8 1646.06,-48.8 1737.94,-48.8 1737.94,-84.8"/>
<text text-anchor="middle" x="1692" y="-62.6" font-family="Times,serif" font-size="14.00">NewsModule</text>
</g>
<!-- NewsModule&#45;&gt;ServerTestModule -->
<g id="edge9" class="edge">
<title>NewsModule&#45;&gt;ServerTestModule</title>
<path fill="none" stroke="black" d="M1692,-85.08C1692,-100.75 1692,-120.8 1692,-120.8 1692,-120.8 1515.11,-120.8 1515.11,-120.8"/>
<polygon fill="black" stroke="black" points="1515.11,-117.3 1505.11,-120.8 1515.11,-124.3 1515.11,-117.3"/>
</g>
<!-- OauthModule -->
<g id="node10" class="node">
<title>OauthModule</title>
<polygon fill="#8dd3c7" stroke="black" points="1627.77,-84.8 1624.77,-88.8 1603.77,-88.8 1600.77,-84.8 1534.23,-84.8 1534.23,-48.8 1627.77,-48.8 1627.77,-84.8"/>
<text text-anchor="middle" x="1581" y="-62.6" font-family="Times,serif" font-size="14.00">OauthModule</text>
</g>
<!-- OauthModule&#45;&gt;ServerTestModule -->
<g id="edge10" class="edge">
<title>OauthModule&#45;&gt;ServerTestModule</title>
<path fill="none" stroke="black" d="M1581,-84.92C1581,-99.58 1581,-117.8 1581,-117.8 1581,-117.8 1515.44,-117.8 1515.44,-117.8"/>
<polygon fill="black" stroke="black" points="1515.44,-114.3 1505.44,-117.8 1515.44,-121.3 1515.44,-114.3"/>
</g>
<!-- OauthProviderModule -->
<g id="node11" class="node">
<title>OauthProviderModule</title>
<polygon fill="#8dd3c7" stroke="black" points="1515.98,-84.8 1512.98,-88.8 1491.98,-88.8 1488.98,-84.8 1374.02,-84.8 1374.02,-48.8 1515.98,-48.8 1515.98,-84.8"/>
<text text-anchor="middle" x="1445" y="-62.6" font-family="Times,serif" font-size="14.00">OauthProviderModule</text>
</g>
<!-- OauthProviderModule&#45;&gt;ServerTestModule -->
<g id="edge11" class="edge">
<title>OauthProviderModule&#45;&gt;ServerTestModule</title>
<path fill="none" stroke="black" d="M1445,-84.91C1445,-84.91 1445,-103.79 1445,-103.79"/>
<polygon fill="black" stroke="black" points="1441.5,-103.79 1445,-113.79 1448.5,-103.79 1441.5,-103.79"/>
</g>
<!-- ProvisioningModule -->
<g id="node12" class="node">
<title>ProvisioningModule</title>
<polygon fill="#8dd3c7" stroke="black" points="1355.62,-84.8 1352.62,-88.8 1331.62,-88.8 1328.62,-84.8 1224.38,-84.8 1224.38,-48.8 1355.62,-48.8 1355.62,-84.8"/>
<text text-anchor="middle" x="1290" y="-62.6" font-family="Times,serif" font-size="14.00">ProvisioningModule</text>
</g>
<!-- ProvisioningModule&#45;&gt;ServerTestModule -->
<g id="edge12" class="edge">
<title>ProvisioningModule&#45;&gt;ServerTestModule</title>
<path fill="none" stroke="black" d="M1290,-84.92C1290,-99.58 1290,-117.8 1290,-117.8 1290,-117.8 1374.63,-117.8 1374.63,-117.8"/>
<polygon fill="black" stroke="black" points="1374.63,-121.3 1384.63,-117.8 1374.63,-114.3 1374.63,-121.3"/>
</g>
<!-- RabbitMQWrapperTestModule -->
<g id="node13" class="node">
<title>RabbitMQWrapperTestModule</title>
<polygon fill="#8dd3c7" stroke="black" points="1206.01,-84.8 1203.01,-88.8 1182.01,-88.8 1179.01,-84.8 1013.99,-84.8 1013.99,-48.8 1206.01,-48.8 1206.01,-84.8"/>
<text text-anchor="middle" x="1110" y="-62.6" font-family="Times,serif" font-size="14.00">RabbitMQWrapperTestModule</text>
</g>
<!-- RabbitMQWrapperTestModule&#45;&gt;ServerTestModule -->
<g id="edge13" class="edge">
<title>RabbitMQWrapperTestModule&#45;&gt;ServerTestModule</title>
<path fill="none" stroke="black" d="M1110,-85.08C1110,-100.75 1110,-120.8 1110,-120.8 1110,-120.8 1374.72,-120.8 1374.72,-120.8"/>
<polygon fill="black" stroke="black" points="1374.72,-124.3 1384.72,-120.8 1374.72,-117.3 1374.72,-124.3"/>
</g>
<!-- RoleModule -->
<g id="node14" class="node">
<title>RoleModule</title>
<polygon fill="#8dd3c7" stroke="black" points="995.99,-84.8 992.99,-88.8 971.99,-88.8 968.99,-84.8 910.01,-84.8 910.01,-48.8 995.99,-48.8 995.99,-84.8"/>
<text text-anchor="middle" x="953" y="-62.6" font-family="Times,serif" font-size="14.00">RoleModule</text>
</g>
<!-- RoleModule&#45;&gt;ServerTestModule -->
<g id="edge14" class="edge">
<title>RoleModule&#45;&gt;ServerTestModule</title>
<path fill="none" stroke="black" d="M953,-84.84C953,-101.53 953,-123.8 953,-123.8 953,-123.8 1374.67,-123.8 1374.67,-123.8"/>
<polygon fill="black" stroke="black" points="1374.67,-127.3 1384.67,-123.8 1374.67,-120.3 1374.67,-127.3"/>
</g>
<!-- SchoolModule -->
<g id="node15" class="node">
<title>SchoolModule</title>
<polygon fill="#8dd3c7" stroke="black" points="892.44,-84.8 889.44,-88.8 868.44,-88.8 865.44,-84.8 793.56,-84.8 793.56,-48.8 892.44,-48.8 892.44,-84.8"/>
<text text-anchor="middle" x="843" y="-62.6" font-family="Times,serif" font-size="14.00">SchoolModule</text>
</g>
<!-- SchoolModule&#45;&gt;ServerTestModule -->
<g id="edge15" class="edge">
<title>SchoolModule&#45;&gt;ServerTestModule</title>
<path fill="none" stroke="black" d="M843,-85.1C843,-103.07 843,-127.8 843,-127.8 843,-127.8 1374.8,-127.8 1374.8,-127.8"/>
<polygon fill="black" stroke="black" points="1374.8,-131.3 1384.8,-127.8 1374.8,-124.3 1374.8,-131.3"/>
</g>
<!-- SharingApiModule -->
<g id="node16" class="node">
<title>SharingApiModule</title>
<polygon fill="#8dd3c7" stroke="black" points="776.1,-84.8 773.1,-88.8 752.1,-88.8 749.1,-84.8 651.9,-84.8 651.9,-48.8 776.1,-48.8 776.1,-84.8"/>
<text text-anchor="middle" x="714" y="-62.6" font-family="Times,serif" font-size="14.00">SharingApiModule</text>
</g>
<!-- SharingApiModule&#45;&gt;ServerTestModule -->
<g id="edge16" class="edge">
<title>SharingApiModule&#45;&gt;ServerTestModule</title>
<path fill="none" stroke="black" d="M714,-84.97C714,-103.89 714,-130.8 714,-130.8 714,-130.8 1374.87,-130.8 1374.87,-130.8"/>
<polygon fill="black" stroke="black" points="1374.87,-134.3 1384.87,-130.8 1374.87,-127.3 1374.87,-134.3"/>
</g>
<!-- SystemModule -->
<g id="node17" class="node">
<title>SystemModule</title>
<polygon fill="#8dd3c7" stroke="black" points="634.28,-84.8 631.28,-88.8 610.28,-88.8 607.28,-84.8 533.72,-84.8 533.72,-48.8 634.28,-48.8 634.28,-84.8"/>
<text text-anchor="middle" x="584" y="-62.6" font-family="Times,serif" font-size="14.00">SystemModule</text>
</g>
<!-- SystemModule&#45;&gt;ServerTestModule -->
<g id="edge17" class="edge">
<title>SystemModule&#45;&gt;ServerTestModule</title>
<path fill="none" stroke="black" d="M584,-85.11C584,-104.95 584,-133.8 584,-133.8 584,-133.8 1374.8,-133.8 1374.8,-133.8"/>
<polygon fill="black" stroke="black" points="1374.8,-137.3 1384.8,-133.8 1374.8,-130.3 1374.8,-137.3"/>
</g>
<!-- TaskModule -->
<g id="node18" class="node">
<title>TaskModule</title>
<polygon fill="#8dd3c7" stroke="black" points="515.27,-84.8 512.27,-88.8 491.27,-88.8 488.27,-84.8 428.73,-84.8 428.73,-48.8 515.27,-48.8 515.27,-84.8"/>
<text text-anchor="middle" x="472" y="-62.6" font-family="Times,serif" font-size="14.00">TaskModule</text>
</g>
<!-- TaskModule&#45;&gt;ServerTestModule -->
<g id="edge18" class="edge">
<title>TaskModule&#45;&gt;ServerTestModule</title>
<path fill="none" stroke="black" d="M472,-84.83C472,-105.57 472,-136.8 472,-136.8 472,-136.8 1374.87,-136.8 1374.87,-136.8"/>
<polygon fill="black" stroke="black" points="1374.87,-140.3 1384.87,-136.8 1374.87,-133.3 1374.87,-140.3"/>
</g>
<!-- ToolApiModule -->
<g id="node19" class="node">
<title>ToolApiModule</title>
<polygon fill="#8dd3c7" stroke="black" points="410.49,-84.8 407.49,-88.8 386.49,-88.8 383.49,-84.8 303.51,-84.8 303.51,-48.8 410.49,-48.8 410.49,-84.8"/>
<text text-anchor="middle" x="357" y="-62.6" font-family="Times,serif" font-size="14.00">ToolApiModule</text>
</g>
<!-- ToolApiModule&#45;&gt;ServerTestModule -->
<g id="edge19" class="edge">
<title>ToolApiModule&#45;&gt;ServerTestModule</title>
<path fill="none" stroke="black" d="M357,-85.09C357,-107.01 357,-140.8 357,-140.8 357,-140.8 1374.56,-140.8 1374.56,-140.8"/>
<polygon fill="black" stroke="black" points="1374.56,-144.3 1384.56,-140.8 1374.56,-137.3 1374.56,-144.3"/>
</g>
<!-- UserModule -->
<g id="node20" class="node">
<title>UserModule</title>
<polygon fill="#8dd3c7" stroke="black" points="285.99,-84.8 282.99,-88.8 261.99,-88.8 258.99,-84.8 200.01,-84.8 200.01,-48.8 285.99,-48.8 285.99,-84.8"/>
<text text-anchor="middle" x="243" y="-62.6" font-family="Times,serif" font-size="14.00">UserModule</text>
</g>
<!-- UserModule&#45;&gt;ServerTestModule -->
<g id="edge20" class="edge">
<title>UserModule&#45;&gt;ServerTestModule</title>
<path fill="none" stroke="black" d="M243,-85.05C243,-107.82 243,-143.8 243,-143.8 243,-143.8 1374.57,-143.8 1374.57,-143.8"/>
<polygon fill="black" stroke="black" points="1374.57,-147.3 1384.57,-143.8 1374.57,-140.3 1374.57,-147.3"/>
</g>
<!-- VideoConferenceModule -->
<g id="node21" class="node">
<title>VideoConferenceModule</title>
<polygon fill="#8dd3c7" stroke="black" points="182.28,-84.8 179.28,-88.8 158.28,-88.8 155.28,-84.8 23.72,-84.8 23.72,-48.8 182.28,-48.8 182.28,-84.8"/>
<text text-anchor="middle" x="103" y="-62.6" font-family="Times,serif" font-size="14.00">VideoConferenceModule</text>
</g>
<!-- VideoConferenceModule&#45;&gt;ServerTestModule -->
<g id="edge21" class="edge">
<title>VideoConferenceModule&#45;&gt;ServerTestModule</title>
<path fill="none" stroke="black" d="M103,-84.95C103,-108.56 103,-146.8 103,-146.8 103,-146.8 1374.73,-146.8 1374.73,-146.8"/>
<polygon fill="black" stroke="black" points="1374.73,-150.3 1384.73,-146.8 1374.73,-143.3 1374.73,-150.3"/>
</g>
</g>
</svg>
