<?xml version="1.0" encoding="UTF-8" standalone="no"?>
<!DOCTYPE svg PUBLIC "-//W3C//DTD SVG 1.1//EN"
 "http://www.w3.org/Graphics/SVG/1.1/DTD/svg11.dtd">
<!-- Generated by graphviz version 5.0.0 (20220707.1540)
 -->
<!-- Title: dependencies Pages: 1 -->
<svg width="1927pt" height="247pt"
 viewBox="0.00 0.00 1927.00 246.80" xmlns="http://www.w3.org/2000/svg" xmlns:xlink="http://www.w3.org/1999/xlink">
<g id="graph0" class="graph" transform="scale(1 1) rotate(0) translate(4 242.8)">
<title>dependencies</title>
<polygon fill="white" stroke="transparent" points="-4,4 -4,-242.8 1923,-242.8 1923,4 -4,4"/>
<text text-anchor="middle" x="959.5" y="-8.2" font-family="sans-serif" font-size="14.00">dependencies</text>
<g id="clust1" class="cluster">
<title>cluster_BoardModule</title>
<polygon fill="none" stroke="black" stroke-dasharray="1,5" points="8,-32.8 8,-230.8 1911,-230.8 1911,-32.8 8,-32.8"/>
</g>
<g id="clust4" class="cluster">
<title>cluster_BoardModule_exports</title>
<polygon fill="none" stroke="black" points="805,-170.8 805,-222.8 1239,-222.8 1239,-170.8 805,-170.8"/>
</g>
<g id="clust3" class="cluster">
<title>cluster_BoardModule_imports</title>
<polygon fill="none" stroke="black" points="1627,-40.8 1627,-92.8 1903,-92.8 1903,-40.8 1627,-40.8"/>
</g>
<g id="clust6" class="cluster">
<title>cluster_BoardModule_providers</title>
<polygon fill="none" stroke="black" points="16,-40.8 16,-92.8 1619,-92.8 1619,-40.8 16,-40.8"/>
</g>
<!-- ConsoleWriterModule -->
<g id="node1" class="node">
<title>ConsoleWriterModule</title>
<polygon fill="#8dd3c7" stroke="black" points="1894.97,-84.8 1891.97,-88.8 1870.97,-88.8 1867.97,-84.8 1753.03,-84.8 1753.03,-48.8 1894.97,-48.8 1894.97,-84.8"/>
<text text-anchor="middle" x="1824" y="-62.6" font-family="Times,serif" font-size="14.00">ConsoleWriterModule</text>
</g>
<!-- BoardModule -->
<g id="node3" class="node">
<title>BoardModule</title>
<polygon fill="#8dd3c7" stroke="black" points="1100.77,-149.8 1097.77,-153.8 1076.77,-153.8 1073.77,-149.8 1007.23,-149.8 1007.23,-113.8 1100.77,-113.8 1100.77,-149.8"/>
<text text-anchor="middle" x="1054" y="-127.6" font-family="Times,serif" font-size="14.00">BoardModule</text>
</g>
<!-- ConsoleWriterModule&#45;&gt;BoardModule -->
<g id="edge1" class="edge">
<title>ConsoleWriterModule&#45;&gt;BoardModule</title>
<path fill="none" stroke="black" d="M1824,-84.84C1824,-106.46 1824,-139.8 1824,-139.8 1824,-139.8 1111.01,-139.8 1111.01,-139.8"/>
<polygon fill="black" stroke="black" points="1111.01,-136.3 1101.01,-139.8 1111.01,-143.3 1111.01,-136.3"/>
</g>
<!-- LoggerModule -->
<g id="node2" class="node">
<title>LoggerModule</title>
<polygon fill="#8dd3c7" stroke="black" points="1734.98,-84.8 1731.98,-88.8 1710.98,-88.8 1707.98,-84.8 1635.02,-84.8 1635.02,-48.8 1734.98,-48.8 1734.98,-84.8"/>
<text text-anchor="middle" x="1685" y="-62.6" font-family="Times,serif" font-size="14.00">LoggerModule</text>
</g>
<!-- LoggerModule&#45;&gt;BoardModule -->
<g id="edge2" class="edge">
<title>LoggerModule&#45;&gt;BoardModule</title>
<path fill="none" stroke="black" d="M1685,-85.02C1685,-105.17 1685,-134.8 1685,-134.8 1685,-134.8 1110.91,-134.8 1110.91,-134.8"/>
<polygon fill="black" stroke="black" points="1110.91,-131.3 1100.91,-134.8 1110.91,-138.3 1110.91,-131.3"/>
</g>
<!-- CardService  -->
<g id="node4" class="node">
<title>CardService </title>
<polygon fill="#fb8072" stroke="black" points="1231.19,-214.8 1142.81,-214.8 1142.81,-178.8 1231.19,-178.8 1231.19,-214.8"/>
<text text-anchor="middle" x="1187" y="-192.6" font-family="Times,serif" font-size="14.00">CardService </text>
</g>
<!-- BoardModule&#45;&gt;CardService  -->
<g id="edge3" class="edge">
<title>BoardModule&#45;&gt;CardService </title>
<path fill="none" stroke="black" stroke-dasharray="5,2" d="M1100.86,-144.8C1139.13,-144.8 1186.92,-144.8 1186.92,-144.8 1186.92,-144.8 1186.92,-168.61 1186.92,-168.61"/>
<polygon fill="black" stroke="black" points="1183.42,-168.61 1186.92,-178.61 1190.42,-168.61 1183.42,-168.61"/>
</g>
<!-- ColumnBoardService  -->
<g id="node5" class="node">
<title>ColumnBoardService </title>
<polygon fill="#fb8072" stroke="black" points="1124.31,-214.8 983.69,-214.8 983.69,-178.8 1124.31,-178.8 1124.31,-214.8"/>
<text text-anchor="middle" x="1054" y="-192.6" font-family="Times,serif" font-size="14.00">ColumnBoardService </text>
</g>
<!-- BoardModule&#45;&gt;ColumnBoardService  -->
<g id="edge4" class="edge">
<title>BoardModule&#45;&gt;ColumnBoardService </title>
<path fill="none" stroke="black" stroke-dasharray="5,2" d="M1054,-149.91C1054,-149.91 1054,-168.79 1054,-168.79"/>
<polygon fill="black" stroke="black" points="1050.5,-168.79 1054,-178.79 1057.5,-168.79 1050.5,-168.79"/>
</g>
<!-- ContentElementService  -->
<g id="node6" class="node">
<title>ContentElementService </title>
<polygon fill="#fb8072" stroke="black" points="965.46,-214.8 812.54,-214.8 812.54,-178.8 965.46,-178.8 965.46,-214.8"/>
<text text-anchor="middle" x="889" y="-192.6" font-family="Times,serif" font-size="14.00">ContentElementService </text>
</g>
<!-- BoardModule&#45;&gt;ContentElementService  -->
<g id="edge5" class="edge">
<title>BoardModule&#45;&gt;ContentElementService </title>
<path fill="none" stroke="black" stroke-dasharray="5,2" d="M1007.16,-144.8C958.38,-144.8 889,-144.8 889,-144.8 889,-144.8 889,-168.61 889,-168.61"/>
<polygon fill="black" stroke="black" points="885.5,-168.61 889,-178.61 892.5,-168.61 885.5,-168.61"/>
</g>
<!-- BoardManagementUc -->
<g id="node7" class="node">
<title>BoardManagementUc</title>
<ellipse fill="#fdb462" stroke="black" cx="1515" cy="-66.8" rx="96.12" ry="18"/>
<text text-anchor="middle" x="1515" y="-62.6" font-family="Times,serif" font-size="14.00">BoardManagementUc</text>
</g>
<!-- BoardManagementUc&#45;&gt;BoardModule -->
<g id="edge6" class="edge">
<title>BoardManagementUc&#45;&gt;BoardModule</title>
<path fill="none" stroke="black" d="M1515,-85.02C1515,-103.63 1515,-129.8 1515,-129.8 1515,-129.8 1111.17,-129.8 1111.17,-129.8"/>
<polygon fill="black" stroke="black" points="1111.17,-126.3 1101.17,-129.8 1111.17,-133.3 1111.17,-126.3"/>
</g>
<!-- BoardNodeRepo -->
<g id="node8" class="node">
<title>BoardNodeRepo</title>
<ellipse fill="#fdb462" stroke="black" cx="1325" cy="-66.8" rx="75.88" ry="18"/>
<text text-anchor="middle" x="1325" y="-62.6" font-family="Times,serif" font-size="14.00">BoardNodeRepo</text>
</g>
<!-- BoardNodeRepo&#45;&gt;BoardModule -->
<g id="edge7" class="edge">
<title>BoardNodeRepo&#45;&gt;BoardModule</title>
<path fill="none" stroke="black" d="M1325,-84.83C1325,-101.86 1325,-124.8 1325,-124.8 1325,-124.8 1110.9,-124.8 1110.9,-124.8"/>
<polygon fill="black" stroke="black" points="1110.9,-121.3 1100.9,-124.8 1110.9,-128.3 1110.9,-121.3"/>
</g>
<!-- CardRepo -->
<g id="node9" class="node">
<title>CardRepo</title>
<ellipse fill="#fdb462" stroke="black" cx="1181" cy="-66.8" rx="50.39" ry="18"/>
<text text-anchor="middle" x="1181" y="-62.6" font-family="Times,serif" font-size="14.00">CardRepo</text>
</g>
<!-- CardRepo&#45;&gt;BoardModule -->
<g id="edge8" class="edge">
<title>CardRepo&#45;&gt;BoardModule</title>
<path fill="none" stroke="black" d="M1136.73,-75.55C1136.73,-90.61 1136.73,-119.8 1136.73,-119.8 1136.73,-119.8 1111.17,-119.8 1111.17,-119.8"/>
<polygon fill="black" stroke="black" points="1111.17,-116.3 1101.17,-119.8 1111.17,-123.3 1111.17,-116.3"/>
</g>
<!-- CardService -->
<g id="node10" class="node">
<title>CardService</title>
<ellipse fill="#fdb462" stroke="black" cx="1054" cy="-66.8" rx="58.53" ry="18"/>
<text text-anchor="middle" x="1054" y="-62.6" font-family="Times,serif" font-size="14.00">CardService</text>
</g>
<!-- CardService&#45;&gt;BoardModule -->
<g id="edge9" class="edge">
<title>CardService&#45;&gt;BoardModule</title>
<path fill="none" stroke="black" d="M1054,-84.91C1054,-84.91 1054,-103.79 1054,-103.79"/>
<polygon fill="black" stroke="black" points="1050.5,-103.79 1054,-113.79 1057.5,-103.79 1050.5,-103.79"/>
</g>
<!-- ColumnBoardRepo -->
<g id="node11" class="node">
<title>ColumnBoardRepo</title>
<ellipse fill="#fdb462" stroke="black" cx="891" cy="-66.8" rx="86.28" ry="18"/>
<text text-anchor="middle" x="891" y="-62.6" font-family="Times,serif" font-size="14.00">ColumnBoardRepo</text>
</g>
<!-- ColumnBoardRepo&#45;&gt;BoardModule -->
<g id="edge10" class="edge">
<title>ColumnBoardRepo&#45;&gt;BoardModule</title>
<path fill="none" stroke="black" d="M971.19,-73.73C971.19,-88.1 971.19,-119.8 971.19,-119.8 971.19,-119.8 996.79,-119.8 996.79,-119.8"/>
<polygon fill="black" stroke="black" points="996.79,-123.3 1006.79,-119.8 996.79,-116.3 996.79,-123.3"/>
</g>
<!-- ColumnBoardService -->
<g id="node12" class="node">
<title>ColumnBoardService</title>
<ellipse fill="#fdb462" stroke="black" cx="692" cy="-66.8" rx="94.93" ry="18"/>
<text text-anchor="middle" x="692" y="-62.6" font-family="Times,serif" font-size="14.00">ColumnBoardService</text>
</g>
<!-- ColumnBoardService&#45;&gt;BoardModule -->
<g id="edge11" class="edge">
<title>ColumnBoardService&#45;&gt;BoardModule</title>
<path fill="none" stroke="black" d="M692,-84.83C692,-101.86 692,-124.8 692,-124.8 692,-124.8 997.05,-124.8 997.05,-124.8"/>
<polygon fill="black" stroke="black" points="997.05,-128.3 1007.05,-124.8 997.05,-121.3 997.05,-128.3"/>
</g>
<!-- ColumnRepo -->
<g id="node13" class="node">
<title>ColumnRepo</title>
<ellipse fill="#fdb462" stroke="black" cx="517" cy="-66.8" rx="62.58" ry="18"/>
<text text-anchor="middle" x="517" y="-62.6" font-family="Times,serif" font-size="14.00">ColumnRepo</text>
</g>
<!-- ColumnRepo&#45;&gt;BoardModule -->
<g id="edge12" class="edge">
<title>ColumnRepo&#45;&gt;BoardModule</title>
<path fill="none" stroke="black" d="M517,-85.02C517,-103.63 517,-129.8 517,-129.8 517,-129.8 996.82,-129.8 996.82,-129.8"/>
<polygon fill="black" stroke="black" points="996.82,-133.3 1006.82,-129.8 996.82,-126.3 996.82,-133.3"/>
</g>
<!-- ContentElementRepo -->
<g id="node14" class="node">
<title>ContentElementRepo</title>
<ellipse fill="#fdb462" stroke="black" cx="342" cy="-66.8" rx="94.35" ry="18"/>
<text text-anchor="middle" x="342" y="-62.6" font-family="Times,serif" font-size="14.00">ContentElementRepo</text>
</g>
<!-- ContentElementRepo&#45;&gt;BoardModule -->
<g id="edge13" class="edge">
<title>ContentElementRepo&#45;&gt;BoardModule</title>
<path fill="none" stroke="black" d="M342,-85.02C342,-105.17 342,-134.8 342,-134.8 342,-134.8 997.01,-134.8 997.01,-134.8"/>
<polygon fill="black" stroke="black" points="997.01,-138.3 1007.01,-134.8 997.01,-131.3 997.01,-138.3"/>
</g>
<!-- ContentElementService -->
<g id="node15" class="node">
<title>ContentElementService</title>
<ellipse fill="#fdb462" stroke="black" cx="127" cy="-66.8" rx="103" ry="18"/>
<text text-anchor="middle" x="127" y="-62.6" font-family="Times,serif" font-size="14.00">ContentElementService</text>
</g>
<!-- ContentElementService&#45;&gt;BoardModule -->
<g id="edge14" class="edge">
<title>ContentElementService&#45;&gt;BoardModule</title>
<path fill="none" stroke="black" d="M127,-84.84C127,-106.46 127,-139.8 127,-139.8 127,-139.8 997.08,-139.8 997.08,-139.8"/>
<polygon fill="black" stroke="black" points="997.08,-143.3 1007.08,-139.8 997.08,-136.3 997.08,-143.3"/>
</g>
</g>
</svg>
