<?xml version="1.0" encoding="UTF-8" standalone="no"?>
<!DOCTYPE svg PUBLIC "-//W3C//DTD SVG 1.1//EN"
 "http://www.w3.org/Graphics/SVG/1.1/DTD/svg11.dtd">
<!-- Generated by graphviz version 5.0.0 (20220707.1540)
 -->
<!-- Title: dependencies Pages: 1 -->
<svg width="1354pt" height="247pt"
 viewBox="0.00 0.00 1354.00 246.80" xmlns="http://www.w3.org/2000/svg" xmlns:xlink="http://www.w3.org/1999/xlink">
<g id="graph0" class="graph" transform="scale(1 1) rotate(0) translate(4 242.8)">
<title>dependencies</title>
<polygon fill="white" stroke="transparent" points="-4,4 -4,-242.8 1350,-242.8 1350,4 -4,4"/>
<text text-anchor="middle" x="673" y="-8.2" font-family="sans-serif" font-size="14.00">dependencies</text>
<g id="clust1" class="cluster">
<title>cluster_BoardModule</title>
<polygon fill="none" stroke="black" stroke-dasharray="1,5" points="8,-32.8 8,-230.8 1338,-230.8 1338,-32.8 8,-32.8"/>
</g>
<g id="clust6" class="cluster">
<title>cluster_BoardModule_providers</title>
<polygon fill="none" stroke="black" points="300,-40.8 300,-92.8 1330,-92.8 1330,-40.8 300,-40.8"/>
</g>
<g id="clust3" class="cluster">
<title>cluster_BoardModule_imports</title>
<polygon fill="none" stroke="black" points="16,-40.8 16,-92.8 292,-92.8 292,-40.8 16,-40.8"/>
</g>
<g id="clust4" class="cluster">
<title>cluster_BoardModule_exports</title>
<polygon fill="none" stroke="black" points="539,-170.8 539,-222.8 802,-222.8 802,-170.8 539,-170.8"/>
</g>
<!-- ConsoleWriterModule -->
<g id="node1" class="node">
<title>ConsoleWriterModule</title>
<polygon fill="#8dd3c7" stroke="black" points="283.97,-84.8 280.97,-88.8 259.97,-88.8 256.97,-84.8 142.03,-84.8 142.03,-48.8 283.97,-48.8 283.97,-84.8"/>
<text text-anchor="middle" x="213" y="-62.6" font-family="Times,serif" font-size="14.00">ConsoleWriterModule</text>
</g>
<!-- BoardModule -->
<g id="node3" class="node">
<title>BoardModule</title>
<polygon fill="#8dd3c7" stroke="black" points="729.77,-149.8 726.77,-153.8 705.77,-153.8 702.77,-149.8 636.23,-149.8 636.23,-113.8 729.77,-113.8 729.77,-149.8"/>
<text text-anchor="middle" x="683" y="-127.6" font-family="Times,serif" font-size="14.00">BoardModule</text>
</g>
<!-- ConsoleWriterModule&#45;&gt;BoardModule -->
<g id="edge1" class="edge">
<title>ConsoleWriterModule&#45;&gt;BoardModule</title>
<path fill="none" stroke="black" d="M213,-84.91C213,-104.14 213,-131.8 213,-131.8 213,-131.8 626.22,-131.8 626.22,-131.8"/>
<polygon fill="black" stroke="black" points="626.22,-135.3 636.22,-131.8 626.22,-128.3 626.22,-135.3"/>
</g>
<!-- LoggerModule -->
<g id="node2" class="node">
<title>LoggerModule</title>
<polygon fill="#8dd3c7" stroke="black" points="123.98,-84.8 120.98,-88.8 99.98,-88.8 96.98,-84.8 24.02,-84.8 24.02,-48.8 123.98,-48.8 123.98,-84.8"/>
<text text-anchor="middle" x="74" y="-62.6" font-family="Times,serif" font-size="14.00">LoggerModule</text>
</g>
<!-- LoggerModule&#45;&gt;BoardModule -->
<g id="edge2" class="edge">
<title>LoggerModule&#45;&gt;BoardModule</title>
<path fill="none" stroke="black" d="M74,-85.09C74,-107.01 74,-140.8 74,-140.8 74,-140.8 626.22,-140.8 626.22,-140.8"/>
<polygon fill="black" stroke="black" points="626.22,-144.3 636.22,-140.8 626.22,-137.3 626.22,-144.3"/>
</g>
<!-- CardService  -->
<g id="node4" class="node">
<title>CardService </title>
<polygon fill="#fb8072" stroke="black" points="794.19,-214.8 705.81,-214.8 705.81,-178.8 794.19,-178.8 794.19,-214.8"/>
<text text-anchor="middle" x="750" y="-192.6" font-family="Times,serif" font-size="14.00">CardService </text>
</g>
<!-- BoardModule&#45;&gt;CardService  -->
<g id="edge3" class="edge">
<title>BoardModule&#45;&gt;CardService </title>
<path fill="none" stroke="black" stroke-dasharray="5,2" d="M717.77,-149.91C717.77,-149.91 717.77,-168.79 717.77,-168.79"/>
<polygon fill="black" stroke="black" points="714.27,-168.79 717.77,-178.79 721.27,-168.79 714.27,-168.79"/>
</g>
<!-- ColumnBoardService  -->
<g id="node5" class="node">
<title>ColumnBoardService </title>
<polygon fill="#fb8072" stroke="black" points="687.31,-214.8 546.69,-214.8 546.69,-178.8 687.31,-178.8 687.31,-214.8"/>
<text text-anchor="middle" x="617" y="-192.6" font-family="Times,serif" font-size="14.00">ColumnBoardService </text>
</g>
<!-- BoardModule&#45;&gt;ColumnBoardService  -->
<g id="edge4" class="edge">
<title>BoardModule&#45;&gt;ColumnBoardService </title>
<path fill="none" stroke="black" stroke-dasharray="5,2" d="M661.76,-149.91C661.76,-149.91 661.76,-168.79 661.76,-168.79"/>
<polygon fill="black" stroke="black" points="658.26,-168.79 661.76,-178.79 665.26,-168.79 658.26,-168.79"/>
</g>
<!-- BoardManagementUc -->
<g id="node6" class="node">
<title>BoardManagementUc</title>
<ellipse fill="#fdb462" stroke="black" cx="1226" cy="-66.8" rx="96.12" ry="18"/>
<text text-anchor="middle" x="1226" y="-62.6" font-family="Times,serif" font-size="14.00">BoardManagementUc</text>
</g>
<!-- BoardManagementUc&#45;&gt;BoardModule -->
<g id="edge5" class="edge">
<title>BoardManagementUc&#45;&gt;BoardModule</title>
<path fill="none" stroke="black" d="M1226,-85.09C1226,-107.01 1226,-140.8 1226,-140.8 1226,-140.8 740.24,-140.8 740.24,-140.8"/>
<polygon fill="black" stroke="black" points="740.24,-137.3 730.24,-140.8 740.24,-144.3 740.24,-137.3"/>
</g>
<!-- BoardNodeRepo -->
<g id="node7" class="node">
<title>BoardNodeRepo</title>
<ellipse fill="#fdb462" stroke="black" cx="1036" cy="-66.8" rx="75.88" ry="18"/>
<text text-anchor="middle" x="1036" y="-62.6" font-family="Times,serif" font-size="14.00">BoardNodeRepo</text>
</g>
<!-- BoardNodeRepo&#45;&gt;BoardModule -->
<g id="edge6" class="edge">
<title>BoardNodeRepo&#45;&gt;BoardModule</title>
<path fill="none" stroke="black" d="M1036,-84.91C1036,-104.14 1036,-131.8 1036,-131.8 1036,-131.8 739.88,-131.8 739.88,-131.8"/>
<polygon fill="black" stroke="black" points="739.88,-128.3 729.88,-131.8 739.88,-135.3 739.88,-128.3"/>
</g>
<!-- CardRepo -->
<g id="node8" class="node">
<title>CardRepo</title>
<ellipse fill="#fdb462" stroke="black" cx="892" cy="-66.8" rx="50.39" ry="18"/>
<text text-anchor="middle" x="892" y="-62.6" font-family="Times,serif" font-size="14.00">CardRepo</text>
</g>
<!-- CardRepo&#45;&gt;BoardModule -->
<g id="edge7" class="edge">
<title>CardRepo&#45;&gt;BoardModule</title>
<path fill="none" stroke="black" d="M892,-84.83C892,-101.2 892,-122.8 892,-122.8 892,-122.8 739.9,-122.8 739.9,-122.8"/>
<polygon fill="black" stroke="black" points="739.9,-119.3 729.9,-122.8 739.9,-126.3 739.9,-119.3"/>
</g>
<!-- CardService -->
<g id="node9" class="node">
<title>CardService</title>
<ellipse fill="#fdb462" stroke="black" cx="765" cy="-66.8" rx="58.53" ry="18"/>
<text text-anchor="middle" x="765" y="-62.6" font-family="Times,serif" font-size="14.00">CardService</text>
</g>
<!-- CardService&#45;&gt;BoardModule -->
<g id="edge8" class="edge">
<title>CardService&#45;&gt;BoardModule</title>
<path fill="none" stroke="black" d="M718.06,-77.83C718.06,-77.83 718.06,-103.58 718.06,-103.58"/>
<polygon fill="black" stroke="black" points="714.56,-103.58 718.06,-113.58 721.56,-103.58 714.56,-103.58"/>
</g>
<!-- ColumnBoardRepo -->
<g id="node10" class="node">
<title>ColumnBoardRepo</title>
<ellipse fill="#fdb462" stroke="black" cx="602" cy="-66.8" rx="86.28" ry="18"/>
<text text-anchor="middle" x="602" y="-62.6" font-family="Times,serif" font-size="14.00">ColumnBoardRepo</text>
</g>
<!-- ColumnBoardRepo&#45;&gt;BoardModule -->
<g id="edge9" class="edge">
<title>ColumnBoardRepo&#45;&gt;BoardModule</title>
<path fill="none" stroke="black" d="M662.13,-79.95C662.13,-79.95 662.13,-103.49 662.13,-103.49"/>
<polygon fill="black" stroke="black" points="658.63,-103.49 662.13,-113.49 665.63,-103.49 658.63,-103.49"/>
</g>
<!-- ColumnBoardService -->
<g id="node11" class="node">
<title>ColumnBoardService</title>
<ellipse fill="#fdb462" stroke="black" cx="403" cy="-66.8" rx="94.93" ry="18"/>
<text text-anchor="middle" x="403" y="-62.6" font-family="Times,serif" font-size="14.00">ColumnBoardService</text>
</g>
<!-- ColumnBoardService&#45;&gt;BoardModule -->
<g id="edge10" class="edge">
<title>ColumnBoardService&#45;&gt;BoardModule</title>
<path fill="none" stroke="black" d="M403,-84.83C403,-101.2 403,-122.8 403,-122.8 403,-122.8 626.13,-122.8 626.13,-122.8"/>
<polygon fill="black" stroke="black" points="626.13,-126.3 636.13,-122.8 626.13,-119.3 626.13,-126.3"/>
</g>
</g>
</svg>
