<?xml version="1.0" encoding="UTF-8" standalone="no"?>
<!DOCTYPE svg PUBLIC "-//W3C//DTD SVG 1.1//EN"
 "http://www.w3.org/Graphics/SVG/1.1/DTD/svg11.dtd">
<!-- Generated by graphviz version 2.47.3 (20210619.1520)
 -->
<!-- Title: dependencies Pages: 1 -->
<svg width="340pt" height="174pt"
 viewBox="0.00 0.00 340.00 173.80" xmlns="http://www.w3.org/2000/svg" xmlns:xlink="http://www.w3.org/1999/xlink">
<g id="graph0" class="graph" transform="scale(1 1) rotate(0) translate(4 169.8)">
<title>dependencies</title>
<polygon fill="white" stroke="transparent" points="-4,4 -4,-169.8 336,-169.8 336,4 -4,4"/>
<text text-anchor="middle" x="166" y="-8.2" font-family="sans-serif" font-size="14.00">dependencies</text>
<g id="clust1" class="cluster">
<title>cluster_UserModule</title>
<polygon fill="none" stroke="black" stroke-dasharray="1,5" points="8,-32.8 8,-157.8 324,-157.8 324,-32.8 8,-32.8"/>
</g>
<g id="clust6" class="cluster">
<title>cluster_UserModule_providers</title>
<polygon fill="none" stroke="black" points="16,-40.8 16,-92.8 316,-92.8 316,-40.8 16,-40.8"/>
</g>
<!-- PermissionService -->
<g id="node1" class="node">
<title>PermissionService</title>
<ellipse fill="#fdb462" stroke="black" cx="225" cy="-66.8" rx="82.82" ry="18"/>
<text text-anchor="middle" x="225" y="-62.6" font-family="Times,serif" font-size="14.00">PermissionService</text>
</g>
<!-- UserModule -->
<g id="node3" class="node">
<title>UserModule</title>
<polygon fill="#8dd3c7" stroke="black" points="191.98,-149.8 188.98,-153.8 167.98,-153.8 164.98,-149.8 106.02,-149.8 106.02,-113.8 191.98,-113.8 191.98,-149.8"/>
<text text-anchor="middle" x="149" y="-127.6" font-family="Times,serif" font-size="14.00">UserModule</text>
</g>
<!-- PermissionService&#45;&gt;UserModule -->
<g id="edge1" class="edge">
<title>PermissionService&#45;&gt;UserModule</title>
<path fill="none" stroke="black" d="M167.04,-79.95C167.04,-79.95 167.04,-103.49 167.04,-103.49"/>
<polygon fill="black" stroke="black" points="163.54,-103.49 167.04,-113.49 170.54,-103.49 163.54,-103.49"/>
</g>
<!-- UserRepo -->
<g id="node2" class="node">
<title>UserRepo</title>
<ellipse fill="#fdb462" stroke="black" cx="74" cy="-66.8" rx="49.8" ry="18"/>
<text text-anchor="middle" x="74" y="-62.6" font-family="Times,serif" font-size="14.00">UserRepo</text>
</g>
<!-- UserRepo&#45;&gt;UserModule -->
<g id="edge2" class="edge">
<title>UserRepo&#45;&gt;UserModule</title>
<path fill="none" stroke="black" d="M114.83,-77.24C114.83,-77.24 114.83,-103.77 114.83,-103.77"/>
<polygon fill="black" stroke="black" points="111.33,-103.77 114.83,-113.77 118.33,-103.77 111.33,-103.77"/>
</g>
</g>
</svg>
