<?xml version="1.0" encoding="UTF-8" standalone="no"?>
<!DOCTYPE svg PUBLIC "-//W3C//DTD SVG 1.1//EN"
 "http://www.w3.org/Graphics/SVG/1.1/DTD/svg11.dtd">
<!-- Generated by graphviz version 5.0.0 (20220707.1540)
 -->
<!-- Title: dependencies Pages: 1 -->
<svg width="1286pt" height="247pt"
 viewBox="0.00 0.00 1286.00 246.80" xmlns="http://www.w3.org/2000/svg" xmlns:xlink="http://www.w3.org/1999/xlink">
<g id="graph0" class="graph" transform="scale(1 1) rotate(0) translate(4 242.8)">
<title>dependencies</title>
<polygon fill="white" stroke="transparent" points="-4,4 -4,-242.8 1282,-242.8 1282,4 -4,4"/>
<text text-anchor="middle" x="639" y="-8.2" font-family="sans-serif" font-size="14.00">dependencies</text>
<g id="clust1" class="cluster">
<title>cluster_UserModule</title>
<polygon fill="none" stroke="black" stroke-dasharray="1,5" points="8,-32.8 8,-230.8 1270,-230.8 1270,-32.8 8,-32.8"/>
</g>
<g id="clust3" class="cluster">
<title>cluster_UserModule_imports</title>
<polygon fill="none" stroke="black" points="1044,-40.8 1044,-92.8 1262,-92.8 1262,-40.8 1044,-40.8"/>
</g>
<g id="clust6" class="cluster">
<title>cluster_UserModule_providers</title>
<polygon fill="none" stroke="black" points="16,-40.8 16,-92.8 1036,-92.8 1036,-40.8 16,-40.8"/>
</g>
<g id="clust4" class="cluster">
<title>cluster_UserModule_exports</title>
<polygon fill="none" stroke="black" points="523,-170.8 523,-222.8 707,-222.8 707,-170.8 523,-170.8"/>
</g>
<!-- RoleModule -->
<g id="node1" class="node">
<title>RoleModule</title>
<polygon fill="#8dd3c7" stroke="black" points="1253.99,-84.8 1250.99,-88.8 1229.99,-88.8 1226.99,-84.8 1168.01,-84.8 1168.01,-48.8 1253.99,-48.8 1253.99,-84.8"/>
<text text-anchor="middle" x="1211" y="-62.6" font-family="Times,serif" font-size="14.00">RoleModule</text>
</g>
<!-- UserModule -->
<g id="node3" class="node">
<title>UserModule</title>
<polygon fill="#8dd3c7" stroke="black" points="651.99,-149.8 648.99,-153.8 627.99,-153.8 624.99,-149.8 566.01,-149.8 566.01,-113.8 651.99,-113.8 651.99,-149.8"/>
<text text-anchor="middle" x="609" y="-127.6" font-family="Times,serif" font-size="14.00">UserModule</text>
</g>
<!-- RoleModule&#45;&gt;UserModule -->
<g id="edge1" class="edge">
<title>RoleModule&#45;&gt;UserModule</title>
<path fill="none" stroke="black" d="M1211,-84.81C1211,-107.29 1211,-142.8 1211,-142.8 1211,-142.8 662.29,-142.8 662.29,-142.8"/>
<polygon fill="black" stroke="black" points="662.29,-139.3 652.29,-142.8 662.29,-146.3 662.29,-139.3"/>
</g>
<!-- SchoolModule -->
<g id="node2" class="node">
<title>SchoolModule</title>
<polygon fill="#8dd3c7" stroke="black" points="1150.44,-84.8 1147.44,-88.8 1126.44,-88.8 1123.44,-84.8 1051.56,-84.8 1051.56,-48.8 1150.44,-48.8 1150.44,-84.8"/>
<text text-anchor="middle" x="1101" y="-62.6" font-family="Times,serif" font-size="14.00">SchoolModule</text>
</g>
<!-- SchoolModule&#45;&gt;UserModule -->
<g id="edge2" class="edge">
<title>SchoolModule&#45;&gt;UserModule</title>
<path fill="none" stroke="black" d="M1101,-84.93C1101,-105.37 1101,-135.8 1101,-135.8 1101,-135.8 662.23,-135.8 662.23,-135.8"/>
<polygon fill="black" stroke="black" points="662.23,-132.3 652.23,-135.8 662.23,-139.3 662.23,-132.3"/>
</g>
<!-- UserService  -->
<g id="node4" class="node">
<title>UserService </title>
<polygon fill="#fb8072" stroke="black" points="698.91,-214.8 611.09,-214.8 611.09,-178.8 698.91,-178.8 698.91,-214.8"/>
<text text-anchor="middle" x="655" y="-192.6" font-family="Times,serif" font-size="14.00">UserService </text>
</g>
<!-- UserModule&#45;&gt;UserService  -->
<g id="edge3" class="edge">
<title>UserModule&#45;&gt;UserService </title>
<path fill="none" stroke="black" stroke-dasharray="5,2" d="M631.52,-149.91C631.52,-149.91 631.52,-168.79 631.52,-168.79"/>
<polygon fill="black" stroke="black" points="628.02,-168.79 631.52,-178.79 635.02,-168.79 628.02,-168.79"/>
</g>
<!-- UserUc  -->
<g id="node5" class="node">
<title>UserUc </title>
<polygon fill="#fb8072" stroke="black" points="593.26,-214.8 530.74,-214.8 530.74,-178.8 593.26,-178.8 593.26,-214.8"/>
<text text-anchor="middle" x="562" y="-192.6" font-family="Times,serif" font-size="14.00">UserUc </text>
</g>
<!-- UserModule&#45;&gt;UserUc  -->
<g id="edge4" class="edge">
<title>UserModule&#45;&gt;UserUc </title>
<path fill="none" stroke="black" stroke-dasharray="5,2" d="M579.57,-149.91C579.57,-149.91 579.57,-168.79 579.57,-168.79"/>
<polygon fill="black" stroke="black" points="576.07,-168.79 579.57,-178.79 583.07,-168.79 576.07,-168.79"/>
</g>
<!-- PermissionService -->
<g id="node6" class="node">
<title>PermissionService</title>
<ellipse fill="#fdb462" stroke="black" cx="945" cy="-66.8" rx="82.83" ry="18"/>
<text text-anchor="middle" x="945" y="-62.6" font-family="Times,serif" font-size="14.00">PermissionService</text>
</g>
<!-- PermissionService&#45;&gt;UserModule -->
<g id="edge5" class="edge">
<title>PermissionService&#45;&gt;UserModule</title>
<path fill="none" stroke="black" d="M945,-85.07C945,-103.36 945,-128.8 945,-128.8 945,-128.8 662.24,-128.8 662.24,-128.8"/>
<polygon fill="black" stroke="black" points="662.24,-125.3 652.24,-128.8 662.24,-132.3 662.24,-125.3"/>
</g>
<!-- RoleRepo -->
<g id="node7" class="node">
<title>RoleRepo</title>
<ellipse fill="#fdb462" stroke="black" cx="794" cy="-66.8" rx="49.82" ry="18"/>
<text text-anchor="middle" x="794" y="-62.6" font-family="Times,serif" font-size="14.00">RoleRepo</text>
</g>
<!-- RoleRepo&#45;&gt;UserModule -->
<g id="edge6" class="edge">
<title>RoleRepo&#45;&gt;UserModule</title>
<path fill="none" stroke="black" d="M794,-84.81C794,-100.85 794,-121.8 794,-121.8 794,-121.8 662.37,-121.8 662.37,-121.8"/>
<polygon fill="black" stroke="black" points="662.37,-118.3 652.37,-121.8 662.37,-125.3 662.37,-118.3"/>
</g>
<!-- RoleService -->
<g id="node8" class="node">
<title>RoleService</title>
<ellipse fill="#fdb462" stroke="black" cx="668" cy="-66.8" rx="58.46" ry="18"/>
<text text-anchor="middle" x="668" y="-62.6" font-family="Times,serif" font-size="14.00">RoleService</text>
</g>
<!-- RoleService&#45;&gt;UserModule -->
<g id="edge7" class="edge">
<title>RoleService&#45;&gt;UserModule</title>
<path fill="none" stroke="black" d="M630.88,-80.9C630.88,-80.9 630.88,-103.52 630.88,-103.52"/>
<polygon fill="black" stroke="black" points="627.38,-103.52 630.88,-113.52 634.38,-103.52 627.38,-103.52"/>
</g>
<!-- RoleUc -->
<g id="node9" class="node">
<title>RoleUc</title>
<ellipse fill="#fdb462" stroke="black" cx="551" cy="-66.8" rx="40.57" ry="18"/>
<text text-anchor="middle" x="551" y="-62.6" font-family="Times,serif" font-size="14.00">RoleUc</text>
</g>
<!-- RoleUc&#45;&gt;UserModule -->
<g id="edge8" class="edge">
<title>RoleUc&#45;&gt;UserModule</title>
<path fill="none" stroke="black" d="M578.77,-79.95C578.77,-79.95 578.77,-103.49 578.77,-103.49"/>
<polygon fill="black" stroke="black" points="575.27,-103.49 578.77,-113.49 582.27,-103.49 575.27,-103.49"/>
</g>
<!-- SchoolRepo -->
<g id="node10" class="node">
<title>SchoolRepo</title>
<ellipse fill="#fdb462" stroke="black" cx="434" cy="-66.8" rx="58.49" ry="18"/>
<text text-anchor="middle" x="434" y="-62.6" font-family="Times,serif" font-size="14.00">SchoolRepo</text>
</g>
<!-- SchoolRepo&#45;&gt;UserModule -->
<g id="edge9" class="edge">
<title>SchoolRepo&#45;&gt;UserModule</title>
<path fill="none" stroke="black" d="M434,-84.81C434,-100.85 434,-121.8 434,-121.8 434,-121.8 555.74,-121.8 555.74,-121.8"/>
<polygon fill="black" stroke="black" points="555.74,-125.3 565.74,-121.8 555.74,-118.3 555.74,-125.3"/>
</g>
<!-- UserRepo -->
<g id="node11" class="node">
<title>UserRepo</title>
<ellipse fill="#fdb462" stroke="black" cx="308" cy="-66.8" rx="49.81" ry="18"/>
<text text-anchor="middle" x="308" y="-62.6" font-family="Times,serif" font-size="14.00">UserRepo</text>
</g>
<!-- UserRepo&#45;&gt;UserModule -->
<g id="edge10" class="edge">
<title>UserRepo&#45;&gt;UserModule</title>
<path fill="none" stroke="black" d="M308,-85.07C308,-103.36 308,-128.8 308,-128.8 308,-128.8 555.87,-128.8 555.87,-128.8"/>
<polygon fill="black" stroke="black" points="555.87,-132.3 565.87,-128.8 555.87,-125.3 555.87,-132.3"/>
</g>
<!-- UserService -->
<g id="node12" class="node">
<title>UserService</title>
<ellipse fill="#fdb462" stroke="black" cx="182" cy="-66.8" rx="58.46" ry="18"/>
<text text-anchor="middle" x="182" y="-62.6" font-family="Times,serif" font-size="14.00">UserService</text>
</g>
<!-- UserService&#45;&gt;UserModule -->
<g id="edge11" class="edge">
<title>UserService&#45;&gt;UserModule</title>
<path fill="none" stroke="black" d="M182,-84.93C182,-105.37 182,-135.8 182,-135.8 182,-135.8 555.71,-135.8 555.71,-135.8"/>
<polygon fill="black" stroke="black" points="555.71,-139.3 565.71,-135.8 555.71,-132.3 555.71,-139.3"/>
</g>
<!-- UserUc -->
<g id="node13" class="node">
<title>UserUc</title>
<ellipse fill="#fdb462" stroke="black" cx="65" cy="-66.8" rx="40.56" ry="18"/>
<text text-anchor="middle" x="65" y="-62.6" font-family="Times,serif" font-size="14.00">UserUc</text>
</g>
<!-- UserUc&#45;&gt;UserModule -->
<g id="edge12" class="edge">
<title>UserUc&#45;&gt;UserModule</title>
<path fill="none" stroke="black" d="M65,-84.81C65,-107.29 65,-142.8 65,-142.8 65,-142.8 555.86,-142.8 555.86,-142.8"/>
<polygon fill="black" stroke="black" points="555.86,-146.3 565.86,-142.8 555.86,-139.3 555.86,-146.3"/>
</g>
</g>
</svg>
