<?xml version="1.0" encoding="UTF-8" standalone="no"?>
<!DOCTYPE svg PUBLIC "-//W3C//DTD SVG 1.1//EN"
 "http://www.w3.org/Graphics/SVG/1.1/DTD/svg11.dtd">
<!-- Generated by graphviz version 5.0.0 (20220707.1540)
 -->
<!-- Title: dependencies Pages: 1 -->
<svg width="1673pt" height="247pt"
 viewBox="0.00 0.00 1673.00 246.80" xmlns="http://www.w3.org/2000/svg" xmlns:xlink="http://www.w3.org/1999/xlink">
<g id="graph0" class="graph" transform="scale(1 1) rotate(0) translate(4 242.8)">
<title>dependencies</title>
<polygon fill="white" stroke="transparent" points="-4,4 -4,-242.8 1669,-242.8 1669,4 -4,4"/>
<text text-anchor="middle" x="832.5" y="-8.2" font-family="sans-serif" font-size="14.00">dependencies</text>
<g id="clust1" class="cluster">
<title>cluster_UserModule</title>
<polygon fill="none" stroke="black" stroke-dasharray="1,5" points="8,-32.8 8,-230.8 1657,-230.8 1657,-32.8 8,-32.8"/>
</g>
<g id="clust6" class="cluster">
<title>cluster_UserModule_providers</title>
<polygon fill="none" stroke="black" points="484,-40.8 484,-92.8 1649,-92.8 1649,-40.8 484,-40.8"/>
</g>
<g id="clust4" class="cluster">
<title>cluster_UserModule_exports</title>
<polygon fill="none" stroke="black" points="690,-170.8 690,-222.8 874,-222.8 874,-170.8 690,-170.8"/>
</g>
<g id="clust3" class="cluster">
<title>cluster_UserModule_imports</title>
<polygon fill="none" stroke="black" points="16,-40.8 16,-92.8 476,-92.8 476,-40.8 16,-40.8"/>
</g>
<!-- AccountModule -->
<g id="node1" class="node">
<title>AccountModule</title>
<polygon fill="#8dd3c7" stroke="black" points="468.48,-84.8 465.48,-88.8 444.48,-88.8 441.48,-84.8 361.52,-84.8 361.52,-48.8 468.48,-48.8 468.48,-84.8"/>
<text text-anchor="middle" x="415" y="-62.6" font-family="Times,serif" font-size="14.00">AccountModule</text>
</g>
<!-- UserModule -->
<g id="node5" class="node">
<title>UserModule</title>
<polygon fill="#8dd3c7" stroke="black" points="818.99,-149.8 815.99,-153.8 794.99,-153.8 791.99,-149.8 733.01,-149.8 733.01,-113.8 818.99,-113.8 818.99,-149.8"/>
<text text-anchor="middle" x="776" y="-127.6" font-family="Times,serif" font-size="14.00">UserModule</text>
</g>
<!-- AccountModule&#45;&gt;UserModule -->
<g id="edge1" class="edge">
<title>AccountModule&#45;&gt;UserModule</title>
<path fill="none" stroke="black" d="M415,-85.02C415,-103.63 415,-129.8 415,-129.8 415,-129.8 722.81,-129.8 722.81,-129.8"/>
<polygon fill="black" stroke="black" points="722.81,-133.3 732.81,-129.8 722.81,-126.3 722.81,-133.3"/>
</g>
<!-- LoggerModule -->
<g id="node2" class="node">
<title>LoggerModule</title>
<polygon fill="#8dd3c7" stroke="black" points="343.98,-84.8 340.98,-88.8 319.98,-88.8 316.98,-84.8 244.02,-84.8 244.02,-48.8 343.98,-48.8 343.98,-84.8"/>
<text text-anchor="middle" x="294" y="-62.6" font-family="Times,serif" font-size="14.00">LoggerModule</text>
</g>
<!-- LoggerModule&#45;&gt;UserModule -->
<g id="edge2" class="edge">
<title>LoggerModule&#45;&gt;UserModule</title>
<path fill="none" stroke="black" d="M294,-85.02C294,-105.17 294,-134.8 294,-134.8 294,-134.8 722.8,-134.8 722.8,-134.8"/>
<polygon fill="black" stroke="black" points="722.8,-138.3 732.8,-134.8 722.8,-131.3 722.8,-138.3"/>
</g>
<!-- RoleModule -->
<g id="node3" class="node">
<title>RoleModule</title>
<polygon fill="#8dd3c7" stroke="black" points="225.99,-84.8 222.99,-88.8 201.99,-88.8 198.99,-84.8 140.01,-84.8 140.01,-48.8 225.99,-48.8 225.99,-84.8"/>
<text text-anchor="middle" x="183" y="-62.6" font-family="Times,serif" font-size="14.00">RoleModule</text>
</g>
<!-- RoleModule&#45;&gt;UserModule -->
<g id="edge3" class="edge">
<title>RoleModule&#45;&gt;UserModule</title>
<path fill="none" stroke="black" d="M183,-84.84C183,-106.46 183,-139.8 183,-139.8 183,-139.8 722.88,-139.8 722.88,-139.8"/>
<polygon fill="black" stroke="black" points="722.88,-143.3 732.88,-139.8 722.88,-136.3 722.88,-143.3"/>
</g>
<!-- SchoolModule -->
<g id="node4" class="node">
<title>SchoolModule</title>
<polygon fill="#8dd3c7" stroke="black" points="122.44,-84.8 119.44,-88.8 98.44,-88.8 95.44,-84.8 23.56,-84.8 23.56,-48.8 122.44,-48.8 122.44,-84.8"/>
<text text-anchor="middle" x="73" y="-62.6" font-family="Times,serif" font-size="14.00">SchoolModule</text>
</g>
<!-- SchoolModule&#45;&gt;UserModule -->
<g id="edge4" class="edge">
<title>SchoolModule&#45;&gt;UserModule</title>
<path fill="none" stroke="black" d="M73,-84.89C73,-107.93 73,-144.8 73,-144.8 73,-144.8 722.82,-144.8 722.82,-144.8"/>
<polygon fill="black" stroke="black" points="722.82,-148.3 732.82,-144.8 722.82,-141.3 722.82,-148.3"/>
</g>
<!-- UserService  -->
<g id="node6" class="node">
<title>UserService </title>
<polygon fill="#fb8072" stroke="black" points="865.91,-214.8 778.09,-214.8 778.09,-178.8 865.91,-178.8 865.91,-214.8"/>
<text text-anchor="middle" x="822" y="-192.6" font-family="Times,serif" font-size="14.00">UserService </text>
</g>
<!-- UserModule&#45;&gt;UserService  -->
<g id="edge5" class="edge">
<title>UserModule&#45;&gt;UserService </title>
<path fill="none" stroke="black" stroke-dasharray="5,2" d="M798.52,-149.91C798.52,-149.91 798.52,-168.79 798.52,-168.79"/>
<polygon fill="black" stroke="black" points="795.02,-168.79 798.52,-178.79 802.02,-168.79 795.02,-168.79"/>
</g>
<!-- UserUc  -->
<g id="node7" class="node">
<title>UserUc </title>
<polygon fill="#fb8072" stroke="black" points="760.26,-214.8 697.74,-214.8 697.74,-178.8 760.26,-178.8 760.26,-214.8"/>
<text text-anchor="middle" x="729" y="-192.6" font-family="Times,serif" font-size="14.00">UserUc </text>
</g>
<!-- UserModule&#45;&gt;UserUc  -->
<g id="edge6" class="edge">
<title>UserModule&#45;&gt;UserUc </title>
<path fill="none" stroke="black" stroke-dasharray="5,2" d="M746.57,-149.91C746.57,-149.91 746.57,-168.79 746.57,-168.79"/>
<polygon fill="black" stroke="black" points="743.07,-168.79 746.57,-178.79 750.07,-168.79 743.07,-168.79"/>
</g>
<!-- PermissionService -->
<g id="node8" class="node">
<title>PermissionService</title>
<ellipse fill="#fdb462" stroke="black" cx="1558" cy="-66.8" rx="82.83" ry="18"/>
<text text-anchor="middle" x="1558" y="-62.6" font-family="Times,serif" font-size="14.00">PermissionService</text>
</g>
<!-- PermissionService&#45;&gt;UserModule -->
<g id="edge7" class="edge">
<title>PermissionService&#45;&gt;UserModule</title>
<path fill="none" stroke="black" d="M1558,-84.89C1558,-107.93 1558,-144.8 1558,-144.8 1558,-144.8 829.16,-144.8 829.16,-144.8"/>
<polygon fill="black" stroke="black" points="829.16,-141.3 819.16,-144.8 829.16,-148.3 829.16,-141.3"/>
</g>
<!-- RoleRepo -->
<g id="node9" class="node">
<title>RoleRepo</title>
<ellipse fill="#fdb462" stroke="black" cx="1407" cy="-66.8" rx="49.82" ry="18"/>
<text text-anchor="middle" x="1407" y="-62.6" font-family="Times,serif" font-size="14.00">RoleRepo</text>
</g>
<!-- RoleRepo&#45;&gt;UserModule -->
<g id="edge8" class="edge">
<title>RoleRepo&#45;&gt;UserModule</title>
<path fill="none" stroke="black" d="M1407,-84.84C1407,-106.46 1407,-139.8 1407,-139.8 1407,-139.8 829.37,-139.8 829.37,-139.8"/>
<polygon fill="black" stroke="black" points="829.37,-136.3 819.37,-139.8 829.37,-143.3 829.37,-136.3"/>
</g>
<!-- RoleService -->
<g id="node10" class="node">
<title>RoleService</title>
<ellipse fill="#fdb462" stroke="black" cx="1281" cy="-66.8" rx="58.46" ry="18"/>
<text text-anchor="middle" x="1281" y="-62.6" font-family="Times,serif" font-size="14.00">RoleService</text>
</g>
<!-- RoleService&#45;&gt;UserModule -->
<g id="edge9" class="edge">
<title>RoleService&#45;&gt;UserModule</title>
<path fill="none" stroke="black" d="M1281,-85.02C1281,-105.17 1281,-134.8 1281,-134.8 1281,-134.8 829.06,-134.8 829.06,-134.8"/>
<polygon fill="black" stroke="black" points="829.06,-131.3 819.06,-134.8 829.06,-138.3 829.06,-131.3"/>
</g>
<!-- RoleUc -->
<g id="node11" class="node">
<title>RoleUc</title>
<ellipse fill="#fdb462" stroke="black" cx="1164" cy="-66.8" rx="40.57" ry="18"/>
<text text-anchor="middle" x="1164" y="-62.6" font-family="Times,serif" font-size="14.00">RoleUc</text>
</g>
<!-- RoleUc&#45;&gt;UserModule -->
<g id="edge10" class="edge">
<title>RoleUc&#45;&gt;UserModule</title>
<path fill="none" stroke="black" d="M1164,-85.02C1164,-103.63 1164,-129.8 1164,-129.8 1164,-129.8 829.01,-129.8 829.01,-129.8"/>
<polygon fill="black" stroke="black" points="829.01,-126.3 819.01,-129.8 829.01,-133.3 829.01,-126.3"/>
</g>
<!-- SchoolRepo -->
<g id="node12" class="node">
<title>SchoolRepo</title>
<ellipse fill="#fdb462" stroke="black" cx="1047" cy="-66.8" rx="58.49" ry="18"/>
<text text-anchor="middle" x="1047" y="-62.6" font-family="Times,serif" font-size="14.00">SchoolRepo</text>
</g>
<!-- SchoolRepo&#45;&gt;UserModule -->
<g id="edge11" class="edge">
<title>SchoolRepo&#45;&gt;UserModule</title>
<path fill="none" stroke="black" d="M1047,-84.83C1047,-101.86 1047,-124.8 1047,-124.8 1047,-124.8 829.24,-124.8 829.24,-124.8"/>
<polygon fill="black" stroke="black" points="829.24,-121.3 819.24,-124.8 829.24,-128.3 829.24,-121.3"/>
</g>
<!-- UserDORepo -->
<g id="node13" class="node">
<title>UserDORepo</title>
<ellipse fill="#fdb462" stroke="black" cx="907" cy="-66.8" rx="63.71" ry="18"/>
<text text-anchor="middle" x="907" y="-62.6" font-family="Times,serif" font-size="14.00">UserDORepo</text>
</g>
<!-- UserDORepo&#45;&gt;UserModule -->
<g id="edge12" class="edge">
<title>UserDORepo&#45;&gt;UserModule</title>
<path fill="none" stroke="black" d="M854.68,-77.27C854.68,-92.72 854.68,-119.8 854.68,-119.8 854.68,-119.8 829.02,-119.8 829.02,-119.8"/>
<polygon fill="black" stroke="black" points="829.02,-116.3 819.02,-119.8 829.02,-123.3 829.02,-116.3"/>
</g>
<!-- UserRepo -->
<g id="node14" class="node">
<title>UserRepo</title>
<ellipse fill="#fdb462" stroke="black" cx="776" cy="-66.8" rx="49.81" ry="18"/>
<text text-anchor="middle" x="776" y="-62.6" font-family="Times,serif" font-size="14.00">UserRepo</text>
</g>
<!-- UserRepo&#45;&gt;UserModule -->
<g id="edge13" class="edge">
<title>UserRepo&#45;&gt;UserModule</title>
<path fill="none" stroke="black" d="M776,-84.91C776,-84.91 776,-103.79 776,-103.79"/>
<polygon fill="black" stroke="black" points="772.5,-103.79 776,-113.79 779.5,-103.79 772.5,-103.79"/>
</g>
<!-- UserService -->
<g id="node15" class="node">
<title>UserService</title>
<ellipse fill="#fdb462" stroke="black" cx="650" cy="-66.8" rx="58.46" ry="18"/>
<text text-anchor="middle" x="650" y="-62.6" font-family="Times,serif" font-size="14.00">UserService</text>
</g>
<!-- UserService&#45;&gt;UserModule -->
<g id="edge14" class="edge">
<title>UserService&#45;&gt;UserModule</title>
<path fill="none" stroke="black" d="M703.05,-74.62C703.05,-89.36 703.05,-119.8 703.05,-119.8 703.05,-119.8 722.72,-119.8 722.72,-119.8"/>
<polygon fill="black" stroke="black" points="722.72,-123.3 732.72,-119.8 722.72,-116.3 722.72,-123.3"/>
</g>
<!-- UserUc -->
<g id="node16" class="node">
<title>UserUc</title>
<ellipse fill="#fdb462" stroke="black" cx="533" cy="-66.8" rx="40.56" ry="18"/>
<text text-anchor="middle" x="533" y="-62.6" font-family="Times,serif" font-size="14.00">UserUc</text>
</g>
<!-- UserUc&#45;&gt;UserModule -->
<g id="edge15" class="edge">
<title>UserUc&#45;&gt;UserModule</title>
<path fill="none" stroke="black" d="M533,-84.83C533,-101.86 533,-124.8 533,-124.8 533,-124.8 722.84,-124.8 722.84,-124.8"/>
<polygon fill="black" stroke="black" points="722.84,-128.3 732.84,-124.8 722.84,-121.3 722.84,-128.3"/>
</g>
</g>
</svg>
