<?xml version="1.0" encoding="UTF-8" standalone="no"?>
<!DOCTYPE svg PUBLIC "-//W3C//DTD SVG 1.1//EN"
 "http://www.w3.org/Graphics/SVG/1.1/DTD/svg11.dtd">
<!-- Generated by graphviz version 3.0.0 (20220226.1711)
 -->
<!-- Title: dependencies Pages: 1 -->
<svg width="443pt" height="174pt"
 viewBox="0.00 0.00 443.00 173.80" xmlns="http://www.w3.org/2000/svg" xmlns:xlink="http://www.w3.org/1999/xlink">
<g id="graph0" class="graph" transform="scale(1 1) rotate(0) translate(4 169.8)">
<title>dependencies</title>
<polygon fill="white" stroke="transparent" points="-4,4 -4,-169.8 439,-169.8 439,4 -4,4"/>
<text text-anchor="middle" x="217.5" y="-8.2" font-family="sans-serif" font-size="14.00">dependencies</text>
<g id="clust1" class="cluster">
<title>cluster_UserModule</title>
<polygon fill="none" stroke="black" stroke-dasharray="1,5" points="8,-32.8 8,-157.8 427,-157.8 427,-32.8 8,-32.8"/>
</g>
<g id="clust6" class="cluster">
<title>cluster_UserModule_providers</title>
<polygon fill="none" stroke="black" points="16,-40.8 16,-92.8 419,-92.8 419,-40.8 16,-40.8"/>
</g>
<!-- PermissionService -->
<g id="node1" class="node">
<title>PermissionService</title>
<ellipse fill="#fdb462" stroke="black" cx="328" cy="-66.8" rx="82.83" ry="18"/>
<text text-anchor="middle" x="328" y="-62.6" font-family="Times,serif" font-size="14.00">PermissionService</text>
</g>
<!-- UserModule -->
<g id="node4" class="node">
<title>UserModule</title>
<polygon fill="#8dd3c7" stroke="black" points="219.99,-149.8 216.99,-153.8 195.99,-153.8 192.99,-149.8 134.01,-149.8 134.01,-113.8 219.99,-113.8 219.99,-149.8"/>
<text text-anchor="middle" x="177" y="-127.6" font-family="Times,serif" font-size="14.00">UserModule</text>
</g>
<!-- PermissionService&#45;&gt;UserModule -->
<g id="edge1" class="edge">
<title>PermissionService&#45;&gt;UserModule</title>
<path fill="none" stroke="black" d="M328,-84.91C328,-104.14 328,-131.8 328,-131.8 328,-131.8 230.27,-131.8 230.27,-131.8"/>
<polygon fill="black" stroke="black" points="230.27,-128.3 220.27,-131.8 230.27,-135.3 230.27,-128.3"/>
</g>
<!-- UserRepo -->
<g id="node2" class="node">
<title>UserRepo</title>
<ellipse fill="#fdb462" stroke="black" cx="177" cy="-66.8" rx="49.81" ry="18"/>
<text text-anchor="middle" x="177" y="-62.6" font-family="Times,serif" font-size="14.00">UserRepo</text>
</g>
<!-- UserRepo&#45;&gt;UserModule -->
<g id="edge2" class="edge">
<title>UserRepo&#45;&gt;UserModule</title>
<path fill="none" stroke="black" d="M177,-84.91C177,-84.91 177,-103.79 177,-103.79"/>
<polygon fill="black" stroke="black" points="173.5,-103.79 177,-113.79 180.5,-103.79 173.5,-103.79"/>
</g>
<!-- UserUC -->
<g id="node3" class="node">
<title>UserUC</title>
<ellipse fill="#fdb462" stroke="black" cx="67" cy="-66.8" rx="42.87" ry="18"/>
<text text-anchor="middle" x="67" y="-62.6" font-family="Times,serif" font-size="14.00">UserUC</text>
</g>
<!-- UserUC&#45;&gt;UserModule -->
<g id="edge3" class="edge">
<title>UserUC&#45;&gt;UserModule</title>
<path fill="none" stroke="black" d="M67,-84.91C67,-104.14 67,-131.8 67,-131.8 67,-131.8 123.84,-131.8 123.84,-131.8"/>
<polygon fill="black" stroke="black" points="123.84,-135.3 133.84,-131.8 123.84,-128.3 123.84,-135.3"/>
</g>
</g>
</svg>
