<?xml version="1.0" encoding="UTF-8" standalone="no"?>
<!DOCTYPE svg PUBLIC "-//W3C//DTD SVG 1.1//EN"
 "http://www.w3.org/Graphics/SVG/1.1/DTD/svg11.dtd">
<!-- Generated by graphviz version 5.0.0 (20220707.1540)
 -->
<!-- Title: dependencies Pages: 1 -->
<svg width="1404pt" height="247pt"
 viewBox="0.00 0.00 1404.00 246.80" xmlns="http://www.w3.org/2000/svg" xmlns:xlink="http://www.w3.org/1999/xlink">
<g id="graph0" class="graph" transform="scale(1 1) rotate(0) translate(4 242.8)">
<title>dependencies</title>
<polygon fill="white" stroke="transparent" points="-4,4 -4,-242.8 1400,-242.8 1400,4 -4,4"/>
<text text-anchor="middle" x="698" y="-8.2" font-family="sans-serif" font-size="14.00">dependencies</text>
<g id="clust1" class="cluster">
<title>cluster_UserModule</title>
<polygon fill="none" stroke="black" stroke-dasharray="1,5" points="8,-32.8 8,-230.8 1388,-230.8 1388,-32.8 8,-32.8"/>
</g>
<g id="clust6" class="cluster">
<title>cluster_UserModule_providers</title>
<polygon fill="none" stroke="black" points="360,-40.8 360,-92.8 1380,-92.8 1380,-40.8 360,-40.8"/>
</g>
<g id="clust4" class="cluster">
<title>cluster_UserModule_exports</title>
<polygon fill="none" stroke="black" points="566,-170.8 566,-222.8 750,-222.8 750,-170.8 566,-170.8"/>
</g>
<g id="clust3" class="cluster">
<title>cluster_UserModule_imports</title>
<polygon fill="none" stroke="black" points="16,-40.8 16,-92.8 352,-92.8 352,-40.8 16,-40.8"/>
</g>
<!-- LoggerModule -->
<g id="node1" class="node">
<title>LoggerModule</title>
<polygon fill="#8dd3c7" stroke="black" points="343.98,-84.8 340.98,-88.8 319.98,-88.8 316.98,-84.8 244.02,-84.8 244.02,-48.8 343.98,-48.8 343.98,-84.8"/>
<text text-anchor="middle" x="294" y="-62.6" font-family="Times,serif" font-size="14.00">LoggerModule</text>
</g>
<!-- UserModule -->
<g id="node4" class="node">
<title>UserModule</title>
<polygon fill="#8dd3c7" stroke="black" points="694.99,-149.8 691.99,-153.8 670.99,-153.8 667.99,-149.8 609.01,-149.8 609.01,-113.8 694.99,-113.8 694.99,-149.8"/>
<text text-anchor="middle" x="652" y="-127.6" font-family="Times,serif" font-size="14.00">UserModule</text>
</g>
<!-- LoggerModule&#45;&gt;UserModule -->
<g id="edge1" class="edge">
<title>LoggerModule&#45;&gt;UserModule</title>
<path fill="none" stroke="black" d="M294,-84.91C294,-104.14 294,-131.8 294,-131.8 294,-131.8 598.82,-131.8 598.82,-131.8"/>
<polygon fill="black" stroke="black" points="598.82,-135.3 608.82,-131.8 598.82,-128.3 598.82,-135.3"/>
</g>
<!-- RoleModule -->
<g id="node2" class="node">
<title>RoleModule</title>
<polygon fill="#8dd3c7" stroke="black" points="225.99,-84.8 222.99,-88.8 201.99,-88.8 198.99,-84.8 140.01,-84.8 140.01,-48.8 225.99,-48.8 225.99,-84.8"/>
<text text-anchor="middle" x="183" y="-62.6" font-family="Times,serif" font-size="14.00">RoleModule</text>
</g>
<!-- RoleModule&#45;&gt;UserModule -->
<g id="edge2" class="edge">
<title>RoleModule&#45;&gt;UserModule</title>
<path fill="none" stroke="black" d="M183,-85.08C183,-106.12 183,-137.8 183,-137.8 183,-137.8 598.72,-137.8 598.72,-137.8"/>
<polygon fill="black" stroke="black" points="598.72,-141.3 608.72,-137.8 598.72,-134.3 598.72,-141.3"/>
</g>
<!-- SchoolModule -->
<g id="node3" class="node">
<title>SchoolModule</title>
<polygon fill="#8dd3c7" stroke="black" points="122.44,-84.8 119.44,-88.8 98.44,-88.8 95.44,-84.8 23.56,-84.8 23.56,-48.8 122.44,-48.8 122.44,-84.8"/>
<text text-anchor="middle" x="73" y="-62.6" font-family="Times,serif" font-size="14.00">SchoolModule</text>
</g>
<!-- SchoolModule&#45;&gt;UserModule -->
<g id="edge3" class="edge">
<title>SchoolModule&#45;&gt;UserModule</title>
<path fill="none" stroke="black" d="M73,-85.05C73,-107.82 73,-143.8 73,-143.8 73,-143.8 598.95,-143.8 598.95,-143.8"/>
<polygon fill="black" stroke="black" points="598.95,-147.3 608.95,-143.8 598.95,-140.3 598.95,-147.3"/>
</g>
<!-- UserService  -->
<g id="node5" class="node">
<title>UserService </title>
<polygon fill="#fb8072" stroke="black" points="741.91,-214.8 654.09,-214.8 654.09,-178.8 741.91,-178.8 741.91,-214.8"/>
<text text-anchor="middle" x="698" y="-192.6" font-family="Times,serif" font-size="14.00">UserService </text>
</g>
<!-- UserModule&#45;&gt;UserService  -->
<g id="edge4" class="edge">
<title>UserModule&#45;&gt;UserService </title>
<path fill="none" stroke="black" stroke-dasharray="5,2" d="M674.52,-149.91C674.52,-149.91 674.52,-168.79 674.52,-168.79"/>
<polygon fill="black" stroke="black" points="671.02,-168.79 674.52,-178.79 678.02,-168.79 671.02,-168.79"/>
</g>
<!-- UserUc  -->
<g id="node6" class="node">
<title>UserUc </title>
<polygon fill="#fb8072" stroke="black" points="636.26,-214.8 573.74,-214.8 573.74,-178.8 636.26,-178.8 636.26,-214.8"/>
<text text-anchor="middle" x="605" y="-192.6" font-family="Times,serif" font-size="14.00">UserUc </text>
</g>
<!-- UserModule&#45;&gt;UserUc  -->
<g id="edge5" class="edge">
<title>UserModule&#45;&gt;UserUc </title>
<path fill="none" stroke="black" stroke-dasharray="5,2" d="M622.57,-149.91C622.57,-149.91 622.57,-168.79 622.57,-168.79"/>
<polygon fill="black" stroke="black" points="619.07,-168.79 622.57,-178.79 626.07,-168.79 619.07,-168.79"/>
</g>
<!-- PermissionService -->
<g id="node7" class="node">
<title>PermissionService</title>
<ellipse fill="#fdb462" stroke="black" cx="1289" cy="-66.8" rx="82.83" ry="18"/>
<text text-anchor="middle" x="1289" y="-62.6" font-family="Times,serif" font-size="14.00">PermissionService</text>
</g>
<!-- PermissionService&#45;&gt;UserModule -->
<g id="edge6" class="edge">
<title>PermissionService&#45;&gt;UserModule</title>
<path fill="none" stroke="black" d="M1289,-85.05C1289,-107.82 1289,-143.8 1289,-143.8 1289,-143.8 705.28,-143.8 705.28,-143.8"/>
<polygon fill="black" stroke="black" points="705.28,-140.3 695.28,-143.8 705.28,-147.3 705.28,-140.3"/>
</g>
<!-- RoleRepo -->
<g id="node8" class="node">
<title>RoleRepo</title>
<ellipse fill="#fdb462" stroke="black" cx="1138" cy="-66.8" rx="49.82" ry="18"/>
<text text-anchor="middle" x="1138" y="-62.6" font-family="Times,serif" font-size="14.00">RoleRepo</text>
</g>
<!-- RoleRepo&#45;&gt;UserModule -->
<g id="edge7" class="edge">
<title>RoleRepo&#45;&gt;UserModule</title>
<path fill="none" stroke="black" d="M1138,-85.08C1138,-106.12 1138,-137.8 1138,-137.8 1138,-137.8 705.13,-137.8 705.13,-137.8"/>
<polygon fill="black" stroke="black" points="705.13,-134.3 695.13,-137.8 705.13,-141.3 705.13,-134.3"/>
</g>
<!-- RoleService -->
<g id="node9" class="node">
<title>RoleService</title>
<ellipse fill="#fdb462" stroke="black" cx="1012" cy="-66.8" rx="58.46" ry="18"/>
<text text-anchor="middle" x="1012" y="-62.6" font-family="Times,serif" font-size="14.00">RoleService</text>
</g>
<!-- RoleService&#45;&gt;UserModule -->
<g id="edge8" class="edge">
<title>RoleService&#45;&gt;UserModule</title>
<path fill="none" stroke="black" d="M1012,-84.91C1012,-104.14 1012,-131.8 1012,-131.8 1012,-131.8 705.07,-131.8 705.07,-131.8"/>
<polygon fill="black" stroke="black" points="705.07,-128.3 695.07,-131.8 705.07,-135.3 705.07,-128.3"/>
</g>
<!-- RoleUc -->
<g id="node10" class="node">
<title>RoleUc</title>
<ellipse fill="#fdb462" stroke="black" cx="895" cy="-66.8" rx="40.57" ry="18"/>
<text text-anchor="middle" x="895" y="-62.6" font-family="Times,serif" font-size="14.00">RoleUc</text>
</g>
<!-- RoleUc&#45;&gt;UserModule -->
<g id="edge9" class="edge">
<title>RoleUc&#45;&gt;UserModule</title>
<path fill="none" stroke="black" d="M895,-84.82C895,-102.17 895,-125.8 895,-125.8 895,-125.8 705.16,-125.8 705.16,-125.8"/>
<polygon fill="black" stroke="black" points="705.16,-122.3 695.16,-125.8 705.16,-129.3 705.16,-122.3"/>
</g>
<!-- SchoolRepo -->
<g id="node11" class="node">
<title>SchoolRepo</title>
<ellipse fill="#fdb462" stroke="black" cx="778" cy="-66.8" rx="58.49" ry="18"/>
<text text-anchor="middle" x="778" y="-62.6" font-family="Times,serif" font-size="14.00">SchoolRepo</text>
</g>
<!-- SchoolRepo&#45;&gt;UserModule -->
<g id="edge10" class="edge">
<title>SchoolRepo&#45;&gt;UserModule</title>
<path fill="none" stroke="black" d="M730.86,-77.53C730.86,-93.01 730.86,-119.8 730.86,-119.8 730.86,-119.8 705.12,-119.8 705.12,-119.8"/>
<polygon fill="black" stroke="black" points="705.12,-116.3 695.12,-119.8 705.12,-123.3 705.12,-116.3"/>
</g>
<!-- UserRepo -->
<g id="node12" class="node">
<title>UserRepo</title>
<ellipse fill="#fdb462" stroke="black" cx="652" cy="-66.8" rx="49.81" ry="18"/>
<text text-anchor="middle" x="652" y="-62.6" font-family="Times,serif" font-size="14.00">UserRepo</text>
</g>
<!-- UserRepo&#45;&gt;UserModule -->
<g id="edge11" class="edge">
<title>UserRepo&#45;&gt;UserModule</title>
<path fill="none" stroke="black" d="M652,-84.91C652,-84.91 652,-103.79 652,-103.79"/>
<polygon fill="black" stroke="black" points="648.5,-103.79 652,-113.79 655.5,-103.79 648.5,-103.79"/>
</g>
<!-- UserService -->
<g id="node13" class="node">
<title>UserService</title>
<ellipse fill="#fdb462" stroke="black" cx="526" cy="-66.8" rx="58.46" ry="18"/>
<text text-anchor="middle" x="526" y="-62.6" font-family="Times,serif" font-size="14.00">UserService</text>
</g>
<!-- UserService&#45;&gt;UserModule -->
<g id="edge12" class="edge">
<title>UserService&#45;&gt;UserModule</title>
<path fill="none" stroke="black" d="M579.05,-74.62C579.05,-89.36 579.05,-119.8 579.05,-119.8 579.05,-119.8 598.72,-119.8 598.72,-119.8"/>
<polygon fill="black" stroke="black" points="598.72,-123.3 608.72,-119.8 598.72,-116.3 598.72,-123.3"/>
</g>
<!-- UserUc -->
<g id="node14" class="node">
<title>UserUc</title>
<ellipse fill="#fdb462" stroke="black" cx="409" cy="-66.8" rx="40.56" ry="18"/>
<text text-anchor="middle" x="409" y="-62.6" font-family="Times,serif" font-size="14.00">UserUc</text>
</g>
<!-- UserUc&#45;&gt;UserModule -->
<g id="edge13" class="edge">
<title>UserUc&#45;&gt;UserModule</title>
<path fill="none" stroke="black" d="M409,-84.82C409,-102.17 409,-125.8 409,-125.8 409,-125.8 598.84,-125.8 598.84,-125.8"/>
<polygon fill="black" stroke="black" points="598.84,-129.3 608.84,-125.8 598.84,-122.3 598.84,-129.3"/>
</g>
</g>
</svg>
