<?xml version="1.0" encoding="UTF-8" standalone="no"?>
<!DOCTYPE svg PUBLIC "-//W3C//DTD SVG 1.1//EN"
 "http://www.w3.org/Graphics/SVG/1.1/DTD/svg11.dtd">
<!-- Generated by graphviz version 5.0.0 (20220707.1540)
 -->
<!-- Title: dependencies Pages: 1 -->
<svg width="1549pt" height="247pt"
 viewBox="0.00 0.00 1549.00 246.80" xmlns="http://www.w3.org/2000/svg" xmlns:xlink="http://www.w3.org/1999/xlink">
<g id="graph0" class="graph" transform="scale(1 1) rotate(0) translate(4 242.8)">
<title>dependencies</title>
<polygon fill="white" stroke="transparent" points="-4,4 -4,-242.8 1545,-242.8 1545,4 -4,4"/>
<text text-anchor="middle" x="770.5" y="-8.2" font-family="sans-serif" font-size="14.00">dependencies</text>
<g id="clust1" class="cluster">
<title>cluster_UserModule</title>
<polygon fill="none" stroke="black" stroke-dasharray="1,5" points="8,-32.8 8,-230.8 1533,-230.8 1533,-32.8 8,-32.8"/>
</g>
<g id="clust3" class="cluster">
<title>cluster_UserModule_imports</title>
<polygon fill="none" stroke="black" points="1189,-40.8 1189,-92.8 1525,-92.8 1525,-40.8 1189,-40.8"/>
</g>
<g id="clust4" class="cluster">
<title>cluster_UserModule_exports</title>
<polygon fill="none" stroke="black" points="668,-170.8 668,-222.8 852,-222.8 852,-170.8 668,-170.8"/>
</g>
<g id="clust6" class="cluster">
<title>cluster_UserModule_providers</title>
<polygon fill="none" stroke="black" points="16,-40.8 16,-92.8 1181,-92.8 1181,-40.8 16,-40.8"/>
</g>
<!-- LoggerModule -->
<g id="node1" class="node">
<title>LoggerModule</title>
<polygon fill="#8dd3c7" stroke="black" points="1516.98,-84.8 1513.98,-88.8 1492.98,-88.8 1489.98,-84.8 1417.02,-84.8 1417.02,-48.8 1516.98,-48.8 1516.98,-84.8"/>
<text text-anchor="middle" x="1467" y="-62.6" font-family="Times,serif" font-size="14.00">LoggerModule</text>
</g>
<!-- UserModule -->
<g id="node4" class="node">
<title>UserModule</title>
<polygon fill="#8dd3c7" stroke="black" points="796.99,-149.8 793.99,-153.8 772.99,-153.8 769.99,-149.8 711.01,-149.8 711.01,-113.8 796.99,-113.8 796.99,-149.8"/>
<text text-anchor="middle" x="754" y="-127.6" font-family="Times,serif" font-size="14.00">UserModule</text>
</g>
<!-- LoggerModule&#45;&gt;UserModule -->
<g id="edge1" class="edge">
<title>LoggerModule&#45;&gt;UserModule</title>
<path fill="none" stroke="black" d="M1467,-85.05C1467,-107.82 1467,-143.8 1467,-143.8 1467,-143.8 807,-143.8 807,-143.8"/>
<polygon fill="black" stroke="black" points="807,-140.3 797,-143.8 807,-147.3 807,-140.3"/>
</g>
<!-- RoleModule -->
<g id="node2" class="node">
<title>RoleModule</title>
<polygon fill="#8dd3c7" stroke="black" points="1398.99,-84.8 1395.99,-88.8 1374.99,-88.8 1371.99,-84.8 1313.01,-84.8 1313.01,-48.8 1398.99,-48.8 1398.99,-84.8"/>
<text text-anchor="middle" x="1356" y="-62.6" font-family="Times,serif" font-size="14.00">RoleModule</text>
</g>
<!-- RoleModule&#45;&gt;UserModule -->
<g id="edge2" class="edge">
<title>RoleModule&#45;&gt;UserModule</title>
<path fill="none" stroke="black" d="M1356,-85.08C1356,-106.12 1356,-137.8 1356,-137.8 1356,-137.8 807.29,-137.8 807.29,-137.8"/>
<polygon fill="black" stroke="black" points="807.29,-134.3 797.29,-137.8 807.29,-141.3 807.29,-134.3"/>
</g>
<!-- SchoolModule -->
<g id="node3" class="node">
<title>SchoolModule</title>
<polygon fill="#8dd3c7" stroke="black" points="1295.44,-84.8 1292.44,-88.8 1271.44,-88.8 1268.44,-84.8 1196.56,-84.8 1196.56,-48.8 1295.44,-48.8 1295.44,-84.8"/>
<text text-anchor="middle" x="1246" y="-62.6" font-family="Times,serif" font-size="14.00">SchoolModule</text>
</g>
<!-- SchoolModule&#45;&gt;UserModule -->
<g id="edge3" class="edge">
<title>SchoolModule&#45;&gt;UserModule</title>
<path fill="none" stroke="black" d="M1246,-84.91C1246,-104.14 1246,-131.8 1246,-131.8 1246,-131.8 807.23,-131.8 807.23,-131.8"/>
<polygon fill="black" stroke="black" points="807.23,-128.3 797.23,-131.8 807.23,-135.3 807.23,-128.3"/>
</g>
<!-- UserService  -->
<g id="node5" class="node">
<title>UserService </title>
<polygon fill="#fb8072" stroke="black" points="843.91,-214.8 756.09,-214.8 756.09,-178.8 843.91,-178.8 843.91,-214.8"/>
<text text-anchor="middle" x="800" y="-192.6" font-family="Times,serif" font-size="14.00">UserService </text>
</g>
<!-- UserModule&#45;&gt;UserService  -->
<g id="edge4" class="edge">
<title>UserModule&#45;&gt;UserService </title>
<path fill="none" stroke="black" stroke-dasharray="5,2" d="M776.52,-149.91C776.52,-149.91 776.52,-168.79 776.52,-168.79"/>
<polygon fill="black" stroke="black" points="773.02,-168.79 776.52,-178.79 780.02,-168.79 773.02,-168.79"/>
</g>
<!-- UserUc  -->
<g id="node6" class="node">
<title>UserUc </title>
<polygon fill="#fb8072" stroke="black" points="738.26,-214.8 675.74,-214.8 675.74,-178.8 738.26,-178.8 738.26,-214.8"/>
<text text-anchor="middle" x="707" y="-192.6" font-family="Times,serif" font-size="14.00">UserUc </text>
</g>
<!-- UserModule&#45;&gt;UserUc  -->
<g id="edge5" class="edge">
<title>UserModule&#45;&gt;UserUc </title>
<path fill="none" stroke="black" stroke-dasharray="5,2" d="M724.57,-149.91C724.57,-149.91 724.57,-168.79 724.57,-168.79"/>
<polygon fill="black" stroke="black" points="721.07,-168.79 724.57,-178.79 728.07,-168.79 721.07,-168.79"/>
</g>
<!-- PermissionService -->
<g id="node7" class="node">
<title>PermissionService</title>
<ellipse fill="#fdb462" stroke="black" cx="1090" cy="-66.8" rx="82.83" ry="18"/>
<text text-anchor="middle" x="1090" y="-62.6" font-family="Times,serif" font-size="14.00">PermissionService</text>
</g>
<!-- PermissionService&#45;&gt;UserModule -->
<g id="edge6" class="edge">
<title>PermissionService&#45;&gt;UserModule</title>
<path fill="none" stroke="black" d="M1090,-84.82C1090,-102.17 1090,-125.8 1090,-125.8 1090,-125.8 807.24,-125.8 807.24,-125.8"/>
<polygon fill="black" stroke="black" points="807.24,-122.3 797.24,-125.8 807.24,-129.3 807.24,-122.3"/>
</g>
<!-- RoleRepo -->
<g id="node8" class="node">
<title>RoleRepo</title>
<ellipse fill="#fdb462" stroke="black" cx="939" cy="-66.8" rx="49.82" ry="18"/>
<text text-anchor="middle" x="939" y="-62.6" font-family="Times,serif" font-size="14.00">RoleRepo</text>
</g>
<!-- RoleRepo&#45;&gt;UserModule -->
<g id="edge7" class="edge">
<title>RoleRepo&#45;&gt;UserModule</title>
<path fill="none" stroke="black" d="M939,-85.04C939,-100.37 939,-119.8 939,-119.8 939,-119.8 807.37,-119.8 807.37,-119.8"/>
<polygon fill="black" stroke="black" points="807.37,-116.3 797.37,-119.8 807.37,-123.3 807.37,-116.3"/>
</g>
<!-- RoleService -->
<g id="node9" class="node">
<title>RoleService</title>
<ellipse fill="#fdb462" stroke="black" cx="813" cy="-66.8" rx="58.46" ry="18"/>
<text text-anchor="middle" x="813" y="-62.6" font-family="Times,serif" font-size="14.00">RoleService</text>
</g>
<!-- RoleService&#45;&gt;UserModule -->
<g id="edge8" class="edge">
<title>RoleService&#45;&gt;UserModule</title>
<path fill="none" stroke="black" d="M775.88,-80.9C775.88,-80.9 775.88,-103.52 775.88,-103.52"/>
<polygon fill="black" stroke="black" points="772.38,-103.52 775.88,-113.52 779.38,-103.52 772.38,-103.52"/>
</g>
<!-- RoleUc -->
<g id="node10" class="node">
<title>RoleUc</title>
<ellipse fill="#fdb462" stroke="black" cx="696" cy="-66.8" rx="40.57" ry="18"/>
<text text-anchor="middle" x="696" y="-62.6" font-family="Times,serif" font-size="14.00">RoleUc</text>
</g>
<!-- RoleUc&#45;&gt;UserModule -->
<g id="edge9" class="edge">
<title>RoleUc&#45;&gt;UserModule</title>
<path fill="none" stroke="black" d="M723.77,-79.95C723.77,-79.95 723.77,-103.49 723.77,-103.49"/>
<polygon fill="black" stroke="black" points="720.27,-103.49 723.77,-113.49 727.27,-103.49 720.27,-103.49"/>
</g>
<!-- SchoolRepo -->
<g id="node11" class="node">
<title>SchoolRepo</title>
<ellipse fill="#fdb462" stroke="black" cx="579" cy="-66.8" rx="58.49" ry="18"/>
<text text-anchor="middle" x="579" y="-62.6" font-family="Times,serif" font-size="14.00">SchoolRepo</text>
</g>
<!-- SchoolRepo&#45;&gt;UserModule -->
<g id="edge10" class="edge">
<title>SchoolRepo&#45;&gt;UserModule</title>
<path fill="none" stroke="black" d="M579,-85.04C579,-100.37 579,-119.8 579,-119.8 579,-119.8 700.74,-119.8 700.74,-119.8"/>
<polygon fill="black" stroke="black" points="700.74,-123.3 710.74,-119.8 700.74,-116.3 700.74,-123.3"/>
</g>
<!-- UserDORepo -->
<g id="node12" class="node">
<title>UserDORepo</title>
<ellipse fill="#fdb462" stroke="black" cx="439" cy="-66.8" rx="63.71" ry="18"/>
<text text-anchor="middle" x="439" y="-62.6" font-family="Times,serif" font-size="14.00">UserDORepo</text>
</g>
<!-- UserDORepo&#45;&gt;UserModule -->
<g id="edge11" class="edge">
<title>UserDORepo&#45;&gt;UserModule</title>
<path fill="none" stroke="black" d="M439,-84.82C439,-102.17 439,-125.8 439,-125.8 439,-125.8 700.86,-125.8 700.86,-125.8"/>
<polygon fill="black" stroke="black" points="700.86,-129.3 710.86,-125.8 700.86,-122.3 700.86,-129.3"/>
</g>
<!-- UserRepo -->
<g id="node13" class="node">
<title>UserRepo</title>
<ellipse fill="#fdb462" stroke="black" cx="308" cy="-66.8" rx="49.81" ry="18"/>
<text text-anchor="middle" x="308" y="-62.6" font-family="Times,serif" font-size="14.00">UserRepo</text>
</g>
<!-- UserRepo&#45;&gt;UserModule -->
<g id="edge12" class="edge">
<title>UserRepo&#45;&gt;UserModule</title>
<path fill="none" stroke="black" d="M308,-84.91C308,-104.14 308,-131.8 308,-131.8 308,-131.8 700.83,-131.8 700.83,-131.8"/>
<polygon fill="black" stroke="black" points="700.83,-135.3 710.83,-131.8 700.83,-128.3 700.83,-135.3"/>
</g>
<!-- UserService -->
<g id="node14" class="node">
<title>UserService</title>
<ellipse fill="#fdb462" stroke="black" cx="182" cy="-66.8" rx="58.46" ry="18"/>
<text text-anchor="middle" x="182" y="-62.6" font-family="Times,serif" font-size="14.00">UserService</text>
</g>
<!-- UserService&#45;&gt;UserModule -->
<g id="edge13" class="edge">
<title>UserService&#45;&gt;UserModule</title>
<path fill="none" stroke="black" d="M182,-85.08C182,-106.12 182,-137.8 182,-137.8 182,-137.8 701.01,-137.8 701.01,-137.8"/>
<polygon fill="black" stroke="black" points="701.01,-141.3 711.01,-137.8 701.01,-134.3 701.01,-141.3"/>
</g>
<!-- UserUc -->
<g id="node15" class="node">
<title>UserUc</title>
<ellipse fill="#fdb462" stroke="black" cx="65" cy="-66.8" rx="40.56" ry="18"/>
<text text-anchor="middle" x="65" y="-62.6" font-family="Times,serif" font-size="14.00">UserUc</text>
</g>
<!-- UserUc&#45;&gt;UserModule -->
<g id="edge14" class="edge">
<title>UserUc&#45;&gt;UserModule</title>
<path fill="none" stroke="black" d="M65,-85.05C65,-107.82 65,-143.8 65,-143.8 65,-143.8 700.9,-143.8 700.9,-143.8"/>
<polygon fill="black" stroke="black" points="700.9,-147.3 710.9,-143.8 700.9,-140.3 700.9,-147.3"/>
</g>
</g>
</svg>
