<?xml version="1.0" encoding="UTF-8" standalone="no"?>
<!DOCTYPE svg PUBLIC "-//W3C//DTD SVG 1.1//EN"
 "http://www.w3.org/Graphics/SVG/1.1/DTD/svg11.dtd">
<!-- Generated by graphviz version 5.0.0 (20220707.1540)
 -->
<!-- Title: dependencies Pages: 1 -->
<svg width="1404pt" height="247pt"
 viewBox="0.00 0.00 1404.00 246.80" xmlns="http://www.w3.org/2000/svg" xmlns:xlink="http://www.w3.org/1999/xlink">
<g id="graph0" class="graph" transform="scale(1 1) rotate(0) translate(4 242.8)">
<title>dependencies</title>
<polygon fill="white" stroke="transparent" points="-4,4 -4,-242.8 1400,-242.8 1400,4 -4,4"/>
<text text-anchor="middle" x="698" y="-8.2" font-family="sans-serif" font-size="14.00">dependencies</text>
<g id="clust1" class="cluster">
<title>cluster_UserModule</title>
<polygon fill="none" stroke="black" stroke-dasharray="1,5" points="8,-32.8 8,-230.8 1388,-230.8 1388,-32.8 8,-32.8"/>
</g>
<g id="clust3" class="cluster">
<title>cluster_UserModule_imports</title>
<polygon fill="none" stroke="black" points="1044,-40.8 1044,-92.8 1380,-92.8 1380,-40.8 1044,-40.8"/>
</g>
<g id="clust4" class="cluster">
<title>cluster_UserModule_exports</title>
<polygon fill="none" stroke="black" points="582,-170.8 582,-222.8 766,-222.8 766,-170.8 582,-170.8"/>
</g>
<g id="clust6" class="cluster">
<title>cluster_UserModule_providers</title>
<polygon fill="none" stroke="black" points="16,-40.8 16,-92.8 1036,-92.8 1036,-40.8 16,-40.8"/>
</g>
<!-- LoggerModule -->
<g id="node1" class="node">
<title>LoggerModule</title>
<polygon fill="#8dd3c7" stroke="black" points="1371.98,-84.8 1368.98,-88.8 1347.98,-88.8 1344.98,-84.8 1272.02,-84.8 1272.02,-48.8 1371.98,-48.8 1371.98,-84.8"/>
<text text-anchor="middle" x="1322" y="-62.6" font-family="Times,serif" font-size="14.00">LoggerModule</text>
</g>
<!-- UserModule -->
<g id="node4" class="node">
<title>UserModule</title>
<polygon fill="#8dd3c7" stroke="black" points="710.99,-149.8 707.99,-153.8 686.99,-153.8 683.99,-149.8 625.01,-149.8 625.01,-113.8 710.99,-113.8 710.99,-149.8"/>
<text text-anchor="middle" x="668" y="-127.6" font-family="Times,serif" font-size="14.00">UserModule</text>
</g>
<!-- LoggerModule&#45;&gt;UserModule -->
<g id="edge1" class="edge">
<title>LoggerModule&#45;&gt;UserModule</title>
<path fill="none" stroke="black" d="M1322,-85.05C1322,-107.82 1322,-143.8 1322,-143.8 1322,-143.8 721.16,-143.8 721.16,-143.8"/>
<polygon fill="black" stroke="black" points="721.16,-140.3 711.16,-143.8 721.16,-147.3 721.16,-140.3"/>
</g>
<!-- RoleModule -->
<g id="node2" class="node">
<title>RoleModule</title>
<polygon fill="#8dd3c7" stroke="black" points="1253.99,-84.8 1250.99,-88.8 1229.99,-88.8 1226.99,-84.8 1168.01,-84.8 1168.01,-48.8 1253.99,-48.8 1253.99,-84.8"/>
<text text-anchor="middle" x="1211" y="-62.6" font-family="Times,serif" font-size="14.00">RoleModule</text>
</g>
<!-- RoleModule&#45;&gt;UserModule -->
<g id="edge2" class="edge">
<title>RoleModule&#45;&gt;UserModule</title>
<path fill="none" stroke="black" d="M1211,-85.08C1211,-106.12 1211,-137.8 1211,-137.8 1211,-137.8 721.06,-137.8 721.06,-137.8"/>
<polygon fill="black" stroke="black" points="721.06,-134.3 711.06,-137.8 721.06,-141.3 721.06,-134.3"/>
</g>
<!-- SchoolModule -->
<g id="node3" class="node">
<title>SchoolModule</title>
<polygon fill="#8dd3c7" stroke="black" points="1150.44,-84.8 1147.44,-88.8 1126.44,-88.8 1123.44,-84.8 1051.56,-84.8 1051.56,-48.8 1150.44,-48.8 1150.44,-84.8"/>
<text text-anchor="middle" x="1101" y="-62.6" font-family="Times,serif" font-size="14.00">SchoolModule</text>
</g>
<!-- SchoolModule&#45;&gt;UserModule -->
<g id="edge3" class="edge">
<title>SchoolModule&#45;&gt;UserModule</title>
<path fill="none" stroke="black" d="M1101,-84.91C1101,-104.14 1101,-131.8 1101,-131.8 1101,-131.8 721.1,-131.8 721.1,-131.8"/>
<polygon fill="black" stroke="black" points="721.1,-128.3 711.1,-131.8 721.1,-135.3 721.1,-128.3"/>
</g>
<!-- UserService  -->
<g id="node5" class="node">
<title>UserService </title>
<polygon fill="#fb8072" stroke="black" points="757.91,-214.8 670.09,-214.8 670.09,-178.8 757.91,-178.8 757.91,-214.8"/>
<text text-anchor="middle" x="714" y="-192.6" font-family="Times,serif" font-size="14.00">UserService </text>
</g>
<!-- UserModule&#45;&gt;UserService  -->
<g id="edge4" class="edge">
<title>UserModule&#45;&gt;UserService </title>
<path fill="none" stroke="black" stroke-dasharray="5,2" d="M690.52,-149.91C690.52,-149.91 690.52,-168.79 690.52,-168.79"/>
<polygon fill="black" stroke="black" points="687.02,-168.79 690.52,-178.79 694.02,-168.79 687.02,-168.79"/>
</g>
<!-- UserUc  -->
<g id="node6" class="node">
<title>UserUc </title>
<polygon fill="#fb8072" stroke="black" points="652.26,-214.8 589.74,-214.8 589.74,-178.8 652.26,-178.8 652.26,-214.8"/>
<text text-anchor="middle" x="621" y="-192.6" font-family="Times,serif" font-size="14.00">UserUc </text>
</g>
<!-- UserModule&#45;&gt;UserUc  -->
<g id="edge5" class="edge">
<title>UserModule&#45;&gt;UserUc </title>
<path fill="none" stroke="black" stroke-dasharray="5,2" d="M638.57,-149.91C638.57,-149.91 638.57,-168.79 638.57,-168.79"/>
<polygon fill="black" stroke="black" points="635.07,-168.79 638.57,-178.79 642.07,-168.79 635.07,-168.79"/>
</g>
<!-- PermissionService -->
<g id="node7" class="node">
<title>PermissionService</title>
<ellipse fill="#fdb462" stroke="black" cx="945" cy="-66.8" rx="82.83" ry="18"/>
<text text-anchor="middle" x="945" y="-62.6" font-family="Times,serif" font-size="14.00">PermissionService</text>
</g>
<!-- PermissionService&#45;&gt;UserModule -->
<g id="edge6" class="edge">
<title>PermissionService&#45;&gt;UserModule</title>
<path fill="none" stroke="black" d="M945,-84.82C945,-102.17 945,-125.8 945,-125.8 945,-125.8 721.28,-125.8 721.28,-125.8"/>
<polygon fill="black" stroke="black" points="721.28,-122.3 711.28,-125.8 721.28,-129.3 721.28,-122.3"/>
</g>
<!-- RoleRepo -->
<g id="node8" class="node">
<title>RoleRepo</title>
<ellipse fill="#fdb462" stroke="black" cx="794" cy="-66.8" rx="49.82" ry="18"/>
<text text-anchor="middle" x="794" y="-62.6" font-family="Times,serif" font-size="14.00">RoleRepo</text>
</g>
<!-- RoleRepo&#45;&gt;UserModule -->
<g id="edge7" class="edge">
<title>RoleRepo&#45;&gt;UserModule</title>
<path fill="none" stroke="black" d="M751.15,-76.03C751.15,-91.22 751.15,-119.8 751.15,-119.8 751.15,-119.8 721.04,-119.8 721.04,-119.8"/>
<polygon fill="black" stroke="black" points="721.04,-116.3 711.04,-119.8 721.04,-123.3 721.04,-116.3"/>
</g>
<!-- RoleService -->
<g id="node9" class="node">
<title>RoleService</title>
<ellipse fill="#fdb462" stroke="black" cx="668" cy="-66.8" rx="58.46" ry="18"/>
<text text-anchor="middle" x="668" y="-62.6" font-family="Times,serif" font-size="14.00">RoleService</text>
</g>
<!-- RoleService&#45;&gt;UserModule -->
<g id="edge8" class="edge">
<title>RoleService&#45;&gt;UserModule</title>
<path fill="none" stroke="black" d="M668,-84.91C668,-84.91 668,-103.79 668,-103.79"/>
<polygon fill="black" stroke="black" points="664.5,-103.79 668,-113.79 671.5,-103.79 664.5,-103.79"/>
</g>
<!-- RoleUc -->
<g id="node10" class="node">
<title>RoleUc</title>
<ellipse fill="#fdb462" stroke="black" cx="551" cy="-66.8" rx="40.57" ry="18"/>
<text text-anchor="middle" x="551" y="-62.6" font-family="Times,serif" font-size="14.00">RoleUc</text>
</g>
<!-- RoleUc&#45;&gt;UserModule -->
<g id="edge9" class="edge">
<title>RoleUc&#45;&gt;UserModule</title>
<path fill="none" stroke="black" d="M550.17,-85.04C550.17,-100.37 550.17,-119.8 550.17,-119.8 550.17,-119.8 614.79,-119.8 614.79,-119.8"/>
<polygon fill="black" stroke="black" points="614.79,-123.3 624.79,-119.8 614.79,-116.3 614.79,-123.3"/>
</g>
<!-- SchoolRepo -->
<g id="node11" class="node">
<title>SchoolRepo</title>
<ellipse fill="#fdb462" stroke="black" cx="434" cy="-66.8" rx="58.49" ry="18"/>
<text text-anchor="middle" x="434" y="-62.6" font-family="Times,serif" font-size="14.00">SchoolRepo</text>
</g>
<!-- SchoolRepo&#45;&gt;UserModule -->
<g id="edge10" class="edge">
<title>SchoolRepo&#45;&gt;UserModule</title>
<path fill="none" stroke="black" d="M434,-84.82C434,-102.17 434,-125.8 434,-125.8 434,-125.8 614.81,-125.8 614.81,-125.8"/>
<polygon fill="black" stroke="black" points="614.81,-129.3 624.81,-125.8 614.81,-122.3 614.81,-129.3"/>
</g>
<!-- UserRepo -->
<g id="node12" class="node">
<title>UserRepo</title>
<ellipse fill="#fdb462" stroke="black" cx="308" cy="-66.8" rx="49.81" ry="18"/>
<text text-anchor="middle" x="308" y="-62.6" font-family="Times,serif" font-size="14.00">UserRepo</text>
</g>
<!-- UserRepo&#45;&gt;UserModule -->
<g id="edge11" class="edge">
<title>UserRepo&#45;&gt;UserModule</title>
<path fill="none" stroke="black" d="M308,-84.91C308,-104.14 308,-131.8 308,-131.8 308,-131.8 614.93,-131.8 614.93,-131.8"/>
<polygon fill="black" stroke="black" points="614.93,-135.3 624.93,-131.8 614.93,-128.3 614.93,-135.3"/>
</g>
<!-- UserService -->
<g id="node13" class="node">
<title>UserService</title>
<ellipse fill="#fdb462" stroke="black" cx="182" cy="-66.8" rx="58.46" ry="18"/>
<text text-anchor="middle" x="182" y="-62.6" font-family="Times,serif" font-size="14.00">UserService</text>
</g>
<!-- UserService&#45;&gt;UserModule -->
<g id="edge12" class="edge">
<title>UserService&#45;&gt;UserModule</title>
<path fill="none" stroke="black" d="M182,-85.08C182,-106.12 182,-137.8 182,-137.8 182,-137.8 614.87,-137.8 614.87,-137.8"/>
<polygon fill="black" stroke="black" points="614.87,-141.3 624.87,-137.8 614.87,-134.3 614.87,-141.3"/>
</g>
<!-- UserUc -->
<g id="node14" class="node">
<title>UserUc</title>
<ellipse fill="#fdb462" stroke="black" cx="65" cy="-66.8" rx="40.56" ry="18"/>
<text text-anchor="middle" x="65" y="-62.6" font-family="Times,serif" font-size="14.00">UserUc</text>
</g>
<!-- UserUc&#45;&gt;UserModule -->
<g id="edge13" class="edge">
<title>UserUc&#45;&gt;UserModule</title>
<path fill="none" stroke="black" d="M65,-85.05C65,-107.82 65,-143.8 65,-143.8 65,-143.8 614.63,-143.8 614.63,-143.8"/>
<polygon fill="black" stroke="black" points="614.63,-147.3 624.63,-143.8 614.63,-140.3 614.63,-147.3"/>
</g>
</g>
</svg>
