<?xml version="1.0" encoding="UTF-8" standalone="no"?>
<!DOCTYPE svg PUBLIC "-//W3C//DTD SVG 1.1//EN"
 "http://www.w3.org/Graphics/SVG/1.1/DTD/svg11.dtd">
<!-- Generated by graphviz version 5.0.0 (20220707.1540)
 -->
<!-- Title: dependencies Pages: 1 -->
<svg width="1549pt" height="247pt"
 viewBox="0.00 0.00 1549.00 246.80" xmlns="http://www.w3.org/2000/svg" xmlns:xlink="http://www.w3.org/1999/xlink">
<g id="graph0" class="graph" transform="scale(1 1) rotate(0) translate(4 242.8)">
<title>dependencies</title>
<polygon fill="white" stroke="transparent" points="-4,4 -4,-242.8 1545,-242.8 1545,4 -4,4"/>
<text text-anchor="middle" x="770.5" y="-8.2" font-family="sans-serif" font-size="14.00">dependencies</text>
<g id="clust1" class="cluster">
<title>cluster_UserModule</title>
<polygon fill="none" stroke="black" stroke-dasharray="1,5" points="8,-32.8 8,-230.8 1533,-230.8 1533,-32.8 8,-32.8"/>
</g>
<g id="clust6" class="cluster">
<title>cluster_UserModule_providers</title>
<polygon fill="none" stroke="black" points="360,-40.8 360,-92.8 1525,-92.8 1525,-40.8 360,-40.8"/>
</g>
<g id="clust4" class="cluster">
<title>cluster_UserModule_exports</title>
<polygon fill="none" stroke="black" points="631,-170.8 631,-222.8 815,-222.8 815,-170.8 631,-170.8"/>
</g>
<g id="clust3" class="cluster">
<title>cluster_UserModule_imports</title>
<polygon fill="none" stroke="black" points="16,-40.8 16,-92.8 352,-92.8 352,-40.8 16,-40.8"/>
</g>
<!-- LoggerModule -->
<g id="node1" class="node">
<title>LoggerModule</title>
<polygon fill="#8dd3c7" stroke="black" points="343.98,-84.8 340.98,-88.8 319.98,-88.8 316.98,-84.8 244.02,-84.8 244.02,-48.8 343.98,-48.8 343.98,-84.8"/>
<text text-anchor="middle" x="294" y="-62.6" font-family="Times,serif" font-size="14.00">LoggerModule</text>
</g>
<!-- UserModule -->
<g id="node4" class="node">
<title>UserModule</title>
<polygon fill="#8dd3c7" stroke="black" points="759.99,-149.8 756.99,-153.8 735.99,-153.8 732.99,-149.8 674.01,-149.8 674.01,-113.8 759.99,-113.8 759.99,-149.8"/>
<text text-anchor="middle" x="717" y="-127.6" font-family="Times,serif" font-size="14.00">UserModule</text>
</g>
<!-- LoggerModule&#45;&gt;UserModule -->
<g id="edge1" class="edge">
<title>LoggerModule&#45;&gt;UserModule</title>
<path fill="none" stroke="black" d="M294,-84.91C294,-104.14 294,-131.8 294,-131.8 294,-131.8 663.72,-131.8 663.72,-131.8"/>
<polygon fill="black" stroke="black" points="663.72,-135.3 673.72,-131.8 663.72,-128.3 663.72,-135.3"/>
</g>
<!-- RoleModule -->
<g id="node2" class="node">
<title>RoleModule</title>
<polygon fill="#8dd3c7" stroke="black" points="225.99,-84.8 222.99,-88.8 201.99,-88.8 198.99,-84.8 140.01,-84.8 140.01,-48.8 225.99,-48.8 225.99,-84.8"/>
<text text-anchor="middle" x="183" y="-62.6" font-family="Times,serif" font-size="14.00">RoleModule</text>
</g>
<!-- RoleModule&#45;&gt;UserModule -->
<g id="edge2" class="edge">
<title>RoleModule&#45;&gt;UserModule</title>
<path fill="none" stroke="black" d="M183,-85.08C183,-106.12 183,-137.8 183,-137.8 183,-137.8 663.75,-137.8 663.75,-137.8"/>
<polygon fill="black" stroke="black" points="663.75,-141.3 673.75,-137.8 663.75,-134.3 663.75,-141.3"/>
</g>
<!-- SchoolModule -->
<g id="node3" class="node">
<title>SchoolModule</title>
<polygon fill="#8dd3c7" stroke="black" points="122.44,-84.8 119.44,-88.8 98.44,-88.8 95.44,-84.8 23.56,-84.8 23.56,-48.8 122.44,-48.8 122.44,-84.8"/>
<text text-anchor="middle" x="73" y="-62.6" font-family="Times,serif" font-size="14.00">SchoolModule</text>
</g>
<!-- SchoolModule&#45;&gt;UserModule -->
<g id="edge3" class="edge">
<title>SchoolModule&#45;&gt;UserModule</title>
<path fill="none" stroke="black" d="M73,-85.05C73,-107.82 73,-143.8 73,-143.8 73,-143.8 664,-143.8 664,-143.8"/>
<polygon fill="black" stroke="black" points="664,-147.3 674,-143.8 664,-140.3 664,-147.3"/>
</g>
<!-- UserService  -->
<g id="node5" class="node">
<title>UserService </title>
<polygon fill="#fb8072" stroke="black" points="806.91,-214.8 719.09,-214.8 719.09,-178.8 806.91,-178.8 806.91,-214.8"/>
<text text-anchor="middle" x="763" y="-192.6" font-family="Times,serif" font-size="14.00">UserService </text>
</g>
<!-- UserModule&#45;&gt;UserService  -->
<g id="edge4" class="edge">
<title>UserModule&#45;&gt;UserService </title>
<path fill="none" stroke="black" stroke-dasharray="5,2" d="M739.52,-149.91C739.52,-149.91 739.52,-168.79 739.52,-168.79"/>
<polygon fill="black" stroke="black" points="736.02,-168.79 739.52,-178.79 743.02,-168.79 736.02,-168.79"/>
</g>
<!-- UserUc  -->
<g id="node6" class="node">
<title>UserUc </title>
<polygon fill="#fb8072" stroke="black" points="701.26,-214.8 638.74,-214.8 638.74,-178.8 701.26,-178.8 701.26,-214.8"/>
<text text-anchor="middle" x="670" y="-192.6" font-family="Times,serif" font-size="14.00">UserUc </text>
</g>
<!-- UserModule&#45;&gt;UserUc  -->
<g id="edge5" class="edge">
<title>UserModule&#45;&gt;UserUc </title>
<path fill="none" stroke="black" stroke-dasharray="5,2" d="M687.57,-149.91C687.57,-149.91 687.57,-168.79 687.57,-168.79"/>
<polygon fill="black" stroke="black" points="684.07,-168.79 687.57,-178.79 691.07,-168.79 684.07,-168.79"/>
</g>
<!-- PermissionService -->
<g id="node7" class="node">
<title>PermissionService</title>
<ellipse fill="#fdb462" stroke="black" cx="1434" cy="-66.8" rx="82.83" ry="18"/>
<text text-anchor="middle" x="1434" y="-62.6" font-family="Times,serif" font-size="14.00">PermissionService</text>
</g>
<!-- PermissionService&#45;&gt;UserModule -->
<g id="edge6" class="edge">
<title>PermissionService&#45;&gt;UserModule</title>
<path fill="none" stroke="black" d="M1434,-85.05C1434,-107.82 1434,-143.8 1434,-143.8 1434,-143.8 770.24,-143.8 770.24,-143.8"/>
<polygon fill="black" stroke="black" points="770.24,-140.3 760.24,-143.8 770.24,-147.3 770.24,-140.3"/>
</g>
<!-- RoleRepo -->
<g id="node8" class="node">
<title>RoleRepo</title>
<ellipse fill="#fdb462" stroke="black" cx="1283" cy="-66.8" rx="49.82" ry="18"/>
<text text-anchor="middle" x="1283" y="-62.6" font-family="Times,serif" font-size="14.00">RoleRepo</text>
</g>
<!-- RoleRepo&#45;&gt;UserModule -->
<g id="edge7" class="edge">
<title>RoleRepo&#45;&gt;UserModule</title>
<path fill="none" stroke="black" d="M1283,-85.08C1283,-106.12 1283,-137.8 1283,-137.8 1283,-137.8 770.01,-137.8 770.01,-137.8"/>
<polygon fill="black" stroke="black" points="770.01,-134.3 760.01,-137.8 770.01,-141.3 770.01,-134.3"/>
</g>
<!-- RoleService -->
<g id="node9" class="node">
<title>RoleService</title>
<ellipse fill="#fdb462" stroke="black" cx="1157" cy="-66.8" rx="58.46" ry="18"/>
<text text-anchor="middle" x="1157" y="-62.6" font-family="Times,serif" font-size="14.00">RoleService</text>
</g>
<!-- RoleService&#45;&gt;UserModule -->
<g id="edge8" class="edge">
<title>RoleService&#45;&gt;UserModule</title>
<path fill="none" stroke="black" d="M1157,-84.91C1157,-104.14 1157,-131.8 1157,-131.8 1157,-131.8 769.99,-131.8 769.99,-131.8"/>
<polygon fill="black" stroke="black" points="769.99,-128.3 759.99,-131.8 769.99,-135.3 769.99,-128.3"/>
</g>
<!-- RoleUc -->
<g id="node10" class="node">
<title>RoleUc</title>
<ellipse fill="#fdb462" stroke="black" cx="1040" cy="-66.8" rx="40.57" ry="18"/>
<text text-anchor="middle" x="1040" y="-62.6" font-family="Times,serif" font-size="14.00">RoleUc</text>
</g>
<!-- RoleUc&#45;&gt;UserModule -->
<g id="edge9" class="edge">
<title>RoleUc&#45;&gt;UserModule</title>
<path fill="none" stroke="black" d="M1040,-84.82C1040,-102.17 1040,-125.8 1040,-125.8 1040,-125.8 770.23,-125.8 770.23,-125.8"/>
<polygon fill="black" stroke="black" points="770.23,-122.3 760.23,-125.8 770.23,-129.3 770.23,-122.3"/>
</g>
<!-- SchoolRepo -->
<g id="node11" class="node">
<title>SchoolRepo</title>
<ellipse fill="#fdb462" stroke="black" cx="923" cy="-66.8" rx="58.49" ry="18"/>
<text text-anchor="middle" x="923" y="-62.6" font-family="Times,serif" font-size="14.00">SchoolRepo</text>
</g>
<!-- SchoolRepo&#45;&gt;UserModule -->
<g id="edge10" class="edge">
<title>SchoolRepo&#45;&gt;UserModule</title>
<path fill="none" stroke="black" d="M923,-85.04C923,-100.37 923,-119.8 923,-119.8 923,-119.8 770.18,-119.8 770.18,-119.8"/>
<polygon fill="black" stroke="black" points="770.18,-116.3 760.18,-119.8 770.18,-123.3 770.18,-116.3"/>
</g>
<!-- UserDORepo -->
<g id="node12" class="node">
<title>UserDORepo</title>
<ellipse fill="#fdb462" stroke="black" cx="783" cy="-66.8" rx="63.71" ry="18"/>
<text text-anchor="middle" x="783" y="-62.6" font-family="Times,serif" font-size="14.00">UserDORepo</text>
</g>
<!-- UserDORepo&#45;&gt;UserModule -->
<g id="edge11" class="edge">
<title>UserDORepo&#45;&gt;UserModule</title>
<path fill="none" stroke="black" d="M739.7,-80.27C739.7,-80.27 739.7,-103.66 739.7,-103.66"/>
<polygon fill="black" stroke="black" points="736.2,-103.66 739.7,-113.66 743.2,-103.66 736.2,-103.66"/>
</g>
<!-- UserRepo -->
<g id="node13" class="node">
<title>UserRepo</title>
<ellipse fill="#fdb462" stroke="black" cx="652" cy="-66.8" rx="49.81" ry="18"/>
<text text-anchor="middle" x="652" y="-62.6" font-family="Times,serif" font-size="14.00">UserRepo</text>
</g>
<!-- UserRepo&#45;&gt;UserModule -->
<g id="edge12" class="edge">
<title>UserRepo&#45;&gt;UserModule</title>
<path fill="none" stroke="black" d="M687.83,-79.33C687.83,-79.33 687.83,-103.65 687.83,-103.65"/>
<polygon fill="black" stroke="black" points="684.33,-103.65 687.83,-113.65 691.33,-103.65 684.33,-103.65"/>
</g>
<!-- UserService -->
<g id="node14" class="node">
<title>UserService</title>
<ellipse fill="#fdb462" stroke="black" cx="526" cy="-66.8" rx="58.46" ry="18"/>
<text text-anchor="middle" x="526" y="-62.6" font-family="Times,serif" font-size="14.00">UserService</text>
</g>
<!-- UserService&#45;&gt;UserModule -->
<g id="edge13" class="edge">
<title>UserService&#45;&gt;UserModule</title>
<path fill="none" stroke="black" d="M526,-85.04C526,-100.37 526,-119.8 526,-119.8 526,-119.8 663.66,-119.8 663.66,-119.8"/>
<polygon fill="black" stroke="black" points="663.66,-123.3 673.66,-119.8 663.66,-116.3 663.66,-123.3"/>
</g>
<!-- UserUc -->
<g id="node15" class="node">
<title>UserUc</title>
<ellipse fill="#fdb462" stroke="black" cx="409" cy="-66.8" rx="40.56" ry="18"/>
<text text-anchor="middle" x="409" y="-62.6" font-family="Times,serif" font-size="14.00">UserUc</text>
</g>
<!-- UserUc&#45;&gt;UserModule -->
<g id="edge14" class="edge">
<title>UserUc&#45;&gt;UserModule</title>
<path fill="none" stroke="black" d="M409,-84.82C409,-102.17 409,-125.8 409,-125.8 409,-125.8 663.85,-125.8 663.85,-125.8"/>
<polygon fill="black" stroke="black" points="663.85,-129.3 673.85,-125.8 663.85,-122.3 663.85,-129.3"/>
</g>
</g>
</svg>
