<?xml version="1.0" encoding="UTF-8" standalone="no"?>
<!DOCTYPE svg PUBLIC "-//W3C//DTD SVG 1.1//EN"
 "http://www.w3.org/Graphics/SVG/1.1/DTD/svg11.dtd">
<!-- Generated by graphviz version 2.47.3 (20210619.1520)
 -->
<!-- Title: dependencies Pages: 1 -->
<svg width="573pt" height="174pt"
 viewBox="0.00 0.00 573.00 173.80" xmlns="http://www.w3.org/2000/svg" xmlns:xlink="http://www.w3.org/1999/xlink">
<g id="graph0" class="graph" transform="scale(1 1) rotate(0) translate(4 169.8)">
<title>dependencies</title>
<polygon fill="white" stroke="transparent" points="-4,4 -4,-169.8 569,-169.8 569,4 -4,4"/>
<text text-anchor="middle" x="282.5" y="-8.2" font-family="sans-serif" font-size="14.00">dependencies</text>
<g id="clust1" class="cluster">
<title>cluster_UserModule</title>
<polygon fill="none" stroke="black" stroke-dasharray="1,5" points="8,-32.8 8,-157.8 557,-157.8 557,-32.8 8,-32.8"/>
</g>
<g id="clust6" class="cluster">
<title>cluster_UserModule_providers</title>
<polygon fill="none" stroke="black" points="16,-40.8 16,-92.8 549,-92.8 549,-40.8 16,-40.8"/>
</g>
<!-- PermissionService -->
<g id="node1" class="node">
<title>PermissionService</title>
<ellipse fill="#fdb462" stroke="black" cx="458" cy="-66.8" rx="82.82" ry="18"/>
<text text-anchor="middle" x="458" y="-62.6" font-family="Times,serif" font-size="14.00">PermissionService</text>
</g>
<!-- UserModule -->
<g id="node5" class="node">
<title>UserModule</title>
<polygon fill="#8dd3c7" stroke="black" points="281.98,-149.8 278.98,-153.8 257.98,-153.8 254.98,-149.8 196.02,-149.8 196.02,-113.8 281.98,-113.8 281.98,-149.8"/>
<text text-anchor="middle" x="239" y="-127.6" font-family="Times,serif" font-size="14.00">UserModule</text>
</g>
<!-- PermissionService&#45;&gt;UserModule -->
<g id="edge1" class="edge">
<title>PermissionService&#45;&gt;UserModule</title>
<path fill="none" stroke="black" d="M458,-84.91C458,-104.14 458,-131.8 458,-131.8 458,-131.8 292.01,-131.8 292.01,-131.8"/>
<polygon fill="black" stroke="black" points="292.01,-128.3 282.01,-131.8 292.01,-135.3 292.01,-128.3"/>
</g>
<!-- UserConfig -->
<g id="node2" class="node">
<title>UserConfig</title>
<ellipse fill="#fdb462" stroke="black" cx="301" cy="-66.8" rx="56.18" ry="18"/>
<text text-anchor="middle" x="301" y="-62.6" font-family="Times,serif" font-size="14.00">UserConfig</text>
</g>
<!-- UserConfig&#45;&gt;UserModule -->
<g id="edge2" class="edge">
<title>UserConfig&#45;&gt;UserModule</title>
<path fill="none" stroke="black" d="M263.45,-80.27C263.45,-80.27 263.45,-103.66 263.45,-103.66"/>
<polygon fill="black" stroke="black" points="259.95,-103.66 263.45,-113.66 266.95,-103.66 259.95,-103.66"/>
</g>
<!-- UserRepo -->
<g id="node3" class="node">
<title>UserRepo</title>
<ellipse fill="#fdb462" stroke="black" cx="177" cy="-66.8" rx="49.8" ry="18"/>
<text text-anchor="middle" x="177" y="-62.6" font-family="Times,serif" font-size="14.00">UserRepo</text>
</g>
<!-- UserRepo&#45;&gt;UserModule -->
<g id="edge3" class="edge">
<title>UserRepo&#45;&gt;UserModule</title>
<path fill="none" stroke="black" d="M211.33,-79.95C211.33,-79.95 211.33,-103.49 211.33,-103.49"/>
<polygon fill="black" stroke="black" points="207.83,-103.49 211.33,-113.49 214.83,-103.49 207.83,-103.49"/>
</g>
<!-- UserUC -->
<g id="node4" class="node">
<title>UserUC</title>
<ellipse fill="#fdb462" stroke="black" cx="67" cy="-66.8" rx="42.85" ry="18"/>
<text text-anchor="middle" x="67" y="-62.6" font-family="Times,serif" font-size="14.00">UserUC</text>
</g>
<!-- UserUC&#45;&gt;UserModule -->
<g id="edge4" class="edge">
<title>UserUC&#45;&gt;UserModule</title>
<path fill="none" stroke="black" d="M67,-84.91C67,-104.14 67,-131.8 67,-131.8 67,-131.8 185.6,-131.8 185.6,-131.8"/>
<polygon fill="black" stroke="black" points="185.6,-135.3 195.6,-131.8 185.6,-128.3 185.6,-135.3"/>
</g>
</g>
</svg>
