<?xml version="1.0" encoding="UTF-8" standalone="no"?>
<!DOCTYPE svg PUBLIC "-//W3C//DTD SVG 1.1//EN"
 "http://www.w3.org/Graphics/SVG/1.1/DTD/svg11.dtd">
<!-- Generated by graphviz version 5.0.0 (20220707.1540)
 -->
<!-- Title: dependencies Pages: 1 -->
<svg width="1286pt" height="247pt"
 viewBox="0.00 0.00 1286.00 246.80" xmlns="http://www.w3.org/2000/svg" xmlns:xlink="http://www.w3.org/1999/xlink">
<g id="graph0" class="graph" transform="scale(1 1) rotate(0) translate(4 242.8)">
<title>dependencies</title>
<polygon fill="white" stroke="transparent" points="-4,4 -4,-242.8 1282,-242.8 1282,4 -4,4"/>
<text text-anchor="middle" x="639" y="-8.2" font-family="sans-serif" font-size="14.00">dependencies</text>
<g id="clust1" class="cluster">
<title>cluster_UserModule</title>
<polygon fill="none" stroke="black" stroke-dasharray="1,5" points="8,-32.8 8,-230.8 1270,-230.8 1270,-32.8 8,-32.8"/>
</g>
<g id="clust4" class="cluster">
<title>cluster_UserModule_exports</title>
<polygon fill="none" stroke="black" points="511,-170.8 511,-222.8 695,-222.8 695,-170.8 511,-170.8"/>
</g>
<g id="clust6" class="cluster">
<title>cluster_UserModule_providers</title>
<polygon fill="none" stroke="black" points="242,-40.8 242,-92.8 1262,-92.8 1262,-40.8 242,-40.8"/>
</g>
<g id="clust3" class="cluster">
<title>cluster_UserModule_imports</title>
<polygon fill="none" stroke="black" points="16,-40.8 16,-92.8 234,-92.8 234,-40.8 16,-40.8"/>
</g>
<!-- RoleModule -->
<g id="node1" class="node">
<title>RoleModule</title>
<polygon fill="#8dd3c7" stroke="black" points="225.99,-84.8 222.99,-88.8 201.99,-88.8 198.99,-84.8 140.01,-84.8 140.01,-48.8 225.99,-48.8 225.99,-84.8"/>
<text text-anchor="middle" x="183" y="-62.6" font-family="Times,serif" font-size="14.00">RoleModule</text>
</g>
<!-- UserModule -->
<g id="node3" class="node">
<title>UserModule</title>
<polygon fill="#8dd3c7" stroke="black" points="639.99,-149.8 636.99,-153.8 615.99,-153.8 612.99,-149.8 554.01,-149.8 554.01,-113.8 639.99,-113.8 639.99,-149.8"/>
<text text-anchor="middle" x="597" y="-127.6" font-family="Times,serif" font-size="14.00">UserModule</text>
</g>
<!-- RoleModule&#45;&gt;UserModule -->
<g id="edge1" class="edge">
<title>RoleModule&#45;&gt;UserModule</title>
<path fill="none" stroke="black" d="M183,-84.93C183,-105.37 183,-135.8 183,-135.8 183,-135.8 543.87,-135.8 543.87,-135.8"/>
<polygon fill="black" stroke="black" points="543.87,-139.3 553.87,-135.8 543.87,-132.3 543.87,-139.3"/>
</g>
<!-- SchoolModule -->
<g id="node2" class="node">
<title>SchoolModule</title>
<polygon fill="#8dd3c7" stroke="black" points="122.44,-84.8 119.44,-88.8 98.44,-88.8 95.44,-84.8 23.56,-84.8 23.56,-48.8 122.44,-48.8 122.44,-84.8"/>
<text text-anchor="middle" x="73" y="-62.6" font-family="Times,serif" font-size="14.00">SchoolModule</text>
</g>
<!-- SchoolModule&#45;&gt;UserModule -->
<g id="edge2" class="edge">
<title>SchoolModule&#45;&gt;UserModule</title>
<path fill="none" stroke="black" d="M73,-84.81C73,-107.29 73,-142.8 73,-142.8 73,-142.8 543.67,-142.8 543.67,-142.8"/>
<polygon fill="black" stroke="black" points="543.67,-146.3 553.67,-142.8 543.67,-139.3 543.67,-146.3"/>
</g>
<!-- UserService  -->
<g id="node4" class="node">
<title>UserService </title>
<polygon fill="#fb8072" stroke="black" points="686.91,-214.8 599.09,-214.8 599.09,-178.8 686.91,-178.8 686.91,-214.8"/>
<text text-anchor="middle" x="643" y="-192.6" font-family="Times,serif" font-size="14.00">UserService </text>
</g>
<!-- UserModule&#45;&gt;UserService  -->
<g id="edge3" class="edge">
<title>UserModule&#45;&gt;UserService </title>
<path fill="none" stroke="black" stroke-dasharray="5,2" d="M619.52,-149.91C619.52,-149.91 619.52,-168.79 619.52,-168.79"/>
<polygon fill="black" stroke="black" points="616.02,-168.79 619.52,-178.79 623.02,-168.79 616.02,-168.79"/>
</g>
<!-- UserUc  -->
<g id="node5" class="node">
<title>UserUc </title>
<polygon fill="#fb8072" stroke="black" points="581.26,-214.8 518.74,-214.8 518.74,-178.8 581.26,-178.8 581.26,-214.8"/>
<text text-anchor="middle" x="550" y="-192.6" font-family="Times,serif" font-size="14.00">UserUc </text>
</g>
<!-- UserModule&#45;&gt;UserUc  -->
<g id="edge4" class="edge">
<title>UserModule&#45;&gt;UserUc </title>
<path fill="none" stroke="black" stroke-dasharray="5,2" d="M567.57,-149.91C567.57,-149.91 567.57,-168.79 567.57,-168.79"/>
<polygon fill="black" stroke="black" points="564.07,-168.79 567.57,-178.79 571.07,-168.79 564.07,-168.79"/>
</g>
<!-- PermissionService -->
<g id="node6" class="node">
<title>PermissionService</title>
<ellipse fill="#fdb462" stroke="black" cx="1171" cy="-66.8" rx="82.83" ry="18"/>
<text text-anchor="middle" x="1171" y="-62.6" font-family="Times,serif" font-size="14.00">PermissionService</text>
</g>
<!-- PermissionService&#45;&gt;UserModule -->
<g id="edge5" class="edge">
<title>PermissionService&#45;&gt;UserModule</title>
<path fill="none" stroke="black" d="M1171,-84.81C1171,-107.29 1171,-142.8 1171,-142.8 1171,-142.8 650.14,-142.8 650.14,-142.8"/>
<polygon fill="black" stroke="black" points="650.14,-139.3 640.14,-142.8 650.14,-146.3 650.14,-139.3"/>
</g>
<!-- RoleRepo -->
<g id="node7" class="node">
<title>RoleRepo</title>
<ellipse fill="#fdb462" stroke="black" cx="1020" cy="-66.8" rx="49.82" ry="18"/>
<text text-anchor="middle" x="1020" y="-62.6" font-family="Times,serif" font-size="14.00">RoleRepo</text>
</g>
<!-- RoleRepo&#45;&gt;UserModule -->
<g id="edge6" class="edge">
<title>RoleRepo&#45;&gt;UserModule</title>
<path fill="none" stroke="black" d="M1020,-84.93C1020,-105.37 1020,-135.8 1020,-135.8 1020,-135.8 650.28,-135.8 650.28,-135.8"/>
<polygon fill="black" stroke="black" points="650.28,-132.3 640.28,-135.8 650.28,-139.3 650.28,-132.3"/>
</g>
<!-- RoleService -->
<g id="node8" class="node">
<title>RoleService</title>
<ellipse fill="#fdb462" stroke="black" cx="894" cy="-66.8" rx="58.46" ry="18"/>
<text text-anchor="middle" x="894" y="-62.6" font-family="Times,serif" font-size="14.00">RoleService</text>
</g>
<!-- RoleService&#45;&gt;UserModule -->
<g id="edge7" class="edge">
<title>RoleService&#45;&gt;UserModule</title>
<path fill="none" stroke="black" d="M894,-85.07C894,-103.36 894,-128.8 894,-128.8 894,-128.8 650.19,-128.8 650.19,-128.8"/>
<polygon fill="black" stroke="black" points="650.19,-125.3 640.19,-128.8 650.19,-132.3 650.19,-125.3"/>
</g>
<!-- RoleUc -->
<g id="node9" class="node">
<title>RoleUc</title>
<ellipse fill="#fdb462" stroke="black" cx="777" cy="-66.8" rx="40.57" ry="18"/>
<text text-anchor="middle" x="777" y="-62.6" font-family="Times,serif" font-size="14.00">RoleUc</text>
</g>
<!-- RoleUc&#45;&gt;UserModule -->
<g id="edge8" class="edge">
<title>RoleUc&#45;&gt;UserModule</title>
<path fill="none" stroke="black" d="M777,-84.81C777,-100.85 777,-121.8 777,-121.8 777,-121.8 650.11,-121.8 650.11,-121.8"/>
<polygon fill="black" stroke="black" points="650.11,-118.3 640.11,-121.8 650.11,-125.3 650.11,-118.3"/>
</g>
<!-- SchoolRepo -->
<g id="node10" class="node">
<title>SchoolRepo</title>
<ellipse fill="#fdb462" stroke="black" cx="660" cy="-66.8" rx="58.49" ry="18"/>
<text text-anchor="middle" x="660" y="-62.6" font-family="Times,serif" font-size="14.00">SchoolRepo</text>
</g>
<!-- SchoolRepo&#45;&gt;UserModule -->
<g id="edge9" class="edge">
<title>SchoolRepo&#45;&gt;UserModule</title>
<path fill="none" stroke="black" d="M620.87,-80.27C620.87,-80.27 620.87,-103.66 620.87,-103.66"/>
<polygon fill="black" stroke="black" points="617.37,-103.66 620.87,-113.66 624.37,-103.66 617.37,-103.66"/>
</g>
<!-- UserRepo -->
<g id="node11" class="node">
<title>UserRepo</title>
<ellipse fill="#fdb462" stroke="black" cx="534" cy="-66.8" rx="49.81" ry="18"/>
<text text-anchor="middle" x="534" y="-62.6" font-family="Times,serif" font-size="14.00">UserRepo</text>
</g>
<!-- UserRepo&#45;&gt;UserModule -->
<g id="edge10" class="edge">
<title>UserRepo&#45;&gt;UserModule</title>
<path fill="none" stroke="black" d="M568.83,-79.64C568.83,-79.64 568.83,-103.32 568.83,-103.32"/>
<polygon fill="black" stroke="black" points="565.33,-103.32 568.83,-113.32 572.33,-103.32 565.33,-103.32"/>
</g>
<!-- UserService -->
<g id="node12" class="node">
<title>UserService</title>
<ellipse fill="#fdb462" stroke="black" cx="408" cy="-66.8" rx="58.46" ry="18"/>
<text text-anchor="middle" x="408" y="-62.6" font-family="Times,serif" font-size="14.00">UserService</text>
</g>
<!-- UserService&#45;&gt;UserModule -->
<g id="edge11" class="edge">
<title>UserService&#45;&gt;UserModule</title>
<path fill="none" stroke="black" d="M408,-84.81C408,-100.85 408,-121.8 408,-121.8 408,-121.8 543.64,-121.8 543.64,-121.8"/>
<polygon fill="black" stroke="black" points="543.64,-125.3 553.64,-121.8 543.64,-118.3 543.64,-125.3"/>
</g>
<!-- UserUc -->
<g id="node13" class="node">
<title>UserUc</title>
<ellipse fill="#fdb462" stroke="black" cx="291" cy="-66.8" rx="40.56" ry="18"/>
<text text-anchor="middle" x="291" y="-62.6" font-family="Times,serif" font-size="14.00">UserUc</text>
</g>
<!-- UserUc&#45;&gt;UserModule -->
<g id="edge12" class="edge">
<title>UserUc&#45;&gt;UserModule</title>
<path fill="none" stroke="black" d="M291,-85.07C291,-103.36 291,-128.8 291,-128.8 291,-128.8 543.81,-128.8 543.81,-128.8"/>
<polygon fill="black" stroke="black" points="543.81,-132.3 553.81,-128.8 543.81,-125.3 543.81,-132.3"/>
</g>
</g>
</svg>
