<?xml version="1.0" encoding="UTF-8" standalone="no"?>
<!DOCTYPE svg PUBLIC "-//W3C//DTD SVG 1.1//EN"
 "http://www.w3.org/Graphics/SVG/1.1/DTD/svg11.dtd">
<!-- Generated by graphviz version 5.0.0 (20220707.1540)
 -->
<!-- Title: dependencies Pages: 1 -->
<svg width="1673pt" height="247pt"
 viewBox="0.00 0.00 1673.00 246.80" xmlns="http://www.w3.org/2000/svg" xmlns:xlink="http://www.w3.org/1999/xlink">
<g id="graph0" class="graph" transform="scale(1 1) rotate(0) translate(4 242.8)">
<title>dependencies</title>
<polygon fill="white" stroke="transparent" points="-4,4 -4,-242.8 1669,-242.8 1669,4 -4,4"/>
<text text-anchor="middle" x="832.5" y="-8.2" font-family="sans-serif" font-size="14.00">dependencies</text>
<g id="clust1" class="cluster">
<title>cluster_UserModule</title>
<polygon fill="none" stroke="black" stroke-dasharray="1,5" points="8,-32.8 8,-230.8 1657,-230.8 1657,-32.8 8,-32.8"/>
</g>
<g id="clust3" class="cluster">
<title>cluster_UserModule_imports</title>
<polygon fill="none" stroke="black" points="1189,-40.8 1189,-92.8 1649,-92.8 1649,-40.8 1189,-40.8"/>
</g>
<g id="clust6" class="cluster">
<title>cluster_UserModule_providers</title>
<polygon fill="none" stroke="black" points="16,-40.8 16,-92.8 1181,-92.8 1181,-40.8 16,-40.8"/>
</g>
<g id="clust4" class="cluster">
<title>cluster_UserModule_exports</title>
<polygon fill="none" stroke="black" points="727,-170.8 727,-222.8 911,-222.8 911,-170.8 727,-170.8"/>
</g>
<!-- AccountModule -->
<g id="node1" class="node">
<title>AccountModule</title>
<polygon fill="#8dd3c7" stroke="black" points="1641.48,-84.8 1638.48,-88.8 1617.48,-88.8 1614.48,-84.8 1534.52,-84.8 1534.52,-48.8 1641.48,-48.8 1641.48,-84.8"/>
<text text-anchor="middle" x="1588" y="-62.6" font-family="Times,serif" font-size="14.00">AccountModule</text>
</g>
<!-- UserModule -->
<g id="node5" class="node">
<title>UserModule</title>
<polygon fill="#8dd3c7" stroke="black" points="855.99,-149.8 852.99,-153.8 831.99,-153.8 828.99,-149.8 770.01,-149.8 770.01,-113.8 855.99,-113.8 855.99,-149.8"/>
<text text-anchor="middle" x="813" y="-127.6" font-family="Times,serif" font-size="14.00">UserModule</text>
</g>
<!-- AccountModule&#45;&gt;UserModule -->
<g id="edge1" class="edge">
<title>AccountModule&#45;&gt;UserModule</title>
<path fill="none" stroke="black" d="M1588,-84.89C1588,-107.93 1588,-144.8 1588,-144.8 1588,-144.8 866.05,-144.8 866.05,-144.8"/>
<polygon fill="black" stroke="black" points="866.05,-141.3 856.05,-144.8 866.05,-148.3 866.05,-141.3"/>
</g>
<!-- LoggerModule -->
<g id="node2" class="node">
<title>LoggerModule</title>
<polygon fill="#8dd3c7" stroke="black" points="1516.98,-84.8 1513.98,-88.8 1492.98,-88.8 1489.98,-84.8 1417.02,-84.8 1417.02,-48.8 1516.98,-48.8 1516.98,-84.8"/>
<text text-anchor="middle" x="1467" y="-62.6" font-family="Times,serif" font-size="14.00">LoggerModule</text>
</g>
<!-- LoggerModule&#45;&gt;UserModule -->
<g id="edge2" class="edge">
<title>LoggerModule&#45;&gt;UserModule</title>
<path fill="none" stroke="black" d="M1467,-84.84C1467,-106.46 1467,-139.8 1467,-139.8 1467,-139.8 866.16,-139.8 866.16,-139.8"/>
<polygon fill="black" stroke="black" points="866.16,-136.3 856.16,-139.8 866.16,-143.3 866.16,-136.3"/>
</g>
<!-- RoleModule -->
<g id="node3" class="node">
<title>RoleModule</title>
<polygon fill="#8dd3c7" stroke="black" points="1398.99,-84.8 1395.99,-88.8 1374.99,-88.8 1371.99,-84.8 1313.01,-84.8 1313.01,-48.8 1398.99,-48.8 1398.99,-84.8"/>
<text text-anchor="middle" x="1356" y="-62.6" font-family="Times,serif" font-size="14.00">RoleModule</text>
</g>
<!-- RoleModule&#45;&gt;UserModule -->
<g id="edge3" class="edge">
<title>RoleModule&#45;&gt;UserModule</title>
<path fill="none" stroke="black" d="M1356,-85.02C1356,-105.17 1356,-134.8 1356,-134.8 1356,-134.8 866.06,-134.8 866.06,-134.8"/>
<polygon fill="black" stroke="black" points="866.06,-131.3 856.06,-134.8 866.06,-138.3 866.06,-131.3"/>
</g>
<!-- SchoolModule -->
<g id="node4" class="node">
<title>SchoolModule</title>
<polygon fill="#8dd3c7" stroke="black" points="1295.44,-84.8 1292.44,-88.8 1271.44,-88.8 1268.44,-84.8 1196.56,-84.8 1196.56,-48.8 1295.44,-48.8 1295.44,-84.8"/>
<text text-anchor="middle" x="1246" y="-62.6" font-family="Times,serif" font-size="14.00">SchoolModule</text>
</g>
<!-- SchoolModule&#45;&gt;UserModule -->
<g id="edge4" class="edge">
<title>SchoolModule&#45;&gt;UserModule</title>
<path fill="none" stroke="black" d="M1246,-85.02C1246,-103.63 1246,-129.8 1246,-129.8 1246,-129.8 866.1,-129.8 866.1,-129.8"/>
<polygon fill="black" stroke="black" points="866.1,-126.3 856.1,-129.8 866.1,-133.3 866.1,-126.3"/>
</g>
<!-- UserService  -->
<g id="node6" class="node">
<title>UserService </title>
<polygon fill="#fb8072" stroke="black" points="902.91,-214.8 815.09,-214.8 815.09,-178.8 902.91,-178.8 902.91,-214.8"/>
<text text-anchor="middle" x="859" y="-192.6" font-family="Times,serif" font-size="14.00">UserService </text>
</g>
<!-- UserModule&#45;&gt;UserService  -->
<g id="edge5" class="edge">
<title>UserModule&#45;&gt;UserService </title>
<path fill="none" stroke="black" stroke-dasharray="5,2" d="M835.52,-149.91C835.52,-149.91 835.52,-168.79 835.52,-168.79"/>
<polygon fill="black" stroke="black" points="832.02,-168.79 835.52,-178.79 839.02,-168.79 832.02,-168.79"/>
</g>
<!-- UserUc  -->
<g id="node7" class="node">
<title>UserUc </title>
<polygon fill="#fb8072" stroke="black" points="797.26,-214.8 734.74,-214.8 734.74,-178.8 797.26,-178.8 797.26,-214.8"/>
<text text-anchor="middle" x="766" y="-192.6" font-family="Times,serif" font-size="14.00">UserUc </text>
</g>
<!-- UserModule&#45;&gt;UserUc  -->
<g id="edge6" class="edge">
<title>UserModule&#45;&gt;UserUc </title>
<path fill="none" stroke="black" stroke-dasharray="5,2" d="M783.57,-149.91C783.57,-149.91 783.57,-168.79 783.57,-168.79"/>
<polygon fill="black" stroke="black" points="780.07,-168.79 783.57,-178.79 787.07,-168.79 780.07,-168.79"/>
</g>
<!-- PermissionService -->
<g id="node8" class="node">
<title>PermissionService</title>
<ellipse fill="#fdb462" stroke="black" cx="1090" cy="-66.8" rx="82.83" ry="18"/>
<text text-anchor="middle" x="1090" y="-62.6" font-family="Times,serif" font-size="14.00">PermissionService</text>
</g>
<!-- PermissionService&#45;&gt;UserModule -->
<g id="edge7" class="edge">
<title>PermissionService&#45;&gt;UserModule</title>
<path fill="none" stroke="black" d="M1090,-84.83C1090,-101.86 1090,-124.8 1090,-124.8 1090,-124.8 866.28,-124.8 866.28,-124.8"/>
<polygon fill="black" stroke="black" points="866.28,-121.3 856.28,-124.8 866.28,-128.3 866.28,-121.3"/>
</g>
<!-- RoleRepo -->
<g id="node9" class="node">
<title>RoleRepo</title>
<ellipse fill="#fdb462" stroke="black" cx="939" cy="-66.8" rx="49.82" ry="18"/>
<text text-anchor="middle" x="939" y="-62.6" font-family="Times,serif" font-size="14.00">RoleRepo</text>
</g>
<!-- RoleRepo&#45;&gt;UserModule -->
<g id="edge8" class="edge">
<title>RoleRepo&#45;&gt;UserModule</title>
<path fill="none" stroke="black" d="M896.15,-76.03C896.15,-91.22 896.15,-119.8 896.15,-119.8 896.15,-119.8 866.04,-119.8 866.04,-119.8"/>
<polygon fill="black" stroke="black" points="866.04,-116.3 856.04,-119.8 866.04,-123.3 866.04,-116.3"/>
</g>
<!-- RoleService -->
<g id="node10" class="node">
<title>RoleService</title>
<ellipse fill="#fdb462" stroke="black" cx="813" cy="-66.8" rx="58.46" ry="18"/>
<text text-anchor="middle" x="813" y="-62.6" font-family="Times,serif" font-size="14.00">RoleService</text>
</g>
<!-- RoleService&#45;&gt;UserModule -->
<g id="edge9" class="edge">
<title>RoleService&#45;&gt;UserModule</title>
<path fill="none" stroke="black" d="M813,-84.91C813,-84.91 813,-103.79 813,-103.79"/>
<polygon fill="black" stroke="black" points="809.5,-103.79 813,-113.79 816.5,-103.79 809.5,-103.79"/>
</g>
<!-- RoleUc -->
<g id="node11" class="node">
<title>RoleUc</title>
<ellipse fill="#fdb462" stroke="black" cx="696" cy="-66.8" rx="40.57" ry="18"/>
<text text-anchor="middle" x="696" y="-62.6" font-family="Times,serif" font-size="14.00">RoleUc</text>
</g>
<!-- RoleUc&#45;&gt;UserModule -->
<g id="edge10" class="edge">
<title>RoleUc&#45;&gt;UserModule</title>
<path fill="none" stroke="black" d="M695.17,-85.04C695.17,-100.37 695.17,-119.8 695.17,-119.8 695.17,-119.8 759.79,-119.8 759.79,-119.8"/>
<polygon fill="black" stroke="black" points="759.79,-123.3 769.79,-119.8 759.79,-116.3 759.79,-123.3"/>
</g>
<!-- SchoolRepo -->
<g id="node12" class="node">
<title>SchoolRepo</title>
<ellipse fill="#fdb462" stroke="black" cx="579" cy="-66.8" rx="58.49" ry="18"/>
<text text-anchor="middle" x="579" y="-62.6" font-family="Times,serif" font-size="14.00">SchoolRepo</text>
</g>
<!-- SchoolRepo&#45;&gt;UserModule -->
<g id="edge11" class="edge">
<title>SchoolRepo&#45;&gt;UserModule</title>
<path fill="none" stroke="black" d="M579,-84.83C579,-101.86 579,-124.8 579,-124.8 579,-124.8 759.81,-124.8 759.81,-124.8"/>
<polygon fill="black" stroke="black" points="759.81,-128.3 769.81,-124.8 759.81,-121.3 759.81,-128.3"/>
</g>
<!-- UserDORepo -->
<g id="node13" class="node">
<title>UserDORepo</title>
<ellipse fill="#fdb462" stroke="black" cx="439" cy="-66.8" rx="63.71" ry="18"/>
<text text-anchor="middle" x="439" y="-62.6" font-family="Times,serif" font-size="14.00">UserDORepo</text>
</g>
<!-- UserDORepo&#45;&gt;UserModule -->
<g id="edge12" class="edge">
<title>UserDORepo&#45;&gt;UserModule</title>
<path fill="none" stroke="black" d="M439,-85.02C439,-103.63 439,-129.8 439,-129.8 439,-129.8 759.73,-129.8 759.73,-129.8"/>
<polygon fill="black" stroke="black" points="759.73,-133.3 769.73,-129.8 759.73,-126.3 759.73,-133.3"/>
</g>
<!-- UserRepo -->
<g id="node14" class="node">
<title>UserRepo</title>
<ellipse fill="#fdb462" stroke="black" cx="308" cy="-66.8" rx="49.81" ry="18"/>
<text text-anchor="middle" x="308" y="-62.6" font-family="Times,serif" font-size="14.00">UserRepo</text>
</g>
<!-- UserRepo&#45;&gt;UserModule -->
<g id="edge13" class="edge">
<title>UserRepo&#45;&gt;UserModule</title>
<path fill="none" stroke="black" d="M308,-85.02C308,-105.17 308,-134.8 308,-134.8 308,-134.8 759.94,-134.8 759.94,-134.8"/>
<polygon fill="black" stroke="black" points="759.94,-138.3 769.94,-134.8 759.94,-131.3 759.94,-138.3"/>
</g>
<!-- UserService -->
<g id="node15" class="node">
<title>UserService</title>
<ellipse fill="#fdb462" stroke="black" cx="182" cy="-66.8" rx="58.46" ry="18"/>
<text text-anchor="middle" x="182" y="-62.6" font-family="Times,serif" font-size="14.00">UserService</text>
</g>
<!-- UserService&#45;&gt;UserModule -->
<g id="edge14" class="edge">
<title>UserService&#45;&gt;UserModule</title>
<path fill="none" stroke="black" d="M182,-84.84C182,-106.46 182,-139.8 182,-139.8 182,-139.8 759.63,-139.8 759.63,-139.8"/>
<polygon fill="black" stroke="black" points="759.63,-143.3 769.63,-139.8 759.63,-136.3 759.63,-143.3"/>
</g>
<!-- UserUc -->
<g id="node16" class="node">
<title>UserUc</title>
<ellipse fill="#fdb462" stroke="black" cx="65" cy="-66.8" rx="40.56" ry="18"/>
<text text-anchor="middle" x="65" y="-62.6" font-family="Times,serif" font-size="14.00">UserUc</text>
</g>
<!-- UserUc&#45;&gt;UserModule -->
<g id="edge15" class="edge">
<title>UserUc&#45;&gt;UserModule</title>
<path fill="none" stroke="black" d="M65,-84.89C65,-107.93 65,-144.8 65,-144.8 65,-144.8 759.82,-144.8 759.82,-144.8"/>
<polygon fill="black" stroke="black" points="759.82,-148.3 769.82,-144.8 759.82,-141.3 759.82,-148.3"/>
</g>
</g>
</svg>
