<?xml version="1.0" encoding="UTF-8" standalone="no"?>
<!DOCTYPE svg PUBLIC "-//W3C//DTD SVG 1.1//EN"
 "http://www.w3.org/Graphics/SVG/1.1/DTD/svg11.dtd">
<!-- Generated by graphviz version 3.0.0 (20220226.1711)
 -->
<!-- Title: dependencies Pages: 1 -->
<svg width="406pt" height="174pt"
 viewBox="0.00 0.00 406.00 173.80" xmlns="http://www.w3.org/2000/svg" xmlns:xlink="http://www.w3.org/1999/xlink">
<g id="graph0" class="graph" transform="scale(1 1) rotate(0) translate(4 169.8)">
<title>dependencies</title>
<polygon fill="white" stroke="transparent" points="-4,4 -4,-169.8 402,-169.8 402,4 -4,4"/>
<text text-anchor="middle" x="199" y="-8.2" font-family="sans-serif" font-size="14.00">dependencies</text>
<g id="clust1" class="cluster">
<title>cluster_ManagementServerTestModule</title>
<polygon fill="none" stroke="black" stroke-dasharray="1,5" points="8,-32.8 8,-157.8 390,-157.8 390,-32.8 8,-32.8"/>
</g>
<g id="clust3" class="cluster">
<title>cluster_ManagementServerTestModule_imports</title>
<polygon fill="none" stroke="black" points="16,-40.8 16,-92.8 382,-92.8 382,-40.8 16,-40.8"/>
</g>
<!-- ManagementModule -->
<g id="node1" class="node">
<title>ManagementModule</title>
<polygon fill="#8dd3c7" stroke="black" points="374.14,-84.8 371.14,-88.8 350.14,-88.8 347.14,-84.8 241.86,-84.8 241.86,-48.8 374.14,-48.8 374.14,-84.8"/>
<text text-anchor="middle" x="308" y="-62.6" font-family="Times,serif" font-size="14.00">ManagementModule</text>
</g>
<!-- ManagementServerTestModule -->
<g id="node3" class="node">
<title>ManagementServerTestModule</title>
<polygon fill="#8dd3c7" stroke="black" points="300.78,-149.8 297.78,-153.8 276.78,-153.8 273.78,-149.8 107.22,-149.8 107.22,-113.8 300.78,-113.8 300.78,-149.8"/>
<text text-anchor="middle" x="204" y="-127.6" font-family="Times,serif" font-size="14.00">ManagementServerTestModule</text>
</g>
<!-- ManagementModule&#45;&gt;ManagementServerTestModule -->
<g id="edge1" class="edge">
<title>ManagementModule&#45;&gt;ManagementServerTestModule</title>
<path fill="none" stroke="black" d="M271.16,-84.91C271.16,-84.91 271.16,-103.79 271.16,-103.79"/>
<polygon fill="black" stroke="black" points="267.66,-103.79 271.16,-113.79 274.66,-103.79 267.66,-103.79"/>
</g>
<!-- MongoMemoryDatabaseModule -->
<g id="node2" class="node">
<title>MongoMemoryDatabaseModule</title>
<polygon fill="#8dd3c7" stroke="black" points="223.52,-84.8 220.52,-88.8 199.52,-88.8 196.52,-84.8 24.48,-84.8 24.48,-48.8 223.52,-48.8 223.52,-84.8"/>
<text text-anchor="middle" x="124" y="-62.6" font-family="Times,serif" font-size="14.00">MongoMemoryDatabaseModule</text>
</g>
<!-- MongoMemoryDatabaseModule&#45;&gt;ManagementServerTestModule -->
<g id="edge2" class="edge">
<title>MongoMemoryDatabaseModule&#45;&gt;ManagementServerTestModule</title>
<path fill="none" stroke="black" d="M165.56,-84.91C165.56,-84.91 165.56,-103.79 165.56,-103.79"/>
<polygon fill="black" stroke="black" points="162.06,-103.79 165.56,-113.79 169.06,-103.79 162.06,-103.79"/>
</g>
</g>
</svg>
