<?xml version="1.0" encoding="UTF-8" standalone="no"?>
<!DOCTYPE svg PUBLIC "-//W3C//DTD SVG 1.1//EN"
 "http://www.w3.org/Graphics/SVG/1.1/DTD/svg11.dtd">
<!-- Generated by graphviz version 3.0.0 (20220226.1711)
 -->
<!-- Title: dependencies Pages: 1 -->
<svg width="1500pt" height="174pt"
 viewBox="0.00 0.00 1500.00 173.80" xmlns="http://www.w3.org/2000/svg" xmlns:xlink="http://www.w3.org/1999/xlink">
<g id="graph0" class="graph" transform="scale(1 1) rotate(0) translate(4 169.8)">
<title>dependencies</title>
<polygon fill="white" stroke="transparent" points="-4,4 -4,-169.8 1496,-169.8 1496,4 -4,4"/>
<text text-anchor="middle" x="746" y="-8.2" font-family="sans-serif" font-size="14.00">dependencies</text>
<g id="clust1" class="cluster">
<title>cluster_ManagementTestModule</title>
<polygon fill="none" stroke="black" stroke-dasharray="1,5" points="8,-32.8 8,-157.8 1484,-157.8 1484,-32.8 8,-32.8"/>
</g>
<g id="clust6" class="cluster">
<title>cluster_ManagementTestModule_providers</title>
<polygon fill="none" stroke="black" points="605,-40.8 605,-92.8 1476,-92.8 1476,-40.8 605,-40.8"/>
</g>
<g id="clust3" class="cluster">
<title>cluster_ManagementTestModule_imports</title>
<polygon fill="none" stroke="black" points="16,-40.8 16,-92.8 597,-92.8 597,-40.8 16,-40.8"/>
</g>
<!-- AuthModule -->
<g id="node1" class="node">
<title>AuthModule</title>
<polygon fill="#8dd3c7" stroke="black" points="588.55,-84.8 585.55,-88.8 564.55,-88.8 561.55,-84.8 501.45,-84.8 501.45,-48.8 588.55,-48.8 588.55,-84.8"/>
<text text-anchor="middle" x="545" y="-62.6" font-family="Times,serif" font-size="14.00">AuthModule</text>
</g>
<!-- ManagementTestModule -->
<g id="node5" class="node">
<title>ManagementTestModule</title>
<polygon fill="#8dd3c7" stroke="black" points="711.24,-149.8 708.24,-153.8 687.24,-153.8 684.24,-149.8 554.76,-149.8 554.76,-113.8 711.24,-113.8 711.24,-149.8"/>
<text text-anchor="middle" x="633" y="-127.6" font-family="Times,serif" font-size="14.00">ManagementTestModule</text>
</g>
<!-- AuthModule&#45;&gt;ManagementTestModule -->
<g id="edge1" class="edge">
<title>AuthModule&#45;&gt;ManagementTestModule</title>
<path fill="none" stroke="black" d="M571.7,-84.91C571.7,-84.91 571.7,-103.79 571.7,-103.79"/>
<polygon fill="black" stroke="black" points="568.2,-103.79 571.7,-113.79 575.2,-103.79 568.2,-103.79"/>
</g>
<!-- AuthorizationModule -->
<g id="node2" class="node">
<title>AuthorizationModule</title>
<polygon fill="#8dd3c7" stroke="black" points="483.81,-84.8 480.81,-88.8 459.81,-88.8 456.81,-84.8 346.19,-84.8 346.19,-48.8 483.81,-48.8 483.81,-84.8"/>
<text text-anchor="middle" x="415" y="-62.6" font-family="Times,serif" font-size="14.00">AuthorizationModule</text>
</g>
<!-- AuthorizationModule&#45;&gt;ManagementTestModule -->
<g id="edge2" class="edge">
<title>AuthorizationModule&#45;&gt;ManagementTestModule</title>
<path fill="none" stroke="black" d="M415,-84.83C415,-101.2 415,-122.8 415,-122.8 415,-122.8 544.6,-122.8 544.6,-122.8"/>
<polygon fill="black" stroke="black" points="544.61,-126.3 554.6,-122.8 544.6,-119.3 544.61,-126.3"/>
</g>
<!-- CoreModule -->
<g id="node3" class="node">
<title>CoreModule</title>
<polygon fill="#8dd3c7" stroke="black" points="328.27,-84.8 325.27,-88.8 304.27,-88.8 301.27,-84.8 241.73,-84.8 241.73,-48.8 328.27,-48.8 328.27,-84.8"/>
<text text-anchor="middle" x="285" y="-62.6" font-family="Times,serif" font-size="14.00">CoreModule</text>
</g>
<!-- CoreModule&#45;&gt;ManagementTestModule -->
<g id="edge3" class="edge">
<title>CoreModule&#45;&gt;ManagementTestModule</title>
<path fill="none" stroke="black" d="M285,-84.91C285,-104.14 285,-131.8 285,-131.8 285,-131.8 544.47,-131.8 544.47,-131.8"/>
<polygon fill="black" stroke="black" points="544.47,-135.3 554.47,-131.8 544.47,-128.3 544.47,-135.3"/>
</g>
<!-- MongoMemoryDatabaseModule -->
<g id="node4" class="node">
<title>MongoMemoryDatabaseModule</title>
<polygon fill="#8dd3c7" stroke="black" points="223.52,-84.8 220.52,-88.8 199.52,-88.8 196.52,-84.8 24.48,-84.8 24.48,-48.8 223.52,-48.8 223.52,-84.8"/>
<text text-anchor="middle" x="124" y="-62.6" font-family="Times,serif" font-size="14.00">MongoMemoryDatabaseModule</text>
</g>
<!-- MongoMemoryDatabaseModule&#45;&gt;ManagementTestModule -->
<g id="edge4" class="edge">
<title>MongoMemoryDatabaseModule&#45;&gt;ManagementTestModule</title>
<path fill="none" stroke="black" d="M124,-85.09C124,-107.01 124,-140.8 124,-140.8 124,-140.8 544.58,-140.8 544.58,-140.8"/>
<polygon fill="black" stroke="black" points="544.58,-144.3 554.58,-140.8 544.58,-137.3 544.58,-144.3"/>
</g>
<!-- BsonConverter -->
<g id="node6" class="node">
<title>BsonConverter</title>
<ellipse fill="#fdb462" stroke="black" cx="1398" cy="-66.8" rx="69.51" ry="18"/>
<text text-anchor="middle" x="1398" y="-62.6" font-family="Times,serif" font-size="14.00">BsonConverter</text>
</g>
<!-- BsonConverter&#45;&gt;ManagementTestModule -->
<g id="edge5" class="edge">
<title>BsonConverter&#45;&gt;ManagementTestModule</title>
<path fill="none" stroke="black" d="M1398,-85.09C1398,-107.01 1398,-140.8 1398,-140.8 1398,-140.8 721.27,-140.8 721.27,-140.8"/>
<polygon fill="black" stroke="black" points="721.27,-137.3 711.27,-140.8 721.27,-144.3 721.27,-137.3"/>
</g>
<!-- ConsoleWriterService -->
<g id="node7" class="node">
<title>ConsoleWriterService</title>
<ellipse fill="#fdb462" stroke="black" cx="1214" cy="-66.8" rx="96.69" ry="18"/>
<text text-anchor="middle" x="1214" y="-62.6" font-family="Times,serif" font-size="14.00">ConsoleWriterService</text>
</g>
<!-- ConsoleWriterService&#45;&gt;ManagementTestModule -->
<g id="edge6" class="edge">
<title>ConsoleWriterService&#45;&gt;ManagementTestModule</title>
<path fill="none" stroke="black" d="M1214,-84.91C1214,-104.14 1214,-131.8 1214,-131.8 1214,-131.8 721.36,-131.8 721.36,-131.8"/>
<polygon fill="black" stroke="black" points="721.36,-128.3 711.36,-131.8 721.36,-135.3 721.36,-128.3"/>
</g>
<!-- DatabaseManagementService -->
<g id="node8" class="node">
<title>DatabaseManagementService</title>
<ellipse fill="#fdb462" stroke="black" cx="973" cy="-66.8" rx="125.59" ry="18"/>
<text text-anchor="middle" x="973" y="-62.6" font-family="Times,serif" font-size="14.00">DatabaseManagementService</text>
</g>
<!-- DatabaseManagementService&#45;&gt;ManagementTestModule -->
<g id="edge7" class="edge">
<title>DatabaseManagementService&#45;&gt;ManagementTestModule</title>
<path fill="none" stroke="black" d="M973,-84.83C973,-101.2 973,-122.8 973,-122.8 973,-122.8 721.43,-122.8 721.43,-122.8"/>
<polygon fill="black" stroke="black" points="721.43,-119.3 711.43,-122.8 721.43,-126.3 721.43,-119.3"/>
</g>
<!-- DatabaseManagementUc -->
<g id="node9" class="node">
<title>DatabaseManagementUc</title>
<ellipse fill="#fdb462" stroke="black" cx="721" cy="-66.8" rx="108.19" ry="18"/>
<text text-anchor="middle" x="721" y="-62.6" font-family="Times,serif" font-size="14.00">DatabaseManagementUc</text>
</g>
<!-- DatabaseManagementUc&#45;&gt;ManagementTestModule -->
<g id="edge8" class="edge">
<title>DatabaseManagementUc&#45;&gt;ManagementTestModule</title>
<path fill="none" stroke="black" d="M662.14,-82.2C662.14,-82.2 662.14,-103.74 662.14,-103.74"/>
<polygon fill="black" stroke="black" points="658.64,-103.74 662.14,-113.74 665.64,-103.74 658.64,-103.74"/>
</g>
</g>
</svg>
