<?xml version="1.0" encoding="UTF-8" standalone="no"?>
<!DOCTYPE svg PUBLIC "-//W3C//DTD SVG 1.1//EN"
 "http://www.w3.org/Graphics/SVG/1.1/DTD/svg11.dtd">
<!-- Generated by graphviz version 3.0.0 (20220226.1711)
 -->
<!-- Title: dependencies Pages: 1 -->
<svg width="1345pt" height="174pt"
 viewBox="0.00 0.00 1345.00 173.80" xmlns="http://www.w3.org/2000/svg" xmlns:xlink="http://www.w3.org/1999/xlink">
<g id="graph0" class="graph" transform="scale(1 1) rotate(0) translate(4 169.8)">
<title>dependencies</title>
<polygon fill="white" stroke="transparent" points="-4,4 -4,-169.8 1341,-169.8 1341,4 -4,4"/>
<text text-anchor="middle" x="668.5" y="-8.2" font-family="sans-serif" font-size="14.00">dependencies</text>
<g id="clust1" class="cluster">
<title>cluster_ManagementTestModule</title>
<polygon fill="none" stroke="black" stroke-dasharray="1,5" points="8,-32.8 8,-157.8 1329,-157.8 1329,-32.8 8,-32.8"/>
</g>
<g id="clust6" class="cluster">
<title>cluster_ManagementTestModule_providers</title>
<polygon fill="none" stroke="black" points="450,-40.8 450,-92.8 1321,-92.8 1321,-40.8 450,-40.8"/>
</g>
<g id="clust3" class="cluster">
<title>cluster_ManagementTestModule_imports</title>
<polygon fill="none" stroke="black" points="16,-40.8 16,-92.8 442,-92.8 442,-40.8 16,-40.8"/>
</g>
<!-- AuthModule -->
<g id="node1" class="node">
<title>AuthModule</title>
<polygon fill="#8dd3c7" stroke="black" points="433.55,-84.8 430.55,-88.8 409.55,-88.8 406.55,-84.8 346.45,-84.8 346.45,-48.8 433.55,-48.8 433.55,-84.8"/>
<text text-anchor="middle" x="390" y="-62.6" font-family="Times,serif" font-size="14.00">AuthModule</text>
</g>
<!-- ManagementTestModule -->
<g id="node4" class="node">
<title>ManagementTestModule</title>
<polygon fill="#8dd3c7" stroke="black" points="644.24,-149.8 641.24,-153.8 620.24,-153.8 617.24,-149.8 487.76,-149.8 487.76,-113.8 644.24,-113.8 644.24,-149.8"/>
<text text-anchor="middle" x="566" y="-127.6" font-family="Times,serif" font-size="14.00">ManagementTestModule</text>
</g>
<!-- AuthModule&#45;&gt;ManagementTestModule -->
<g id="edge1" class="edge">
<title>AuthModule&#45;&gt;ManagementTestModule</title>
<path fill="none" stroke="black" d="M390,-84.83C390,-101.2 390,-122.8 390,-122.8 390,-122.8 477.52,-122.8 477.52,-122.8"/>
<polygon fill="black" stroke="black" points="477.52,-126.3 487.52,-122.8 477.52,-119.3 477.52,-126.3"/>
</g>
<!-- CoreModule -->
<g id="node2" class="node">
<title>CoreModule</title>
<polygon fill="#8dd3c7" stroke="black" points="328.27,-84.8 325.27,-88.8 304.27,-88.8 301.27,-84.8 241.73,-84.8 241.73,-48.8 328.27,-48.8 328.27,-84.8"/>
<text text-anchor="middle" x="285" y="-62.6" font-family="Times,serif" font-size="14.00">CoreModule</text>
</g>
<!-- CoreModule&#45;&gt;ManagementTestModule -->
<g id="edge2" class="edge">
<title>CoreModule&#45;&gt;ManagementTestModule</title>
<path fill="none" stroke="black" d="M285,-84.91C285,-104.14 285,-131.8 285,-131.8 285,-131.8 477.73,-131.8 477.73,-131.8"/>
<polygon fill="black" stroke="black" points="477.73,-135.3 487.73,-131.8 477.73,-128.3 477.73,-135.3"/>
</g>
<!-- MongoMemoryDatabaseModule -->
<g id="node3" class="node">
<title>MongoMemoryDatabaseModule</title>
<polygon fill="#8dd3c7" stroke="black" points="223.52,-84.8 220.52,-88.8 199.52,-88.8 196.52,-84.8 24.48,-84.8 24.48,-48.8 223.52,-48.8 223.52,-84.8"/>
<text text-anchor="middle" x="124" y="-62.6" font-family="Times,serif" font-size="14.00">MongoMemoryDatabaseModule</text>
</g>
<!-- MongoMemoryDatabaseModule&#45;&gt;ManagementTestModule -->
<g id="edge3" class="edge">
<title>MongoMemoryDatabaseModule&#45;&gt;ManagementTestModule</title>
<path fill="none" stroke="black" d="M124,-85.09C124,-107.01 124,-140.8 124,-140.8 124,-140.8 477.74,-140.8 477.74,-140.8"/>
<polygon fill="black" stroke="black" points="477.74,-144.3 487.74,-140.8 477.74,-137.3 477.74,-144.3"/>
</g>
<!-- BsonConverter -->
<g id="node5" class="node">
<title>BsonConverter</title>
<ellipse fill="#fdb462" stroke="black" cx="1243" cy="-66.8" rx="69.51" ry="18"/>
<text text-anchor="middle" x="1243" y="-62.6" font-family="Times,serif" font-size="14.00">BsonConverter</text>
</g>
<!-- BsonConverter&#45;&gt;ManagementTestModule -->
<g id="edge4" class="edge">
<title>BsonConverter&#45;&gt;ManagementTestModule</title>
<path fill="none" stroke="black" d="M1243,-85.09C1243,-107.01 1243,-140.8 1243,-140.8 1243,-140.8 654.32,-140.8 654.32,-140.8"/>
<polygon fill="black" stroke="black" points="654.32,-137.3 644.32,-140.8 654.32,-144.3 654.32,-137.3"/>
</g>
<!-- ConsoleWriterService -->
<g id="node6" class="node">
<title>ConsoleWriterService</title>
<ellipse fill="#fdb462" stroke="black" cx="1059" cy="-66.8" rx="96.69" ry="18"/>
<text text-anchor="middle" x="1059" y="-62.6" font-family="Times,serif" font-size="14.00">ConsoleWriterService</text>
</g>
<!-- ConsoleWriterService&#45;&gt;ManagementTestModule -->
<g id="edge5" class="edge">
<title>ConsoleWriterService&#45;&gt;ManagementTestModule</title>
<path fill="none" stroke="black" d="M1059,-84.91C1059,-104.14 1059,-131.8 1059,-131.8 1059,-131.8 654.39,-131.8 654.39,-131.8"/>
<polygon fill="black" stroke="black" points="654.39,-128.3 644.39,-131.8 654.39,-135.3 654.39,-128.3"/>
</g>
<!-- DatabaseManagementService -->
<g id="node7" class="node">
<title>DatabaseManagementService</title>
<ellipse fill="#fdb462" stroke="black" cx="818" cy="-66.8" rx="125.59" ry="18"/>
<text text-anchor="middle" x="818" y="-62.6" font-family="Times,serif" font-size="14.00">DatabaseManagementService</text>
</g>
<!-- DatabaseManagementService&#45;&gt;ManagementTestModule -->
<g id="edge6" class="edge">
<title>DatabaseManagementService&#45;&gt;ManagementTestModule</title>
<path fill="none" stroke="black" d="M818,-84.83C818,-101.2 818,-122.8 818,-122.8 818,-122.8 654.35,-122.8 654.35,-122.8"/>
<polygon fill="black" stroke="black" points="654.35,-119.3 644.35,-122.8 654.35,-126.3 654.35,-119.3"/>
</g>
<!-- DatabaseManagementUc -->
<g id="node8" class="node">
<title>DatabaseManagementUc</title>
<ellipse fill="#fdb462" stroke="black" cx="566" cy="-66.8" rx="108.19" ry="18"/>
<text text-anchor="middle" x="566" y="-62.6" font-family="Times,serif" font-size="14.00">DatabaseManagementUc</text>
</g>
<!-- DatabaseManagementUc&#45;&gt;ManagementTestModule -->
<g id="edge7" class="edge">
<title>DatabaseManagementUc&#45;&gt;ManagementTestModule</title>
<path fill="none" stroke="black" d="M566,-84.91C566,-84.91 566,-103.79 566,-103.79"/>
<polygon fill="black" stroke="black" points="562.5,-103.79 566,-113.79 569.5,-103.79 562.5,-103.79"/>
</g>
</g>
</svg>
