<?xml version="1.0" encoding="UTF-8" standalone="no"?>
<!DOCTYPE svg PUBLIC "-//W3C//DTD SVG 1.1//EN"
 "http://www.w3.org/Graphics/SVG/1.1/DTD/svg11.dtd">
<!-- Generated by graphviz version 2.47.3 (20210619.1520)
 -->
<!-- Title: dependencies Pages: 1 -->
<svg width="1345pt" height="174pt"
 viewBox="0.00 0.00 1345.00 173.80" xmlns="http://www.w3.org/2000/svg" xmlns:xlink="http://www.w3.org/1999/xlink">
<g id="graph0" class="graph" transform="scale(1 1) rotate(0) translate(4 169.8)">
<title>dependencies</title>
<polygon fill="white" stroke="transparent" points="-4,4 -4,-169.8 1341,-169.8 1341,4 -4,4"/>
<text text-anchor="middle" x="668.5" y="-8.2" font-family="sans-serif" font-size="14.00">dependencies</text>
<g id="clust1" class="cluster">
<title>cluster_ManagementTestModule</title>
<polygon fill="none" stroke="black" stroke-dasharray="1,5" points="8,-32.8 8,-157.8 1329,-157.8 1329,-32.8 8,-32.8"/>
</g>
<g id="clust3" class="cluster">
<title>cluster_ManagementTestModule_imports</title>
<polygon fill="none" stroke="black" points="895,-40.8 895,-92.8 1321,-92.8 1321,-40.8 895,-40.8"/>
</g>
<g id="clust6" class="cluster">
<title>cluster_ManagementTestModule_providers</title>
<polygon fill="none" stroke="black" points="16,-40.8 16,-92.8 887,-92.8 887,-40.8 16,-40.8"/>
</g>
<!-- AuthModule -->
<g id="node1" class="node">
<title>AuthModule</title>
<polygon fill="#8dd3c7" stroke="black" points="1312.55,-84.8 1309.55,-88.8 1288.55,-88.8 1285.55,-84.8 1225.45,-84.8 1225.45,-48.8 1312.55,-48.8 1312.55,-84.8"/>
<text text-anchor="middle" x="1269" y="-62.6" font-family="Times,serif" font-size="14.00">AuthModule</text>
</g>
<!-- ManagementTestModule -->
<g id="node4" class="node">
<title>ManagementTestModule</title>
<polygon fill="#8dd3c7" stroke="black" points="887.24,-149.8 884.24,-153.8 863.24,-153.8 860.24,-149.8 730.76,-149.8 730.76,-113.8 887.24,-113.8 887.24,-149.8"/>
<text text-anchor="middle" x="809" y="-127.6" font-family="Times,serif" font-size="14.00">ManagementTestModule</text>
</g>
<!-- AuthModule&#45;&gt;ManagementTestModule -->
<g id="edge1" class="edge">
<title>AuthModule&#45;&gt;ManagementTestModule</title>
<path fill="none" stroke="black" d="M1269,-85.08C1269,-106.12 1269,-137.8 1269,-137.8 1269,-137.8 897.29,-137.8 897.29,-137.8"/>
<polygon fill="black" stroke="black" points="897.29,-134.3 887.29,-137.8 897.29,-141.3 897.29,-134.3"/>
</g>
<!-- CoreModule -->
<g id="node2" class="node">
<title>CoreModule</title>
<polygon fill="#8dd3c7" stroke="black" points="1207.26,-84.8 1204.26,-88.8 1183.26,-88.8 1180.26,-84.8 1120.74,-84.8 1120.74,-48.8 1207.26,-48.8 1207.26,-84.8"/>
<text text-anchor="middle" x="1164" y="-62.6" font-family="Times,serif" font-size="14.00">CoreModule</text>
</g>
<!-- CoreModule&#45;&gt;ManagementTestModule -->
<g id="edge2" class="edge">
<title>CoreModule&#45;&gt;ManagementTestModule</title>
<path fill="none" stroke="black" d="M1164,-84.82C1164,-102.17 1164,-125.8 1164,-125.8 1164,-125.8 897.35,-125.8 897.35,-125.8"/>
<polygon fill="black" stroke="black" points="897.35,-122.3 887.35,-125.8 897.35,-129.3 897.35,-122.3"/>
</g>
<!-- MongoMemoryDatabaseModule -->
<g id="node3" class="node">
<title>MongoMemoryDatabaseModule</title>
<polygon fill="#8dd3c7" stroke="black" points="1102.51,-84.8 1099.51,-88.8 1078.51,-88.8 1075.51,-84.8 903.49,-84.8 903.49,-48.8 1102.51,-48.8 1102.51,-84.8"/>
<text text-anchor="middle" x="1003" y="-62.6" font-family="Times,serif" font-size="14.00">MongoMemoryDatabaseModule</text>
</g>
<!-- MongoMemoryDatabaseModule&#45;&gt;ManagementTestModule -->
<g id="edge3" class="edge">
<title>MongoMemoryDatabaseModule&#45;&gt;ManagementTestModule</title>
<path fill="none" stroke="black" d="M903.3,-66.8C891.16,-66.8 882.93,-66.8 882.93,-66.8 882.93,-66.8 882.93,-103.69 882.93,-103.69"/>
<polygon fill="black" stroke="black" points="879.43,-103.69 882.93,-113.69 886.43,-103.69 879.43,-103.69"/>
</g>
<!-- BsonConverter -->
<g id="node5" class="node">
<title>BsonConverter</title>
<ellipse fill="#fdb462" stroke="black" cx="809" cy="-66.8" rx="69.5" ry="18"/>
<text text-anchor="middle" x="809" y="-62.6" font-family="Times,serif" font-size="14.00">BsonConverter</text>
</g>
<!-- BsonConverter&#45;&gt;ManagementTestModule -->
<g id="edge4" class="edge">
<title>BsonConverter&#45;&gt;ManagementTestModule</title>
<path fill="none" stroke="black" d="M809,-84.91C809,-84.91 809,-103.79 809,-103.79"/>
<polygon fill="black" stroke="black" points="805.5,-103.79 809,-113.79 812.5,-103.79 805.5,-103.79"/>
</g>
<!-- ConsoleWriterService -->
<g id="node6" class="node">
<title>ConsoleWriterService</title>
<ellipse fill="#fdb462" stroke="black" cx="625" cy="-66.8" rx="96.68" ry="18"/>
<text text-anchor="middle" x="625" y="-62.6" font-family="Times,serif" font-size="14.00">ConsoleWriterService</text>
</g>
<!-- ConsoleWriterService&#45;&gt;ManagementTestModule -->
<g id="edge5" class="edge">
<title>ConsoleWriterService&#45;&gt;ManagementTestModule</title>
<path fill="none" stroke="black" d="M722.01,-66.8C729.98,-66.8 735.07,-66.8 735.07,-66.8 735.07,-66.8 735.07,-103.69 735.07,-103.69"/>
<polygon fill="black" stroke="black" points="731.57,-103.69 735.07,-113.69 738.57,-103.69 731.57,-103.69"/>
</g>
<!-- DatabaseManagementService -->
<g id="node7" class="node">
<title>DatabaseManagementService</title>
<ellipse fill="#fdb462" stroke="black" cx="384" cy="-66.8" rx="125.58" ry="18"/>
<text text-anchor="middle" x="384" y="-62.6" font-family="Times,serif" font-size="14.00">DatabaseManagementService</text>
</g>
<!-- DatabaseManagementService&#45;&gt;ManagementTestModule -->
<g id="edge6" class="edge">
<title>DatabaseManagementService&#45;&gt;ManagementTestModule</title>
<path fill="none" stroke="black" d="M384,-84.82C384,-102.17 384,-125.8 384,-125.8 384,-125.8 720.55,-125.8 720.55,-125.8"/>
<polygon fill="black" stroke="black" points="720.55,-129.3 730.55,-125.8 720.55,-122.3 720.55,-129.3"/>
</g>
<!-- DatabaseManagementUc -->
<g id="node8" class="node">
<title>DatabaseManagementUc</title>
<ellipse fill="#fdb462" stroke="black" cx="132" cy="-66.8" rx="108.19" ry="18"/>
<text text-anchor="middle" x="132" y="-62.6" font-family="Times,serif" font-size="14.00">DatabaseManagementUc</text>
</g>
<!-- DatabaseManagementUc&#45;&gt;ManagementTestModule -->
<g id="edge7" class="edge">
<title>DatabaseManagementUc&#45;&gt;ManagementTestModule</title>
<path fill="none" stroke="black" d="M132,-85.08C132,-106.12 132,-137.8 132,-137.8 132,-137.8 720.68,-137.8 720.68,-137.8"/>
<polygon fill="black" stroke="black" points="720.68,-141.3 730.68,-137.8 720.68,-134.3 720.68,-141.3"/>
</g>
</g>
</svg>
