<?xml version="1.0" encoding="UTF-8" standalone="no"?>
<!DOCTYPE svg PUBLIC "-//W3C//DTD SVG 1.1//EN"
 "http://www.w3.org/Graphics/SVG/1.1/DTD/svg11.dtd">
<!-- Generated by graphviz version 3.0.0 (20220226.1711)
 -->
<!-- Title: dependencies Pages: 1 -->
<svg width="1500pt" height="174pt"
 viewBox="0.00 0.00 1500.00 173.80" xmlns="http://www.w3.org/2000/svg" xmlns:xlink="http://www.w3.org/1999/xlink">
<g id="graph0" class="graph" transform="scale(1 1) rotate(0) translate(4 169.8)">
<title>dependencies</title>
<polygon fill="white" stroke="transparent" points="-4,4 -4,-169.8 1496,-169.8 1496,4 -4,4"/>
<text text-anchor="middle" x="746" y="-8.2" font-family="sans-serif" font-size="14.00">dependencies</text>
<g id="clust1" class="cluster">
<title>cluster_ManagementTestModule</title>
<polygon fill="none" stroke="black" stroke-dasharray="1,5" points="8,-32.8 8,-157.8 1484,-157.8 1484,-32.8 8,-32.8"/>
</g>
<g id="clust3" class="cluster">
<title>cluster_ManagementTestModule_imports</title>
<polygon fill="none" stroke="black" points="895,-40.8 895,-92.8 1476,-92.8 1476,-40.8 895,-40.8"/>
</g>
<g id="clust6" class="cluster">
<title>cluster_ManagementTestModule_providers</title>
<polygon fill="none" stroke="black" points="16,-40.8 16,-92.8 887,-92.8 887,-40.8 16,-40.8"/>
</g>
<!-- AuthModule -->
<g id="node1" class="node">
<title>AuthModule</title>
<polygon fill="#8dd3c7" stroke="black" points="1467.55,-84.8 1464.55,-88.8 1443.55,-88.8 1440.55,-84.8 1380.45,-84.8 1380.45,-48.8 1467.55,-48.8 1467.55,-84.8"/>
<text text-anchor="middle" x="1424" y="-62.6" font-family="Times,serif" font-size="14.00">AuthModule</text>
</g>
<!-- ManagementTestModule -->
<g id="node5" class="node">
<title>ManagementTestModule</title>
<polygon fill="#8dd3c7" stroke="black" points="984.24,-149.8 981.24,-153.8 960.24,-153.8 957.24,-149.8 827.76,-149.8 827.76,-113.8 984.24,-113.8 984.24,-149.8"/>
<text text-anchor="middle" x="906" y="-127.6" font-family="Times,serif" font-size="14.00">ManagementTestModule</text>
</g>
<!-- AuthModule&#45;&gt;ManagementTestModule -->
<g id="edge1" class="edge">
<title>AuthModule&#45;&gt;ManagementTestModule</title>
<path fill="none" stroke="black" d="M1424,-85.09C1424,-107.01 1424,-140.8 1424,-140.8 1424,-140.8 994.39,-140.8 994.39,-140.8"/>
<polygon fill="black" stroke="black" points="994.39,-137.3 984.39,-140.8 994.39,-144.3 994.39,-137.3"/>
</g>
<!-- AuthorizationModule -->
<g id="node2" class="node">
<title>AuthorizationModule</title>
<polygon fill="#8dd3c7" stroke="black" points="1362.81,-84.8 1359.81,-88.8 1338.81,-88.8 1335.81,-84.8 1225.19,-84.8 1225.19,-48.8 1362.81,-48.8 1362.81,-84.8"/>
<text text-anchor="middle" x="1294" y="-62.6" font-family="Times,serif" font-size="14.00">AuthorizationModule</text>
</g>
<!-- AuthorizationModule&#45;&gt;ManagementTestModule -->
<g id="edge2" class="edge">
<title>AuthorizationModule&#45;&gt;ManagementTestModule</title>
<path fill="none" stroke="black" d="M1294,-84.91C1294,-104.14 1294,-131.8 1294,-131.8 1294,-131.8 994.52,-131.8 994.52,-131.8"/>
<polygon fill="black" stroke="black" points="994.52,-128.3 984.52,-131.8 994.52,-135.3 994.52,-128.3"/>
</g>
<!-- CoreModule -->
<g id="node3" class="node">
<title>CoreModule</title>
<polygon fill="#8dd3c7" stroke="black" points="1207.27,-84.8 1204.27,-88.8 1183.27,-88.8 1180.27,-84.8 1120.73,-84.8 1120.73,-48.8 1207.27,-48.8 1207.27,-84.8"/>
<text text-anchor="middle" x="1164" y="-62.6" font-family="Times,serif" font-size="14.00">CoreModule</text>
</g>
<!-- CoreModule&#45;&gt;ManagementTestModule -->
<g id="edge3" class="edge">
<title>CoreModule&#45;&gt;ManagementTestModule</title>
<path fill="none" stroke="black" d="M1164,-84.83C1164,-101.2 1164,-122.8 1164,-122.8 1164,-122.8 994.46,-122.8 994.46,-122.8"/>
<polygon fill="black" stroke="black" points="994.46,-119.3 984.46,-122.8 994.46,-126.3 994.46,-119.3"/>
</g>
<!-- MongoMemoryDatabaseModule -->
<g id="node4" class="node">
<title>MongoMemoryDatabaseModule</title>
<polygon fill="#8dd3c7" stroke="black" points="1102.52,-84.8 1099.52,-88.8 1078.52,-88.8 1075.52,-84.8 903.48,-84.8 903.48,-48.8 1102.52,-48.8 1102.52,-84.8"/>
<text text-anchor="middle" x="1003" y="-62.6" font-family="Times,serif" font-size="14.00">MongoMemoryDatabaseModule</text>
</g>
<!-- MongoMemoryDatabaseModule&#45;&gt;ManagementTestModule -->
<g id="edge4" class="edge">
<title>MongoMemoryDatabaseModule&#45;&gt;ManagementTestModule</title>
<path fill="none" stroke="black" d="M943.81,-84.91C943.81,-84.91 943.81,-103.79 943.81,-103.79"/>
<polygon fill="black" stroke="black" points="940.31,-103.79 943.81,-113.79 947.31,-103.79 940.31,-103.79"/>
</g>
<!-- BsonConverter -->
<g id="node6" class="node">
<title>BsonConverter</title>
<ellipse fill="#fdb462" stroke="black" cx="809" cy="-66.8" rx="69.51" ry="18"/>
<text text-anchor="middle" x="809" y="-62.6" font-family="Times,serif" font-size="14.00">BsonConverter</text>
</g>
<!-- BsonConverter&#45;&gt;ManagementTestModule -->
<g id="edge5" class="edge">
<title>BsonConverter&#45;&gt;ManagementTestModule</title>
<path fill="none" stroke="black" d="M853.07,-80.9C853.07,-80.9 853.07,-103.52 853.07,-103.52"/>
<polygon fill="black" stroke="black" points="849.57,-103.52 853.07,-113.52 856.57,-103.52 849.57,-103.52"/>
</g>
<!-- ConsoleWriterService -->
<g id="node7" class="node">
<title>ConsoleWriterService</title>
<ellipse fill="#fdb462" stroke="black" cx="625" cy="-66.8" rx="96.69" ry="18"/>
<text text-anchor="middle" x="625" y="-62.6" font-family="Times,serif" font-size="14.00">ConsoleWriterService</text>
</g>
<!-- ConsoleWriterService&#45;&gt;ManagementTestModule -->
<g id="edge6" class="edge">
<title>ConsoleWriterService&#45;&gt;ManagementTestModule</title>
<path fill="none" stroke="black" d="M625,-84.83C625,-101.2 625,-122.8 625,-122.8 625,-122.8 817.73,-122.8 817.73,-122.8"/>
<polygon fill="black" stroke="black" points="817.73,-126.3 827.73,-122.8 817.73,-119.3 817.73,-126.3"/>
</g>
<!-- DatabaseManagementService -->
<g id="node8" class="node">
<title>DatabaseManagementService</title>
<ellipse fill="#fdb462" stroke="black" cx="384" cy="-66.8" rx="125.59" ry="18"/>
<text text-anchor="middle" x="384" y="-62.6" font-family="Times,serif" font-size="14.00">DatabaseManagementService</text>
</g>
<!-- DatabaseManagementService&#45;&gt;ManagementTestModule -->
<g id="edge7" class="edge">
<title>DatabaseManagementService&#45;&gt;ManagementTestModule</title>
<path fill="none" stroke="black" d="M384,-84.91C384,-104.14 384,-131.8 384,-131.8 384,-131.8 817.57,-131.8 817.57,-131.8"/>
<polygon fill="black" stroke="black" points="817.57,-135.3 827.57,-131.8 817.57,-128.3 817.57,-135.3"/>
</g>
<!-- DatabaseManagementUc -->
<g id="node9" class="node">
<title>DatabaseManagementUc</title>
<ellipse fill="#fdb462" stroke="black" cx="132" cy="-66.8" rx="108.19" ry="18"/>
<text text-anchor="middle" x="132" y="-62.6" font-family="Times,serif" font-size="14.00">DatabaseManagementUc</text>
</g>
<!-- DatabaseManagementUc&#45;&gt;ManagementTestModule -->
<g id="edge8" class="edge">
<title>DatabaseManagementUc&#45;&gt;ManagementTestModule</title>
<path fill="none" stroke="black" d="M132,-85.09C132,-107.01 132,-140.8 132,-140.8 132,-140.8 817.53,-140.8 817.53,-140.8"/>
<polygon fill="black" stroke="black" points="817.53,-144.3 827.53,-140.8 817.53,-137.3 817.53,-144.3"/>
</g>
</g>
</svg>
