<?xml version="1.0" encoding="UTF-8" standalone="no"?>
<!DOCTYPE svg PUBLIC "-//W3C//DTD SVG 1.1//EN"
 "http://www.w3.org/Graphics/SVG/1.1/DTD/svg11.dtd">
<!-- Generated by graphviz version 2.47.3 (20210619.1520)
 -->
<!-- Title: dependencies Pages: 1 -->
<svg width="134pt" height="174pt"
 viewBox="0.00 0.00 134.00 173.80" xmlns="http://www.w3.org/2000/svg" xmlns:xlink="http://www.w3.org/1999/xlink">
<g id="graph0" class="graph" transform="scale(1 1) rotate(0) translate(4 169.8)">
<title>dependencies</title>
<polygon fill="white" stroke="transparent" points="-4,4 -4,-169.8 130,-169.8 130,4 -4,4"/>
<text text-anchor="middle" x="63" y="-8.2" font-family="sans-serif" font-size="14.00">dependencies</text>
<g id="clust1" class="cluster">
<title>cluster_ErrorModule</title>
<polygon fill="none" stroke="black" stroke-dasharray="1,5" points="8,-32.8 8,-157.8 118,-157.8 118,-32.8 8,-32.8"/>
</g>
<g id="clust6" class="cluster">
<title>cluster_ErrorModule_providers</title>
<polygon fill="none" stroke="black" points="16,-40.8 16,-92.8 110,-92.8 110,-40.8 16,-40.8"/>
</g>
<!-- Logger -->
<g id="node1" class="node">
<title>Logger</title>
<ellipse fill="#fdb462" stroke="black" cx="63" cy="-66.8" rx="38.85" ry="18"/>
<text text-anchor="middle" x="63" y="-62.6" font-family="Times,serif" font-size="14.00">Logger</text>
</g>
<!-- ErrorModule -->
<g id="node2" class="node">
<title>ErrorModule</title>
<polygon fill="#8dd3c7" stroke="black" points="107.58,-149.8 104.58,-153.8 83.58,-153.8 80.58,-149.8 18.42,-149.8 18.42,-113.8 107.58,-113.8 107.58,-149.8"/>
<text text-anchor="middle" x="63" y="-127.6" font-family="Times,serif" font-size="14.00">ErrorModule</text>
</g>
<!-- Logger&#45;&gt;ErrorModule -->
<g id="edge1" class="edge">
<title>Logger&#45;&gt;ErrorModule</title>
<path fill="none" stroke="black" d="M63,-84.91C63,-84.91 63,-103.79 63,-103.79"/>
<polygon fill="black" stroke="black" points="59.5,-103.79 63,-113.79 66.5,-103.79 59.5,-103.79"/>
</g>
</g>
</svg>
