<?xml version="1.0" encoding="UTF-8" standalone="no"?>
<!DOCTYPE svg PUBLIC "-//W3C//DTD SVG 1.1//EN"
 "http://www.w3.org/Graphics/SVG/1.1/DTD/svg11.dtd">
<!-- Generated by graphviz version 5.0.0 (20220707.1540)
 -->
<!-- Title: dependencies Pages: 1 -->
<svg width="1957pt" height="174pt"
 viewBox="0.00 0.00 1957.00 173.80" xmlns="http://www.w3.org/2000/svg" xmlns:xlink="http://www.w3.org/1999/xlink">
<g id="graph0" class="graph" transform="scale(1 1) rotate(0) translate(4 169.8)">
<title>dependencies</title>
<polygon fill="white" stroke="transparent" points="-4,4 -4,-169.8 1953,-169.8 1953,4 -4,4"/>
<text text-anchor="middle" x="974.5" y="-8.2" font-family="sans-serif" font-size="14.00">dependencies</text>
<g id="clust1" class="cluster">
<title>cluster_VideoConferenceModule</title>
<polygon fill="none" stroke="black" stroke-dasharray="1,5" points="8,-32.8 8,-157.8 1941,-157.8 1941,-32.8 8,-32.8"/>
</g>
<g id="clust3" class="cluster">
<title>cluster_VideoConferenceModule_imports</title>
<polygon fill="none" stroke="black" points="1417,-40.8 1417,-92.8 1933,-92.8 1933,-40.8 1417,-40.8"/>
</g>
<g id="clust6" class="cluster">
<title>cluster_VideoConferenceModule_providers</title>
<polygon fill="none" stroke="black" points="16,-40.8 16,-92.8 1409,-92.8 1409,-40.8 16,-40.8"/>
</g>
<!-- AuthorizationModule -->
<g id="node1" class="node">
<title>AuthorizationModule</title>
<polygon fill="#8dd3c7" stroke="black" points="1924.81,-84.8 1921.81,-88.8 1900.81,-88.8 1897.81,-84.8 1787.19,-84.8 1787.19,-48.8 1924.81,-48.8 1924.81,-84.8"/>
<text text-anchor="middle" x="1856" y="-62.6" font-family="Times,serif" font-size="14.00">AuthorizationModule</text>
</g>
<!-- VideoConferenceModule -->
<g id="node5" class="node">
<title>VideoConferenceModule</title>
<polygon fill="#8dd3c7" stroke="black" points="1208.28,-149.8 1205.28,-153.8 1184.28,-153.8 1181.28,-149.8 1049.72,-149.8 1049.72,-113.8 1208.28,-113.8 1208.28,-149.8"/>
<text text-anchor="middle" x="1129" y="-127.6" font-family="Times,serif" font-size="14.00">VideoConferenceModule</text>
</g>
<!-- AuthorizationModule&#45;&gt;VideoConferenceModule -->
<g id="edge1" class="edge">
<title>AuthorizationModule&#45;&gt;VideoConferenceModule</title>
<path fill="none" stroke="black" d="M1856,-84.89C1856,-107.93 1856,-144.8 1856,-144.8 1856,-144.8 1218.19,-144.8 1218.19,-144.8"/>
<polygon fill="black" stroke="black" points="1218.19,-141.3 1208.19,-144.8 1218.19,-148.3 1218.19,-141.3"/>
</g>
<!-- CalendarModule -->
<g id="node2" class="node">
<title>CalendarModule</title>
<polygon fill="#8dd3c7" stroke="black" points="1769.08,-84.8 1766.08,-88.8 1745.08,-88.8 1742.08,-84.8 1658.92,-84.8 1658.92,-48.8 1769.08,-48.8 1769.08,-84.8"/>
<text text-anchor="middle" x="1714" y="-62.6" font-family="Times,serif" font-size="14.00">CalendarModule</text>
</g>
<!-- CalendarModule&#45;&gt;VideoConferenceModule -->
<g id="edge2" class="edge">
<title>CalendarModule&#45;&gt;VideoConferenceModule</title>
<path fill="none" stroke="black" d="M1714,-85.08C1714,-106.12 1714,-137.8 1714,-137.8 1714,-137.8 1218.2,-137.8 1218.2,-137.8"/>
<polygon fill="black" stroke="black" points="1218.2,-134.3 1208.2,-137.8 1218.2,-141.3 1218.2,-134.3"/>
</g>
<!-- LoggerModule -->
<g id="node3" class="node">
<title>LoggerModule</title>
<polygon fill="#8dd3c7" stroke="black" points="1640.98,-84.8 1637.98,-88.8 1616.98,-88.8 1613.98,-84.8 1541.02,-84.8 1541.02,-48.8 1640.98,-48.8 1640.98,-84.8"/>
<text text-anchor="middle" x="1591" y="-62.6" font-family="Times,serif" font-size="14.00">LoggerModule</text>
</g>
<!-- LoggerModule&#45;&gt;VideoConferenceModule -->
<g id="edge3" class="edge">
<title>LoggerModule&#45;&gt;VideoConferenceModule</title>
<path fill="none" stroke="black" d="M1591,-84.91C1591,-104.14 1591,-131.8 1591,-131.8 1591,-131.8 1218.16,-131.8 1218.16,-131.8"/>
<polygon fill="black" stroke="black" points="1218.16,-128.3 1208.16,-131.8 1218.16,-135.3 1218.16,-128.3"/>
</g>
<!-- SchoolModule -->
<g id="node4" class="node">
<title>SchoolModule</title>
<polygon fill="#8dd3c7" stroke="black" points="1523.44,-84.8 1520.44,-88.8 1499.44,-88.8 1496.44,-84.8 1424.56,-84.8 1424.56,-48.8 1523.44,-48.8 1523.44,-84.8"/>
<text text-anchor="middle" x="1474" y="-62.6" font-family="Times,serif" font-size="14.00">SchoolModule</text>
</g>
<!-- SchoolModule&#45;&gt;VideoConferenceModule -->
<g id="edge4" class="edge">
<title>SchoolModule&#45;&gt;VideoConferenceModule</title>
<path fill="none" stroke="black" d="M1474,-84.82C1474,-102.17 1474,-125.8 1474,-125.8 1474,-125.8 1218.15,-125.8 1218.15,-125.8"/>
<polygon fill="black" stroke="black" points="1218.15,-122.3 1208.15,-125.8 1218.15,-129.3 1218.15,-122.3"/>
</g>
<!-- BBBService -->
<g id="node6" class="node">
<title>BBBService</title>
<ellipse fill="#fdb462" stroke="black" cx="1342" cy="-66.8" rx="59.13" ry="18"/>
<text text-anchor="middle" x="1342" y="-62.6" font-family="Times,serif" font-size="14.00">BBBService</text>
</g>
<!-- BBBService&#45;&gt;VideoConferenceModule -->
<g id="edge5" class="edge">
<title>BBBService&#45;&gt;VideoConferenceModule</title>
<path fill="none" stroke="black" d="M1342,-85.04C1342,-100.37 1342,-119.8 1342,-119.8 1342,-119.8 1218.31,-119.8 1218.31,-119.8"/>
<polygon fill="black" stroke="black" points="1218.31,-116.3 1208.31,-119.8 1218.31,-123.3 1218.31,-116.3"/>
</g>
<!-- ConverterUtil -->
<g id="node7" class="node">
<title>ConverterUtil</title>
<ellipse fill="#fdb462" stroke="black" cx="1200" cy="-66.8" rx="64.85" ry="18"/>
<text text-anchor="middle" x="1200" y="-62.6" font-family="Times,serif" font-size="14.00">ConverterUtil</text>
</g>
<!-- ConverterUtil&#45;&gt;VideoConferenceModule -->
<g id="edge6" class="edge">
<title>ConverterUtil&#45;&gt;VideoConferenceModule</title>
<path fill="none" stroke="black" d="M1171.73,-83.2C1171.73,-83.2 1171.73,-103.34 1171.73,-103.34"/>
<polygon fill="black" stroke="black" points="1168.23,-103.34 1171.73,-113.34 1175.23,-103.34 1168.23,-103.34"/>
</g>
<!-- CourseRepo -->
<g id="node8" class="node">
<title>CourseRepo</title>
<ellipse fill="#fdb462" stroke="black" cx="1059" cy="-66.8" rx="58.56" ry="18"/>
<text text-anchor="middle" x="1059" y="-62.6" font-family="Times,serif" font-size="14.00">CourseRepo</text>
</g>
<!-- CourseRepo&#45;&gt;VideoConferenceModule -->
<g id="edge7" class="edge">
<title>CourseRepo&#45;&gt;VideoConferenceModule</title>
<path fill="none" stroke="black" d="M1083.82,-83.2C1083.82,-83.2 1083.82,-103.34 1083.82,-103.34"/>
<polygon fill="black" stroke="black" points="1080.32,-103.34 1083.82,-113.34 1087.32,-103.34 1080.32,-103.34"/>
</g>
<!-- TeamsRepo -->
<g id="node9" class="node">
<title>TeamsRepo</title>
<ellipse fill="#fdb462" stroke="black" cx="925" cy="-66.8" rx="57.32" ry="18"/>
<text text-anchor="middle" x="925" y="-62.6" font-family="Times,serif" font-size="14.00">TeamsRepo</text>
</g>
<!-- TeamsRepo&#45;&gt;VideoConferenceModule -->
<g id="edge8" class="edge">
<title>TeamsRepo&#45;&gt;VideoConferenceModule</title>
<path fill="none" stroke="black" d="M925,-85.04C925,-100.37 925,-119.8 925,-119.8 925,-119.8 1039.84,-119.8 1039.84,-119.8"/>
<polygon fill="black" stroke="black" points="1039.84,-123.3 1049.84,-119.8 1039.84,-116.3 1039.84,-123.3"/>
</g>
<!-- UserRepo -->
<g id="node10" class="node">
<title>UserRepo</title>
<ellipse fill="#fdb462" stroke="black" cx="800" cy="-66.8" rx="49.81" ry="18"/>
<text text-anchor="middle" x="800" y="-62.6" font-family="Times,serif" font-size="14.00">UserRepo</text>
</g>
<!-- UserRepo&#45;&gt;VideoConferenceModule -->
<g id="edge9" class="edge">
<title>UserRepo&#45;&gt;VideoConferenceModule</title>
<path fill="none" stroke="black" d="M800,-84.82C800,-102.17 800,-125.8 800,-125.8 800,-125.8 1039.78,-125.8 1039.78,-125.8"/>
<polygon fill="black" stroke="black" points="1039.78,-129.3 1049.78,-125.8 1039.78,-122.3 1039.78,-129.3"/>
</g>
<!-- VideoConferenceRepo -->
<g id="node11" class="node">
<title>VideoConferenceRepo</title>
<ellipse fill="#fdb462" stroke="black" cx="633" cy="-66.8" rx="99.55" ry="18"/>
<text text-anchor="middle" x="633" y="-62.6" font-family="Times,serif" font-size="14.00">VideoConferenceRepo</text>
</g>
<!-- VideoConferenceRepo&#45;&gt;VideoConferenceModule -->
<g id="edge10" class="edge">
<title>VideoConferenceRepo&#45;&gt;VideoConferenceModule</title>
<path fill="none" stroke="black" d="M633,-84.91C633,-104.14 633,-131.8 633,-131.8 633,-131.8 1039.58,-131.8 1039.58,-131.8"/>
<polygon fill="black" stroke="black" points="1039.58,-135.3 1049.58,-131.8 1039.58,-128.3 1039.58,-135.3"/>
</g>
<!-- VideoConferenceResponseMapper -->
<g id="node12" class="node">
<title>VideoConferenceResponseMapper</title>
<ellipse fill="#fdb462" stroke="black" cx="369" cy="-66.8" rx="146.37" ry="18"/>
<text text-anchor="middle" x="369" y="-62.6" font-family="Times,serif" font-size="14.00">VideoConferenceResponseMapper</text>
</g>
<!-- VideoConferenceResponseMapper&#45;&gt;VideoConferenceModule -->
<g id="edge11" class="edge">
<title>VideoConferenceResponseMapper&#45;&gt;VideoConferenceModule</title>
<path fill="none" stroke="black" d="M369,-85.08C369,-106.12 369,-137.8 369,-137.8 369,-137.8 1039.82,-137.8 1039.82,-137.8"/>
<polygon fill="black" stroke="black" points="1039.82,-141.3 1049.82,-137.8 1039.82,-134.3 1039.82,-141.3"/>
</g>
<!-- VideoConferenceUc -->
<g id="node13" class="node">
<title>VideoConferenceUc</title>
<ellipse fill="#fdb462" stroke="black" cx="114" cy="-66.8" rx="90.3" ry="18"/>
<text text-anchor="middle" x="114" y="-62.6" font-family="Times,serif" font-size="14.00">VideoConferenceUc</text>
</g>
<!-- VideoConferenceUc&#45;&gt;VideoConferenceModule -->
<g id="edge12" class="edge">
<title>VideoConferenceUc&#45;&gt;VideoConferenceModule</title>
<path fill="none" stroke="black" d="M114,-84.89C114,-107.93 114,-144.8 114,-144.8 114,-144.8 1039.78,-144.8 1039.78,-144.8"/>
<polygon fill="black" stroke="black" points="1039.78,-148.3 1049.78,-144.8 1039.78,-141.3 1039.78,-148.3"/>
</g>
</g>
</svg>
