<?xml version="1.0" encoding="UTF-8" standalone="no"?>
<!DOCTYPE svg PUBLIC "-//W3C//DTD SVG 1.1//EN"
 "http://www.w3.org/Graphics/SVG/1.1/DTD/svg11.dtd">
<!-- Generated by graphviz version 5.0.0 (20220707.1540)
 -->
<!-- Title: dependencies Pages: 1 -->
<svg width="1957pt" height="174pt"
 viewBox="0.00 0.00 1957.00 173.80" xmlns="http://www.w3.org/2000/svg" xmlns:xlink="http://www.w3.org/1999/xlink">
<g id="graph0" class="graph" transform="scale(1 1) rotate(0) translate(4 169.8)">
<title>dependencies</title>
<polygon fill="white" stroke="transparent" points="-4,4 -4,-169.8 1953,-169.8 1953,4 -4,4"/>
<text text-anchor="middle" x="974.5" y="-8.2" font-family="sans-serif" font-size="14.00">dependencies</text>
<g id="clust1" class="cluster">
<title>cluster_VideoConferenceModule</title>
<polygon fill="none" stroke="black" stroke-dasharray="1,5" points="8,-32.8 8,-157.8 1941,-157.8 1941,-32.8 8,-32.8"/>
</g>
<g id="clust6" class="cluster">
<title>cluster_VideoConferenceModule_providers</title>
<polygon fill="none" stroke="black" points="540,-40.8 540,-92.8 1933,-92.8 1933,-40.8 540,-40.8"/>
</g>
<g id="clust3" class="cluster">
<title>cluster_VideoConferenceModule_imports</title>
<polygon fill="none" stroke="black" points="16,-40.8 16,-92.8 532,-92.8 532,-40.8 16,-40.8"/>
</g>
<!-- AuthorizationModule -->
<g id="node1" class="node">
<title>AuthorizationModule</title>
<polygon fill="#8dd3c7" stroke="black" points="523.81,-84.8 520.81,-88.8 499.81,-88.8 496.81,-84.8 386.19,-84.8 386.19,-48.8 523.81,-48.8 523.81,-84.8"/>
<text text-anchor="middle" x="455" y="-62.6" font-family="Times,serif" font-size="14.00">AuthorizationModule</text>
</g>
<!-- VideoConferenceModule -->
<g id="node5" class="node">
<title>VideoConferenceModule</title>
<polygon fill="#8dd3c7" stroke="black" points="1104.28,-149.8 1101.28,-153.8 1080.28,-153.8 1077.28,-149.8 945.72,-149.8 945.72,-113.8 1104.28,-113.8 1104.28,-149.8"/>
<text text-anchor="middle" x="1025" y="-127.6" font-family="Times,serif" font-size="14.00">VideoConferenceModule</text>
</g>
<!-- AuthorizationModule&#45;&gt;VideoConferenceModule -->
<g id="edge1" class="edge">
<title>AuthorizationModule&#45;&gt;VideoConferenceModule</title>
<path fill="none" stroke="black" d="M455,-84.82C455,-102.17 455,-125.8 455,-125.8 455,-125.8 935.74,-125.8 935.74,-125.8"/>
<polygon fill="black" stroke="black" points="935.74,-129.3 945.74,-125.8 935.74,-122.3 935.74,-129.3"/>
</g>
<!-- CalendarModule -->
<g id="node2" class="node">
<title>CalendarModule</title>
<polygon fill="#8dd3c7" stroke="black" points="368.08,-84.8 365.08,-88.8 344.08,-88.8 341.08,-84.8 257.92,-84.8 257.92,-48.8 368.08,-48.8 368.08,-84.8"/>
<text text-anchor="middle" x="313" y="-62.6" font-family="Times,serif" font-size="14.00">CalendarModule</text>
</g>
<!-- CalendarModule&#45;&gt;VideoConferenceModule -->
<g id="edge2" class="edge">
<title>CalendarModule&#45;&gt;VideoConferenceModule</title>
<path fill="none" stroke="black" d="M313,-84.91C313,-104.14 313,-131.8 313,-131.8 313,-131.8 935.74,-131.8 935.74,-131.8"/>
<polygon fill="black" stroke="black" points="935.74,-135.3 945.74,-131.8 935.74,-128.3 935.74,-135.3"/>
</g>
<!-- LoggerModule -->
<g id="node3" class="node">
<title>LoggerModule</title>
<polygon fill="#8dd3c7" stroke="black" points="239.98,-84.8 236.98,-88.8 215.98,-88.8 212.98,-84.8 140.02,-84.8 140.02,-48.8 239.98,-48.8 239.98,-84.8"/>
<text text-anchor="middle" x="190" y="-62.6" font-family="Times,serif" font-size="14.00">LoggerModule</text>
</g>
<!-- LoggerModule&#45;&gt;VideoConferenceModule -->
<g id="edge3" class="edge">
<title>LoggerModule&#45;&gt;VideoConferenceModule</title>
<path fill="none" stroke="black" d="M190,-85.08C190,-106.12 190,-137.8 190,-137.8 190,-137.8 935.69,-137.8 935.69,-137.8"/>
<polygon fill="black" stroke="black" points="935.69,-141.3 945.69,-137.8 935.69,-134.3 935.69,-141.3"/>
</g>
<!-- SchoolModule -->
<g id="node4" class="node">
<title>SchoolModule</title>
<polygon fill="#8dd3c7" stroke="black" points="122.44,-84.8 119.44,-88.8 98.44,-88.8 95.44,-84.8 23.56,-84.8 23.56,-48.8 122.44,-48.8 122.44,-84.8"/>
<text text-anchor="middle" x="73" y="-62.6" font-family="Times,serif" font-size="14.00">SchoolModule</text>
</g>
<!-- SchoolModule&#45;&gt;VideoConferenceModule -->
<g id="edge4" class="edge">
<title>SchoolModule&#45;&gt;VideoConferenceModule</title>
<path fill="none" stroke="black" d="M73,-84.89C73,-107.93 73,-144.8 73,-144.8 73,-144.8 935.47,-144.8 935.47,-144.8"/>
<polygon fill="black" stroke="black" points="935.47,-148.3 945.47,-144.8 935.47,-141.3 935.47,-148.3"/>
</g>
<!-- BBBService -->
<g id="node6" class="node">
<title>BBBService</title>
<ellipse fill="#fdb462" stroke="black" cx="1866" cy="-66.8" rx="59.13" ry="18"/>
<text text-anchor="middle" x="1866" y="-62.6" font-family="Times,serif" font-size="14.00">BBBService</text>
</g>
<!-- BBBService&#45;&gt;VideoConferenceModule -->
<g id="edge5" class="edge">
<title>BBBService&#45;&gt;VideoConferenceModule</title>
<path fill="none" stroke="black" d="M1866,-84.89C1866,-107.93 1866,-144.8 1866,-144.8 1866,-144.8 1114.5,-144.8 1114.5,-144.8"/>
<polygon fill="black" stroke="black" points="1114.5,-141.3 1104.5,-144.8 1114.5,-148.3 1114.5,-141.3"/>
</g>
<!-- ConverterUtil -->
<g id="node7" class="node">
<title>ConverterUtil</title>
<ellipse fill="#fdb462" stroke="black" cx="1724" cy="-66.8" rx="64.85" ry="18"/>
<text text-anchor="middle" x="1724" y="-62.6" font-family="Times,serif" font-size="14.00">ConverterUtil</text>
</g>
<!-- ConverterUtil&#45;&gt;VideoConferenceModule -->
<g id="edge6" class="edge">
<title>ConverterUtil&#45;&gt;VideoConferenceModule</title>
<path fill="none" stroke="black" d="M1724,-85.08C1724,-106.12 1724,-137.8 1724,-137.8 1724,-137.8 1114.16,-137.8 1114.16,-137.8"/>
<polygon fill="black" stroke="black" points="1114.16,-134.3 1104.16,-137.8 1114.16,-141.3 1114.16,-134.3"/>
</g>
<!-- CourseRepo -->
<g id="node8" class="node">
<title>CourseRepo</title>
<ellipse fill="#fdb462" stroke="black" cx="1583" cy="-66.8" rx="58.56" ry="18"/>
<text text-anchor="middle" x="1583" y="-62.6" font-family="Times,serif" font-size="14.00">CourseRepo</text>
</g>
<!-- CourseRepo&#45;&gt;VideoConferenceModule -->
<g id="edge7" class="edge">
<title>CourseRepo&#45;&gt;VideoConferenceModule</title>
<path fill="none" stroke="black" d="M1583,-84.91C1583,-104.14 1583,-131.8 1583,-131.8 1583,-131.8 1114.36,-131.8 1114.36,-131.8"/>
<polygon fill="black" stroke="black" points="1114.36,-128.3 1104.36,-131.8 1114.36,-135.3 1114.36,-128.3"/>
</g>
<!-- TeamsRepo -->
<g id="node9" class="node">
<title>TeamsRepo</title>
<ellipse fill="#fdb462" stroke="black" cx="1449" cy="-66.8" rx="57.32" ry="18"/>
<text text-anchor="middle" x="1449" y="-62.6" font-family="Times,serif" font-size="14.00">TeamsRepo</text>
</g>
<!-- TeamsRepo&#45;&gt;VideoConferenceModule -->
<g id="edge8" class="edge">
<title>TeamsRepo&#45;&gt;VideoConferenceModule</title>
<path fill="none" stroke="black" d="M1449,-84.82C1449,-102.17 1449,-125.8 1449,-125.8 1449,-125.8 1114.25,-125.8 1114.25,-125.8"/>
<polygon fill="black" stroke="black" points="1114.25,-122.3 1104.25,-125.8 1114.25,-129.3 1114.25,-122.3"/>
</g>
<!-- UserRepo -->
<g id="node10" class="node">
<title>UserRepo</title>
<ellipse fill="#fdb462" stroke="black" cx="1324" cy="-66.8" rx="49.81" ry="18"/>
<text text-anchor="middle" x="1324" y="-62.6" font-family="Times,serif" font-size="14.00">UserRepo</text>
</g>
<!-- UserRepo&#45;&gt;VideoConferenceModule -->
<g id="edge9" class="edge">
<title>UserRepo&#45;&gt;VideoConferenceModule</title>
<path fill="none" stroke="black" d="M1324,-85.04C1324,-100.37 1324,-119.8 1324,-119.8 1324,-119.8 1114.34,-119.8 1114.34,-119.8"/>
<polygon fill="black" stroke="black" points="1114.34,-116.3 1104.34,-119.8 1114.34,-123.3 1114.34,-116.3"/>
</g>
<!-- VideoConferenceRepo -->
<g id="node11" class="node">
<title>VideoConferenceRepo</title>
<ellipse fill="#fdb462" stroke="black" cx="1157" cy="-66.8" rx="99.55" ry="18"/>
<text text-anchor="middle" x="1157" y="-62.6" font-family="Times,serif" font-size="14.00">VideoConferenceRepo</text>
</g>
<!-- VideoConferenceRepo&#45;&gt;VideoConferenceModule -->
<g id="edge10" class="edge">
<title>VideoConferenceRepo&#45;&gt;VideoConferenceModule</title>
<path fill="none" stroke="black" d="M1080.81,-78.42C1080.81,-78.42 1080.81,-103.65 1080.81,-103.65"/>
<polygon fill="black" stroke="black" points="1077.31,-103.65 1080.81,-113.65 1084.31,-103.65 1077.31,-103.65"/>
</g>
<!-- VideoConferenceResponseMapper -->
<g id="node12" class="node">
<title>VideoConferenceResponseMapper</title>
<ellipse fill="#fdb462" stroke="black" cx="893" cy="-66.8" rx="146.37" ry="18"/>
<text text-anchor="middle" x="893" y="-62.6" font-family="Times,serif" font-size="14.00">VideoConferenceResponseMapper</text>
</g>
<!-- VideoConferenceResponseMapper&#45;&gt;VideoConferenceModule -->
<g id="edge11" class="edge">
<title>VideoConferenceResponseMapper&#45;&gt;VideoConferenceModule</title>
<path fill="none" stroke="black" d="M992.52,-80.27C992.52,-80.27 992.52,-103.66 992.52,-103.66"/>
<polygon fill="black" stroke="black" points="989.02,-103.66 992.52,-113.66 996.02,-103.66 989.02,-103.66"/>
</g>
<!-- VideoConferenceUc -->
<g id="node13" class="node">
<title>VideoConferenceUc</title>
<ellipse fill="#fdb462" stroke="black" cx="638" cy="-66.8" rx="90.3" ry="18"/>
<text text-anchor="middle" x="638" y="-62.6" font-family="Times,serif" font-size="14.00">VideoConferenceUc</text>
</g>
<!-- VideoConferenceUc&#45;&gt;VideoConferenceModule -->
<g id="edge12" class="edge">
<title>VideoConferenceUc&#45;&gt;VideoConferenceModule</title>
<path fill="none" stroke="black" d="M638,-85.04C638,-100.37 638,-119.8 638,-119.8 638,-119.8 935.75,-119.8 935.75,-119.8"/>
<polygon fill="black" stroke="black" points="935.75,-123.3 945.75,-119.8 935.75,-116.3 935.75,-123.3"/>
</g>
</g>
</svg>
