<?xml version="1.0" encoding="UTF-8" standalone="no"?>
<!DOCTYPE svg PUBLIC "-//W3C//DTD SVG 1.1//EN"
 "http://www.w3.org/Graphics/SVG/1.1/DTD/svg11.dtd">
<!-- Generated by graphviz version 3.0.0 (20220226.1711)
 -->
<!-- Title: dependencies Pages: 1 -->
<svg width="1203pt" height="174pt"
 viewBox="0.00 0.00 1203.00 173.80" xmlns="http://www.w3.org/2000/svg" xmlns:xlink="http://www.w3.org/1999/xlink">
<g id="graph0" class="graph" transform="scale(1 1) rotate(0) translate(4 169.8)">
<title>dependencies</title>
<polygon fill="white" stroke="transparent" points="-4,4 -4,-169.8 1199,-169.8 1199,4 -4,4"/>
<text text-anchor="middle" x="597.5" y="-8.2" font-family="sans-serif" font-size="14.00">dependencies</text>
<g id="clust1" class="cluster">
<title>cluster_ImportUserModule</title>
<polygon fill="none" stroke="black" stroke-dasharray="1,5" points="8,-32.8 8,-157.8 1187,-157.8 1187,-32.8 8,-32.8"/>
</g>
<g id="clust6" class="cluster">
<title>cluster_ImportUserModule_providers</title>
<polygon fill="none" stroke="black" points="140,-40.8 140,-92.8 1179,-92.8 1179,-40.8 140,-40.8"/>
</g>
<g id="clust3" class="cluster">
<title>cluster_ImportUserModule_imports</title>
<polygon fill="none" stroke="black" points="16,-40.8 16,-92.8 132,-92.8 132,-40.8 16,-40.8"/>
</g>
<!-- LoggerModule -->
<g id="node1" class="node">
<title>LoggerModule</title>
<polygon fill="#8dd3c7" stroke="black" points="123.98,-84.8 120.98,-88.8 99.98,-88.8 96.98,-84.8 24.02,-84.8 24.02,-48.8 123.98,-48.8 123.98,-84.8"/>
<text text-anchor="middle" x="74" y="-62.6" font-family="Times,serif" font-size="14.00">LoggerModule</text>
</g>
<!-- ImportUserModule -->
<g id="node2" class="node">
<title>ImportUserModule</title>
<polygon fill="#8dd3c7" stroke="black" points="607.09,-149.8 604.09,-153.8 583.09,-153.8 580.09,-149.8 482.91,-149.8 482.91,-113.8 607.09,-113.8 607.09,-149.8"/>
<text text-anchor="middle" x="545" y="-127.6" font-family="Times,serif" font-size="14.00">ImportUserModule</text>
</g>
<!-- LoggerModule&#45;&gt;ImportUserModule -->
<g id="edge1" class="edge">
<title>LoggerModule&#45;&gt;ImportUserModule</title>
<path fill="none" stroke="black" d="M74,-85.09C74,-107.01 74,-140.8 74,-140.8 74,-140.8 472.94,-140.8 472.94,-140.8"/>
<polygon fill="black" stroke="black" points="472.94,-144.3 482.94,-140.8 472.94,-137.3 472.94,-144.3"/>
</g>
<!-- AccountRepo -->
<g id="node3" class="node">
<title>AccountRepo</title>
<ellipse fill="#fdb462" stroke="black" cx="1107" cy="-66.8" rx="64.27" ry="18"/>
<text text-anchor="middle" x="1107" y="-62.6" font-family="Times,serif" font-size="14.00">AccountRepo</text>
</g>
<!-- AccountRepo&#45;&gt;ImportUserModule -->
<g id="edge2" class="edge">
<title>AccountRepo&#45;&gt;ImportUserModule</title>
<path fill="none" stroke="black" d="M1107,-85.09C1107,-107.01 1107,-140.8 1107,-140.8 1107,-140.8 617.29,-140.8 617.29,-140.8"/>
<polygon fill="black" stroke="black" points="617.29,-137.3 607.29,-140.8 617.29,-144.3 617.29,-137.3"/>
</g>
<!-- ImportUserRepo -->
<g id="node4" class="node">
<title>ImportUserRepo</title>
<ellipse fill="#fdb462" stroke="black" cx="949" cy="-66.8" rx="75.88" ry="18"/>
<text text-anchor="middle" x="949" y="-62.6" font-family="Times,serif" font-size="14.00">ImportUserRepo</text>
</g>
<!-- ImportUserRepo&#45;&gt;ImportUserModule -->
<g id="edge3" class="edge">
<title>ImportUserRepo&#45;&gt;ImportUserModule</title>
<path fill="none" stroke="black" d="M949,-84.91C949,-104.14 949,-131.8 949,-131.8 949,-131.8 617.24,-131.8 617.24,-131.8"/>
<polygon fill="black" stroke="black" points="617.24,-128.3 607.24,-131.8 617.24,-135.3 617.24,-128.3"/>
</g>
<!-- PermissionService -->
<g id="node5" class="node">
<title>PermissionService</title>
<ellipse fill="#fdb462" stroke="black" cx="772" cy="-66.8" rx="82.83" ry="18"/>
<text text-anchor="middle" x="772" y="-62.6" font-family="Times,serif" font-size="14.00">PermissionService</text>
</g>
<!-- PermissionService&#45;&gt;ImportUserModule -->
<g id="edge4" class="edge">
<title>PermissionService&#45;&gt;ImportUserModule</title>
<path fill="none" stroke="black" d="M772,-84.83C772,-101.2 772,-122.8 772,-122.8 772,-122.8 617.33,-122.8 617.33,-122.8"/>
<polygon fill="black" stroke="black" points="617.33,-119.3 607.33,-122.8 617.33,-126.3 617.33,-119.3"/>
</g>
<!-- SchoolRepo -->
<g id="node6" class="node">
<title>SchoolRepo</title>
<ellipse fill="#fdb462" stroke="black" cx="613" cy="-66.8" rx="58.49" ry="18"/>
<text text-anchor="middle" x="613" y="-62.6" font-family="Times,serif" font-size="14.00">SchoolRepo</text>
</g>
<!-- SchoolRepo&#45;&gt;ImportUserModule -->
<g id="edge5" class="edge">
<title>SchoolRepo&#45;&gt;ImportUserModule</title>
<path fill="none" stroke="black" d="M580.9,-81.88C580.9,-81.88 580.9,-103.56 580.9,-103.56"/>
<polygon fill="black" stroke="black" points="577.4,-103.56 580.9,-113.56 584.4,-103.56 577.4,-103.56"/>
</g>
<!-- SystemRepo -->
<g id="node7" class="node">
<title>SystemRepo</title>
<ellipse fill="#fdb462" stroke="black" cx="477" cy="-66.8" rx="59.72" ry="18"/>
<text text-anchor="middle" x="477" y="-62.6" font-family="Times,serif" font-size="14.00">SystemRepo</text>
</g>
<!-- SystemRepo&#45;&gt;ImportUserModule -->
<g id="edge6" class="edge">
<title>SystemRepo&#45;&gt;ImportUserModule</title>
<path fill="none" stroke="black" d="M509.91,-81.88C509.91,-81.88 509.91,-103.56 509.91,-103.56"/>
<polygon fill="black" stroke="black" points="506.41,-103.56 509.91,-113.56 513.41,-103.56 506.41,-103.56"/>
</g>
<!-- UserImportUc -->
<g id="node8" class="node">
<title>UserImportUc</title>
<ellipse fill="#fdb462" stroke="black" cx="332" cy="-66.8" rx="66.63" ry="18"/>
<text text-anchor="middle" x="332" y="-62.6" font-family="Times,serif" font-size="14.00">UserImportUc</text>
</g>
<!-- UserImportUc&#45;&gt;ImportUserModule -->
<g id="edge7" class="edge">
<title>UserImportUc&#45;&gt;ImportUserModule</title>
<path fill="none" stroke="black" d="M332,-84.83C332,-101.2 332,-122.8 332,-122.8 332,-122.8 472.82,-122.8 472.82,-122.8"/>
<polygon fill="black" stroke="black" points="472.82,-126.3 482.82,-122.8 472.82,-119.3 472.82,-126.3"/>
</g>
<!-- UserRepo -->
<g id="node9" class="node">
<title>UserRepo</title>
<ellipse fill="#fdb462" stroke="black" cx="198" cy="-66.8" rx="49.81" ry="18"/>
<text text-anchor="middle" x="198" y="-62.6" font-family="Times,serif" font-size="14.00">UserRepo</text>
</g>
<!-- UserRepo&#45;&gt;ImportUserModule -->
<g id="edge8" class="edge">
<title>UserRepo&#45;&gt;ImportUserModule</title>
<path fill="none" stroke="black" d="M198,-84.91C198,-104.14 198,-131.8 198,-131.8 198,-131.8 472.56,-131.8 472.56,-131.8"/>
<polygon fill="black" stroke="black" points="472.56,-135.3 482.56,-131.8 472.56,-128.3 472.56,-135.3"/>
</g>
</g>
</svg>
