<?xml version="1.0" encoding="UTF-8" standalone="no"?>
<!DOCTYPE svg PUBLIC "-//W3C//DTD SVG 1.1//EN"
 "http://www.w3.org/Graphics/SVG/1.1/DTD/svg11.dtd">
<!-- Generated by graphviz version 2.47.3 (20210619.1520)
 -->
<!-- Title: dependencies Pages: 1 -->
<svg width="1065pt" height="174pt"
 viewBox="0.00 0.00 1065.00 173.80" xmlns="http://www.w3.org/2000/svg" xmlns:xlink="http://www.w3.org/1999/xlink">
<g id="graph0" class="graph" transform="scale(1 1) rotate(0) translate(4 169.8)">
<title>dependencies</title>
<polygon fill="white" stroke="transparent" points="-4,4 -4,-169.8 1061,-169.8 1061,4 -4,4"/>
<text text-anchor="middle" x="528.5" y="-8.2" font-family="sans-serif" font-size="14.00">dependencies</text>
<g id="clust1" class="cluster">
<title>cluster_ImportUserModule</title>
<polygon fill="none" stroke="black" stroke-dasharray="1,5" points="8,-32.8 8,-157.8 1049,-157.8 1049,-32.8 8,-32.8"/>
</g>
<g id="clust6" class="cluster">
<title>cluster_ImportUserModule_providers</title>
<polygon fill="none" stroke="black" points="140,-40.8 140,-92.8 1041,-92.8 1041,-40.8 140,-40.8"/>
</g>
<g id="clust3" class="cluster">
<title>cluster_ImportUserModule_imports</title>
<polygon fill="none" stroke="black" points="16,-40.8 16,-92.8 132,-92.8 132,-40.8 16,-40.8"/>
</g>
<!-- LoggerModule -->
<g id="node1" class="node">
<title>LoggerModule</title>
<polygon fill="#8dd3c7" stroke="black" points="123.98,-84.8 120.98,-88.8 99.98,-88.8 96.98,-84.8 24.02,-84.8 24.02,-48.8 123.98,-48.8 123.98,-84.8"/>
<text text-anchor="middle" x="74" y="-62.6" font-family="Times,serif" font-size="14.00">LoggerModule</text>
</g>
<!-- ImportUserModule -->
<g id="node2" class="node">
<title>ImportUserModule</title>
<polygon fill="#8dd3c7" stroke="black" points="537.08,-149.8 534.08,-153.8 513.08,-153.8 510.08,-149.8 412.92,-149.8 412.92,-113.8 537.08,-113.8 537.08,-149.8"/>
<text text-anchor="middle" x="475" y="-127.6" font-family="Times,serif" font-size="14.00">ImportUserModule</text>
</g>
<!-- LoggerModule&#45;&gt;ImportUserModule -->
<g id="edge1" class="edge">
<title>LoggerModule&#45;&gt;ImportUserModule</title>
<path fill="none" stroke="black" d="M74,-85.09C74,-107.01 74,-140.8 74,-140.8 74,-140.8 402.78,-140.8 402.78,-140.8"/>
<polygon fill="black" stroke="black" points="402.78,-144.3 412.78,-140.8 402.78,-137.3 402.78,-144.3"/>
</g>
<!-- AccountRepo -->
<g id="node3" class="node">
<title>AccountRepo</title>
<ellipse fill="#fdb462" stroke="black" cx="969" cy="-66.8" rx="64.27" ry="18"/>
<text text-anchor="middle" x="969" y="-62.6" font-family="Times,serif" font-size="14.00">AccountRepo</text>
</g>
<!-- AccountRepo&#45;&gt;ImportUserModule -->
<g id="edge2" class="edge">
<title>AccountRepo&#45;&gt;ImportUserModule</title>
<path fill="none" stroke="black" d="M969,-85.09C969,-107.01 969,-140.8 969,-140.8 969,-140.8 547.07,-140.8 547.07,-140.8"/>
<polygon fill="black" stroke="black" points="547.07,-137.3 537.07,-140.8 547.07,-144.3 547.07,-137.3"/>
</g>
<!-- ImportUserRepo -->
<g id="node4" class="node">
<title>ImportUserRepo</title>
<ellipse fill="#fdb462" stroke="black" cx="811" cy="-66.8" rx="75.86" ry="18"/>
<text text-anchor="middle" x="811" y="-62.6" font-family="Times,serif" font-size="14.00">ImportUserRepo</text>
</g>
<!-- ImportUserRepo&#45;&gt;ImportUserModule -->
<g id="edge3" class="edge">
<title>ImportUserRepo&#45;&gt;ImportUserModule</title>
<path fill="none" stroke="black" d="M811,-84.91C811,-104.14 811,-131.8 811,-131.8 811,-131.8 547.41,-131.8 547.41,-131.8"/>
<polygon fill="black" stroke="black" points="547.41,-128.3 537.41,-131.8 547.41,-135.3 547.41,-128.3"/>
</g>
<!-- PermissionService -->
<g id="node5" class="node">
<title>PermissionService</title>
<ellipse fill="#fdb462" stroke="black" cx="634" cy="-66.8" rx="82.82" ry="18"/>
<text text-anchor="middle" x="634" y="-62.6" font-family="Times,serif" font-size="14.00">PermissionService</text>
</g>
<!-- PermissionService&#45;&gt;ImportUserModule -->
<g id="edge4" class="edge">
<title>PermissionService&#45;&gt;ImportUserModule</title>
<path fill="none" stroke="black" d="M634,-84.83C634,-101.2 634,-122.8 634,-122.8 634,-122.8 547.38,-122.8 547.38,-122.8"/>
<polygon fill="black" stroke="black" points="547.38,-119.3 537.38,-122.8 547.38,-126.3 547.38,-119.3"/>
</g>
<!-- SchoolRepo -->
<g id="node6" class="node">
<title>SchoolRepo</title>
<ellipse fill="#fdb462" stroke="black" cx="475" cy="-66.8" rx="58.49" ry="18"/>
<text text-anchor="middle" x="475" y="-62.6" font-family="Times,serif" font-size="14.00">SchoolRepo</text>
</g>
<!-- SchoolRepo&#45;&gt;ImportUserModule -->
<g id="edge5" class="edge">
<title>SchoolRepo&#45;&gt;ImportUserModule</title>
<path fill="none" stroke="black" d="M475,-84.91C475,-84.91 475,-103.79 475,-103.79"/>
<polygon fill="black" stroke="black" points="471.5,-103.79 475,-113.79 478.5,-103.79 471.5,-103.79"/>
</g>
<!-- UserImportUc -->
<g id="node7" class="node">
<title>UserImportUc</title>
<ellipse fill="#fdb462" stroke="black" cx="332" cy="-66.8" rx="66.61" ry="18"/>
<text text-anchor="middle" x="332" y="-62.6" font-family="Times,serif" font-size="14.00">UserImportUc</text>
</g>
<!-- UserImportUc&#45;&gt;ImportUserModule -->
<g id="edge6" class="edge">
<title>UserImportUc&#45;&gt;ImportUserModule</title>
<path fill="none" stroke="black" d="M332,-84.83C332,-101.2 332,-122.8 332,-122.8 332,-122.8 402.69,-122.8 402.69,-122.8"/>
<polygon fill="black" stroke="black" points="402.69,-126.3 412.69,-122.8 402.69,-119.3 402.69,-126.3"/>
</g>
<!-- UserRepo -->
<g id="node8" class="node">
<title>UserRepo</title>
<ellipse fill="#fdb462" stroke="black" cx="198" cy="-66.8" rx="49.8" ry="18"/>
<text text-anchor="middle" x="198" y="-62.6" font-family="Times,serif" font-size="14.00">UserRepo</text>
</g>
<!-- UserRepo&#45;&gt;ImportUserModule -->
<g id="edge7" class="edge">
<title>UserRepo&#45;&gt;ImportUserModule</title>
<path fill="none" stroke="black" d="M198,-84.91C198,-104.14 198,-131.8 198,-131.8 198,-131.8 402.84,-131.8 402.84,-131.8"/>
<polygon fill="black" stroke="black" points="402.84,-135.3 412.84,-131.8 402.84,-128.3 402.84,-135.3"/>
</g>
</g>
</svg>
