<?xml version="1.0" encoding="UTF-8" standalone="no"?>
<!DOCTYPE svg PUBLIC "-//W3C//DTD SVG 1.1//EN"
 "http://www.w3.org/Graphics/SVG/1.1/DTD/svg11.dtd">
<!-- Generated by graphviz version 5.0.0 (20220707.1540)
 -->
<!-- Title: dependencies Pages: 1 -->
<svg width="1327pt" height="174pt"
 viewBox="0.00 0.00 1327.00 173.80" xmlns="http://www.w3.org/2000/svg" xmlns:xlink="http://www.w3.org/1999/xlink">
<g id="graph0" class="graph" transform="scale(1 1) rotate(0) translate(4 169.8)">
<title>dependencies</title>
<polygon fill="white" stroke="transparent" points="-4,4 -4,-169.8 1323,-169.8 1323,4 -4,4"/>
<text text-anchor="middle" x="659.5" y="-8.2" font-family="sans-serif" font-size="14.00">dependencies</text>
<g id="clust1" class="cluster">
<title>cluster_ImportUserModule</title>
<polygon fill="none" stroke="black" stroke-dasharray="1,5" points="8,-32.8 8,-157.8 1311,-157.8 1311,-32.8 8,-32.8"/>
</g>
<g id="clust6" class="cluster">
<title>cluster_ImportUserModule_providers</title>
<polygon fill="none" stroke="black" points="264,-40.8 264,-92.8 1303,-92.8 1303,-40.8 264,-40.8"/>
</g>
<g id="clust3" class="cluster">
<title>cluster_ImportUserModule_imports</title>
<polygon fill="none" stroke="black" points="16,-40.8 16,-92.8 256,-92.8 256,-40.8 16,-40.8"/>
</g>
<!-- AccountModule -->
<g id="node1" class="node">
<title>AccountModule</title>
<polygon fill="#8dd3c7" stroke="black" points="248.48,-84.8 245.48,-88.8 224.48,-88.8 221.48,-84.8 141.52,-84.8 141.52,-48.8 248.48,-48.8 248.48,-84.8"/>
<text text-anchor="middle" x="195" y="-62.6" font-family="Times,serif" font-size="14.00">AccountModule</text>
</g>
<!-- ImportUserModule -->
<g id="node3" class="node">
<title>ImportUserModule</title>
<polygon fill="#8dd3c7" stroke="black" points="663.09,-149.8 660.09,-153.8 639.09,-153.8 636.09,-149.8 538.91,-149.8 538.91,-113.8 663.09,-113.8 663.09,-149.8"/>
<text text-anchor="middle" x="601" y="-127.6" font-family="Times,serif" font-size="14.00">ImportUserModule</text>
</g>
<!-- AccountModule&#45;&gt;ImportUserModule -->
<g id="edge1" class="edge">
<title>AccountModule&#45;&gt;ImportUserModule</title>
<path fill="none" stroke="black" d="M195,-84.93C195,-105.37 195,-135.8 195,-135.8 195,-135.8 528.9,-135.8 528.9,-135.8"/>
<polygon fill="black" stroke="black" points="528.9,-139.3 538.9,-135.8 528.9,-132.3 528.9,-139.3"/>
</g>
<!-- LoggerModule -->
<g id="node2" class="node">
<title>LoggerModule</title>
<polygon fill="#8dd3c7" stroke="black" points="123.98,-84.8 120.98,-88.8 99.98,-88.8 96.98,-84.8 24.02,-84.8 24.02,-48.8 123.98,-48.8 123.98,-84.8"/>
<text text-anchor="middle" x="74" y="-62.6" font-family="Times,serif" font-size="14.00">LoggerModule</text>
</g>
<!-- LoggerModule&#45;&gt;ImportUserModule -->
<g id="edge2" class="edge">
<title>LoggerModule&#45;&gt;ImportUserModule</title>
<path fill="none" stroke="black" d="M74,-84.81C74,-107.29 74,-142.8 74,-142.8 74,-142.8 528.74,-142.8 528.74,-142.8"/>
<polygon fill="black" stroke="black" points="528.74,-146.3 538.74,-142.8 528.74,-139.3 528.74,-146.3"/>
</g>
<!-- AccountRepo -->
<g id="node4" class="node">
<title>AccountRepo</title>
<ellipse fill="#fdb462" stroke="black" cx="1231" cy="-66.8" rx="64.27" ry="18"/>
<text text-anchor="middle" x="1231" y="-62.6" font-family="Times,serif" font-size="14.00">AccountRepo</text>
</g>
<!-- AccountRepo&#45;&gt;ImportUserModule -->
<g id="edge3" class="edge">
<title>AccountRepo&#45;&gt;ImportUserModule</title>
<path fill="none" stroke="black" d="M1231,-84.81C1231,-107.29 1231,-142.8 1231,-142.8 1231,-142.8 673.13,-142.8 673.13,-142.8"/>
<polygon fill="black" stroke="black" points="673.13,-139.3 663.13,-142.8 673.13,-146.3 673.13,-139.3"/>
</g>
<!-- ImportUserRepo -->
<g id="node5" class="node">
<title>ImportUserRepo</title>
<ellipse fill="#fdb462" stroke="black" cx="1073" cy="-66.8" rx="75.88" ry="18"/>
<text text-anchor="middle" x="1073" y="-62.6" font-family="Times,serif" font-size="14.00">ImportUserRepo</text>
</g>
<!-- ImportUserRepo&#45;&gt;ImportUserModule -->
<g id="edge4" class="edge">
<title>ImportUserRepo&#45;&gt;ImportUserModule</title>
<path fill="none" stroke="black" d="M1073,-84.93C1073,-105.37 1073,-135.8 1073,-135.8 1073,-135.8 673.19,-135.8 673.19,-135.8"/>
<polygon fill="black" stroke="black" points="673.19,-132.3 663.19,-135.8 673.19,-139.3 673.19,-132.3"/>
</g>
<!-- PermissionService -->
<g id="node6" class="node">
<title>PermissionService</title>
<ellipse fill="#fdb462" stroke="black" cx="896" cy="-66.8" rx="82.83" ry="18"/>
<text text-anchor="middle" x="896" y="-62.6" font-family="Times,serif" font-size="14.00">PermissionService</text>
</g>
<!-- PermissionService&#45;&gt;ImportUserModule -->
<g id="edge5" class="edge">
<title>PermissionService&#45;&gt;ImportUserModule</title>
<path fill="none" stroke="black" d="M896,-85.07C896,-103.36 896,-128.8 896,-128.8 896,-128.8 673.2,-128.8 673.2,-128.8"/>
<polygon fill="black" stroke="black" points="673.2,-125.3 663.2,-128.8 673.2,-132.3 673.2,-125.3"/>
</g>
<!-- SchoolRepo -->
<g id="node7" class="node">
<title>SchoolRepo</title>
<ellipse fill="#fdb462" stroke="black" cx="737" cy="-66.8" rx="58.49" ry="18"/>
<text text-anchor="middle" x="737" y="-62.6" font-family="Times,serif" font-size="14.00">SchoolRepo</text>
</g>
<!-- SchoolRepo&#45;&gt;ImportUserModule -->
<g id="edge6" class="edge">
<title>SchoolRepo&#45;&gt;ImportUserModule</title>
<path fill="none" stroke="black" d="M737,-84.81C737,-100.85 737,-121.8 737,-121.8 737,-121.8 673.43,-121.8 673.43,-121.8"/>
<polygon fill="black" stroke="black" points="673.43,-118.3 663.43,-121.8 673.43,-125.3 673.43,-118.3"/>
</g>
<!-- SystemRepo -->
<g id="node8" class="node">
<title>SystemRepo</title>
<ellipse fill="#fdb462" stroke="black" cx="601" cy="-66.8" rx="59.72" ry="18"/>
<text text-anchor="middle" x="601" y="-62.6" font-family="Times,serif" font-size="14.00">SystemRepo</text>
</g>
<!-- SystemRepo&#45;&gt;ImportUserModule -->
<g id="edge7" class="edge">
<title>SystemRepo&#45;&gt;ImportUserModule</title>
<path fill="none" stroke="black" d="M601,-84.91C601,-84.91 601,-103.79 601,-103.79"/>
<polygon fill="black" stroke="black" points="597.5,-103.79 601,-113.79 604.5,-103.79 597.5,-103.79"/>
</g>
<!-- UserImportUc -->
<g id="node9" class="node">
<title>UserImportUc</title>
<ellipse fill="#fdb462" stroke="black" cx="456" cy="-66.8" rx="66.63" ry="18"/>
<text text-anchor="middle" x="456" y="-62.6" font-family="Times,serif" font-size="14.00">UserImportUc</text>
</g>
<!-- UserImportUc&#45;&gt;ImportUserModule -->
<g id="edge8" class="edge">
<title>UserImportUc&#45;&gt;ImportUserModule</title>
<path fill="none" stroke="black" d="M456,-84.81C456,-100.85 456,-121.8 456,-121.8 456,-121.8 528.67,-121.8 528.67,-121.8"/>
<polygon fill="black" stroke="black" points="528.67,-125.3 538.67,-121.8 528.67,-118.3 528.67,-125.3"/>
</g>
<!-- UserRepo -->
<g id="node10" class="node">
<title>UserRepo</title>
<ellipse fill="#fdb462" stroke="black" cx="322" cy="-66.8" rx="49.81" ry="18"/>
<text text-anchor="middle" x="322" y="-62.6" font-family="Times,serif" font-size="14.00">UserRepo</text>
</g>
<!-- UserRepo&#45;&gt;ImportUserModule -->
<g id="edge9" class="edge">
<title>UserRepo&#45;&gt;ImportUserModule</title>
<path fill="none" stroke="black" d="M322,-85.07C322,-103.36 322,-128.8 322,-128.8 322,-128.8 528.73,-128.8 528.73,-128.8"/>
<polygon fill="black" stroke="black" points="528.73,-132.3 538.73,-128.8 528.73,-125.3 528.73,-132.3"/>
</g>
</g>
</svg>
