<?xml version="1.0" encoding="UTF-8" standalone="no"?>
<!DOCTYPE svg PUBLIC "-//W3C//DTD SVG 1.1//EN"
 "http://www.w3.org/Graphics/SVG/1.1/DTD/svg11.dtd">
<!-- Generated by graphviz version 5.0.0 (20220707.1540)
 -->
<!-- Title: dependencies Pages: 1 -->
<svg width="1181pt" height="174pt"
 viewBox="0.00 0.00 1181.00 173.80" xmlns="http://www.w3.org/2000/svg" xmlns:xlink="http://www.w3.org/1999/xlink">
<g id="graph0" class="graph" transform="scale(1 1) rotate(0) translate(4 169.8)">
<title>dependencies</title>
<polygon fill="white" stroke="transparent" points="-4,4 -4,-169.8 1177,-169.8 1177,4 -4,4"/>
<text text-anchor="middle" x="586.5" y="-8.2" font-family="sans-serif" font-size="14.00">dependencies</text>
<g id="clust1" class="cluster">
<title>cluster_ImportUserModule</title>
<polygon fill="none" stroke="black" stroke-dasharray="1,5" points="8,-32.8 8,-157.8 1165,-157.8 1165,-32.8 8,-32.8"/>
</g>
<g id="clust3" class="cluster">
<title>cluster_ImportUserModule_imports</title>
<polygon fill="none" stroke="black" points="917,-40.8 917,-92.8 1157,-92.8 1157,-40.8 917,-40.8"/>
</g>
<g id="clust6" class="cluster">
<title>cluster_ImportUserModule_providers</title>
<polygon fill="none" stroke="black" points="16,-40.8 16,-92.8 909,-92.8 909,-40.8 16,-40.8"/>
</g>
<!-- AccountModule -->
<g id="node1" class="node">
<title>AccountModule</title>
<polygon fill="#8dd3c7" stroke="black" points="1149.48,-84.8 1146.48,-88.8 1125.48,-88.8 1122.48,-84.8 1042.52,-84.8 1042.52,-48.8 1149.48,-48.8 1149.48,-84.8"/>
<text text-anchor="middle" x="1096" y="-62.6" font-family="Times,serif" font-size="14.00">AccountModule</text>
</g>
<!-- ImportUserModule -->
<g id="node3" class="node">
<title>ImportUserModule</title>
<polygon fill="#8dd3c7" stroke="black" points="630.09,-149.8 627.09,-153.8 606.09,-153.8 603.09,-149.8 505.91,-149.8 505.91,-113.8 630.09,-113.8 630.09,-149.8"/>
<text text-anchor="middle" x="568" y="-127.6" font-family="Times,serif" font-size="14.00">ImportUserModule</text>
</g>
<!-- AccountModule&#45;&gt;ImportUserModule -->
<g id="edge1" class="edge">
<title>AccountModule&#45;&gt;ImportUserModule</title>
<path fill="none" stroke="black" d="M1096,-85.09C1096,-107.01 1096,-140.8 1096,-140.8 1096,-140.8 640.12,-140.8 640.12,-140.8"/>
<polygon fill="black" stroke="black" points="640.12,-137.3 630.12,-140.8 640.12,-144.3 640.12,-137.3"/>
</g>
<!-- LoggerModule -->
<g id="node2" class="node">
<title>LoggerModule</title>
<polygon fill="#8dd3c7" stroke="black" points="1024.98,-84.8 1021.98,-88.8 1000.98,-88.8 997.98,-84.8 925.02,-84.8 925.02,-48.8 1024.98,-48.8 1024.98,-84.8"/>
<text text-anchor="middle" x="975" y="-62.6" font-family="Times,serif" font-size="14.00">LoggerModule</text>
</g>
<!-- LoggerModule&#45;&gt;ImportUserModule -->
<g id="edge2" class="edge">
<title>LoggerModule&#45;&gt;ImportUserModule</title>
<path fill="none" stroke="black" d="M975,-84.91C975,-104.14 975,-131.8 975,-131.8 975,-131.8 640.26,-131.8 640.26,-131.8"/>
<polygon fill="black" stroke="black" points="640.26,-128.3 630.26,-131.8 640.26,-135.3 640.26,-128.3"/>
</g>
<!-- ImportUserRepo -->
<g id="node4" class="node">
<title>ImportUserRepo</title>
<ellipse fill="#fdb462" stroke="black" cx="825" cy="-66.8" rx="75.88" ry="18"/>
<text text-anchor="middle" x="825" y="-62.6" font-family="Times,serif" font-size="14.00">ImportUserRepo</text>
</g>
<!-- ImportUserRepo&#45;&gt;ImportUserModule -->
<g id="edge3" class="edge">
<title>ImportUserRepo&#45;&gt;ImportUserModule</title>
<path fill="none" stroke="black" d="M825,-84.83C825,-101.2 825,-122.8 825,-122.8 825,-122.8 640.21,-122.8 640.21,-122.8"/>
<polygon fill="black" stroke="black" points="640.21,-119.3 630.21,-122.8 640.21,-126.3 640.21,-119.3"/>
</g>
<!-- PermissionService -->
<g id="node5" class="node">
<title>PermissionService</title>
<ellipse fill="#fdb462" stroke="black" cx="648" cy="-66.8" rx="82.83" ry="18"/>
<text text-anchor="middle" x="648" y="-62.6" font-family="Times,serif" font-size="14.00">PermissionService</text>
</g>
<!-- PermissionService&#45;&gt;ImportUserModule -->
<g id="edge4" class="edge">
<title>PermissionService&#45;&gt;ImportUserModule</title>
<path fill="none" stroke="black" d="M597.56,-81.23C597.56,-81.23 597.56,-103.69 597.56,-103.69"/>
<polygon fill="black" stroke="black" points="594.06,-103.69 597.56,-113.69 601.06,-103.69 594.06,-103.69"/>
</g>
<!-- SchoolRepo -->
<g id="node6" class="node">
<title>SchoolRepo</title>
<ellipse fill="#fdb462" stroke="black" cx="489" cy="-66.8" rx="58.49" ry="18"/>
<text text-anchor="middle" x="489" y="-62.6" font-family="Times,serif" font-size="14.00">SchoolRepo</text>
</g>
<!-- SchoolRepo&#45;&gt;ImportUserModule -->
<g id="edge5" class="edge">
<title>SchoolRepo&#45;&gt;ImportUserModule</title>
<path fill="none" stroke="black" d="M526.6,-80.58C526.6,-80.58 526.6,-103.35 526.6,-103.35"/>
<polygon fill="black" stroke="black" points="523.1,-103.35 526.6,-113.35 530.1,-103.35 523.1,-103.35"/>
</g>
<!-- SystemRepo -->
<g id="node7" class="node">
<title>SystemRepo</title>
<ellipse fill="#fdb462" stroke="black" cx="353" cy="-66.8" rx="59.72" ry="18"/>
<text text-anchor="middle" x="353" y="-62.6" font-family="Times,serif" font-size="14.00">SystemRepo</text>
</g>
<!-- SystemRepo&#45;&gt;ImportUserModule -->
<g id="edge6" class="edge">
<title>SystemRepo&#45;&gt;ImportUserModule</title>
<path fill="none" stroke="black" d="M353,-84.83C353,-101.2 353,-122.8 353,-122.8 353,-122.8 495.81,-122.8 495.81,-122.8"/>
<polygon fill="black" stroke="black" points="495.81,-126.3 505.81,-122.8 495.81,-119.3 495.81,-126.3"/>
</g>
<!-- UserImportUc -->
<g id="node8" class="node">
<title>UserImportUc</title>
<ellipse fill="#fdb462" stroke="black" cx="208" cy="-66.8" rx="66.63" ry="18"/>
<text text-anchor="middle" x="208" y="-62.6" font-family="Times,serif" font-size="14.00">UserImportUc</text>
</g>
<!-- UserImportUc&#45;&gt;ImportUserModule -->
<g id="edge7" class="edge">
<title>UserImportUc&#45;&gt;ImportUserModule</title>
<path fill="none" stroke="black" d="M208,-84.91C208,-104.14 208,-131.8 208,-131.8 208,-131.8 495.7,-131.8 495.7,-131.8"/>
<polygon fill="black" stroke="black" points="495.7,-135.3 505.7,-131.8 495.7,-128.3 495.7,-135.3"/>
</g>
<!-- UserRepo -->
<g id="node9" class="node">
<title>UserRepo</title>
<ellipse fill="#fdb462" stroke="black" cx="74" cy="-66.8" rx="49.81" ry="18"/>
<text text-anchor="middle" x="74" y="-62.6" font-family="Times,serif" font-size="14.00">UserRepo</text>
</g>
<!-- UserRepo&#45;&gt;ImportUserModule -->
<g id="edge8" class="edge">
<title>UserRepo&#45;&gt;ImportUserModule</title>
<path fill="none" stroke="black" d="M74,-85.09C74,-107.01 74,-140.8 74,-140.8 74,-140.8 495.93,-140.8 495.93,-140.8"/>
<polygon fill="black" stroke="black" points="495.93,-144.3 505.93,-140.8 495.93,-137.3 495.93,-144.3"/>
</g>
</g>
</svg>
