<?xml version="1.0" encoding="UTF-8" standalone="no"?>
<!DOCTYPE svg PUBLIC "-//W3C//DTD SVG 1.1//EN"
 "http://www.w3.org/Graphics/SVG/1.1/DTD/svg11.dtd">
<!-- Generated by graphviz version 2.47.3 (20210619.1520)
 -->
<!-- Title: dependencies Pages: 1 -->
<svg width="1065pt" height="174pt"
 viewBox="0.00 0.00 1065.00 173.80" xmlns="http://www.w3.org/2000/svg" xmlns:xlink="http://www.w3.org/1999/xlink">
<g id="graph0" class="graph" transform="scale(1 1) rotate(0) translate(4 169.8)">
<title>dependencies</title>
<polygon fill="white" stroke="transparent" points="-4,4 -4,-169.8 1061,-169.8 1061,4 -4,4"/>
<text text-anchor="middle" x="528.5" y="-8.2" font-family="sans-serif" font-size="14.00">dependencies</text>
<g id="clust1" class="cluster">
<title>cluster_ImportUserModule</title>
<polygon fill="none" stroke="black" stroke-dasharray="1,5" points="8,-32.8 8,-157.8 1049,-157.8 1049,-32.8 8,-32.8"/>
</g>
<g id="clust3" class="cluster">
<title>cluster_ImportUserModule_imports</title>
<polygon fill="none" stroke="black" points="925,-40.8 925,-92.8 1041,-92.8 1041,-40.8 925,-40.8"/>
</g>
<g id="clust6" class="cluster">
<title>cluster_ImportUserModule_providers</title>
<polygon fill="none" stroke="black" points="16,-40.8 16,-92.8 917,-92.8 917,-40.8 16,-40.8"/>
</g>
<!-- LoggerModule -->
<g id="node1" class="node">
<title>LoggerModule</title>
<polygon fill="#8dd3c7" stroke="black" points="1032.98,-84.8 1029.98,-88.8 1008.98,-88.8 1005.98,-84.8 933.02,-84.8 933.02,-48.8 1032.98,-48.8 1032.98,-84.8"/>
<text text-anchor="middle" x="983" y="-62.6" font-family="Times,serif" font-size="14.00">LoggerModule</text>
</g>
<!-- ImportUserModule -->
<g id="node2" class="node">
<title>ImportUserModule</title>
<polygon fill="#8dd3c7" stroke="black" points="572.08,-149.8 569.08,-153.8 548.08,-153.8 545.08,-149.8 447.92,-149.8 447.92,-113.8 572.08,-113.8 572.08,-149.8"/>
<text text-anchor="middle" x="510" y="-127.6" font-family="Times,serif" font-size="14.00">ImportUserModule</text>
</g>
<!-- LoggerModule&#45;&gt;ImportUserModule -->
<g id="edge1" class="edge">
<title>LoggerModule&#45;&gt;ImportUserModule</title>
<path fill="none" stroke="black" d="M983,-85.09C983,-107.01 983,-140.8 983,-140.8 983,-140.8 582.32,-140.8 582.32,-140.8"/>
<polygon fill="black" stroke="black" points="582.32,-137.3 572.32,-140.8 582.32,-144.3 582.32,-137.3"/>
</g>
<!-- AccountRepo -->
<g id="node3" class="node">
<title>AccountRepo</title>
<ellipse fill="#fdb462" stroke="black" cx="845" cy="-66.8" rx="64.27" ry="18"/>
<text text-anchor="middle" x="845" y="-62.6" font-family="Times,serif" font-size="14.00">AccountRepo</text>
</g>
<!-- AccountRepo&#45;&gt;ImportUserModule -->
<g id="edge2" class="edge">
<title>AccountRepo&#45;&gt;ImportUserModule</title>
<path fill="none" stroke="black" d="M845,-84.91C845,-104.14 845,-131.8 845,-131.8 845,-131.8 582.23,-131.8 582.23,-131.8"/>
<polygon fill="black" stroke="black" points="582.23,-128.3 572.23,-131.8 582.23,-135.3 582.23,-128.3"/>
</g>
<!-- ImportUserRepo -->
<g id="node4" class="node">
<title>ImportUserRepo</title>
<ellipse fill="#fdb462" stroke="black" cx="687" cy="-66.8" rx="75.86" ry="18"/>
<text text-anchor="middle" x="687" y="-62.6" font-family="Times,serif" font-size="14.00">ImportUserRepo</text>
</g>
<!-- ImportUserRepo&#45;&gt;ImportUserModule -->
<g id="edge3" class="edge">
<title>ImportUserRepo&#45;&gt;ImportUserModule</title>
<path fill="none" stroke="black" d="M687,-84.83C687,-101.2 687,-122.8 687,-122.8 687,-122.8 582.4,-122.8 582.4,-122.8"/>
<polygon fill="black" stroke="black" points="582.4,-119.3 572.4,-122.8 582.4,-126.3 582.4,-119.3"/>
</g>
<!-- PermissionService -->
<g id="node5" class="node">
<title>PermissionService</title>
<ellipse fill="#fdb462" stroke="black" cx="510" cy="-66.8" rx="82.82" ry="18"/>
<text text-anchor="middle" x="510" y="-62.6" font-family="Times,serif" font-size="14.00">PermissionService</text>
</g>
<!-- PermissionService&#45;&gt;ImportUserModule -->
<g id="edge4" class="edge">
<title>PermissionService&#45;&gt;ImportUserModule</title>
<path fill="none" stroke="black" d="M510,-84.91C510,-84.91 510,-103.79 510,-103.79"/>
<polygon fill="black" stroke="black" points="506.5,-103.79 510,-113.79 513.5,-103.79 506.5,-103.79"/>
</g>
<!-- SchoolRepo -->
<g id="node6" class="node">
<title>SchoolRepo</title>
<ellipse fill="#fdb462" stroke="black" cx="351" cy="-66.8" rx="58.49" ry="18"/>
<text text-anchor="middle" x="351" y="-62.6" font-family="Times,serif" font-size="14.00">SchoolRepo</text>
</g>
<!-- SchoolRepo&#45;&gt;ImportUserModule -->
<g id="edge5" class="edge">
<title>SchoolRepo&#45;&gt;ImportUserModule</title>
<path fill="none" stroke="black" d="M351,-84.83C351,-101.2 351,-122.8 351,-122.8 351,-122.8 437.62,-122.8 437.62,-122.8"/>
<polygon fill="black" stroke="black" points="437.62,-126.3 447.62,-122.8 437.62,-119.3 437.62,-126.3"/>
</g>
<!-- UserImportUc -->
<g id="node7" class="node">
<title>UserImportUc</title>
<ellipse fill="#fdb462" stroke="black" cx="208" cy="-66.8" rx="66.61" ry="18"/>
<text text-anchor="middle" x="208" y="-62.6" font-family="Times,serif" font-size="14.00">UserImportUc</text>
</g>
<!-- UserImportUc&#45;&gt;ImportUserModule -->
<g id="edge6" class="edge">
<title>UserImportUc&#45;&gt;ImportUserModule</title>
<path fill="none" stroke="black" d="M208,-84.91C208,-104.14 208,-131.8 208,-131.8 208,-131.8 437.79,-131.8 437.79,-131.8"/>
<polygon fill="black" stroke="black" points="437.79,-135.3 447.79,-131.8 437.79,-128.3 437.79,-135.3"/>
</g>
<!-- UserRepo -->
<g id="node8" class="node">
<title>UserRepo</title>
<ellipse fill="#fdb462" stroke="black" cx="74" cy="-66.8" rx="49.8" ry="18"/>
<text text-anchor="middle" x="74" y="-62.6" font-family="Times,serif" font-size="14.00">UserRepo</text>
</g>
<!-- UserRepo&#45;&gt;ImportUserModule -->
<g id="edge7" class="edge">
<title>UserRepo&#45;&gt;ImportUserModule</title>
<path fill="none" stroke="black" d="M74,-85.09C74,-107.01 74,-140.8 74,-140.8 74,-140.8 437.53,-140.8 437.53,-140.8"/>
<polygon fill="black" stroke="black" points="437.53,-144.3 447.53,-140.8 437.53,-137.3 437.53,-144.3"/>
</g>
</g>
</svg>
