<?xml version="1.0" encoding="UTF-8" standalone="no"?>
<!DOCTYPE svg PUBLIC "-//W3C//DTD SVG 1.1//EN"
 "http://www.w3.org/Graphics/SVG/1.1/DTD/svg11.dtd">
<!-- Generated by graphviz version 2.47.3 (20210619.1520)
 -->
<!-- Title: dependencies Pages: 1 -->
<svg width="1203pt" height="174pt"
 viewBox="0.00 0.00 1203.00 173.80" xmlns="http://www.w3.org/2000/svg" xmlns:xlink="http://www.w3.org/1999/xlink">
<g id="graph0" class="graph" transform="scale(1 1) rotate(0) translate(4 169.8)">
<title>dependencies</title>
<polygon fill="white" stroke="transparent" points="-4,4 -4,-169.8 1199,-169.8 1199,4 -4,4"/>
<text text-anchor="middle" x="597.5" y="-8.2" font-family="sans-serif" font-size="14.00">dependencies</text>
<g id="clust1" class="cluster">
<title>cluster_ImportUserModule</title>
<polygon fill="none" stroke="black" stroke-dasharray="1,5" points="8,-32.8 8,-157.8 1187,-157.8 1187,-32.8 8,-32.8"/>
</g>
<g id="clust3" class="cluster">
<title>cluster_ImportUserModule_imports</title>
<polygon fill="none" stroke="black" points="1063,-40.8 1063,-92.8 1179,-92.8 1179,-40.8 1063,-40.8"/>
</g>
<g id="clust6" class="cluster">
<title>cluster_ImportUserModule_providers</title>
<polygon fill="none" stroke="black" points="16,-40.8 16,-92.8 1055,-92.8 1055,-40.8 16,-40.8"/>
</g>
<!-- LoggerModule -->
<g id="node1" class="node">
<title>LoggerModule</title>
<polygon fill="#8dd3c7" stroke="black" points="1170.98,-84.8 1167.98,-88.8 1146.98,-88.8 1143.98,-84.8 1071.02,-84.8 1071.02,-48.8 1170.98,-48.8 1170.98,-84.8"/>
<text text-anchor="middle" x="1121" y="-62.6" font-family="Times,serif" font-size="14.00">LoggerModule</text>
</g>
<!-- ImportUserModule -->
<g id="node2" class="node">
<title>ImportUserModule</title>
<polygon fill="#8dd3c7" stroke="black" points="630.08,-149.8 627.08,-153.8 606.08,-153.8 603.08,-149.8 505.92,-149.8 505.92,-113.8 630.08,-113.8 630.08,-149.8"/>
<text text-anchor="middle" x="568" y="-127.6" font-family="Times,serif" font-size="14.00">ImportUserModule</text>
</g>
<!-- LoggerModule&#45;&gt;ImportUserModule -->
<g id="edge1" class="edge">
<title>LoggerModule&#45;&gt;ImportUserModule</title>
<path fill="none" stroke="black" d="M1121,-85.09C1121,-107.01 1121,-140.8 1121,-140.8 1121,-140.8 640.09,-140.8 640.09,-140.8"/>
<polygon fill="black" stroke="black" points="640.09,-137.3 630.09,-140.8 640.09,-144.3 640.09,-137.3"/>
</g>
<!-- AccountRepo -->
<g id="node3" class="node">
<title>AccountRepo</title>
<ellipse fill="#fdb462" stroke="black" cx="983" cy="-66.8" rx="64.27" ry="18"/>
<text text-anchor="middle" x="983" y="-62.6" font-family="Times,serif" font-size="14.00">AccountRepo</text>
</g>
<!-- AccountRepo&#45;&gt;ImportUserModule -->
<g id="edge2" class="edge">
<title>AccountRepo&#45;&gt;ImportUserModule</title>
<path fill="none" stroke="black" d="M983,-84.91C983,-104.14 983,-131.8 983,-131.8 983,-131.8 640.13,-131.8 640.13,-131.8"/>
<polygon fill="black" stroke="black" points="640.13,-128.3 630.13,-131.8 640.13,-135.3 640.13,-128.3"/>
</g>
<!-- ImportUserRepo -->
<g id="node4" class="node">
<title>ImportUserRepo</title>
<ellipse fill="#fdb462" stroke="black" cx="825" cy="-66.8" rx="75.86" ry="18"/>
<text text-anchor="middle" x="825" y="-62.6" font-family="Times,serif" font-size="14.00">ImportUserRepo</text>
</g>
<!-- ImportUserRepo&#45;&gt;ImportUserModule -->
<g id="edge3" class="edge">
<title>ImportUserRepo&#45;&gt;ImportUserModule</title>
<path fill="none" stroke="black" d="M825,-84.83C825,-101.2 825,-122.8 825,-122.8 825,-122.8 640.21,-122.8 640.21,-122.8"/>
<polygon fill="black" stroke="black" points="640.21,-119.3 630.21,-122.8 640.21,-126.3 640.21,-119.3"/>
</g>
<!-- PermissionService -->
<g id="node5" class="node">
<title>PermissionService</title>
<ellipse fill="#fdb462" stroke="black" cx="648" cy="-66.8" rx="82.82" ry="18"/>
<text text-anchor="middle" x="648" y="-62.6" font-family="Times,serif" font-size="14.00">PermissionService</text>
</g>
<!-- PermissionService&#45;&gt;ImportUserModule -->
<g id="edge4" class="edge">
<title>PermissionService&#45;&gt;ImportUserModule</title>
<path fill="none" stroke="black" d="M597.57,-81.23C597.57,-81.23 597.57,-103.69 597.57,-103.69"/>
<polygon fill="black" stroke="black" points="594.07,-103.69 597.57,-113.69 601.07,-103.69 594.07,-103.69"/>
</g>
<!-- SchoolRepo -->
<g id="node6" class="node">
<title>SchoolRepo</title>
<ellipse fill="#fdb462" stroke="black" cx="489" cy="-66.8" rx="58.49" ry="18"/>
<text text-anchor="middle" x="489" y="-62.6" font-family="Times,serif" font-size="14.00">SchoolRepo</text>
</g>
<!-- SchoolRepo&#45;&gt;ImportUserModule -->
<g id="edge5" class="edge">
<title>SchoolRepo&#45;&gt;ImportUserModule</title>
<path fill="none" stroke="black" d="M526.6,-80.58C526.6,-80.58 526.6,-103.35 526.6,-103.35"/>
<polygon fill="black" stroke="black" points="523.1,-103.35 526.6,-113.35 530.1,-103.35 523.1,-103.35"/>
</g>
<!-- SystemRepo -->
<g id="node7" class="node">
<title>SystemRepo</title>
<ellipse fill="#fdb462" stroke="black" cx="353" cy="-66.8" rx="59.71" ry="18"/>
<text text-anchor="middle" x="353" y="-62.6" font-family="Times,serif" font-size="14.00">SystemRepo</text>
</g>
<!-- SystemRepo&#45;&gt;ImportUserModule -->
<g id="edge6" class="edge">
<title>SystemRepo&#45;&gt;ImportUserModule</title>
<path fill="none" stroke="black" d="M353,-84.83C353,-101.2 353,-122.8 353,-122.8 353,-122.8 495.81,-122.8 495.81,-122.8"/>
<polygon fill="black" stroke="black" points="495.81,-126.3 505.81,-122.8 495.81,-119.3 495.81,-126.3"/>
</g>
<!-- UserImportUc -->
<g id="node8" class="node">
<title>UserImportUc</title>
<ellipse fill="#fdb462" stroke="black" cx="208" cy="-66.8" rx="66.61" ry="18"/>
<text text-anchor="middle" x="208" y="-62.6" font-family="Times,serif" font-size="14.00">UserImportUc</text>
</g>
<!-- UserImportUc&#45;&gt;ImportUserModule -->
<g id="edge7" class="edge">
<title>UserImportUc&#45;&gt;ImportUserModule</title>
<path fill="none" stroke="black" d="M208,-84.91C208,-104.14 208,-131.8 208,-131.8 208,-131.8 495.7,-131.8 495.7,-131.8"/>
<polygon fill="black" stroke="black" points="495.7,-135.3 505.7,-131.8 495.7,-128.3 495.7,-135.3"/>
</g>
<!-- UserRepo -->
<g id="node9" class="node">
<title>UserRepo</title>
<ellipse fill="#fdb462" stroke="black" cx="74" cy="-66.8" rx="49.8" ry="18"/>
<text text-anchor="middle" x="74" y="-62.6" font-family="Times,serif" font-size="14.00">UserRepo</text>
</g>
<!-- UserRepo&#45;&gt;ImportUserModule -->
<g id="edge8" class="edge">
<title>UserRepo&#45;&gt;ImportUserModule</title>
<path fill="none" stroke="black" d="M74,-85.09C74,-107.01 74,-140.8 74,-140.8 74,-140.8 495.93,-140.8 495.93,-140.8"/>
<polygon fill="black" stroke="black" points="495.93,-144.3 505.93,-140.8 495.93,-137.3 495.93,-144.3"/>
</g>
</g>
</svg>
