<?xml version="1.0" encoding="UTF-8" standalone="no"?>
<!DOCTYPE svg PUBLIC "-//W3C//DTD SVG 1.1//EN"
 "http://www.w3.org/Graphics/SVG/1.1/DTD/svg11.dtd">
<!-- Generated by graphviz version 5.0.0 (20220707.1540)
 -->
<!-- Title: dependencies Pages: 1 -->
<svg width="1181pt" height="174pt"
 viewBox="0.00 0.00 1181.00 173.80" xmlns="http://www.w3.org/2000/svg" xmlns:xlink="http://www.w3.org/1999/xlink">
<g id="graph0" class="graph" transform="scale(1 1) rotate(0) translate(4 169.8)">
<title>dependencies</title>
<polygon fill="white" stroke="transparent" points="-4,4 -4,-169.8 1177,-169.8 1177,4 -4,4"/>
<text text-anchor="middle" x="586.5" y="-8.2" font-family="sans-serif" font-size="14.00">dependencies</text>
<g id="clust1" class="cluster">
<title>cluster_ImportUserModule</title>
<polygon fill="none" stroke="black" stroke-dasharray="1,5" points="8,-32.8 8,-157.8 1165,-157.8 1165,-32.8 8,-32.8"/>
</g>
<g id="clust6" class="cluster">
<title>cluster_ImportUserModule_providers</title>
<polygon fill="none" stroke="black" points="264,-40.8 264,-92.8 1157,-92.8 1157,-40.8 264,-40.8"/>
</g>
<g id="clust3" class="cluster">
<title>cluster_ImportUserModule_imports</title>
<polygon fill="none" stroke="black" points="16,-40.8 16,-92.8 256,-92.8 256,-40.8 16,-40.8"/>
</g>
<!-- AccountModule -->
<g id="node1" class="node">
<title>AccountModule</title>
<polygon fill="#8dd3c7" stroke="black" points="248.48,-84.8 245.48,-88.8 224.48,-88.8 221.48,-84.8 141.52,-84.8 141.52,-48.8 248.48,-48.8 248.48,-84.8"/>
<text text-anchor="middle" x="195" y="-62.6" font-family="Times,serif" font-size="14.00">AccountModule</text>
</g>
<!-- ImportUserModule -->
<g id="node3" class="node">
<title>ImportUserModule</title>
<polygon fill="#8dd3c7" stroke="black" points="590.09,-149.8 587.09,-153.8 566.09,-153.8 563.09,-149.8 465.91,-149.8 465.91,-113.8 590.09,-113.8 590.09,-149.8"/>
<text text-anchor="middle" x="528" y="-127.6" font-family="Times,serif" font-size="14.00">ImportUserModule</text>
</g>
<!-- AccountModule&#45;&gt;ImportUserModule -->
<g id="edge1" class="edge">
<title>AccountModule&#45;&gt;ImportUserModule</title>
<path fill="none" stroke="black" d="M195,-84.91C195,-104.14 195,-131.8 195,-131.8 195,-131.8 455.76,-131.8 455.76,-131.8"/>
<polygon fill="black" stroke="black" points="455.76,-135.3 465.76,-131.8 455.76,-128.3 455.76,-135.3"/>
</g>
<!-- LoggerModule -->
<g id="node2" class="node">
<title>LoggerModule</title>
<polygon fill="#8dd3c7" stroke="black" points="123.98,-84.8 120.98,-88.8 99.98,-88.8 96.98,-84.8 24.02,-84.8 24.02,-48.8 123.98,-48.8 123.98,-84.8"/>
<text text-anchor="middle" x="74" y="-62.6" font-family="Times,serif" font-size="14.00">LoggerModule</text>
</g>
<!-- LoggerModule&#45;&gt;ImportUserModule -->
<g id="edge2" class="edge">
<title>LoggerModule&#45;&gt;ImportUserModule</title>
<path fill="none" stroke="black" d="M74,-85.09C74,-107.01 74,-140.8 74,-140.8 74,-140.8 455.83,-140.8 455.83,-140.8"/>
<polygon fill="black" stroke="black" points="455.83,-144.3 465.83,-140.8 455.83,-137.3 455.83,-144.3"/>
</g>
<!-- ImportUserRepo -->
<g id="node4" class="node">
<title>ImportUserRepo</title>
<ellipse fill="#fdb462" stroke="black" cx="1073" cy="-66.8" rx="75.88" ry="18"/>
<text text-anchor="middle" x="1073" y="-62.6" font-family="Times,serif" font-size="14.00">ImportUserRepo</text>
</g>
<!-- ImportUserRepo&#45;&gt;ImportUserModule -->
<g id="edge3" class="edge">
<title>ImportUserRepo&#45;&gt;ImportUserModule</title>
<path fill="none" stroke="black" d="M1073,-85.09C1073,-107.01 1073,-140.8 1073,-140.8 1073,-140.8 600.25,-140.8 600.25,-140.8"/>
<polygon fill="black" stroke="black" points="600.25,-137.3 590.25,-140.8 600.25,-144.3 600.25,-137.3"/>
</g>
<!-- PermissionService -->
<g id="node5" class="node">
<title>PermissionService</title>
<ellipse fill="#fdb462" stroke="black" cx="896" cy="-66.8" rx="82.83" ry="18"/>
<text text-anchor="middle" x="896" y="-62.6" font-family="Times,serif" font-size="14.00">PermissionService</text>
</g>
<!-- PermissionService&#45;&gt;ImportUserModule -->
<g id="edge4" class="edge">
<title>PermissionService&#45;&gt;ImportUserModule</title>
<path fill="none" stroke="black" d="M896,-84.91C896,-104.14 896,-131.8 896,-131.8 896,-131.8 600.43,-131.8 600.43,-131.8"/>
<polygon fill="black" stroke="black" points="600.43,-128.3 590.43,-131.8 600.43,-135.3 600.43,-128.3"/>
</g>
<!-- SchoolRepo -->
<g id="node6" class="node">
<title>SchoolRepo</title>
<ellipse fill="#fdb462" stroke="black" cx="737" cy="-66.8" rx="58.49" ry="18"/>
<text text-anchor="middle" x="737" y="-62.6" font-family="Times,serif" font-size="14.00">SchoolRepo</text>
</g>
<!-- SchoolRepo&#45;&gt;ImportUserModule -->
<g id="edge5" class="edge">
<title>SchoolRepo&#45;&gt;ImportUserModule</title>
<path fill="none" stroke="black" d="M737,-84.83C737,-101.2 737,-122.8 737,-122.8 737,-122.8 600.14,-122.8 600.14,-122.8"/>
<polygon fill="black" stroke="black" points="600.14,-119.3 590.14,-122.8 600.14,-126.3 600.14,-119.3"/>
</g>
<!-- SystemRepo -->
<g id="node7" class="node">
<title>SystemRepo</title>
<ellipse fill="#fdb462" stroke="black" cx="601" cy="-66.8" rx="59.72" ry="18"/>
<text text-anchor="middle" x="601" y="-62.6" font-family="Times,serif" font-size="14.00">SystemRepo</text>
</g>
<!-- SystemRepo&#45;&gt;ImportUserModule -->
<g id="edge6" class="edge">
<title>SystemRepo&#45;&gt;ImportUserModule</title>
<path fill="none" stroke="black" d="M565.59,-81.55C565.59,-81.55 565.59,-103.39 565.59,-103.39"/>
<polygon fill="black" stroke="black" points="562.09,-103.39 565.59,-113.39 569.09,-103.39 562.09,-103.39"/>
</g>
<!-- UserImportUc -->
<g id="node8" class="node">
<title>UserImportUc</title>
<ellipse fill="#fdb462" stroke="black" cx="456" cy="-66.8" rx="66.63" ry="18"/>
<text text-anchor="middle" x="456" y="-62.6" font-family="Times,serif" font-size="14.00">UserImportUc</text>
</g>
<!-- UserImportUc&#45;&gt;ImportUserModule -->
<g id="edge7" class="edge">
<title>UserImportUc&#45;&gt;ImportUserModule</title>
<path fill="none" stroke="black" d="M494.38,-81.55C494.38,-81.55 494.38,-103.39 494.38,-103.39"/>
<polygon fill="black" stroke="black" points="490.88,-103.39 494.38,-113.39 497.88,-103.39 490.88,-103.39"/>
</g>
<!-- UserRepo -->
<g id="node9" class="node">
<title>UserRepo</title>
<ellipse fill="#fdb462" stroke="black" cx="322" cy="-66.8" rx="49.81" ry="18"/>
<text text-anchor="middle" x="322" y="-62.6" font-family="Times,serif" font-size="14.00">UserRepo</text>
</g>
<!-- UserRepo&#45;&gt;ImportUserModule -->
<g id="edge8" class="edge">
<title>UserRepo&#45;&gt;ImportUserModule</title>
<path fill="none" stroke="black" d="M322,-84.83C322,-101.2 322,-122.8 322,-122.8 322,-122.8 455.91,-122.8 455.91,-122.8"/>
<polygon fill="black" stroke="black" points="455.91,-126.3 465.91,-122.8 455.91,-119.3 455.91,-126.3"/>
</g>
</g>
</svg>
