<?xml version="1.0" encoding="UTF-8" standalone="no"?>
<!DOCTYPE svg PUBLIC "-//W3C//DTD SVG 1.1//EN"
 "http://www.w3.org/Graphics/SVG/1.1/DTD/svg11.dtd">
<!-- Generated by graphviz version 2.47.3 (20210619.1520)
 -->
<!-- Title: dependencies Pages: 1 -->
<svg width="785pt" height="174pt"
 viewBox="0.00 0.00 785.00 173.80" xmlns="http://www.w3.org/2000/svg" xmlns:xlink="http://www.w3.org/1999/xlink">
<g id="graph0" class="graph" transform="scale(1 1) rotate(0) translate(4 169.8)">
<title>dependencies</title>
<polygon fill="white" stroke="transparent" points="-4,4 -4,-169.8 781,-169.8 781,4 -4,4"/>
<text text-anchor="middle" x="388.5" y="-8.2" font-family="sans-serif" font-size="14.00">dependencies</text>
<g id="clust1" class="cluster">
<title>cluster_ImportUserModule</title>
<polygon fill="none" stroke="black" stroke-dasharray="1,5" points="8,-32.8 8,-157.8 769,-157.8 769,-32.8 8,-32.8"/>
</g>
<g id="clust3" class="cluster">
<title>cluster_ImportUserModule_imports</title>
<polygon fill="none" stroke="black" points="645,-40.8 645,-92.8 761,-92.8 761,-40.8 645,-40.8"/>
</g>
<g id="clust6" class="cluster">
<title>cluster_ImportUserModule_providers</title>
<polygon fill="none" stroke="black" points="16,-40.8 16,-92.8 637,-92.8 637,-40.8 16,-40.8"/>
</g>
<!-- LoggerModule -->
<g id="node1" class="node">
<title>LoggerModule</title>
<polygon fill="#8dd3c7" stroke="black" points="752.98,-84.8 749.98,-88.8 728.98,-88.8 725.98,-84.8 653.02,-84.8 653.02,-48.8 752.98,-48.8 752.98,-84.8"/>
<text text-anchor="middle" x="703" y="-62.6" font-family="Times,serif" font-size="14.00">LoggerModule</text>
</g>
<!-- ImportUserModule -->
<g id="node2" class="node">
<title>ImportUserModule</title>
<polygon fill="#8dd3c7" stroke="black" points="438.08,-149.8 435.08,-153.8 414.08,-153.8 411.08,-149.8 313.92,-149.8 313.92,-113.8 438.08,-113.8 438.08,-149.8"/>
<text text-anchor="middle" x="376" y="-127.6" font-family="Times,serif" font-size="14.00">ImportUserModule</text>
</g>
<!-- LoggerModule&#45;&gt;ImportUserModule -->
<g id="edge1" class="edge">
<title>LoggerModule&#45;&gt;ImportUserModule</title>
<path fill="none" stroke="black" d="M703,-85.08C703,-106.12 703,-137.8 703,-137.8 703,-137.8 448.28,-137.8 448.28,-137.8"/>
<polygon fill="black" stroke="black" points="448.28,-134.3 438.28,-137.8 448.28,-141.3 448.28,-134.3"/>
</g>
<!-- ImportUserRepo -->
<g id="node3" class="node">
<title>ImportUserRepo</title>
<ellipse fill="#fdb462" stroke="black" cx="553" cy="-66.8" rx="75.86" ry="18"/>
<text text-anchor="middle" x="553" y="-62.6" font-family="Times,serif" font-size="14.00">ImportUserRepo</text>
</g>
<!-- ImportUserRepo&#45;&gt;ImportUserModule -->
<g id="edge2" class="edge">
<title>ImportUserRepo&#45;&gt;ImportUserModule</title>
<path fill="none" stroke="black" d="M553,-84.82C553,-102.17 553,-125.8 553,-125.8 553,-125.8 448.4,-125.8 448.4,-125.8"/>
<polygon fill="black" stroke="black" points="448.4,-122.3 438.4,-125.8 448.4,-129.3 448.4,-122.3"/>
</g>
<!-- PermissionService -->
<g id="node4" class="node">
<title>PermissionService</title>
<ellipse fill="#fdb462" stroke="black" cx="376" cy="-66.8" rx="82.82" ry="18"/>
<text text-anchor="middle" x="376" y="-62.6" font-family="Times,serif" font-size="14.00">PermissionService</text>
</g>
<!-- PermissionService&#45;&gt;ImportUserModule -->
<g id="edge3" class="edge">
<title>PermissionService&#45;&gt;ImportUserModule</title>
<path fill="none" stroke="black" d="M376,-84.91C376,-84.91 376,-103.79 376,-103.79"/>
<polygon fill="black" stroke="black" points="372.5,-103.79 376,-113.79 379.5,-103.79 372.5,-103.79"/>
</g>
<!-- UserImportUc -->
<g id="node5" class="node">
<title>UserImportUc</title>
<ellipse fill="#fdb462" stroke="black" cx="208" cy="-66.8" rx="66.61" ry="18"/>
<text text-anchor="middle" x="208" y="-62.6" font-family="Times,serif" font-size="14.00">UserImportUc</text>
</g>
<!-- UserImportUc&#45;&gt;ImportUserModule -->
<g id="edge4" class="edge">
<title>UserImportUc&#45;&gt;ImportUserModule</title>
<path fill="none" stroke="black" d="M208,-84.82C208,-102.17 208,-125.8 208,-125.8 208,-125.8 303.92,-125.8 303.92,-125.8"/>
<polygon fill="black" stroke="black" points="303.92,-129.3 313.92,-125.8 303.92,-122.3 303.92,-129.3"/>
</g>
<!-- UserRepo -->
<g id="node6" class="node">
<title>UserRepo</title>
<ellipse fill="#fdb462" stroke="black" cx="74" cy="-66.8" rx="49.8" ry="18"/>
<text text-anchor="middle" x="74" y="-62.6" font-family="Times,serif" font-size="14.00">UserRepo</text>
</g>
<!-- UserRepo&#45;&gt;ImportUserModule -->
<g id="edge5" class="edge">
<title>UserRepo&#45;&gt;ImportUserModule</title>
<path fill="none" stroke="black" d="M74,-85.08C74,-106.12 74,-137.8 74,-137.8 74,-137.8 303.79,-137.8 303.79,-137.8"/>
<polygon fill="black" stroke="black" points="303.79,-141.3 313.79,-137.8 303.79,-134.3 303.79,-141.3"/>
</g>
</g>
</svg>
