<?xml version="1.0" encoding="UTF-8" standalone="no"?>
<!DOCTYPE svg PUBLIC "-//W3C//DTD SVG 1.1//EN"
 "http://www.w3.org/Graphics/SVG/1.1/DTD/svg11.dtd">
<!-- Generated by graphviz version 5.0.0 (20220707.1540)
 -->
<!-- Title: dependencies Pages: 1 -->
<svg width="1327pt" height="174pt"
 viewBox="0.00 0.00 1327.00 173.80" xmlns="http://www.w3.org/2000/svg" xmlns:xlink="http://www.w3.org/1999/xlink">
<g id="graph0" class="graph" transform="scale(1 1) rotate(0) translate(4 169.8)">
<title>dependencies</title>
<polygon fill="white" stroke="transparent" points="-4,4 -4,-169.8 1323,-169.8 1323,4 -4,4"/>
<text text-anchor="middle" x="659.5" y="-8.2" font-family="sans-serif" font-size="14.00">dependencies</text>
<g id="clust1" class="cluster">
<title>cluster_ImportUserModule</title>
<polygon fill="none" stroke="black" stroke-dasharray="1,5" points="8,-32.8 8,-157.8 1311,-157.8 1311,-32.8 8,-32.8"/>
</g>
<g id="clust3" class="cluster">
<title>cluster_ImportUserModule_imports</title>
<polygon fill="none" stroke="black" points="1063,-40.8 1063,-92.8 1303,-92.8 1303,-40.8 1063,-40.8"/>
</g>
<g id="clust6" class="cluster">
<title>cluster_ImportUserModule_providers</title>
<polygon fill="none" stroke="black" points="16,-40.8 16,-92.8 1055,-92.8 1055,-40.8 16,-40.8"/>
</g>
<!-- AccountModule -->
<g id="node1" class="node">
<title>AccountModule</title>
<polygon fill="#8dd3c7" stroke="black" points="1295.48,-84.8 1292.48,-88.8 1271.48,-88.8 1268.48,-84.8 1188.52,-84.8 1188.52,-48.8 1295.48,-48.8 1295.48,-84.8"/>
<text text-anchor="middle" x="1242" y="-62.6" font-family="Times,serif" font-size="14.00">AccountModule</text>
</g>
<!-- ImportUserModule -->
<g id="node3" class="node">
<title>ImportUserModule</title>
<polygon fill="#8dd3c7" stroke="black" points="710.09,-149.8 707.09,-153.8 686.09,-153.8 683.09,-149.8 585.91,-149.8 585.91,-113.8 710.09,-113.8 710.09,-149.8"/>
<text text-anchor="middle" x="648" y="-127.6" font-family="Times,serif" font-size="14.00">ImportUserModule</text>
</g>
<!-- AccountModule&#45;&gt;ImportUserModule -->
<g id="edge1" class="edge">
<title>AccountModule&#45;&gt;ImportUserModule</title>
<path fill="none" stroke="black" d="M1242,-84.81C1242,-107.29 1242,-142.8 1242,-142.8 1242,-142.8 720.17,-142.8 720.17,-142.8"/>
<polygon fill="black" stroke="black" points="720.17,-139.3 710.17,-142.8 720.17,-146.3 720.17,-139.3"/>
</g>
<!-- LoggerModule -->
<g id="node2" class="node">
<title>LoggerModule</title>
<polygon fill="#8dd3c7" stroke="black" points="1170.98,-84.8 1167.98,-88.8 1146.98,-88.8 1143.98,-84.8 1071.02,-84.8 1071.02,-48.8 1170.98,-48.8 1170.98,-84.8"/>
<text text-anchor="middle" x="1121" y="-62.6" font-family="Times,serif" font-size="14.00">LoggerModule</text>
</g>
<!-- LoggerModule&#45;&gt;ImportUserModule -->
<g id="edge2" class="edge">
<title>LoggerModule&#45;&gt;ImportUserModule</title>
<path fill="none" stroke="black" d="M1121,-84.93C1121,-105.37 1121,-135.8 1121,-135.8 1121,-135.8 720.32,-135.8 720.32,-135.8"/>
<polygon fill="black" stroke="black" points="720.32,-132.3 710.32,-135.8 720.32,-139.3 720.32,-132.3"/>
</g>
<!-- AccountRepo -->
<g id="node4" class="node">
<title>AccountRepo</title>
<ellipse fill="#fdb462" stroke="black" cx="983" cy="-66.8" rx="64.27" ry="18"/>
<text text-anchor="middle" x="983" y="-62.6" font-family="Times,serif" font-size="14.00">AccountRepo</text>
</g>
<!-- AccountRepo&#45;&gt;ImportUserModule -->
<g id="edge3" class="edge">
<title>AccountRepo&#45;&gt;ImportUserModule</title>
<path fill="none" stroke="black" d="M983,-85.07C983,-103.36 983,-128.8 983,-128.8 983,-128.8 720.23,-128.8 720.23,-128.8"/>
<polygon fill="black" stroke="black" points="720.23,-125.3 710.23,-128.8 720.23,-132.3 720.23,-125.3"/>
</g>
<!-- ImportUserRepo -->
<g id="node5" class="node">
<title>ImportUserRepo</title>
<ellipse fill="#fdb462" stroke="black" cx="825" cy="-66.8" rx="75.88" ry="18"/>
<text text-anchor="middle" x="825" y="-62.6" font-family="Times,serif" font-size="14.00">ImportUserRepo</text>
</g>
<!-- ImportUserRepo&#45;&gt;ImportUserModule -->
<g id="edge4" class="edge">
<title>ImportUserRepo&#45;&gt;ImportUserModule</title>
<path fill="none" stroke="black" d="M825,-84.81C825,-100.85 825,-121.8 825,-121.8 825,-121.8 720.4,-121.8 720.4,-121.8"/>
<polygon fill="black" stroke="black" points="720.4,-118.3 710.4,-121.8 720.4,-125.3 720.4,-118.3"/>
</g>
<!-- PermissionService -->
<g id="node6" class="node">
<title>PermissionService</title>
<ellipse fill="#fdb462" stroke="black" cx="648" cy="-66.8" rx="82.83" ry="18"/>
<text text-anchor="middle" x="648" y="-62.6" font-family="Times,serif" font-size="14.00">PermissionService</text>
</g>
<!-- PermissionService&#45;&gt;ImportUserModule -->
<g id="edge5" class="edge">
<title>PermissionService&#45;&gt;ImportUserModule</title>
<path fill="none" stroke="black" d="M648,-84.91C648,-84.91 648,-103.79 648,-103.79"/>
<polygon fill="black" stroke="black" points="644.5,-103.79 648,-113.79 651.5,-103.79 644.5,-103.79"/>
</g>
<!-- SchoolRepo -->
<g id="node7" class="node">
<title>SchoolRepo</title>
<ellipse fill="#fdb462" stroke="black" cx="489" cy="-66.8" rx="58.49" ry="18"/>
<text text-anchor="middle" x="489" y="-62.6" font-family="Times,serif" font-size="14.00">SchoolRepo</text>
</g>
<!-- SchoolRepo&#45;&gt;ImportUserModule -->
<g id="edge6" class="edge">
<title>SchoolRepo&#45;&gt;ImportUserModule</title>
<path fill="none" stroke="black" d="M489,-84.81C489,-100.85 489,-121.8 489,-121.8 489,-121.8 575.62,-121.8 575.62,-121.8"/>
<polygon fill="black" stroke="black" points="575.62,-125.3 585.62,-121.8 575.62,-118.3 575.62,-125.3"/>
</g>
<!-- SystemRepo -->
<g id="node8" class="node">
<title>SystemRepo</title>
<ellipse fill="#fdb462" stroke="black" cx="353" cy="-66.8" rx="59.72" ry="18"/>
<text text-anchor="middle" x="353" y="-62.6" font-family="Times,serif" font-size="14.00">SystemRepo</text>
</g>
<!-- SystemRepo&#45;&gt;ImportUserModule -->
<g id="edge7" class="edge">
<title>SystemRepo&#45;&gt;ImportUserModule</title>
<path fill="none" stroke="black" d="M353,-85.07C353,-103.36 353,-128.8 353,-128.8 353,-128.8 575.8,-128.8 575.8,-128.8"/>
<polygon fill="black" stroke="black" points="575.8,-132.3 585.8,-128.8 575.8,-125.3 575.8,-132.3"/>
</g>
<!-- UserImportUc -->
<g id="node9" class="node">
<title>UserImportUc</title>
<ellipse fill="#fdb462" stroke="black" cx="208" cy="-66.8" rx="66.63" ry="18"/>
<text text-anchor="middle" x="208" y="-62.6" font-family="Times,serif" font-size="14.00">UserImportUc</text>
</g>
<!-- UserImportUc&#45;&gt;ImportUserModule -->
<g id="edge8" class="edge">
<title>UserImportUc&#45;&gt;ImportUserModule</title>
<path fill="none" stroke="black" d="M208,-84.93C208,-105.37 208,-135.8 208,-135.8 208,-135.8 575.89,-135.8 575.89,-135.8"/>
<polygon fill="black" stroke="black" points="575.89,-139.3 585.89,-135.8 575.89,-132.3 575.89,-139.3"/>
</g>
<!-- UserRepo -->
<g id="node10" class="node">
<title>UserRepo</title>
<ellipse fill="#fdb462" stroke="black" cx="74" cy="-66.8" rx="49.81" ry="18"/>
<text text-anchor="middle" x="74" y="-62.6" font-family="Times,serif" font-size="14.00">UserRepo</text>
</g>
<!-- UserRepo&#45;&gt;ImportUserModule -->
<g id="edge9" class="edge">
<title>UserRepo&#45;&gt;ImportUserModule</title>
<path fill="none" stroke="black" d="M74,-84.81C74,-107.29 74,-142.8 74,-142.8 74,-142.8 575.75,-142.8 575.75,-142.8"/>
<polygon fill="black" stroke="black" points="575.75,-146.3 585.75,-142.8 575.75,-139.3 575.75,-146.3"/>
</g>
</g>
</svg>
