<?xml version="1.0" encoding="UTF-8" standalone="no"?>
<!DOCTYPE svg PUBLIC "-//W3C//DTD SVG 1.1//EN"
 "http://www.w3.org/Graphics/SVG/1.1/DTD/svg11.dtd">
<!-- Generated by graphviz version 2.47.3 (20210619.1520)
 -->
<!-- Title: dependencies Pages: 1 -->
<svg width="785pt" height="174pt"
 viewBox="0.00 0.00 785.00 173.80" xmlns="http://www.w3.org/2000/svg" xmlns:xlink="http://www.w3.org/1999/xlink">
<g id="graph0" class="graph" transform="scale(1 1) rotate(0) translate(4 169.8)">
<title>dependencies</title>
<polygon fill="white" stroke="transparent" points="-4,4 -4,-169.8 781,-169.8 781,4 -4,4"/>
<text text-anchor="middle" x="388.5" y="-8.2" font-family="sans-serif" font-size="14.00">dependencies</text>
<g id="clust1" class="cluster">
<title>cluster_ImportUserModule</title>
<polygon fill="none" stroke="black" stroke-dasharray="1,5" points="8,-32.8 8,-157.8 769,-157.8 769,-32.8 8,-32.8"/>
</g>
<g id="clust6" class="cluster">
<title>cluster_ImportUserModule_providers</title>
<polygon fill="none" stroke="black" points="140,-40.8 140,-92.8 761,-92.8 761,-40.8 140,-40.8"/>
</g>
<g id="clust3" class="cluster">
<title>cluster_ImportUserModule_imports</title>
<polygon fill="none" stroke="black" points="16,-40.8 16,-92.8 132,-92.8 132,-40.8 16,-40.8"/>
</g>
<!-- LoggerModule -->
<g id="node1" class="node">
<title>LoggerModule</title>
<polygon fill="#8dd3c7" stroke="black" points="123.98,-84.8 120.98,-88.8 99.98,-88.8 96.98,-84.8 24.02,-84.8 24.02,-48.8 123.98,-48.8 123.98,-84.8"/>
<text text-anchor="middle" x="74" y="-62.6" font-family="Times,serif" font-size="14.00">LoggerModule</text>
</g>
<!-- ImportUserModule -->
<g id="node2" class="node">
<title>ImportUserModule</title>
<polygon fill="#8dd3c7" stroke="black" points="394.08,-149.8 391.08,-153.8 370.08,-153.8 367.08,-149.8 269.92,-149.8 269.92,-113.8 394.08,-113.8 394.08,-149.8"/>
<text text-anchor="middle" x="332" y="-127.6" font-family="Times,serif" font-size="14.00">ImportUserModule</text>
</g>
<!-- LoggerModule&#45;&gt;ImportUserModule -->
<g id="edge1" class="edge">
<title>LoggerModule&#45;&gt;ImportUserModule</title>
<path fill="none" stroke="black" d="M74,-85.08C74,-106.12 74,-137.8 74,-137.8 74,-137.8 259.87,-137.8 259.87,-137.8"/>
<polygon fill="black" stroke="black" points="259.87,-141.3 269.87,-137.8 259.87,-134.3 259.87,-141.3"/>
</g>
<!-- ImportUserRepo -->
<g id="node3" class="node">
<title>ImportUserRepo</title>
<ellipse fill="#fdb462" stroke="black" cx="677" cy="-66.8" rx="75.86" ry="18"/>
<text text-anchor="middle" x="677" y="-62.6" font-family="Times,serif" font-size="14.00">ImportUserRepo</text>
</g>
<!-- ImportUserRepo&#45;&gt;ImportUserModule -->
<g id="edge2" class="edge">
<title>ImportUserRepo&#45;&gt;ImportUserModule</title>
<path fill="none" stroke="black" d="M677,-85.08C677,-106.12 677,-137.8 677,-137.8 677,-137.8 404.08,-137.8 404.08,-137.8"/>
<polygon fill="black" stroke="black" points="404.08,-134.3 394.08,-137.8 404.08,-141.3 404.08,-134.3"/>
</g>
<!-- PermissionService -->
<g id="node4" class="node">
<title>PermissionService</title>
<ellipse fill="#fdb462" stroke="black" cx="500" cy="-66.8" rx="82.82" ry="18"/>
<text text-anchor="middle" x="500" y="-62.6" font-family="Times,serif" font-size="14.00">PermissionService</text>
</g>
<!-- PermissionService&#45;&gt;ImportUserModule -->
<g id="edge3" class="edge">
<title>PermissionService&#45;&gt;ImportUserModule</title>
<path fill="none" stroke="black" d="M500,-84.82C500,-102.17 500,-125.8 500,-125.8 500,-125.8 404.08,-125.8 404.08,-125.8"/>
<polygon fill="black" stroke="black" points="404.08,-122.3 394.08,-125.8 404.08,-129.3 404.08,-122.3"/>
</g>
<!-- UserImportUc -->
<g id="node5" class="node">
<title>UserImportUc</title>
<ellipse fill="#fdb462" stroke="black" cx="332" cy="-66.8" rx="66.61" ry="18"/>
<text text-anchor="middle" x="332" y="-62.6" font-family="Times,serif" font-size="14.00">UserImportUc</text>
</g>
<!-- UserImportUc&#45;&gt;ImportUserModule -->
<g id="edge4" class="edge">
<title>UserImportUc&#45;&gt;ImportUserModule</title>
<path fill="none" stroke="black" d="M332,-84.91C332,-84.91 332,-103.79 332,-103.79"/>
<polygon fill="black" stroke="black" points="328.5,-103.79 332,-113.79 335.5,-103.79 328.5,-103.79"/>
</g>
<!-- UserRepo -->
<g id="node6" class="node">
<title>UserRepo</title>
<ellipse fill="#fdb462" stroke="black" cx="198" cy="-66.8" rx="49.8" ry="18"/>
<text text-anchor="middle" x="198" y="-62.6" font-family="Times,serif" font-size="14.00">UserRepo</text>
</g>
<!-- UserRepo&#45;&gt;ImportUserModule -->
<g id="edge5" class="edge">
<title>UserRepo&#45;&gt;ImportUserModule</title>
<path fill="none" stroke="black" d="M198,-84.82C198,-102.17 198,-125.8 198,-125.8 198,-125.8 259.71,-125.8 259.71,-125.8"/>
<polygon fill="black" stroke="black" points="259.71,-129.3 269.71,-125.8 259.71,-122.3 259.71,-129.3"/>
</g>
</g>
</svg>
