<?xml version="1.0" encoding="UTF-8" standalone="no"?>
<!DOCTYPE svg PUBLIC "-//W3C//DTD SVG 1.1//EN"
 "http://www.w3.org/Graphics/SVG/1.1/DTD/svg11.dtd">
<!-- Generated by graphviz version 5.0.0 (20220707.1540)
 -->
<!-- Title: dependencies Pages: 1 -->
<svg width="1042pt" height="247pt"
 viewBox="0.00 0.00 1042.00 246.80" xmlns="http://www.w3.org/2000/svg" xmlns:xlink="http://www.w3.org/1999/xlink">
<g id="graph0" class="graph" transform="scale(1 1) rotate(0) translate(4 242.8)">
<title>dependencies</title>
<polygon fill="white" stroke="transparent" points="-4,4 -4,-242.8 1038,-242.8 1038,4 -4,4"/>
<text text-anchor="middle" x="517" y="-8.2" font-family="sans-serif" font-size="14.00">dependencies</text>
<g id="clust1" class="cluster">
<title>cluster_FilesStorageClientModule</title>
<polygon fill="none" stroke="black" stroke-dasharray="1,5" points="8,-32.8 8,-230.8 1026,-230.8 1026,-32.8 8,-32.8"/>
</g>
<g id="clust4" class="cluster">
<title>cluster_FilesStorageClientModule_exports</title>
<polygon fill="none" stroke="black" points="293,-170.8 293,-222.8 657,-222.8 657,-170.8 293,-170.8"/>
</g>
<g id="clust6" class="cluster">
<title>cluster_FilesStorageClientModule_providers</title>
<polygon fill="none" stroke="black" points="140,-40.8 140,-92.8 1018,-92.8 1018,-40.8 140,-40.8"/>
</g>
<g id="clust3" class="cluster">
<title>cluster_FilesStorageClientModule_imports</title>
<polygon fill="none" stroke="black" points="16,-40.8 16,-92.8 132,-92.8 132,-40.8 16,-40.8"/>
</g>
<!-- LoggerModule -->
<g id="node1" class="node">
<title>LoggerModule</title>
<polygon fill="#8dd3c7" stroke="black" points="123.98,-84.8 120.98,-88.8 99.98,-88.8 96.98,-84.8 24.02,-84.8 24.02,-48.8 123.98,-48.8 123.98,-84.8"/>
<text text-anchor="middle" x="74" y="-62.6" font-family="Times,serif" font-size="14.00">LoggerModule</text>
</g>
<!-- FilesStorageClientModule -->
<g id="node2" class="node">
<title>FilesStorageClientModule</title>
<polygon fill="#8dd3c7" stroke="black" points="578.77,-149.8 575.77,-153.8 554.77,-153.8 551.77,-149.8 415.23,-149.8 415.23,-113.8 578.77,-113.8 578.77,-149.8"/>
<text text-anchor="middle" x="497" y="-127.6" font-family="Times,serif" font-size="14.00">FilesStorageClientModule</text>
</g>
<!-- LoggerModule&#45;&gt;FilesStorageClientModule -->
<g id="edge1" class="edge">
<title>LoggerModule&#45;&gt;FilesStorageClientModule</title>
<path fill="none" stroke="black" d="M74,-85.08C74,-106.12 74,-137.8 74,-137.8 74,-137.8 405.19,-137.8 405.19,-137.8"/>
<polygon fill="black" stroke="black" points="405.19,-141.3 415.19,-137.8 405.19,-134.3 405.19,-141.3"/>
</g>
<!-- CopyFilesService  -->
<g id="node3" class="node">
<title>CopyFilesService </title>
<polygon fill="#fb8072" stroke="black" points="648.54,-214.8 529.46,-214.8 529.46,-178.8 648.54,-178.8 648.54,-214.8"/>
<text text-anchor="middle" x="589" y="-192.6" font-family="Times,serif" font-size="14.00">CopyFilesService </text>
</g>
<!-- FilesStorageClientModule&#45;&gt;CopyFilesService  -->
<g id="edge2" class="edge">
<title>FilesStorageClientModule&#45;&gt;CopyFilesService </title>
<path fill="none" stroke="black" stroke-dasharray="5,2" d="M554.18,-149.91C554.18,-149.91 554.18,-168.79 554.18,-168.79"/>
<polygon fill="black" stroke="black" points="550.68,-168.79 554.18,-178.79 557.68,-168.79 550.68,-168.79"/>
</g>
<!-- FilesStorageClientAdapterService  -->
<g id="node4" class="node">
<title>FilesStorageClientAdapterService </title>
<polygon fill="#fb8072" stroke="black" points="511.28,-214.8 300.72,-214.8 300.72,-178.8 511.28,-178.8 511.28,-214.8"/>
<text text-anchor="middle" x="406" y="-192.6" font-family="Times,serif" font-size="14.00">FilesStorageClientAdapterService </text>
</g>
<!-- FilesStorageClientModule&#45;&gt;FilesStorageClientAdapterService  -->
<g id="edge3" class="edge">
<title>FilesStorageClientModule&#45;&gt;FilesStorageClientAdapterService </title>
<path fill="none" stroke="black" stroke-dasharray="5,2" d="M463.25,-149.91C463.25,-149.91 463.25,-168.79 463.25,-168.79"/>
<polygon fill="black" stroke="black" points="459.75,-168.79 463.25,-178.79 466.75,-168.79 459.75,-168.79"/>
</g>
<!-- CopyFilesService -->
<g id="node5" class="node">
<title>CopyFilesService</title>
<ellipse fill="#fdb462" stroke="black" cx="930" cy="-66.8" rx="79.9" ry="18"/>
<text text-anchor="middle" x="930" y="-62.6" font-family="Times,serif" font-size="14.00">CopyFilesService</text>
</g>
<!-- CopyFilesService&#45;&gt;FilesStorageClientModule -->
<g id="edge4" class="edge">
<title>CopyFilesService&#45;&gt;FilesStorageClientModule</title>
<path fill="none" stroke="black" d="M930,-85.08C930,-106.12 930,-137.8 930,-137.8 930,-137.8 588.95,-137.8 588.95,-137.8"/>
<polygon fill="black" stroke="black" points="588.95,-134.3 578.95,-137.8 588.95,-141.3 588.95,-134.3"/>
</g>
<!-- CopyHelperService -->
<g id="node6" class="node">
<title>CopyHelperService</title>
<ellipse fill="#fdb462" stroke="black" cx="745" cy="-66.8" rx="87.39" ry="18"/>
<text text-anchor="middle" x="745" y="-62.6" font-family="Times,serif" font-size="14.00">CopyHelperService</text>
</g>
<!-- CopyHelperService&#45;&gt;FilesStorageClientModule -->
<g id="edge5" class="edge">
<title>CopyHelperService&#45;&gt;FilesStorageClientModule</title>
<path fill="none" stroke="black" d="M745,-84.82C745,-102.17 745,-125.8 745,-125.8 745,-125.8 588.89,-125.8 588.89,-125.8"/>
<polygon fill="black" stroke="black" points="588.89,-122.3 578.89,-125.8 588.89,-129.3 588.89,-122.3"/>
</g>
<!-- FilesStorageClientAdapterService -->
<g id="node7" class="node">
<title>FilesStorageClientAdapterService</title>
<ellipse fill="#fdb462" stroke="black" cx="497" cy="-66.8" rx="142.96" ry="18"/>
<text text-anchor="middle" x="497" y="-62.6" font-family="Times,serif" font-size="14.00">FilesStorageClientAdapterService</text>
</g>
<!-- FilesStorageClientAdapterService&#45;&gt;FilesStorageClientModule -->
<g id="edge6" class="edge">
<title>FilesStorageClientAdapterService&#45;&gt;FilesStorageClientModule</title>
<path fill="none" stroke="black" d="M497,-84.91C497,-84.91 497,-103.79 497,-103.79"/>
<polygon fill="black" stroke="black" points="493.5,-103.79 497,-113.79 500.5,-103.79 493.5,-103.79"/>
</g>
<!-- FilesStorageProducer -->
<g id="node8" class="node">
<title>FilesStorageProducer</title>
<ellipse fill="#fdb462" stroke="black" cx="242" cy="-66.8" rx="94.35" ry="18"/>
<text text-anchor="middle" x="242" y="-62.6" font-family="Times,serif" font-size="14.00">FilesStorageProducer</text>
</g>
<!-- FilesStorageProducer&#45;&gt;FilesStorageClientModule -->
<g id="edge7" class="edge">
<title>FilesStorageProducer&#45;&gt;FilesStorageClientModule</title>
<path fill="none" stroke="black" d="M318.39,-77.35C318.39,-94.32 318.39,-125.8 318.39,-125.8 318.39,-125.8 405.01,-125.8 405.01,-125.8"/>
<polygon fill="black" stroke="black" points="405.01,-129.3 415.01,-125.8 405.01,-122.3 405.01,-129.3"/>
</g>
</g>
</svg>
