<?xml version="1.0" encoding="UTF-8" standalone="no"?>
<!DOCTYPE svg PUBLIC "-//W3C//DTD SVG 1.1//EN"
 "http://www.w3.org/Graphics/SVG/1.1/DTD/svg11.dtd">
<!-- Generated by graphviz version 5.0.0 (20220707.1540)
 -->
<!-- Title: dependencies Pages: 1 -->
<svg width="1042pt" height="247pt"
 viewBox="0.00 0.00 1042.00 246.80" xmlns="http://www.w3.org/2000/svg" xmlns:xlink="http://www.w3.org/1999/xlink">
<g id="graph0" class="graph" transform="scale(1 1) rotate(0) translate(4 242.8)">
<title>dependencies</title>
<polygon fill="white" stroke="transparent" points="-4,4 -4,-242.8 1038,-242.8 1038,4 -4,4"/>
<text text-anchor="middle" x="517" y="-8.2" font-family="sans-serif" font-size="14.00">dependencies</text>
<g id="clust1" class="cluster">
<title>cluster_FilesStorageClientModule</title>
<polygon fill="none" stroke="black" stroke-dasharray="1,5" points="8,-32.8 8,-230.8 1026,-230.8 1026,-32.8 8,-32.8"/>
</g>
<g id="clust3" class="cluster">
<title>cluster_FilesStorageClientModule_imports</title>
<polygon fill="none" stroke="black" points="902,-40.8 902,-92.8 1018,-92.8 1018,-40.8 902,-40.8"/>
</g>
<g id="clust4" class="cluster">
<title>cluster_FilesStorageClientModule_exports</title>
<polygon fill="none" stroke="black" points="417,-170.8 417,-222.8 781,-222.8 781,-170.8 417,-170.8"/>
</g>
<g id="clust6" class="cluster">
<title>cluster_FilesStorageClientModule_providers</title>
<polygon fill="none" stroke="black" points="16,-40.8 16,-92.8 894,-92.8 894,-40.8 16,-40.8"/>
</g>
<!-- LoggerModule -->
<g id="node1" class="node">
<title>LoggerModule</title>
<polygon fill="#8dd3c7" stroke="black" points="1009.98,-84.8 1006.98,-88.8 985.98,-88.8 982.98,-84.8 910.02,-84.8 910.02,-48.8 1009.98,-48.8 1009.98,-84.8"/>
<text text-anchor="middle" x="960" y="-62.6" font-family="Times,serif" font-size="14.00">LoggerModule</text>
</g>
<!-- FilesStorageClientModule -->
<g id="node2" class="node">
<title>FilesStorageClientModule</title>
<polygon fill="#8dd3c7" stroke="black" points="702.77,-149.8 699.77,-153.8 678.77,-153.8 675.77,-149.8 539.23,-149.8 539.23,-113.8 702.77,-113.8 702.77,-149.8"/>
<text text-anchor="middle" x="621" y="-127.6" font-family="Times,serif" font-size="14.00">FilesStorageClientModule</text>
</g>
<!-- LoggerModule&#45;&gt;FilesStorageClientModule -->
<g id="edge1" class="edge">
<title>LoggerModule&#45;&gt;FilesStorageClientModule</title>
<path fill="none" stroke="black" d="M960,-85.08C960,-106.12 960,-137.8 960,-137.8 960,-137.8 713.06,-137.8 713.06,-137.8"/>
<polygon fill="black" stroke="black" points="713.06,-134.3 703.06,-137.8 713.06,-141.3 713.06,-134.3"/>
</g>
<!-- CopyFilesService  -->
<g id="node3" class="node">
<title>CopyFilesService </title>
<polygon fill="#fb8072" stroke="black" points="772.54,-214.8 653.46,-214.8 653.46,-178.8 772.54,-178.8 772.54,-214.8"/>
<text text-anchor="middle" x="713" y="-192.6" font-family="Times,serif" font-size="14.00">CopyFilesService </text>
</g>
<!-- FilesStorageClientModule&#45;&gt;CopyFilesService  -->
<g id="edge2" class="edge">
<title>FilesStorageClientModule&#45;&gt;CopyFilesService </title>
<path fill="none" stroke="black" stroke-dasharray="5,2" d="M678.18,-149.91C678.18,-149.91 678.18,-168.79 678.18,-168.79"/>
<polygon fill="black" stroke="black" points="674.68,-168.79 678.18,-178.79 681.68,-168.79 674.68,-168.79"/>
</g>
<!-- FilesStorageClientAdapterService  -->
<g id="node4" class="node">
<title>FilesStorageClientAdapterService </title>
<polygon fill="#fb8072" stroke="black" points="635.28,-214.8 424.72,-214.8 424.72,-178.8 635.28,-178.8 635.28,-214.8"/>
<text text-anchor="middle" x="530" y="-192.6" font-family="Times,serif" font-size="14.00">FilesStorageClientAdapterService </text>
</g>
<!-- FilesStorageClientModule&#45;&gt;FilesStorageClientAdapterService  -->
<g id="edge3" class="edge">
<title>FilesStorageClientModule&#45;&gt;FilesStorageClientAdapterService </title>
<path fill="none" stroke="black" stroke-dasharray="5,2" d="M587.25,-149.91C587.25,-149.91 587.25,-168.79 587.25,-168.79"/>
<polygon fill="black" stroke="black" points="583.75,-168.79 587.25,-178.79 590.75,-168.79 583.75,-168.79"/>
</g>
<!-- CopyFilesService -->
<g id="node5" class="node">
<title>CopyFilesService</title>
<ellipse fill="#fdb462" stroke="black" cx="806" cy="-66.8" rx="79.9" ry="18"/>
<text text-anchor="middle" x="806" y="-62.6" font-family="Times,serif" font-size="14.00">CopyFilesService</text>
</g>
<!-- CopyFilesService&#45;&gt;FilesStorageClientModule -->
<g id="edge4" class="edge">
<title>CopyFilesService&#45;&gt;FilesStorageClientModule</title>
<path fill="none" stroke="black" d="M749.41,-79.6C749.41,-96.95 749.41,-125.8 749.41,-125.8 749.41,-125.8 713.05,-125.8 713.05,-125.8"/>
<polygon fill="black" stroke="black" points="713.05,-122.3 703.05,-125.8 713.05,-129.3 713.05,-122.3"/>
</g>
<!-- CopyHelperService -->
<g id="node6" class="node">
<title>CopyHelperService</title>
<ellipse fill="#fdb462" stroke="black" cx="621" cy="-66.8" rx="87.39" ry="18"/>
<text text-anchor="middle" x="621" y="-62.6" font-family="Times,serif" font-size="14.00">CopyHelperService</text>
</g>
<!-- CopyHelperService&#45;&gt;FilesStorageClientModule -->
<g id="edge5" class="edge">
<title>CopyHelperService&#45;&gt;FilesStorageClientModule</title>
<path fill="none" stroke="black" d="M621,-84.91C621,-84.91 621,-103.79 621,-103.79"/>
<polygon fill="black" stroke="black" points="617.5,-103.79 621,-113.79 624.5,-103.79 617.5,-103.79"/>
</g>
<!-- FilesStorageClientAdapterService -->
<g id="node7" class="node">
<title>FilesStorageClientAdapterService</title>
<ellipse fill="#fdb462" stroke="black" cx="373" cy="-66.8" rx="142.96" ry="18"/>
<text text-anchor="middle" x="373" y="-62.6" font-family="Times,serif" font-size="14.00">FilesStorageClientAdapterService</text>
</g>
<!-- FilesStorageClientAdapterService&#45;&gt;FilesStorageClientModule -->
<g id="edge6" class="edge">
<title>FilesStorageClientAdapterService&#45;&gt;FilesStorageClientModule</title>
<path fill="none" stroke="black" d="M470.29,-80.19C470.29,-97.6 470.29,-125.8 470.29,-125.8 470.29,-125.8 529.03,-125.8 529.03,-125.8"/>
<polygon fill="black" stroke="black" points="529.03,-129.3 539.03,-125.8 529.03,-122.3 529.03,-129.3"/>
</g>
<!-- FilesStorageProducer -->
<g id="node8" class="node">
<title>FilesStorageProducer</title>
<ellipse fill="#fdb462" stroke="black" cx="118" cy="-66.8" rx="94.35" ry="18"/>
<text text-anchor="middle" x="118" y="-62.6" font-family="Times,serif" font-size="14.00">FilesStorageProducer</text>
</g>
<!-- FilesStorageProducer&#45;&gt;FilesStorageClientModule -->
<g id="edge7" class="edge">
<title>FilesStorageProducer&#45;&gt;FilesStorageClientModule</title>
<path fill="none" stroke="black" d="M118,-85.08C118,-106.12 118,-137.8 118,-137.8 118,-137.8 529.06,-137.8 529.06,-137.8"/>
<polygon fill="black" stroke="black" points="529.06,-141.3 539.06,-137.8 529.06,-134.3 529.06,-141.3"/>
</g>
</g>
</svg>
