<?xml version="1.0" encoding="UTF-8" standalone="no"?>
<!DOCTYPE svg PUBLIC "-//W3C//DTD SVG 1.1//EN"
 "http://www.w3.org/Graphics/SVG/1.1/DTD/svg11.dtd">
<!-- Generated by graphviz version 5.0.0 (20220707.1540)
 -->
<!-- Title: dependencies Pages: 1 -->
<svg width="850pt" height="247pt"
 viewBox="0.00 0.00 850.00 246.80" xmlns="http://www.w3.org/2000/svg" xmlns:xlink="http://www.w3.org/1999/xlink">
<g id="graph0" class="graph" transform="scale(1 1) rotate(0) translate(4 242.8)">
<title>dependencies</title>
<polygon fill="white" stroke="transparent" points="-4,4 -4,-242.8 846,-242.8 846,4 -4,4"/>
<text text-anchor="middle" x="421" y="-8.2" font-family="sans-serif" font-size="14.00">dependencies</text>
<g id="clust1" class="cluster">
<title>cluster_FilesStorageClientModule</title>
<polygon fill="none" stroke="black" stroke-dasharray="1,5" points="8,-32.8 8,-230.8 834,-230.8 834,-32.8 8,-32.8"/>
</g>
<g id="clust3" class="cluster">
<title>cluster_FilesStorageClientModule_imports</title>
<polygon fill="none" stroke="black" points="710,-40.8 710,-92.8 826,-92.8 826,-40.8 710,-40.8"/>
</g>
<g id="clust6" class="cluster">
<title>cluster_FilesStorageClientModule_providers</title>
<polygon fill="none" stroke="black" points="16,-40.8 16,-92.8 702,-92.8 702,-40.8 16,-40.8"/>
</g>
<g id="clust4" class="cluster">
<title>cluster_FilesStorageClientModule_exports</title>
<polygon fill="none" stroke="black" points="270,-170.8 270,-222.8 634,-222.8 634,-170.8 270,-170.8"/>
</g>
<!-- LoggerModule -->
<g id="node1" class="node">
<title>LoggerModule</title>
<polygon fill="#8dd3c7" stroke="black" points="817.98,-84.8 814.98,-88.8 793.98,-88.8 790.98,-84.8 718.02,-84.8 718.02,-48.8 817.98,-48.8 817.98,-84.8"/>
<text text-anchor="middle" x="768" y="-62.6" font-family="Times,serif" font-size="14.00">LoggerModule</text>
</g>
<!-- FilesStorageClientModule -->
<g id="node2" class="node">
<title>FilesStorageClientModule</title>
<polygon fill="#8dd3c7" stroke="black" points="555.77,-149.8 552.77,-153.8 531.77,-153.8 528.77,-149.8 392.23,-149.8 392.23,-113.8 555.77,-113.8 555.77,-149.8"/>
<text text-anchor="middle" x="474" y="-127.6" font-family="Times,serif" font-size="14.00">FilesStorageClientModule</text>
</g>
<!-- LoggerModule&#45;&gt;FilesStorageClientModule -->
<g id="edge1" class="edge">
<title>LoggerModule&#45;&gt;FilesStorageClientModule</title>
<path fill="none" stroke="black" d="M768,-84.91C768,-104.14 768,-131.8 768,-131.8 768,-131.8 565.9,-131.8 565.9,-131.8"/>
<polygon fill="black" stroke="black" points="565.9,-128.3 555.9,-131.8 565.9,-135.3 565.9,-128.3"/>
</g>
<!-- CopyFilesService  -->
<g id="node3" class="node">
<title>CopyFilesService </title>
<polygon fill="#fb8072" stroke="black" points="625.54,-214.8 506.46,-214.8 506.46,-178.8 625.54,-178.8 625.54,-214.8"/>
<text text-anchor="middle" x="566" y="-192.6" font-family="Times,serif" font-size="14.00">CopyFilesService </text>
</g>
<!-- FilesStorageClientModule&#45;&gt;CopyFilesService  -->
<g id="edge2" class="edge">
<title>FilesStorageClientModule&#45;&gt;CopyFilesService </title>
<path fill="none" stroke="black" stroke-dasharray="5,2" d="M531.18,-149.91C531.18,-149.91 531.18,-168.79 531.18,-168.79"/>
<polygon fill="black" stroke="black" points="527.68,-168.79 531.18,-178.79 534.68,-168.79 527.68,-168.79"/>
</g>
<!-- FilesStorageClientAdapterService  -->
<g id="node4" class="node">
<title>FilesStorageClientAdapterService </title>
<polygon fill="#fb8072" stroke="black" points="488.28,-214.8 277.72,-214.8 277.72,-178.8 488.28,-178.8 488.28,-214.8"/>
<text text-anchor="middle" x="383" y="-192.6" font-family="Times,serif" font-size="14.00">FilesStorageClientAdapterService </text>
</g>
<!-- FilesStorageClientModule&#45;&gt;FilesStorageClientAdapterService  -->
<g id="edge3" class="edge">
<title>FilesStorageClientModule&#45;&gt;FilesStorageClientAdapterService </title>
<path fill="none" stroke="black" stroke-dasharray="5,2" d="M440.25,-149.91C440.25,-149.91 440.25,-168.79 440.25,-168.79"/>
<polygon fill="black" stroke="black" points="436.75,-168.79 440.25,-178.79 443.75,-168.79 436.75,-168.79"/>
</g>
<!-- CopyFilesService -->
<g id="node5" class="node">
<title>CopyFilesService</title>
<ellipse fill="#fdb462" stroke="black" cx="614" cy="-66.8" rx="79.9" ry="18"/>
<text text-anchor="middle" x="614" y="-62.6" font-family="Times,serif" font-size="14.00">CopyFilesService</text>
</g>
<!-- CopyFilesService&#45;&gt;FilesStorageClientModule -->
<g id="edge4" class="edge">
<title>CopyFilesService&#45;&gt;FilesStorageClientModule</title>
<path fill="none" stroke="black" d="M545.09,-76.11C545.09,-76.11 545.09,-103.65 545.09,-103.65"/>
<polygon fill="black" stroke="black" points="541.59,-103.65 545.09,-113.65 548.59,-103.65 541.59,-103.65"/>
</g>
<!-- FilesStorageClientAdapterService -->
<g id="node6" class="node">
<title>FilesStorageClientAdapterService</title>
<ellipse fill="#fdb462" stroke="black" cx="373" cy="-66.8" rx="142.96" ry="18"/>
<text text-anchor="middle" x="373" y="-62.6" font-family="Times,serif" font-size="14.00">FilesStorageClientAdapterService</text>
</g>
<!-- FilesStorageClientAdapterService&#45;&gt;FilesStorageClientModule -->
<g id="edge5" class="edge">
<title>FilesStorageClientAdapterService&#45;&gt;FilesStorageClientModule</title>
<path fill="none" stroke="black" d="M454.05,-81.88C454.05,-81.88 454.05,-103.56 454.05,-103.56"/>
<polygon fill="black" stroke="black" points="450.55,-103.56 454.05,-113.56 457.55,-103.56 450.55,-103.56"/>
</g>
<!-- FilesStorageProducer -->
<g id="node7" class="node">
<title>FilesStorageProducer</title>
<ellipse fill="#fdb462" stroke="black" cx="118" cy="-66.8" rx="94.35" ry="18"/>
<text text-anchor="middle" x="118" y="-62.6" font-family="Times,serif" font-size="14.00">FilesStorageProducer</text>
</g>
<!-- FilesStorageProducer&#45;&gt;FilesStorageClientModule -->
<g id="edge6" class="edge">
<title>FilesStorageProducer&#45;&gt;FilesStorageClientModule</title>
<path fill="none" stroke="black" d="M118,-84.91C118,-104.14 118,-131.8 118,-131.8 118,-131.8 381.88,-131.8 381.88,-131.8"/>
<polygon fill="black" stroke="black" points="381.88,-135.3 391.88,-131.8 381.88,-128.3 381.88,-135.3"/>
</g>
</g>
</svg>
