<?xml version="1.0" encoding="UTF-8" standalone="no"?>
<!DOCTYPE svg PUBLIC "-//W3C//DTD SVG 1.1//EN"
 "http://www.w3.org/Graphics/SVG/1.1/DTD/svg11.dtd">
<!-- Generated by graphviz version 5.0.0 (20220707.1540)
 -->
<!-- Title: dependencies Pages: 1 -->
<svg width="616pt" height="247pt"
 viewBox="0.00 0.00 616.00 246.80" xmlns="http://www.w3.org/2000/svg" xmlns:xlink="http://www.w3.org/1999/xlink">
<g id="graph0" class="graph" transform="scale(1 1) rotate(0) translate(4 242.8)">
<title>dependencies</title>
<polygon fill="white" stroke="transparent" points="-4,4 -4,-242.8 612,-242.8 612,4 -4,4"/>
<text text-anchor="middle" x="304" y="-8.2" font-family="sans-serif" font-size="14.00">dependencies</text>
<g id="clust1" class="cluster">
<title>cluster_FilesStorageClientModule</title>
<polygon fill="none" stroke="black" stroke-dasharray="1,5" points="8,-32.8 8,-230.8 600,-230.8 600,-32.8 8,-32.8"/>
</g>
<g id="clust4" class="cluster">
<title>cluster_FilesStorageClientModule_exports</title>
<polygon fill="none" stroke="black" points="83,-170.8 83,-222.8 447,-222.8 447,-170.8 83,-170.8"/>
</g>
<g id="clust6" class="cluster">
<title>cluster_FilesStorageClientModule_providers</title>
<polygon fill="none" stroke="black" points="16,-40.8 16,-92.8 592,-92.8 592,-40.8 16,-40.8"/>
</g>
<!-- CopyFilesService  -->
<g id="node1" class="node">
<title>CopyFilesService </title>
<polygon fill="#fb8072" stroke="black" points="438.54,-214.8 319.46,-214.8 319.46,-178.8 438.54,-178.8 438.54,-214.8"/>
<text text-anchor="middle" x="379" y="-192.6" font-family="Times,serif" font-size="14.00">CopyFilesService </text>
</g>
<!-- FilesStorageClientAdapterService  -->
<g id="node2" class="node">
<title>FilesStorageClientAdapterService </title>
<polygon fill="#fb8072" stroke="black" points="301.28,-214.8 90.72,-214.8 90.72,-178.8 301.28,-178.8 301.28,-214.8"/>
<text text-anchor="middle" x="196" y="-192.6" font-family="Times,serif" font-size="14.00">FilesStorageClientAdapterService </text>
</g>
<!-- FilesStorageClientModule -->
<g id="node3" class="node">
<title>FilesStorageClientModule</title>
<polygon fill="#8dd3c7" stroke="black" points="344.77,-149.8 341.77,-153.8 320.77,-153.8 317.77,-149.8 181.23,-149.8 181.23,-113.8 344.77,-113.8 344.77,-149.8"/>
<text text-anchor="middle" x="263" y="-127.6" font-family="Times,serif" font-size="14.00">FilesStorageClientModule</text>
</g>
<!-- FilesStorageClientModule&#45;&gt;CopyFilesService  -->
<g id="edge1" class="edge">
<title>FilesStorageClientModule&#45;&gt;CopyFilesService </title>
<path fill="none" stroke="black" stroke-dasharray="5,2" d="M332.18,-149.91C332.18,-149.91 332.18,-168.79 332.18,-168.79"/>
<polygon fill="black" stroke="black" points="328.68,-168.79 332.18,-178.79 335.68,-168.79 328.68,-168.79"/>
</g>
<!-- FilesStorageClientModule&#45;&gt;FilesStorageClientAdapterService  -->
<g id="edge2" class="edge">
<title>FilesStorageClientModule&#45;&gt;FilesStorageClientAdapterService </title>
<path fill="none" stroke="black" stroke-dasharray="5,2" d="M241.25,-149.91C241.25,-149.91 241.25,-168.79 241.25,-168.79"/>
<polygon fill="black" stroke="black" points="237.75,-168.79 241.25,-178.79 244.75,-168.79 237.75,-168.79"/>
</g>
<!-- CopyFilesService -->
<g id="node4" class="node">
<title>CopyFilesService</title>
<ellipse fill="#fdb462" stroke="black" cx="504" cy="-66.8" rx="79.9" ry="18"/>
<text text-anchor="middle" x="504" y="-62.6" font-family="Times,serif" font-size="14.00">CopyFilesService</text>
</g>
<!-- CopyFilesService&#45;&gt;FilesStorageClientModule -->
<g id="edge3" class="edge">
<title>CopyFilesService&#45;&gt;FilesStorageClientModule</title>
<path fill="none" stroke="black" d="M431.41,-74.26C431.41,-91.33 431.41,-131.8 431.41,-131.8 431.41,-131.8 355.23,-131.8 355.23,-131.8"/>
<polygon fill="black" stroke="black" points="355.23,-128.3 345.23,-131.8 355.23,-135.3 355.23,-128.3"/>
</g>
<!-- FilesStorageClientAdapterService -->
<g id="node5" class="node">
<title>FilesStorageClientAdapterService</title>
<ellipse fill="#fdb462" stroke="black" cx="263" cy="-66.8" rx="142.96" ry="18"/>
<text text-anchor="middle" x="263" y="-62.6" font-family="Times,serif" font-size="14.00">FilesStorageClientAdapterService</text>
</g>
<!-- FilesStorageClientAdapterService&#45;&gt;FilesStorageClientModule -->
<g id="edge4" class="edge">
<title>FilesStorageClientAdapterService&#45;&gt;FilesStorageClientModule</title>
<path fill="none" stroke="black" d="M263,-84.91C263,-84.91 263,-103.79 263,-103.79"/>
<polygon fill="black" stroke="black" points="259.5,-103.79 263,-113.79 266.5,-103.79 259.5,-103.79"/>
</g>
<!-- Logger -->
<g id="node6" class="node">
<title>Logger</title>
<ellipse fill="#fdb462" stroke="black" cx="63" cy="-66.8" rx="38.85" ry="18"/>
<text text-anchor="middle" x="63" y="-62.6" font-family="Times,serif" font-size="14.00">Logger</text>
</g>
<!-- Logger&#45;&gt;FilesStorageClientModule -->
<g id="edge5" class="edge">
<title>Logger&#45;&gt;FilesStorageClientModule</title>
<path fill="none" stroke="black" d="M96.27,-76.39C96.27,-94.47 96.27,-131.8 96.27,-131.8 96.27,-131.8 171.1,-131.8 171.1,-131.8"/>
<polygon fill="black" stroke="black" points="171.1,-135.3 181.1,-131.8 171.1,-128.3 171.1,-135.3"/>
</g>
</g>
</svg>
