<?xml version="1.0" encoding="UTF-8" standalone="no"?>
<!DOCTYPE svg PUBLIC "-//W3C//DTD SVG 1.1//EN"
 "http://www.w3.org/Graphics/SVG/1.1/DTD/svg11.dtd">
<!-- Generated by graphviz version 2.47.3 (20210619.1520)
 -->
<!-- Title: dependencies Pages: 1 -->
<svg width="3188pt" height="337pt"
 viewBox="0.00 0.00 3188.00 336.80" xmlns="http://www.w3.org/2000/svg" xmlns:xlink="http://www.w3.org/1999/xlink">
<g id="graph0" class="graph" transform="scale(1 1) rotate(0) translate(4 332.8)">
<title>dependencies</title>
<polygon fill="white" stroke="transparent" points="-4,4 -4,-332.8 3184,-332.8 3184,4 -4,4"/>
<text text-anchor="middle" x="1590" y="-8.2" font-family="sans-serif" font-size="14.00">dependencies</text>
<g id="clust1" class="cluster">
<title>cluster_AuthModule</title>
<polygon fill="none" stroke="black" stroke-dasharray="1,5" points="558,-108.8 558,-244.8 1024,-244.8 1024,-108.8 558,-108.8"/>
</g>
<g id="clust3" class="cluster">
<title>cluster_AuthModule_imports</title>
<polygon fill="none" stroke="black" points="566,-116.8 566,-168.8 668,-168.8 668,-116.8 566,-116.8"/>
</g>
<g id="clust6" class="cluster">
<title>cluster_AuthModule_providers</title>
<polygon fill="none" stroke="black" points="676,-116.8 676,-168.8 1016,-168.8 1016,-116.8 676,-116.8"/>
</g>
<g id="clust7" class="cluster">
<title>cluster_AuthorizationModule</title>
<polygon fill="none" stroke="black" stroke-dasharray="1,5" points="2178,-32.8 2178,-252.8 2738,-252.8 2738,-32.8 2178,-32.8"/>
</g>
<g id="clust9" class="cluster">
<title>cluster_AuthorizationModule_imports</title>
<polygon fill="none" stroke="black" points="2608,-40.8 2608,-92.8 2730,-92.8 2730,-40.8 2608,-40.8"/>
</g>
<g id="clust10" class="cluster">
<title>cluster_AuthorizationModule_exports</title>
<polygon fill="none" stroke="black" points="2316,-192.8 2316,-244.8 2472,-244.8 2472,-192.8 2316,-192.8"/>
</g>
<g id="clust12" class="cluster">
<title>cluster_AuthorizationModule_providers</title>
<polygon fill="none" stroke="black" points="2186,-40.8 2186,-92.8 2600,-92.8 2600,-40.8 2186,-40.8"/>
</g>
<g id="clust13" class="cluster">
<title>cluster_CoreModule</title>
<polygon fill="none" stroke="black" stroke-dasharray="1,5" points="1032,-108.8 1032,-244.8 1547,-244.8 1547,-108.8 1032,-108.8"/>
</g>
<g id="clust15" class="cluster">
<title>cluster_CoreModule_imports</title>
<polygon fill="none" stroke="black" points="1040,-116.8 1040,-168.8 1539,-168.8 1539,-116.8 1040,-116.8"/>
</g>
<g id="clust25" class="cluster">
<title>cluster_FeathersModule</title>
<polygon fill="none" stroke="black" stroke-dasharray="1,5" points="2746,-108.8 2746,-176.8 3172,-176.8 3172,-108.8 2746,-108.8"/>
</g>
<g id="clust28" class="cluster">
<title>cluster_FeathersModule_exports</title>
<polygon fill="none" stroke="black" points="2990,-116.8 2990,-168.8 3164,-168.8 3164,-116.8 2990,-116.8"/>
</g>
<g id="clust30" class="cluster">
<title>cluster_FeathersModule_providers</title>
<polygon fill="none" stroke="black" points="2754,-116.8 2754,-168.8 2982,-168.8 2982,-116.8 2754,-116.8"/>
</g>
<g id="clust37" class="cluster">
<title>cluster_LearnroomModule</title>
<polygon fill="none" stroke="black" stroke-dasharray="1,5" points="1757,-108.8 1757,-244.8 1917,-244.8 1917,-108.8 1757,-108.8"/>
</g>
<g id="clust42" class="cluster">
<title>cluster_LearnroomModule_providers</title>
<polygon fill="none" stroke="black" points="1765,-116.8 1765,-168.8 1909,-168.8 1909,-116.8 1765,-116.8"/>
</g>
<g id="clust43" class="cluster">
<title>cluster_LoggerModule</title>
<polygon fill="none" stroke="black" stroke-dasharray="1,5" points="1555,-184.8 1555,-252.8 1749,-252.8 1749,-184.8 1555,-184.8"/>
</g>
<g id="clust46" class="cluster">
<title>cluster_LoggerModule_exports</title>
<polygon fill="none" stroke="black" points="1665,-192.8 1665,-244.8 1741,-244.8 1741,-192.8 1665,-192.8"/>
</g>
<g id="clust48" class="cluster">
<title>cluster_LoggerModule_providers</title>
<polygon fill="none" stroke="black" points="1563,-192.8 1563,-244.8 1657,-244.8 1657,-192.8 1563,-192.8"/>
</g>
<g id="clust67" class="cluster">
<title>cluster_NewsModule</title>
<polygon fill="none" stroke="black" stroke-dasharray="1,5" points="1925,-108.8 1925,-320.8 2170,-320.8 2170,-108.8 1925,-108.8"/>
</g>
<g id="clust70" class="cluster">
<title>cluster_NewsModule_exports</title>
<polygon fill="none" stroke="black" points="1943,-260.8 1943,-312.8 2027,-312.8 2027,-260.8 1943,-260.8"/>
</g>
<g id="clust72" class="cluster">
<title>cluster_NewsModule_providers</title>
<polygon fill="none" stroke="black" points="1933,-116.8 1933,-168.8 2162,-168.8 2162,-116.8 1933,-116.8"/>
</g>
<g id="clust73" class="cluster">
<title>cluster_ServerModule</title>
<polygon fill="none" stroke="black" stroke-dasharray="1,5" points="328,-184.8 328,-312.8 550,-312.8 550,-184.8 328,-184.8"/>
</g>
<g id="clust75" class="cluster">
<title>cluster_ServerModule_imports</title>
<polygon fill="none" stroke="black" points="336,-192.8 336,-244.8 542,-244.8 542,-192.8 336,-192.8"/>
</g>
<g id="clust79" class="cluster">
<title>cluster_TaskModule</title>
<polygon fill="none" stroke="black" stroke-dasharray="1,5" points="8,-108.8 8,-176.8 550,-176.8 550,-108.8 8,-108.8"/>
</g>
<g id="clust84" class="cluster">
<title>cluster_TaskModule_providers</title>
<polygon fill="none" stroke="black" points="16,-116.8 16,-168.8 542,-168.8 542,-116.8 16,-116.8"/>
</g>
<g id="clust85" class="cluster">
<title>cluster_UserModule</title>
<polygon fill="none" stroke="black" stroke-dasharray="1,5" points="283,-32.8 283,-100.8 979,-100.8 979,-32.8 283,-32.8"/>
</g>
<g id="clust88" class="cluster">
<title>cluster_UserModule_exports</title>
<polygon fill="none" stroke="black" points="869,-40.8 869,-92.8 971,-92.8 971,-40.8 869,-40.8"/>
</g>
<g id="clust90" class="cluster">
<title>cluster_UserModule_providers</title>
<polygon fill="none" stroke="black" points="291,-40.8 291,-92.8 861,-92.8 861,-40.8 291,-40.8"/>
</g>
<!-- UserModule -->
<g id="node1" class="node">
<title>UserModule</title>
<polygon fill="#8dd3c7" stroke="black" points="659.98,-160.8 656.98,-164.8 635.98,-164.8 632.98,-160.8 574.02,-160.8 574.02,-124.8 659.98,-124.8 659.98,-160.8"/>
<text text-anchor="middle" x="617" y="-138.6" font-family="Times,serif" font-size="14.00">UserModule</text>
</g>
<!-- AuthModule -->
<g id="node2" class="node">
<title>AuthModule</title>
<polygon fill="#8dd3c7" stroke="black" points="763.55,-236.8 760.55,-240.8 739.55,-240.8 736.55,-236.8 676.45,-236.8 676.45,-200.8 763.55,-200.8 763.55,-236.8"/>
<text text-anchor="middle" x="720" y="-214.6" font-family="Times,serif" font-size="14.00">AuthModule</text>
</g>
<!-- UserModule&#45;&gt;AuthModule -->
<g id="edge1" class="edge">
<title>UserModule&#45;&gt;AuthModule</title>
<path fill="none" stroke="black" d="M660.04,-142.8C671.1,-142.8 679.96,-142.8 679.96,-142.8 679.96,-142.8 679.96,-190.79 679.96,-190.79"/>
<polygon fill="black" stroke="black" points="676.46,-190.79 679.96,-200.79 683.46,-190.79 676.46,-190.79"/>
</g>
<!-- ServerModule -->
<g id="node27" class="node">
<title>ServerModule</title>
<polygon fill="#8dd3c7" stroke="black" points="542.08,-304.8 539.08,-308.8 518.08,-308.8 515.08,-304.8 445.92,-304.8 445.92,-268.8 542.08,-268.8 542.08,-304.8"/>
<text text-anchor="middle" x="494" y="-282.6" font-family="Times,serif" font-size="14.00">ServerModule</text>
</g>
<!-- UserModule&#45;&gt;ServerModule -->
<g id="edge28" class="edge">
<title>UserModule&#45;&gt;ServerModule</title>
<path fill="none" stroke="black" d="M573.62,-142.8C554.72,-142.8 536.81,-142.8 536.81,-142.8 536.81,-142.8 536.81,-258.56 536.81,-258.56"/>
<polygon fill="black" stroke="black" points="533.31,-258.56 536.81,-268.56 540.31,-258.56 533.31,-258.56"/>
</g>
<!-- UserFacade  -->
<g id="node32" class="node">
<title>UserFacade </title>
<polygon fill="#fb8072" stroke="black" points="962.57,-84.8 877.43,-84.8 877.43,-48.8 962.57,-48.8 962.57,-84.8"/>
<text text-anchor="middle" x="920" y="-62.6" font-family="Times,serif" font-size="14.00">UserFacade </text>
</g>
<!-- UserModule&#45;&gt;UserFacade  -->
<g id="edge33" class="edge">
<title>UserModule&#45;&gt;UserFacade </title>
<path fill="none" stroke="black" stroke-dasharray="5,2" d="M641.17,-124.74C641.17,-113.36 641.17,-100.8 641.17,-100.8 641.17,-100.8 885.79,-100.8 885.79,-100.8 885.79,-100.8 885.79,-94.99 885.79,-94.99"/>
<polygon fill="black" stroke="black" points="889.29,-94.99 885.79,-84.99 882.29,-94.99 889.29,-94.99"/>
</g>
<!-- AuthModule&#45;&gt;ServerModule -->
<g id="edge22" class="edge">
<title>AuthModule&#45;&gt;ServerModule</title>
<path fill="none" stroke="black" d="M676.29,-218.8C622.85,-218.8 539.42,-218.8 539.42,-218.8 539.42,-218.8 539.42,-258.58 539.42,-258.58"/>
<polygon fill="black" stroke="black" points="535.92,-258.58 539.42,-268.58 542.92,-258.58 535.92,-258.58"/>
</g>
<!-- JwtStrategy -->
<g id="node3" class="node">
<title>JwtStrategy</title>
<ellipse fill="#fdb462" stroke="black" cx="951" cy="-142.8" rx="56.76" ry="18"/>
<text text-anchor="middle" x="951" y="-138.6" font-family="Times,serif" font-size="14.00">JwtStrategy</text>
</g>
<!-- JwtStrategy&#45;&gt;AuthModule -->
<g id="edge2" class="edge">
<title>JwtStrategy&#45;&gt;AuthModule</title>
<path fill="none" stroke="black" d="M951,-160.83C951,-181.57 951,-212.8 951,-212.8 951,-212.8 773.72,-212.8 773.72,-212.8"/>
<polygon fill="black" stroke="black" points="773.72,-209.3 763.72,-212.8 773.72,-216.3 773.72,-209.3"/>
</g>
<!-- JwtValidationAdapter -->
<g id="node4" class="node">
<title>JwtValidationAdapter</title>
<ellipse fill="#fdb462" stroke="black" cx="780" cy="-142.8" rx="96.12" ry="18"/>
<text text-anchor="middle" x="780" y="-138.6" font-family="Times,serif" font-size="14.00">JwtValidationAdapter</text>
</g>
<!-- JwtValidationAdapter&#45;&gt;AuthModule -->
<g id="edge3" class="edge">
<title>JwtValidationAdapter&#45;&gt;AuthModule</title>
<path fill="none" stroke="black" d="M723.73,-157.45C723.73,-157.45 723.73,-190.7 723.73,-190.7"/>
<polygon fill="black" stroke="black" points="720.23,-190.7 723.73,-200.7 727.23,-190.7 720.23,-190.7"/>
</g>
<!-- FeathersModule -->
<g id="node5" class="node">
<title>FeathersModule</title>
<polygon fill="#8dd3c7" stroke="black" points="2722.47,-84.8 2719.47,-88.8 2698.47,-88.8 2695.47,-84.8 2615.53,-84.8 2615.53,-48.8 2722.47,-48.8 2722.47,-84.8"/>
<text text-anchor="middle" x="2669" y="-62.6" font-family="Times,serif" font-size="14.00">FeathersModule</text>
</g>
<!-- AuthorizationModule -->
<g id="node6" class="node">
<title>AuthorizationModule</title>
<polygon fill="#8dd3c7" stroke="black" points="2462.81,-160.8 2459.81,-164.8 2438.81,-164.8 2435.81,-160.8 2325.19,-160.8 2325.19,-124.8 2462.81,-124.8 2462.81,-160.8"/>
<text text-anchor="middle" x="2394" y="-138.6" font-family="Times,serif" font-size="14.00">AuthorizationModule</text>
</g>
<!-- FeathersModule&#45;&gt;AuthorizationModule -->
<g id="edge4" class="edge">
<title>FeathersModule&#45;&gt;AuthorizationModule</title>
<path fill="none" stroke="black" d="M2651.17,-84.83C2651.17,-105.57 2651.17,-136.8 2651.17,-136.8 2651.17,-136.8 2472.92,-136.8 2472.92,-136.8"/>
<polygon fill="black" stroke="black" points="2472.92,-133.3 2462.92,-136.8 2472.92,-140.3 2472.92,-133.3"/>
</g>
<!-- FeathersServiceProvider  -->
<g id="node15" class="node">
<title>FeathersServiceProvider </title>
<polygon fill="#fb8072" stroke="black" points="3155.61,-160.8 2998.39,-160.8 2998.39,-124.8 3155.61,-124.8 3155.61,-160.8"/>
<text text-anchor="middle" x="3077" y="-138.6" font-family="Times,serif" font-size="14.00">FeathersServiceProvider </text>
</g>
<!-- FeathersModule&#45;&gt;FeathersServiceProvider  -->
<g id="edge12" class="edge">
<title>FeathersModule&#45;&gt;FeathersServiceProvider </title>
<path fill="none" stroke="black" stroke-dasharray="5,2" d="M2722.76,-66.8C2833.55,-66.8 3077,-66.8 3077,-66.8 3077,-66.8 3077,-114.79 3077,-114.79"/>
<polygon fill="black" stroke="black" points="3073.5,-114.79 3077,-124.79 3080.5,-114.79 3073.5,-114.79"/>
</g>
<!-- AuthorizationService  -->
<g id="node7" class="node">
<title>AuthorizationService </title>
<polygon fill="#fb8072" stroke="black" points="2463.74,-236.8 2324.26,-236.8 2324.26,-200.8 2463.74,-200.8 2463.74,-236.8"/>
<text text-anchor="middle" x="2394" y="-214.6" font-family="Times,serif" font-size="14.00">AuthorizationService </text>
</g>
<!-- AuthorizationModule&#45;&gt;AuthorizationService  -->
<g id="edge5" class="edge">
<title>AuthorizationModule&#45;&gt;AuthorizationService </title>
<path fill="none" stroke="black" stroke-dasharray="5,2" d="M2394,-160.81C2394,-160.81 2394,-190.65 2394,-190.65"/>
<polygon fill="black" stroke="black" points="2390.5,-190.65 2394,-200.65 2397.5,-190.65 2390.5,-190.65"/>
</g>
<!-- NewsModule -->
<g id="node21" class="node">
<title>NewsModule</title>
<polygon fill="#8dd3c7" stroke="black" points="2030.92,-236.8 2027.92,-240.8 2006.92,-240.8 2003.92,-236.8 1939.08,-236.8 1939.08,-200.8 2030.92,-200.8 2030.92,-236.8"/>
<text text-anchor="middle" x="1985" y="-214.6" font-family="Times,serif" font-size="14.00">NewsModule</text>
</g>
<!-- AuthorizationModule&#45;&gt;NewsModule -->
<g id="edge17" class="edge">
<title>AuthorizationModule&#45;&gt;NewsModule</title>
<path fill="none" stroke="black" d="M2325.31,-142.8C2260.77,-142.8 2174.05,-142.8 2174.05,-142.8 2174.05,-142.8 2174.05,-224.8 2174.05,-224.8 2174.05,-224.8 2040.76,-224.8 2040.76,-224.8"/>
<polygon fill="black" stroke="black" points="2040.76,-221.3 2030.76,-224.8 2040.76,-228.3 2040.76,-221.3"/>
</g>
<!-- AuthorizationService -->
<g id="node8" class="node">
<title>AuthorizationService</title>
<ellipse fill="#fdb462" stroke="black" cx="2498" cy="-66.8" rx="93.76" ry="18"/>
<text text-anchor="middle" x="2498" y="-62.6" font-family="Times,serif" font-size="14.00">AuthorizationService</text>
</g>
<!-- AuthorizationService&#45;&gt;AuthorizationModule -->
<g id="edge6" class="edge">
<title>AuthorizationService&#45;&gt;AuthorizationModule</title>
<path fill="none" stroke="black" d="M2433.51,-80.04C2433.51,-80.04 2433.51,-114.59 2433.51,-114.59"/>
<polygon fill="black" stroke="black" points="2430.01,-114.59 2433.51,-124.59 2437.01,-114.59 2430.01,-114.59"/>
</g>
<!-- FeathersAuthProvider -->
<g id="node9" class="node">
<title>FeathersAuthProvider</title>
<ellipse fill="#fdb462" stroke="black" cx="2290" cy="-66.8" rx="96.13" ry="18"/>
<text text-anchor="middle" x="2290" y="-62.6" font-family="Times,serif" font-size="14.00">FeathersAuthProvider</text>
</g>
<!-- FeathersAuthProvider&#45;&gt;AuthorizationModule -->
<g id="edge7" class="edge">
<title>FeathersAuthProvider&#45;&gt;AuthorizationModule</title>
<path fill="none" stroke="black" d="M2355.83,-80.04C2355.83,-80.04 2355.83,-114.59 2355.83,-114.59"/>
<polygon fill="black" stroke="black" points="2352.33,-114.59 2355.83,-124.59 2359.33,-114.59 2352.33,-114.59"/>
</g>
<!-- ErrorModule -->
<g id="node10" class="node">
<title>ErrorModule</title>
<polygon fill="#8dd3c7" stroke="black" points="1137.58,-160.8 1134.58,-164.8 1113.58,-164.8 1110.58,-160.8 1048.42,-160.8 1048.42,-124.8 1137.58,-124.8 1137.58,-160.8"/>
<text text-anchor="middle" x="1093" y="-138.6" font-family="Times,serif" font-size="14.00">ErrorModule</text>
</g>
<!-- CoreModule -->
<g id="node14" class="node">
<title>CoreModule</title>
<polygon fill="#8dd3c7" stroke="black" points="1258.26,-236.8 1255.26,-240.8 1234.26,-240.8 1231.26,-236.8 1171.74,-236.8 1171.74,-200.8 1258.26,-200.8 1258.26,-236.8"/>
<text text-anchor="middle" x="1215" y="-214.6" font-family="Times,serif" font-size="14.00">CoreModule</text>
</g>
<!-- ErrorModule&#45;&gt;CoreModule -->
<g id="edge8" class="edge">
<title>ErrorModule&#45;&gt;CoreModule</title>
<path fill="none" stroke="black" d="M1093,-161C1093,-185.16 1093,-224.8 1093,-224.8 1093,-224.8 1161.64,-224.8 1161.64,-224.8"/>
<polygon fill="black" stroke="black" points="1161.64,-228.3 1171.64,-224.8 1161.64,-221.3 1161.64,-228.3"/>
</g>
<!-- InterceptorModule -->
<g id="node11" class="node">
<title>InterceptorModule</title>
<polygon fill="#8dd3c7" stroke="black" points="1413.46,-160.8 1410.46,-164.8 1389.46,-164.8 1386.46,-160.8 1292.54,-160.8 1292.54,-124.8 1413.46,-124.8 1413.46,-160.8"/>
<text text-anchor="middle" x="1353" y="-138.6" font-family="Times,serif" font-size="14.00">InterceptorModule</text>
</g>
<!-- InterceptorModule&#45;&gt;CoreModule -->
<g id="edge9" class="edge">
<title>InterceptorModule&#45;&gt;CoreModule</title>
<path fill="none" stroke="black" d="M1353,-160.83C1353,-181.57 1353,-212.8 1353,-212.8 1353,-212.8 1268.29,-212.8 1268.29,-212.8"/>
<polygon fill="black" stroke="black" points="1268.29,-209.3 1258.29,-212.8 1268.29,-216.3 1268.29,-209.3"/>
</g>
<!-- LoggerModule -->
<g id="node12" class="node">
<title>LoggerModule</title>
<polygon fill="#8dd3c7" stroke="black" points="1530.98,-160.8 1527.98,-164.8 1506.98,-164.8 1503.98,-160.8 1431.02,-160.8 1431.02,-124.8 1530.98,-124.8 1530.98,-160.8"/>
<text text-anchor="middle" x="1481" y="-138.6" font-family="Times,serif" font-size="14.00">LoggerModule</text>
</g>
<!-- LoggerModule&#45;&gt;CoreModule -->
<g id="edge10" class="edge">
<title>LoggerModule&#45;&gt;CoreModule</title>
<path fill="none" stroke="black" d="M1497.66,-161C1497.66,-185.16 1497.66,-224.8 1497.66,-224.8 1497.66,-224.8 1268.55,-224.8 1268.55,-224.8"/>
<polygon fill="black" stroke="black" points="1268.55,-221.3 1258.55,-224.8 1268.55,-228.3 1268.55,-221.3"/>
</g>
<!-- Logger  -->
<g id="node19" class="node">
<title>Logger </title>
<polygon fill="#fb8072" stroke="black" points="1732.93,-236.8 1673.07,-236.8 1673.07,-200.8 1732.93,-200.8 1732.93,-236.8"/>
<text text-anchor="middle" x="1703" y="-214.6" font-family="Times,serif" font-size="14.00">Logger </text>
</g>
<!-- LoggerModule&#45;&gt;Logger  -->
<g id="edge15" class="edge">
<title>LoggerModule&#45;&gt;Logger </title>
<path fill="none" stroke="black" stroke-dasharray="5,2" d="M1531.1,-136.8C1596.57,-136.8 1703,-136.8 1703,-136.8 1703,-136.8 1703,-190.6 1703,-190.6"/>
<polygon fill="black" stroke="black" points="1699.5,-190.6 1703,-200.6 1706.5,-190.6 1699.5,-190.6"/>
</g>
<!-- LoggerModule&#45;&gt;NewsModule -->
<g id="edge18" class="edge">
<title>LoggerModule&#45;&gt;NewsModule</title>
<path fill="none" stroke="black" d="M1464.34,-160.91C1464.34,-170.7 1464.34,-180.8 1464.34,-180.8 1464.34,-180.8 1970.24,-180.8 1970.24,-180.8 1970.24,-180.8 1970.24,-190.69 1970.24,-190.69"/>
<polygon fill="black" stroke="black" points="1966.74,-190.69 1970.24,-200.69 1973.74,-190.69 1966.74,-190.69"/>
</g>
<!-- ValidationModule -->
<g id="node13" class="node">
<title>ValidationModule</title>
<polygon fill="#8dd3c7" stroke="black" points="1274.15,-160.8 1271.15,-164.8 1250.15,-164.8 1247.15,-160.8 1155.85,-160.8 1155.85,-124.8 1274.15,-124.8 1274.15,-160.8"/>
<text text-anchor="middle" x="1215" y="-138.6" font-family="Times,serif" font-size="14.00">ValidationModule</text>
</g>
<!-- ValidationModule&#45;&gt;CoreModule -->
<g id="edge11" class="edge">
<title>ValidationModule&#45;&gt;CoreModule</title>
<path fill="none" stroke="black" d="M1215,-160.81C1215,-160.81 1215,-190.65 1215,-190.65"/>
<polygon fill="black" stroke="black" points="1211.5,-190.65 1215,-200.65 1218.5,-190.65 1211.5,-190.65"/>
</g>
<!-- CoreModule&#45;&gt;ServerModule -->
<g id="edge23" class="edge">
<title>CoreModule&#45;&gt;ServerModule</title>
<path fill="none" stroke="black" d="M1215,-236.82C1215,-254.17 1215,-277.8 1215,-277.8 1215,-277.8 552.15,-277.8 552.15,-277.8"/>
<polygon fill="black" stroke="black" points="552.15,-274.3 542.15,-277.8 552.15,-281.3 552.15,-274.3"/>
</g>
<!-- FeathersServiceProvider -->
<g id="node16" class="node">
<title>FeathersServiceProvider</title>
<ellipse fill="#fdb462" stroke="black" cx="2868" cy="-142.8" rx="105.91" ry="18"/>
<text text-anchor="middle" x="2868" y="-138.6" font-family="Times,serif" font-size="14.00">FeathersServiceProvider</text>
</g>
<!-- FeathersServiceProvider&#45;&gt;FeathersModule -->
<g id="edge13" class="edge">
<title>FeathersServiceProvider&#45;&gt;FeathersModule</title>
<path fill="none" stroke="black" d="M2767.88,-148.8C2725.98,-148.8 2686.83,-148.8 2686.83,-148.8 2686.83,-148.8 2686.83,-95 2686.83,-95"/>
<polygon fill="black" stroke="black" points="2690.33,-95 2686.83,-85 2683.33,-95 2690.33,-95"/>
</g>
<!-- DashboardUc -->
<g id="node17" class="node">
<title>DashboardUc</title>
<ellipse fill="#fdb462" stroke="black" cx="1837" cy="-142.8" rx="64.25" ry="18"/>
<text text-anchor="middle" x="1837" y="-138.6" font-family="Times,serif" font-size="14.00">DashboardUc</text>
</g>
<!-- LearnroomModule -->
<g id="node18" class="node">
<title>LearnroomModule</title>
<polygon fill="#8dd3c7" stroke="black" points="1891.74,-236.8 1888.74,-240.8 1867.74,-240.8 1864.74,-236.8 1770.26,-236.8 1770.26,-200.8 1891.74,-200.8 1891.74,-236.8"/>
<text text-anchor="middle" x="1831" y="-214.6" font-family="Times,serif" font-size="14.00">LearnroomModule</text>
</g>
<!-- DashboardUc&#45;&gt;LearnroomModule -->
<g id="edge14" class="edge">
<title>DashboardUc&#45;&gt;LearnroomModule</title>
<path fill="none" stroke="black" d="M1832.37,-160.81C1832.37,-160.81 1832.37,-190.65 1832.37,-190.65"/>
<polygon fill="black" stroke="black" points="1828.87,-190.65 1832.37,-200.65 1835.87,-190.65 1828.87,-190.65"/>
</g>
<!-- LearnroomModule&#45;&gt;ServerModule -->
<g id="edge24" class="edge">
<title>LearnroomModule&#45;&gt;ServerModule</title>
<path fill="none" stroke="black" d="M1831,-237.02C1831,-257.17 1831,-286.8 1831,-286.8 1831,-286.8 552.37,-286.8 552.37,-286.8"/>
<polygon fill="black" stroke="black" points="552.37,-283.3 542.37,-286.8 552.37,-290.3 552.37,-283.3"/>
</g>
<!-- Logger -->
<g id="node20" class="node">
<title>Logger</title>
<ellipse fill="#fdb462" stroke="black" cx="1610" cy="-218.8" rx="38.85" ry="18"/>
<text text-anchor="middle" x="1610" y="-214.6" font-family="Times,serif" font-size="14.00">Logger</text>
</g>
<!-- Logger&#45;&gt;LoggerModule -->
<g id="edge16" class="edge">
<title>Logger&#45;&gt;LoggerModule</title>
<path fill="none" stroke="black" d="M1610,-200.77C1610,-180.03 1610,-148.8 1610,-148.8 1610,-148.8 1541.24,-148.8 1541.24,-148.8"/>
<polygon fill="black" stroke="black" points="1541.24,-145.3 1531.24,-148.8 1541.24,-152.3 1541.24,-145.3"/>
</g>
<!-- NewsUc  -->
<g id="node22" class="node">
<title>NewsUc </title>
<polygon fill="#fb8072" stroke="black" points="2018.69,-304.8 1951.31,-304.8 1951.31,-268.8 2018.69,-268.8 2018.69,-304.8"/>
<text text-anchor="middle" x="1985" y="-282.6" font-family="Times,serif" font-size="14.00">NewsUc </text>
</g>
<!-- NewsModule&#45;&gt;NewsUc  -->
<g id="edge19" class="edge">
<title>NewsModule&#45;&gt;NewsUc </title>
<path fill="none" stroke="black" stroke-dasharray="5,2" d="M1985,-237.02C1985,-237.02 1985,-258.53 1985,-258.53"/>
<polygon fill="black" stroke="black" points="1981.5,-258.53 1985,-268.53 1988.5,-258.53 1981.5,-258.53"/>
</g>
<!-- NewsModule&#45;&gt;ServerModule -->
<g id="edge26" class="edge">
<title>NewsModule&#45;&gt;ServerModule</title>
<path fill="none" stroke="black" d="M1945.22,-237.05C1945.22,-259.82 1945.22,-295.8 1945.22,-295.8 1945.22,-295.8 552.28,-295.8 552.28,-295.8"/>
<polygon fill="black" stroke="black" points="552.28,-292.3 542.28,-295.8 552.28,-299.3 552.28,-292.3"/>
</g>
<!-- NewsRepo -->
<g id="node23" class="node">
<title>NewsRepo</title>
<ellipse fill="#fdb462" stroke="black" cx="2101" cy="-142.8" rx="53.31" ry="18"/>
<text text-anchor="middle" x="2101" y="-138.6" font-family="Times,serif" font-size="14.00">NewsRepo</text>
</g>
<!-- NewsRepo&#45;&gt;NewsModule -->
<g id="edge20" class="edge">
<title>NewsRepo&#45;&gt;NewsModule</title>
<path fill="none" stroke="black" d="M2101,-160.83C2101,-181.57 2101,-212.8 2101,-212.8 2101,-212.8 2040.85,-212.8 2040.85,-212.8"/>
<polygon fill="black" stroke="black" points="2040.85,-209.3 2030.85,-212.8 2040.85,-216.3 2040.85,-209.3"/>
</g>
<!-- NewsUc -->
<g id="node24" class="node">
<title>NewsUc</title>
<ellipse fill="#fdb462" stroke="black" cx="1985" cy="-142.8" rx="44.06" ry="18"/>
<text text-anchor="middle" x="1985" y="-138.6" font-family="Times,serif" font-size="14.00">NewsUc</text>
</g>
<!-- NewsUc&#45;&gt;NewsModule -->
<g id="edge21" class="edge">
<title>NewsUc&#45;&gt;NewsModule</title>
<path fill="none" stroke="black" d="M1999.76,-160.05C1999.76,-160.05 1999.76,-190.56 1999.76,-190.56"/>
<polygon fill="black" stroke="black" points="1996.26,-190.56 1999.76,-200.56 2003.26,-190.56 1996.26,-190.56"/>
</g>
<!-- MailModule -->
<g id="node25" class="node">
<title>MailModule</title>
<polygon fill="#8dd3c7" stroke="black" points="533.99,-236.8 530.99,-240.8 509.99,-240.8 506.99,-236.8 448.01,-236.8 448.01,-200.8 533.99,-200.8 533.99,-236.8"/>
<text text-anchor="middle" x="491" y="-214.6" font-family="Times,serif" font-size="14.00">MailModule</text>
</g>
<!-- MailModule&#45;&gt;ServerModule -->
<g id="edge25" class="edge">
<title>MailModule&#45;&gt;ServerModule</title>
<path fill="none" stroke="black" d="M491,-237.02C491,-237.02 491,-258.53 491,-258.53"/>
<polygon fill="black" stroke="black" points="487.5,-258.53 491,-268.53 494.5,-258.53 487.5,-258.53"/>
</g>
<!-- TaskModule -->
<g id="node26" class="node">
<title>TaskModule</title>
<polygon fill="#8dd3c7" stroke="black" points="430.26,-236.8 427.26,-240.8 406.26,-240.8 403.26,-236.8 343.74,-236.8 343.74,-200.8 430.26,-200.8 430.26,-236.8"/>
<text text-anchor="middle" x="387" y="-214.6" font-family="Times,serif" font-size="14.00">TaskModule</text>
</g>
<!-- TaskModule&#45;&gt;ServerModule -->
<g id="edge27" class="edge">
<title>TaskModule&#45;&gt;ServerModule</title>
<path fill="none" stroke="black" d="M387,-237.02C387,-257.17 387,-286.8 387,-286.8 387,-286.8 435.82,-286.8 435.82,-286.8"/>
<polygon fill="black" stroke="black" points="435.82,-290.3 445.82,-286.8 435.82,-283.3 435.82,-290.3"/>
</g>
<!-- CourseRepo -->
<g id="node28" class="node">
<title>CourseRepo</title>
<ellipse fill="#fdb462" stroke="black" cx="253" cy="-142.8" rx="58.55" ry="18"/>
<text text-anchor="middle" x="253" y="-138.6" font-family="Times,serif" font-size="14.00">CourseRepo</text>
</g>
<!-- CourseRepo&#45;&gt;TaskModule -->
<g id="edge29" class="edge">
<title>CourseRepo&#45;&gt;TaskModule</title>
<path fill="none" stroke="black" d="M253,-160.83C253,-181.57 253,-212.8 253,-212.8 253,-212.8 333.49,-212.8 333.49,-212.8"/>
<polygon fill="black" stroke="black" points="333.49,-216.3 343.49,-212.8 333.49,-209.3 333.49,-216.3"/>
</g>
<!-- SubmissionRepo -->
<g id="node29" class="node">
<title>SubmissionRepo</title>
<ellipse fill="#fdb462" stroke="black" cx="100" cy="-142.8" rx="76.49" ry="18"/>
<text text-anchor="middle" x="100" y="-138.6" font-family="Times,serif" font-size="14.00">SubmissionRepo</text>
</g>
<!-- SubmissionRepo&#45;&gt;TaskModule -->
<g id="edge30" class="edge">
<title>SubmissionRepo&#45;&gt;TaskModule</title>
<path fill="none" stroke="black" d="M100,-161C100,-185.16 100,-224.8 100,-224.8 100,-224.8 333.72,-224.8 333.72,-224.8"/>
<polygon fill="black" stroke="black" points="333.72,-228.3 343.72,-224.8 333.72,-221.3 333.72,-228.3"/>
</g>
<!-- TaskRepo -->
<g id="node30" class="node">
<title>TaskRepo</title>
<ellipse fill="#fdb462" stroke="black" cx="484" cy="-142.8" rx="50.38" ry="18"/>
<text text-anchor="middle" x="484" y="-138.6" font-family="Times,serif" font-size="14.00">TaskRepo</text>
</g>
<!-- TaskRepo&#45;&gt;TaskModule -->
<g id="edge31" class="edge">
<title>TaskRepo&#45;&gt;TaskModule</title>
<path fill="none" stroke="black" d="M439.88,-151.52C439.88,-171.48 439.88,-218.8 439.88,-218.8 439.88,-218.8 438.96,-218.8 438.96,-218.8"/>
<polygon fill="black" stroke="black" points="440.67,-215.3 430.67,-218.8 440.67,-222.3 440.67,-215.3"/>
</g>
<!-- TaskUC -->
<g id="node31" class="node">
<title>TaskUC</title>
<ellipse fill="#fdb462" stroke="black" cx="373" cy="-142.8" rx="43.44" ry="18"/>
<text text-anchor="middle" x="373" y="-138.6" font-family="Times,serif" font-size="14.00">TaskUC</text>
</g>
<!-- TaskUC&#45;&gt;TaskModule -->
<g id="edge32" class="edge">
<title>TaskUC&#45;&gt;TaskModule</title>
<path fill="none" stroke="black" d="M379.92,-160.81C379.92,-160.81 379.92,-190.65 379.92,-190.65"/>
<polygon fill="black" stroke="black" points="376.42,-190.65 379.92,-200.65 383.42,-190.65 376.42,-190.65"/>
</g>
<!-- RoleRepo -->
<g id="node33" class="node">
<title>RoleRepo</title>
<ellipse fill="#fdb462" stroke="black" cx="452" cy="-66.8" rx="49.82" ry="18"/>
<text text-anchor="middle" x="452" y="-62.6" font-family="Times,serif" font-size="14.00">RoleRepo</text>
</g>
<!-- RoleRepo&#45;&gt;UserModule -->
<g id="edge34" class="edge">
<title>RoleRepo&#45;&gt;UserModule</title>
<path fill="none" stroke="black" d="M467.73,-83.88C467.73,-95.51 467.73,-108.8 467.73,-108.8 467.73,-108.8 589.34,-108.8 589.34,-108.8 589.34,-108.8 589.34,-114.61 589.34,-114.61"/>
<polygon fill="black" stroke="black" points="585.84,-114.61 589.34,-124.61 592.84,-114.61 585.84,-114.61"/>
</g>
<!-- RoleUC -->
<g id="node34" class="node">
<title>RoleUC</title>
<ellipse fill="#fdb462" stroke="black" cx="342" cy="-66.8" rx="42.88" ry="18"/>
<text text-anchor="middle" x="342" y="-62.6" font-family="Times,serif" font-size="14.00">RoleUC</text>
</g>
<!-- RoleUC&#45;&gt;UserModule -->
<g id="edge35" class="edge">
<title>RoleUC&#45;&gt;UserModule</title>
<path fill="none" stroke="black" d="M357.23,-83.73C357.23,-98.23 357.23,-116.8 357.23,-116.8 357.23,-116.8 581.68,-116.8 581.68,-116.8 581.68,-116.8 581.68,-117.59 581.68,-117.59"/>
<polygon fill="black" stroke="black" points="578.18,-114.74 581.68,-124.74 585.18,-114.74 578.18,-114.74"/>
</g>
<!-- UserFacade -->
<g id="node35" class="node">
<title>UserFacade</title>
<ellipse fill="#fdb462" stroke="black" cx="796" cy="-66.8" rx="56.72" ry="18"/>
<text text-anchor="middle" x="796" y="-62.6" font-family="Times,serif" font-size="14.00">UserFacade</text>
</g>
<!-- UserFacade&#45;&gt;UserModule -->
<g id="edge36" class="edge">
<title>UserFacade&#45;&gt;UserModule</title>
<path fill="none" stroke="black" d="M796,-84.86C796,-89.29 796,-92.8 796,-92.8 796,-92.8 650.58,-92.8 650.58,-92.8 650.58,-92.8 650.58,-114.75 650.58,-114.75"/>
<polygon fill="black" stroke="black" points="647.08,-114.75 650.58,-124.75 654.08,-114.75 647.08,-114.75"/>
</g>
<!-- UserRepo -->
<g id="node36" class="node">
<title>UserRepo</title>
<ellipse fill="#fdb462" stroke="black" cx="672" cy="-66.8" rx="49.8" ry="18"/>
<text text-anchor="middle" x="672" y="-62.6" font-family="Times,serif" font-size="14.00">UserRepo</text>
</g>
<!-- UserRepo&#45;&gt;UserModule -->
<g id="edge37" class="edge">
<title>UserRepo&#45;&gt;UserModule</title>
<path fill="none" stroke="black" d="M631.76,-77.37C631.76,-77.37 631.76,-114.73 631.76,-114.73"/>
<polygon fill="black" stroke="black" points="628.26,-114.73 631.76,-124.73 635.26,-114.73 628.26,-114.73"/>
</g>
<!-- UserUC -->
<g id="node37" class="node">
<title>UserUC</title>
<ellipse fill="#fdb462" stroke="black" cx="562" cy="-66.8" rx="42.85" ry="18"/>
<text text-anchor="middle" x="562" y="-62.6" font-family="Times,serif" font-size="14.00">UserUC</text>
</g>
<!-- UserUC&#45;&gt;UserModule -->
<g id="edge38" class="edge">
<title>UserUC&#45;&gt;UserModule</title>
<path fill="none" stroke="black" d="M597.01,-77.37C597.01,-77.37 597.01,-114.73 597.01,-114.73"/>
<polygon fill="black" stroke="black" points="593.51,-114.73 597.01,-124.73 600.51,-114.73 593.51,-114.73"/>
</g>
</g>
</svg>
