<?xml version="1.0" encoding="UTF-8" standalone="no"?>
<!DOCTYPE svg PUBLIC "-//W3C//DTD SVG 1.1//EN"
 "http://www.w3.org/Graphics/SVG/1.1/DTD/svg11.dtd">
<!-- Generated by graphviz version 2.47.3 (20210619.1520)
 -->
<!-- Title: dependencies Pages: 1 -->
<svg width="4610pt" height="337pt"
 viewBox="0.00 0.00 4610.00 336.80" xmlns="http://www.w3.org/2000/svg" xmlns:xlink="http://www.w3.org/1999/xlink">
<g id="graph0" class="graph" transform="scale(1 1) rotate(0) translate(4 332.8)">
<title>dependencies</title>
<polygon fill="white" stroke="transparent" points="-4,4 -4,-332.8 4606,-332.8 4606,4 -4,4"/>
<text text-anchor="middle" x="2301" y="-8.2" font-family="sans-serif" font-size="14.00">dependencies</text>
<g id="clust1" class="cluster">
<title>cluster_AuthModule</title>
<polygon fill="none" stroke="black" stroke-dasharray="1,5" points="630,-108.8 630,-244.8 1096,-244.8 1096,-108.8 630,-108.8"/>
</g>
<g id="clust3" class="cluster">
<title>cluster_AuthModule_imports</title>
<polygon fill="none" stroke="black" points="638,-116.8 638,-168.8 740,-168.8 740,-116.8 638,-116.8"/>
</g>
<g id="clust6" class="cluster">
<title>cluster_AuthModule_providers</title>
<polygon fill="none" stroke="black" points="748,-116.8 748,-168.8 1088,-168.8 1088,-116.8 748,-116.8"/>
</g>
<g id="clust7" class="cluster">
<title>cluster_AuthorizationModule</title>
<polygon fill="none" stroke="black" stroke-dasharray="1,5" points="2250,-32.8 2250,-252.8 2810,-252.8 2810,-32.8 2250,-32.8"/>
</g>
<g id="clust9" class="cluster">
<title>cluster_AuthorizationModule_imports</title>
<polygon fill="none" stroke="black" points="2680,-40.8 2680,-92.8 2802,-92.8 2802,-40.8 2680,-40.8"/>
</g>
<g id="clust10" class="cluster">
<title>cluster_AuthorizationModule_exports</title>
<polygon fill="none" stroke="black" points="2388,-192.8 2388,-244.8 2544,-244.8 2544,-192.8 2388,-192.8"/>
</g>
<g id="clust12" class="cluster">
<title>cluster_AuthorizationModule_providers</title>
<polygon fill="none" stroke="black" points="2258,-40.8 2258,-92.8 2672,-92.8 2672,-40.8 2258,-40.8"/>
</g>
<g id="clust13" class="cluster">
<title>cluster_ConsoleWriterModule</title>
<polygon fill="none" stroke="black" stroke-dasharray="1,5" points="3252,-108.8 3252,-320.8 3478,-320.8 3478,-108.8 3252,-108.8"/>
</g>
<g id="clust15" class="cluster">
<title>cluster_ConsoleWriterModule_imports</title>
<polygon fill="none" stroke="black" points="3260,-116.8 3260,-168.8 3470,-168.8 3470,-116.8 3260,-116.8"/>
</g>
<g id="clust16" class="cluster">
<title>cluster_ConsoleWriterModule_exports</title>
<polygon fill="none" stroke="black" points="3297,-260.8 3297,-312.8 3457,-312.8 3457,-260.8 3297,-260.8"/>
</g>
<g id="clust19" class="cluster">
<title>cluster_CoreModule</title>
<polygon fill="none" stroke="black" stroke-dasharray="1,5" points="1104,-108.8 1104,-244.8 1619,-244.8 1619,-108.8 1104,-108.8"/>
</g>
<g id="clust21" class="cluster">
<title>cluster_CoreModule_imports</title>
<polygon fill="none" stroke="black" points="1112,-116.8 1112,-168.8 1611,-168.8 1611,-116.8 1112,-116.8"/>
</g>
<g id="clust25" class="cluster">
<title>cluster_DatabaseManagementModule</title>
<polygon fill="none" stroke="black" stroke-dasharray="1,5" points="4098,-32.8 4098,-252.8 4382,-252.8 4382,-32.8 4098,-32.8"/>
</g>
<g id="clust27" class="cluster">
<title>cluster_DatabaseManagementModule_imports</title>
<polygon fill="none" stroke="black" points="4106,-40.8 4106,-92.8 4374,-92.8 4374,-40.8 4106,-40.8"/>
</g>
<g id="clust28" class="cluster">
<title>cluster_DatabaseManagementModule_exports</title>
<polygon fill="none" stroke="black" points="4122,-192.8 4122,-244.8 4324,-244.8 4324,-192.8 4122,-192.8"/>
</g>
<g id="clust37" class="cluster">
<title>cluster_FeathersModule</title>
<polygon fill="none" stroke="black" stroke-dasharray="1,5" points="2818,-108.8 2818,-176.8 3244,-176.8 3244,-108.8 2818,-108.8"/>
</g>
<g id="clust40" class="cluster">
<title>cluster_FeathersModule_exports</title>
<polygon fill="none" stroke="black" points="3062,-116.8 3062,-168.8 3236,-168.8 3236,-116.8 3062,-116.8"/>
</g>
<g id="clust42" class="cluster">
<title>cluster_FeathersModule_providers</title>
<polygon fill="none" stroke="black" points="2826,-116.8 2826,-168.8 3054,-168.8 3054,-116.8 2826,-116.8"/>
</g>
<g id="clust43" class="cluster">
<title>cluster_FileSystemModule</title>
<polygon fill="none" stroke="black" stroke-dasharray="1,5" points="4390,-32.8 4390,-252.8 4594,-252.8 4594,-32.8 4390,-32.8"/>
</g>
<g id="clust46" class="cluster">
<title>cluster_FileSystemModule_exports</title>
<polygon fill="none" stroke="black" points="4409,-192.8 4409,-244.8 4553,-244.8 4553,-192.8 4409,-192.8"/>
</g>
<g id="clust48" class="cluster">
<title>cluster_FileSystemModule_providers</title>
<polygon fill="none" stroke="black" points="4398,-40.8 4398,-92.8 4586,-92.8 4586,-40.8 4398,-40.8"/>
</g>
<g id="clust55" class="cluster">
<title>cluster_LearnroomModule</title>
<polygon fill="none" stroke="black" stroke-dasharray="1,5" points="1829,-108.8 1829,-244.8 1989,-244.8 1989,-108.8 1829,-108.8"/>
</g>
<g id="clust60" class="cluster">
<title>cluster_LearnroomModule_providers</title>
<polygon fill="none" stroke="black" points="1837,-116.8 1837,-168.8 1981,-168.8 1981,-116.8 1837,-116.8"/>
</g>
<g id="clust61" class="cluster">
<title>cluster_LoggerModule</title>
<polygon fill="none" stroke="black" stroke-dasharray="1,5" points="1627,-184.8 1627,-252.8 1821,-252.8 1821,-184.8 1627,-184.8"/>
</g>
<g id="clust64" class="cluster">
<title>cluster_LoggerModule_exports</title>
<polygon fill="none" stroke="black" points="1737,-192.8 1737,-244.8 1813,-244.8 1813,-192.8 1737,-192.8"/>
</g>
<g id="clust66" class="cluster">
<title>cluster_LoggerModule_providers</title>
<polygon fill="none" stroke="black" points="1635,-192.8 1635,-244.8 1729,-244.8 1729,-192.8 1635,-192.8"/>
</g>
<g id="clust73" class="cluster">
<title>cluster_ManagementModule</title>
<polygon fill="none" stroke="black" stroke-dasharray="1,5" points="3508,-108.8 3508,-244.8 3914,-244.8 3914,-108.8 3508,-108.8"/>
</g>
<g id="clust78" class="cluster">
<title>cluster_ManagementModule_providers</title>
<polygon fill="none" stroke="black" points="3516,-116.8 3516,-168.8 3906,-168.8 3906,-116.8 3516,-116.8"/>
</g>
<g id="clust85" class="cluster">
<title>cluster_NewsModule</title>
<polygon fill="none" stroke="black" stroke-dasharray="1,5" points="1997,-108.8 1997,-320.8 2242,-320.8 2242,-108.8 1997,-108.8"/>
</g>
<g id="clust88" class="cluster">
<title>cluster_NewsModule_exports</title>
<polygon fill="none" stroke="black" points="2015,-260.8 2015,-312.8 2099,-312.8 2099,-260.8 2015,-260.8"/>
</g>
<g id="clust90" class="cluster">
<title>cluster_NewsModule_providers</title>
<polygon fill="none" stroke="black" points="2005,-116.8 2005,-168.8 2234,-168.8 2234,-116.8 2005,-116.8"/>
</g>
<g id="clust91" class="cluster">
<title>cluster_ServerConsoleModule</title>
<polygon fill="none" stroke="black" stroke-dasharray="1,5" points="3922,-184.8 3922,-312.8 4090,-312.8 4090,-184.8 3922,-184.8"/>
</g>
<g id="clust96" class="cluster">
<title>cluster_ServerConsoleModule_providers</title>
<polygon fill="none" stroke="black" points="3930,-192.8 3930,-244.8 4082,-244.8 4082,-192.8 3930,-192.8"/>
</g>
<g id="clust97" class="cluster">
<title>cluster_ServerModule</title>
<polygon fill="none" stroke="black" stroke-dasharray="1,5" points="400,-184.8 400,-312.8 622,-312.8 622,-184.8 400,-184.8"/>
</g>
<g id="clust99" class="cluster">
<title>cluster_ServerModule_imports</title>
<polygon fill="none" stroke="black" points="408,-192.8 408,-244.8 614,-244.8 614,-192.8 408,-192.8"/>
</g>
<g id="clust103" class="cluster">
<title>cluster_TaskModule</title>
<polygon fill="none" stroke="black" stroke-dasharray="1,5" points="8,-108.8 8,-176.8 622,-176.8 622,-108.8 8,-108.8"/>
</g>
<g id="clust108" class="cluster">
<title>cluster_TaskModule_providers</title>
<polygon fill="none" stroke="black" points="16,-116.8 16,-168.8 614,-168.8 614,-116.8 16,-116.8"/>
</g>
<g id="clust109" class="cluster">
<title>cluster_UserModule</title>
<polygon fill="none" stroke="black" stroke-dasharray="1,5" points="334,-32.8 334,-100.8 1030,-100.8 1030,-32.8 334,-32.8"/>
</g>
<g id="clust112" class="cluster">
<title>cluster_UserModule_exports</title>
<polygon fill="none" stroke="black" points="920,-40.8 920,-92.8 1022,-92.8 1022,-40.8 920,-40.8"/>
</g>
<g id="clust114" class="cluster">
<title>cluster_UserModule_providers</title>
<polygon fill="none" stroke="black" points="342,-40.8 342,-92.8 912,-92.8 912,-40.8 342,-40.8"/>
</g>
<!-- UserModule -->
<g id="node1" class="node">
<title>UserModule</title>
<polygon fill="#8dd3c7" stroke="black" points="731.98,-160.8 728.98,-164.8 707.98,-164.8 704.98,-160.8 646.02,-160.8 646.02,-124.8 731.98,-124.8 731.98,-160.8"/>
<text text-anchor="middle" x="689" y="-138.6" font-family="Times,serif" font-size="14.00">UserModule</text>
</g>
<!-- AuthModule -->
<g id="node2" class="node">
<title>AuthModule</title>
<polygon fill="#8dd3c7" stroke="black" points="835.55,-236.8 832.55,-240.8 811.55,-240.8 808.55,-236.8 748.45,-236.8 748.45,-200.8 835.55,-200.8 835.55,-236.8"/>
<text text-anchor="middle" x="792" y="-214.6" font-family="Times,serif" font-size="14.00">AuthModule</text>
</g>
<!-- UserModule&#45;&gt;AuthModule -->
<g id="edge1" class="edge">
<title>UserModule&#45;&gt;AuthModule</title>
<path fill="none" stroke="black" d="M732.04,-142.8C743.1,-142.8 751.96,-142.8 751.96,-142.8 751.96,-142.8 751.96,-190.79 751.96,-190.79"/>
<polygon fill="black" stroke="black" points="748.46,-190.79 751.96,-200.79 755.46,-190.79 748.46,-190.79"/>
</g>
<!-- ServerModule -->
<g id="node41" class="node">
<title>ServerModule</title>
<polygon fill="#8dd3c7" stroke="black" points="614.08,-304.8 611.08,-308.8 590.08,-308.8 587.08,-304.8 517.92,-304.8 517.92,-268.8 614.08,-268.8 614.08,-304.8"/>
<text text-anchor="middle" x="566" y="-282.6" font-family="Times,serif" font-size="14.00">ServerModule</text>
</g>
<!-- UserModule&#45;&gt;ServerModule -->
<g id="edge43" class="edge">
<title>UserModule&#45;&gt;ServerModule</title>
<path fill="none" stroke="black" d="M645.62,-142.8C626.72,-142.8 608.81,-142.8 608.81,-142.8 608.81,-142.8 608.81,-258.56 608.81,-258.56"/>
<polygon fill="black" stroke="black" points="605.31,-258.56 608.81,-268.56 612.31,-258.56 605.31,-258.56"/>
</g>
<!-- UserFacade  -->
<g id="node46" class="node">
<title>UserFacade </title>
<polygon fill="#fb8072" stroke="black" points="1013.57,-84.8 928.43,-84.8 928.43,-48.8 1013.57,-48.8 1013.57,-84.8"/>
<text text-anchor="middle" x="971" y="-62.6" font-family="Times,serif" font-size="14.00">UserFacade </text>
</g>
<!-- UserModule&#45;&gt;UserFacade  -->
<g id="edge48" class="edge">
<title>UserModule&#45;&gt;UserFacade </title>
<path fill="none" stroke="black" stroke-dasharray="5,2" d="M716.66,-124.74C716.66,-120.31 716.66,-116.8 716.66,-116.8 716.66,-116.8 938.26,-116.8 938.26,-116.8 938.26,-116.8 938.26,-94.85 938.26,-94.85"/>
<polygon fill="black" stroke="black" points="941.76,-94.85 938.26,-84.85 934.76,-94.85 941.76,-94.85"/>
</g>
<!-- AuthModule&#45;&gt;ServerModule -->
<g id="edge37" class="edge">
<title>AuthModule&#45;&gt;ServerModule</title>
<path fill="none" stroke="black" d="M748.29,-218.8C694.85,-218.8 611.42,-218.8 611.42,-218.8 611.42,-218.8 611.42,-258.58 611.42,-258.58"/>
<polygon fill="black" stroke="black" points="607.92,-258.58 611.42,-268.58 614.92,-258.58 607.92,-258.58"/>
</g>
<!-- JwtStrategy -->
<g id="node3" class="node">
<title>JwtStrategy</title>
<ellipse fill="#fdb462" stroke="black" cx="1023" cy="-142.8" rx="56.76" ry="18"/>
<text text-anchor="middle" x="1023" y="-138.6" font-family="Times,serif" font-size="14.00">JwtStrategy</text>
</g>
<!-- JwtStrategy&#45;&gt;AuthModule -->
<g id="edge2" class="edge">
<title>JwtStrategy&#45;&gt;AuthModule</title>
<path fill="none" stroke="black" d="M1023,-160.83C1023,-181.57 1023,-212.8 1023,-212.8 1023,-212.8 845.72,-212.8 845.72,-212.8"/>
<polygon fill="black" stroke="black" points="845.72,-209.3 835.72,-212.8 845.72,-216.3 845.72,-209.3"/>
</g>
<!-- JwtValidationAdapter -->
<g id="node4" class="node">
<title>JwtValidationAdapter</title>
<ellipse fill="#fdb462" stroke="black" cx="852" cy="-142.8" rx="96.12" ry="18"/>
<text text-anchor="middle" x="852" y="-138.6" font-family="Times,serif" font-size="14.00">JwtValidationAdapter</text>
</g>
<!-- JwtValidationAdapter&#45;&gt;AuthModule -->
<g id="edge3" class="edge">
<title>JwtValidationAdapter&#45;&gt;AuthModule</title>
<path fill="none" stroke="black" d="M795.73,-157.45C795.73,-157.45 795.73,-190.7 795.73,-190.7"/>
<polygon fill="black" stroke="black" points="792.23,-190.7 795.73,-200.7 799.23,-190.7 792.23,-190.7"/>
</g>
<!-- FeathersModule -->
<g id="node5" class="node">
<title>FeathersModule</title>
<polygon fill="#8dd3c7" stroke="black" points="2794.47,-84.8 2791.47,-88.8 2770.47,-88.8 2767.47,-84.8 2687.53,-84.8 2687.53,-48.8 2794.47,-48.8 2794.47,-84.8"/>
<text text-anchor="middle" x="2741" y="-62.6" font-family="Times,serif" font-size="14.00">FeathersModule</text>
</g>
<!-- AuthorizationModule -->
<g id="node6" class="node">
<title>AuthorizationModule</title>
<polygon fill="#8dd3c7" stroke="black" points="2534.81,-160.8 2531.81,-164.8 2510.81,-164.8 2507.81,-160.8 2397.19,-160.8 2397.19,-124.8 2534.81,-124.8 2534.81,-160.8"/>
<text text-anchor="middle" x="2466" y="-138.6" font-family="Times,serif" font-size="14.00">AuthorizationModule</text>
</g>
<!-- FeathersModule&#45;&gt;AuthorizationModule -->
<g id="edge4" class="edge">
<title>FeathersModule&#45;&gt;AuthorizationModule</title>
<path fill="none" stroke="black" d="M2723.17,-84.83C2723.17,-105.57 2723.17,-136.8 2723.17,-136.8 2723.17,-136.8 2544.92,-136.8 2544.92,-136.8"/>
<polygon fill="black" stroke="black" points="2544.92,-133.3 2534.92,-136.8 2544.92,-140.3 2544.92,-133.3"/>
</g>
<!-- FeathersServiceProvider  -->
<g id="node21" class="node">
<title>FeathersServiceProvider </title>
<polygon fill="#fb8072" stroke="black" points="3227.61,-160.8 3070.39,-160.8 3070.39,-124.8 3227.61,-124.8 3227.61,-160.8"/>
<text text-anchor="middle" x="3149" y="-138.6" font-family="Times,serif" font-size="14.00">FeathersServiceProvider </text>
</g>
<!-- FeathersModule&#45;&gt;FeathersServiceProvider  -->
<g id="edge16" class="edge">
<title>FeathersModule&#45;&gt;FeathersServiceProvider </title>
<path fill="none" stroke="black" stroke-dasharray="5,2" d="M2794.76,-72.8C2905.55,-72.8 3149,-72.8 3149,-72.8 3149,-72.8 3149,-114.77 3149,-114.77"/>
<polygon fill="black" stroke="black" points="3145.5,-114.77 3149,-124.77 3152.5,-114.77 3145.5,-114.77"/>
</g>
<!-- AuthorizationService  -->
<g id="node7" class="node">
<title>AuthorizationService </title>
<polygon fill="#fb8072" stroke="black" points="2535.74,-236.8 2396.26,-236.8 2396.26,-200.8 2535.74,-200.8 2535.74,-236.8"/>
<text text-anchor="middle" x="2466" y="-214.6" font-family="Times,serif" font-size="14.00">AuthorizationService </text>
</g>
<!-- AuthorizationModule&#45;&gt;AuthorizationService  -->
<g id="edge5" class="edge">
<title>AuthorizationModule&#45;&gt;AuthorizationService </title>
<path fill="none" stroke="black" stroke-dasharray="5,2" d="M2466,-160.81C2466,-160.81 2466,-190.65 2466,-190.65"/>
<polygon fill="black" stroke="black" points="2462.5,-190.65 2466,-200.65 2469.5,-190.65 2462.5,-190.65"/>
</g>
<!-- NewsModule -->
<g id="node33" class="node">
<title>NewsModule</title>
<polygon fill="#8dd3c7" stroke="black" points="2102.92,-236.8 2099.92,-240.8 2078.92,-240.8 2075.92,-236.8 2011.08,-236.8 2011.08,-200.8 2102.92,-200.8 2102.92,-236.8"/>
<text text-anchor="middle" x="2057" y="-214.6" font-family="Times,serif" font-size="14.00">NewsModule</text>
</g>
<!-- AuthorizationModule&#45;&gt;NewsModule -->
<g id="edge29" class="edge">
<title>AuthorizationModule&#45;&gt;NewsModule</title>
<path fill="none" stroke="black" d="M2397.31,-142.8C2332.77,-142.8 2246.05,-142.8 2246.05,-142.8 2246.05,-142.8 2246.05,-224.8 2246.05,-224.8 2246.05,-224.8 2112.76,-224.8 2112.76,-224.8"/>
<polygon fill="black" stroke="black" points="2112.76,-221.3 2102.76,-224.8 2112.76,-228.3 2112.76,-221.3"/>
</g>
<!-- AuthorizationService -->
<g id="node8" class="node">
<title>AuthorizationService</title>
<ellipse fill="#fdb462" stroke="black" cx="2570" cy="-66.8" rx="93.76" ry="18"/>
<text text-anchor="middle" x="2570" y="-62.6" font-family="Times,serif" font-size="14.00">AuthorizationService</text>
</g>
<!-- AuthorizationService&#45;&gt;AuthorizationModule -->
<g id="edge6" class="edge">
<title>AuthorizationService&#45;&gt;AuthorizationModule</title>
<path fill="none" stroke="black" d="M2505.51,-80.04C2505.51,-80.04 2505.51,-114.59 2505.51,-114.59"/>
<polygon fill="black" stroke="black" points="2502.01,-114.59 2505.51,-124.59 2509.01,-114.59 2502.01,-114.59"/>
</g>
<!-- FeathersAuthProvider -->
<g id="node9" class="node">
<title>FeathersAuthProvider</title>
<ellipse fill="#fdb462" stroke="black" cx="2362" cy="-66.8" rx="96.13" ry="18"/>
<text text-anchor="middle" x="2362" y="-62.6" font-family="Times,serif" font-size="14.00">FeathersAuthProvider</text>
</g>
<!-- FeathersAuthProvider&#45;&gt;AuthorizationModule -->
<g id="edge7" class="edge">
<title>FeathersAuthProvider&#45;&gt;AuthorizationModule</title>
<path fill="none" stroke="black" d="M2427.83,-80.04C2427.83,-80.04 2427.83,-114.59 2427.83,-114.59"/>
<polygon fill="black" stroke="black" points="2424.33,-114.59 2427.83,-124.59 2431.33,-114.59 2424.33,-114.59"/>
</g>
<!-- ConsoleWriterService -->
<g id="node10" class="node">
<title>ConsoleWriterService</title>
<ellipse fill="#8dd3c7" stroke="black" cx="3365" cy="-142.8" rx="96.68" ry="18"/>
<text text-anchor="middle" x="3365" y="-138.6" font-family="Times,serif" font-size="14.00">ConsoleWriterService</text>
</g>
<!-- ConsoleWriterModule -->
<g id="node11" class="node">
<title>ConsoleWriterModule</title>
<polygon fill="#8dd3c7" stroke="black" points="3447.97,-236.8 3444.97,-240.8 3423.97,-240.8 3420.97,-236.8 3306.03,-236.8 3306.03,-200.8 3447.97,-200.8 3447.97,-236.8"/>
<text text-anchor="middle" x="3377" y="-214.6" font-family="Times,serif" font-size="14.00">ConsoleWriterModule</text>
</g>
<!-- ConsoleWriterService&#45;&gt;ConsoleWriterModule -->
<g id="edge8" class="edge">
<title>ConsoleWriterService&#45;&gt;ConsoleWriterModule</title>
<path fill="none" stroke="black" d="M3377,-160.81C3377,-160.81 3377,-190.65 3377,-190.65"/>
<polygon fill="black" stroke="black" points="3373.5,-190.65 3377,-200.65 3380.5,-190.65 3373.5,-190.65"/>
</g>
<!-- ManagementModule -->
<g id="node30" class="node">
<title>ManagementModule</title>
<polygon fill="#8dd3c7" stroke="black" points="3894.13,-236.8 3891.13,-240.8 3870.13,-240.8 3867.13,-236.8 3761.87,-236.8 3761.87,-200.8 3894.13,-200.8 3894.13,-236.8"/>
<text text-anchor="middle" x="3828" y="-214.6" font-family="Times,serif" font-size="14.00">ManagementModule</text>
</g>
<!-- ConsoleWriterService&#45;&gt;ManagementModule -->
<g id="edge26" class="edge">
<title>ConsoleWriterService&#45;&gt;ManagementModule</title>
<path fill="none" stroke="black" d="M3457.54,-148.27C3457.54,-165.69 3457.54,-218.8 3457.54,-218.8 3457.54,-218.8 3751.77,-218.8 3751.77,-218.8"/>
<polygon fill="black" stroke="black" points="3751.77,-222.3 3761.77,-218.8 3751.77,-215.3 3751.77,-222.3"/>
</g>
<!-- ConsoleWriterService  -->
<g id="node12" class="node">
<title>ConsoleWriterService </title>
<polygon fill="#fb8072" stroke="black" points="3448.9,-304.8 3305.1,-304.8 3305.1,-268.8 3448.9,-268.8 3448.9,-304.8"/>
<text text-anchor="middle" x="3377" y="-282.6" font-family="Times,serif" font-size="14.00">ConsoleWriterService </text>
</g>
<!-- ConsoleWriterModule&#45;&gt;ConsoleWriterService  -->
<g id="edge9" class="edge">
<title>ConsoleWriterModule&#45;&gt;ConsoleWriterService </title>
<path fill="none" stroke="black" stroke-dasharray="5,2" d="M3377,-237.02C3377,-237.02 3377,-258.53 3377,-258.53"/>
<polygon fill="black" stroke="black" points="3373.5,-258.53 3377,-268.53 3380.5,-258.53 3373.5,-258.53"/>
</g>
<!-- ServerConsoleModule -->
<g id="node37" class="node">
<title>ServerConsoleModule</title>
<polygon fill="#8dd3c7" stroke="black" points="4071.97,-304.8 4068.97,-308.8 4047.97,-308.8 4044.97,-304.8 3930.03,-304.8 3930.03,-268.8 4071.97,-268.8 4071.97,-304.8"/>
<text text-anchor="middle" x="4001" y="-282.6" font-family="Times,serif" font-size="14.00">ServerConsoleModule</text>
</g>
<!-- ConsoleWriterModule&#45;&gt;ServerConsoleModule -->
<g id="edge34" class="edge">
<title>ConsoleWriterModule&#45;&gt;ServerConsoleModule</title>
<path fill="none" stroke="black" d="M3448.24,-227.8C3451.38,-227.8 3453.25,-227.8 3453.25,-227.8 3453.25,-227.8 3453.25,-286.8 3453.25,-286.8 3453.25,-286.8 3919.95,-286.8 3919.95,-286.8"/>
<polygon fill="black" stroke="black" points="3919.95,-290.3 3929.95,-286.8 3919.95,-283.3 3919.95,-290.3"/>
</g>
<!-- ErrorModule -->
<g id="node13" class="node">
<title>ErrorModule</title>
<polygon fill="#8dd3c7" stroke="black" points="1209.58,-160.8 1206.58,-164.8 1185.58,-164.8 1182.58,-160.8 1120.42,-160.8 1120.42,-124.8 1209.58,-124.8 1209.58,-160.8"/>
<text text-anchor="middle" x="1165" y="-138.6" font-family="Times,serif" font-size="14.00">ErrorModule</text>
</g>
<!-- CoreModule -->
<g id="node17" class="node">
<title>CoreModule</title>
<polygon fill="#8dd3c7" stroke="black" points="1330.26,-236.8 1327.26,-240.8 1306.26,-240.8 1303.26,-236.8 1243.74,-236.8 1243.74,-200.8 1330.26,-200.8 1330.26,-236.8"/>
<text text-anchor="middle" x="1287" y="-214.6" font-family="Times,serif" font-size="14.00">CoreModule</text>
</g>
<!-- ErrorModule&#45;&gt;CoreModule -->
<g id="edge10" class="edge">
<title>ErrorModule&#45;&gt;CoreModule</title>
<path fill="none" stroke="black" d="M1165,-161C1165,-185.16 1165,-224.8 1165,-224.8 1165,-224.8 1233.64,-224.8 1233.64,-224.8"/>
<polygon fill="black" stroke="black" points="1233.64,-228.3 1243.64,-224.8 1233.64,-221.3 1233.64,-228.3"/>
</g>
<!-- InterceptorModule -->
<g id="node14" class="node">
<title>InterceptorModule</title>
<polygon fill="#8dd3c7" stroke="black" points="1485.46,-160.8 1482.46,-164.8 1461.46,-164.8 1458.46,-160.8 1364.54,-160.8 1364.54,-124.8 1485.46,-124.8 1485.46,-160.8"/>
<text text-anchor="middle" x="1425" y="-138.6" font-family="Times,serif" font-size="14.00">InterceptorModule</text>
</g>
<!-- InterceptorModule&#45;&gt;CoreModule -->
<g id="edge11" class="edge">
<title>InterceptorModule&#45;&gt;CoreModule</title>
<path fill="none" stroke="black" d="M1425,-160.83C1425,-181.57 1425,-212.8 1425,-212.8 1425,-212.8 1340.29,-212.8 1340.29,-212.8"/>
<polygon fill="black" stroke="black" points="1340.29,-209.3 1330.29,-212.8 1340.29,-216.3 1340.29,-209.3"/>
</g>
<!-- LoggerModule -->
<g id="node15" class="node">
<title>LoggerModule</title>
<polygon fill="#8dd3c7" stroke="black" points="1602.98,-160.8 1599.98,-164.8 1578.98,-164.8 1575.98,-160.8 1503.02,-160.8 1503.02,-124.8 1602.98,-124.8 1602.98,-160.8"/>
<text text-anchor="middle" x="1553" y="-138.6" font-family="Times,serif" font-size="14.00">LoggerModule</text>
</g>
<!-- LoggerModule&#45;&gt;CoreModule -->
<g id="edge12" class="edge">
<title>LoggerModule&#45;&gt;CoreModule</title>
<path fill="none" stroke="black" d="M1569.66,-161C1569.66,-185.16 1569.66,-224.8 1569.66,-224.8 1569.66,-224.8 1340.55,-224.8 1340.55,-224.8"/>
<polygon fill="black" stroke="black" points="1340.55,-221.3 1330.55,-224.8 1340.55,-228.3 1340.55,-221.3"/>
</g>
<!-- Logger  -->
<g id="node28" class="node">
<title>Logger </title>
<polygon fill="#fb8072" stroke="black" points="1804.93,-236.8 1745.07,-236.8 1745.07,-200.8 1804.93,-200.8 1804.93,-236.8"/>
<text text-anchor="middle" x="1775" y="-214.6" font-family="Times,serif" font-size="14.00">Logger </text>
</g>
<!-- LoggerModule&#45;&gt;Logger  -->
<g id="edge21" class="edge">
<title>LoggerModule&#45;&gt;Logger </title>
<path fill="none" stroke="black" stroke-dasharray="5,2" d="M1603.1,-136.8C1668.57,-136.8 1775,-136.8 1775,-136.8 1775,-136.8 1775,-190.6 1775,-190.6"/>
<polygon fill="black" stroke="black" points="1771.5,-190.6 1775,-200.6 1778.5,-190.6 1771.5,-190.6"/>
</g>
<!-- LoggerModule&#45;&gt;NewsModule -->
<g id="edge30" class="edge">
<title>LoggerModule&#45;&gt;NewsModule</title>
<path fill="none" stroke="black" d="M1536.34,-160.84C1536.34,-173.36 1536.34,-187.8 1536.34,-187.8 1536.34,-187.8 2042.24,-187.8 2042.24,-187.8 2042.24,-187.8 2042.24,-190.77 2042.24,-190.77"/>
<polygon fill="black" stroke="black" points="2038.74,-190.77 2042.24,-200.77 2045.74,-190.77 2038.74,-190.77"/>
</g>
<!-- ValidationModule -->
<g id="node16" class="node">
<title>ValidationModule</title>
<polygon fill="#8dd3c7" stroke="black" points="1346.15,-160.8 1343.15,-164.8 1322.15,-164.8 1319.15,-160.8 1227.85,-160.8 1227.85,-124.8 1346.15,-124.8 1346.15,-160.8"/>
<text text-anchor="middle" x="1287" y="-138.6" font-family="Times,serif" font-size="14.00">ValidationModule</text>
</g>
<!-- ValidationModule&#45;&gt;CoreModule -->
<g id="edge13" class="edge">
<title>ValidationModule&#45;&gt;CoreModule</title>
<path fill="none" stroke="black" d="M1287,-160.81C1287,-160.81 1287,-190.65 1287,-190.65"/>
<polygon fill="black" stroke="black" points="1283.5,-190.65 1287,-200.65 1290.5,-190.65 1283.5,-190.65"/>
</g>
<!-- CoreModule&#45;&gt;ServerModule -->
<g id="edge38" class="edge">
<title>CoreModule&#45;&gt;ServerModule</title>
<path fill="none" stroke="black" d="M1287,-236.82C1287,-254.17 1287,-277.8 1287,-277.8 1287,-277.8 624.15,-277.8 624.15,-277.8"/>
<polygon fill="black" stroke="black" points="624.15,-274.3 614.15,-277.8 624.15,-281.3 624.15,-274.3"/>
</g>
<!-- DatabaseManagementService -->
<g id="node18" class="node">
<title>DatabaseManagementService</title>
<ellipse fill="#8dd3c7" stroke="black" cx="4240" cy="-66.8" rx="125.58" ry="18"/>
<text text-anchor="middle" x="4240" y="-62.6" font-family="Times,serif" font-size="14.00">DatabaseManagementService</text>
</g>
<!-- DatabaseManagementModule -->
<g id="node19" class="node">
<title>DatabaseManagementModule</title>
<polygon fill="#8dd3c7" stroke="black" points="4314.93,-160.8 4311.93,-164.8 4290.93,-164.8 4287.93,-160.8 4131.07,-160.8 4131.07,-124.8 4314.93,-124.8 4314.93,-160.8"/>
<text text-anchor="middle" x="4223" y="-138.6" font-family="Times,serif" font-size="14.00">DatabaseManagementModule</text>
</g>
<!-- DatabaseManagementService&#45;&gt;DatabaseManagementModule -->
<g id="edge14" class="edge">
<title>DatabaseManagementService&#45;&gt;DatabaseManagementModule</title>
<path fill="none" stroke="black" d="M4223,-84.81C4223,-84.81 4223,-114.65 4223,-114.65"/>
<polygon fill="black" stroke="black" points="4219.5,-114.65 4223,-124.65 4226.5,-114.65 4219.5,-114.65"/>
</g>
<!-- DatabaseManagementService&#45;&gt;ManagementModule -->
<g id="edge27" class="edge">
<title>DatabaseManagementService&#45;&gt;ManagementModule</title>
<path fill="none" stroke="black" d="M4121.38,-60.8C4034.62,-60.8 3932.04,-60.8 3932.04,-60.8 3932.04,-60.8 3932.04,-209.8 3932.04,-209.8 3932.04,-209.8 3904.18,-209.8 3904.18,-209.8"/>
<polygon fill="black" stroke="black" points="3904.18,-206.3 3894.18,-209.8 3904.18,-213.3 3904.18,-206.3"/>
</g>
<!-- DatabaseManagementService  -->
<g id="node20" class="node">
<title>DatabaseManagementService </title>
<polygon fill="#fb8072" stroke="black" points="4315.86,-236.8 4130.14,-236.8 4130.14,-200.8 4315.86,-200.8 4315.86,-236.8"/>
<text text-anchor="middle" x="4223" y="-214.6" font-family="Times,serif" font-size="14.00">DatabaseManagementService </text>
</g>
<!-- DatabaseManagementModule&#45;&gt;DatabaseManagementService  -->
<g id="edge15" class="edge">
<title>DatabaseManagementModule&#45;&gt;DatabaseManagementService </title>
<path fill="none" stroke="black" stroke-dasharray="5,2" d="M4223,-160.81C4223,-160.81 4223,-190.65 4223,-190.65"/>
<polygon fill="black" stroke="black" points="4219.5,-190.65 4223,-200.65 4226.5,-190.65 4219.5,-190.65"/>
</g>
<!-- DatabaseManagementModule&#45;&gt;ManagementModule -->
<g id="edge23" class="edge">
<title>DatabaseManagementModule&#45;&gt;ManagementModule</title>
<path fill="none" stroke="black" d="M4130.78,-142.8C4046.23,-142.8 3934.06,-142.8 3934.06,-142.8 3934.06,-142.8 3934.06,-218.8 3934.06,-218.8 3934.06,-218.8 3904.27,-218.8 3904.27,-218.8"/>
<polygon fill="black" stroke="black" points="3904.27,-215.3 3894.27,-218.8 3904.27,-222.3 3904.27,-215.3"/>
</g>
<!-- FeathersServiceProvider -->
<g id="node22" class="node">
<title>FeathersServiceProvider</title>
<ellipse fill="#fdb462" stroke="black" cx="2940" cy="-142.8" rx="105.91" ry="18"/>
<text text-anchor="middle" x="2940" y="-138.6" font-family="Times,serif" font-size="14.00">FeathersServiceProvider</text>
</g>
<!-- FeathersServiceProvider&#45;&gt;FeathersModule -->
<g id="edge17" class="edge">
<title>FeathersServiceProvider&#45;&gt;FeathersModule</title>
<path fill="none" stroke="black" d="M2839.88,-148.8C2797.98,-148.8 2758.83,-148.8 2758.83,-148.8 2758.83,-148.8 2758.83,-95 2758.83,-95"/>
<polygon fill="black" stroke="black" points="2762.33,-95 2758.83,-85 2755.33,-95 2762.33,-95"/>
</g>
<!-- FileSystemAdapter  -->
<g id="node23" class="node">
<title>FileSystemAdapter </title>
<polygon fill="#fb8072" stroke="black" points="4544.59,-236.8 4417.41,-236.8 4417.41,-200.8 4544.59,-200.8 4544.59,-236.8"/>
<text text-anchor="middle" x="4481" y="-214.6" font-family="Times,serif" font-size="14.00">FileSystemAdapter </text>
</g>
<!-- FileSystemModule -->
<g id="node24" class="node">
<title>FileSystemModule</title>
<polygon fill="#8dd3c7" stroke="black" points="4542.05,-160.8 4539.05,-164.8 4518.05,-164.8 4515.05,-160.8 4419.95,-160.8 4419.95,-124.8 4542.05,-124.8 4542.05,-160.8"/>
<text text-anchor="middle" x="4481" y="-138.6" font-family="Times,serif" font-size="14.00">FileSystemModule</text>
</g>
<!-- FileSystemModule&#45;&gt;FileSystemAdapter  -->
<g id="edge18" class="edge">
<title>FileSystemModule&#45;&gt;FileSystemAdapter </title>
<path fill="none" stroke="black" stroke-dasharray="5,2" d="M4501.43,-160.81C4501.43,-160.81 4501.43,-190.65 4501.43,-190.65"/>
<polygon fill="black" stroke="black" points="4497.93,-190.65 4501.43,-200.65 4504.93,-190.65 4497.93,-190.65"/>
</g>
<!-- FileSystemModule&#45;&gt;ManagementModule -->
<g id="edge24" class="edge">
<title>FileSystemModule&#45;&gt;ManagementModule</title>
<path fill="none" stroke="black" d="M4460.57,-161.04C4460.57,-168.23 4460.57,-174.8 4460.57,-174.8 4460.57,-174.8 3850.11,-174.8 3850.11,-174.8 3850.11,-174.8 3850.11,-190.65 3850.11,-190.65"/>
<polygon fill="black" stroke="black" points="3846.61,-190.65 3850.11,-200.65 3853.61,-190.65 3846.61,-190.65"/>
</g>
<!-- FileSystemAdapter -->
<g id="node25" class="node">
<title>FileSystemAdapter</title>
<ellipse fill="#fdb462" stroke="black" cx="4492" cy="-66.8" rx="85.69" ry="18"/>
<text text-anchor="middle" x="4492" y="-62.6" font-family="Times,serif" font-size="14.00">FileSystemAdapter</text>
</g>
<!-- FileSystemAdapter&#45;&gt;FileSystemModule -->
<g id="edge19" class="edge">
<title>FileSystemAdapter&#45;&gt;FileSystemModule</title>
<path fill="none" stroke="black" d="M4481,-84.81C4481,-84.81 4481,-114.65 4481,-114.65"/>
<polygon fill="black" stroke="black" points="4477.5,-114.65 4481,-124.65 4484.5,-114.65 4477.5,-114.65"/>
</g>
<!-- DashboardUc -->
<g id="node26" class="node">
<title>DashboardUc</title>
<ellipse fill="#fdb462" stroke="black" cx="1909" cy="-142.8" rx="64.25" ry="18"/>
<text text-anchor="middle" x="1909" y="-138.6" font-family="Times,serif" font-size="14.00">DashboardUc</text>
</g>
<!-- LearnroomModule -->
<g id="node27" class="node">
<title>LearnroomModule</title>
<polygon fill="#8dd3c7" stroke="black" points="1963.74,-236.8 1960.74,-240.8 1939.74,-240.8 1936.74,-236.8 1842.26,-236.8 1842.26,-200.8 1963.74,-200.8 1963.74,-236.8"/>
<text text-anchor="middle" x="1903" y="-214.6" font-family="Times,serif" font-size="14.00">LearnroomModule</text>
</g>
<!-- DashboardUc&#45;&gt;LearnroomModule -->
<g id="edge20" class="edge">
<title>DashboardUc&#45;&gt;LearnroomModule</title>
<path fill="none" stroke="black" d="M1904.37,-160.81C1904.37,-160.81 1904.37,-190.65 1904.37,-190.65"/>
<polygon fill="black" stroke="black" points="1900.87,-190.65 1904.37,-200.65 1907.87,-190.65 1900.87,-190.65"/>
</g>
<!-- LearnroomModule&#45;&gt;ServerModule -->
<g id="edge39" class="edge">
<title>LearnroomModule&#45;&gt;ServerModule</title>
<path fill="none" stroke="black" d="M1903,-237.02C1903,-257.17 1903,-286.8 1903,-286.8 1903,-286.8 624.37,-286.8 624.37,-286.8"/>
<polygon fill="black" stroke="black" points="624.37,-283.3 614.37,-286.8 624.37,-290.3 624.37,-283.3"/>
</g>
<!-- Logger -->
<g id="node29" class="node">
<title>Logger</title>
<ellipse fill="#fdb462" stroke="black" cx="1682" cy="-218.8" rx="38.85" ry="18"/>
<text text-anchor="middle" x="1682" y="-214.6" font-family="Times,serif" font-size="14.00">Logger</text>
</g>
<!-- Logger&#45;&gt;LoggerModule -->
<g id="edge22" class="edge">
<title>Logger&#45;&gt;LoggerModule</title>
<path fill="none" stroke="black" d="M1682,-200.77C1682,-180.03 1682,-148.8 1682,-148.8 1682,-148.8 1613.24,-148.8 1613.24,-148.8"/>
<polygon fill="black" stroke="black" points="1613.24,-145.3 1603.24,-148.8 1613.24,-152.3 1613.24,-145.3"/>
</g>
<!-- ManagementModule&#45;&gt;ServerConsoleModule -->
<g id="edge35" class="edge">
<title>ManagementModule&#45;&gt;ServerConsoleModule</title>
<path fill="none" stroke="black" d="M3894.3,-227.8C3916.67,-227.8 3936.09,-227.8 3936.09,-227.8 3936.09,-227.8 3936.09,-258.78 3936.09,-258.78"/>
<polygon fill="black" stroke="black" points="3932.59,-258.78 3936.09,-268.78 3939.59,-258.78 3932.59,-258.78"/>
</g>
<!-- BsonConverter -->
<g id="node31" class="node">
<title>BsonConverter</title>
<ellipse fill="#fdb462" stroke="black" cx="3828" cy="-142.8" rx="69.5" ry="18"/>
<text text-anchor="middle" x="3828" y="-138.6" font-family="Times,serif" font-size="14.00">BsonConverter</text>
</g>
<!-- BsonConverter&#45;&gt;ManagementModule -->
<g id="edge25" class="edge">
<title>BsonConverter&#45;&gt;ManagementModule</title>
<path fill="none" stroke="black" d="M3805.89,-160.05C3805.89,-160.05 3805.89,-190.56 3805.89,-190.56"/>
<polygon fill="black" stroke="black" points="3802.39,-190.56 3805.89,-200.56 3809.39,-190.56 3802.39,-190.56"/>
</g>
<!-- DatabaseManagementUc -->
<g id="node32" class="node">
<title>DatabaseManagementUc</title>
<ellipse fill="#fdb462" stroke="black" cx="3632" cy="-142.8" rx="108.19" ry="18"/>
<text text-anchor="middle" x="3632" y="-138.6" font-family="Times,serif" font-size="14.00">DatabaseManagementUc</text>
</g>
<!-- DatabaseManagementUc&#45;&gt;ManagementModule -->
<g id="edge28" class="edge">
<title>DatabaseManagementUc&#45;&gt;ManagementModule</title>
<path fill="none" stroke="black" d="M3632,-161.11C3632,-180.95 3632,-209.8 3632,-209.8 3632,-209.8 3751.64,-209.8 3751.64,-209.8"/>
<polygon fill="black" stroke="black" points="3751.64,-213.3 3761.64,-209.8 3751.64,-206.3 3751.64,-213.3"/>
</g>
<!-- NewsUc  -->
<g id="node34" class="node">
<title>NewsUc </title>
<polygon fill="#fb8072" stroke="black" points="2090.69,-304.8 2023.31,-304.8 2023.31,-268.8 2090.69,-268.8 2090.69,-304.8"/>
<text text-anchor="middle" x="2057" y="-282.6" font-family="Times,serif" font-size="14.00">NewsUc </text>
</g>
<!-- NewsModule&#45;&gt;NewsUc  -->
<g id="edge31" class="edge">
<title>NewsModule&#45;&gt;NewsUc </title>
<path fill="none" stroke="black" stroke-dasharray="5,2" d="M2057,-237.02C2057,-237.02 2057,-258.53 2057,-258.53"/>
<polygon fill="black" stroke="black" points="2053.5,-258.53 2057,-268.53 2060.5,-258.53 2053.5,-258.53"/>
</g>
<!-- NewsModule&#45;&gt;ServerModule -->
<g id="edge41" class="edge">
<title>NewsModule&#45;&gt;ServerModule</title>
<path fill="none" stroke="black" d="M2017.22,-237.05C2017.22,-259.82 2017.22,-295.8 2017.22,-295.8 2017.22,-295.8 624.28,-295.8 624.28,-295.8"/>
<polygon fill="black" stroke="black" points="624.28,-292.3 614.28,-295.8 624.28,-299.3 624.28,-292.3"/>
</g>
<!-- NewsRepo -->
<g id="node35" class="node">
<title>NewsRepo</title>
<ellipse fill="#fdb462" stroke="black" cx="2173" cy="-142.8" rx="53.31" ry="18"/>
<text text-anchor="middle" x="2173" y="-138.6" font-family="Times,serif" font-size="14.00">NewsRepo</text>
</g>
<!-- NewsRepo&#45;&gt;NewsModule -->
<g id="edge32" class="edge">
<title>NewsRepo&#45;&gt;NewsModule</title>
<path fill="none" stroke="black" d="M2173,-160.83C2173,-181.57 2173,-212.8 2173,-212.8 2173,-212.8 2112.85,-212.8 2112.85,-212.8"/>
<polygon fill="black" stroke="black" points="2112.85,-209.3 2102.85,-212.8 2112.85,-216.3 2112.85,-209.3"/>
</g>
<!-- NewsUc -->
<g id="node36" class="node">
<title>NewsUc</title>
<ellipse fill="#fdb462" stroke="black" cx="2057" cy="-142.8" rx="44.06" ry="18"/>
<text text-anchor="middle" x="2057" y="-138.6" font-family="Times,serif" font-size="14.00">NewsUc</text>
</g>
<!-- NewsUc&#45;&gt;NewsModule -->
<g id="edge33" class="edge">
<title>NewsUc&#45;&gt;NewsModule</title>
<path fill="none" stroke="black" d="M2071.76,-160.05C2071.76,-160.05 2071.76,-190.56 2071.76,-190.56"/>
<polygon fill="black" stroke="black" points="2068.26,-190.56 2071.76,-200.56 2075.26,-190.56 2068.26,-190.56"/>
</g>
<!-- ConsoleWriter -->
<g id="node38" class="node">
<title>ConsoleWriter</title>
<ellipse fill="#fdb462" stroke="black" cx="4006" cy="-218.8" rx="67.77" ry="18"/>
<text text-anchor="middle" x="4006" y="-214.6" font-family="Times,serif" font-size="14.00">ConsoleWriter</text>
</g>
<!-- ConsoleWriter&#45;&gt;ServerConsoleModule -->
<g id="edge36" class="edge">
<title>ConsoleWriter&#45;&gt;ServerConsoleModule</title>
<path fill="none" stroke="black" d="M4005.05,-237.02C4005.05,-237.02 4005.05,-258.53 4005.05,-258.53"/>
<polygon fill="black" stroke="black" points="4001.55,-258.53 4005.05,-268.53 4008.55,-258.53 4001.55,-258.53"/>
</g>
<!-- MailModule -->
<g id="node39" class="node">
<title>MailModule</title>
<polygon fill="#8dd3c7" stroke="black" points="605.99,-236.8 602.99,-240.8 581.99,-240.8 578.99,-236.8 520.01,-236.8 520.01,-200.8 605.99,-200.8 605.99,-236.8"/>
<text text-anchor="middle" x="563" y="-214.6" font-family="Times,serif" font-size="14.00">MailModule</text>
</g>
<!-- MailModule&#45;&gt;ServerModule -->
<g id="edge40" class="edge">
<title>MailModule&#45;&gt;ServerModule</title>
<path fill="none" stroke="black" d="M563,-237.02C563,-237.02 563,-258.53 563,-258.53"/>
<polygon fill="black" stroke="black" points="559.5,-258.53 563,-268.53 566.5,-258.53 559.5,-258.53"/>
</g>
<!-- TaskModule -->
<g id="node40" class="node">
<title>TaskModule</title>
<polygon fill="#8dd3c7" stroke="black" points="502.26,-236.8 499.26,-240.8 478.26,-240.8 475.26,-236.8 415.74,-236.8 415.74,-200.8 502.26,-200.8 502.26,-236.8"/>
<text text-anchor="middle" x="459" y="-214.6" font-family="Times,serif" font-size="14.00">TaskModule</text>
</g>
<!-- TaskModule&#45;&gt;ServerModule -->
<g id="edge42" class="edge">
<title>TaskModule&#45;&gt;ServerModule</title>
<path fill="none" stroke="black" d="M459,-237.02C459,-257.17 459,-286.8 459,-286.8 459,-286.8 507.82,-286.8 507.82,-286.8"/>
<polygon fill="black" stroke="black" points="507.82,-290.3 517.82,-286.8 507.82,-283.3 507.82,-290.3"/>
</g>
<!-- CourseRepo -->
<g id="node42" class="node">
<title>CourseRepo</title>
<ellipse fill="#fdb462" stroke="black" cx="325" cy="-142.8" rx="58.55" ry="18"/>
<text text-anchor="middle" x="325" y="-138.6" font-family="Times,serif" font-size="14.00">CourseRepo</text>
</g>
<!-- CourseRepo&#45;&gt;TaskModule -->
<g id="edge44" class="edge">
<title>CourseRepo&#45;&gt;TaskModule</title>
<path fill="none" stroke="black" d="M325,-160.83C325,-181.57 325,-212.8 325,-212.8 325,-212.8 405.49,-212.8 405.49,-212.8"/>
<polygon fill="black" stroke="black" points="405.49,-216.3 415.49,-212.8 405.49,-209.3 405.49,-216.3"/>
</g>
<!-- TaskAuthorizationService -->
<g id="node43" class="node">
<title>TaskAuthorizationService</title>
<ellipse fill="#fdb462" stroke="black" cx="136" cy="-142.8" rx="112.3" ry="18"/>
<text text-anchor="middle" x="136" y="-138.6" font-family="Times,serif" font-size="14.00">TaskAuthorizationService</text>
</g>
<!-- TaskAuthorizationService&#45;&gt;TaskModule -->
<g id="edge45" class="edge">
<title>TaskAuthorizationService&#45;&gt;TaskModule</title>
<path fill="none" stroke="black" d="M136,-161C136,-185.16 136,-224.8 136,-224.8 136,-224.8 405.44,-224.8 405.44,-224.8"/>
<polygon fill="black" stroke="black" points="405.44,-228.3 415.44,-224.8 405.44,-221.3 405.44,-228.3"/>
</g>
<!-- TaskRepo -->
<g id="node44" class="node">
<title>TaskRepo</title>
<ellipse fill="#fdb462" stroke="black" cx="556" cy="-142.8" rx="50.38" ry="18"/>
<text text-anchor="middle" x="556" y="-138.6" font-family="Times,serif" font-size="14.00">TaskRepo</text>
</g>
<!-- TaskRepo&#45;&gt;TaskModule -->
<g id="edge46" class="edge">
<title>TaskRepo&#45;&gt;TaskModule</title>
<path fill="none" stroke="black" d="M511.88,-151.52C511.88,-171.48 511.88,-218.8 511.88,-218.8 511.88,-218.8 510.96,-218.8 510.96,-218.8"/>
<polygon fill="black" stroke="black" points="512.67,-215.3 502.67,-218.8 512.67,-222.3 512.67,-215.3"/>
</g>
<!-- TaskUC -->
<g id="node45" class="node">
<title>TaskUC</title>
<ellipse fill="#fdb462" stroke="black" cx="445" cy="-142.8" rx="43.44" ry="18"/>
<text text-anchor="middle" x="445" y="-138.6" font-family="Times,serif" font-size="14.00">TaskUC</text>
</g>
<!-- TaskUC&#45;&gt;TaskModule -->
<g id="edge47" class="edge">
<title>TaskUC&#45;&gt;TaskModule</title>
<path fill="none" stroke="black" d="M451.92,-160.81C451.92,-160.81 451.92,-190.65 451.92,-190.65"/>
<polygon fill="black" stroke="black" points="448.42,-190.65 451.92,-200.65 455.42,-190.65 448.42,-190.65"/>
</g>
<!-- RoleRepo -->
<g id="node47" class="node">
<title>RoleRepo</title>
<ellipse fill="#fdb462" stroke="black" cx="634" cy="-66.8" rx="49.82" ry="18"/>
<text text-anchor="middle" x="634" y="-62.6" font-family="Times,serif" font-size="14.00">RoleRepo</text>
</g>
<!-- RoleRepo&#45;&gt;UserModule -->
<g id="edge49" class="edge">
<title>RoleRepo&#45;&gt;UserModule</title>
<path fill="none" stroke="black" d="M674.25,-77.37C674.25,-77.37 674.25,-114.73 674.25,-114.73"/>
<polygon fill="black" stroke="black" points="670.75,-114.73 674.25,-124.73 677.75,-114.73 670.75,-114.73"/>
</g>
<!-- RoleUC -->
<g id="node48" class="node">
<title>RoleUC</title>
<ellipse fill="#fdb462" stroke="black" cx="524" cy="-66.8" rx="42.88" ry="18"/>
<text text-anchor="middle" x="524" y="-62.6" font-family="Times,serif" font-size="14.00">RoleUC</text>
</g>
<!-- RoleUC&#45;&gt;UserModule -->
<g id="edge50" class="edge">
<title>RoleUC&#45;&gt;UserModule</title>
<path fill="none" stroke="black" d="M536.25,-84.29C536.25,-88.99 536.25,-92.8 536.25,-92.8 536.25,-92.8 664.84,-92.8 664.84,-92.8 664.84,-92.8 664.84,-114.75 664.84,-114.75"/>
<polygon fill="black" stroke="black" points="661.34,-114.75 664.84,-124.75 668.34,-114.75 661.34,-114.75"/>
</g>
<!-- UserFacade -->
<g id="node49" class="node">
<title>UserFacade</title>
<ellipse fill="#fdb462" stroke="black" cx="407" cy="-66.8" rx="56.72" ry="18"/>
<text text-anchor="middle" x="407" y="-62.6" font-family="Times,serif" font-size="14.00">UserFacade</text>
</g>
<!-- UserFacade&#45;&gt;UserModule -->
<g id="edge51" class="edge">
<title>UserFacade&#45;&gt;UserModule</title>
<path fill="none" stroke="black" d="M432.7,-83C432.7,-91.76 432.7,-100.8 432.7,-100.8 432.7,-100.8 655.42,-100.8 655.42,-100.8 655.42,-100.8 655.42,-114.74 655.42,-114.74"/>
<polygon fill="black" stroke="black" points="651.92,-114.74 655.42,-124.74 658.92,-114.74 651.92,-114.74"/>
</g>
<!-- UserRepo -->
<g id="node50" class="node">
<title>UserRepo</title>
<ellipse fill="#fdb462" stroke="black" cx="854" cy="-66.8" rx="49.8" ry="18"/>
<text text-anchor="middle" x="854" y="-62.6" font-family="Times,serif" font-size="14.00">UserRepo</text>
</g>
<!-- UserRepo&#45;&gt;UserModule -->
<g id="edge52" class="edge">
<title>UserRepo&#45;&gt;UserModule</title>
<path fill="none" stroke="black" d="M854,-84.86C854,-96.24 854,-108.8 854,-108.8 854,-108.8 724.32,-108.8 724.32,-108.8 724.32,-108.8 724.32,-114.61 724.32,-114.61"/>
<polygon fill="black" stroke="black" points="720.82,-114.61 724.32,-124.61 727.82,-114.61 720.82,-114.61"/>
</g>
<!-- UserUC -->
<g id="node51" class="node">
<title>UserUC</title>
<ellipse fill="#fdb462" stroke="black" cx="744" cy="-66.8" rx="42.85" ry="18"/>
<text text-anchor="middle" x="744" y="-62.6" font-family="Times,serif" font-size="14.00">UserUC</text>
</g>
<!-- UserUC&#45;&gt;UserModule -->
<g id="edge53" class="edge">
<title>UserUC&#45;&gt;UserModule</title>
<path fill="none" stroke="black" d="M708.99,-77.37C708.99,-77.37 708.99,-114.73 708.99,-114.73"/>
<polygon fill="black" stroke="black" points="705.49,-114.73 708.99,-124.73 712.49,-114.73 705.49,-114.73"/>
</g>
</g>
</svg>
