<?xml version="1.0" encoding="UTF-8" standalone="no"?>
<!DOCTYPE svg PUBLIC "-//W3C//DTD SVG 1.1//EN"
 "http://www.w3.org/Graphics/SVG/1.1/DTD/svg11.dtd">
<!-- Generated by graphviz version 2.47.3 (20210619.1520)
 -->
<!-- Title: dependencies Pages: 1 -->
<svg width="3702pt" height="337pt"
 viewBox="0.00 0.00 3702.00 336.80" xmlns="http://www.w3.org/2000/svg" xmlns:xlink="http://www.w3.org/1999/xlink">
<g id="graph0" class="graph" transform="scale(1 1) rotate(0) translate(4 332.8)">
<title>dependencies</title>
<polygon fill="white" stroke="transparent" points="-4,4 -4,-332.8 3698,-332.8 3698,4 -4,4"/>
<text text-anchor="middle" x="1847" y="-8.2" font-family="sans-serif" font-size="14.00">dependencies</text>
<g id="clust1" class="cluster">
<title>cluster_AuthModule</title>
<polygon fill="none" stroke="black" stroke-dasharray="1,5" points="1450,-108.8 1450,-244.8 1706,-244.8 1706,-108.8 1450,-108.8"/>
</g>
<g id="clust3" class="cluster">
<title>cluster_AuthModule_imports</title>
<polygon fill="none" stroke="black" points="1458,-116.8 1458,-168.8 1560,-168.8 1560,-116.8 1458,-116.8"/>
</g>
<g id="clust6" class="cluster">
<title>cluster_AuthModule_providers</title>
<polygon fill="none" stroke="black" points="1568,-116.8 1568,-168.8 1698,-168.8 1698,-116.8 1568,-116.8"/>
</g>
<g id="clust7" class="cluster">
<title>cluster_AuthorizationModule</title>
<polygon fill="none" stroke="black" stroke-dasharray="1,5" points="2692,-32.8 2692,-252.8 3252,-252.8 3252,-32.8 2692,-32.8"/>
</g>
<g id="clust9" class="cluster">
<title>cluster_AuthorizationModule_imports</title>
<polygon fill="none" stroke="black" points="3122,-40.8 3122,-92.8 3244,-92.8 3244,-40.8 3122,-40.8"/>
</g>
<g id="clust10" class="cluster">
<title>cluster_AuthorizationModule_exports</title>
<polygon fill="none" stroke="black" points="2830,-192.8 2830,-244.8 2986,-244.8 2986,-192.8 2830,-192.8"/>
</g>
<g id="clust12" class="cluster">
<title>cluster_AuthorizationModule_providers</title>
<polygon fill="none" stroke="black" points="2700,-40.8 2700,-92.8 3114,-92.8 3114,-40.8 2700,-40.8"/>
</g>
<g id="clust13" class="cluster">
<title>cluster_CoreModule</title>
<polygon fill="none" stroke="black" stroke-dasharray="1,5" points="1714,-108.8 1714,-244.8 2229,-244.8 2229,-108.8 1714,-108.8"/>
</g>
<g id="clust15" class="cluster">
<title>cluster_CoreModule_imports</title>
<polygon fill="none" stroke="black" points="1722,-116.8 1722,-168.8 2221,-168.8 2221,-116.8 1722,-116.8"/>
</g>
<g id="clust25" class="cluster">
<title>cluster_FeathersModule</title>
<polygon fill="none" stroke="black" stroke-dasharray="1,5" points="3260,-108.8 3260,-176.8 3686,-176.8 3686,-108.8 3260,-108.8"/>
</g>
<g id="clust28" class="cluster">
<title>cluster_FeathersModule_exports</title>
<polygon fill="none" stroke="black" points="3504,-116.8 3504,-168.8 3678,-168.8 3678,-116.8 3504,-116.8"/>
</g>
<g id="clust30" class="cluster">
<title>cluster_FeathersModule_providers</title>
<polygon fill="none" stroke="black" points="3268,-116.8 3268,-168.8 3496,-168.8 3496,-116.8 3268,-116.8"/>
</g>
<g id="clust37" class="cluster">
<title>cluster_LearnroomModule</title>
<polygon fill="none" stroke="black" stroke-dasharray="1,5" points="721,-32.8 721,-252.8 1354,-252.8 1354,-32.8 721,-32.8"/>
</g>
<g id="clust40" class="cluster">
<title>cluster_LearnroomModule_exports</title>
<polygon fill="none" stroke="black" points="785,-192.8 785,-244.8 923,-244.8 923,-192.8 785,-192.8"/>
</g>
<g id="clust42" class="cluster">
<title>cluster_LearnroomModule_providers</title>
<polygon fill="none" stroke="black" points="729,-40.8 729,-92.8 1346,-92.8 1346,-40.8 729,-40.8"/>
</g>
<g id="clust43" class="cluster">
<title>cluster_LoggerModule</title>
<polygon fill="none" stroke="black" stroke-dasharray="1,5" points="2237,-184.8 2237,-252.8 2431,-252.8 2431,-184.8 2237,-184.8"/>
</g>
<g id="clust46" class="cluster">
<title>cluster_LoggerModule_exports</title>
<polygon fill="none" stroke="black" points="2347,-192.8 2347,-244.8 2423,-244.8 2423,-192.8 2347,-192.8"/>
</g>
<g id="clust48" class="cluster">
<title>cluster_LoggerModule_providers</title>
<polygon fill="none" stroke="black" points="2245,-192.8 2245,-244.8 2339,-244.8 2339,-192.8 2245,-192.8"/>
</g>
<g id="clust67" class="cluster">
<title>cluster_NewsModule</title>
<polygon fill="none" stroke="black" stroke-dasharray="1,5" points="2439,-108.8 2439,-320.8 2684,-320.8 2684,-108.8 2439,-108.8"/>
</g>
<g id="clust70" class="cluster">
<title>cluster_NewsModule_exports</title>
<polygon fill="none" stroke="black" points="2457,-260.8 2457,-312.8 2541,-312.8 2541,-260.8 2457,-260.8"/>
</g>
<g id="clust72" class="cluster">
<title>cluster_NewsModule_providers</title>
<polygon fill="none" stroke="black" points="2447,-116.8 2447,-168.8 2676,-168.8 2676,-116.8 2447,-116.8"/>
</g>
<g id="clust73" class="cluster">
<title>cluster_ServerModule</title>
<polygon fill="none" stroke="black" stroke-dasharray="1,5" points="491,-184.8 491,-312.8 713,-312.8 713,-184.8 491,-184.8"/>
</g>
<g id="clust75" class="cluster">
<title>cluster_ServerModule_imports</title>
<polygon fill="none" stroke="black" points="499,-192.8 499,-244.8 705,-244.8 705,-192.8 499,-192.8"/>
</g>
<g id="clust79" class="cluster">
<title>cluster_TaskModule</title>
<polygon fill="none" stroke="black" stroke-dasharray="1,5" points="8,-108.8 8,-176.8 713,-176.8 713,-108.8 8,-108.8"/>
</g>
<g id="clust84" class="cluster">
<title>cluster_TaskModule_providers</title>
<polygon fill="none" stroke="black" points="16,-116.8 16,-168.8 705,-168.8 705,-116.8 16,-116.8"/>
</g>
<g id="clust85" class="cluster">
<title>cluster_UserModule</title>
<polygon fill="none" stroke="black" stroke-dasharray="1,5" points="1362,-32.8 1362,-100.8 2058,-100.8 2058,-32.8 1362,-32.8"/>
</g>
<g id="clust88" class="cluster">
<title>cluster_UserModule_exports</title>
<polygon fill="none" stroke="black" points="1948,-40.8 1948,-92.8 2050,-92.8 2050,-40.8 1948,-40.8"/>
</g>
<g id="clust90" class="cluster">
<title>cluster_UserModule_providers</title>
<polygon fill="none" stroke="black" points="1370,-40.8 1370,-92.8 1940,-92.8 1940,-40.8 1370,-40.8"/>
</g>
<!-- UserModule -->
<g id="node1" class="node">
<title>UserModule</title>
<polygon fill="#8dd3c7" stroke="black" points="1551.98,-160.8 1548.98,-164.8 1527.98,-164.8 1524.98,-160.8 1466.02,-160.8 1466.02,-124.8 1551.98,-124.8 1551.98,-160.8"/>
<text text-anchor="middle" x="1509" y="-138.6" font-family="Times,serif" font-size="14.00">UserModule</text>
</g>
<!-- AuthModule -->
<g id="node2" class="node">
<title>AuthModule</title>
<polygon fill="#8dd3c7" stroke="black" points="1552.55,-236.8 1549.55,-240.8 1528.55,-240.8 1525.55,-236.8 1465.45,-236.8 1465.45,-200.8 1552.55,-200.8 1552.55,-236.8"/>
<text text-anchor="middle" x="1509" y="-214.6" font-family="Times,serif" font-size="14.00">AuthModule</text>
</g>
<!-- UserModule&#45;&gt;AuthModule -->
<g id="edge1" class="edge">
<title>UserModule&#45;&gt;AuthModule</title>
<path fill="none" stroke="black" d="M1509,-160.81C1509,-160.81 1509,-190.65 1509,-190.65"/>
<polygon fill="black" stroke="black" points="1505.5,-190.65 1509,-200.65 1512.5,-190.65 1505.5,-190.65"/>
</g>
<!-- ServerModule -->
<g id="node30" class="node">
<title>ServerModule</title>
<polygon fill="#8dd3c7" stroke="black" points="705.08,-304.8 702.08,-308.8 681.08,-308.8 678.08,-304.8 608.92,-304.8 608.92,-268.8 705.08,-268.8 705.08,-304.8"/>
<text text-anchor="middle" x="657" y="-282.6" font-family="Times,serif" font-size="14.00">ServerModule</text>
</g>
<!-- UserModule&#45;&gt;ServerModule -->
<g id="edge31" class="edge">
<title>UserModule&#45;&gt;ServerModule</title>
<path fill="none" stroke="black" d="M1465.77,-133.8C1443.52,-133.8 1421,-133.8 1421,-133.8 1421,-133.8 1421,-276.8 1421,-276.8 1421,-276.8 715.08,-276.8 715.08,-276.8"/>
<polygon fill="black" stroke="black" points="715.08,-273.3 705.08,-276.8 715.08,-280.3 715.08,-273.3"/>
</g>
<!-- UserFacade  -->
<g id="node35" class="node">
<title>UserFacade </title>
<polygon fill="#fb8072" stroke="black" points="2041.57,-84.8 1956.43,-84.8 1956.43,-48.8 2041.57,-48.8 2041.57,-84.8"/>
<text text-anchor="middle" x="1999" y="-62.6" font-family="Times,serif" font-size="14.00">UserFacade </text>
</g>
<!-- UserModule&#45;&gt;UserFacade  -->
<g id="edge37" class="edge">
<title>UserModule&#45;&gt;UserFacade </title>
<path fill="none" stroke="black" stroke-dasharray="5,2" d="M1504.9,-124.74C1504.9,-120.31 1504.9,-116.8 1504.9,-116.8 1504.9,-116.8 1971.85,-116.8 1971.85,-116.8 1971.85,-116.8 1971.85,-94.85 1971.85,-94.85"/>
<polygon fill="black" stroke="black" points="1975.35,-94.85 1971.85,-84.85 1968.35,-94.85 1975.35,-94.85"/>
</g>
<!-- AuthModule&#45;&gt;ServerModule -->
<g id="edge25" class="edge">
<title>AuthModule&#45;&gt;ServerModule</title>
<path fill="none" stroke="black" d="M1509,-236.91C1509,-256.14 1509,-283.8 1509,-283.8 1509,-283.8 715.25,-283.8 715.25,-283.8"/>
<polygon fill="black" stroke="black" points="715.25,-280.3 705.25,-283.8 715.25,-287.3 715.25,-280.3"/>
</g>
<!-- JwtStrategy -->
<g id="node3" class="node">
<title>JwtStrategy</title>
<ellipse fill="#fdb462" stroke="black" cx="1633" cy="-142.8" rx="56.76" ry="18"/>
<text text-anchor="middle" x="1633" y="-138.6" font-family="Times,serif" font-size="14.00">JwtStrategy</text>
</g>
<!-- JwtStrategy&#45;&gt;AuthModule -->
<g id="edge2" class="edge">
<title>JwtStrategy&#45;&gt;AuthModule</title>
<path fill="none" stroke="black" d="M1633,-161C1633,-185.16 1633,-224.8 1633,-224.8 1633,-224.8 1562.72,-224.8 1562.72,-224.8"/>
<polygon fill="black" stroke="black" points="1562.72,-221.3 1552.72,-224.8 1562.72,-228.3 1562.72,-221.3"/>
</g>
<!-- FeathersModule -->
<g id="node4" class="node">
<title>FeathersModule</title>
<polygon fill="#8dd3c7" stroke="black" points="3236.47,-84.8 3233.47,-88.8 3212.47,-88.8 3209.47,-84.8 3129.53,-84.8 3129.53,-48.8 3236.47,-48.8 3236.47,-84.8"/>
<text text-anchor="middle" x="3183" y="-62.6" font-family="Times,serif" font-size="14.00">FeathersModule</text>
</g>
<!-- AuthorizationModule -->
<g id="node5" class="node">
<title>AuthorizationModule</title>
<polygon fill="#8dd3c7" stroke="black" points="2976.81,-160.8 2973.81,-164.8 2952.81,-164.8 2949.81,-160.8 2839.19,-160.8 2839.19,-124.8 2976.81,-124.8 2976.81,-160.8"/>
<text text-anchor="middle" x="2908" y="-138.6" font-family="Times,serif" font-size="14.00">AuthorizationModule</text>
</g>
<!-- FeathersModule&#45;&gt;AuthorizationModule -->
<g id="edge3" class="edge">
<title>FeathersModule&#45;&gt;AuthorizationModule</title>
<path fill="none" stroke="black" d="M3165.17,-84.83C3165.17,-105.57 3165.17,-136.8 3165.17,-136.8 3165.17,-136.8 2986.92,-136.8 2986.92,-136.8"/>
<polygon fill="black" stroke="black" points="2986.92,-133.3 2976.92,-136.8 2986.92,-140.3 2986.92,-133.3"/>
</g>
<!-- FeathersServiceProvider  -->
<g id="node14" class="node">
<title>FeathersServiceProvider </title>
<polygon fill="#fb8072" stroke="black" points="3669.61,-160.8 3512.39,-160.8 3512.39,-124.8 3669.61,-124.8 3669.61,-160.8"/>
<text text-anchor="middle" x="3591" y="-138.6" font-family="Times,serif" font-size="14.00">FeathersServiceProvider </text>
</g>
<!-- FeathersModule&#45;&gt;FeathersServiceProvider  -->
<g id="edge11" class="edge">
<title>FeathersModule&#45;&gt;FeathersServiceProvider </title>
<path fill="none" stroke="black" stroke-dasharray="5,2" d="M3236.76,-66.8C3347.55,-66.8 3591,-66.8 3591,-66.8 3591,-66.8 3591,-114.79 3591,-114.79"/>
<polygon fill="black" stroke="black" points="3587.5,-114.79 3591,-124.79 3594.5,-114.79 3587.5,-114.79"/>
</g>
<!-- AuthorizationService  -->
<g id="node6" class="node">
<title>AuthorizationService </title>
<polygon fill="#fb8072" stroke="black" points="2977.74,-236.8 2838.26,-236.8 2838.26,-200.8 2977.74,-200.8 2977.74,-236.8"/>
<text text-anchor="middle" x="2908" y="-214.6" font-family="Times,serif" font-size="14.00">AuthorizationService </text>
</g>
<!-- AuthorizationModule&#45;&gt;AuthorizationService  -->
<g id="edge4" class="edge">
<title>AuthorizationModule&#45;&gt;AuthorizationService </title>
<path fill="none" stroke="black" stroke-dasharray="5,2" d="M2908,-160.81C2908,-160.81 2908,-190.65 2908,-190.65"/>
<polygon fill="black" stroke="black" points="2904.5,-190.65 2908,-200.65 2911.5,-190.65 2904.5,-190.65"/>
</g>
<!-- NewsModule -->
<g id="node24" class="node">
<title>NewsModule</title>
<polygon fill="#8dd3c7" stroke="black" points="2544.92,-236.8 2541.92,-240.8 2520.92,-240.8 2517.92,-236.8 2453.08,-236.8 2453.08,-200.8 2544.92,-200.8 2544.92,-236.8"/>
<text text-anchor="middle" x="2499" y="-214.6" font-family="Times,serif" font-size="14.00">NewsModule</text>
</g>
<!-- AuthorizationModule&#45;&gt;NewsModule -->
<g id="edge20" class="edge">
<title>AuthorizationModule&#45;&gt;NewsModule</title>
<path fill="none" stroke="black" d="M2839.31,-142.8C2774.77,-142.8 2688.05,-142.8 2688.05,-142.8 2688.05,-142.8 2688.05,-224.8 2688.05,-224.8 2688.05,-224.8 2554.76,-224.8 2554.76,-224.8"/>
<polygon fill="black" stroke="black" points="2554.76,-221.3 2544.76,-224.8 2554.76,-228.3 2554.76,-221.3"/>
</g>
<!-- AuthorizationService -->
<g id="node7" class="node">
<title>AuthorizationService</title>
<ellipse fill="#fdb462" stroke="black" cx="3012" cy="-66.8" rx="93.76" ry="18"/>
<text text-anchor="middle" x="3012" y="-62.6" font-family="Times,serif" font-size="14.00">AuthorizationService</text>
</g>
<!-- AuthorizationService&#45;&gt;AuthorizationModule -->
<g id="edge5" class="edge">
<title>AuthorizationService&#45;&gt;AuthorizationModule</title>
<path fill="none" stroke="black" d="M2947.51,-80.04C2947.51,-80.04 2947.51,-114.59 2947.51,-114.59"/>
<polygon fill="black" stroke="black" points="2944.01,-114.59 2947.51,-124.59 2951.01,-114.59 2944.01,-114.59"/>
</g>
<!-- FeathersAuthProvider -->
<g id="node8" class="node">
<title>FeathersAuthProvider</title>
<ellipse fill="#fdb462" stroke="black" cx="2804" cy="-66.8" rx="96.13" ry="18"/>
<text text-anchor="middle" x="2804" y="-62.6" font-family="Times,serif" font-size="14.00">FeathersAuthProvider</text>
</g>
<!-- FeathersAuthProvider&#45;&gt;AuthorizationModule -->
<g id="edge6" class="edge">
<title>FeathersAuthProvider&#45;&gt;AuthorizationModule</title>
<path fill="none" stroke="black" d="M2869.83,-80.04C2869.83,-80.04 2869.83,-114.59 2869.83,-114.59"/>
<polygon fill="black" stroke="black" points="2866.33,-114.59 2869.83,-124.59 2873.33,-114.59 2866.33,-114.59"/>
</g>
<!-- ErrorModule -->
<g id="node9" class="node">
<title>ErrorModule</title>
<polygon fill="#8dd3c7" stroke="black" points="2094.58,-160.8 2091.58,-164.8 2070.58,-164.8 2067.58,-160.8 2005.42,-160.8 2005.42,-124.8 2094.58,-124.8 2094.58,-160.8"/>
<text text-anchor="middle" x="2050" y="-138.6" font-family="Times,serif" font-size="14.00">ErrorModule</text>
</g>
<!-- CoreModule -->
<g id="node13" class="node">
<title>CoreModule</title>
<polygon fill="#8dd3c7" stroke="black" points="1970.26,-236.8 1967.26,-240.8 1946.26,-240.8 1943.26,-236.8 1883.74,-236.8 1883.74,-200.8 1970.26,-200.8 1970.26,-236.8"/>
<text text-anchor="middle" x="1927" y="-214.6" font-family="Times,serif" font-size="14.00">CoreModule</text>
</g>
<!-- ErrorModule&#45;&gt;CoreModule -->
<g id="edge7" class="edge">
<title>ErrorModule&#45;&gt;CoreModule</title>
<path fill="none" stroke="black" d="M2050,-160.83C2050,-181.57 2050,-212.8 2050,-212.8 2050,-212.8 1980.37,-212.8 1980.37,-212.8"/>
<polygon fill="black" stroke="black" points="1980.37,-209.3 1970.37,-212.8 1980.37,-216.3 1980.37,-209.3"/>
</g>
<!-- InterceptorModule -->
<g id="node10" class="node">
<title>InterceptorModule</title>
<polygon fill="#8dd3c7" stroke="black" points="1987.46,-160.8 1984.46,-164.8 1963.46,-164.8 1960.46,-160.8 1866.54,-160.8 1866.54,-124.8 1987.46,-124.8 1987.46,-160.8"/>
<text text-anchor="middle" x="1927" y="-138.6" font-family="Times,serif" font-size="14.00">InterceptorModule</text>
</g>
<!-- InterceptorModule&#45;&gt;CoreModule -->
<g id="edge8" class="edge">
<title>InterceptorModule&#45;&gt;CoreModule</title>
<path fill="none" stroke="black" d="M1927,-160.81C1927,-160.81 1927,-190.65 1927,-190.65"/>
<polygon fill="black" stroke="black" points="1923.5,-190.65 1927,-200.65 1930.5,-190.65 1923.5,-190.65"/>
</g>
<!-- LoggerModule -->
<g id="node11" class="node">
<title>LoggerModule</title>
<polygon fill="#8dd3c7" stroke="black" points="2212.98,-160.8 2209.98,-164.8 2188.98,-164.8 2185.98,-160.8 2113.02,-160.8 2113.02,-124.8 2212.98,-124.8 2212.98,-160.8"/>
<text text-anchor="middle" x="2163" y="-138.6" font-family="Times,serif" font-size="14.00">LoggerModule</text>
</g>
<!-- LoggerModule&#45;&gt;CoreModule -->
<g id="edge9" class="edge">
<title>LoggerModule&#45;&gt;CoreModule</title>
<path fill="none" stroke="black" d="M2163,-161C2163,-185.16 2163,-224.8 2163,-224.8 2163,-224.8 1980.29,-224.8 1980.29,-224.8"/>
<polygon fill="black" stroke="black" points="1980.29,-221.3 1970.29,-224.8 1980.29,-228.3 1980.29,-221.3"/>
</g>
<!-- Logger  -->
<g id="node22" class="node">
<title>Logger </title>
<polygon fill="#fb8072" stroke="black" points="2414.93,-236.8 2355.07,-236.8 2355.07,-200.8 2414.93,-200.8 2414.93,-236.8"/>
<text text-anchor="middle" x="2385" y="-214.6" font-family="Times,serif" font-size="14.00">Logger </text>
</g>
<!-- LoggerModule&#45;&gt;Logger  -->
<g id="edge18" class="edge">
<title>LoggerModule&#45;&gt;Logger </title>
<path fill="none" stroke="black" stroke-dasharray="5,2" d="M2213.1,-142.8C2278.57,-142.8 2385,-142.8 2385,-142.8 2385,-142.8 2385,-190.79 2385,-190.79"/>
<polygon fill="black" stroke="black" points="2381.5,-190.79 2385,-200.79 2388.5,-190.79 2381.5,-190.79"/>
</g>
<!-- LoggerModule&#45;&gt;NewsModule -->
<g id="edge21" class="edge">
<title>LoggerModule&#45;&gt;NewsModule</title>
<path fill="none" stroke="black" d="M2213.04,-133.8C2291.39,-133.8 2434.13,-133.8 2434.13,-133.8 2434.13,-133.8 2434.13,-218.8 2434.13,-218.8 2434.13,-218.8 2443.24,-218.8 2443.24,-218.8"/>
<polygon fill="black" stroke="black" points="2443.24,-222.3 2453.24,-218.8 2443.24,-215.3 2443.24,-222.3"/>
</g>
<!-- ValidationModule -->
<g id="node12" class="node">
<title>ValidationModule</title>
<polygon fill="#8dd3c7" stroke="black" points="1848.15,-160.8 1845.15,-164.8 1824.15,-164.8 1821.15,-160.8 1729.85,-160.8 1729.85,-124.8 1848.15,-124.8 1848.15,-160.8"/>
<text text-anchor="middle" x="1789" y="-138.6" font-family="Times,serif" font-size="14.00">ValidationModule</text>
</g>
<!-- ValidationModule&#45;&gt;CoreModule -->
<g id="edge10" class="edge">
<title>ValidationModule&#45;&gt;CoreModule</title>
<path fill="none" stroke="black" d="M1789,-160.83C1789,-181.57 1789,-212.8 1789,-212.8 1789,-212.8 1873.71,-212.8 1873.71,-212.8"/>
<polygon fill="black" stroke="black" points="1873.71,-216.3 1883.71,-212.8 1873.71,-209.3 1873.71,-216.3"/>
</g>
<!-- CoreModule&#45;&gt;ServerModule -->
<g id="edge26" class="edge">
<title>CoreModule&#45;&gt;ServerModule</title>
<path fill="none" stroke="black" d="M1927,-236.97C1927,-258.3 1927,-290.8 1927,-290.8 1927,-290.8 715.23,-290.8 715.23,-290.8"/>
<polygon fill="black" stroke="black" points="715.23,-287.3 705.23,-290.8 715.23,-294.3 715.23,-287.3"/>
</g>
<!-- FeathersServiceProvider -->
<g id="node15" class="node">
<title>FeathersServiceProvider</title>
<ellipse fill="#fdb462" stroke="black" cx="3382" cy="-142.8" rx="105.91" ry="18"/>
<text text-anchor="middle" x="3382" y="-138.6" font-family="Times,serif" font-size="14.00">FeathersServiceProvider</text>
</g>
<!-- FeathersServiceProvider&#45;&gt;FeathersModule -->
<g id="edge12" class="edge">
<title>FeathersServiceProvider&#45;&gt;FeathersModule</title>
<path fill="none" stroke="black" d="M3281.88,-148.8C3239.98,-148.8 3200.83,-148.8 3200.83,-148.8 3200.83,-148.8 3200.83,-95 3200.83,-95"/>
<polygon fill="black" stroke="black" points="3204.33,-95 3200.83,-85 3197.33,-95 3204.33,-95"/>
</g>
<!-- LearnroomFacade  -->
<g id="node16" class="node">
<title>LearnroomFacade </title>
<polygon fill="#fb8072" stroke="black" points="914.84,-236.8 793.16,-236.8 793.16,-200.8 914.84,-200.8 914.84,-236.8"/>
<text text-anchor="middle" x="854" y="-214.6" font-family="Times,serif" font-size="14.00">LearnroomFacade </text>
</g>
<!-- LearnroomModule -->
<g id="node17" class="node">
<title>LearnroomModule</title>
<polygon fill="#8dd3c7" stroke="black" points="1003.74,-160.8 1000.74,-164.8 979.74,-164.8 976.74,-160.8 882.26,-160.8 882.26,-124.8 1003.74,-124.8 1003.74,-160.8"/>
<text text-anchor="middle" x="943" y="-138.6" font-family="Times,serif" font-size="14.00">LearnroomModule</text>
</g>
<!-- LearnroomModule&#45;&gt;LearnroomFacade  -->
<g id="edge13" class="edge">
<title>LearnroomModule&#45;&gt;LearnroomFacade </title>
<path fill="none" stroke="black" stroke-dasharray="5,2" d="M903.82,-160.81C903.82,-160.81 903.82,-190.65 903.82,-190.65"/>
<polygon fill="black" stroke="black" points="900.32,-190.65 903.82,-200.65 907.32,-190.65 900.32,-190.65"/>
</g>
<!-- TaskModule -->
<g id="node29" class="node">
<title>TaskModule</title>
<polygon fill="#8dd3c7" stroke="black" points="593.26,-236.8 590.26,-240.8 569.26,-240.8 566.26,-236.8 506.74,-236.8 506.74,-200.8 593.26,-200.8 593.26,-236.8"/>
<text text-anchor="middle" x="550" y="-214.6" font-family="Times,serif" font-size="14.00">TaskModule</text>
</g>
<!-- LearnroomModule&#45;&gt;TaskModule -->
<g id="edge32" class="edge">
<title>LearnroomModule&#45;&gt;TaskModule</title>
<path fill="none" stroke="black" d="M892.97,-160.91C892.97,-170.7 892.97,-180.8 892.97,-180.8 892.97,-180.8 577.09,-180.8 577.09,-180.8 577.09,-180.8 577.09,-190.69 577.09,-190.69"/>
<polygon fill="black" stroke="black" points="573.59,-190.69 577.09,-200.69 580.59,-190.69 573.59,-190.69"/>
</g>
<!-- LearnroomModule&#45;&gt;ServerModule -->
<g id="edge27" class="edge">
<title>LearnroomModule&#45;&gt;ServerModule</title>
<path fill="none" stroke="black" d="M882,-142.8C810.39,-142.8 701.27,-142.8 701.27,-142.8 701.27,-142.8 701.27,-258.56 701.27,-258.56"/>
<polygon fill="black" stroke="black" points="697.77,-258.56 701.27,-268.56 704.77,-258.56 697.77,-258.56"/>
</g>
<!-- CourseRepo -->
<g id="node18" class="node">
<title>CourseRepo</title>
<ellipse fill="#fdb462" stroke="black" cx="1279" cy="-66.8" rx="58.55" ry="18"/>
<text text-anchor="middle" x="1279" y="-62.6" font-family="Times,serif" font-size="14.00">CourseRepo</text>
</g>
<!-- CourseRepo&#45;&gt;LearnroomModule -->
<g id="edge14" class="edge">
<title>CourseRepo&#45;&gt;LearnroomModule</title>
<path fill="none" stroke="black" d="M1279,-84.83C1279,-109.78 1279,-151.8 1279,-151.8 1279,-151.8 1013.85,-151.8 1013.85,-151.8"/>
<polygon fill="black" stroke="black" points="1013.85,-148.3 1003.85,-151.8 1013.85,-155.3 1013.85,-148.3"/>
</g>
<!-- CourseUC -->
<g id="node19" class="node">
<title>CourseUC</title>
<ellipse fill="#fdb462" stroke="black" cx="1150" cy="-66.8" rx="51.61" ry="18"/>
<text text-anchor="middle" x="1150" y="-62.6" font-family="Times,serif" font-size="14.00">CourseUC</text>
</g>
<!-- CourseUC&#45;&gt;LearnroomModule -->
<g id="edge15" class="edge">
<title>CourseUC&#45;&gt;LearnroomModule</title>
<path fill="none" stroke="black" d="M1150,-84.81C1150,-107.29 1150,-142.8 1150,-142.8 1150,-142.8 1013.99,-142.8 1013.99,-142.8"/>
<polygon fill="black" stroke="black" points="1013.99,-139.3 1003.99,-142.8 1013.99,-146.3 1013.99,-139.3"/>
</g>
<!-- CoursegroupRepo -->
<g id="node20" class="node">
<title>CoursegroupRepo</title>
<ellipse fill="#fdb462" stroke="black" cx="999" cy="-66.8" rx="81.11" ry="18"/>
<text text-anchor="middle" x="999" y="-62.6" font-family="Times,serif" font-size="14.00">CoursegroupRepo</text>
</g>
<!-- CoursegroupRepo&#45;&gt;LearnroomModule -->
<g id="edge16" class="edge">
<title>CoursegroupRepo&#45;&gt;LearnroomModule</title>
<path fill="none" stroke="black" d="M960.78,-82.92C960.78,-82.92 960.78,-114.57 960.78,-114.57"/>
<polygon fill="black" stroke="black" points="957.28,-114.57 960.78,-124.57 964.28,-114.57 957.28,-114.57"/>
</g>
<!-- LearnroomFacade -->
<g id="node21" class="node">
<title>LearnroomFacade</title>
<ellipse fill="#fdb462" stroke="black" cx="818" cy="-66.8" rx="81.06" ry="18"/>
<text text-anchor="middle" x="818" y="-62.6" font-family="Times,serif" font-size="14.00">LearnroomFacade</text>
</g>
<!-- LearnroomFacade&#45;&gt;LearnroomModule -->
<g id="edge17" class="edge">
<title>LearnroomFacade&#45;&gt;LearnroomModule</title>
<path fill="none" stroke="black" d="M890.7,-74.93C890.7,-74.93 890.7,-114.68 890.7,-114.68"/>
<polygon fill="black" stroke="black" points="887.2,-114.68 890.7,-124.68 894.2,-114.68 887.2,-114.68"/>
</g>
<!-- Logger -->
<g id="node23" class="node">
<title>Logger</title>
<ellipse fill="#fdb462" stroke="black" cx="2292" cy="-218.8" rx="38.85" ry="18"/>
<text text-anchor="middle" x="2292" y="-214.6" font-family="Times,serif" font-size="14.00">Logger</text>
</g>
<!-- Logger&#45;&gt;LoggerModule -->
<g id="edge19" class="edge">
<title>Logger&#45;&gt;LoggerModule</title>
<path fill="none" stroke="black" d="M2292,-200.49C2292,-180.65 2292,-151.8 2292,-151.8 2292,-151.8 2223.24,-151.8 2223.24,-151.8"/>
<polygon fill="black" stroke="black" points="2223.24,-148.3 2213.24,-151.8 2223.24,-155.3 2223.24,-148.3"/>
</g>
<!-- NewsUc  -->
<g id="node25" class="node">
<title>NewsUc </title>
<polygon fill="#fb8072" stroke="black" points="2532.69,-304.8 2465.31,-304.8 2465.31,-268.8 2532.69,-268.8 2532.69,-304.8"/>
<text text-anchor="middle" x="2499" y="-282.6" font-family="Times,serif" font-size="14.00">NewsUc </text>
</g>
<!-- NewsModule&#45;&gt;NewsUc  -->
<g id="edge22" class="edge">
<title>NewsModule&#45;&gt;NewsUc </title>
<path fill="none" stroke="black" stroke-dasharray="5,2" d="M2499,-237.02C2499,-237.02 2499,-258.53 2499,-258.53"/>
<polygon fill="black" stroke="black" points="2495.5,-258.53 2499,-268.53 2502.5,-258.53 2495.5,-258.53"/>
</g>
<!-- NewsModule&#45;&gt;ServerModule -->
<g id="edge29" class="edge">
<title>NewsModule&#45;&gt;ServerModule</title>
<path fill="none" stroke="black" d="M2459.22,-237.12C2459.22,-260.46 2459.22,-297.8 2459.22,-297.8 2459.22,-297.8 715.21,-297.8 715.21,-297.8"/>
<polygon fill="black" stroke="black" points="715.21,-294.3 705.21,-297.8 715.21,-301.3 715.21,-294.3"/>
</g>
<!-- NewsRepo -->
<g id="node26" class="node">
<title>NewsRepo</title>
<ellipse fill="#fdb462" stroke="black" cx="2615" cy="-142.8" rx="53.31" ry="18"/>
<text text-anchor="middle" x="2615" y="-138.6" font-family="Times,serif" font-size="14.00">NewsRepo</text>
</g>
<!-- NewsRepo&#45;&gt;NewsModule -->
<g id="edge23" class="edge">
<title>NewsRepo&#45;&gt;NewsModule</title>
<path fill="none" stroke="black" d="M2615,-160.83C2615,-181.57 2615,-212.8 2615,-212.8 2615,-212.8 2554.85,-212.8 2554.85,-212.8"/>
<polygon fill="black" stroke="black" points="2554.85,-209.3 2544.85,-212.8 2554.85,-216.3 2554.85,-209.3"/>
</g>
<!-- NewsUc -->
<g id="node27" class="node">
<title>NewsUc</title>
<ellipse fill="#fdb462" stroke="black" cx="2499" cy="-142.8" rx="44.06" ry="18"/>
<text text-anchor="middle" x="2499" y="-138.6" font-family="Times,serif" font-size="14.00">NewsUc</text>
</g>
<!-- NewsUc&#45;&gt;NewsModule -->
<g id="edge24" class="edge">
<title>NewsUc&#45;&gt;NewsModule</title>
<path fill="none" stroke="black" d="M2499,-160.81C2499,-160.81 2499,-190.65 2499,-190.65"/>
<polygon fill="black" stroke="black" points="2495.5,-190.65 2499,-200.65 2502.5,-190.65 2495.5,-190.65"/>
</g>
<!-- MailModule -->
<g id="node28" class="node">
<title>MailModule</title>
<polygon fill="#8dd3c7" stroke="black" points="696.99,-236.8 693.99,-240.8 672.99,-240.8 669.99,-236.8 611.01,-236.8 611.01,-200.8 696.99,-200.8 696.99,-236.8"/>
<text text-anchor="middle" x="654" y="-214.6" font-family="Times,serif" font-size="14.00">MailModule</text>
</g>
<!-- MailModule&#45;&gt;ServerModule -->
<g id="edge28" class="edge">
<title>MailModule&#45;&gt;ServerModule</title>
<path fill="none" stroke="black" d="M654,-237.02C654,-237.02 654,-258.53 654,-258.53"/>
<polygon fill="black" stroke="black" points="650.5,-258.53 654,-268.53 657.5,-258.53 650.5,-258.53"/>
</g>
<!-- TaskModule&#45;&gt;ServerModule -->
<g id="edge30" class="edge">
<title>TaskModule&#45;&gt;ServerModule</title>
<path fill="none" stroke="black" d="M550,-237.02C550,-257.17 550,-286.8 550,-286.8 550,-286.8 598.82,-286.8 598.82,-286.8"/>
<polygon fill="black" stroke="black" points="598.82,-290.3 608.82,-286.8 598.82,-283.3 598.82,-290.3"/>
</g>
<!-- SubmissionRepo -->
<g id="node31" class="node">
<title>SubmissionRepo</title>
<ellipse fill="#fdb462" stroke="black" cx="621" cy="-142.8" rx="76.49" ry="18"/>
<text text-anchor="middle" x="621" y="-138.6" font-family="Times,serif" font-size="14.00">SubmissionRepo</text>
</g>
<!-- SubmissionRepo&#45;&gt;TaskModule -->
<g id="edge33" class="edge">
<title>SubmissionRepo&#45;&gt;TaskModule</title>
<path fill="none" stroke="black" d="M560.8,-154.01C560.8,-154.01 560.8,-190.76 560.8,-190.76"/>
<polygon fill="black" stroke="black" points="557.3,-190.76 560.8,-200.76 564.3,-190.76 557.3,-190.76"/>
</g>
<!-- TaskRepo -->
<g id="node32" class="node">
<title>TaskRepo</title>
<ellipse fill="#fdb462" stroke="black" cx="476" cy="-142.8" rx="50.38" ry="18"/>
<text text-anchor="middle" x="476" y="-138.6" font-family="Times,serif" font-size="14.00">TaskRepo</text>
</g>
<!-- TaskRepo&#45;&gt;TaskModule -->
<g id="edge34" class="edge">
<title>TaskRepo&#45;&gt;TaskModule</title>
<path fill="none" stroke="black" d="M516.4,-153.69C516.4,-153.69 516.4,-190.59 516.4,-190.59"/>
<polygon fill="black" stroke="black" points="512.9,-190.59 516.4,-200.59 519.9,-190.59 512.9,-190.59"/>
</g>
<!-- TaskSubmissionMetadataService -->
<g id="node33" class="node">
<title>TaskSubmissionMetadataService</title>
<ellipse fill="#fdb462" stroke="black" cx="268" cy="-142.8" rx="139.52" ry="18"/>
<text text-anchor="middle" x="268" y="-138.6" font-family="Times,serif" font-size="14.00">TaskSubmissionMetadataService</text>
</g>
<!-- TaskSubmissionMetadataService&#45;&gt;TaskModule -->
<g id="edge35" class="edge">
<title>TaskSubmissionMetadataService&#45;&gt;TaskModule</title>
<path fill="none" stroke="black" d="M268,-160.83C268,-181.57 268,-212.8 268,-212.8 268,-212.8 496.56,-212.8 496.56,-212.8"/>
<polygon fill="black" stroke="black" points="496.56,-216.3 506.56,-212.8 496.56,-209.3 496.56,-216.3"/>
</g>
<!-- TaskUC -->
<g id="node34" class="node">
<title>TaskUC</title>
<ellipse fill="#fdb462" stroke="black" cx="67" cy="-142.8" rx="43.44" ry="18"/>
<text text-anchor="middle" x="67" y="-138.6" font-family="Times,serif" font-size="14.00">TaskUC</text>
</g>
<!-- TaskUC&#45;&gt;TaskModule -->
<g id="edge36" class="edge">
<title>TaskUC&#45;&gt;TaskModule</title>
<path fill="none" stroke="black" d="M67,-161C67,-185.16 67,-224.8 67,-224.8 67,-224.8 496.71,-224.8 496.71,-224.8"/>
<polygon fill="black" stroke="black" points="496.71,-228.3 506.71,-224.8 496.71,-221.3 496.71,-228.3"/>
</g>
<!-- RoleRepo -->
<g id="node36" class="node">
<title>RoleRepo</title>
<ellipse fill="#fdb462" stroke="black" cx="1882" cy="-66.8" rx="49.82" ry="18"/>
<text text-anchor="middle" x="1882" y="-62.6" font-family="Times,serif" font-size="14.00">RoleRepo</text>
</g>
<!-- RoleRepo&#45;&gt;UserModule -->
<g id="edge38" class="edge">
<title>RoleRepo&#45;&gt;UserModule</title>
<path fill="none" stroke="black" d="M1840.33,-76.97C1840.33,-89.4 1840.33,-108.8 1840.33,-108.8 1840.33,-108.8 1540.22,-108.8 1540.22,-108.8 1540.22,-108.8 1540.22,-114.61 1540.22,-114.61"/>
<polygon fill="black" stroke="black" points="1536.72,-114.61 1540.22,-124.61 1543.72,-114.61 1536.72,-114.61"/>
</g>
<!-- RoleUC -->
<g id="node37" class="node">
<title>RoleUC</title>
<ellipse fill="#fdb462" stroke="black" cx="1772" cy="-66.8" rx="42.88" ry="18"/>
<text text-anchor="middle" x="1772" y="-62.6" font-family="Times,serif" font-size="14.00">RoleUC</text>
</g>
<!-- RoleUC&#45;&gt;UserModule -->
<g id="edge39" class="edge">
<title>RoleUC&#45;&gt;UserModule</title>
<path fill="none" stroke="black" d="M1772.18,-84.99C1772.18,-93.08 1772.18,-100.8 1772.18,-100.8 1772.18,-100.8 1528.44,-100.8 1528.44,-100.8 1528.44,-100.8 1528.44,-114.74 1528.44,-114.74"/>
<polygon fill="black" stroke="black" points="1524.94,-114.74 1528.44,-124.74 1531.94,-114.74 1524.94,-114.74"/>
</g>
<!-- UserFacade -->
<g id="node38" class="node">
<title>UserFacade</title>
<ellipse fill="#fdb462" stroke="black" cx="1655" cy="-66.8" rx="56.72" ry="18"/>
<text text-anchor="middle" x="1655" y="-62.6" font-family="Times,serif" font-size="14.00">UserFacade</text>
</g>
<!-- UserFacade&#45;&gt;UserModule -->
<g id="edge40" class="edge">
<title>UserFacade&#45;&gt;UserModule</title>
<path fill="none" stroke="black" d="M1644.01,-84.57C1644.01,-89.14 1644.01,-92.8 1644.01,-92.8 1644.01,-92.8 1516.67,-92.8 1516.67,-92.8 1516.67,-92.8 1516.67,-114.75 1516.67,-114.75"/>
<polygon fill="black" stroke="black" points="1513.17,-114.75 1516.67,-124.75 1520.17,-114.75 1513.17,-114.75"/>
</g>
<!-- UserRepo -->
<g id="node39" class="node">
<title>UserRepo</title>
<ellipse fill="#fdb462" stroke="black" cx="1531" cy="-66.8" rx="49.8" ry="18"/>
<text text-anchor="middle" x="1531" y="-62.6" font-family="Times,serif" font-size="14.00">UserRepo</text>
</g>
<!-- UserRepo&#45;&gt;UserModule -->
<g id="edge41" class="edge">
<title>UserRepo&#45;&gt;UserModule</title>
<path fill="none" stroke="black" d="M1493.12,-78.68C1493.12,-78.68 1493.12,-114.79 1493.12,-114.79"/>
<polygon fill="black" stroke="black" points="1489.62,-114.79 1493.12,-124.79 1496.62,-114.79 1489.62,-114.79"/>
</g>
<!-- UserUC -->
<g id="node40" class="node">
<title>UserUC</title>
<ellipse fill="#fdb462" stroke="black" cx="1421" cy="-66.8" rx="42.85" ry="18"/>
<text text-anchor="middle" x="1421" y="-62.6" font-family="Times,serif" font-size="14.00">UserUC</text>
</g>
<!-- UserUC&#45;&gt;UserModule -->
<g id="edge42" class="edge">
<title>UserUC&#45;&gt;UserModule</title>
<path fill="none" stroke="black" d="M1464.02,-66.8C1469.74,-66.8 1473.68,-66.8 1473.68,-66.8 1473.68,-66.8 1473.68,-114.79 1473.68,-114.79"/>
<polygon fill="black" stroke="black" points="1470.18,-114.79 1473.68,-124.79 1477.18,-114.79 1470.18,-114.79"/>
</g>
</g>
</svg>
