<?xml version="1.0" encoding="UTF-8" standalone="no"?>
<!DOCTYPE svg PUBLIC "-//W3C//DTD SVG 1.1//EN"
 "http://www.w3.org/Graphics/SVG/1.1/DTD/svg11.dtd">
<!-- Generated by graphviz version 5.0.0 (20220707.1540)
 -->
<!-- Title: dependencies Pages: 1 -->
<svg width="579pt" height="174pt"
 viewBox="0.00 0.00 579.00 173.80" xmlns="http://www.w3.org/2000/svg" xmlns:xlink="http://www.w3.org/1999/xlink">
<g id="graph0" class="graph" transform="scale(1 1) rotate(0) translate(4 169.8)">
<title>dependencies</title>
<polygon fill="white" stroke="transparent" points="-4,4 -4,-169.8 575,-169.8 575,4 -4,4"/>
<text text-anchor="middle" x="285.5" y="-8.2" font-family="sans-serif" font-size="14.00">dependencies</text>
<g id="clust1" class="cluster">
<title>cluster_UserMigrationApiModule</title>
<polygon fill="none" stroke="black" stroke-dasharray="1,5" points="8,-32.8 8,-157.8 563,-157.8 563,-32.8 8,-32.8"/>
</g>
<g id="clust3" class="cluster">
<title>cluster_UserMigrationApiModule_imports</title>
<polygon fill="none" stroke="black" points="397,-40.8 397,-92.8 555,-92.8 555,-40.8 397,-40.8"/>
</g>
<g id="clust6" class="cluster">
<title>cluster_UserMigrationApiModule_providers</title>
<polygon fill="none" stroke="black" points="16,-40.8 16,-92.8 389,-92.8 389,-40.8 16,-40.8"/>
</g>
<!-- UserMigrationModule -->
<g id="node1" class="node">
<title>UserMigrationModule</title>
<polygon fill="#8dd3c7" stroke="black" points="546.98,-84.8 543.98,-88.8 522.98,-88.8 519.98,-84.8 405.02,-84.8 405.02,-48.8 546.98,-48.8 546.98,-84.8"/>
<text text-anchor="middle" x="476" y="-62.6" font-family="Times,serif" font-size="14.00">UserMigrationModule</text>
</g>
<!-- UserMigrationApiModule -->
<g id="node2" class="node">
<title>UserMigrationApiModule</title>
<polygon fill="#8dd3c7" stroke="black" points="372.48,-149.8 369.48,-153.8 348.48,-153.8 345.48,-149.8 209.52,-149.8 209.52,-113.8 372.48,-113.8 372.48,-149.8"/>
<text text-anchor="middle" x="291" y="-127.6" font-family="Times,serif" font-size="14.00">UserMigrationApiModule</text>
</g>
<!-- UserMigrationModule&#45;&gt;UserMigrationApiModule -->
<g id="edge1" class="edge">
<title>UserMigrationModule&#45;&gt;UserMigrationApiModule</title>
<path fill="none" stroke="black" d="M476,-84.91C476,-104.14 476,-131.8 476,-131.8 476,-131.8 382.68,-131.8 382.68,-131.8"/>
<polygon fill="black" stroke="black" points="382.68,-128.3 372.68,-131.8 382.68,-135.3 382.68,-128.3"/>
</g>
<!-- PageContentMapper -->
<g id="node3" class="node">
<title>PageContentMapper</title>
<ellipse fill="#fdb462" stroke="black" cx="291" cy="-66.8" rx="90.34" ry="18"/>
<text text-anchor="middle" x="291" y="-62.6" font-family="Times,serif" font-size="14.00">PageContentMapper</text>
</g>
<!-- PageContentMapper&#45;&gt;UserMigrationApiModule -->
<g id="edge2" class="edge">
<title>PageContentMapper&#45;&gt;UserMigrationApiModule</title>
<path fill="none" stroke="black" d="M291,-84.91C291,-84.91 291,-103.79 291,-103.79"/>
<polygon fill="black" stroke="black" points="287.5,-103.79 291,-113.79 294.5,-103.79 287.5,-103.79"/>
</g>
<!-- UserMigrationUc -->
<g id="node4" class="node">
<title>UserMigrationUc</title>
<ellipse fill="#fdb462" stroke="black" cx="103" cy="-66.8" rx="79.31" ry="18"/>
<text text-anchor="middle" x="103" y="-62.6" font-family="Times,serif" font-size="14.00">UserMigrationUc</text>
</g>
<!-- UserMigrationUc&#45;&gt;UserMigrationApiModule -->
<g id="edge3" class="edge">
<title>UserMigrationUc&#45;&gt;UserMigrationApiModule</title>
<path fill="none" stroke="black" d="M103,-84.91C103,-104.14 103,-131.8 103,-131.8 103,-131.8 199.36,-131.8 199.36,-131.8"/>
<polygon fill="black" stroke="black" points="199.36,-135.3 209.36,-131.8 199.36,-128.3 199.36,-135.3"/>
</g>
</g>
</svg>
