<?xml version="1.0" encoding="UTF-8" standalone="no"?>
<!DOCTYPE svg PUBLIC "-//W3C//DTD SVG 1.1//EN"
 "http://www.w3.org/Graphics/SVG/1.1/DTD/svg11.dtd">
<!-- Generated by graphviz version 5.0.0 (20220707.1540)
 -->
<!-- Title: dependencies Pages: 1 -->
<svg width="3185pt" height="174pt"
 viewBox="0.00 0.00 3185.00 173.80" xmlns="http://www.w3.org/2000/svg" xmlns:xlink="http://www.w3.org/1999/xlink">
<g id="graph0" class="graph" transform="scale(1 1) rotate(0) translate(4 169.8)">
<title>dependencies</title>
<polygon fill="white" stroke="transparent" points="-4,4 -4,-169.8 3181,-169.8 3181,4 -4,4"/>
<text text-anchor="middle" x="1588.5" y="-8.2" font-family="sans-serif" font-size="14.00">dependencies</text>
<g id="clust1" class="cluster">
<title>cluster_ServerModule</title>
<polygon fill="none" stroke="black" stroke-dasharray="1,5" points="8,-32.8 8,-157.8 3169,-157.8 3169,-32.8 8,-32.8"/>
</g>
<g id="clust3" class="cluster">
<title>cluster_ServerModule_imports</title>
<polygon fill="none" stroke="black" points="16,-40.8 16,-92.8 3161,-92.8 3161,-40.8 16,-40.8"/>
</g>
<!-- AuthenticationApiModule -->
<g id="node1" class="node">
<title>AuthenticationApiModule</title>
<polygon fill="#8dd3c7" stroke="black" points="3152.75,-84.8 3149.75,-88.8 3128.75,-88.8 3125.75,-84.8 2989.25,-84.8 2989.25,-48.8 3152.75,-48.8 3152.75,-84.8"/>
<text text-anchor="middle" x="3071" y="-62.6" font-family="Times,serif" font-size="14.00">AuthenticationApiModule</text>
</g>
<!-- ServerModule -->
<g id="node23" class="node">
<title>ServerModule</title>
<polygon fill="#8dd3c7" stroke="black" points="1564.09,-149.8 1561.09,-153.8 1540.09,-153.8 1537.09,-149.8 1467.91,-149.8 1467.91,-113.8 1564.09,-113.8 1564.09,-149.8"/>
<text text-anchor="middle" x="1516" y="-127.6" font-family="Times,serif" font-size="14.00">ServerModule</text>
</g>
<!-- AuthenticationApiModule&#45;&gt;ServerModule -->
<g id="edge1" class="edge">
<title>AuthenticationApiModule&#45;&gt;ServerModule</title>
<path fill="none" stroke="black" d="M3071,-84.95C3071,-108.56 3071,-146.8 3071,-146.8 3071,-146.8 1574.24,-146.8 1574.24,-146.8"/>
<polygon fill="black" stroke="black" points="1574.24,-143.3 1564.24,-146.8 1574.24,-150.3 1574.24,-143.3"/>
</g>
<!-- CollaborativeStorageModule -->
<g id="node2" class="node">
<title>CollaborativeStorageModule</title>
<polygon fill="#8dd3c7" stroke="black" points="2971.02,-84.8 2968.02,-88.8 2947.02,-88.8 2944.02,-84.8 2792.98,-84.8 2792.98,-48.8 2971.02,-48.8 2971.02,-84.8"/>
<text text-anchor="middle" x="2882" y="-62.6" font-family="Times,serif" font-size="14.00">CollaborativeStorageModule</text>
</g>
<!-- CollaborativeStorageModule&#45;&gt;ServerModule -->
<g id="edge2" class="edge">
<title>CollaborativeStorageModule&#45;&gt;ServerModule</title>
<path fill="none" stroke="black" d="M2882,-85.05C2882,-107.82 2882,-143.8 2882,-143.8 2882,-143.8 1574.22,-143.8 1574.22,-143.8"/>
<polygon fill="black" stroke="black" points="1574.22,-140.3 1564.22,-143.8 1574.22,-147.3 1574.22,-140.3"/>
</g>
<!-- CoreModule -->
<g id="node3" class="node">
<title>CoreModule</title>
<polygon fill="#8dd3c7" stroke="black" points="2774.27,-84.8 2771.27,-88.8 2750.27,-88.8 2747.27,-84.8 2687.73,-84.8 2687.73,-48.8 2774.27,-48.8 2774.27,-84.8"/>
<text text-anchor="middle" x="2731" y="-62.6" font-family="Times,serif" font-size="14.00">CoreModule</text>
</g>
<!-- CoreModule&#45;&gt;ServerModule -->
<g id="edge3" class="edge">
<title>CoreModule&#45;&gt;ServerModule</title>
<path fill="none" stroke="black" d="M2731,-85.09C2731,-107.01 2731,-140.8 2731,-140.8 2731,-140.8 1574.38,-140.8 1574.38,-140.8"/>
<polygon fill="black" stroke="black" points="1574.38,-137.3 1564.38,-140.8 1574.38,-144.3 1574.38,-137.3"/>
</g>
<!-- FilesStorageClientModule -->
<g id="node4" class="node">
<title>FilesStorageClientModule</title>
<polygon fill="#8dd3c7" stroke="black" points="2669.77,-84.8 2666.77,-88.8 2645.77,-88.8 2642.77,-84.8 2506.23,-84.8 2506.23,-48.8 2669.77,-48.8 2669.77,-84.8"/>
<text text-anchor="middle" x="2588" y="-62.6" font-family="Times,serif" font-size="14.00">FilesStorageClientModule</text>
</g>
<!-- FilesStorageClientModule&#45;&gt;ServerModule -->
<g id="edge4" class="edge">
<title>FilesStorageClientModule&#45;&gt;ServerModule</title>
<path fill="none" stroke="black" d="M2588,-84.83C2588,-105.57 2588,-136.8 2588,-136.8 2588,-136.8 1574.14,-136.8 1574.14,-136.8"/>
<polygon fill="black" stroke="black" points="1574.14,-133.3 1564.14,-136.8 1574.14,-140.3 1574.14,-133.3"/>
</g>
<!-- ImportUserModule -->
<g id="node5" class="node">
<title>ImportUserModule</title>
<polygon fill="#8dd3c7" stroke="black" points="2488.09,-84.8 2485.09,-88.8 2464.09,-88.8 2461.09,-84.8 2363.91,-84.8 2363.91,-48.8 2488.09,-48.8 2488.09,-84.8"/>
<text text-anchor="middle" x="2426" y="-62.6" font-family="Times,serif" font-size="14.00">ImportUserModule</text>
</g>
<!-- ImportUserModule&#45;&gt;ServerModule -->
<g id="edge5" class="edge">
<title>ImportUserModule&#45;&gt;ServerModule</title>
<path fill="none" stroke="black" d="M2426,-85.11C2426,-104.95 2426,-133.8 2426,-133.8 2426,-133.8 1574.28,-133.8 1574.28,-133.8"/>
<polygon fill="black" stroke="black" points="1574.28,-130.3 1564.28,-133.8 1574.28,-137.3 1574.28,-130.3"/>
</g>
<!-- LearnroomModule -->
<g id="node6" class="node">
<title>LearnroomModule</title>
<polygon fill="#8dd3c7" stroke="black" points="2345.75,-84.8 2342.75,-88.8 2321.75,-88.8 2318.75,-84.8 2224.25,-84.8 2224.25,-48.8 2345.75,-48.8 2345.75,-84.8"/>
<text text-anchor="middle" x="2285" y="-62.6" font-family="Times,serif" font-size="14.00">LearnroomModule</text>
</g>
<!-- LearnroomModule&#45;&gt;ServerModule -->
<g id="edge6" class="edge">
<title>LearnroomModule&#45;&gt;ServerModule</title>
<path fill="none" stroke="black" d="M2285,-84.97C2285,-103.89 2285,-130.8 2285,-130.8 2285,-130.8 1574.1,-130.8 1574.1,-130.8"/>
<polygon fill="black" stroke="black" points="1574.1,-127.3 1564.1,-130.8 1574.1,-134.3 1574.1,-127.3"/>
</g>
<!-- LessonApiModule -->
<g id="node7" class="node">
<title>LessonApiModule</title>
<polygon fill="#8dd3c7" stroke="black" points="2206.21,-84.8 2203.21,-88.8 2182.21,-88.8 2179.21,-84.8 2085.79,-84.8 2085.79,-48.8 2206.21,-48.8 2206.21,-84.8"/>
<text text-anchor="middle" x="2146" y="-62.6" font-family="Times,serif" font-size="14.00">LessonApiModule</text>
</g>
<!-- LessonApiModule&#45;&gt;ServerModule -->
<g id="edge7" class="edge">
<title>LessonApiModule&#45;&gt;ServerModule</title>
<path fill="none" stroke="black" d="M2146,-85.1C2146,-103.07 2146,-127.8 2146,-127.8 2146,-127.8 1574.13,-127.8 1574.13,-127.8"/>
<polygon fill="black" stroke="black" points="1574.13,-124.3 1564.13,-127.8 1574.13,-131.3 1574.13,-124.3"/>
</g>
<!-- NewsModule -->
<g id="node8" class="node">
<title>NewsModule</title>
<polygon fill="#8dd3c7" stroke="black" points="2067.94,-84.8 2064.94,-88.8 2043.94,-88.8 2040.94,-84.8 1976.06,-84.8 1976.06,-48.8 2067.94,-48.8 2067.94,-84.8"/>
<text text-anchor="middle" x="2022" y="-62.6" font-family="Times,serif" font-size="14.00">NewsModule</text>
</g>
<!-- NewsModule&#45;&gt;ServerModule -->
<g id="edge8" class="edge">
<title>NewsModule&#45;&gt;ServerModule</title>
<path fill="none" stroke="black" d="M2022,-84.84C2022,-101.53 2022,-123.8 2022,-123.8 2022,-123.8 1574.06,-123.8 1574.06,-123.8"/>
<polygon fill="black" stroke="black" points="1574.06,-120.3 1564.06,-123.8 1574.06,-127.3 1574.06,-120.3"/>
</g>
<!-- OauthApiModule -->
<g id="node9" class="node">
<title>OauthApiModule</title>
<polygon fill="#8dd3c7" stroke="black" points="1958.27,-84.8 1955.27,-88.8 1934.27,-88.8 1931.27,-84.8 1843.73,-84.8 1843.73,-48.8 1958.27,-48.8 1958.27,-84.8"/>
<text text-anchor="middle" x="1901" y="-62.6" font-family="Times,serif" font-size="14.00">OauthApiModule</text>
</g>
<!-- OauthApiModule&#45;&gt;ServerModule -->
<g id="edge9" class="edge">
<title>OauthApiModule&#45;&gt;ServerModule</title>
<path fill="none" stroke="black" d="M1901,-85.08C1901,-100.75 1901,-120.8 1901,-120.8 1901,-120.8 1574.37,-120.8 1574.37,-120.8"/>
<polygon fill="black" stroke="black" points="1574.37,-117.3 1564.37,-120.8 1574.37,-124.3 1574.37,-117.3"/>
</g>
<!-- OauthProviderModule -->
<g id="node10" class="node">
<title>OauthProviderModule</title>
<polygon fill="#8dd3c7" stroke="black" points="1825.98,-84.8 1822.98,-88.8 1801.98,-88.8 1798.98,-84.8 1684.02,-84.8 1684.02,-48.8 1825.98,-48.8 1825.98,-84.8"/>
<text text-anchor="middle" x="1755" y="-62.6" font-family="Times,serif" font-size="14.00">OauthProviderModule</text>
</g>
<!-- OauthProviderModule&#45;&gt;ServerModule -->
<g id="edge10" class="edge">
<title>OauthProviderModule&#45;&gt;ServerModule</title>
<path fill="none" stroke="black" d="M1755,-84.92C1755,-99.58 1755,-117.8 1755,-117.8 1755,-117.8 1574.08,-117.8 1574.08,-117.8"/>
<polygon fill="black" stroke="black" points="1574.08,-114.3 1564.08,-117.8 1574.08,-121.3 1574.08,-114.3"/>
</g>
<!-- ProvisioningModule -->
<g id="node11" class="node">
<title>ProvisioningModule</title>
<polygon fill="#8dd3c7" stroke="black" points="1665.62,-84.8 1662.62,-88.8 1641.62,-88.8 1638.62,-84.8 1534.38,-84.8 1534.38,-48.8 1665.62,-48.8 1665.62,-84.8"/>
<text text-anchor="middle" x="1600" y="-62.6" font-family="Times,serif" font-size="14.00">ProvisioningModule</text>
</g>
<!-- ProvisioningModule&#45;&gt;ServerModule -->
<g id="edge11" class="edge">
<title>ProvisioningModule&#45;&gt;ServerModule</title>
<path fill="none" stroke="black" d="M1549.24,-84.91C1549.24,-84.91 1549.24,-103.79 1549.24,-103.79"/>
<polygon fill="black" stroke="black" points="1545.74,-103.79 1549.24,-113.79 1552.74,-103.79 1545.74,-103.79"/>
</g>
<!-- RabbitMQWrapperModule -->
<g id="node12" class="node">
<title>RabbitMQWrapperModule</title>
<polygon fill="#8dd3c7" stroke="black" points="1516.41,-84.8 1513.41,-88.8 1492.41,-88.8 1489.41,-84.8 1347.59,-84.8 1347.59,-48.8 1516.41,-48.8 1516.41,-84.8"/>
<text text-anchor="middle" x="1432" y="-62.6" font-family="Times,serif" font-size="14.00">RabbitMQWrapperModule</text>
</g>
<!-- RabbitMQWrapperModule&#45;&gt;ServerModule -->
<g id="edge12" class="edge">
<title>RabbitMQWrapperModule&#45;&gt;ServerModule</title>
<path fill="none" stroke="black" d="M1492.08,-84.91C1492.08,-84.91 1492.08,-103.79 1492.08,-103.79"/>
<polygon fill="black" stroke="black" points="1488.58,-103.79 1492.08,-113.79 1495.58,-103.79 1488.58,-103.79"/>
</g>
<!-- RoleModule -->
<g id="node13" class="node">
<title>RoleModule</title>
<polygon fill="#8dd3c7" stroke="black" points="1329.99,-84.8 1326.99,-88.8 1305.99,-88.8 1302.99,-84.8 1244.01,-84.8 1244.01,-48.8 1329.99,-48.8 1329.99,-84.8"/>
<text text-anchor="middle" x="1287" y="-62.6" font-family="Times,serif" font-size="14.00">RoleModule</text>
</g>
<!-- RoleModule&#45;&gt;ServerModule -->
<g id="edge13" class="edge">
<title>RoleModule&#45;&gt;ServerModule</title>
<path fill="none" stroke="black" d="M1287,-84.92C1287,-99.58 1287,-117.8 1287,-117.8 1287,-117.8 1457.71,-117.8 1457.71,-117.8"/>
<polygon fill="black" stroke="black" points="1457.71,-121.3 1467.71,-117.8 1457.71,-114.3 1457.71,-121.3"/>
</g>
<!-- SchoolApiModule -->
<g id="node14" class="node">
<title>SchoolApiModule</title>
<polygon fill="#8dd3c7" stroke="black" points="1225.94,-84.8 1222.94,-88.8 1201.94,-88.8 1198.94,-84.8 1106.06,-84.8 1106.06,-48.8 1225.94,-48.8 1225.94,-84.8"/>
<text text-anchor="middle" x="1166" y="-62.6" font-family="Times,serif" font-size="14.00">SchoolApiModule</text>
</g>
<!-- SchoolApiModule&#45;&gt;ServerModule -->
<g id="edge14" class="edge">
<title>SchoolApiModule&#45;&gt;ServerModule</title>
<path fill="none" stroke="black" d="M1166,-85.08C1166,-100.75 1166,-120.8 1166,-120.8 1166,-120.8 1457.7,-120.8 1457.7,-120.8"/>
<polygon fill="black" stroke="black" points="1457.7,-124.3 1467.7,-120.8 1457.7,-117.3 1457.7,-124.3"/>
</g>
<!-- SharingApiModule -->
<g id="node15" class="node">
<title>SharingApiModule</title>
<polygon fill="#8dd3c7" stroke="black" points="1088.1,-84.8 1085.1,-88.8 1064.1,-88.8 1061.1,-84.8 963.9,-84.8 963.9,-48.8 1088.1,-48.8 1088.1,-84.8"/>
<text text-anchor="middle" x="1026" y="-62.6" font-family="Times,serif" font-size="14.00">SharingApiModule</text>
</g>
<!-- SharingApiModule&#45;&gt;ServerModule -->
<g id="edge15" class="edge">
<title>SharingApiModule&#45;&gt;ServerModule</title>
<path fill="none" stroke="black" d="M1026,-84.84C1026,-101.53 1026,-123.8 1026,-123.8 1026,-123.8 1457.68,-123.8 1457.68,-123.8"/>
<polygon fill="black" stroke="black" points="1457.68,-127.3 1467.68,-123.8 1457.68,-120.3 1457.68,-127.3"/>
</g>
<!-- SystemModule -->
<g id="node16" class="node">
<title>SystemModule</title>
<polygon fill="#8dd3c7" stroke="black" points="946.28,-84.8 943.28,-88.8 922.28,-88.8 919.28,-84.8 845.72,-84.8 845.72,-48.8 946.28,-48.8 946.28,-84.8"/>
<text text-anchor="middle" x="896" y="-62.6" font-family="Times,serif" font-size="14.00">SystemModule</text>
</g>
<!-- SystemModule&#45;&gt;ServerModule -->
<g id="edge16" class="edge">
<title>SystemModule&#45;&gt;ServerModule</title>
<path fill="none" stroke="black" d="M896,-85.1C896,-103.07 896,-127.8 896,-127.8 896,-127.8 1457.87,-127.8 1457.87,-127.8"/>
<polygon fill="black" stroke="black" points="1457.87,-131.3 1467.87,-127.8 1457.87,-124.3 1457.87,-131.3"/>
</g>
<!-- TaskCardModule -->
<g id="node17" class="node">
<title>TaskCardModule</title>
<polygon fill="#8dd3c7" stroke="black" points="827.98,-84.8 824.98,-88.8 803.98,-88.8 800.98,-84.8 714.02,-84.8 714.02,-48.8 827.98,-48.8 827.98,-84.8"/>
<text text-anchor="middle" x="771" y="-62.6" font-family="Times,serif" font-size="14.00">TaskCardModule</text>
</g>
<!-- TaskCardModule&#45;&gt;ServerModule -->
<g id="edge17" class="edge">
<title>TaskCardModule&#45;&gt;ServerModule</title>
<path fill="none" stroke="black" d="M771,-84.97C771,-103.89 771,-130.8 771,-130.8 771,-130.8 1457.69,-130.8 1457.69,-130.8"/>
<polygon fill="black" stroke="black" points="1457.69,-134.3 1467.69,-130.8 1457.69,-127.3 1457.69,-134.3"/>
</g>
<!-- TaskModule -->
<g id="node18" class="node">
<title>TaskModule</title>
<polygon fill="#8dd3c7" stroke="black" points="696.27,-84.8 693.27,-88.8 672.27,-88.8 669.27,-84.8 609.73,-84.8 609.73,-48.8 696.27,-48.8 696.27,-84.8"/>
<text text-anchor="middle" x="653" y="-62.6" font-family="Times,serif" font-size="14.00">TaskModule</text>
</g>
<!-- TaskModule&#45;&gt;ServerModule -->
<g id="edge18" class="edge">
<title>TaskModule&#45;&gt;ServerModule</title>
<path fill="none" stroke="black" d="M653,-85.11C653,-104.95 653,-133.8 653,-133.8 653,-133.8 1457.75,-133.8 1457.75,-133.8"/>
<polygon fill="black" stroke="black" points="1457.75,-137.3 1467.75,-133.8 1457.75,-130.3 1457.75,-137.3"/>
</g>
<!-- ToolApiModule -->
<g id="node19" class="node">
<title>ToolApiModule</title>
<polygon fill="#8dd3c7" stroke="black" points="591.49,-84.8 588.49,-88.8 567.49,-88.8 564.49,-84.8 484.51,-84.8 484.51,-48.8 591.49,-48.8 591.49,-84.8"/>
<text text-anchor="middle" x="538" y="-62.6" font-family="Times,serif" font-size="14.00">ToolApiModule</text>
</g>
<!-- ToolApiModule&#45;&gt;ServerModule -->
<g id="edge19" class="edge">
<title>ToolApiModule&#45;&gt;ServerModule</title>
<path fill="none" stroke="black" d="M538,-84.83C538,-105.57 538,-136.8 538,-136.8 538,-136.8 1457.83,-136.8 1457.83,-136.8"/>
<polygon fill="black" stroke="black" points="1457.83,-140.3 1467.83,-136.8 1457.83,-133.3 1457.83,-140.3"/>
</g>
<!-- UserMigrationApiModule -->
<g id="node20" class="node">
<title>UserMigrationApiModule</title>
<polygon fill="#8dd3c7" stroke="black" points="466.48,-84.8 463.48,-88.8 442.48,-88.8 439.48,-84.8 303.52,-84.8 303.52,-48.8 466.48,-48.8 466.48,-84.8"/>
<text text-anchor="middle" x="385" y="-62.6" font-family="Times,serif" font-size="14.00">UserMigrationApiModule</text>
</g>
<!-- UserMigrationApiModule&#45;&gt;ServerModule -->
<g id="edge20" class="edge">
<title>UserMigrationApiModule&#45;&gt;ServerModule</title>
<path fill="none" stroke="black" d="M385,-85.09C385,-107.01 385,-140.8 385,-140.8 385,-140.8 1457.76,-140.8 1457.76,-140.8"/>
<polygon fill="black" stroke="black" points="1457.76,-144.3 1467.76,-140.8 1457.76,-137.3 1457.76,-144.3"/>
</g>
<!-- UserModule -->
<g id="node21" class="node">
<title>UserModule</title>
<polygon fill="#8dd3c7" stroke="black" points="285.99,-84.8 282.99,-88.8 261.99,-88.8 258.99,-84.8 200.01,-84.8 200.01,-48.8 285.99,-48.8 285.99,-84.8"/>
<text text-anchor="middle" x="243" y="-62.6" font-family="Times,serif" font-size="14.00">UserModule</text>
</g>
<!-- UserModule&#45;&gt;ServerModule -->
<g id="edge21" class="edge">
<title>UserModule&#45;&gt;ServerModule</title>
<path fill="none" stroke="black" d="M243,-85.05C243,-107.82 243,-143.8 243,-143.8 243,-143.8 1457.65,-143.8 1457.65,-143.8"/>
<polygon fill="black" stroke="black" points="1457.65,-147.3 1467.65,-143.8 1457.65,-140.3 1457.65,-147.3"/>
</g>
<!-- VideoConferenceModule -->
<g id="node22" class="node">
<title>VideoConferenceModule</title>
<polygon fill="#8dd3c7" stroke="black" points="182.28,-84.8 179.28,-88.8 158.28,-88.8 155.28,-84.8 23.72,-84.8 23.72,-48.8 182.28,-48.8 182.28,-84.8"/>
<text text-anchor="middle" x="103" y="-62.6" font-family="Times,serif" font-size="14.00">VideoConferenceModule</text>
</g>
<!-- VideoConferenceModule&#45;&gt;ServerModule -->
<g id="edge22" class="edge">
<title>VideoConferenceModule&#45;&gt;ServerModule</title>
<path fill="none" stroke="black" d="M103,-84.95C103,-108.56 103,-146.8 103,-146.8 103,-146.8 1457.77,-146.8 1457.77,-146.8"/>
<polygon fill="black" stroke="black" points="1457.77,-150.3 1467.77,-146.8 1457.77,-143.3 1457.77,-150.3"/>
</g>
</g>
</svg>
