<?xml version="1.0" encoding="UTF-8" standalone="no"?>
<!DOCTYPE svg PUBLIC "-//W3C//DTD SVG 1.1//EN"
 "http://www.w3.org/Graphics/SVG/1.1/DTD/svg11.dtd">
<!-- Generated by graphviz version 5.0.0 (20220707.1540)
 -->
<!-- Title: dependencies Pages: 1 -->
<svg width="2984pt" height="174pt"
 viewBox="0.00 0.00 2984.00 173.80" xmlns="http://www.w3.org/2000/svg" xmlns:xlink="http://www.w3.org/1999/xlink">
<g id="graph0" class="graph" transform="scale(1 1) rotate(0) translate(4 169.8)">
<title>dependencies</title>
<polygon fill="white" stroke="transparent" points="-4,4 -4,-169.8 2980,-169.8 2980,4 -4,4"/>
<text text-anchor="middle" x="1488" y="-8.2" font-family="sans-serif" font-size="14.00">dependencies</text>
<g id="clust1" class="cluster">
<title>cluster_ServerModule</title>
<polygon fill="none" stroke="black" stroke-dasharray="1,5" points="8,-32.8 8,-157.8 2968,-157.8 2968,-32.8 8,-32.8"/>
</g>
<g id="clust3" class="cluster">
<title>cluster_ServerModule_imports</title>
<polygon fill="none" stroke="black" points="16,-40.8 16,-92.8 2960,-92.8 2960,-40.8 16,-40.8"/>
</g>
<!-- AuthenticationApiModule -->
<g id="node1" class="node">
<title>AuthenticationApiModule</title>
<polygon fill="#8dd3c7" stroke="black" points="2951.75,-84.8 2948.75,-88.8 2927.75,-88.8 2924.75,-84.8 2788.25,-84.8 2788.25,-48.8 2951.75,-48.8 2951.75,-84.8"/>
<text text-anchor="middle" x="2870" y="-62.6" font-family="Times,serif" font-size="14.00">AuthenticationApiModule</text>
</g>
<!-- ServerModule -->
<g id="node22" class="node">
<title>ServerModule</title>
<polygon fill="#8dd3c7" stroke="black" points="1467.09,-149.8 1464.09,-153.8 1443.09,-153.8 1440.09,-149.8 1370.91,-149.8 1370.91,-113.8 1467.09,-113.8 1467.09,-149.8"/>
<text text-anchor="middle" x="1419" y="-127.6" font-family="Times,serif" font-size="14.00">ServerModule</text>
</g>
<!-- AuthenticationApiModule&#45;&gt;ServerModule -->
<g id="edge1" class="edge">
<title>AuthenticationApiModule&#45;&gt;ServerModule</title>
<path fill="none" stroke="black" d="M2870,-84.95C2870,-108.56 2870,-146.8 2870,-146.8 2870,-146.8 1477.28,-146.8 1477.28,-146.8"/>
<polygon fill="black" stroke="black" points="1477.28,-143.3 1467.28,-146.8 1477.28,-150.3 1477.28,-143.3"/>
</g>
<!-- CollaborativeStorageModule -->
<g id="node2" class="node">
<title>CollaborativeStorageModule</title>
<polygon fill="#8dd3c7" stroke="black" points="2770.02,-84.8 2767.02,-88.8 2746.02,-88.8 2743.02,-84.8 2591.98,-84.8 2591.98,-48.8 2770.02,-48.8 2770.02,-84.8"/>
<text text-anchor="middle" x="2681" y="-62.6" font-family="Times,serif" font-size="14.00">CollaborativeStorageModule</text>
</g>
<!-- CollaborativeStorageModule&#45;&gt;ServerModule -->
<g id="edge2" class="edge">
<title>CollaborativeStorageModule&#45;&gt;ServerModule</title>
<path fill="none" stroke="black" d="M2681,-85.05C2681,-107.82 2681,-143.8 2681,-143.8 2681,-143.8 1477.31,-143.8 1477.31,-143.8"/>
<polygon fill="black" stroke="black" points="1477.31,-140.3 1467.31,-143.8 1477.31,-147.3 1477.31,-140.3"/>
</g>
<!-- CoreModule -->
<g id="node3" class="node">
<title>CoreModule</title>
<polygon fill="#8dd3c7" stroke="black" points="2573.27,-84.8 2570.27,-88.8 2549.27,-88.8 2546.27,-84.8 2486.73,-84.8 2486.73,-48.8 2573.27,-48.8 2573.27,-84.8"/>
<text text-anchor="middle" x="2530" y="-62.6" font-family="Times,serif" font-size="14.00">CoreModule</text>
</g>
<!-- CoreModule&#45;&gt;ServerModule -->
<g id="edge3" class="edge">
<title>CoreModule&#45;&gt;ServerModule</title>
<path fill="none" stroke="black" d="M2530,-85.09C2530,-107.01 2530,-140.8 2530,-140.8 2530,-140.8 1477.09,-140.8 1477.09,-140.8"/>
<polygon fill="black" stroke="black" points="1477.09,-137.3 1467.09,-140.8 1477.09,-144.3 1477.09,-137.3"/>
</g>
<!-- FilesStorageClientModule -->
<g id="node4" class="node">
<title>FilesStorageClientModule</title>
<polygon fill="#8dd3c7" stroke="black" points="2468.77,-84.8 2465.77,-88.8 2444.77,-88.8 2441.77,-84.8 2305.23,-84.8 2305.23,-48.8 2468.77,-48.8 2468.77,-84.8"/>
<text text-anchor="middle" x="2387" y="-62.6" font-family="Times,serif" font-size="14.00">FilesStorageClientModule</text>
</g>
<!-- FilesStorageClientModule&#45;&gt;ServerModule -->
<g id="edge4" class="edge">
<title>FilesStorageClientModule&#45;&gt;ServerModule</title>
<path fill="none" stroke="black" d="M2387,-84.83C2387,-105.57 2387,-136.8 2387,-136.8 2387,-136.8 1477.33,-136.8 1477.33,-136.8"/>
<polygon fill="black" stroke="black" points="1477.33,-133.3 1467.33,-136.8 1477.33,-140.3 1477.33,-133.3"/>
</g>
<!-- ImportUserModule -->
<g id="node5" class="node">
<title>ImportUserModule</title>
<polygon fill="#8dd3c7" stroke="black" points="2287.09,-84.8 2284.09,-88.8 2263.09,-88.8 2260.09,-84.8 2162.91,-84.8 2162.91,-48.8 2287.09,-48.8 2287.09,-84.8"/>
<text text-anchor="middle" x="2225" y="-62.6" font-family="Times,serif" font-size="14.00">ImportUserModule</text>
</g>
<!-- ImportUserModule&#45;&gt;ServerModule -->
<g id="edge5" class="edge">
<title>ImportUserModule&#45;&gt;ServerModule</title>
<path fill="none" stroke="black" d="M2225,-85.11C2225,-104.95 2225,-133.8 2225,-133.8 2225,-133.8 1477.3,-133.8 1477.3,-133.8"/>
<polygon fill="black" stroke="black" points="1477.3,-130.3 1467.3,-133.8 1477.3,-137.3 1477.3,-130.3"/>
</g>
<!-- LearnroomModule -->
<g id="node6" class="node">
<title>LearnroomModule</title>
<polygon fill="#8dd3c7" stroke="black" points="2144.75,-84.8 2141.75,-88.8 2120.75,-88.8 2117.75,-84.8 2023.25,-84.8 2023.25,-48.8 2144.75,-48.8 2144.75,-84.8"/>
<text text-anchor="middle" x="2084" y="-62.6" font-family="Times,serif" font-size="14.00">LearnroomModule</text>
</g>
<!-- LearnroomModule&#45;&gt;ServerModule -->
<g id="edge6" class="edge">
<title>LearnroomModule&#45;&gt;ServerModule</title>
<path fill="none" stroke="black" d="M2084,-84.97C2084,-103.89 2084,-130.8 2084,-130.8 2084,-130.8 1477.09,-130.8 1477.09,-130.8"/>
<polygon fill="black" stroke="black" points="1477.09,-127.3 1467.09,-130.8 1477.09,-134.3 1477.09,-127.3"/>
</g>
<!-- LessonApiModule -->
<g id="node7" class="node">
<title>LessonApiModule</title>
<polygon fill="#8dd3c7" stroke="black" points="2005.21,-84.8 2002.21,-88.8 1981.21,-88.8 1978.21,-84.8 1884.79,-84.8 1884.79,-48.8 2005.21,-48.8 2005.21,-84.8"/>
<text text-anchor="middle" x="1945" y="-62.6" font-family="Times,serif" font-size="14.00">LessonApiModule</text>
</g>
<!-- LessonApiModule&#45;&gt;ServerModule -->
<g id="edge7" class="edge">
<title>LessonApiModule&#45;&gt;ServerModule</title>
<path fill="none" stroke="black" d="M1945,-85.1C1945,-103.07 1945,-127.8 1945,-127.8 1945,-127.8 1477.07,-127.8 1477.07,-127.8"/>
<polygon fill="black" stroke="black" points="1477.07,-124.3 1467.07,-127.8 1477.07,-131.3 1477.07,-124.3"/>
</g>
<!-- NewsModule -->
<g id="node8" class="node">
<title>NewsModule</title>
<polygon fill="#8dd3c7" stroke="black" points="1866.94,-84.8 1863.94,-88.8 1842.94,-88.8 1839.94,-84.8 1775.06,-84.8 1775.06,-48.8 1866.94,-48.8 1866.94,-84.8"/>
<text text-anchor="middle" x="1821" y="-62.6" font-family="Times,serif" font-size="14.00">NewsModule</text>
</g>
<!-- NewsModule&#45;&gt;ServerModule -->
<g id="edge8" class="edge">
<title>NewsModule&#45;&gt;ServerModule</title>
<path fill="none" stroke="black" d="M1821,-84.84C1821,-101.53 1821,-123.8 1821,-123.8 1821,-123.8 1477.09,-123.8 1477.09,-123.8"/>
<polygon fill="black" stroke="black" points="1477.09,-120.3 1467.09,-123.8 1477.09,-127.3 1477.09,-120.3"/>
</g>
<!-- OauthModule -->
<g id="node9" class="node">
<title>OauthModule</title>
<polygon fill="#8dd3c7" stroke="black" points="1756.77,-84.8 1753.77,-88.8 1732.77,-88.8 1729.77,-84.8 1663.23,-84.8 1663.23,-48.8 1756.77,-48.8 1756.77,-84.8"/>
<text text-anchor="middle" x="1710" y="-62.6" font-family="Times,serif" font-size="14.00">OauthModule</text>
</g>
<!-- OauthModule&#45;&gt;ServerModule -->
<g id="edge9" class="edge">
<title>OauthModule&#45;&gt;ServerModule</title>
<path fill="none" stroke="black" d="M1710,-85.08C1710,-100.75 1710,-120.8 1710,-120.8 1710,-120.8 1477.05,-120.8 1477.05,-120.8"/>
<polygon fill="black" stroke="black" points="1477.05,-117.3 1467.05,-120.8 1477.05,-124.3 1477.05,-117.3"/>
</g>
<!-- OauthProviderModule -->
<g id="node10" class="node">
<title>OauthProviderModule</title>
<polygon fill="#8dd3c7" stroke="black" points="1644.98,-84.8 1641.98,-88.8 1620.98,-88.8 1617.98,-84.8 1503.02,-84.8 1503.02,-48.8 1644.98,-48.8 1644.98,-84.8"/>
<text text-anchor="middle" x="1574" y="-62.6" font-family="Times,serif" font-size="14.00">OauthProviderModule</text>
</g>
<!-- OauthProviderModule&#45;&gt;ServerModule -->
<g id="edge10" class="edge">
<title>OauthProviderModule&#45;&gt;ServerModule</title>
<path fill="none" stroke="black" d="M1574,-84.92C1574,-99.58 1574,-117.8 1574,-117.8 1574,-117.8 1477.19,-117.8 1477.19,-117.8"/>
<polygon fill="black" stroke="black" points="1477.19,-114.3 1467.19,-117.8 1477.19,-121.3 1477.19,-114.3"/>
</g>
<!-- ProvisioningModule -->
<g id="node11" class="node">
<title>ProvisioningModule</title>
<polygon fill="#8dd3c7" stroke="black" points="1484.62,-84.8 1481.62,-88.8 1460.62,-88.8 1457.62,-84.8 1353.38,-84.8 1353.38,-48.8 1484.62,-48.8 1484.62,-84.8"/>
<text text-anchor="middle" x="1419" y="-62.6" font-family="Times,serif" font-size="14.00">ProvisioningModule</text>
</g>
<!-- ProvisioningModule&#45;&gt;ServerModule -->
<g id="edge11" class="edge">
<title>ProvisioningModule&#45;&gt;ServerModule</title>
<path fill="none" stroke="black" d="M1419,-84.91C1419,-84.91 1419,-103.79 1419,-103.79"/>
<polygon fill="black" stroke="black" points="1415.5,-103.79 1419,-113.79 1422.5,-103.79 1415.5,-103.79"/>
</g>
<!-- RabbitMQWrapperModule -->
<g id="node12" class="node">
<title>RabbitMQWrapperModule</title>
<polygon fill="#8dd3c7" stroke="black" points="1335.41,-84.8 1332.41,-88.8 1311.41,-88.8 1308.41,-84.8 1166.59,-84.8 1166.59,-48.8 1335.41,-48.8 1335.41,-84.8"/>
<text text-anchor="middle" x="1251" y="-62.6" font-family="Times,serif" font-size="14.00">RabbitMQWrapperModule</text>
</g>
<!-- RabbitMQWrapperModule&#45;&gt;ServerModule -->
<g id="edge12" class="edge">
<title>RabbitMQWrapperModule&#45;&gt;ServerModule</title>
<path fill="none" stroke="black" d="M1251,-84.92C1251,-99.58 1251,-117.8 1251,-117.8 1251,-117.8 1360.86,-117.8 1360.86,-117.8"/>
<polygon fill="black" stroke="black" points="1360.86,-121.3 1370.86,-117.8 1360.86,-114.3 1360.86,-121.3"/>
</g>
<!-- RoleModule -->
<g id="node13" class="node">
<title>RoleModule</title>
<polygon fill="#8dd3c7" stroke="black" points="1148.99,-84.8 1145.99,-88.8 1124.99,-88.8 1121.99,-84.8 1063.01,-84.8 1063.01,-48.8 1148.99,-48.8 1148.99,-84.8"/>
<text text-anchor="middle" x="1106" y="-62.6" font-family="Times,serif" font-size="14.00">RoleModule</text>
</g>
<!-- RoleModule&#45;&gt;ServerModule -->
<g id="edge13" class="edge">
<title>RoleModule&#45;&gt;ServerModule</title>
<path fill="none" stroke="black" d="M1106,-85.08C1106,-100.75 1106,-120.8 1106,-120.8 1106,-120.8 1360.78,-120.8 1360.78,-120.8"/>
<polygon fill="black" stroke="black" points="1360.78,-124.3 1370.78,-120.8 1360.78,-117.3 1360.78,-124.3"/>
</g>
<!-- SchoolApiModule -->
<g id="node14" class="node">
<title>SchoolApiModule</title>
<polygon fill="#8dd3c7" stroke="black" points="1044.94,-84.8 1041.94,-88.8 1020.94,-88.8 1017.94,-84.8 925.06,-84.8 925.06,-48.8 1044.94,-48.8 1044.94,-84.8"/>
<text text-anchor="middle" x="985" y="-62.6" font-family="Times,serif" font-size="14.00">SchoolApiModule</text>
</g>
<!-- SchoolApiModule&#45;&gt;ServerModule -->
<g id="edge14" class="edge">
<title>SchoolApiModule&#45;&gt;ServerModule</title>
<path fill="none" stroke="black" d="M985,-84.84C985,-101.53 985,-123.8 985,-123.8 985,-123.8 1360.9,-123.8 1360.9,-123.8"/>
<polygon fill="black" stroke="black" points="1360.9,-127.3 1370.9,-123.8 1360.9,-120.3 1360.9,-127.3"/>
</g>
<!-- SharingApiModule -->
<g id="node15" class="node">
<title>SharingApiModule</title>
<polygon fill="#8dd3c7" stroke="black" points="907.1,-84.8 904.1,-88.8 883.1,-88.8 880.1,-84.8 782.9,-84.8 782.9,-48.8 907.1,-48.8 907.1,-84.8"/>
<text text-anchor="middle" x="845" y="-62.6" font-family="Times,serif" font-size="14.00">SharingApiModule</text>
</g>
<!-- SharingApiModule&#45;&gt;ServerModule -->
<g id="edge15" class="edge">
<title>SharingApiModule&#45;&gt;ServerModule</title>
<path fill="none" stroke="black" d="M845,-85.1C845,-103.07 845,-127.8 845,-127.8 845,-127.8 1360.56,-127.8 1360.56,-127.8"/>
<polygon fill="black" stroke="black" points="1360.56,-131.3 1370.56,-127.8 1360.56,-124.3 1360.56,-131.3"/>
</g>
<!-- SystemModule -->
<g id="node16" class="node">
<title>SystemModule</title>
<polygon fill="#8dd3c7" stroke="black" points="765.28,-84.8 762.28,-88.8 741.28,-88.8 738.28,-84.8 664.72,-84.8 664.72,-48.8 765.28,-48.8 765.28,-84.8"/>
<text text-anchor="middle" x="715" y="-62.6" font-family="Times,serif" font-size="14.00">SystemModule</text>
</g>
<!-- SystemModule&#45;&gt;ServerModule -->
<g id="edge16" class="edge">
<title>SystemModule&#45;&gt;ServerModule</title>
<path fill="none" stroke="black" d="M715,-84.97C715,-103.89 715,-130.8 715,-130.8 715,-130.8 1360.89,-130.8 1360.89,-130.8"/>
<polygon fill="black" stroke="black" points="1360.89,-134.3 1370.89,-130.8 1360.89,-127.3 1360.89,-134.3"/>
</g>
<!-- TaskCardModule -->
<g id="node17" class="node">
<title>TaskCardModule</title>
<polygon fill="#8dd3c7" stroke="black" points="646.98,-84.8 643.98,-88.8 622.98,-88.8 619.98,-84.8 533.02,-84.8 533.02,-48.8 646.98,-48.8 646.98,-84.8"/>
<text text-anchor="middle" x="590" y="-62.6" font-family="Times,serif" font-size="14.00">TaskCardModule</text>
</g>
<!-- TaskCardModule&#45;&gt;ServerModule -->
<g id="edge17" class="edge">
<title>TaskCardModule&#45;&gt;ServerModule</title>
<path fill="none" stroke="black" d="M590,-85.11C590,-104.95 590,-133.8 590,-133.8 590,-133.8 1360.85,-133.8 1360.85,-133.8"/>
<polygon fill="black" stroke="black" points="1360.85,-137.3 1370.85,-133.8 1360.85,-130.3 1360.85,-137.3"/>
</g>
<!-- TaskModule -->
<g id="node18" class="node">
<title>TaskModule</title>
<polygon fill="#8dd3c7" stroke="black" points="515.27,-84.8 512.27,-88.8 491.27,-88.8 488.27,-84.8 428.73,-84.8 428.73,-48.8 515.27,-48.8 515.27,-84.8"/>
<text text-anchor="middle" x="472" y="-62.6" font-family="Times,serif" font-size="14.00">TaskModule</text>
</g>
<!-- TaskModule&#45;&gt;ServerModule -->
<g id="edge18" class="edge">
<title>TaskModule&#45;&gt;ServerModule</title>
<path fill="none" stroke="black" d="M472,-84.83C472,-105.57 472,-136.8 472,-136.8 472,-136.8 1360.74,-136.8 1360.74,-136.8"/>
<polygon fill="black" stroke="black" points="1360.74,-140.3 1370.74,-136.8 1360.74,-133.3 1360.74,-140.3"/>
</g>
<!-- ToolApiModule -->
<g id="node19" class="node">
<title>ToolApiModule</title>
<polygon fill="#8dd3c7" stroke="black" points="410.49,-84.8 407.49,-88.8 386.49,-88.8 383.49,-84.8 303.51,-84.8 303.51,-48.8 410.49,-48.8 410.49,-84.8"/>
<text text-anchor="middle" x="357" y="-62.6" font-family="Times,serif" font-size="14.00">ToolApiModule</text>
</g>
<!-- ToolApiModule&#45;&gt;ServerModule -->
<g id="edge19" class="edge">
<title>ToolApiModule&#45;&gt;ServerModule</title>
<path fill="none" stroke="black" d="M357,-85.09C357,-107.01 357,-140.8 357,-140.8 357,-140.8 1360.61,-140.8 1360.61,-140.8"/>
<polygon fill="black" stroke="black" points="1360.61,-144.3 1370.61,-140.8 1360.61,-137.3 1360.61,-144.3"/>
</g>
<!-- UserModule -->
<g id="node20" class="node">
<title>UserModule</title>
<polygon fill="#8dd3c7" stroke="black" points="285.99,-84.8 282.99,-88.8 261.99,-88.8 258.99,-84.8 200.01,-84.8 200.01,-48.8 285.99,-48.8 285.99,-84.8"/>
<text text-anchor="middle" x="243" y="-62.6" font-family="Times,serif" font-size="14.00">UserModule</text>
</g>
<!-- UserModule&#45;&gt;ServerModule -->
<g id="edge20" class="edge">
<title>UserModule&#45;&gt;ServerModule</title>
<path fill="none" stroke="black" d="M243,-85.05C243,-107.82 243,-143.8 243,-143.8 243,-143.8 1360.71,-143.8 1360.71,-143.8"/>
<polygon fill="black" stroke="black" points="1360.71,-147.3 1370.71,-143.8 1360.71,-140.3 1360.71,-147.3"/>
</g>
<!-- VideoConferenceModule -->
<g id="node21" class="node">
<title>VideoConferenceModule</title>
<polygon fill="#8dd3c7" stroke="black" points="182.28,-84.8 179.28,-88.8 158.28,-88.8 155.28,-84.8 23.72,-84.8 23.72,-48.8 182.28,-48.8 182.28,-84.8"/>
<text text-anchor="middle" x="103" y="-62.6" font-family="Times,serif" font-size="14.00">VideoConferenceModule</text>
</g>
<!-- VideoConferenceModule&#45;&gt;ServerModule -->
<g id="edge21" class="edge">
<title>VideoConferenceModule&#45;&gt;ServerModule</title>
<path fill="none" stroke="black" d="M103,-84.95C103,-108.56 103,-146.8 103,-146.8 103,-146.8 1360.6,-146.8 1360.6,-146.8"/>
<polygon fill="black" stroke="black" points="1360.6,-150.3 1370.6,-146.8 1360.6,-143.3 1360.6,-150.3"/>
</g>
</g>
</svg>
