<?xml version="1.0" encoding="UTF-8" standalone="no"?>
<!DOCTYPE svg PUBLIC "-//W3C//DTD SVG 1.1//EN"
 "http://www.w3.org/Graphics/SVG/1.1/DTD/svg11.dtd">
<!-- Generated by graphviz version 2.47.3 (20210619.1520)
 -->
<!-- Title: dependencies Pages: 1 -->
<svg width="1252pt" height="174pt"
 viewBox="0.00 0.00 1252.00 173.80" xmlns="http://www.w3.org/2000/svg" xmlns:xlink="http://www.w3.org/1999/xlink">
<g id="graph0" class="graph" transform="scale(1 1) rotate(0) translate(4 169.8)">
<title>dependencies</title>
<polygon fill="white" stroke="transparent" points="-4,4 -4,-169.8 1248,-169.8 1248,4 -4,4"/>
<text text-anchor="middle" x="622" y="-8.2" font-family="sans-serif" font-size="14.00">dependencies</text>
<g id="clust1" class="cluster">
<title>cluster_ServerModule</title>
<polygon fill="none" stroke="black" stroke-dasharray="1,5" points="8,-32.8 8,-157.8 1236,-157.8 1236,-32.8 8,-32.8"/>
</g>
<g id="clust3" class="cluster">
<title>cluster_ServerModule_imports</title>
<polygon fill="none" stroke="black" points="16,-40.8 16,-92.8 1228,-92.8 1228,-40.8 16,-40.8"/>
</g>
<!-- AuthModule -->
<g id="node1" class="node">
<title>AuthModule</title>
<polygon fill="#8dd3c7" stroke="black" points="1219.55,-84.8 1216.55,-88.8 1195.55,-88.8 1192.55,-84.8 1132.45,-84.8 1132.45,-48.8 1219.55,-48.8 1219.55,-84.8"/>
<text text-anchor="middle" x="1176" y="-62.6" font-family="Times,serif" font-size="14.00">AuthModule</text>
</g>
<!-- ServerModule -->
<g id="node11" class="node">
<title>ServerModule</title>
<polygon fill="#8dd3c7" stroke="black" points="687.08,-149.8 684.08,-153.8 663.08,-153.8 660.08,-149.8 590.92,-149.8 590.92,-113.8 687.08,-113.8 687.08,-149.8"/>
<text text-anchor="middle" x="639" y="-127.6" font-family="Times,serif" font-size="14.00">ServerModule</text>
</g>
<!-- AuthModule&#45;&gt;ServerModule -->
<g id="edge1" class="edge">
<title>AuthModule&#45;&gt;ServerModule</title>
<path fill="none" stroke="black" d="M1176,-84.81C1176,-107.29 1176,-142.8 1176,-142.8 1176,-142.8 697.13,-142.8 697.13,-142.8"/>
<polygon fill="black" stroke="black" points="697.13,-139.3 687.13,-142.8 697.13,-146.3 697.13,-139.3"/>
</g>
<!-- CoreModule -->
<g id="node2" class="node">
<title>CoreModule</title>
<polygon fill="#8dd3c7" stroke="black" points="1114.26,-84.8 1111.26,-88.8 1090.26,-88.8 1087.26,-84.8 1027.74,-84.8 1027.74,-48.8 1114.26,-48.8 1114.26,-84.8"/>
<text text-anchor="middle" x="1071" y="-62.6" font-family="Times,serif" font-size="14.00">CoreModule</text>
</g>
<!-- CoreModule&#45;&gt;ServerModule -->
<g id="edge2" class="edge">
<title>CoreModule&#45;&gt;ServerModule</title>
<path fill="none" stroke="black" d="M1071,-84.93C1071,-105.37 1071,-135.8 1071,-135.8 1071,-135.8 697.3,-135.8 697.3,-135.8"/>
<polygon fill="black" stroke="black" points="697.3,-132.3 687.3,-135.8 697.3,-139.3 697.3,-132.3"/>
</g>
<!-- FilesModule -->
<g id="node3" class="node">
<title>FilesModule</title>
<polygon fill="#8dd3c7" stroke="black" points="1009.27,-84.8 1006.27,-88.8 985.27,-88.8 982.27,-84.8 922.73,-84.8 922.73,-48.8 1009.27,-48.8 1009.27,-84.8"/>
<text text-anchor="middle" x="966" y="-62.6" font-family="Times,serif" font-size="14.00">FilesModule</text>
</g>
<!-- FilesModule&#45;&gt;ServerModule -->
<g id="edge3" class="edge">
<title>FilesModule&#45;&gt;ServerModule</title>
<path fill="none" stroke="black" d="M966,-85.07C966,-103.36 966,-128.8 966,-128.8 966,-128.8 697.25,-128.8 697.25,-128.8"/>
<polygon fill="black" stroke="black" points="697.25,-125.3 687.25,-128.8 697.25,-132.3 697.25,-125.3"/>
</g>
<!-- ImportUserModule -->
<g id="node4" class="node">
<title>ImportUserModule</title>
<polygon fill="#8dd3c7" stroke="black" points="905.08,-84.8 902.08,-88.8 881.08,-88.8 878.08,-84.8 780.92,-84.8 780.92,-48.8 905.08,-48.8 905.08,-84.8"/>
<text text-anchor="middle" x="843" y="-62.6" font-family="Times,serif" font-size="14.00">ImportUserModule</text>
</g>
<!-- ImportUserModule&#45;&gt;ServerModule -->
<g id="edge4" class="edge">
<title>ImportUserModule&#45;&gt;ServerModule</title>
<path fill="none" stroke="black" d="M843,-84.81C843,-100.85 843,-121.8 843,-121.8 843,-121.8 697.09,-121.8 697.09,-121.8"/>
<polygon fill="black" stroke="black" points="697.09,-118.3 687.09,-121.8 697.09,-125.3 697.09,-118.3"/>
</g>
<!-- LearnroomModule -->
<g id="node5" class="node">
<title>LearnroomModule</title>
<polygon fill="#8dd3c7" stroke="black" points="762.74,-84.8 759.74,-88.8 738.74,-88.8 735.74,-84.8 641.26,-84.8 641.26,-48.8 762.74,-48.8 762.74,-84.8"/>
<text text-anchor="middle" x="702" y="-62.6" font-family="Times,serif" font-size="14.00">LearnroomModule</text>
</g>
<!-- LearnroomModule&#45;&gt;ServerModule -->
<g id="edge5" class="edge">
<title>LearnroomModule&#45;&gt;ServerModule</title>
<path fill="none" stroke="black" d="M664.08,-84.91C664.08,-84.91 664.08,-103.79 664.08,-103.79"/>
<polygon fill="black" stroke="black" points="660.58,-103.79 664.08,-113.79 667.58,-103.79 660.58,-103.79"/>
</g>
<!-- NewsModule -->
<g id="node6" class="node">
<title>NewsModule</title>
<polygon fill="#8dd3c7" stroke="black" points="622.92,-84.8 619.92,-88.8 598.92,-88.8 595.92,-84.8 531.08,-84.8 531.08,-48.8 622.92,-48.8 622.92,-84.8"/>
<text text-anchor="middle" x="577" y="-62.6" font-family="Times,serif" font-size="14.00">NewsModule</text>
</g>
<!-- NewsModule&#45;&gt;ServerModule -->
<g id="edge6" class="edge">
<title>NewsModule&#45;&gt;ServerModule</title>
<path fill="none" stroke="black" d="M606.83,-84.91C606.83,-84.91 606.83,-103.79 606.83,-103.79"/>
<polygon fill="black" stroke="black" points="603.33,-103.79 606.83,-113.79 610.33,-103.79 603.33,-103.79"/>
</g>
<!-- OauthModule -->
<g id="node7" class="node">
<title>OauthModule</title>
<polygon fill="#8dd3c7" stroke="black" points="512.76,-84.8 509.76,-88.8 488.76,-88.8 485.76,-84.8 419.24,-84.8 419.24,-48.8 512.76,-48.8 512.76,-84.8"/>
<text text-anchor="middle" x="466" y="-62.6" font-family="Times,serif" font-size="14.00">OauthModule</text>
</g>
<!-- OauthModule&#45;&gt;ServerModule -->
<g id="edge7" class="edge">
<title>OauthModule&#45;&gt;ServerModule</title>
<path fill="none" stroke="black" d="M466,-84.81C466,-100.85 466,-121.8 466,-121.8 466,-121.8 580.81,-121.8 580.81,-121.8"/>
<polygon fill="black" stroke="black" points="580.81,-125.3 590.81,-121.8 580.81,-118.3 580.81,-125.3"/>
</g>
<!-- RabbitMQWrapperModule -->
<g id="node8" class="node">
<title>RabbitMQWrapperModule</title>
<polygon fill="#8dd3c7" stroke="black" points="401.4,-84.8 398.4,-88.8 377.4,-88.8 374.4,-84.8 232.6,-84.8 232.6,-48.8 401.4,-48.8 401.4,-84.8"/>
<text text-anchor="middle" x="317" y="-62.6" font-family="Times,serif" font-size="14.00">RabbitMQWrapperModule</text>
</g>
<!-- RabbitMQWrapperModule&#45;&gt;ServerModule -->
<g id="edge8" class="edge">
<title>RabbitMQWrapperModule&#45;&gt;ServerModule</title>
<path fill="none" stroke="black" d="M317,-85.07C317,-103.36 317,-128.8 317,-128.8 317,-128.8 580.79,-128.8 580.79,-128.8"/>
<polygon fill="black" stroke="black" points="580.79,-132.3 590.79,-128.8 580.79,-125.3 580.79,-132.3"/>
</g>
<!-- TaskModule -->
<g id="node9" class="node">
<title>TaskModule</title>
<polygon fill="#8dd3c7" stroke="black" points="214.26,-84.8 211.26,-88.8 190.26,-88.8 187.26,-84.8 127.74,-84.8 127.74,-48.8 214.26,-48.8 214.26,-84.8"/>
<text text-anchor="middle" x="171" y="-62.6" font-family="Times,serif" font-size="14.00">TaskModule</text>
</g>
<!-- TaskModule&#45;&gt;ServerModule -->
<g id="edge9" class="edge">
<title>TaskModule&#45;&gt;ServerModule</title>
<path fill="none" stroke="black" d="M171,-84.93C171,-105.37 171,-135.8 171,-135.8 171,-135.8 580.68,-135.8 580.68,-135.8"/>
<polygon fill="black" stroke="black" points="580.68,-139.3 590.68,-135.8 580.68,-132.3 580.68,-139.3"/>
</g>
<!-- UserModule -->
<g id="node10" class="node">
<title>UserModule</title>
<polygon fill="#8dd3c7" stroke="black" points="109.98,-84.8 106.98,-88.8 85.98,-88.8 82.98,-84.8 24.02,-84.8 24.02,-48.8 109.98,-48.8 109.98,-84.8"/>
<text text-anchor="middle" x="67" y="-62.6" font-family="Times,serif" font-size="14.00">UserModule</text>
</g>
<!-- UserModule&#45;&gt;ServerModule -->
<g id="edge10" class="edge">
<title>UserModule&#45;&gt;ServerModule</title>
<path fill="none" stroke="black" d="M67,-84.81C67,-107.29 67,-142.8 67,-142.8 67,-142.8 580.72,-142.8 580.72,-142.8"/>
<polygon fill="black" stroke="black" points="580.72,-146.3 590.72,-142.8 580.72,-139.3 580.72,-146.3"/>
</g>
</g>
</svg>
