<?xml version="1.0" encoding="UTF-8" standalone="no"?>
<!DOCTYPE svg PUBLIC "-//W3C//DTD SVG 1.1//EN"
 "http://www.w3.org/Graphics/SVG/1.1/DTD/svg11.dtd">
<!-- Generated by graphviz version 5.0.0 (20220707.1540)
 -->
<!-- Title: dependencies Pages: 1 -->
<svg width="2351pt" height="174pt"
 viewBox="0.00 0.00 2351.00 173.80" xmlns="http://www.w3.org/2000/svg" xmlns:xlink="http://www.w3.org/1999/xlink">
<g id="graph0" class="graph" transform="scale(1 1) rotate(0) translate(4 169.8)">
<title>dependencies</title>
<polygon fill="white" stroke="transparent" points="-4,4 -4,-169.8 2347,-169.8 2347,4 -4,4"/>
<text text-anchor="middle" x="1171.5" y="-8.2" font-family="sans-serif" font-size="14.00">dependencies</text>
<g id="clust1" class="cluster">
<title>cluster_ServerModule</title>
<polygon fill="none" stroke="black" stroke-dasharray="1,5" points="8,-32.8 8,-157.8 2335,-157.8 2335,-32.8 8,-32.8"/>
</g>
<g id="clust3" class="cluster">
<title>cluster_ServerModule_imports</title>
<polygon fill="none" stroke="black" points="16,-40.8 16,-92.8 2327,-92.8 2327,-40.8 16,-40.8"/>
</g>
<!-- AuthModule -->
<g id="node1" class="node">
<title>AuthModule</title>
<polygon fill="#8dd3c7" stroke="black" points="2318.55,-84.8 2315.55,-88.8 2294.55,-88.8 2291.55,-84.8 2231.45,-84.8 2231.45,-48.8 2318.55,-48.8 2318.55,-84.8"/>
<text text-anchor="middle" x="2275" y="-62.6" font-family="Times,serif" font-size="14.00">AuthModule</text>
</g>
<!-- ServerModule -->
<g id="node18" class="node">
<title>ServerModule</title>
<polygon fill="#8dd3c7" stroke="black" points="1203.09,-149.8 1200.09,-153.8 1179.09,-153.8 1176.09,-149.8 1106.91,-149.8 1106.91,-113.8 1203.09,-113.8 1203.09,-149.8"/>
<text text-anchor="middle" x="1155" y="-127.6" font-family="Times,serif" font-size="14.00">ServerModule</text>
</g>
<!-- AuthModule&#45;&gt;ServerModule -->
<g id="edge1" class="edge">
<title>AuthModule&#45;&gt;ServerModule</title>
<path fill="none" stroke="black" d="M2275,-85.12C2275,-108.46 2275,-145.8 2275,-145.8 2275,-145.8 1213.12,-145.8 1213.12,-145.8"/>
<polygon fill="black" stroke="black" points="1213.13,-142.3 1203.12,-145.8 1213.12,-149.3 1213.13,-142.3"/>
</g>
<!-- CollaborativeStorageModule -->
<g id="node2" class="node">
<title>CollaborativeStorageModule</title>
<polygon fill="#8dd3c7" stroke="black" points="2213.02,-84.8 2210.02,-88.8 2189.02,-88.8 2186.02,-84.8 2034.98,-84.8 2034.98,-48.8 2213.02,-48.8 2213.02,-84.8"/>
<text text-anchor="middle" x="2124" y="-62.6" font-family="Times,serif" font-size="14.00">CollaborativeStorageModule</text>
</g>
<!-- CollaborativeStorageModule&#45;&gt;ServerModule -->
<g id="edge2" class="edge">
<title>CollaborativeStorageModule&#45;&gt;ServerModule</title>
<path fill="none" stroke="black" d="M2124,-84.96C2124,-107.15 2124,-141.8 2124,-141.8 2124,-141.8 1213.05,-141.8 1213.05,-141.8"/>
<polygon fill="black" stroke="black" points="1213.05,-138.3 1203.05,-141.8 1213.05,-145.3 1213.05,-138.3"/>
</g>
<!-- CoreModule -->
<g id="node3" class="node">
<title>CoreModule</title>
<polygon fill="#8dd3c7" stroke="black" points="2016.27,-84.8 2013.27,-88.8 1992.27,-88.8 1989.27,-84.8 1929.73,-84.8 1929.73,-48.8 2016.27,-48.8 2016.27,-84.8"/>
<text text-anchor="middle" x="1973" y="-62.6" font-family="Times,serif" font-size="14.00">CoreModule</text>
</g>
<!-- CoreModule&#45;&gt;ServerModule -->
<g id="edge3" class="edge">
<title>CoreModule&#45;&gt;ServerModule</title>
<path fill="none" stroke="black" d="M1973,-85.08C1973,-106.12 1973,-137.8 1973,-137.8 1973,-137.8 1213.12,-137.8 1213.12,-137.8"/>
<polygon fill="black" stroke="black" points="1213.12,-134.3 1203.12,-137.8 1213.12,-141.3 1213.12,-134.3"/>
</g>
<!-- FilesStorageClientModule -->
<g id="node4" class="node">
<title>FilesStorageClientModule</title>
<polygon fill="#8dd3c7" stroke="black" points="1911.77,-84.8 1908.77,-88.8 1887.77,-88.8 1884.77,-84.8 1748.23,-84.8 1748.23,-48.8 1911.77,-48.8 1911.77,-84.8"/>
<text text-anchor="middle" x="1830" y="-62.6" font-family="Times,serif" font-size="14.00">FilesStorageClientModule</text>
</g>
<!-- FilesStorageClientModule&#45;&gt;ServerModule -->
<g id="edge4" class="edge">
<title>FilesStorageClientModule&#45;&gt;ServerModule</title>
<path fill="none" stroke="black" d="M1830,-85.11C1830,-104.95 1830,-133.8 1830,-133.8 1830,-133.8 1213.27,-133.8 1213.27,-133.8"/>
<polygon fill="black" stroke="black" points="1213.27,-130.3 1203.27,-133.8 1213.27,-137.3 1213.27,-130.3"/>
</g>
<!-- ImportUserModule -->
<g id="node5" class="node">
<title>ImportUserModule</title>
<polygon fill="#8dd3c7" stroke="black" points="1730.09,-84.8 1727.09,-88.8 1706.09,-88.8 1703.09,-84.8 1605.91,-84.8 1605.91,-48.8 1730.09,-48.8 1730.09,-84.8"/>
<text text-anchor="middle" x="1668" y="-62.6" font-family="Times,serif" font-size="14.00">ImportUserModule</text>
</g>
<!-- ImportUserModule&#45;&gt;ServerModule -->
<g id="edge5" class="edge">
<title>ImportUserModule&#45;&gt;ServerModule</title>
<path fill="none" stroke="black" d="M1668,-85.02C1668,-103.63 1668,-129.8 1668,-129.8 1668,-129.8 1213.26,-129.8 1213.26,-129.8"/>
<polygon fill="black" stroke="black" points="1213.26,-126.3 1203.26,-129.8 1213.26,-133.3 1213.26,-126.3"/>
</g>
<!-- LearnroomModule -->
<g id="node6" class="node">
<title>LearnroomModule</title>
<polygon fill="#8dd3c7" stroke="black" points="1587.75,-84.8 1584.75,-88.8 1563.75,-88.8 1560.75,-84.8 1466.25,-84.8 1466.25,-48.8 1587.75,-48.8 1587.75,-84.8"/>
<text text-anchor="middle" x="1527" y="-62.6" font-family="Times,serif" font-size="14.00">LearnroomModule</text>
</g>
<!-- LearnroomModule&#45;&gt;ServerModule -->
<g id="edge6" class="edge">
<title>LearnroomModule&#45;&gt;ServerModule</title>
<path fill="none" stroke="black" d="M1527,-84.82C1527,-102.17 1527,-125.8 1527,-125.8 1527,-125.8 1213.25,-125.8 1213.25,-125.8"/>
<polygon fill="black" stroke="black" points="1213.25,-122.3 1203.25,-125.8 1213.25,-129.3 1213.25,-122.3"/>
</g>
<!-- NewsModule -->
<g id="node7" class="node">
<title>NewsModule</title>
<polygon fill="#8dd3c7" stroke="black" points="1447.94,-84.8 1444.94,-88.8 1423.94,-88.8 1420.94,-84.8 1356.06,-84.8 1356.06,-48.8 1447.94,-48.8 1447.94,-84.8"/>
<text text-anchor="middle" x="1402" y="-62.6" font-family="Times,serif" font-size="14.00">NewsModule</text>
</g>
<!-- NewsModule&#45;&gt;ServerModule -->
<g id="edge7" class="edge">
<title>NewsModule&#45;&gt;ServerModule</title>
<path fill="none" stroke="black" d="M1402,-84.81C1402,-100.85 1402,-121.8 1402,-121.8 1402,-121.8 1213.21,-121.8 1213.21,-121.8"/>
<polygon fill="black" stroke="black" points="1213.21,-118.3 1203.21,-121.8 1213.21,-125.3 1213.21,-118.3"/>
</g>
<!-- OauthModule -->
<g id="node8" class="node">
<title>OauthModule</title>
<polygon fill="#8dd3c7" stroke="black" points="1337.77,-84.8 1334.77,-88.8 1313.77,-88.8 1310.77,-84.8 1244.23,-84.8 1244.23,-48.8 1337.77,-48.8 1337.77,-84.8"/>
<text text-anchor="middle" x="1291" y="-62.6" font-family="Times,serif" font-size="14.00">OauthModule</text>
</g>
<!-- OauthModule&#45;&gt;ServerModule -->
<g id="edge8" class="edge">
<title>OauthModule&#45;&gt;ServerModule</title>
<path fill="none" stroke="black" d="M1291,-84.92C1291,-99.58 1291,-117.8 1291,-117.8 1291,-117.8 1213.33,-117.8 1213.33,-117.8"/>
<polygon fill="black" stroke="black" points="1213.33,-114.3 1203.33,-117.8 1213.33,-121.3 1213.33,-114.3"/>
</g>
<!-- OauthProviderModule -->
<g id="node9" class="node">
<title>OauthProviderModule</title>
<polygon fill="#8dd3c7" stroke="black" points="1225.98,-84.8 1222.98,-88.8 1201.98,-88.8 1198.98,-84.8 1084.02,-84.8 1084.02,-48.8 1225.98,-48.8 1225.98,-84.8"/>
<text text-anchor="middle" x="1155" y="-62.6" font-family="Times,serif" font-size="14.00">OauthProviderModule</text>
</g>
<!-- OauthProviderModule&#45;&gt;ServerModule -->
<g id="edge9" class="edge">
<title>OauthProviderModule&#45;&gt;ServerModule</title>
<path fill="none" stroke="black" d="M1155,-84.91C1155,-84.91 1155,-103.79 1155,-103.79"/>
<polygon fill="black" stroke="black" points="1151.5,-103.79 1155,-113.79 1158.5,-103.79 1151.5,-103.79"/>
</g>
<!-- ProvisioningModule -->
<g id="node10" class="node">
<title>ProvisioningModule</title>
<polygon fill="#8dd3c7" stroke="black" points="1065.62,-84.8 1062.62,-88.8 1041.62,-88.8 1038.62,-84.8 934.38,-84.8 934.38,-48.8 1065.62,-48.8 1065.62,-84.8"/>
<text text-anchor="middle" x="1000" y="-62.6" font-family="Times,serif" font-size="14.00">ProvisioningModule</text>
</g>
<!-- ProvisioningModule&#45;&gt;ServerModule -->
<g id="edge10" class="edge">
<title>ProvisioningModule&#45;&gt;ServerModule</title>
<path fill="none" stroke="black" d="M1000,-84.92C1000,-99.58 1000,-117.8 1000,-117.8 1000,-117.8 1096.81,-117.8 1096.81,-117.8"/>
<polygon fill="black" stroke="black" points="1096.81,-121.3 1106.81,-117.8 1096.81,-114.3 1096.81,-121.3"/>
</g>
<!-- RabbitMQWrapperModule -->
<g id="node11" class="node">
<title>RabbitMQWrapperModule</title>
<polygon fill="#8dd3c7" stroke="black" points="916.41,-84.8 913.41,-88.8 892.41,-88.8 889.41,-84.8 747.59,-84.8 747.59,-48.8 916.41,-48.8 916.41,-84.8"/>
<text text-anchor="middle" x="832" y="-62.6" font-family="Times,serif" font-size="14.00">RabbitMQWrapperModule</text>
</g>
<!-- RabbitMQWrapperModule&#45;&gt;ServerModule -->
<g id="edge11" class="edge">
<title>RabbitMQWrapperModule&#45;&gt;ServerModule</title>
<path fill="none" stroke="black" d="M832,-84.81C832,-100.85 832,-121.8 832,-121.8 832,-121.8 1096.64,-121.8 1096.64,-121.8"/>
<polygon fill="black" stroke="black" points="1096.64,-125.3 1106.64,-121.8 1096.64,-118.3 1096.64,-125.3"/>
</g>
<!-- RoleModule -->
<g id="node12" class="node">
<title>RoleModule</title>
<polygon fill="#8dd3c7" stroke="black" points="729.99,-84.8 726.99,-88.8 705.99,-88.8 702.99,-84.8 644.01,-84.8 644.01,-48.8 729.99,-48.8 729.99,-84.8"/>
<text text-anchor="middle" x="687" y="-62.6" font-family="Times,serif" font-size="14.00">RoleModule</text>
</g>
<!-- RoleModule&#45;&gt;ServerModule -->
<g id="edge12" class="edge">
<title>RoleModule&#45;&gt;ServerModule</title>
<path fill="none" stroke="black" d="M687,-84.82C687,-102.17 687,-125.8 687,-125.8 687,-125.8 1096.68,-125.8 1096.68,-125.8"/>
<polygon fill="black" stroke="black" points="1096.68,-129.3 1106.68,-125.8 1096.68,-122.3 1096.68,-129.3"/>
</g>
<!-- SchoolModule -->
<g id="node13" class="node">
<title>SchoolModule</title>
<polygon fill="#8dd3c7" stroke="black" points="626.44,-84.8 623.44,-88.8 602.44,-88.8 599.44,-84.8 527.56,-84.8 527.56,-48.8 626.44,-48.8 626.44,-84.8"/>
<text text-anchor="middle" x="577" y="-62.6" font-family="Times,serif" font-size="14.00">SchoolModule</text>
</g>
<!-- SchoolModule&#45;&gt;ServerModule -->
<g id="edge13" class="edge">
<title>SchoolModule&#45;&gt;ServerModule</title>
<path fill="none" stroke="black" d="M577,-85.02C577,-103.63 577,-129.8 577,-129.8 577,-129.8 1096.71,-129.8 1096.71,-129.8"/>
<polygon fill="black" stroke="black" points="1096.71,-133.3 1106.71,-129.8 1096.71,-126.3 1096.71,-133.3"/>
</g>
<!-- SystemModule -->
<g id="node14" class="node">
<title>SystemModule</title>
<polygon fill="#8dd3c7" stroke="black" points="509.28,-84.8 506.28,-88.8 485.28,-88.8 482.28,-84.8 408.72,-84.8 408.72,-48.8 509.28,-48.8 509.28,-84.8"/>
<text text-anchor="middle" x="459" y="-62.6" font-family="Times,serif" font-size="14.00">SystemModule</text>
</g>
<!-- SystemModule&#45;&gt;ServerModule -->
<g id="edge14" class="edge">
<title>SystemModule&#45;&gt;ServerModule</title>
<path fill="none" stroke="black" d="M459,-85.11C459,-104.95 459,-133.8 459,-133.8 459,-133.8 1096.89,-133.8 1096.89,-133.8"/>
<polygon fill="black" stroke="black" points="1096.89,-137.3 1106.89,-133.8 1096.89,-130.3 1096.89,-137.3"/>
</g>
<!-- TaskModule -->
<g id="node15" class="node">
<title>TaskModule</title>
<polygon fill="#8dd3c7" stroke="black" points="390.27,-84.8 387.27,-88.8 366.27,-88.8 363.27,-84.8 303.73,-84.8 303.73,-48.8 390.27,-48.8 390.27,-84.8"/>
<text text-anchor="middle" x="347" y="-62.6" font-family="Times,serif" font-size="14.00">TaskModule</text>
</g>
<!-- TaskModule&#45;&gt;ServerModule -->
<g id="edge15" class="edge">
<title>TaskModule&#45;&gt;ServerModule</title>
<path fill="none" stroke="black" d="M347,-85.08C347,-106.12 347,-137.8 347,-137.8 347,-137.8 1096.88,-137.8 1096.88,-137.8"/>
<polygon fill="black" stroke="black" points="1096.88,-141.3 1106.88,-137.8 1096.88,-134.3 1096.88,-141.3"/>
</g>
<!-- UserModule -->
<g id="node16" class="node">
<title>UserModule</title>
<polygon fill="#8dd3c7" stroke="black" points="285.99,-84.8 282.99,-88.8 261.99,-88.8 258.99,-84.8 200.01,-84.8 200.01,-48.8 285.99,-48.8 285.99,-84.8"/>
<text text-anchor="middle" x="243" y="-62.6" font-family="Times,serif" font-size="14.00">UserModule</text>
</g>
<!-- UserModule&#45;&gt;ServerModule -->
<g id="edge16" class="edge">
<title>UserModule&#45;&gt;ServerModule</title>
<path fill="none" stroke="black" d="M243,-84.96C243,-107.15 243,-141.8 243,-141.8 243,-141.8 1096.93,-141.8 1096.93,-141.8"/>
<polygon fill="black" stroke="black" points="1096.93,-145.3 1106.93,-141.8 1096.93,-138.3 1096.93,-145.3"/>
</g>
<!-- VideoConferenceModule -->
<g id="node17" class="node">
<title>VideoConferenceModule</title>
<polygon fill="#8dd3c7" stroke="black" points="182.28,-84.8 179.28,-88.8 158.28,-88.8 155.28,-84.8 23.72,-84.8 23.72,-48.8 182.28,-48.8 182.28,-84.8"/>
<text text-anchor="middle" x="103" y="-62.6" font-family="Times,serif" font-size="14.00">VideoConferenceModule</text>
</g>
<!-- VideoConferenceModule&#45;&gt;ServerModule -->
<g id="edge17" class="edge">
<title>VideoConferenceModule&#45;&gt;ServerModule</title>
<path fill="none" stroke="black" d="M103,-85.12C103,-108.46 103,-145.8 103,-145.8 103,-145.8 1096.72,-145.8 1096.72,-145.8"/>
<polygon fill="black" stroke="black" points="1096.72,-149.3 1106.72,-145.8 1096.72,-142.3 1096.72,-149.3"/>
</g>
</g>
</svg>
