<?xml version="1.0" encoding="UTF-8" standalone="no"?>
<!DOCTYPE svg PUBLIC "-//W3C//DTD SVG 1.1//EN"
 "http://www.w3.org/Graphics/SVG/1.1/DTD/svg11.dtd">
<!-- Generated by graphviz version 5.0.0 (20220707.1540)
 -->
<!-- Title: dependencies Pages: 1 -->
<svg width="2755pt" height="174pt"
 viewBox="0.00 0.00 2755.00 173.80" xmlns="http://www.w3.org/2000/svg" xmlns:xlink="http://www.w3.org/1999/xlink">
<g id="graph0" class="graph" transform="scale(1 1) rotate(0) translate(4 169.8)">
<title>dependencies</title>
<polygon fill="white" stroke="transparent" points="-4,4 -4,-169.8 2751,-169.8 2751,4 -4,4"/>
<text text-anchor="middle" x="1373.5" y="-8.2" font-family="sans-serif" font-size="14.00">dependencies</text>
<g id="clust1" class="cluster">
<title>cluster_ServerModule</title>
<polygon fill="none" stroke="black" stroke-dasharray="1,5" points="8,-32.8 8,-157.8 2739,-157.8 2739,-32.8 8,-32.8"/>
</g>
<g id="clust3" class="cluster">
<title>cluster_ServerModule_imports</title>
<polygon fill="none" stroke="black" points="16,-40.8 16,-92.8 2731,-92.8 2731,-40.8 16,-40.8"/>
</g>
<!-- AuthModule -->
<g id="node1" class="node">
<title>AuthModule</title>
<polygon fill="#8dd3c7" stroke="black" points="2722.55,-84.8 2719.55,-88.8 2698.55,-88.8 2695.55,-84.8 2635.45,-84.8 2635.45,-48.8 2722.55,-48.8 2722.55,-84.8"/>
<text text-anchor="middle" x="2679" y="-62.6" font-family="Times,serif" font-size="14.00">AuthModule</text>
</g>
<!-- ServerModule -->
<g id="node21" class="node">
<title>ServerModule</title>
<polygon fill="#8dd3c7" stroke="black" points="1391.09,-149.8 1388.09,-153.8 1367.09,-153.8 1364.09,-149.8 1294.91,-149.8 1294.91,-113.8 1391.09,-113.8 1391.09,-149.8"/>
<text text-anchor="middle" x="1343" y="-127.6" font-family="Times,serif" font-size="14.00">ServerModule</text>
</g>
<!-- AuthModule&#45;&gt;ServerModule -->
<g id="edge1" class="edge">
<title>AuthModule&#45;&gt;ServerModule</title>
<path fill="none" stroke="black" d="M2679,-84.95C2679,-108.56 2679,-146.8 2679,-146.8 2679,-146.8 1401.34,-146.8 1401.34,-146.8"/>
<polygon fill="black" stroke="black" points="1401.34,-143.3 1391.34,-146.8 1401.34,-150.3 1401.34,-143.3"/>
</g>
<!-- CollaborativeStorageModule -->
<g id="node2" class="node">
<title>CollaborativeStorageModule</title>
<polygon fill="#8dd3c7" stroke="black" points="2617.02,-84.8 2614.02,-88.8 2593.02,-88.8 2590.02,-84.8 2438.98,-84.8 2438.98,-48.8 2617.02,-48.8 2617.02,-84.8"/>
<text text-anchor="middle" x="2528" y="-62.6" font-family="Times,serif" font-size="14.00">CollaborativeStorageModule</text>
</g>
<!-- CollaborativeStorageModule&#45;&gt;ServerModule -->
<g id="edge2" class="edge">
<title>CollaborativeStorageModule&#45;&gt;ServerModule</title>
<path fill="none" stroke="black" d="M2528,-84.81C2528,-107.29 2528,-142.8 2528,-142.8 2528,-142.8 1401.29,-142.8 1401.29,-142.8"/>
<polygon fill="black" stroke="black" points="1401.29,-139.3 1391.29,-142.8 1401.29,-146.3 1401.29,-139.3"/>
</g>
<!-- CoreModule -->
<g id="node3" class="node">
<title>CoreModule</title>
<polygon fill="#8dd3c7" stroke="black" points="2420.27,-84.8 2417.27,-88.8 2396.27,-88.8 2393.27,-84.8 2333.73,-84.8 2333.73,-48.8 2420.27,-48.8 2420.27,-84.8"/>
<text text-anchor="middle" x="2377" y="-62.6" font-family="Times,serif" font-size="14.00">CoreModule</text>
</g>
<!-- CoreModule&#45;&gt;ServerModule -->
<g id="edge3" class="edge">
<title>CoreModule&#45;&gt;ServerModule</title>
<path fill="none" stroke="black" d="M2377,-84.84C2377,-106.46 2377,-139.8 2377,-139.8 2377,-139.8 1401.14,-139.8 1401.14,-139.8"/>
<polygon fill="black" stroke="black" points="1401.14,-136.3 1391.14,-139.8 1401.14,-143.3 1401.14,-136.3"/>
</g>
<!-- FilesStorageClientModule -->
<g id="node4" class="node">
<title>FilesStorageClientModule</title>
<polygon fill="#8dd3c7" stroke="black" points="2315.77,-84.8 2312.77,-88.8 2291.77,-88.8 2288.77,-84.8 2152.23,-84.8 2152.23,-48.8 2315.77,-48.8 2315.77,-84.8"/>
<text text-anchor="middle" x="2234" y="-62.6" font-family="Times,serif" font-size="14.00">FilesStorageClientModule</text>
</g>
<!-- FilesStorageClientModule&#45;&gt;ServerModule -->
<g id="edge4" class="edge">
<title>FilesStorageClientModule&#45;&gt;ServerModule</title>
<path fill="none" stroke="black" d="M2234,-84.93C2234,-105.37 2234,-135.8 2234,-135.8 2234,-135.8 1401.22,-135.8 1401.22,-135.8"/>
<polygon fill="black" stroke="black" points="1401.22,-132.3 1391.22,-135.8 1401.22,-139.3 1401.22,-132.3"/>
</g>
<!-- ImportUserModule -->
<g id="node5" class="node">
<title>ImportUserModule</title>
<polygon fill="#8dd3c7" stroke="black" points="2134.09,-84.8 2131.09,-88.8 2110.09,-88.8 2107.09,-84.8 2009.91,-84.8 2009.91,-48.8 2134.09,-48.8 2134.09,-84.8"/>
<text text-anchor="middle" x="2072" y="-62.6" font-family="Times,serif" font-size="14.00">ImportUserModule</text>
</g>
<!-- ImportUserModule&#45;&gt;ServerModule -->
<g id="edge5" class="edge">
<title>ImportUserModule&#45;&gt;ServerModule</title>
<path fill="none" stroke="black" d="M2072,-84.91C2072,-104.14 2072,-131.8 2072,-131.8 2072,-131.8 1401.11,-131.8 1401.11,-131.8"/>
<polygon fill="black" stroke="black" points="1401.11,-128.3 1391.11,-131.8 1401.11,-135.3 1401.11,-128.3"/>
</g>
<!-- LearnroomModule -->
<g id="node6" class="node">
<title>LearnroomModule</title>
<polygon fill="#8dd3c7" stroke="black" points="1991.75,-84.8 1988.75,-88.8 1967.75,-88.8 1964.75,-84.8 1870.25,-84.8 1870.25,-48.8 1991.75,-48.8 1991.75,-84.8"/>
<text text-anchor="middle" x="1931" y="-62.6" font-family="Times,serif" font-size="14.00">LearnroomModule</text>
</g>
<!-- LearnroomModule&#45;&gt;ServerModule -->
<g id="edge6" class="edge">
<title>LearnroomModule&#45;&gt;ServerModule</title>
<path fill="none" stroke="black" d="M1931,-85.07C1931,-103.36 1931,-128.8 1931,-128.8 1931,-128.8 1401.12,-128.8 1401.12,-128.8"/>
<polygon fill="black" stroke="black" points="1401.12,-125.3 1391.12,-128.8 1401.12,-132.3 1401.12,-125.3"/>
</g>
<!-- LessonApiModule -->
<g id="node7" class="node">
<title>LessonApiModule</title>
<polygon fill="#8dd3c7" stroke="black" points="1852.21,-84.8 1849.21,-88.8 1828.21,-88.8 1825.21,-84.8 1731.79,-84.8 1731.79,-48.8 1852.21,-48.8 1852.21,-84.8"/>
<text text-anchor="middle" x="1792" y="-62.6" font-family="Times,serif" font-size="14.00">LessonApiModule</text>
</g>
<!-- LessonApiModule&#45;&gt;ServerModule -->
<g id="edge7" class="edge">
<title>LessonApiModule&#45;&gt;ServerModule</title>
<path fill="none" stroke="black" d="M1792,-84.83C1792,-101.86 1792,-124.8 1792,-124.8 1792,-124.8 1401.05,-124.8 1401.05,-124.8"/>
<polygon fill="black" stroke="black" points="1401.05,-121.3 1391.05,-124.8 1401.05,-128.3 1401.05,-121.3"/>
</g>
<!-- NewsModule -->
<g id="node8" class="node">
<title>NewsModule</title>
<polygon fill="#8dd3c7" stroke="black" points="1713.94,-84.8 1710.94,-88.8 1689.94,-88.8 1686.94,-84.8 1622.06,-84.8 1622.06,-48.8 1713.94,-48.8 1713.94,-84.8"/>
<text text-anchor="middle" x="1668" y="-62.6" font-family="Times,serif" font-size="14.00">NewsModule</text>
</g>
<!-- NewsModule&#45;&gt;ServerModule -->
<g id="edge8" class="edge">
<title>NewsModule&#45;&gt;ServerModule</title>
<path fill="none" stroke="black" d="M1668,-84.81C1668,-100.85 1668,-121.8 1668,-121.8 1668,-121.8 1401.3,-121.8 1401.3,-121.8"/>
<polygon fill="black" stroke="black" points="1401.3,-118.3 1391.3,-121.8 1401.3,-125.3 1401.3,-118.3"/>
</g>
<!-- OauthModule -->
<g id="node9" class="node">
<title>OauthModule</title>
<polygon fill="#8dd3c7" stroke="black" points="1603.77,-84.8 1600.77,-88.8 1579.77,-88.8 1576.77,-84.8 1510.23,-84.8 1510.23,-48.8 1603.77,-48.8 1603.77,-84.8"/>
<text text-anchor="middle" x="1557" y="-62.6" font-family="Times,serif" font-size="14.00">OauthModule</text>
</g>
<!-- OauthModule&#45;&gt;ServerModule -->
<g id="edge9" class="edge">
<title>OauthModule&#45;&gt;ServerModule</title>
<path fill="none" stroke="black" d="M1557,-84.92C1557,-99.58 1557,-117.8 1557,-117.8 1557,-117.8 1401.29,-117.8 1401.29,-117.8"/>
<polygon fill="black" stroke="black" points="1401.29,-114.3 1391.29,-117.8 1401.29,-121.3 1401.29,-114.3"/>
</g>
<!-- OauthProviderModule -->
<g id="node10" class="node">
<title>OauthProviderModule</title>
<polygon fill="#8dd3c7" stroke="black" points="1491.98,-84.8 1488.98,-88.8 1467.98,-88.8 1464.98,-84.8 1350.02,-84.8 1350.02,-48.8 1491.98,-48.8 1491.98,-84.8"/>
<text text-anchor="middle" x="1421" y="-62.6" font-family="Times,serif" font-size="14.00">OauthProviderModule</text>
</g>
<!-- OauthProviderModule&#45;&gt;ServerModule -->
<g id="edge10" class="edge">
<title>OauthProviderModule&#45;&gt;ServerModule</title>
<path fill="none" stroke="black" d="M1370.53,-84.91C1370.53,-84.91 1370.53,-103.79 1370.53,-103.79"/>
<polygon fill="black" stroke="black" points="1367.03,-103.79 1370.53,-113.79 1374.03,-103.79 1367.03,-103.79"/>
</g>
<!-- ProvisioningModule -->
<g id="node11" class="node">
<title>ProvisioningModule</title>
<polygon fill="#8dd3c7" stroke="black" points="1331.62,-84.8 1328.62,-88.8 1307.62,-88.8 1304.62,-84.8 1200.38,-84.8 1200.38,-48.8 1331.62,-48.8 1331.62,-84.8"/>
<text text-anchor="middle" x="1266" y="-62.6" font-family="Times,serif" font-size="14.00">ProvisioningModule</text>
</g>
<!-- ProvisioningModule&#45;&gt;ServerModule -->
<g id="edge11" class="edge">
<title>ProvisioningModule&#45;&gt;ServerModule</title>
<path fill="none" stroke="black" d="M1313.26,-84.91C1313.26,-84.91 1313.26,-103.79 1313.26,-103.79"/>
<polygon fill="black" stroke="black" points="1309.76,-103.79 1313.26,-113.79 1316.76,-103.79 1309.76,-103.79"/>
</g>
<!-- RabbitMQWrapperModule -->
<g id="node12" class="node">
<title>RabbitMQWrapperModule</title>
<polygon fill="#8dd3c7" stroke="black" points="1182.41,-84.8 1179.41,-88.8 1158.41,-88.8 1155.41,-84.8 1013.59,-84.8 1013.59,-48.8 1182.41,-48.8 1182.41,-84.8"/>
<text text-anchor="middle" x="1098" y="-62.6" font-family="Times,serif" font-size="14.00">RabbitMQWrapperModule</text>
</g>
<!-- RabbitMQWrapperModule&#45;&gt;ServerModule -->
<g id="edge12" class="edge">
<title>RabbitMQWrapperModule&#45;&gt;ServerModule</title>
<path fill="none" stroke="black" d="M1098,-84.92C1098,-99.58 1098,-117.8 1098,-117.8 1098,-117.8 1284.89,-117.8 1284.89,-117.8"/>
<polygon fill="black" stroke="black" points="1284.89,-121.3 1294.89,-117.8 1284.89,-114.3 1284.89,-121.3"/>
</g>
<!-- RoleModule -->
<g id="node13" class="node">
<title>RoleModule</title>
<polygon fill="#8dd3c7" stroke="black" points="995.99,-84.8 992.99,-88.8 971.99,-88.8 968.99,-84.8 910.01,-84.8 910.01,-48.8 995.99,-48.8 995.99,-84.8"/>
<text text-anchor="middle" x="953" y="-62.6" font-family="Times,serif" font-size="14.00">RoleModule</text>
</g>
<!-- RoleModule&#45;&gt;ServerModule -->
<g id="edge13" class="edge">
<title>RoleModule&#45;&gt;ServerModule</title>
<path fill="none" stroke="black" d="M953,-84.81C953,-100.85 953,-121.8 953,-121.8 953,-121.8 1284.79,-121.8 1284.79,-121.8"/>
<polygon fill="black" stroke="black" points="1284.79,-125.3 1294.79,-121.8 1284.79,-118.3 1284.79,-125.3"/>
</g>
<!-- SchoolModule -->
<g id="node14" class="node">
<title>SchoolModule</title>
<polygon fill="#8dd3c7" stroke="black" points="892.44,-84.8 889.44,-88.8 868.44,-88.8 865.44,-84.8 793.56,-84.8 793.56,-48.8 892.44,-48.8 892.44,-84.8"/>
<text text-anchor="middle" x="843" y="-62.6" font-family="Times,serif" font-size="14.00">SchoolModule</text>
</g>
<!-- SchoolModule&#45;&gt;ServerModule -->
<g id="edge14" class="edge">
<title>SchoolModule&#45;&gt;ServerModule</title>
<path fill="none" stroke="black" d="M843,-84.83C843,-101.86 843,-124.8 843,-124.8 843,-124.8 1284.6,-124.8 1284.6,-124.8"/>
<polygon fill="black" stroke="black" points="1284.6,-128.3 1294.6,-124.8 1284.6,-121.3 1284.6,-128.3"/>
</g>
<!-- SharingApiModule -->
<g id="node15" class="node">
<title>SharingApiModule</title>
<polygon fill="#8dd3c7" stroke="black" points="776.1,-84.8 773.1,-88.8 752.1,-88.8 749.1,-84.8 651.9,-84.8 651.9,-48.8 776.1,-48.8 776.1,-84.8"/>
<text text-anchor="middle" x="714" y="-62.6" font-family="Times,serif" font-size="14.00">SharingApiModule</text>
</g>
<!-- SharingApiModule&#45;&gt;ServerModule -->
<g id="edge15" class="edge">
<title>SharingApiModule&#45;&gt;ServerModule</title>
<path fill="none" stroke="black" d="M714,-85.07C714,-103.36 714,-128.8 714,-128.8 714,-128.8 1284.95,-128.8 1284.95,-128.8"/>
<polygon fill="black" stroke="black" points="1284.95,-132.3 1294.95,-128.8 1284.95,-125.3 1284.95,-132.3"/>
</g>
<!-- SystemModule -->
<g id="node16" class="node">
<title>SystemModule</title>
<polygon fill="#8dd3c7" stroke="black" points="634.28,-84.8 631.28,-88.8 610.28,-88.8 607.28,-84.8 533.72,-84.8 533.72,-48.8 634.28,-48.8 634.28,-84.8"/>
<text text-anchor="middle" x="584" y="-62.6" font-family="Times,serif" font-size="14.00">SystemModule</text>
</g>
<!-- SystemModule&#45;&gt;ServerModule -->
<g id="edge16" class="edge">
<title>SystemModule&#45;&gt;ServerModule</title>
<path fill="none" stroke="black" d="M584,-84.91C584,-104.14 584,-131.8 584,-131.8 584,-131.8 1284.95,-131.8 1284.95,-131.8"/>
<polygon fill="black" stroke="black" points="1284.95,-135.3 1294.95,-131.8 1284.95,-128.3 1284.95,-135.3"/>
</g>
<!-- TaskModule -->
<g id="node17" class="node">
<title>TaskModule</title>
<polygon fill="#8dd3c7" stroke="black" points="515.27,-84.8 512.27,-88.8 491.27,-88.8 488.27,-84.8 428.73,-84.8 428.73,-48.8 515.27,-48.8 515.27,-84.8"/>
<text text-anchor="middle" x="472" y="-62.6" font-family="Times,serif" font-size="14.00">TaskModule</text>
</g>
<!-- TaskModule&#45;&gt;ServerModule -->
<g id="edge17" class="edge">
<title>TaskModule&#45;&gt;ServerModule</title>
<path fill="none" stroke="black" d="M472,-84.93C472,-105.37 472,-135.8 472,-135.8 472,-135.8 1284.93,-135.8 1284.93,-135.8"/>
<polygon fill="black" stroke="black" points="1284.93,-139.3 1294.93,-135.8 1284.93,-132.3 1284.93,-139.3"/>
</g>
<!-- ToolApiModule -->
<g id="node18" class="node">
<title>ToolApiModule</title>
<polygon fill="#8dd3c7" stroke="black" points="410.49,-84.8 407.49,-88.8 386.49,-88.8 383.49,-84.8 303.51,-84.8 303.51,-48.8 410.49,-48.8 410.49,-84.8"/>
<text text-anchor="middle" x="357" y="-62.6" font-family="Times,serif" font-size="14.00">ToolApiModule</text>
</g>
<!-- ToolApiModule&#45;&gt;ServerModule -->
<g id="edge18" class="edge">
<title>ToolApiModule&#45;&gt;ServerModule</title>
<path fill="none" stroke="black" d="M357,-84.84C357,-106.46 357,-139.8 357,-139.8 357,-139.8 1284.78,-139.8 1284.78,-139.8"/>
<polygon fill="black" stroke="black" points="1284.78,-143.3 1294.78,-139.8 1284.78,-136.3 1284.78,-143.3"/>
</g>
<!-- UserModule -->
<g id="node19" class="node">
<title>UserModule</title>
<polygon fill="#8dd3c7" stroke="black" points="285.99,-84.8 282.99,-88.8 261.99,-88.8 258.99,-84.8 200.01,-84.8 200.01,-48.8 285.99,-48.8 285.99,-84.8"/>
<text text-anchor="middle" x="243" y="-62.6" font-family="Times,serif" font-size="14.00">UserModule</text>
</g>
<!-- UserModule&#45;&gt;ServerModule -->
<g id="edge19" class="edge">
<title>UserModule&#45;&gt;ServerModule</title>
<path fill="none" stroke="black" d="M243,-84.81C243,-107.29 243,-142.8 243,-142.8 243,-142.8 1284.67,-142.8 1284.67,-142.8"/>
<polygon fill="black" stroke="black" points="1284.67,-146.3 1294.67,-142.8 1284.67,-139.3 1284.67,-146.3"/>
</g>
<!-- VideoConferenceModule -->
<g id="node20" class="node">
<title>VideoConferenceModule</title>
<polygon fill="#8dd3c7" stroke="black" points="182.28,-84.8 179.28,-88.8 158.28,-88.8 155.28,-84.8 23.72,-84.8 23.72,-48.8 182.28,-48.8 182.28,-84.8"/>
<text text-anchor="middle" x="103" y="-62.6" font-family="Times,serif" font-size="14.00">VideoConferenceModule</text>
</g>
<!-- VideoConferenceModule&#45;&gt;ServerModule -->
<g id="edge20" class="edge">
<title>VideoConferenceModule&#45;&gt;ServerModule</title>
<path fill="none" stroke="black" d="M103,-84.95C103,-108.56 103,-146.8 103,-146.8 103,-146.8 1284.77,-146.8 1284.77,-146.8"/>
<polygon fill="black" stroke="black" points="1284.77,-150.3 1294.77,-146.8 1284.77,-143.3 1284.77,-150.3"/>
</g>
</g>
</svg>
