<?xml version="1.0" encoding="UTF-8" standalone="no"?>
<!DOCTYPE svg PUBLIC "-//W3C//DTD SVG 1.1//EN"
 "http://www.w3.org/Graphics/SVG/1.1/DTD/svg11.dtd">
<!-- Generated by graphviz version 5.0.0 (20220707.1540)
 -->
<!-- Title: dependencies Pages: 1 -->
<svg width="3593pt" height="174pt"
 viewBox="0.00 0.00 3593.00 173.80" xmlns="http://www.w3.org/2000/svg" xmlns:xlink="http://www.w3.org/1999/xlink">
<g id="graph0" class="graph" transform="scale(1 1) rotate(0) translate(4 169.8)">
<title>dependencies</title>
<polygon fill="white" stroke="transparent" points="-4,4 -4,-169.8 3589,-169.8 3589,4 -4,4"/>
<text text-anchor="middle" x="1792.5" y="-8.2" font-family="sans-serif" font-size="14.00">dependencies</text>
<g id="clust1" class="cluster">
<title>cluster_ServerModule</title>
<polygon fill="none" stroke="black" stroke-dasharray="1,5" points="8,-32.8 8,-157.8 3577,-157.8 3577,-32.8 8,-32.8"/>
</g>
<g id="clust3" class="cluster">
<title>cluster_ServerModule_imports</title>
<polygon fill="none" stroke="black" points="16,-40.8 16,-92.8 3569,-92.8 3569,-40.8 16,-40.8"/>
</g>
<!-- AccountApiModule -->
<g id="node1" class="node">
<title>AccountApiModule</title>
<polygon fill="#8dd3c7" stroke="black" points="3560.98,-84.8 3557.98,-88.8 3536.98,-88.8 3533.98,-84.8 3433.02,-84.8 3433.02,-48.8 3560.98,-48.8 3560.98,-84.8"/>
<text text-anchor="middle" x="3497" y="-62.6" font-family="Times,serif" font-size="14.00">AccountApiModule</text>
</g>
<!-- ServerModule -->
<g id="node26" class="node">
<title>ServerModule</title>
<polygon fill="#8dd3c7" stroke="black" points="1792.09,-149.8 1789.09,-153.8 1768.09,-153.8 1765.09,-149.8 1695.91,-149.8 1695.91,-113.8 1792.09,-113.8 1792.09,-149.8"/>
<text text-anchor="middle" x="1744" y="-127.6" font-family="Times,serif" font-size="14.00">ServerModule</text>
</g>
<!-- AccountApiModule&#45;&gt;ServerModule -->
<g id="edge1" class="edge">
<title>AccountApiModule&#45;&gt;ServerModule</title>
<path fill="none" stroke="black" d="M3497,-85.18C3497,-109.08 3497,-147.8 3497,-147.8 3497,-147.8 1802.26,-147.8 1802.26,-147.8"/>
<polygon fill="black" stroke="black" points="1802.26,-144.3 1792.26,-147.8 1802.26,-151.3 1802.26,-144.3"/>
</g>
<!-- AuthenticationApiModule -->
<g id="node2" class="node">
<title>AuthenticationApiModule</title>
<polygon fill="#8dd3c7" stroke="black" points="3414.75,-84.8 3411.75,-88.8 3390.75,-88.8 3387.75,-84.8 3251.25,-84.8 3251.25,-48.8 3414.75,-48.8 3414.75,-84.8"/>
<text text-anchor="middle" x="3333" y="-62.6" font-family="Times,serif" font-size="14.00">AuthenticationApiModule</text>
</g>
<!-- AuthenticationApiModule&#45;&gt;ServerModule -->
<g id="edge2" class="edge">
<title>AuthenticationApiModule&#45;&gt;ServerModule</title>
<path fill="none" stroke="black" d="M3333,-84.89C3333,-107.93 3333,-144.8 3333,-144.8 3333,-144.8 1802.42,-144.8 1802.42,-144.8"/>
<polygon fill="black" stroke="black" points="1802.42,-141.3 1792.42,-144.8 1802.42,-148.3 1802.42,-141.3"/>
</g>
<!-- CollaborativeStorageModule -->
<g id="node3" class="node">
<title>CollaborativeStorageModule</title>
<polygon fill="#8dd3c7" stroke="black" points="3233.02,-84.8 3230.02,-88.8 3209.02,-88.8 3206.02,-84.8 3054.98,-84.8 3054.98,-48.8 3233.02,-48.8 3233.02,-84.8"/>
<text text-anchor="middle" x="3144" y="-62.6" font-family="Times,serif" font-size="14.00">CollaborativeStorageModule</text>
</g>
<!-- CollaborativeStorageModule&#45;&gt;ServerModule -->
<g id="edge3" class="edge">
<title>CollaborativeStorageModule&#45;&gt;ServerModule</title>
<path fill="none" stroke="black" d="M3144,-84.96C3144,-107.15 3144,-141.8 3144,-141.8 3144,-141.8 1802.19,-141.8 1802.19,-141.8"/>
<polygon fill="black" stroke="black" points="1802.19,-138.3 1792.19,-141.8 1802.19,-145.3 1802.19,-138.3"/>
</g>
<!-- CoreModule -->
<g id="node4" class="node">
<title>CoreModule</title>
<polygon fill="#8dd3c7" stroke="black" points="3036.27,-84.8 3033.27,-88.8 3012.27,-88.8 3009.27,-84.8 2949.73,-84.8 2949.73,-48.8 3036.27,-48.8 3036.27,-84.8"/>
<text text-anchor="middle" x="2993" y="-62.6" font-family="Times,serif" font-size="14.00">CoreModule</text>
</g>
<!-- CoreModule&#45;&gt;ServerModule -->
<g id="edge4" class="edge">
<title>CoreModule&#45;&gt;ServerModule</title>
<path fill="none" stroke="black" d="M2993,-84.97C2993,-106.3 2993,-138.8 2993,-138.8 2993,-138.8 1802.2,-138.8 1802.2,-138.8"/>
<polygon fill="black" stroke="black" points="1802.2,-135.3 1792.2,-138.8 1802.2,-142.3 1802.2,-135.3"/>
</g>
<!-- FilesStorageClientModule -->
<g id="node5" class="node">
<title>FilesStorageClientModule</title>
<polygon fill="#8dd3c7" stroke="black" points="2931.77,-84.8 2928.77,-88.8 2907.77,-88.8 2904.77,-84.8 2768.23,-84.8 2768.23,-48.8 2931.77,-48.8 2931.77,-84.8"/>
<text text-anchor="middle" x="2850" y="-62.6" font-family="Times,serif" font-size="14.00">FilesStorageClientModule</text>
</g>
<!-- FilesStorageClientModule&#45;&gt;ServerModule -->
<g id="edge5" class="edge">
<title>FilesStorageClientModule&#45;&gt;ServerModule</title>
<path fill="none" stroke="black" d="M2850,-84.83C2850,-105.57 2850,-136.8 2850,-136.8 2850,-136.8 1802.23,-136.8 1802.23,-136.8"/>
<polygon fill="black" stroke="black" points="1802.23,-133.3 1792.23,-136.8 1802.23,-140.3 1802.23,-133.3"/>
</g>
<!-- ImportUserModule -->
<g id="node6" class="node">
<title>ImportUserModule</title>
<polygon fill="#8dd3c7" stroke="black" points="2750.09,-84.8 2747.09,-88.8 2726.09,-88.8 2723.09,-84.8 2625.91,-84.8 2625.91,-48.8 2750.09,-48.8 2750.09,-84.8"/>
<text text-anchor="middle" x="2688" y="-62.6" font-family="Times,serif" font-size="14.00">ImportUserModule</text>
</g>
<!-- ImportUserModule&#45;&gt;ServerModule -->
<g id="edge6" class="edge">
<title>ImportUserModule&#45;&gt;ServerModule</title>
<path fill="none" stroke="black" d="M2688,-85.11C2688,-104.95 2688,-133.8 2688,-133.8 2688,-133.8 1802.11,-133.8 1802.11,-133.8"/>
<polygon fill="black" stroke="black" points="1802.11,-130.3 1792.11,-133.8 1802.11,-137.3 1802.11,-130.3"/>
</g>
<!-- LearnroomModule -->
<g id="node7" class="node">
<title>LearnroomModule</title>
<polygon fill="#8dd3c7" stroke="black" points="2607.75,-84.8 2604.75,-88.8 2583.75,-88.8 2580.75,-84.8 2486.25,-84.8 2486.25,-48.8 2607.75,-48.8 2607.75,-84.8"/>
<text text-anchor="middle" x="2547" y="-62.6" font-family="Times,serif" font-size="14.00">LearnroomModule</text>
</g>
<!-- LearnroomModule&#45;&gt;ServerModule -->
<g id="edge7" class="edge">
<title>LearnroomModule&#45;&gt;ServerModule</title>
<path fill="none" stroke="black" d="M2547,-84.97C2547,-103.89 2547,-130.8 2547,-130.8 2547,-130.8 1802.12,-130.8 1802.12,-130.8"/>
<polygon fill="black" stroke="black" points="1802.12,-127.3 1792.12,-130.8 1802.12,-134.3 1802.12,-127.3"/>
</g>
<!-- LessonApiModule -->
<g id="node8" class="node">
<title>LessonApiModule</title>
<polygon fill="#8dd3c7" stroke="black" points="2468.21,-84.8 2465.21,-88.8 2444.21,-88.8 2441.21,-84.8 2347.79,-84.8 2347.79,-48.8 2468.21,-48.8 2468.21,-84.8"/>
<text text-anchor="middle" x="2408" y="-62.6" font-family="Times,serif" font-size="14.00">LessonApiModule</text>
</g>
<!-- LessonApiModule&#45;&gt;ServerModule -->
<g id="edge8" class="edge">
<title>LessonApiModule&#45;&gt;ServerModule</title>
<path fill="none" stroke="black" d="M2408,-85.1C2408,-103.07 2408,-127.8 2408,-127.8 2408,-127.8 1802.29,-127.8 1802.29,-127.8"/>
<polygon fill="black" stroke="black" points="1802.29,-124.3 1792.29,-127.8 1802.29,-131.3 1802.29,-124.3"/>
</g>
<!-- LoggerModule -->
<g id="node9" class="node">
<title>LoggerModule</title>
<polygon fill="#8dd3c7" stroke="black" points="2329.98,-84.8 2326.98,-88.8 2305.98,-88.8 2302.98,-84.8 2230.02,-84.8 2230.02,-48.8 2329.98,-48.8 2329.98,-84.8"/>
<text text-anchor="middle" x="2280" y="-62.6" font-family="Times,serif" font-size="14.00">LoggerModule</text>
</g>
<!-- LoggerModule&#45;&gt;ServerModule -->
<g id="edge9" class="edge">
<title>LoggerModule&#45;&gt;ServerModule</title>
<path fill="none" stroke="black" d="M2280,-84.82C2280,-102.17 2280,-125.8 2280,-125.8 2280,-125.8 1802.51,-125.8 1802.51,-125.8"/>
<polygon fill="black" stroke="black" points="1802.51,-122.3 1792.51,-125.8 1802.51,-129.3 1802.51,-122.3"/>
</g>
<!-- NewsModule -->
<g id="node10" class="node">
<title>NewsModule</title>
<polygon fill="#8dd3c7" stroke="black" points="2211.94,-84.8 2208.94,-88.8 2187.94,-88.8 2184.94,-84.8 2120.06,-84.8 2120.06,-48.8 2211.94,-48.8 2211.94,-84.8"/>
<text text-anchor="middle" x="2166" y="-62.6" font-family="Times,serif" font-size="14.00">NewsModule</text>
</g>
<!-- NewsModule&#45;&gt;ServerModule -->
<g id="edge10" class="edge">
<title>NewsModule&#45;&gt;ServerModule</title>
<path fill="none" stroke="black" d="M2166,-84.83C2166,-101.2 2166,-122.8 2166,-122.8 2166,-122.8 1802.41,-122.8 1802.41,-122.8"/>
<polygon fill="black" stroke="black" points="1802.41,-119.3 1792.41,-122.8 1802.41,-126.3 1802.41,-119.3"/>
</g>
<!-- OauthApiModule -->
<g id="node11" class="node">
<title>OauthApiModule</title>
<polygon fill="#8dd3c7" stroke="black" points="2102.27,-84.8 2099.27,-88.8 2078.27,-88.8 2075.27,-84.8 1987.73,-84.8 1987.73,-48.8 2102.27,-48.8 2102.27,-84.8"/>
<text text-anchor="middle" x="2045" y="-62.6" font-family="Times,serif" font-size="14.00">OauthApiModule</text>
</g>
<!-- OauthApiModule&#45;&gt;ServerModule -->
<g id="edge11" class="edge">
<title>OauthApiModule&#45;&gt;ServerModule</title>
<path fill="none" stroke="black" d="M2045,-85.04C2045,-100.37 2045,-119.8 2045,-119.8 2045,-119.8 1802.36,-119.8 1802.36,-119.8"/>
<polygon fill="black" stroke="black" points="1802.36,-116.3 1792.36,-119.8 1802.36,-123.3 1802.36,-116.3"/>
</g>
<!-- OauthProviderModule -->
<g id="node12" class="node">
<title>OauthProviderModule</title>
<polygon fill="#8dd3c7" stroke="black" points="1969.98,-84.8 1966.98,-88.8 1945.98,-88.8 1942.98,-84.8 1828.02,-84.8 1828.02,-48.8 1969.98,-48.8 1969.98,-84.8"/>
<text text-anchor="middle" x="1899" y="-62.6" font-family="Times,serif" font-size="14.00">OauthProviderModule</text>
</g>
<!-- OauthProviderModule&#45;&gt;ServerModule -->
<g id="edge12" class="edge">
<title>OauthProviderModule&#45;&gt;ServerModule</title>
<path fill="none" stroke="black" d="M1899,-84.85C1899,-99.17 1899,-116.8 1899,-116.8 1899,-116.8 1802.19,-116.8 1802.19,-116.8"/>
<polygon fill="black" stroke="black" points="1802.19,-113.3 1792.19,-116.8 1802.19,-120.3 1802.19,-113.3"/>
</g>
<!-- ProvisioningModule -->
<g id="node13" class="node">
<title>ProvisioningModule</title>
<polygon fill="#8dd3c7" stroke="black" points="1809.62,-84.8 1806.62,-88.8 1785.62,-88.8 1782.62,-84.8 1678.38,-84.8 1678.38,-48.8 1809.62,-48.8 1809.62,-84.8"/>
<text text-anchor="middle" x="1744" y="-62.6" font-family="Times,serif" font-size="14.00">ProvisioningModule</text>
</g>
<!-- ProvisioningModule&#45;&gt;ServerModule -->
<g id="edge13" class="edge">
<title>ProvisioningModule&#45;&gt;ServerModule</title>
<path fill="none" stroke="black" d="M1744,-84.91C1744,-84.91 1744,-103.79 1744,-103.79"/>
<polygon fill="black" stroke="black" points="1740.5,-103.79 1744,-113.79 1747.5,-103.79 1740.5,-103.79"/>
</g>
<!-- RabbitMQWrapperModule -->
<g id="node14" class="node">
<title>RabbitMQWrapperModule</title>
<polygon fill="#8dd3c7" stroke="black" points="1660.41,-84.8 1657.41,-88.8 1636.41,-88.8 1633.41,-84.8 1491.59,-84.8 1491.59,-48.8 1660.41,-48.8 1660.41,-84.8"/>
<text text-anchor="middle" x="1576" y="-62.6" font-family="Times,serif" font-size="14.00">RabbitMQWrapperModule</text>
</g>
<!-- RabbitMQWrapperModule&#45;&gt;ServerModule -->
<g id="edge14" class="edge">
<title>RabbitMQWrapperModule&#45;&gt;ServerModule</title>
<path fill="none" stroke="black" d="M1576,-84.85C1576,-99.17 1576,-116.8 1576,-116.8 1576,-116.8 1685.86,-116.8 1685.86,-116.8"/>
<polygon fill="black" stroke="black" points="1685.86,-120.3 1695.86,-116.8 1685.86,-113.3 1685.86,-120.3"/>
</g>
<!-- RedisModule -->
<g id="node15" class="node">
<title>RedisModule</title>
<polygon fill="#8dd3c7" stroke="black" points="1473.94,-84.8 1470.94,-88.8 1449.94,-88.8 1446.94,-84.8 1382.06,-84.8 1382.06,-48.8 1473.94,-48.8 1473.94,-84.8"/>
<text text-anchor="middle" x="1428" y="-62.6" font-family="Times,serif" font-size="14.00">RedisModule</text>
</g>
<!-- RedisModule&#45;&gt;ServerModule -->
<g id="edge15" class="edge">
<title>RedisModule&#45;&gt;ServerModule</title>
<path fill="none" stroke="black" d="M1428,-85.04C1428,-100.37 1428,-119.8 1428,-119.8 1428,-119.8 1685.66,-119.8 1685.66,-119.8"/>
<polygon fill="black" stroke="black" points="1685.66,-123.3 1695.66,-119.8 1685.66,-116.3 1685.66,-123.3"/>
</g>
<!-- RoleModule -->
<g id="node16" class="node">
<title>RoleModule</title>
<polygon fill="#8dd3c7" stroke="black" points="1363.99,-84.8 1360.99,-88.8 1339.99,-88.8 1336.99,-84.8 1278.01,-84.8 1278.01,-48.8 1363.99,-48.8 1363.99,-84.8"/>
<text text-anchor="middle" x="1321" y="-62.6" font-family="Times,serif" font-size="14.00">RoleModule</text>
</g>
<!-- RoleModule&#45;&gt;ServerModule -->
<g id="edge16" class="edge">
<title>RoleModule&#45;&gt;ServerModule</title>
<path fill="none" stroke="black" d="M1321,-84.83C1321,-101.2 1321,-122.8 1321,-122.8 1321,-122.8 1685.89,-122.8 1685.89,-122.8"/>
<polygon fill="black" stroke="black" points="1685.89,-126.3 1695.89,-122.8 1685.89,-119.3 1685.89,-126.3"/>
</g>
<!-- SchoolApiModule -->
<g id="node17" class="node">
<title>SchoolApiModule</title>
<polygon fill="#8dd3c7" stroke="black" points="1259.94,-84.8 1256.94,-88.8 1235.94,-88.8 1232.94,-84.8 1140.06,-84.8 1140.06,-48.8 1259.94,-48.8 1259.94,-84.8"/>
<text text-anchor="middle" x="1200" y="-62.6" font-family="Times,serif" font-size="14.00">SchoolApiModule</text>
</g>
<!-- SchoolApiModule&#45;&gt;ServerModule -->
<g id="edge17" class="edge">
<title>SchoolApiModule&#45;&gt;ServerModule</title>
<path fill="none" stroke="black" d="M1200,-84.82C1200,-102.17 1200,-125.8 1200,-125.8 1200,-125.8 1685.72,-125.8 1685.72,-125.8"/>
<polygon fill="black" stroke="black" points="1685.72,-129.3 1695.72,-125.8 1685.72,-122.3 1685.72,-129.3"/>
</g>
<!-- SharingApiModule -->
<g id="node18" class="node">
<title>SharingApiModule</title>
<polygon fill="#8dd3c7" stroke="black" points="1122.1,-84.8 1119.1,-88.8 1098.1,-88.8 1095.1,-84.8 997.9,-84.8 997.9,-48.8 1122.1,-48.8 1122.1,-84.8"/>
<text text-anchor="middle" x="1060" y="-62.6" font-family="Times,serif" font-size="14.00">SharingApiModule</text>
</g>
<!-- SharingApiModule&#45;&gt;ServerModule -->
<g id="edge18" class="edge">
<title>SharingApiModule&#45;&gt;ServerModule</title>
<path fill="none" stroke="black" d="M1060,-85.1C1060,-103.07 1060,-127.8 1060,-127.8 1060,-127.8 1685.9,-127.8 1685.9,-127.8"/>
<polygon fill="black" stroke="black" points="1685.9,-131.3 1695.9,-127.8 1685.9,-124.3 1685.9,-131.3"/>
</g>
<!-- SystemModule -->
<g id="node19" class="node">
<title>SystemModule</title>
<polygon fill="#8dd3c7" stroke="black" points="980.28,-84.8 977.28,-88.8 956.28,-88.8 953.28,-84.8 879.72,-84.8 879.72,-48.8 980.28,-48.8 980.28,-84.8"/>
<text text-anchor="middle" x="930" y="-62.6" font-family="Times,serif" font-size="14.00">SystemModule</text>
</g>
<!-- SystemModule&#45;&gt;ServerModule -->
<g id="edge19" class="edge">
<title>SystemModule&#45;&gt;ServerModule</title>
<path fill="none" stroke="black" d="M930,-84.97C930,-103.89 930,-130.8 930,-130.8 930,-130.8 1685.82,-130.8 1685.82,-130.8"/>
<polygon fill="black" stroke="black" points="1685.82,-134.3 1695.82,-130.8 1685.82,-127.3 1685.82,-134.3"/>
</g>
<!-- TaskCardModule -->
<g id="node20" class="node">
<title>TaskCardModule</title>
<polygon fill="#8dd3c7" stroke="black" points="861.98,-84.8 858.98,-88.8 837.98,-88.8 834.98,-84.8 748.02,-84.8 748.02,-48.8 861.98,-48.8 861.98,-84.8"/>
<text text-anchor="middle" x="805" y="-62.6" font-family="Times,serif" font-size="14.00">TaskCardModule</text>
</g>
<!-- TaskCardModule&#45;&gt;ServerModule -->
<g id="edge20" class="edge">
<title>TaskCardModule&#45;&gt;ServerModule</title>
<path fill="none" stroke="black" d="M805,-85.11C805,-104.95 805,-133.8 805,-133.8 805,-133.8 1685.82,-133.8 1685.82,-133.8"/>
<polygon fill="black" stroke="black" points="1685.82,-137.3 1695.82,-133.8 1685.82,-130.3 1685.82,-137.3"/>
</g>
<!-- TaskModule -->
<g id="node21" class="node">
<title>TaskModule</title>
<polygon fill="#8dd3c7" stroke="black" points="730.27,-84.8 727.27,-88.8 706.27,-88.8 703.27,-84.8 643.73,-84.8 643.73,-48.8 730.27,-48.8 730.27,-84.8"/>
<text text-anchor="middle" x="687" y="-62.6" font-family="Times,serif" font-size="14.00">TaskModule</text>
</g>
<!-- TaskModule&#45;&gt;ServerModule -->
<g id="edge21" class="edge">
<title>TaskModule&#45;&gt;ServerModule</title>
<path fill="none" stroke="black" d="M687,-84.83C687,-105.57 687,-136.8 687,-136.8 687,-136.8 1685.84,-136.8 1685.84,-136.8"/>
<polygon fill="black" stroke="black" points="1685.84,-140.3 1695.84,-136.8 1685.84,-133.3 1685.84,-140.3"/>
</g>
<!-- ToolApiModule -->
<g id="node22" class="node">
<title>ToolApiModule</title>
<polygon fill="#8dd3c7" stroke="black" points="625.49,-84.8 622.49,-88.8 601.49,-88.8 598.49,-84.8 518.51,-84.8 518.51,-48.8 625.49,-48.8 625.49,-84.8"/>
<text text-anchor="middle" x="572" y="-62.6" font-family="Times,serif" font-size="14.00">ToolApiModule</text>
</g>
<!-- ToolApiModule&#45;&gt;ServerModule -->
<g id="edge22" class="edge">
<title>ToolApiModule&#45;&gt;ServerModule</title>
<path fill="none" stroke="black" d="M572,-84.97C572,-106.3 572,-138.8 572,-138.8 572,-138.8 1685.87,-138.8 1685.87,-138.8"/>
<polygon fill="black" stroke="black" points="1685.87,-142.3 1695.87,-138.8 1685.87,-135.3 1685.87,-142.3"/>
</g>
<!-- UserLoginMigrationApiModule -->
<g id="node23" class="node">
<title>UserLoginMigrationApiModule</title>
<polygon fill="#8dd3c7" stroke="black" points="500.42,-84.8 497.42,-88.8 476.42,-88.8 473.42,-84.8 303.58,-84.8 303.58,-48.8 500.42,-48.8 500.42,-84.8"/>
<text text-anchor="middle" x="402" y="-62.6" font-family="Times,serif" font-size="14.00">UserLoginMigrationApiModule</text>
</g>
<!-- UserLoginMigrationApiModule&#45;&gt;ServerModule -->
<g id="edge23" class="edge">
<title>UserLoginMigrationApiModule&#45;&gt;ServerModule</title>
<path fill="none" stroke="black" d="M402,-84.96C402,-107.15 402,-141.8 402,-141.8 402,-141.8 1685.84,-141.8 1685.84,-141.8"/>
<polygon fill="black" stroke="black" points="1685.84,-145.3 1695.84,-141.8 1685.84,-138.3 1685.84,-145.3"/>
</g>
<!-- UserModule -->
<g id="node24" class="node">
<title>UserModule</title>
<polygon fill="#8dd3c7" stroke="black" points="285.99,-84.8 282.99,-88.8 261.99,-88.8 258.99,-84.8 200.01,-84.8 200.01,-48.8 285.99,-48.8 285.99,-84.8"/>
<text text-anchor="middle" x="243" y="-62.6" font-family="Times,serif" font-size="14.00">UserModule</text>
</g>
<!-- UserModule&#45;&gt;ServerModule -->
<g id="edge24" class="edge">
<title>UserModule&#45;&gt;ServerModule</title>
<path fill="none" stroke="black" d="M243,-84.89C243,-107.93 243,-144.8 243,-144.8 243,-144.8 1685.76,-144.8 1685.76,-144.8"/>
<polygon fill="black" stroke="black" points="1685.76,-148.3 1695.76,-144.8 1685.76,-141.3 1685.76,-148.3"/>
</g>
<!-- VideoConferenceModule -->
<g id="node25" class="node">
<title>VideoConferenceModule</title>
<polygon fill="#8dd3c7" stroke="black" points="182.28,-84.8 179.28,-88.8 158.28,-88.8 155.28,-84.8 23.72,-84.8 23.72,-48.8 182.28,-48.8 182.28,-84.8"/>
<text text-anchor="middle" x="103" y="-62.6" font-family="Times,serif" font-size="14.00">VideoConferenceModule</text>
</g>
<!-- VideoConferenceModule&#45;&gt;ServerModule -->
<g id="edge25" class="edge">
<title>VideoConferenceModule&#45;&gt;ServerModule</title>
<path fill="none" stroke="black" d="M103,-85.18C103,-109.08 103,-147.8 103,-147.8 103,-147.8 1685.78,-147.8 1685.78,-147.8"/>
<polygon fill="black" stroke="black" points="1685.78,-151.3 1695.78,-147.8 1685.78,-144.3 1685.78,-151.3"/>
</g>
</g>
</svg>
