<?xml version="1.0" encoding="UTF-8" standalone="no"?>
<!DOCTYPE svg PUBLIC "-//W3C//DTD SVG 1.1//EN"
 "http://www.w3.org/Graphics/SVG/1.1/DTD/svg11.dtd">
<!-- Generated by graphviz version 3.0.0 (20220226.1711)
 -->
<!-- Title: dependencies Pages: 1 -->
<svg width="1645pt" height="174pt"
 viewBox="0.00 0.00 1645.00 173.80" xmlns="http://www.w3.org/2000/svg" xmlns:xlink="http://www.w3.org/1999/xlink">
<g id="graph0" class="graph" transform="scale(1 1) rotate(0) translate(4 169.8)">
<title>dependencies</title>
<polygon fill="white" stroke="transparent" points="-4,4 -4,-169.8 1641,-169.8 1641,4 -4,4"/>
<text text-anchor="middle" x="818.5" y="-8.2" font-family="sans-serif" font-size="14.00">dependencies</text>
<g id="clust1" class="cluster">
<title>cluster_ServerModule</title>
<polygon fill="none" stroke="black" stroke-dasharray="1,5" points="8,-32.8 8,-157.8 1629,-157.8 1629,-32.8 8,-32.8"/>
</g>
<g id="clust3" class="cluster">
<title>cluster_ServerModule_imports</title>
<polygon fill="none" stroke="black" points="16,-40.8 16,-92.8 1621,-92.8 1621,-40.8 16,-40.8"/>
</g>
<!-- AuthModule -->
<g id="node1" class="node">
<title>AuthModule</title>
<polygon fill="#8dd3c7" stroke="black" points="1612.55,-84.8 1609.55,-88.8 1588.55,-88.8 1585.55,-84.8 1525.45,-84.8 1525.45,-48.8 1612.55,-48.8 1612.55,-84.8"/>
<text text-anchor="middle" x="1569" y="-62.6" font-family="Times,serif" font-size="14.00">AuthModule</text>
</g>
<!-- ServerModule -->
<g id="node13" class="node">
<title>ServerModule</title>
<polygon fill="#8dd3c7" stroke="black" points="806.09,-149.8 803.09,-153.8 782.09,-153.8 779.09,-149.8 709.91,-149.8 709.91,-113.8 806.09,-113.8 806.09,-149.8"/>
<text text-anchor="middle" x="758" y="-127.6" font-family="Times,serif" font-size="14.00">ServerModule</text>
</g>
<!-- AuthModule&#45;&gt;ServerModule -->
<g id="edge1" class="edge">
<title>AuthModule&#45;&gt;ServerModule</title>
<path fill="none" stroke="black" d="M1569,-84.89C1569,-107.93 1569,-144.8 1569,-144.8 1569,-144.8 816.3,-144.8 816.3,-144.8"/>
<polygon fill="black" stroke="black" points="816.3,-141.3 806.3,-144.8 816.3,-148.3 816.3,-141.3"/>
</g>
<!-- CollaborativeStorageModule -->
<g id="node2" class="node">
<title>CollaborativeStorageModule</title>
<polygon fill="#8dd3c7" stroke="black" points="1507.02,-84.8 1504.02,-88.8 1483.02,-88.8 1480.02,-84.8 1328.98,-84.8 1328.98,-48.8 1507.02,-48.8 1507.02,-84.8"/>
<text text-anchor="middle" x="1418" y="-62.6" font-family="Times,serif" font-size="14.00">CollaborativeStorageModule</text>
</g>
<!-- CollaborativeStorageModule&#45;&gt;ServerModule -->
<g id="edge2" class="edge">
<title>CollaborativeStorageModule&#45;&gt;ServerModule</title>
<path fill="none" stroke="black" d="M1418,-85.08C1418,-106.12 1418,-137.8 1418,-137.8 1418,-137.8 816.26,-137.8 816.26,-137.8"/>
<polygon fill="black" stroke="black" points="816.26,-134.3 806.26,-137.8 816.26,-141.3 816.26,-134.3"/>
</g>
<!-- CoreModule -->
<g id="node3" class="node">
<title>CoreModule</title>
<polygon fill="#8dd3c7" stroke="black" points="1310.27,-84.8 1307.27,-88.8 1286.27,-88.8 1283.27,-84.8 1223.73,-84.8 1223.73,-48.8 1310.27,-48.8 1310.27,-84.8"/>
<text text-anchor="middle" x="1267" y="-62.6" font-family="Times,serif" font-size="14.00">CoreModule</text>
</g>
<!-- CoreModule&#45;&gt;ServerModule -->
<g id="edge3" class="edge">
<title>CoreModule&#45;&gt;ServerModule</title>
<path fill="none" stroke="black" d="M1267,-84.91C1267,-104.14 1267,-131.8 1267,-131.8 1267,-131.8 816.34,-131.8 816.34,-131.8"/>
<polygon fill="black" stroke="black" points="816.34,-128.3 806.34,-131.8 816.34,-135.3 816.34,-128.3"/>
</g>
<!-- FilesStorageClientModule -->
<g id="node4" class="node">
<title>FilesStorageClientModule</title>
<polygon fill="#8dd3c7" stroke="black" points="1205.77,-84.8 1202.77,-88.8 1181.77,-88.8 1178.77,-84.8 1042.23,-84.8 1042.23,-48.8 1205.77,-48.8 1205.77,-84.8"/>
<text text-anchor="middle" x="1124" y="-62.6" font-family="Times,serif" font-size="14.00">FilesStorageClientModule</text>
</g>
<!-- FilesStorageClientModule&#45;&gt;ServerModule -->
<g id="edge4" class="edge">
<title>FilesStorageClientModule&#45;&gt;ServerModule</title>
<path fill="none" stroke="black" d="M1124,-84.82C1124,-102.17 1124,-125.8 1124,-125.8 1124,-125.8 816.22,-125.8 816.22,-125.8"/>
<polygon fill="black" stroke="black" points="816.22,-122.3 806.22,-125.8 816.22,-129.3 816.22,-122.3"/>
</g>
<!-- ImportUserModule -->
<g id="node5" class="node">
<title>ImportUserModule</title>
<polygon fill="#8dd3c7" stroke="black" points="1024.09,-84.8 1021.09,-88.8 1000.09,-88.8 997.09,-84.8 899.91,-84.8 899.91,-48.8 1024.09,-48.8 1024.09,-84.8"/>
<text text-anchor="middle" x="962" y="-62.6" font-family="Times,serif" font-size="14.00">ImportUserModule</text>
</g>
<!-- ImportUserModule&#45;&gt;ServerModule -->
<g id="edge5" class="edge">
<title>ImportUserModule&#45;&gt;ServerModule</title>
<path fill="none" stroke="black" d="M962,-85.04C962,-100.37 962,-119.8 962,-119.8 962,-119.8 816.09,-119.8 816.09,-119.8"/>
<polygon fill="black" stroke="black" points="816.09,-116.3 806.09,-119.8 816.09,-123.3 816.09,-116.3"/>
</g>
<!-- LearnroomModule -->
<g id="node6" class="node">
<title>LearnroomModule</title>
<polygon fill="#8dd3c7" stroke="black" points="881.75,-84.8 878.75,-88.8 857.75,-88.8 854.75,-84.8 760.25,-84.8 760.25,-48.8 881.75,-48.8 881.75,-84.8"/>
<text text-anchor="middle" x="821" y="-62.6" font-family="Times,serif" font-size="14.00">LearnroomModule</text>
</g>
<!-- LearnroomModule&#45;&gt;ServerModule -->
<g id="edge6" class="edge">
<title>LearnroomModule&#45;&gt;ServerModule</title>
<path fill="none" stroke="black" d="M783.09,-84.91C783.09,-84.91 783.09,-103.79 783.09,-103.79"/>
<polygon fill="black" stroke="black" points="779.59,-103.79 783.09,-113.79 786.59,-103.79 779.59,-103.79"/>
</g>
<!-- NewsModule -->
<g id="node7" class="node">
<title>NewsModule</title>
<polygon fill="#8dd3c7" stroke="black" points="741.94,-84.8 738.94,-88.8 717.94,-88.8 714.94,-84.8 650.06,-84.8 650.06,-48.8 741.94,-48.8 741.94,-84.8"/>
<text text-anchor="middle" x="696" y="-62.6" font-family="Times,serif" font-size="14.00">NewsModule</text>
</g>
<!-- NewsModule&#45;&gt;ServerModule -->
<g id="edge7" class="edge">
<title>NewsModule&#45;&gt;ServerModule</title>
<path fill="none" stroke="black" d="M725.84,-84.91C725.84,-84.91 725.84,-103.79 725.84,-103.79"/>
<polygon fill="black" stroke="black" points="722.34,-103.79 725.84,-113.79 729.34,-103.79 722.34,-103.79"/>
</g>
<!-- OauthModule -->
<g id="node8" class="node">
<title>OauthModule</title>
<polygon fill="#8dd3c7" stroke="black" points="631.77,-84.8 628.77,-88.8 607.77,-88.8 604.77,-84.8 538.23,-84.8 538.23,-48.8 631.77,-48.8 631.77,-84.8"/>
<text text-anchor="middle" x="585" y="-62.6" font-family="Times,serif" font-size="14.00">OauthModule</text>
</g>
<!-- OauthModule&#45;&gt;ServerModule -->
<g id="edge8" class="edge">
<title>OauthModule&#45;&gt;ServerModule</title>
<path fill="none" stroke="black" d="M585,-85.04C585,-100.37 585,-119.8 585,-119.8 585,-119.8 699.81,-119.8 699.81,-119.8"/>
<polygon fill="black" stroke="black" points="699.81,-123.3 709.81,-119.8 699.81,-116.3 699.81,-123.3"/>
</g>
<!-- RabbitMQWrapperModule -->
<g id="node9" class="node">
<title>RabbitMQWrapperModule</title>
<polygon fill="#8dd3c7" stroke="black" points="520.41,-84.8 517.41,-88.8 496.41,-88.8 493.41,-84.8 351.59,-84.8 351.59,-48.8 520.41,-48.8 520.41,-84.8"/>
<text text-anchor="middle" x="436" y="-62.6" font-family="Times,serif" font-size="14.00">RabbitMQWrapperModule</text>
</g>
<!-- RabbitMQWrapperModule&#45;&gt;ServerModule -->
<g id="edge9" class="edge">
<title>RabbitMQWrapperModule&#45;&gt;ServerModule</title>
<path fill="none" stroke="black" d="M436,-84.82C436,-102.17 436,-125.8 436,-125.8 436,-125.8 699.79,-125.8 699.79,-125.8"/>
<polygon fill="black" stroke="black" points="699.79,-129.3 709.79,-125.8 699.79,-122.3 699.79,-129.3"/>
</g>
<!-- SystemModule -->
<g id="node10" class="node">
<title>SystemModule</title>
<polygon fill="#8dd3c7" stroke="black" points="333.28,-84.8 330.28,-88.8 309.28,-88.8 306.28,-84.8 232.72,-84.8 232.72,-48.8 333.28,-48.8 333.28,-84.8"/>
<text text-anchor="middle" x="283" y="-62.6" font-family="Times,serif" font-size="14.00">SystemModule</text>
</g>
<!-- SystemModule&#45;&gt;ServerModule -->
<g id="edge10" class="edge">
<title>SystemModule&#45;&gt;ServerModule</title>
<path fill="none" stroke="black" d="M283,-84.91C283,-104.14 283,-131.8 283,-131.8 283,-131.8 699.84,-131.8 699.84,-131.8"/>
<polygon fill="black" stroke="black" points="699.84,-135.3 709.84,-131.8 699.84,-128.3 699.84,-135.3"/>
</g>
<!-- TaskModule -->
<g id="node11" class="node">
<title>TaskModule</title>
<polygon fill="#8dd3c7" stroke="black" points="214.27,-84.8 211.27,-88.8 190.27,-88.8 187.27,-84.8 127.73,-84.8 127.73,-48.8 214.27,-48.8 214.27,-84.8"/>
<text text-anchor="middle" x="171" y="-62.6" font-family="Times,serif" font-size="14.00">TaskModule</text>
</g>
<!-- TaskModule&#45;&gt;ServerModule -->
<g id="edge11" class="edge">
<title>TaskModule&#45;&gt;ServerModule</title>
<path fill="none" stroke="black" d="M171,-85.08C171,-106.12 171,-137.8 171,-137.8 171,-137.8 699.71,-137.8 699.71,-137.8"/>
<polygon fill="black" stroke="black" points="699.71,-141.3 709.71,-137.8 699.71,-134.3 699.71,-141.3"/>
</g>
<!-- UserModule -->
<g id="node12" class="node">
<title>UserModule</title>
<polygon fill="#8dd3c7" stroke="black" points="109.99,-84.8 106.99,-88.8 85.99,-88.8 82.99,-84.8 24.01,-84.8 24.01,-48.8 109.99,-48.8 109.99,-84.8"/>
<text text-anchor="middle" x="67" y="-62.6" font-family="Times,serif" font-size="14.00">UserModule</text>
</g>
<!-- UserModule&#45;&gt;ServerModule -->
<g id="edge12" class="edge">
<title>UserModule&#45;&gt;ServerModule</title>
<path fill="none" stroke="black" d="M67,-84.89C67,-107.93 67,-144.8 67,-144.8 67,-144.8 699.68,-144.8 699.68,-144.8"/>
<polygon fill="black" stroke="black" points="699.68,-148.3 709.68,-144.8 699.68,-141.3 699.68,-148.3"/>
</g>
</g>
</svg>
