<?xml version="1.0" encoding="UTF-8" standalone="no"?>
<!DOCTYPE svg PUBLIC "-//W3C//DTD SVG 1.1//EN"
 "http://www.w3.org/Graphics/SVG/1.1/DTD/svg11.dtd">
<!-- Generated by graphviz version 3.0.0 (20220226.1711)
 -->
<!-- Title: dependencies Pages: 1 -->
<svg width="2014pt" height="174pt"
 viewBox="0.00 0.00 2014.00 173.80" xmlns="http://www.w3.org/2000/svg" xmlns:xlink="http://www.w3.org/1999/xlink">
<g id="graph0" class="graph" transform="scale(1 1) rotate(0) translate(4 169.8)">
<title>dependencies</title>
<polygon fill="white" stroke="transparent" points="-4,4 -4,-169.8 2010,-169.8 2010,4 -4,4"/>
<text text-anchor="middle" x="1003" y="-8.2" font-family="sans-serif" font-size="14.00">dependencies</text>
<g id="clust1" class="cluster">
<title>cluster_ServerModule</title>
<polygon fill="none" stroke="black" stroke-dasharray="1,5" points="8,-32.8 8,-157.8 1998,-157.8 1998,-32.8 8,-32.8"/>
</g>
<g id="clust3" class="cluster">
<title>cluster_ServerModule_imports</title>
<polygon fill="none" stroke="black" points="16,-40.8 16,-92.8 1990,-92.8 1990,-40.8 16,-40.8"/>
</g>
<!-- AuthModule -->
<g id="node1" class="node">
<title>AuthModule</title>
<polygon fill="#8dd3c7" stroke="black" points="1981.55,-84.8 1978.55,-88.8 1957.55,-88.8 1954.55,-84.8 1894.45,-84.8 1894.45,-48.8 1981.55,-48.8 1981.55,-84.8"/>
<text text-anchor="middle" x="1938" y="-62.6" font-family="Times,serif" font-size="14.00">AuthModule</text>
</g>
<!-- ServerModule -->
<g id="node16" class="node">
<title>ServerModule</title>
<polygon fill="#8dd3c7" stroke="black" points="1002.09,-149.8 999.09,-153.8 978.09,-153.8 975.09,-149.8 905.91,-149.8 905.91,-113.8 1002.09,-113.8 1002.09,-149.8"/>
<text text-anchor="middle" x="954" y="-127.6" font-family="Times,serif" font-size="14.00">ServerModule</text>
</g>
<!-- AuthModule&#45;&gt;ServerModule -->
<g id="edge1" class="edge">
<title>AuthModule&#45;&gt;ServerModule</title>
<path fill="none" stroke="black" d="M1938,-85.12C1938,-108.46 1938,-145.8 1938,-145.8 1938,-145.8 1012.13,-145.8 1012.13,-145.8"/>
<polygon fill="black" stroke="black" points="1012.13,-142.3 1002.13,-145.8 1012.13,-149.3 1012.13,-142.3"/>
</g>
<!-- CollaborativeStorageModule -->
<g id="node2" class="node">
<title>CollaborativeStorageModule</title>
<polygon fill="#8dd3c7" stroke="black" points="1876.02,-84.8 1873.02,-88.8 1852.02,-88.8 1849.02,-84.8 1697.98,-84.8 1697.98,-48.8 1876.02,-48.8 1876.02,-84.8"/>
<text text-anchor="middle" x="1787" y="-62.6" font-family="Times,serif" font-size="14.00">CollaborativeStorageModule</text>
</g>
<!-- CollaborativeStorageModule&#45;&gt;ServerModule -->
<g id="edge2" class="edge">
<title>CollaborativeStorageModule&#45;&gt;ServerModule</title>
<path fill="none" stroke="black" d="M1787,-85.09C1787,-107.01 1787,-140.8 1787,-140.8 1787,-140.8 1012.08,-140.8 1012.08,-140.8"/>
<polygon fill="black" stroke="black" points="1012.08,-137.3 1002.08,-140.8 1012.08,-144.3 1012.08,-137.3"/>
</g>
<!-- CoreModule -->
<g id="node3" class="node">
<title>CoreModule</title>
<polygon fill="#8dd3c7" stroke="black" points="1679.27,-84.8 1676.27,-88.8 1655.27,-88.8 1652.27,-84.8 1592.73,-84.8 1592.73,-48.8 1679.27,-48.8 1679.27,-84.8"/>
<text text-anchor="middle" x="1636" y="-62.6" font-family="Times,serif" font-size="14.00">CoreModule</text>
</g>
<!-- CoreModule&#45;&gt;ServerModule -->
<g id="edge3" class="edge">
<title>CoreModule&#45;&gt;ServerModule</title>
<path fill="none" stroke="black" d="M1636,-84.83C1636,-105.57 1636,-136.8 1636,-136.8 1636,-136.8 1012.23,-136.8 1012.23,-136.8"/>
<polygon fill="black" stroke="black" points="1012.23,-133.3 1002.23,-136.8 1012.23,-140.3 1012.23,-133.3"/>
</g>
<!-- FilesStorageClientModule -->
<g id="node4" class="node">
<title>FilesStorageClientModule</title>
<polygon fill="#8dd3c7" stroke="black" points="1574.77,-84.8 1571.77,-88.8 1550.77,-88.8 1547.77,-84.8 1411.23,-84.8 1411.23,-48.8 1574.77,-48.8 1574.77,-84.8"/>
<text text-anchor="middle" x="1493" y="-62.6" font-family="Times,serif" font-size="14.00">FilesStorageClientModule</text>
</g>
<!-- FilesStorageClientModule&#45;&gt;ServerModule -->
<g id="edge4" class="edge">
<title>FilesStorageClientModule&#45;&gt;ServerModule</title>
<path fill="none" stroke="black" d="M1493,-84.91C1493,-104.14 1493,-131.8 1493,-131.8 1493,-131.8 1012.31,-131.8 1012.31,-131.8"/>
<polygon fill="black" stroke="black" points="1012.31,-128.3 1002.31,-131.8 1012.31,-135.3 1012.31,-128.3"/>
</g>
<!-- ImportUserModule -->
<g id="node5" class="node">
<title>ImportUserModule</title>
<polygon fill="#8dd3c7" stroke="black" points="1393.09,-84.8 1390.09,-88.8 1369.09,-88.8 1366.09,-84.8 1268.91,-84.8 1268.91,-48.8 1393.09,-48.8 1393.09,-84.8"/>
<text text-anchor="middle" x="1331" y="-62.6" font-family="Times,serif" font-size="14.00">ImportUserModule</text>
</g>
<!-- ImportUserModule&#45;&gt;ServerModule -->
<g id="edge5" class="edge">
<title>ImportUserModule&#45;&gt;ServerModule</title>
<path fill="none" stroke="black" d="M1331,-85.1C1331,-103.07 1331,-127.8 1331,-127.8 1331,-127.8 1012.13,-127.8 1012.13,-127.8"/>
<polygon fill="black" stroke="black" points="1012.13,-124.3 1002.13,-127.8 1012.13,-131.3 1012.13,-124.3"/>
</g>
<!-- LearnroomModule -->
<g id="node6" class="node">
<title>LearnroomModule</title>
<polygon fill="#8dd3c7" stroke="black" points="1250.75,-84.8 1247.75,-88.8 1226.75,-88.8 1223.75,-84.8 1129.25,-84.8 1129.25,-48.8 1250.75,-48.8 1250.75,-84.8"/>
<text text-anchor="middle" x="1190" y="-62.6" font-family="Times,serif" font-size="14.00">LearnroomModule</text>
</g>
<!-- LearnroomModule&#45;&gt;ServerModule -->
<g id="edge6" class="edge">
<title>LearnroomModule&#45;&gt;ServerModule</title>
<path fill="none" stroke="black" d="M1190,-84.83C1190,-101.2 1190,-122.8 1190,-122.8 1190,-122.8 1012.33,-122.8 1012.33,-122.8"/>
<polygon fill="black" stroke="black" points="1012.33,-119.3 1002.33,-122.8 1012.33,-126.3 1012.33,-119.3"/>
</g>
<!-- NewsModule -->
<g id="node7" class="node">
<title>NewsModule</title>
<polygon fill="#8dd3c7" stroke="black" points="1110.94,-84.8 1107.94,-88.8 1086.94,-88.8 1083.94,-84.8 1019.06,-84.8 1019.06,-48.8 1110.94,-48.8 1110.94,-84.8"/>
<text text-anchor="middle" x="1065" y="-62.6" font-family="Times,serif" font-size="14.00">NewsModule</text>
</g>
<!-- NewsModule&#45;&gt;ServerModule -->
<g id="edge7" class="edge">
<title>NewsModule&#45;&gt;ServerModule</title>
<path fill="none" stroke="black" d="M1065,-84.99C1065,-99.98 1065,-118.8 1065,-118.8 1065,-118.8 1012.36,-118.8 1012.36,-118.8"/>
<polygon fill="black" stroke="black" points="1012.36,-115.3 1002.36,-118.8 1012.36,-122.3 1012.36,-115.3"/>
</g>
<!-- OauthModule -->
<g id="node8" class="node">
<title>OauthModule</title>
<polygon fill="#8dd3c7" stroke="black" points="1000.77,-84.8 997.77,-88.8 976.77,-88.8 973.77,-84.8 907.23,-84.8 907.23,-48.8 1000.77,-48.8 1000.77,-84.8"/>
<text text-anchor="middle" x="954" y="-62.6" font-family="Times,serif" font-size="14.00">OauthModule</text>
</g>
<!-- OauthModule&#45;&gt;ServerModule -->
<g id="edge8" class="edge">
<title>OauthModule&#45;&gt;ServerModule</title>
<path fill="none" stroke="black" d="M954,-84.91C954,-84.91 954,-103.79 954,-103.79"/>
<polygon fill="black" stroke="black" points="950.5,-103.79 954,-113.79 957.5,-103.79 950.5,-103.79"/>
</g>
<!-- ProvisioningModule -->
<g id="node9" class="node">
<title>ProvisioningModule</title>
<polygon fill="#8dd3c7" stroke="black" points="889.62,-84.8 886.62,-88.8 865.62,-88.8 862.62,-84.8 758.38,-84.8 758.38,-48.8 889.62,-48.8 889.62,-84.8"/>
<text text-anchor="middle" x="824" y="-62.6" font-family="Times,serif" font-size="14.00">ProvisioningModule</text>
</g>
<!-- ProvisioningModule&#45;&gt;ServerModule -->
<g id="edge9" class="edge">
<title>ProvisioningModule&#45;&gt;ServerModule</title>
<path fill="none" stroke="black" d="M824,-84.99C824,-99.98 824,-118.8 824,-118.8 824,-118.8 895.59,-118.8 895.59,-118.8"/>
<polygon fill="black" stroke="black" points="895.59,-122.3 905.59,-118.8 895.59,-115.3 895.59,-122.3"/>
</g>
<!-- RabbitMQWrapperModule -->
<g id="node10" class="node">
<title>RabbitMQWrapperModule</title>
<polygon fill="#8dd3c7" stroke="black" points="740.41,-84.8 737.41,-88.8 716.41,-88.8 713.41,-84.8 571.59,-84.8 571.59,-48.8 740.41,-48.8 740.41,-84.8"/>
<text text-anchor="middle" x="656" y="-62.6" font-family="Times,serif" font-size="14.00">RabbitMQWrapperModule</text>
</g>
<!-- RabbitMQWrapperModule&#45;&gt;ServerModule -->
<g id="edge10" class="edge">
<title>RabbitMQWrapperModule&#45;&gt;ServerModule</title>
<path fill="none" stroke="black" d="M656,-84.83C656,-101.2 656,-122.8 656,-122.8 656,-122.8 895.79,-122.8 895.79,-122.8"/>
<polygon fill="black" stroke="black" points="895.79,-126.3 905.79,-122.8 895.79,-119.3 895.79,-126.3"/>
</g>
<!-- RoleModule -->
<g id="node11" class="node">
<title>RoleModule</title>
<polygon fill="#8dd3c7" stroke="black" points="553.99,-84.8 550.99,-88.8 529.99,-88.8 526.99,-84.8 468.01,-84.8 468.01,-48.8 553.99,-48.8 553.99,-84.8"/>
<text text-anchor="middle" x="511" y="-62.6" font-family="Times,serif" font-size="14.00">RoleModule</text>
</g>
<!-- RoleModule&#45;&gt;ServerModule -->
<g id="edge11" class="edge">
<title>RoleModule&#45;&gt;ServerModule</title>
<path fill="none" stroke="black" d="M511,-85.1C511,-103.07 511,-127.8 511,-127.8 511,-127.8 895.75,-127.8 895.75,-127.8"/>
<polygon fill="black" stroke="black" points="895.75,-131.3 905.75,-127.8 895.75,-124.3 895.75,-131.3"/>
</g>
<!-- SchoolModule -->
<g id="node12" class="node">
<title>SchoolModule</title>
<polygon fill="#8dd3c7" stroke="black" points="450.44,-84.8 447.44,-88.8 426.44,-88.8 423.44,-84.8 351.56,-84.8 351.56,-48.8 450.44,-48.8 450.44,-84.8"/>
<text text-anchor="middle" x="401" y="-62.6" font-family="Times,serif" font-size="14.00">SchoolModule</text>
</g>
<!-- SchoolModule&#45;&gt;ServerModule -->
<g id="edge12" class="edge">
<title>SchoolModule&#45;&gt;ServerModule</title>
<path fill="none" stroke="black" d="M401,-84.91C401,-104.14 401,-131.8 401,-131.8 401,-131.8 895.89,-131.8 895.89,-131.8"/>
<polygon fill="black" stroke="black" points="895.89,-135.3 905.89,-131.8 895.89,-128.3 895.89,-135.3"/>
</g>
<!-- SystemModule -->
<g id="node13" class="node">
<title>SystemModule</title>
<polygon fill="#8dd3c7" stroke="black" points="333.28,-84.8 330.28,-88.8 309.28,-88.8 306.28,-84.8 232.72,-84.8 232.72,-48.8 333.28,-48.8 333.28,-84.8"/>
<text text-anchor="middle" x="283" y="-62.6" font-family="Times,serif" font-size="14.00">SystemModule</text>
</g>
<!-- SystemModule&#45;&gt;ServerModule -->
<g id="edge13" class="edge">
<title>SystemModule&#45;&gt;ServerModule</title>
<path fill="none" stroke="black" d="M283,-84.83C283,-105.57 283,-136.8 283,-136.8 283,-136.8 895.74,-136.8 895.74,-136.8"/>
<polygon fill="black" stroke="black" points="895.74,-140.3 905.74,-136.8 895.74,-133.3 895.74,-140.3"/>
</g>
<!-- TaskModule -->
<g id="node14" class="node">
<title>TaskModule</title>
<polygon fill="#8dd3c7" stroke="black" points="214.27,-84.8 211.27,-88.8 190.27,-88.8 187.27,-84.8 127.73,-84.8 127.73,-48.8 214.27,-48.8 214.27,-84.8"/>
<text text-anchor="middle" x="171" y="-62.6" font-family="Times,serif" font-size="14.00">TaskModule</text>
</g>
<!-- TaskModule&#45;&gt;ServerModule -->
<g id="edge14" class="edge">
<title>TaskModule&#45;&gt;ServerModule</title>
<path fill="none" stroke="black" d="M171,-85.09C171,-107.01 171,-140.8 171,-140.8 171,-140.8 895.91,-140.8 895.91,-140.8"/>
<polygon fill="black" stroke="black" points="895.91,-144.3 905.91,-140.8 895.9,-137.3 895.91,-144.3"/>
</g>
<!-- UserModule -->
<g id="node15" class="node">
<title>UserModule</title>
<polygon fill="#8dd3c7" stroke="black" points="109.99,-84.8 106.99,-88.8 85.99,-88.8 82.99,-84.8 24.01,-84.8 24.01,-48.8 109.99,-48.8 109.99,-84.8"/>
<text text-anchor="middle" x="67" y="-62.6" font-family="Times,serif" font-size="14.00">UserModule</text>
</g>
<!-- UserModule&#45;&gt;ServerModule -->
<g id="edge15" class="edge">
<title>UserModule&#45;&gt;ServerModule</title>
<path fill="none" stroke="black" d="M67,-85.12C67,-108.46 67,-145.8 67,-145.8 67,-145.8 895.68,-145.8 895.68,-145.8"/>
<polygon fill="black" stroke="black" points="895.68,-149.3 905.68,-145.8 895.68,-142.3 895.68,-149.3"/>
</g>
</g>
</svg>
