<?xml version="1.0" encoding="UTF-8" standalone="no"?>
<!DOCTYPE svg PUBLIC "-//W3C//DTD SVG 1.1//EN"
 "http://www.w3.org/Graphics/SVG/1.1/DTD/svg11.dtd">
<!-- Generated by graphviz version 5.0.0 (20220707.1540)
 -->
<!-- Title: dependencies Pages: 1 -->
<svg width="2734pt" height="174pt"
 viewBox="0.00 0.00 2734.00 173.80" xmlns="http://www.w3.org/2000/svg" xmlns:xlink="http://www.w3.org/1999/xlink">
<g id="graph0" class="graph" transform="scale(1 1) rotate(0) translate(4 169.8)">
<title>dependencies</title>
<polygon fill="white" stroke="transparent" points="-4,4 -4,-169.8 2730,-169.8 2730,4 -4,4"/>
<text text-anchor="middle" x="1363" y="-8.2" font-family="sans-serif" font-size="14.00">dependencies</text>
<g id="clust1" class="cluster">
<title>cluster_ServerModule</title>
<polygon fill="none" stroke="black" stroke-dasharray="1,5" points="8,-32.8 8,-157.8 2718,-157.8 2718,-32.8 8,-32.8"/>
</g>
<g id="clust3" class="cluster">
<title>cluster_ServerModule_imports</title>
<polygon fill="none" stroke="black" points="16,-40.8 16,-92.8 2710,-92.8 2710,-40.8 16,-40.8"/>
</g>
<!-- AuthModule -->
<g id="node1" class="node">
<title>AuthModule</title>
<polygon fill="#8dd3c7" stroke="black" points="2701.55,-84.8 2698.55,-88.8 2677.55,-88.8 2674.55,-84.8 2614.45,-84.8 2614.45,-48.8 2701.55,-48.8 2701.55,-84.8"/>
<text text-anchor="middle" x="2658" y="-62.6" font-family="Times,serif" font-size="14.00">AuthModule</text>
</g>
<!-- ServerModule -->
<g id="node21" class="node">
<title>ServerModule</title>
<polygon fill="#8dd3c7" stroke="black" points="1370.09,-149.8 1367.09,-153.8 1346.09,-153.8 1343.09,-149.8 1273.91,-149.8 1273.91,-113.8 1370.09,-113.8 1370.09,-149.8"/>
<text text-anchor="middle" x="1322" y="-127.6" font-family="Times,serif" font-size="14.00">ServerModule</text>
</g>
<!-- AuthModule&#45;&gt;ServerModule -->
<g id="edge1" class="edge">
<title>AuthModule&#45;&gt;ServerModule</title>
<path fill="none" stroke="black" d="M2658,-84.95C2658,-108.56 2658,-146.8 2658,-146.8 2658,-146.8 1380.34,-146.8 1380.34,-146.8"/>
<polygon fill="black" stroke="black" points="1380.34,-143.3 1370.34,-146.8 1380.34,-150.3 1380.34,-143.3"/>
</g>
<!-- CollaborativeStorageModule -->
<g id="node2" class="node">
<title>CollaborativeStorageModule</title>
<polygon fill="#8dd3c7" stroke="black" points="2596.02,-84.8 2593.02,-88.8 2572.02,-88.8 2569.02,-84.8 2417.98,-84.8 2417.98,-48.8 2596.02,-48.8 2596.02,-84.8"/>
<text text-anchor="middle" x="2507" y="-62.6" font-family="Times,serif" font-size="14.00">CollaborativeStorageModule</text>
</g>
<!-- CollaborativeStorageModule&#45;&gt;ServerModule -->
<g id="edge2" class="edge">
<title>CollaborativeStorageModule&#45;&gt;ServerModule</title>
<path fill="none" stroke="black" d="M2507,-84.81C2507,-107.29 2507,-142.8 2507,-142.8 2507,-142.8 1380.29,-142.8 1380.29,-142.8"/>
<polygon fill="black" stroke="black" points="1380.29,-139.3 1370.29,-142.8 1380.29,-146.3 1380.29,-139.3"/>
</g>
<!-- CoreModule -->
<g id="node3" class="node">
<title>CoreModule</title>
<polygon fill="#8dd3c7" stroke="black" points="2399.27,-84.8 2396.27,-88.8 2375.27,-88.8 2372.27,-84.8 2312.73,-84.8 2312.73,-48.8 2399.27,-48.8 2399.27,-84.8"/>
<text text-anchor="middle" x="2356" y="-62.6" font-family="Times,serif" font-size="14.00">CoreModule</text>
</g>
<!-- CoreModule&#45;&gt;ServerModule -->
<g id="edge3" class="edge">
<title>CoreModule&#45;&gt;ServerModule</title>
<path fill="none" stroke="black" d="M2356,-84.84C2356,-106.46 2356,-139.8 2356,-139.8 2356,-139.8 1380.14,-139.8 1380.14,-139.8"/>
<polygon fill="black" stroke="black" points="1380.14,-136.3 1370.14,-139.8 1380.14,-143.3 1380.14,-136.3"/>
</g>
<!-- FilesStorageClientModule -->
<g id="node4" class="node">
<title>FilesStorageClientModule</title>
<polygon fill="#8dd3c7" stroke="black" points="2294.77,-84.8 2291.77,-88.8 2270.77,-88.8 2267.77,-84.8 2131.23,-84.8 2131.23,-48.8 2294.77,-48.8 2294.77,-84.8"/>
<text text-anchor="middle" x="2213" y="-62.6" font-family="Times,serif" font-size="14.00">FilesStorageClientModule</text>
</g>
<!-- FilesStorageClientModule&#45;&gt;ServerModule -->
<g id="edge4" class="edge">
<title>FilesStorageClientModule&#45;&gt;ServerModule</title>
<path fill="none" stroke="black" d="M2213,-84.93C2213,-105.37 2213,-135.8 2213,-135.8 2213,-135.8 1380.22,-135.8 1380.22,-135.8"/>
<polygon fill="black" stroke="black" points="1380.22,-132.3 1370.22,-135.8 1380.22,-139.3 1380.22,-132.3"/>
</g>
<!-- ImportUserModule -->
<g id="node5" class="node">
<title>ImportUserModule</title>
<polygon fill="#8dd3c7" stroke="black" points="2113.09,-84.8 2110.09,-88.8 2089.09,-88.8 2086.09,-84.8 1988.91,-84.8 1988.91,-48.8 2113.09,-48.8 2113.09,-84.8"/>
<text text-anchor="middle" x="2051" y="-62.6" font-family="Times,serif" font-size="14.00">ImportUserModule</text>
</g>
<!-- ImportUserModule&#45;&gt;ServerModule -->
<g id="edge5" class="edge">
<title>ImportUserModule&#45;&gt;ServerModule</title>
<path fill="none" stroke="black" d="M2051,-84.91C2051,-104.14 2051,-131.8 2051,-131.8 2051,-131.8 1380.11,-131.8 1380.11,-131.8"/>
<polygon fill="black" stroke="black" points="1380.11,-128.3 1370.11,-131.8 1380.11,-135.3 1380.11,-128.3"/>
</g>
<!-- LearnroomModule -->
<g id="node6" class="node">
<title>LearnroomModule</title>
<polygon fill="#8dd3c7" stroke="black" points="1970.75,-84.8 1967.75,-88.8 1946.75,-88.8 1943.75,-84.8 1849.25,-84.8 1849.25,-48.8 1970.75,-48.8 1970.75,-84.8"/>
<text text-anchor="middle" x="1910" y="-62.6" font-family="Times,serif" font-size="14.00">LearnroomModule</text>
</g>
<!-- LearnroomModule&#45;&gt;ServerModule -->
<g id="edge6" class="edge">
<title>LearnroomModule&#45;&gt;ServerModule</title>
<path fill="none" stroke="black" d="M1910,-85.07C1910,-103.36 1910,-128.8 1910,-128.8 1910,-128.8 1380.12,-128.8 1380.12,-128.8"/>
<polygon fill="black" stroke="black" points="1380.12,-125.3 1370.12,-128.8 1380.12,-132.3 1380.12,-125.3"/>
</g>
<!-- LessonApiModule -->
<g id="node7" class="node">
<title>LessonApiModule</title>
<polygon fill="#8dd3c7" stroke="black" points="1831.21,-84.8 1828.21,-88.8 1807.21,-88.8 1804.21,-84.8 1710.79,-84.8 1710.79,-48.8 1831.21,-48.8 1831.21,-84.8"/>
<text text-anchor="middle" x="1771" y="-62.6" font-family="Times,serif" font-size="14.00">LessonApiModule</text>
</g>
<!-- LessonApiModule&#45;&gt;ServerModule -->
<g id="edge7" class="edge">
<title>LessonApiModule&#45;&gt;ServerModule</title>
<path fill="none" stroke="black" d="M1771,-84.83C1771,-101.86 1771,-124.8 1771,-124.8 1771,-124.8 1380.05,-124.8 1380.05,-124.8"/>
<polygon fill="black" stroke="black" points="1380.05,-121.3 1370.05,-124.8 1380.05,-128.3 1380.05,-121.3"/>
</g>
<!-- NewsModule -->
<g id="node8" class="node">
<title>NewsModule</title>
<polygon fill="#8dd3c7" stroke="black" points="1692.94,-84.8 1689.94,-88.8 1668.94,-88.8 1665.94,-84.8 1601.06,-84.8 1601.06,-48.8 1692.94,-48.8 1692.94,-84.8"/>
<text text-anchor="middle" x="1647" y="-62.6" font-family="Times,serif" font-size="14.00">NewsModule</text>
</g>
<!-- NewsModule&#45;&gt;ServerModule -->
<g id="edge8" class="edge">
<title>NewsModule&#45;&gt;ServerModule</title>
<path fill="none" stroke="black" d="M1647,-84.81C1647,-100.85 1647,-121.8 1647,-121.8 1647,-121.8 1380.3,-121.8 1380.3,-121.8"/>
<polygon fill="black" stroke="black" points="1380.3,-118.3 1370.3,-121.8 1380.3,-125.3 1380.3,-118.3"/>
</g>
<!-- OauthModule -->
<g id="node9" class="node">
<title>OauthModule</title>
<polygon fill="#8dd3c7" stroke="black" points="1582.77,-84.8 1579.77,-88.8 1558.77,-88.8 1555.77,-84.8 1489.23,-84.8 1489.23,-48.8 1582.77,-48.8 1582.77,-84.8"/>
<text text-anchor="middle" x="1536" y="-62.6" font-family="Times,serif" font-size="14.00">OauthModule</text>
</g>
<!-- OauthModule&#45;&gt;ServerModule -->
<g id="edge9" class="edge">
<title>OauthModule&#45;&gt;ServerModule</title>
<path fill="none" stroke="black" d="M1536,-84.92C1536,-99.58 1536,-117.8 1536,-117.8 1536,-117.8 1380.29,-117.8 1380.29,-117.8"/>
<polygon fill="black" stroke="black" points="1380.29,-114.3 1370.29,-117.8 1380.29,-121.3 1380.29,-114.3"/>
</g>
<!-- OauthProviderModule -->
<g id="node10" class="node">
<title>OauthProviderModule</title>
<polygon fill="#8dd3c7" stroke="black" points="1470.98,-84.8 1467.98,-88.8 1446.98,-88.8 1443.98,-84.8 1329.02,-84.8 1329.02,-48.8 1470.98,-48.8 1470.98,-84.8"/>
<text text-anchor="middle" x="1400" y="-62.6" font-family="Times,serif" font-size="14.00">OauthProviderModule</text>
</g>
<!-- OauthProviderModule&#45;&gt;ServerModule -->
<g id="edge10" class="edge">
<title>OauthProviderModule&#45;&gt;ServerModule</title>
<path fill="none" stroke="black" d="M1349.53,-84.91C1349.53,-84.91 1349.53,-103.79 1349.53,-103.79"/>
<polygon fill="black" stroke="black" points="1346.03,-103.79 1349.53,-113.79 1353.03,-103.79 1346.03,-103.79"/>
</g>
<!-- ProvisioningModule -->
<g id="node11" class="node">
<title>ProvisioningModule</title>
<polygon fill="#8dd3c7" stroke="black" points="1310.62,-84.8 1307.62,-88.8 1286.62,-88.8 1283.62,-84.8 1179.38,-84.8 1179.38,-48.8 1310.62,-48.8 1310.62,-84.8"/>
<text text-anchor="middle" x="1245" y="-62.6" font-family="Times,serif" font-size="14.00">ProvisioningModule</text>
</g>
<!-- ProvisioningModule&#45;&gt;ServerModule -->
<g id="edge11" class="edge">
<title>ProvisioningModule&#45;&gt;ServerModule</title>
<path fill="none" stroke="black" d="M1292.26,-84.91C1292.26,-84.91 1292.26,-103.79 1292.26,-103.79"/>
<polygon fill="black" stroke="black" points="1288.76,-103.79 1292.26,-113.79 1295.76,-103.79 1288.76,-103.79"/>
</g>
<!-- RabbitMQWrapperModule -->
<g id="node12" class="node">
<title>RabbitMQWrapperModule</title>
<polygon fill="#8dd3c7" stroke="black" points="1161.41,-84.8 1158.41,-88.8 1137.41,-88.8 1134.41,-84.8 992.59,-84.8 992.59,-48.8 1161.41,-48.8 1161.41,-84.8"/>
<text text-anchor="middle" x="1077" y="-62.6" font-family="Times,serif" font-size="14.00">RabbitMQWrapperModule</text>
</g>
<!-- RabbitMQWrapperModule&#45;&gt;ServerModule -->
<g id="edge12" class="edge">
<title>RabbitMQWrapperModule&#45;&gt;ServerModule</title>
<path fill="none" stroke="black" d="M1077,-84.92C1077,-99.58 1077,-117.8 1077,-117.8 1077,-117.8 1263.89,-117.8 1263.89,-117.8"/>
<polygon fill="black" stroke="black" points="1263.89,-121.3 1273.89,-117.8 1263.89,-114.3 1263.89,-121.3"/>
</g>
<!-- RoleModule -->
<g id="node13" class="node">
<title>RoleModule</title>
<polygon fill="#8dd3c7" stroke="black" points="974.99,-84.8 971.99,-88.8 950.99,-88.8 947.99,-84.8 889.01,-84.8 889.01,-48.8 974.99,-48.8 974.99,-84.8"/>
<text text-anchor="middle" x="932" y="-62.6" font-family="Times,serif" font-size="14.00">RoleModule</text>
</g>
<!-- RoleModule&#45;&gt;ServerModule -->
<g id="edge13" class="edge">
<title>RoleModule&#45;&gt;ServerModule</title>
<path fill="none" stroke="black" d="M932,-84.81C932,-100.85 932,-121.8 932,-121.8 932,-121.8 1263.79,-121.8 1263.79,-121.8"/>
<polygon fill="black" stroke="black" points="1263.79,-125.3 1273.79,-121.8 1263.79,-118.3 1263.79,-125.3"/>
</g>
<!-- SchoolModule -->
<g id="node14" class="node">
<title>SchoolModule</title>
<polygon fill="#8dd3c7" stroke="black" points="871.44,-84.8 868.44,-88.8 847.44,-88.8 844.44,-84.8 772.56,-84.8 772.56,-48.8 871.44,-48.8 871.44,-84.8"/>
<text text-anchor="middle" x="822" y="-62.6" font-family="Times,serif" font-size="14.00">SchoolModule</text>
</g>
<!-- SchoolModule&#45;&gt;ServerModule -->
<g id="edge14" class="edge">
<title>SchoolModule&#45;&gt;ServerModule</title>
<path fill="none" stroke="black" d="M822,-84.83C822,-101.86 822,-124.8 822,-124.8 822,-124.8 1263.6,-124.8 1263.6,-124.8"/>
<polygon fill="black" stroke="black" points="1263.6,-128.3 1273.6,-124.8 1263.6,-121.3 1263.6,-128.3"/>
</g>
<!-- SharingApiModule -->
<g id="node15" class="node">
<title>SharingApiModule</title>
<polygon fill="#8dd3c7" stroke="black" points="755.1,-84.8 752.1,-88.8 731.1,-88.8 728.1,-84.8 630.9,-84.8 630.9,-48.8 755.1,-48.8 755.1,-84.8"/>
<text text-anchor="middle" x="693" y="-62.6" font-family="Times,serif" font-size="14.00">SharingApiModule</text>
</g>
<!-- SharingApiModule&#45;&gt;ServerModule -->
<g id="edge15" class="edge">
<title>SharingApiModule&#45;&gt;ServerModule</title>
<path fill="none" stroke="black" d="M693,-85.07C693,-103.36 693,-128.8 693,-128.8 693,-128.8 1263.95,-128.8 1263.95,-128.8"/>
<polygon fill="black" stroke="black" points="1263.95,-132.3 1273.95,-128.8 1263.95,-125.3 1263.95,-132.3"/>
</g>
<!-- SystemModule -->
<g id="node16" class="node">
<title>SystemModule</title>
<polygon fill="#8dd3c7" stroke="black" points="613.28,-84.8 610.28,-88.8 589.28,-88.8 586.28,-84.8 512.72,-84.8 512.72,-48.8 613.28,-48.8 613.28,-84.8"/>
<text text-anchor="middle" x="563" y="-62.6" font-family="Times,serif" font-size="14.00">SystemModule</text>
</g>
<!-- SystemModule&#45;&gt;ServerModule -->
<g id="edge16" class="edge">
<title>SystemModule&#45;&gt;ServerModule</title>
<path fill="none" stroke="black" d="M563,-84.91C563,-104.14 563,-131.8 563,-131.8 563,-131.8 1263.95,-131.8 1263.95,-131.8"/>
<polygon fill="black" stroke="black" points="1263.95,-135.3 1273.95,-131.8 1263.95,-128.3 1263.95,-135.3"/>
</g>
<!-- TaskModule -->
<g id="node17" class="node">
<title>TaskModule</title>
<polygon fill="#8dd3c7" stroke="black" points="494.27,-84.8 491.27,-88.8 470.27,-88.8 467.27,-84.8 407.73,-84.8 407.73,-48.8 494.27,-48.8 494.27,-84.8"/>
<text text-anchor="middle" x="451" y="-62.6" font-family="Times,serif" font-size="14.00">TaskModule</text>
</g>
<!-- TaskModule&#45;&gt;ServerModule -->
<g id="edge17" class="edge">
<title>TaskModule&#45;&gt;ServerModule</title>
<path fill="none" stroke="black" d="M451,-84.93C451,-105.37 451,-135.8 451,-135.8 451,-135.8 1263.93,-135.8 1263.93,-135.8"/>
<polygon fill="black" stroke="black" points="1263.93,-139.3 1273.93,-135.8 1263.93,-132.3 1263.93,-139.3"/>
</g>
<!-- ToolModule -->
<g id="node18" class="node">
<title>ToolModule</title>
<polygon fill="#8dd3c7" stroke="black" points="389.99,-84.8 386.99,-88.8 365.99,-88.8 362.99,-84.8 304.01,-84.8 304.01,-48.8 389.99,-48.8 389.99,-84.8"/>
<text text-anchor="middle" x="347" y="-62.6" font-family="Times,serif" font-size="14.00">ToolModule</text>
</g>
<!-- ToolModule&#45;&gt;ServerModule -->
<g id="edge18" class="edge">
<title>ToolModule&#45;&gt;ServerModule</title>
<path fill="none" stroke="black" d="M347,-84.84C347,-106.46 347,-139.8 347,-139.8 347,-139.8 1263.65,-139.8 1263.65,-139.8"/>
<polygon fill="black" stroke="black" points="1263.65,-143.3 1273.65,-139.8 1263.65,-136.3 1263.65,-143.3"/>
</g>
<!-- UserModule -->
<g id="node19" class="node">
<title>UserModule</title>
<polygon fill="#8dd3c7" stroke="black" points="285.99,-84.8 282.99,-88.8 261.99,-88.8 258.99,-84.8 200.01,-84.8 200.01,-48.8 285.99,-48.8 285.99,-84.8"/>
<text text-anchor="middle" x="243" y="-62.6" font-family="Times,serif" font-size="14.00">UserModule</text>
</g>
<!-- UserModule&#45;&gt;ServerModule -->
<g id="edge19" class="edge">
<title>UserModule&#45;&gt;ServerModule</title>
<path fill="none" stroke="black" d="M243,-84.81C243,-107.29 243,-142.8 243,-142.8 243,-142.8 1263.89,-142.8 1263.89,-142.8"/>
<polygon fill="black" stroke="black" points="1263.89,-146.3 1273.89,-142.8 1263.89,-139.3 1263.89,-146.3"/>
</g>
<!-- VideoConferenceModule -->
<g id="node20" class="node">
<title>VideoConferenceModule</title>
<polygon fill="#8dd3c7" stroke="black" points="182.28,-84.8 179.28,-88.8 158.28,-88.8 155.28,-84.8 23.72,-84.8 23.72,-48.8 182.28,-48.8 182.28,-84.8"/>
<text text-anchor="middle" x="103" y="-62.6" font-family="Times,serif" font-size="14.00">VideoConferenceModule</text>
</g>
<!-- VideoConferenceModule&#45;&gt;ServerModule -->
<g id="edge20" class="edge">
<title>VideoConferenceModule&#45;&gt;ServerModule</title>
<path fill="none" stroke="black" d="M103,-84.95C103,-108.56 103,-146.8 103,-146.8 103,-146.8 1263.84,-146.8 1263.84,-146.8"/>
<polygon fill="black" stroke="black" points="1263.84,-150.3 1273.84,-146.8 1263.84,-143.3 1263.84,-150.3"/>
</g>
</g>
</svg>
