<?xml version="1.0" encoding="UTF-8" standalone="no"?>
<!DOCTYPE svg PUBLIC "-//W3C//DTD SVG 1.1//EN"
 "http://www.w3.org/Graphics/SVG/1.1/DTD/svg11.dtd">
<!-- Generated by graphviz version 2.47.3 (20210619.1520)
 -->
<!-- Title: dependencies Pages: 1 -->
<svg width="1201pt" height="174pt"
 viewBox="0.00 0.00 1201.00 173.80" xmlns="http://www.w3.org/2000/svg" xmlns:xlink="http://www.w3.org/1999/xlink">
<g id="graph0" class="graph" transform="scale(1 1) rotate(0) translate(4 169.8)">
<title>dependencies</title>
<polygon fill="white" stroke="transparent" points="-4,4 -4,-169.8 1197,-169.8 1197,4 -4,4"/>
<text text-anchor="middle" x="596.5" y="-8.2" font-family="sans-serif" font-size="14.00">dependencies</text>
<g id="clust1" class="cluster">
<title>cluster_ServerModule</title>
<polygon fill="none" stroke="black" stroke-dasharray="1,5" points="8,-32.8 8,-157.8 1185,-157.8 1185,-32.8 8,-32.8"/>
</g>
<g id="clust3" class="cluster">
<title>cluster_ServerModule_imports</title>
<polygon fill="none" stroke="black" points="16,-40.8 16,-92.8 1177,-92.8 1177,-40.8 16,-40.8"/>
</g>
<!-- AuthModule -->
<g id="node1" class="node">
<title>AuthModule</title>
<polygon fill="#8dd3c7" stroke="black" points="1168.55,-84.8 1165.55,-88.8 1144.55,-88.8 1141.55,-84.8 1081.45,-84.8 1081.45,-48.8 1168.55,-48.8 1168.55,-84.8"/>
<text text-anchor="middle" x="1125" y="-62.6" font-family="Times,serif" font-size="14.00">AuthModule</text>
</g>
<!-- ServerModule -->
<g id="node11" class="node">
<title>ServerModule</title>
<polygon fill="#8dd3c7" stroke="black" points="638.08,-149.8 635.08,-153.8 614.08,-153.8 611.08,-149.8 541.92,-149.8 541.92,-113.8 638.08,-113.8 638.08,-149.8"/>
<text text-anchor="middle" x="590" y="-127.6" font-family="Times,serif" font-size="14.00">ServerModule</text>
</g>
<!-- AuthModule&#45;&gt;ServerModule -->
<g id="edge1" class="edge">
<title>AuthModule&#45;&gt;ServerModule</title>
<path fill="none" stroke="black" d="M1125,-84.81C1125,-107.29 1125,-142.8 1125,-142.8 1125,-142.8 648.42,-142.8 648.42,-142.8"/>
<polygon fill="black" stroke="black" points="648.42,-139.3 638.42,-142.8 648.42,-146.3 648.42,-139.3"/>
</g>
<!-- CoreModule -->
<g id="node2" class="node">
<title>CoreModule</title>
<polygon fill="#8dd3c7" stroke="black" points="1063.26,-84.8 1060.26,-88.8 1039.26,-88.8 1036.26,-84.8 976.74,-84.8 976.74,-48.8 1063.26,-48.8 1063.26,-84.8"/>
<text text-anchor="middle" x="1020" y="-62.6" font-family="Times,serif" font-size="14.00">CoreModule</text>
</g>
<!-- CoreModule&#45;&gt;ServerModule -->
<g id="edge2" class="edge">
<title>CoreModule&#45;&gt;ServerModule</title>
<path fill="none" stroke="black" d="M1020,-84.93C1020,-105.37 1020,-135.8 1020,-135.8 1020,-135.8 648.07,-135.8 648.07,-135.8"/>
<polygon fill="black" stroke="black" points="648.07,-132.3 638.07,-135.8 648.07,-139.3 648.07,-132.3"/>
</g>
<!-- FilesModule -->
<g id="node3" class="node">
<title>FilesModule</title>
<polygon fill="#8dd3c7" stroke="black" points="958.27,-84.8 955.27,-88.8 934.27,-88.8 931.27,-84.8 871.73,-84.8 871.73,-48.8 958.27,-48.8 958.27,-84.8"/>
<text text-anchor="middle" x="915" y="-62.6" font-family="Times,serif" font-size="14.00">FilesModule</text>
</g>
<!-- FilesModule&#45;&gt;ServerModule -->
<g id="edge3" class="edge">
<title>FilesModule&#45;&gt;ServerModule</title>
<path fill="none" stroke="black" d="M915,-85.07C915,-103.36 915,-128.8 915,-128.8 915,-128.8 648.3,-128.8 648.3,-128.8"/>
<polygon fill="black" stroke="black" points="648.3,-125.3 638.3,-128.8 648.3,-132.3 648.3,-125.3"/>
</g>
<!-- ImportUserModule -->
<g id="node4" class="node">
<title>ImportUserModule</title>
<polygon fill="#8dd3c7" stroke="black" points="854.08,-84.8 851.08,-88.8 830.08,-88.8 827.08,-84.8 729.92,-84.8 729.92,-48.8 854.08,-48.8 854.08,-84.8"/>
<text text-anchor="middle" x="792" y="-62.6" font-family="Times,serif" font-size="14.00">ImportUserModule</text>
</g>
<!-- ImportUserModule&#45;&gt;ServerModule -->
<g id="edge4" class="edge">
<title>ImportUserModule&#45;&gt;ServerModule</title>
<path fill="none" stroke="black" d="M792,-84.81C792,-100.85 792,-121.8 792,-121.8 792,-121.8 648.13,-121.8 648.13,-121.8"/>
<polygon fill="black" stroke="black" points="648.13,-118.3 638.13,-121.8 648.13,-125.3 648.13,-118.3"/>
</g>
<!-- LearnroomModule -->
<g id="node5" class="node">
<title>LearnroomModule</title>
<polygon fill="#8dd3c7" stroke="black" points="711.74,-84.8 708.74,-88.8 687.74,-88.8 684.74,-84.8 590.26,-84.8 590.26,-48.8 711.74,-48.8 711.74,-84.8"/>
<text text-anchor="middle" x="651" y="-62.6" font-family="Times,serif" font-size="14.00">LearnroomModule</text>
</g>
<!-- LearnroomModule&#45;&gt;ServerModule -->
<g id="edge5" class="edge">
<title>LearnroomModule&#45;&gt;ServerModule</title>
<path fill="none" stroke="black" d="M614.08,-84.91C614.08,-84.91 614.08,-103.79 614.08,-103.79"/>
<polygon fill="black" stroke="black" points="610.58,-103.79 614.08,-113.79 617.58,-103.79 610.58,-103.79"/>
</g>
<!-- MailModule -->
<g id="node6" class="node">
<title>MailModule</title>
<polygon fill="#8dd3c7" stroke="black" points="571.99,-84.8 568.99,-88.8 547.99,-88.8 544.99,-84.8 486.01,-84.8 486.01,-48.8 571.99,-48.8 571.99,-84.8"/>
<text text-anchor="middle" x="529" y="-62.6" font-family="Times,serif" font-size="14.00">MailModule</text>
</g>
<!-- MailModule&#45;&gt;ServerModule -->
<g id="edge6" class="edge">
<title>MailModule&#45;&gt;ServerModule</title>
<path fill="none" stroke="black" d="M556.98,-84.91C556.98,-84.91 556.98,-103.79 556.98,-103.79"/>
<polygon fill="black" stroke="black" points="553.48,-103.79 556.98,-113.79 560.48,-103.79 553.48,-103.79"/>
</g>
<!-- NewsModule -->
<g id="node7" class="node">
<title>NewsModule</title>
<polygon fill="#8dd3c7" stroke="black" points="467.92,-84.8 464.92,-88.8 443.92,-88.8 440.92,-84.8 376.08,-84.8 376.08,-48.8 467.92,-48.8 467.92,-84.8"/>
<text text-anchor="middle" x="422" y="-62.6" font-family="Times,serif" font-size="14.00">NewsModule</text>
</g>
<!-- NewsModule&#45;&gt;ServerModule -->
<g id="edge7" class="edge">
<title>NewsModule&#45;&gt;ServerModule</title>
<path fill="none" stroke="black" d="M422,-84.81C422,-100.85 422,-121.8 422,-121.8 422,-121.8 531.86,-121.8 531.86,-121.8"/>
<polygon fill="black" stroke="black" points="531.86,-125.3 541.86,-121.8 531.86,-118.3 531.86,-125.3"/>
</g>
<!-- RocketChatModule -->
<g id="node8" class="node">
<title>RocketChatModule</title>
<polygon fill="#8dd3c7" stroke="black" points="357.65,-84.8 354.65,-88.8 333.65,-88.8 330.65,-84.8 232.35,-84.8 232.35,-48.8 357.65,-48.8 357.65,-84.8"/>
<text text-anchor="middle" x="295" y="-62.6" font-family="Times,serif" font-size="14.00">RocketChatModule</text>
</g>
<!-- RocketChatModule&#45;&gt;ServerModule -->
<g id="edge8" class="edge">
<title>RocketChatModule&#45;&gt;ServerModule</title>
<path fill="none" stroke="black" d="M295,-85.07C295,-103.36 295,-128.8 295,-128.8 295,-128.8 531.95,-128.8 531.95,-128.8"/>
<polygon fill="black" stroke="black" points="531.95,-132.3 541.95,-128.8 531.95,-125.3 531.95,-132.3"/>
</g>
<!-- TaskModule -->
<g id="node9" class="node">
<title>TaskModule</title>
<polygon fill="#8dd3c7" stroke="black" points="214.26,-84.8 211.26,-88.8 190.26,-88.8 187.26,-84.8 127.74,-84.8 127.74,-48.8 214.26,-48.8 214.26,-84.8"/>
<text text-anchor="middle" x="171" y="-62.6" font-family="Times,serif" font-size="14.00">TaskModule</text>
</g>
<!-- TaskModule&#45;&gt;ServerModule -->
<g id="edge9" class="edge">
<title>TaskModule&#45;&gt;ServerModule</title>
<path fill="none" stroke="black" d="M171,-84.93C171,-105.37 171,-135.8 171,-135.8 171,-135.8 531.94,-135.8 531.94,-135.8"/>
<polygon fill="black" stroke="black" points="531.94,-139.3 541.94,-135.8 531.94,-132.3 531.94,-139.3"/>
</g>
<!-- UserModule -->
<g id="node10" class="node">
<title>UserModule</title>
<polygon fill="#8dd3c7" stroke="black" points="109.98,-84.8 106.98,-88.8 85.98,-88.8 82.98,-84.8 24.02,-84.8 24.02,-48.8 109.98,-48.8 109.98,-84.8"/>
<text text-anchor="middle" x="67" y="-62.6" font-family="Times,serif" font-size="14.00">UserModule</text>
</g>
<!-- UserModule&#45;&gt;ServerModule -->
<g id="edge10" class="edge">
<title>UserModule&#45;&gt;ServerModule</title>
<path fill="none" stroke="black" d="M67,-84.81C67,-107.29 67,-142.8 67,-142.8 67,-142.8 531.73,-142.8 531.73,-142.8"/>
<polygon fill="black" stroke="black" points="531.73,-146.3 541.73,-142.8 531.73,-139.3 531.73,-146.3"/>
</g>
</g>
</svg>
