<?xml version="1.0" encoding="UTF-8" standalone="no"?>
<!DOCTYPE svg PUBLIC "-//W3C//DTD SVG 1.1//EN"
 "http://www.w3.org/Graphics/SVG/1.1/DTD/svg11.dtd">
<!-- Generated by graphviz version 2.47.3 (20210619.1520)
 -->
<!-- Title: dependencies Pages: 1 -->
<svg width="953pt" height="174pt"
 viewBox="0.00 0.00 953.00 173.80" xmlns="http://www.w3.org/2000/svg" xmlns:xlink="http://www.w3.org/1999/xlink">
<g id="graph0" class="graph" transform="scale(1 1) rotate(0) translate(4 169.8)">
<title>dependencies</title>
<polygon fill="white" stroke="transparent" points="-4,4 -4,-169.8 949,-169.8 949,4 -4,4"/>
<text text-anchor="middle" x="472.5" y="-8.2" font-family="sans-serif" font-size="14.00">dependencies</text>
<g id="clust1" class="cluster">
<title>cluster_ServerModule</title>
<polygon fill="none" stroke="black" stroke-dasharray="1,5" points="8,-32.8 8,-157.8 937,-157.8 937,-32.8 8,-32.8"/>
</g>
<g id="clust3" class="cluster">
<title>cluster_ServerModule_imports</title>
<polygon fill="none" stroke="black" points="16,-40.8 16,-92.8 929,-92.8 929,-40.8 16,-40.8"/>
</g>
<!-- AuthModule -->
<g id="node1" class="node">
<title>AuthModule</title>
<polygon fill="#8dd3c7" stroke="black" points="920.55,-84.8 917.55,-88.8 896.55,-88.8 893.55,-84.8 833.45,-84.8 833.45,-48.8 920.55,-48.8 920.55,-84.8"/>
<text text-anchor="middle" x="877" y="-62.6" font-family="Times,serif" font-size="14.00">AuthModule</text>
</g>
<!-- ServerModule -->
<g id="node9" class="node">
<title>ServerModule</title>
<polygon fill="#8dd3c7" stroke="black" points="521.08,-149.8 518.08,-153.8 497.08,-153.8 494.08,-149.8 424.92,-149.8 424.92,-113.8 521.08,-113.8 521.08,-149.8"/>
<text text-anchor="middle" x="473" y="-127.6" font-family="Times,serif" font-size="14.00">ServerModule</text>
</g>
<!-- AuthModule&#45;&gt;ServerModule -->
<g id="edge1" class="edge">
<title>AuthModule&#45;&gt;ServerModule</title>
<path fill="none" stroke="black" d="M877,-85.09C877,-107.01 877,-140.8 877,-140.8 877,-140.8 531.33,-140.8 531.33,-140.8"/>
<polygon fill="black" stroke="black" points="531.33,-137.3 521.33,-140.8 531.33,-144.3 531.33,-137.3"/>
</g>
<!-- CoreModule -->
<g id="node2" class="node">
<title>CoreModule</title>
<polygon fill="#8dd3c7" stroke="black" points="815.26,-84.8 812.26,-88.8 791.26,-88.8 788.26,-84.8 728.74,-84.8 728.74,-48.8 815.26,-48.8 815.26,-84.8"/>
<text text-anchor="middle" x="772" y="-62.6" font-family="Times,serif" font-size="14.00">CoreModule</text>
</g>
<!-- CoreModule&#45;&gt;ServerModule -->
<g id="edge2" class="edge">
<title>CoreModule&#45;&gt;ServerModule</title>
<path fill="none" stroke="black" d="M772,-84.91C772,-104.14 772,-131.8 772,-131.8 772,-131.8 531.37,-131.8 531.37,-131.8"/>
<polygon fill="black" stroke="black" points="531.37,-128.3 521.37,-131.8 531.37,-135.3 531.37,-128.3"/>
</g>
<!-- FilesModule -->
<g id="node3" class="node">
<title>FilesModule</title>
<polygon fill="#8dd3c7" stroke="black" points="710.27,-84.8 707.27,-88.8 686.27,-88.8 683.27,-84.8 623.73,-84.8 623.73,-48.8 710.27,-48.8 710.27,-84.8"/>
<text text-anchor="middle" x="667" y="-62.6" font-family="Times,serif" font-size="14.00">FilesModule</text>
</g>
<!-- FilesModule&#45;&gt;ServerModule -->
<g id="edge3" class="edge">
<title>FilesModule&#45;&gt;ServerModule</title>
<path fill="none" stroke="black" d="M667,-84.83C667,-101.2 667,-122.8 667,-122.8 667,-122.8 531.45,-122.8 531.45,-122.8"/>
<polygon fill="black" stroke="black" points="531.45,-119.3 521.45,-122.8 531.45,-126.3 531.45,-119.3"/>
</g>
<!-- ImportUserModule -->
<g id="node4" class="node">
<title>ImportUserModule</title>
<polygon fill="#8dd3c7" stroke="black" points="606.08,-84.8 603.08,-88.8 582.08,-88.8 579.08,-84.8 481.92,-84.8 481.92,-48.8 606.08,-48.8 606.08,-84.8"/>
<text text-anchor="middle" x="544" y="-62.6" font-family="Times,serif" font-size="14.00">ImportUserModule</text>
</g>
<!-- ImportUserModule&#45;&gt;ServerModule -->
<g id="edge4" class="edge">
<title>ImportUserModule&#45;&gt;ServerModule</title>
<path fill="none" stroke="black" d="M501.5,-84.91C501.5,-84.91 501.5,-103.79 501.5,-103.79"/>
<polygon fill="black" stroke="black" points="498,-103.79 501.5,-113.79 505,-103.79 498,-103.79"/>
</g>
<!-- LearnroomModule -->
<g id="node5" class="node">
<title>LearnroomModule</title>
<polygon fill="#8dd3c7" stroke="black" points="463.74,-84.8 460.74,-88.8 439.74,-88.8 436.74,-84.8 342.26,-84.8 342.26,-48.8 463.74,-48.8 463.74,-84.8"/>
<text text-anchor="middle" x="403" y="-62.6" font-family="Times,serif" font-size="14.00">LearnroomModule</text>
</g>
<!-- LearnroomModule&#45;&gt;ServerModule -->
<g id="edge5" class="edge">
<title>LearnroomModule&#45;&gt;ServerModule</title>
<path fill="none" stroke="black" d="M444.42,-84.91C444.42,-84.91 444.42,-103.79 444.42,-103.79"/>
<polygon fill="black" stroke="black" points="440.92,-103.79 444.42,-113.79 447.92,-103.79 440.92,-103.79"/>
</g>
<!-- NewsModule -->
<g id="node6" class="node">
<title>NewsModule</title>
<polygon fill="#8dd3c7" stroke="black" points="323.92,-84.8 320.92,-88.8 299.92,-88.8 296.92,-84.8 232.08,-84.8 232.08,-48.8 323.92,-48.8 323.92,-84.8"/>
<text text-anchor="middle" x="278" y="-62.6" font-family="Times,serif" font-size="14.00">NewsModule</text>
</g>
<!-- NewsModule&#45;&gt;ServerModule -->
<g id="edge6" class="edge">
<title>NewsModule&#45;&gt;ServerModule</title>
<path fill="none" stroke="black" d="M278,-84.83C278,-101.2 278,-122.8 278,-122.8 278,-122.8 414.8,-122.8 414.8,-122.8"/>
<polygon fill="black" stroke="black" points="414.8,-126.3 424.8,-122.8 414.8,-119.3 414.8,-126.3"/>
</g>
<!-- TaskModule -->
<g id="node7" class="node">
<title>TaskModule</title>
<polygon fill="#8dd3c7" stroke="black" points="214.26,-84.8 211.26,-88.8 190.26,-88.8 187.26,-84.8 127.74,-84.8 127.74,-48.8 214.26,-48.8 214.26,-84.8"/>
<text text-anchor="middle" x="171" y="-62.6" font-family="Times,serif" font-size="14.00">TaskModule</text>
</g>
<!-- TaskModule&#45;&gt;ServerModule -->
<g id="edge7" class="edge">
<title>TaskModule&#45;&gt;ServerModule</title>
<path fill="none" stroke="black" d="M171,-84.91C171,-104.14 171,-131.8 171,-131.8 171,-131.8 414.81,-131.8 414.81,-131.8"/>
<polygon fill="black" stroke="black" points="414.81,-135.3 424.81,-131.8 414.81,-128.3 414.81,-135.3"/>
</g>
<!-- UserModule -->
<g id="node8" class="node">
<title>UserModule</title>
<polygon fill="#8dd3c7" stroke="black" points="109.98,-84.8 106.98,-88.8 85.98,-88.8 82.98,-84.8 24.02,-84.8 24.02,-48.8 109.98,-48.8 109.98,-84.8"/>
<text text-anchor="middle" x="67" y="-62.6" font-family="Times,serif" font-size="14.00">UserModule</text>
</g>
<!-- UserModule&#45;&gt;ServerModule -->
<g id="edge8" class="edge">
<title>UserModule&#45;&gt;ServerModule</title>
<path fill="none" stroke="black" d="M67,-85.09C67,-107.01 67,-140.8 67,-140.8 67,-140.8 414.83,-140.8 414.83,-140.8"/>
<polygon fill="black" stroke="black" points="414.83,-144.3 424.83,-140.8 414.83,-137.3 414.83,-144.3"/>
</g>
</g>
</svg>
