<?xml version="1.0" encoding="UTF-8" standalone="no"?>
<!DOCTYPE svg PUBLIC "-//W3C//DTD SVG 1.1//EN"
 "http://www.w3.org/Graphics/SVG/1.1/DTD/svg11.dtd">
<!-- Generated by graphviz version 5.0.0 (20220707.1540)
 -->
<!-- Title: dependencies Pages: 1 -->
<svg width="2489pt" height="174pt"
 viewBox="0.00 0.00 2489.00 173.80" xmlns="http://www.w3.org/2000/svg" xmlns:xlink="http://www.w3.org/1999/xlink">
<g id="graph0" class="graph" transform="scale(1 1) rotate(0) translate(4 169.8)">
<title>dependencies</title>
<polygon fill="white" stroke="transparent" points="-4,4 -4,-169.8 2485,-169.8 2485,4 -4,4"/>
<text text-anchor="middle" x="1240.5" y="-8.2" font-family="sans-serif" font-size="14.00">dependencies</text>
<g id="clust1" class="cluster">
<title>cluster_ServerModule</title>
<polygon fill="none" stroke="black" stroke-dasharray="1,5" points="8,-32.8 8,-157.8 2473,-157.8 2473,-32.8 8,-32.8"/>
</g>
<g id="clust3" class="cluster">
<title>cluster_ServerModule_imports</title>
<polygon fill="none" stroke="black" points="16,-40.8 16,-92.8 2465,-92.8 2465,-40.8 16,-40.8"/>
</g>
<!-- AuthModule -->
<g id="node1" class="node">
<title>AuthModule</title>
<polygon fill="#8dd3c7" stroke="black" points="2456.55,-84.8 2453.55,-88.8 2432.55,-88.8 2429.55,-84.8 2369.45,-84.8 2369.45,-48.8 2456.55,-48.8 2456.55,-84.8"/>
<text text-anchor="middle" x="2413" y="-62.6" font-family="Times,serif" font-size="14.00">AuthModule</text>
</g>
<!-- ServerModule -->
<g id="node19" class="node">
<title>ServerModule</title>
<polygon fill="#8dd3c7" stroke="black" points="1271.09,-149.8 1268.09,-153.8 1247.09,-153.8 1244.09,-149.8 1174.91,-149.8 1174.91,-113.8 1271.09,-113.8 1271.09,-149.8"/>
<text text-anchor="middle" x="1223" y="-127.6" font-family="Times,serif" font-size="14.00">ServerModule</text>
</g>
<!-- AuthModule&#45;&gt;ServerModule -->
<g id="edge1" class="edge">
<title>AuthModule&#45;&gt;ServerModule</title>
<path fill="none" stroke="black" d="M2413,-85.12C2413,-108.46 2413,-145.8 2413,-145.8 2413,-145.8 1281.12,-145.8 1281.12,-145.8"/>
<polygon fill="black" stroke="black" points="1281.12,-142.3 1271.12,-145.8 1281.12,-149.3 1281.12,-142.3"/>
</g>
<!-- CollaborativeStorageModule -->
<g id="node2" class="node">
<title>CollaborativeStorageModule</title>
<polygon fill="#8dd3c7" stroke="black" points="2351.02,-84.8 2348.02,-88.8 2327.02,-88.8 2324.02,-84.8 2172.98,-84.8 2172.98,-48.8 2351.02,-48.8 2351.02,-84.8"/>
<text text-anchor="middle" x="2262" y="-62.6" font-family="Times,serif" font-size="14.00">CollaborativeStorageModule</text>
</g>
<!-- CollaborativeStorageModule&#45;&gt;ServerModule -->
<g id="edge2" class="edge">
<title>CollaborativeStorageModule&#45;&gt;ServerModule</title>
<path fill="none" stroke="black" d="M2262,-84.96C2262,-107.15 2262,-141.8 2262,-141.8 2262,-141.8 1281.37,-141.8 1281.37,-141.8"/>
<polygon fill="black" stroke="black" points="1281.37,-138.3 1271.37,-141.8 1281.37,-145.3 1281.37,-138.3"/>
</g>
<!-- CoreModule -->
<g id="node3" class="node">
<title>CoreModule</title>
<polygon fill="#8dd3c7" stroke="black" points="2154.27,-84.8 2151.27,-88.8 2130.27,-88.8 2127.27,-84.8 2067.73,-84.8 2067.73,-48.8 2154.27,-48.8 2154.27,-84.8"/>
<text text-anchor="middle" x="2111" y="-62.6" font-family="Times,serif" font-size="14.00">CoreModule</text>
</g>
<!-- CoreModule&#45;&gt;ServerModule -->
<g id="edge3" class="edge">
<title>CoreModule&#45;&gt;ServerModule</title>
<path fill="none" stroke="black" d="M2111,-85.08C2111,-106.12 2111,-137.8 2111,-137.8 2111,-137.8 1281.06,-137.8 1281.06,-137.8"/>
<polygon fill="black" stroke="black" points="1281.06,-134.3 1271.06,-137.8 1281.06,-141.3 1281.06,-134.3"/>
</g>
<!-- FilesStorageClientModule -->
<g id="node4" class="node">
<title>FilesStorageClientModule</title>
<polygon fill="#8dd3c7" stroke="black" points="2049.77,-84.8 2046.77,-88.8 2025.77,-88.8 2022.77,-84.8 1886.23,-84.8 1886.23,-48.8 2049.77,-48.8 2049.77,-84.8"/>
<text text-anchor="middle" x="1968" y="-62.6" font-family="Times,serif" font-size="14.00">FilesStorageClientModule</text>
</g>
<!-- FilesStorageClientModule&#45;&gt;ServerModule -->
<g id="edge4" class="edge">
<title>FilesStorageClientModule&#45;&gt;ServerModule</title>
<path fill="none" stroke="black" d="M1968,-85.11C1968,-104.95 1968,-133.8 1968,-133.8 1968,-133.8 1281.31,-133.8 1281.31,-133.8"/>
<polygon fill="black" stroke="black" points="1281.31,-130.3 1271.31,-133.8 1281.31,-137.3 1281.31,-130.3"/>
</g>
<!-- ImportUserModule -->
<g id="node5" class="node">
<title>ImportUserModule</title>
<polygon fill="#8dd3c7" stroke="black" points="1868.09,-84.8 1865.09,-88.8 1844.09,-88.8 1841.09,-84.8 1743.91,-84.8 1743.91,-48.8 1868.09,-48.8 1868.09,-84.8"/>
<text text-anchor="middle" x="1806" y="-62.6" font-family="Times,serif" font-size="14.00">ImportUserModule</text>
</g>
<!-- ImportUserModule&#45;&gt;ServerModule -->
<g id="edge5" class="edge">
<title>ImportUserModule&#45;&gt;ServerModule</title>
<path fill="none" stroke="black" d="M1806,-85.02C1806,-103.63 1806,-129.8 1806,-129.8 1806,-129.8 1281.21,-129.8 1281.21,-129.8"/>
<polygon fill="black" stroke="black" points="1281.21,-126.3 1271.21,-129.8 1281.21,-133.3 1281.21,-126.3"/>
</g>
<!-- LearnroomModule -->
<g id="node6" class="node">
<title>LearnroomModule</title>
<polygon fill="#8dd3c7" stroke="black" points="1725.75,-84.8 1722.75,-88.8 1701.75,-88.8 1698.75,-84.8 1604.25,-84.8 1604.25,-48.8 1725.75,-48.8 1725.75,-84.8"/>
<text text-anchor="middle" x="1665" y="-62.6" font-family="Times,serif" font-size="14.00">LearnroomModule</text>
</g>
<!-- LearnroomModule&#45;&gt;ServerModule -->
<g id="edge6" class="edge">
<title>LearnroomModule&#45;&gt;ServerModule</title>
<path fill="none" stroke="black" d="M1665,-84.82C1665,-102.17 1665,-125.8 1665,-125.8 1665,-125.8 1281.14,-125.8 1281.14,-125.8"/>
<polygon fill="black" stroke="black" points="1281.14,-122.3 1271.14,-125.8 1281.14,-129.3 1281.14,-122.3"/>
</g>
<!-- LessonApiModule -->
<g id="node7" class="node">
<title>LessonApiModule</title>
<polygon fill="#8dd3c7" stroke="black" points="1586.21,-84.8 1583.21,-88.8 1562.21,-88.8 1559.21,-84.8 1465.79,-84.8 1465.79,-48.8 1586.21,-48.8 1586.21,-84.8"/>
<text text-anchor="middle" x="1526" y="-62.6" font-family="Times,serif" font-size="14.00">LessonApiModule</text>
</g>
<!-- LessonApiModule&#45;&gt;ServerModule -->
<g id="edge7" class="edge">
<title>LessonApiModule&#45;&gt;ServerModule</title>
<path fill="none" stroke="black" d="M1526,-84.81C1526,-100.85 1526,-121.8 1526,-121.8 1526,-121.8 1281.35,-121.8 1281.35,-121.8"/>
<polygon fill="black" stroke="black" points="1281.35,-118.3 1271.35,-121.8 1281.35,-125.3 1281.35,-118.3"/>
</g>
<!-- NewsModule -->
<g id="node8" class="node">
<title>NewsModule</title>
<polygon fill="#8dd3c7" stroke="black" points="1447.94,-84.8 1444.94,-88.8 1423.94,-88.8 1420.94,-84.8 1356.06,-84.8 1356.06,-48.8 1447.94,-48.8 1447.94,-84.8"/>
<text text-anchor="middle" x="1402" y="-62.6" font-family="Times,serif" font-size="14.00">NewsModule</text>
</g>
<!-- NewsModule&#45;&gt;ServerModule -->
<g id="edge8" class="edge">
<title>NewsModule&#45;&gt;ServerModule</title>
<path fill="none" stroke="black" d="M1402,-84.92C1402,-99.58 1402,-117.8 1402,-117.8 1402,-117.8 1281.44,-117.8 1281.44,-117.8"/>
<polygon fill="black" stroke="black" points="1281.44,-114.3 1271.44,-117.8 1281.44,-121.3 1281.44,-114.3"/>
</g>
<!-- OauthModule -->
<g id="node9" class="node">
<title>OauthModule</title>
<polygon fill="#8dd3c7" stroke="black" points="1337.77,-84.8 1334.77,-88.8 1313.77,-88.8 1310.77,-84.8 1244.23,-84.8 1244.23,-48.8 1337.77,-48.8 1337.77,-84.8"/>
<text text-anchor="middle" x="1291" y="-62.6" font-family="Times,serif" font-size="14.00">OauthModule</text>
</g>
<!-- OauthModule&#45;&gt;ServerModule -->
<g id="edge9" class="edge">
<title>OauthModule&#45;&gt;ServerModule</title>
<path fill="none" stroke="black" d="M1257.58,-84.91C1257.58,-84.91 1257.58,-103.79 1257.58,-103.79"/>
<polygon fill="black" stroke="black" points="1254.08,-103.79 1257.58,-113.79 1261.08,-103.79 1254.08,-103.79"/>
</g>
<!-- OauthProviderModule -->
<g id="node10" class="node">
<title>OauthProviderModule</title>
<polygon fill="#8dd3c7" stroke="black" points="1225.98,-84.8 1222.98,-88.8 1201.98,-88.8 1198.98,-84.8 1084.02,-84.8 1084.02,-48.8 1225.98,-48.8 1225.98,-84.8"/>
<text text-anchor="middle" x="1155" y="-62.6" font-family="Times,serif" font-size="14.00">OauthProviderModule</text>
</g>
<!-- OauthProviderModule&#45;&gt;ServerModule -->
<g id="edge10" class="edge">
<title>OauthProviderModule&#45;&gt;ServerModule</title>
<path fill="none" stroke="black" d="M1200.47,-84.91C1200.47,-84.91 1200.47,-103.79 1200.47,-103.79"/>
<polygon fill="black" stroke="black" points="1196.97,-103.79 1200.47,-113.79 1203.97,-103.79 1196.97,-103.79"/>
</g>
<!-- ProvisioningModule -->
<g id="node11" class="node">
<title>ProvisioningModule</title>
<polygon fill="#8dd3c7" stroke="black" points="1065.62,-84.8 1062.62,-88.8 1041.62,-88.8 1038.62,-84.8 934.38,-84.8 934.38,-48.8 1065.62,-48.8 1065.62,-84.8"/>
<text text-anchor="middle" x="1000" y="-62.6" font-family="Times,serif" font-size="14.00">ProvisioningModule</text>
</g>
<!-- ProvisioningModule&#45;&gt;ServerModule -->
<g id="edge11" class="edge">
<title>ProvisioningModule&#45;&gt;ServerModule</title>
<path fill="none" stroke="black" d="M1000,-84.92C1000,-99.58 1000,-117.8 1000,-117.8 1000,-117.8 1164.89,-117.8 1164.89,-117.8"/>
<polygon fill="black" stroke="black" points="1164.89,-121.3 1174.89,-117.8 1164.89,-114.3 1164.89,-121.3"/>
</g>
<!-- RabbitMQWrapperModule -->
<g id="node12" class="node">
<title>RabbitMQWrapperModule</title>
<polygon fill="#8dd3c7" stroke="black" points="916.41,-84.8 913.41,-88.8 892.41,-88.8 889.41,-84.8 747.59,-84.8 747.59,-48.8 916.41,-48.8 916.41,-84.8"/>
<text text-anchor="middle" x="832" y="-62.6" font-family="Times,serif" font-size="14.00">RabbitMQWrapperModule</text>
</g>
<!-- RabbitMQWrapperModule&#45;&gt;ServerModule -->
<g id="edge12" class="edge">
<title>RabbitMQWrapperModule&#45;&gt;ServerModule</title>
<path fill="none" stroke="black" d="M832,-84.81C832,-100.85 832,-121.8 832,-121.8 832,-121.8 1164.66,-121.8 1164.66,-121.8"/>
<polygon fill="black" stroke="black" points="1164.66,-125.3 1174.66,-121.8 1164.66,-118.3 1164.66,-125.3"/>
</g>
<!-- RoleModule -->
<g id="node13" class="node">
<title>RoleModule</title>
<polygon fill="#8dd3c7" stroke="black" points="729.99,-84.8 726.99,-88.8 705.99,-88.8 702.99,-84.8 644.01,-84.8 644.01,-48.8 729.99,-48.8 729.99,-84.8"/>
<text text-anchor="middle" x="687" y="-62.6" font-family="Times,serif" font-size="14.00">RoleModule</text>
</g>
<!-- RoleModule&#45;&gt;ServerModule -->
<g id="edge13" class="edge">
<title>RoleModule&#45;&gt;ServerModule</title>
<path fill="none" stroke="black" d="M687,-84.82C687,-102.17 687,-125.8 687,-125.8 687,-125.8 1164.49,-125.8 1164.49,-125.8"/>
<polygon fill="black" stroke="black" points="1164.49,-129.3 1174.49,-125.8 1164.49,-122.3 1164.49,-129.3"/>
</g>
<!-- SchoolModule -->
<g id="node14" class="node">
<title>SchoolModule</title>
<polygon fill="#8dd3c7" stroke="black" points="626.44,-84.8 623.44,-88.8 602.44,-88.8 599.44,-84.8 527.56,-84.8 527.56,-48.8 626.44,-48.8 626.44,-84.8"/>
<text text-anchor="middle" x="577" y="-62.6" font-family="Times,serif" font-size="14.00">SchoolModule</text>
</g>
<!-- SchoolModule&#45;&gt;ServerModule -->
<g id="edge14" class="edge">
<title>SchoolModule&#45;&gt;ServerModule</title>
<path fill="none" stroke="black" d="M577,-85.02C577,-103.63 577,-129.8 577,-129.8 577,-129.8 1164.71,-129.8 1164.71,-129.8"/>
<polygon fill="black" stroke="black" points="1164.71,-133.3 1174.71,-129.8 1164.71,-126.3 1164.71,-133.3"/>
</g>
<!-- SystemModule -->
<g id="node15" class="node">
<title>SystemModule</title>
<polygon fill="#8dd3c7" stroke="black" points="509.28,-84.8 506.28,-88.8 485.28,-88.8 482.28,-84.8 408.72,-84.8 408.72,-48.8 509.28,-48.8 509.28,-84.8"/>
<text text-anchor="middle" x="459" y="-62.6" font-family="Times,serif" font-size="14.00">SystemModule</text>
</g>
<!-- SystemModule&#45;&gt;ServerModule -->
<g id="edge15" class="edge">
<title>SystemModule&#45;&gt;ServerModule</title>
<path fill="none" stroke="black" d="M459,-85.11C459,-104.95 459,-133.8 459,-133.8 459,-133.8 1164.92,-133.8 1164.92,-133.8"/>
<polygon fill="black" stroke="black" points="1164.92,-137.3 1174.92,-133.8 1164.92,-130.3 1164.92,-137.3"/>
</g>
<!-- TaskModule -->
<g id="node16" class="node">
<title>TaskModule</title>
<polygon fill="#8dd3c7" stroke="black" points="390.27,-84.8 387.27,-88.8 366.27,-88.8 363.27,-84.8 303.73,-84.8 303.73,-48.8 390.27,-48.8 390.27,-84.8"/>
<text text-anchor="middle" x="347" y="-62.6" font-family="Times,serif" font-size="14.00">TaskModule</text>
</g>
<!-- TaskModule&#45;&gt;ServerModule -->
<g id="edge16" class="edge">
<title>TaskModule&#45;&gt;ServerModule</title>
<path fill="none" stroke="black" d="M347,-85.08C347,-106.12 347,-137.8 347,-137.8 347,-137.8 1164.65,-137.8 1164.65,-137.8"/>
<polygon fill="black" stroke="black" points="1164.65,-141.3 1174.65,-137.8 1164.65,-134.3 1164.65,-141.3"/>
</g>
<!-- UserModule -->
<g id="node17" class="node">
<title>UserModule</title>
<polygon fill="#8dd3c7" stroke="black" points="285.99,-84.8 282.99,-88.8 261.99,-88.8 258.99,-84.8 200.01,-84.8 200.01,-48.8 285.99,-48.8 285.99,-84.8"/>
<text text-anchor="middle" x="243" y="-62.6" font-family="Times,serif" font-size="14.00">UserModule</text>
</g>
<!-- UserModule&#45;&gt;ServerModule -->
<g id="edge17" class="edge">
<title>UserModule&#45;&gt;ServerModule</title>
<path fill="none" stroke="black" d="M243,-84.96C243,-107.15 243,-141.8 243,-141.8 243,-141.8 1164.74,-141.8 1164.74,-141.8"/>
<polygon fill="black" stroke="black" points="1164.74,-145.3 1174.74,-141.8 1164.74,-138.3 1164.74,-145.3"/>
</g>
<!-- VideoConferenceModule -->
<g id="node18" class="node">
<title>VideoConferenceModule</title>
<polygon fill="#8dd3c7" stroke="black" points="182.28,-84.8 179.28,-88.8 158.28,-88.8 155.28,-84.8 23.72,-84.8 23.72,-48.8 182.28,-48.8 182.28,-84.8"/>
<text text-anchor="middle" x="103" y="-62.6" font-family="Times,serif" font-size="14.00">VideoConferenceModule</text>
</g>
<!-- VideoConferenceModule&#45;&gt;ServerModule -->
<g id="edge18" class="edge">
<title>VideoConferenceModule&#45;&gt;ServerModule</title>
<path fill="none" stroke="black" d="M103,-85.12C103,-108.46 103,-145.8 103,-145.8 103,-145.8 1164.88,-145.8 1164.88,-145.8"/>
<polygon fill="black" stroke="black" points="1164.88,-149.3 1174.88,-145.8 1164.87,-142.3 1164.88,-149.3"/>
</g>
</g>
</svg>
