<?xml version="1.0" encoding="UTF-8" standalone="no"?>
<!DOCTYPE svg PUBLIC "-//W3C//DTD SVG 1.1//EN"
 "http://www.w3.org/Graphics/SVG/1.1/DTD/svg11.dtd">
<!-- Generated by graphviz version 5.0.0 (20220707.1540)
 -->
<!-- Title: dependencies Pages: 1 -->
<svg width="3614pt" height="174pt"
 viewBox="0.00 0.00 3614.00 173.80" xmlns="http://www.w3.org/2000/svg" xmlns:xlink="http://www.w3.org/1999/xlink">
<g id="graph0" class="graph" transform="scale(1 1) rotate(0) translate(4 169.8)">
<title>dependencies</title>
<polygon fill="white" stroke="transparent" points="-4,4 -4,-169.8 3610,-169.8 3610,4 -4,4"/>
<text text-anchor="middle" x="1803" y="-8.2" font-family="sans-serif" font-size="14.00">dependencies</text>
<g id="clust1" class="cluster">
<title>cluster_ServerModule</title>
<polygon fill="none" stroke="black" stroke-dasharray="1,5" points="8,-32.8 8,-157.8 3598,-157.8 3598,-32.8 8,-32.8"/>
</g>
<g id="clust3" class="cluster">
<title>cluster_ServerModule_imports</title>
<polygon fill="none" stroke="black" points="16,-40.8 16,-92.8 3590,-92.8 3590,-40.8 16,-40.8"/>
</g>
<!-- AccountApiModule -->
<g id="node1" class="node">
<title>AccountApiModule</title>
<polygon fill="#8dd3c7" stroke="black" points="3581.98,-84.8 3578.98,-88.8 3557.98,-88.8 3554.98,-84.8 3454.02,-84.8 3454.02,-48.8 3581.98,-48.8 3581.98,-84.8"/>
<text text-anchor="middle" x="3518" y="-62.6" font-family="Times,serif" font-size="14.00">AccountApiModule</text>
</g>
<!-- ServerModule -->
<g id="node26" class="node">
<title>ServerModule</title>
<polygon fill="#8dd3c7" stroke="black" points="1813.09,-149.8 1810.09,-153.8 1789.09,-153.8 1786.09,-149.8 1716.91,-149.8 1716.91,-113.8 1813.09,-113.8 1813.09,-149.8"/>
<text text-anchor="middle" x="1765" y="-127.6" font-family="Times,serif" font-size="14.00">ServerModule</text>
</g>
<!-- AccountApiModule&#45;&gt;ServerModule -->
<g id="edge1" class="edge">
<title>AccountApiModule&#45;&gt;ServerModule</title>
<path fill="none" stroke="black" d="M3518,-85.18C3518,-109.08 3518,-147.8 3518,-147.8 3518,-147.8 1823.26,-147.8 1823.26,-147.8"/>
<polygon fill="black" stroke="black" points="1823.26,-144.3 1813.26,-147.8 1823.26,-151.3 1823.26,-144.3"/>
</g>
<!-- AuthenticationApiModule -->
<g id="node2" class="node">
<title>AuthenticationApiModule</title>
<polygon fill="#8dd3c7" stroke="black" points="3435.75,-84.8 3432.75,-88.8 3411.75,-88.8 3408.75,-84.8 3272.25,-84.8 3272.25,-48.8 3435.75,-48.8 3435.75,-84.8"/>
<text text-anchor="middle" x="3354" y="-62.6" font-family="Times,serif" font-size="14.00">AuthenticationApiModule</text>
</g>
<!-- AuthenticationApiModule&#45;&gt;ServerModule -->
<g id="edge2" class="edge">
<title>AuthenticationApiModule&#45;&gt;ServerModule</title>
<path fill="none" stroke="black" d="M3354,-84.89C3354,-107.93 3354,-144.8 3354,-144.8 3354,-144.8 1823.42,-144.8 1823.42,-144.8"/>
<polygon fill="black" stroke="black" points="1823.42,-141.3 1813.42,-144.8 1823.42,-148.3 1823.42,-141.3"/>
</g>
<!-- CollaborativeStorageModule -->
<g id="node3" class="node">
<title>CollaborativeStorageModule</title>
<polygon fill="#8dd3c7" stroke="black" points="3254.02,-84.8 3251.02,-88.8 3230.02,-88.8 3227.02,-84.8 3075.98,-84.8 3075.98,-48.8 3254.02,-48.8 3254.02,-84.8"/>
<text text-anchor="middle" x="3165" y="-62.6" font-family="Times,serif" font-size="14.00">CollaborativeStorageModule</text>
</g>
<!-- CollaborativeStorageModule&#45;&gt;ServerModule -->
<g id="edge3" class="edge">
<title>CollaborativeStorageModule&#45;&gt;ServerModule</title>
<path fill="none" stroke="black" d="M3165,-84.96C3165,-107.15 3165,-141.8 3165,-141.8 3165,-141.8 1823.19,-141.8 1823.19,-141.8"/>
<polygon fill="black" stroke="black" points="1823.19,-138.3 1813.19,-141.8 1823.19,-145.3 1823.19,-138.3"/>
</g>
<!-- CoreModule -->
<g id="node4" class="node">
<title>CoreModule</title>
<polygon fill="#8dd3c7" stroke="black" points="3057.27,-84.8 3054.27,-88.8 3033.27,-88.8 3030.27,-84.8 2970.73,-84.8 2970.73,-48.8 3057.27,-48.8 3057.27,-84.8"/>
<text text-anchor="middle" x="3014" y="-62.6" font-family="Times,serif" font-size="14.00">CoreModule</text>
</g>
<!-- CoreModule&#45;&gt;ServerModule -->
<g id="edge4" class="edge">
<title>CoreModule&#45;&gt;ServerModule</title>
<path fill="none" stroke="black" d="M3014,-84.97C3014,-106.3 3014,-138.8 3014,-138.8 3014,-138.8 1823.2,-138.8 1823.2,-138.8"/>
<polygon fill="black" stroke="black" points="1823.2,-135.3 1813.2,-138.8 1823.2,-142.3 1823.2,-135.3"/>
</g>
<!-- FilesStorageClientModule -->
<g id="node5" class="node">
<title>FilesStorageClientModule</title>
<polygon fill="#8dd3c7" stroke="black" points="2952.77,-84.8 2949.77,-88.8 2928.77,-88.8 2925.77,-84.8 2789.23,-84.8 2789.23,-48.8 2952.77,-48.8 2952.77,-84.8"/>
<text text-anchor="middle" x="2871" y="-62.6" font-family="Times,serif" font-size="14.00">FilesStorageClientModule</text>
</g>
<!-- FilesStorageClientModule&#45;&gt;ServerModule -->
<g id="edge5" class="edge">
<title>FilesStorageClientModule&#45;&gt;ServerModule</title>
<path fill="none" stroke="black" d="M2871,-84.83C2871,-105.57 2871,-136.8 2871,-136.8 2871,-136.8 1823.23,-136.8 1823.23,-136.8"/>
<polygon fill="black" stroke="black" points="1823.23,-133.3 1813.23,-136.8 1823.23,-140.3 1823.23,-133.3"/>
</g>
<!-- ImportUserModule -->
<g id="node6" class="node">
<title>ImportUserModule</title>
<polygon fill="#8dd3c7" stroke="black" points="2771.09,-84.8 2768.09,-88.8 2747.09,-88.8 2744.09,-84.8 2646.91,-84.8 2646.91,-48.8 2771.09,-48.8 2771.09,-84.8"/>
<text text-anchor="middle" x="2709" y="-62.6" font-family="Times,serif" font-size="14.00">ImportUserModule</text>
</g>
<!-- ImportUserModule&#45;&gt;ServerModule -->
<g id="edge6" class="edge">
<title>ImportUserModule&#45;&gt;ServerModule</title>
<path fill="none" stroke="black" d="M2709,-85.11C2709,-104.95 2709,-133.8 2709,-133.8 2709,-133.8 1823.11,-133.8 1823.11,-133.8"/>
<polygon fill="black" stroke="black" points="1823.11,-130.3 1813.11,-133.8 1823.11,-137.3 1823.11,-130.3"/>
</g>
<!-- LearnroomModule -->
<g id="node7" class="node">
<title>LearnroomModule</title>
<polygon fill="#8dd3c7" stroke="black" points="2628.75,-84.8 2625.75,-88.8 2604.75,-88.8 2601.75,-84.8 2507.25,-84.8 2507.25,-48.8 2628.75,-48.8 2628.75,-84.8"/>
<text text-anchor="middle" x="2568" y="-62.6" font-family="Times,serif" font-size="14.00">LearnroomModule</text>
</g>
<!-- LearnroomModule&#45;&gt;ServerModule -->
<g id="edge7" class="edge">
<title>LearnroomModule&#45;&gt;ServerModule</title>
<path fill="none" stroke="black" d="M2568,-84.97C2568,-103.89 2568,-130.8 2568,-130.8 2568,-130.8 1823.12,-130.8 1823.12,-130.8"/>
<polygon fill="black" stroke="black" points="1823.12,-127.3 1813.12,-130.8 1823.12,-134.3 1823.12,-127.3"/>
</g>
<!-- LessonApiModule -->
<g id="node8" class="node">
<title>LessonApiModule</title>
<polygon fill="#8dd3c7" stroke="black" points="2489.21,-84.8 2486.21,-88.8 2465.21,-88.8 2462.21,-84.8 2368.79,-84.8 2368.79,-48.8 2489.21,-48.8 2489.21,-84.8"/>
<text text-anchor="middle" x="2429" y="-62.6" font-family="Times,serif" font-size="14.00">LessonApiModule</text>
</g>
<!-- LessonApiModule&#45;&gt;ServerModule -->
<g id="edge8" class="edge">
<title>LessonApiModule&#45;&gt;ServerModule</title>
<path fill="none" stroke="black" d="M2429,-85.1C2429,-103.07 2429,-127.8 2429,-127.8 2429,-127.8 1823.29,-127.8 1823.29,-127.8"/>
<polygon fill="black" stroke="black" points="1823.29,-124.3 1813.29,-127.8 1823.29,-131.3 1823.29,-124.3"/>
</g>
<!-- LoggerModule -->
<g id="node9" class="node">
<title>LoggerModule</title>
<polygon fill="#8dd3c7" stroke="black" points="2350.98,-84.8 2347.98,-88.8 2326.98,-88.8 2323.98,-84.8 2251.02,-84.8 2251.02,-48.8 2350.98,-48.8 2350.98,-84.8"/>
<text text-anchor="middle" x="2301" y="-62.6" font-family="Times,serif" font-size="14.00">LoggerModule</text>
</g>
<!-- LoggerModule&#45;&gt;ServerModule -->
<g id="edge9" class="edge">
<title>LoggerModule&#45;&gt;ServerModule</title>
<path fill="none" stroke="black" d="M2301,-84.82C2301,-102.17 2301,-125.8 2301,-125.8 2301,-125.8 1823.51,-125.8 1823.51,-125.8"/>
<polygon fill="black" stroke="black" points="1823.51,-122.3 1813.51,-125.8 1823.51,-129.3 1823.51,-122.3"/>
</g>
<!-- NewsModule -->
<g id="node10" class="node">
<title>NewsModule</title>
<polygon fill="#8dd3c7" stroke="black" points="2232.94,-84.8 2229.94,-88.8 2208.94,-88.8 2205.94,-84.8 2141.06,-84.8 2141.06,-48.8 2232.94,-48.8 2232.94,-84.8"/>
<text text-anchor="middle" x="2187" y="-62.6" font-family="Times,serif" font-size="14.00">NewsModule</text>
</g>
<!-- NewsModule&#45;&gt;ServerModule -->
<g id="edge10" class="edge">
<title>NewsModule&#45;&gt;ServerModule</title>
<path fill="none" stroke="black" d="M2187,-84.83C2187,-101.2 2187,-122.8 2187,-122.8 2187,-122.8 1823.41,-122.8 1823.41,-122.8"/>
<polygon fill="black" stroke="black" points="1823.41,-119.3 1813.41,-122.8 1823.41,-126.3 1823.41,-119.3"/>
</g>
<!-- OauthApiModule -->
<g id="node11" class="node">
<title>OauthApiModule</title>
<polygon fill="#8dd3c7" stroke="black" points="2123.27,-84.8 2120.27,-88.8 2099.27,-88.8 2096.27,-84.8 2008.73,-84.8 2008.73,-48.8 2123.27,-48.8 2123.27,-84.8"/>
<text text-anchor="middle" x="2066" y="-62.6" font-family="Times,serif" font-size="14.00">OauthApiModule</text>
</g>
<!-- OauthApiModule&#45;&gt;ServerModule -->
<g id="edge11" class="edge">
<title>OauthApiModule&#45;&gt;ServerModule</title>
<path fill="none" stroke="black" d="M2066,-85.04C2066,-100.37 2066,-119.8 2066,-119.8 2066,-119.8 1823.36,-119.8 1823.36,-119.8"/>
<polygon fill="black" stroke="black" points="1823.36,-116.3 1813.36,-119.8 1823.36,-123.3 1823.36,-116.3"/>
</g>
<!-- OauthProviderModule -->
<g id="node12" class="node">
<title>OauthProviderModule</title>
<polygon fill="#8dd3c7" stroke="black" points="1990.98,-84.8 1987.98,-88.8 1966.98,-88.8 1963.98,-84.8 1849.02,-84.8 1849.02,-48.8 1990.98,-48.8 1990.98,-84.8"/>
<text text-anchor="middle" x="1920" y="-62.6" font-family="Times,serif" font-size="14.00">OauthProviderModule</text>
</g>
<!-- OauthProviderModule&#45;&gt;ServerModule -->
<g id="edge12" class="edge">
<title>OauthProviderModule&#45;&gt;ServerModule</title>
<path fill="none" stroke="black" d="M1920,-84.85C1920,-99.17 1920,-116.8 1920,-116.8 1920,-116.8 1823.19,-116.8 1823.19,-116.8"/>
<polygon fill="black" stroke="black" points="1823.19,-113.3 1813.19,-116.8 1823.19,-120.3 1823.19,-113.3"/>
</g>
<!-- ProvisioningModule -->
<g id="node13" class="node">
<title>ProvisioningModule</title>
<polygon fill="#8dd3c7" stroke="black" points="1830.62,-84.8 1827.62,-88.8 1806.62,-88.8 1803.62,-84.8 1699.38,-84.8 1699.38,-48.8 1830.62,-48.8 1830.62,-84.8"/>
<text text-anchor="middle" x="1765" y="-62.6" font-family="Times,serif" font-size="14.00">ProvisioningModule</text>
</g>
<!-- ProvisioningModule&#45;&gt;ServerModule -->
<g id="edge13" class="edge">
<title>ProvisioningModule&#45;&gt;ServerModule</title>
<path fill="none" stroke="black" d="M1765,-84.91C1765,-84.91 1765,-103.79 1765,-103.79"/>
<polygon fill="black" stroke="black" points="1761.5,-103.79 1765,-113.79 1768.5,-103.79 1761.5,-103.79"/>
</g>
<!-- RabbitMQWrapperModule -->
<g id="node14" class="node">
<title>RabbitMQWrapperModule</title>
<polygon fill="#8dd3c7" stroke="black" points="1681.41,-84.8 1678.41,-88.8 1657.41,-88.8 1654.41,-84.8 1512.59,-84.8 1512.59,-48.8 1681.41,-48.8 1681.41,-84.8"/>
<text text-anchor="middle" x="1597" y="-62.6" font-family="Times,serif" font-size="14.00">RabbitMQWrapperModule</text>
</g>
<!-- RabbitMQWrapperModule&#45;&gt;ServerModule -->
<g id="edge14" class="edge">
<title>RabbitMQWrapperModule&#45;&gt;ServerModule</title>
<path fill="none" stroke="black" d="M1597,-84.85C1597,-99.17 1597,-116.8 1597,-116.8 1597,-116.8 1706.86,-116.8 1706.86,-116.8"/>
<polygon fill="black" stroke="black" points="1706.86,-120.3 1716.86,-116.8 1706.86,-113.3 1706.86,-120.3"/>
</g>
<!-- RedisModule -->
<g id="node15" class="node">
<title>RedisModule</title>
<polygon fill="#8dd3c7" stroke="black" points="1494.94,-84.8 1491.94,-88.8 1470.94,-88.8 1467.94,-84.8 1403.06,-84.8 1403.06,-48.8 1494.94,-48.8 1494.94,-84.8"/>
<text text-anchor="middle" x="1449" y="-62.6" font-family="Times,serif" font-size="14.00">RedisModule</text>
</g>
<!-- RedisModule&#45;&gt;ServerModule -->
<g id="edge15" class="edge">
<title>RedisModule&#45;&gt;ServerModule</title>
<path fill="none" stroke="black" d="M1449,-85.04C1449,-100.37 1449,-119.8 1449,-119.8 1449,-119.8 1706.66,-119.8 1706.66,-119.8"/>
<polygon fill="black" stroke="black" points="1706.66,-123.3 1716.66,-119.8 1706.66,-116.3 1706.66,-123.3"/>
</g>
<!-- RoleModule -->
<g id="node16" class="node">
<title>RoleModule</title>
<polygon fill="#8dd3c7" stroke="black" points="1384.99,-84.8 1381.99,-88.8 1360.99,-88.8 1357.99,-84.8 1299.01,-84.8 1299.01,-48.8 1384.99,-48.8 1384.99,-84.8"/>
<text text-anchor="middle" x="1342" y="-62.6" font-family="Times,serif" font-size="14.00">RoleModule</text>
</g>
<!-- RoleModule&#45;&gt;ServerModule -->
<g id="edge16" class="edge">
<title>RoleModule&#45;&gt;ServerModule</title>
<path fill="none" stroke="black" d="M1342,-84.83C1342,-101.2 1342,-122.8 1342,-122.8 1342,-122.8 1706.89,-122.8 1706.89,-122.8"/>
<polygon fill="black" stroke="black" points="1706.89,-126.3 1716.89,-122.8 1706.89,-119.3 1706.89,-126.3"/>
</g>
<!-- SchoolApiModule -->
<g id="node17" class="node">
<title>SchoolApiModule</title>
<polygon fill="#8dd3c7" stroke="black" points="1280.94,-84.8 1277.94,-88.8 1256.94,-88.8 1253.94,-84.8 1161.06,-84.8 1161.06,-48.8 1280.94,-48.8 1280.94,-84.8"/>
<text text-anchor="middle" x="1221" y="-62.6" font-family="Times,serif" font-size="14.00">SchoolApiModule</text>
</g>
<!-- SchoolApiModule&#45;&gt;ServerModule -->
<g id="edge17" class="edge">
<title>SchoolApiModule&#45;&gt;ServerModule</title>
<path fill="none" stroke="black" d="M1221,-84.82C1221,-102.17 1221,-125.8 1221,-125.8 1221,-125.8 1706.72,-125.8 1706.72,-125.8"/>
<polygon fill="black" stroke="black" points="1706.72,-129.3 1716.72,-125.8 1706.72,-122.3 1706.72,-129.3"/>
</g>
<!-- SharingApiModule -->
<g id="node18" class="node">
<title>SharingApiModule</title>
<polygon fill="#8dd3c7" stroke="black" points="1143.1,-84.8 1140.1,-88.8 1119.1,-88.8 1116.1,-84.8 1018.9,-84.8 1018.9,-48.8 1143.1,-48.8 1143.1,-84.8"/>
<text text-anchor="middle" x="1081" y="-62.6" font-family="Times,serif" font-size="14.00">SharingApiModule</text>
</g>
<!-- SharingApiModule&#45;&gt;ServerModule -->
<g id="edge18" class="edge">
<title>SharingApiModule&#45;&gt;ServerModule</title>
<path fill="none" stroke="black" d="M1081,-85.1C1081,-103.07 1081,-127.8 1081,-127.8 1081,-127.8 1706.9,-127.8 1706.9,-127.8"/>
<polygon fill="black" stroke="black" points="1706.9,-131.3 1716.9,-127.8 1706.9,-124.3 1706.9,-131.3"/>
</g>
<!-- SystemModule -->
<g id="node19" class="node">
<title>SystemModule</title>
<polygon fill="#8dd3c7" stroke="black" points="1001.28,-84.8 998.28,-88.8 977.28,-88.8 974.28,-84.8 900.72,-84.8 900.72,-48.8 1001.28,-48.8 1001.28,-84.8"/>
<text text-anchor="middle" x="951" y="-62.6" font-family="Times,serif" font-size="14.00">SystemModule</text>
</g>
<!-- SystemModule&#45;&gt;ServerModule -->
<g id="edge19" class="edge">
<title>SystemModule&#45;&gt;ServerModule</title>
<path fill="none" stroke="black" d="M951,-84.97C951,-103.89 951,-130.8 951,-130.8 951,-130.8 1706.82,-130.8 1706.82,-130.8"/>
<polygon fill="black" stroke="black" points="1706.82,-134.3 1716.82,-130.8 1706.82,-127.3 1706.82,-134.3"/>
</g>
<!-- TaskCardModule -->
<g id="node20" class="node">
<title>TaskCardModule</title>
<polygon fill="#8dd3c7" stroke="black" points="882.98,-84.8 879.98,-88.8 858.98,-88.8 855.98,-84.8 769.02,-84.8 769.02,-48.8 882.98,-48.8 882.98,-84.8"/>
<text text-anchor="middle" x="826" y="-62.6" font-family="Times,serif" font-size="14.00">TaskCardModule</text>
</g>
<!-- TaskCardModule&#45;&gt;ServerModule -->
<g id="edge20" class="edge">
<title>TaskCardModule&#45;&gt;ServerModule</title>
<path fill="none" stroke="black" d="M826,-85.11C826,-104.95 826,-133.8 826,-133.8 826,-133.8 1706.82,-133.8 1706.82,-133.8"/>
<polygon fill="black" stroke="black" points="1706.82,-137.3 1716.82,-133.8 1706.82,-130.3 1706.82,-137.3"/>
</g>
<!-- TaskModule -->
<g id="node21" class="node">
<title>TaskModule</title>
<polygon fill="#8dd3c7" stroke="black" points="751.27,-84.8 748.27,-88.8 727.27,-88.8 724.27,-84.8 664.73,-84.8 664.73,-48.8 751.27,-48.8 751.27,-84.8"/>
<text text-anchor="middle" x="708" y="-62.6" font-family="Times,serif" font-size="14.00">TaskModule</text>
</g>
<!-- TaskModule&#45;&gt;ServerModule -->
<g id="edge21" class="edge">
<title>TaskModule&#45;&gt;ServerModule</title>
<path fill="none" stroke="black" d="M708,-84.83C708,-105.57 708,-136.8 708,-136.8 708,-136.8 1706.84,-136.8 1706.84,-136.8"/>
<polygon fill="black" stroke="black" points="1706.84,-140.3 1716.84,-136.8 1706.84,-133.3 1706.84,-140.3"/>
</g>
<!-- ToolApiModule -->
<g id="node22" class="node">
<title>ToolApiModule</title>
<polygon fill="#8dd3c7" stroke="black" points="646.49,-84.8 643.49,-88.8 622.49,-88.8 619.49,-84.8 539.51,-84.8 539.51,-48.8 646.49,-48.8 646.49,-84.8"/>
<text text-anchor="middle" x="593" y="-62.6" font-family="Times,serif" font-size="14.00">ToolApiModule</text>
</g>
<!-- ToolApiModule&#45;&gt;ServerModule -->
<g id="edge22" class="edge">
<title>ToolApiModule&#45;&gt;ServerModule</title>
<path fill="none" stroke="black" d="M593,-84.97C593,-106.3 593,-138.8 593,-138.8 593,-138.8 1706.87,-138.8 1706.87,-138.8"/>
<polygon fill="black" stroke="black" points="1706.87,-142.3 1716.87,-138.8 1706.87,-135.3 1706.87,-142.3"/>
</g>
<!-- UserApiModule -->
<g id="node23" class="node">
<title>UserApiModule</title>
<polygon fill="#8dd3c7" stroke="black" points="521.49,-84.8 518.49,-88.8 497.49,-88.8 494.49,-84.8 414.51,-84.8 414.51,-48.8 521.49,-48.8 521.49,-84.8"/>
<text text-anchor="middle" x="468" y="-62.6" font-family="Times,serif" font-size="14.00">UserApiModule</text>
</g>
<!-- UserApiModule&#45;&gt;ServerModule -->
<g id="edge23" class="edge">
<title>UserApiModule&#45;&gt;ServerModule</title>
<path fill="none" stroke="black" d="M468,-84.96C468,-107.15 468,-141.8 468,-141.8 468,-141.8 1706.91,-141.8 1706.91,-141.8"/>
<polygon fill="black" stroke="black" points="1706.91,-145.3 1716.91,-141.8 1706.91,-138.3 1706.91,-145.3"/>
</g>
<!-- UserLoginMigrationApiModule -->
<g id="node24" class="node">
<title>UserLoginMigrationApiModule</title>
<polygon fill="#8dd3c7" stroke="black" points="396.42,-84.8 393.42,-88.8 372.42,-88.8 369.42,-84.8 199.58,-84.8 199.58,-48.8 396.42,-48.8 396.42,-84.8"/>
<text text-anchor="middle" x="298" y="-62.6" font-family="Times,serif" font-size="14.00">UserLoginMigrationApiModule</text>
</g>
<!-- UserLoginMigrationApiModule&#45;&gt;ServerModule -->
<g id="edge24" class="edge">
<title>UserLoginMigrationApiModule&#45;&gt;ServerModule</title>
<path fill="none" stroke="black" d="M298,-84.89C298,-107.93 298,-144.8 298,-144.8 298,-144.8 1706.61,-144.8 1706.61,-144.8"/>
<polygon fill="black" stroke="black" points="1706.61,-148.3 1716.61,-144.8 1706.61,-141.3 1706.61,-148.3"/>
</g>
<!-- VideoConferenceModule -->
<g id="node25" class="node">
<title>VideoConferenceModule</title>
<polygon fill="#8dd3c7" stroke="black" points="182.28,-84.8 179.28,-88.8 158.28,-88.8 155.28,-84.8 23.72,-84.8 23.72,-48.8 182.28,-48.8 182.28,-84.8"/>
<text text-anchor="middle" x="103" y="-62.6" font-family="Times,serif" font-size="14.00">VideoConferenceModule</text>
</g>
<!-- VideoConferenceModule&#45;&gt;ServerModule -->
<g id="edge25" class="edge">
<title>VideoConferenceModule&#45;&gt;ServerModule</title>
<path fill="none" stroke="black" d="M103,-85.18C103,-109.08 103,-147.8 103,-147.8 103,-147.8 1706.61,-147.8 1706.61,-147.8"/>
<polygon fill="black" stroke="black" points="1706.61,-151.3 1716.61,-147.8 1706.61,-144.3 1706.61,-151.3"/>
</g>
</g>
</svg>
