<?xml version="1.0" encoding="UTF-8" standalone="no"?>
<!DOCTYPE svg PUBLIC "-//W3C//DTD SVG 1.1//EN"
 "http://www.w3.org/Graphics/SVG/1.1/DTD/svg11.dtd">
<!-- Generated by graphviz version 3.0.0 (20220226.1711)
 -->
<!-- Title: dependencies Pages: 1 -->
<svg width="1266pt" height="174pt"
 viewBox="0.00 0.00 1266.00 173.80" xmlns="http://www.w3.org/2000/svg" xmlns:xlink="http://www.w3.org/1999/xlink">
<g id="graph0" class="graph" transform="scale(1 1) rotate(0) translate(4 169.8)">
<title>dependencies</title>
<polygon fill="white" stroke="transparent" points="-4,4 -4,-169.8 1262,-169.8 1262,4 -4,4"/>
<text text-anchor="middle" x="629" y="-8.2" font-family="sans-serif" font-size="14.00">dependencies</text>
<g id="clust1" class="cluster">
<title>cluster_ServerModule</title>
<polygon fill="none" stroke="black" stroke-dasharray="1,5" points="8,-32.8 8,-157.8 1250,-157.8 1250,-32.8 8,-32.8"/>
</g>
<g id="clust3" class="cluster">
<title>cluster_ServerModule_imports</title>
<polygon fill="none" stroke="black" points="16,-40.8 16,-92.8 1242,-92.8 1242,-40.8 16,-40.8"/>
</g>
<!-- AuthModule -->
<g id="node1" class="node">
<title>AuthModule</title>
<polygon fill="#8dd3c7" stroke="black" points="1233.55,-84.8 1230.55,-88.8 1209.55,-88.8 1206.55,-84.8 1146.45,-84.8 1146.45,-48.8 1233.55,-48.8 1233.55,-84.8"/>
<text text-anchor="middle" x="1190" y="-62.6" font-family="Times,serif" font-size="14.00">AuthModule</text>
</g>
<!-- ServerModule -->
<g id="node11" class="node">
<title>ServerModule</title>
<polygon fill="#8dd3c7" stroke="black" points="688.09,-149.8 685.09,-153.8 664.09,-153.8 661.09,-149.8 591.91,-149.8 591.91,-113.8 688.09,-113.8 688.09,-149.8"/>
<text text-anchor="middle" x="640" y="-127.6" font-family="Times,serif" font-size="14.00">ServerModule</text>
</g>
<!-- AuthModule&#45;&gt;ServerModule -->
<g id="edge1" class="edge">
<title>AuthModule&#45;&gt;ServerModule</title>
<path fill="none" stroke="black" d="M1190,-84.81C1190,-107.29 1190,-142.8 1190,-142.8 1190,-142.8 698.33,-142.8 698.33,-142.8"/>
<polygon fill="black" stroke="black" points="698.33,-139.3 688.33,-142.8 698.33,-146.3 698.33,-139.3"/>
</g>
<!-- CoreModule -->
<g id="node2" class="node">
<title>CoreModule</title>
<polygon fill="#8dd3c7" stroke="black" points="1128.27,-84.8 1125.27,-88.8 1104.27,-88.8 1101.27,-84.8 1041.73,-84.8 1041.73,-48.8 1128.27,-48.8 1128.27,-84.8"/>
<text text-anchor="middle" x="1085" y="-62.6" font-family="Times,serif" font-size="14.00">CoreModule</text>
</g>
<!-- CoreModule&#45;&gt;ServerModule -->
<g id="edge2" class="edge">
<title>CoreModule&#45;&gt;ServerModule</title>
<path fill="none" stroke="black" d="M1085,-84.93C1085,-105.37 1085,-135.8 1085,-135.8 1085,-135.8 698.05,-135.8 698.05,-135.8"/>
<polygon fill="black" stroke="black" points="698.05,-132.3 688.05,-135.8 698.05,-139.3 698.05,-132.3"/>
</g>
<!-- ImportUserModule -->
<g id="node3" class="node">
<title>ImportUserModule</title>
<polygon fill="#8dd3c7" stroke="black" points="1024.09,-84.8 1021.09,-88.8 1000.09,-88.8 997.09,-84.8 899.91,-84.8 899.91,-48.8 1024.09,-48.8 1024.09,-84.8"/>
<text text-anchor="middle" x="962" y="-62.6" font-family="Times,serif" font-size="14.00">ImportUserModule</text>
</g>
<!-- ImportUserModule&#45;&gt;ServerModule -->
<g id="edge3" class="edge">
<title>ImportUserModule&#45;&gt;ServerModule</title>
<path fill="none" stroke="black" d="M962,-85.07C962,-103.36 962,-128.8 962,-128.8 962,-128.8 698.21,-128.8 698.21,-128.8"/>
<polygon fill="black" stroke="black" points="698.21,-125.3 688.21,-128.8 698.21,-132.3 698.21,-125.3"/>
</g>
<!-- LearnroomModule -->
<g id="node4" class="node">
<title>LearnroomModule</title>
<polygon fill="#8dd3c7" stroke="black" points="881.75,-84.8 878.75,-88.8 857.75,-88.8 854.75,-84.8 760.25,-84.8 760.25,-48.8 881.75,-48.8 881.75,-84.8"/>
<text text-anchor="middle" x="821" y="-62.6" font-family="Times,serif" font-size="14.00">LearnroomModule</text>
</g>
<!-- LearnroomModule&#45;&gt;ServerModule -->
<g id="edge4" class="edge">
<title>LearnroomModule&#45;&gt;ServerModule</title>
<path fill="none" stroke="black" d="M821,-84.81C821,-100.85 821,-121.8 821,-121.8 821,-121.8 698.5,-121.8 698.5,-121.8"/>
<polygon fill="black" stroke="black" points="698.5,-118.3 688.5,-121.8 698.5,-125.3 698.5,-118.3"/>
</g>
<!-- NewsModule -->
<g id="node5" class="node">
<title>NewsModule</title>
<polygon fill="#8dd3c7" stroke="black" points="741.94,-84.8 738.94,-88.8 717.94,-88.8 714.94,-84.8 650.06,-84.8 650.06,-48.8 741.94,-48.8 741.94,-84.8"/>
<text text-anchor="middle" x="696" y="-62.6" font-family="Times,serif" font-size="14.00">NewsModule</text>
</g>
<!-- NewsModule&#45;&gt;ServerModule -->
<g id="edge5" class="edge">
<title>NewsModule&#45;&gt;ServerModule</title>
<path fill="none" stroke="black" d="M669.16,-84.91C669.16,-84.91 669.16,-103.79 669.16,-103.79"/>
<polygon fill="black" stroke="black" points="665.66,-103.79 669.16,-113.79 672.66,-103.79 665.66,-103.79"/>
</g>
<!-- OauthModule -->
<g id="node6" class="node">
<title>OauthModule</title>
<polygon fill="#8dd3c7" stroke="black" points="631.77,-84.8 628.77,-88.8 607.77,-88.8 604.77,-84.8 538.23,-84.8 538.23,-48.8 631.77,-48.8 631.77,-84.8"/>
<text text-anchor="middle" x="585" y="-62.6" font-family="Times,serif" font-size="14.00">OauthModule</text>
</g>
<!-- OauthModule&#45;&gt;ServerModule -->
<g id="edge6" class="edge">
<title>OauthModule&#45;&gt;ServerModule</title>
<path fill="none" stroke="black" d="M611.92,-84.91C611.92,-84.91 611.92,-103.79 611.92,-103.79"/>
<polygon fill="black" stroke="black" points="608.42,-103.79 611.92,-113.79 615.42,-103.79 608.42,-103.79"/>
</g>
<!-- RabbitMQWrapperModule -->
<g id="node7" class="node">
<title>RabbitMQWrapperModule</title>
<polygon fill="#8dd3c7" stroke="black" points="520.41,-84.8 517.41,-88.8 496.41,-88.8 493.41,-84.8 351.59,-84.8 351.59,-48.8 520.41,-48.8 520.41,-84.8"/>
<text text-anchor="middle" x="436" y="-62.6" font-family="Times,serif" font-size="14.00">RabbitMQWrapperModule</text>
</g>
<!-- RabbitMQWrapperModule&#45;&gt;ServerModule -->
<g id="edge7" class="edge">
<title>RabbitMQWrapperModule&#45;&gt;ServerModule</title>
<path fill="none" stroke="black" d="M436,-84.81C436,-100.85 436,-121.8 436,-121.8 436,-121.8 581.91,-121.8 581.91,-121.8"/>
<polygon fill="black" stroke="black" points="581.91,-125.3 591.91,-121.8 581.91,-118.3 581.91,-125.3"/>
</g>
<!-- SystemModule -->
<g id="node8" class="node">
<title>SystemModule</title>
<polygon fill="#8dd3c7" stroke="black" points="333.28,-84.8 330.28,-88.8 309.28,-88.8 306.28,-84.8 232.72,-84.8 232.72,-48.8 333.28,-48.8 333.28,-84.8"/>
<text text-anchor="middle" x="283" y="-62.6" font-family="Times,serif" font-size="14.00">SystemModule</text>
</g>
<!-- SystemModule&#45;&gt;ServerModule -->
<g id="edge8" class="edge">
<title>SystemModule&#45;&gt;ServerModule</title>
<path fill="none" stroke="black" d="M283,-85.07C283,-103.36 283,-128.8 283,-128.8 283,-128.8 581.85,-128.8 581.85,-128.8"/>
<polygon fill="black" stroke="black" points="581.85,-132.3 591.85,-128.8 581.85,-125.3 581.85,-132.3"/>
</g>
<!-- TaskModule -->
<g id="node9" class="node">
<title>TaskModule</title>
<polygon fill="#8dd3c7" stroke="black" points="214.27,-84.8 211.27,-88.8 190.27,-88.8 187.27,-84.8 127.73,-84.8 127.73,-48.8 214.27,-48.8 214.27,-84.8"/>
<text text-anchor="middle" x="171" y="-62.6" font-family="Times,serif" font-size="14.00">TaskModule</text>
</g>
<!-- TaskModule&#45;&gt;ServerModule -->
<g id="edge9" class="edge">
<title>TaskModule&#45;&gt;ServerModule</title>
<path fill="none" stroke="black" d="M171,-84.93C171,-105.37 171,-135.8 171,-135.8 171,-135.8 581.58,-135.8 581.58,-135.8"/>
<polygon fill="black" stroke="black" points="581.58,-139.3 591.58,-135.8 581.58,-132.3 581.58,-139.3"/>
</g>
<!-- UserModule -->
<g id="node10" class="node">
<title>UserModule</title>
<polygon fill="#8dd3c7" stroke="black" points="109.99,-84.8 106.99,-88.8 85.99,-88.8 82.99,-84.8 24.01,-84.8 24.01,-48.8 109.99,-48.8 109.99,-84.8"/>
<text text-anchor="middle" x="67" y="-62.6" font-family="Times,serif" font-size="14.00">UserModule</text>
</g>
<!-- UserModule&#45;&gt;ServerModule -->
<g id="edge10" class="edge">
<title>UserModule&#45;&gt;ServerModule</title>
<path fill="none" stroke="black" d="M67,-84.81C67,-107.29 67,-142.8 67,-142.8 67,-142.8 581.64,-142.8 581.64,-142.8"/>
<polygon fill="black" stroke="black" points="581.64,-146.3 591.64,-142.8 581.64,-139.3 581.64,-146.3"/>
</g>
</g>
</svg>
