<?xml version="1.0" encoding="UTF-8" standalone="no"?>
<!DOCTYPE svg PUBLIC "-//W3C//DTD SVG 1.1//EN"
 "http://www.w3.org/Graphics/SVG/1.1/DTD/svg11.dtd">
<!-- Generated by graphviz version 3.0.0 (20220226.1711)
 -->
<!-- Title: dependencies Pages: 1 -->
<svg width="1147pt" height="174pt"
 viewBox="0.00 0.00 1147.00 173.80" xmlns="http://www.w3.org/2000/svg" xmlns:xlink="http://www.w3.org/1999/xlink">
<g id="graph0" class="graph" transform="scale(1 1) rotate(0) translate(4 169.8)">
<title>dependencies</title>
<polygon fill="white" stroke="transparent" points="-4,4 -4,-169.8 1143,-169.8 1143,4 -4,4"/>
<text text-anchor="middle" x="569.5" y="-8.2" font-family="sans-serif" font-size="14.00">dependencies</text>
<g id="clust1" class="cluster">
<title>cluster_ServerModule</title>
<polygon fill="none" stroke="black" stroke-dasharray="1,5" points="8,-32.8 8,-157.8 1131,-157.8 1131,-32.8 8,-32.8"/>
</g>
<g id="clust3" class="cluster">
<title>cluster_ServerModule_imports</title>
<polygon fill="none" stroke="black" points="16,-40.8 16,-92.8 1123,-92.8 1123,-40.8 16,-40.8"/>
</g>
<!-- AuthModule -->
<g id="node1" class="node">
<title>AuthModule</title>
<polygon fill="#8dd3c7" stroke="black" points="1114.55,-84.8 1111.55,-88.8 1090.55,-88.8 1087.55,-84.8 1027.45,-84.8 1027.45,-48.8 1114.55,-48.8 1114.55,-84.8"/>
<text text-anchor="middle" x="1071" y="-62.6" font-family="Times,serif" font-size="14.00">AuthModule</text>
</g>
<!-- ServerModule -->
<g id="node10" class="node">
<title>ServerModule</title>
<polygon fill="#8dd3c7" stroke="black" points="625.09,-149.8 622.09,-153.8 601.09,-153.8 598.09,-149.8 528.91,-149.8 528.91,-113.8 625.09,-113.8 625.09,-149.8"/>
<text text-anchor="middle" x="577" y="-127.6" font-family="Times,serif" font-size="14.00">ServerModule</text>
</g>
<!-- AuthModule&#45;&gt;ServerModule -->
<g id="edge1" class="edge">
<title>AuthModule&#45;&gt;ServerModule</title>
<path fill="none" stroke="black" d="M1071,-84.81C1071,-107.29 1071,-142.8 1071,-142.8 1071,-142.8 635.27,-142.8 635.27,-142.8"/>
<polygon fill="black" stroke="black" points="635.27,-139.3 625.27,-142.8 635.27,-146.3 635.27,-139.3"/>
</g>
<!-- CoreModule -->
<g id="node2" class="node">
<title>CoreModule</title>
<polygon fill="#8dd3c7" stroke="black" points="1009.27,-84.8 1006.27,-88.8 985.27,-88.8 982.27,-84.8 922.73,-84.8 922.73,-48.8 1009.27,-48.8 1009.27,-84.8"/>
<text text-anchor="middle" x="966" y="-62.6" font-family="Times,serif" font-size="14.00">CoreModule</text>
</g>
<!-- CoreModule&#45;&gt;ServerModule -->
<g id="edge2" class="edge">
<title>CoreModule&#45;&gt;ServerModule</title>
<path fill="none" stroke="black" d="M966,-84.93C966,-105.37 966,-135.8 966,-135.8 966,-135.8 635.09,-135.8 635.09,-135.8"/>
<polygon fill="black" stroke="black" points="635.09,-132.3 625.09,-135.8 635.09,-139.3 635.09,-132.3"/>
</g>
<!-- ImportUserModule -->
<g id="node3" class="node">
<title>ImportUserModule</title>
<polygon fill="#8dd3c7" stroke="black" points="905.09,-84.8 902.09,-88.8 881.09,-88.8 878.09,-84.8 780.91,-84.8 780.91,-48.8 905.09,-48.8 905.09,-84.8"/>
<text text-anchor="middle" x="843" y="-62.6" font-family="Times,serif" font-size="14.00">ImportUserModule</text>
</g>
<!-- ImportUserModule&#45;&gt;ServerModule -->
<g id="edge3" class="edge">
<title>ImportUserModule&#45;&gt;ServerModule</title>
<path fill="none" stroke="black" d="M843,-85.07C843,-103.36 843,-128.8 843,-128.8 843,-128.8 635.17,-128.8 635.17,-128.8"/>
<polygon fill="black" stroke="black" points="635.17,-125.3 625.17,-128.8 635.17,-132.3 635.17,-125.3"/>
</g>
<!-- LearnroomModule -->
<g id="node4" class="node">
<title>LearnroomModule</title>
<polygon fill="#8dd3c7" stroke="black" points="762.75,-84.8 759.75,-88.8 738.75,-88.8 735.75,-84.8 641.25,-84.8 641.25,-48.8 762.75,-48.8 762.75,-84.8"/>
<text text-anchor="middle" x="702" y="-62.6" font-family="Times,serif" font-size="14.00">LearnroomModule</text>
</g>
<!-- LearnroomModule&#45;&gt;ServerModule -->
<g id="edge4" class="edge">
<title>LearnroomModule&#45;&gt;ServerModule</title>
<path fill="none" stroke="black" d="M702,-84.81C702,-100.85 702,-121.8 702,-121.8 702,-121.8 635.33,-121.8 635.33,-121.8"/>
<polygon fill="black" stroke="black" points="635.33,-118.3 625.33,-121.8 635.33,-125.3 635.33,-118.3"/>
</g>
<!-- NewsModule -->
<g id="node5" class="node">
<title>NewsModule</title>
<polygon fill="#8dd3c7" stroke="black" points="622.94,-84.8 619.94,-88.8 598.94,-88.8 595.94,-84.8 531.06,-84.8 531.06,-48.8 622.94,-48.8 622.94,-84.8"/>
<text text-anchor="middle" x="577" y="-62.6" font-family="Times,serif" font-size="14.00">NewsModule</text>
</g>
<!-- NewsModule&#45;&gt;ServerModule -->
<g id="edge5" class="edge">
<title>NewsModule&#45;&gt;ServerModule</title>
<path fill="none" stroke="black" d="M577,-84.91C577,-84.91 577,-103.79 577,-103.79"/>
<polygon fill="black" stroke="black" points="573.5,-103.79 577,-113.79 580.5,-103.79 573.5,-103.79"/>
</g>
<!-- OauthModule -->
<g id="node6" class="node">
<title>OauthModule</title>
<polygon fill="#8dd3c7" stroke="black" points="512.77,-84.8 509.77,-88.8 488.77,-88.8 485.77,-84.8 419.23,-84.8 419.23,-48.8 512.77,-48.8 512.77,-84.8"/>
<text text-anchor="middle" x="466" y="-62.6" font-family="Times,serif" font-size="14.00">OauthModule</text>
</g>
<!-- OauthModule&#45;&gt;ServerModule -->
<g id="edge6" class="edge">
<title>OauthModule&#45;&gt;ServerModule</title>
<path fill="none" stroke="black" d="M466,-84.81C466,-100.85 466,-121.8 466,-121.8 466,-121.8 518.64,-121.8 518.64,-121.8"/>
<polygon fill="black" stroke="black" points="518.64,-125.3 528.64,-121.8 518.64,-118.3 518.64,-125.3"/>
</g>
<!-- RabbitMQWrapperModule -->
<g id="node7" class="node">
<title>RabbitMQWrapperModule</title>
<polygon fill="#8dd3c7" stroke="black" points="401.41,-84.8 398.41,-88.8 377.41,-88.8 374.41,-84.8 232.59,-84.8 232.59,-48.8 401.41,-48.8 401.41,-84.8"/>
<text text-anchor="middle" x="317" y="-62.6" font-family="Times,serif" font-size="14.00">RabbitMQWrapperModule</text>
</g>
<!-- RabbitMQWrapperModule&#45;&gt;ServerModule -->
<g id="edge7" class="edge">
<title>RabbitMQWrapperModule&#45;&gt;ServerModule</title>
<path fill="none" stroke="black" d="M317,-85.07C317,-103.36 317,-128.8 317,-128.8 317,-128.8 518.71,-128.8 518.71,-128.8"/>
<polygon fill="black" stroke="black" points="518.71,-132.3 528.71,-128.8 518.71,-125.3 518.71,-132.3"/>
</g>
<!-- TaskModule -->
<g id="node8" class="node">
<title>TaskModule</title>
<polygon fill="#8dd3c7" stroke="black" points="214.27,-84.8 211.27,-88.8 190.27,-88.8 187.27,-84.8 127.73,-84.8 127.73,-48.8 214.27,-48.8 214.27,-84.8"/>
<text text-anchor="middle" x="171" y="-62.6" font-family="Times,serif" font-size="14.00">TaskModule</text>
</g>
<!-- TaskModule&#45;&gt;ServerModule -->
<g id="edge8" class="edge">
<title>TaskModule&#45;&gt;ServerModule</title>
<path fill="none" stroke="black" d="M171,-84.93C171,-105.37 171,-135.8 171,-135.8 171,-135.8 518.83,-135.8 518.83,-135.8"/>
<polygon fill="black" stroke="black" points="518.83,-139.3 528.83,-135.8 518.83,-132.3 518.83,-139.3"/>
</g>
<!-- UserModule -->
<g id="node9" class="node">
<title>UserModule</title>
<polygon fill="#8dd3c7" stroke="black" points="109.99,-84.8 106.99,-88.8 85.99,-88.8 82.99,-84.8 24.01,-84.8 24.01,-48.8 109.99,-48.8 109.99,-84.8"/>
<text text-anchor="middle" x="67" y="-62.6" font-family="Times,serif" font-size="14.00">UserModule</text>
</g>
<!-- UserModule&#45;&gt;ServerModule -->
<g id="edge9" class="edge">
<title>UserModule&#45;&gt;ServerModule</title>
<path fill="none" stroke="black" d="M67,-84.81C67,-107.29 67,-142.8 67,-142.8 67,-142.8 518.56,-142.8 518.56,-142.8"/>
<polygon fill="black" stroke="black" points="518.56,-146.3 528.56,-142.8 518.56,-139.3 518.56,-146.3"/>
</g>
</g>
</svg>
