<?xml version="1.0" encoding="UTF-8" standalone="no"?>
<!DOCTYPE svg PUBLIC "-//W3C//DTD SVG 1.1//EN"
 "http://www.w3.org/Graphics/SVG/1.1/DTD/svg11.dtd">
<!-- Generated by graphviz version 2.47.3 (20210619.1520)
 -->
<!-- Title: dependencies Pages: 1 -->
<svg width="1059pt" height="174pt"
 viewBox="0.00 0.00 1059.00 173.80" xmlns="http://www.w3.org/2000/svg" xmlns:xlink="http://www.w3.org/1999/xlink">
<g id="graph0" class="graph" transform="scale(1 1) rotate(0) translate(4 169.8)">
<title>dependencies</title>
<polygon fill="white" stroke="transparent" points="-4,4 -4,-169.8 1055,-169.8 1055,4 -4,4"/>
<text text-anchor="middle" x="525.5" y="-8.2" font-family="sans-serif" font-size="14.00">dependencies</text>
<g id="clust1" class="cluster">
<title>cluster_ServerModule</title>
<polygon fill="none" stroke="black" stroke-dasharray="1,5" points="8,-32.8 8,-157.8 1043,-157.8 1043,-32.8 8,-32.8"/>
</g>
<g id="clust3" class="cluster">
<title>cluster_ServerModule_imports</title>
<polygon fill="none" stroke="black" points="16,-40.8 16,-92.8 1035,-92.8 1035,-40.8 16,-40.8"/>
</g>
<!-- AuthModule -->
<g id="node1" class="node">
<title>AuthModule</title>
<polygon fill="#8dd3c7" stroke="black" points="1026.55,-84.8 1023.55,-88.8 1002.55,-88.8 999.55,-84.8 939.45,-84.8 939.45,-48.8 1026.55,-48.8 1026.55,-84.8"/>
<text text-anchor="middle" x="983" y="-62.6" font-family="Times,serif" font-size="14.00">AuthModule</text>
</g>
<!-- ServerModule -->
<g id="node10" class="node">
<title>ServerModule</title>
<polygon fill="#8dd3c7" stroke="black" points="577.08,-149.8 574.08,-153.8 553.08,-153.8 550.08,-149.8 480.92,-149.8 480.92,-113.8 577.08,-113.8 577.08,-149.8"/>
<text text-anchor="middle" x="529" y="-127.6" font-family="Times,serif" font-size="14.00">ServerModule</text>
</g>
<!-- AuthModule&#45;&gt;ServerModule -->
<g id="edge1" class="edge">
<title>AuthModule&#45;&gt;ServerModule</title>
<path fill="none" stroke="black" d="M983,-84.81C983,-107.29 983,-142.8 983,-142.8 983,-142.8 587.16,-142.8 587.16,-142.8"/>
<polygon fill="black" stroke="black" points="587.16,-139.3 577.16,-142.8 587.16,-146.3 587.16,-139.3"/>
</g>
<!-- CoreModule -->
<g id="node2" class="node">
<title>CoreModule</title>
<polygon fill="#8dd3c7" stroke="black" points="921.26,-84.8 918.26,-88.8 897.26,-88.8 894.26,-84.8 834.74,-84.8 834.74,-48.8 921.26,-48.8 921.26,-84.8"/>
<text text-anchor="middle" x="878" y="-62.6" font-family="Times,serif" font-size="14.00">CoreModule</text>
</g>
<!-- CoreModule&#45;&gt;ServerModule -->
<g id="edge2" class="edge">
<title>CoreModule&#45;&gt;ServerModule</title>
<path fill="none" stroke="black" d="M878,-84.93C878,-105.37 878,-135.8 878,-135.8 878,-135.8 587.16,-135.8 587.16,-135.8"/>
<polygon fill="black" stroke="black" points="587.16,-132.3 577.16,-135.8 587.16,-139.3 587.16,-132.3"/>
</g>
<!-- FilesModule -->
<g id="node3" class="node">
<title>FilesModule</title>
<polygon fill="#8dd3c7" stroke="black" points="816.27,-84.8 813.27,-88.8 792.27,-88.8 789.27,-84.8 729.73,-84.8 729.73,-48.8 816.27,-48.8 816.27,-84.8"/>
<text text-anchor="middle" x="773" y="-62.6" font-family="Times,serif" font-size="14.00">FilesModule</text>
</g>
<!-- FilesModule&#45;&gt;ServerModule -->
<g id="edge3" class="edge">
<title>FilesModule&#45;&gt;ServerModule</title>
<path fill="none" stroke="black" d="M773,-85.07C773,-103.36 773,-128.8 773,-128.8 773,-128.8 587.21,-128.8 587.21,-128.8"/>
<polygon fill="black" stroke="black" points="587.21,-125.3 577.21,-128.8 587.21,-132.3 587.21,-125.3"/>
</g>
<!-- LearnroomModule -->
<g id="node4" class="node">
<title>LearnroomModule</title>
<polygon fill="#8dd3c7" stroke="black" points="711.74,-84.8 708.74,-88.8 687.74,-88.8 684.74,-84.8 590.26,-84.8 590.26,-48.8 711.74,-48.8 711.74,-84.8"/>
<text text-anchor="middle" x="651" y="-62.6" font-family="Times,serif" font-size="14.00">LearnroomModule</text>
</g>
<!-- LearnroomModule&#45;&gt;ServerModule -->
<g id="edge4" class="edge">
<title>LearnroomModule&#45;&gt;ServerModule</title>
<path fill="none" stroke="black" d="M651,-84.81C651,-100.85 651,-121.8 651,-121.8 651,-121.8 587.22,-121.8 587.22,-121.8"/>
<polygon fill="black" stroke="black" points="587.22,-118.3 577.22,-121.8 587.22,-125.3 587.22,-118.3"/>
</g>
<!-- MailModule -->
<g id="node5" class="node">
<title>MailModule</title>
<polygon fill="#8dd3c7" stroke="black" points="571.99,-84.8 568.99,-88.8 547.99,-88.8 544.99,-84.8 486.01,-84.8 486.01,-48.8 571.99,-48.8 571.99,-84.8"/>
<text text-anchor="middle" x="529" y="-62.6" font-family="Times,serif" font-size="14.00">MailModule</text>
</g>
<!-- MailModule&#45;&gt;ServerModule -->
<g id="edge5" class="edge">
<title>MailModule&#45;&gt;ServerModule</title>
<path fill="none" stroke="black" d="M529,-84.91C529,-84.91 529,-103.79 529,-103.79"/>
<polygon fill="black" stroke="black" points="525.5,-103.79 529,-113.79 532.5,-103.79 525.5,-103.79"/>
</g>
<!-- NewsModule -->
<g id="node6" class="node">
<title>NewsModule</title>
<polygon fill="#8dd3c7" stroke="black" points="467.92,-84.8 464.92,-88.8 443.92,-88.8 440.92,-84.8 376.08,-84.8 376.08,-48.8 467.92,-48.8 467.92,-84.8"/>
<text text-anchor="middle" x="422" y="-62.6" font-family="Times,serif" font-size="14.00">NewsModule</text>
</g>
<!-- NewsModule&#45;&gt;ServerModule -->
<g id="edge6" class="edge">
<title>NewsModule&#45;&gt;ServerModule</title>
<path fill="none" stroke="black" d="M422,-84.81C422,-100.85 422,-121.8 422,-121.8 422,-121.8 470.82,-121.8 470.82,-121.8"/>
<polygon fill="black" stroke="black" points="470.82,-125.3 480.82,-121.8 470.82,-118.3 470.82,-125.3"/>
</g>
<!-- RocketChatModule -->
<g id="node7" class="node">
<title>RocketChatModule</title>
<polygon fill="#8dd3c7" stroke="black" points="357.65,-84.8 354.65,-88.8 333.65,-88.8 330.65,-84.8 232.35,-84.8 232.35,-48.8 357.65,-48.8 357.65,-84.8"/>
<text text-anchor="middle" x="295" y="-62.6" font-family="Times,serif" font-size="14.00">RocketChatModule</text>
</g>
<!-- RocketChatModule&#45;&gt;ServerModule -->
<g id="edge7" class="edge">
<title>RocketChatModule&#45;&gt;ServerModule</title>
<path fill="none" stroke="black" d="M295,-85.07C295,-103.36 295,-128.8 295,-128.8 295,-128.8 470.8,-128.8 470.8,-128.8"/>
<polygon fill="black" stroke="black" points="470.8,-132.3 480.8,-128.8 470.8,-125.3 470.8,-132.3"/>
</g>
<!-- TaskModule -->
<g id="node8" class="node">
<title>TaskModule</title>
<polygon fill="#8dd3c7" stroke="black" points="214.26,-84.8 211.26,-88.8 190.26,-88.8 187.26,-84.8 127.74,-84.8 127.74,-48.8 214.26,-48.8 214.26,-84.8"/>
<text text-anchor="middle" x="171" y="-62.6" font-family="Times,serif" font-size="14.00">TaskModule</text>
</g>
<!-- TaskModule&#45;&gt;ServerModule -->
<g id="edge8" class="edge">
<title>TaskModule&#45;&gt;ServerModule</title>
<path fill="none" stroke="black" d="M171,-84.93C171,-105.37 171,-135.8 171,-135.8 171,-135.8 470.72,-135.8 470.72,-135.8"/>
<polygon fill="black" stroke="black" points="470.72,-139.3 480.72,-135.8 470.72,-132.3 470.72,-139.3"/>
</g>
<!-- UserModule -->
<g id="node9" class="node">
<title>UserModule</title>
<polygon fill="#8dd3c7" stroke="black" points="109.98,-84.8 106.98,-88.8 85.98,-88.8 82.98,-84.8 24.02,-84.8 24.02,-48.8 109.98,-48.8 109.98,-84.8"/>
<text text-anchor="middle" x="67" y="-62.6" font-family="Times,serif" font-size="14.00">UserModule</text>
</g>
<!-- UserModule&#45;&gt;ServerModule -->
<g id="edge9" class="edge">
<title>UserModule&#45;&gt;ServerModule</title>
<path fill="none" stroke="black" d="M67,-84.81C67,-107.29 67,-142.8 67,-142.8 67,-142.8 470.87,-142.8 470.87,-142.8"/>
<polygon fill="black" stroke="black" points="470.87,-146.3 480.87,-142.8 470.87,-139.3 470.87,-146.3"/>
</g>
</g>
</svg>
