<?xml version="1.0" encoding="UTF-8" standalone="no"?>
<!DOCTYPE svg PUBLIC "-//W3C//DTD SVG 1.1//EN"
 "http://www.w3.org/Graphics/SVG/1.1/DTD/svg11.dtd">
<!-- Generated by graphviz version 2.47.3 (20210619.1520)
 -->
<!-- Title: dependencies Pages: 1 -->
<svg width="915pt" height="174pt"
 viewBox="0.00 0.00 915.00 173.80" xmlns="http://www.w3.org/2000/svg" xmlns:xlink="http://www.w3.org/1999/xlink">
<g id="graph0" class="graph" transform="scale(1 1) rotate(0) translate(4 169.8)">
<title>dependencies</title>
<polygon fill="white" stroke="transparent" points="-4,4 -4,-169.8 911,-169.8 911,4 -4,4"/>
<text text-anchor="middle" x="453.5" y="-8.2" font-family="sans-serif" font-size="14.00">dependencies</text>
<g id="clust1" class="cluster">
<title>cluster_ServerModule</title>
<polygon fill="none" stroke="black" stroke-dasharray="1,5" points="8,-32.8 8,-157.8 899,-157.8 899,-32.8 8,-32.8"/>
</g>
<g id="clust3" class="cluster">
<title>cluster_ServerModule_imports</title>
<polygon fill="none" stroke="black" points="16,-40.8 16,-92.8 891,-92.8 891,-40.8 16,-40.8"/>
</g>
<!-- AuthModule -->
<g id="node1" class="node">
<title>AuthModule</title>
<polygon fill="#8dd3c7" stroke="black" points="882.55,-84.8 879.55,-88.8 858.55,-88.8 855.55,-84.8 795.45,-84.8 795.45,-48.8 882.55,-48.8 882.55,-84.8"/>
<text text-anchor="middle" x="839" y="-62.6" font-family="Times,serif" font-size="14.00">AuthModule</text>
</g>
<!-- ServerModule -->
<g id="node9" class="node">
<title>ServerModule</title>
<polygon fill="#8dd3c7" stroke="black" points="494.08,-149.8 491.08,-153.8 470.08,-153.8 467.08,-149.8 397.92,-149.8 397.92,-113.8 494.08,-113.8 494.08,-149.8"/>
<text text-anchor="middle" x="446" y="-127.6" font-family="Times,serif" font-size="14.00">ServerModule</text>
</g>
<!-- AuthModule&#45;&gt;ServerModule -->
<g id="edge1" class="edge">
<title>AuthModule&#45;&gt;ServerModule</title>
<path fill="none" stroke="black" d="M839,-85.09C839,-107.01 839,-140.8 839,-140.8 839,-140.8 504.19,-140.8 504.19,-140.8"/>
<polygon fill="black" stroke="black" points="504.19,-137.3 494.19,-140.8 504.19,-144.3 504.19,-137.3"/>
</g>
<!-- CoreModule -->
<g id="node2" class="node">
<title>CoreModule</title>
<polygon fill="#8dd3c7" stroke="black" points="777.26,-84.8 774.26,-88.8 753.26,-88.8 750.26,-84.8 690.74,-84.8 690.74,-48.8 777.26,-48.8 777.26,-84.8"/>
<text text-anchor="middle" x="734" y="-62.6" font-family="Times,serif" font-size="14.00">CoreModule</text>
</g>
<!-- CoreModule&#45;&gt;ServerModule -->
<g id="edge2" class="edge">
<title>CoreModule&#45;&gt;ServerModule</title>
<path fill="none" stroke="black" d="M734,-84.91C734,-104.14 734,-131.8 734,-131.8 734,-131.8 504.2,-131.8 504.2,-131.8"/>
<polygon fill="black" stroke="black" points="504.2,-128.3 494.2,-131.8 504.2,-135.3 504.2,-128.3"/>
</g>
<!-- FilesModule -->
<g id="node3" class="node">
<title>FilesModule</title>
<polygon fill="#8dd3c7" stroke="black" points="672.27,-84.8 669.27,-88.8 648.27,-88.8 645.27,-84.8 585.73,-84.8 585.73,-48.8 672.27,-48.8 672.27,-84.8"/>
<text text-anchor="middle" x="629" y="-62.6" font-family="Times,serif" font-size="14.00">FilesModule</text>
</g>
<!-- FilesModule&#45;&gt;ServerModule -->
<g id="edge3" class="edge">
<title>FilesModule&#45;&gt;ServerModule</title>
<path fill="none" stroke="black" d="M629,-84.83C629,-101.2 629,-122.8 629,-122.8 629,-122.8 504.08,-122.8 504.08,-122.8"/>
<polygon fill="black" stroke="black" points="504.08,-119.3 494.08,-122.8 504.08,-126.3 504.08,-119.3"/>
</g>
<!-- LearnroomModule -->
<g id="node4" class="node">
<title>LearnroomModule</title>
<polygon fill="#8dd3c7" stroke="black" points="567.74,-84.8 564.74,-88.8 543.74,-88.8 540.74,-84.8 446.26,-84.8 446.26,-48.8 567.74,-48.8 567.74,-84.8"/>
<text text-anchor="middle" x="507" y="-62.6" font-family="Times,serif" font-size="14.00">LearnroomModule</text>
</g>
<!-- LearnroomModule&#45;&gt;ServerModule -->
<g id="edge4" class="edge">
<title>LearnroomModule&#45;&gt;ServerModule</title>
<path fill="none" stroke="black" d="M470.08,-84.91C470.08,-84.91 470.08,-103.79 470.08,-103.79"/>
<polygon fill="black" stroke="black" points="466.58,-103.79 470.08,-113.79 473.58,-103.79 466.58,-103.79"/>
</g>
<!-- MailModule -->
<g id="node5" class="node">
<title>MailModule</title>
<polygon fill="#8dd3c7" stroke="black" points="427.99,-84.8 424.99,-88.8 403.99,-88.8 400.99,-84.8 342.01,-84.8 342.01,-48.8 427.99,-48.8 427.99,-84.8"/>
<text text-anchor="middle" x="385" y="-62.6" font-family="Times,serif" font-size="14.00">MailModule</text>
</g>
<!-- MailModule&#45;&gt;ServerModule -->
<g id="edge5" class="edge">
<title>MailModule&#45;&gt;ServerModule</title>
<path fill="none" stroke="black" d="M412.98,-84.91C412.98,-84.91 412.98,-103.79 412.98,-103.79"/>
<polygon fill="black" stroke="black" points="409.48,-103.79 412.98,-113.79 416.48,-103.79 409.48,-103.79"/>
</g>
<!-- NewsModule -->
<g id="node6" class="node">
<title>NewsModule</title>
<polygon fill="#8dd3c7" stroke="black" points="323.92,-84.8 320.92,-88.8 299.92,-88.8 296.92,-84.8 232.08,-84.8 232.08,-48.8 323.92,-48.8 323.92,-84.8"/>
<text text-anchor="middle" x="278" y="-62.6" font-family="Times,serif" font-size="14.00">NewsModule</text>
</g>
<!-- NewsModule&#45;&gt;ServerModule -->
<g id="edge6" class="edge">
<title>NewsModule&#45;&gt;ServerModule</title>
<path fill="none" stroke="black" d="M278,-84.83C278,-101.2 278,-122.8 278,-122.8 278,-122.8 387.86,-122.8 387.86,-122.8"/>
<polygon fill="black" stroke="black" points="387.86,-126.3 397.86,-122.8 387.86,-119.3 387.86,-126.3"/>
</g>
<!-- TaskModule -->
<g id="node7" class="node">
<title>TaskModule</title>
<polygon fill="#8dd3c7" stroke="black" points="214.26,-84.8 211.26,-88.8 190.26,-88.8 187.26,-84.8 127.74,-84.8 127.74,-48.8 214.26,-48.8 214.26,-84.8"/>
<text text-anchor="middle" x="171" y="-62.6" font-family="Times,serif" font-size="14.00">TaskModule</text>
</g>
<!-- TaskModule&#45;&gt;ServerModule -->
<g id="edge7" class="edge">
<title>TaskModule&#45;&gt;ServerModule</title>
<path fill="none" stroke="black" d="M171,-84.91C171,-104.14 171,-131.8 171,-131.8 171,-131.8 387.78,-131.8 387.78,-131.8"/>
<polygon fill="black" stroke="black" points="387.78,-135.3 397.78,-131.8 387.78,-128.3 387.78,-135.3"/>
</g>
<!-- UserModule -->
<g id="node8" class="node">
<title>UserModule</title>
<polygon fill="#8dd3c7" stroke="black" points="109.98,-84.8 106.98,-88.8 85.98,-88.8 82.98,-84.8 24.02,-84.8 24.02,-48.8 109.98,-48.8 109.98,-84.8"/>
<text text-anchor="middle" x="67" y="-62.6" font-family="Times,serif" font-size="14.00">UserModule</text>
</g>
<!-- UserModule&#45;&gt;ServerModule -->
<g id="edge8" class="edge">
<title>UserModule&#45;&gt;ServerModule</title>
<path fill="none" stroke="black" d="M67,-85.09C67,-107.01 67,-140.8 67,-140.8 67,-140.8 387.61,-140.8 387.61,-140.8"/>
<polygon fill="black" stroke="black" points="387.61,-144.3 397.61,-140.8 387.61,-137.3 387.61,-144.3"/>
</g>
</g>
</svg>
