<?xml version="1.0" encoding="UTF-8" standalone="no"?>
<!DOCTYPE svg PUBLIC "-//W3C//DTD SVG 1.1//EN"
 "http://www.w3.org/Graphics/SVG/1.1/DTD/svg11.dtd">
<!-- Generated by graphviz version 5.0.0 (20220707.1540)
 -->
<!-- Title: dependencies Pages: 1 -->
<svg width="3858pt" height="174pt"
 viewBox="0.00 0.00 3858.00 173.80" xmlns="http://www.w3.org/2000/svg" xmlns:xlink="http://www.w3.org/1999/xlink">
<g id="graph0" class="graph" transform="scale(1 1) rotate(0) translate(4 169.8)">
<title>dependencies</title>
<polygon fill="white" stroke="transparent" points="-4,4 -4,-169.8 3854,-169.8 3854,4 -4,4"/>
<text text-anchor="middle" x="1925" y="-8.2" font-family="sans-serif" font-size="14.00">dependencies</text>
<g id="clust1" class="cluster">
<title>cluster_ServerModule</title>
<polygon fill="none" stroke="black" stroke-dasharray="1,5" points="8,-32.8 8,-157.8 3842,-157.8 3842,-32.8 8,-32.8"/>
</g>
<g id="clust3" class="cluster">
<title>cluster_ServerModule_imports</title>
<polygon fill="none" stroke="black" points="16,-40.8 16,-92.8 3834,-92.8 3834,-40.8 16,-40.8"/>
</g>
<!-- AccountApiModule -->
<g id="node1" class="node">
<title>AccountApiModule</title>
<polygon fill="#8dd3c7" stroke="black" points="3825.98,-84.8 3822.98,-88.8 3801.98,-88.8 3798.98,-84.8 3698.02,-84.8 3698.02,-48.8 3825.98,-48.8 3825.98,-84.8"/>
<text text-anchor="middle" x="3762" y="-62.6" font-family="Times,serif" font-size="14.00">AccountApiModule</text>
</g>
<!-- ServerModule -->
<g id="node28" class="node">
<title>ServerModule</title>
<polygon fill="#8dd3c7" stroke="black" points="1968.09,-149.8 1965.09,-153.8 1944.09,-153.8 1941.09,-149.8 1871.91,-149.8 1871.91,-113.8 1968.09,-113.8 1968.09,-149.8"/>
<text text-anchor="middle" x="1920" y="-127.6" font-family="Times,serif" font-size="14.00">ServerModule</text>
</g>
<!-- AccountApiModule&#45;&gt;ServerModule -->
<g id="edge1" class="edge">
<title>AccountApiModule&#45;&gt;ServerModule</title>
<path fill="none" stroke="black" d="M3762,-85.18C3762,-109.08 3762,-147.8 3762,-147.8 3762,-147.8 1978.32,-147.8 1978.32,-147.8"/>
<polygon fill="black" stroke="black" points="1978.32,-144.3 1968.32,-147.8 1978.32,-151.3 1978.32,-144.3"/>
</g>
<!-- AuthenticationApiModule -->
<g id="node2" class="node">
<title>AuthenticationApiModule</title>
<polygon fill="#8dd3c7" stroke="black" points="3679.75,-84.8 3676.75,-88.8 3655.75,-88.8 3652.75,-84.8 3516.25,-84.8 3516.25,-48.8 3679.75,-48.8 3679.75,-84.8"/>
<text text-anchor="middle" x="3598" y="-62.6" font-family="Times,serif" font-size="14.00">AuthenticationApiModule</text>
</g>
<!-- AuthenticationApiModule&#45;&gt;ServerModule -->
<g id="edge2" class="edge">
<title>AuthenticationApiModule&#45;&gt;ServerModule</title>
<path fill="none" stroke="black" d="M3598,-84.89C3598,-107.93 3598,-144.8 3598,-144.8 3598,-144.8 1978.41,-144.8 1978.41,-144.8"/>
<polygon fill="black" stroke="black" points="1978.41,-141.3 1968.41,-144.8 1978.41,-148.3 1978.41,-141.3"/>
</g>
<!-- BoardApiModule -->
<g id="node3" class="node">
<title>BoardApiModule</title>
<polygon fill="#8dd3c7" stroke="black" points="3498.27,-84.8 3495.27,-88.8 3474.27,-88.8 3471.27,-84.8 3383.73,-84.8 3383.73,-48.8 3498.27,-48.8 3498.27,-84.8"/>
<text text-anchor="middle" x="3441" y="-62.6" font-family="Times,serif" font-size="14.00">BoardApiModule</text>
</g>
<!-- BoardApiModule&#45;&gt;ServerModule -->
<g id="edge3" class="edge">
<title>BoardApiModule&#45;&gt;ServerModule</title>
<path fill="none" stroke="black" d="M3441,-84.81C3441,-107.29 3441,-142.8 3441,-142.8 3441,-142.8 1978.46,-142.8 1978.46,-142.8"/>
<polygon fill="black" stroke="black" points="1978.46,-139.3 1968.46,-142.8 1978.46,-146.3 1978.46,-139.3"/>
</g>
<!-- BoardModule -->
<g id="node4" class="node">
<title>BoardModule</title>
<polygon fill="#8dd3c7" stroke="black" points="3365.77,-84.8 3362.77,-88.8 3341.77,-88.8 3338.77,-84.8 3272.23,-84.8 3272.23,-48.8 3365.77,-48.8 3365.77,-84.8"/>
<text text-anchor="middle" x="3319" y="-62.6" font-family="Times,serif" font-size="14.00">BoardModule</text>
</g>
<!-- BoardModule&#45;&gt;ServerModule -->
<g id="edge4" class="edge">
<title>BoardModule&#45;&gt;ServerModule</title>
<path fill="none" stroke="black" d="M3319,-84.84C3319,-106.46 3319,-139.8 3319,-139.8 3319,-139.8 1978.16,-139.8 1978.16,-139.8"/>
<polygon fill="black" stroke="black" points="1978.16,-136.3 1968.16,-139.8 1978.16,-143.3 1978.16,-136.3"/>
</g>
<!-- CollaborativeStorageModule -->
<g id="node5" class="node">
<title>CollaborativeStorageModule</title>
<polygon fill="#8dd3c7" stroke="black" points="3254.02,-84.8 3251.02,-88.8 3230.02,-88.8 3227.02,-84.8 3075.98,-84.8 3075.98,-48.8 3254.02,-48.8 3254.02,-84.8"/>
<text text-anchor="middle" x="3165" y="-62.6" font-family="Times,serif" font-size="14.00">CollaborativeStorageModule</text>
</g>
<!-- CollaborativeStorageModule&#45;&gt;ServerModule -->
<g id="edge5" class="edge">
<title>CollaborativeStorageModule&#45;&gt;ServerModule</title>
<path fill="none" stroke="black" d="M3165,-85.08C3165,-106.12 3165,-137.8 3165,-137.8 3165,-137.8 1978.42,-137.8 1978.42,-137.8"/>
<polygon fill="black" stroke="black" points="1978.42,-134.3 1968.42,-137.8 1978.42,-141.3 1978.42,-134.3"/>
</g>
<!-- CoreModule -->
<g id="node6" class="node">
<title>CoreModule</title>
<polygon fill="#8dd3c7" stroke="black" points="3057.27,-84.8 3054.27,-88.8 3033.27,-88.8 3030.27,-84.8 2970.73,-84.8 2970.73,-48.8 3057.27,-48.8 3057.27,-84.8"/>
<text text-anchor="middle" x="3014" y="-62.6" font-family="Times,serif" font-size="14.00">CoreModule</text>
</g>
<!-- CoreModule&#45;&gt;ServerModule -->
<g id="edge6" class="edge">
<title>CoreModule&#45;&gt;ServerModule</title>
<path fill="none" stroke="black" d="M3014,-85.02C3014,-105.17 3014,-134.8 3014,-134.8 3014,-134.8 1978.06,-134.8 1978.06,-134.8"/>
<polygon fill="black" stroke="black" points="1978.06,-131.3 1968.06,-134.8 1978.06,-138.3 1978.06,-131.3"/>
</g>
<!-- FilesStorageClientModule -->
<g id="node7" class="node">
<title>FilesStorageClientModule</title>
<polygon fill="#8dd3c7" stroke="black" points="2952.77,-84.8 2949.77,-88.8 2928.77,-88.8 2925.77,-84.8 2789.23,-84.8 2789.23,-48.8 2952.77,-48.8 2952.77,-84.8"/>
<text text-anchor="middle" x="2871" y="-62.6" font-family="Times,serif" font-size="14.00">FilesStorageClientModule</text>
</g>
<!-- FilesStorageClientModule&#45;&gt;ServerModule -->
<g id="edge7" class="edge">
<title>FilesStorageClientModule&#45;&gt;ServerModule</title>
<path fill="none" stroke="black" d="M2871,-84.91C2871,-104.14 2871,-131.8 2871,-131.8 2871,-131.8 1978.14,-131.8 1978.14,-131.8"/>
<polygon fill="black" stroke="black" points="1978.14,-128.3 1968.14,-131.8 1978.14,-135.3 1978.14,-128.3"/>
</g>
<!-- ImportUserModule -->
<g id="node8" class="node">
<title>ImportUserModule</title>
<polygon fill="#8dd3c7" stroke="black" points="2771.09,-84.8 2768.09,-88.8 2747.09,-88.8 2744.09,-84.8 2646.91,-84.8 2646.91,-48.8 2771.09,-48.8 2771.09,-84.8"/>
<text text-anchor="middle" x="2709" y="-62.6" font-family="Times,serif" font-size="14.00">ImportUserModule</text>
</g>
<!-- ImportUserModule&#45;&gt;ServerModule -->
<g id="edge8" class="edge">
<title>ImportUserModule&#45;&gt;ServerModule</title>
<path fill="none" stroke="black" d="M2709,-85.02C2709,-103.63 2709,-129.8 2709,-129.8 2709,-129.8 1978.17,-129.8 1978.17,-129.8"/>
<polygon fill="black" stroke="black" points="1978.17,-126.3 1968.17,-129.8 1978.17,-133.3 1978.17,-126.3"/>
</g>
<!-- LearnroomModule -->
<g id="node9" class="node">
<title>LearnroomModule</title>
<polygon fill="#8dd3c7" stroke="black" points="2628.75,-84.8 2625.75,-88.8 2604.75,-88.8 2601.75,-84.8 2507.25,-84.8 2507.25,-48.8 2628.75,-48.8 2628.75,-84.8"/>
<text text-anchor="middle" x="2568" y="-62.6" font-family="Times,serif" font-size="14.00">LearnroomModule</text>
</g>
<!-- LearnroomModule&#45;&gt;ServerModule -->
<g id="edge9" class="edge">
<title>LearnroomModule&#45;&gt;ServerModule</title>
<path fill="none" stroke="black" d="M2568,-84.8C2568,-102.48 2568,-126.8 2568,-126.8 2568,-126.8 1978.18,-126.8 1978.18,-126.8"/>
<polygon fill="black" stroke="black" points="1978.18,-123.3 1968.18,-126.8 1978.18,-130.3 1978.18,-123.3"/>
</g>
<!-- LessonApiModule -->
<g id="node10" class="node">
<title>LessonApiModule</title>
<polygon fill="#8dd3c7" stroke="black" points="2489.21,-84.8 2486.21,-88.8 2465.21,-88.8 2462.21,-84.8 2368.79,-84.8 2368.79,-48.8 2489.21,-48.8 2489.21,-84.8"/>
<text text-anchor="middle" x="2429" y="-62.6" font-family="Times,serif" font-size="14.00">LessonApiModule</text>
</g>
<!-- LessonApiModule&#45;&gt;ServerModule -->
<g id="edge10" class="edge">
<title>LessonApiModule&#45;&gt;ServerModule</title>
<path fill="none" stroke="black" d="M2429,-84.83C2429,-101.86 2429,-124.8 2429,-124.8 2429,-124.8 1978.34,-124.8 1978.34,-124.8"/>
<polygon fill="black" stroke="black" points="1978.34,-121.3 1968.34,-124.8 1978.34,-128.3 1978.34,-121.3"/>
</g>
<!-- LoggerModule -->
<g id="node11" class="node">
<title>LoggerModule</title>
<polygon fill="#8dd3c7" stroke="black" points="2350.98,-84.8 2347.98,-88.8 2326.98,-88.8 2323.98,-84.8 2251.02,-84.8 2251.02,-48.8 2350.98,-48.8 2350.98,-84.8"/>
<text text-anchor="middle" x="2301" y="-62.6" font-family="Times,serif" font-size="14.00">LoggerModule</text>
</g>
<!-- LoggerModule&#45;&gt;ServerModule -->
<g id="edge11" class="edge">
<title>LoggerModule&#45;&gt;ServerModule</title>
<path fill="none" stroke="black" d="M2301,-84.81C2301,-100.85 2301,-121.8 2301,-121.8 2301,-121.8 1978.25,-121.8 1978.25,-121.8"/>
<polygon fill="black" stroke="black" points="1978.25,-118.3 1968.25,-121.8 1978.25,-125.3 1978.25,-118.3"/>
</g>
<!-- NewsModule -->
<g id="node12" class="node">
<title>NewsModule</title>
<polygon fill="#8dd3c7" stroke="black" points="2232.94,-84.8 2229.94,-88.8 2208.94,-88.8 2205.94,-84.8 2141.06,-84.8 2141.06,-48.8 2232.94,-48.8 2232.94,-84.8"/>
<text text-anchor="middle" x="2187" y="-62.6" font-family="Times,serif" font-size="14.00">NewsModule</text>
</g>
<!-- NewsModule&#45;&gt;ServerModule -->
<g id="edge12" class="edge">
<title>NewsModule&#45;&gt;ServerModule</title>
<path fill="none" stroke="black" d="M2187,-85.04C2187,-100.37 2187,-119.8 2187,-119.8 2187,-119.8 1978.35,-119.8 1978.35,-119.8"/>
<polygon fill="black" stroke="black" points="1978.35,-116.3 1968.35,-119.8 1978.35,-123.3 1978.35,-116.3"/>
</g>
<!-- OauthApiModule -->
<g id="node13" class="node">
<title>OauthApiModule</title>
<polygon fill="#8dd3c7" stroke="black" points="2123.27,-84.8 2120.27,-88.8 2099.27,-88.8 2096.27,-84.8 2008.73,-84.8 2008.73,-48.8 2123.27,-48.8 2123.27,-84.8"/>
<text text-anchor="middle" x="2066" y="-62.6" font-family="Times,serif" font-size="14.00">OauthApiModule</text>
</g>
<!-- OauthApiModule&#45;&gt;ServerModule -->
<g id="edge13" class="edge">
<title>OauthApiModule&#45;&gt;ServerModule</title>
<path fill="none" stroke="black" d="M2066,-84.85C2066,-99.17 2066,-116.8 2066,-116.8 2066,-116.8 1978.21,-116.8 1978.21,-116.8"/>
<polygon fill="black" stroke="black" points="1978.21,-113.3 1968.21,-116.8 1978.21,-120.3 1978.21,-113.3"/>
</g>
<!-- OauthProviderModule -->
<g id="node14" class="node">
<title>OauthProviderModule</title>
<polygon fill="#8dd3c7" stroke="black" points="1990.98,-84.8 1987.98,-88.8 1966.98,-88.8 1963.98,-84.8 1849.02,-84.8 1849.02,-48.8 1990.98,-48.8 1990.98,-84.8"/>
<text text-anchor="middle" x="1920" y="-62.6" font-family="Times,serif" font-size="14.00">OauthProviderModule</text>
</g>
<!-- OauthProviderModule&#45;&gt;ServerModule -->
<g id="edge14" class="edge">
<title>OauthProviderModule&#45;&gt;ServerModule</title>
<path fill="none" stroke="black" d="M1920,-84.91C1920,-84.91 1920,-103.79 1920,-103.79"/>
<polygon fill="black" stroke="black" points="1916.5,-103.79 1920,-113.79 1923.5,-103.79 1916.5,-103.79"/>
</g>
<!-- ProvisioningModule -->
<g id="node15" class="node">
<title>ProvisioningModule</title>
<polygon fill="#8dd3c7" stroke="black" points="1830.62,-84.8 1827.62,-88.8 1806.62,-88.8 1803.62,-84.8 1699.38,-84.8 1699.38,-48.8 1830.62,-48.8 1830.62,-84.8"/>
<text text-anchor="middle" x="1765" y="-62.6" font-family="Times,serif" font-size="14.00">ProvisioningModule</text>
</g>
<!-- ProvisioningModule&#45;&gt;ServerModule -->
<g id="edge15" class="edge">
<title>ProvisioningModule&#45;&gt;ServerModule</title>
<path fill="none" stroke="black" d="M1765,-84.85C1765,-99.17 1765,-116.8 1765,-116.8 1765,-116.8 1861.81,-116.8 1861.81,-116.8"/>
<polygon fill="black" stroke="black" points="1861.81,-120.3 1871.81,-116.8 1861.81,-113.3 1861.81,-120.3"/>
</g>
<!-- RabbitMQWrapperModule -->
<g id="node16" class="node">
<title>RabbitMQWrapperModule</title>
<polygon fill="#8dd3c7" stroke="black" points="1681.41,-84.8 1678.41,-88.8 1657.41,-88.8 1654.41,-84.8 1512.59,-84.8 1512.59,-48.8 1681.41,-48.8 1681.41,-84.8"/>
<text text-anchor="middle" x="1597" y="-62.6" font-family="Times,serif" font-size="14.00">RabbitMQWrapperModule</text>
</g>
<!-- RabbitMQWrapperModule&#45;&gt;ServerModule -->
<g id="edge16" class="edge">
<title>RabbitMQWrapperModule&#45;&gt;ServerModule</title>
<path fill="none" stroke="black" d="M1597,-85.04C1597,-100.37 1597,-119.8 1597,-119.8 1597,-119.8 1861.64,-119.8 1861.64,-119.8"/>
<polygon fill="black" stroke="black" points="1861.64,-123.3 1871.64,-119.8 1861.64,-116.3 1861.64,-123.3"/>
</g>
<!-- RedisModule -->
<g id="node17" class="node">
<title>RedisModule</title>
<polygon fill="#8dd3c7" stroke="black" points="1494.94,-84.8 1491.94,-88.8 1470.94,-88.8 1467.94,-84.8 1403.06,-84.8 1403.06,-48.8 1494.94,-48.8 1494.94,-84.8"/>
<text text-anchor="middle" x="1449" y="-62.6" font-family="Times,serif" font-size="14.00">RedisModule</text>
</g>
<!-- RedisModule&#45;&gt;ServerModule -->
<g id="edge17" class="edge">
<title>RedisModule&#45;&gt;ServerModule</title>
<path fill="none" stroke="black" d="M1449,-84.81C1449,-100.85 1449,-121.8 1449,-121.8 1449,-121.8 1861.81,-121.8 1861.81,-121.8"/>
<polygon fill="black" stroke="black" points="1861.81,-125.3 1871.81,-121.8 1861.81,-118.3 1861.81,-125.3"/>
</g>
<!-- RoleModule -->
<g id="node18" class="node">
<title>RoleModule</title>
<polygon fill="#8dd3c7" stroke="black" points="1384.99,-84.8 1381.99,-88.8 1360.99,-88.8 1357.99,-84.8 1299.01,-84.8 1299.01,-48.8 1384.99,-48.8 1384.99,-84.8"/>
<text text-anchor="middle" x="1342" y="-62.6" font-family="Times,serif" font-size="14.00">RoleModule</text>
</g>
<!-- RoleModule&#45;&gt;ServerModule -->
<g id="edge18" class="edge">
<title>RoleModule&#45;&gt;ServerModule</title>
<path fill="none" stroke="black" d="M1342,-84.83C1342,-101.86 1342,-124.8 1342,-124.8 1342,-124.8 1861.71,-124.8 1861.71,-124.8"/>
<polygon fill="black" stroke="black" points="1861.71,-128.3 1871.71,-124.8 1861.71,-121.3 1861.71,-128.3"/>
</g>
<!-- SchoolApiModule -->
<g id="node19" class="node">
<title>SchoolApiModule</title>
<polygon fill="#8dd3c7" stroke="black" points="1280.94,-84.8 1277.94,-88.8 1256.94,-88.8 1253.94,-84.8 1161.06,-84.8 1161.06,-48.8 1280.94,-48.8 1280.94,-84.8"/>
<text text-anchor="middle" x="1221" y="-62.6" font-family="Times,serif" font-size="14.00">SchoolApiModule</text>
</g>
<!-- SchoolApiModule&#45;&gt;ServerModule -->
<g id="edge19" class="edge">
<title>SchoolApiModule&#45;&gt;ServerModule</title>
<path fill="none" stroke="black" d="M1221,-84.8C1221,-102.48 1221,-126.8 1221,-126.8 1221,-126.8 1861.95,-126.8 1861.95,-126.8"/>
<polygon fill="black" stroke="black" points="1861.95,-130.3 1871.95,-126.8 1861.95,-123.3 1861.95,-130.3"/>
</g>
<!-- SharingApiModule -->
<g id="node20" class="node">
<title>SharingApiModule</title>
<polygon fill="#8dd3c7" stroke="black" points="1143.1,-84.8 1140.1,-88.8 1119.1,-88.8 1116.1,-84.8 1018.9,-84.8 1018.9,-48.8 1143.1,-48.8 1143.1,-84.8"/>
<text text-anchor="middle" x="1081" y="-62.6" font-family="Times,serif" font-size="14.00">SharingApiModule</text>
</g>
<!-- SharingApiModule&#45;&gt;ServerModule -->
<g id="edge20" class="edge">
<title>SharingApiModule&#45;&gt;ServerModule</title>
<path fill="none" stroke="black" d="M1081,-85.02C1081,-103.63 1081,-129.8 1081,-129.8 1081,-129.8 1861.88,-129.8 1861.88,-129.8"/>
<polygon fill="black" stroke="black" points="1861.88,-133.3 1871.88,-129.8 1861.88,-126.3 1861.88,-133.3"/>
</g>
<!-- SystemModule -->
<g id="node21" class="node">
<title>SystemModule</title>
<polygon fill="#8dd3c7" stroke="black" points="1001.28,-84.8 998.28,-88.8 977.28,-88.8 974.28,-84.8 900.72,-84.8 900.72,-48.8 1001.28,-48.8 1001.28,-84.8"/>
<text text-anchor="middle" x="951" y="-62.6" font-family="Times,serif" font-size="14.00">SystemModule</text>
</g>
<!-- SystemModule&#45;&gt;ServerModule -->
<g id="edge21" class="edge">
<title>SystemModule&#45;&gt;ServerModule</title>
<path fill="none" stroke="black" d="M951,-84.91C951,-104.14 951,-131.8 951,-131.8 951,-131.8 1861.95,-131.8 1861.95,-131.8"/>
<polygon fill="black" stroke="black" points="1861.95,-135.3 1871.95,-131.8 1861.95,-128.3 1861.95,-135.3"/>
</g>
<!-- TaskCardModule -->
<g id="node22" class="node">
<title>TaskCardModule</title>
<polygon fill="#8dd3c7" stroke="black" points="882.98,-84.8 879.98,-88.8 858.98,-88.8 855.98,-84.8 769.02,-84.8 769.02,-48.8 882.98,-48.8 882.98,-84.8"/>
<text text-anchor="middle" x="826" y="-62.6" font-family="Times,serif" font-size="14.00">TaskCardModule</text>
</g>
<!-- TaskCardModule&#45;&gt;ServerModule -->
<g id="edge22" class="edge">
<title>TaskCardModule&#45;&gt;ServerModule</title>
<path fill="none" stroke="black" d="M826,-85.02C826,-105.17 826,-134.8 826,-134.8 826,-134.8 1861.94,-134.8 1861.94,-134.8"/>
<polygon fill="black" stroke="black" points="1861.94,-138.3 1871.94,-134.8 1861.94,-131.3 1861.94,-138.3"/>
</g>
<!-- TaskModule -->
<g id="node23" class="node">
<title>TaskModule</title>
<polygon fill="#8dd3c7" stroke="black" points="751.27,-84.8 748.27,-88.8 727.27,-88.8 724.27,-84.8 664.73,-84.8 664.73,-48.8 751.27,-48.8 751.27,-84.8"/>
<text text-anchor="middle" x="708" y="-62.6" font-family="Times,serif" font-size="14.00">TaskModule</text>
</g>
<!-- TaskModule&#45;&gt;ServerModule -->
<g id="edge23" class="edge">
<title>TaskModule&#45;&gt;ServerModule</title>
<path fill="none" stroke="black" d="M708,-85.08C708,-106.12 708,-137.8 708,-137.8 708,-137.8 1861.74,-137.8 1861.74,-137.8"/>
<polygon fill="black" stroke="black" points="1861.74,-141.3 1871.74,-137.8 1861.74,-134.3 1861.74,-141.3"/>
</g>
<!-- ToolApiModule -->
<g id="node24" class="node">
<title>ToolApiModule</title>
<polygon fill="#8dd3c7" stroke="black" points="646.49,-84.8 643.49,-88.8 622.49,-88.8 619.49,-84.8 539.51,-84.8 539.51,-48.8 646.49,-48.8 646.49,-84.8"/>
<text text-anchor="middle" x="593" y="-62.6" font-family="Times,serif" font-size="14.00">ToolApiModule</text>
</g>
<!-- ToolApiModule&#45;&gt;ServerModule -->
<g id="edge24" class="edge">
<title>ToolApiModule&#45;&gt;ServerModule</title>
<path fill="none" stroke="black" d="M593,-84.84C593,-106.46 593,-139.8 593,-139.8 593,-139.8 1861.59,-139.8 1861.59,-139.8"/>
<polygon fill="black" stroke="black" points="1861.59,-143.3 1871.59,-139.8 1861.59,-136.3 1861.59,-143.3"/>
</g>
<!-- UserApiModule -->
<g id="node25" class="node">
<title>UserApiModule</title>
<polygon fill="#8dd3c7" stroke="black" points="521.49,-84.8 518.49,-88.8 497.49,-88.8 494.49,-84.8 414.51,-84.8 414.51,-48.8 521.49,-48.8 521.49,-84.8"/>
<text text-anchor="middle" x="468" y="-62.6" font-family="Times,serif" font-size="14.00">UserApiModule</text>
</g>
<!-- UserApiModule&#45;&gt;ServerModule -->
<g id="edge25" class="edge">
<title>UserApiModule&#45;&gt;ServerModule</title>
<path fill="none" stroke="black" d="M468,-84.81C468,-107.29 468,-142.8 468,-142.8 468,-142.8 1861.69,-142.8 1861.69,-142.8"/>
<polygon fill="black" stroke="black" points="1861.69,-146.3 1871.69,-142.8 1861.69,-139.3 1861.69,-146.3"/>
</g>
<!-- UserLoginMigrationApiModule -->
<g id="node26" class="node">
<title>UserLoginMigrationApiModule</title>
<polygon fill="#8dd3c7" stroke="black" points="396.42,-84.8 393.42,-88.8 372.42,-88.8 369.42,-84.8 199.58,-84.8 199.58,-48.8 396.42,-48.8 396.42,-84.8"/>
<text text-anchor="middle" x="298" y="-62.6" font-family="Times,serif" font-size="14.00">UserLoginMigrationApiModule</text>
</g>
<!-- UserLoginMigrationApiModule&#45;&gt;ServerModule -->
<g id="edge26" class="edge">
<title>UserLoginMigrationApiModule&#45;&gt;ServerModule</title>
<path fill="none" stroke="black" d="M298,-84.89C298,-107.93 298,-144.8 298,-144.8 298,-144.8 1861.9,-144.8 1861.9,-144.8"/>
<polygon fill="black" stroke="black" points="1861.9,-148.3 1871.9,-144.8 1861.9,-141.3 1861.9,-148.3"/>
</g>
<!-- VideoConferenceModule -->
<g id="node27" class="node">
<title>VideoConferenceModule</title>
<polygon fill="#8dd3c7" stroke="black" points="182.28,-84.8 179.28,-88.8 158.28,-88.8 155.28,-84.8 23.72,-84.8 23.72,-48.8 182.28,-48.8 182.28,-84.8"/>
<text text-anchor="middle" x="103" y="-62.6" font-family="Times,serif" font-size="14.00">VideoConferenceModule</text>
</g>
<!-- VideoConferenceModule&#45;&gt;ServerModule -->
<g id="edge27" class="edge">
<title>VideoConferenceModule&#45;&gt;ServerModule</title>
<path fill="none" stroke="black" d="M103,-85.18C103,-109.08 103,-147.8 103,-147.8 103,-147.8 1861.87,-147.8 1861.87,-147.8"/>
<polygon fill="black" stroke="black" points="1861.87,-151.3 1871.87,-147.8 1861.87,-144.3 1861.87,-151.3"/>
</g>
</g>
</svg>
