<?xml version="1.0" encoding="UTF-8" standalone="no"?>
<!DOCTYPE svg PUBLIC "-//W3C//DTD SVG 1.1//EN"
 "http://www.w3.org/Graphics/SVG/1.1/DTD/svg11.dtd">
<!-- Generated by graphviz version 2.47.3 (20210619.1520)
 -->
<!-- Title: dependencies Pages: 1 -->
<svg width="1065pt" height="174pt"
 viewBox="0.00 0.00 1065.00 173.80" xmlns="http://www.w3.org/2000/svg" xmlns:xlink="http://www.w3.org/1999/xlink">
<g id="graph0" class="graph" transform="scale(1 1) rotate(0) translate(4 169.8)">
<title>dependencies</title>
<polygon fill="white" stroke="transparent" points="-4,4 -4,-169.8 1061,-169.8 1061,4 -4,4"/>
<text text-anchor="middle" x="528.5" y="-8.2" font-family="sans-serif" font-size="14.00">dependencies</text>
<g id="clust1" class="cluster">
<title>cluster_ServerModule</title>
<polygon fill="none" stroke="black" stroke-dasharray="1,5" points="8,-32.8 8,-157.8 1049,-157.8 1049,-32.8 8,-32.8"/>
</g>
<g id="clust3" class="cluster">
<title>cluster_ServerModule_imports</title>
<polygon fill="none" stroke="black" points="16,-40.8 16,-92.8 1041,-92.8 1041,-40.8 16,-40.8"/>
</g>
<!-- AuthModule -->
<g id="node1" class="node">
<title>AuthModule</title>
<polygon fill="#8dd3c7" stroke="black" points="1032.55,-84.8 1029.55,-88.8 1008.55,-88.8 1005.55,-84.8 945.45,-84.8 945.45,-48.8 1032.55,-48.8 1032.55,-84.8"/>
<text text-anchor="middle" x="989" y="-62.6" font-family="Times,serif" font-size="14.00">AuthModule</text>
</g>
<!-- ServerModule -->
<g id="node10" class="node">
<title>ServerModule</title>
<polygon fill="#8dd3c7" stroke="black" points="563.08,-149.8 560.08,-153.8 539.08,-153.8 536.08,-149.8 466.92,-149.8 466.92,-113.8 563.08,-113.8 563.08,-149.8"/>
<text text-anchor="middle" x="515" y="-127.6" font-family="Times,serif" font-size="14.00">ServerModule</text>
</g>
<!-- AuthModule&#45;&gt;ServerModule -->
<g id="edge1" class="edge">
<title>AuthModule&#45;&gt;ServerModule</title>
<path fill="none" stroke="black" d="M989,-84.81C989,-107.29 989,-142.8 989,-142.8 989,-142.8 573.06,-142.8 573.06,-142.8"/>
<polygon fill="black" stroke="black" points="573.06,-139.3 563.06,-142.8 573.06,-146.3 573.06,-139.3"/>
</g>
<!-- CoreModule -->
<g id="node2" class="node">
<title>CoreModule</title>
<polygon fill="#8dd3c7" stroke="black" points="927.26,-84.8 924.26,-88.8 903.26,-88.8 900.26,-84.8 840.74,-84.8 840.74,-48.8 927.26,-48.8 927.26,-84.8"/>
<text text-anchor="middle" x="884" y="-62.6" font-family="Times,serif" font-size="14.00">CoreModule</text>
</g>
<!-- CoreModule&#45;&gt;ServerModule -->
<g id="edge2" class="edge">
<title>CoreModule&#45;&gt;ServerModule</title>
<path fill="none" stroke="black" d="M884,-84.93C884,-105.37 884,-135.8 884,-135.8 884,-135.8 573.24,-135.8 573.24,-135.8"/>
<polygon fill="black" stroke="black" points="573.24,-132.3 563.24,-135.8 573.24,-139.3 573.24,-132.3"/>
</g>
<!-- FilesModule -->
<g id="node3" class="node">
<title>FilesModule</title>
<polygon fill="#8dd3c7" stroke="black" points="822.27,-84.8 819.27,-88.8 798.27,-88.8 795.27,-84.8 735.73,-84.8 735.73,-48.8 822.27,-48.8 822.27,-84.8"/>
<text text-anchor="middle" x="779" y="-62.6" font-family="Times,serif" font-size="14.00">FilesModule</text>
</g>
<!-- FilesModule&#45;&gt;ServerModule -->
<g id="edge3" class="edge">
<title>FilesModule&#45;&gt;ServerModule</title>
<path fill="none" stroke="black" d="M779,-85.07C779,-103.36 779,-128.8 779,-128.8 779,-128.8 573.11,-128.8 573.11,-128.8"/>
<polygon fill="black" stroke="black" points="573.11,-125.3 563.11,-128.8 573.11,-132.3 573.11,-125.3"/>
</g>
<!-- ImportUserModule -->
<g id="node4" class="node">
<title>ImportUserModule</title>
<polygon fill="#8dd3c7" stroke="black" points="718.08,-84.8 715.08,-88.8 694.08,-88.8 691.08,-84.8 593.92,-84.8 593.92,-48.8 718.08,-48.8 718.08,-84.8"/>
<text text-anchor="middle" x="656" y="-62.6" font-family="Times,serif" font-size="14.00">ImportUserModule</text>
</g>
<!-- ImportUserModule&#45;&gt;ServerModule -->
<g id="edge4" class="edge">
<title>ImportUserModule&#45;&gt;ServerModule</title>
<path fill="none" stroke="black" d="M656,-84.81C656,-100.85 656,-121.8 656,-121.8 656,-121.8 573.13,-121.8 573.13,-121.8"/>
<polygon fill="black" stroke="black" points="573.13,-118.3 563.13,-121.8 573.13,-125.3 573.13,-118.3"/>
</g>
<!-- LearnroomModule -->
<g id="node5" class="node">
<title>LearnroomModule</title>
<polygon fill="#8dd3c7" stroke="black" points="575.74,-84.8 572.74,-88.8 551.74,-88.8 548.74,-84.8 454.26,-84.8 454.26,-48.8 575.74,-48.8 575.74,-84.8"/>
<text text-anchor="middle" x="515" y="-62.6" font-family="Times,serif" font-size="14.00">LearnroomModule</text>
</g>
<!-- LearnroomModule&#45;&gt;ServerModule -->
<g id="edge5" class="edge">
<title>LearnroomModule&#45;&gt;ServerModule</title>
<path fill="none" stroke="black" d="M515,-84.91C515,-84.91 515,-103.79 515,-103.79"/>
<polygon fill="black" stroke="black" points="511.5,-103.79 515,-113.79 518.5,-103.79 511.5,-103.79"/>
</g>
<!-- NewsModule -->
<g id="node6" class="node">
<title>NewsModule</title>
<polygon fill="#8dd3c7" stroke="black" points="435.92,-84.8 432.92,-88.8 411.92,-88.8 408.92,-84.8 344.08,-84.8 344.08,-48.8 435.92,-48.8 435.92,-84.8"/>
<text text-anchor="middle" x="390" y="-62.6" font-family="Times,serif" font-size="14.00">NewsModule</text>
</g>
<!-- NewsModule&#45;&gt;ServerModule -->
<g id="edge6" class="edge">
<title>NewsModule&#45;&gt;ServerModule</title>
<path fill="none" stroke="black" d="M390,-84.81C390,-100.85 390,-121.8 390,-121.8 390,-121.8 456.67,-121.8 456.67,-121.8"/>
<polygon fill="black" stroke="black" points="456.67,-125.3 466.67,-121.8 456.67,-118.3 456.67,-125.3"/>
</g>
<!-- OauthModule -->
<g id="node7" class="node">
<title>OauthModule</title>
<polygon fill="#8dd3c7" stroke="black" points="325.76,-84.8 322.76,-88.8 301.76,-88.8 298.76,-84.8 232.24,-84.8 232.24,-48.8 325.76,-48.8 325.76,-84.8"/>
<text text-anchor="middle" x="279" y="-62.6" font-family="Times,serif" font-size="14.00">OauthModule</text>
</g>
<!-- OauthModule&#45;&gt;ServerModule -->
<g id="edge7" class="edge">
<title>OauthModule&#45;&gt;ServerModule</title>
<path fill="none" stroke="black" d="M279,-85.07C279,-103.36 279,-128.8 279,-128.8 279,-128.8 456.96,-128.8 456.96,-128.8"/>
<polygon fill="black" stroke="black" points="456.96,-132.3 466.96,-128.8 456.96,-125.3 456.96,-132.3"/>
</g>
<!-- TaskModule -->
<g id="node8" class="node">
<title>TaskModule</title>
<polygon fill="#8dd3c7" stroke="black" points="214.26,-84.8 211.26,-88.8 190.26,-88.8 187.26,-84.8 127.74,-84.8 127.74,-48.8 214.26,-48.8 214.26,-84.8"/>
<text text-anchor="middle" x="171" y="-62.6" font-family="Times,serif" font-size="14.00">TaskModule</text>
</g>
<!-- TaskModule&#45;&gt;ServerModule -->
<g id="edge8" class="edge">
<title>TaskModule&#45;&gt;ServerModule</title>
<path fill="none" stroke="black" d="M171,-84.93C171,-105.37 171,-135.8 171,-135.8 171,-135.8 456.81,-135.8 456.81,-135.8"/>
<polygon fill="black" stroke="black" points="456.81,-139.3 466.81,-135.8 456.81,-132.3 456.81,-139.3"/>
</g>
<!-- UserModule -->
<g id="node9" class="node">
<title>UserModule</title>
<polygon fill="#8dd3c7" stroke="black" points="109.98,-84.8 106.98,-88.8 85.98,-88.8 82.98,-84.8 24.02,-84.8 24.02,-48.8 109.98,-48.8 109.98,-84.8"/>
<text text-anchor="middle" x="67" y="-62.6" font-family="Times,serif" font-size="14.00">UserModule</text>
</g>
<!-- UserModule&#45;&gt;ServerModule -->
<g id="edge9" class="edge">
<title>UserModule&#45;&gt;ServerModule</title>
<path fill="none" stroke="black" d="M67,-84.81C67,-107.29 67,-142.8 67,-142.8 67,-142.8 456.63,-142.8 456.63,-142.8"/>
<polygon fill="black" stroke="black" points="456.63,-146.3 466.63,-142.8 456.63,-139.3 456.63,-146.3"/>
</g>
</g>
</svg>
