<?xml version="1.0" encoding="UTF-8" standalone="no"?>
<!DOCTYPE svg PUBLIC "-//W3C//DTD SVG 1.1//EN"
 "http://www.w3.org/Graphics/SVG/1.1/DTD/svg11.dtd">
<!-- Generated by graphviz version 3.0.0 (20220226.1711)
 -->
<!-- Title: dependencies Pages: 1 -->
<svg width="1463pt" height="174pt"
 viewBox="0.00 0.00 1463.00 173.80" xmlns="http://www.w3.org/2000/svg" xmlns:xlink="http://www.w3.org/1999/xlink">
<g id="graph0" class="graph" transform="scale(1 1) rotate(0) translate(4 169.8)">
<title>dependencies</title>
<polygon fill="white" stroke="transparent" points="-4,4 -4,-169.8 1459,-169.8 1459,4 -4,4"/>
<text text-anchor="middle" x="727.5" y="-8.2" font-family="sans-serif" font-size="14.00">dependencies</text>
<g id="clust1" class="cluster">
<title>cluster_ServerModule</title>
<polygon fill="none" stroke="black" stroke-dasharray="1,5" points="8,-32.8 8,-157.8 1447,-157.8 1447,-32.8 8,-32.8"/>
</g>
<g id="clust3" class="cluster">
<title>cluster_ServerModule_imports</title>
<polygon fill="none" stroke="black" points="16,-40.8 16,-92.8 1439,-92.8 1439,-40.8 16,-40.8"/>
</g>
<!-- AuthModule -->
<g id="node1" class="node">
<title>AuthModule</title>
<polygon fill="#8dd3c7" stroke="black" points="1430.55,-84.8 1427.55,-88.8 1406.55,-88.8 1403.55,-84.8 1343.45,-84.8 1343.45,-48.8 1430.55,-48.8 1430.55,-84.8"/>
<text text-anchor="middle" x="1387" y="-62.6" font-family="Times,serif" font-size="14.00">AuthModule</text>
</g>
<!-- ServerModule -->
<g id="node12" class="node">
<title>ServerModule</title>
<polygon fill="#8dd3c7" stroke="black" points="744.09,-149.8 741.09,-153.8 720.09,-153.8 717.09,-149.8 647.91,-149.8 647.91,-113.8 744.09,-113.8 744.09,-149.8"/>
<text text-anchor="middle" x="696" y="-127.6" font-family="Times,serif" font-size="14.00">ServerModule</text>
</g>
<!-- AuthModule&#45;&gt;ServerModule -->
<g id="edge1" class="edge">
<title>AuthModule&#45;&gt;ServerModule</title>
<path fill="none" stroke="black" d="M1387,-84.89C1387,-107.93 1387,-144.8 1387,-144.8 1387,-144.8 754.32,-144.8 754.32,-144.8"/>
<polygon fill="black" stroke="black" points="754.32,-141.3 744.32,-144.8 754.32,-148.3 754.32,-141.3"/>
</g>
<!-- CollaborativeStorageModule -->
<g id="node2" class="node">
<title>CollaborativeStorageModule</title>
<polygon fill="#8dd3c7" stroke="black" points="1325.02,-84.8 1322.02,-88.8 1301.02,-88.8 1298.02,-84.8 1146.98,-84.8 1146.98,-48.8 1325.02,-48.8 1325.02,-84.8"/>
<text text-anchor="middle" x="1236" y="-62.6" font-family="Times,serif" font-size="14.00">CollaborativeStorageModule</text>
</g>
<!-- CollaborativeStorageModule&#45;&gt;ServerModule -->
<g id="edge2" class="edge">
<title>CollaborativeStorageModule&#45;&gt;ServerModule</title>
<path fill="none" stroke="black" d="M1236,-85.08C1236,-106.12 1236,-137.8 1236,-137.8 1236,-137.8 754.4,-137.8 754.4,-137.8"/>
<polygon fill="black" stroke="black" points="754.4,-134.3 744.4,-137.8 754.4,-141.3 754.4,-134.3"/>
</g>
<!-- CoreModule -->
<g id="node3" class="node">
<title>CoreModule</title>
<polygon fill="#8dd3c7" stroke="black" points="1128.27,-84.8 1125.27,-88.8 1104.27,-88.8 1101.27,-84.8 1041.73,-84.8 1041.73,-48.8 1128.27,-48.8 1128.27,-84.8"/>
<text text-anchor="middle" x="1085" y="-62.6" font-family="Times,serif" font-size="14.00">CoreModule</text>
</g>
<!-- CoreModule&#45;&gt;ServerModule -->
<g id="edge3" class="edge">
<title>CoreModule&#45;&gt;ServerModule</title>
<path fill="none" stroke="black" d="M1085,-84.91C1085,-104.14 1085,-131.8 1085,-131.8 1085,-131.8 754.09,-131.8 754.09,-131.8"/>
<polygon fill="black" stroke="black" points="754.09,-128.3 744.09,-131.8 754.09,-135.3 754.09,-128.3"/>
</g>
<!-- ImportUserModule -->
<g id="node4" class="node">
<title>ImportUserModule</title>
<polygon fill="#8dd3c7" stroke="black" points="1024.09,-84.8 1021.09,-88.8 1000.09,-88.8 997.09,-84.8 899.91,-84.8 899.91,-48.8 1024.09,-48.8 1024.09,-84.8"/>
<text text-anchor="middle" x="962" y="-62.6" font-family="Times,serif" font-size="14.00">ImportUserModule</text>
</g>
<!-- ImportUserModule&#45;&gt;ServerModule -->
<g id="edge4" class="edge">
<title>ImportUserModule&#45;&gt;ServerModule</title>
<path fill="none" stroke="black" d="M962,-84.82C962,-102.17 962,-125.8 962,-125.8 962,-125.8 754.17,-125.8 754.17,-125.8"/>
<polygon fill="black" stroke="black" points="754.17,-122.3 744.17,-125.8 754.17,-129.3 754.17,-122.3"/>
</g>
<!-- LearnroomModule -->
<g id="node5" class="node">
<title>LearnroomModule</title>
<polygon fill="#8dd3c7" stroke="black" points="881.75,-84.8 878.75,-88.8 857.75,-88.8 854.75,-84.8 760.25,-84.8 760.25,-48.8 881.75,-48.8 881.75,-84.8"/>
<text text-anchor="middle" x="821" y="-62.6" font-family="Times,serif" font-size="14.00">LearnroomModule</text>
</g>
<!-- LearnroomModule&#45;&gt;ServerModule -->
<g id="edge5" class="edge">
<title>LearnroomModule&#45;&gt;ServerModule</title>
<path fill="none" stroke="black" d="M821,-85.04C821,-100.37 821,-119.8 821,-119.8 821,-119.8 754.33,-119.8 754.33,-119.8"/>
<polygon fill="black" stroke="black" points="754.33,-116.3 744.33,-119.8 754.33,-123.3 754.33,-116.3"/>
</g>
<!-- NewsModule -->
<g id="node6" class="node">
<title>NewsModule</title>
<polygon fill="#8dd3c7" stroke="black" points="741.94,-84.8 738.94,-88.8 717.94,-88.8 714.94,-84.8 650.06,-84.8 650.06,-48.8 741.94,-48.8 741.94,-84.8"/>
<text text-anchor="middle" x="696" y="-62.6" font-family="Times,serif" font-size="14.00">NewsModule</text>
</g>
<!-- NewsModule&#45;&gt;ServerModule -->
<g id="edge6" class="edge">
<title>NewsModule&#45;&gt;ServerModule</title>
<path fill="none" stroke="black" d="M696,-84.91C696,-84.91 696,-103.79 696,-103.79"/>
<polygon fill="black" stroke="black" points="692.5,-103.79 696,-113.79 699.5,-103.79 692.5,-103.79"/>
</g>
<!-- OauthModule -->
<g id="node7" class="node">
<title>OauthModule</title>
<polygon fill="#8dd3c7" stroke="black" points="631.77,-84.8 628.77,-88.8 607.77,-88.8 604.77,-84.8 538.23,-84.8 538.23,-48.8 631.77,-48.8 631.77,-84.8"/>
<text text-anchor="middle" x="585" y="-62.6" font-family="Times,serif" font-size="14.00">OauthModule</text>
</g>
<!-- OauthModule&#45;&gt;ServerModule -->
<g id="edge7" class="edge">
<title>OauthModule&#45;&gt;ServerModule</title>
<path fill="none" stroke="black" d="M585,-85.04C585,-100.37 585,-119.8 585,-119.8 585,-119.8 637.64,-119.8 637.64,-119.8"/>
<polygon fill="black" stroke="black" points="637.64,-123.3 647.64,-119.8 637.64,-116.3 637.64,-123.3"/>
</g>
<!-- RabbitMQWrapperModule -->
<g id="node8" class="node">
<title>RabbitMQWrapperModule</title>
<polygon fill="#8dd3c7" stroke="black" points="520.41,-84.8 517.41,-88.8 496.41,-88.8 493.41,-84.8 351.59,-84.8 351.59,-48.8 520.41,-48.8 520.41,-84.8"/>
<text text-anchor="middle" x="436" y="-62.6" font-family="Times,serif" font-size="14.00">RabbitMQWrapperModule</text>
</g>
<!-- RabbitMQWrapperModule&#45;&gt;ServerModule -->
<g id="edge8" class="edge">
<title>RabbitMQWrapperModule&#45;&gt;ServerModule</title>
<path fill="none" stroke="black" d="M436,-84.82C436,-102.17 436,-125.8 436,-125.8 436,-125.8 637.71,-125.8 637.71,-125.8"/>
<polygon fill="black" stroke="black" points="637.71,-129.3 647.71,-125.8 637.71,-122.3 637.71,-129.3"/>
</g>
<!-- SystemModule -->
<g id="node9" class="node">
<title>SystemModule</title>
<polygon fill="#8dd3c7" stroke="black" points="333.28,-84.8 330.28,-88.8 309.28,-88.8 306.28,-84.8 232.72,-84.8 232.72,-48.8 333.28,-48.8 333.28,-84.8"/>
<text text-anchor="middle" x="283" y="-62.6" font-family="Times,serif" font-size="14.00">SystemModule</text>
</g>
<!-- SystemModule&#45;&gt;ServerModule -->
<g id="edge9" class="edge">
<title>SystemModule&#45;&gt;ServerModule</title>
<path fill="none" stroke="black" d="M283,-84.91C283,-104.14 283,-131.8 283,-131.8 283,-131.8 637.82,-131.8 637.82,-131.8"/>
<polygon fill="black" stroke="black" points="637.82,-135.3 647.82,-131.8 637.82,-128.3 637.82,-135.3"/>
</g>
<!-- TaskModule -->
<g id="node10" class="node">
<title>TaskModule</title>
<polygon fill="#8dd3c7" stroke="black" points="214.27,-84.8 211.27,-88.8 190.27,-88.8 187.27,-84.8 127.73,-84.8 127.73,-48.8 214.27,-48.8 214.27,-84.8"/>
<text text-anchor="middle" x="171" y="-62.6" font-family="Times,serif" font-size="14.00">TaskModule</text>
</g>
<!-- TaskModule&#45;&gt;ServerModule -->
<g id="edge10" class="edge">
<title>TaskModule&#45;&gt;ServerModule</title>
<path fill="none" stroke="black" d="M171,-85.08C171,-106.12 171,-137.8 171,-137.8 171,-137.8 637.55,-137.8 637.55,-137.8"/>
<polygon fill="black" stroke="black" points="637.55,-141.3 647.55,-137.8 637.55,-134.3 637.55,-141.3"/>
</g>
<!-- UserModule -->
<g id="node11" class="node">
<title>UserModule</title>
<polygon fill="#8dd3c7" stroke="black" points="109.99,-84.8 106.99,-88.8 85.99,-88.8 82.99,-84.8 24.01,-84.8 24.01,-48.8 109.99,-48.8 109.99,-84.8"/>
<text text-anchor="middle" x="67" y="-62.6" font-family="Times,serif" font-size="14.00">UserModule</text>
</g>
<!-- UserModule&#45;&gt;ServerModule -->
<g id="edge11" class="edge">
<title>UserModule&#45;&gt;ServerModule</title>
<path fill="none" stroke="black" d="M67,-84.89C67,-107.93 67,-144.8 67,-144.8 67,-144.8 637.95,-144.8 637.95,-144.8"/>
<polygon fill="black" stroke="black" points="637.95,-148.3 647.95,-144.8 637.95,-141.3 637.95,-148.3"/>
</g>
</g>
</svg>
