<?xml version="1.0" encoding="UTF-8" standalone="no"?>
<!DOCTYPE svg PUBLIC "-//W3C//DTD SVG 1.1//EN"
 "http://www.w3.org/Graphics/SVG/1.1/DTD/svg11.dtd">
<!-- Generated by graphviz version 5.0.0 (20220707.1540)
 -->
<!-- Title: dependencies Pages: 1 -->
<svg width="2190pt" height="174pt"
 viewBox="0.00 0.00 2190.00 173.80" xmlns="http://www.w3.org/2000/svg" xmlns:xlink="http://www.w3.org/1999/xlink">
<g id="graph0" class="graph" transform="scale(1 1) rotate(0) translate(4 169.8)">
<title>dependencies</title>
<polygon fill="white" stroke="transparent" points="-4,4 -4,-169.8 2186,-169.8 2186,4 -4,4"/>
<text text-anchor="middle" x="1091" y="-8.2" font-family="sans-serif" font-size="14.00">dependencies</text>
<g id="clust1" class="cluster">
<title>cluster_ServerModule</title>
<polygon fill="none" stroke="black" stroke-dasharray="1,5" points="8,-32.8 8,-157.8 2174,-157.8 2174,-32.8 8,-32.8"/>
</g>
<g id="clust3" class="cluster">
<title>cluster_ServerModule_imports</title>
<polygon fill="none" stroke="black" points="16,-40.8 16,-92.8 2166,-92.8 2166,-40.8 16,-40.8"/>
</g>
<!-- AuthModule -->
<g id="node1" class="node">
<title>AuthModule</title>
<polygon fill="#8dd3c7" stroke="black" points="2157.55,-84.8 2154.55,-88.8 2133.55,-88.8 2130.55,-84.8 2070.45,-84.8 2070.45,-48.8 2157.55,-48.8 2157.55,-84.8"/>
<text text-anchor="middle" x="2114" y="-62.6" font-family="Times,serif" font-size="14.00">AuthModule</text>
</g>
<!-- ServerModule -->
<g id="node17" class="node">
<title>ServerModule</title>
<polygon fill="#8dd3c7" stroke="black" points="1113.09,-149.8 1110.09,-153.8 1089.09,-153.8 1086.09,-149.8 1016.91,-149.8 1016.91,-113.8 1113.09,-113.8 1113.09,-149.8"/>
<text text-anchor="middle" x="1065" y="-127.6" font-family="Times,serif" font-size="14.00">ServerModule</text>
</g>
<!-- AuthModule&#45;&gt;ServerModule -->
<g id="edge1" class="edge">
<title>AuthModule&#45;&gt;ServerModule</title>
<path fill="none" stroke="black" d="M2114,-85.12C2114,-108.46 2114,-145.8 2114,-145.8 2114,-145.8 1123.14,-145.8 1123.14,-145.8"/>
<polygon fill="black" stroke="black" points="1123.14,-142.3 1113.14,-145.8 1123.14,-149.3 1123.14,-142.3"/>
</g>
<!-- CollaborativeStorageModule -->
<g id="node2" class="node">
<title>CollaborativeStorageModule</title>
<polygon fill="#8dd3c7" stroke="black" points="2052.02,-84.8 2049.02,-88.8 2028.02,-88.8 2025.02,-84.8 1873.98,-84.8 1873.98,-48.8 2052.02,-48.8 2052.02,-84.8"/>
<text text-anchor="middle" x="1963" y="-62.6" font-family="Times,serif" font-size="14.00">CollaborativeStorageModule</text>
</g>
<!-- CollaborativeStorageModule&#45;&gt;ServerModule -->
<g id="edge2" class="edge">
<title>CollaborativeStorageModule&#45;&gt;ServerModule</title>
<path fill="none" stroke="black" d="M1963,-85.09C1963,-107.01 1963,-140.8 1963,-140.8 1963,-140.8 1123.28,-140.8 1123.28,-140.8"/>
<polygon fill="black" stroke="black" points="1123.28,-137.3 1113.28,-140.8 1123.28,-144.3 1123.28,-137.3"/>
</g>
<!-- CoreModule -->
<g id="node3" class="node">
<title>CoreModule</title>
<polygon fill="#8dd3c7" stroke="black" points="1855.27,-84.8 1852.27,-88.8 1831.27,-88.8 1828.27,-84.8 1768.73,-84.8 1768.73,-48.8 1855.27,-48.8 1855.27,-84.8"/>
<text text-anchor="middle" x="1812" y="-62.6" font-family="Times,serif" font-size="14.00">CoreModule</text>
</g>
<!-- CoreModule&#45;&gt;ServerModule -->
<g id="edge3" class="edge">
<title>CoreModule&#45;&gt;ServerModule</title>
<path fill="none" stroke="black" d="M1812,-84.83C1812,-105.57 1812,-136.8 1812,-136.8 1812,-136.8 1123.15,-136.8 1123.15,-136.8"/>
<polygon fill="black" stroke="black" points="1123.15,-133.3 1113.15,-136.8 1123.15,-140.3 1123.15,-133.3"/>
</g>
<!-- FilesStorageClientModule -->
<g id="node4" class="node">
<title>FilesStorageClientModule</title>
<polygon fill="#8dd3c7" stroke="black" points="1750.77,-84.8 1747.77,-88.8 1726.77,-88.8 1723.77,-84.8 1587.23,-84.8 1587.23,-48.8 1750.77,-48.8 1750.77,-84.8"/>
<text text-anchor="middle" x="1669" y="-62.6" font-family="Times,serif" font-size="14.00">FilesStorageClientModule</text>
</g>
<!-- FilesStorageClientModule&#45;&gt;ServerModule -->
<g id="edge4" class="edge">
<title>FilesStorageClientModule&#45;&gt;ServerModule</title>
<path fill="none" stroke="black" d="M1669,-84.91C1669,-104.14 1669,-131.8 1669,-131.8 1669,-131.8 1123.15,-131.8 1123.15,-131.8"/>
<polygon fill="black" stroke="black" points="1123.15,-128.3 1113.15,-131.8 1123.15,-135.3 1123.15,-128.3"/>
</g>
<!-- ImportUserModule -->
<g id="node5" class="node">
<title>ImportUserModule</title>
<polygon fill="#8dd3c7" stroke="black" points="1569.09,-84.8 1566.09,-88.8 1545.09,-88.8 1542.09,-84.8 1444.91,-84.8 1444.91,-48.8 1569.09,-48.8 1569.09,-84.8"/>
<text text-anchor="middle" x="1507" y="-62.6" font-family="Times,serif" font-size="14.00">ImportUserModule</text>
</g>
<!-- ImportUserModule&#45;&gt;ServerModule -->
<g id="edge5" class="edge">
<title>ImportUserModule&#45;&gt;ServerModule</title>
<path fill="none" stroke="black" d="M1507,-85.1C1507,-103.07 1507,-127.8 1507,-127.8 1507,-127.8 1123.14,-127.8 1123.14,-127.8"/>
<polygon fill="black" stroke="black" points="1123.14,-124.3 1113.14,-127.8 1123.14,-131.3 1123.14,-124.3"/>
</g>
<!-- LearnroomModule -->
<g id="node6" class="node">
<title>LearnroomModule</title>
<polygon fill="#8dd3c7" stroke="black" points="1426.75,-84.8 1423.75,-88.8 1402.75,-88.8 1399.75,-84.8 1305.25,-84.8 1305.25,-48.8 1426.75,-48.8 1426.75,-84.8"/>
<text text-anchor="middle" x="1366" y="-62.6" font-family="Times,serif" font-size="14.00">LearnroomModule</text>
</g>
<!-- LearnroomModule&#45;&gt;ServerModule -->
<g id="edge6" class="edge">
<title>LearnroomModule&#45;&gt;ServerModule</title>
<path fill="none" stroke="black" d="M1366,-84.83C1366,-101.2 1366,-122.8 1366,-122.8 1366,-122.8 1123.36,-122.8 1123.36,-122.8"/>
<polygon fill="black" stroke="black" points="1123.36,-119.3 1113.36,-122.8 1123.36,-126.3 1123.36,-119.3"/>
</g>
<!-- NewsModule -->
<g id="node7" class="node">
<title>NewsModule</title>
<polygon fill="#8dd3c7" stroke="black" points="1286.94,-84.8 1283.94,-88.8 1262.94,-88.8 1259.94,-84.8 1195.06,-84.8 1195.06,-48.8 1286.94,-48.8 1286.94,-84.8"/>
<text text-anchor="middle" x="1241" y="-62.6" font-family="Times,serif" font-size="14.00">NewsModule</text>
</g>
<!-- NewsModule&#45;&gt;ServerModule -->
<g id="edge7" class="edge">
<title>NewsModule&#45;&gt;ServerModule</title>
<path fill="none" stroke="black" d="M1241,-84.99C1241,-99.98 1241,-118.8 1241,-118.8 1241,-118.8 1123.09,-118.8 1123.09,-118.8"/>
<polygon fill="black" stroke="black" points="1123.09,-115.3 1113.09,-118.8 1123.09,-122.3 1123.09,-115.3"/>
</g>
<!-- OauthModule -->
<g id="node8" class="node">
<title>OauthModule</title>
<polygon fill="#8dd3c7" stroke="black" points="1176.77,-84.8 1173.77,-88.8 1152.77,-88.8 1149.77,-84.8 1083.23,-84.8 1083.23,-48.8 1176.77,-48.8 1176.77,-84.8"/>
<text text-anchor="middle" x="1130" y="-62.6" font-family="Times,serif" font-size="14.00">OauthModule</text>
</g>
<!-- OauthModule&#45;&gt;ServerModule -->
<g id="edge8" class="edge">
<title>OauthModule&#45;&gt;ServerModule</title>
<path fill="none" stroke="black" d="M1098.08,-84.91C1098.08,-84.91 1098.08,-103.79 1098.08,-103.79"/>
<polygon fill="black" stroke="black" points="1094.58,-103.79 1098.08,-113.79 1101.58,-103.79 1094.58,-103.79"/>
</g>
<!-- ProvisioningModule -->
<g id="node9" class="node">
<title>ProvisioningModule</title>
<polygon fill="#8dd3c7" stroke="black" points="1065.62,-84.8 1062.62,-88.8 1041.62,-88.8 1038.62,-84.8 934.38,-84.8 934.38,-48.8 1065.62,-48.8 1065.62,-84.8"/>
<text text-anchor="middle" x="1000" y="-62.6" font-family="Times,serif" font-size="14.00">ProvisioningModule</text>
</g>
<!-- ProvisioningModule&#45;&gt;ServerModule -->
<g id="edge9" class="edge">
<title>ProvisioningModule&#45;&gt;ServerModule</title>
<path fill="none" stroke="black" d="M1041.26,-84.91C1041.26,-84.91 1041.26,-103.79 1041.26,-103.79"/>
<polygon fill="black" stroke="black" points="1037.76,-103.79 1041.26,-113.79 1044.76,-103.79 1037.76,-103.79"/>
</g>
<!-- RabbitMQWrapperModule -->
<g id="node10" class="node">
<title>RabbitMQWrapperModule</title>
<polygon fill="#8dd3c7" stroke="black" points="916.41,-84.8 913.41,-88.8 892.41,-88.8 889.41,-84.8 747.59,-84.8 747.59,-48.8 916.41,-48.8 916.41,-84.8"/>
<text text-anchor="middle" x="832" y="-62.6" font-family="Times,serif" font-size="14.00">RabbitMQWrapperModule</text>
</g>
<!-- RabbitMQWrapperModule&#45;&gt;ServerModule -->
<g id="edge10" class="edge">
<title>RabbitMQWrapperModule&#45;&gt;ServerModule</title>
<path fill="none" stroke="black" d="M832,-84.99C832,-99.98 832,-118.8 832,-118.8 832,-118.8 1006.72,-118.8 1006.72,-118.8"/>
<polygon fill="black" stroke="black" points="1006.72,-122.3 1016.72,-118.8 1006.72,-115.3 1006.72,-122.3"/>
</g>
<!-- RoleModule -->
<g id="node11" class="node">
<title>RoleModule</title>
<polygon fill="#8dd3c7" stroke="black" points="729.99,-84.8 726.99,-88.8 705.99,-88.8 702.99,-84.8 644.01,-84.8 644.01,-48.8 729.99,-48.8 729.99,-84.8"/>
<text text-anchor="middle" x="687" y="-62.6" font-family="Times,serif" font-size="14.00">RoleModule</text>
</g>
<!-- RoleModule&#45;&gt;ServerModule -->
<g id="edge11" class="edge">
<title>RoleModule&#45;&gt;ServerModule</title>
<path fill="none" stroke="black" d="M687,-84.83C687,-101.2 687,-122.8 687,-122.8 687,-122.8 1006.74,-122.8 1006.74,-122.8"/>
<polygon fill="black" stroke="black" points="1006.74,-126.3 1016.74,-122.8 1006.74,-119.3 1006.74,-126.3"/>
</g>
<!-- SchoolModule -->
<g id="node12" class="node">
<title>SchoolModule</title>
<polygon fill="#8dd3c7" stroke="black" points="626.44,-84.8 623.44,-88.8 602.44,-88.8 599.44,-84.8 527.56,-84.8 527.56,-48.8 626.44,-48.8 626.44,-84.8"/>
<text text-anchor="middle" x="577" y="-62.6" font-family="Times,serif" font-size="14.00">SchoolModule</text>
</g>
<!-- SchoolModule&#45;&gt;ServerModule -->
<g id="edge12" class="edge">
<title>SchoolModule&#45;&gt;ServerModule</title>
<path fill="none" stroke="black" d="M577,-85.1C577,-103.07 577,-127.8 577,-127.8 577,-127.8 1006.87,-127.8 1006.87,-127.8"/>
<polygon fill="black" stroke="black" points="1006.87,-131.3 1016.87,-127.8 1006.87,-124.3 1006.87,-131.3"/>
</g>
<!-- SystemModule -->
<g id="node13" class="node">
<title>SystemModule</title>
<polygon fill="#8dd3c7" stroke="black" points="509.28,-84.8 506.28,-88.8 485.28,-88.8 482.28,-84.8 408.72,-84.8 408.72,-48.8 509.28,-48.8 509.28,-84.8"/>
<text text-anchor="middle" x="459" y="-62.6" font-family="Times,serif" font-size="14.00">SystemModule</text>
</g>
<!-- SystemModule&#45;&gt;ServerModule -->
<g id="edge13" class="edge">
<title>SystemModule&#45;&gt;ServerModule</title>
<path fill="none" stroke="black" d="M459,-84.91C459,-104.14 459,-131.8 459,-131.8 459,-131.8 1006.94,-131.8 1006.94,-131.8"/>
<polygon fill="black" stroke="black" points="1006.94,-135.3 1016.94,-131.8 1006.94,-128.3 1006.94,-135.3"/>
</g>
<!-- TaskModule -->
<g id="node14" class="node">
<title>TaskModule</title>
<polygon fill="#8dd3c7" stroke="black" points="390.27,-84.8 387.27,-88.8 366.27,-88.8 363.27,-84.8 303.73,-84.8 303.73,-48.8 390.27,-48.8 390.27,-84.8"/>
<text text-anchor="middle" x="347" y="-62.6" font-family="Times,serif" font-size="14.00">TaskModule</text>
</g>
<!-- TaskModule&#45;&gt;ServerModule -->
<g id="edge14" class="edge">
<title>TaskModule&#45;&gt;ServerModule</title>
<path fill="none" stroke="black" d="M347,-84.83C347,-105.57 347,-136.8 347,-136.8 347,-136.8 1006.78,-136.8 1006.78,-136.8"/>
<polygon fill="black" stroke="black" points="1006.78,-140.3 1016.78,-136.8 1006.78,-133.3 1006.78,-140.3"/>
</g>
<!-- UserModule -->
<g id="node15" class="node">
<title>UserModule</title>
<polygon fill="#8dd3c7" stroke="black" points="285.99,-84.8 282.99,-88.8 261.99,-88.8 258.99,-84.8 200.01,-84.8 200.01,-48.8 285.99,-48.8 285.99,-84.8"/>
<text text-anchor="middle" x="243" y="-62.6" font-family="Times,serif" font-size="14.00">UserModule</text>
</g>
<!-- UserModule&#45;&gt;ServerModule -->
<g id="edge15" class="edge">
<title>UserModule&#45;&gt;ServerModule</title>
<path fill="none" stroke="black" d="M243,-85.09C243,-107.01 243,-140.8 243,-140.8 243,-140.8 1006.95,-140.8 1006.95,-140.8"/>
<polygon fill="black" stroke="black" points="1006.95,-144.3 1016.95,-140.8 1006.95,-137.3 1006.95,-144.3"/>
</g>
<!-- VideoConferenceModule -->
<g id="node16" class="node">
<title>VideoConferenceModule</title>
<polygon fill="#8dd3c7" stroke="black" points="182.28,-84.8 179.28,-88.8 158.28,-88.8 155.28,-84.8 23.72,-84.8 23.72,-48.8 182.28,-48.8 182.28,-84.8"/>
<text text-anchor="middle" x="103" y="-62.6" font-family="Times,serif" font-size="14.00">VideoConferenceModule</text>
</g>
<!-- VideoConferenceModule&#45;&gt;ServerModule -->
<g id="edge16" class="edge">
<title>VideoConferenceModule&#45;&gt;ServerModule</title>
<path fill="none" stroke="black" d="M103,-85.12C103,-108.46 103,-145.8 103,-145.8 103,-145.8 1006.63,-145.8 1006.63,-145.8"/>
<polygon fill="black" stroke="black" points="1006.64,-149.3 1016.63,-145.8 1006.63,-142.3 1006.64,-149.3"/>
</g>
</g>
</svg>
