<?xml version="1.0" encoding="UTF-8" standalone="no"?>
<!DOCTYPE svg PUBLIC "-//W3C//DTD SVG 1.1//EN"
 "http://www.w3.org/Graphics/SVG/1.1/DTD/svg11.dtd">
<!-- Generated by graphviz version 5.0.0 (20220707.1540)
 -->
<!-- Title: dependencies Pages: 1 -->
<svg width="2777pt" height="174pt"
 viewBox="0.00 0.00 2777.00 173.80" xmlns="http://www.w3.org/2000/svg" xmlns:xlink="http://www.w3.org/1999/xlink">
<g id="graph0" class="graph" transform="scale(1 1) rotate(0) translate(4 169.8)">
<title>dependencies</title>
<polygon fill="white" stroke="transparent" points="-4,4 -4,-169.8 2773,-169.8 2773,4 -4,4"/>
<text text-anchor="middle" x="1384.5" y="-8.2" font-family="sans-serif" font-size="14.00">dependencies</text>
<g id="clust1" class="cluster">
<title>cluster_ServerModule</title>
<polygon fill="none" stroke="black" stroke-dasharray="1,5" points="8,-32.8 8,-157.8 2761,-157.8 2761,-32.8 8,-32.8"/>
</g>
<g id="clust3" class="cluster">
<title>cluster_ServerModule_imports</title>
<polygon fill="none" stroke="black" points="16,-40.8 16,-92.8 2753,-92.8 2753,-40.8 16,-40.8"/>
</g>
<!-- AuthModule -->
<g id="node1" class="node">
<title>AuthModule</title>
<polygon fill="#8dd3c7" stroke="black" points="2744.55,-84.8 2741.55,-88.8 2720.55,-88.8 2717.55,-84.8 2657.45,-84.8 2657.45,-48.8 2744.55,-48.8 2744.55,-84.8"/>
<text text-anchor="middle" x="2701" y="-62.6" font-family="Times,serif" font-size="14.00">AuthModule</text>
</g>
<!-- ServerModule -->
<g id="node21" class="node">
<title>ServerModule</title>
<polygon fill="#8dd3c7" stroke="black" points="1413.09,-149.8 1410.09,-153.8 1389.09,-153.8 1386.09,-149.8 1316.91,-149.8 1316.91,-113.8 1413.09,-113.8 1413.09,-149.8"/>
<text text-anchor="middle" x="1365" y="-127.6" font-family="Times,serif" font-size="14.00">ServerModule</text>
</g>
<!-- AuthModule&#45;&gt;ServerModule -->
<g id="edge1" class="edge">
<title>AuthModule&#45;&gt;ServerModule</title>
<path fill="none" stroke="black" d="M2701,-84.95C2701,-108.56 2701,-146.8 2701,-146.8 2701,-146.8 1423.34,-146.8 1423.34,-146.8"/>
<polygon fill="black" stroke="black" points="1423.34,-143.3 1413.34,-146.8 1423.34,-150.3 1423.34,-143.3"/>
</g>
<!-- CollaborativeStorageModule -->
<g id="node2" class="node">
<title>CollaborativeStorageModule</title>
<polygon fill="#8dd3c7" stroke="black" points="2639.02,-84.8 2636.02,-88.8 2615.02,-88.8 2612.02,-84.8 2460.98,-84.8 2460.98,-48.8 2639.02,-48.8 2639.02,-84.8"/>
<text text-anchor="middle" x="2550" y="-62.6" font-family="Times,serif" font-size="14.00">CollaborativeStorageModule</text>
</g>
<!-- CollaborativeStorageModule&#45;&gt;ServerModule -->
<g id="edge2" class="edge">
<title>CollaborativeStorageModule&#45;&gt;ServerModule</title>
<path fill="none" stroke="black" d="M2550,-84.81C2550,-107.29 2550,-142.8 2550,-142.8 2550,-142.8 1423.29,-142.8 1423.29,-142.8"/>
<polygon fill="black" stroke="black" points="1423.29,-139.3 1413.29,-142.8 1423.29,-146.3 1423.29,-139.3"/>
</g>
<!-- CoreModule -->
<g id="node3" class="node">
<title>CoreModule</title>
<polygon fill="#8dd3c7" stroke="black" points="2442.27,-84.8 2439.27,-88.8 2418.27,-88.8 2415.27,-84.8 2355.73,-84.8 2355.73,-48.8 2442.27,-48.8 2442.27,-84.8"/>
<text text-anchor="middle" x="2399" y="-62.6" font-family="Times,serif" font-size="14.00">CoreModule</text>
</g>
<!-- CoreModule&#45;&gt;ServerModule -->
<g id="edge3" class="edge">
<title>CoreModule&#45;&gt;ServerModule</title>
<path fill="none" stroke="black" d="M2399,-84.84C2399,-106.46 2399,-139.8 2399,-139.8 2399,-139.8 1423.14,-139.8 1423.14,-139.8"/>
<polygon fill="black" stroke="black" points="1423.14,-136.3 1413.14,-139.8 1423.14,-143.3 1423.14,-136.3"/>
</g>
<!-- FilesStorageClientModule -->
<g id="node4" class="node">
<title>FilesStorageClientModule</title>
<polygon fill="#8dd3c7" stroke="black" points="2337.77,-84.8 2334.77,-88.8 2313.77,-88.8 2310.77,-84.8 2174.23,-84.8 2174.23,-48.8 2337.77,-48.8 2337.77,-84.8"/>
<text text-anchor="middle" x="2256" y="-62.6" font-family="Times,serif" font-size="14.00">FilesStorageClientModule</text>
</g>
<!-- FilesStorageClientModule&#45;&gt;ServerModule -->
<g id="edge4" class="edge">
<title>FilesStorageClientModule&#45;&gt;ServerModule</title>
<path fill="none" stroke="black" d="M2256,-84.93C2256,-105.37 2256,-135.8 2256,-135.8 2256,-135.8 1423.22,-135.8 1423.22,-135.8"/>
<polygon fill="black" stroke="black" points="1423.22,-132.3 1413.22,-135.8 1423.22,-139.3 1423.22,-132.3"/>
</g>
<!-- ImportUserModule -->
<g id="node5" class="node">
<title>ImportUserModule</title>
<polygon fill="#8dd3c7" stroke="black" points="2156.09,-84.8 2153.09,-88.8 2132.09,-88.8 2129.09,-84.8 2031.91,-84.8 2031.91,-48.8 2156.09,-48.8 2156.09,-84.8"/>
<text text-anchor="middle" x="2094" y="-62.6" font-family="Times,serif" font-size="14.00">ImportUserModule</text>
</g>
<!-- ImportUserModule&#45;&gt;ServerModule -->
<g id="edge5" class="edge">
<title>ImportUserModule&#45;&gt;ServerModule</title>
<path fill="none" stroke="black" d="M2094,-84.91C2094,-104.14 2094,-131.8 2094,-131.8 2094,-131.8 1423.11,-131.8 1423.11,-131.8"/>
<polygon fill="black" stroke="black" points="1423.11,-128.3 1413.11,-131.8 1423.11,-135.3 1423.11,-128.3"/>
</g>
<!-- LearnroomModule -->
<g id="node6" class="node">
<title>LearnroomModule</title>
<polygon fill="#8dd3c7" stroke="black" points="2013.75,-84.8 2010.75,-88.8 1989.75,-88.8 1986.75,-84.8 1892.25,-84.8 1892.25,-48.8 2013.75,-48.8 2013.75,-84.8"/>
<text text-anchor="middle" x="1953" y="-62.6" font-family="Times,serif" font-size="14.00">LearnroomModule</text>
</g>
<!-- LearnroomModule&#45;&gt;ServerModule -->
<g id="edge6" class="edge">
<title>LearnroomModule&#45;&gt;ServerModule</title>
<path fill="none" stroke="black" d="M1953,-85.07C1953,-103.36 1953,-128.8 1953,-128.8 1953,-128.8 1423.12,-128.8 1423.12,-128.8"/>
<polygon fill="black" stroke="black" points="1423.12,-125.3 1413.12,-128.8 1423.12,-132.3 1423.12,-125.3"/>
</g>
<!-- LessonApiModule -->
<g id="node7" class="node">
<title>LessonApiModule</title>
<polygon fill="#8dd3c7" stroke="black" points="1874.21,-84.8 1871.21,-88.8 1850.21,-88.8 1847.21,-84.8 1753.79,-84.8 1753.79,-48.8 1874.21,-48.8 1874.21,-84.8"/>
<text text-anchor="middle" x="1814" y="-62.6" font-family="Times,serif" font-size="14.00">LessonApiModule</text>
</g>
<!-- LessonApiModule&#45;&gt;ServerModule -->
<g id="edge7" class="edge">
<title>LessonApiModule&#45;&gt;ServerModule</title>
<path fill="none" stroke="black" d="M1814,-84.83C1814,-101.86 1814,-124.8 1814,-124.8 1814,-124.8 1423.05,-124.8 1423.05,-124.8"/>
<polygon fill="black" stroke="black" points="1423.05,-121.3 1413.05,-124.8 1423.05,-128.3 1423.05,-121.3"/>
</g>
<!-- NewsModule -->
<g id="node8" class="node">
<title>NewsModule</title>
<polygon fill="#8dd3c7" stroke="black" points="1735.94,-84.8 1732.94,-88.8 1711.94,-88.8 1708.94,-84.8 1644.06,-84.8 1644.06,-48.8 1735.94,-48.8 1735.94,-84.8"/>
<text text-anchor="middle" x="1690" y="-62.6" font-family="Times,serif" font-size="14.00">NewsModule</text>
</g>
<!-- NewsModule&#45;&gt;ServerModule -->
<g id="edge8" class="edge">
<title>NewsModule&#45;&gt;ServerModule</title>
<path fill="none" stroke="black" d="M1690,-84.81C1690,-100.85 1690,-121.8 1690,-121.8 1690,-121.8 1423.3,-121.8 1423.3,-121.8"/>
<polygon fill="black" stroke="black" points="1423.3,-118.3 1413.3,-121.8 1423.3,-125.3 1423.3,-118.3"/>
</g>
<!-- OauthModule -->
<g id="node9" class="node">
<title>OauthModule</title>
<polygon fill="#8dd3c7" stroke="black" points="1625.77,-84.8 1622.77,-88.8 1601.77,-88.8 1598.77,-84.8 1532.23,-84.8 1532.23,-48.8 1625.77,-48.8 1625.77,-84.8"/>
<text text-anchor="middle" x="1579" y="-62.6" font-family="Times,serif" font-size="14.00">OauthModule</text>
</g>
<!-- OauthModule&#45;&gt;ServerModule -->
<g id="edge9" class="edge">
<title>OauthModule&#45;&gt;ServerModule</title>
<path fill="none" stroke="black" d="M1579,-84.92C1579,-99.58 1579,-117.8 1579,-117.8 1579,-117.8 1423.29,-117.8 1423.29,-117.8"/>
<polygon fill="black" stroke="black" points="1423.29,-114.3 1413.29,-117.8 1423.29,-121.3 1423.29,-114.3"/>
</g>
<!-- OauthProviderModule -->
<g id="node10" class="node">
<title>OauthProviderModule</title>
<polygon fill="#8dd3c7" stroke="black" points="1513.98,-84.8 1510.98,-88.8 1489.98,-88.8 1486.98,-84.8 1372.02,-84.8 1372.02,-48.8 1513.98,-48.8 1513.98,-84.8"/>
<text text-anchor="middle" x="1443" y="-62.6" font-family="Times,serif" font-size="14.00">OauthProviderModule</text>
</g>
<!-- OauthProviderModule&#45;&gt;ServerModule -->
<g id="edge10" class="edge">
<title>OauthProviderModule&#45;&gt;ServerModule</title>
<path fill="none" stroke="black" d="M1392.53,-84.91C1392.53,-84.91 1392.53,-103.79 1392.53,-103.79"/>
<polygon fill="black" stroke="black" points="1389.03,-103.79 1392.53,-113.79 1396.03,-103.79 1389.03,-103.79"/>
</g>
<!-- ProvisioningModule -->
<g id="node11" class="node">
<title>ProvisioningModule</title>
<polygon fill="#8dd3c7" stroke="black" points="1353.62,-84.8 1350.62,-88.8 1329.62,-88.8 1326.62,-84.8 1222.38,-84.8 1222.38,-48.8 1353.62,-48.8 1353.62,-84.8"/>
<text text-anchor="middle" x="1288" y="-62.6" font-family="Times,serif" font-size="14.00">ProvisioningModule</text>
</g>
<!-- ProvisioningModule&#45;&gt;ServerModule -->
<g id="edge11" class="edge">
<title>ProvisioningModule&#45;&gt;ServerModule</title>
<path fill="none" stroke="black" d="M1335.26,-84.91C1335.26,-84.91 1335.26,-103.79 1335.26,-103.79"/>
<polygon fill="black" stroke="black" points="1331.76,-103.79 1335.26,-113.79 1338.76,-103.79 1331.76,-103.79"/>
</g>
<!-- RabbitMQWrapperModule -->
<g id="node12" class="node">
<title>RabbitMQWrapperModule</title>
<polygon fill="#8dd3c7" stroke="black" points="1204.41,-84.8 1201.41,-88.8 1180.41,-88.8 1177.41,-84.8 1035.59,-84.8 1035.59,-48.8 1204.41,-48.8 1204.41,-84.8"/>
<text text-anchor="middle" x="1120" y="-62.6" font-family="Times,serif" font-size="14.00">RabbitMQWrapperModule</text>
</g>
<!-- RabbitMQWrapperModule&#45;&gt;ServerModule -->
<g id="edge12" class="edge">
<title>RabbitMQWrapperModule&#45;&gt;ServerModule</title>
<path fill="none" stroke="black" d="M1120,-84.92C1120,-99.58 1120,-117.8 1120,-117.8 1120,-117.8 1306.89,-117.8 1306.89,-117.8"/>
<polygon fill="black" stroke="black" points="1306.89,-121.3 1316.89,-117.8 1306.89,-114.3 1306.89,-121.3"/>
</g>
<!-- RoleModule -->
<g id="node13" class="node">
<title>RoleModule</title>
<polygon fill="#8dd3c7" stroke="black" points="1017.99,-84.8 1014.99,-88.8 993.99,-88.8 990.99,-84.8 932.01,-84.8 932.01,-48.8 1017.99,-48.8 1017.99,-84.8"/>
<text text-anchor="middle" x="975" y="-62.6" font-family="Times,serif" font-size="14.00">RoleModule</text>
</g>
<!-- RoleModule&#45;&gt;ServerModule -->
<g id="edge13" class="edge">
<title>RoleModule&#45;&gt;ServerModule</title>
<path fill="none" stroke="black" d="M975,-84.81C975,-100.85 975,-121.8 975,-121.8 975,-121.8 1306.79,-121.8 1306.79,-121.8"/>
<polygon fill="black" stroke="black" points="1306.79,-125.3 1316.79,-121.8 1306.79,-118.3 1306.79,-125.3"/>
</g>
<!-- SchoolApiModule -->
<g id="node14" class="node">
<title>SchoolApiModule</title>
<polygon fill="#8dd3c7" stroke="black" points="913.94,-84.8 910.94,-88.8 889.94,-88.8 886.94,-84.8 794.06,-84.8 794.06,-48.8 913.94,-48.8 913.94,-84.8"/>
<text text-anchor="middle" x="854" y="-62.6" font-family="Times,serif" font-size="14.00">SchoolApiModule</text>
</g>
<!-- SchoolApiModule&#45;&gt;ServerModule -->
<g id="edge14" class="edge">
<title>SchoolApiModule&#45;&gt;ServerModule</title>
<path fill="none" stroke="black" d="M854,-84.83C854,-101.86 854,-124.8 854,-124.8 854,-124.8 1306.93,-124.8 1306.93,-124.8"/>
<polygon fill="black" stroke="black" points="1306.93,-128.3 1316.93,-124.8 1306.93,-121.3 1306.93,-128.3"/>
</g>
<!-- SharingApiModule -->
<g id="node15" class="node">
<title>SharingApiModule</title>
<polygon fill="#8dd3c7" stroke="black" points="776.1,-84.8 773.1,-88.8 752.1,-88.8 749.1,-84.8 651.9,-84.8 651.9,-48.8 776.1,-48.8 776.1,-84.8"/>
<text text-anchor="middle" x="714" y="-62.6" font-family="Times,serif" font-size="14.00">SharingApiModule</text>
</g>
<!-- SharingApiModule&#45;&gt;ServerModule -->
<g id="edge15" class="edge">
<title>SharingApiModule&#45;&gt;ServerModule</title>
<path fill="none" stroke="black" d="M714,-85.07C714,-103.36 714,-128.8 714,-128.8 714,-128.8 1306.87,-128.8 1306.87,-128.8"/>
<polygon fill="black" stroke="black" points="1306.87,-132.3 1316.87,-128.8 1306.87,-125.3 1306.87,-132.3"/>
</g>
<!-- SystemModule -->
<g id="node16" class="node">
<title>SystemModule</title>
<polygon fill="#8dd3c7" stroke="black" points="634.28,-84.8 631.28,-88.8 610.28,-88.8 607.28,-84.8 533.72,-84.8 533.72,-48.8 634.28,-48.8 634.28,-84.8"/>
<text text-anchor="middle" x="584" y="-62.6" font-family="Times,serif" font-size="14.00">SystemModule</text>
</g>
<!-- SystemModule&#45;&gt;ServerModule -->
<g id="edge16" class="edge">
<title>SystemModule&#45;&gt;ServerModule</title>
<path fill="none" stroke="black" d="M584,-84.91C584,-104.14 584,-131.8 584,-131.8 584,-131.8 1306.73,-131.8 1306.73,-131.8"/>
<polygon fill="black" stroke="black" points="1306.73,-135.3 1316.73,-131.8 1306.73,-128.3 1306.73,-135.3"/>
</g>
<!-- TaskModule -->
<g id="node17" class="node">
<title>TaskModule</title>
<polygon fill="#8dd3c7" stroke="black" points="515.27,-84.8 512.27,-88.8 491.27,-88.8 488.27,-84.8 428.73,-84.8 428.73,-48.8 515.27,-48.8 515.27,-84.8"/>
<text text-anchor="middle" x="472" y="-62.6" font-family="Times,serif" font-size="14.00">TaskModule</text>
</g>
<!-- TaskModule&#45;&gt;ServerModule -->
<g id="edge17" class="edge">
<title>TaskModule&#45;&gt;ServerModule</title>
<path fill="none" stroke="black" d="M472,-84.93C472,-105.37 472,-135.8 472,-135.8 472,-135.8 1306.67,-135.8 1306.67,-135.8"/>
<polygon fill="black" stroke="black" points="1306.67,-139.3 1316.67,-135.8 1306.67,-132.3 1306.67,-139.3"/>
</g>
<!-- ToolApiModule -->
<g id="node18" class="node">
<title>ToolApiModule</title>
<polygon fill="#8dd3c7" stroke="black" points="410.49,-84.8 407.49,-88.8 386.49,-88.8 383.49,-84.8 303.51,-84.8 303.51,-48.8 410.49,-48.8 410.49,-84.8"/>
<text text-anchor="middle" x="357" y="-62.6" font-family="Times,serif" font-size="14.00">ToolApiModule</text>
</g>
<!-- ToolApiModule&#45;&gt;ServerModule -->
<g id="edge18" class="edge">
<title>ToolApiModule&#45;&gt;ServerModule</title>
<path fill="none" stroke="black" d="M357,-84.84C357,-106.46 357,-139.8 357,-139.8 357,-139.8 1306.72,-139.8 1306.72,-139.8"/>
<polygon fill="black" stroke="black" points="1306.72,-143.3 1316.72,-139.8 1306.72,-136.3 1306.72,-143.3"/>
</g>
<!-- UserModule -->
<g id="node19" class="node">
<title>UserModule</title>
<polygon fill="#8dd3c7" stroke="black" points="285.99,-84.8 282.99,-88.8 261.99,-88.8 258.99,-84.8 200.01,-84.8 200.01,-48.8 285.99,-48.8 285.99,-84.8"/>
<text text-anchor="middle" x="243" y="-62.6" font-family="Times,serif" font-size="14.00">UserModule</text>
</g>
<!-- UserModule&#45;&gt;ServerModule -->
<g id="edge19" class="edge">
<title>UserModule&#45;&gt;ServerModule</title>
<path fill="none" stroke="black" d="M243,-84.81C243,-107.29 243,-142.8 243,-142.8 243,-142.8 1306.79,-142.8 1306.79,-142.8"/>
<polygon fill="black" stroke="black" points="1306.79,-146.3 1316.79,-142.8 1306.79,-139.3 1306.79,-146.3"/>
</g>
<!-- VideoConferenceModule -->
<g id="node20" class="node">
<title>VideoConferenceModule</title>
<polygon fill="#8dd3c7" stroke="black" points="182.28,-84.8 179.28,-88.8 158.28,-88.8 155.28,-84.8 23.72,-84.8 23.72,-48.8 182.28,-48.8 182.28,-84.8"/>
<text text-anchor="middle" x="103" y="-62.6" font-family="Times,serif" font-size="14.00">VideoConferenceModule</text>
</g>
<!-- VideoConferenceModule&#45;&gt;ServerModule -->
<g id="edge20" class="edge">
<title>VideoConferenceModule&#45;&gt;ServerModule</title>
<path fill="none" stroke="black" d="M103,-84.95C103,-108.56 103,-146.8 103,-146.8 103,-146.8 1306.69,-146.8 1306.69,-146.8"/>
<polygon fill="black" stroke="black" points="1306.69,-150.3 1316.69,-146.8 1306.69,-143.3 1306.69,-150.3"/>
</g>
</g>
</svg>
