<?xml version="1.0" encoding="UTF-8" standalone="no"?>
<!DOCTYPE svg PUBLIC "-//W3C//DTD SVG 1.1//EN"
 "http://www.w3.org/Graphics/SVG/1.1/DTD/svg11.dtd">
<!-- Generated by graphviz version 5.0.0 (20220707.1540)
 -->
<!-- Title: dependencies Pages: 1 -->
<svg width="3165pt" height="174pt"
 viewBox="0.00 0.00 3165.00 173.80" xmlns="http://www.w3.org/2000/svg" xmlns:xlink="http://www.w3.org/1999/xlink">
<g id="graph0" class="graph" transform="scale(1 1) rotate(0) translate(4 169.8)">
<title>dependencies</title>
<polygon fill="white" stroke="transparent" points="-4,4 -4,-169.8 3161,-169.8 3161,4 -4,4"/>
<text text-anchor="middle" x="1578.5" y="-8.2" font-family="sans-serif" font-size="14.00">dependencies</text>
<g id="clust1" class="cluster">
<title>cluster_ServerModule</title>
<polygon fill="none" stroke="black" stroke-dasharray="1,5" points="8,-32.8 8,-157.8 3149,-157.8 3149,-32.8 8,-32.8"/>
</g>
<g id="clust3" class="cluster">
<title>cluster_ServerModule_imports</title>
<polygon fill="none" stroke="black" points="16,-40.8 16,-92.8 3141,-92.8 3141,-40.8 16,-40.8"/>
</g>
<!-- AuthenticationApiModule -->
<g id="node1" class="node">
<title>AuthenticationApiModule</title>
<polygon fill="#8dd3c7" stroke="black" points="3132.75,-84.8 3129.75,-88.8 3108.75,-88.8 3105.75,-84.8 2969.25,-84.8 2969.25,-48.8 3132.75,-48.8 3132.75,-84.8"/>
<text text-anchor="middle" x="3051" y="-62.6" font-family="Times,serif" font-size="14.00">AuthenticationApiModule</text>
</g>
<!-- ServerModule -->
<g id="node23" class="node">
<title>ServerModule</title>
<polygon fill="#8dd3c7" stroke="black" points="1564.09,-149.8 1561.09,-153.8 1540.09,-153.8 1537.09,-149.8 1467.91,-149.8 1467.91,-113.8 1564.09,-113.8 1564.09,-149.8"/>
<text text-anchor="middle" x="1516" y="-127.6" font-family="Times,serif" font-size="14.00">ServerModule</text>
</g>
<!-- AuthenticationApiModule&#45;&gt;ServerModule -->
<g id="edge1" class="edge">
<title>AuthenticationApiModule&#45;&gt;ServerModule</title>
<path fill="none" stroke="black" d="M3051,-84.95C3051,-108.56 3051,-146.8 3051,-146.8 3051,-146.8 1574.05,-146.8 1574.05,-146.8"/>
<polygon fill="black" stroke="black" points="1574.05,-143.3 1564.05,-146.8 1574.05,-150.3 1574.05,-143.3"/>
</g>
<!-- CollaborativeStorageModule -->
<g id="node2" class="node">
<title>CollaborativeStorageModule</title>
<polygon fill="#8dd3c7" stroke="black" points="2951.02,-84.8 2948.02,-88.8 2927.02,-88.8 2924.02,-84.8 2772.98,-84.8 2772.98,-48.8 2951.02,-48.8 2951.02,-84.8"/>
<text text-anchor="middle" x="2862" y="-62.6" font-family="Times,serif" font-size="14.00">CollaborativeStorageModule</text>
</g>
<!-- CollaborativeStorageModule&#45;&gt;ServerModule -->
<g id="edge2" class="edge">
<title>CollaborativeStorageModule&#45;&gt;ServerModule</title>
<path fill="none" stroke="black" d="M2862,-85.05C2862,-107.82 2862,-143.8 2862,-143.8 2862,-143.8 1574.3,-143.8 1574.3,-143.8"/>
<polygon fill="black" stroke="black" points="1574.3,-140.3 1564.3,-143.8 1574.3,-147.3 1574.3,-140.3"/>
</g>
<!-- CoreModule -->
<g id="node3" class="node">
<title>CoreModule</title>
<polygon fill="#8dd3c7" stroke="black" points="2754.27,-84.8 2751.27,-88.8 2730.27,-88.8 2727.27,-84.8 2667.73,-84.8 2667.73,-48.8 2754.27,-48.8 2754.27,-84.8"/>
<text text-anchor="middle" x="2711" y="-62.6" font-family="Times,serif" font-size="14.00">CoreModule</text>
</g>
<!-- CoreModule&#45;&gt;ServerModule -->
<g id="edge3" class="edge">
<title>CoreModule&#45;&gt;ServerModule</title>
<path fill="none" stroke="black" d="M2711,-85.09C2711,-107.01 2711,-140.8 2711,-140.8 2711,-140.8 1574.33,-140.8 1574.33,-140.8"/>
<polygon fill="black" stroke="black" points="1574.33,-137.3 1564.33,-140.8 1574.33,-144.3 1574.33,-137.3"/>
</g>
<!-- FilesStorageClientModule -->
<g id="node4" class="node">
<title>FilesStorageClientModule</title>
<polygon fill="#8dd3c7" stroke="black" points="2649.77,-84.8 2646.77,-88.8 2625.77,-88.8 2622.77,-84.8 2486.23,-84.8 2486.23,-48.8 2649.77,-48.8 2649.77,-84.8"/>
<text text-anchor="middle" x="2568" y="-62.6" font-family="Times,serif" font-size="14.00">FilesStorageClientModule</text>
</g>
<!-- FilesStorageClientModule&#45;&gt;ServerModule -->
<g id="edge4" class="edge">
<title>FilesStorageClientModule&#45;&gt;ServerModule</title>
<path fill="none" stroke="black" d="M2568,-84.83C2568,-105.57 2568,-136.8 2568,-136.8 2568,-136.8 1574.28,-136.8 1574.28,-136.8"/>
<polygon fill="black" stroke="black" points="1574.28,-133.3 1564.28,-136.8 1574.28,-140.3 1574.28,-133.3"/>
</g>
<!-- ImportUserModule -->
<g id="node5" class="node">
<title>ImportUserModule</title>
<polygon fill="#8dd3c7" stroke="black" points="2468.09,-84.8 2465.09,-88.8 2444.09,-88.8 2441.09,-84.8 2343.91,-84.8 2343.91,-48.8 2468.09,-48.8 2468.09,-84.8"/>
<text text-anchor="middle" x="2406" y="-62.6" font-family="Times,serif" font-size="14.00">ImportUserModule</text>
</g>
<!-- ImportUserModule&#45;&gt;ServerModule -->
<g id="edge5" class="edge">
<title>ImportUserModule&#45;&gt;ServerModule</title>
<path fill="none" stroke="black" d="M2406,-85.11C2406,-104.95 2406,-133.8 2406,-133.8 2406,-133.8 1574.17,-133.8 1574.17,-133.8"/>
<polygon fill="black" stroke="black" points="1574.17,-130.3 1564.17,-133.8 1574.17,-137.3 1574.17,-130.3"/>
</g>
<!-- LearnroomModule -->
<g id="node6" class="node">
<title>LearnroomModule</title>
<polygon fill="#8dd3c7" stroke="black" points="2325.75,-84.8 2322.75,-88.8 2301.75,-88.8 2298.75,-84.8 2204.25,-84.8 2204.25,-48.8 2325.75,-48.8 2325.75,-84.8"/>
<text text-anchor="middle" x="2265" y="-62.6" font-family="Times,serif" font-size="14.00">LearnroomModule</text>
</g>
<!-- LearnroomModule&#45;&gt;ServerModule -->
<g id="edge6" class="edge">
<title>LearnroomModule&#45;&gt;ServerModule</title>
<path fill="none" stroke="black" d="M2265,-84.97C2265,-103.89 2265,-130.8 2265,-130.8 2265,-130.8 1574.28,-130.8 1574.28,-130.8"/>
<polygon fill="black" stroke="black" points="1574.28,-127.3 1564.28,-130.8 1574.28,-134.3 1574.28,-127.3"/>
</g>
<!-- LessonApiModule -->
<g id="node7" class="node">
<title>LessonApiModule</title>
<polygon fill="#8dd3c7" stroke="black" points="2186.21,-84.8 2183.21,-88.8 2162.21,-88.8 2159.21,-84.8 2065.79,-84.8 2065.79,-48.8 2186.21,-48.8 2186.21,-84.8"/>
<text text-anchor="middle" x="2126" y="-62.6" font-family="Times,serif" font-size="14.00">LessonApiModule</text>
</g>
<!-- LessonApiModule&#45;&gt;ServerModule -->
<g id="edge7" class="edge">
<title>LessonApiModule&#45;&gt;ServerModule</title>
<path fill="none" stroke="black" d="M2126,-85.1C2126,-103.07 2126,-127.8 2126,-127.8 2126,-127.8 1574.12,-127.8 1574.12,-127.8"/>
<polygon fill="black" stroke="black" points="1574.12,-124.3 1564.12,-127.8 1574.12,-131.3 1574.12,-124.3"/>
</g>
<!-- NewsModule -->
<g id="node8" class="node">
<title>NewsModule</title>
<polygon fill="#8dd3c7" stroke="black" points="2047.94,-84.8 2044.94,-88.8 2023.94,-88.8 2020.94,-84.8 1956.06,-84.8 1956.06,-48.8 2047.94,-48.8 2047.94,-84.8"/>
<text text-anchor="middle" x="2002" y="-62.6" font-family="Times,serif" font-size="14.00">NewsModule</text>
</g>
<!-- NewsModule&#45;&gt;ServerModule -->
<g id="edge8" class="edge">
<title>NewsModule&#45;&gt;ServerModule</title>
<path fill="none" stroke="black" d="M2002,-84.84C2002,-101.53 2002,-123.8 2002,-123.8 2002,-123.8 1574.38,-123.8 1574.38,-123.8"/>
<polygon fill="black" stroke="black" points="1574.38,-120.3 1564.38,-123.8 1574.38,-127.3 1574.38,-120.3"/>
</g>
<!-- OauthModule -->
<g id="node9" class="node">
<title>OauthModule</title>
<polygon fill="#8dd3c7" stroke="black" points="1937.77,-84.8 1934.77,-88.8 1913.77,-88.8 1910.77,-84.8 1844.23,-84.8 1844.23,-48.8 1937.77,-48.8 1937.77,-84.8"/>
<text text-anchor="middle" x="1891" y="-62.6" font-family="Times,serif" font-size="14.00">OauthModule</text>
</g>
<!-- OauthModule&#45;&gt;ServerModule -->
<g id="edge9" class="edge">
<title>OauthModule&#45;&gt;ServerModule</title>
<path fill="none" stroke="black" d="M1891,-85.08C1891,-100.75 1891,-120.8 1891,-120.8 1891,-120.8 1574.26,-120.8 1574.26,-120.8"/>
<polygon fill="black" stroke="black" points="1574.26,-117.3 1564.26,-120.8 1574.26,-124.3 1574.26,-117.3"/>
</g>
<!-- OauthProviderModule -->
<g id="node10" class="node">
<title>OauthProviderModule</title>
<polygon fill="#8dd3c7" stroke="black" points="1825.98,-84.8 1822.98,-88.8 1801.98,-88.8 1798.98,-84.8 1684.02,-84.8 1684.02,-48.8 1825.98,-48.8 1825.98,-84.8"/>
<text text-anchor="middle" x="1755" y="-62.6" font-family="Times,serif" font-size="14.00">OauthProviderModule</text>
</g>
<!-- OauthProviderModule&#45;&gt;ServerModule -->
<g id="edge10" class="edge">
<title>OauthProviderModule&#45;&gt;ServerModule</title>
<path fill="none" stroke="black" d="M1755,-84.92C1755,-99.58 1755,-117.8 1755,-117.8 1755,-117.8 1574.08,-117.8 1574.08,-117.8"/>
<polygon fill="black" stroke="black" points="1574.08,-114.3 1564.08,-117.8 1574.08,-121.3 1574.08,-114.3"/>
</g>
<!-- ProvisioningModule -->
<g id="node11" class="node">
<title>ProvisioningModule</title>
<polygon fill="#8dd3c7" stroke="black" points="1665.62,-84.8 1662.62,-88.8 1641.62,-88.8 1638.62,-84.8 1534.38,-84.8 1534.38,-48.8 1665.62,-48.8 1665.62,-84.8"/>
<text text-anchor="middle" x="1600" y="-62.6" font-family="Times,serif" font-size="14.00">ProvisioningModule</text>
</g>
<!-- ProvisioningModule&#45;&gt;ServerModule -->
<g id="edge11" class="edge">
<title>ProvisioningModule&#45;&gt;ServerModule</title>
<path fill="none" stroke="black" d="M1549.24,-84.91C1549.24,-84.91 1549.24,-103.79 1549.24,-103.79"/>
<polygon fill="black" stroke="black" points="1545.74,-103.79 1549.24,-113.79 1552.74,-103.79 1545.74,-103.79"/>
</g>
<!-- RabbitMQWrapperModule -->
<g id="node12" class="node">
<title>RabbitMQWrapperModule</title>
<polygon fill="#8dd3c7" stroke="black" points="1516.41,-84.8 1513.41,-88.8 1492.41,-88.8 1489.41,-84.8 1347.59,-84.8 1347.59,-48.8 1516.41,-48.8 1516.41,-84.8"/>
<text text-anchor="middle" x="1432" y="-62.6" font-family="Times,serif" font-size="14.00">RabbitMQWrapperModule</text>
</g>
<!-- RabbitMQWrapperModule&#45;&gt;ServerModule -->
<g id="edge12" class="edge">
<title>RabbitMQWrapperModule&#45;&gt;ServerModule</title>
<path fill="none" stroke="black" d="M1492.08,-84.91C1492.08,-84.91 1492.08,-103.79 1492.08,-103.79"/>
<polygon fill="black" stroke="black" points="1488.58,-103.79 1492.08,-113.79 1495.58,-103.79 1488.58,-103.79"/>
</g>
<!-- RoleModule -->
<g id="node13" class="node">
<title>RoleModule</title>
<polygon fill="#8dd3c7" stroke="black" points="1329.99,-84.8 1326.99,-88.8 1305.99,-88.8 1302.99,-84.8 1244.01,-84.8 1244.01,-48.8 1329.99,-48.8 1329.99,-84.8"/>
<text text-anchor="middle" x="1287" y="-62.6" font-family="Times,serif" font-size="14.00">RoleModule</text>
</g>
<!-- RoleModule&#45;&gt;ServerModule -->
<g id="edge13" class="edge">
<title>RoleModule&#45;&gt;ServerModule</title>
<path fill="none" stroke="black" d="M1287,-84.92C1287,-99.58 1287,-117.8 1287,-117.8 1287,-117.8 1457.71,-117.8 1457.71,-117.8"/>
<polygon fill="black" stroke="black" points="1457.71,-121.3 1467.71,-117.8 1457.71,-114.3 1457.71,-121.3"/>
</g>
<!-- SchoolApiModule -->
<g id="node14" class="node">
<title>SchoolApiModule</title>
<polygon fill="#8dd3c7" stroke="black" points="1225.94,-84.8 1222.94,-88.8 1201.94,-88.8 1198.94,-84.8 1106.06,-84.8 1106.06,-48.8 1225.94,-48.8 1225.94,-84.8"/>
<text text-anchor="middle" x="1166" y="-62.6" font-family="Times,serif" font-size="14.00">SchoolApiModule</text>
</g>
<!-- SchoolApiModule&#45;&gt;ServerModule -->
<g id="edge14" class="edge">
<title>SchoolApiModule&#45;&gt;ServerModule</title>
<path fill="none" stroke="black" d="M1166,-85.08C1166,-100.75 1166,-120.8 1166,-120.8 1166,-120.8 1457.7,-120.8 1457.7,-120.8"/>
<polygon fill="black" stroke="black" points="1457.7,-124.3 1467.7,-120.8 1457.7,-117.3 1457.7,-124.3"/>
</g>
<!-- SharingApiModule -->
<g id="node15" class="node">
<title>SharingApiModule</title>
<polygon fill="#8dd3c7" stroke="black" points="1088.1,-84.8 1085.1,-88.8 1064.1,-88.8 1061.1,-84.8 963.9,-84.8 963.9,-48.8 1088.1,-48.8 1088.1,-84.8"/>
<text text-anchor="middle" x="1026" y="-62.6" font-family="Times,serif" font-size="14.00">SharingApiModule</text>
</g>
<!-- SharingApiModule&#45;&gt;ServerModule -->
<g id="edge15" class="edge">
<title>SharingApiModule&#45;&gt;ServerModule</title>
<path fill="none" stroke="black" d="M1026,-84.84C1026,-101.53 1026,-123.8 1026,-123.8 1026,-123.8 1457.68,-123.8 1457.68,-123.8"/>
<polygon fill="black" stroke="black" points="1457.68,-127.3 1467.68,-123.8 1457.68,-120.3 1457.68,-127.3"/>
</g>
<!-- SystemModule -->
<g id="node16" class="node">
<title>SystemModule</title>
<polygon fill="#8dd3c7" stroke="black" points="946.28,-84.8 943.28,-88.8 922.28,-88.8 919.28,-84.8 845.72,-84.8 845.72,-48.8 946.28,-48.8 946.28,-84.8"/>
<text text-anchor="middle" x="896" y="-62.6" font-family="Times,serif" font-size="14.00">SystemModule</text>
</g>
<!-- SystemModule&#45;&gt;ServerModule -->
<g id="edge16" class="edge">
<title>SystemModule&#45;&gt;ServerModule</title>
<path fill="none" stroke="black" d="M896,-85.1C896,-103.07 896,-127.8 896,-127.8 896,-127.8 1457.87,-127.8 1457.87,-127.8"/>
<polygon fill="black" stroke="black" points="1457.87,-131.3 1467.87,-127.8 1457.87,-124.3 1457.87,-131.3"/>
</g>
<!-- TaskCardModule -->
<g id="node17" class="node">
<title>TaskCardModule</title>
<polygon fill="#8dd3c7" stroke="black" points="827.98,-84.8 824.98,-88.8 803.98,-88.8 800.98,-84.8 714.02,-84.8 714.02,-48.8 827.98,-48.8 827.98,-84.8"/>
<text text-anchor="middle" x="771" y="-62.6" font-family="Times,serif" font-size="14.00">TaskCardModule</text>
</g>
<!-- TaskCardModule&#45;&gt;ServerModule -->
<g id="edge17" class="edge">
<title>TaskCardModule&#45;&gt;ServerModule</title>
<path fill="none" stroke="black" d="M771,-84.97C771,-103.89 771,-130.8 771,-130.8 771,-130.8 1457.69,-130.8 1457.69,-130.8"/>
<polygon fill="black" stroke="black" points="1457.69,-134.3 1467.69,-130.8 1457.69,-127.3 1457.69,-134.3"/>
</g>
<!-- TaskModule -->
<g id="node18" class="node">
<title>TaskModule</title>
<polygon fill="#8dd3c7" stroke="black" points="696.27,-84.8 693.27,-88.8 672.27,-88.8 669.27,-84.8 609.73,-84.8 609.73,-48.8 696.27,-48.8 696.27,-84.8"/>
<text text-anchor="middle" x="653" y="-62.6" font-family="Times,serif" font-size="14.00">TaskModule</text>
</g>
<!-- TaskModule&#45;&gt;ServerModule -->
<g id="edge18" class="edge">
<title>TaskModule&#45;&gt;ServerModule</title>
<path fill="none" stroke="black" d="M653,-85.11C653,-104.95 653,-133.8 653,-133.8 653,-133.8 1457.75,-133.8 1457.75,-133.8"/>
<polygon fill="black" stroke="black" points="1457.75,-137.3 1467.75,-133.8 1457.75,-130.3 1457.75,-137.3"/>
</g>
<!-- ToolApiModule -->
<g id="node19" class="node">
<title>ToolApiModule</title>
<polygon fill="#8dd3c7" stroke="black" points="591.49,-84.8 588.49,-88.8 567.49,-88.8 564.49,-84.8 484.51,-84.8 484.51,-48.8 591.49,-48.8 591.49,-84.8"/>
<text text-anchor="middle" x="538" y="-62.6" font-family="Times,serif" font-size="14.00">ToolApiModule</text>
</g>
<!-- ToolApiModule&#45;&gt;ServerModule -->
<g id="edge19" class="edge">
<title>ToolApiModule&#45;&gt;ServerModule</title>
<path fill="none" stroke="black" d="M538,-84.83C538,-105.57 538,-136.8 538,-136.8 538,-136.8 1457.83,-136.8 1457.83,-136.8"/>
<polygon fill="black" stroke="black" points="1457.83,-140.3 1467.83,-136.8 1457.83,-133.3 1457.83,-140.3"/>
</g>
<!-- UserMigrationApiModule -->
<g id="node20" class="node">
<title>UserMigrationApiModule</title>
<polygon fill="#8dd3c7" stroke="black" points="466.48,-84.8 463.48,-88.8 442.48,-88.8 439.48,-84.8 303.52,-84.8 303.52,-48.8 466.48,-48.8 466.48,-84.8"/>
<text text-anchor="middle" x="385" y="-62.6" font-family="Times,serif" font-size="14.00">UserMigrationApiModule</text>
</g>
<!-- UserMigrationApiModule&#45;&gt;ServerModule -->
<g id="edge20" class="edge">
<title>UserMigrationApiModule&#45;&gt;ServerModule</title>
<path fill="none" stroke="black" d="M385,-85.09C385,-107.01 385,-140.8 385,-140.8 385,-140.8 1457.76,-140.8 1457.76,-140.8"/>
<polygon fill="black" stroke="black" points="1457.76,-144.3 1467.76,-140.8 1457.76,-137.3 1457.76,-144.3"/>
</g>
<!-- UserModule -->
<g id="node21" class="node">
<title>UserModule</title>
<polygon fill="#8dd3c7" stroke="black" points="285.99,-84.8 282.99,-88.8 261.99,-88.8 258.99,-84.8 200.01,-84.8 200.01,-48.8 285.99,-48.8 285.99,-84.8"/>
<text text-anchor="middle" x="243" y="-62.6" font-family="Times,serif" font-size="14.00">UserModule</text>
</g>
<!-- UserModule&#45;&gt;ServerModule -->
<g id="edge21" class="edge">
<title>UserModule&#45;&gt;ServerModule</title>
<path fill="none" stroke="black" d="M243,-85.05C243,-107.82 243,-143.8 243,-143.8 243,-143.8 1457.65,-143.8 1457.65,-143.8"/>
<polygon fill="black" stroke="black" points="1457.65,-147.3 1467.65,-143.8 1457.65,-140.3 1457.65,-147.3"/>
</g>
<!-- VideoConferenceModule -->
<g id="node22" class="node">
<title>VideoConferenceModule</title>
<polygon fill="#8dd3c7" stroke="black" points="182.28,-84.8 179.28,-88.8 158.28,-88.8 155.28,-84.8 23.72,-84.8 23.72,-48.8 182.28,-48.8 182.28,-84.8"/>
<text text-anchor="middle" x="103" y="-62.6" font-family="Times,serif" font-size="14.00">VideoConferenceModule</text>
</g>
<!-- VideoConferenceModule&#45;&gt;ServerModule -->
<g id="edge22" class="edge">
<title>VideoConferenceModule&#45;&gt;ServerModule</title>
<path fill="none" stroke="black" d="M103,-84.95C103,-108.56 103,-146.8 103,-146.8 103,-146.8 1457.77,-146.8 1457.77,-146.8"/>
<polygon fill="black" stroke="black" points="1457.77,-150.3 1467.77,-146.8 1457.77,-143.3 1457.77,-150.3"/>
</g>
</g>
</svg>
