<?xml version="1.0" encoding="UTF-8" standalone="no"?>
<!DOCTYPE svg PUBLIC "-//W3C//DTD SVG 1.1//EN"
 "http://www.w3.org/Graphics/SVG/1.1/DTD/svg11.dtd">
<!-- Generated by graphviz version 5.0.0 (20220707.1540)
 -->
<!-- Title: dependencies Pages: 1 -->
<svg width="1391pt" height="174pt"
 viewBox="0.00 0.00 1391.00 173.80" xmlns="http://www.w3.org/2000/svg" xmlns:xlink="http://www.w3.org/1999/xlink">
<g id="graph0" class="graph" transform="scale(1 1) rotate(0) translate(4 169.8)">
<title>dependencies</title>
<polygon fill="white" stroke="transparent" points="-4,4 -4,-169.8 1387,-169.8 1387,4 -4,4"/>
<text text-anchor="middle" x="691.5" y="-8.2" font-family="sans-serif" font-size="14.00">dependencies</text>
<g id="clust1" class="cluster">
<title>cluster_TaskModule</title>
<polygon fill="none" stroke="black" stroke-dasharray="1,5" points="8,-32.8 8,-157.8 1375,-157.8 1375,-32.8 8,-32.8"/>
</g>
<g id="clust6" class="cluster">
<title>cluster_TaskModule_providers</title>
<polygon fill="none" stroke="black" points="360,-40.8 360,-92.8 1367,-92.8 1367,-40.8 360,-40.8"/>
</g>
<g id="clust3" class="cluster">
<title>cluster_TaskModule_imports</title>
<polygon fill="none" stroke="black" points="16,-40.8 16,-92.8 352,-92.8 352,-40.8 16,-40.8"/>
</g>
<!-- AuthorizationModule -->
<g id="node1" class="node">
<title>AuthorizationModule</title>
<polygon fill="#8dd3c7" stroke="black" points="343.81,-84.8 340.81,-88.8 319.81,-88.8 316.81,-84.8 206.19,-84.8 206.19,-48.8 343.81,-48.8 343.81,-84.8"/>
<text text-anchor="middle" x="275" y="-62.6" font-family="Times,serif" font-size="14.00">AuthorizationModule</text>
</g>
<!-- TaskModule -->
<g id="node3" class="node">
<title>TaskModule</title>
<polygon fill="#8dd3c7" stroke="black" points="697.27,-149.8 694.27,-153.8 673.27,-153.8 670.27,-149.8 610.73,-149.8 610.73,-113.8 697.27,-113.8 697.27,-149.8"/>
<text text-anchor="middle" x="654" y="-127.6" font-family="Times,serif" font-size="14.00">TaskModule</text>
</g>
<!-- AuthorizationModule&#45;&gt;TaskModule -->
<g id="edge1" class="edge">
<title>AuthorizationModule&#45;&gt;TaskModule</title>
<path fill="none" stroke="black" d="M275,-84.93C275,-105.37 275,-135.8 275,-135.8 275,-135.8 600.52,-135.8 600.52,-135.8"/>
<polygon fill="black" stroke="black" points="600.52,-139.3 610.52,-135.8 600.52,-132.3 600.52,-139.3"/>
</g>
<!-- FilesStorageClientModule -->
<g id="node2" class="node">
<title>FilesStorageClientModule</title>
<polygon fill="#8dd3c7" stroke="black" points="187.77,-84.8 184.77,-88.8 163.77,-88.8 160.77,-84.8 24.23,-84.8 24.23,-48.8 187.77,-48.8 187.77,-84.8"/>
<text text-anchor="middle" x="106" y="-62.6" font-family="Times,serif" font-size="14.00">FilesStorageClientModule</text>
</g>
<!-- FilesStorageClientModule&#45;&gt;TaskModule -->
<g id="edge2" class="edge">
<title>FilesStorageClientModule&#45;&gt;TaskModule</title>
<path fill="none" stroke="black" d="M106,-84.81C106,-107.29 106,-142.8 106,-142.8 106,-142.8 600.54,-142.8 600.54,-142.8"/>
<polygon fill="black" stroke="black" points="600.54,-146.3 610.54,-142.8 600.54,-139.3 600.54,-146.3"/>
</g>
<!-- CopyHelperService -->
<g id="node4" class="node">
<title>CopyHelperService</title>
<ellipse fill="#fdb462" stroke="black" cx="1272" cy="-66.8" rx="87.39" ry="18"/>
<text text-anchor="middle" x="1272" y="-62.6" font-family="Times,serif" font-size="14.00">CopyHelperService</text>
</g>
<!-- CopyHelperService&#45;&gt;TaskModule -->
<g id="edge3" class="edge">
<title>CopyHelperService&#45;&gt;TaskModule</title>
<path fill="none" stroke="black" d="M1272,-84.81C1272,-107.29 1272,-142.8 1272,-142.8 1272,-142.8 707.46,-142.8 707.46,-142.8"/>
<polygon fill="black" stroke="black" points="707.46,-139.3 697.46,-142.8 707.46,-146.3 707.46,-139.3"/>
</g>
<!-- CourseRepo -->
<g id="node5" class="node">
<title>CourseRepo</title>
<ellipse fill="#fdb462" stroke="black" cx="1108" cy="-66.8" rx="58.56" ry="18"/>
<text text-anchor="middle" x="1108" y="-62.6" font-family="Times,serif" font-size="14.00">CourseRepo</text>
</g>
<!-- CourseRepo&#45;&gt;TaskModule -->
<g id="edge4" class="edge">
<title>CourseRepo&#45;&gt;TaskModule</title>
<path fill="none" stroke="black" d="M1108,-84.93C1108,-105.37 1108,-135.8 1108,-135.8 1108,-135.8 707.53,-135.8 707.53,-135.8"/>
<polygon fill="black" stroke="black" points="707.53,-132.3 697.53,-135.8 707.53,-139.3 707.53,-132.3"/>
</g>
<!-- LessonRepo -->
<g id="node6" class="node">
<title>LessonRepo</title>
<ellipse fill="#fdb462" stroke="black" cx="972" cy="-66.8" rx="58.56" ry="18"/>
<text text-anchor="middle" x="972" y="-62.6" font-family="Times,serif" font-size="14.00">LessonRepo</text>
</g>
<!-- LessonRepo&#45;&gt;TaskModule -->
<g id="edge5" class="edge">
<title>LessonRepo&#45;&gt;TaskModule</title>
<path fill="none" stroke="black" d="M972,-85.07C972,-103.36 972,-128.8 972,-128.8 972,-128.8 707.55,-128.8 707.55,-128.8"/>
<polygon fill="black" stroke="black" points="707.55,-125.3 697.55,-128.8 707.55,-132.3 707.55,-125.3"/>
</g>
<!-- TaskCopyService -->
<g id="node7" class="node">
<title>TaskCopyService</title>
<ellipse fill="#fdb462" stroke="black" cx="816" cy="-66.8" rx="79.88" ry="18"/>
<text text-anchor="middle" x="816" y="-62.6" font-family="Times,serif" font-size="14.00">TaskCopyService</text>
</g>
<!-- TaskCopyService&#45;&gt;TaskModule -->
<g id="edge6" class="edge">
<title>TaskCopyService&#45;&gt;TaskModule</title>
<path fill="none" stroke="black" d="M816,-84.81C816,-100.85 816,-121.8 816,-121.8 816,-121.8 707.41,-121.8 707.41,-121.8"/>
<polygon fill="black" stroke="black" points="707.41,-118.3 697.41,-121.8 707.41,-125.3 707.41,-118.3"/>
</g>
<!-- TaskCopyUC -->
<g id="node8" class="node">
<title>TaskCopyUC</title>
<ellipse fill="#fdb462" stroke="black" cx="654" cy="-66.8" rx="64.3" ry="18"/>
<text text-anchor="middle" x="654" y="-62.6" font-family="Times,serif" font-size="14.00">TaskCopyUC</text>
</g>
<!-- TaskCopyUC&#45;&gt;TaskModule -->
<g id="edge7" class="edge">
<title>TaskCopyUC&#45;&gt;TaskModule</title>
<path fill="none" stroke="black" d="M654,-84.91C654,-84.91 654,-103.79 654,-103.79"/>
<polygon fill="black" stroke="black" points="650.5,-103.79 654,-113.79 657.5,-103.79 650.5,-103.79"/>
</g>
<!-- TaskRepo -->
<g id="node9" class="node">
<title>TaskRepo</title>
<ellipse fill="#fdb462" stroke="black" cx="522" cy="-66.8" rx="50.39" ry="18"/>
<text text-anchor="middle" x="522" y="-62.6" font-family="Times,serif" font-size="14.00">TaskRepo</text>
</g>
<!-- TaskRepo&#45;&gt;TaskModule -->
<g id="edge8" class="edge">
<title>TaskRepo&#45;&gt;TaskModule</title>
<path fill="none" stroke="black" d="M522,-84.81C522,-100.85 522,-121.8 522,-121.8 522,-121.8 600.41,-121.8 600.41,-121.8"/>
<polygon fill="black" stroke="black" points="600.41,-125.3 610.41,-121.8 600.41,-118.3 600.41,-125.3"/>
</g>
<!-- TaskUC -->
<g id="node10" class="node">
<title>TaskUC</title>
<ellipse fill="#fdb462" stroke="black" cx="411" cy="-66.8" rx="43.45" ry="18"/>
<text text-anchor="middle" x="411" y="-62.6" font-family="Times,serif" font-size="14.00">TaskUC</text>
</g>
<!-- TaskUC&#45;&gt;TaskModule -->
<g id="edge9" class="edge">
<title>TaskUC&#45;&gt;TaskModule</title>
<path fill="none" stroke="black" d="M411,-85.07C411,-103.36 411,-128.8 411,-128.8 411,-128.8 600.56,-128.8 600.56,-128.8"/>
<polygon fill="black" stroke="black" points="600.56,-132.3 610.56,-128.8 600.56,-125.3 600.56,-132.3"/>
</g>
</g>
</svg>
