<?xml version="1.0" encoding="UTF-8" standalone="no"?>
<!DOCTYPE svg PUBLIC "-//W3C//DTD SVG 1.1//EN"
 "http://www.w3.org/Graphics/SVG/1.1/DTD/svg11.dtd">
<!-- Generated by graphviz version 5.0.0 (20220707.1540)
 -->
<!-- Title: dependencies Pages: 1 -->
<svg width="2549pt" height="247pt"
 viewBox="0.00 0.00 2549.00 246.80" xmlns="http://www.w3.org/2000/svg" xmlns:xlink="http://www.w3.org/1999/xlink">
<g id="graph0" class="graph" transform="scale(1 1) rotate(0) translate(4 242.8)">
<title>dependencies</title>
<polygon fill="white" stroke="transparent" points="-4,4 -4,-242.8 2545,-242.8 2545,4 -4,4"/>
<text text-anchor="middle" x="1270.5" y="-8.2" font-family="sans-serif" font-size="14.00">dependencies</text>
<g id="clust1" class="cluster">
<title>cluster_TaskModule</title>
<polygon fill="none" stroke="black" stroke-dasharray="1,5" points="8,-32.8 8,-230.8 2533,-230.8 2533,-32.8 8,-32.8"/>
</g>
<g id="clust4" class="cluster">
<title>cluster_TaskModule_exports</title>
<polygon fill="none" stroke="black" points="1150,-170.8 1150,-222.8 1254,-222.8 1254,-170.8 1150,-170.8"/>
</g>
<g id="clust6" class="cluster">
<title>cluster_TaskModule_providers</title>
<polygon fill="none" stroke="black" points="360,-40.8 360,-92.8 2525,-92.8 2525,-40.8 360,-40.8"/>
</g>
<g id="clust3" class="cluster">
<title>cluster_TaskModule_imports</title>
<polygon fill="none" stroke="black" points="16,-40.8 16,-92.8 352,-92.8 352,-40.8 16,-40.8"/>
</g>
<!-- AuthorizationModule -->
<g id="node1" class="node">
<title>AuthorizationModule</title>
<polygon fill="#8dd3c7" stroke="black" points="343.81,-84.8 340.81,-88.8 319.81,-88.8 316.81,-84.8 206.19,-84.8 206.19,-48.8 343.81,-48.8 343.81,-84.8"/>
<text text-anchor="middle" x="275" y="-62.6" font-family="Times,serif" font-size="14.00">AuthorizationModule</text>
</g>
<!-- TaskModule -->
<g id="node3" class="node">
<title>TaskModule</title>
<polygon fill="#8dd3c7" stroke="black" points="1245.27,-149.8 1242.27,-153.8 1221.27,-153.8 1218.27,-149.8 1158.73,-149.8 1158.73,-113.8 1245.27,-113.8 1245.27,-149.8"/>
<text text-anchor="middle" x="1202" y="-127.6" font-family="Times,serif" font-size="14.00">TaskModule</text>
</g>
<!-- AuthorizationModule&#45;&gt;TaskModule -->
<g id="edge1" class="edge">
<title>AuthorizationModule&#45;&gt;TaskModule</title>
<path fill="none" stroke="black" d="M275,-85.09C275,-107.01 275,-140.8 275,-140.8 275,-140.8 1148.53,-140.8 1148.53,-140.8"/>
<polygon fill="black" stroke="black" points="1148.53,-144.3 1158.53,-140.8 1148.53,-137.3 1148.53,-144.3"/>
</g>
<!-- FilesStorageClientModule -->
<g id="node2" class="node">
<title>FilesStorageClientModule</title>
<polygon fill="#8dd3c7" stroke="black" points="187.77,-84.8 184.77,-88.8 163.77,-88.8 160.77,-84.8 24.23,-84.8 24.23,-48.8 187.77,-48.8 187.77,-84.8"/>
<text text-anchor="middle" x="106" y="-62.6" font-family="Times,serif" font-size="14.00">FilesStorageClientModule</text>
</g>
<!-- FilesStorageClientModule&#45;&gt;TaskModule -->
<g id="edge2" class="edge">
<title>FilesStorageClientModule&#45;&gt;TaskModule</title>
<path fill="none" stroke="black" d="M106,-85.12C106,-108.46 106,-145.8 106,-145.8 106,-145.8 1148.7,-145.8 1148.7,-145.8"/>
<polygon fill="black" stroke="black" points="1148.7,-149.3 1158.7,-145.8 1148.7,-142.3 1148.7,-149.3"/>
</g>
<!-- TaskService  -->
<g id="node4" class="node">
<title>TaskService </title>
<polygon fill="#fb8072" stroke="black" points="1246.19,-214.8 1157.81,-214.8 1157.81,-178.8 1246.19,-178.8 1246.19,-214.8"/>
<text text-anchor="middle" x="1202" y="-192.6" font-family="Times,serif" font-size="14.00">TaskService </text>
</g>
<!-- TaskModule&#45;&gt;TaskService  -->
<g id="edge3" class="edge">
<title>TaskModule&#45;&gt;TaskService </title>
<path fill="none" stroke="black" stroke-dasharray="5,2" d="M1202,-149.91C1202,-149.91 1202,-168.79 1202,-168.79"/>
<polygon fill="black" stroke="black" points="1198.5,-168.79 1202,-178.79 1205.5,-168.79 1198.5,-168.79"/>
</g>
<!-- CopyHelperService -->
<g id="node5" class="node">
<title>CopyHelperService</title>
<ellipse fill="#fdb462" stroke="black" cx="2430" cy="-66.8" rx="87.39" ry="18"/>
<text text-anchor="middle" x="2430" y="-62.6" font-family="Times,serif" font-size="14.00">CopyHelperService</text>
</g>
<!-- CopyHelperService&#45;&gt;TaskModule -->
<g id="edge4" class="edge">
<title>CopyHelperService&#45;&gt;TaskModule</title>
<path fill="none" stroke="black" d="M2430,-85.12C2430,-108.46 2430,-145.8 2430,-145.8 2430,-145.8 1255.34,-145.8 1255.34,-145.8"/>
<polygon fill="black" stroke="black" points="1255.34,-142.3 1245.34,-145.8 1255.34,-149.3 1255.34,-142.3"/>
</g>
<!-- CourseRepo -->
<g id="node6" class="node">
<title>CourseRepo</title>
<ellipse fill="#fdb462" stroke="black" cx="2266" cy="-66.8" rx="58.56" ry="18"/>
<text text-anchor="middle" x="2266" y="-62.6" font-family="Times,serif" font-size="14.00">CourseRepo</text>
</g>
<!-- CourseRepo&#45;&gt;TaskModule -->
<g id="edge5" class="edge">
<title>CourseRepo&#45;&gt;TaskModule</title>
<path fill="none" stroke="black" d="M2266,-85.09C2266,-107.01 2266,-140.8 2266,-140.8 2266,-140.8 1255.36,-140.8 1255.36,-140.8"/>
<polygon fill="black" stroke="black" points="1255.36,-137.3 1245.36,-140.8 1255.36,-144.3 1255.36,-137.3"/>
</g>
<!-- FeathersServiceProvider -->
<g id="node7" class="node">
<title>FeathersServiceProvider</title>
<ellipse fill="#fdb462" stroke="black" cx="2083" cy="-66.8" rx="105.93" ry="18"/>
<text text-anchor="middle" x="2083" y="-62.6" font-family="Times,serif" font-size="14.00">FeathersServiceProvider</text>
</g>
<!-- FeathersServiceProvider&#45;&gt;TaskModule -->
<g id="edge6" class="edge">
<title>FeathersServiceProvider&#45;&gt;TaskModule</title>
<path fill="none" stroke="black" d="M2083,-84.83C2083,-105.57 2083,-136.8 2083,-136.8 2083,-136.8 1255.39,-136.8 1255.39,-136.8"/>
<polygon fill="black" stroke="black" points="1255.39,-133.3 1245.39,-136.8 1255.39,-140.3 1255.39,-133.3"/>
</g>
<!-- FileLegacyService -->
<g id="node8" class="node">
<title>FileLegacyService</title>
<ellipse fill="#fdb462" stroke="black" cx="1876" cy="-66.8" rx="83.36" ry="18"/>
<text text-anchor="middle" x="1876" y="-62.6" font-family="Times,serif" font-size="14.00">FileLegacyService</text>
</g>
<!-- FileLegacyService&#45;&gt;TaskModule -->
<g id="edge7" class="edge">
<title>FileLegacyService&#45;&gt;TaskModule</title>
<path fill="none" stroke="black" d="M1876,-84.91C1876,-104.14 1876,-131.8 1876,-131.8 1876,-131.8 1255.45,-131.8 1255.45,-131.8"/>
<polygon fill="black" stroke="black" points="1255.45,-128.3 1245.45,-131.8 1255.45,-135.3 1255.45,-128.3"/>
</g>
<!-- LessonRepo -->
<g id="node9" class="node">
<title>LessonRepo</title>
<ellipse fill="#fdb462" stroke="black" cx="1716" cy="-66.8" rx="58.56" ry="18"/>
<text text-anchor="middle" x="1716" y="-62.6" font-family="Times,serif" font-size="14.00">LessonRepo</text>
</g>
<!-- LessonRepo&#45;&gt;TaskModule -->
<g id="edge8" class="edge">
<title>LessonRepo&#45;&gt;TaskModule</title>
<path fill="none" stroke="black" d="M1716,-85.1C1716,-103.07 1716,-127.8 1716,-127.8 1716,-127.8 1255.38,-127.8 1255.38,-127.8"/>
<polygon fill="black" stroke="black" points="1255.38,-124.3 1245.38,-127.8 1255.38,-131.3 1255.38,-124.3"/>
</g>
<!-- Logger -->
<g id="node10" class="node">
<title>Logger</title>
<ellipse fill="#fdb462" stroke="black" cx="1600" cy="-66.8" rx="38.85" ry="18"/>
<text text-anchor="middle" x="1600" y="-62.6" font-family="Times,serif" font-size="14.00">Logger</text>
</g>
<!-- Logger&#45;&gt;TaskModule -->
<g id="edge9" class="edge">
<title>Logger&#45;&gt;TaskModule</title>
<path fill="none" stroke="black" d="M1600,-84.83C1600,-101.2 1600,-122.8 1600,-122.8 1600,-122.8 1255.35,-122.8 1255.35,-122.8"/>
<polygon fill="black" stroke="black" points="1255.35,-119.3 1245.35,-122.8 1255.35,-126.3 1255.35,-119.3"/>
</g>
<!-- SubmissionRepo -->
<g id="node11" class="node">
<title>SubmissionRepo</title>
<ellipse fill="#fdb462" stroke="black" cx="1467" cy="-66.8" rx="76.5" ry="18"/>
<text text-anchor="middle" x="1467" y="-62.6" font-family="Times,serif" font-size="14.00">SubmissionRepo</text>
</g>
<!-- SubmissionRepo&#45;&gt;TaskModule -->
<g id="edge10" class="edge">
<title>SubmissionRepo&#45;&gt;TaskModule</title>
<path fill="none" stroke="black" d="M1467,-84.99C1467,-99.98 1467,-118.8 1467,-118.8 1467,-118.8 1255.46,-118.8 1255.46,-118.8"/>
<polygon fill="black" stroke="black" points="1255.46,-115.3 1245.46,-118.8 1255.46,-122.3 1255.46,-115.3"/>
</g>
<!-- SubmissionService -->
<g id="node12" class="node">
<title>SubmissionService</title>
<ellipse fill="#fdb462" stroke="black" cx="1287" cy="-66.8" rx="85.14" ry="18"/>
<text text-anchor="middle" x="1287" y="-62.6" font-family="Times,serif" font-size="14.00">SubmissionService</text>
</g>
<!-- SubmissionService&#45;&gt;TaskModule -->
<g id="edge11" class="edge">
<title>SubmissionService&#45;&gt;TaskModule</title>
<path fill="none" stroke="black" d="M1223.66,-79.03C1223.66,-79.03 1223.66,-103.48 1223.66,-103.48"/>
<polygon fill="black" stroke="black" points="1220.16,-103.48 1223.66,-113.48 1227.16,-103.48 1220.16,-103.48"/>
</g>
<!-- SubmissionUc -->
<g id="node13" class="node">
<title>SubmissionUc</title>
<ellipse fill="#fdb462" stroke="black" cx="1117" cy="-66.8" rx="67.25" ry="18"/>
<text text-anchor="middle" x="1117" y="-62.6" font-family="Times,serif" font-size="14.00">SubmissionUc</text>
</g>
<!-- SubmissionUc&#45;&gt;TaskModule -->
<g id="edge12" class="edge">
<title>SubmissionUc&#45;&gt;TaskModule</title>
<path fill="none" stroke="black" d="M1171.5,-77.53C1171.5,-77.53 1171.5,-103.67 1171.5,-103.67"/>
<polygon fill="black" stroke="black" points="1168,-103.67 1171.5,-113.67 1175,-103.67 1168,-103.67"/>
</g>
<!-- TaskCopyService -->
<g id="node14" class="node">
<title>TaskCopyService</title>
<ellipse fill="#fdb462" stroke="black" cx="952" cy="-66.8" rx="79.88" ry="18"/>
<text text-anchor="middle" x="952" y="-62.6" font-family="Times,serif" font-size="14.00">TaskCopyService</text>
</g>
<!-- TaskCopyService&#45;&gt;TaskModule -->
<g id="edge13" class="edge">
<title>TaskCopyService&#45;&gt;TaskModule</title>
<path fill="none" stroke="black" d="M952,-84.99C952,-99.98 952,-118.8 952,-118.8 952,-118.8 1148.45,-118.8 1148.45,-118.8"/>
<polygon fill="black" stroke="black" points="1148.45,-122.3 1158.45,-118.8 1148.45,-115.3 1148.45,-122.3"/>
</g>
<!-- TaskCopyUC -->
<g id="node15" class="node">
<title>TaskCopyUC</title>
<ellipse fill="#fdb462" stroke="black" cx="790" cy="-66.8" rx="64.3" ry="18"/>
<text text-anchor="middle" x="790" y="-62.6" font-family="Times,serif" font-size="14.00">TaskCopyUC</text>
</g>
<!-- TaskCopyUC&#45;&gt;TaskModule -->
<g id="edge14" class="edge">
<title>TaskCopyUC&#45;&gt;TaskModule</title>
<path fill="none" stroke="black" d="M790,-84.83C790,-101.2 790,-122.8 790,-122.8 790,-122.8 1148.69,-122.8 1148.69,-122.8"/>
<polygon fill="black" stroke="black" points="1148.69,-126.3 1158.69,-122.8 1148.69,-119.3 1148.69,-126.3"/>
</g>
<!-- TaskRepo -->
<g id="node16" class="node">
<title>TaskRepo</title>
<ellipse fill="#fdb462" stroke="black" cx="658" cy="-66.8" rx="50.39" ry="18"/>
<text text-anchor="middle" x="658" y="-62.6" font-family="Times,serif" font-size="14.00">TaskRepo</text>
</g>
<!-- TaskRepo&#45;&gt;TaskModule -->
<g id="edge15" class="edge">
<title>TaskRepo&#45;&gt;TaskModule</title>
<path fill="none" stroke="black" d="M658,-85.1C658,-103.07 658,-127.8 658,-127.8 658,-127.8 1148.4,-127.8 1148.4,-127.8"/>
<polygon fill="black" stroke="black" points="1148.4,-131.3 1158.4,-127.8 1148.4,-124.3 1148.4,-131.3"/>
</g>
<!-- TaskService -->
<g id="node17" class="node">
<title>TaskService</title>
<ellipse fill="#fdb462" stroke="black" cx="531" cy="-66.8" rx="58.53" ry="18"/>
<text text-anchor="middle" x="531" y="-62.6" font-family="Times,serif" font-size="14.00">TaskService</text>
</g>
<!-- TaskService&#45;&gt;TaskModule -->
<g id="edge16" class="edge">
<title>TaskService&#45;&gt;TaskModule</title>
<path fill="none" stroke="black" d="M531,-84.91C531,-104.14 531,-131.8 531,-131.8 531,-131.8 1148.49,-131.8 1148.49,-131.8"/>
<polygon fill="black" stroke="black" points="1148.49,-135.3 1158.49,-131.8 1148.49,-128.3 1148.49,-135.3"/>
</g>
<!-- TaskUC -->
<g id="node18" class="node">
<title>TaskUC</title>
<ellipse fill="#fdb462" stroke="black" cx="411" cy="-66.8" rx="43.45" ry="18"/>
<text text-anchor="middle" x="411" y="-62.6" font-family="Times,serif" font-size="14.00">TaskUC</text>
</g>
<!-- TaskUC&#45;&gt;TaskModule -->
<g id="edge17" class="edge">
<title>TaskUC&#45;&gt;TaskModule</title>
<path fill="none" stroke="black" d="M411,-84.83C411,-105.57 411,-136.8 411,-136.8 411,-136.8 1148.63,-136.8 1148.63,-136.8"/>
<polygon fill="black" stroke="black" points="1148.63,-140.3 1158.63,-136.8 1148.63,-133.3 1148.63,-140.3"/>
</g>
</g>
</svg>
