<?xml version="1.0" encoding="UTF-8" standalone="no"?>
<!DOCTYPE svg PUBLIC "-//W3C//DTD SVG 1.1//EN"
 "http://www.w3.org/Graphics/SVG/1.1/DTD/svg11.dtd">
<!-- Generated by graphviz version 2.47.3 (20210619.1520)
 -->
<!-- Title: dependencies Pages: 1 -->
<svg width="775pt" height="174pt"
 viewBox="0.00 0.00 775.00 173.80" xmlns="http://www.w3.org/2000/svg" xmlns:xlink="http://www.w3.org/1999/xlink">
<g id="graph0" class="graph" transform="scale(1 1) rotate(0) translate(4 169.8)">
<title>dependencies</title>
<polygon fill="white" stroke="transparent" points="-4,4 -4,-169.8 771,-169.8 771,4 -4,4"/>
<text text-anchor="middle" x="383.5" y="-8.2" font-family="sans-serif" font-size="14.00">dependencies</text>
<g id="clust1" class="cluster">
<title>cluster_TaskModule</title>
<polygon fill="none" stroke="black" stroke-dasharray="1,5" points="8,-32.8 8,-157.8 759,-157.8 759,-32.8 8,-32.8"/>
</g>
<g id="clust6" class="cluster">
<title>cluster_TaskModule_providers</title>
<polygon fill="none" stroke="black" points="16,-40.8 16,-92.8 751,-92.8 751,-40.8 16,-40.8"/>
</g>
<!-- CourseRepo -->
<g id="node1" class="node">
<title>CourseRepo</title>
<ellipse fill="#fdb462" stroke="black" cx="684" cy="-66.8" rx="58.55" ry="18"/>
<text text-anchor="middle" x="684" y="-62.6" font-family="Times,serif" font-size="14.00">CourseRepo</text>
</g>
<!-- TaskModule -->
<g id="node6" class="node">
<title>TaskModule</title>
<polygon fill="#8dd3c7" stroke="black" points="402.26,-149.8 399.26,-153.8 378.26,-153.8 375.26,-149.8 315.74,-149.8 315.74,-113.8 402.26,-113.8 402.26,-149.8"/>
<text text-anchor="middle" x="359" y="-127.6" font-family="Times,serif" font-size="14.00">TaskModule</text>
</g>
<!-- CourseRepo&#45;&gt;TaskModule -->
<g id="edge1" class="edge">
<title>CourseRepo&#45;&gt;TaskModule</title>
<path fill="none" stroke="black" d="M684,-85.08C684,-106.12 684,-137.8 684,-137.8 684,-137.8 412.49,-137.8 412.49,-137.8"/>
<polygon fill="black" stroke="black" points="412.49,-134.3 402.49,-137.8 412.49,-141.3 412.49,-134.3"/>
</g>
<!-- LessonRepo -->
<g id="node2" class="node">
<title>LessonRepo</title>
<ellipse fill="#fdb462" stroke="black" cx="548" cy="-66.8" rx="58.55" ry="18"/>
<text text-anchor="middle" x="548" y="-62.6" font-family="Times,serif" font-size="14.00">LessonRepo</text>
</g>
<!-- LessonRepo&#45;&gt;TaskModule -->
<g id="edge2" class="edge">
<title>LessonRepo&#45;&gt;TaskModule</title>
<path fill="none" stroke="black" d="M548,-84.82C548,-102.17 548,-125.8 548,-125.8 548,-125.8 412.36,-125.8 412.36,-125.8"/>
<polygon fill="black" stroke="black" points="412.36,-122.3 402.36,-125.8 412.36,-129.3 412.36,-122.3"/>
</g>
<!-- TaskAuthorizationService -->
<g id="node3" class="node">
<title>TaskAuthorizationService</title>
<ellipse fill="#fdb462" stroke="black" cx="359" cy="-66.8" rx="112.3" ry="18"/>
<text text-anchor="middle" x="359" y="-62.6" font-family="Times,serif" font-size="14.00">TaskAuthorizationService</text>
</g>
<!-- TaskAuthorizationService&#45;&gt;TaskModule -->
<g id="edge3" class="edge">
<title>TaskAuthorizationService&#45;&gt;TaskModule</title>
<path fill="none" stroke="black" d="M359,-84.91C359,-84.91 359,-103.79 359,-103.79"/>
<polygon fill="black" stroke="black" points="355.5,-103.79 359,-113.79 362.5,-103.79 355.5,-103.79"/>
</g>
<!-- TaskRepo -->
<g id="node4" class="node">
<title>TaskRepo</title>
<ellipse fill="#fdb462" stroke="black" cx="178" cy="-66.8" rx="50.38" ry="18"/>
<text text-anchor="middle" x="178" y="-62.6" font-family="Times,serif" font-size="14.00">TaskRepo</text>
</g>
<!-- TaskRepo&#45;&gt;TaskModule -->
<g id="edge4" class="edge">
<title>TaskRepo&#45;&gt;TaskModule</title>
<path fill="none" stroke="black" d="M178,-84.82C178,-102.17 178,-125.8 178,-125.8 178,-125.8 305.65,-125.8 305.65,-125.8"/>
<polygon fill="black" stroke="black" points="305.65,-129.3 315.65,-125.8 305.65,-122.3 305.65,-129.3"/>
</g>
<!-- TaskUC -->
<g id="node5" class="node">
<title>TaskUC</title>
<ellipse fill="#fdb462" stroke="black" cx="67" cy="-66.8" rx="43.44" ry="18"/>
<text text-anchor="middle" x="67" y="-62.6" font-family="Times,serif" font-size="14.00">TaskUC</text>
</g>
<!-- TaskUC&#45;&gt;TaskModule -->
<g id="edge5" class="edge">
<title>TaskUC&#45;&gt;TaskModule</title>
<path fill="none" stroke="black" d="M67,-85.08C67,-106.12 67,-137.8 67,-137.8 67,-137.8 305.6,-137.8 305.6,-137.8"/>
<polygon fill="black" stroke="black" points="305.6,-141.3 315.6,-137.8 305.6,-134.3 305.6,-141.3"/>
</g>
</g>
</svg>
