<?xml version="1.0" encoding="UTF-8" standalone="no"?>
<!DOCTYPE svg PUBLIC "-//W3C//DTD SVG 1.1//EN"
 "http://www.w3.org/Graphics/SVG/1.1/DTD/svg11.dtd">
<!-- Generated by graphviz version 5.0.0 (20220707.1540)
 -->
<!-- Title: dependencies Pages: 1 -->
<svg width="2549pt" height="247pt"
 viewBox="0.00 0.00 2549.00 246.80" xmlns="http://www.w3.org/2000/svg" xmlns:xlink="http://www.w3.org/1999/xlink">
<g id="graph0" class="graph" transform="scale(1 1) rotate(0) translate(4 242.8)">
<title>dependencies</title>
<polygon fill="white" stroke="transparent" points="-4,4 -4,-242.8 2545,-242.8 2545,4 -4,4"/>
<text text-anchor="middle" x="1270.5" y="-8.2" font-family="sans-serif" font-size="14.00">dependencies</text>
<g id="clust1" class="cluster">
<title>cluster_TaskModule</title>
<polygon fill="none" stroke="black" stroke-dasharray="1,5" points="8,-32.8 8,-230.8 2533,-230.8 2533,-32.8 8,-32.8"/>
</g>
<g id="clust3" class="cluster">
<title>cluster_TaskModule_imports</title>
<polygon fill="none" stroke="black" points="2189,-40.8 2189,-92.8 2525,-92.8 2525,-40.8 2189,-40.8"/>
</g>
<g id="clust4" class="cluster">
<title>cluster_TaskModule_exports</title>
<polygon fill="none" stroke="black" points="1137,-170.8 1137,-222.8 1241,-222.8 1241,-170.8 1137,-170.8"/>
</g>
<g id="clust6" class="cluster">
<title>cluster_TaskModule_providers</title>
<polygon fill="none" stroke="black" points="16,-40.8 16,-92.8 2181,-92.8 2181,-40.8 16,-40.8"/>
</g>
<!-- AuthorizationModule -->
<g id="node1" class="node">
<title>AuthorizationModule</title>
<polygon fill="#8dd3c7" stroke="black" points="2516.81,-84.8 2513.81,-88.8 2492.81,-88.8 2489.81,-84.8 2379.19,-84.8 2379.19,-48.8 2516.81,-48.8 2516.81,-84.8"/>
<text text-anchor="middle" x="2448" y="-62.6" font-family="Times,serif" font-size="14.00">AuthorizationModule</text>
</g>
<!-- TaskModule -->
<g id="node3" class="node">
<title>TaskModule</title>
<polygon fill="#8dd3c7" stroke="black" points="1232.27,-149.8 1229.27,-153.8 1208.27,-153.8 1205.27,-149.8 1145.73,-149.8 1145.73,-113.8 1232.27,-113.8 1232.27,-149.8"/>
<text text-anchor="middle" x="1189" y="-127.6" font-family="Times,serif" font-size="14.00">TaskModule</text>
</g>
<!-- AuthorizationModule&#45;&gt;TaskModule -->
<g id="edge1" class="edge">
<title>AuthorizationModule&#45;&gt;TaskModule</title>
<path fill="none" stroke="black" d="M2448,-85.12C2448,-108.46 2448,-145.8 2448,-145.8 2448,-145.8 1242.34,-145.8 1242.34,-145.8"/>
<polygon fill="black" stroke="black" points="1242.34,-142.3 1232.34,-145.8 1242.34,-149.3 1242.34,-142.3"/>
</g>
<!-- FilesStorageClientModule -->
<g id="node2" class="node">
<title>FilesStorageClientModule</title>
<polygon fill="#8dd3c7" stroke="black" points="2360.77,-84.8 2357.77,-88.8 2336.77,-88.8 2333.77,-84.8 2197.23,-84.8 2197.23,-48.8 2360.77,-48.8 2360.77,-84.8"/>
<text text-anchor="middle" x="2279" y="-62.6" font-family="Times,serif" font-size="14.00">FilesStorageClientModule</text>
</g>
<!-- FilesStorageClientModule&#45;&gt;TaskModule -->
<g id="edge2" class="edge">
<title>FilesStorageClientModule&#45;&gt;TaskModule</title>
<path fill="none" stroke="black" d="M2279,-85.09C2279,-107.01 2279,-140.8 2279,-140.8 2279,-140.8 1242.4,-140.8 1242.4,-140.8"/>
<polygon fill="black" stroke="black" points="1242.4,-137.3 1232.4,-140.8 1242.4,-144.3 1242.4,-137.3"/>
</g>
<!-- TaskService  -->
<g id="node4" class="node">
<title>TaskService </title>
<polygon fill="#fb8072" stroke="black" points="1233.19,-214.8 1144.81,-214.8 1144.81,-178.8 1233.19,-178.8 1233.19,-214.8"/>
<text text-anchor="middle" x="1189" y="-192.6" font-family="Times,serif" font-size="14.00">TaskService </text>
</g>
<!-- TaskModule&#45;&gt;TaskService  -->
<g id="edge3" class="edge">
<title>TaskModule&#45;&gt;TaskService </title>
<path fill="none" stroke="black" stroke-dasharray="5,2" d="M1189,-149.91C1189,-149.91 1189,-168.79 1189,-168.79"/>
<polygon fill="black" stroke="black" points="1185.5,-168.79 1189,-178.79 1192.5,-168.79 1185.5,-168.79"/>
</g>
<!-- CopyHelperService -->
<g id="node5" class="node">
<title>CopyHelperService</title>
<ellipse fill="#fdb462" stroke="black" cx="2086" cy="-66.8" rx="87.39" ry="18"/>
<text text-anchor="middle" x="2086" y="-62.6" font-family="Times,serif" font-size="14.00">CopyHelperService</text>
</g>
<!-- CopyHelperService&#45;&gt;TaskModule -->
<g id="edge4" class="edge">
<title>CopyHelperService&#45;&gt;TaskModule</title>
<path fill="none" stroke="black" d="M2086,-84.83C2086,-105.57 2086,-136.8 2086,-136.8 2086,-136.8 1242.57,-136.8 1242.57,-136.8"/>
<polygon fill="black" stroke="black" points="1242.57,-133.3 1232.57,-136.8 1242.57,-140.3 1242.57,-133.3"/>
</g>
<!-- CourseRepo -->
<g id="node6" class="node">
<title>CourseRepo</title>
<ellipse fill="#fdb462" stroke="black" cx="1922" cy="-66.8" rx="58.56" ry="18"/>
<text text-anchor="middle" x="1922" y="-62.6" font-family="Times,serif" font-size="14.00">CourseRepo</text>
</g>
<!-- CourseRepo&#45;&gt;TaskModule -->
<g id="edge5" class="edge">
<title>CourseRepo&#45;&gt;TaskModule</title>
<path fill="none" stroke="black" d="M1922,-84.91C1922,-104.14 1922,-131.8 1922,-131.8 1922,-131.8 1242.39,-131.8 1242.39,-131.8"/>
<polygon fill="black" stroke="black" points="1242.39,-128.3 1232.39,-131.8 1242.39,-135.3 1242.39,-128.3"/>
</g>
<!-- FeathersServiceProvider -->
<g id="node7" class="node">
<title>FeathersServiceProvider</title>
<ellipse fill="#fdb462" stroke="black" cx="1739" cy="-66.8" rx="105.93" ry="18"/>
<text text-anchor="middle" x="1739" y="-62.6" font-family="Times,serif" font-size="14.00">FeathersServiceProvider</text>
</g>
<!-- FeathersServiceProvider&#45;&gt;TaskModule -->
<g id="edge6" class="edge">
<title>FeathersServiceProvider&#45;&gt;TaskModule</title>
<path fill="none" stroke="black" d="M1739,-85.1C1739,-103.07 1739,-127.8 1739,-127.8 1739,-127.8 1242.62,-127.8 1242.62,-127.8"/>
<polygon fill="black" stroke="black" points="1242.62,-124.3 1232.62,-127.8 1242.62,-131.3 1242.62,-124.3"/>
</g>
<!-- FileLegacyService -->
<g id="node8" class="node">
<title>FileLegacyService</title>
<ellipse fill="#fdb462" stroke="black" cx="1532" cy="-66.8" rx="83.36" ry="18"/>
<text text-anchor="middle" x="1532" y="-62.6" font-family="Times,serif" font-size="14.00">FileLegacyService</text>
</g>
<!-- FileLegacyService&#45;&gt;TaskModule -->
<g id="edge7" class="edge">
<title>FileLegacyService&#45;&gt;TaskModule</title>
<path fill="none" stroke="black" d="M1532,-84.83C1532,-101.2 1532,-122.8 1532,-122.8 1532,-122.8 1242.44,-122.8 1242.44,-122.8"/>
<polygon fill="black" stroke="black" points="1242.44,-119.3 1232.44,-122.8 1242.44,-126.3 1242.44,-119.3"/>
</g>
<!-- LessonRepo -->
<g id="node9" class="node">
<title>LessonRepo</title>
<ellipse fill="#fdb462" stroke="black" cx="1372" cy="-66.8" rx="58.56" ry="18"/>
<text text-anchor="middle" x="1372" y="-62.6" font-family="Times,serif" font-size="14.00">LessonRepo</text>
</g>
<!-- LessonRepo&#45;&gt;TaskModule -->
<g id="edge8" class="edge">
<title>LessonRepo&#45;&gt;TaskModule</title>
<path fill="none" stroke="black" d="M1372,-84.99C1372,-99.98 1372,-118.8 1372,-118.8 1372,-118.8 1242.37,-118.8 1242.37,-118.8"/>
<polygon fill="black" stroke="black" points="1242.37,-115.3 1232.37,-118.8 1242.37,-122.3 1242.37,-115.3"/>
</g>
<!-- Logger -->
<g id="node10" class="node">
<title>Logger</title>
<ellipse fill="#fdb462" stroke="black" cx="1256" cy="-66.8" rx="38.85" ry="18"/>
<text text-anchor="middle" x="1256" y="-62.6" font-family="Times,serif" font-size="14.00">Logger</text>
</g>
<!-- Logger&#45;&gt;TaskModule -->
<g id="edge9" class="edge">
<title>Logger&#45;&gt;TaskModule</title>
<path fill="none" stroke="black" d="M1224.73,-77.53C1224.73,-77.53 1224.73,-103.67 1224.73,-103.67"/>
<polygon fill="black" stroke="black" points="1221.23,-103.67 1224.73,-113.67 1228.23,-103.67 1221.23,-103.67"/>
</g>
<!-- SubmissionRepo -->
<g id="node11" class="node">
<title>SubmissionRepo</title>
<ellipse fill="#fdb462" stroke="black" cx="1123" cy="-66.8" rx="76.5" ry="18"/>
<text text-anchor="middle" x="1123" y="-62.6" font-family="Times,serif" font-size="14.00">SubmissionRepo</text>
</g>
<!-- SubmissionRepo&#45;&gt;TaskModule -->
<g id="edge10" class="edge">
<title>SubmissionRepo&#45;&gt;TaskModule</title>
<path fill="none" stroke="black" d="M1172.56,-80.58C1172.56,-80.58 1172.56,-103.35 1172.56,-103.35"/>
<polygon fill="black" stroke="black" points="1169.06,-103.35 1172.56,-113.35 1176.06,-103.35 1169.06,-103.35"/>
</g>
<!-- SubmissionService -->
<g id="node12" class="node">
<title>SubmissionService</title>
<ellipse fill="#fdb462" stroke="black" cx="943" cy="-66.8" rx="85.14" ry="18"/>
<text text-anchor="middle" x="943" y="-62.6" font-family="Times,serif" font-size="14.00">SubmissionService</text>
</g>
<!-- SubmissionService&#45;&gt;TaskModule -->
<g id="edge11" class="edge">
<title>SubmissionService&#45;&gt;TaskModule</title>
<path fill="none" stroke="black" d="M943,-84.99C943,-99.98 943,-118.8 943,-118.8 943,-118.8 1135.59,-118.8 1135.59,-118.8"/>
<polygon fill="black" stroke="black" points="1135.59,-122.3 1145.59,-118.8 1135.59,-115.3 1135.59,-122.3"/>
</g>
<!-- SubmissionUc -->
<g id="node13" class="node">
<title>SubmissionUc</title>
<ellipse fill="#fdb462" stroke="black" cx="773" cy="-66.8" rx="67.25" ry="18"/>
<text text-anchor="middle" x="773" y="-62.6" font-family="Times,serif" font-size="14.00">SubmissionUc</text>
</g>
<!-- SubmissionUc&#45;&gt;TaskModule -->
<g id="edge12" class="edge">
<title>SubmissionUc&#45;&gt;TaskModule</title>
<path fill="none" stroke="black" d="M773,-84.83C773,-101.2 773,-122.8 773,-122.8 773,-122.8 1135.66,-122.8 1135.66,-122.8"/>
<polygon fill="black" stroke="black" points="1135.66,-126.3 1145.66,-122.8 1135.66,-119.3 1135.66,-126.3"/>
</g>
<!-- TaskCopyService -->
<g id="node14" class="node">
<title>TaskCopyService</title>
<ellipse fill="#fdb462" stroke="black" cx="608" cy="-66.8" rx="79.88" ry="18"/>
<text text-anchor="middle" x="608" y="-62.6" font-family="Times,serif" font-size="14.00">TaskCopyService</text>
</g>
<!-- TaskCopyService&#45;&gt;TaskModule -->
<g id="edge13" class="edge">
<title>TaskCopyService&#45;&gt;TaskModule</title>
<path fill="none" stroke="black" d="M608,-85.1C608,-103.07 608,-127.8 608,-127.8 608,-127.8 1135.33,-127.8 1135.33,-127.8"/>
<polygon fill="black" stroke="black" points="1135.33,-131.3 1145.33,-127.8 1135.33,-124.3 1135.33,-131.3"/>
</g>
<!-- TaskCopyUC -->
<g id="node15" class="node">
<title>TaskCopyUC</title>
<ellipse fill="#fdb462" stroke="black" cx="446" cy="-66.8" rx="64.3" ry="18"/>
<text text-anchor="middle" x="446" y="-62.6" font-family="Times,serif" font-size="14.00">TaskCopyUC</text>
</g>
<!-- TaskCopyUC&#45;&gt;TaskModule -->
<g id="edge14" class="edge">
<title>TaskCopyUC&#45;&gt;TaskModule</title>
<path fill="none" stroke="black" d="M446,-84.91C446,-104.14 446,-131.8 446,-131.8 446,-131.8 1135.57,-131.8 1135.57,-131.8"/>
<polygon fill="black" stroke="black" points="1135.57,-135.3 1145.57,-131.8 1135.57,-128.3 1135.57,-135.3"/>
</g>
<!-- TaskRepo -->
<g id="node16" class="node">
<title>TaskRepo</title>
<ellipse fill="#fdb462" stroke="black" cx="314" cy="-66.8" rx="50.39" ry="18"/>
<text text-anchor="middle" x="314" y="-62.6" font-family="Times,serif" font-size="14.00">TaskRepo</text>
</g>
<!-- TaskRepo&#45;&gt;TaskModule -->
<g id="edge15" class="edge">
<title>TaskRepo&#45;&gt;TaskModule</title>
<path fill="none" stroke="black" d="M314,-84.83C314,-105.57 314,-136.8 314,-136.8 314,-136.8 1135.61,-136.8 1135.61,-136.8"/>
<polygon fill="black" stroke="black" points="1135.61,-140.3 1145.61,-136.8 1135.61,-133.3 1135.61,-140.3"/>
</g>
<!-- TaskService -->
<g id="node17" class="node">
<title>TaskService</title>
<ellipse fill="#fdb462" stroke="black" cx="187" cy="-66.8" rx="58.53" ry="18"/>
<text text-anchor="middle" x="187" y="-62.6" font-family="Times,serif" font-size="14.00">TaskService</text>
</g>
<!-- TaskService&#45;&gt;TaskModule -->
<g id="edge16" class="edge">
<title>TaskService&#45;&gt;TaskModule</title>
<path fill="none" stroke="black" d="M187,-85.09C187,-107.01 187,-140.8 187,-140.8 187,-140.8 1135.62,-140.8 1135.62,-140.8"/>
<polygon fill="black" stroke="black" points="1135.62,-144.3 1145.62,-140.8 1135.62,-137.3 1135.62,-144.3"/>
</g>
<!-- TaskUC -->
<g id="node18" class="node">
<title>TaskUC</title>
<ellipse fill="#fdb462" stroke="black" cx="67" cy="-66.8" rx="43.45" ry="18"/>
<text text-anchor="middle" x="67" y="-62.6" font-family="Times,serif" font-size="14.00">TaskUC</text>
</g>
<!-- TaskUC&#45;&gt;TaskModule -->
<g id="edge17" class="edge">
<title>TaskUC&#45;&gt;TaskModule</title>
<path fill="none" stroke="black" d="M67,-85.12C67,-108.46 67,-145.8 67,-145.8 67,-145.8 1135.7,-145.8 1135.7,-145.8"/>
<polygon fill="black" stroke="black" points="1135.7,-149.3 1145.7,-145.8 1135.7,-142.3 1135.7,-149.3"/>
</g>
</g>
</svg>
