<?xml version="1.0" encoding="UTF-8" standalone="no"?>
<!DOCTYPE svg PUBLIC "-//W3C//DTD SVG 1.1//EN"
 "http://www.w3.org/Graphics/SVG/1.1/DTD/svg11.dtd">
<!-- Generated by graphviz version 5.0.0 (20220707.1540)
 -->
<!-- Title: dependencies Pages: 1 -->
<svg width="2319pt" height="247pt"
 viewBox="0.00 0.00 2319.00 246.80" xmlns="http://www.w3.org/2000/svg" xmlns:xlink="http://www.w3.org/1999/xlink">
<g id="graph0" class="graph" transform="scale(1 1) rotate(0) translate(4 242.8)">
<title>dependencies</title>
<polygon fill="white" stroke="transparent" points="-4,4 -4,-242.8 2315,-242.8 2315,4 -4,4"/>
<text text-anchor="middle" x="1155.5" y="-8.2" font-family="sans-serif" font-size="14.00">dependencies</text>
<g id="clust1" class="cluster">
<title>cluster_TaskModule</title>
<polygon fill="none" stroke="black" stroke-dasharray="1,5" points="8,-32.8 8,-230.8 2303,-230.8 2303,-32.8 8,-32.8"/>
</g>
<g id="clust3" class="cluster">
<title>cluster_TaskModule_imports</title>
<polygon fill="none" stroke="black" points="1813,-40.8 1813,-92.8 2295,-92.8 2295,-40.8 1813,-40.8"/>
</g>
<g id="clust6" class="cluster">
<title>cluster_TaskModule_providers</title>
<polygon fill="none" stroke="black" points="16,-40.8 16,-92.8 1805,-92.8 1805,-40.8 16,-40.8"/>
</g>
<g id="clust4" class="cluster">
<title>cluster_TaskModule_exports</title>
<polygon fill="none" stroke="black" points="1010,-170.8 1010,-222.8 1252,-222.8 1252,-170.8 1010,-170.8"/>
</g>
<!-- AuthorizationModule -->
<g id="node1" class="node">
<title>AuthorizationModule</title>
<polygon fill="#8dd3c7" stroke="black" points="2286.81,-84.8 2283.81,-88.8 2262.81,-88.8 2259.81,-84.8 2149.19,-84.8 2149.19,-48.8 2286.81,-48.8 2286.81,-84.8"/>
<text text-anchor="middle" x="2218" y="-62.6" font-family="Times,serif" font-size="14.00">AuthorizationModule</text>
</g>
<!-- TaskModule -->
<g id="node4" class="node">
<title>TaskModule</title>
<polygon fill="#8dd3c7" stroke="black" points="1166.27,-149.8 1163.27,-153.8 1142.27,-153.8 1139.27,-149.8 1079.73,-149.8 1079.73,-113.8 1166.27,-113.8 1166.27,-149.8"/>
<text text-anchor="middle" x="1123" y="-127.6" font-family="Times,serif" font-size="14.00">TaskModule</text>
</g>
<!-- AuthorizationModule&#45;&gt;TaskModule -->
<g id="edge1" class="edge">
<title>AuthorizationModule&#45;&gt;TaskModule</title>
<path fill="none" stroke="black" d="M2218,-85.12C2218,-108.46 2218,-145.8 2218,-145.8 2218,-145.8 1176.6,-145.8 1176.6,-145.8"/>
<polygon fill="black" stroke="black" points="1176.6,-142.3 1166.6,-145.8 1176.6,-149.3 1176.6,-142.3"/>
</g>
<!-- CopyHelperModule -->
<g id="node2" class="node">
<title>CopyHelperModule</title>
<polygon fill="#8dd3c7" stroke="black" points="2130.98,-84.8 2127.98,-88.8 2106.98,-88.8 2103.98,-84.8 2003.02,-84.8 2003.02,-48.8 2130.98,-48.8 2130.98,-84.8"/>
<text text-anchor="middle" x="2067" y="-62.6" font-family="Times,serif" font-size="14.00">CopyHelperModule</text>
</g>
<!-- CopyHelperModule&#45;&gt;TaskModule -->
<g id="edge2" class="edge">
<title>CopyHelperModule&#45;&gt;TaskModule</title>
<path fill="none" stroke="black" d="M2067,-85.09C2067,-107.01 2067,-140.8 2067,-140.8 2067,-140.8 1176.33,-140.8 1176.33,-140.8"/>
<polygon fill="black" stroke="black" points="1176.33,-137.3 1166.33,-140.8 1176.33,-144.3 1176.33,-137.3"/>
</g>
<!-- FilesStorageClientModule -->
<g id="node3" class="node">
<title>FilesStorageClientModule</title>
<polygon fill="#8dd3c7" stroke="black" points="1984.77,-84.8 1981.77,-88.8 1960.77,-88.8 1957.77,-84.8 1821.23,-84.8 1821.23,-48.8 1984.77,-48.8 1984.77,-84.8"/>
<text text-anchor="middle" x="1903" y="-62.6" font-family="Times,serif" font-size="14.00">FilesStorageClientModule</text>
</g>
<!-- FilesStorageClientModule&#45;&gt;TaskModule -->
<g id="edge3" class="edge">
<title>FilesStorageClientModule&#45;&gt;TaskModule</title>
<path fill="none" stroke="black" d="M1903,-84.83C1903,-105.57 1903,-136.8 1903,-136.8 1903,-136.8 1176.33,-136.8 1176.33,-136.8"/>
<polygon fill="black" stroke="black" points="1176.33,-133.3 1166.33,-136.8 1176.33,-140.3 1176.33,-133.3"/>
</g>
<!-- TaskCopyService  -->
<g id="node5" class="node">
<title>TaskCopyService </title>
<polygon fill="#fb8072" stroke="black" points="1243.53,-214.8 1124.47,-214.8 1124.47,-178.8 1243.53,-178.8 1243.53,-214.8"/>
<text text-anchor="middle" x="1184" y="-192.6" font-family="Times,serif" font-size="14.00">TaskCopyService </text>
</g>
<!-- TaskModule&#45;&gt;TaskCopyService  -->
<g id="edge4" class="edge">
<title>TaskModule&#45;&gt;TaskCopyService </title>
<path fill="none" stroke="black" stroke-dasharray="5,2" d="M1145.43,-149.91C1145.43,-149.91 1145.43,-168.79 1145.43,-168.79"/>
<polygon fill="black" stroke="black" points="1141.93,-168.79 1145.43,-178.79 1148.93,-168.79 1141.93,-168.79"/>
</g>
<!-- TaskService  -->
<g id="node6" class="node">
<title>TaskService </title>
<polygon fill="#fb8072" stroke="black" points="1106.19,-214.8 1017.81,-214.8 1017.81,-178.8 1106.19,-178.8 1106.19,-214.8"/>
<text text-anchor="middle" x="1062" y="-192.6" font-family="Times,serif" font-size="14.00">TaskService </text>
</g>
<!-- TaskModule&#45;&gt;TaskService  -->
<g id="edge5" class="edge">
<title>TaskModule&#45;&gt;TaskService </title>
<path fill="none" stroke="black" stroke-dasharray="5,2" d="M1092.98,-149.91C1092.98,-149.91 1092.98,-168.79 1092.98,-168.79"/>
<polygon fill="black" stroke="black" points="1089.48,-168.79 1092.98,-178.79 1096.48,-168.79 1089.48,-168.79"/>
</g>
<!-- CourseRepo -->
<g id="node7" class="node">
<title>CourseRepo</title>
<ellipse fill="#fdb462" stroke="black" cx="1738" cy="-66.8" rx="58.56" ry="18"/>
<text text-anchor="middle" x="1738" y="-62.6" font-family="Times,serif" font-size="14.00">CourseRepo</text>
</g>
<!-- CourseRepo&#45;&gt;TaskModule -->
<g id="edge6" class="edge">
<title>CourseRepo&#45;&gt;TaskModule</title>
<path fill="none" stroke="black" d="M1738,-84.91C1738,-104.14 1738,-131.8 1738,-131.8 1738,-131.8 1176.74,-131.8 1176.74,-131.8"/>
<polygon fill="black" stroke="black" points="1176.74,-128.3 1166.74,-131.8 1176.74,-135.3 1176.74,-128.3"/>
</g>
<!-- FeathersServiceProvider -->
<g id="node8" class="node">
<title>FeathersServiceProvider</title>
<ellipse fill="#fdb462" stroke="black" cx="1555" cy="-66.8" rx="105.93" ry="18"/>
<text text-anchor="middle" x="1555" y="-62.6" font-family="Times,serif" font-size="14.00">FeathersServiceProvider</text>
</g>
<!-- FeathersServiceProvider&#45;&gt;TaskModule -->
<g id="edge7" class="edge">
<title>FeathersServiceProvider&#45;&gt;TaskModule</title>
<path fill="none" stroke="black" d="M1555,-85.1C1555,-103.07 1555,-127.8 1555,-127.8 1555,-127.8 1176.4,-127.8 1176.4,-127.8"/>
<polygon fill="black" stroke="black" points="1176.4,-124.3 1166.4,-127.8 1176.4,-131.3 1176.4,-124.3"/>
</g>
<!-- LessonRepo -->
<g id="node9" class="node">
<title>LessonRepo</title>
<ellipse fill="#fdb462" stroke="black" cx="1372" cy="-66.8" rx="58.56" ry="18"/>
<text text-anchor="middle" x="1372" y="-62.6" font-family="Times,serif" font-size="14.00">LessonRepo</text>
</g>
<!-- LessonRepo&#45;&gt;TaskModule -->
<g id="edge8" class="edge">
<title>LessonRepo&#45;&gt;TaskModule</title>
<path fill="none" stroke="black" d="M1372,-84.83C1372,-101.2 1372,-122.8 1372,-122.8 1372,-122.8 1176.37,-122.8 1176.37,-122.8"/>
<polygon fill="black" stroke="black" points="1176.37,-119.3 1166.37,-122.8 1176.37,-126.3 1176.37,-119.3"/>
</g>
<!-- Logger -->
<g id="node10" class="node">
<title>Logger</title>
<ellipse fill="#fdb462" stroke="black" cx="1256" cy="-66.8" rx="38.85" ry="18"/>
<text text-anchor="middle" x="1256" y="-62.6" font-family="Times,serif" font-size="14.00">Logger</text>
</g>
<!-- Logger&#45;&gt;TaskModule -->
<g id="edge9" class="edge">
<title>Logger&#45;&gt;TaskModule</title>
<path fill="none" stroke="black" d="M1230.3,-80.46C1230.3,-95.87 1230.3,-118.8 1230.3,-118.8 1230.3,-118.8 1176.33,-118.8 1176.33,-118.8"/>
<polygon fill="black" stroke="black" points="1176.33,-115.3 1166.33,-118.8 1176.33,-122.3 1176.33,-115.3"/>
</g>
<!-- SubmissionRepo -->
<g id="node11" class="node">
<title>SubmissionRepo</title>
<ellipse fill="#fdb462" stroke="black" cx="1123" cy="-66.8" rx="76.5" ry="18"/>
<text text-anchor="middle" x="1123" y="-62.6" font-family="Times,serif" font-size="14.00">SubmissionRepo</text>
</g>
<!-- SubmissionRepo&#45;&gt;TaskModule -->
<g id="edge10" class="edge">
<title>SubmissionRepo&#45;&gt;TaskModule</title>
<path fill="none" stroke="black" d="M1123,-84.91C1123,-84.91 1123,-103.79 1123,-103.79"/>
<polygon fill="black" stroke="black" points="1119.5,-103.79 1123,-113.79 1126.5,-103.79 1119.5,-103.79"/>
</g>
<!-- SubmissionService -->
<g id="node12" class="node">
<title>SubmissionService</title>
<ellipse fill="#fdb462" stroke="black" cx="943" cy="-66.8" rx="85.14" ry="18"/>
<text text-anchor="middle" x="943" y="-62.6" font-family="Times,serif" font-size="14.00">SubmissionService</text>
</g>
<!-- SubmissionService&#45;&gt;TaskModule -->
<g id="edge11" class="edge">
<title>SubmissionService&#45;&gt;TaskModule</title>
<path fill="none" stroke="black" d="M1022.86,-73.18C1022.86,-87.06 1022.86,-118.8 1022.86,-118.8 1022.86,-118.8 1069.66,-118.8 1069.66,-118.8"/>
<polygon fill="black" stroke="black" points="1069.66,-122.3 1079.66,-118.8 1069.66,-115.3 1069.66,-122.3"/>
</g>
<!-- SubmissionUc -->
<g id="node13" class="node">
<title>SubmissionUc</title>
<ellipse fill="#fdb462" stroke="black" cx="773" cy="-66.8" rx="67.25" ry="18"/>
<text text-anchor="middle" x="773" y="-62.6" font-family="Times,serif" font-size="14.00">SubmissionUc</text>
</g>
<!-- SubmissionUc&#45;&gt;TaskModule -->
<g id="edge12" class="edge">
<title>SubmissionUc&#45;&gt;TaskModule</title>
<path fill="none" stroke="black" d="M773,-84.83C773,-101.2 773,-122.8 773,-122.8 773,-122.8 1069.73,-122.8 1069.73,-122.8"/>
<polygon fill="black" stroke="black" points="1069.73,-126.3 1079.73,-122.8 1069.73,-119.3 1069.73,-126.3"/>
</g>
<!-- TaskCopyService -->
<g id="node14" class="node">
<title>TaskCopyService</title>
<ellipse fill="#fdb462" stroke="black" cx="608" cy="-66.8" rx="79.88" ry="18"/>
<text text-anchor="middle" x="608" y="-62.6" font-family="Times,serif" font-size="14.00">TaskCopyService</text>
</g>
<!-- TaskCopyService&#45;&gt;TaskModule -->
<g id="edge13" class="edge">
<title>TaskCopyService&#45;&gt;TaskModule</title>
<path fill="none" stroke="black" d="M608,-85.1C608,-103.07 608,-127.8 608,-127.8 608,-127.8 1069.54,-127.8 1069.54,-127.8"/>
<polygon fill="black" stroke="black" points="1069.54,-131.3 1079.54,-127.8 1069.54,-124.3 1069.54,-131.3"/>
</g>
<!-- TaskCopyUC -->
<g id="node15" class="node">
<title>TaskCopyUC</title>
<ellipse fill="#fdb462" stroke="black" cx="446" cy="-66.8" rx="64.3" ry="18"/>
<text text-anchor="middle" x="446" y="-62.6" font-family="Times,serif" font-size="14.00">TaskCopyUC</text>
</g>
<!-- TaskCopyUC&#45;&gt;TaskModule -->
<g id="edge14" class="edge">
<title>TaskCopyUC&#45;&gt;TaskModule</title>
<path fill="none" stroke="black" d="M446,-84.91C446,-104.14 446,-131.8 446,-131.8 446,-131.8 1069.62,-131.8 1069.62,-131.8"/>
<polygon fill="black" stroke="black" points="1069.62,-135.3 1079.62,-131.8 1069.62,-128.3 1069.62,-135.3"/>
</g>
<!-- TaskRepo -->
<g id="node16" class="node">
<title>TaskRepo</title>
<ellipse fill="#fdb462" stroke="black" cx="314" cy="-66.8" rx="50.39" ry="18"/>
<text text-anchor="middle" x="314" y="-62.6" font-family="Times,serif" font-size="14.00">TaskRepo</text>
</g>
<!-- TaskRepo&#45;&gt;TaskModule -->
<g id="edge15" class="edge">
<title>TaskRepo&#45;&gt;TaskModule</title>
<path fill="none" stroke="black" d="M314,-84.83C314,-105.57 314,-136.8 314,-136.8 314,-136.8 1069.5,-136.8 1069.5,-136.8"/>
<polygon fill="black" stroke="black" points="1069.5,-140.3 1079.5,-136.8 1069.5,-133.3 1069.5,-140.3"/>
</g>
<!-- TaskService -->
<g id="node17" class="node">
<title>TaskService</title>
<ellipse fill="#fdb462" stroke="black" cx="187" cy="-66.8" rx="58.53" ry="18"/>
<text text-anchor="middle" x="187" y="-62.6" font-family="Times,serif" font-size="14.00">TaskService</text>
</g>
<!-- TaskService&#45;&gt;TaskModule -->
<g id="edge16" class="edge">
<title>TaskService&#45;&gt;TaskModule</title>
<path fill="none" stroke="black" d="M187,-85.09C187,-107.01 187,-140.8 187,-140.8 187,-140.8 1069.73,-140.8 1069.73,-140.8"/>
<polygon fill="black" stroke="black" points="1069.73,-144.3 1079.73,-140.8 1069.73,-137.3 1069.73,-144.3"/>
</g>
<!-- TaskUC -->
<g id="node18" class="node">
<title>TaskUC</title>
<ellipse fill="#fdb462" stroke="black" cx="67" cy="-66.8" rx="43.45" ry="18"/>
<text text-anchor="middle" x="67" y="-62.6" font-family="Times,serif" font-size="14.00">TaskUC</text>
</g>
<!-- TaskUC&#45;&gt;TaskModule -->
<g id="edge17" class="edge">
<title>TaskUC&#45;&gt;TaskModule</title>
<path fill="none" stroke="black" d="M67,-85.12C67,-108.46 67,-145.8 67,-145.8 67,-145.8 1069.63,-145.8 1069.63,-145.8"/>
<polygon fill="black" stroke="black" points="1069.63,-149.3 1079.63,-145.8 1069.63,-142.3 1069.63,-149.3"/>
</g>
</g>
</svg>
