<?xml version="1.0" encoding="UTF-8" standalone="no"?>
<!DOCTYPE svg PUBLIC "-//W3C//DTD SVG 1.1//EN"
 "http://www.w3.org/Graphics/SVG/1.1/DTD/svg11.dtd">
<!-- Generated by graphviz version 5.0.0 (20220707.1540)
 -->
<!-- Title: dependencies Pages: 1 -->
<svg width="2780pt" height="247pt"
 viewBox="0.00 0.00 2780.00 246.80" xmlns="http://www.w3.org/2000/svg" xmlns:xlink="http://www.w3.org/1999/xlink">
<g id="graph0" class="graph" transform="scale(1 1) rotate(0) translate(4 242.8)">
<title>dependencies</title>
<polygon fill="white" stroke="transparent" points="-4,4 -4,-242.8 2776,-242.8 2776,4 -4,4"/>
<text text-anchor="middle" x="1386" y="-8.2" font-family="sans-serif" font-size="14.00">dependencies</text>
<g id="clust1" class="cluster">
<title>cluster_TaskModule</title>
<polygon fill="none" stroke="black" stroke-dasharray="1,5" points="8,-32.8 8,-230.8 2764,-230.8 2764,-32.8 8,-32.8"/>
</g>
<g id="clust4" class="cluster">
<title>cluster_TaskModule_exports</title>
<polygon fill="none" stroke="black" points="1235,-170.8 1235,-222.8 1339,-222.8 1339,-170.8 1235,-170.8"/>
</g>
<g id="clust6" class="cluster">
<title>cluster_TaskModule_providers</title>
<polygon fill="none" stroke="black" points="360,-40.8 360,-92.8 2756,-92.8 2756,-40.8 360,-40.8"/>
</g>
<g id="clust3" class="cluster">
<title>cluster_TaskModule_imports</title>
<polygon fill="none" stroke="black" points="16,-40.8 16,-92.8 352,-92.8 352,-40.8 16,-40.8"/>
</g>
<!-- AuthorizationModule -->
<g id="node1" class="node">
<title>AuthorizationModule</title>
<polygon fill="#8dd3c7" stroke="black" points="343.81,-84.8 340.81,-88.8 319.81,-88.8 316.81,-84.8 206.19,-84.8 206.19,-48.8 343.81,-48.8 343.81,-84.8"/>
<text text-anchor="middle" x="275" y="-62.6" font-family="Times,serif" font-size="14.00">AuthorizationModule</text>
</g>
<!-- TaskModule -->
<g id="node3" class="node">
<title>TaskModule</title>
<polygon fill="#8dd3c7" stroke="black" points="1330.27,-149.8 1327.27,-153.8 1306.27,-153.8 1303.27,-149.8 1243.73,-149.8 1243.73,-113.8 1330.27,-113.8 1330.27,-149.8"/>
<text text-anchor="middle" x="1287" y="-127.6" font-family="Times,serif" font-size="14.00">TaskModule</text>
</g>
<!-- AuthorizationModule&#45;&gt;TaskModule -->
<g id="edge1" class="edge">
<title>AuthorizationModule&#45;&gt;TaskModule</title>
<path fill="none" stroke="black" d="M275,-84.96C275,-107.15 275,-141.8 275,-141.8 275,-141.8 1233.52,-141.8 1233.52,-141.8"/>
<polygon fill="black" stroke="black" points="1233.52,-145.3 1243.52,-141.8 1233.52,-138.3 1233.52,-145.3"/>
</g>
<!-- FilesStorageClientModule -->
<g id="node2" class="node">
<title>FilesStorageClientModule</title>
<polygon fill="#8dd3c7" stroke="black" points="187.77,-84.8 184.77,-88.8 163.77,-88.8 160.77,-84.8 24.23,-84.8 24.23,-48.8 187.77,-48.8 187.77,-84.8"/>
<text text-anchor="middle" x="106" y="-62.6" font-family="Times,serif" font-size="14.00">FilesStorageClientModule</text>
</g>
<!-- FilesStorageClientModule&#45;&gt;TaskModule -->
<g id="edge2" class="edge">
<title>FilesStorageClientModule&#45;&gt;TaskModule</title>
<path fill="none" stroke="black" d="M106,-85.12C106,-108.46 106,-145.8 106,-145.8 106,-145.8 1233.57,-145.8 1233.57,-145.8"/>
<polygon fill="black" stroke="black" points="1233.57,-149.3 1243.57,-145.8 1233.57,-142.3 1233.57,-149.3"/>
</g>
<!-- TaskService  -->
<g id="node4" class="node">
<title>TaskService </title>
<polygon fill="#fb8072" stroke="black" points="1331.19,-214.8 1242.81,-214.8 1242.81,-178.8 1331.19,-178.8 1331.19,-214.8"/>
<text text-anchor="middle" x="1287" y="-192.6" font-family="Times,serif" font-size="14.00">TaskService </text>
</g>
<!-- TaskModule&#45;&gt;TaskService  -->
<g id="edge3" class="edge">
<title>TaskModule&#45;&gt;TaskService </title>
<path fill="none" stroke="black" stroke-dasharray="5,2" d="M1287,-149.91C1287,-149.91 1287,-168.79 1287,-168.79"/>
<polygon fill="black" stroke="black" points="1283.5,-168.79 1287,-178.79 1290.5,-168.79 1283.5,-168.79"/>
</g>
<!-- CopyHelperService -->
<g id="node5" class="node">
<title>CopyHelperService</title>
<ellipse fill="#fdb462" stroke="black" cx="2661" cy="-66.8" rx="87.39" ry="18"/>
<text text-anchor="middle" x="2661" y="-62.6" font-family="Times,serif" font-size="14.00">CopyHelperService</text>
</g>
<!-- CopyHelperService&#45;&gt;TaskModule -->
<g id="edge4" class="edge">
<title>CopyHelperService&#45;&gt;TaskModule</title>
<path fill="none" stroke="black" d="M2661,-85.12C2661,-108.46 2661,-145.8 2661,-145.8 2661,-145.8 1340.39,-145.8 1340.39,-145.8"/>
<polygon fill="black" stroke="black" points="1340.39,-142.3 1330.39,-145.8 1340.39,-149.3 1340.39,-142.3"/>
</g>
<!-- CourseRepo -->
<g id="node6" class="node">
<title>CourseRepo</title>
<ellipse fill="#fdb462" stroke="black" cx="2497" cy="-66.8" rx="58.56" ry="18"/>
<text text-anchor="middle" x="2497" y="-62.6" font-family="Times,serif" font-size="14.00">CourseRepo</text>
</g>
<!-- CourseRepo&#45;&gt;TaskModule -->
<g id="edge5" class="edge">
<title>CourseRepo&#45;&gt;TaskModule</title>
<path fill="none" stroke="black" d="M2497,-84.96C2497,-107.15 2497,-141.8 2497,-141.8 2497,-141.8 1340.42,-141.8 1340.42,-141.8"/>
<polygon fill="black" stroke="black" points="1340.42,-138.3 1330.42,-141.8 1340.42,-145.3 1340.42,-138.3"/>
</g>
<!-- FeathersServiceProvider -->
<g id="node7" class="node">
<title>FeathersServiceProvider</title>
<ellipse fill="#fdb462" stroke="black" cx="2314" cy="-66.8" rx="105.93" ry="18"/>
<text text-anchor="middle" x="2314" y="-62.6" font-family="Times,serif" font-size="14.00">FeathersServiceProvider</text>
</g>
<!-- FeathersServiceProvider&#45;&gt;TaskModule -->
<g id="edge6" class="edge">
<title>FeathersServiceProvider&#45;&gt;TaskModule</title>
<path fill="none" stroke="black" d="M2314,-85.08C2314,-106.12 2314,-137.8 2314,-137.8 2314,-137.8 1340.47,-137.8 1340.47,-137.8"/>
<polygon fill="black" stroke="black" points="1340.47,-134.3 1330.47,-137.8 1340.47,-141.3 1340.47,-134.3"/>
</g>
<!-- FileCopyAppendService -->
<g id="node8" class="node">
<title>FileCopyAppendService</title>
<ellipse fill="#fdb462" stroke="black" cx="2084" cy="-66.8" rx="106.53" ry="18"/>
<text text-anchor="middle" x="2084" y="-62.6" font-family="Times,serif" font-size="14.00">FileCopyAppendService</text>
</g>
<!-- FileCopyAppendService&#45;&gt;TaskModule -->
<g id="edge7" class="edge">
<title>FileCopyAppendService&#45;&gt;TaskModule</title>
<path fill="none" stroke="black" d="M2084,-85.11C2084,-104.95 2084,-133.8 2084,-133.8 2084,-133.8 1340.42,-133.8 1340.42,-133.8"/>
<polygon fill="black" stroke="black" points="1340.42,-130.3 1330.42,-133.8 1340.42,-137.3 1340.42,-130.3"/>
</g>
<!-- FileLegacyService -->
<g id="node9" class="node">
<title>FileLegacyService</title>
<ellipse fill="#fdb462" stroke="black" cx="1876" cy="-66.8" rx="83.36" ry="18"/>
<text text-anchor="middle" x="1876" y="-62.6" font-family="Times,serif" font-size="14.00">FileLegacyService</text>
</g>
<!-- FileLegacyService&#45;&gt;TaskModule -->
<g id="edge8" class="edge">
<title>FileLegacyService&#45;&gt;TaskModule</title>
<path fill="none" stroke="black" d="M1876,-85.02C1876,-103.63 1876,-129.8 1876,-129.8 1876,-129.8 1340.31,-129.8 1340.31,-129.8"/>
<polygon fill="black" stroke="black" points="1340.31,-126.3 1330.31,-129.8 1340.31,-133.3 1340.31,-126.3"/>
</g>
<!-- LessonRepo -->
<g id="node10" class="node">
<title>LessonRepo</title>
<ellipse fill="#fdb462" stroke="black" cx="1716" cy="-66.8" rx="58.56" ry="18"/>
<text text-anchor="middle" x="1716" y="-62.6" font-family="Times,serif" font-size="14.00">LessonRepo</text>
</g>
<!-- LessonRepo&#45;&gt;TaskModule -->
<g id="edge9" class="edge">
<title>LessonRepo&#45;&gt;TaskModule</title>
<path fill="none" stroke="black" d="M1716,-84.82C1716,-102.17 1716,-125.8 1716,-125.8 1716,-125.8 1340.5,-125.8 1340.5,-125.8"/>
<polygon fill="black" stroke="black" points="1340.5,-122.3 1330.5,-125.8 1340.5,-129.3 1340.5,-122.3"/>
</g>
<!-- Logger -->
<g id="node11" class="node">
<title>Logger</title>
<ellipse fill="#fdb462" stroke="black" cx="1600" cy="-66.8" rx="38.85" ry="18"/>
<text text-anchor="middle" x="1600" y="-62.6" font-family="Times,serif" font-size="14.00">Logger</text>
</g>
<!-- Logger&#45;&gt;TaskModule -->
<g id="edge10" class="edge">
<title>Logger&#45;&gt;TaskModule</title>
<path fill="none" stroke="black" d="M1600,-84.81C1600,-100.85 1600,-121.8 1600,-121.8 1600,-121.8 1340.52,-121.8 1340.52,-121.8"/>
<polygon fill="black" stroke="black" points="1340.52,-118.3 1330.52,-121.8 1340.52,-125.3 1340.52,-118.3"/>
</g>
<!-- SubmissionRepo -->
<g id="node12" class="node">
<title>SubmissionRepo</title>
<ellipse fill="#fdb462" stroke="black" cx="1467" cy="-66.8" rx="76.5" ry="18"/>
<text text-anchor="middle" x="1467" y="-62.6" font-family="Times,serif" font-size="14.00">SubmissionRepo</text>
</g>
<!-- SubmissionRepo&#45;&gt;TaskModule -->
<g id="edge11" class="edge">
<title>SubmissionRepo&#45;&gt;TaskModule</title>
<path fill="none" stroke="black" d="M1467,-84.92C1467,-99.58 1467,-117.8 1467,-117.8 1467,-117.8 1340.57,-117.8 1340.57,-117.8"/>
<polygon fill="black" stroke="black" points="1340.57,-114.3 1330.57,-117.8 1340.57,-121.3 1340.57,-114.3"/>
</g>
<!-- SubmissionService -->
<g id="node13" class="node">
<title>SubmissionService</title>
<ellipse fill="#fdb462" stroke="black" cx="1287" cy="-66.8" rx="85.14" ry="18"/>
<text text-anchor="middle" x="1287" y="-62.6" font-family="Times,serif" font-size="14.00">SubmissionService</text>
</g>
<!-- SubmissionService&#45;&gt;TaskModule -->
<g id="edge12" class="edge">
<title>SubmissionService&#45;&gt;TaskModule</title>
<path fill="none" stroke="black" d="M1287,-84.91C1287,-84.91 1287,-103.79 1287,-103.79"/>
<polygon fill="black" stroke="black" points="1283.5,-103.79 1287,-113.79 1290.5,-103.79 1283.5,-103.79"/>
</g>
<!-- SubmissionUc -->
<g id="node14" class="node">
<title>SubmissionUc</title>
<ellipse fill="#fdb462" stroke="black" cx="1117" cy="-66.8" rx="67.25" ry="18"/>
<text text-anchor="middle" x="1117" y="-62.6" font-family="Times,serif" font-size="14.00">SubmissionUc</text>
</g>
<!-- SubmissionUc&#45;&gt;TaskModule -->
<g id="edge13" class="edge">
<title>SubmissionUc&#45;&gt;TaskModule</title>
<path fill="none" stroke="black" d="M1117,-84.92C1117,-99.58 1117,-117.8 1117,-117.8 1117,-117.8 1233.66,-117.8 1233.66,-117.8"/>
<polygon fill="black" stroke="black" points="1233.66,-121.3 1243.66,-117.8 1233.66,-114.3 1233.66,-121.3"/>
</g>
<!-- TaskCopyService -->
<g id="node15" class="node">
<title>TaskCopyService</title>
<ellipse fill="#fdb462" stroke="black" cx="952" cy="-66.8" rx="79.88" ry="18"/>
<text text-anchor="middle" x="952" y="-62.6" font-family="Times,serif" font-size="14.00">TaskCopyService</text>
</g>
<!-- TaskCopyService&#45;&gt;TaskModule -->
<g id="edge14" class="edge">
<title>TaskCopyService&#45;&gt;TaskModule</title>
<path fill="none" stroke="black" d="M952,-84.81C952,-100.85 952,-121.8 952,-121.8 952,-121.8 1233.55,-121.8 1233.55,-121.8"/>
<polygon fill="black" stroke="black" points="1233.55,-125.3 1243.55,-121.8 1233.55,-118.3 1233.55,-125.3"/>
</g>
<!-- TaskCopyUC -->
<g id="node16" class="node">
<title>TaskCopyUC</title>
<ellipse fill="#fdb462" stroke="black" cx="790" cy="-66.8" rx="64.3" ry="18"/>
<text text-anchor="middle" x="790" y="-62.6" font-family="Times,serif" font-size="14.00">TaskCopyUC</text>
</g>
<!-- TaskCopyUC&#45;&gt;TaskModule -->
<g id="edge15" class="edge">
<title>TaskCopyUC&#45;&gt;TaskModule</title>
<path fill="none" stroke="black" d="M790,-84.82C790,-102.17 790,-125.8 790,-125.8 790,-125.8 1233.33,-125.8 1233.33,-125.8"/>
<polygon fill="black" stroke="black" points="1233.33,-129.3 1243.33,-125.8 1233.33,-122.3 1233.33,-129.3"/>
</g>
<!-- TaskRepo -->
<g id="node17" class="node">
<title>TaskRepo</title>
<ellipse fill="#fdb462" stroke="black" cx="658" cy="-66.8" rx="50.39" ry="18"/>
<text text-anchor="middle" x="658" y="-62.6" font-family="Times,serif" font-size="14.00">TaskRepo</text>
</g>
<!-- TaskRepo&#45;&gt;TaskModule -->
<g id="edge16" class="edge">
<title>TaskRepo&#45;&gt;TaskModule</title>
<path fill="none" stroke="black" d="M658,-85.02C658,-103.63 658,-129.8 658,-129.8 658,-129.8 1233.27,-129.8 1233.27,-129.8"/>
<polygon fill="black" stroke="black" points="1233.27,-133.3 1243.27,-129.8 1233.27,-126.3 1233.27,-133.3"/>
</g>
<!-- TaskService -->
<g id="node18" class="node">
<title>TaskService</title>
<ellipse fill="#fdb462" stroke="black" cx="531" cy="-66.8" rx="58.53" ry="18"/>
<text text-anchor="middle" x="531" y="-62.6" font-family="Times,serif" font-size="14.00">TaskService</text>
</g>
<!-- TaskService&#45;&gt;TaskModule -->
<g id="edge17" class="edge">
<title>TaskService&#45;&gt;TaskModule</title>
<path fill="none" stroke="black" d="M531,-85.11C531,-104.95 531,-133.8 531,-133.8 531,-133.8 1233.64,-133.8 1233.64,-133.8"/>
<polygon fill="black" stroke="black" points="1233.64,-137.3 1243.64,-133.8 1233.64,-130.3 1233.64,-137.3"/>
</g>
<!-- TaskUC -->
<g id="node19" class="node">
<title>TaskUC</title>
<ellipse fill="#fdb462" stroke="black" cx="411" cy="-66.8" rx="43.45" ry="18"/>
<text text-anchor="middle" x="411" y="-62.6" font-family="Times,serif" font-size="14.00">TaskUC</text>
</g>
<!-- TaskUC&#45;&gt;TaskModule -->
<g id="edge18" class="edge">
<title>TaskUC&#45;&gt;TaskModule</title>
<path fill="none" stroke="black" d="M411,-85.08C411,-106.12 411,-137.8 411,-137.8 411,-137.8 1233.56,-137.8 1233.56,-137.8"/>
<polygon fill="black" stroke="black" points="1233.56,-141.3 1243.56,-137.8 1233.56,-134.3 1233.56,-141.3"/>
</g>
</g>
</svg>
