<?xml version="1.0" encoding="UTF-8" standalone="no"?>
<!DOCTYPE svg PUBLIC "-//W3C//DTD SVG 1.1//EN"
 "http://www.w3.org/Graphics/SVG/1.1/DTD/svg11.dtd">
<!-- Generated by graphviz version 2.47.3 (20210619.1520)
 -->
<!-- Title: dependencies Pages: 1 -->
<svg width="639pt" height="174pt"
 viewBox="0.00 0.00 639.00 173.80" xmlns="http://www.w3.org/2000/svg" xmlns:xlink="http://www.w3.org/1999/xlink">
<g id="graph0" class="graph" transform="scale(1 1) rotate(0) translate(4 169.8)">
<title>dependencies</title>
<polygon fill="white" stroke="transparent" points="-4,4 -4,-169.8 635,-169.8 635,4 -4,4"/>
<text text-anchor="middle" x="315.5" y="-8.2" font-family="sans-serif" font-size="14.00">dependencies</text>
<g id="clust1" class="cluster">
<title>cluster_TaskModule</title>
<polygon fill="none" stroke="black" stroke-dasharray="1,5" points="8,-32.8 8,-157.8 623,-157.8 623,-32.8 8,-32.8"/>
</g>
<g id="clust6" class="cluster">
<title>cluster_TaskModule_providers</title>
<polygon fill="none" stroke="black" points="16,-40.8 16,-92.8 615,-92.8 615,-40.8 16,-40.8"/>
</g>
<!-- CourseRepo -->
<g id="node1" class="node">
<title>CourseRepo</title>
<ellipse fill="#fdb462" stroke="black" cx="548" cy="-66.8" rx="58.55" ry="18"/>
<text text-anchor="middle" x="548" y="-62.6" font-family="Times,serif" font-size="14.00">CourseRepo</text>
</g>
<!-- TaskModule -->
<g id="node5" class="node">
<title>TaskModule</title>
<polygon fill="#8dd3c7" stroke="black" points="311.26,-149.8 308.26,-153.8 287.26,-153.8 284.26,-149.8 224.74,-149.8 224.74,-113.8 311.26,-113.8 311.26,-149.8"/>
<text text-anchor="middle" x="268" y="-127.6" font-family="Times,serif" font-size="14.00">TaskModule</text>
</g>
<!-- CourseRepo&#45;&gt;TaskModule -->
<g id="edge1" class="edge">
<title>CourseRepo&#45;&gt;TaskModule</title>
<path fill="none" stroke="black" d="M548,-84.91C548,-104.14 548,-131.8 548,-131.8 548,-131.8 321.44,-131.8 321.44,-131.8"/>
<polygon fill="black" stroke="black" points="321.44,-128.3 311.44,-131.8 321.44,-135.3 321.44,-128.3"/>
</g>
<!-- TaskAuthorizationService -->
<g id="node2" class="node">
<title>TaskAuthorizationService</title>
<ellipse fill="#fdb462" stroke="black" cx="359" cy="-66.8" rx="112.3" ry="18"/>
<text text-anchor="middle" x="359" y="-62.6" font-family="Times,serif" font-size="14.00">TaskAuthorizationService</text>
</g>
<!-- TaskAuthorizationService&#45;&gt;TaskModule -->
<g id="edge2" class="edge">
<title>TaskAuthorizationService&#45;&gt;TaskModule</title>
<path fill="none" stroke="black" d="M278.99,-79.64C278.99,-79.64 278.99,-103.32 278.99,-103.32"/>
<polygon fill="black" stroke="black" points="275.49,-103.32 278.99,-113.32 282.49,-103.32 275.49,-103.32"/>
</g>
<!-- TaskRepo -->
<g id="node3" class="node">
<title>TaskRepo</title>
<ellipse fill="#fdb462" stroke="black" cx="178" cy="-66.8" rx="50.38" ry="18"/>
<text text-anchor="middle" x="178" y="-62.6" font-family="Times,serif" font-size="14.00">TaskRepo</text>
</g>
<!-- TaskRepo&#45;&gt;TaskModule -->
<g id="edge3" class="edge">
<title>TaskRepo&#45;&gt;TaskModule</title>
<path fill="none" stroke="black" d="M228.37,-66.8C233.8,-66.8 237.4,-66.8 237.4,-66.8 237.4,-66.8 237.4,-103.69 237.4,-103.69"/>
<polygon fill="black" stroke="black" points="233.9,-103.69 237.4,-113.69 240.9,-103.69 233.9,-103.69"/>
</g>
<!-- TaskUC -->
<g id="node4" class="node">
<title>TaskUC</title>
<ellipse fill="#fdb462" stroke="black" cx="67" cy="-66.8" rx="43.44" ry="18"/>
<text text-anchor="middle" x="67" y="-62.6" font-family="Times,serif" font-size="14.00">TaskUC</text>
</g>
<!-- TaskUC&#45;&gt;TaskModule -->
<g id="edge4" class="edge">
<title>TaskUC&#45;&gt;TaskModule</title>
<path fill="none" stroke="black" d="M67,-84.91C67,-104.14 67,-131.8 67,-131.8 67,-131.8 214.39,-131.8 214.39,-131.8"/>
<polygon fill="black" stroke="black" points="214.39,-135.3 224.39,-131.8 214.39,-128.3 214.39,-135.3"/>
</g>
</g>
</svg>
