<?xml version="1.0" encoding="UTF-8" standalone="no"?>
<!DOCTYPE svg PUBLIC "-//W3C//DTD SVG 1.1//EN"
 "http://www.w3.org/Graphics/SVG/1.1/DTD/svg11.dtd">
<!-- Generated by graphviz version 5.0.0 (20220707.1540)
 -->
<!-- Title: dependencies Pages: 1 -->
<svg width="1391pt" height="174pt"
 viewBox="0.00 0.00 1391.00 173.80" xmlns="http://www.w3.org/2000/svg" xmlns:xlink="http://www.w3.org/1999/xlink">
<g id="graph0" class="graph" transform="scale(1 1) rotate(0) translate(4 169.8)">
<title>dependencies</title>
<polygon fill="white" stroke="transparent" points="-4,4 -4,-169.8 1387,-169.8 1387,4 -4,4"/>
<text text-anchor="middle" x="691.5" y="-8.2" font-family="sans-serif" font-size="14.00">dependencies</text>
<g id="clust1" class="cluster">
<title>cluster_TaskModule</title>
<polygon fill="none" stroke="black" stroke-dasharray="1,5" points="8,-32.8 8,-157.8 1375,-157.8 1375,-32.8 8,-32.8"/>
</g>
<g id="clust3" class="cluster">
<title>cluster_TaskModule_imports</title>
<polygon fill="none" stroke="black" points="1031,-40.8 1031,-92.8 1367,-92.8 1367,-40.8 1031,-40.8"/>
</g>
<g id="clust6" class="cluster">
<title>cluster_TaskModule_providers</title>
<polygon fill="none" stroke="black" points="16,-40.8 16,-92.8 1023,-92.8 1023,-40.8 16,-40.8"/>
</g>
<!-- AuthorizationModule -->
<g id="node1" class="node">
<title>AuthorizationModule</title>
<polygon fill="#8dd3c7" stroke="black" points="1358.81,-84.8 1355.81,-88.8 1334.81,-88.8 1331.81,-84.8 1221.19,-84.8 1221.19,-48.8 1358.81,-48.8 1358.81,-84.8"/>
<text text-anchor="middle" x="1290" y="-62.6" font-family="Times,serif" font-size="14.00">AuthorizationModule</text>
</g>
<!-- TaskModule -->
<g id="node3" class="node">
<title>TaskModule</title>
<polygon fill="#8dd3c7" stroke="black" points="671.27,-149.8 668.27,-153.8 647.27,-153.8 644.27,-149.8 584.73,-149.8 584.73,-113.8 671.27,-113.8 671.27,-149.8"/>
<text text-anchor="middle" x="628" y="-127.6" font-family="Times,serif" font-size="14.00">TaskModule</text>
</g>
<!-- AuthorizationModule&#45;&gt;TaskModule -->
<g id="edge1" class="edge">
<title>AuthorizationModule&#45;&gt;TaskModule</title>
<path fill="none" stroke="black" d="M1290,-84.81C1290,-107.29 1290,-142.8 1290,-142.8 1290,-142.8 681.44,-142.8 681.44,-142.8"/>
<polygon fill="black" stroke="black" points="681.44,-139.3 671.44,-142.8 681.44,-146.3 681.44,-139.3"/>
</g>
<!-- FilesStorageClientModule -->
<g id="node2" class="node">
<title>FilesStorageClientModule</title>
<polygon fill="#8dd3c7" stroke="black" points="1202.77,-84.8 1199.77,-88.8 1178.77,-88.8 1175.77,-84.8 1039.23,-84.8 1039.23,-48.8 1202.77,-48.8 1202.77,-84.8"/>
<text text-anchor="middle" x="1121" y="-62.6" font-family="Times,serif" font-size="14.00">FilesStorageClientModule</text>
</g>
<!-- FilesStorageClientModule&#45;&gt;TaskModule -->
<g id="edge2" class="edge">
<title>FilesStorageClientModule&#45;&gt;TaskModule</title>
<path fill="none" stroke="black" d="M1121,-84.93C1121,-105.37 1121,-135.8 1121,-135.8 1121,-135.8 681.32,-135.8 681.32,-135.8"/>
<polygon fill="black" stroke="black" points="681.32,-132.3 671.32,-135.8 681.32,-139.3 681.32,-132.3"/>
</g>
<!-- CopyHelperService -->
<g id="node4" class="node">
<title>CopyHelperService</title>
<ellipse fill="#fdb462" stroke="black" cx="928" cy="-66.8" rx="87.39" ry="18"/>
<text text-anchor="middle" x="928" y="-62.6" font-family="Times,serif" font-size="14.00">CopyHelperService</text>
</g>
<!-- CopyHelperService&#45;&gt;TaskModule -->
<g id="edge3" class="edge">
<title>CopyHelperService&#45;&gt;TaskModule</title>
<path fill="none" stroke="black" d="M928,-85.07C928,-103.36 928,-128.8 928,-128.8 928,-128.8 681.3,-128.8 681.3,-128.8"/>
<polygon fill="black" stroke="black" points="681.3,-125.3 671.3,-128.8 681.3,-132.3 681.3,-125.3"/>
</g>
<!-- CourseRepo -->
<g id="node5" class="node">
<title>CourseRepo</title>
<ellipse fill="#fdb462" stroke="black" cx="764" cy="-66.8" rx="58.56" ry="18"/>
<text text-anchor="middle" x="764" y="-62.6" font-family="Times,serif" font-size="14.00">CourseRepo</text>
</g>
<!-- CourseRepo&#45;&gt;TaskModule -->
<g id="edge4" class="edge">
<title>CourseRepo&#45;&gt;TaskModule</title>
<path fill="none" stroke="black" d="M764,-84.81C764,-100.85 764,-121.8 764,-121.8 764,-121.8 681.41,-121.8 681.41,-121.8"/>
<polygon fill="black" stroke="black" points="681.41,-118.3 671.41,-121.8 681.41,-125.3 681.41,-118.3"/>
</g>
<!-- LessonRepo -->
<g id="node6" class="node">
<title>LessonRepo</title>
<ellipse fill="#fdb462" stroke="black" cx="628" cy="-66.8" rx="58.56" ry="18"/>
<text text-anchor="middle" x="628" y="-62.6" font-family="Times,serif" font-size="14.00">LessonRepo</text>
</g>
<!-- LessonRepo&#45;&gt;TaskModule -->
<g id="edge5" class="edge">
<title>LessonRepo&#45;&gt;TaskModule</title>
<path fill="none" stroke="black" d="M628,-84.91C628,-84.91 628,-103.79 628,-103.79"/>
<polygon fill="black" stroke="black" points="624.5,-103.79 628,-113.79 631.5,-103.79 624.5,-103.79"/>
</g>
<!-- TaskCopyService -->
<g id="node7" class="node">
<title>TaskCopyService</title>
<ellipse fill="#fdb462" stroke="black" cx="472" cy="-66.8" rx="79.88" ry="18"/>
<text text-anchor="middle" x="472" y="-62.6" font-family="Times,serif" font-size="14.00">TaskCopyService</text>
</g>
<!-- TaskCopyService&#45;&gt;TaskModule -->
<g id="edge6" class="edge">
<title>TaskCopyService&#45;&gt;TaskModule</title>
<path fill="none" stroke="black" d="M472,-84.81C472,-100.85 472,-121.8 472,-121.8 472,-121.8 574.55,-121.8 574.55,-121.8"/>
<polygon fill="black" stroke="black" points="574.55,-125.3 584.55,-121.8 574.55,-118.3 574.55,-125.3"/>
</g>
<!-- TaskCopyUC -->
<g id="node8" class="node">
<title>TaskCopyUC</title>
<ellipse fill="#fdb462" stroke="black" cx="310" cy="-66.8" rx="64.3" ry="18"/>
<text text-anchor="middle" x="310" y="-62.6" font-family="Times,serif" font-size="14.00">TaskCopyUC</text>
</g>
<!-- TaskCopyUC&#45;&gt;TaskModule -->
<g id="edge7" class="edge">
<title>TaskCopyUC&#45;&gt;TaskModule</title>
<path fill="none" stroke="black" d="M310,-85.07C310,-103.36 310,-128.8 310,-128.8 310,-128.8 574.45,-128.8 574.45,-128.8"/>
<polygon fill="black" stroke="black" points="574.45,-132.3 584.45,-128.8 574.45,-125.3 574.45,-132.3"/>
</g>
<!-- TaskRepo -->
<g id="node9" class="node">
<title>TaskRepo</title>
<ellipse fill="#fdb462" stroke="black" cx="178" cy="-66.8" rx="50.39" ry="18"/>
<text text-anchor="middle" x="178" y="-62.6" font-family="Times,serif" font-size="14.00">TaskRepo</text>
</g>
<!-- TaskRepo&#45;&gt;TaskModule -->
<g id="edge8" class="edge">
<title>TaskRepo&#45;&gt;TaskModule</title>
<path fill="none" stroke="black" d="M178,-84.93C178,-105.37 178,-135.8 178,-135.8 178,-135.8 574.44,-135.8 574.44,-135.8"/>
<polygon fill="black" stroke="black" points="574.44,-139.3 584.44,-135.8 574.44,-132.3 574.44,-139.3"/>
</g>
<!-- TaskUC -->
<g id="node10" class="node">
<title>TaskUC</title>
<ellipse fill="#fdb462" stroke="black" cx="67" cy="-66.8" rx="43.45" ry="18"/>
<text text-anchor="middle" x="67" y="-62.6" font-family="Times,serif" font-size="14.00">TaskUC</text>
</g>
<!-- TaskUC&#45;&gt;TaskModule -->
<g id="edge9" class="edge">
<title>TaskUC&#45;&gt;TaskModule</title>
<path fill="none" stroke="black" d="M67,-84.81C67,-107.29 67,-142.8 67,-142.8 67,-142.8 574.45,-142.8 574.45,-142.8"/>
<polygon fill="black" stroke="black" points="574.45,-146.3 584.45,-142.8 574.45,-139.3 574.45,-146.3"/>
</g>
</g>
</svg>
