<?xml version="1.0" encoding="UTF-8" standalone="no"?>
<!DOCTYPE svg PUBLIC "-//W3C//DTD SVG 1.1//EN"
 "http://www.w3.org/Graphics/SVG/1.1/DTD/svg11.dtd">
<!-- Generated by graphviz version 2.47.3 (20210619.1520)
 -->
<!-- Title: dependencies Pages: 1 -->
<svg width="812pt" height="174pt"
 viewBox="0.00 0.00 812.00 173.80" xmlns="http://www.w3.org/2000/svg" xmlns:xlink="http://www.w3.org/1999/xlink">
<g id="graph0" class="graph" transform="scale(1 1) rotate(0) translate(4 169.8)">
<title>dependencies</title>
<polygon fill="white" stroke="transparent" points="-4,4 -4,-169.8 808,-169.8 808,4 -4,4"/>
<text text-anchor="middle" x="402" y="-8.2" font-family="sans-serif" font-size="14.00">dependencies</text>
<g id="clust1" class="cluster">
<title>cluster_TaskModule</title>
<polygon fill="none" stroke="black" stroke-dasharray="1,5" points="8,-32.8 8,-157.8 796,-157.8 796,-32.8 8,-32.8"/>
</g>
<g id="clust6" class="cluster">
<title>cluster_TaskModule_providers</title>
<polygon fill="none" stroke="black" points="178,-40.8 178,-92.8 788,-92.8 788,-40.8 178,-40.8"/>
</g>
<g id="clust3" class="cluster">
<title>cluster_TaskModule_imports</title>
<polygon fill="none" stroke="black" points="16,-40.8 16,-92.8 170,-92.8 170,-40.8 16,-40.8"/>
</g>
<!-- AuthorizationModule -->
<g id="node1" class="node">
<title>AuthorizationModule</title>
<polygon fill="#8dd3c7" stroke="black" points="161.81,-84.8 158.81,-88.8 137.81,-88.8 134.81,-84.8 24.19,-84.8 24.19,-48.8 161.81,-48.8 161.81,-84.8"/>
<text text-anchor="middle" x="93" y="-62.6" font-family="Times,serif" font-size="14.00">AuthorizationModule</text>
</g>
<!-- TaskModule -->
<g id="node2" class="node">
<title>TaskModule</title>
<polygon fill="#8dd3c7" stroke="black" points="445.26,-149.8 442.26,-153.8 421.26,-153.8 418.26,-149.8 358.74,-149.8 358.74,-113.8 445.26,-113.8 445.26,-149.8"/>
<text text-anchor="middle" x="402" y="-127.6" font-family="Times,serif" font-size="14.00">TaskModule</text>
</g>
<!-- AuthorizationModule&#45;&gt;TaskModule -->
<g id="edge1" class="edge">
<title>AuthorizationModule&#45;&gt;TaskModule</title>
<path fill="none" stroke="black" d="M93,-85.08C93,-106.12 93,-137.8 93,-137.8 93,-137.8 348.71,-137.8 348.71,-137.8"/>
<polygon fill="black" stroke="black" points="348.71,-141.3 358.71,-137.8 348.71,-134.3 348.71,-141.3"/>
</g>
<!-- CourseRepo -->
<g id="node3" class="node">
<title>CourseRepo</title>
<ellipse fill="#fdb462" stroke="black" cx="721" cy="-66.8" rx="58.55" ry="18"/>
<text text-anchor="middle" x="721" y="-62.6" font-family="Times,serif" font-size="14.00">CourseRepo</text>
</g>
<!-- CourseRepo&#45;&gt;TaskModule -->
<g id="edge2" class="edge">
<title>CourseRepo&#45;&gt;TaskModule</title>
<path fill="none" stroke="black" d="M721,-85.08C721,-106.12 721,-137.8 721,-137.8 721,-137.8 455.35,-137.8 455.35,-137.8"/>
<polygon fill="black" stroke="black" points="455.35,-134.3 445.35,-137.8 455.35,-141.3 455.35,-134.3"/>
</g>
<!-- LessonRepo -->
<g id="node4" class="node">
<title>LessonRepo</title>
<ellipse fill="#fdb462" stroke="black" cx="585" cy="-66.8" rx="58.55" ry="18"/>
<text text-anchor="middle" x="585" y="-62.6" font-family="Times,serif" font-size="14.00">LessonRepo</text>
</g>
<!-- LessonRepo&#45;&gt;TaskModule -->
<g id="edge3" class="edge">
<title>LessonRepo&#45;&gt;TaskModule</title>
<path fill="none" stroke="black" d="M585,-84.82C585,-102.17 585,-125.8 585,-125.8 585,-125.8 455.37,-125.8 455.37,-125.8"/>
<polygon fill="black" stroke="black" points="455.37,-122.3 445.37,-125.8 455.37,-129.3 455.37,-122.3"/>
</g>
<!-- TaskRepo -->
<g id="node5" class="node">
<title>TaskRepo</title>
<ellipse fill="#fdb462" stroke="black" cx="458" cy="-66.8" rx="50.38" ry="18"/>
<text text-anchor="middle" x="458" y="-62.6" font-family="Times,serif" font-size="14.00">TaskRepo</text>
</g>
<!-- TaskRepo&#45;&gt;TaskModule -->
<g id="edge4" class="edge">
<title>TaskRepo&#45;&gt;TaskModule</title>
<path fill="none" stroke="black" d="M426.6,-80.9C426.6,-80.9 426.6,-103.52 426.6,-103.52"/>
<polygon fill="black" stroke="black" points="423.1,-103.52 426.6,-113.52 430.1,-103.52 423.1,-103.52"/>
</g>
<!-- TaskUC -->
<g id="node6" class="node">
<title>TaskUC</title>
<ellipse fill="#fdb462" stroke="black" cx="347" cy="-66.8" rx="43.44" ry="18"/>
<text text-anchor="middle" x="347" y="-62.6" font-family="Times,serif" font-size="14.00">TaskUC</text>
</g>
<!-- TaskUC&#45;&gt;TaskModule -->
<g id="edge5" class="edge">
<title>TaskUC&#45;&gt;TaskModule</title>
<path fill="none" stroke="black" d="M374.42,-80.9C374.42,-80.9 374.42,-103.52 374.42,-103.52"/>
<polygon fill="black" stroke="black" points="370.92,-103.52 374.42,-113.52 377.92,-103.52 370.92,-103.52"/>
</g>
<!-- UserRepo -->
<g id="node7" class="node">
<title>UserRepo</title>
<ellipse fill="#fdb462" stroke="black" cx="236" cy="-66.8" rx="49.8" ry="18"/>
<text text-anchor="middle" x="236" y="-62.6" font-family="Times,serif" font-size="14.00">UserRepo</text>
</g>
<!-- UserRepo&#45;&gt;TaskModule -->
<g id="edge6" class="edge">
<title>UserRepo&#45;&gt;TaskModule</title>
<path fill="none" stroke="black" d="M236,-84.82C236,-102.17 236,-125.8 236,-125.8 236,-125.8 348.39,-125.8 348.39,-125.8"/>
<polygon fill="black" stroke="black" points="348.39,-129.3 358.39,-125.8 348.39,-122.3 348.39,-129.3"/>
</g>
</g>
</svg>
