<?xml version="1.0" encoding="UTF-8" standalone="no"?>
<!DOCTYPE svg PUBLIC "-//W3C//DTD SVG 1.1//EN"
 "http://www.w3.org/Graphics/SVG/1.1/DTD/svg11.dtd">
<!-- Generated by graphviz version 2.47.3 (20210619.1520)
 -->
<!-- Title: dependencies Pages: 1 -->
<svg width="875pt" height="174pt"
 viewBox="0.00 0.00 875.00 173.80" xmlns="http://www.w3.org/2000/svg" xmlns:xlink="http://www.w3.org/1999/xlink">
<g id="graph0" class="graph" transform="scale(1 1) rotate(0) translate(4 169.8)">
<title>dependencies</title>
<polygon fill="white" stroke="transparent" points="-4,4 -4,-169.8 871,-169.8 871,4 -4,4"/>
<text text-anchor="middle" x="433.5" y="-8.2" font-family="sans-serif" font-size="14.00">dependencies</text>
<g id="clust1" class="cluster">
<title>cluster_TaskModule</title>
<polygon fill="none" stroke="black" stroke-dasharray="1,5" points="8,-32.8 8,-157.8 859,-157.8 859,-32.8 8,-32.8"/>
</g>
<g id="clust3" class="cluster">
<title>cluster_TaskModule_imports</title>
<polygon fill="none" stroke="black" points="713,-40.8 713,-92.8 851,-92.8 851,-40.8 713,-40.8"/>
</g>
<g id="clust6" class="cluster">
<title>cluster_TaskModule_providers</title>
<polygon fill="none" stroke="black" points="16,-40.8 16,-92.8 705,-92.8 705,-40.8 16,-40.8"/>
</g>
<!-- LearnroomModule -->
<g id="node1" class="node">
<title>LearnroomModule</title>
<polygon fill="#8dd3c7" stroke="black" points="842.74,-84.8 839.74,-88.8 818.74,-88.8 815.74,-84.8 721.26,-84.8 721.26,-48.8 842.74,-48.8 842.74,-84.8"/>
<text text-anchor="middle" x="782" y="-62.6" font-family="Times,serif" font-size="14.00">LearnroomModule</text>
</g>
<!-- TaskModule -->
<g id="node2" class="node">
<title>TaskModule</title>
<polygon fill="#8dd3c7" stroke="black" points="519.26,-149.8 516.26,-153.8 495.26,-153.8 492.26,-149.8 432.74,-149.8 432.74,-113.8 519.26,-113.8 519.26,-149.8"/>
<text text-anchor="middle" x="476" y="-127.6" font-family="Times,serif" font-size="14.00">TaskModule</text>
</g>
<!-- LearnroomModule&#45;&gt;TaskModule -->
<g id="edge1" class="edge">
<title>LearnroomModule&#45;&gt;TaskModule</title>
<path fill="none" stroke="black" d="M782,-85.08C782,-106.12 782,-137.8 782,-137.8 782,-137.8 529.52,-137.8 529.52,-137.8"/>
<polygon fill="black" stroke="black" points="529.52,-134.3 519.52,-137.8 529.52,-141.3 529.52,-134.3"/>
</g>
<!-- SubmissionRepo -->
<g id="node3" class="node">
<title>SubmissionRepo</title>
<ellipse fill="#fdb462" stroke="black" cx="621" cy="-66.8" rx="76.49" ry="18"/>
<text text-anchor="middle" x="621" y="-62.6" font-family="Times,serif" font-size="14.00">SubmissionRepo</text>
</g>
<!-- SubmissionRepo&#45;&gt;TaskModule -->
<g id="edge2" class="edge">
<title>SubmissionRepo&#45;&gt;TaskModule</title>
<path fill="none" stroke="black" d="M621,-84.82C621,-102.17 621,-125.8 621,-125.8 621,-125.8 529.5,-125.8 529.5,-125.8"/>
<polygon fill="black" stroke="black" points="529.5,-122.3 519.5,-125.8 529.5,-129.3 529.5,-122.3"/>
</g>
<!-- TaskRepo -->
<g id="node4" class="node">
<title>TaskRepo</title>
<ellipse fill="#fdb462" stroke="black" cx="476" cy="-66.8" rx="50.38" ry="18"/>
<text text-anchor="middle" x="476" y="-62.6" font-family="Times,serif" font-size="14.00">TaskRepo</text>
</g>
<!-- TaskRepo&#45;&gt;TaskModule -->
<g id="edge3" class="edge">
<title>TaskRepo&#45;&gt;TaskModule</title>
<path fill="none" stroke="black" d="M476,-84.91C476,-84.91 476,-103.79 476,-103.79"/>
<polygon fill="black" stroke="black" points="472.5,-103.79 476,-113.79 479.5,-103.79 472.5,-103.79"/>
</g>
<!-- TaskSubmissionMetadataService -->
<g id="node5" class="node">
<title>TaskSubmissionMetadataService</title>
<ellipse fill="#fdb462" stroke="black" cx="268" cy="-66.8" rx="139.52" ry="18"/>
<text text-anchor="middle" x="268" y="-62.6" font-family="Times,serif" font-size="14.00">TaskSubmissionMetadataService</text>
</g>
<!-- TaskSubmissionMetadataService&#45;&gt;TaskModule -->
<g id="edge4" class="edge">
<title>TaskSubmissionMetadataService&#45;&gt;TaskModule</title>
<path fill="none" stroke="black" d="M268,-84.82C268,-102.17 268,-125.8 268,-125.8 268,-125.8 422.65,-125.8 422.65,-125.8"/>
<polygon fill="black" stroke="black" points="422.65,-129.3 432.65,-125.8 422.65,-122.3 422.65,-129.3"/>
</g>
<!-- TaskUC -->
<g id="node6" class="node">
<title>TaskUC</title>
<ellipse fill="#fdb462" stroke="black" cx="67" cy="-66.8" rx="43.44" ry="18"/>
<text text-anchor="middle" x="67" y="-62.6" font-family="Times,serif" font-size="14.00">TaskUC</text>
</g>
<!-- TaskUC&#45;&gt;TaskModule -->
<g id="edge5" class="edge">
<title>TaskUC&#45;&gt;TaskModule</title>
<path fill="none" stroke="black" d="M67,-85.08C67,-106.12 67,-137.8 67,-137.8 67,-137.8 422.62,-137.8 422.62,-137.8"/>
<polygon fill="black" stroke="black" points="422.62,-141.3 432.62,-137.8 422.62,-134.3 422.62,-141.3"/>
</g>
</g>
</svg>
