<?xml version="1.0" encoding="UTF-8" standalone="no"?>
<!DOCTYPE svg PUBLIC "-//W3C//DTD SVG 1.1//EN"
 "http://www.w3.org/Graphics/SVG/1.1/DTD/svg11.dtd">
<!-- Generated by graphviz version 2.47.3 (20210619.1520)
 -->
<!-- Title: dependencies Pages: 1 -->
<svg width="1077pt" height="174pt"
 viewBox="0.00 0.00 1077.00 173.80" xmlns="http://www.w3.org/2000/svg" xmlns:xlink="http://www.w3.org/1999/xlink">
<g id="graph0" class="graph" transform="scale(1 1) rotate(0) translate(4 169.8)">
<title>dependencies</title>
<polygon fill="white" stroke="transparent" points="-4,4 -4,-169.8 1073,-169.8 1073,4 -4,4"/>
<text text-anchor="middle" x="534.5" y="-8.2" font-family="sans-serif" font-size="14.00">dependencies</text>
<g id="clust1" class="cluster">
<title>cluster_TaskModule</title>
<polygon fill="none" stroke="black" stroke-dasharray="1,5" points="8,-32.8 8,-157.8 1061,-157.8 1061,-32.8 8,-32.8"/>
</g>
<g id="clust6" class="cluster">
<title>cluster_TaskModule_providers</title>
<polygon fill="none" stroke="black" points="16,-40.8 16,-92.8 1053,-92.8 1053,-40.8 16,-40.8"/>
</g>
<!-- CourseRepo -->
<g id="node1" class="node">
<title>CourseRepo</title>
<ellipse fill="#fdb462" stroke="black" cx="986" cy="-66.8" rx="58.55" ry="18"/>
<text text-anchor="middle" x="986" y="-62.6" font-family="Times,serif" font-size="14.00">CourseRepo</text>
</g>
<!-- TaskModule -->
<g id="node8" class="node">
<title>TaskModule</title>
<polygon fill="#8dd3c7" stroke="black" points="520.26,-149.8 517.26,-153.8 496.26,-153.8 493.26,-149.8 433.74,-149.8 433.74,-113.8 520.26,-113.8 520.26,-149.8"/>
<text text-anchor="middle" x="477" y="-127.6" font-family="Times,serif" font-size="14.00">TaskModule</text>
</g>
<!-- CourseRepo&#45;&gt;TaskModule -->
<g id="edge1" class="edge">
<title>CourseRepo&#45;&gt;TaskModule</title>
<path fill="none" stroke="black" d="M986,-85.09C986,-107.01 986,-140.8 986,-140.8 986,-140.8 530.4,-140.8 530.4,-140.8"/>
<polygon fill="black" stroke="black" points="530.4,-137.3 520.4,-140.8 530.4,-144.3 530.4,-137.3"/>
</g>
<!-- LessonRepo -->
<g id="node2" class="node">
<title>LessonRepo</title>
<ellipse fill="#fdb462" stroke="black" cx="850" cy="-66.8" rx="58.55" ry="18"/>
<text text-anchor="middle" x="850" y="-62.6" font-family="Times,serif" font-size="14.00">LessonRepo</text>
</g>
<!-- LessonRepo&#45;&gt;TaskModule -->
<g id="edge2" class="edge">
<title>LessonRepo&#45;&gt;TaskModule</title>
<path fill="none" stroke="black" d="M850,-84.91C850,-104.14 850,-131.8 850,-131.8 850,-131.8 530.52,-131.8 530.52,-131.8"/>
<polygon fill="black" stroke="black" points="530.52,-128.3 520.52,-131.8 530.52,-135.3 530.52,-128.3"/>
</g>
<!-- PermissionService -->
<g id="node3" class="node">
<title>PermissionService</title>
<ellipse fill="#fdb462" stroke="black" cx="690" cy="-66.8" rx="82.82" ry="18"/>
<text text-anchor="middle" x="690" y="-62.6" font-family="Times,serif" font-size="14.00">PermissionService</text>
</g>
<!-- PermissionService&#45;&gt;TaskModule -->
<g id="edge3" class="edge">
<title>PermissionService&#45;&gt;TaskModule</title>
<path fill="none" stroke="black" d="M690,-84.83C690,-101.2 690,-122.8 690,-122.8 690,-122.8 530.36,-122.8 530.36,-122.8"/>
<polygon fill="black" stroke="black" points="530.36,-119.3 520.36,-122.8 530.36,-126.3 530.36,-119.3"/>
</g>
<!-- TaskAuthorizationService -->
<g id="node4" class="node">
<title>TaskAuthorizationService</title>
<ellipse fill="#fdb462" stroke="black" cx="477" cy="-66.8" rx="112.3" ry="18"/>
<text text-anchor="middle" x="477" y="-62.6" font-family="Times,serif" font-size="14.00">TaskAuthorizationService</text>
</g>
<!-- TaskAuthorizationService&#45;&gt;TaskModule -->
<g id="edge4" class="edge">
<title>TaskAuthorizationService&#45;&gt;TaskModule</title>
<path fill="none" stroke="black" d="M477,-84.91C477,-84.91 477,-103.79 477,-103.79"/>
<polygon fill="black" stroke="black" points="473.5,-103.79 477,-113.79 480.5,-103.79 473.5,-103.79"/>
</g>
<!-- TaskRepo -->
<g id="node5" class="node">
<title>TaskRepo</title>
<ellipse fill="#fdb462" stroke="black" cx="296" cy="-66.8" rx="50.38" ry="18"/>
<text text-anchor="middle" x="296" y="-62.6" font-family="Times,serif" font-size="14.00">TaskRepo</text>
</g>
<!-- TaskRepo&#45;&gt;TaskModule -->
<g id="edge5" class="edge">
<title>TaskRepo&#45;&gt;TaskModule</title>
<path fill="none" stroke="black" d="M296,-84.83C296,-101.2 296,-122.8 296,-122.8 296,-122.8 423.65,-122.8 423.65,-122.8"/>
<polygon fill="black" stroke="black" points="423.65,-126.3 433.65,-122.8 423.65,-119.3 423.65,-126.3"/>
</g>
<!-- TaskUC -->
<g id="node6" class="node">
<title>TaskUC</title>
<ellipse fill="#fdb462" stroke="black" cx="185" cy="-66.8" rx="43.44" ry="18"/>
<text text-anchor="middle" x="185" y="-62.6" font-family="Times,serif" font-size="14.00">TaskUC</text>
</g>
<!-- TaskUC&#45;&gt;TaskModule -->
<g id="edge6" class="edge">
<title>TaskUC&#45;&gt;TaskModule</title>
<path fill="none" stroke="black" d="M185,-84.91C185,-104.14 185,-131.8 185,-131.8 185,-131.8 423.6,-131.8 423.6,-131.8"/>
<polygon fill="black" stroke="black" points="423.6,-135.3 433.6,-131.8 423.6,-128.3 423.6,-135.3"/>
</g>
<!-- UserRepo -->
<g id="node7" class="node">
<title>UserRepo</title>
<ellipse fill="#fdb462" stroke="black" cx="74" cy="-66.8" rx="49.8" ry="18"/>
<text text-anchor="middle" x="74" y="-62.6" font-family="Times,serif" font-size="14.00">UserRepo</text>
</g>
<!-- UserRepo&#45;&gt;TaskModule -->
<g id="edge7" class="edge">
<title>UserRepo&#45;&gt;TaskModule</title>
<path fill="none" stroke="black" d="M74,-85.09C74,-107.01 74,-140.8 74,-140.8 74,-140.8 423.49,-140.8 423.49,-140.8"/>
<polygon fill="black" stroke="black" points="423.49,-144.3 433.49,-140.8 423.49,-137.3 423.49,-144.3"/>
</g>
</g>
</svg>
