<?xml version="1.0" encoding="UTF-8" standalone="no"?>
<!DOCTYPE svg PUBLIC "-//W3C//DTD SVG 1.1//EN"
 "http://www.w3.org/Graphics/SVG/1.1/DTD/svg11.dtd">
<!-- Generated by graphviz version 3.0.0 (20220226.1711)
 -->
<!-- Title: dependencies Pages: 1 -->
<svg width="1017pt" height="174pt"
 viewBox="0.00 0.00 1017.00 173.80" xmlns="http://www.w3.org/2000/svg" xmlns:xlink="http://www.w3.org/1999/xlink">
<g id="graph0" class="graph" transform="scale(1 1) rotate(0) translate(4 169.8)">
<title>dependencies</title>
<polygon fill="white" stroke="transparent" points="-4,4 -4,-169.8 1013,-169.8 1013,4 -4,4"/>
<text text-anchor="middle" x="504.5" y="-8.2" font-family="sans-serif" font-size="14.00">dependencies</text>
<g id="clust1" class="cluster">
<title>cluster_TaskModule</title>
<polygon fill="none" stroke="black" stroke-dasharray="1,5" points="8,-32.8 8,-157.8 1001,-157.8 1001,-32.8 8,-32.8"/>
</g>
<g id="clust6" class="cluster">
<title>cluster_TaskModule_providers</title>
<polygon fill="none" stroke="black" points="178,-40.8 178,-92.8 993,-92.8 993,-40.8 178,-40.8"/>
</g>
<g id="clust3" class="cluster">
<title>cluster_TaskModule_imports</title>
<polygon fill="none" stroke="black" points="16,-40.8 16,-92.8 170,-92.8 170,-40.8 16,-40.8"/>
</g>
<!-- AuthorizationModule -->
<g id="node1" class="node">
<title>AuthorizationModule</title>
<polygon fill="#8dd3c7" stroke="black" points="161.81,-84.8 158.81,-88.8 137.81,-88.8 134.81,-84.8 24.19,-84.8 24.19,-48.8 161.81,-48.8 161.81,-84.8"/>
<text text-anchor="middle" x="93" y="-62.6" font-family="Times,serif" font-size="14.00">AuthorizationModule</text>
</g>
<!-- TaskModule -->
<g id="node2" class="node">
<title>TaskModule</title>
<polygon fill="#8dd3c7" stroke="black" points="515.27,-149.8 512.27,-153.8 491.27,-153.8 488.27,-149.8 428.73,-149.8 428.73,-113.8 515.27,-113.8 515.27,-149.8"/>
<text text-anchor="middle" x="472" y="-127.6" font-family="Times,serif" font-size="14.00">TaskModule</text>
</g>
<!-- AuthorizationModule&#45;&gt;TaskModule -->
<g id="edge1" class="edge">
<title>AuthorizationModule&#45;&gt;TaskModule</title>
<path fill="none" stroke="black" d="M93,-85.09C93,-107.01 93,-140.8 93,-140.8 93,-140.8 418.52,-140.8 418.52,-140.8"/>
<polygon fill="black" stroke="black" points="418.52,-144.3 428.52,-140.8 418.52,-137.3 418.52,-144.3"/>
</g>
<!-- CourseRepo -->
<g id="node3" class="node">
<title>CourseRepo</title>
<ellipse fill="#fdb462" stroke="black" cx="926" cy="-66.8" rx="58.56" ry="18"/>
<text text-anchor="middle" x="926" y="-62.6" font-family="Times,serif" font-size="14.00">CourseRepo</text>
</g>
<!-- CourseRepo&#45;&gt;TaskModule -->
<g id="edge2" class="edge">
<title>CourseRepo&#45;&gt;TaskModule</title>
<path fill="none" stroke="black" d="M926,-85.09C926,-107.01 926,-140.8 926,-140.8 926,-140.8 525.53,-140.8 525.53,-140.8"/>
<polygon fill="black" stroke="black" points="525.53,-137.3 515.53,-140.8 525.53,-144.3 525.53,-137.3"/>
</g>
<!-- LessonRepo -->
<g id="node4" class="node">
<title>LessonRepo</title>
<ellipse fill="#fdb462" stroke="black" cx="790" cy="-66.8" rx="58.56" ry="18"/>
<text text-anchor="middle" x="790" y="-62.6" font-family="Times,serif" font-size="14.00">LessonRepo</text>
</g>
<!-- LessonRepo&#45;&gt;TaskModule -->
<g id="edge3" class="edge">
<title>LessonRepo&#45;&gt;TaskModule</title>
<path fill="none" stroke="black" d="M790,-84.91C790,-104.14 790,-131.8 790,-131.8 790,-131.8 525.55,-131.8 525.55,-131.8"/>
<polygon fill="black" stroke="black" points="525.55,-128.3 515.55,-131.8 525.55,-135.3 525.55,-128.3"/>
</g>
<!-- TaskCopyService -->
<g id="node5" class="node">
<title>TaskCopyService</title>
<ellipse fill="#fdb462" stroke="black" cx="634" cy="-66.8" rx="79.88" ry="18"/>
<text text-anchor="middle" x="634" y="-62.6" font-family="Times,serif" font-size="14.00">TaskCopyService</text>
</g>
<!-- TaskCopyService&#45;&gt;TaskModule -->
<g id="edge4" class="edge">
<title>TaskCopyService&#45;&gt;TaskModule</title>
<path fill="none" stroke="black" d="M634,-84.83C634,-101.2 634,-122.8 634,-122.8 634,-122.8 525.41,-122.8 525.41,-122.8"/>
<polygon fill="black" stroke="black" points="525.41,-119.3 515.41,-122.8 525.41,-126.3 525.41,-119.3"/>
</g>
<!-- TaskCopyUC -->
<g id="node6" class="node">
<title>TaskCopyUC</title>
<ellipse fill="#fdb462" stroke="black" cx="472" cy="-66.8" rx="64.3" ry="18"/>
<text text-anchor="middle" x="472" y="-62.6" font-family="Times,serif" font-size="14.00">TaskCopyUC</text>
</g>
<!-- TaskCopyUC&#45;&gt;TaskModule -->
<g id="edge5" class="edge">
<title>TaskCopyUC&#45;&gt;TaskModule</title>
<path fill="none" stroke="black" d="M472,-84.91C472,-84.91 472,-103.79 472,-103.79"/>
<polygon fill="black" stroke="black" points="468.5,-103.79 472,-113.79 475.5,-103.79 468.5,-103.79"/>
</g>
<!-- TaskRepo -->
<g id="node7" class="node">
<title>TaskRepo</title>
<ellipse fill="#fdb462" stroke="black" cx="340" cy="-66.8" rx="50.39" ry="18"/>
<text text-anchor="middle" x="340" y="-62.6" font-family="Times,serif" font-size="14.00">TaskRepo</text>
</g>
<!-- TaskRepo&#45;&gt;TaskModule -->
<g id="edge6" class="edge">
<title>TaskRepo&#45;&gt;TaskModule</title>
<path fill="none" stroke="black" d="M340,-84.83C340,-101.2 340,-122.8 340,-122.8 340,-122.8 418.41,-122.8 418.41,-122.8"/>
<polygon fill="black" stroke="black" points="418.41,-126.3 428.41,-122.8 418.41,-119.3 418.41,-126.3"/>
</g>
<!-- TaskUC -->
<g id="node8" class="node">
<title>TaskUC</title>
<ellipse fill="#fdb462" stroke="black" cx="229" cy="-66.8" rx="43.45" ry="18"/>
<text text-anchor="middle" x="229" y="-62.6" font-family="Times,serif" font-size="14.00">TaskUC</text>
</g>
<!-- TaskUC&#45;&gt;TaskModule -->
<g id="edge7" class="edge">
<title>TaskUC&#45;&gt;TaskModule</title>
<path fill="none" stroke="black" d="M229,-84.91C229,-104.14 229,-131.8 229,-131.8 229,-131.8 418.56,-131.8 418.56,-131.8"/>
<polygon fill="black" stroke="black" points="418.56,-135.3 428.56,-131.8 418.56,-128.3 418.56,-135.3"/>
</g>
</g>
</svg>
