<?xml version="1.0" encoding="UTF-8" standalone="no"?>
<!DOCTYPE svg PUBLIC "-//W3C//DTD SVG 1.1//EN"
 "http://www.w3.org/Graphics/SVG/1.1/DTD/svg11.dtd">
<!-- Generated by graphviz version 5.0.0 (20220707.1540)
 -->
<!-- Title: dependencies Pages: 1 -->
<svg width="2269pt" height="247pt"
 viewBox="0.00 0.00 2269.00 246.80" xmlns="http://www.w3.org/2000/svg" xmlns:xlink="http://www.w3.org/1999/xlink">
<g id="graph0" class="graph" transform="scale(1 1) rotate(0) translate(4 242.8)">
<title>dependencies</title>
<polygon fill="white" stroke="transparent" points="-4,4 -4,-242.8 2265,-242.8 2265,4 -4,4"/>
<text text-anchor="middle" x="1130.5" y="-8.2" font-family="sans-serif" font-size="14.00">dependencies</text>
<g id="clust1" class="cluster">
<title>cluster_TaskModule</title>
<polygon fill="none" stroke="black" stroke-dasharray="1,5" points="8,-32.8 8,-230.8 2253,-230.8 2253,-32.8 8,-32.8"/>
</g>
<g id="clust6" class="cluster">
<title>cluster_TaskModule_providers</title>
<polygon fill="none" stroke="black" points="360,-40.8 360,-92.8 2245,-92.8 2245,-40.8 360,-40.8"/>
</g>
<g id="clust4" class="cluster">
<title>cluster_TaskModule_exports</title>
<polygon fill="none" stroke="black" points="968,-170.8 968,-222.8 1072,-222.8 1072,-170.8 968,-170.8"/>
</g>
<g id="clust3" class="cluster">
<title>cluster_TaskModule_imports</title>
<polygon fill="none" stroke="black" points="16,-40.8 16,-92.8 352,-92.8 352,-40.8 16,-40.8"/>
</g>
<!-- AuthorizationModule -->
<g id="node1" class="node">
<title>AuthorizationModule</title>
<polygon fill="#8dd3c7" stroke="black" points="343.81,-84.8 340.81,-88.8 319.81,-88.8 316.81,-84.8 206.19,-84.8 206.19,-48.8 343.81,-48.8 343.81,-84.8"/>
<text text-anchor="middle" x="275" y="-62.6" font-family="Times,serif" font-size="14.00">AuthorizationModule</text>
</g>
<!-- TaskModule -->
<g id="node3" class="node">
<title>TaskModule</title>
<polygon fill="#8dd3c7" stroke="black" points="1063.27,-149.8 1060.27,-153.8 1039.27,-153.8 1036.27,-149.8 976.73,-149.8 976.73,-113.8 1063.27,-113.8 1063.27,-149.8"/>
<text text-anchor="middle" x="1020" y="-127.6" font-family="Times,serif" font-size="14.00">TaskModule</text>
</g>
<!-- AuthorizationModule&#45;&gt;TaskModule -->
<g id="edge1" class="edge">
<title>AuthorizationModule&#45;&gt;TaskModule</title>
<path fill="none" stroke="black" d="M275,-84.84C275,-106.46 275,-139.8 275,-139.8 275,-139.8 966.73,-139.8 966.73,-139.8"/>
<polygon fill="black" stroke="black" points="966.73,-143.3 976.73,-139.8 966.73,-136.3 966.73,-143.3"/>
</g>
<!-- FilesStorageClientModule -->
<g id="node2" class="node">
<title>FilesStorageClientModule</title>
<polygon fill="#8dd3c7" stroke="black" points="187.77,-84.8 184.77,-88.8 163.77,-88.8 160.77,-84.8 24.23,-84.8 24.23,-48.8 187.77,-48.8 187.77,-84.8"/>
<text text-anchor="middle" x="106" y="-62.6" font-family="Times,serif" font-size="14.00">FilesStorageClientModule</text>
</g>
<!-- FilesStorageClientModule&#45;&gt;TaskModule -->
<g id="edge2" class="edge">
<title>FilesStorageClientModule&#45;&gt;TaskModule</title>
<path fill="none" stroke="black" d="M106,-84.89C106,-107.93 106,-144.8 106,-144.8 106,-144.8 966.53,-144.8 966.53,-144.8"/>
<polygon fill="black" stroke="black" points="966.53,-148.3 976.53,-144.8 966.53,-141.3 966.53,-148.3"/>
</g>
<!-- TaskService  -->
<g id="node4" class="node">
<title>TaskService </title>
<polygon fill="#fb8072" stroke="black" points="1064.19,-214.8 975.81,-214.8 975.81,-178.8 1064.19,-178.8 1064.19,-214.8"/>
<text text-anchor="middle" x="1020" y="-192.6" font-family="Times,serif" font-size="14.00">TaskService </text>
</g>
<!-- TaskModule&#45;&gt;TaskService  -->
<g id="edge3" class="edge">
<title>TaskModule&#45;&gt;TaskService </title>
<path fill="none" stroke="black" stroke-dasharray="5,2" d="M1020,-149.91C1020,-149.91 1020,-168.79 1020,-168.79"/>
<polygon fill="black" stroke="black" points="1016.5,-168.79 1020,-178.79 1023.5,-168.79 1016.5,-168.79"/>
</g>
<!-- CopyHelperService -->
<g id="node5" class="node">
<title>CopyHelperService</title>
<ellipse fill="#fdb462" stroke="black" cx="2150" cy="-66.8" rx="87.39" ry="18"/>
<text text-anchor="middle" x="2150" y="-62.6" font-family="Times,serif" font-size="14.00">CopyHelperService</text>
</g>
<!-- CopyHelperService&#45;&gt;TaskModule -->
<g id="edge4" class="edge">
<title>CopyHelperService&#45;&gt;TaskModule</title>
<path fill="none" stroke="black" d="M2150,-84.89C2150,-107.93 2150,-144.8 2150,-144.8 2150,-144.8 1073.6,-144.8 1073.6,-144.8"/>
<polygon fill="black" stroke="black" points="1073.6,-141.3 1063.6,-144.8 1073.6,-148.3 1073.6,-141.3"/>
</g>
<!-- CourseRepo -->
<g id="node6" class="node">
<title>CourseRepo</title>
<ellipse fill="#fdb462" stroke="black" cx="1986" cy="-66.8" rx="58.56" ry="18"/>
<text text-anchor="middle" x="1986" y="-62.6" font-family="Times,serif" font-size="14.00">CourseRepo</text>
</g>
<!-- CourseRepo&#45;&gt;TaskModule -->
<g id="edge5" class="edge">
<title>CourseRepo&#45;&gt;TaskModule</title>
<path fill="none" stroke="black" d="M1986,-84.84C1986,-106.46 1986,-139.8 1986,-139.8 1986,-139.8 1073.38,-139.8 1073.38,-139.8"/>
<polygon fill="black" stroke="black" points="1073.38,-136.3 1063.38,-139.8 1073.38,-143.3 1073.38,-136.3"/>
</g>
<!-- FeathersServiceProvider -->
<g id="node7" class="node">
<title>FeathersServiceProvider</title>
<ellipse fill="#fdb462" stroke="black" cx="1803" cy="-66.8" rx="105.93" ry="18"/>
<text text-anchor="middle" x="1803" y="-62.6" font-family="Times,serif" font-size="14.00">FeathersServiceProvider</text>
</g>
<!-- FeathersServiceProvider&#45;&gt;TaskModule -->
<g id="edge6" class="edge">
<title>FeathersServiceProvider&#45;&gt;TaskModule</title>
<path fill="none" stroke="black" d="M1803,-85.02C1803,-105.17 1803,-134.8 1803,-134.8 1803,-134.8 1073.49,-134.8 1073.49,-134.8"/>
<polygon fill="black" stroke="black" points="1073.49,-131.3 1063.49,-134.8 1073.49,-138.3 1073.49,-131.3"/>
</g>
<!-- FileCopyAppendService -->
<g id="node8" class="node">
<title>FileCopyAppendService</title>
<ellipse fill="#fdb462" stroke="black" cx="1573" cy="-66.8" rx="106.53" ry="18"/>
<text text-anchor="middle" x="1573" y="-62.6" font-family="Times,serif" font-size="14.00">FileCopyAppendService</text>
</g>
<!-- FileCopyAppendService&#45;&gt;TaskModule -->
<g id="edge7" class="edge">
<title>FileCopyAppendService&#45;&gt;TaskModule</title>
<path fill="none" stroke="black" d="M1573,-85.02C1573,-103.63 1573,-129.8 1573,-129.8 1573,-129.8 1073.39,-129.8 1073.39,-129.8"/>
<polygon fill="black" stroke="black" points="1073.39,-126.3 1063.39,-129.8 1073.39,-133.3 1073.39,-126.3"/>
</g>
<!-- FileLegacyService -->
<g id="node9" class="node">
<title>FileLegacyService</title>
<ellipse fill="#fdb462" stroke="black" cx="1365" cy="-66.8" rx="83.36" ry="18"/>
<text text-anchor="middle" x="1365" y="-62.6" font-family="Times,serif" font-size="14.00">FileLegacyService</text>
</g>
<!-- FileLegacyService&#45;&gt;TaskModule -->
<g id="edge8" class="edge">
<title>FileLegacyService&#45;&gt;TaskModule</title>
<path fill="none" stroke="black" d="M1365,-84.83C1365,-101.86 1365,-124.8 1365,-124.8 1365,-124.8 1073.35,-124.8 1073.35,-124.8"/>
<polygon fill="black" stroke="black" points="1073.35,-121.3 1063.35,-124.8 1073.35,-128.3 1073.35,-121.3"/>
</g>
<!-- LessonRepo -->
<g id="node10" class="node">
<title>LessonRepo</title>
<ellipse fill="#fdb462" stroke="black" cx="1205" cy="-66.8" rx="58.56" ry="18"/>
<text text-anchor="middle" x="1205" y="-62.6" font-family="Times,serif" font-size="14.00">LessonRepo</text>
</g>
<!-- LessonRepo&#45;&gt;TaskModule -->
<g id="edge9" class="edge">
<title>LessonRepo&#45;&gt;TaskModule</title>
<path fill="none" stroke="black" d="M1205,-85.04C1205,-100.37 1205,-119.8 1205,-119.8 1205,-119.8 1073.37,-119.8 1073.37,-119.8"/>
<polygon fill="black" stroke="black" points="1073.37,-116.3 1063.37,-119.8 1073.37,-123.3 1073.37,-116.3"/>
</g>
<!-- Logger -->
<g id="node11" class="node">
<title>Logger</title>
<ellipse fill="#fdb462" stroke="black" cx="1089" cy="-66.8" rx="38.85" ry="18"/>
<text text-anchor="middle" x="1089" y="-62.6" font-family="Times,serif" font-size="14.00">Logger</text>
</g>
<!-- Logger&#45;&gt;TaskModule -->
<g id="edge10" class="edge">
<title>Logger&#45;&gt;TaskModule</title>
<path fill="none" stroke="black" d="M1056.73,-76.96C1056.73,-76.96 1056.73,-103.61 1056.73,-103.61"/>
<polygon fill="black" stroke="black" points="1053.23,-103.61 1056.73,-113.61 1060.23,-103.61 1053.23,-103.61"/>
</g>
<!-- TaskCopyService -->
<g id="node12" class="node">
<title>TaskCopyService</title>
<ellipse fill="#fdb462" stroke="black" cx="952" cy="-66.8" rx="79.88" ry="18"/>
<text text-anchor="middle" x="952" y="-62.6" font-family="Times,serif" font-size="14.00">TaskCopyService</text>
</g>
<!-- TaskCopyService&#45;&gt;TaskModule -->
<g id="edge11" class="edge">
<title>TaskCopyService&#45;&gt;TaskModule</title>
<path fill="none" stroke="black" d="M1004.15,-80.58C1004.15,-80.58 1004.15,-103.35 1004.15,-103.35"/>
<polygon fill="black" stroke="black" points="1000.65,-103.35 1004.15,-113.35 1007.65,-103.35 1000.65,-103.35"/>
</g>
<!-- TaskCopyUC -->
<g id="node13" class="node">
<title>TaskCopyUC</title>
<ellipse fill="#fdb462" stroke="black" cx="790" cy="-66.8" rx="64.3" ry="18"/>
<text text-anchor="middle" x="790" y="-62.6" font-family="Times,serif" font-size="14.00">TaskCopyUC</text>
</g>
<!-- TaskCopyUC&#45;&gt;TaskModule -->
<g id="edge12" class="edge">
<title>TaskCopyUC&#45;&gt;TaskModule</title>
<path fill="none" stroke="black" d="M790,-85.04C790,-100.37 790,-119.8 790,-119.8 790,-119.8 966.47,-119.8 966.47,-119.8"/>
<polygon fill="black" stroke="black" points="966.47,-123.3 976.47,-119.8 966.47,-116.3 966.47,-123.3"/>
</g>
<!-- TaskRepo -->
<g id="node14" class="node">
<title>TaskRepo</title>
<ellipse fill="#fdb462" stroke="black" cx="658" cy="-66.8" rx="50.39" ry="18"/>
<text text-anchor="middle" x="658" y="-62.6" font-family="Times,serif" font-size="14.00">TaskRepo</text>
</g>
<!-- TaskRepo&#45;&gt;TaskModule -->
<g id="edge13" class="edge">
<title>TaskRepo&#45;&gt;TaskModule</title>
<path fill="none" stroke="black" d="M658,-84.83C658,-101.86 658,-124.8 658,-124.8 658,-124.8 966.69,-124.8 966.69,-124.8"/>
<polygon fill="black" stroke="black" points="966.69,-128.3 976.69,-124.8 966.69,-121.3 966.69,-128.3"/>
</g>
<!-- TaskService -->
<g id="node15" class="node">
<title>TaskService</title>
<ellipse fill="#fdb462" stroke="black" cx="531" cy="-66.8" rx="58.53" ry="18"/>
<text text-anchor="middle" x="531" y="-62.6" font-family="Times,serif" font-size="14.00">TaskService</text>
</g>
<!-- TaskService&#45;&gt;TaskModule -->
<g id="edge14" class="edge">
<title>TaskService&#45;&gt;TaskModule</title>
<path fill="none" stroke="black" d="M531,-85.02C531,-103.63 531,-129.8 531,-129.8 531,-129.8 966.6,-129.8 966.6,-129.8"/>
<polygon fill="black" stroke="black" points="966.6,-133.3 976.6,-129.8 966.6,-126.3 966.6,-133.3"/>
</g>
<!-- TaskUC -->
<g id="node16" class="node">
<title>TaskUC</title>
<ellipse fill="#fdb462" stroke="black" cx="411" cy="-66.8" rx="43.45" ry="18"/>
<text text-anchor="middle" x="411" y="-62.6" font-family="Times,serif" font-size="14.00">TaskUC</text>
</g>
<!-- TaskUC&#45;&gt;TaskModule -->
<g id="edge15" class="edge">
<title>TaskUC&#45;&gt;TaskModule</title>
<path fill="none" stroke="black" d="M411,-85.02C411,-105.17 411,-134.8 411,-134.8 411,-134.8 966.69,-134.8 966.69,-134.8"/>
<polygon fill="black" stroke="black" points="966.69,-138.3 976.69,-134.8 966.69,-131.3 966.69,-138.3"/>
</g>
</g>
</svg>
