<?xml version="1.0" encoding="UTF-8" standalone="no"?>
<!DOCTYPE svg PUBLIC "-//W3C//DTD SVG 1.1//EN"
 "http://www.w3.org/Graphics/SVG/1.1/DTD/svg11.dtd">
<!-- Generated by graphviz version 2.47.3 (20210619.1520)
 -->
<!-- Title: dependencies Pages: 1 -->
<svg width="567pt" height="174pt"
 viewBox="0.00 0.00 567.00 173.80" xmlns="http://www.w3.org/2000/svg" xmlns:xlink="http://www.w3.org/1999/xlink">
<g id="graph0" class="graph" transform="scale(1 1) rotate(0) translate(4 169.8)">
<title>dependencies</title>
<polygon fill="white" stroke="transparent" points="-4,4 -4,-169.8 563,-169.8 563,4 -4,4"/>
<text text-anchor="middle" x="279.5" y="-8.2" font-family="sans-serif" font-size="14.00">dependencies</text>
<g id="clust1" class="cluster">
<title>cluster_TaskModule</title>
<polygon fill="none" stroke="black" stroke-dasharray="1,5" points="8,-32.8 8,-157.8 551,-157.8 551,-32.8 8,-32.8"/>
</g>
<g id="clust6" class="cluster">
<title>cluster_TaskModule_providers</title>
<polygon fill="none" stroke="black" points="16,-40.8 16,-92.8 543,-92.8 543,-40.8 16,-40.8"/>
</g>
<!-- CourseRepo -->
<g id="node1" class="node">
<title>CourseRepo</title>
<ellipse fill="#fdb462" stroke="black" cx="476" cy="-66.8" rx="58.55" ry="18"/>
<text text-anchor="middle" x="476" y="-62.6" font-family="Times,serif" font-size="14.00">CourseRepo</text>
</g>
<!-- TaskModule -->
<g id="node5" class="node">
<title>TaskModule</title>
<polygon fill="#8dd3c7" stroke="black" points="293.26,-149.8 290.26,-153.8 269.26,-153.8 266.26,-149.8 206.74,-149.8 206.74,-113.8 293.26,-113.8 293.26,-149.8"/>
<text text-anchor="middle" x="250" y="-127.6" font-family="Times,serif" font-size="14.00">TaskModule</text>
</g>
<!-- CourseRepo&#45;&gt;TaskModule -->
<g id="edge1" class="edge">
<title>CourseRepo&#45;&gt;TaskModule</title>
<path fill="none" stroke="black" d="M476,-84.91C476,-104.14 476,-131.8 476,-131.8 476,-131.8 303.31,-131.8 303.31,-131.8"/>
<polygon fill="black" stroke="black" points="303.31,-128.3 293.31,-131.8 303.31,-135.3 303.31,-128.3"/>
</g>
<!-- SubmissionRepo -->
<g id="node2" class="node">
<title>SubmissionRepo</title>
<ellipse fill="#fdb462" stroke="black" cx="323" cy="-66.8" rx="76.49" ry="18"/>
<text text-anchor="middle" x="323" y="-62.6" font-family="Times,serif" font-size="14.00">SubmissionRepo</text>
</g>
<!-- SubmissionRepo&#45;&gt;TaskModule -->
<g id="edge2" class="edge">
<title>SubmissionRepo&#45;&gt;TaskModule</title>
<path fill="none" stroke="black" d="M269.94,-79.95C269.94,-79.95 269.94,-103.49 269.94,-103.49"/>
<polygon fill="black" stroke="black" points="266.44,-103.49 269.94,-113.49 273.44,-103.49 266.44,-103.49"/>
</g>
<!-- TaskRepo -->
<g id="node3" class="node">
<title>TaskRepo</title>
<ellipse fill="#fdb462" stroke="black" cx="178" cy="-66.8" rx="50.38" ry="18"/>
<text text-anchor="middle" x="178" y="-62.6" font-family="Times,serif" font-size="14.00">TaskRepo</text>
</g>
<!-- TaskRepo&#45;&gt;TaskModule -->
<g id="edge3" class="edge">
<title>TaskRepo&#45;&gt;TaskModule</title>
<path fill="none" stroke="black" d="M217.4,-78.12C217.4,-78.12 217.4,-103.74 217.4,-103.74"/>
<polygon fill="black" stroke="black" points="213.9,-103.74 217.4,-113.74 220.9,-103.74 213.9,-103.74"/>
</g>
<!-- TaskUC -->
<g id="node4" class="node">
<title>TaskUC</title>
<ellipse fill="#fdb462" stroke="black" cx="67" cy="-66.8" rx="43.44" ry="18"/>
<text text-anchor="middle" x="67" y="-62.6" font-family="Times,serif" font-size="14.00">TaskUC</text>
</g>
<!-- TaskUC&#45;&gt;TaskModule -->
<g id="edge4" class="edge">
<title>TaskUC&#45;&gt;TaskModule</title>
<path fill="none" stroke="black" d="M67,-84.91C67,-104.14 67,-131.8 67,-131.8 67,-131.8 196.63,-131.8 196.63,-131.8"/>
<polygon fill="black" stroke="black" points="196.63,-135.3 206.63,-131.8 196.63,-128.3 196.63,-135.3"/>
</g>
</g>
</svg>
