<?xml version="1.0" encoding="UTF-8" standalone="no"?>
<!DOCTYPE svg PUBLIC "-//W3C//DTD SVG 1.1//EN"
 "http://www.w3.org/Graphics/SVG/1.1/DTD/svg11.dtd">
<!-- Generated by graphviz version 5.0.0 (20220707.1540)
 -->
<!-- Title: dependencies Pages: 1 -->
<svg width="2133pt" height="174pt"
 viewBox="0.00 0.00 2133.00 173.80" xmlns="http://www.w3.org/2000/svg" xmlns:xlink="http://www.w3.org/1999/xlink">
<g id="graph0" class="graph" transform="scale(1 1) rotate(0) translate(4 169.8)">
<title>dependencies</title>
<polygon fill="white" stroke="transparent" points="-4,4 -4,-169.8 2129,-169.8 2129,4 -4,4"/>
<text text-anchor="middle" x="1062.5" y="-8.2" font-family="sans-serif" font-size="14.00">dependencies</text>
<g id="clust1" class="cluster">
<title>cluster_TaskModule</title>
<polygon fill="none" stroke="black" stroke-dasharray="1,5" points="8,-32.8 8,-157.8 2117,-157.8 2117,-32.8 8,-32.8"/>
</g>
<g id="clust6" class="cluster">
<title>cluster_TaskModule_providers</title>
<polygon fill="none" stroke="black" points="360,-40.8 360,-92.8 2109,-92.8 2109,-40.8 360,-40.8"/>
</g>
<g id="clust3" class="cluster">
<title>cluster_TaskModule_imports</title>
<polygon fill="none" stroke="black" points="16,-40.8 16,-92.8 352,-92.8 352,-40.8 16,-40.8"/>
</g>
<!-- AuthorizationModule -->
<g id="node1" class="node">
<title>AuthorizationModule</title>
<polygon fill="#8dd3c7" stroke="black" points="343.81,-84.8 340.81,-88.8 319.81,-88.8 316.81,-84.8 206.19,-84.8 206.19,-48.8 343.81,-48.8 343.81,-84.8"/>
<text text-anchor="middle" x="275" y="-62.6" font-family="Times,serif" font-size="14.00">AuthorizationModule</text>
</g>
<!-- TaskModule -->
<g id="node3" class="node">
<title>TaskModule</title>
<polygon fill="#8dd3c7" stroke="black" points="996.27,-149.8 993.27,-153.8 972.27,-153.8 969.27,-149.8 909.73,-149.8 909.73,-113.8 996.27,-113.8 996.27,-149.8"/>
<text text-anchor="middle" x="953" y="-127.6" font-family="Times,serif" font-size="14.00">TaskModule</text>
</g>
<!-- AuthorizationModule&#45;&gt;TaskModule -->
<g id="edge1" class="edge">
<title>AuthorizationModule&#45;&gt;TaskModule</title>
<path fill="none" stroke="black" d="M275,-84.84C275,-106.46 275,-139.8 275,-139.8 275,-139.8 899.56,-139.8 899.56,-139.8"/>
<polygon fill="black" stroke="black" points="899.56,-143.3 909.56,-139.8 899.56,-136.3 899.56,-143.3"/>
</g>
<!-- FilesStorageClientModule -->
<g id="node2" class="node">
<title>FilesStorageClientModule</title>
<polygon fill="#8dd3c7" stroke="black" points="187.77,-84.8 184.77,-88.8 163.77,-88.8 160.77,-84.8 24.23,-84.8 24.23,-48.8 187.77,-48.8 187.77,-84.8"/>
<text text-anchor="middle" x="106" y="-62.6" font-family="Times,serif" font-size="14.00">FilesStorageClientModule</text>
</g>
<!-- FilesStorageClientModule&#45;&gt;TaskModule -->
<g id="edge2" class="edge">
<title>FilesStorageClientModule&#45;&gt;TaskModule</title>
<path fill="none" stroke="black" d="M106,-84.89C106,-107.93 106,-144.8 106,-144.8 106,-144.8 899.54,-144.8 899.54,-144.8"/>
<polygon fill="black" stroke="black" points="899.54,-148.3 909.54,-144.8 899.54,-141.3 899.54,-148.3"/>
</g>
<!-- CopyHelperService -->
<g id="node4" class="node">
<title>CopyHelperService</title>
<ellipse fill="#fdb462" stroke="black" cx="2014" cy="-66.8" rx="87.39" ry="18"/>
<text text-anchor="middle" x="2014" y="-62.6" font-family="Times,serif" font-size="14.00">CopyHelperService</text>
</g>
<!-- CopyHelperService&#45;&gt;TaskModule -->
<g id="edge3" class="edge">
<title>CopyHelperService&#45;&gt;TaskModule</title>
<path fill="none" stroke="black" d="M2014,-84.89C2014,-107.93 2014,-144.8 2014,-144.8 2014,-144.8 1006.57,-144.8 1006.57,-144.8"/>
<polygon fill="black" stroke="black" points="1006.57,-141.3 996.57,-144.8 1006.57,-148.3 1006.57,-141.3"/>
</g>
<!-- CourseRepo -->
<g id="node5" class="node">
<title>CourseRepo</title>
<ellipse fill="#fdb462" stroke="black" cx="1850" cy="-66.8" rx="58.56" ry="18"/>
<text text-anchor="middle" x="1850" y="-62.6" font-family="Times,serif" font-size="14.00">CourseRepo</text>
</g>
<!-- CourseRepo&#45;&gt;TaskModule -->
<g id="edge4" class="edge">
<title>CourseRepo&#45;&gt;TaskModule</title>
<path fill="none" stroke="black" d="M1850,-84.84C1850,-106.46 1850,-139.8 1850,-139.8 1850,-139.8 1006.57,-139.8 1006.57,-139.8"/>
<polygon fill="black" stroke="black" points="1006.57,-136.3 996.57,-139.8 1006.57,-143.3 1006.57,-136.3"/>
</g>
<!-- FeathersServiceProvider -->
<g id="node6" class="node">
<title>FeathersServiceProvider</title>
<ellipse fill="#fdb462" stroke="black" cx="1667" cy="-66.8" rx="105.93" ry="18"/>
<text text-anchor="middle" x="1667" y="-62.6" font-family="Times,serif" font-size="14.00">FeathersServiceProvider</text>
</g>
<!-- FeathersServiceProvider&#45;&gt;TaskModule -->
<g id="edge5" class="edge">
<title>FeathersServiceProvider&#45;&gt;TaskModule</title>
<path fill="none" stroke="black" d="M1667,-85.02C1667,-105.17 1667,-134.8 1667,-134.8 1667,-134.8 1006.32,-134.8 1006.32,-134.8"/>
<polygon fill="black" stroke="black" points="1006.32,-131.3 996.32,-134.8 1006.32,-138.3 1006.32,-131.3"/>
</g>
<!-- FileCopyAppendService -->
<g id="node7" class="node">
<title>FileCopyAppendService</title>
<ellipse fill="#fdb462" stroke="black" cx="1437" cy="-66.8" rx="106.53" ry="18"/>
<text text-anchor="middle" x="1437" y="-62.6" font-family="Times,serif" font-size="14.00">FileCopyAppendService</text>
</g>
<!-- FileCopyAppendService&#45;&gt;TaskModule -->
<g id="edge6" class="edge">
<title>FileCopyAppendService&#45;&gt;TaskModule</title>
<path fill="none" stroke="black" d="M1437,-85.02C1437,-103.63 1437,-129.8 1437,-129.8 1437,-129.8 1006.38,-129.8 1006.38,-129.8"/>
<polygon fill="black" stroke="black" points="1006.38,-126.3 996.38,-129.8 1006.38,-133.3 1006.38,-126.3"/>
</g>
<!-- FileLegacyService -->
<g id="node8" class="node">
<title>FileLegacyService</title>
<ellipse fill="#fdb462" stroke="black" cx="1229" cy="-66.8" rx="83.36" ry="18"/>
<text text-anchor="middle" x="1229" y="-62.6" font-family="Times,serif" font-size="14.00">FileLegacyService</text>
</g>
<!-- FileLegacyService&#45;&gt;TaskModule -->
<g id="edge7" class="edge">
<title>FileLegacyService&#45;&gt;TaskModule</title>
<path fill="none" stroke="black" d="M1229,-84.83C1229,-101.86 1229,-124.8 1229,-124.8 1229,-124.8 1006.43,-124.8 1006.43,-124.8"/>
<polygon fill="black" stroke="black" points="1006.43,-121.3 996.43,-124.8 1006.43,-128.3 1006.43,-121.3"/>
</g>
<!-- LessonRepo -->
<g id="node9" class="node">
<title>LessonRepo</title>
<ellipse fill="#fdb462" stroke="black" cx="1069" cy="-66.8" rx="58.56" ry="18"/>
<text text-anchor="middle" x="1069" y="-62.6" font-family="Times,serif" font-size="14.00">LessonRepo</text>
</g>
<!-- LessonRepo&#45;&gt;TaskModule -->
<g id="edge8" class="edge">
<title>LessonRepo&#45;&gt;TaskModule</title>
<path fill="none" stroke="black" d="M1069,-85.04C1069,-100.37 1069,-119.8 1069,-119.8 1069,-119.8 1006.52,-119.8 1006.52,-119.8"/>
<polygon fill="black" stroke="black" points="1006.52,-116.3 996.52,-119.8 1006.52,-123.3 1006.52,-116.3"/>
</g>
<!-- Logger -->
<g id="node10" class="node">
<title>Logger</title>
<ellipse fill="#fdb462" stroke="black" cx="953" cy="-66.8" rx="38.85" ry="18"/>
<text text-anchor="middle" x="953" y="-62.6" font-family="Times,serif" font-size="14.00">Logger</text>
</g>
<!-- Logger&#45;&gt;TaskModule -->
<g id="edge9" class="edge">
<title>Logger&#45;&gt;TaskModule</title>
<path fill="none" stroke="black" d="M953,-84.91C953,-84.91 953,-103.79 953,-103.79"/>
<polygon fill="black" stroke="black" points="949.5,-103.79 953,-113.79 956.5,-103.79 949.5,-103.79"/>
</g>
<!-- TaskCopyService -->
<g id="node11" class="node">
<title>TaskCopyService</title>
<ellipse fill="#fdb462" stroke="black" cx="816" cy="-66.8" rx="79.88" ry="18"/>
<text text-anchor="middle" x="816" y="-62.6" font-family="Times,serif" font-size="14.00">TaskCopyService</text>
</g>
<!-- TaskCopyService&#45;&gt;TaskModule -->
<g id="edge10" class="edge">
<title>TaskCopyService&#45;&gt;TaskModule</title>
<path fill="none" stroke="black" d="M816,-85.04C816,-100.37 816,-119.8 816,-119.8 816,-119.8 899.65,-119.8 899.65,-119.8"/>
<polygon fill="black" stroke="black" points="899.65,-123.3 909.65,-119.8 899.65,-116.3 899.65,-123.3"/>
</g>
<!-- TaskCopyUC -->
<g id="node12" class="node">
<title>TaskCopyUC</title>
<ellipse fill="#fdb462" stroke="black" cx="654" cy="-66.8" rx="64.3" ry="18"/>
<text text-anchor="middle" x="654" y="-62.6" font-family="Times,serif" font-size="14.00">TaskCopyUC</text>
</g>
<!-- TaskCopyUC&#45;&gt;TaskModule -->
<g id="edge11" class="edge">
<title>TaskCopyUC&#45;&gt;TaskModule</title>
<path fill="none" stroke="black" d="M654,-84.83C654,-101.86 654,-124.8 654,-124.8 654,-124.8 899.52,-124.8 899.52,-124.8"/>
<polygon fill="black" stroke="black" points="899.52,-128.3 909.52,-124.8 899.52,-121.3 899.52,-128.3"/>
</g>
<!-- TaskRepo -->
<g id="node13" class="node">
<title>TaskRepo</title>
<ellipse fill="#fdb462" stroke="black" cx="522" cy="-66.8" rx="50.39" ry="18"/>
<text text-anchor="middle" x="522" y="-62.6" font-family="Times,serif" font-size="14.00">TaskRepo</text>
</g>
<!-- TaskRepo&#45;&gt;TaskModule -->
<g id="edge12" class="edge">
<title>TaskRepo&#45;&gt;TaskModule</title>
<path fill="none" stroke="black" d="M522,-85.02C522,-103.63 522,-129.8 522,-129.8 522,-129.8 899.7,-129.8 899.7,-129.8"/>
<polygon fill="black" stroke="black" points="899.7,-133.3 909.7,-129.8 899.7,-126.3 899.7,-133.3"/>
</g>
<!-- TaskUC -->
<g id="node14" class="node">
<title>TaskUC</title>
<ellipse fill="#fdb462" stroke="black" cx="411" cy="-66.8" rx="43.45" ry="18"/>
<text text-anchor="middle" x="411" y="-62.6" font-family="Times,serif" font-size="14.00">TaskUC</text>
</g>
<!-- TaskUC&#45;&gt;TaskModule -->
<g id="edge13" class="edge">
<title>TaskUC&#45;&gt;TaskModule</title>
<path fill="none" stroke="black" d="M411,-85.02C411,-105.17 411,-134.8 411,-134.8 411,-134.8 899.56,-134.8 899.56,-134.8"/>
<polygon fill="black" stroke="black" points="899.56,-138.3 909.56,-134.8 899.56,-131.3 899.56,-138.3"/>
</g>
</g>
</svg>
