<?xml version="1.0" encoding="UTF-8" standalone="no"?>
<!DOCTYPE svg PUBLIC "-//W3C//DTD SVG 1.1//EN"
 "http://www.w3.org/Graphics/SVG/1.1/DTD/svg11.dtd">
<!-- Generated by graphviz version 3.0.0 (20220226.1711)
 -->
<!-- Title: dependencies Pages: 1 -->
<svg width="694pt" height="174pt"
 viewBox="0.00 0.00 694.00 173.80" xmlns="http://www.w3.org/2000/svg" xmlns:xlink="http://www.w3.org/1999/xlink">
<g id="graph0" class="graph" transform="scale(1 1) rotate(0) translate(4 169.8)">
<title>dependencies</title>
<polygon fill="white" stroke="transparent" points="-4,4 -4,-169.8 690,-169.8 690,4 -4,4"/>
<text text-anchor="middle" x="343" y="-8.2" font-family="sans-serif" font-size="14.00">dependencies</text>
<g id="clust1" class="cluster">
<title>cluster_TaskModule</title>
<polygon fill="none" stroke="black" stroke-dasharray="1,5" points="8,-32.8 8,-157.8 678,-157.8 678,-32.8 8,-32.8"/>
</g>
<g id="clust3" class="cluster">
<title>cluster_TaskModule_imports</title>
<polygon fill="none" stroke="black" points="516,-40.8 516,-92.8 670,-92.8 670,-40.8 516,-40.8"/>
</g>
<g id="clust6" class="cluster">
<title>cluster_TaskModule_providers</title>
<polygon fill="none" stroke="black" points="16,-40.8 16,-92.8 508,-92.8 508,-40.8 16,-40.8"/>
</g>
<!-- AuthorizationModule -->
<g id="node1" class="node">
<title>AuthorizationModule</title>
<polygon fill="#8dd3c7" stroke="black" points="661.81,-84.8 658.81,-88.8 637.81,-88.8 634.81,-84.8 524.19,-84.8 524.19,-48.8 661.81,-48.8 661.81,-84.8"/>
<text text-anchor="middle" x="593" y="-62.6" font-family="Times,serif" font-size="14.00">AuthorizationModule</text>
</g>
<!-- TaskModule -->
<g id="node2" class="node">
<title>TaskModule</title>
<polygon fill="#8dd3c7" stroke="black" points="348.27,-149.8 345.27,-153.8 324.27,-153.8 321.27,-149.8 261.73,-149.8 261.73,-113.8 348.27,-113.8 348.27,-149.8"/>
<text text-anchor="middle" x="305" y="-127.6" font-family="Times,serif" font-size="14.00">TaskModule</text>
</g>
<!-- AuthorizationModule&#45;&gt;TaskModule -->
<g id="edge1" class="edge">
<title>AuthorizationModule&#45;&gt;TaskModule</title>
<path fill="none" stroke="black" d="M593,-85.08C593,-106.12 593,-137.8 593,-137.8 593,-137.8 358.43,-137.8 358.43,-137.8"/>
<polygon fill="black" stroke="black" points="358.43,-134.3 348.43,-137.8 358.43,-141.3 358.43,-134.3"/>
</g>
<!-- CourseRepo -->
<g id="node3" class="node">
<title>CourseRepo</title>
<ellipse fill="#fdb462" stroke="black" cx="441" cy="-66.8" rx="58.56" ry="18"/>
<text text-anchor="middle" x="441" y="-62.6" font-family="Times,serif" font-size="14.00">CourseRepo</text>
</g>
<!-- CourseRepo&#45;&gt;TaskModule -->
<g id="edge2" class="edge">
<title>CourseRepo&#45;&gt;TaskModule</title>
<path fill="none" stroke="black" d="M441,-84.82C441,-102.17 441,-125.8 441,-125.8 441,-125.8 358.41,-125.8 358.41,-125.8"/>
<polygon fill="black" stroke="black" points="358.41,-122.3 348.41,-125.8 358.41,-129.3 358.41,-122.3"/>
</g>
<!-- LessonRepo -->
<g id="node4" class="node">
<title>LessonRepo</title>
<ellipse fill="#fdb462" stroke="black" cx="305" cy="-66.8" rx="58.56" ry="18"/>
<text text-anchor="middle" x="305" y="-62.6" font-family="Times,serif" font-size="14.00">LessonRepo</text>
</g>
<!-- LessonRepo&#45;&gt;TaskModule -->
<g id="edge3" class="edge">
<title>LessonRepo&#45;&gt;TaskModule</title>
<path fill="none" stroke="black" d="M305,-84.91C305,-84.91 305,-103.79 305,-103.79"/>
<polygon fill="black" stroke="black" points="301.5,-103.79 305,-113.79 308.5,-103.79 301.5,-103.79"/>
</g>
<!-- TaskRepo -->
<g id="node5" class="node">
<title>TaskRepo</title>
<ellipse fill="#fdb462" stroke="black" cx="178" cy="-66.8" rx="50.39" ry="18"/>
<text text-anchor="middle" x="178" y="-62.6" font-family="Times,serif" font-size="14.00">TaskRepo</text>
</g>
<!-- TaskRepo&#45;&gt;TaskModule -->
<g id="edge4" class="edge">
<title>TaskRepo&#45;&gt;TaskModule</title>
<path fill="none" stroke="black" d="M178,-84.82C178,-102.17 178,-125.8 178,-125.8 178,-125.8 251.65,-125.8 251.65,-125.8"/>
<polygon fill="black" stroke="black" points="251.65,-129.3 261.65,-125.8 251.65,-122.3 251.65,-129.3"/>
</g>
<!-- TaskUC -->
<g id="node6" class="node">
<title>TaskUC</title>
<ellipse fill="#fdb462" stroke="black" cx="67" cy="-66.8" rx="43.45" ry="18"/>
<text text-anchor="middle" x="67" y="-62.6" font-family="Times,serif" font-size="14.00">TaskUC</text>
</g>
<!-- TaskUC&#45;&gt;TaskModule -->
<g id="edge5" class="edge">
<title>TaskUC&#45;&gt;TaskModule</title>
<path fill="none" stroke="black" d="M67,-85.08C67,-106.12 67,-137.8 67,-137.8 67,-137.8 251.62,-137.8 251.62,-137.8"/>
<polygon fill="black" stroke="black" points="251.62,-141.3 261.62,-137.8 251.62,-134.3 251.62,-141.3"/>
</g>
</g>
</svg>
