<?xml version="1.0" encoding="UTF-8" standalone="no"?>
<!DOCTYPE svg PUBLIC "-//W3C//DTD SVG 1.1//EN"
 "http://www.w3.org/Graphics/SVG/1.1/DTD/svg11.dtd">
<!-- Generated by graphviz version 2.47.3 (20210619.1520)
 -->
<!-- Title: dependencies Pages: 1 -->
<svg width="812pt" height="174pt"
 viewBox="0.00 0.00 812.00 173.80" xmlns="http://www.w3.org/2000/svg" xmlns:xlink="http://www.w3.org/1999/xlink">
<g id="graph0" class="graph" transform="scale(1 1) rotate(0) translate(4 169.8)">
<title>dependencies</title>
<polygon fill="white" stroke="transparent" points="-4,4 -4,-169.8 808,-169.8 808,4 -4,4"/>
<text text-anchor="middle" x="402" y="-8.2" font-family="sans-serif" font-size="14.00">dependencies</text>
<g id="clust1" class="cluster">
<title>cluster_TaskModule</title>
<polygon fill="none" stroke="black" stroke-dasharray="1,5" points="8,-32.8 8,-157.8 796,-157.8 796,-32.8 8,-32.8"/>
</g>
<g id="clust3" class="cluster">
<title>cluster_TaskModule_imports</title>
<polygon fill="none" stroke="black" points="634,-40.8 634,-92.8 788,-92.8 788,-40.8 634,-40.8"/>
</g>
<g id="clust6" class="cluster">
<title>cluster_TaskModule_providers</title>
<polygon fill="none" stroke="black" points="16,-40.8 16,-92.8 626,-92.8 626,-40.8 16,-40.8"/>
</g>
<!-- AuthorizationModule -->
<g id="node1" class="node">
<title>AuthorizationModule</title>
<polygon fill="#8dd3c7" stroke="black" points="779.81,-84.8 776.81,-88.8 755.81,-88.8 752.81,-84.8 642.19,-84.8 642.19,-48.8 779.81,-48.8 779.81,-84.8"/>
<text text-anchor="middle" x="711" y="-62.6" font-family="Times,serif" font-size="14.00">AuthorizationModule</text>
</g>
<!-- TaskModule -->
<g id="node2" class="node">
<title>TaskModule</title>
<polygon fill="#8dd3c7" stroke="black" points="402.26,-149.8 399.26,-153.8 378.26,-153.8 375.26,-149.8 315.74,-149.8 315.74,-113.8 402.26,-113.8 402.26,-149.8"/>
<text text-anchor="middle" x="359" y="-127.6" font-family="Times,serif" font-size="14.00">TaskModule</text>
</g>
<!-- AuthorizationModule&#45;&gt;TaskModule -->
<g id="edge1" class="edge">
<title>AuthorizationModule&#45;&gt;TaskModule</title>
<path fill="none" stroke="black" d="M711,-85.08C711,-106.12 711,-137.8 711,-137.8 711,-137.8 412.52,-137.8 412.52,-137.8"/>
<polygon fill="black" stroke="black" points="412.52,-134.3 402.52,-137.8 412.52,-141.3 412.52,-134.3"/>
</g>
<!-- CourseRepo -->
<g id="node3" class="node">
<title>CourseRepo</title>
<ellipse fill="#fdb462" stroke="black" cx="559" cy="-66.8" rx="58.55" ry="18"/>
<text text-anchor="middle" x="559" y="-62.6" font-family="Times,serif" font-size="14.00">CourseRepo</text>
</g>
<!-- CourseRepo&#45;&gt;TaskModule -->
<g id="edge2" class="edge">
<title>CourseRepo&#45;&gt;TaskModule</title>
<path fill="none" stroke="black" d="M559,-84.82C559,-102.17 559,-125.8 559,-125.8 559,-125.8 412.4,-125.8 412.4,-125.8"/>
<polygon fill="black" stroke="black" points="412.4,-122.3 402.4,-125.8 412.4,-129.3 412.4,-122.3"/>
</g>
<!-- LessonRepo -->
<g id="node4" class="node">
<title>LessonRepo</title>
<ellipse fill="#fdb462" stroke="black" cx="423" cy="-66.8" rx="58.55" ry="18"/>
<text text-anchor="middle" x="423" y="-62.6" font-family="Times,serif" font-size="14.00">LessonRepo</text>
</g>
<!-- LessonRepo&#45;&gt;TaskModule -->
<g id="edge3" class="edge">
<title>LessonRepo&#45;&gt;TaskModule</title>
<path fill="none" stroke="black" d="M383.3,-80.27C383.3,-80.27 383.3,-103.66 383.3,-103.66"/>
<polygon fill="black" stroke="black" points="379.8,-103.66 383.3,-113.66 386.8,-103.66 379.8,-103.66"/>
</g>
<!-- TaskRepo -->
<g id="node5" class="node">
<title>TaskRepo</title>
<ellipse fill="#fdb462" stroke="black" cx="296" cy="-66.8" rx="50.38" ry="18"/>
<text text-anchor="middle" x="296" y="-62.6" font-family="Times,serif" font-size="14.00">TaskRepo</text>
</g>
<!-- TaskRepo&#45;&gt;TaskModule -->
<g id="edge4" class="edge">
<title>TaskRepo&#45;&gt;TaskModule</title>
<path fill="none" stroke="black" d="M330.9,-79.95C330.9,-79.95 330.9,-103.49 330.9,-103.49"/>
<polygon fill="black" stroke="black" points="327.4,-103.49 330.9,-113.49 334.4,-103.49 327.4,-103.49"/>
</g>
<!-- TaskUC -->
<g id="node6" class="node">
<title>TaskUC</title>
<ellipse fill="#fdb462" stroke="black" cx="185" cy="-66.8" rx="43.44" ry="18"/>
<text text-anchor="middle" x="185" y="-62.6" font-family="Times,serif" font-size="14.00">TaskUC</text>
</g>
<!-- TaskUC&#45;&gt;TaskModule -->
<g id="edge5" class="edge">
<title>TaskUC&#45;&gt;TaskModule</title>
<path fill="none" stroke="black" d="M185,-84.82C185,-102.17 185,-125.8 185,-125.8 185,-125.8 305.54,-125.8 305.54,-125.8"/>
<polygon fill="black" stroke="black" points="305.54,-129.3 315.54,-125.8 305.54,-122.3 305.54,-129.3"/>
</g>
<!-- UserRepo -->
<g id="node7" class="node">
<title>UserRepo</title>
<ellipse fill="#fdb462" stroke="black" cx="74" cy="-66.8" rx="49.8" ry="18"/>
<text text-anchor="middle" x="74" y="-62.6" font-family="Times,serif" font-size="14.00">UserRepo</text>
</g>
<!-- UserRepo&#45;&gt;TaskModule -->
<g id="edge6" class="edge">
<title>UserRepo&#45;&gt;TaskModule</title>
<path fill="none" stroke="black" d="M74,-85.08C74,-106.12 74,-137.8 74,-137.8 74,-137.8 305.71,-137.8 305.71,-137.8"/>
<polygon fill="black" stroke="black" points="305.71,-141.3 315.71,-137.8 305.71,-134.3 305.71,-141.3"/>
</g>
</g>
</svg>
