<?xml version="1.0" encoding="UTF-8" standalone="no"?>
<!DOCTYPE svg PUBLIC "-//W3C//DTD SVG 1.1//EN"
 "http://www.w3.org/Graphics/SVG/1.1/DTD/svg11.dtd">
<!-- Generated by graphviz version 2.47.3 (20210619.1520)
 -->
<!-- Title: dependencies Pages: 1 -->
<svg width="729pt" height="174pt"
 viewBox="0.00 0.00 729.00 173.80" xmlns="http://www.w3.org/2000/svg" xmlns:xlink="http://www.w3.org/1999/xlink">
<g id="graph0" class="graph" transform="scale(1 1) rotate(0) translate(4 169.8)">
<title>dependencies</title>
<polygon fill="white" stroke="transparent" points="-4,4 -4,-169.8 725,-169.8 725,4 -4,4"/>
<text text-anchor="middle" x="360.5" y="-8.2" font-family="sans-serif" font-size="14.00">dependencies</text>
<g id="clust1" class="cluster">
<title>cluster_TaskModule</title>
<polygon fill="none" stroke="black" stroke-dasharray="1,5" points="8,-32.8 8,-157.8 713,-157.8 713,-32.8 8,-32.8"/>
</g>
<g id="clust6" class="cluster">
<title>cluster_TaskModule_providers</title>
<polygon fill="none" stroke="black" points="16,-40.8 16,-92.8 705,-92.8 705,-40.8 16,-40.8"/>
</g>
<!-- SubmissionRepo -->
<g id="node1" class="node">
<title>SubmissionRepo</title>
<ellipse fill="#fdb462" stroke="black" cx="621" cy="-66.8" rx="76.49" ry="18"/>
<text text-anchor="middle" x="621" y="-62.6" font-family="Times,serif" font-size="14.00">SubmissionRepo</text>
</g>
<!-- TaskModule -->
<g id="node5" class="node">
<title>TaskModule</title>
<polygon fill="#8dd3c7" stroke="black" points="415.26,-149.8 412.26,-153.8 391.26,-153.8 388.26,-149.8 328.74,-149.8 328.74,-113.8 415.26,-113.8 415.26,-149.8"/>
<text text-anchor="middle" x="372" y="-127.6" font-family="Times,serif" font-size="14.00">TaskModule</text>
</g>
<!-- SubmissionRepo&#45;&gt;TaskModule -->
<g id="edge1" class="edge">
<title>SubmissionRepo&#45;&gt;TaskModule</title>
<path fill="none" stroke="black" d="M621,-84.91C621,-104.14 621,-131.8 621,-131.8 621,-131.8 425.37,-131.8 425.37,-131.8"/>
<polygon fill="black" stroke="black" points="425.37,-128.3 415.37,-131.8 425.37,-135.3 425.37,-128.3"/>
</g>
<!-- TaskRepo -->
<g id="node2" class="node">
<title>TaskRepo</title>
<ellipse fill="#fdb462" stroke="black" cx="476" cy="-66.8" rx="50.38" ry="18"/>
<text text-anchor="middle" x="476" y="-62.6" font-family="Times,serif" font-size="14.00">TaskRepo</text>
</g>
<!-- TaskRepo&#45;&gt;TaskModule -->
<g id="edge2" class="edge">
<title>TaskRepo&#45;&gt;TaskModule</title>
<path fill="none" stroke="black" d="M425.55,-66.8C417.4,-66.8 411.57,-66.8 411.57,-66.8 411.57,-66.8 411.57,-103.69 411.57,-103.69"/>
<polygon fill="black" stroke="black" points="408.07,-103.69 411.57,-113.69 415.07,-103.69 408.07,-103.69"/>
</g>
<!-- TaskSubmissionMetadataService -->
<g id="node3" class="node">
<title>TaskSubmissionMetadataService</title>
<ellipse fill="#fdb462" stroke="black" cx="268" cy="-66.8" rx="139.52" ry="18"/>
<text text-anchor="middle" x="268" y="-62.6" font-family="Times,serif" font-size="14.00">TaskSubmissionMetadataService</text>
</g>
<!-- TaskSubmissionMetadataService&#45;&gt;TaskModule -->
<g id="edge3" class="edge">
<title>TaskSubmissionMetadataService&#45;&gt;TaskModule</title>
<path fill="none" stroke="black" d="M368.19,-79.64C368.19,-79.64 368.19,-103.32 368.19,-103.32"/>
<polygon fill="black" stroke="black" points="364.69,-103.32 368.19,-113.32 371.69,-103.32 364.69,-103.32"/>
</g>
<!-- TaskUC -->
<g id="node4" class="node">
<title>TaskUC</title>
<ellipse fill="#fdb462" stroke="black" cx="67" cy="-66.8" rx="43.44" ry="18"/>
<text text-anchor="middle" x="67" y="-62.6" font-family="Times,serif" font-size="14.00">TaskUC</text>
</g>
<!-- TaskUC&#45;&gt;TaskModule -->
<g id="edge4" class="edge">
<title>TaskUC&#45;&gt;TaskModule</title>
<path fill="none" stroke="black" d="M67,-84.91C67,-104.14 67,-131.8 67,-131.8 67,-131.8 318.62,-131.8 318.62,-131.8"/>
<polygon fill="black" stroke="black" points="318.62,-135.3 328.62,-131.8 318.62,-128.3 318.62,-135.3"/>
</g>
</g>
</svg>
