<?xml version="1.0" encoding="UTF-8" standalone="no"?>
<!DOCTYPE svg PUBLIC "-//W3C//DTD SVG 1.1//EN"
 "http://www.w3.org/Graphics/SVG/1.1/DTD/svg11.dtd">
<!-- Generated by graphviz version 5.0.0 (20220707.1540)
 -->
<!-- Title: dependencies Pages: 1 -->
<svg width="2319pt" height="247pt"
 viewBox="0.00 0.00 2319.00 246.80" xmlns="http://www.w3.org/2000/svg" xmlns:xlink="http://www.w3.org/1999/xlink">
<g id="graph0" class="graph" transform="scale(1 1) rotate(0) translate(4 242.8)">
<title>dependencies</title>
<polygon fill="white" stroke="transparent" points="-4,4 -4,-242.8 2315,-242.8 2315,4 -4,4"/>
<text text-anchor="middle" x="1155.5" y="-8.2" font-family="sans-serif" font-size="14.00">dependencies</text>
<g id="clust1" class="cluster">
<title>cluster_TaskModule</title>
<polygon fill="none" stroke="black" stroke-dasharray="1,5" points="8,-32.8 8,-230.8 2303,-230.8 2303,-32.8 8,-32.8"/>
</g>
<g id="clust6" class="cluster">
<title>cluster_TaskModule_providers</title>
<polygon fill="none" stroke="black" points="506,-40.8 506,-92.8 2295,-92.8 2295,-40.8 506,-40.8"/>
</g>
<g id="clust3" class="cluster">
<title>cluster_TaskModule_imports</title>
<polygon fill="none" stroke="black" points="16,-40.8 16,-92.8 498,-92.8 498,-40.8 16,-40.8"/>
</g>
<g id="clust4" class="cluster">
<title>cluster_TaskModule_exports</title>
<polygon fill="none" stroke="black" points="985,-170.8 985,-222.8 1227,-222.8 1227,-170.8 985,-170.8"/>
</g>
<!-- AuthorizationModule -->
<g id="node1" class="node">
<title>AuthorizationModule</title>
<polygon fill="#8dd3c7" stroke="black" points="489.81,-84.8 486.81,-88.8 465.81,-88.8 462.81,-84.8 352.19,-84.8 352.19,-48.8 489.81,-48.8 489.81,-84.8"/>
<text text-anchor="middle" x="421" y="-62.6" font-family="Times,serif" font-size="14.00">AuthorizationModule</text>
</g>
<!-- TaskModule -->
<g id="node4" class="node">
<title>TaskModule</title>
<polygon fill="#8dd3c7" stroke="black" points="1141.27,-149.8 1138.27,-153.8 1117.27,-153.8 1114.27,-149.8 1054.73,-149.8 1054.73,-113.8 1141.27,-113.8 1141.27,-149.8"/>
<text text-anchor="middle" x="1098" y="-127.6" font-family="Times,serif" font-size="14.00">TaskModule</text>
</g>
<!-- AuthorizationModule&#45;&gt;TaskModule -->
<g id="edge1" class="edge">
<title>AuthorizationModule&#45;&gt;TaskModule</title>
<path fill="none" stroke="black" d="M421,-84.83C421,-105.57 421,-136.8 421,-136.8 421,-136.8 1044.62,-136.8 1044.62,-136.8"/>
<polygon fill="black" stroke="black" points="1044.62,-140.3 1054.62,-136.8 1044.62,-133.3 1044.62,-140.3"/>
</g>
<!-- CopyHelperModule -->
<g id="node2" class="node">
<title>CopyHelperModule</title>
<polygon fill="#8dd3c7" stroke="black" points="333.98,-84.8 330.98,-88.8 309.98,-88.8 306.98,-84.8 206.02,-84.8 206.02,-48.8 333.98,-48.8 333.98,-84.8"/>
<text text-anchor="middle" x="270" y="-62.6" font-family="Times,serif" font-size="14.00">CopyHelperModule</text>
</g>
<!-- CopyHelperModule&#45;&gt;TaskModule -->
<g id="edge2" class="edge">
<title>CopyHelperModule&#45;&gt;TaskModule</title>
<path fill="none" stroke="black" d="M270,-85.09C270,-107.01 270,-140.8 270,-140.8 270,-140.8 1044.65,-140.8 1044.65,-140.8"/>
<polygon fill="black" stroke="black" points="1044.65,-144.3 1054.65,-140.8 1044.65,-137.3 1044.65,-144.3"/>
</g>
<!-- FilesStorageClientModule -->
<g id="node3" class="node">
<title>FilesStorageClientModule</title>
<polygon fill="#8dd3c7" stroke="black" points="187.77,-84.8 184.77,-88.8 163.77,-88.8 160.77,-84.8 24.23,-84.8 24.23,-48.8 187.77,-48.8 187.77,-84.8"/>
<text text-anchor="middle" x="106" y="-62.6" font-family="Times,serif" font-size="14.00">FilesStorageClientModule</text>
</g>
<!-- FilesStorageClientModule&#45;&gt;TaskModule -->
<g id="edge3" class="edge">
<title>FilesStorageClientModule&#45;&gt;TaskModule</title>
<path fill="none" stroke="black" d="M106,-85.12C106,-108.46 106,-145.8 106,-145.8 106,-145.8 1044.42,-145.8 1044.42,-145.8"/>
<polygon fill="black" stroke="black" points="1044.42,-149.3 1054.42,-145.8 1044.42,-142.3 1044.42,-149.3"/>
</g>
<!-- TaskCopyService  -->
<g id="node5" class="node">
<title>TaskCopyService </title>
<polygon fill="#fb8072" stroke="black" points="1218.53,-214.8 1099.47,-214.8 1099.47,-178.8 1218.53,-178.8 1218.53,-214.8"/>
<text text-anchor="middle" x="1159" y="-192.6" font-family="Times,serif" font-size="14.00">TaskCopyService </text>
</g>
<!-- TaskModule&#45;&gt;TaskCopyService  -->
<g id="edge4" class="edge">
<title>TaskModule&#45;&gt;TaskCopyService </title>
<path fill="none" stroke="black" stroke-dasharray="5,2" d="M1120.43,-149.91C1120.43,-149.91 1120.43,-168.79 1120.43,-168.79"/>
<polygon fill="black" stroke="black" points="1116.93,-168.79 1120.43,-178.79 1123.93,-168.79 1116.93,-168.79"/>
</g>
<!-- TaskService  -->
<g id="node6" class="node">
<title>TaskService </title>
<polygon fill="#fb8072" stroke="black" points="1081.19,-214.8 992.81,-214.8 992.81,-178.8 1081.19,-178.8 1081.19,-214.8"/>
<text text-anchor="middle" x="1037" y="-192.6" font-family="Times,serif" font-size="14.00">TaskService </text>
</g>
<!-- TaskModule&#45;&gt;TaskService  -->
<g id="edge5" class="edge">
<title>TaskModule&#45;&gt;TaskService </title>
<path fill="none" stroke="black" stroke-dasharray="5,2" d="M1067.98,-149.91C1067.98,-149.91 1067.98,-168.79 1067.98,-168.79"/>
<polygon fill="black" stroke="black" points="1064.48,-168.79 1067.98,-178.79 1071.48,-168.79 1064.48,-168.79"/>
</g>
<!-- CourseRepo -->
<g id="node7" class="node">
<title>CourseRepo</title>
<ellipse fill="#fdb462" stroke="black" cx="2228" cy="-66.8" rx="58.56" ry="18"/>
<text text-anchor="middle" x="2228" y="-62.6" font-family="Times,serif" font-size="14.00">CourseRepo</text>
</g>
<!-- CourseRepo&#45;&gt;TaskModule -->
<g id="edge6" class="edge">
<title>CourseRepo&#45;&gt;TaskModule</title>
<path fill="none" stroke="black" d="M2228,-85.12C2228,-108.46 2228,-145.8 2228,-145.8 2228,-145.8 1151.6,-145.8 1151.6,-145.8"/>
<polygon fill="black" stroke="black" points="1151.6,-142.3 1141.6,-145.8 1151.6,-149.3 1151.6,-142.3"/>
</g>
<!-- FeathersServiceProvider -->
<g id="node8" class="node">
<title>FeathersServiceProvider</title>
<ellipse fill="#fdb462" stroke="black" cx="2045" cy="-66.8" rx="105.93" ry="18"/>
<text text-anchor="middle" x="2045" y="-62.6" font-family="Times,serif" font-size="14.00">FeathersServiceProvider</text>
</g>
<!-- FeathersServiceProvider&#45;&gt;TaskModule -->
<g id="edge7" class="edge">
<title>FeathersServiceProvider&#45;&gt;TaskModule</title>
<path fill="none" stroke="black" d="M2045,-85.09C2045,-107.01 2045,-140.8 2045,-140.8 2045,-140.8 1151.46,-140.8 1151.46,-140.8"/>
<polygon fill="black" stroke="black" points="1151.46,-137.3 1141.46,-140.8 1151.46,-144.3 1151.46,-137.3"/>
</g>
<!-- LessonRepo -->
<g id="node9" class="node">
<title>LessonRepo</title>
<ellipse fill="#fdb462" stroke="black" cx="1862" cy="-66.8" rx="58.56" ry="18"/>
<text text-anchor="middle" x="1862" y="-62.6" font-family="Times,serif" font-size="14.00">LessonRepo</text>
</g>
<!-- LessonRepo&#45;&gt;TaskModule -->
<g id="edge8" class="edge">
<title>LessonRepo&#45;&gt;TaskModule</title>
<path fill="none" stroke="black" d="M1862,-84.83C1862,-105.57 1862,-136.8 1862,-136.8 1862,-136.8 1151.54,-136.8 1151.54,-136.8"/>
<polygon fill="black" stroke="black" points="1151.54,-133.3 1141.54,-136.8 1151.54,-140.3 1151.54,-133.3"/>
</g>
<!-- Logger -->
<g id="node10" class="node">
<title>Logger</title>
<ellipse fill="#fdb462" stroke="black" cx="1746" cy="-66.8" rx="38.85" ry="18"/>
<text text-anchor="middle" x="1746" y="-62.6" font-family="Times,serif" font-size="14.00">Logger</text>
</g>
<!-- Logger&#45;&gt;TaskModule -->
<g id="edge9" class="edge">
<title>Logger&#45;&gt;TaskModule</title>
<path fill="none" stroke="black" d="M1746,-84.91C1746,-104.14 1746,-131.8 1746,-131.8 1746,-131.8 1151.27,-131.8 1151.27,-131.8"/>
<polygon fill="black" stroke="black" points="1151.27,-128.3 1141.27,-131.8 1151.27,-135.3 1151.27,-128.3"/>
</g>
<!-- SubmissionRepo -->
<g id="node11" class="node">
<title>SubmissionRepo</title>
<ellipse fill="#fdb462" stroke="black" cx="1613" cy="-66.8" rx="76.5" ry="18"/>
<text text-anchor="middle" x="1613" y="-62.6" font-family="Times,serif" font-size="14.00">SubmissionRepo</text>
</g>
<!-- SubmissionRepo&#45;&gt;TaskModule -->
<g id="edge10" class="edge">
<title>SubmissionRepo&#45;&gt;TaskModule</title>
<path fill="none" stroke="black" d="M1613,-85.1C1613,-103.07 1613,-127.8 1613,-127.8 1613,-127.8 1151.46,-127.8 1151.46,-127.8"/>
<polygon fill="black" stroke="black" points="1151.46,-124.3 1141.46,-127.8 1151.46,-131.3 1151.46,-124.3"/>
</g>
<!-- SubmissionService -->
<g id="node12" class="node">
<title>SubmissionService</title>
<ellipse fill="#fdb462" stroke="black" cx="1433" cy="-66.8" rx="85.14" ry="18"/>
<text text-anchor="middle" x="1433" y="-62.6" font-family="Times,serif" font-size="14.00">SubmissionService</text>
</g>
<!-- SubmissionService&#45;&gt;TaskModule -->
<g id="edge11" class="edge">
<title>SubmissionService&#45;&gt;TaskModule</title>
<path fill="none" stroke="black" d="M1433,-84.83C1433,-101.2 1433,-122.8 1433,-122.8 1433,-122.8 1151.45,-122.8 1151.45,-122.8"/>
<polygon fill="black" stroke="black" points="1151.45,-119.3 1141.45,-122.8 1151.45,-126.3 1151.45,-119.3"/>
</g>
<!-- SubmissionUc -->
<g id="node13" class="node">
<title>SubmissionUc</title>
<ellipse fill="#fdb462" stroke="black" cx="1263" cy="-66.8" rx="67.25" ry="18"/>
<text text-anchor="middle" x="1263" y="-62.6" font-family="Times,serif" font-size="14.00">SubmissionUc</text>
</g>
<!-- SubmissionUc&#45;&gt;TaskModule -->
<g id="edge12" class="edge">
<title>SubmissionUc&#45;&gt;TaskModule</title>
<path fill="none" stroke="black" d="M1207.07,-77.07C1207.07,-92.23 1207.07,-118.8 1207.07,-118.8 1207.07,-118.8 1151.42,-118.8 1151.42,-118.8"/>
<polygon fill="black" stroke="black" points="1151.42,-115.3 1141.42,-118.8 1151.42,-122.3 1151.42,-115.3"/>
</g>
<!-- TaskCopyService -->
<g id="node14" class="node">
<title>TaskCopyService</title>
<ellipse fill="#fdb462" stroke="black" cx="1098" cy="-66.8" rx="79.88" ry="18"/>
<text text-anchor="middle" x="1098" y="-62.6" font-family="Times,serif" font-size="14.00">TaskCopyService</text>
</g>
<!-- TaskCopyService&#45;&gt;TaskModule -->
<g id="edge13" class="edge">
<title>TaskCopyService&#45;&gt;TaskModule</title>
<path fill="none" stroke="black" d="M1098,-84.91C1098,-84.91 1098,-103.79 1098,-103.79"/>
<polygon fill="black" stroke="black" points="1094.5,-103.79 1098,-113.79 1101.5,-103.79 1094.5,-103.79"/>
</g>
<!-- TaskCopyUC -->
<g id="node15" class="node">
<title>TaskCopyUC</title>
<ellipse fill="#fdb462" stroke="black" cx="936" cy="-66.8" rx="64.3" ry="18"/>
<text text-anchor="middle" x="936" y="-62.6" font-family="Times,serif" font-size="14.00">TaskCopyUC</text>
</g>
<!-- TaskCopyUC&#45;&gt;TaskModule -->
<g id="edge14" class="edge">
<title>TaskCopyUC&#45;&gt;TaskModule</title>
<path fill="none" stroke="black" d="M996.4,-73.18C996.4,-87.06 996.4,-118.8 996.4,-118.8 996.4,-118.8 1044.62,-118.8 1044.62,-118.8"/>
<polygon fill="black" stroke="black" points="1044.62,-122.3 1054.62,-118.8 1044.62,-115.3 1044.62,-122.3"/>
</g>
<!-- TaskRepo -->
<g id="node16" class="node">
<title>TaskRepo</title>
<ellipse fill="#fdb462" stroke="black" cx="804" cy="-66.8" rx="50.39" ry="18"/>
<text text-anchor="middle" x="804" y="-62.6" font-family="Times,serif" font-size="14.00">TaskRepo</text>
</g>
<!-- TaskRepo&#45;&gt;TaskModule -->
<g id="edge15" class="edge">
<title>TaskRepo&#45;&gt;TaskModule</title>
<path fill="none" stroke="black" d="M804,-84.83C804,-101.2 804,-122.8 804,-122.8 804,-122.8 1044.62,-122.8 1044.62,-122.8"/>
<polygon fill="black" stroke="black" points="1044.62,-126.3 1054.62,-122.8 1044.62,-119.3 1044.62,-126.3"/>
</g>
<!-- TaskService -->
<g id="node17" class="node">
<title>TaskService</title>
<ellipse fill="#fdb462" stroke="black" cx="677" cy="-66.8" rx="58.53" ry="18"/>
<text text-anchor="middle" x="677" y="-62.6" font-family="Times,serif" font-size="14.00">TaskService</text>
</g>
<!-- TaskService&#45;&gt;TaskModule -->
<g id="edge16" class="edge">
<title>TaskService&#45;&gt;TaskModule</title>
<path fill="none" stroke="black" d="M677,-85.1C677,-103.07 677,-127.8 677,-127.8 677,-127.8 1044.53,-127.8 1044.53,-127.8"/>
<polygon fill="black" stroke="black" points="1044.53,-131.3 1054.53,-127.8 1044.53,-124.3 1044.53,-131.3"/>
</g>
<!-- TaskUC -->
<g id="node18" class="node">
<title>TaskUC</title>
<ellipse fill="#fdb462" stroke="black" cx="557" cy="-66.8" rx="43.45" ry="18"/>
<text text-anchor="middle" x="557" y="-62.6" font-family="Times,serif" font-size="14.00">TaskUC</text>
</g>
<!-- TaskUC&#45;&gt;TaskModule -->
<g id="edge17" class="edge">
<title>TaskUC&#45;&gt;TaskModule</title>
<path fill="none" stroke="black" d="M557,-84.91C557,-104.14 557,-131.8 557,-131.8 557,-131.8 1044.64,-131.8 1044.64,-131.8"/>
<polygon fill="black" stroke="black" points="1044.64,-135.3 1054.64,-131.8 1044.64,-128.3 1044.64,-135.3"/>
</g>
</g>
</svg>
