<?xml version="1.0" encoding="UTF-8" standalone="no"?>
<!DOCTYPE svg PUBLIC "-//W3C//DTD SVG 1.1//EN"
 "http://www.w3.org/Graphics/SVG/1.1/DTD/svg11.dtd">
<!-- Generated by graphviz version 5.0.0 (20220707.1540)
 -->
<!-- Title: dependencies Pages: 1 -->
<svg width="1621pt" height="174pt"
 viewBox="0.00 0.00 1621.00 173.80" xmlns="http://www.w3.org/2000/svg" xmlns:xlink="http://www.w3.org/1999/xlink">
<g id="graph0" class="graph" transform="scale(1 1) rotate(0) translate(4 169.8)">
<title>dependencies</title>
<polygon fill="white" stroke="transparent" points="-4,4 -4,-169.8 1617,-169.8 1617,4 -4,4"/>
<text text-anchor="middle" x="806.5" y="-8.2" font-family="sans-serif" font-size="14.00">dependencies</text>
<g id="clust1" class="cluster">
<title>cluster_TaskModule</title>
<polygon fill="none" stroke="black" stroke-dasharray="1,5" points="8,-32.8 8,-157.8 1605,-157.8 1605,-32.8 8,-32.8"/>
</g>
<g id="clust3" class="cluster">
<title>cluster_TaskModule_imports</title>
<polygon fill="none" stroke="black" points="1261,-40.8 1261,-92.8 1597,-92.8 1597,-40.8 1261,-40.8"/>
</g>
<g id="clust6" class="cluster">
<title>cluster_TaskModule_providers</title>
<polygon fill="none" stroke="black" points="16,-40.8 16,-92.8 1253,-92.8 1253,-40.8 16,-40.8"/>
</g>
<!-- AuthorizationModule -->
<g id="node1" class="node">
<title>AuthorizationModule</title>
<polygon fill="#8dd3c7" stroke="black" points="1588.81,-84.8 1585.81,-88.8 1564.81,-88.8 1561.81,-84.8 1451.19,-84.8 1451.19,-48.8 1588.81,-48.8 1588.81,-84.8"/>
<text text-anchor="middle" x="1520" y="-62.6" font-family="Times,serif" font-size="14.00">AuthorizationModule</text>
</g>
<!-- TaskModule -->
<g id="node3" class="node">
<title>TaskModule</title>
<polygon fill="#8dd3c7" stroke="black" points="762.27,-149.8 759.27,-153.8 738.27,-153.8 735.27,-149.8 675.73,-149.8 675.73,-113.8 762.27,-113.8 762.27,-149.8"/>
<text text-anchor="middle" x="719" y="-127.6" font-family="Times,serif" font-size="14.00">TaskModule</text>
</g>
<!-- AuthorizationModule&#45;&gt;TaskModule -->
<g id="edge1" class="edge">
<title>AuthorizationModule&#45;&gt;TaskModule</title>
<path fill="none" stroke="black" d="M1520,-84.81C1520,-107.29 1520,-142.8 1520,-142.8 1520,-142.8 772.35,-142.8 772.35,-142.8"/>
<polygon fill="black" stroke="black" points="772.35,-139.3 762.35,-142.8 772.35,-146.3 772.35,-139.3"/>
</g>
<!-- FilesStorageClientModule -->
<g id="node2" class="node">
<title>FilesStorageClientModule</title>
<polygon fill="#8dd3c7" stroke="black" points="1432.77,-84.8 1429.77,-88.8 1408.77,-88.8 1405.77,-84.8 1269.23,-84.8 1269.23,-48.8 1432.77,-48.8 1432.77,-84.8"/>
<text text-anchor="middle" x="1351" y="-62.6" font-family="Times,serif" font-size="14.00">FilesStorageClientModule</text>
</g>
<!-- FilesStorageClientModule&#45;&gt;TaskModule -->
<g id="edge2" class="edge">
<title>FilesStorageClientModule&#45;&gt;TaskModule</title>
<path fill="none" stroke="black" d="M1351,-84.93C1351,-105.37 1351,-135.8 1351,-135.8 1351,-135.8 772.44,-135.8 772.44,-135.8"/>
<polygon fill="black" stroke="black" points="772.44,-132.3 762.44,-135.8 772.44,-139.3 772.44,-132.3"/>
</g>
<!-- CopyHelperService -->
<g id="node4" class="node">
<title>CopyHelperService</title>
<ellipse fill="#fdb462" stroke="black" cx="1158" cy="-66.8" rx="87.39" ry="18"/>
<text text-anchor="middle" x="1158" y="-62.6" font-family="Times,serif" font-size="14.00">CopyHelperService</text>
</g>
<!-- CopyHelperService&#45;&gt;TaskModule -->
<g id="edge3" class="edge">
<title>CopyHelperService&#45;&gt;TaskModule</title>
<path fill="none" stroke="black" d="M1158,-85.07C1158,-103.36 1158,-128.8 1158,-128.8 1158,-128.8 772.29,-128.8 772.29,-128.8"/>
<polygon fill="black" stroke="black" points="772.29,-125.3 762.29,-128.8 772.29,-132.3 772.29,-125.3"/>
</g>
<!-- CourseRepo -->
<g id="node5" class="node">
<title>CourseRepo</title>
<ellipse fill="#fdb462" stroke="black" cx="994" cy="-66.8" rx="58.56" ry="18"/>
<text text-anchor="middle" x="994" y="-62.6" font-family="Times,serif" font-size="14.00">CourseRepo</text>
</g>
<!-- CourseRepo&#45;&gt;TaskModule -->
<g id="edge4" class="edge">
<title>CourseRepo&#45;&gt;TaskModule</title>
<path fill="none" stroke="black" d="M994,-84.81C994,-100.85 994,-121.8 994,-121.8 994,-121.8 772.27,-121.8 772.27,-121.8"/>
<polygon fill="black" stroke="black" points="772.27,-118.3 762.27,-121.8 772.27,-125.3 772.27,-118.3"/>
</g>
<!-- FileCopyAppendService -->
<g id="node6" class="node">
<title>FileCopyAppendService</title>
<ellipse fill="#fdb462" stroke="black" cx="811" cy="-66.8" rx="106.53" ry="18"/>
<text text-anchor="middle" x="811" y="-62.6" font-family="Times,serif" font-size="14.00">FileCopyAppendService</text>
</g>
<!-- FileCopyAppendService&#45;&gt;TaskModule -->
<g id="edge5" class="edge">
<title>FileCopyAppendService&#45;&gt;TaskModule</title>
<path fill="none" stroke="black" d="M733.43,-79.33C733.43,-79.33 733.43,-103.65 733.43,-103.65"/>
<polygon fill="black" stroke="black" points="729.93,-103.65 733.43,-113.65 736.93,-103.65 729.93,-103.65"/>
</g>
<!-- LessonRepo -->
<g id="node7" class="node">
<title>LessonRepo</title>
<ellipse fill="#fdb462" stroke="black" cx="628" cy="-66.8" rx="58.56" ry="18"/>
<text text-anchor="middle" x="628" y="-62.6" font-family="Times,serif" font-size="14.00">LessonRepo</text>
</g>
<!-- LessonRepo&#45;&gt;TaskModule -->
<g id="edge6" class="edge">
<title>LessonRepo&#45;&gt;TaskModule</title>
<path fill="none" stroke="black" d="M681.2,-74.51C681.2,-74.51 681.2,-103.79 681.2,-103.79"/>
<polygon fill="black" stroke="black" points="677.7,-103.79 681.2,-113.79 684.7,-103.79 677.7,-103.79"/>
</g>
<!-- TaskCopyService -->
<g id="node8" class="node">
<title>TaskCopyService</title>
<ellipse fill="#fdb462" stroke="black" cx="472" cy="-66.8" rx="79.88" ry="18"/>
<text text-anchor="middle" x="472" y="-62.6" font-family="Times,serif" font-size="14.00">TaskCopyService</text>
</g>
<!-- TaskCopyService&#45;&gt;TaskModule -->
<g id="edge7" class="edge">
<title>TaskCopyService&#45;&gt;TaskModule</title>
<path fill="none" stroke="black" d="M472,-84.81C472,-100.85 472,-121.8 472,-121.8 472,-121.8 665.69,-121.8 665.69,-121.8"/>
<polygon fill="black" stroke="black" points="665.69,-125.3 675.69,-121.8 665.69,-118.3 665.69,-125.3"/>
</g>
<!-- TaskCopyUC -->
<g id="node9" class="node">
<title>TaskCopyUC</title>
<ellipse fill="#fdb462" stroke="black" cx="310" cy="-66.8" rx="64.3" ry="18"/>
<text text-anchor="middle" x="310" y="-62.6" font-family="Times,serif" font-size="14.00">TaskCopyUC</text>
</g>
<!-- TaskCopyUC&#45;&gt;TaskModule -->
<g id="edge8" class="edge">
<title>TaskCopyUC&#45;&gt;TaskModule</title>
<path fill="none" stroke="black" d="M310,-85.07C310,-103.36 310,-128.8 310,-128.8 310,-128.8 665.62,-128.8 665.62,-128.8"/>
<polygon fill="black" stroke="black" points="665.62,-132.3 675.62,-128.8 665.62,-125.3 665.62,-132.3"/>
</g>
<!-- TaskRepo -->
<g id="node10" class="node">
<title>TaskRepo</title>
<ellipse fill="#fdb462" stroke="black" cx="178" cy="-66.8" rx="50.39" ry="18"/>
<text text-anchor="middle" x="178" y="-62.6" font-family="Times,serif" font-size="14.00">TaskRepo</text>
</g>
<!-- TaskRepo&#45;&gt;TaskModule -->
<g id="edge9" class="edge">
<title>TaskRepo&#45;&gt;TaskModule</title>
<path fill="none" stroke="black" d="M178,-84.93C178,-105.37 178,-135.8 178,-135.8 178,-135.8 665.64,-135.8 665.64,-135.8"/>
<polygon fill="black" stroke="black" points="665.64,-139.3 675.64,-135.8 665.64,-132.3 665.64,-139.3"/>
</g>
<!-- TaskUC -->
<g id="node11" class="node">
<title>TaskUC</title>
<ellipse fill="#fdb462" stroke="black" cx="67" cy="-66.8" rx="43.45" ry="18"/>
<text text-anchor="middle" x="67" y="-62.6" font-family="Times,serif" font-size="14.00">TaskUC</text>
</g>
<!-- TaskUC&#45;&gt;TaskModule -->
<g id="edge10" class="edge">
<title>TaskUC&#45;&gt;TaskModule</title>
<path fill="none" stroke="black" d="M67,-84.81C67,-107.29 67,-142.8 67,-142.8 67,-142.8 665.72,-142.8 665.72,-142.8"/>
<polygon fill="black" stroke="black" points="665.72,-146.3 675.72,-142.8 665.72,-139.3 665.72,-146.3"/>
</g>
</g>
</svg>
