<?xml version="1.0" encoding="UTF-8" standalone="no"?>
<!DOCTYPE svg PUBLIC "-//W3C//DTD SVG 1.1//EN"
 "http://www.w3.org/Graphics/SVG/1.1/DTD/svg11.dtd">
<!-- Generated by graphviz version 5.0.0 (20220707.1540)
 -->
<!-- Title: dependencies Pages: 1 -->
<svg width="1621pt" height="174pt"
 viewBox="0.00 0.00 1621.00 173.80" xmlns="http://www.w3.org/2000/svg" xmlns:xlink="http://www.w3.org/1999/xlink">
<g id="graph0" class="graph" transform="scale(1 1) rotate(0) translate(4 169.8)">
<title>dependencies</title>
<polygon fill="white" stroke="transparent" points="-4,4 -4,-169.8 1617,-169.8 1617,4 -4,4"/>
<text text-anchor="middle" x="806.5" y="-8.2" font-family="sans-serif" font-size="14.00">dependencies</text>
<g id="clust1" class="cluster">
<title>cluster_TaskModule</title>
<polygon fill="none" stroke="black" stroke-dasharray="1,5" points="8,-32.8 8,-157.8 1605,-157.8 1605,-32.8 8,-32.8"/>
</g>
<g id="clust6" class="cluster">
<title>cluster_TaskModule_providers</title>
<polygon fill="none" stroke="black" points="360,-40.8 360,-92.8 1597,-92.8 1597,-40.8 360,-40.8"/>
</g>
<g id="clust3" class="cluster">
<title>cluster_TaskModule_imports</title>
<polygon fill="none" stroke="black" points="16,-40.8 16,-92.8 352,-92.8 352,-40.8 16,-40.8"/>
</g>
<!-- AuthorizationModule -->
<g id="node1" class="node">
<title>AuthorizationModule</title>
<polygon fill="#8dd3c7" stroke="black" points="343.81,-84.8 340.81,-88.8 319.81,-88.8 316.81,-84.8 206.19,-84.8 206.19,-48.8 343.81,-48.8 343.81,-84.8"/>
<text text-anchor="middle" x="275" y="-62.6" font-family="Times,serif" font-size="14.00">AuthorizationModule</text>
</g>
<!-- TaskModule -->
<g id="node3" class="node">
<title>TaskModule</title>
<polygon fill="#8dd3c7" stroke="black" points="778.27,-149.8 775.27,-153.8 754.27,-153.8 751.27,-149.8 691.73,-149.8 691.73,-113.8 778.27,-113.8 778.27,-149.8"/>
<text text-anchor="middle" x="735" y="-127.6" font-family="Times,serif" font-size="14.00">TaskModule</text>
</g>
<!-- AuthorizationModule&#45;&gt;TaskModule -->
<g id="edge1" class="edge">
<title>AuthorizationModule&#45;&gt;TaskModule</title>
<path fill="none" stroke="black" d="M275,-84.93C275,-105.37 275,-135.8 275,-135.8 275,-135.8 681.72,-135.8 681.72,-135.8"/>
<polygon fill="black" stroke="black" points="681.72,-139.3 691.72,-135.8 681.72,-132.3 681.72,-139.3"/>
</g>
<!-- FilesStorageClientModule -->
<g id="node2" class="node">
<title>FilesStorageClientModule</title>
<polygon fill="#8dd3c7" stroke="black" points="187.77,-84.8 184.77,-88.8 163.77,-88.8 160.77,-84.8 24.23,-84.8 24.23,-48.8 187.77,-48.8 187.77,-84.8"/>
<text text-anchor="middle" x="106" y="-62.6" font-family="Times,serif" font-size="14.00">FilesStorageClientModule</text>
</g>
<!-- FilesStorageClientModule&#45;&gt;TaskModule -->
<g id="edge2" class="edge">
<title>FilesStorageClientModule&#45;&gt;TaskModule</title>
<path fill="none" stroke="black" d="M106,-84.81C106,-107.29 106,-142.8 106,-142.8 106,-142.8 681.27,-142.8 681.27,-142.8"/>
<polygon fill="black" stroke="black" points="681.27,-146.3 691.27,-142.8 681.27,-139.3 681.27,-146.3"/>
</g>
<!-- CopyHelperService -->
<g id="node4" class="node">
<title>CopyHelperService</title>
<ellipse fill="#fdb462" stroke="black" cx="1502" cy="-66.8" rx="87.39" ry="18"/>
<text text-anchor="middle" x="1502" y="-62.6" font-family="Times,serif" font-size="14.00">CopyHelperService</text>
</g>
<!-- CopyHelperService&#45;&gt;TaskModule -->
<g id="edge3" class="edge">
<title>CopyHelperService&#45;&gt;TaskModule</title>
<path fill="none" stroke="black" d="M1502,-84.81C1502,-107.29 1502,-142.8 1502,-142.8 1502,-142.8 788.43,-142.8 788.43,-142.8"/>
<polygon fill="black" stroke="black" points="788.43,-139.3 778.43,-142.8 788.43,-146.3 788.43,-139.3"/>
</g>
<!-- CourseRepo -->
<g id="node5" class="node">
<title>CourseRepo</title>
<ellipse fill="#fdb462" stroke="black" cx="1338" cy="-66.8" rx="58.56" ry="18"/>
<text text-anchor="middle" x="1338" y="-62.6" font-family="Times,serif" font-size="14.00">CourseRepo</text>
</g>
<!-- CourseRepo&#45;&gt;TaskModule -->
<g id="edge4" class="edge">
<title>CourseRepo&#45;&gt;TaskModule</title>
<path fill="none" stroke="black" d="M1338,-84.93C1338,-105.37 1338,-135.8 1338,-135.8 1338,-135.8 788.37,-135.8 788.37,-135.8"/>
<polygon fill="black" stroke="black" points="788.37,-132.3 778.37,-135.8 788.37,-139.3 788.37,-132.3"/>
</g>
<!-- FileCopyAppendService -->
<g id="node6" class="node">
<title>FileCopyAppendService</title>
<ellipse fill="#fdb462" stroke="black" cx="1155" cy="-66.8" rx="106.53" ry="18"/>
<text text-anchor="middle" x="1155" y="-62.6" font-family="Times,serif" font-size="14.00">FileCopyAppendService</text>
</g>
<!-- FileCopyAppendService&#45;&gt;TaskModule -->
<g id="edge5" class="edge">
<title>FileCopyAppendService&#45;&gt;TaskModule</title>
<path fill="none" stroke="black" d="M1155,-85.07C1155,-103.36 1155,-128.8 1155,-128.8 1155,-128.8 788.37,-128.8 788.37,-128.8"/>
<polygon fill="black" stroke="black" points="788.37,-125.3 778.37,-128.8 788.37,-132.3 788.37,-125.3"/>
</g>
<!-- LessonRepo -->
<g id="node7" class="node">
<title>LessonRepo</title>
<ellipse fill="#fdb462" stroke="black" cx="972" cy="-66.8" rx="58.56" ry="18"/>
<text text-anchor="middle" x="972" y="-62.6" font-family="Times,serif" font-size="14.00">LessonRepo</text>
</g>
<!-- LessonRepo&#45;&gt;TaskModule -->
<g id="edge6" class="edge">
<title>LessonRepo&#45;&gt;TaskModule</title>
<path fill="none" stroke="black" d="M972,-84.81C972,-100.85 972,-121.8 972,-121.8 972,-121.8 788.47,-121.8 788.47,-121.8"/>
<polygon fill="black" stroke="black" points="788.47,-118.3 778.47,-121.8 788.47,-125.3 788.47,-118.3"/>
</g>
<!-- TaskCopyService -->
<g id="node8" class="node">
<title>TaskCopyService</title>
<ellipse fill="#fdb462" stroke="black" cx="816" cy="-66.8" rx="79.88" ry="18"/>
<text text-anchor="middle" x="816" y="-62.6" font-family="Times,serif" font-size="14.00">TaskCopyService</text>
</g>
<!-- TaskCopyService&#45;&gt;TaskModule -->
<g id="edge7" class="edge">
<title>TaskCopyService&#45;&gt;TaskModule</title>
<path fill="none" stroke="black" d="M757.35,-79.03C757.35,-79.03 757.35,-103.48 757.35,-103.48"/>
<polygon fill="black" stroke="black" points="753.85,-103.48 757.35,-113.48 760.85,-103.48 753.85,-103.48"/>
</g>
<!-- TaskCopyUC -->
<g id="node9" class="node">
<title>TaskCopyUC</title>
<ellipse fill="#fdb462" stroke="black" cx="654" cy="-66.8" rx="64.3" ry="18"/>
<text text-anchor="middle" x="654" y="-62.6" font-family="Times,serif" font-size="14.00">TaskCopyUC</text>
</g>
<!-- TaskCopyUC&#45;&gt;TaskModule -->
<g id="edge8" class="edge">
<title>TaskCopyUC&#45;&gt;TaskModule</title>
<path fill="none" stroke="black" d="M704.88,-77.83C704.88,-77.83 704.88,-103.58 704.88,-103.58"/>
<polygon fill="black" stroke="black" points="701.38,-103.58 704.88,-113.58 708.38,-103.58 701.38,-103.58"/>
</g>
<!-- TaskRepo -->
<g id="node10" class="node">
<title>TaskRepo</title>
<ellipse fill="#fdb462" stroke="black" cx="522" cy="-66.8" rx="50.39" ry="18"/>
<text text-anchor="middle" x="522" y="-62.6" font-family="Times,serif" font-size="14.00">TaskRepo</text>
</g>
<!-- TaskRepo&#45;&gt;TaskModule -->
<g id="edge9" class="edge">
<title>TaskRepo&#45;&gt;TaskModule</title>
<path fill="none" stroke="black" d="M522,-84.81C522,-100.85 522,-121.8 522,-121.8 522,-121.8 681.64,-121.8 681.64,-121.8"/>
<polygon fill="black" stroke="black" points="681.64,-125.3 691.64,-121.8 681.64,-118.3 681.64,-125.3"/>
</g>
<!-- TaskUC -->
<g id="node11" class="node">
<title>TaskUC</title>
<ellipse fill="#fdb462" stroke="black" cx="411" cy="-66.8" rx="43.45" ry="18"/>
<text text-anchor="middle" x="411" y="-62.6" font-family="Times,serif" font-size="14.00">TaskUC</text>
</g>
<!-- TaskUC&#45;&gt;TaskModule -->
<g id="edge10" class="edge">
<title>TaskUC&#45;&gt;TaskModule</title>
<path fill="none" stroke="black" d="M411,-85.07C411,-103.36 411,-128.8 411,-128.8 411,-128.8 681.64,-128.8 681.64,-128.8"/>
<polygon fill="black" stroke="black" points="681.64,-132.3 691.64,-128.8 681.64,-125.3 681.64,-132.3"/>
</g>
</g>
</svg>
