<?xml version="1.0" encoding="UTF-8" standalone="no"?>
<!DOCTYPE svg PUBLIC "-//W3C//DTD SVG 1.1//EN"
 "http://www.w3.org/Graphics/SVG/1.1/DTD/svg11.dtd">
<!-- Generated by graphviz version 5.0.0 (20220707.1540)
 -->
<!-- Title: dependencies Pages: 1 -->
<svg width="2269pt" height="247pt"
 viewBox="0.00 0.00 2269.00 246.80" xmlns="http://www.w3.org/2000/svg" xmlns:xlink="http://www.w3.org/1999/xlink">
<g id="graph0" class="graph" transform="scale(1 1) rotate(0) translate(4 242.8)">
<title>dependencies</title>
<polygon fill="white" stroke="transparent" points="-4,4 -4,-242.8 2265,-242.8 2265,4 -4,4"/>
<text text-anchor="middle" x="1130.5" y="-8.2" font-family="sans-serif" font-size="14.00">dependencies</text>
<g id="clust1" class="cluster">
<title>cluster_TaskModule</title>
<polygon fill="none" stroke="black" stroke-dasharray="1,5" points="8,-32.8 8,-230.8 2253,-230.8 2253,-32.8 8,-32.8"/>
</g>
<g id="clust3" class="cluster">
<title>cluster_TaskModule_imports</title>
<polygon fill="none" stroke="black" points="1909,-40.8 1909,-92.8 2245,-92.8 2245,-40.8 1909,-40.8"/>
</g>
<g id="clust6" class="cluster">
<title>cluster_TaskModule_providers</title>
<polygon fill="none" stroke="black" points="16,-40.8 16,-92.8 1901,-92.8 1901,-40.8 16,-40.8"/>
</g>
<g id="clust4" class="cluster">
<title>cluster_TaskModule_exports</title>
<polygon fill="none" stroke="black" points="889,-170.8 889,-222.8 993,-222.8 993,-170.8 889,-170.8"/>
</g>
<!-- AuthorizationModule -->
<g id="node1" class="node">
<title>AuthorizationModule</title>
<polygon fill="#8dd3c7" stroke="black" points="2236.81,-84.8 2233.81,-88.8 2212.81,-88.8 2209.81,-84.8 2099.19,-84.8 2099.19,-48.8 2236.81,-48.8 2236.81,-84.8"/>
<text text-anchor="middle" x="2168" y="-62.6" font-family="Times,serif" font-size="14.00">AuthorizationModule</text>
</g>
<!-- TaskModule -->
<g id="node3" class="node">
<title>TaskModule</title>
<polygon fill="#8dd3c7" stroke="black" points="984.27,-149.8 981.27,-153.8 960.27,-153.8 957.27,-149.8 897.73,-149.8 897.73,-113.8 984.27,-113.8 984.27,-149.8"/>
<text text-anchor="middle" x="941" y="-127.6" font-family="Times,serif" font-size="14.00">TaskModule</text>
</g>
<!-- AuthorizationModule&#45;&gt;TaskModule -->
<g id="edge1" class="edge">
<title>AuthorizationModule&#45;&gt;TaskModule</title>
<path fill="none" stroke="black" d="M2168,-84.89C2168,-107.93 2168,-144.8 2168,-144.8 2168,-144.8 994.31,-144.8 994.31,-144.8"/>
<polygon fill="black" stroke="black" points="994.31,-141.3 984.31,-144.8 994.31,-148.3 994.31,-141.3"/>
</g>
<!-- FilesStorageClientModule -->
<g id="node2" class="node">
<title>FilesStorageClientModule</title>
<polygon fill="#8dd3c7" stroke="black" points="2080.77,-84.8 2077.77,-88.8 2056.77,-88.8 2053.77,-84.8 1917.23,-84.8 1917.23,-48.8 2080.77,-48.8 2080.77,-84.8"/>
<text text-anchor="middle" x="1999" y="-62.6" font-family="Times,serif" font-size="14.00">FilesStorageClientModule</text>
</g>
<!-- FilesStorageClientModule&#45;&gt;TaskModule -->
<g id="edge2" class="edge">
<title>FilesStorageClientModule&#45;&gt;TaskModule</title>
<path fill="none" stroke="black" d="M1999,-84.84C1999,-106.46 1999,-139.8 1999,-139.8 1999,-139.8 994.45,-139.8 994.45,-139.8"/>
<polygon fill="black" stroke="black" points="994.45,-136.3 984.45,-139.8 994.45,-143.3 994.45,-136.3"/>
</g>
<!-- TaskService  -->
<g id="node4" class="node">
<title>TaskService </title>
<polygon fill="#fb8072" stroke="black" points="985.19,-214.8 896.81,-214.8 896.81,-178.8 985.19,-178.8 985.19,-214.8"/>
<text text-anchor="middle" x="941" y="-192.6" font-family="Times,serif" font-size="14.00">TaskService </text>
</g>
<!-- TaskModule&#45;&gt;TaskService  -->
<g id="edge3" class="edge">
<title>TaskModule&#45;&gt;TaskService </title>
<path fill="none" stroke="black" stroke-dasharray="5,2" d="M941,-149.91C941,-149.91 941,-168.79 941,-168.79"/>
<polygon fill="black" stroke="black" points="937.5,-168.79 941,-178.79 944.5,-168.79 937.5,-168.79"/>
</g>
<!-- CopyHelperService -->
<g id="node5" class="node">
<title>CopyHelperService</title>
<ellipse fill="#fdb462" stroke="black" cx="1806" cy="-66.8" rx="87.39" ry="18"/>
<text text-anchor="middle" x="1806" y="-62.6" font-family="Times,serif" font-size="14.00">CopyHelperService</text>
</g>
<!-- CopyHelperService&#45;&gt;TaskModule -->
<g id="edge4" class="edge">
<title>CopyHelperService&#45;&gt;TaskModule</title>
<path fill="none" stroke="black" d="M1806,-85.02C1806,-105.17 1806,-134.8 1806,-134.8 1806,-134.8 994.49,-134.8 994.49,-134.8"/>
<polygon fill="black" stroke="black" points="994.49,-131.3 984.49,-134.8 994.49,-138.3 994.49,-131.3"/>
</g>
<!-- CourseRepo -->
<g id="node6" class="node">
<title>CourseRepo</title>
<ellipse fill="#fdb462" stroke="black" cx="1642" cy="-66.8" rx="58.56" ry="18"/>
<text text-anchor="middle" x="1642" y="-62.6" font-family="Times,serif" font-size="14.00">CourseRepo</text>
</g>
<!-- CourseRepo&#45;&gt;TaskModule -->
<g id="edge5" class="edge">
<title>CourseRepo&#45;&gt;TaskModule</title>
<path fill="none" stroke="black" d="M1642,-85.02C1642,-103.63 1642,-129.8 1642,-129.8 1642,-129.8 994.32,-129.8 994.32,-129.8"/>
<polygon fill="black" stroke="black" points="994.32,-126.3 984.32,-129.8 994.32,-133.3 994.32,-126.3"/>
</g>
<!-- FeathersServiceProvider -->
<g id="node7" class="node">
<title>FeathersServiceProvider</title>
<ellipse fill="#fdb462" stroke="black" cx="1459" cy="-66.8" rx="105.93" ry="18"/>
<text text-anchor="middle" x="1459" y="-62.6" font-family="Times,serif" font-size="14.00">FeathersServiceProvider</text>
</g>
<!-- FeathersServiceProvider&#45;&gt;TaskModule -->
<g id="edge6" class="edge">
<title>FeathersServiceProvider&#45;&gt;TaskModule</title>
<path fill="none" stroke="black" d="M1459,-84.83C1459,-101.86 1459,-124.8 1459,-124.8 1459,-124.8 994.27,-124.8 994.27,-124.8"/>
<polygon fill="black" stroke="black" points="994.27,-121.3 984.27,-124.8 994.27,-128.3 994.27,-121.3"/>
</g>
<!-- FileCopyAppendService -->
<g id="node8" class="node">
<title>FileCopyAppendService</title>
<ellipse fill="#fdb462" stroke="black" cx="1229" cy="-66.8" rx="106.53" ry="18"/>
<text text-anchor="middle" x="1229" y="-62.6" font-family="Times,serif" font-size="14.00">FileCopyAppendService</text>
</g>
<!-- FileCopyAppendService&#45;&gt;TaskModule -->
<g id="edge7" class="edge">
<title>FileCopyAppendService&#45;&gt;TaskModule</title>
<path fill="none" stroke="black" d="M1229,-85.04C1229,-100.37 1229,-119.8 1229,-119.8 1229,-119.8 994.43,-119.8 994.43,-119.8"/>
<polygon fill="black" stroke="black" points="994.43,-116.3 984.43,-119.8 994.43,-123.3 994.43,-116.3"/>
</g>
<!-- FileLegacyService -->
<g id="node9" class="node">
<title>FileLegacyService</title>
<ellipse fill="#fdb462" stroke="black" cx="1021" cy="-66.8" rx="83.36" ry="18"/>
<text text-anchor="middle" x="1021" y="-62.6" font-family="Times,serif" font-size="14.00">FileLegacyService</text>
</g>
<!-- FileLegacyService&#45;&gt;TaskModule -->
<g id="edge8" class="edge">
<title>FileLegacyService&#45;&gt;TaskModule</title>
<path fill="none" stroke="black" d="M960.98,-79.33C960.98,-79.33 960.98,-103.65 960.98,-103.65"/>
<polygon fill="black" stroke="black" points="957.48,-103.65 960.98,-113.65 964.48,-103.65 957.48,-103.65"/>
</g>
<!-- LessonRepo -->
<g id="node10" class="node">
<title>LessonRepo</title>
<ellipse fill="#fdb462" stroke="black" cx="861" cy="-66.8" rx="58.56" ry="18"/>
<text text-anchor="middle" x="861" y="-62.6" font-family="Times,serif" font-size="14.00">LessonRepo</text>
</g>
<!-- LessonRepo&#45;&gt;TaskModule -->
<g id="edge9" class="edge">
<title>LessonRepo&#45;&gt;TaskModule</title>
<path fill="none" stroke="black" d="M908.7,-77.53C908.7,-77.53 908.7,-103.67 908.7,-103.67"/>
<polygon fill="black" stroke="black" points="905.2,-103.67 908.7,-113.67 912.2,-103.67 905.2,-103.67"/>
</g>
<!-- Logger -->
<g id="node11" class="node">
<title>Logger</title>
<ellipse fill="#fdb462" stroke="black" cx="745" cy="-66.8" rx="38.85" ry="18"/>
<text text-anchor="middle" x="745" y="-62.6" font-family="Times,serif" font-size="14.00">Logger</text>
</g>
<!-- Logger&#45;&gt;TaskModule -->
<g id="edge10" class="edge">
<title>Logger&#45;&gt;TaskModule</title>
<path fill="none" stroke="black" d="M745,-85.04C745,-100.37 745,-119.8 745,-119.8 745,-119.8 887.5,-119.8 887.5,-119.8"/>
<polygon fill="black" stroke="black" points="887.5,-123.3 897.5,-119.8 887.5,-116.3 887.5,-123.3"/>
</g>
<!-- TaskCopyService -->
<g id="node12" class="node">
<title>TaskCopyService</title>
<ellipse fill="#fdb462" stroke="black" cx="608" cy="-66.8" rx="79.88" ry="18"/>
<text text-anchor="middle" x="608" y="-62.6" font-family="Times,serif" font-size="14.00">TaskCopyService</text>
</g>
<!-- TaskCopyService&#45;&gt;TaskModule -->
<g id="edge11" class="edge">
<title>TaskCopyService&#45;&gt;TaskModule</title>
<path fill="none" stroke="black" d="M608,-84.83C608,-101.86 608,-124.8 608,-124.8 608,-124.8 887.47,-124.8 887.47,-124.8"/>
<polygon fill="black" stroke="black" points="887.47,-128.3 897.47,-124.8 887.47,-121.3 887.47,-128.3"/>
</g>
<!-- TaskCopyUC -->
<g id="node13" class="node">
<title>TaskCopyUC</title>
<ellipse fill="#fdb462" stroke="black" cx="446" cy="-66.8" rx="64.3" ry="18"/>
<text text-anchor="middle" x="446" y="-62.6" font-family="Times,serif" font-size="14.00">TaskCopyUC</text>
</g>
<!-- TaskCopyUC&#45;&gt;TaskModule -->
<g id="edge12" class="edge">
<title>TaskCopyUC&#45;&gt;TaskModule</title>
<path fill="none" stroke="black" d="M446,-85.02C446,-103.63 446,-129.8 446,-129.8 446,-129.8 887.51,-129.8 887.51,-129.8"/>
<polygon fill="black" stroke="black" points="887.51,-133.3 897.51,-129.8 887.51,-126.3 887.51,-133.3"/>
</g>
<!-- TaskRepo -->
<g id="node14" class="node">
<title>TaskRepo</title>
<ellipse fill="#fdb462" stroke="black" cx="314" cy="-66.8" rx="50.39" ry="18"/>
<text text-anchor="middle" x="314" y="-62.6" font-family="Times,serif" font-size="14.00">TaskRepo</text>
</g>
<!-- TaskRepo&#45;&gt;TaskModule -->
<g id="edge13" class="edge">
<title>TaskRepo&#45;&gt;TaskModule</title>
<path fill="none" stroke="black" d="M314,-85.02C314,-105.17 314,-134.8 314,-134.8 314,-134.8 887.41,-134.8 887.41,-134.8"/>
<polygon fill="black" stroke="black" points="887.41,-138.3 897.41,-134.8 887.41,-131.3 887.41,-138.3"/>
</g>
<!-- TaskService -->
<g id="node15" class="node">
<title>TaskService</title>
<ellipse fill="#fdb462" stroke="black" cx="187" cy="-66.8" rx="58.53" ry="18"/>
<text text-anchor="middle" x="187" y="-62.6" font-family="Times,serif" font-size="14.00">TaskService</text>
</g>
<!-- TaskService&#45;&gt;TaskModule -->
<g id="edge14" class="edge">
<title>TaskService&#45;&gt;TaskModule</title>
<path fill="none" stroke="black" d="M187,-84.84C187,-106.46 187,-139.8 187,-139.8 187,-139.8 887.48,-139.8 887.48,-139.8"/>
<polygon fill="black" stroke="black" points="887.48,-143.3 897.48,-139.8 887.48,-136.3 887.48,-143.3"/>
</g>
<!-- TaskUC -->
<g id="node16" class="node">
<title>TaskUC</title>
<ellipse fill="#fdb462" stroke="black" cx="67" cy="-66.8" rx="43.45" ry="18"/>
<text text-anchor="middle" x="67" y="-62.6" font-family="Times,serif" font-size="14.00">TaskUC</text>
</g>
<!-- TaskUC&#45;&gt;TaskModule -->
<g id="edge15" class="edge">
<title>TaskUC&#45;&gt;TaskModule</title>
<path fill="none" stroke="black" d="M67,-84.89C67,-107.93 67,-144.8 67,-144.8 67,-144.8 887.66,-144.8 887.66,-144.8"/>
<polygon fill="black" stroke="black" points="887.66,-148.3 897.66,-144.8 887.66,-141.3 887.66,-148.3"/>
</g>
</g>
</svg>
