<?xml version="1.0" encoding="UTF-8" standalone="no"?>
<!DOCTYPE svg PUBLIC "-//W3C//DTD SVG 1.1//EN"
 "http://www.w3.org/Graphics/SVG/1.1/DTD/svg11.dtd">
<!-- Generated by graphviz version 5.0.0 (20220707.1540)
 -->
<!-- Title: dependencies Pages: 1 -->
<svg width="2133pt" height="174pt"
 viewBox="0.00 0.00 2133.00 173.80" xmlns="http://www.w3.org/2000/svg" xmlns:xlink="http://www.w3.org/1999/xlink">
<g id="graph0" class="graph" transform="scale(1 1) rotate(0) translate(4 169.8)">
<title>dependencies</title>
<polygon fill="white" stroke="transparent" points="-4,4 -4,-169.8 2129,-169.8 2129,4 -4,4"/>
<text text-anchor="middle" x="1062.5" y="-8.2" font-family="sans-serif" font-size="14.00">dependencies</text>
<g id="clust1" class="cluster">
<title>cluster_TaskModule</title>
<polygon fill="none" stroke="black" stroke-dasharray="1,5" points="8,-32.8 8,-157.8 2117,-157.8 2117,-32.8 8,-32.8"/>
</g>
<g id="clust3" class="cluster">
<title>cluster_TaskModule_imports</title>
<polygon fill="none" stroke="black" points="1773,-40.8 1773,-92.8 2109,-92.8 2109,-40.8 1773,-40.8"/>
</g>
<g id="clust6" class="cluster">
<title>cluster_TaskModule_providers</title>
<polygon fill="none" stroke="black" points="16,-40.8 16,-92.8 1765,-92.8 1765,-40.8 16,-40.8"/>
</g>
<!-- AuthorizationModule -->
<g id="node1" class="node">
<title>AuthorizationModule</title>
<polygon fill="#8dd3c7" stroke="black" points="2100.81,-84.8 2097.81,-88.8 2076.81,-88.8 2073.81,-84.8 1963.19,-84.8 1963.19,-48.8 2100.81,-48.8 2100.81,-84.8"/>
<text text-anchor="middle" x="2032" y="-62.6" font-family="Times,serif" font-size="14.00">AuthorizationModule</text>
</g>
<!-- TaskModule -->
<g id="node3" class="node">
<title>TaskModule</title>
<polygon fill="#8dd3c7" stroke="black" points="928.27,-149.8 925.27,-153.8 904.27,-153.8 901.27,-149.8 841.73,-149.8 841.73,-113.8 928.27,-113.8 928.27,-149.8"/>
<text text-anchor="middle" x="885" y="-127.6" font-family="Times,serif" font-size="14.00">TaskModule</text>
</g>
<!-- AuthorizationModule&#45;&gt;TaskModule -->
<g id="edge1" class="edge">
<title>AuthorizationModule&#45;&gt;TaskModule</title>
<path fill="none" stroke="black" d="M2032,-84.89C2032,-107.93 2032,-144.8 2032,-144.8 2032,-144.8 938.56,-144.8 938.56,-144.8"/>
<polygon fill="black" stroke="black" points="938.56,-141.3 928.56,-144.8 938.56,-148.3 938.56,-141.3"/>
</g>
<!-- FilesStorageClientModule -->
<g id="node2" class="node">
<title>FilesStorageClientModule</title>
<polygon fill="#8dd3c7" stroke="black" points="1944.77,-84.8 1941.77,-88.8 1920.77,-88.8 1917.77,-84.8 1781.23,-84.8 1781.23,-48.8 1944.77,-48.8 1944.77,-84.8"/>
<text text-anchor="middle" x="1863" y="-62.6" font-family="Times,serif" font-size="14.00">FilesStorageClientModule</text>
</g>
<!-- FilesStorageClientModule&#45;&gt;TaskModule -->
<g id="edge2" class="edge">
<title>FilesStorageClientModule&#45;&gt;TaskModule</title>
<path fill="none" stroke="black" d="M1863,-84.84C1863,-106.46 1863,-139.8 1863,-139.8 1863,-139.8 938.29,-139.8 938.29,-139.8"/>
<polygon fill="black" stroke="black" points="938.29,-136.3 928.29,-139.8 938.29,-143.3 938.29,-136.3"/>
</g>
<!-- CopyHelperService -->
<g id="node4" class="node">
<title>CopyHelperService</title>
<ellipse fill="#fdb462" stroke="black" cx="1670" cy="-66.8" rx="87.39" ry="18"/>
<text text-anchor="middle" x="1670" y="-62.6" font-family="Times,serif" font-size="14.00">CopyHelperService</text>
</g>
<!-- CopyHelperService&#45;&gt;TaskModule -->
<g id="edge3" class="edge">
<title>CopyHelperService&#45;&gt;TaskModule</title>
<path fill="none" stroke="black" d="M1670,-85.02C1670,-105.17 1670,-134.8 1670,-134.8 1670,-134.8 938.32,-134.8 938.32,-134.8"/>
<polygon fill="black" stroke="black" points="938.32,-131.3 928.32,-134.8 938.32,-138.3 938.32,-131.3"/>
</g>
<!-- CourseRepo -->
<g id="node5" class="node">
<title>CourseRepo</title>
<ellipse fill="#fdb462" stroke="black" cx="1506" cy="-66.8" rx="58.56" ry="18"/>
<text text-anchor="middle" x="1506" y="-62.6" font-family="Times,serif" font-size="14.00">CourseRepo</text>
</g>
<!-- CourseRepo&#45;&gt;TaskModule -->
<g id="edge4" class="edge">
<title>CourseRepo&#45;&gt;TaskModule</title>
<path fill="none" stroke="black" d="M1506,-85.02C1506,-103.63 1506,-129.8 1506,-129.8 1506,-129.8 938.67,-129.8 938.67,-129.8"/>
<polygon fill="black" stroke="black" points="938.67,-126.3 928.67,-129.8 938.67,-133.3 938.67,-126.3"/>
</g>
<!-- FeathersServiceProvider -->
<g id="node6" class="node">
<title>FeathersServiceProvider</title>
<ellipse fill="#fdb462" stroke="black" cx="1323" cy="-66.8" rx="105.93" ry="18"/>
<text text-anchor="middle" x="1323" y="-62.6" font-family="Times,serif" font-size="14.00">FeathersServiceProvider</text>
</g>
<!-- FeathersServiceProvider&#45;&gt;TaskModule -->
<g id="edge5" class="edge">
<title>FeathersServiceProvider&#45;&gt;TaskModule</title>
<path fill="none" stroke="black" d="M1323,-84.83C1323,-101.86 1323,-124.8 1323,-124.8 1323,-124.8 938.6,-124.8 938.6,-124.8"/>
<polygon fill="black" stroke="black" points="938.6,-121.3 928.6,-124.8 938.6,-128.3 938.6,-121.3"/>
</g>
<!-- FileCopyAppendService -->
<g id="node7" class="node">
<title>FileCopyAppendService</title>
<ellipse fill="#fdb462" stroke="black" cx="1093" cy="-66.8" rx="106.53" ry="18"/>
<text text-anchor="middle" x="1093" y="-62.6" font-family="Times,serif" font-size="14.00">FileCopyAppendService</text>
</g>
<!-- FileCopyAppendService&#45;&gt;TaskModule -->
<g id="edge6" class="edge">
<title>FileCopyAppendService&#45;&gt;TaskModule</title>
<path fill="none" stroke="black" d="M1093,-85.04C1093,-100.37 1093,-119.8 1093,-119.8 1093,-119.8 938.35,-119.8 938.35,-119.8"/>
<polygon fill="black" stroke="black" points="938.35,-116.3 928.35,-119.8 938.35,-123.3 938.35,-116.3"/>
</g>
<!-- FileLegacyService -->
<g id="node8" class="node">
<title>FileLegacyService</title>
<ellipse fill="#fdb462" stroke="black" cx="885" cy="-66.8" rx="83.36" ry="18"/>
<text text-anchor="middle" x="885" y="-62.6" font-family="Times,serif" font-size="14.00">FileLegacyService</text>
</g>
<!-- FileLegacyService&#45;&gt;TaskModule -->
<g id="edge7" class="edge">
<title>FileLegacyService&#45;&gt;TaskModule</title>
<path fill="none" stroke="black" d="M885,-84.91C885,-84.91 885,-103.79 885,-103.79"/>
<polygon fill="black" stroke="black" points="881.5,-103.79 885,-113.79 888.5,-103.79 881.5,-103.79"/>
</g>
<!-- LessonRepo -->
<g id="node9" class="node">
<title>LessonRepo</title>
<ellipse fill="#fdb462" stroke="black" cx="725" cy="-66.8" rx="58.56" ry="18"/>
<text text-anchor="middle" x="725" y="-62.6" font-family="Times,serif" font-size="14.00">LessonRepo</text>
</g>
<!-- LessonRepo&#45;&gt;TaskModule -->
<g id="edge8" class="edge">
<title>LessonRepo&#45;&gt;TaskModule</title>
<path fill="none" stroke="black" d="M725,-85.04C725,-100.37 725,-119.8 725,-119.8 725,-119.8 831.7,-119.8 831.7,-119.8"/>
<polygon fill="black" stroke="black" points="831.7,-123.3 841.7,-119.8 831.7,-116.3 831.7,-123.3"/>
</g>
<!-- Logger -->
<g id="node10" class="node">
<title>Logger</title>
<ellipse fill="#fdb462" stroke="black" cx="609" cy="-66.8" rx="38.85" ry="18"/>
<text text-anchor="middle" x="609" y="-62.6" font-family="Times,serif" font-size="14.00">Logger</text>
</g>
<!-- Logger&#45;&gt;TaskModule -->
<g id="edge9" class="edge">
<title>Logger&#45;&gt;TaskModule</title>
<path fill="none" stroke="black" d="M609,-84.83C609,-101.86 609,-124.8 609,-124.8 609,-124.8 831.57,-124.8 831.57,-124.8"/>
<polygon fill="black" stroke="black" points="831.57,-128.3 841.57,-124.8 831.57,-121.3 831.57,-128.3"/>
</g>
<!-- TaskCopyService -->
<g id="node11" class="node">
<title>TaskCopyService</title>
<ellipse fill="#fdb462" stroke="black" cx="472" cy="-66.8" rx="79.88" ry="18"/>
<text text-anchor="middle" x="472" y="-62.6" font-family="Times,serif" font-size="14.00">TaskCopyService</text>
</g>
<!-- TaskCopyService&#45;&gt;TaskModule -->
<g id="edge10" class="edge">
<title>TaskCopyService&#45;&gt;TaskModule</title>
<path fill="none" stroke="black" d="M472,-85.02C472,-103.63 472,-129.8 472,-129.8 472,-129.8 831.58,-129.8 831.58,-129.8"/>
<polygon fill="black" stroke="black" points="831.58,-133.3 841.58,-129.8 831.58,-126.3 831.58,-133.3"/>
</g>
<!-- TaskCopyUC -->
<g id="node12" class="node">
<title>TaskCopyUC</title>
<ellipse fill="#fdb462" stroke="black" cx="310" cy="-66.8" rx="64.3" ry="18"/>
<text text-anchor="middle" x="310" y="-62.6" font-family="Times,serif" font-size="14.00">TaskCopyUC</text>
</g>
<!-- TaskCopyUC&#45;&gt;TaskModule -->
<g id="edge11" class="edge">
<title>TaskCopyUC&#45;&gt;TaskModule</title>
<path fill="none" stroke="black" d="M310,-85.02C310,-105.17 310,-134.8 310,-134.8 310,-134.8 831.31,-134.8 831.31,-134.8"/>
<polygon fill="black" stroke="black" points="831.31,-138.3 841.31,-134.8 831.31,-131.3 831.31,-138.3"/>
</g>
<!-- TaskRepo -->
<g id="node13" class="node">
<title>TaskRepo</title>
<ellipse fill="#fdb462" stroke="black" cx="178" cy="-66.8" rx="50.39" ry="18"/>
<text text-anchor="middle" x="178" y="-62.6" font-family="Times,serif" font-size="14.00">TaskRepo</text>
</g>
<!-- TaskRepo&#45;&gt;TaskModule -->
<g id="edge12" class="edge">
<title>TaskRepo&#45;&gt;TaskModule</title>
<path fill="none" stroke="black" d="M178,-84.84C178,-106.46 178,-139.8 178,-139.8 178,-139.8 831.57,-139.8 831.57,-139.8"/>
<polygon fill="black" stroke="black" points="831.57,-143.3 841.57,-139.8 831.57,-136.3 831.57,-143.3"/>
</g>
<!-- TaskUC -->
<g id="node14" class="node">
<title>TaskUC</title>
<ellipse fill="#fdb462" stroke="black" cx="67" cy="-66.8" rx="43.45" ry="18"/>
<text text-anchor="middle" x="67" y="-62.6" font-family="Times,serif" font-size="14.00">TaskUC</text>
</g>
<!-- TaskUC&#45;&gt;TaskModule -->
<g id="edge13" class="edge">
<title>TaskUC&#45;&gt;TaskModule</title>
<path fill="none" stroke="black" d="M67,-84.89C67,-107.93 67,-144.8 67,-144.8 67,-144.8 831.6,-144.8 831.6,-144.8"/>
<polygon fill="black" stroke="black" points="831.6,-148.3 841.6,-144.8 831.6,-141.3 831.6,-148.3"/>
</g>
</g>
</svg>
