<?xml version="1.0" encoding="UTF-8" standalone="no"?>
<!DOCTYPE svg PUBLIC "-//W3C//DTD SVG 1.1//EN"
 "http://www.w3.org/Graphics/SVG/1.1/DTD/svg11.dtd">
<!-- Generated by graphviz version 3.0.0 (20220226.1711)
 -->
<!-- Title: dependencies Pages: 1 -->
<svg width="1698pt" height="247pt"
 viewBox="0.00 0.00 1698.00 246.80" xmlns="http://www.w3.org/2000/svg" xmlns:xlink="http://www.w3.org/1999/xlink">
<g id="graph0" class="graph" transform="scale(1 1) rotate(0) translate(4 242.8)">
<title>dependencies</title>
<polygon fill="white" stroke="transparent" points="-4,4 -4,-242.8 1694,-242.8 1694,4 -4,4"/>
<text text-anchor="middle" x="845" y="-8.2" font-family="sans-serif" font-size="14.00">dependencies</text>
<g id="clust1" class="cluster">
<title>cluster_CollaborativeStorageModule</title>
<polygon fill="none" stroke="black" stroke-dasharray="1,5" points="8,-32.8 8,-230.8 1682,-230.8 1682,-32.8 8,-32.8"/>
</g>
<g id="clust3" class="cluster">
<title>cluster_CollaborativeStorageModule_imports</title>
<polygon fill="none" stroke="black" points="1279,-40.8 1279,-92.8 1674,-92.8 1674,-40.8 1279,-40.8"/>
</g>
<g id="clust4" class="cluster">
<title>cluster_CollaborativeStorageModule_exports</title>
<polygon fill="none" stroke="black" points="630,-170.8 630,-222.8 800,-222.8 800,-170.8 630,-170.8"/>
</g>
<g id="clust6" class="cluster">
<title>cluster_CollaborativeStorageModule_providers</title>
<polygon fill="none" stroke="black" points="16,-40.8 16,-92.8 1271,-92.8 1271,-40.8 16,-40.8"/>
</g>
<!-- AuthorizationModule -->
<g id="node1" class="node">
<title>AuthorizationModule</title>
<polygon fill="#8dd3c7" stroke="black" points="1665.81,-84.8 1662.81,-88.8 1641.81,-88.8 1638.81,-84.8 1528.19,-84.8 1528.19,-48.8 1665.81,-48.8 1665.81,-84.8"/>
<text text-anchor="middle" x="1597" y="-62.6" font-family="Times,serif" font-size="14.00">AuthorizationModule</text>
</g>
<!-- CollaborativeStorageModule -->
<g id="node3" class="node">
<title>CollaborativeStorageModule</title>
<polygon fill="#8dd3c7" stroke="black" points="804.02,-149.8 801.02,-153.8 780.02,-153.8 777.02,-149.8 625.98,-149.8 625.98,-113.8 804.02,-113.8 804.02,-149.8"/>
<text text-anchor="middle" x="715" y="-127.6" font-family="Times,serif" font-size="14.00">CollaborativeStorageModule</text>
</g>
<!-- AuthorizationModule&#45;&gt;CollaborativeStorageModule -->
<g id="edge1" class="edge">
<title>AuthorizationModule&#45;&gt;CollaborativeStorageModule</title>
<path fill="none" stroke="black" d="M1597,-85.09C1597,-107.01 1597,-140.8 1597,-140.8 1597,-140.8 814.42,-140.8 814.42,-140.8"/>
<polygon fill="black" stroke="black" points="814.42,-137.3 804.42,-140.8 814.42,-144.3 814.42,-137.3"/>
</g>
<!-- CollaborativeStorageAdapterModule -->
<g id="node2" class="node">
<title>CollaborativeStorageAdapterModule</title>
<polygon fill="#8dd3c7" stroke="black" points="1510.61,-84.8 1507.61,-88.8 1486.61,-88.8 1483.61,-84.8 1287.39,-84.8 1287.39,-48.8 1510.61,-48.8 1510.61,-84.8"/>
<text text-anchor="middle" x="1399" y="-62.6" font-family="Times,serif" font-size="14.00">CollaborativeStorageAdapterModule</text>
</g>
<!-- CollaborativeStorageAdapterModule&#45;&gt;CollaborativeStorageModule -->
<g id="edge2" class="edge">
<title>CollaborativeStorageAdapterModule&#45;&gt;CollaborativeStorageModule</title>
<path fill="none" stroke="black" d="M1399,-84.91C1399,-104.14 1399,-131.8 1399,-131.8 1399,-131.8 814.07,-131.8 814.07,-131.8"/>
<polygon fill="black" stroke="black" points="814.07,-128.3 804.07,-131.8 814.07,-135.3 814.07,-128.3"/>
</g>
<!-- CollaborativeStorageUc  -->
<g id="node4" class="node">
<title>CollaborativeStorageUc </title>
<polygon fill="#fb8072" stroke="black" points="792.29,-214.8 637.71,-214.8 637.71,-178.8 792.29,-178.8 792.29,-214.8"/>
<text text-anchor="middle" x="715" y="-192.6" font-family="Times,serif" font-size="14.00">CollaborativeStorageUc </text>
</g>
<!-- CollaborativeStorageModule&#45;&gt;CollaborativeStorageUc  -->
<g id="edge3" class="edge">
<title>CollaborativeStorageModule&#45;&gt;CollaborativeStorageUc </title>
<path fill="none" stroke="black" stroke-dasharray="5,2" d="M715,-149.91C715,-149.91 715,-168.79 715,-168.79"/>
<polygon fill="black" stroke="black" points="711.5,-168.79 715,-178.79 718.5,-168.79 711.5,-168.79"/>
</g>
<!-- CollaborativeStorageService -->
<g id="node5" class="node">
<title>CollaborativeStorageService</title>
<ellipse fill="#fdb462" stroke="black" cx="1141" cy="-66.8" rx="122.11" ry="18"/>
<text text-anchor="middle" x="1141" y="-62.6" font-family="Times,serif" font-size="14.00">CollaborativeStorageService</text>
</g>
<!-- CollaborativeStorageService&#45;&gt;CollaborativeStorageModule -->
<g id="edge4" class="edge">
<title>CollaborativeStorageService&#45;&gt;CollaborativeStorageModule</title>
<path fill="none" stroke="black" d="M1141,-84.83C1141,-101.2 1141,-122.8 1141,-122.8 1141,-122.8 814.04,-122.8 814.04,-122.8"/>
<polygon fill="black" stroke="black" points="814.04,-119.3 804.04,-122.8 814.04,-126.3 814.04,-119.3"/>
</g>
<!-- CollaborativeStorageUc -->
<g id="node6" class="node">
<title>CollaborativeStorageUc</title>
<ellipse fill="#fdb462" stroke="black" cx="897" cy="-66.8" rx="104.21" ry="18"/>
<text text-anchor="middle" x="897" y="-62.6" font-family="Times,serif" font-size="14.00">CollaborativeStorageUc</text>
</g>
<!-- CollaborativeStorageUc&#45;&gt;CollaborativeStorageModule -->
<g id="edge5" class="edge">
<title>CollaborativeStorageUc&#45;&gt;CollaborativeStorageModule</title>
<path fill="none" stroke="black" d="M798.45,-72.8C798.45,-72.8 798.45,-103.56 798.45,-103.56"/>
<polygon fill="black" stroke="black" points="794.95,-103.56 798.45,-113.56 801.95,-103.56 794.95,-103.56"/>
</g>
<!-- RoleMapper -->
<g id="node7" class="node">
<title>RoleMapper</title>
<ellipse fill="#fdb462" stroke="black" cx="715" cy="-66.8" rx="59.11" ry="18"/>
<text text-anchor="middle" x="715" y="-62.6" font-family="Times,serif" font-size="14.00">RoleMapper</text>
</g>
<!-- RoleMapper&#45;&gt;CollaborativeStorageModule -->
<g id="edge6" class="edge">
<title>RoleMapper&#45;&gt;CollaborativeStorageModule</title>
<path fill="none" stroke="black" d="M715,-84.91C715,-84.91 715,-103.79 715,-103.79"/>
<polygon fill="black" stroke="black" points="711.5,-103.79 715,-113.79 718.5,-103.79 711.5,-103.79"/>
</g>
<!-- RoleRepo -->
<g id="node8" class="node">
<title>RoleRepo</title>
<ellipse fill="#fdb462" stroke="black" cx="588" cy="-66.8" rx="49.82" ry="18"/>
<text text-anchor="middle" x="588" y="-62.6" font-family="Times,serif" font-size="14.00">RoleRepo</text>
</g>
<!-- RoleRepo&#45;&gt;CollaborativeStorageModule -->
<g id="edge7" class="edge">
<title>RoleRepo&#45;&gt;CollaborativeStorageModule</title>
<path fill="none" stroke="black" d="M631.7,-75.57C631.7,-75.57 631.7,-103.6 631.7,-103.6"/>
<polygon fill="black" stroke="black" points="628.2,-103.6 631.7,-113.6 635.2,-103.6 628.2,-103.6"/>
</g>
<!-- TeamMapper -->
<g id="node9" class="node">
<title>TeamMapper</title>
<ellipse fill="#fdb462" stroke="black" cx="457" cy="-66.8" rx="63.1" ry="18"/>
<text text-anchor="middle" x="457" y="-62.6" font-family="Times,serif" font-size="14.00">TeamMapper</text>
</g>
<!-- TeamMapper&#45;&gt;CollaborativeStorageModule -->
<g id="edge8" class="edge">
<title>TeamMapper&#45;&gt;CollaborativeStorageModule</title>
<path fill="none" stroke="black" d="M457,-84.83C457,-101.2 457,-122.8 457,-122.8 457,-122.8 615.85,-122.8 615.85,-122.8"/>
<polygon fill="black" stroke="black" points="615.85,-126.3 625.85,-122.8 615.85,-119.3 615.85,-126.3"/>
</g>
<!-- TeamPermissionsMapper -->
<g id="node10" class="node">
<title>TeamPermissionsMapper</title>
<ellipse fill="#fdb462" stroke="black" cx="266" cy="-66.8" rx="109.97" ry="18"/>
<text text-anchor="middle" x="266" y="-62.6" font-family="Times,serif" font-size="14.00">TeamPermissionsMapper</text>
</g>
<!-- TeamPermissionsMapper&#45;&gt;CollaborativeStorageModule -->
<g id="edge9" class="edge">
<title>TeamPermissionsMapper&#45;&gt;CollaborativeStorageModule</title>
<path fill="none" stroke="black" d="M266,-84.91C266,-104.14 266,-131.8 266,-131.8 266,-131.8 615.76,-131.8 615.76,-131.8"/>
<polygon fill="black" stroke="black" points="615.76,-135.3 625.76,-131.8 615.76,-128.3 615.76,-135.3"/>
</g>
<!-- TeamsRepo -->
<g id="node11" class="node">
<title>TeamsRepo</title>
<ellipse fill="#fdb462" stroke="black" cx="81" cy="-66.8" rx="57.32" ry="18"/>
<text text-anchor="middle" x="81" y="-62.6" font-family="Times,serif" font-size="14.00">TeamsRepo</text>
</g>
<!-- TeamsRepo&#45;&gt;CollaborativeStorageModule -->
<g id="edge10" class="edge">
<title>TeamsRepo&#45;&gt;CollaborativeStorageModule</title>
<path fill="none" stroke="black" d="M81,-85.09C81,-107.01 81,-140.8 81,-140.8 81,-140.8 615.84,-140.8 615.84,-140.8"/>
<polygon fill="black" stroke="black" points="615.84,-144.3 625.84,-140.8 615.84,-137.3 615.84,-144.3"/>
</g>
</g>
</svg>
