<?xml version="1.0" encoding="UTF-8" standalone="no"?>
<!DOCTYPE svg PUBLIC "-//W3C//DTD SVG 1.1//EN"
 "http://www.w3.org/Graphics/SVG/1.1/DTD/svg11.dtd">
<!-- Generated by graphviz version 5.0.0 (20220707.1540)
 -->
<!-- Title: dependencies Pages: 1 -->
<svg width="1739pt" height="247pt"
 viewBox="0.00 0.00 1739.00 246.80" xmlns="http://www.w3.org/2000/svg" xmlns:xlink="http://www.w3.org/1999/xlink">
<g id="graph0" class="graph" transform="scale(1 1) rotate(0) translate(4 242.8)">
<title>dependencies</title>
<polygon fill="white" stroke="transparent" points="-4,4 -4,-242.8 1735,-242.8 1735,4 -4,4"/>
<text text-anchor="middle" x="865.5" y="-8.2" font-family="sans-serif" font-size="14.00">dependencies</text>
<g id="clust1" class="cluster">
<title>cluster_CollaborativeStorageModule</title>
<polygon fill="none" stroke="black" stroke-dasharray="1,5" points="8,-32.8 8,-230.8 1723,-230.8 1723,-32.8 8,-32.8"/>
</g>
<g id="clust3" class="cluster">
<title>cluster_CollaborativeStorageModule_imports</title>
<polygon fill="none" stroke="black" points="1024,-40.8 1024,-92.8 1715,-92.8 1715,-40.8 1024,-40.8"/>
</g>
<g id="clust4" class="cluster">
<title>cluster_CollaborativeStorageModule_exports</title>
<polygon fill="none" stroke="black" points="895,-170.8 895,-222.8 1065,-222.8 1065,-170.8 895,-170.8"/>
</g>
<g id="clust6" class="cluster">
<title>cluster_CollaborativeStorageModule_providers</title>
<polygon fill="none" stroke="black" points="16,-40.8 16,-92.8 1016,-92.8 1016,-40.8 16,-40.8"/>
</g>
<!-- AuthorizationModule -->
<g id="node1" class="node">
<title>AuthorizationModule</title>
<polygon fill="#8dd3c7" stroke="black" points="1706.81,-84.8 1703.81,-88.8 1682.81,-88.8 1679.81,-84.8 1569.19,-84.8 1569.19,-48.8 1706.81,-48.8 1706.81,-84.8"/>
<text text-anchor="middle" x="1638" y="-62.6" font-family="Times,serif" font-size="14.00">AuthorizationModule</text>
</g>
<!-- CollaborativeStorageModule -->
<g id="node6" class="node">
<title>CollaborativeStorageModule</title>
<polygon fill="#8dd3c7" stroke="black" points="1069.02,-149.8 1066.02,-153.8 1045.02,-153.8 1042.02,-149.8 890.98,-149.8 890.98,-113.8 1069.02,-113.8 1069.02,-149.8"/>
<text text-anchor="middle" x="980" y="-127.6" font-family="Times,serif" font-size="14.00">CollaborativeStorageModule</text>
</g>
<!-- AuthorizationModule&#45;&gt;CollaborativeStorageModule -->
<g id="edge1" class="edge">
<title>AuthorizationModule&#45;&gt;CollaborativeStorageModule</title>
<path fill="none" stroke="black" d="M1638,-84.81C1638,-107.29 1638,-142.8 1638,-142.8 1638,-142.8 1079.08,-142.8 1079.08,-142.8"/>
<polygon fill="black" stroke="black" points="1079.08,-139.3 1069.08,-142.8 1079.08,-146.3 1079.08,-139.3"/>
</g>
<!-- CollaborativeStorageAdapterModule -->
<g id="node2" class="node">
<title>CollaborativeStorageAdapterModule</title>
<polygon fill="#8dd3c7" stroke="black" points="1551.61,-84.8 1548.61,-88.8 1527.61,-88.8 1524.61,-84.8 1328.39,-84.8 1328.39,-48.8 1551.61,-48.8 1551.61,-84.8"/>
<text text-anchor="middle" x="1440" y="-62.6" font-family="Times,serif" font-size="14.00">CollaborativeStorageAdapterModule</text>
</g>
<!-- CollaborativeStorageAdapterModule&#45;&gt;CollaborativeStorageModule -->
<g id="edge2" class="edge">
<title>CollaborativeStorageAdapterModule&#45;&gt;CollaborativeStorageModule</title>
<path fill="none" stroke="black" d="M1440,-84.93C1440,-105.37 1440,-135.8 1440,-135.8 1440,-135.8 1079.24,-135.8 1079.24,-135.8"/>
<polygon fill="black" stroke="black" points="1079.24,-132.3 1069.24,-135.8 1079.24,-139.3 1079.24,-132.3"/>
</g>
<!-- Logger -->
<g id="node3" class="node">
<title>Logger</title>
<polygon fill="#8dd3c7" stroke="black" points="1310.43,-84.8 1307.43,-88.8 1286.43,-88.8 1283.43,-84.8 1253.57,-84.8 1253.57,-48.8 1310.43,-48.8 1310.43,-84.8"/>
<text text-anchor="middle" x="1282" y="-62.6" font-family="Times,serif" font-size="14.00">Logger</text>
</g>
<!-- Logger&#45;&gt;CollaborativeStorageModule -->
<g id="edge3" class="edge">
<title>Logger&#45;&gt;CollaborativeStorageModule</title>
<path fill="none" stroke="black" d="M1282,-85.07C1282,-103.36 1282,-128.8 1282,-128.8 1282,-128.8 1079.38,-128.8 1079.38,-128.8"/>
<polygon fill="black" stroke="black" points="1079.38,-125.3 1069.38,-128.8 1079.38,-132.3 1079.38,-125.3"/>
</g>
<!-- LoggerModule -->
<g id="node4" class="node">
<title>LoggerModule</title>
<polygon fill="#8dd3c7" stroke="black" points="1235.98,-84.8 1232.98,-88.8 1211.98,-88.8 1208.98,-84.8 1136.02,-84.8 1136.02,-48.8 1235.98,-48.8 1235.98,-84.8"/>
<text text-anchor="middle" x="1186" y="-62.6" font-family="Times,serif" font-size="14.00">LoggerModule</text>
</g>
<!-- LoggerModule&#45;&gt;CollaborativeStorageModule -->
<g id="edge4" class="edge">
<title>LoggerModule&#45;&gt;CollaborativeStorageModule</title>
<path fill="none" stroke="black" d="M1186,-84.81C1186,-100.85 1186,-121.8 1186,-121.8 1186,-121.8 1079.16,-121.8 1079.16,-121.8"/>
<polygon fill="black" stroke="black" points="1079.16,-118.3 1069.16,-121.8 1079.16,-125.3 1079.16,-118.3"/>
</g>
<!-- RoleModule -->
<g id="node5" class="node">
<title>RoleModule</title>
<polygon fill="#8dd3c7" stroke="black" points="1117.99,-84.8 1114.99,-88.8 1093.99,-88.8 1090.99,-84.8 1032.01,-84.8 1032.01,-48.8 1117.99,-48.8 1117.99,-84.8"/>
<text text-anchor="middle" x="1075" y="-62.6" font-family="Times,serif" font-size="14.00">RoleModule</text>
</g>
<!-- RoleModule&#45;&gt;CollaborativeStorageModule -->
<g id="edge5" class="edge">
<title>RoleModule&#45;&gt;CollaborativeStorageModule</title>
<path fill="none" stroke="black" d="M1050.63,-84.91C1050.63,-84.91 1050.63,-103.79 1050.63,-103.79"/>
<polygon fill="black" stroke="black" points="1047.13,-103.79 1050.63,-113.79 1054.13,-103.79 1047.13,-103.79"/>
</g>
<!-- CollaborativeStorageUc  -->
<g id="node7" class="node">
<title>CollaborativeStorageUc </title>
<polygon fill="#fb8072" stroke="black" points="1057.29,-214.8 902.71,-214.8 902.71,-178.8 1057.29,-178.8 1057.29,-214.8"/>
<text text-anchor="middle" x="980" y="-192.6" font-family="Times,serif" font-size="14.00">CollaborativeStorageUc </text>
</g>
<!-- CollaborativeStorageModule&#45;&gt;CollaborativeStorageUc  -->
<g id="edge6" class="edge">
<title>CollaborativeStorageModule&#45;&gt;CollaborativeStorageUc </title>
<path fill="none" stroke="black" stroke-dasharray="5,2" d="M980,-149.91C980,-149.91 980,-168.79 980,-168.79"/>
<polygon fill="black" stroke="black" points="976.5,-168.79 980,-178.79 983.5,-168.79 976.5,-168.79"/>
</g>
<!-- CollaborativeStorageService -->
<g id="node8" class="node">
<title>CollaborativeStorageService</title>
<ellipse fill="#fdb462" stroke="black" cx="886" cy="-66.8" rx="122.11" ry="18"/>
<text text-anchor="middle" x="886" y="-62.6" font-family="Times,serif" font-size="14.00">CollaborativeStorageService</text>
</g>
<!-- CollaborativeStorageService&#45;&gt;CollaborativeStorageModule -->
<g id="edge7" class="edge">
<title>CollaborativeStorageService&#45;&gt;CollaborativeStorageModule</title>
<path fill="none" stroke="black" d="M949.4,-82.2C949.4,-82.2 949.4,-103.74 949.4,-103.74"/>
<polygon fill="black" stroke="black" points="945.9,-103.74 949.4,-113.74 952.9,-103.74 945.9,-103.74"/>
</g>
<!-- CollaborativeStorageUc -->
<g id="node9" class="node">
<title>CollaborativeStorageUc</title>
<ellipse fill="#fdb462" stroke="black" cx="642" cy="-66.8" rx="104.21" ry="18"/>
<text text-anchor="middle" x="642" y="-62.6" font-family="Times,serif" font-size="14.00">CollaborativeStorageUc</text>
</g>
<!-- CollaborativeStorageUc&#45;&gt;CollaborativeStorageModule -->
<g id="edge8" class="edge">
<title>CollaborativeStorageUc&#45;&gt;CollaborativeStorageModule</title>
<path fill="none" stroke="black" d="M642,-84.81C642,-100.85 642,-121.8 642,-121.8 642,-121.8 880.75,-121.8 880.75,-121.8"/>
<polygon fill="black" stroke="black" points="880.75,-125.3 890.75,-121.8 880.75,-118.3 880.75,-125.3"/>
</g>
<!-- TeamMapper -->
<g id="node10" class="node">
<title>TeamMapper</title>
<ellipse fill="#fdb462" stroke="black" cx="457" cy="-66.8" rx="63.1" ry="18"/>
<text text-anchor="middle" x="457" y="-62.6" font-family="Times,serif" font-size="14.00">TeamMapper</text>
</g>
<!-- TeamMapper&#45;&gt;CollaborativeStorageModule -->
<g id="edge9" class="edge">
<title>TeamMapper&#45;&gt;CollaborativeStorageModule</title>
<path fill="none" stroke="black" d="M457,-85.07C457,-103.36 457,-128.8 457,-128.8 457,-128.8 880.69,-128.8 880.69,-128.8"/>
<polygon fill="black" stroke="black" points="880.69,-132.3 890.69,-128.8 880.69,-125.3 880.69,-132.3"/>
</g>
<!-- TeamPermissionsMapper -->
<g id="node11" class="node">
<title>TeamPermissionsMapper</title>
<ellipse fill="#fdb462" stroke="black" cx="266" cy="-66.8" rx="109.97" ry="18"/>
<text text-anchor="middle" x="266" y="-62.6" font-family="Times,serif" font-size="14.00">TeamPermissionsMapper</text>
</g>
<!-- TeamPermissionsMapper&#45;&gt;CollaborativeStorageModule -->
<g id="edge10" class="edge">
<title>TeamPermissionsMapper&#45;&gt;CollaborativeStorageModule</title>
<path fill="none" stroke="black" d="M266,-84.93C266,-105.37 266,-135.8 266,-135.8 266,-135.8 880.66,-135.8 880.66,-135.8"/>
<polygon fill="black" stroke="black" points="880.66,-139.3 890.66,-135.8 880.65,-132.3 880.66,-139.3"/>
</g>
<!-- TeamsRepo -->
<g id="node12" class="node">
<title>TeamsRepo</title>
<ellipse fill="#fdb462" stroke="black" cx="81" cy="-66.8" rx="57.32" ry="18"/>
<text text-anchor="middle" x="81" y="-62.6" font-family="Times,serif" font-size="14.00">TeamsRepo</text>
</g>
<!-- TeamsRepo&#45;&gt;CollaborativeStorageModule -->
<g id="edge11" class="edge">
<title>TeamsRepo&#45;&gt;CollaborativeStorageModule</title>
<path fill="none" stroke="black" d="M81,-84.81C81,-107.29 81,-142.8 81,-142.8 81,-142.8 880.93,-142.8 880.93,-142.8"/>
<polygon fill="black" stroke="black" points="880.93,-146.3 890.93,-142.8 880.93,-139.3 880.93,-146.3"/>
</g>
</g>
</svg>
