<?xml version="1.0" encoding="UTF-8" standalone="no"?>
<!DOCTYPE svg PUBLIC "-//W3C//DTD SVG 1.1//EN"
 "http://www.w3.org/Graphics/SVG/1.1/DTD/svg11.dtd">
<!-- Generated by graphviz version 3.0.0 (20220226.1711)
 -->
<!-- Title: dependencies Pages: 1 -->
<svg width="1698pt" height="247pt"
 viewBox="0.00 0.00 1698.00 246.80" xmlns="http://www.w3.org/2000/svg" xmlns:xlink="http://www.w3.org/1999/xlink">
<g id="graph0" class="graph" transform="scale(1 1) rotate(0) translate(4 242.8)">
<title>dependencies</title>
<polygon fill="white" stroke="transparent" points="-4,4 -4,-242.8 1694,-242.8 1694,4 -4,4"/>
<text text-anchor="middle" x="845" y="-8.2" font-family="sans-serif" font-size="14.00">dependencies</text>
<g id="clust1" class="cluster">
<title>cluster_CollaborativeStorageModule</title>
<polygon fill="none" stroke="black" stroke-dasharray="1,5" points="8,-32.8 8,-230.8 1682,-230.8 1682,-32.8 8,-32.8"/>
</g>
<g id="clust4" class="cluster">
<title>cluster_CollaborativeStorageModule_exports</title>
<polygon fill="none" stroke="black" points="775,-170.8 775,-222.8 945,-222.8 945,-170.8 775,-170.8"/>
</g>
<g id="clust6" class="cluster">
<title>cluster_CollaborativeStorageModule_providers</title>
<polygon fill="none" stroke="black" points="419,-40.8 419,-92.8 1674,-92.8 1674,-40.8 419,-40.8"/>
</g>
<g id="clust3" class="cluster">
<title>cluster_CollaborativeStorageModule_imports</title>
<polygon fill="none" stroke="black" points="16,-40.8 16,-92.8 411,-92.8 411,-40.8 16,-40.8"/>
</g>
<!-- AuthorizationModule -->
<g id="node1" class="node">
<title>AuthorizationModule</title>
<polygon fill="#8dd3c7" stroke="black" points="402.81,-84.8 399.81,-88.8 378.81,-88.8 375.81,-84.8 265.19,-84.8 265.19,-48.8 402.81,-48.8 402.81,-84.8"/>
<text text-anchor="middle" x="334" y="-62.6" font-family="Times,serif" font-size="14.00">AuthorizationModule</text>
</g>
<!-- CollaborativeStorageModule -->
<g id="node3" class="node">
<title>CollaborativeStorageModule</title>
<polygon fill="#8dd3c7" stroke="black" points="949.02,-149.8 946.02,-153.8 925.02,-153.8 922.02,-149.8 770.98,-149.8 770.98,-113.8 949.02,-113.8 949.02,-149.8"/>
<text text-anchor="middle" x="860" y="-127.6" font-family="Times,serif" font-size="14.00">CollaborativeStorageModule</text>
</g>
<!-- AuthorizationModule&#45;&gt;CollaborativeStorageModule -->
<g id="edge1" class="edge">
<title>AuthorizationModule&#45;&gt;CollaborativeStorageModule</title>
<path fill="none" stroke="black" d="M334,-84.91C334,-104.14 334,-131.8 334,-131.8 334,-131.8 760.77,-131.8 760.77,-131.8"/>
<polygon fill="black" stroke="black" points="760.77,-135.3 770.77,-131.8 760.77,-128.3 760.77,-135.3"/>
</g>
<!-- CollaborativeStorageAdapterModule -->
<g id="node2" class="node">
<title>CollaborativeStorageAdapterModule</title>
<polygon fill="#8dd3c7" stroke="black" points="247.61,-84.8 244.61,-88.8 223.61,-88.8 220.61,-84.8 24.39,-84.8 24.39,-48.8 247.61,-48.8 247.61,-84.8"/>
<text text-anchor="middle" x="136" y="-62.6" font-family="Times,serif" font-size="14.00">CollaborativeStorageAdapterModule</text>
</g>
<!-- CollaborativeStorageAdapterModule&#45;&gt;CollaborativeStorageModule -->
<g id="edge2" class="edge">
<title>CollaborativeStorageAdapterModule&#45;&gt;CollaborativeStorageModule</title>
<path fill="none" stroke="black" d="M136,-85.09C136,-107.01 136,-140.8 136,-140.8 136,-140.8 760.86,-140.8 760.86,-140.8"/>
<polygon fill="black" stroke="black" points="760.86,-144.3 770.86,-140.8 760.86,-137.3 760.86,-144.3"/>
</g>
<!-- CollaborativeStorageUc  -->
<g id="node4" class="node">
<title>CollaborativeStorageUc </title>
<polygon fill="#fb8072" stroke="black" points="937.29,-214.8 782.71,-214.8 782.71,-178.8 937.29,-178.8 937.29,-214.8"/>
<text text-anchor="middle" x="860" y="-192.6" font-family="Times,serif" font-size="14.00">CollaborativeStorageUc </text>
</g>
<!-- CollaborativeStorageModule&#45;&gt;CollaborativeStorageUc  -->
<g id="edge3" class="edge">
<title>CollaborativeStorageModule&#45;&gt;CollaborativeStorageUc </title>
<path fill="none" stroke="black" stroke-dasharray="5,2" d="M860,-149.91C860,-149.91 860,-168.79 860,-168.79"/>
<polygon fill="black" stroke="black" points="856.5,-168.79 860,-178.79 863.5,-168.79 856.5,-168.79"/>
</g>
<!-- CollaborativeStorageService -->
<g id="node5" class="node">
<title>CollaborativeStorageService</title>
<ellipse fill="#fdb462" stroke="black" cx="1544" cy="-66.8" rx="122.11" ry="18"/>
<text text-anchor="middle" x="1544" y="-62.6" font-family="Times,serif" font-size="14.00">CollaborativeStorageService</text>
</g>
<!-- CollaborativeStorageService&#45;&gt;CollaborativeStorageModule -->
<g id="edge4" class="edge">
<title>CollaborativeStorageService&#45;&gt;CollaborativeStorageModule</title>
<path fill="none" stroke="black" d="M1544,-85.09C1544,-107.01 1544,-140.8 1544,-140.8 1544,-140.8 959.07,-140.8 959.07,-140.8"/>
<polygon fill="black" stroke="black" points="959.07,-137.3 949.07,-140.8 959.07,-144.3 959.07,-137.3"/>
</g>
<!-- CollaborativeStorageUc -->
<g id="node6" class="node">
<title>CollaborativeStorageUc</title>
<ellipse fill="#fdb462" stroke="black" cx="1300" cy="-66.8" rx="104.21" ry="18"/>
<text text-anchor="middle" x="1300" y="-62.6" font-family="Times,serif" font-size="14.00">CollaborativeStorageUc</text>
</g>
<!-- CollaborativeStorageUc&#45;&gt;CollaborativeStorageModule -->
<g id="edge5" class="edge">
<title>CollaborativeStorageUc&#45;&gt;CollaborativeStorageModule</title>
<path fill="none" stroke="black" d="M1300,-84.91C1300,-104.14 1300,-131.8 1300,-131.8 1300,-131.8 959.04,-131.8 959.04,-131.8"/>
<polygon fill="black" stroke="black" points="959.04,-128.3 949.04,-131.8 959.04,-135.3 959.04,-128.3"/>
</g>
<!-- RoleMapper -->
<g id="node7" class="node">
<title>RoleMapper</title>
<ellipse fill="#fdb462" stroke="black" cx="1118" cy="-66.8" rx="59.11" ry="18"/>
<text text-anchor="middle" x="1118" y="-62.6" font-family="Times,serif" font-size="14.00">RoleMapper</text>
</g>
<!-- RoleMapper&#45;&gt;CollaborativeStorageModule -->
<g id="edge6" class="edge">
<title>RoleMapper&#45;&gt;CollaborativeStorageModule</title>
<path fill="none" stroke="black" d="M1118,-84.83C1118,-101.2 1118,-122.8 1118,-122.8 1118,-122.8 959.15,-122.8 959.15,-122.8"/>
<polygon fill="black" stroke="black" points="959.15,-119.3 949.15,-122.8 959.15,-126.3 959.15,-119.3"/>
</g>
<!-- RoleRepo -->
<g id="node8" class="node">
<title>RoleRepo</title>
<ellipse fill="#fdb462" stroke="black" cx="991" cy="-66.8" rx="49.82" ry="18"/>
<text text-anchor="middle" x="991" y="-62.6" font-family="Times,serif" font-size="14.00">RoleRepo</text>
</g>
<!-- RoleRepo&#45;&gt;CollaborativeStorageModule -->
<g id="edge7" class="edge">
<title>RoleRepo&#45;&gt;CollaborativeStorageModule</title>
<path fill="none" stroke="black" d="M945.3,-74C945.3,-74 945.3,-103.76 945.3,-103.76"/>
<polygon fill="black" stroke="black" points="941.8,-103.76 945.3,-113.76 948.8,-103.76 941.8,-103.76"/>
</g>
<!-- TeamMapper -->
<g id="node9" class="node">
<title>TeamMapper</title>
<ellipse fill="#fdb462" stroke="black" cx="860" cy="-66.8" rx="63.1" ry="18"/>
<text text-anchor="middle" x="860" y="-62.6" font-family="Times,serif" font-size="14.00">TeamMapper</text>
</g>
<!-- TeamMapper&#45;&gt;CollaborativeStorageModule -->
<g id="edge8" class="edge">
<title>TeamMapper&#45;&gt;CollaborativeStorageModule</title>
<path fill="none" stroke="black" d="M860,-84.91C860,-84.91 860,-103.79 860,-103.79"/>
<polygon fill="black" stroke="black" points="856.5,-103.79 860,-113.79 863.5,-103.79 856.5,-103.79"/>
</g>
<!-- TeamPermissionsMapper -->
<g id="node10" class="node">
<title>TeamPermissionsMapper</title>
<ellipse fill="#fdb462" stroke="black" cx="669" cy="-66.8" rx="109.97" ry="18"/>
<text text-anchor="middle" x="669" y="-62.6" font-family="Times,serif" font-size="14.00">TeamPermissionsMapper</text>
</g>
<!-- TeamPermissionsMapper&#45;&gt;CollaborativeStorageModule -->
<g id="edge9" class="edge">
<title>TeamPermissionsMapper&#45;&gt;CollaborativeStorageModule</title>
<path fill="none" stroke="black" d="M774.74,-71.9C774.74,-71.9 774.74,-103.54 774.74,-103.54"/>
<polygon fill="black" stroke="black" points="771.24,-103.54 774.74,-113.54 778.24,-103.54 771.24,-103.54"/>
</g>
<!-- TeamsRepo -->
<g id="node11" class="node">
<title>TeamsRepo</title>
<ellipse fill="#fdb462" stroke="black" cx="484" cy="-66.8" rx="57.32" ry="18"/>
<text text-anchor="middle" x="484" y="-62.6" font-family="Times,serif" font-size="14.00">TeamsRepo</text>
</g>
<!-- TeamsRepo&#45;&gt;CollaborativeStorageModule -->
<g id="edge10" class="edge">
<title>TeamsRepo&#45;&gt;CollaborativeStorageModule</title>
<path fill="none" stroke="black" d="M484,-84.83C484,-101.2 484,-122.8 484,-122.8 484,-122.8 760.89,-122.8 760.89,-122.8"/>
<polygon fill="black" stroke="black" points="760.89,-126.3 770.89,-122.8 760.89,-119.3 760.89,-126.3"/>
</g>
</g>
</svg>
