<?xml version="1.0" encoding="UTF-8" standalone="no"?>
<!DOCTYPE svg PUBLIC "-//W3C//DTD SVG 1.1//EN"
 "http://www.w3.org/Graphics/SVG/1.1/DTD/svg11.dtd">
<!-- Generated by graphviz version 5.0.0 (20220707.1540)
 -->
<!-- Title: dependencies Pages: 1 -->
<svg width="1890pt" height="247pt"
 viewBox="0.00 0.00 1890.00 246.80" xmlns="http://www.w3.org/2000/svg" xmlns:xlink="http://www.w3.org/1999/xlink">
<g id="graph0" class="graph" transform="scale(1 1) rotate(0) translate(4 242.8)">
<title>dependencies</title>
<polygon fill="white" stroke="transparent" points="-4,4 -4,-242.8 1886,-242.8 1886,4 -4,4"/>
<text text-anchor="middle" x="941" y="-8.2" font-family="sans-serif" font-size="14.00">dependencies</text>
<g id="clust1" class="cluster">
<title>cluster_CollaborativeStorageModule</title>
<polygon fill="none" stroke="black" stroke-dasharray="1,5" points="8,-32.8 8,-230.8 1874,-230.8 1874,-32.8 8,-32.8"/>
</g>
<g id="clust3" class="cluster">
<title>cluster_CollaborativeStorageModule_imports</title>
<polygon fill="none" stroke="black" points="1279,-40.8 1279,-92.8 1866,-92.8 1866,-40.8 1279,-40.8"/>
</g>
<g id="clust6" class="cluster">
<title>cluster_CollaborativeStorageModule_providers</title>
<polygon fill="none" stroke="black" points="16,-40.8 16,-92.8 1271,-92.8 1271,-40.8 16,-40.8"/>
</g>
<g id="clust4" class="cluster">
<title>cluster_CollaborativeStorageModule_exports</title>
<polygon fill="none" stroke="black" points="812,-170.8 812,-222.8 982,-222.8 982,-170.8 812,-170.8"/>
</g>
<!-- AuthorizationModule -->
<g id="node1" class="node">
<title>AuthorizationModule</title>
<polygon fill="#8dd3c7" stroke="black" points="1857.81,-84.8 1854.81,-88.8 1833.81,-88.8 1830.81,-84.8 1720.19,-84.8 1720.19,-48.8 1857.81,-48.8 1857.81,-84.8"/>
<text text-anchor="middle" x="1789" y="-62.6" font-family="Times,serif" font-size="14.00">AuthorizationModule</text>
</g>
<!-- CollaborativeStorageModule -->
<g id="node5" class="node">
<title>CollaborativeStorageModule</title>
<polygon fill="#8dd3c7" stroke="black" points="986.02,-149.8 983.02,-153.8 962.02,-153.8 959.02,-149.8 807.98,-149.8 807.98,-113.8 986.02,-113.8 986.02,-149.8"/>
<text text-anchor="middle" x="897" y="-127.6" font-family="Times,serif" font-size="14.00">CollaborativeStorageModule</text>
</g>
<!-- AuthorizationModule&#45;&gt;CollaborativeStorageModule -->
<g id="edge1" class="edge">
<title>AuthorizationModule&#45;&gt;CollaborativeStorageModule</title>
<path fill="none" stroke="black" d="M1789,-85.05C1789,-107.82 1789,-143.8 1789,-143.8 1789,-143.8 996.2,-143.8 996.2,-143.8"/>
<polygon fill="black" stroke="black" points="996.2,-140.3 986.2,-143.8 996.2,-147.3 996.2,-140.3"/>
</g>
<!-- CollaborativeStorageAdapterModule -->
<g id="node2" class="node">
<title>CollaborativeStorageAdapterModule</title>
<polygon fill="#8dd3c7" stroke="black" points="1702.61,-84.8 1699.61,-88.8 1678.61,-88.8 1675.61,-84.8 1479.39,-84.8 1479.39,-48.8 1702.61,-48.8 1702.61,-84.8"/>
<text text-anchor="middle" x="1591" y="-62.6" font-family="Times,serif" font-size="14.00">CollaborativeStorageAdapterModule</text>
</g>
<!-- CollaborativeStorageAdapterModule&#45;&gt;CollaborativeStorageModule -->
<g id="edge2" class="edge">
<title>CollaborativeStorageAdapterModule&#45;&gt;CollaborativeStorageModule</title>
<path fill="none" stroke="black" d="M1591,-85.08C1591,-106.12 1591,-137.8 1591,-137.8 1591,-137.8 996.31,-137.8 996.31,-137.8"/>
<polygon fill="black" stroke="black" points="996.31,-134.3 986.31,-137.8 996.31,-141.3 996.31,-134.3"/>
</g>
<!-- Logger -->
<g id="node3" class="node">
<title>Logger</title>
<polygon fill="#8dd3c7" stroke="black" points="1461.43,-84.8 1458.43,-88.8 1437.43,-88.8 1434.43,-84.8 1404.57,-84.8 1404.57,-48.8 1461.43,-48.8 1461.43,-84.8"/>
<text text-anchor="middle" x="1433" y="-62.6" font-family="Times,serif" font-size="14.00">Logger</text>
</g>
<!-- Logger&#45;&gt;CollaborativeStorageModule -->
<g id="edge3" class="edge">
<title>Logger&#45;&gt;CollaborativeStorageModule</title>
<path fill="none" stroke="black" d="M1433,-84.91C1433,-104.14 1433,-131.8 1433,-131.8 1433,-131.8 996.11,-131.8 996.11,-131.8"/>
<polygon fill="black" stroke="black" points="996.11,-128.3 986.11,-131.8 996.11,-135.3 996.11,-128.3"/>
</g>
<!-- LoggerModule -->
<g id="node4" class="node">
<title>LoggerModule</title>
<polygon fill="#8dd3c7" stroke="black" points="1386.98,-84.8 1383.98,-88.8 1362.98,-88.8 1359.98,-84.8 1287.02,-84.8 1287.02,-48.8 1386.98,-48.8 1386.98,-84.8"/>
<text text-anchor="middle" x="1337" y="-62.6" font-family="Times,serif" font-size="14.00">LoggerModule</text>
</g>
<!-- LoggerModule&#45;&gt;CollaborativeStorageModule -->
<g id="edge4" class="edge">
<title>LoggerModule&#45;&gt;CollaborativeStorageModule</title>
<path fill="none" stroke="black" d="M1337,-84.82C1337,-102.17 1337,-125.8 1337,-125.8 1337,-125.8 996.04,-125.8 996.04,-125.8"/>
<polygon fill="black" stroke="black" points="996.04,-122.3 986.04,-125.8 996.04,-129.3 996.04,-122.3"/>
</g>
<!-- CollaborativeStorageUc  -->
<g id="node6" class="node">
<title>CollaborativeStorageUc </title>
<polygon fill="#fb8072" stroke="black" points="974.29,-214.8 819.71,-214.8 819.71,-178.8 974.29,-178.8 974.29,-214.8"/>
<text text-anchor="middle" x="897" y="-192.6" font-family="Times,serif" font-size="14.00">CollaborativeStorageUc </text>
</g>
<!-- CollaborativeStorageModule&#45;&gt;CollaborativeStorageUc  -->
<g id="edge5" class="edge">
<title>CollaborativeStorageModule&#45;&gt;CollaborativeStorageUc </title>
<path fill="none" stroke="black" stroke-dasharray="5,2" d="M897,-149.91C897,-149.91 897,-168.79 897,-168.79"/>
<polygon fill="black" stroke="black" points="893.5,-168.79 897,-178.79 900.5,-168.79 893.5,-168.79"/>
</g>
<!-- CollaborativeStorageService -->
<g id="node7" class="node">
<title>CollaborativeStorageService</title>
<ellipse fill="#fdb462" stroke="black" cx="1141" cy="-66.8" rx="122.11" ry="18"/>
<text text-anchor="middle" x="1141" y="-62.6" font-family="Times,serif" font-size="14.00">CollaborativeStorageService</text>
</g>
<!-- CollaborativeStorageService&#45;&gt;CollaborativeStorageModule -->
<g id="edge6" class="edge">
<title>CollaborativeStorageService&#45;&gt;CollaborativeStorageModule</title>
<path fill="none" stroke="black" d="M1141,-85.04C1141,-100.37 1141,-119.8 1141,-119.8 1141,-119.8 996.13,-119.8 996.13,-119.8"/>
<polygon fill="black" stroke="black" points="996.13,-116.3 986.13,-119.8 996.13,-123.3 996.13,-116.3"/>
</g>
<!-- CollaborativeStorageUc -->
<g id="node8" class="node">
<title>CollaborativeStorageUc</title>
<ellipse fill="#fdb462" stroke="black" cx="897" cy="-66.8" rx="104.21" ry="18"/>
<text text-anchor="middle" x="897" y="-62.6" font-family="Times,serif" font-size="14.00">CollaborativeStorageUc</text>
</g>
<!-- CollaborativeStorageUc&#45;&gt;CollaborativeStorageModule -->
<g id="edge7" class="edge">
<title>CollaborativeStorageUc&#45;&gt;CollaborativeStorageModule</title>
<path fill="none" stroke="black" d="M897,-84.91C897,-84.91 897,-103.79 897,-103.79"/>
<polygon fill="black" stroke="black" points="893.5,-103.79 897,-113.79 900.5,-103.79 893.5,-103.79"/>
</g>
<!-- RoleMapper -->
<g id="node9" class="node">
<title>RoleMapper</title>
<ellipse fill="#fdb462" stroke="black" cx="715" cy="-66.8" rx="59.11" ry="18"/>
<text text-anchor="middle" x="715" y="-62.6" font-family="Times,serif" font-size="14.00">RoleMapper</text>
</g>
<!-- RoleMapper&#45;&gt;CollaborativeStorageModule -->
<g id="edge8" class="edge">
<title>RoleMapper&#45;&gt;CollaborativeStorageModule</title>
<path fill="none" stroke="black" d="M715,-85.04C715,-100.37 715,-119.8 715,-119.8 715,-119.8 797.87,-119.8 797.87,-119.8"/>
<polygon fill="black" stroke="black" points="797.87,-123.3 807.87,-119.8 797.87,-116.3 797.87,-123.3"/>
</g>
<!-- RoleRepo -->
<g id="node10" class="node">
<title>RoleRepo</title>
<ellipse fill="#fdb462" stroke="black" cx="588" cy="-66.8" rx="49.82" ry="18"/>
<text text-anchor="middle" x="588" y="-62.6" font-family="Times,serif" font-size="14.00">RoleRepo</text>
</g>
<!-- RoleRepo&#45;&gt;CollaborativeStorageModule -->
<g id="edge9" class="edge">
<title>RoleRepo&#45;&gt;CollaborativeStorageModule</title>
<path fill="none" stroke="black" d="M588,-84.82C588,-102.17 588,-125.8 588,-125.8 588,-125.8 797.62,-125.8 797.62,-125.8"/>
<polygon fill="black" stroke="black" points="797.62,-129.3 807.62,-125.8 797.62,-122.3 797.62,-129.3"/>
</g>
<!-- TeamMapper -->
<g id="node11" class="node">
<title>TeamMapper</title>
<ellipse fill="#fdb462" stroke="black" cx="457" cy="-66.8" rx="63.1" ry="18"/>
<text text-anchor="middle" x="457" y="-62.6" font-family="Times,serif" font-size="14.00">TeamMapper</text>
</g>
<!-- TeamMapper&#45;&gt;CollaborativeStorageModule -->
<g id="edge10" class="edge">
<title>TeamMapper&#45;&gt;CollaborativeStorageModule</title>
<path fill="none" stroke="black" d="M457,-84.91C457,-104.14 457,-131.8 457,-131.8 457,-131.8 797.96,-131.8 797.96,-131.8"/>
<polygon fill="black" stroke="black" points="797.96,-135.3 807.96,-131.8 797.96,-128.3 797.96,-135.3"/>
</g>
<!-- TeamPermissionsMapper -->
<g id="node12" class="node">
<title>TeamPermissionsMapper</title>
<ellipse fill="#fdb462" stroke="black" cx="266" cy="-66.8" rx="109.97" ry="18"/>
<text text-anchor="middle" x="266" y="-62.6" font-family="Times,serif" font-size="14.00">TeamPermissionsMapper</text>
</g>
<!-- TeamPermissionsMapper&#45;&gt;CollaborativeStorageModule -->
<g id="edge11" class="edge">
<title>TeamPermissionsMapper&#45;&gt;CollaborativeStorageModule</title>
<path fill="none" stroke="black" d="M266,-85.08C266,-106.12 266,-137.8 266,-137.8 266,-137.8 797.93,-137.8 797.93,-137.8"/>
<polygon fill="black" stroke="black" points="797.93,-141.3 807.93,-137.8 797.93,-134.3 797.93,-141.3"/>
</g>
<!-- TeamsRepo -->
<g id="node13" class="node">
<title>TeamsRepo</title>
<ellipse fill="#fdb462" stroke="black" cx="81" cy="-66.8" rx="57.32" ry="18"/>
<text text-anchor="middle" x="81" y="-62.6" font-family="Times,serif" font-size="14.00">TeamsRepo</text>
</g>
<!-- TeamsRepo&#45;&gt;CollaborativeStorageModule -->
<g id="edge12" class="edge">
<title>TeamsRepo&#45;&gt;CollaborativeStorageModule</title>
<path fill="none" stroke="black" d="M81,-85.05C81,-107.82 81,-143.8 81,-143.8 81,-143.8 797.73,-143.8 797.73,-143.8"/>
<polygon fill="black" stroke="black" points="797.73,-147.3 807.73,-143.8 797.73,-140.3 797.73,-147.3"/>
</g>
</g>
</svg>
