<?xml version="1.0" encoding="UTF-8" standalone="no"?>
<!DOCTYPE svg PUBLIC "-//W3C//DTD SVG 1.1//EN"
 "http://www.w3.org/Graphics/SVG/1.1/DTD/svg11.dtd">
<!-- Generated by graphviz version 5.0.0 (20220707.1540)
 -->
<!-- Title: dependencies Pages: 1 -->
<svg width="1739pt" height="247pt"
 viewBox="0.00 0.00 1739.00 246.80" xmlns="http://www.w3.org/2000/svg" xmlns:xlink="http://www.w3.org/1999/xlink">
<g id="graph0" class="graph" transform="scale(1 1) rotate(0) translate(4 242.8)">
<title>dependencies</title>
<polygon fill="white" stroke="transparent" points="-4,4 -4,-242.8 1735,-242.8 1735,4 -4,4"/>
<text text-anchor="middle" x="865.5" y="-8.2" font-family="sans-serif" font-size="14.00">dependencies</text>
<g id="clust1" class="cluster">
<title>cluster_CollaborativeStorageModule</title>
<polygon fill="none" stroke="black" stroke-dasharray="1,5" points="8,-32.8 8,-230.8 1723,-230.8 1723,-32.8 8,-32.8"/>
</g>
<g id="clust6" class="cluster">
<title>cluster_CollaborativeStorageModule_providers</title>
<polygon fill="none" stroke="black" points="715,-40.8 715,-92.8 1715,-92.8 1715,-40.8 715,-40.8"/>
</g>
<g id="clust3" class="cluster">
<title>cluster_CollaborativeStorageModule_imports</title>
<polygon fill="none" stroke="black" points="16,-40.8 16,-92.8 707,-92.8 707,-40.8 16,-40.8"/>
</g>
<g id="clust4" class="cluster">
<title>cluster_CollaborativeStorageModule_exports</title>
<polygon fill="none" stroke="black" points="620,-170.8 620,-222.8 790,-222.8 790,-170.8 620,-170.8"/>
</g>
<!-- AuthorizationModule -->
<g id="node1" class="node">
<title>AuthorizationModule</title>
<polygon fill="#8dd3c7" stroke="black" points="698.81,-84.8 695.81,-88.8 674.81,-88.8 671.81,-84.8 561.19,-84.8 561.19,-48.8 698.81,-48.8 698.81,-84.8"/>
<text text-anchor="middle" x="630" y="-62.6" font-family="Times,serif" font-size="14.00">AuthorizationModule</text>
</g>
<!-- CollaborativeStorageModule -->
<g id="node6" class="node">
<title>CollaborativeStorageModule</title>
<polygon fill="#8dd3c7" stroke="black" points="794.02,-149.8 791.02,-153.8 770.02,-153.8 767.02,-149.8 615.98,-149.8 615.98,-113.8 794.02,-113.8 794.02,-149.8"/>
<text text-anchor="middle" x="705" y="-127.6" font-family="Times,serif" font-size="14.00">CollaborativeStorageModule</text>
</g>
<!-- AuthorizationModule&#45;&gt;CollaborativeStorageModule -->
<g id="edge1" class="edge">
<title>AuthorizationModule&#45;&gt;CollaborativeStorageModule</title>
<path fill="none" stroke="black" d="M657.2,-84.91C657.2,-84.91 657.2,-103.79 657.2,-103.79"/>
<polygon fill="black" stroke="black" points="653.7,-103.79 657.2,-113.79 660.7,-103.79 653.7,-103.79"/>
</g>
<!-- CollaborativeStorageAdapterModule -->
<g id="node2" class="node">
<title>CollaborativeStorageAdapterModule</title>
<polygon fill="#8dd3c7" stroke="black" points="543.61,-84.8 540.61,-88.8 519.61,-88.8 516.61,-84.8 320.39,-84.8 320.39,-48.8 543.61,-48.8 543.61,-84.8"/>
<text text-anchor="middle" x="432" y="-62.6" font-family="Times,serif" font-size="14.00">CollaborativeStorageAdapterModule</text>
</g>
<!-- CollaborativeStorageAdapterModule&#45;&gt;CollaborativeStorageModule -->
<g id="edge2" class="edge">
<title>CollaborativeStorageAdapterModule&#45;&gt;CollaborativeStorageModule</title>
<path fill="none" stroke="black" d="M432,-84.81C432,-100.85 432,-121.8 432,-121.8 432,-121.8 605.61,-121.8 605.61,-121.8"/>
<polygon fill="black" stroke="black" points="605.61,-125.3 615.61,-121.8 605.61,-118.3 605.61,-125.3"/>
</g>
<!-- Logger -->
<g id="node3" class="node">
<title>Logger</title>
<polygon fill="#8dd3c7" stroke="black" points="302.43,-84.8 299.43,-88.8 278.43,-88.8 275.43,-84.8 245.57,-84.8 245.57,-48.8 302.43,-48.8 302.43,-84.8"/>
<text text-anchor="middle" x="274" y="-62.6" font-family="Times,serif" font-size="14.00">Logger</text>
</g>
<!-- Logger&#45;&gt;CollaborativeStorageModule -->
<g id="edge3" class="edge">
<title>Logger&#45;&gt;CollaborativeStorageModule</title>
<path fill="none" stroke="black" d="M274,-85.07C274,-103.36 274,-128.8 274,-128.8 274,-128.8 605.96,-128.8 605.96,-128.8"/>
<polygon fill="black" stroke="black" points="605.96,-132.3 615.96,-128.8 605.96,-125.3 605.96,-132.3"/>
</g>
<!-- LoggerModule -->
<g id="node4" class="node">
<title>LoggerModule</title>
<polygon fill="#8dd3c7" stroke="black" points="227.98,-84.8 224.98,-88.8 203.98,-88.8 200.98,-84.8 128.02,-84.8 128.02,-48.8 227.98,-48.8 227.98,-84.8"/>
<text text-anchor="middle" x="178" y="-62.6" font-family="Times,serif" font-size="14.00">LoggerModule</text>
</g>
<!-- LoggerModule&#45;&gt;CollaborativeStorageModule -->
<g id="edge4" class="edge">
<title>LoggerModule&#45;&gt;CollaborativeStorageModule</title>
<path fill="none" stroke="black" d="M178,-84.93C178,-105.37 178,-135.8 178,-135.8 178,-135.8 605.9,-135.8 605.9,-135.8"/>
<polygon fill="black" stroke="black" points="605.9,-139.3 615.9,-135.8 605.9,-132.3 605.9,-139.3"/>
</g>
<!-- RoleModule -->
<g id="node5" class="node">
<title>RoleModule</title>
<polygon fill="#8dd3c7" stroke="black" points="109.99,-84.8 106.99,-88.8 85.99,-88.8 82.99,-84.8 24.01,-84.8 24.01,-48.8 109.99,-48.8 109.99,-84.8"/>
<text text-anchor="middle" x="67" y="-62.6" font-family="Times,serif" font-size="14.00">RoleModule</text>
</g>
<!-- RoleModule&#45;&gt;CollaborativeStorageModule -->
<g id="edge5" class="edge">
<title>RoleModule&#45;&gt;CollaborativeStorageModule</title>
<path fill="none" stroke="black" d="M67,-84.81C67,-107.29 67,-142.8 67,-142.8 67,-142.8 605.95,-142.8 605.95,-142.8"/>
<polygon fill="black" stroke="black" points="605.95,-146.3 615.95,-142.8 605.95,-139.3 605.95,-146.3"/>
</g>
<!-- CollaborativeStorageUc  -->
<g id="node7" class="node">
<title>CollaborativeStorageUc </title>
<polygon fill="#fb8072" stroke="black" points="782.29,-214.8 627.71,-214.8 627.71,-178.8 782.29,-178.8 782.29,-214.8"/>
<text text-anchor="middle" x="705" y="-192.6" font-family="Times,serif" font-size="14.00">CollaborativeStorageUc </text>
</g>
<!-- CollaborativeStorageModule&#45;&gt;CollaborativeStorageUc  -->
<g id="edge6" class="edge">
<title>CollaborativeStorageModule&#45;&gt;CollaborativeStorageUc </title>
<path fill="none" stroke="black" stroke-dasharray="5,2" d="M705,-149.91C705,-149.91 705,-168.79 705,-168.79"/>
<polygon fill="black" stroke="black" points="701.5,-168.79 705,-178.79 708.5,-168.79 701.5,-168.79"/>
</g>
<!-- CollaborativeStorageService -->
<g id="node8" class="node">
<title>CollaborativeStorageService</title>
<ellipse fill="#fdb462" stroke="black" cx="1585" cy="-66.8" rx="122.11" ry="18"/>
<text text-anchor="middle" x="1585" y="-62.6" font-family="Times,serif" font-size="14.00">CollaborativeStorageService</text>
</g>
<!-- CollaborativeStorageService&#45;&gt;CollaborativeStorageModule -->
<g id="edge7" class="edge">
<title>CollaborativeStorageService&#45;&gt;CollaborativeStorageModule</title>
<path fill="none" stroke="black" d="M1585,-84.81C1585,-107.29 1585,-142.8 1585,-142.8 1585,-142.8 804.22,-142.8 804.22,-142.8"/>
<polygon fill="black" stroke="black" points="804.22,-139.3 794.22,-142.8 804.22,-146.3 804.22,-139.3"/>
</g>
<!-- CollaborativeStorageUc -->
<g id="node9" class="node">
<title>CollaborativeStorageUc</title>
<ellipse fill="#fdb462" stroke="black" cx="1341" cy="-66.8" rx="104.21" ry="18"/>
<text text-anchor="middle" x="1341" y="-62.6" font-family="Times,serif" font-size="14.00">CollaborativeStorageUc</text>
</g>
<!-- CollaborativeStorageUc&#45;&gt;CollaborativeStorageModule -->
<g id="edge8" class="edge">
<title>CollaborativeStorageUc&#45;&gt;CollaborativeStorageModule</title>
<path fill="none" stroke="black" d="M1341,-84.93C1341,-105.37 1341,-135.8 1341,-135.8 1341,-135.8 804.1,-135.8 804.1,-135.8"/>
<polygon fill="black" stroke="black" points="804.1,-132.3 794.1,-135.8 804.1,-139.3 804.1,-132.3"/>
</g>
<!-- TeamMapper -->
<g id="node10" class="node">
<title>TeamMapper</title>
<ellipse fill="#fdb462" stroke="black" cx="1156" cy="-66.8" rx="63.1" ry="18"/>
<text text-anchor="middle" x="1156" y="-62.6" font-family="Times,serif" font-size="14.00">TeamMapper</text>
</g>
<!-- TeamMapper&#45;&gt;CollaborativeStorageModule -->
<g id="edge9" class="edge">
<title>TeamMapper&#45;&gt;CollaborativeStorageModule</title>
<path fill="none" stroke="black" d="M1156,-85.07C1156,-103.36 1156,-128.8 1156,-128.8 1156,-128.8 804.1,-128.8 804.1,-128.8"/>
<polygon fill="black" stroke="black" points="804.1,-125.3 794.1,-128.8 804.1,-132.3 804.1,-125.3"/>
</g>
<!-- TeamPermissionsMapper -->
<g id="node11" class="node">
<title>TeamPermissionsMapper</title>
<ellipse fill="#fdb462" stroke="black" cx="965" cy="-66.8" rx="109.97" ry="18"/>
<text text-anchor="middle" x="965" y="-62.6" font-family="Times,serif" font-size="14.00">TeamPermissionsMapper</text>
</g>
<!-- TeamPermissionsMapper&#45;&gt;CollaborativeStorageModule -->
<g id="edge10" class="edge">
<title>TeamPermissionsMapper&#45;&gt;CollaborativeStorageModule</title>
<path fill="none" stroke="black" d="M965,-84.81C965,-100.85 965,-121.8 965,-121.8 965,-121.8 804.11,-121.8 804.11,-121.8"/>
<polygon fill="black" stroke="black" points="804.11,-118.3 794.11,-121.8 804.11,-125.3 804.11,-118.3"/>
</g>
<!-- TeamsRepo -->
<g id="node12" class="node">
<title>TeamsRepo</title>
<ellipse fill="#fdb462" stroke="black" cx="780" cy="-66.8" rx="57.32" ry="18"/>
<text text-anchor="middle" x="780" y="-62.6" font-family="Times,serif" font-size="14.00">TeamsRepo</text>
</g>
<!-- TeamsRepo&#45;&gt;CollaborativeStorageModule -->
<g id="edge11" class="edge">
<title>TeamsRepo&#45;&gt;CollaborativeStorageModule</title>
<path fill="none" stroke="black" d="M758.55,-83.54C758.55,-83.54 758.55,-103.52 758.55,-103.52"/>
<polygon fill="black" stroke="black" points="755.05,-103.52 758.55,-113.52 762.05,-103.52 755.05,-103.52"/>
</g>
</g>
</svg>
