<?xml version="1.0" encoding="UTF-8" standalone="no"?>
<!DOCTYPE svg PUBLIC "-//W3C//DTD SVG 1.1//EN"
 "http://www.w3.org/Graphics/SVG/1.1/DTD/svg11.dtd">
<!-- Generated by graphviz version 5.0.0 (20220707.1540)
 -->
<!-- Title: dependencies Pages: 1 -->
<svg width="1890pt" height="247pt"
 viewBox="0.00 0.00 1890.00 246.80" xmlns="http://www.w3.org/2000/svg" xmlns:xlink="http://www.w3.org/1999/xlink">
<g id="graph0" class="graph" transform="scale(1 1) rotate(0) translate(4 242.8)">
<title>dependencies</title>
<polygon fill="white" stroke="transparent" points="-4,4 -4,-242.8 1886,-242.8 1886,4 -4,4"/>
<text text-anchor="middle" x="941" y="-8.2" font-family="sans-serif" font-size="14.00">dependencies</text>
<g id="clust1" class="cluster">
<title>cluster_CollaborativeStorageModule</title>
<polygon fill="none" stroke="black" stroke-dasharray="1,5" points="8,-32.8 8,-230.8 1874,-230.8 1874,-32.8 8,-32.8"/>
</g>
<g id="clust4" class="cluster">
<title>cluster_CollaborativeStorageModule_exports</title>
<polygon fill="none" stroke="black" points="776,-170.8 776,-222.8 946,-222.8 946,-170.8 776,-170.8"/>
</g>
<g id="clust6" class="cluster">
<title>cluster_CollaborativeStorageModule_providers</title>
<polygon fill="none" stroke="black" points="611,-40.8 611,-92.8 1866,-92.8 1866,-40.8 611,-40.8"/>
</g>
<g id="clust3" class="cluster">
<title>cluster_CollaborativeStorageModule_imports</title>
<polygon fill="none" stroke="black" points="16,-40.8 16,-92.8 603,-92.8 603,-40.8 16,-40.8"/>
</g>
<!-- AuthorizationModule -->
<g id="node1" class="node">
<title>AuthorizationModule</title>
<polygon fill="#8dd3c7" stroke="black" points="594.81,-84.8 591.81,-88.8 570.81,-88.8 567.81,-84.8 457.19,-84.8 457.19,-48.8 594.81,-48.8 594.81,-84.8"/>
<text text-anchor="middle" x="526" y="-62.6" font-family="Times,serif" font-size="14.00">AuthorizationModule</text>
</g>
<!-- CollaborativeStorageModule -->
<g id="node5" class="node">
<title>CollaborativeStorageModule</title>
<polygon fill="#8dd3c7" stroke="black" points="950.02,-149.8 947.02,-153.8 926.02,-153.8 923.02,-149.8 771.98,-149.8 771.98,-113.8 950.02,-113.8 950.02,-149.8"/>
<text text-anchor="middle" x="861" y="-127.6" font-family="Times,serif" font-size="14.00">CollaborativeStorageModule</text>
</g>
<!-- AuthorizationModule&#45;&gt;CollaborativeStorageModule -->
<g id="edge1" class="edge">
<title>AuthorizationModule&#45;&gt;CollaborativeStorageModule</title>
<path fill="none" stroke="black" d="M526,-84.82C526,-102.17 526,-125.8 526,-125.8 526,-125.8 761.67,-125.8 761.67,-125.8"/>
<polygon fill="black" stroke="black" points="761.67,-129.3 771.67,-125.8 761.67,-122.3 761.67,-129.3"/>
</g>
<!-- CollaborativeStorageAdapterModule -->
<g id="node2" class="node">
<title>CollaborativeStorageAdapterModule</title>
<polygon fill="#8dd3c7" stroke="black" points="439.61,-84.8 436.61,-88.8 415.61,-88.8 412.61,-84.8 216.39,-84.8 216.39,-48.8 439.61,-48.8 439.61,-84.8"/>
<text text-anchor="middle" x="328" y="-62.6" font-family="Times,serif" font-size="14.00">CollaborativeStorageAdapterModule</text>
</g>
<!-- CollaborativeStorageAdapterModule&#45;&gt;CollaborativeStorageModule -->
<g id="edge2" class="edge">
<title>CollaborativeStorageAdapterModule&#45;&gt;CollaborativeStorageModule</title>
<path fill="none" stroke="black" d="M328,-84.91C328,-104.14 328,-131.8 328,-131.8 328,-131.8 761.79,-131.8 761.79,-131.8"/>
<polygon fill="black" stroke="black" points="761.79,-135.3 771.79,-131.8 761.79,-128.3 761.79,-135.3"/>
</g>
<!-- Logger -->
<g id="node3" class="node">
<title>Logger</title>
<polygon fill="#8dd3c7" stroke="black" points="198.43,-84.8 195.43,-88.8 174.43,-88.8 171.43,-84.8 141.57,-84.8 141.57,-48.8 198.43,-48.8 198.43,-84.8"/>
<text text-anchor="middle" x="170" y="-62.6" font-family="Times,serif" font-size="14.00">Logger</text>
</g>
<!-- Logger&#45;&gt;CollaborativeStorageModule -->
<g id="edge3" class="edge">
<title>Logger&#45;&gt;CollaborativeStorageModule</title>
<path fill="none" stroke="black" d="M170,-85.08C170,-106.12 170,-137.8 170,-137.8 170,-137.8 761.73,-137.8 761.73,-137.8"/>
<polygon fill="black" stroke="black" points="761.73,-141.3 771.73,-137.8 761.73,-134.3 761.73,-141.3"/>
</g>
<!-- LoggerModule -->
<g id="node4" class="node">
<title>LoggerModule</title>
<polygon fill="#8dd3c7" stroke="black" points="123.98,-84.8 120.98,-88.8 99.98,-88.8 96.98,-84.8 24.02,-84.8 24.02,-48.8 123.98,-48.8 123.98,-84.8"/>
<text text-anchor="middle" x="74" y="-62.6" font-family="Times,serif" font-size="14.00">LoggerModule</text>
</g>
<!-- LoggerModule&#45;&gt;CollaborativeStorageModule -->
<g id="edge4" class="edge">
<title>LoggerModule&#45;&gt;CollaborativeStorageModule</title>
<path fill="none" stroke="black" d="M74,-85.05C74,-107.82 74,-143.8 74,-143.8 74,-143.8 761.87,-143.8 761.87,-143.8"/>
<polygon fill="black" stroke="black" points="761.87,-147.3 771.87,-143.8 761.87,-140.3 761.87,-147.3"/>
</g>
<!-- CollaborativeStorageUc  -->
<g id="node6" class="node">
<title>CollaborativeStorageUc </title>
<polygon fill="#fb8072" stroke="black" points="938.29,-214.8 783.71,-214.8 783.71,-178.8 938.29,-178.8 938.29,-214.8"/>
<text text-anchor="middle" x="861" y="-192.6" font-family="Times,serif" font-size="14.00">CollaborativeStorageUc </text>
</g>
<!-- CollaborativeStorageModule&#45;&gt;CollaborativeStorageUc  -->
<g id="edge5" class="edge">
<title>CollaborativeStorageModule&#45;&gt;CollaborativeStorageUc </title>
<path fill="none" stroke="black" stroke-dasharray="5,2" d="M861,-149.91C861,-149.91 861,-168.79 861,-168.79"/>
<polygon fill="black" stroke="black" points="857.5,-168.79 861,-178.79 864.5,-168.79 857.5,-168.79"/>
</g>
<!-- CollaborativeStorageService -->
<g id="node7" class="node">
<title>CollaborativeStorageService</title>
<ellipse fill="#fdb462" stroke="black" cx="1736" cy="-66.8" rx="122.11" ry="18"/>
<text text-anchor="middle" x="1736" y="-62.6" font-family="Times,serif" font-size="14.00">CollaborativeStorageService</text>
</g>
<!-- CollaborativeStorageService&#45;&gt;CollaborativeStorageModule -->
<g id="edge6" class="edge">
<title>CollaborativeStorageService&#45;&gt;CollaborativeStorageModule</title>
<path fill="none" stroke="black" d="M1736,-85.05C1736,-107.82 1736,-143.8 1736,-143.8 1736,-143.8 960.12,-143.8 960.12,-143.8"/>
<polygon fill="black" stroke="black" points="960.12,-140.3 950.12,-143.8 960.12,-147.3 960.12,-140.3"/>
</g>
<!-- CollaborativeStorageUc -->
<g id="node8" class="node">
<title>CollaborativeStorageUc</title>
<ellipse fill="#fdb462" stroke="black" cx="1492" cy="-66.8" rx="104.21" ry="18"/>
<text text-anchor="middle" x="1492" y="-62.6" font-family="Times,serif" font-size="14.00">CollaborativeStorageUc</text>
</g>
<!-- CollaborativeStorageUc&#45;&gt;CollaborativeStorageModule -->
<g id="edge7" class="edge">
<title>CollaborativeStorageUc&#45;&gt;CollaborativeStorageModule</title>
<path fill="none" stroke="black" d="M1492,-85.08C1492,-106.12 1492,-137.8 1492,-137.8 1492,-137.8 960.07,-137.8 960.07,-137.8"/>
<polygon fill="black" stroke="black" points="960.07,-134.3 950.07,-137.8 960.07,-141.3 960.07,-134.3"/>
</g>
<!-- RoleMapper -->
<g id="node9" class="node">
<title>RoleMapper</title>
<ellipse fill="#fdb462" stroke="black" cx="1310" cy="-66.8" rx="59.11" ry="18"/>
<text text-anchor="middle" x="1310" y="-62.6" font-family="Times,serif" font-size="14.00">RoleMapper</text>
</g>
<!-- RoleMapper&#45;&gt;CollaborativeStorageModule -->
<g id="edge8" class="edge">
<title>RoleMapper&#45;&gt;CollaborativeStorageModule</title>
<path fill="none" stroke="black" d="M1310,-84.91C1310,-104.14 1310,-131.8 1310,-131.8 1310,-131.8 960.24,-131.8 960.24,-131.8"/>
<polygon fill="black" stroke="black" points="960.24,-128.3 950.24,-131.8 960.24,-135.3 960.24,-128.3"/>
</g>
<!-- RoleRepo -->
<g id="node10" class="node">
<title>RoleRepo</title>
<ellipse fill="#fdb462" stroke="black" cx="1183" cy="-66.8" rx="49.82" ry="18"/>
<text text-anchor="middle" x="1183" y="-62.6" font-family="Times,serif" font-size="14.00">RoleRepo</text>
</g>
<!-- RoleRepo&#45;&gt;CollaborativeStorageModule -->
<g id="edge9" class="edge">
<title>RoleRepo&#45;&gt;CollaborativeStorageModule</title>
<path fill="none" stroke="black" d="M1183,-84.82C1183,-102.17 1183,-125.8 1183,-125.8 1183,-125.8 960.27,-125.8 960.27,-125.8"/>
<polygon fill="black" stroke="black" points="960.27,-122.3 950.27,-125.8 960.27,-129.3 960.27,-122.3"/>
</g>
<!-- TeamMapper -->
<g id="node11" class="node">
<title>TeamMapper</title>
<ellipse fill="#fdb462" stroke="black" cx="1052" cy="-66.8" rx="63.1" ry="18"/>
<text text-anchor="middle" x="1052" y="-62.6" font-family="Times,serif" font-size="14.00">TeamMapper</text>
</g>
<!-- TeamMapper&#45;&gt;CollaborativeStorageModule -->
<g id="edge10" class="edge">
<title>TeamMapper&#45;&gt;CollaborativeStorageModule</title>
<path fill="none" stroke="black" d="M1052,-85.04C1052,-100.37 1052,-119.8 1052,-119.8 1052,-119.8 960.07,-119.8 960.07,-119.8"/>
<polygon fill="black" stroke="black" points="960.07,-116.3 950.07,-119.8 960.07,-123.3 960.07,-116.3"/>
</g>
<!-- TeamPermissionsMapper -->
<g id="node12" class="node">
<title>TeamPermissionsMapper</title>
<ellipse fill="#fdb462" stroke="black" cx="861" cy="-66.8" rx="109.97" ry="18"/>
<text text-anchor="middle" x="861" y="-62.6" font-family="Times,serif" font-size="14.00">TeamPermissionsMapper</text>
</g>
<!-- TeamPermissionsMapper&#45;&gt;CollaborativeStorageModule -->
<g id="edge11" class="edge">
<title>TeamPermissionsMapper&#45;&gt;CollaborativeStorageModule</title>
<path fill="none" stroke="black" d="M861,-84.91C861,-84.91 861,-103.79 861,-103.79"/>
<polygon fill="black" stroke="black" points="857.5,-103.79 861,-113.79 864.5,-103.79 857.5,-103.79"/>
</g>
<!-- TeamsRepo -->
<g id="node13" class="node">
<title>TeamsRepo</title>
<ellipse fill="#fdb462" stroke="black" cx="676" cy="-66.8" rx="57.32" ry="18"/>
<text text-anchor="middle" x="676" y="-62.6" font-family="Times,serif" font-size="14.00">TeamsRepo</text>
</g>
<!-- TeamsRepo&#45;&gt;CollaborativeStorageModule -->
<g id="edge12" class="edge">
<title>TeamsRepo&#45;&gt;CollaborativeStorageModule</title>
<path fill="none" stroke="black" d="M676,-85.04C676,-100.37 676,-119.8 676,-119.8 676,-119.8 761.75,-119.8 761.75,-119.8"/>
<polygon fill="black" stroke="black" points="761.75,-123.3 771.75,-119.8 761.75,-116.3 761.75,-123.3"/>
</g>
</g>
</svg>
