<?xml version="1.0" encoding="UTF-8" standalone="no"?>
<!DOCTYPE svg PUBLIC "-//W3C//DTD SVG 1.1//EN"
 "http://www.w3.org/Graphics/SVG/1.1/DTD/svg11.dtd">
<!-- Generated by graphviz version 5.0.0 (20220707.1540)
 -->
<!-- Title: dependencies Pages: 1 -->
<svg width="1389pt" height="174pt"
 viewBox="0.00 0.00 1389.00 173.80" xmlns="http://www.w3.org/2000/svg" xmlns:xlink="http://www.w3.org/1999/xlink">
<g id="graph0" class="graph" transform="scale(1 1) rotate(0) translate(4 169.8)">
<title>dependencies</title>
<polygon fill="white" stroke="transparent" points="-4,4 -4,-169.8 1385,-169.8 1385,4 -4,4"/>
<text text-anchor="middle" x="690.5" y="-8.2" font-family="sans-serif" font-size="14.00">dependencies</text>
<g id="clust1" class="cluster">
<title>cluster_TaskCardModule</title>
<polygon fill="none" stroke="black" stroke-dasharray="1,5" points="8,-32.8 8,-157.8 1373,-157.8 1373,-32.8 8,-32.8"/>
</g>
<g id="clust3" class="cluster">
<title>cluster_TaskCardModule_imports</title>
<polygon fill="none" stroke="black" points="1107,-40.8 1107,-92.8 1365,-92.8 1365,-40.8 1107,-40.8"/>
</g>
<g id="clust6" class="cluster">
<title>cluster_TaskCardModule_providers</title>
<polygon fill="none" stroke="black" points="16,-40.8 16,-92.8 1099,-92.8 1099,-40.8 16,-40.8"/>
</g>
<!-- AuthorizationModule -->
<g id="node1" class="node">
<title>AuthorizationModule</title>
<polygon fill="#8dd3c7" stroke="black" points="1356.81,-84.8 1353.81,-88.8 1332.81,-88.8 1329.81,-84.8 1219.19,-84.8 1219.19,-48.8 1356.81,-48.8 1356.81,-84.8"/>
<text text-anchor="middle" x="1288" y="-62.6" font-family="Times,serif" font-size="14.00">AuthorizationModule</text>
</g>
<!-- TaskCardModule -->
<g id="node3" class="node">
<title>TaskCardModule</title>
<polygon fill="#8dd3c7" stroke="black" points="808.98,-149.8 805.98,-153.8 784.98,-153.8 781.98,-149.8 695.02,-149.8 695.02,-113.8 808.98,-113.8 808.98,-149.8"/>
<text text-anchor="middle" x="752" y="-127.6" font-family="Times,serif" font-size="14.00">TaskCardModule</text>
</g>
<!-- AuthorizationModule&#45;&gt;TaskCardModule -->
<g id="edge1" class="edge">
<title>AuthorizationModule&#45;&gt;TaskCardModule</title>
<path fill="none" stroke="black" d="M1288,-85.09C1288,-107.01 1288,-140.8 1288,-140.8 1288,-140.8 819.11,-140.8 819.11,-140.8"/>
<polygon fill="black" stroke="black" points="819.11,-137.3 809.11,-140.8 819.11,-144.3 819.11,-137.3"/>
</g>
<!-- TaskModule -->
<g id="node2" class="node">
<title>TaskModule</title>
<polygon fill="#8dd3c7" stroke="black" points="1201.27,-84.8 1198.27,-88.8 1177.27,-88.8 1174.27,-84.8 1114.73,-84.8 1114.73,-48.8 1201.27,-48.8 1201.27,-84.8"/>
<text text-anchor="middle" x="1158" y="-62.6" font-family="Times,serif" font-size="14.00">TaskModule</text>
</g>
<!-- TaskModule&#45;&gt;TaskCardModule -->
<g id="edge2" class="edge">
<title>TaskModule&#45;&gt;TaskCardModule</title>
<path fill="none" stroke="black" d="M1158,-84.91C1158,-104.14 1158,-131.8 1158,-131.8 1158,-131.8 819.31,-131.8 819.31,-131.8"/>
<polygon fill="black" stroke="black" points="819.31,-128.3 809.31,-131.8 819.31,-135.3 819.31,-128.3"/>
</g>
<!-- CardElementRepo -->
<g id="node4" class="node">
<title>CardElementRepo</title>
<ellipse fill="#fdb462" stroke="black" cx="1009" cy="-66.8" rx="82.24" ry="18"/>
<text text-anchor="middle" x="1009" y="-62.6" font-family="Times,serif" font-size="14.00">CardElementRepo</text>
</g>
<!-- CardElementRepo&#45;&gt;TaskCardModule -->
<g id="edge3" class="edge">
<title>CardElementRepo&#45;&gt;TaskCardModule</title>
<path fill="none" stroke="black" d="M1009,-84.83C1009,-101.2 1009,-122.8 1009,-122.8 1009,-122.8 819.04,-122.8 819.04,-122.8"/>
<polygon fill="black" stroke="black" points="819.04,-119.3 809.04,-122.8 819.04,-126.3 819.04,-119.3"/>
</g>
<!-- CourseRepo -->
<g id="node5" class="node">
<title>CourseRepo</title>
<ellipse fill="#fdb462" stroke="black" cx="850" cy="-66.8" rx="58.56" ry="18"/>
<text text-anchor="middle" x="850" y="-62.6" font-family="Times,serif" font-size="14.00">CourseRepo</text>
</g>
<!-- CourseRepo&#45;&gt;TaskCardModule -->
<g id="edge4" class="edge">
<title>CourseRepo&#45;&gt;TaskCardModule</title>
<path fill="none" stroke="black" d="M800.11,-76.39C800.11,-76.39 800.11,-103.55 800.11,-103.55"/>
<polygon fill="black" stroke="black" points="796.61,-103.55 800.11,-113.55 803.61,-103.55 796.61,-103.55"/>
</g>
<!-- RichTextCardElementRepo -->
<g id="node6" class="node">
<title>RichTextCardElementRepo</title>
<ellipse fill="#fdb462" stroke="black" cx="655" cy="-66.8" rx="118.11" ry="18"/>
<text text-anchor="middle" x="655" y="-62.6" font-family="Times,serif" font-size="14.00">RichTextCardElementRepo</text>
</g>
<!-- RichTextCardElementRepo&#45;&gt;TaskCardModule -->
<g id="edge5" class="edge">
<title>RichTextCardElementRepo&#45;&gt;TaskCardModule</title>
<path fill="none" stroke="black" d="M734.16,-80.27C734.16,-80.27 734.16,-103.66 734.16,-103.66"/>
<polygon fill="black" stroke="black" points="730.66,-103.66 734.16,-113.66 737.66,-103.66 730.66,-103.66"/>
</g>
<!-- TaskCardRepo -->
<g id="node7" class="node">
<title>TaskCardRepo</title>
<ellipse fill="#fdb462" stroke="black" cx="450" cy="-66.8" rx="68.93" ry="18"/>
<text text-anchor="middle" x="450" y="-62.6" font-family="Times,serif" font-size="14.00">TaskCardRepo</text>
</g>
<!-- TaskCardRepo&#45;&gt;TaskCardModule -->
<g id="edge6" class="edge">
<title>TaskCardRepo&#45;&gt;TaskCardModule</title>
<path fill="none" stroke="black" d="M450,-84.83C450,-101.2 450,-122.8 450,-122.8 450,-122.8 684.84,-122.8 684.84,-122.8"/>
<polygon fill="black" stroke="black" points="684.84,-126.3 694.84,-122.8 684.84,-119.3 684.84,-126.3"/>
</g>
<!-- TaskCardUc -->
<g id="node8" class="node">
<title>TaskCardUc</title>
<ellipse fill="#fdb462" stroke="black" cx="303" cy="-66.8" rx="59.68" ry="18"/>
<text text-anchor="middle" x="303" y="-62.6" font-family="Times,serif" font-size="14.00">TaskCardUc</text>
</g>
<!-- TaskCardUc&#45;&gt;TaskCardModule -->
<g id="edge7" class="edge">
<title>TaskCardUc&#45;&gt;TaskCardModule</title>
<path fill="none" stroke="black" d="M303,-84.91C303,-104.14 303,-131.8 303,-131.8 303,-131.8 684.68,-131.8 684.68,-131.8"/>
<polygon fill="black" stroke="black" points="684.68,-135.3 694.68,-131.8 684.68,-128.3 684.68,-135.3"/>
</g>
<!-- TitleCardElementRepo -->
<g id="node9" class="node">
<title>TitleCardElementRepo</title>
<ellipse fill="#fdb462" stroke="black" cx="125" cy="-66.8" rx="100.71" ry="18"/>
<text text-anchor="middle" x="125" y="-62.6" font-family="Times,serif" font-size="14.00">TitleCardElementRepo</text>
</g>
<!-- TitleCardElementRepo&#45;&gt;TaskCardModule -->
<g id="edge8" class="edge">
<title>TitleCardElementRepo&#45;&gt;TaskCardModule</title>
<path fill="none" stroke="black" d="M125,-85.09C125,-107.01 125,-140.8 125,-140.8 125,-140.8 684.97,-140.8 684.97,-140.8"/>
<polygon fill="black" stroke="black" points="684.97,-144.3 694.97,-140.8 684.97,-137.3 684.97,-144.3"/>
</g>
</g>
</svg>
