<?xml version="1.0" encoding="UTF-8" standalone="no"?>
<!DOCTYPE svg PUBLIC "-//W3C//DTD SVG 1.1//EN"
 "http://www.w3.org/Graphics/SVG/1.1/DTD/svg11.dtd">
<!-- Generated by graphviz version 5.0.0 (20220707.1540)
 -->
<!-- Title: dependencies Pages: 1 -->
<svg width="1254pt" height="174pt"
 viewBox="0.00 0.00 1254.00 173.80" xmlns="http://www.w3.org/2000/svg" xmlns:xlink="http://www.w3.org/1999/xlink">
<g id="graph0" class="graph" transform="scale(1 1) rotate(0) translate(4 169.8)">
<title>dependencies</title>
<polygon fill="white" stroke="transparent" points="-4,4 -4,-169.8 1250,-169.8 1250,4 -4,4"/>
<text text-anchor="middle" x="623" y="-8.2" font-family="sans-serif" font-size="14.00">dependencies</text>
<g id="clust1" class="cluster">
<title>cluster_TaskCardModule</title>
<polygon fill="none" stroke="black" stroke-dasharray="1,5" points="8,-32.8 8,-157.8 1238,-157.8 1238,-32.8 8,-32.8"/>
</g>
<g id="clust3" class="cluster">
<title>cluster_TaskCardModule_imports</title>
<polygon fill="none" stroke="black" points="972,-40.8 972,-92.8 1230,-92.8 1230,-40.8 972,-40.8"/>
</g>
<g id="clust6" class="cluster">
<title>cluster_TaskCardModule_providers</title>
<polygon fill="none" stroke="black" points="16,-40.8 16,-92.8 964,-92.8 964,-40.8 16,-40.8"/>
</g>
<!-- AuthorizationModule -->
<g id="node1" class="node">
<title>AuthorizationModule</title>
<polygon fill="#8dd3c7" stroke="black" points="1221.81,-84.8 1218.81,-88.8 1197.81,-88.8 1194.81,-84.8 1084.19,-84.8 1084.19,-48.8 1221.81,-48.8 1221.81,-84.8"/>
<text text-anchor="middle" x="1153" y="-62.6" font-family="Times,serif" font-size="14.00">AuthorizationModule</text>
</g>
<!-- TaskCardModule -->
<g id="node3" class="node">
<title>TaskCardModule</title>
<polygon fill="#8dd3c7" stroke="black" points="711.98,-149.8 708.98,-153.8 687.98,-153.8 684.98,-149.8 598.02,-149.8 598.02,-113.8 711.98,-113.8 711.98,-149.8"/>
<text text-anchor="middle" x="655" y="-127.6" font-family="Times,serif" font-size="14.00">TaskCardModule</text>
</g>
<!-- AuthorizationModule&#45;&gt;TaskCardModule -->
<g id="edge1" class="edge">
<title>AuthorizationModule&#45;&gt;TaskCardModule</title>
<path fill="none" stroke="black" d="M1153,-85.09C1153,-107.01 1153,-140.8 1153,-140.8 1153,-140.8 722.13,-140.8 722.13,-140.8"/>
<polygon fill="black" stroke="black" points="722.13,-137.3 712.13,-140.8 722.13,-144.3 722.13,-137.3"/>
</g>
<!-- TaskModule -->
<g id="node2" class="node">
<title>TaskModule</title>
<polygon fill="#8dd3c7" stroke="black" points="1066.27,-84.8 1063.27,-88.8 1042.27,-88.8 1039.27,-84.8 979.73,-84.8 979.73,-48.8 1066.27,-48.8 1066.27,-84.8"/>
<text text-anchor="middle" x="1023" y="-62.6" font-family="Times,serif" font-size="14.00">TaskModule</text>
</g>
<!-- TaskModule&#45;&gt;TaskCardModule -->
<g id="edge2" class="edge">
<title>TaskModule&#45;&gt;TaskCardModule</title>
<path fill="none" stroke="black" d="M1023,-84.91C1023,-104.14 1023,-131.8 1023,-131.8 1023,-131.8 722.1,-131.8 722.1,-131.8"/>
<polygon fill="black" stroke="black" points="722.1,-128.3 712.1,-131.8 722.1,-135.3 722.1,-128.3"/>
</g>
<!-- CardElementRepo -->
<g id="node4" class="node">
<title>CardElementRepo</title>
<ellipse fill="#fdb462" stroke="black" cx="874" cy="-66.8" rx="82.24" ry="18"/>
<text text-anchor="middle" x="874" y="-62.6" font-family="Times,serif" font-size="14.00">CardElementRepo</text>
</g>
<!-- CardElementRepo&#45;&gt;TaskCardModule -->
<g id="edge3" class="edge">
<title>CardElementRepo&#45;&gt;TaskCardModule</title>
<path fill="none" stroke="black" d="M874,-84.83C874,-101.2 874,-122.8 874,-122.8 874,-122.8 722.25,-122.8 722.25,-122.8"/>
<polygon fill="black" stroke="black" points="722.25,-119.3 712.25,-122.8 722.25,-126.3 722.25,-119.3"/>
</g>
<!-- RichTextCardElementRepo -->
<g id="node5" class="node">
<title>RichTextCardElementRepo</title>
<ellipse fill="#fdb462" stroke="black" cx="655" cy="-66.8" rx="118.11" ry="18"/>
<text text-anchor="middle" x="655" y="-62.6" font-family="Times,serif" font-size="14.00">RichTextCardElementRepo</text>
</g>
<!-- RichTextCardElementRepo&#45;&gt;TaskCardModule -->
<g id="edge4" class="edge">
<title>RichTextCardElementRepo&#45;&gt;TaskCardModule</title>
<path fill="none" stroke="black" d="M655,-84.91C655,-84.91 655,-103.79 655,-103.79"/>
<polygon fill="black" stroke="black" points="651.5,-103.79 655,-113.79 658.5,-103.79 651.5,-103.79"/>
</g>
<!-- TaskCardRepo -->
<g id="node6" class="node">
<title>TaskCardRepo</title>
<ellipse fill="#fdb462" stroke="black" cx="450" cy="-66.8" rx="68.93" ry="18"/>
<text text-anchor="middle" x="450" y="-62.6" font-family="Times,serif" font-size="14.00">TaskCardRepo</text>
</g>
<!-- TaskCardRepo&#45;&gt;TaskCardModule -->
<g id="edge5" class="edge">
<title>TaskCardRepo&#45;&gt;TaskCardModule</title>
<path fill="none" stroke="black" d="M450,-84.83C450,-101.2 450,-122.8 450,-122.8 450,-122.8 587.9,-122.8 587.9,-122.8"/>
<polygon fill="black" stroke="black" points="587.9,-126.3 597.9,-122.8 587.9,-119.3 587.9,-126.3"/>
</g>
<!-- TaskCardUc -->
<g id="node7" class="node">
<title>TaskCardUc</title>
<ellipse fill="#fdb462" stroke="black" cx="303" cy="-66.8" rx="59.68" ry="18"/>
<text text-anchor="middle" x="303" y="-62.6" font-family="Times,serif" font-size="14.00">TaskCardUc</text>
</g>
<!-- TaskCardUc&#45;&gt;TaskCardModule -->
<g id="edge6" class="edge">
<title>TaskCardUc&#45;&gt;TaskCardModule</title>
<path fill="none" stroke="black" d="M303,-84.91C303,-104.14 303,-131.8 303,-131.8 303,-131.8 587.66,-131.8 587.66,-131.8"/>
<polygon fill="black" stroke="black" points="587.66,-135.3 597.66,-131.8 587.66,-128.3 587.66,-135.3"/>
</g>
<!-- TitleCardElementRepo -->
<g id="node8" class="node">
<title>TitleCardElementRepo</title>
<ellipse fill="#fdb462" stroke="black" cx="125" cy="-66.8" rx="100.71" ry="18"/>
<text text-anchor="middle" x="125" y="-62.6" font-family="Times,serif" font-size="14.00">TitleCardElementRepo</text>
</g>
<!-- TitleCardElementRepo&#45;&gt;TaskCardModule -->
<g id="edge7" class="edge">
<title>TitleCardElementRepo&#45;&gt;TaskCardModule</title>
<path fill="none" stroke="black" d="M125,-85.09C125,-107.01 125,-140.8 125,-140.8 125,-140.8 587.78,-140.8 587.78,-140.8"/>
<polygon fill="black" stroke="black" points="587.78,-144.3 597.78,-140.8 587.78,-137.3 587.78,-144.3"/>
</g>
</g>
</svg>
