<?xml version="1.0" encoding="UTF-8" standalone="no"?>
<!DOCTYPE svg PUBLIC "-//W3C//DTD SVG 1.1//EN"
 "http://www.w3.org/Graphics/SVG/1.1/DTD/svg11.dtd">
<!-- Generated by graphviz version 5.0.0 (20220707.1540)
 -->
<!-- Title: dependencies Pages: 1 -->
<svg width="1254pt" height="174pt"
 viewBox="0.00 0.00 1254.00 173.80" xmlns="http://www.w3.org/2000/svg" xmlns:xlink="http://www.w3.org/1999/xlink">
<g id="graph0" class="graph" transform="scale(1 1) rotate(0) translate(4 169.8)">
<title>dependencies</title>
<polygon fill="white" stroke="transparent" points="-4,4 -4,-169.8 1250,-169.8 1250,4 -4,4"/>
<text text-anchor="middle" x="623" y="-8.2" font-family="sans-serif" font-size="14.00">dependencies</text>
<g id="clust1" class="cluster">
<title>cluster_TaskCardModule</title>
<polygon fill="none" stroke="black" stroke-dasharray="1,5" points="8,-32.8 8,-157.8 1238,-157.8 1238,-32.8 8,-32.8"/>
</g>
<g id="clust6" class="cluster">
<title>cluster_TaskCardModule_providers</title>
<polygon fill="none" stroke="black" points="282,-40.8 282,-92.8 1230,-92.8 1230,-40.8 282,-40.8"/>
</g>
<g id="clust3" class="cluster">
<title>cluster_TaskCardModule_imports</title>
<polygon fill="none" stroke="black" points="16,-40.8 16,-92.8 274,-92.8 274,-40.8 16,-40.8"/>
</g>
<!-- AuthorizationModule -->
<g id="node1" class="node">
<title>AuthorizationModule</title>
<polygon fill="#8dd3c7" stroke="black" points="265.81,-84.8 262.81,-88.8 241.81,-88.8 238.81,-84.8 128.19,-84.8 128.19,-48.8 265.81,-48.8 265.81,-84.8"/>
<text text-anchor="middle" x="197" y="-62.6" font-family="Times,serif" font-size="14.00">AuthorizationModule</text>
</g>
<!-- TaskCardModule -->
<g id="node3" class="node">
<title>TaskCardModule</title>
<polygon fill="#8dd3c7" stroke="black" points="625.98,-149.8 622.98,-153.8 601.98,-153.8 598.98,-149.8 512.02,-149.8 512.02,-113.8 625.98,-113.8 625.98,-149.8"/>
<text text-anchor="middle" x="569" y="-127.6" font-family="Times,serif" font-size="14.00">TaskCardModule</text>
</g>
<!-- AuthorizationModule&#45;&gt;TaskCardModule -->
<g id="edge1" class="edge">
<title>AuthorizationModule&#45;&gt;TaskCardModule</title>
<path fill="none" stroke="black" d="M197,-84.91C197,-104.14 197,-131.8 197,-131.8 197,-131.8 501.69,-131.8 501.69,-131.8"/>
<polygon fill="black" stroke="black" points="501.69,-135.3 511.69,-131.8 501.69,-128.3 501.69,-135.3"/>
</g>
<!-- TaskModule -->
<g id="node2" class="node">
<title>TaskModule</title>
<polygon fill="#8dd3c7" stroke="black" points="110.27,-84.8 107.27,-88.8 86.27,-88.8 83.27,-84.8 23.73,-84.8 23.73,-48.8 110.27,-48.8 110.27,-84.8"/>
<text text-anchor="middle" x="67" y="-62.6" font-family="Times,serif" font-size="14.00">TaskModule</text>
</g>
<!-- TaskModule&#45;&gt;TaskCardModule -->
<g id="edge2" class="edge">
<title>TaskModule&#45;&gt;TaskCardModule</title>
<path fill="none" stroke="black" d="M67,-85.09C67,-107.01 67,-140.8 67,-140.8 67,-140.8 501.9,-140.8 501.9,-140.8"/>
<polygon fill="black" stroke="black" points="501.9,-144.3 511.9,-140.8 501.9,-137.3 501.9,-144.3"/>
</g>
<!-- CardElementRepo -->
<g id="node4" class="node">
<title>CardElementRepo</title>
<ellipse fill="#fdb462" stroke="black" cx="1140" cy="-66.8" rx="82.24" ry="18"/>
<text text-anchor="middle" x="1140" y="-62.6" font-family="Times,serif" font-size="14.00">CardElementRepo</text>
</g>
<!-- CardElementRepo&#45;&gt;TaskCardModule -->
<g id="edge3" class="edge">
<title>CardElementRepo&#45;&gt;TaskCardModule</title>
<path fill="none" stroke="black" d="M1140,-85.09C1140,-107.01 1140,-140.8 1140,-140.8 1140,-140.8 636.1,-140.8 636.1,-140.8"/>
<polygon fill="black" stroke="black" points="636.1,-137.3 626.1,-140.8 636.1,-144.3 636.1,-137.3"/>
</g>
<!-- RichTextCardElementRepo -->
<g id="node5" class="node">
<title>RichTextCardElementRepo</title>
<ellipse fill="#fdb462" stroke="black" cx="921" cy="-66.8" rx="118.11" ry="18"/>
<text text-anchor="middle" x="921" y="-62.6" font-family="Times,serif" font-size="14.00">RichTextCardElementRepo</text>
</g>
<!-- RichTextCardElementRepo&#45;&gt;TaskCardModule -->
<g id="edge4" class="edge">
<title>RichTextCardElementRepo&#45;&gt;TaskCardModule</title>
<path fill="none" stroke="black" d="M921,-84.91C921,-104.14 921,-131.8 921,-131.8 921,-131.8 636.34,-131.8 636.34,-131.8"/>
<polygon fill="black" stroke="black" points="636.34,-128.3 626.34,-131.8 636.34,-135.3 636.34,-128.3"/>
</g>
<!-- TaskCardRepo -->
<g id="node6" class="node">
<title>TaskCardRepo</title>
<ellipse fill="#fdb462" stroke="black" cx="716" cy="-66.8" rx="68.93" ry="18"/>
<text text-anchor="middle" x="716" y="-62.6" font-family="Times,serif" font-size="14.00">TaskCardRepo</text>
</g>
<!-- TaskCardRepo&#45;&gt;TaskCardModule -->
<g id="edge5" class="edge">
<title>TaskCardRepo&#45;&gt;TaskCardModule</title>
<path fill="none" stroke="black" d="M716,-84.83C716,-101.2 716,-122.8 716,-122.8 716,-122.8 636.25,-122.8 636.25,-122.8"/>
<polygon fill="black" stroke="black" points="636.25,-119.3 626.25,-122.8 636.25,-126.3 636.25,-119.3"/>
</g>
<!-- TaskCardUc -->
<g id="node7" class="node">
<title>TaskCardUc</title>
<ellipse fill="#fdb462" stroke="black" cx="569" cy="-66.8" rx="59.68" ry="18"/>
<text text-anchor="middle" x="569" y="-62.6" font-family="Times,serif" font-size="14.00">TaskCardUc</text>
</g>
<!-- TaskCardUc&#45;&gt;TaskCardModule -->
<g id="edge6" class="edge">
<title>TaskCardUc&#45;&gt;TaskCardModule</title>
<path fill="none" stroke="black" d="M569,-84.91C569,-84.91 569,-103.79 569,-103.79"/>
<polygon fill="black" stroke="black" points="565.5,-103.79 569,-113.79 572.5,-103.79 565.5,-103.79"/>
</g>
<!-- TitleCardElementRepo -->
<g id="node8" class="node">
<title>TitleCardElementRepo</title>
<ellipse fill="#fdb462" stroke="black" cx="391" cy="-66.8" rx="100.71" ry="18"/>
<text text-anchor="middle" x="391" y="-62.6" font-family="Times,serif" font-size="14.00">TitleCardElementRepo</text>
</g>
<!-- TitleCardElementRepo&#45;&gt;TaskCardModule -->
<g id="edge7" class="edge">
<title>TitleCardElementRepo&#45;&gt;TaskCardModule</title>
<path fill="none" stroke="black" d="M391,-84.83C391,-101.2 391,-122.8 391,-122.8 391,-122.8 501.7,-122.8 501.7,-122.8"/>
<polygon fill="black" stroke="black" points="501.7,-126.3 511.7,-122.8 501.7,-119.3 501.7,-126.3"/>
</g>
</g>
</svg>
