<?xml version="1.0" encoding="UTF-8" standalone="no"?>
<!DOCTYPE svg PUBLIC "-//W3C//DTD SVG 1.1//EN"
 "http://www.w3.org/Graphics/SVG/1.1/DTD/svg11.dtd">
<!-- Generated by graphviz version 5.0.0 (20220707.1540)
 -->
<!-- Title: dependencies Pages: 1 -->
<svg width="806pt" height="174pt"
 viewBox="0.00 0.00 806.00 173.80" xmlns="http://www.w3.org/2000/svg" xmlns:xlink="http://www.w3.org/1999/xlink">
<g id="graph0" class="graph" transform="scale(1 1) rotate(0) translate(4 169.8)">
<title>dependencies</title>
<polygon fill="white" stroke="transparent" points="-4,4 -4,-169.8 802,-169.8 802,4 -4,4"/>
<text text-anchor="middle" x="399" y="-8.2" font-family="sans-serif" font-size="14.00">dependencies</text>
<g id="clust1" class="cluster">
<title>cluster_OauthProviderModule</title>
<polygon fill="none" stroke="black" stroke-dasharray="1,5" points="8,-32.8 8,-157.8 790,-157.8 790,-32.8 8,-32.8"/>
</g>
<g id="clust3" class="cluster">
<title>cluster_OauthProviderModule_imports</title>
<polygon fill="none" stroke="black" points="582,-40.8 582,-92.8 782,-92.8 782,-40.8 582,-40.8"/>
</g>
<g id="clust6" class="cluster">
<title>cluster_OauthProviderModule_providers</title>
<polygon fill="none" stroke="black" points="16,-40.8 16,-92.8 574,-92.8 574,-40.8 16,-40.8"/>
</g>
<!-- OauthProviderServiceModule -->
<g id="node1" class="node">
<title>OauthProviderServiceModule</title>
<polygon fill="#8dd3c7" stroke="black" points="773.96,-84.8 770.96,-88.8 749.96,-88.8 746.96,-84.8 590.04,-84.8 590.04,-48.8 773.96,-48.8 773.96,-84.8"/>
<text text-anchor="middle" x="682" y="-62.6" font-family="Times,serif" font-size="14.00">OauthProviderServiceModule</text>
</g>
<!-- OauthProviderModule -->
<g id="node2" class="node">
<title>OauthProviderModule</title>
<polygon fill="#8dd3c7" stroke="black" points="509.98,-149.8 506.98,-153.8 485.98,-153.8 482.98,-149.8 368.02,-149.8 368.02,-113.8 509.98,-113.8 509.98,-149.8"/>
<text text-anchor="middle" x="439" y="-127.6" font-family="Times,serif" font-size="14.00">OauthProviderModule</text>
</g>
<!-- OauthProviderServiceModule&#45;&gt;OauthProviderModule -->
<g id="edge1" class="edge">
<title>OauthProviderServiceModule&#45;&gt;OauthProviderModule</title>
<path fill="none" stroke="black" d="M682,-84.91C682,-104.14 682,-131.8 682,-131.8 682,-131.8 520.27,-131.8 520.27,-131.8"/>
<polygon fill="black" stroke="black" points="520.27,-128.3 510.27,-131.8 520.27,-135.3 520.27,-128.3"/>
</g>
<!-- OauthProviderLogoutFlowUc -->
<g id="node3" class="node">
<title>OauthProviderLogoutFlowUc</title>
<ellipse fill="#fdb462" stroke="black" cx="439" cy="-66.8" rx="126.81" ry="18"/>
<text text-anchor="middle" x="439" y="-62.6" font-family="Times,serif" font-size="14.00">OauthProviderLogoutFlowUc</text>
</g>
<!-- OauthProviderLogoutFlowUc&#45;&gt;OauthProviderModule -->
<g id="edge2" class="edge">
<title>OauthProviderLogoutFlowUc&#45;&gt;OauthProviderModule</title>
<path fill="none" stroke="black" d="M439,-84.91C439,-84.91 439,-103.79 439,-103.79"/>
<polygon fill="black" stroke="black" points="435.5,-103.79 439,-113.79 442.5,-103.79 435.5,-103.79"/>
</g>
<!-- OauthProviderResponseMapper -->
<g id="node4" class="node">
<title>OauthProviderResponseMapper</title>
<ellipse fill="#fdb462" stroke="black" cx="159" cy="-66.8" rx="134.88" ry="18"/>
<text text-anchor="middle" x="159" y="-62.6" font-family="Times,serif" font-size="14.00">OauthProviderResponseMapper</text>
</g>
<!-- OauthProviderResponseMapper&#45;&gt;OauthProviderModule -->
<g id="edge3" class="edge">
<title>OauthProviderResponseMapper&#45;&gt;OauthProviderModule</title>
<path fill="none" stroke="black" d="M159,-84.91C159,-104.14 159,-131.8 159,-131.8 159,-131.8 357.98,-131.8 357.98,-131.8"/>
<polygon fill="black" stroke="black" points="357.98,-135.3 367.98,-131.8 357.98,-128.3 357.98,-135.3"/>
</g>
</g>
</svg>
