<?xml version="1.0" encoding="UTF-8" standalone="no"?>
<!DOCTYPE svg PUBLIC "-//W3C//DTD SVG 1.1//EN"
 "http://www.w3.org/Graphics/SVG/1.1/DTD/svg11.dtd">
<!-- Generated by graphviz version 5.0.0 (20220707.1540)
 -->
<!-- Title: dependencies Pages: 1 -->
<svg width="1224pt" height="174pt"
 viewBox="0.00 0.00 1224.00 173.80" xmlns="http://www.w3.org/2000/svg" xmlns:xlink="http://www.w3.org/1999/xlink">
<g id="graph0" class="graph" transform="scale(1 1) rotate(0) translate(4 169.8)">
<title>dependencies</title>
<polygon fill="white" stroke="transparent" points="-4,4 -4,-169.8 1220,-169.8 1220,4 -4,4"/>
<text text-anchor="middle" x="608" y="-8.2" font-family="sans-serif" font-size="14.00">dependencies</text>
<g id="clust1" class="cluster">
<title>cluster_OauthProviderModule</title>
<polygon fill="none" stroke="black" stroke-dasharray="1,5" points="8,-32.8 8,-157.8 1208,-157.8 1208,-32.8 8,-32.8"/>
</g>
<g id="clust6" class="cluster">
<title>cluster_OauthProviderModule_providers</title>
<polygon fill="none" stroke="black" points="380,-40.8 380,-92.8 1200,-92.8 1200,-40.8 380,-40.8"/>
</g>
<g id="clust3" class="cluster">
<title>cluster_OauthProviderModule_imports</title>
<polygon fill="none" stroke="black" points="16,-40.8 16,-92.8 372,-92.8 372,-40.8 16,-40.8"/>
</g>
<!-- AuthorizationModule -->
<g id="node1" class="node">
<title>AuthorizationModule</title>
<polygon fill="#8dd3c7" stroke="black" points="363.81,-84.8 360.81,-88.8 339.81,-88.8 336.81,-84.8 226.19,-84.8 226.19,-48.8 363.81,-48.8 363.81,-84.8"/>
<text text-anchor="middle" x="295" y="-62.6" font-family="Times,serif" font-size="14.00">AuthorizationModule</text>
</g>
<!-- OauthProviderModule -->
<g id="node3" class="node">
<title>OauthProviderModule</title>
<polygon fill="#8dd3c7" stroke="black" points="593.98,-149.8 590.98,-153.8 569.98,-153.8 566.98,-149.8 452.02,-149.8 452.02,-113.8 593.98,-113.8 593.98,-149.8"/>
<text text-anchor="middle" x="523" y="-127.6" font-family="Times,serif" font-size="14.00">OauthProviderModule</text>
</g>
<!-- AuthorizationModule&#45;&gt;OauthProviderModule -->
<g id="edge1" class="edge">
<title>AuthorizationModule&#45;&gt;OauthProviderModule</title>
<path fill="none" stroke="black" d="M295,-84.82C295,-102.17 295,-125.8 295,-125.8 295,-125.8 441.8,-125.8 441.8,-125.8"/>
<polygon fill="black" stroke="black" points="441.8,-129.3 451.8,-125.8 441.8,-122.3 441.8,-129.3"/>
</g>
<!-- OauthProviderServiceModule -->
<g id="node2" class="node">
<title>OauthProviderServiceModule</title>
<polygon fill="#8dd3c7" stroke="black" points="207.96,-84.8 204.96,-88.8 183.96,-88.8 180.96,-84.8 24.04,-84.8 24.04,-48.8 207.96,-48.8 207.96,-84.8"/>
<text text-anchor="middle" x="116" y="-62.6" font-family="Times,serif" font-size="14.00">OauthProviderServiceModule</text>
</g>
<!-- OauthProviderServiceModule&#45;&gt;OauthProviderModule -->
<g id="edge2" class="edge">
<title>OauthProviderServiceModule&#45;&gt;OauthProviderModule</title>
<path fill="none" stroke="black" d="M116,-85.08C116,-106.12 116,-137.8 116,-137.8 116,-137.8 441.64,-137.8 441.64,-137.8"/>
<polygon fill="black" stroke="black" points="441.64,-141.3 451.64,-137.8 441.64,-134.3 441.64,-141.3"/>
</g>
<!-- OauthProviderClientCrudUc -->
<g id="node4" class="node">
<title>OauthProviderClientCrudUc</title>
<ellipse fill="#fdb462" stroke="black" cx="1070" cy="-66.8" rx="122.15" ry="18"/>
<text text-anchor="middle" x="1070" y="-62.6" font-family="Times,serif" font-size="14.00">OauthProviderClientCrudUc</text>
</g>
<!-- OauthProviderClientCrudUc&#45;&gt;OauthProviderModule -->
<g id="edge3" class="edge">
<title>OauthProviderClientCrudUc&#45;&gt;OauthProviderModule</title>
<path fill="none" stroke="black" d="M1070,-85.08C1070,-106.12 1070,-137.8 1070,-137.8 1070,-137.8 604.23,-137.8 604.23,-137.8"/>
<polygon fill="black" stroke="black" points="604.23,-134.3 594.23,-137.8 604.23,-141.3 604.23,-134.3"/>
</g>
<!-- OauthProviderLogoutFlowUc -->
<g id="node5" class="node">
<title>OauthProviderLogoutFlowUc</title>
<ellipse fill="#fdb462" stroke="black" cx="803" cy="-66.8" rx="126.81" ry="18"/>
<text text-anchor="middle" x="803" y="-62.6" font-family="Times,serif" font-size="14.00">OauthProviderLogoutFlowUc</text>
</g>
<!-- OauthProviderLogoutFlowUc&#45;&gt;OauthProviderModule -->
<g id="edge4" class="edge">
<title>OauthProviderLogoutFlowUc&#45;&gt;OauthProviderModule</title>
<path fill="none" stroke="black" d="M803,-84.82C803,-102.17 803,-125.8 803,-125.8 803,-125.8 604.02,-125.8 604.02,-125.8"/>
<polygon fill="black" stroke="black" points="604.02,-122.3 594.02,-125.8 604.02,-129.3 604.02,-122.3"/>
</g>
<!-- OauthProviderResponseMapper -->
<g id="node6" class="node">
<title>OauthProviderResponseMapper</title>
<ellipse fill="#fdb462" stroke="black" cx="523" cy="-66.8" rx="134.88" ry="18"/>
<text text-anchor="middle" x="523" y="-62.6" font-family="Times,serif" font-size="14.00">OauthProviderResponseMapper</text>
</g>
<!-- OauthProviderResponseMapper&#45;&gt;OauthProviderModule -->
<g id="edge5" class="edge">
<title>OauthProviderResponseMapper&#45;&gt;OauthProviderModule</title>
<path fill="none" stroke="black" d="M523,-84.91C523,-84.91 523,-103.79 523,-103.79"/>
<polygon fill="black" stroke="black" points="519.5,-103.79 523,-113.79 526.5,-103.79 519.5,-103.79"/>
</g>
</g>
</svg>
