<?xml version="1.0" encoding="UTF-8" standalone="no"?>
<!DOCTYPE svg PUBLIC "-//W3C//DTD SVG 1.1//EN"
 "http://www.w3.org/Graphics/SVG/1.1/DTD/svg11.dtd">
<!-- Generated by graphviz version 5.0.0 (20220707.1540)
 -->
<!-- Title: dependencies Pages: 1 -->
<svg width="1400pt" height="174pt"
 viewBox="0.00 0.00 1400.00 173.80" xmlns="http://www.w3.org/2000/svg" xmlns:xlink="http://www.w3.org/1999/xlink">
<g id="graph0" class="graph" transform="scale(1 1) rotate(0) translate(4 169.8)">
<title>dependencies</title>
<polygon fill="white" stroke="transparent" points="-4,4 -4,-169.8 1396,-169.8 1396,4 -4,4"/>
<text text-anchor="middle" x="696" y="-8.2" font-family="sans-serif" font-size="14.00">dependencies</text>
<g id="clust1" class="cluster">
<title>cluster_OauthProviderModule</title>
<polygon fill="none" stroke="black" stroke-dasharray="1,5" points="8,-32.8 8,-157.8 1384,-157.8 1384,-32.8 8,-32.8"/>
</g>
<g id="clust6" class="cluster">
<title>cluster_OauthProviderModule_providers</title>
<polygon fill="none" stroke="black" points="380,-40.8 380,-92.8 1376,-92.8 1376,-40.8 380,-40.8"/>
</g>
<g id="clust3" class="cluster">
<title>cluster_OauthProviderModule_imports</title>
<polygon fill="none" stroke="black" points="16,-40.8 16,-92.8 372,-92.8 372,-40.8 16,-40.8"/>
</g>
<!-- AuthorizationModule -->
<g id="node1" class="node">
<title>AuthorizationModule</title>
<polygon fill="#8dd3c7" stroke="black" points="363.81,-84.8 360.81,-88.8 339.81,-88.8 336.81,-84.8 226.19,-84.8 226.19,-48.8 363.81,-48.8 363.81,-84.8"/>
<text text-anchor="middle" x="295" y="-62.6" font-family="Times,serif" font-size="14.00">AuthorizationModule</text>
</g>
<!-- OauthProviderModule -->
<g id="node3" class="node">
<title>OauthProviderModule</title>
<polygon fill="#8dd3c7" stroke="black" points="653.98,-149.8 650.98,-153.8 629.98,-153.8 626.98,-149.8 512.02,-149.8 512.02,-113.8 653.98,-113.8 653.98,-149.8"/>
<text text-anchor="middle" x="583" y="-127.6" font-family="Times,serif" font-size="14.00">OauthProviderModule</text>
</g>
<!-- AuthorizationModule&#45;&gt;OauthProviderModule -->
<g id="edge1" class="edge">
<title>AuthorizationModule&#45;&gt;OauthProviderModule</title>
<path fill="none" stroke="black" d="M295,-84.82C295,-102.17 295,-125.8 295,-125.8 295,-125.8 501.81,-125.8 501.81,-125.8"/>
<polygon fill="black" stroke="black" points="501.81,-129.3 511.81,-125.8 501.81,-122.3 501.81,-129.3"/>
</g>
<!-- OauthProviderServiceModule -->
<g id="node2" class="node">
<title>OauthProviderServiceModule</title>
<polygon fill="#8dd3c7" stroke="black" points="207.96,-84.8 204.96,-88.8 183.96,-88.8 180.96,-84.8 24.04,-84.8 24.04,-48.8 207.96,-48.8 207.96,-84.8"/>
<text text-anchor="middle" x="116" y="-62.6" font-family="Times,serif" font-size="14.00">OauthProviderServiceModule</text>
</g>
<!-- OauthProviderServiceModule&#45;&gt;OauthProviderModule -->
<g id="edge2" class="edge">
<title>OauthProviderServiceModule&#45;&gt;OauthProviderModule</title>
<path fill="none" stroke="black" d="M116,-85.08C116,-106.12 116,-137.8 116,-137.8 116,-137.8 501.82,-137.8 501.82,-137.8"/>
<polygon fill="black" stroke="black" points="501.82,-141.3 511.82,-137.8 501.82,-134.3 501.82,-141.3"/>
</g>
<!-- OauthProviderClientCrudUc -->
<g id="node4" class="node">
<title>OauthProviderClientCrudUc</title>
<ellipse fill="#fdb462" stroke="black" cx="1246" cy="-66.8" rx="122.15" ry="18"/>
<text text-anchor="middle" x="1246" y="-62.6" font-family="Times,serif" font-size="14.00">OauthProviderClientCrudUc</text>
</g>
<!-- OauthProviderClientCrudUc&#45;&gt;OauthProviderModule -->
<g id="edge3" class="edge">
<title>OauthProviderClientCrudUc&#45;&gt;OauthProviderModule</title>
<path fill="none" stroke="black" d="M1246,-85.08C1246,-106.12 1246,-137.8 1246,-137.8 1246,-137.8 664.27,-137.8 664.27,-137.8"/>
<polygon fill="black" stroke="black" points="664.27,-134.3 654.27,-137.8 664.27,-141.3 664.27,-134.3"/>
</g>
<!-- OauthProviderLogoutFlowUc -->
<g id="node5" class="node">
<title>OauthProviderLogoutFlowUc</title>
<ellipse fill="#fdb462" stroke="black" cx="979" cy="-66.8" rx="126.81" ry="18"/>
<text text-anchor="middle" x="979" y="-62.6" font-family="Times,serif" font-size="14.00">OauthProviderLogoutFlowUc</text>
</g>
<!-- OauthProviderLogoutFlowUc&#45;&gt;OauthProviderModule -->
<g id="edge4" class="edge">
<title>OauthProviderLogoutFlowUc&#45;&gt;OauthProviderModule</title>
<path fill="none" stroke="black" d="M979,-84.82C979,-102.17 979,-125.8 979,-125.8 979,-125.8 664.25,-125.8 664.25,-125.8"/>
<polygon fill="black" stroke="black" points="664.25,-122.3 654.25,-125.8 664.25,-129.3 664.25,-122.3"/>
</g>
<!-- OauthProviderResponseMapper -->
<g id="node6" class="node">
<title>OauthProviderResponseMapper</title>
<ellipse fill="#fdb462" stroke="black" cx="699" cy="-66.8" rx="134.88" ry="18"/>
<text text-anchor="middle" x="699" y="-62.6" font-family="Times,serif" font-size="14.00">OauthProviderResponseMapper</text>
</g>
<!-- OauthProviderResponseMapper&#45;&gt;OauthProviderModule -->
<g id="edge5" class="edge">
<title>OauthProviderResponseMapper&#45;&gt;OauthProviderModule</title>
<path fill="none" stroke="black" d="M609.02,-80.27C609.02,-80.27 609.02,-103.66 609.02,-103.66"/>
<polygon fill="black" stroke="black" points="605.52,-103.66 609.02,-113.66 612.52,-103.66 605.52,-103.66"/>
</g>
<!-- OauthProviderUc -->
<g id="node7" class="node">
<title>OauthProviderUc</title>
<ellipse fill="#fdb462" stroke="black" cx="467" cy="-66.8" rx="79.31" ry="18"/>
<text text-anchor="middle" x="467" y="-62.6" font-family="Times,serif" font-size="14.00">OauthProviderUc</text>
</g>
<!-- OauthProviderUc&#45;&gt;OauthProviderModule -->
<g id="edge6" class="edge">
<title>OauthProviderUc&#45;&gt;OauthProviderModule</title>
<path fill="none" stroke="black" d="M529.08,-78.12C529.08,-78.12 529.08,-103.74 529.08,-103.74"/>
<polygon fill="black" stroke="black" points="525.58,-103.74 529.08,-113.74 532.58,-103.74 525.58,-103.74"/>
</g>
</g>
</svg>
