<?xml version="1.0" encoding="UTF-8" standalone="no"?>
<!DOCTYPE svg PUBLIC "-//W3C//DTD SVG 1.1//EN"
 "http://www.w3.org/Graphics/SVG/1.1/DTD/svg11.dtd">
<!-- Generated by graphviz version 5.0.0 (20220707.1540)
 -->
<!-- Title: dependencies Pages: 1 -->
<svg width="2516pt" height="174pt"
 viewBox="0.00 0.00 2516.00 173.80" xmlns="http://www.w3.org/2000/svg" xmlns:xlink="http://www.w3.org/1999/xlink">
<g id="graph0" class="graph" transform="scale(1 1) rotate(0) translate(4 169.8)">
<title>dependencies</title>
<polygon fill="white" stroke="transparent" points="-4,4 -4,-169.8 2512,-169.8 2512,4 -4,4"/>
<text text-anchor="middle" x="1254" y="-8.2" font-family="sans-serif" font-size="14.00">dependencies</text>
<g id="clust1" class="cluster">
<title>cluster_OauthProviderModule</title>
<polygon fill="none" stroke="black" stroke-dasharray="1,5" points="8,-32.8 8,-157.8 2500,-157.8 2500,-32.8 8,-32.8"/>
</g>
<g id="clust6" class="cluster">
<title>cluster_OauthProviderModule_providers</title>
<polygon fill="none" stroke="black" points="602,-40.8 602,-92.8 2492,-92.8 2492,-40.8 602,-40.8"/>
</g>
<g id="clust3" class="cluster">
<title>cluster_OauthProviderModule_imports</title>
<polygon fill="none" stroke="black" points="16,-40.8 16,-92.8 594,-92.8 594,-40.8 16,-40.8"/>
</g>
<!-- AuthorizationModule -->
<g id="node1" class="node">
<title>AuthorizationModule</title>
<polygon fill="#8dd3c7" stroke="black" points="585.81,-84.8 582.81,-88.8 561.81,-88.8 558.81,-84.8 448.19,-84.8 448.19,-48.8 585.81,-48.8 585.81,-84.8"/>
<text text-anchor="middle" x="517" y="-62.6" font-family="Times,serif" font-size="14.00">AuthorizationModule</text>
</g>
<!-- OauthProviderModule -->
<g id="node5" class="node">
<title>OauthProviderModule</title>
<polygon fill="#8dd3c7" stroke="black" points="1069.98,-149.8 1066.98,-153.8 1045.98,-153.8 1042.98,-149.8 928.02,-149.8 928.02,-113.8 1069.98,-113.8 1069.98,-149.8"/>
<text text-anchor="middle" x="999" y="-127.6" font-family="Times,serif" font-size="14.00">OauthProviderModule</text>
</g>
<!-- AuthorizationModule&#45;&gt;OauthProviderModule -->
<g id="edge1" class="edge">
<title>AuthorizationModule&#45;&gt;OauthProviderModule</title>
<path fill="none" stroke="black" d="M517,-85.02C517,-103.63 517,-129.8 517,-129.8 517,-129.8 917.88,-129.8 917.88,-129.8"/>
<polygon fill="black" stroke="black" points="917.88,-133.3 927.88,-129.8 917.88,-126.3 917.88,-133.3"/>
</g>
<!-- LoggerModule -->
<g id="node2" class="node">
<title>LoggerModule</title>
<polygon fill="#8dd3c7" stroke="black" points="429.98,-84.8 426.98,-88.8 405.98,-88.8 402.98,-84.8 330.02,-84.8 330.02,-48.8 429.98,-48.8 429.98,-84.8"/>
<text text-anchor="middle" x="380" y="-62.6" font-family="Times,serif" font-size="14.00">LoggerModule</text>
</g>
<!-- LoggerModule&#45;&gt;OauthProviderModule -->
<g id="edge2" class="edge">
<title>LoggerModule&#45;&gt;OauthProviderModule</title>
<path fill="none" stroke="black" d="M380,-85.02C380,-105.17 380,-134.8 380,-134.8 380,-134.8 917.99,-134.8 917.99,-134.8"/>
<polygon fill="black" stroke="black" points="917.99,-138.3 927.99,-134.8 917.99,-131.3 917.99,-138.3"/>
</g>
<!-- OauthProviderServiceModule -->
<g id="node3" class="node">
<title>OauthProviderServiceModule</title>
<polygon fill="#8dd3c7" stroke="black" points="311.96,-84.8 308.96,-88.8 287.96,-88.8 284.96,-84.8 128.04,-84.8 128.04,-48.8 311.96,-48.8 311.96,-84.8"/>
<text text-anchor="middle" x="220" y="-62.6" font-family="Times,serif" font-size="14.00">OauthProviderServiceModule</text>
</g>
<!-- OauthProviderServiceModule&#45;&gt;OauthProviderModule -->
<g id="edge3" class="edge">
<title>OauthProviderServiceModule&#45;&gt;OauthProviderModule</title>
<path fill="none" stroke="black" d="M220,-84.84C220,-106.46 220,-139.8 220,-139.8 220,-139.8 917.8,-139.8 917.8,-139.8"/>
<polygon fill="black" stroke="black" points="917.8,-143.3 927.8,-139.8 917.8,-136.3 917.8,-143.3"/>
</g>
<!-- UserModule -->
<g id="node4" class="node">
<title>UserModule</title>
<polygon fill="#8dd3c7" stroke="black" points="109.99,-84.8 106.99,-88.8 85.99,-88.8 82.99,-84.8 24.01,-84.8 24.01,-48.8 109.99,-48.8 109.99,-84.8"/>
<text text-anchor="middle" x="67" y="-62.6" font-family="Times,serif" font-size="14.00">UserModule</text>
</g>
<!-- UserModule&#45;&gt;OauthProviderModule -->
<g id="edge4" class="edge">
<title>UserModule&#45;&gt;OauthProviderModule</title>
<path fill="none" stroke="black" d="M67,-84.89C67,-107.93 67,-144.8 67,-144.8 67,-144.8 917.8,-144.8 917.8,-144.8"/>
<polygon fill="black" stroke="black" points="917.8,-148.3 927.8,-144.8 917.8,-141.3 917.8,-148.3"/>
</g>
<!-- IdTokenService -->
<g id="node6" class="node">
<title>IdTokenService</title>
<ellipse fill="#fdb462" stroke="black" cx="2411" cy="-66.8" rx="72.92" ry="18"/>
<text text-anchor="middle" x="2411" y="-62.6" font-family="Times,serif" font-size="14.00">IdTokenService</text>
</g>
<!-- IdTokenService&#45;&gt;OauthProviderModule -->
<g id="edge5" class="edge">
<title>IdTokenService&#45;&gt;OauthProviderModule</title>
<path fill="none" stroke="black" d="M2411,-84.89C2411,-107.93 2411,-144.8 2411,-144.8 2411,-144.8 1079.99,-144.8 1079.99,-144.8"/>
<polygon fill="black" stroke="black" points="1079.99,-141.3 1069.99,-144.8 1079.99,-148.3 1079.99,-141.3"/>
</g>
<!-- LtiToolRepo -->
<g id="node7" class="node">
<title>LtiToolRepo</title>
<ellipse fill="#fdb462" stroke="black" cx="2259" cy="-66.8" rx="60.85" ry="18"/>
<text text-anchor="middle" x="2259" y="-62.6" font-family="Times,serif" font-size="14.00">LtiToolRepo</text>
</g>
<!-- LtiToolRepo&#45;&gt;OauthProviderModule -->
<g id="edge6" class="edge">
<title>LtiToolRepo&#45;&gt;OauthProviderModule</title>
<path fill="none" stroke="black" d="M2259,-84.84C2259,-106.46 2259,-139.8 2259,-139.8 2259,-139.8 1080.35,-139.8 1080.35,-139.8"/>
<polygon fill="black" stroke="black" points="1080.35,-136.3 1070.35,-139.8 1080.35,-143.3 1080.35,-136.3"/>
</g>
<!-- OauthProviderClientCrudUc -->
<g id="node8" class="node">
<title>OauthProviderClientCrudUc</title>
<ellipse fill="#fdb462" stroke="black" cx="2058" cy="-66.8" rx="122.15" ry="18"/>
<text text-anchor="middle" x="2058" y="-62.6" font-family="Times,serif" font-size="14.00">OauthProviderClientCrudUc</text>
</g>
<!-- OauthProviderClientCrudUc&#45;&gt;OauthProviderModule -->
<g id="edge7" class="edge">
<title>OauthProviderClientCrudUc&#45;&gt;OauthProviderModule</title>
<path fill="none" stroke="black" d="M2058,-85.02C2058,-105.17 2058,-134.8 2058,-134.8 2058,-134.8 1080.13,-134.8 1080.13,-134.8"/>
<polygon fill="black" stroke="black" points="1080.13,-131.3 1070.13,-134.8 1080.13,-138.3 1080.13,-131.3"/>
</g>
<!-- OauthProviderConsentFlowUc -->
<g id="node9" class="node">
<title>OauthProviderConsentFlowUc</title>
<ellipse fill="#fdb462" stroke="black" cx="1787" cy="-66.8" rx="130.83" ry="18"/>
<text text-anchor="middle" x="1787" y="-62.6" font-family="Times,serif" font-size="14.00">OauthProviderConsentFlowUc</text>
</g>
<!-- OauthProviderConsentFlowUc&#45;&gt;OauthProviderModule -->
<g id="edge8" class="edge">
<title>OauthProviderConsentFlowUc&#45;&gt;OauthProviderModule</title>
<path fill="none" stroke="black" d="M1787,-85.02C1787,-103.63 1787,-129.8 1787,-129.8 1787,-129.8 1080.32,-129.8 1080.32,-129.8"/>
<polygon fill="black" stroke="black" points="1080.32,-126.3 1070.32,-129.8 1080.32,-133.3 1080.32,-126.3"/>
</g>
<!-- OauthProviderLogoutFlowUc -->
<g id="node10" class="node">
<title>OauthProviderLogoutFlowUc</title>
<ellipse fill="#fdb462" stroke="black" cx="1511" cy="-66.8" rx="126.81" ry="18"/>
<text text-anchor="middle" x="1511" y="-62.6" font-family="Times,serif" font-size="14.00">OauthProviderLogoutFlowUc</text>
</g>
<!-- OauthProviderLogoutFlowUc&#45;&gt;OauthProviderModule -->
<g id="edge9" class="edge">
<title>OauthProviderLogoutFlowUc&#45;&gt;OauthProviderModule</title>
<path fill="none" stroke="black" d="M1511,-84.83C1511,-101.86 1511,-124.8 1511,-124.8 1511,-124.8 1080.19,-124.8 1080.19,-124.8"/>
<polygon fill="black" stroke="black" points="1080.19,-121.3 1070.19,-124.8 1080.19,-128.3 1080.19,-121.3"/>
</g>
<!-- OauthProviderResponseMapper -->
<g id="node11" class="node">
<title>OauthProviderResponseMapper</title>
<ellipse fill="#fdb462" stroke="black" cx="1231" cy="-66.8" rx="134.88" ry="18"/>
<text text-anchor="middle" x="1231" y="-62.6" font-family="Times,serif" font-size="14.00">OauthProviderResponseMapper</text>
</g>
<!-- OauthProviderResponseMapper&#45;&gt;OauthProviderModule -->
<g id="edge10" class="edge">
<title>OauthProviderResponseMapper&#45;&gt;OauthProviderModule</title>
<path fill="none" stroke="black" d="M1231,-85.04C1231,-100.37 1231,-119.8 1231,-119.8 1231,-119.8 1080.18,-119.8 1080.18,-119.8"/>
<polygon fill="black" stroke="black" points="1080.18,-116.3 1070.18,-119.8 1080.18,-123.3 1080.18,-116.3"/>
</g>
<!-- OauthProviderUc -->
<g id="node12" class="node">
<title>OauthProviderUc</title>
<ellipse fill="#fdb462" stroke="black" cx="999" cy="-66.8" rx="79.31" ry="18"/>
<text text-anchor="middle" x="999" y="-62.6" font-family="Times,serif" font-size="14.00">OauthProviderUc</text>
</g>
<!-- OauthProviderUc&#45;&gt;OauthProviderModule -->
<g id="edge11" class="edge">
<title>OauthProviderUc&#45;&gt;OauthProviderModule</title>
<path fill="none" stroke="black" d="M999,-84.91C999,-84.91 999,-103.79 999,-103.79"/>
<polygon fill="black" stroke="black" points="995.5,-103.79 999,-113.79 1002.5,-103.79 995.5,-103.79"/>
</g>
<!-- PseudonymsRepo -->
<g id="node13" class="node">
<title>PseudonymsRepo</title>
<ellipse fill="#fdb462" stroke="black" cx="822" cy="-66.8" rx="80.5" ry="18"/>
<text text-anchor="middle" x="822" y="-62.6" font-family="Times,serif" font-size="14.00">PseudonymsRepo</text>
</g>
<!-- PseudonymsRepo&#45;&gt;OauthProviderModule -->
<g id="edge12" class="edge">
<title>PseudonymsRepo&#45;&gt;OauthProviderModule</title>
<path fill="none" stroke="black" d="M822,-85.04C822,-100.37 822,-119.8 822,-119.8 822,-119.8 917.77,-119.8 917.77,-119.8"/>
<polygon fill="black" stroke="black" points="917.77,-123.3 927.77,-119.8 917.77,-116.3 917.77,-123.3"/>
</g>
<!-- TeamsRepo -->
<g id="node14" class="node">
<title>TeamsRepo</title>
<ellipse fill="#fdb462" stroke="black" cx="667" cy="-66.8" rx="57.32" ry="18"/>
<text text-anchor="middle" x="667" y="-62.6" font-family="Times,serif" font-size="14.00">TeamsRepo</text>
</g>
<!-- TeamsRepo&#45;&gt;OauthProviderModule -->
<g id="edge13" class="edge">
<title>TeamsRepo&#45;&gt;OauthProviderModule</title>
<path fill="none" stroke="black" d="M667,-84.83C667,-101.86 667,-124.8 667,-124.8 667,-124.8 917.78,-124.8 917.78,-124.8"/>
<polygon fill="black" stroke="black" points="917.78,-128.3 927.78,-124.8 917.78,-121.3 917.78,-128.3"/>
</g>
</g>
</svg>
