<?xml version="1.0" encoding="UTF-8" standalone="no"?>
<!DOCTYPE svg PUBLIC "-//W3C//DTD SVG 1.1//EN"
 "http://www.w3.org/Graphics/SVG/1.1/DTD/svg11.dtd">
<!-- Generated by graphviz version 5.0.0 (20220707.1540)
 -->
<!-- Title: dependencies Pages: 1 -->
<svg width="710pt" height="174pt"
 viewBox="0.00 0.00 710.00 173.80" xmlns="http://www.w3.org/2000/svg" xmlns:xlink="http://www.w3.org/1999/xlink">
<g id="graph0" class="graph" transform="scale(1 1) rotate(0) translate(4 169.8)">
<title>dependencies</title>
<polygon fill="white" stroke="transparent" points="-4,4 -4,-169.8 706,-169.8 706,4 -4,4"/>
<text text-anchor="middle" x="351" y="-8.2" font-family="sans-serif" font-size="14.00">dependencies</text>
<g id="clust1" class="cluster">
<title>cluster_OauthProviderModule</title>
<polygon fill="none" stroke="black" stroke-dasharray="1,5" points="8,-32.8 8,-157.8 694,-157.8 694,-32.8 8,-32.8"/>
</g>
<g id="clust3" class="cluster">
<title>cluster_OauthProviderModule_imports</title>
<polygon fill="none" stroke="black" points="486,-40.8 486,-92.8 686,-92.8 686,-40.8 486,-40.8"/>
</g>
<g id="clust6" class="cluster">
<title>cluster_OauthProviderModule_providers</title>
<polygon fill="none" stroke="black" points="16,-40.8 16,-92.8 478,-92.8 478,-40.8 16,-40.8"/>
</g>
<!-- OauthProviderServiceModule -->
<g id="node1" class="node">
<title>OauthProviderServiceModule</title>
<polygon fill="#8dd3c7" stroke="black" points="677.96,-84.8 674.96,-88.8 653.96,-88.8 650.96,-84.8 494.04,-84.8 494.04,-48.8 677.96,-48.8 677.96,-84.8"/>
<text text-anchor="middle" x="586" y="-62.6" font-family="Times,serif" font-size="14.00">OauthProviderServiceModule</text>
</g>
<!-- OauthProviderModule -->
<g id="node2" class="node">
<title>OauthProviderModule</title>
<polygon fill="#8dd3c7" stroke="black" points="405.98,-149.8 402.98,-153.8 381.98,-153.8 378.98,-149.8 264.02,-149.8 264.02,-113.8 405.98,-113.8 405.98,-149.8"/>
<text text-anchor="middle" x="335" y="-127.6" font-family="Times,serif" font-size="14.00">OauthProviderModule</text>
</g>
<!-- OauthProviderServiceModule&#45;&gt;OauthProviderModule -->
<g id="edge1" class="edge">
<title>OauthProviderServiceModule&#45;&gt;OauthProviderModule</title>
<path fill="none" stroke="black" d="M586,-84.91C586,-104.14 586,-131.8 586,-131.8 586,-131.8 416.26,-131.8 416.26,-131.8"/>
<polygon fill="black" stroke="black" points="416.26,-128.3 406.26,-131.8 416.26,-135.3 416.26,-128.3"/>
</g>
<!-- OauthProviderResponseMapper -->
<g id="node3" class="node">
<title>OauthProviderResponseMapper</title>
<ellipse fill="#fdb462" stroke="black" cx="335" cy="-66.8" rx="134.88" ry="18"/>
<text text-anchor="middle" x="335" y="-62.6" font-family="Times,serif" font-size="14.00">OauthProviderResponseMapper</text>
</g>
<!-- OauthProviderResponseMapper&#45;&gt;OauthProviderModule -->
<g id="edge2" class="edge">
<title>OauthProviderResponseMapper&#45;&gt;OauthProviderModule</title>
<path fill="none" stroke="black" d="M335,-84.91C335,-84.91 335,-103.79 335,-103.79"/>
<polygon fill="black" stroke="black" points="331.5,-103.79 335,-113.79 338.5,-103.79 331.5,-103.79"/>
</g>
<!-- OauthProviderUc -->
<g id="node4" class="node">
<title>OauthProviderUc</title>
<ellipse fill="#fdb462" stroke="black" cx="103" cy="-66.8" rx="79.31" ry="18"/>
<text text-anchor="middle" x="103" y="-62.6" font-family="Times,serif" font-size="14.00">OauthProviderUc</text>
</g>
<!-- OauthProviderUc&#45;&gt;OauthProviderModule -->
<g id="edge3" class="edge">
<title>OauthProviderUc&#45;&gt;OauthProviderModule</title>
<path fill="none" stroke="black" d="M103,-84.91C103,-104.14 103,-131.8 103,-131.8 103,-131.8 253.82,-131.8 253.82,-131.8"/>
<polygon fill="black" stroke="black" points="253.82,-135.3 263.82,-131.8 253.82,-128.3 253.82,-135.3"/>
</g>
</g>
</svg>
