<?xml version="1.0" encoding="UTF-8" standalone="no"?>
<!DOCTYPE svg PUBLIC "-//W3C//DTD SVG 1.1//EN"
 "http://www.w3.org/Graphics/SVG/1.1/DTD/svg11.dtd">
<!-- Generated by graphviz version 5.0.0 (20220707.1540)
 -->
<!-- Title: dependencies Pages: 1 -->
<svg width="2516pt" height="174pt"
 viewBox="0.00 0.00 2516.00 173.80" xmlns="http://www.w3.org/2000/svg" xmlns:xlink="http://www.w3.org/1999/xlink">
<g id="graph0" class="graph" transform="scale(1 1) rotate(0) translate(4 169.8)">
<title>dependencies</title>
<polygon fill="white" stroke="transparent" points="-4,4 -4,-169.8 2512,-169.8 2512,4 -4,4"/>
<text text-anchor="middle" x="1254" y="-8.2" font-family="sans-serif" font-size="14.00">dependencies</text>
<g id="clust1" class="cluster">
<title>cluster_OauthProviderModule</title>
<polygon fill="none" stroke="black" stroke-dasharray="1,5" points="8,-32.8 8,-157.8 2500,-157.8 2500,-32.8 8,-32.8"/>
</g>
<g id="clust3" class="cluster">
<title>cluster_OauthProviderModule_imports</title>
<polygon fill="none" stroke="black" points="1914,-40.8 1914,-92.8 2492,-92.8 2492,-40.8 1914,-40.8"/>
</g>
<g id="clust6" class="cluster">
<title>cluster_OauthProviderModule_providers</title>
<polygon fill="none" stroke="black" points="16,-40.8 16,-92.8 1906,-92.8 1906,-40.8 16,-40.8"/>
</g>
<!-- AuthorizationModule -->
<g id="node1" class="node">
<title>AuthorizationModule</title>
<polygon fill="#8dd3c7" stroke="black" points="2483.81,-84.8 2480.81,-88.8 2459.81,-88.8 2456.81,-84.8 2346.19,-84.8 2346.19,-48.8 2483.81,-48.8 2483.81,-84.8"/>
<text text-anchor="middle" x="2415" y="-62.6" font-family="Times,serif" font-size="14.00">AuthorizationModule</text>
</g>
<!-- OauthProviderModule -->
<g id="node5" class="node">
<title>OauthProviderModule</title>
<polygon fill="#8dd3c7" stroke="black" points="1542.98,-149.8 1539.98,-153.8 1518.98,-153.8 1515.98,-149.8 1401.02,-149.8 1401.02,-113.8 1542.98,-113.8 1542.98,-149.8"/>
<text text-anchor="middle" x="1472" y="-127.6" font-family="Times,serif" font-size="14.00">OauthProviderModule</text>
</g>
<!-- AuthorizationModule&#45;&gt;OauthProviderModule -->
<g id="edge1" class="edge">
<title>AuthorizationModule&#45;&gt;OauthProviderModule</title>
<path fill="none" stroke="black" d="M2415,-84.89C2415,-107.93 2415,-144.8 2415,-144.8 2415,-144.8 1553.26,-144.8 1553.26,-144.8"/>
<polygon fill="black" stroke="black" points="1553.26,-141.3 1543.26,-144.8 1553.26,-148.3 1553.26,-141.3"/>
</g>
<!-- LoggerModule -->
<g id="node2" class="node">
<title>LoggerModule</title>
<polygon fill="#8dd3c7" stroke="black" points="2327.98,-84.8 2324.98,-88.8 2303.98,-88.8 2300.98,-84.8 2228.02,-84.8 2228.02,-48.8 2327.98,-48.8 2327.98,-84.8"/>
<text text-anchor="middle" x="2278" y="-62.6" font-family="Times,serif" font-size="14.00">LoggerModule</text>
</g>
<!-- LoggerModule&#45;&gt;OauthProviderModule -->
<g id="edge2" class="edge">
<title>LoggerModule&#45;&gt;OauthProviderModule</title>
<path fill="none" stroke="black" d="M2278,-84.84C2278,-106.46 2278,-139.8 2278,-139.8 2278,-139.8 1553.17,-139.8 1553.17,-139.8"/>
<polygon fill="black" stroke="black" points="1553.17,-136.3 1543.17,-139.8 1553.17,-143.3 1553.17,-136.3"/>
</g>
<!-- OauthProviderServiceModule -->
<g id="node3" class="node">
<title>OauthProviderServiceModule</title>
<polygon fill="#8dd3c7" stroke="black" points="2209.96,-84.8 2206.96,-88.8 2185.96,-88.8 2182.96,-84.8 2026.04,-84.8 2026.04,-48.8 2209.96,-48.8 2209.96,-84.8"/>
<text text-anchor="middle" x="2118" y="-62.6" font-family="Times,serif" font-size="14.00">OauthProviderServiceModule</text>
</g>
<!-- OauthProviderServiceModule&#45;&gt;OauthProviderModule -->
<g id="edge3" class="edge">
<title>OauthProviderServiceModule&#45;&gt;OauthProviderModule</title>
<path fill="none" stroke="black" d="M2118,-85.02C2118,-105.17 2118,-134.8 2118,-134.8 2118,-134.8 1552.98,-134.8 1552.98,-134.8"/>
<polygon fill="black" stroke="black" points="1552.98,-131.3 1542.98,-134.8 1552.98,-138.3 1552.98,-131.3"/>
</g>
<!-- UserModule -->
<g id="node4" class="node">
<title>UserModule</title>
<polygon fill="#8dd3c7" stroke="black" points="2007.99,-84.8 2004.99,-88.8 1983.99,-88.8 1980.99,-84.8 1922.01,-84.8 1922.01,-48.8 2007.99,-48.8 2007.99,-84.8"/>
<text text-anchor="middle" x="1965" y="-62.6" font-family="Times,serif" font-size="14.00">UserModule</text>
</g>
<!-- UserModule&#45;&gt;OauthProviderModule -->
<g id="edge4" class="edge">
<title>UserModule&#45;&gt;OauthProviderModule</title>
<path fill="none" stroke="black" d="M1965,-85.02C1965,-103.63 1965,-129.8 1965,-129.8 1965,-129.8 1553.16,-129.8 1553.16,-129.8"/>
<polygon fill="black" stroke="black" points="1553.16,-126.3 1543.16,-129.8 1553.16,-133.3 1553.16,-126.3"/>
</g>
<!-- IdTokenService -->
<g id="node6" class="node">
<title>IdTokenService</title>
<ellipse fill="#fdb462" stroke="black" cx="1825" cy="-66.8" rx="72.92" ry="18"/>
<text text-anchor="middle" x="1825" y="-62.6" font-family="Times,serif" font-size="14.00">IdTokenService</text>
</g>
<!-- IdTokenService&#45;&gt;OauthProviderModule -->
<g id="edge5" class="edge">
<title>IdTokenService&#45;&gt;OauthProviderModule</title>
<path fill="none" stroke="black" d="M1825,-84.83C1825,-101.86 1825,-124.8 1825,-124.8 1825,-124.8 1553.01,-124.8 1553.01,-124.8"/>
<polygon fill="black" stroke="black" points="1553.01,-121.3 1543.01,-124.8 1553.01,-128.3 1553.01,-121.3"/>
</g>
<!-- LtiToolRepo -->
<g id="node7" class="node">
<title>LtiToolRepo</title>
<ellipse fill="#fdb462" stroke="black" cx="1673" cy="-66.8" rx="60.85" ry="18"/>
<text text-anchor="middle" x="1673" y="-62.6" font-family="Times,serif" font-size="14.00">LtiToolRepo</text>
</g>
<!-- LtiToolRepo&#45;&gt;OauthProviderModule -->
<g id="edge6" class="edge">
<title>LtiToolRepo&#45;&gt;OauthProviderModule</title>
<path fill="none" stroke="black" d="M1673,-85.04C1673,-100.37 1673,-119.8 1673,-119.8 1673,-119.8 1553.15,-119.8 1553.15,-119.8"/>
<polygon fill="black" stroke="black" points="1553.15,-116.3 1543.15,-119.8 1553.15,-123.3 1553.15,-116.3"/>
</g>
<!-- OauthProviderClientCrudUc -->
<g id="node8" class="node">
<title>OauthProviderClientCrudUc</title>
<ellipse fill="#fdb462" stroke="black" cx="1472" cy="-66.8" rx="122.15" ry="18"/>
<text text-anchor="middle" x="1472" y="-62.6" font-family="Times,serif" font-size="14.00">OauthProviderClientCrudUc</text>
</g>
<!-- OauthProviderClientCrudUc&#45;&gt;OauthProviderModule -->
<g id="edge7" class="edge">
<title>OauthProviderClientCrudUc&#45;&gt;OauthProviderModule</title>
<path fill="none" stroke="black" d="M1472,-84.91C1472,-84.91 1472,-103.79 1472,-103.79"/>
<polygon fill="black" stroke="black" points="1468.5,-103.79 1472,-113.79 1475.5,-103.79 1468.5,-103.79"/>
</g>
<!-- OauthProviderConsentFlowUc -->
<g id="node9" class="node">
<title>OauthProviderConsentFlowUc</title>
<ellipse fill="#fdb462" stroke="black" cx="1201" cy="-66.8" rx="130.83" ry="18"/>
<text text-anchor="middle" x="1201" y="-62.6" font-family="Times,serif" font-size="14.00">OauthProviderConsentFlowUc</text>
</g>
<!-- OauthProviderConsentFlowUc&#45;&gt;OauthProviderModule -->
<g id="edge8" class="edge">
<title>OauthProviderConsentFlowUc&#45;&gt;OauthProviderModule</title>
<path fill="none" stroke="black" d="M1201,-85.04C1201,-100.37 1201,-119.8 1201,-119.8 1201,-119.8 1390.8,-119.8 1390.8,-119.8"/>
<polygon fill="black" stroke="black" points="1390.8,-123.3 1400.8,-119.8 1390.8,-116.3 1390.8,-123.3"/>
</g>
<!-- OauthProviderLogoutFlowUc -->
<g id="node10" class="node">
<title>OauthProviderLogoutFlowUc</title>
<ellipse fill="#fdb462" stroke="black" cx="925" cy="-66.8" rx="126.81" ry="18"/>
<text text-anchor="middle" x="925" y="-62.6" font-family="Times,serif" font-size="14.00">OauthProviderLogoutFlowUc</text>
</g>
<!-- OauthProviderLogoutFlowUc&#45;&gt;OauthProviderModule -->
<g id="edge9" class="edge">
<title>OauthProviderLogoutFlowUc&#45;&gt;OauthProviderModule</title>
<path fill="none" stroke="black" d="M925,-84.83C925,-101.86 925,-124.8 925,-124.8 925,-124.8 1390.77,-124.8 1390.77,-124.8"/>
<polygon fill="black" stroke="black" points="1390.77,-128.3 1400.77,-124.8 1390.77,-121.3 1390.77,-128.3"/>
</g>
<!-- OauthProviderResponseMapper -->
<g id="node11" class="node">
<title>OauthProviderResponseMapper</title>
<ellipse fill="#fdb462" stroke="black" cx="645" cy="-66.8" rx="134.88" ry="18"/>
<text text-anchor="middle" x="645" y="-62.6" font-family="Times,serif" font-size="14.00">OauthProviderResponseMapper</text>
</g>
<!-- OauthProviderResponseMapper&#45;&gt;OauthProviderModule -->
<g id="edge10" class="edge">
<title>OauthProviderResponseMapper&#45;&gt;OauthProviderModule</title>
<path fill="none" stroke="black" d="M645,-85.02C645,-103.63 645,-129.8 645,-129.8 645,-129.8 1390.77,-129.8 1390.77,-129.8"/>
<polygon fill="black" stroke="black" points="1390.77,-133.3 1400.77,-129.8 1390.77,-126.3 1390.77,-133.3"/>
</g>
<!-- OauthProviderUc -->
<g id="node12" class="node">
<title>OauthProviderUc</title>
<ellipse fill="#fdb462" stroke="black" cx="413" cy="-66.8" rx="79.31" ry="18"/>
<text text-anchor="middle" x="413" y="-62.6" font-family="Times,serif" font-size="14.00">OauthProviderUc</text>
</g>
<!-- OauthProviderUc&#45;&gt;OauthProviderModule -->
<g id="edge11" class="edge">
<title>OauthProviderUc&#45;&gt;OauthProviderModule</title>
<path fill="none" stroke="black" d="M413,-85.02C413,-105.17 413,-134.8 413,-134.8 413,-134.8 1390.87,-134.8 1390.87,-134.8"/>
<polygon fill="black" stroke="black" points="1390.87,-138.3 1400.87,-134.8 1390.87,-131.3 1390.87,-138.3"/>
</g>
<!-- PseudonymsRepo -->
<g id="node13" class="node">
<title>PseudonymsRepo</title>
<ellipse fill="#fdb462" stroke="black" cx="236" cy="-66.8" rx="80.5" ry="18"/>
<text text-anchor="middle" x="236" y="-62.6" font-family="Times,serif" font-size="14.00">PseudonymsRepo</text>
</g>
<!-- PseudonymsRepo&#45;&gt;OauthProviderModule -->
<g id="edge12" class="edge">
<title>PseudonymsRepo&#45;&gt;OauthProviderModule</title>
<path fill="none" stroke="black" d="M236,-84.84C236,-106.46 236,-139.8 236,-139.8 236,-139.8 1390.66,-139.8 1390.66,-139.8"/>
<polygon fill="black" stroke="black" points="1390.66,-143.3 1400.66,-139.8 1390.66,-136.3 1390.66,-143.3"/>
</g>
<!-- TeamsRepo -->
<g id="node14" class="node">
<title>TeamsRepo</title>
<ellipse fill="#fdb462" stroke="black" cx="81" cy="-66.8" rx="57.32" ry="18"/>
<text text-anchor="middle" x="81" y="-62.6" font-family="Times,serif" font-size="14.00">TeamsRepo</text>
</g>
<!-- TeamsRepo&#45;&gt;OauthProviderModule -->
<g id="edge13" class="edge">
<title>TeamsRepo&#45;&gt;OauthProviderModule</title>
<path fill="none" stroke="black" d="M81,-84.89C81,-107.93 81,-144.8 81,-144.8 81,-144.8 1390.63,-144.8 1390.63,-144.8"/>
<polygon fill="black" stroke="black" points="1390.63,-148.3 1400.63,-144.8 1390.63,-141.3 1390.63,-148.3"/>
</g>
</g>
</svg>
