<?xml version="1.0" encoding="UTF-8" standalone="no"?>
<!DOCTYPE svg PUBLIC "-//W3C//DTD SVG 1.1//EN"
 "http://www.w3.org/Graphics/SVG/1.1/DTD/svg11.dtd">
<!-- Generated by graphviz version 3.0.0 (20220226.1711)
 -->
<!-- Title: dependencies Pages: 1 -->
<svg width="2049pt" height="174pt"
 viewBox="0.00 0.00 2049.00 173.80" xmlns="http://www.w3.org/2000/svg" xmlns:xlink="http://www.w3.org/1999/xlink">
<g id="graph0" class="graph" transform="scale(1 1) rotate(0) translate(4 169.8)">
<title>dependencies</title>
<polygon fill="white" stroke="transparent" points="-4,4 -4,-169.8 2045,-169.8 2045,4 -4,4"/>
<text text-anchor="middle" x="1020.5" y="-8.2" font-family="sans-serif" font-size="14.00">dependencies</text>
<g id="clust1" class="cluster">
<title>cluster_LearnroomModule</title>
<polygon fill="none" stroke="black" stroke-dasharray="1,5" points="8,-32.8 8,-157.8 2033,-157.8 2033,-32.8 8,-32.8"/>
</g>
<g id="clust6" class="cluster">
<title>cluster_LearnroomModule_providers</title>
<polygon fill="none" stroke="black" points="16,-40.8 16,-92.8 2025,-92.8 2025,-40.8 16,-40.8"/>
</g>
<!-- BoardRepo -->
<g id="node1" class="node">
<title>BoardRepo</title>
<ellipse fill="#fdb462" stroke="black" cx="1962" cy="-66.8" rx="55.04" ry="18"/>
<text text-anchor="middle" x="1962" y="-62.6" font-family="Times,serif" font-size="14.00">BoardRepo</text>
</g>
<!-- LearnroomModule -->
<g id="node13" class="node">
<title>LearnroomModule</title>
<polygon fill="#8dd3c7" stroke="black" points="1165.75,-149.8 1162.75,-153.8 1141.75,-153.8 1138.75,-149.8 1044.25,-149.8 1044.25,-113.8 1165.75,-113.8 1165.75,-149.8"/>
<text text-anchor="middle" x="1105" y="-127.6" font-family="Times,serif" font-size="14.00">LearnroomModule</text>
</g>
<!-- BoardRepo&#45;&gt;LearnroomModule -->
<g id="edge1" class="edge">
<title>BoardRepo&#45;&gt;LearnroomModule</title>
<path fill="none" stroke="black" d="M1962,-84.89C1962,-107.93 1962,-144.8 1962,-144.8 1962,-144.8 1175.95,-144.8 1175.95,-144.8"/>
<polygon fill="black" stroke="black" points="1175.95,-141.3 1165.95,-144.8 1175.95,-148.3 1175.95,-141.3"/>
</g>
<!-- CourseRepo -->
<g id="node2" class="node">
<title>CourseRepo</title>
<ellipse fill="#fdb462" stroke="black" cx="1830" cy="-66.8" rx="58.56" ry="18"/>
<text text-anchor="middle" x="1830" y="-62.6" font-family="Times,serif" font-size="14.00">CourseRepo</text>
</g>
<!-- CourseRepo&#45;&gt;LearnroomModule -->
<g id="edge2" class="edge">
<title>CourseRepo&#45;&gt;LearnroomModule</title>
<path fill="none" stroke="black" d="M1830,-85.08C1830,-106.12 1830,-137.8 1830,-137.8 1830,-137.8 1175.88,-137.8 1175.88,-137.8"/>
<polygon fill="black" stroke="black" points="1175.88,-134.3 1165.88,-137.8 1175.88,-141.3 1175.88,-134.3"/>
</g>
<!-- CourseUc -->
<g id="node3" class="node">
<title>CourseUc</title>
<ellipse fill="#fdb462" stroke="black" cx="1704" cy="-66.8" rx="49.81" ry="18"/>
<text text-anchor="middle" x="1704" y="-62.6" font-family="Times,serif" font-size="14.00">CourseUc</text>
</g>
<!-- CourseUc&#45;&gt;LearnroomModule -->
<g id="edge3" class="edge">
<title>CourseUc&#45;&gt;LearnroomModule</title>
<path fill="none" stroke="black" d="M1704,-84.91C1704,-104.14 1704,-131.8 1704,-131.8 1704,-131.8 1176.01,-131.8 1176.01,-131.8"/>
<polygon fill="black" stroke="black" points="1176.01,-128.3 1166.01,-131.8 1176.01,-135.3 1176.01,-128.3"/>
</g>
<!-- DashboardModelMapper -->
<g id="node4" class="node">
<title>DashboardModelMapper</title>
<ellipse fill="#fdb462" stroke="black" cx="1528" cy="-66.8" rx="108.23" ry="18"/>
<text text-anchor="middle" x="1528" y="-62.6" font-family="Times,serif" font-size="14.00">DashboardModelMapper</text>
</g>
<!-- DashboardModelMapper&#45;&gt;LearnroomModule -->
<g id="edge4" class="edge">
<title>DashboardModelMapper&#45;&gt;LearnroomModule</title>
<path fill="none" stroke="black" d="M1528,-84.82C1528,-102.17 1528,-125.8 1528,-125.8 1528,-125.8 1176.06,-125.8 1176.06,-125.8"/>
<polygon fill="black" stroke="black" points="1176.06,-122.3 1166.06,-125.8 1176.06,-129.3 1176.06,-122.3"/>
</g>
<!-- DashboardUc -->
<g id="node5" class="node">
<title>DashboardUc</title>
<ellipse fill="#fdb462" stroke="black" cx="1338" cy="-66.8" rx="64.26" ry="18"/>
<text text-anchor="middle" x="1338" y="-62.6" font-family="Times,serif" font-size="14.00">DashboardUc</text>
</g>
<!-- DashboardUc&#45;&gt;LearnroomModule -->
<g id="edge5" class="edge">
<title>DashboardUc&#45;&gt;LearnroomModule</title>
<path fill="none" stroke="black" d="M1338,-85.04C1338,-100.37 1338,-119.8 1338,-119.8 1338,-119.8 1175.91,-119.8 1175.91,-119.8"/>
<polygon fill="black" stroke="black" points="1175.91,-116.3 1165.91,-119.8 1175.91,-123.3 1175.91,-116.3"/>
</g>
<!-- LessonRepo -->
<g id="node6" class="node">
<title>LessonRepo</title>
<ellipse fill="#fdb462" stroke="black" cx="1197" cy="-66.8" rx="58.56" ry="18"/>
<text text-anchor="middle" x="1197" y="-62.6" font-family="Times,serif" font-size="14.00">LessonRepo</text>
</g>
<!-- LessonRepo&#45;&gt;LearnroomModule -->
<g id="edge6" class="edge">
<title>LessonRepo&#45;&gt;LearnroomModule</title>
<path fill="none" stroke="black" d="M1152.05,-78.42C1152.05,-78.42 1152.05,-103.65 1152.05,-103.65"/>
<polygon fill="black" stroke="black" points="1148.55,-103.65 1152.05,-113.65 1155.55,-103.65 1148.55,-103.65"/>
</g>
<!-- RoomBoardDTOFactory -->
<g id="node7" class="node">
<title>RoomBoardDTOFactory</title>
<ellipse fill="#fdb462" stroke="black" cx="1013" cy="-66.8" rx="107.68" ry="18"/>
<text text-anchor="middle" x="1013" y="-62.6" font-family="Times,serif" font-size="14.00">RoomBoardDTOFactory</text>
</g>
<!-- RoomBoardDTOFactory&#45;&gt;LearnroomModule -->
<g id="edge7" class="edge">
<title>RoomBoardDTOFactory&#45;&gt;LearnroomModule</title>
<path fill="none" stroke="black" d="M1082.36,-80.58C1082.36,-80.58 1082.36,-103.35 1082.36,-103.35"/>
<polygon fill="black" stroke="black" points="1078.86,-103.35 1082.36,-113.35 1085.86,-103.35 1078.86,-103.35"/>
</g>
<!-- RoomBoardResponseMapper -->
<g id="node8" class="node">
<title>RoomBoardResponseMapper</title>
<ellipse fill="#fdb462" stroke="black" cx="762" cy="-66.8" rx="125.09" ry="18"/>
<text text-anchor="middle" x="762" y="-62.6" font-family="Times,serif" font-size="14.00">RoomBoardResponseMapper</text>
</g>
<!-- RoomBoardResponseMapper&#45;&gt;LearnroomModule -->
<g id="edge8" class="edge">
<title>RoomBoardResponseMapper&#45;&gt;LearnroomModule</title>
<path fill="none" stroke="black" d="M762,-85.04C762,-100.37 762,-119.8 762,-119.8 762,-119.8 1034.07,-119.8 1034.07,-119.8"/>
<polygon fill="black" stroke="black" points="1034.07,-123.3 1044.07,-119.8 1034.07,-116.3 1034.07,-123.3"/>
</g>
<!-- RoomsAuthorisationService -->
<g id="node9" class="node">
<title>RoomsAuthorisationService</title>
<ellipse fill="#fdb462" stroke="black" cx="498" cy="-66.8" rx="120.44" ry="18"/>
<text text-anchor="middle" x="498" y="-62.6" font-family="Times,serif" font-size="14.00">RoomsAuthorisationService</text>
</g>
<!-- RoomsAuthorisationService&#45;&gt;LearnroomModule -->
<g id="edge9" class="edge">
<title>RoomsAuthorisationService&#45;&gt;LearnroomModule</title>
<path fill="none" stroke="black" d="M498,-84.82C498,-102.17 498,-125.8 498,-125.8 498,-125.8 1034.02,-125.8 1034.02,-125.8"/>
<polygon fill="black" stroke="black" points="1034.02,-129.3 1044.02,-125.8 1034.02,-122.3 1034.02,-129.3"/>
</g>
<!-- RoomsUc -->
<g id="node10" class="node">
<title>RoomsUc</title>
<ellipse fill="#fdb462" stroke="black" cx="310" cy="-66.8" rx="49.83" ry="18"/>
<text text-anchor="middle" x="310" y="-62.6" font-family="Times,serif" font-size="14.00">RoomsUc</text>
</g>
<!-- RoomsUc&#45;&gt;LearnroomModule -->
<g id="edge10" class="edge">
<title>RoomsUc&#45;&gt;LearnroomModule</title>
<path fill="none" stroke="black" d="M310,-84.91C310,-104.14 310,-131.8 310,-131.8 310,-131.8 1033.94,-131.8 1033.94,-131.8"/>
<polygon fill="black" stroke="black" points="1033.94,-135.3 1043.94,-131.8 1033.94,-128.3 1033.94,-135.3"/>
</g>
<!-- TaskRepo -->
<g id="node11" class="node">
<title>TaskRepo</title>
<ellipse fill="#fdb462" stroke="black" cx="192" cy="-66.8" rx="50.39" ry="18"/>
<text text-anchor="middle" x="192" y="-62.6" font-family="Times,serif" font-size="14.00">TaskRepo</text>
</g>
<!-- TaskRepo&#45;&gt;LearnroomModule -->
<g id="edge11" class="edge">
<title>TaskRepo&#45;&gt;LearnroomModule</title>
<path fill="none" stroke="black" d="M192,-85.08C192,-106.12 192,-137.8 192,-137.8 192,-137.8 1034.03,-137.8 1034.03,-137.8"/>
<polygon fill="black" stroke="black" points="1034.03,-141.3 1044.03,-137.8 1034.03,-134.3 1034.03,-141.3"/>
</g>
<!-- UserRepo -->
<g id="node12" class="node">
<title>UserRepo</title>
<ellipse fill="#fdb462" stroke="black" cx="74" cy="-66.8" rx="49.81" ry="18"/>
<text text-anchor="middle" x="74" y="-62.6" font-family="Times,serif" font-size="14.00">UserRepo</text>
</g>
<!-- UserRepo&#45;&gt;LearnroomModule -->
<g id="edge12" class="edge">
<title>UserRepo&#45;&gt;LearnroomModule</title>
<path fill="none" stroke="black" d="M74,-84.89C74,-107.93 74,-144.8 74,-144.8 74,-144.8 1033.98,-144.8 1033.98,-144.8"/>
<polygon fill="black" stroke="black" points="1033.98,-148.3 1043.98,-144.8 1033.98,-141.3 1033.98,-148.3"/>
</g>
</g>
</svg>
