<?xml version="1.0" encoding="UTF-8" standalone="no"?>
<!DOCTYPE svg PUBLIC "-//W3C//DTD SVG 1.1//EN"
 "http://www.w3.org/Graphics/SVG/1.1/DTD/svg11.dtd">
<!-- Generated by graphviz version 5.0.0 (20220707.1540)
 -->
<!-- Title: dependencies Pages: 1 -->
<svg width="4904pt" height="174pt"
 viewBox="0.00 0.00 4904.00 173.80" xmlns="http://www.w3.org/2000/svg" xmlns:xlink="http://www.w3.org/1999/xlink">
<g id="graph0" class="graph" transform="scale(1 1) rotate(0) translate(4 169.8)">
<title>dependencies</title>
<polygon fill="white" stroke="transparent" points="-4,4 -4,-169.8 4900,-169.8 4900,4 -4,4"/>
<text text-anchor="middle" x="2448" y="-8.2" font-family="sans-serif" font-size="14.00">dependencies</text>
<g id="clust1" class="cluster">
<title>cluster_LearnroomModule</title>
<polygon fill="none" stroke="black" stroke-dasharray="1,5" points="8,-32.8 8,-157.8 4888,-157.8 4888,-32.8 8,-32.8"/>
</g>
<g id="clust3" class="cluster">
<title>cluster_LearnroomModule_imports</title>
<polygon fill="none" stroke="black" points="4544,-40.8 4544,-92.8 4880,-92.8 4880,-40.8 4544,-40.8"/>
</g>
<g id="clust6" class="cluster">
<title>cluster_LearnroomModule_providers</title>
<polygon fill="none" stroke="black" points="16,-40.8 16,-92.8 4536,-92.8 4536,-40.8 16,-40.8"/>
</g>
<!-- AuthorizationModule -->
<g id="node1" class="node">
<title>AuthorizationModule</title>
<polygon fill="#8dd3c7" stroke="black" points="4871.81,-84.8 4868.81,-88.8 4847.81,-88.8 4844.81,-84.8 4734.19,-84.8 4734.19,-48.8 4871.81,-48.8 4871.81,-84.8"/>
<text text-anchor="middle" x="4803" y="-62.6" font-family="Times,serif" font-size="14.00">AuthorizationModule</text>
</g>
<!-- LearnroomModule -->
<g id="node3" class="node">
<title>LearnroomModule</title>
<polygon fill="#8dd3c7" stroke="black" points="2481.75,-149.8 2478.75,-153.8 2457.75,-153.8 2454.75,-149.8 2360.25,-149.8 2360.25,-113.8 2481.75,-113.8 2481.75,-149.8"/>
<text text-anchor="middle" x="2421" y="-127.6" font-family="Times,serif" font-size="14.00">LearnroomModule</text>
</g>
<!-- AuthorizationModule&#45;&gt;LearnroomModule -->
<g id="edge1" class="edge">
<title>AuthorizationModule&#45;&gt;LearnroomModule</title>
<path fill="none" stroke="black" d="M4803,-85.18C4803,-109.08 4803,-147.8 4803,-147.8 4803,-147.8 2491.97,-147.8 2491.97,-147.8"/>
<polygon fill="black" stroke="black" points="2491.97,-144.3 2481.97,-147.8 2491.97,-151.3 2491.97,-144.3"/>
</g>
<!-- FilesStorageClientModule -->
<g id="node2" class="node">
<title>FilesStorageClientModule</title>
<polygon fill="#8dd3c7" stroke="black" points="4715.77,-84.8 4712.77,-88.8 4691.77,-88.8 4688.77,-84.8 4552.23,-84.8 4552.23,-48.8 4715.77,-48.8 4715.77,-84.8"/>
<text text-anchor="middle" x="4634" y="-62.6" font-family="Times,serif" font-size="14.00">FilesStorageClientModule</text>
</g>
<!-- FilesStorageClientModule&#45;&gt;LearnroomModule -->
<g id="edge2" class="edge">
<title>FilesStorageClientModule&#45;&gt;LearnroomModule</title>
<path fill="none" stroke="black" d="M4634,-84.89C4634,-107.93 4634,-144.8 4634,-144.8 4634,-144.8 2491.92,-144.8 2491.92,-144.8"/>
<polygon fill="black" stroke="black" points="2491.92,-141.3 2481.92,-144.8 2491.92,-148.3 2491.92,-141.3"/>
</g>
<!-- BoardCopyService -->
<g id="node4" class="node">
<title>BoardCopyService</title>
<ellipse fill="#fdb462" stroke="black" cx="4443" cy="-66.8" rx="84.54" ry="18"/>
<text text-anchor="middle" x="4443" y="-62.6" font-family="Times,serif" font-size="14.00">BoardCopyService</text>
</g>
<!-- BoardCopyService&#45;&gt;LearnroomModule -->
<g id="edge3" class="edge">
<title>BoardCopyService&#45;&gt;LearnroomModule</title>
<path fill="none" stroke="black" d="M4443,-84.81C4443,-107.29 4443,-142.8 4443,-142.8 4443,-142.8 2491.79,-142.8 2491.79,-142.8"/>
<polygon fill="black" stroke="black" points="2491.79,-139.3 2481.79,-142.8 2491.79,-146.3 2491.79,-139.3"/>
</g>
<!-- BoardRepo -->
<g id="node5" class="node">
<title>BoardRepo</title>
<ellipse fill="#fdb462" stroke="black" cx="4285" cy="-66.8" rx="55.04" ry="18"/>
<text text-anchor="middle" x="4285" y="-62.6" font-family="Times,serif" font-size="14.00">BoardRepo</text>
</g>
<!-- BoardRepo&#45;&gt;LearnroomModule -->
<g id="edge4" class="edge">
<title>BoardRepo&#45;&gt;LearnroomModule</title>
<path fill="none" stroke="black" d="M4285,-84.84C4285,-106.46 4285,-139.8 4285,-139.8 4285,-139.8 2491.96,-139.8 2491.96,-139.8"/>
<polygon fill="black" stroke="black" points="2491.96,-136.3 2481.96,-139.8 2491.96,-143.3 2491.96,-136.3"/>
</g>
<!-- CopyHelperService -->
<g id="node6" class="node">
<title>CopyHelperService</title>
<ellipse fill="#fdb462" stroke="black" cx="4125" cy="-66.8" rx="87.39" ry="18"/>
<text text-anchor="middle" x="4125" y="-62.6" font-family="Times,serif" font-size="14.00">CopyHelperService</text>
</g>
<!-- CopyHelperService&#45;&gt;LearnroomModule -->
<g id="edge5" class="edge">
<title>CopyHelperService&#45;&gt;LearnroomModule</title>
<path fill="none" stroke="black" d="M4125,-85.08C4125,-106.12 4125,-137.8 4125,-137.8 4125,-137.8 2491.9,-137.8 2491.9,-137.8"/>
<polygon fill="black" stroke="black" points="2491.9,-134.3 2481.9,-137.8 2491.9,-141.3 2491.9,-134.3"/>
</g>
<!-- CourseCopyService -->
<g id="node7" class="node">
<title>CourseCopyService</title>
<ellipse fill="#fdb462" stroke="black" cx="3932" cy="-66.8" rx="88.06" ry="18"/>
<text text-anchor="middle" x="3932" y="-62.6" font-family="Times,serif" font-size="14.00">CourseCopyService</text>
</g>
<!-- CourseCopyService&#45;&gt;LearnroomModule -->
<g id="edge6" class="edge">
<title>CourseCopyService&#45;&gt;LearnroomModule</title>
<path fill="none" stroke="black" d="M3932,-85.02C3932,-105.17 3932,-134.8 3932,-134.8 3932,-134.8 2492.1,-134.8 2492.1,-134.8"/>
<polygon fill="black" stroke="black" points="2492.1,-131.3 2482.1,-134.8 2492.1,-138.3 2492.1,-131.3"/>
</g>
<!-- CourseCopyUC -->
<g id="node8" class="node">
<title>CourseCopyUC</title>
<ellipse fill="#fdb462" stroke="black" cx="3753" cy="-66.8" rx="72.97" ry="18"/>
<text text-anchor="middle" x="3753" y="-62.6" font-family="Times,serif" font-size="14.00">CourseCopyUC</text>
</g>
<!-- CourseCopyUC&#45;&gt;LearnroomModule -->
<g id="edge7" class="edge">
<title>CourseCopyUC&#45;&gt;LearnroomModule</title>
<path fill="none" stroke="black" d="M3753,-84.91C3753,-104.14 3753,-131.8 3753,-131.8 3753,-131.8 2492.13,-131.8 2492.13,-131.8"/>
<polygon fill="black" stroke="black" points="2492.13,-128.3 2482.13,-131.8 2492.13,-135.3 2492.13,-128.3"/>
</g>
<!-- CourseRepo -->
<g id="node9" class="node">
<title>CourseRepo</title>
<ellipse fill="#fdb462" stroke="black" cx="3603" cy="-66.8" rx="58.56" ry="18"/>
<text text-anchor="middle" x="3603" y="-62.6" font-family="Times,serif" font-size="14.00">CourseRepo</text>
</g>
<!-- CourseRepo&#45;&gt;LearnroomModule -->
<g id="edge8" class="edge">
<title>CourseRepo&#45;&gt;LearnroomModule</title>
<path fill="none" stroke="black" d="M3603,-85.02C3603,-103.63 3603,-129.8 3603,-129.8 3603,-129.8 2492.06,-129.8 2492.06,-129.8"/>
<polygon fill="black" stroke="black" points="2492.06,-126.3 2482.06,-129.8 2492.06,-133.3 2492.06,-126.3"/>
</g>
<!-- CourseUc -->
<g id="node10" class="node">
<title>CourseUc</title>
<ellipse fill="#fdb462" stroke="black" cx="3477" cy="-66.8" rx="49.81" ry="18"/>
<text text-anchor="middle" x="3477" y="-62.6" font-family="Times,serif" font-size="14.00">CourseUc</text>
</g>
<!-- CourseUc&#45;&gt;LearnroomModule -->
<g id="edge9" class="edge">
<title>CourseUc&#45;&gt;LearnroomModule</title>
<path fill="none" stroke="black" d="M3477,-84.8C3477,-102.48 3477,-126.8 3477,-126.8 3477,-126.8 2491.95,-126.8 2491.95,-126.8"/>
<polygon fill="black" stroke="black" points="2491.95,-123.3 2481.95,-126.8 2491.95,-130.3 2491.95,-123.3"/>
</g>
<!-- DashboardModelMapper -->
<g id="node11" class="node">
<title>DashboardModelMapper</title>
<ellipse fill="#fdb462" stroke="black" cx="3301" cy="-66.8" rx="108.23" ry="18"/>
<text text-anchor="middle" x="3301" y="-62.6" font-family="Times,serif" font-size="14.00">DashboardModelMapper</text>
</g>
<!-- DashboardModelMapper&#45;&gt;LearnroomModule -->
<g id="edge10" class="edge">
<title>DashboardModelMapper&#45;&gt;LearnroomModule</title>
<path fill="none" stroke="black" d="M3301,-84.83C3301,-101.86 3301,-124.8 3301,-124.8 3301,-124.8 2491.83,-124.8 2491.83,-124.8"/>
<polygon fill="black" stroke="black" points="2491.83,-121.3 2481.83,-124.8 2491.83,-128.3 2491.83,-121.3"/>
</g>
<!-- DashboardUc -->
<g id="node12" class="node">
<title>DashboardUc</title>
<ellipse fill="#fdb462" stroke="black" cx="3111" cy="-66.8" rx="64.26" ry="18"/>
<text text-anchor="middle" x="3111" y="-62.6" font-family="Times,serif" font-size="14.00">DashboardUc</text>
</g>
<!-- DashboardUc&#45;&gt;LearnroomModule -->
<g id="edge11" class="edge">
<title>DashboardUc&#45;&gt;LearnroomModule</title>
<path fill="none" stroke="black" d="M3111,-84.81C3111,-100.85 3111,-121.8 3111,-121.8 3111,-121.8 2491.93,-121.8 2491.93,-121.8"/>
<polygon fill="black" stroke="black" points="2491.93,-118.3 2481.93,-121.8 2491.93,-125.3 2491.93,-118.3"/>
</g>
<!-- EtherpadService -->
<g id="node13" class="node">
<title>EtherpadService</title>
<ellipse fill="#fdb462" stroke="black" cx="2954" cy="-66.8" rx="74.7" ry="18"/>
<text text-anchor="middle" x="2954" y="-62.6" font-family="Times,serif" font-size="14.00">EtherpadService</text>
</g>
<!-- EtherpadService&#45;&gt;LearnroomModule -->
<g id="edge12" class="edge">
<title>EtherpadService&#45;&gt;LearnroomModule</title>
<path fill="none" stroke="black" d="M2954,-85.04C2954,-100.37 2954,-119.8 2954,-119.8 2954,-119.8 2491.88,-119.8 2491.88,-119.8"/>
<polygon fill="black" stroke="black" points="2491.88,-116.3 2481.88,-119.8 2491.88,-123.3 2491.88,-116.3"/>
</g>
<!-- FeathersServiceProvider -->
<g id="node14" class="node">
<title>FeathersServiceProvider</title>
<ellipse fill="#fdb462" stroke="black" cx="2755" cy="-66.8" rx="105.93" ry="18"/>
<text text-anchor="middle" x="2755" y="-62.6" font-family="Times,serif" font-size="14.00">FeathersServiceProvider</text>
</g>
<!-- FeathersServiceProvider&#45;&gt;LearnroomModule -->
<g id="edge13" class="edge">
<title>FeathersServiceProvider&#45;&gt;LearnroomModule</title>
<path fill="none" stroke="black" d="M2755,-84.85C2755,-99.17 2755,-116.8 2755,-116.8 2755,-116.8 2491.87,-116.8 2491.87,-116.8"/>
<polygon fill="black" stroke="black" points="2491.87,-113.3 2481.87,-116.8 2491.87,-120.3 2491.87,-113.3"/>
</g>
<!-- FileCopyAppendService -->
<g id="node15" class="node">
<title>FileCopyAppendService</title>
<ellipse fill="#fdb462" stroke="black" cx="2525" cy="-66.8" rx="106.53" ry="18"/>
<text text-anchor="middle" x="2525" y="-62.6" font-family="Times,serif" font-size="14.00">FileCopyAppendService</text>
</g>
<!-- FileCopyAppendService&#45;&gt;LearnroomModule -->
<g id="edge14" class="edge">
<title>FileCopyAppendService&#45;&gt;LearnroomModule</title>
<path fill="none" stroke="black" d="M2450.18,-79.64C2450.18,-79.64 2450.18,-103.32 2450.18,-103.32"/>
<polygon fill="black" stroke="black" points="2446.68,-103.32 2450.18,-113.32 2453.68,-103.32 2446.68,-103.32"/>
</g>
<!-- FileLegacyService -->
<g id="node16" class="node">
<title>FileLegacyService</title>
<ellipse fill="#fdb462" stroke="black" cx="2317" cy="-66.8" rx="83.36" ry="18"/>
<text text-anchor="middle" x="2317" y="-62.6" font-family="Times,serif" font-size="14.00">FileLegacyService</text>
</g>
<!-- FileLegacyService&#45;&gt;LearnroomModule -->
<g id="edge15" class="edge">
<title>FileLegacyService&#45;&gt;LearnroomModule</title>
<path fill="none" stroke="black" d="M2380.28,-78.72C2380.28,-78.72 2380.28,-103.57 2380.28,-103.57"/>
<polygon fill="black" stroke="black" points="2376.78,-103.57 2380.28,-113.57 2383.78,-103.57 2376.78,-103.57"/>
</g>
<!-- LessonCopyService -->
<g id="node17" class="node">
<title>LessonCopyService</title>
<ellipse fill="#fdb462" stroke="black" cx="2127" cy="-66.8" rx="88.06" ry="18"/>
<text text-anchor="middle" x="2127" y="-62.6" font-family="Times,serif" font-size="14.00">LessonCopyService</text>
</g>
<!-- LessonCopyService&#45;&gt;LearnroomModule -->
<g id="edge16" class="edge">
<title>LessonCopyService&#45;&gt;LearnroomModule</title>
<path fill="none" stroke="black" d="M2127,-84.85C2127,-99.17 2127,-116.8 2127,-116.8 2127,-116.8 2350.08,-116.8 2350.08,-116.8"/>
<polygon fill="black" stroke="black" points="2350.08,-120.3 2360.08,-116.8 2350.08,-113.3 2350.08,-120.3"/>
</g>
<!-- LessonCopyUC -->
<g id="node18" class="node">
<title>LessonCopyUC</title>
<ellipse fill="#fdb462" stroke="black" cx="1948" cy="-66.8" rx="72.97" ry="18"/>
<text text-anchor="middle" x="1948" y="-62.6" font-family="Times,serif" font-size="14.00">LessonCopyUC</text>
</g>
<!-- LessonCopyUC&#45;&gt;LearnroomModule -->
<g id="edge17" class="edge">
<title>LessonCopyUC&#45;&gt;LearnroomModule</title>
<path fill="none" stroke="black" d="M1948,-85.04C1948,-100.37 1948,-119.8 1948,-119.8 1948,-119.8 2350.13,-119.8 2350.13,-119.8"/>
<polygon fill="black" stroke="black" points="2350.13,-123.3 2360.13,-119.8 2350.13,-116.3 2350.13,-123.3"/>
</g>
<!-- LessonRepo -->
<g id="node19" class="node">
<title>LessonRepo</title>
<ellipse fill="#fdb462" stroke="black" cx="1798" cy="-66.8" rx="58.56" ry="18"/>
<text text-anchor="middle" x="1798" y="-62.6" font-family="Times,serif" font-size="14.00">LessonRepo</text>
</g>
<!-- LessonRepo&#45;&gt;LearnroomModule -->
<g id="edge18" class="edge">
<title>LessonRepo&#45;&gt;LearnroomModule</title>
<path fill="none" stroke="black" d="M1798,-84.81C1798,-100.85 1798,-121.8 1798,-121.8 1798,-121.8 2350.13,-121.8 2350.13,-121.8"/>
<polygon fill="black" stroke="black" points="2350.13,-125.3 2360.13,-121.8 2350.13,-118.3 2350.13,-125.3"/>
</g>
<!-- Logger -->
<g id="node20" class="node">
<title>Logger</title>
<ellipse fill="#fdb462" stroke="black" cx="1682" cy="-66.8" rx="38.85" ry="18"/>
<text text-anchor="middle" x="1682" y="-62.6" font-family="Times,serif" font-size="14.00">Logger</text>
</g>
<!-- Logger&#45;&gt;LearnroomModule -->
<g id="edge19" class="edge">
<title>Logger&#45;&gt;LearnroomModule</title>
<path fill="none" stroke="black" d="M1682,-84.83C1682,-101.86 1682,-124.8 1682,-124.8 1682,-124.8 2350.21,-124.8 2350.21,-124.8"/>
<polygon fill="black" stroke="black" points="2350.21,-128.3 2360.21,-124.8 2350.21,-121.3 2350.21,-128.3"/>
</g>
<!-- NexboardService -->
<g id="node21" class="node">
<title>NexboardService</title>
<ellipse fill="#fdb462" stroke="black" cx="1547" cy="-66.8" rx="78.14" ry="18"/>
<text text-anchor="middle" x="1547" y="-62.6" font-family="Times,serif" font-size="14.00">NexboardService</text>
</g>
<!-- NexboardService&#45;&gt;LearnroomModule -->
<g id="edge20" class="edge">
<title>NexboardService&#45;&gt;LearnroomModule</title>
<path fill="none" stroke="black" d="M1547,-84.8C1547,-102.48 1547,-126.8 1547,-126.8 1547,-126.8 2350.24,-126.8 2350.24,-126.8"/>
<polygon fill="black" stroke="black" points="2350.24,-130.3 2360.24,-126.8 2350.24,-123.3 2350.24,-130.3"/>
</g>
<!-- RoomBoardDTOFactory -->
<g id="node22" class="node">
<title>RoomBoardDTOFactory</title>
<ellipse fill="#fdb462" stroke="black" cx="1343" cy="-66.8" rx="107.68" ry="18"/>
<text text-anchor="middle" x="1343" y="-62.6" font-family="Times,serif" font-size="14.00">RoomBoardDTOFactory</text>
</g>
<!-- RoomBoardDTOFactory&#45;&gt;LearnroomModule -->
<g id="edge21" class="edge">
<title>RoomBoardDTOFactory&#45;&gt;LearnroomModule</title>
<path fill="none" stroke="black" d="M1343,-85.02C1343,-103.63 1343,-129.8 1343,-129.8 1343,-129.8 2349.95,-129.8 2349.95,-129.8"/>
<polygon fill="black" stroke="black" points="2349.95,-133.3 2359.95,-129.8 2349.95,-126.3 2349.95,-133.3"/>
</g>
<!-- RoomBoardResponseMapper -->
<g id="node23" class="node">
<title>RoomBoardResponseMapper</title>
<ellipse fill="#fdb462" stroke="black" cx="1092" cy="-66.8" rx="125.09" ry="18"/>
<text text-anchor="middle" x="1092" y="-62.6" font-family="Times,serif" font-size="14.00">RoomBoardResponseMapper</text>
</g>
<!-- RoomBoardResponseMapper&#45;&gt;LearnroomModule -->
<g id="edge22" class="edge">
<title>RoomBoardResponseMapper&#45;&gt;LearnroomModule</title>
<path fill="none" stroke="black" d="M1092,-84.91C1092,-104.14 1092,-131.8 1092,-131.8 1092,-131.8 2350,-131.8 2350,-131.8"/>
<polygon fill="black" stroke="black" points="2350,-135.3 2360,-131.8 2350,-128.3 2350,-135.3"/>
</g>
<!-- RoomsAuthorisationService -->
<g id="node24" class="node">
<title>RoomsAuthorisationService</title>
<ellipse fill="#fdb462" stroke="black" cx="828" cy="-66.8" rx="120.44" ry="18"/>
<text text-anchor="middle" x="828" y="-62.6" font-family="Times,serif" font-size="14.00">RoomsAuthorisationService</text>
</g>
<!-- RoomsAuthorisationService&#45;&gt;LearnroomModule -->
<g id="edge23" class="edge">
<title>RoomsAuthorisationService&#45;&gt;LearnroomModule</title>
<path fill="none" stroke="black" d="M828,-85.02C828,-105.17 828,-134.8 828,-134.8 828,-134.8 2350.01,-134.8 2350.01,-134.8"/>
<polygon fill="black" stroke="black" points="2350.01,-138.3 2360.01,-134.8 2350.01,-131.3 2350.01,-138.3"/>
</g>
<!-- RoomsService -->
<g id="node25" class="node">
<title>RoomsService</title>
<ellipse fill="#fdb462" stroke="black" cx="622" cy="-66.8" rx="67.22" ry="18"/>
<text text-anchor="middle" x="622" y="-62.6" font-family="Times,serif" font-size="14.00">RoomsService</text>
</g>
<!-- RoomsService&#45;&gt;LearnroomModule -->
<g id="edge24" class="edge">
<title>RoomsService&#45;&gt;LearnroomModule</title>
<path fill="none" stroke="black" d="M622,-85.08C622,-106.12 622,-137.8 622,-137.8 622,-137.8 2350.11,-137.8 2350.11,-137.8"/>
<polygon fill="black" stroke="black" points="2350.11,-141.3 2360.11,-137.8 2350.11,-134.3 2350.11,-141.3"/>
</g>
<!-- RoomsUc -->
<g id="node26" class="node">
<title>RoomsUc</title>
<ellipse fill="#fdb462" stroke="black" cx="487" cy="-66.8" rx="49.83" ry="18"/>
<text text-anchor="middle" x="487" y="-62.6" font-family="Times,serif" font-size="14.00">RoomsUc</text>
</g>
<!-- RoomsUc&#45;&gt;LearnroomModule -->
<g id="edge25" class="edge">
<title>RoomsUc&#45;&gt;LearnroomModule</title>
<path fill="none" stroke="black" d="M487,-84.84C487,-106.46 487,-139.8 487,-139.8 487,-139.8 2350.19,-139.8 2350.19,-139.8"/>
<polygon fill="black" stroke="black" points="2350.19,-143.3 2360.19,-139.8 2350.19,-136.3 2350.19,-143.3"/>
</g>
<!-- TaskCopyService -->
<g id="node27" class="node">
<title>TaskCopyService</title>
<ellipse fill="#fdb462" stroke="black" cx="340" cy="-66.8" rx="79.88" ry="18"/>
<text text-anchor="middle" x="340" y="-62.6" font-family="Times,serif" font-size="14.00">TaskCopyService</text>
</g>
<!-- TaskCopyService&#45;&gt;LearnroomModule -->
<g id="edge26" class="edge">
<title>TaskCopyService&#45;&gt;LearnroomModule</title>
<path fill="none" stroke="black" d="M340,-84.81C340,-107.29 340,-142.8 340,-142.8 340,-142.8 2350.13,-142.8 2350.13,-142.8"/>
<polygon fill="black" stroke="black" points="2350.13,-146.3 2360.13,-142.8 2350.13,-139.3 2350.13,-146.3"/>
</g>
<!-- TaskRepo -->
<g id="node28" class="node">
<title>TaskRepo</title>
<ellipse fill="#fdb462" stroke="black" cx="192" cy="-66.8" rx="50.39" ry="18"/>
<text text-anchor="middle" x="192" y="-62.6" font-family="Times,serif" font-size="14.00">TaskRepo</text>
</g>
<!-- TaskRepo&#45;&gt;LearnroomModule -->
<g id="edge27" class="edge">
<title>TaskRepo&#45;&gt;LearnroomModule</title>
<path fill="none" stroke="black" d="M192,-84.89C192,-107.93 192,-144.8 192,-144.8 192,-144.8 2350.22,-144.8 2350.22,-144.8"/>
<polygon fill="black" stroke="black" points="2350.22,-148.3 2360.22,-144.8 2350.22,-141.3 2350.22,-148.3"/>
</g>
<!-- UserRepo -->
<g id="node29" class="node">
<title>UserRepo</title>
<ellipse fill="#fdb462" stroke="black" cx="74" cy="-66.8" rx="49.81" ry="18"/>
<text text-anchor="middle" x="74" y="-62.6" font-family="Times,serif" font-size="14.00">UserRepo</text>
</g>
<!-- UserRepo&#45;&gt;LearnroomModule -->
<g id="edge28" class="edge">
<title>UserRepo&#45;&gt;LearnroomModule</title>
<path fill="none" stroke="black" d="M74,-85.18C74,-109.08 74,-147.8 74,-147.8 74,-147.8 2350.03,-147.8 2350.03,-147.8"/>
<polygon fill="black" stroke="black" points="2350.03,-151.3 2360.03,-147.8 2350.03,-144.3 2350.03,-151.3"/>
</g>
</g>
</svg>
