<?xml version="1.0" encoding="UTF-8" standalone="no"?>
<!DOCTYPE svg PUBLIC "-//W3C//DTD SVG 1.1//EN"
 "http://www.w3.org/Graphics/SVG/1.1/DTD/svg11.dtd">
<!-- Generated by graphviz version 2.47.3 (20210619.1520)
 -->
<!-- Title: dependencies Pages: 1 -->
<svg width="657pt" height="247pt"
 viewBox="0.00 0.00 657.00 246.80" xmlns="http://www.w3.org/2000/svg" xmlns:xlink="http://www.w3.org/1999/xlink">
<g id="graph0" class="graph" transform="scale(1 1) rotate(0) translate(4 242.8)">
<title>dependencies</title>
<polygon fill="white" stroke="transparent" points="-4,4 -4,-242.8 653,-242.8 653,4 -4,4"/>
<text text-anchor="middle" x="324.5" y="-8.2" font-family="sans-serif" font-size="14.00">dependencies</text>
<g id="clust1" class="cluster">
<title>cluster_LearnroomModule</title>
<polygon fill="none" stroke="black" stroke-dasharray="1,5" points="8,-32.8 8,-230.8 641,-230.8 641,-32.8 8,-32.8"/>
</g>
<g id="clust4" class="cluster">
<title>cluster_LearnroomModule_exports</title>
<polygon fill="none" stroke="black" points="292,-170.8 292,-222.8 430,-222.8 430,-170.8 292,-170.8"/>
</g>
<g id="clust6" class="cluster">
<title>cluster_LearnroomModule_providers</title>
<polygon fill="none" stroke="black" points="16,-40.8 16,-92.8 633,-92.8 633,-40.8 16,-40.8"/>
</g>
<!-- LearnroomFacade  -->
<g id="node1" class="node">
<title>LearnroomFacade </title>
<polygon fill="#fb8072" stroke="black" points="421.84,-214.8 300.16,-214.8 300.16,-178.8 421.84,-178.8 421.84,-214.8"/>
<text text-anchor="middle" x="361" y="-192.6" font-family="Times,serif" font-size="14.00">LearnroomFacade </text>
</g>
<!-- LearnroomModule -->
<g id="node2" class="node">
<title>LearnroomModule</title>
<polygon fill="#8dd3c7" stroke="black" points="421.74,-149.8 418.74,-153.8 397.74,-153.8 394.74,-149.8 300.26,-149.8 300.26,-113.8 421.74,-113.8 421.74,-149.8"/>
<text text-anchor="middle" x="361" y="-127.6" font-family="Times,serif" font-size="14.00">LearnroomModule</text>
</g>
<!-- LearnroomModule&#45;&gt;LearnroomFacade  -->
<g id="edge1" class="edge">
<title>LearnroomModule&#45;&gt;LearnroomFacade </title>
<path fill="none" stroke="black" stroke-dasharray="5,2" d="M361,-149.91C361,-149.91 361,-168.79 361,-168.79"/>
<polygon fill="black" stroke="black" points="357.5,-168.79 361,-178.79 364.5,-168.79 357.5,-168.79"/>
</g>
<!-- CourseRepo -->
<g id="node3" class="node">
<title>CourseRepo</title>
<ellipse fill="#fdb462" stroke="black" cx="566" cy="-66.8" rx="58.55" ry="18"/>
<text text-anchor="middle" x="566" y="-62.6" font-family="Times,serif" font-size="14.00">CourseRepo</text>
</g>
<!-- CourseRepo&#45;&gt;LearnroomModule -->
<g id="edge2" class="edge">
<title>CourseRepo&#45;&gt;LearnroomModule</title>
<path fill="none" stroke="black" d="M566,-84.91C566,-104.14 566,-131.8 566,-131.8 566,-131.8 431.95,-131.8 431.95,-131.8"/>
<polygon fill="black" stroke="black" points="431.95,-128.3 421.95,-131.8 431.95,-135.3 431.95,-128.3"/>
</g>
<!-- CourseUC -->
<g id="node4" class="node">
<title>CourseUC</title>
<ellipse fill="#fdb462" stroke="black" cx="437" cy="-66.8" rx="51.61" ry="18"/>
<text text-anchor="middle" x="437" y="-62.6" font-family="Times,serif" font-size="14.00">CourseUC</text>
</g>
<!-- CourseUC&#45;&gt;LearnroomModule -->
<g id="edge3" class="edge">
<title>CourseUC&#45;&gt;LearnroomModule</title>
<path fill="none" stroke="black" d="M403.53,-80.58C403.53,-80.58 403.53,-103.35 403.53,-103.35"/>
<polygon fill="black" stroke="black" points="400.03,-103.35 403.53,-113.35 407.03,-103.35 400.03,-103.35"/>
</g>
<!-- CoursegroupRepo -->
<g id="node5" class="node">
<title>CoursegroupRepo</title>
<ellipse fill="#fdb462" stroke="black" cx="286" cy="-66.8" rx="81.11" ry="18"/>
<text text-anchor="middle" x="286" y="-62.6" font-family="Times,serif" font-size="14.00">CoursegroupRepo</text>
</g>
<!-- CoursegroupRepo&#45;&gt;LearnroomModule -->
<g id="edge4" class="edge">
<title>CoursegroupRepo&#45;&gt;LearnroomModule</title>
<path fill="none" stroke="black" d="M333.72,-81.55C333.72,-81.55 333.72,-103.39 333.72,-103.39"/>
<polygon fill="black" stroke="black" points="330.22,-103.39 333.72,-113.39 337.22,-103.39 330.22,-103.39"/>
</g>
<!-- LearnroomFacade -->
<g id="node6" class="node">
<title>LearnroomFacade</title>
<ellipse fill="#fdb462" stroke="black" cx="105" cy="-66.8" rx="81.06" ry="18"/>
<text text-anchor="middle" x="105" y="-62.6" font-family="Times,serif" font-size="14.00">LearnroomFacade</text>
</g>
<!-- LearnroomFacade&#45;&gt;LearnroomModule -->
<g id="edge5" class="edge">
<title>LearnroomFacade&#45;&gt;LearnroomModule</title>
<path fill="none" stroke="black" d="M105,-84.91C105,-104.14 105,-131.8 105,-131.8 105,-131.8 290.01,-131.8 290.01,-131.8"/>
<polygon fill="black" stroke="black" points="290.01,-135.3 300.01,-131.8 290.01,-128.3 290.01,-135.3"/>
</g>
</g>
</svg>
