<?xml version="1.0" encoding="UTF-8" standalone="no"?>
<!DOCTYPE svg PUBLIC "-//W3C//DTD SVG 1.1//EN"
 "http://www.w3.org/Graphics/SVG/1.1/DTD/svg11.dtd">
<!-- Generated by graphviz version 3.0.0 (20220226.1711)
 -->
<!-- Title: dependencies Pages: 1 -->
<svg width="3281pt" height="174pt"
 viewBox="0.00 0.00 3281.00 173.80" xmlns="http://www.w3.org/2000/svg" xmlns:xlink="http://www.w3.org/1999/xlink">
<g id="graph0" class="graph" transform="scale(1 1) rotate(0) translate(4 169.8)">
<title>dependencies</title>
<polygon fill="white" stroke="transparent" points="-4,4 -4,-169.8 3277,-169.8 3277,4 -4,4"/>
<text text-anchor="middle" x="1636.5" y="-8.2" font-family="sans-serif" font-size="14.00">dependencies</text>
<g id="clust1" class="cluster">
<title>cluster_LearnroomModule</title>
<polygon fill="none" stroke="black" stroke-dasharray="1,5" points="8,-32.8 8,-157.8 3265,-157.8 3265,-32.8 8,-32.8"/>
</g>
<g id="clust6" class="cluster">
<title>cluster_LearnroomModule_providers</title>
<polygon fill="none" stroke="black" points="178,-40.8 178,-92.8 3257,-92.8 3257,-40.8 178,-40.8"/>
</g>
<g id="clust3" class="cluster">
<title>cluster_LearnroomModule_imports</title>
<polygon fill="none" stroke="black" points="16,-40.8 16,-92.8 170,-92.8 170,-40.8 16,-40.8"/>
</g>
<!-- AuthorizationModule -->
<g id="node1" class="node">
<title>AuthorizationModule</title>
<polygon fill="#8dd3c7" stroke="black" points="161.81,-84.8 158.81,-88.8 137.81,-88.8 134.81,-84.8 24.19,-84.8 24.19,-48.8 161.81,-48.8 161.81,-84.8"/>
<text text-anchor="middle" x="93" y="-62.6" font-family="Times,serif" font-size="14.00">AuthorizationModule</text>
</g>
<!-- LearnroomModule -->
<g id="node2" class="node">
<title>LearnroomModule</title>
<polygon fill="#8dd3c7" stroke="black" points="1749.75,-149.8 1746.75,-153.8 1725.75,-153.8 1722.75,-149.8 1628.25,-149.8 1628.25,-113.8 1749.75,-113.8 1749.75,-149.8"/>
<text text-anchor="middle" x="1689" y="-127.6" font-family="Times,serif" font-size="14.00">LearnroomModule</text>
</g>
<!-- AuthorizationModule&#45;&gt;LearnroomModule -->
<g id="edge1" class="edge">
<title>AuthorizationModule&#45;&gt;LearnroomModule</title>
<path fill="none" stroke="black" d="M93,-84.95C93,-108.56 93,-146.8 93,-146.8 93,-146.8 1617.9,-146.8 1617.9,-146.8"/>
<polygon fill="black" stroke="black" points="1617.9,-150.3 1627.9,-146.8 1617.9,-143.3 1617.9,-150.3"/>
</g>
<!-- BoardCopyService -->
<g id="node3" class="node">
<title>BoardCopyService</title>
<ellipse fill="#fdb462" stroke="black" cx="3164" cy="-66.8" rx="84.54" ry="18"/>
<text text-anchor="middle" x="3164" y="-62.6" font-family="Times,serif" font-size="14.00">BoardCopyService</text>
</g>
<!-- BoardCopyService&#45;&gt;LearnroomModule -->
<g id="edge2" class="edge">
<title>BoardCopyService&#45;&gt;LearnroomModule</title>
<path fill="none" stroke="black" d="M3164,-84.95C3164,-108.56 3164,-146.8 3164,-146.8 3164,-146.8 1760.04,-146.8 1760.04,-146.8"/>
<polygon fill="black" stroke="black" points="1760.04,-143.3 1750.04,-146.8 1760.04,-150.3 1760.04,-143.3"/>
</g>
<!-- BoardRepo -->
<g id="node4" class="node">
<title>BoardRepo</title>
<ellipse fill="#fdb462" stroke="black" cx="3006" cy="-66.8" rx="55.04" ry="18"/>
<text text-anchor="middle" x="3006" y="-62.6" font-family="Times,serif" font-size="14.00">BoardRepo</text>
</g>
<!-- BoardRepo&#45;&gt;LearnroomModule -->
<g id="edge3" class="edge">
<title>BoardRepo&#45;&gt;LearnroomModule</title>
<path fill="none" stroke="black" d="M3006,-84.81C3006,-107.29 3006,-142.8 3006,-142.8 3006,-142.8 1759.88,-142.8 1759.88,-142.8"/>
<polygon fill="black" stroke="black" points="1759.88,-139.3 1749.88,-142.8 1759.88,-146.3 1759.88,-139.3"/>
</g>
<!-- CourseCopyService -->
<g id="node5" class="node">
<title>CourseCopyService</title>
<ellipse fill="#fdb462" stroke="black" cx="2845" cy="-66.8" rx="88.06" ry="18"/>
<text text-anchor="middle" x="2845" y="-62.6" font-family="Times,serif" font-size="14.00">CourseCopyService</text>
</g>
<!-- CourseCopyService&#45;&gt;LearnroomModule -->
<g id="edge4" class="edge">
<title>CourseCopyService&#45;&gt;LearnroomModule</title>
<path fill="none" stroke="black" d="M2845,-84.84C2845,-106.46 2845,-139.8 2845,-139.8 2845,-139.8 1759.93,-139.8 1759.93,-139.8"/>
<polygon fill="black" stroke="black" points="1759.93,-136.3 1749.93,-139.8 1759.93,-143.3 1759.93,-136.3"/>
</g>
<!-- CourseCopyUC -->
<g id="node6" class="node">
<title>CourseCopyUC</title>
<ellipse fill="#fdb462" stroke="black" cx="2666" cy="-66.8" rx="72.97" ry="18"/>
<text text-anchor="middle" x="2666" y="-62.6" font-family="Times,serif" font-size="14.00">CourseCopyUC</text>
</g>
<!-- CourseCopyUC&#45;&gt;LearnroomModule -->
<g id="edge5" class="edge">
<title>CourseCopyUC&#45;&gt;LearnroomModule</title>
<path fill="none" stroke="black" d="M2666,-84.93C2666,-105.37 2666,-135.8 2666,-135.8 2666,-135.8 1759.75,-135.8 1759.75,-135.8"/>
<polygon fill="black" stroke="black" points="1759.75,-132.3 1749.75,-135.8 1759.75,-139.3 1759.75,-132.3"/>
</g>
<!-- CourseRepo -->
<g id="node7" class="node">
<title>CourseRepo</title>
<ellipse fill="#fdb462" stroke="black" cx="2516" cy="-66.8" rx="58.56" ry="18"/>
<text text-anchor="middle" x="2516" y="-62.6" font-family="Times,serif" font-size="14.00">CourseRepo</text>
</g>
<!-- CourseRepo&#45;&gt;LearnroomModule -->
<g id="edge6" class="edge">
<title>CourseRepo&#45;&gt;LearnroomModule</title>
<path fill="none" stroke="black" d="M2516,-84.91C2516,-104.14 2516,-131.8 2516,-131.8 2516,-131.8 1759.81,-131.8 1759.81,-131.8"/>
<polygon fill="black" stroke="black" points="1759.81,-128.3 1749.81,-131.8 1759.81,-135.3 1759.81,-128.3"/>
</g>
<!-- CourseUc -->
<g id="node8" class="node">
<title>CourseUc</title>
<ellipse fill="#fdb462" stroke="black" cx="2390" cy="-66.8" rx="49.81" ry="18"/>
<text text-anchor="middle" x="2390" y="-62.6" font-family="Times,serif" font-size="14.00">CourseUc</text>
</g>
<!-- CourseUc&#45;&gt;LearnroomModule -->
<g id="edge7" class="edge">
<title>CourseUc&#45;&gt;LearnroomModule</title>
<path fill="none" stroke="black" d="M2390,-85.07C2390,-103.36 2390,-128.8 2390,-128.8 2390,-128.8 1759.98,-128.8 1759.98,-128.8"/>
<polygon fill="black" stroke="black" points="1759.98,-125.3 1749.98,-128.8 1759.98,-132.3 1759.98,-125.3"/>
</g>
<!-- DashboardModelMapper -->
<g id="node9" class="node">
<title>DashboardModelMapper</title>
<ellipse fill="#fdb462" stroke="black" cx="2214" cy="-66.8" rx="108.23" ry="18"/>
<text text-anchor="middle" x="2214" y="-62.6" font-family="Times,serif" font-size="14.00">DashboardModelMapper</text>
</g>
<!-- DashboardModelMapper&#45;&gt;LearnroomModule -->
<g id="edge8" class="edge">
<title>DashboardModelMapper&#45;&gt;LearnroomModule</title>
<path fill="none" stroke="black" d="M2214,-84.83C2214,-101.86 2214,-124.8 2214,-124.8 2214,-124.8 1759.99,-124.8 1759.99,-124.8"/>
<polygon fill="black" stroke="black" points="1759.99,-121.3 1749.99,-124.8 1759.99,-128.3 1759.99,-121.3"/>
</g>
<!-- DashboardUc -->
<g id="node10" class="node">
<title>DashboardUc</title>
<ellipse fill="#fdb462" stroke="black" cx="2024" cy="-66.8" rx="64.26" ry="18"/>
<text text-anchor="middle" x="2024" y="-62.6" font-family="Times,serif" font-size="14.00">DashboardUc</text>
</g>
<!-- DashboardUc&#45;&gt;LearnroomModule -->
<g id="edge9" class="edge">
<title>DashboardUc&#45;&gt;LearnroomModule</title>
<path fill="none" stroke="black" d="M2024,-84.81C2024,-100.85 2024,-121.8 2024,-121.8 2024,-121.8 1760.05,-121.8 1760.05,-121.8"/>
<polygon fill="black" stroke="black" points="1760.05,-118.3 1750.05,-121.8 1760.05,-125.3 1760.05,-118.3"/>
</g>
<!-- LessonCopyService -->
<g id="node11" class="node">
<title>LessonCopyService</title>
<ellipse fill="#fdb462" stroke="black" cx="1854" cy="-66.8" rx="88.06" ry="18"/>
<text text-anchor="middle" x="1854" y="-62.6" font-family="Times,serif" font-size="14.00">LessonCopyService</text>
</g>
<!-- LessonCopyService&#45;&gt;LearnroomModule -->
<g id="edge10" class="edge">
<title>LessonCopyService&#45;&gt;LearnroomModule</title>
<path fill="none" stroke="black" d="M1854,-84.92C1854,-99.58 1854,-117.8 1854,-117.8 1854,-117.8 1759.97,-117.8 1759.97,-117.8"/>
<polygon fill="black" stroke="black" points="1759.97,-114.3 1749.97,-117.8 1759.97,-121.3 1759.97,-114.3"/>
</g>
<!-- LessonRepo -->
<g id="node12" class="node">
<title>LessonRepo</title>
<ellipse fill="#fdb462" stroke="black" cx="1689" cy="-66.8" rx="58.56" ry="18"/>
<text text-anchor="middle" x="1689" y="-62.6" font-family="Times,serif" font-size="14.00">LessonRepo</text>
</g>
<!-- LessonRepo&#45;&gt;LearnroomModule -->
<g id="edge11" class="edge">
<title>LessonRepo&#45;&gt;LearnroomModule</title>
<path fill="none" stroke="black" d="M1689,-84.91C1689,-84.91 1689,-103.79 1689,-103.79"/>
<polygon fill="black" stroke="black" points="1685.5,-103.79 1689,-113.79 1692.5,-103.79 1685.5,-103.79"/>
</g>
<!-- RoomBoardDTOFactory -->
<g id="node13" class="node">
<title>RoomBoardDTOFactory</title>
<ellipse fill="#fdb462" stroke="black" cx="1505" cy="-66.8" rx="107.68" ry="18"/>
<text text-anchor="middle" x="1505" y="-62.6" font-family="Times,serif" font-size="14.00">RoomBoardDTOFactory</text>
</g>
<!-- RoomBoardDTOFactory&#45;&gt;LearnroomModule -->
<g id="edge12" class="edge">
<title>RoomBoardDTOFactory&#45;&gt;LearnroomModule</title>
<path fill="none" stroke="black" d="M1505,-84.92C1505,-99.58 1505,-117.8 1505,-117.8 1505,-117.8 1618.24,-117.8 1618.24,-117.8"/>
<polygon fill="black" stroke="black" points="1618.24,-121.3 1628.24,-117.8 1618.24,-114.3 1618.24,-121.3"/>
</g>
<!-- RoomBoardResponseMapper -->
<g id="node14" class="node">
<title>RoomBoardResponseMapper</title>
<ellipse fill="#fdb462" stroke="black" cx="1254" cy="-66.8" rx="125.09" ry="18"/>
<text text-anchor="middle" x="1254" y="-62.6" font-family="Times,serif" font-size="14.00">RoomBoardResponseMapper</text>
</g>
<!-- RoomBoardResponseMapper&#45;&gt;LearnroomModule -->
<g id="edge13" class="edge">
<title>RoomBoardResponseMapper&#45;&gt;LearnroomModule</title>
<path fill="none" stroke="black" d="M1254,-84.81C1254,-100.85 1254,-121.8 1254,-121.8 1254,-121.8 1618.06,-121.8 1618.06,-121.8"/>
<polygon fill="black" stroke="black" points="1618.06,-125.3 1628.06,-121.8 1618.06,-118.3 1618.06,-125.3"/>
</g>
<!-- RoomsAuthorisationService -->
<g id="node15" class="node">
<title>RoomsAuthorisationService</title>
<ellipse fill="#fdb462" stroke="black" cx="990" cy="-66.8" rx="120.44" ry="18"/>
<text text-anchor="middle" x="990" y="-62.6" font-family="Times,serif" font-size="14.00">RoomsAuthorisationService</text>
</g>
<!-- RoomsAuthorisationService&#45;&gt;LearnroomModule -->
<g id="edge14" class="edge">
<title>RoomsAuthorisationService&#45;&gt;LearnroomModule</title>
<path fill="none" stroke="black" d="M990,-84.83C990,-101.86 990,-124.8 990,-124.8 990,-124.8 1618.19,-124.8 1618.19,-124.8"/>
<polygon fill="black" stroke="black" points="1618.19,-128.3 1628.19,-124.8 1618.19,-121.3 1618.19,-128.3"/>
</g>
<!-- RoomsService -->
<g id="node16" class="node">
<title>RoomsService</title>
<ellipse fill="#fdb462" stroke="black" cx="784" cy="-66.8" rx="67.22" ry="18"/>
<text text-anchor="middle" x="784" y="-62.6" font-family="Times,serif" font-size="14.00">RoomsService</text>
</g>
<!-- RoomsService&#45;&gt;LearnroomModule -->
<g id="edge15" class="edge">
<title>RoomsService&#45;&gt;LearnroomModule</title>
<path fill="none" stroke="black" d="M784,-85.07C784,-103.36 784,-128.8 784,-128.8 784,-128.8 1618.22,-128.8 1618.22,-128.8"/>
<polygon fill="black" stroke="black" points="1618.22,-132.3 1628.22,-128.8 1618.22,-125.3 1618.22,-132.3"/>
</g>
<!-- RoomsUc -->
<g id="node17" class="node">
<title>RoomsUc</title>
<ellipse fill="#fdb462" stroke="black" cx="649" cy="-66.8" rx="49.83" ry="18"/>
<text text-anchor="middle" x="649" y="-62.6" font-family="Times,serif" font-size="14.00">RoomsUc</text>
</g>
<!-- RoomsUc&#45;&gt;LearnroomModule -->
<g id="edge16" class="edge">
<title>RoomsUc&#45;&gt;LearnroomModule</title>
<path fill="none" stroke="black" d="M649,-84.91C649,-104.14 649,-131.8 649,-131.8 649,-131.8 1618.21,-131.8 1618.21,-131.8"/>
<polygon fill="black" stroke="black" points="1618.21,-135.3 1628.21,-131.8 1618.21,-128.3 1618.21,-135.3"/>
</g>
<!-- TaskCopyService -->
<g id="node18" class="node">
<title>TaskCopyService</title>
<ellipse fill="#fdb462" stroke="black" cx="502" cy="-66.8" rx="79.88" ry="18"/>
<text text-anchor="middle" x="502" y="-62.6" font-family="Times,serif" font-size="14.00">TaskCopyService</text>
</g>
<!-- TaskCopyService&#45;&gt;LearnroomModule -->
<g id="edge17" class="edge">
<title>TaskCopyService&#45;&gt;LearnroomModule</title>
<path fill="none" stroke="black" d="M502,-84.93C502,-105.37 502,-135.8 502,-135.8 502,-135.8 1618.09,-135.8 1618.09,-135.8"/>
<polygon fill="black" stroke="black" points="1618.09,-139.3 1628.09,-135.8 1618.09,-132.3 1618.09,-139.3"/>
</g>
<!-- TaskRepo -->
<g id="node19" class="node">
<title>TaskRepo</title>
<ellipse fill="#fdb462" stroke="black" cx="354" cy="-66.8" rx="50.39" ry="18"/>
<text text-anchor="middle" x="354" y="-62.6" font-family="Times,serif" font-size="14.00">TaskRepo</text>
</g>
<!-- TaskRepo&#45;&gt;LearnroomModule -->
<g id="edge18" class="edge">
<title>TaskRepo&#45;&gt;LearnroomModule</title>
<path fill="none" stroke="black" d="M354,-84.84C354,-106.46 354,-139.8 354,-139.8 354,-139.8 1618.17,-139.8 1618.17,-139.8"/>
<polygon fill="black" stroke="black" points="1618.17,-143.3 1628.17,-139.8 1618.17,-136.3 1618.17,-143.3"/>
</g>
<!-- UserRepo -->
<g id="node20" class="node">
<title>UserRepo</title>
<ellipse fill="#fdb462" stroke="black" cx="236" cy="-66.8" rx="49.81" ry="18"/>
<text text-anchor="middle" x="236" y="-62.6" font-family="Times,serif" font-size="14.00">UserRepo</text>
</g>
<!-- UserRepo&#45;&gt;LearnroomModule -->
<g id="edge19" class="edge">
<title>UserRepo&#45;&gt;LearnroomModule</title>
<path fill="none" stroke="black" d="M236,-84.81C236,-107.29 236,-142.8 236,-142.8 236,-142.8 1617.96,-142.8 1617.96,-142.8"/>
<polygon fill="black" stroke="black" points="1617.96,-146.3 1627.96,-142.8 1617.96,-139.3 1617.96,-146.3"/>
</g>
</g>
</svg>
