<?xml version="1.0" encoding="UTF-8" standalone="no"?>
<!DOCTYPE svg PUBLIC "-//W3C//DTD SVG 1.1//EN"
 "http://www.w3.org/Graphics/SVG/1.1/DTD/svg11.dtd">
<!-- Generated by graphviz version 5.0.0 (20220707.1540)
 -->
<!-- Title: dependencies Pages: 1 -->
<svg width="5102pt" height="247pt"
 viewBox="0.00 0.00 5102.00 246.80" xmlns="http://www.w3.org/2000/svg" xmlns:xlink="http://www.w3.org/1999/xlink">
<g id="graph0" class="graph" transform="scale(1 1) rotate(0) translate(4 242.8)">
<title>dependencies</title>
<polygon fill="white" stroke="transparent" points="-4,4 -4,-242.8 5098,-242.8 5098,4 -4,4"/>
<text text-anchor="middle" x="2547" y="-8.2" font-family="sans-serif" font-size="14.00">dependencies</text>
<g id="clust1" class="cluster">
<title>cluster_LearnroomModule</title>
<polygon fill="none" stroke="black" stroke-dasharray="1,5" points="8,-32.8 8,-230.8 5086,-230.8 5086,-32.8 8,-32.8"/>
</g>
<g id="clust6" class="cluster">
<title>cluster_LearnroomModule_providers</title>
<polygon fill="none" stroke="black" points="727,-40.8 727,-92.8 5078,-92.8 5078,-40.8 727,-40.8"/>
</g>
<g id="clust3" class="cluster">
<title>cluster_LearnroomModule_imports</title>
<polygon fill="none" stroke="black" points="16,-40.8 16,-92.8 719,-92.8 719,-40.8 16,-40.8"/>
</g>
<g id="clust4" class="cluster">
<title>cluster_LearnroomModule_exports</title>
<polygon fill="none" stroke="black" points="2191,-170.8 2191,-222.8 2468,-222.8 2468,-170.8 2191,-170.8"/>
</g>
<!-- AuthorizationModule -->
<g id="node1" class="node">
<title>AuthorizationModule</title>
<polygon fill="#8dd3c7" stroke="black" points="710.81,-84.8 707.81,-88.8 686.81,-88.8 683.81,-84.8 573.19,-84.8 573.19,-48.8 710.81,-48.8 710.81,-84.8"/>
<text text-anchor="middle" x="642" y="-62.6" font-family="Times,serif" font-size="14.00">AuthorizationModule</text>
</g>
<!-- LearnroomModule -->
<g id="node6" class="node">
<title>LearnroomModule</title>
<polygon fill="#8dd3c7" stroke="black" points="2384.75,-149.8 2381.75,-153.8 2360.75,-153.8 2357.75,-149.8 2263.25,-149.8 2263.25,-113.8 2384.75,-113.8 2384.75,-149.8"/>
<text text-anchor="middle" x="2324" y="-127.6" font-family="Times,serif" font-size="14.00">LearnroomModule</text>
</g>
<!-- AuthorizationModule&#45;&gt;LearnroomModule -->
<g id="edge1" class="edge">
<title>AuthorizationModule&#45;&gt;LearnroomModule</title>
<path fill="none" stroke="black" d="M642,-84.83C642,-105.57 642,-136.8 642,-136.8 642,-136.8 2253.14,-136.8 2253.14,-136.8"/>
<polygon fill="black" stroke="black" points="2253.14,-140.3 2263.14,-136.8 2253.14,-133.3 2253.14,-140.3"/>
</g>
<!-- CopyHelperModule -->
<g id="node2" class="node">
<title>CopyHelperModule</title>
<polygon fill="#8dd3c7" stroke="black" points="554.98,-84.8 551.98,-88.8 530.98,-88.8 527.98,-84.8 427.02,-84.8 427.02,-48.8 554.98,-48.8 554.98,-84.8"/>
<text text-anchor="middle" x="491" y="-62.6" font-family="Times,serif" font-size="14.00">CopyHelperModule</text>
</g>
<!-- CopyHelperModule&#45;&gt;LearnroomModule -->
<g id="edge2" class="edge">
<title>CopyHelperModule&#45;&gt;LearnroomModule</title>
<path fill="none" stroke="black" d="M491,-84.97C491,-106.3 491,-138.8 491,-138.8 491,-138.8 2253.01,-138.8 2253.01,-138.8"/>
<polygon fill="black" stroke="black" points="2253.01,-142.3 2263.01,-138.8 2253.01,-135.3 2253.01,-142.3"/>
</g>
<!-- FilesStorageClientModule -->
<g id="node3" class="node">
<title>FilesStorageClientModule</title>
<polygon fill="#8dd3c7" stroke="black" points="408.77,-84.8 405.77,-88.8 384.77,-88.8 381.77,-84.8 245.23,-84.8 245.23,-48.8 408.77,-48.8 408.77,-84.8"/>
<text text-anchor="middle" x="327" y="-62.6" font-family="Times,serif" font-size="14.00">FilesStorageClientModule</text>
</g>
<!-- FilesStorageClientModule&#45;&gt;LearnroomModule -->
<g id="edge3" class="edge">
<title>FilesStorageClientModule&#45;&gt;LearnroomModule</title>
<path fill="none" stroke="black" d="M327,-85.09C327,-107.01 327,-140.8 327,-140.8 327,-140.8 2253.14,-140.8 2253.14,-140.8"/>
<polygon fill="black" stroke="black" points="2253.14,-144.3 2263.14,-140.8 2253.14,-137.3 2253.14,-144.3"/>
</g>
<!-- LessonModule -->
<g id="node4" class="node">
<title>LessonModule</title>
<polygon fill="#8dd3c7" stroke="black" points="227.71,-84.8 224.71,-88.8 203.71,-88.8 200.71,-84.8 128.29,-84.8 128.29,-48.8 227.71,-48.8 227.71,-84.8"/>
<text text-anchor="middle" x="178" y="-62.6" font-family="Times,serif" font-size="14.00">LessonModule</text>
</g>
<!-- LessonModule&#45;&gt;LearnroomModule -->
<g id="edge4" class="edge">
<title>LessonModule&#45;&gt;LearnroomModule</title>
<path fill="none" stroke="black" d="M178,-85.05C178,-107.82 178,-143.8 178,-143.8 178,-143.8 2253.23,-143.8 2253.23,-143.8"/>
<polygon fill="black" stroke="black" points="2253.23,-147.3 2263.23,-143.8 2253.23,-140.3 2253.23,-147.3"/>
</g>
<!-- TaskModule -->
<g id="node5" class="node">
<title>TaskModule</title>
<polygon fill="#8dd3c7" stroke="black" points="110.27,-84.8 107.27,-88.8 86.27,-88.8 83.27,-84.8 23.73,-84.8 23.73,-48.8 110.27,-48.8 110.27,-84.8"/>
<text text-anchor="middle" x="67" y="-62.6" font-family="Times,serif" font-size="14.00">TaskModule</text>
</g>
<!-- TaskModule&#45;&gt;LearnroomModule -->
<g id="edge5" class="edge">
<title>TaskModule&#45;&gt;LearnroomModule</title>
<path fill="none" stroke="black" d="M52.54,-85.18C52.54,-109.08 52.54,-147.8 52.54,-147.8 52.54,-147.8 2253.24,-147.8 2253.24,-147.8"/>
<polygon fill="black" stroke="black" points="2253.24,-151.3 2263.24,-147.8 2253.24,-144.3 2253.24,-151.3"/>
</g>
<!-- TaskModule&#45;&gt;LearnroomModule -->
<g id="edge6" class="edge">
<title>TaskModule&#45;&gt;LearnroomModule</title>
<path fill="none" stroke="black" d="M81.46,-85.12C81.46,-108.46 81.46,-145.8 81.46,-145.8 81.46,-145.8 2253.15,-145.8 2253.15,-145.8"/>
<polygon fill="black" stroke="black" points="2253.15,-149.3 2263.15,-145.8 2253.15,-142.3 2253.15,-149.3"/>
</g>
<!-- CourseCopyService  -->
<g id="node7" class="node">
<title>CourseCopyService </title>
<polygon fill="#fb8072" stroke="black" points="2459.98,-214.8 2328.02,-214.8 2328.02,-178.8 2459.98,-178.8 2459.98,-214.8"/>
<text text-anchor="middle" x="2394" y="-192.6" font-family="Times,serif" font-size="14.00">CourseCopyService </text>
</g>
<!-- LearnroomModule&#45;&gt;CourseCopyService  -->
<g id="edge7" class="edge">
<title>LearnroomModule&#45;&gt;CourseCopyService </title>
<path fill="none" stroke="black" stroke-dasharray="5,2" d="M2356.57,-149.91C2356.57,-149.91 2356.57,-168.79 2356.57,-168.79"/>
<polygon fill="black" stroke="black" points="2353.07,-168.79 2356.57,-178.79 2360.07,-168.79 2353.07,-168.79"/>
</g>
<!-- MetadataLoader  -->
<g id="node8" class="node">
<title>MetadataLoader </title>
<polygon fill="#fb8072" stroke="black" points="2310.72,-214.8 2199.28,-214.8 2199.28,-178.8 2310.72,-178.8 2310.72,-214.8"/>
<text text-anchor="middle" x="2255" y="-192.6" font-family="Times,serif" font-size="14.00">MetadataLoader </text>
</g>
<!-- LearnroomModule&#45;&gt;MetadataLoader  -->
<g id="edge8" class="edge">
<title>LearnroomModule&#45;&gt;MetadataLoader </title>
<path fill="none" stroke="black" stroke-dasharray="5,2" d="M2286.87,-149.91C2286.87,-149.91 2286.87,-168.79 2286.87,-168.79"/>
<polygon fill="black" stroke="black" points="2283.37,-168.79 2286.87,-178.79 2290.37,-168.79 2283.37,-168.79"/>
</g>
<!-- AuthorisationUtils -->
<g id="node9" class="node">
<title>AuthorisationUtils</title>
<ellipse fill="#fdb462" stroke="black" cx="4987" cy="-66.8" rx="82.85" ry="18"/>
<text text-anchor="middle" x="4987" y="-62.6" font-family="Times,serif" font-size="14.00">AuthorisationUtils</text>
</g>
<!-- AuthorisationUtils&#45;&gt;LearnroomModule -->
<g id="edge9" class="edge">
<title>AuthorisationUtils&#45;&gt;LearnroomModule</title>
<path fill="none" stroke="black" d="M4987,-85.18C4987,-109.08 4987,-147.8 4987,-147.8 4987,-147.8 2394.94,-147.8 2394.94,-147.8"/>
<polygon fill="black" stroke="black" points="2394.94,-144.3 2384.94,-147.8 2394.94,-151.3 2394.94,-144.3"/>
</g>
<!-- BoardCopyService -->
<g id="node10" class="node">
<title>BoardCopyService</title>
<ellipse fill="#fdb462" stroke="black" cx="4802" cy="-66.8" rx="84.54" ry="18"/>
<text text-anchor="middle" x="4802" y="-62.6" font-family="Times,serif" font-size="14.00">BoardCopyService</text>
</g>
<!-- BoardCopyService&#45;&gt;LearnroomModule -->
<g id="edge10" class="edge">
<title>BoardCopyService&#45;&gt;LearnroomModule</title>
<path fill="none" stroke="black" d="M4802,-85.12C4802,-108.46 4802,-145.8 4802,-145.8 4802,-145.8 2394.95,-145.8 2394.95,-145.8"/>
<polygon fill="black" stroke="black" points="2394.95,-142.3 2384.95,-145.8 2394.95,-149.3 2394.95,-142.3"/>
</g>
<!-- BoardRepo -->
<g id="node11" class="node">
<title>BoardRepo</title>
<ellipse fill="#fdb462" stroke="black" cx="4644" cy="-66.8" rx="55.04" ry="18"/>
<text text-anchor="middle" x="4644" y="-62.6" font-family="Times,serif" font-size="14.00">BoardRepo</text>
</g>
<!-- BoardRepo&#45;&gt;LearnroomModule -->
<g id="edge11" class="edge">
<title>BoardRepo&#45;&gt;LearnroomModule</title>
<path fill="none" stroke="black" d="M4644,-85.05C4644,-107.82 4644,-143.8 4644,-143.8 4644,-143.8 2394.86,-143.8 2394.86,-143.8"/>
<polygon fill="black" stroke="black" points="2394.86,-140.3 2384.86,-143.8 2394.86,-147.3 2394.86,-140.3"/>
</g>
<!-- CommonCartridgeExportService -->
<g id="node12" class="node">
<title>CommonCartridgeExportService</title>
<ellipse fill="#fdb462" stroke="black" cx="4432" cy="-66.8" rx="138.89" ry="18"/>
<text text-anchor="middle" x="4432" y="-62.6" font-family="Times,serif" font-size="14.00">CommonCartridgeExportService</text>
</g>
<!-- CommonCartridgeExportService&#45;&gt;LearnroomModule -->
<g id="edge12" class="edge">
<title>CommonCartridgeExportService&#45;&gt;LearnroomModule</title>
<path fill="none" stroke="black" d="M4432,-85.09C4432,-107.01 4432,-140.8 4432,-140.8 4432,-140.8 2394.81,-140.8 2394.81,-140.8"/>
<polygon fill="black" stroke="black" points="2394.81,-137.3 2384.81,-140.8 2394.81,-144.3 2394.81,-137.3"/>
</g>
<!-- CourseCopyService -->
<g id="node13" class="node">
<title>CourseCopyService</title>
<ellipse fill="#fdb462" stroke="black" cx="4187" cy="-66.8" rx="88.06" ry="18"/>
<text text-anchor="middle" x="4187" y="-62.6" font-family="Times,serif" font-size="14.00">CourseCopyService</text>
</g>
<!-- CourseCopyService&#45;&gt;LearnroomModule -->
<g id="edge13" class="edge">
<title>CourseCopyService&#45;&gt;LearnroomModule</title>
<path fill="none" stroke="black" d="M4187,-84.97C4187,-106.3 4187,-138.8 4187,-138.8 4187,-138.8 2394.93,-138.8 2394.93,-138.8"/>
<polygon fill="black" stroke="black" points="2394.93,-135.3 2384.93,-138.8 2394.93,-142.3 2394.93,-135.3"/>
</g>
<!-- CourseCopyUC -->
<g id="node14" class="node">
<title>CourseCopyUC</title>
<ellipse fill="#fdb462" stroke="black" cx="4008" cy="-66.8" rx="72.97" ry="18"/>
<text text-anchor="middle" x="4008" y="-62.6" font-family="Times,serif" font-size="14.00">CourseCopyUC</text>
</g>
<!-- CourseCopyUC&#45;&gt;LearnroomModule -->
<g id="edge14" class="edge">
<title>CourseCopyUC&#45;&gt;LearnroomModule</title>
<path fill="none" stroke="black" d="M4008,-84.83C4008,-105.57 4008,-136.8 4008,-136.8 4008,-136.8 2394.93,-136.8 2394.93,-136.8"/>
<polygon fill="black" stroke="black" points="2394.93,-133.3 2384.93,-136.8 2394.93,-140.3 2394.93,-133.3"/>
</g>
<!-- CourseExportUc -->
<g id="node15" class="node">
<title>CourseExportUc</title>
<ellipse fill="#fdb462" stroke="black" cx="3841" cy="-66.8" rx="75.88" ry="18"/>
<text text-anchor="middle" x="3841" y="-62.6" font-family="Times,serif" font-size="14.00">CourseExportUc</text>
</g>
<!-- CourseExportUc&#45;&gt;LearnroomModule -->
<g id="edge15" class="edge">
<title>CourseExportUc&#45;&gt;LearnroomModule</title>
<path fill="none" stroke="black" d="M3841,-85.02C3841,-105.17 3841,-134.8 3841,-134.8 3841,-134.8 2394.87,-134.8 2394.87,-134.8"/>
<polygon fill="black" stroke="black" points="2394.87,-131.3 2384.87,-134.8 2394.87,-138.3 2394.87,-131.3"/>
</g>
<!-- CourseRepo -->
<g id="node16" class="node">
<title>CourseRepo</title>
<ellipse fill="#fdb462" stroke="black" cx="3688" cy="-66.8" rx="58.56" ry="18"/>
<text text-anchor="middle" x="3688" y="-62.6" font-family="Times,serif" font-size="14.00">CourseRepo</text>
</g>
<!-- CourseRepo&#45;&gt;LearnroomModule -->
<g id="edge16" class="edge">
<title>CourseRepo&#45;&gt;LearnroomModule</title>
<path fill="none" stroke="black" d="M3688,-84.91C3688,-104.14 3688,-131.8 3688,-131.8 3688,-131.8 2394.81,-131.8 2394.81,-131.8"/>
<polygon fill="black" stroke="black" points="2394.81,-128.3 2384.81,-131.8 2394.81,-135.3 2394.81,-128.3"/>
</g>
<!-- CourseService -->
<g id="node17" class="node">
<title>CourseService</title>
<ellipse fill="#fdb462" stroke="black" cx="3544" cy="-66.8" rx="67.2" ry="18"/>
<text text-anchor="middle" x="3544" y="-62.6" font-family="Times,serif" font-size="14.00">CourseService</text>
</g>
<!-- CourseService&#45;&gt;LearnroomModule -->
<g id="edge17" class="edge">
<title>CourseService&#45;&gt;LearnroomModule</title>
<path fill="none" stroke="black" d="M3544,-85.02C3544,-103.63 3544,-129.8 3544,-129.8 3544,-129.8 2394.92,-129.8 2394.92,-129.8"/>
<polygon fill="black" stroke="black" points="2394.92,-126.3 2384.92,-129.8 2394.92,-133.3 2394.92,-126.3"/>
</g>
<!-- CourseUc -->
<g id="node18" class="node">
<title>CourseUc</title>
<ellipse fill="#fdb462" stroke="black" cx="3409" cy="-66.8" rx="49.81" ry="18"/>
<text text-anchor="middle" x="3409" y="-62.6" font-family="Times,serif" font-size="14.00">CourseUc</text>
</g>
<!-- CourseUc&#45;&gt;LearnroomModule -->
<g id="edge18" class="edge">
<title>CourseUc&#45;&gt;LearnroomModule</title>
<path fill="none" stroke="black" d="M3409,-85.1C3409,-103.07 3409,-127.8 3409,-127.8 3409,-127.8 2395.05,-127.8 2395.05,-127.8"/>
<polygon fill="black" stroke="black" points="2395.05,-124.3 2385.05,-127.8 2395.05,-131.3 2395.05,-124.3"/>
</g>
<!-- DashboardModelMapper -->
<g id="node19" class="node">
<title>DashboardModelMapper</title>
<ellipse fill="#fdb462" stroke="black" cx="3233" cy="-66.8" rx="108.23" ry="18"/>
<text text-anchor="middle" x="3233" y="-62.6" font-family="Times,serif" font-size="14.00">DashboardModelMapper</text>
</g>
<!-- DashboardModelMapper&#45;&gt;LearnroomModule -->
<g id="edge19" class="edge">
<title>DashboardModelMapper&#45;&gt;LearnroomModule</title>
<path fill="none" stroke="black" d="M3233,-84.82C3233,-102.17 3233,-125.8 3233,-125.8 3233,-125.8 2395.05,-125.8 2395.05,-125.8"/>
<polygon fill="black" stroke="black" points="2395.05,-122.3 2385.05,-125.8 2395.05,-129.3 2395.05,-122.3"/>
</g>
<!-- DashboardUc -->
<g id="node20" class="node">
<title>DashboardUc</title>
<ellipse fill="#fdb462" stroke="black" cx="3043" cy="-66.8" rx="64.26" ry="18"/>
<text text-anchor="middle" x="3043" y="-62.6" font-family="Times,serif" font-size="14.00">DashboardUc</text>
</g>
<!-- DashboardUc&#45;&gt;LearnroomModule -->
<g id="edge20" class="edge">
<title>DashboardUc&#45;&gt;LearnroomModule</title>
<path fill="none" stroke="black" d="M3043,-84.83C3043,-101.2 3043,-122.8 3043,-122.8 3043,-122.8 2394.99,-122.8 2394.99,-122.8"/>
<polygon fill="black" stroke="black" points="2394.99,-119.3 2384.99,-122.8 2394.99,-126.3 2394.99,-119.3"/>
</g>
<!-- FeathersServiceProvider -->
<g id="node21" class="node">
<title>FeathersServiceProvider</title>
<ellipse fill="#fdb462" stroke="black" cx="2855" cy="-66.8" rx="105.93" ry="18"/>
<text text-anchor="middle" x="2855" y="-62.6" font-family="Times,serif" font-size="14.00">FeathersServiceProvider</text>
</g>
<!-- FeathersServiceProvider&#45;&gt;LearnroomModule -->
<g id="edge21" class="edge">
<title>FeathersServiceProvider&#45;&gt;LearnroomModule</title>
<path fill="none" stroke="black" d="M2855,-85.08C2855,-100.75 2855,-120.8 2855,-120.8 2855,-120.8 2394.91,-120.8 2394.91,-120.8"/>
<polygon fill="black" stroke="black" points="2394.91,-117.3 2384.91,-120.8 2394.91,-124.3 2394.91,-117.3"/>
</g>
<!-- FileLegacyService -->
<g id="node22" class="node">
<title>FileLegacyService</title>
<ellipse fill="#fdb462" stroke="black" cx="2648" cy="-66.8" rx="83.36" ry="18"/>
<text text-anchor="middle" x="2648" y="-62.6" font-family="Times,serif" font-size="14.00">FileLegacyService</text>
</g>
<!-- FileLegacyService&#45;&gt;LearnroomModule -->
<g id="edge22" class="edge">
<title>FileLegacyService&#45;&gt;LearnroomModule</title>
<path fill="none" stroke="black" d="M2648,-84.99C2648,-99.98 2648,-118.8 2648,-118.8 2648,-118.8 2394.94,-118.8 2394.94,-118.8"/>
<polygon fill="black" stroke="black" points="2394.94,-115.3 2384.94,-118.8 2394.94,-122.3 2394.94,-115.3"/>
</g>
<!-- LessonCopyUC -->
<g id="node23" class="node">
<title>LessonCopyUC</title>
<ellipse fill="#fdb462" stroke="black" cx="2474" cy="-66.8" rx="72.97" ry="18"/>
<text text-anchor="middle" x="2474" y="-62.6" font-family="Times,serif" font-size="14.00">LessonCopyUC</text>
</g>
<!-- LessonCopyUC&#45;&gt;LearnroomModule -->
<g id="edge23" class="edge">
<title>LessonCopyUC&#45;&gt;LearnroomModule</title>
<path fill="none" stroke="black" d="M2430.5,-81.26C2430.5,-96.03 2430.5,-116.8 2430.5,-116.8 2430.5,-116.8 2395.03,-116.8 2395.03,-116.8"/>
<polygon fill="black" stroke="black" points="2395.03,-113.3 2385.03,-116.8 2395.03,-120.3 2395.03,-113.3"/>
</g>
<!-- LessonRepo -->
<g id="node24" class="node">
<title>LessonRepo</title>
<ellipse fill="#fdb462" stroke="black" cx="2324" cy="-66.8" rx="58.56" ry="18"/>
<text text-anchor="middle" x="2324" y="-62.6" font-family="Times,serif" font-size="14.00">LessonRepo</text>
</g>
<!-- LessonRepo&#45;&gt;LearnroomModule -->
<g id="edge24" class="edge">
<title>LessonRepo&#45;&gt;LearnroomModule</title>
<path fill="none" stroke="black" d="M2324,-84.91C2324,-84.91 2324,-103.79 2324,-103.79"/>
<polygon fill="black" stroke="black" points="2320.5,-103.79 2324,-113.79 2327.5,-103.79 2320.5,-103.79"/>
</g>
<!-- Logger -->
<g id="node25" class="node">
<title>Logger</title>
<ellipse fill="#fdb462" stroke="black" cx="2208" cy="-66.8" rx="38.85" ry="18"/>
<text text-anchor="middle" x="2208" y="-62.6" font-family="Times,serif" font-size="14.00">Logger</text>
</g>
<!-- Logger&#45;&gt;LearnroomModule -->
<g id="edge25" class="edge">
<title>Logger&#45;&gt;LearnroomModule</title>
<path fill="none" stroke="black" d="M2223.16,-83.45C2223.16,-97.99 2223.16,-116.8 2223.16,-116.8 2223.16,-116.8 2253.01,-116.8 2253.01,-116.8"/>
<polygon fill="black" stroke="black" points="2253.01,-120.3 2263.01,-116.8 2253.01,-113.3 2253.01,-120.3"/>
</g>
<!-- MetadataLoader -->
<g id="node26" class="node">
<title>MetadataLoader</title>
<ellipse fill="#fdb462" stroke="black" cx="2077" cy="-66.8" rx="74.11" ry="18"/>
<text text-anchor="middle" x="2077" y="-62.6" font-family="Times,serif" font-size="14.00">MetadataLoader</text>
</g>
<!-- MetadataLoader&#45;&gt;LearnroomModule -->
<g id="edge26" class="edge">
<title>MetadataLoader&#45;&gt;LearnroomModule</title>
<path fill="none" stroke="black" d="M2077,-84.99C2077,-99.98 2077,-118.8 2077,-118.8 2077,-118.8 2252.94,-118.8 2252.94,-118.8"/>
<polygon fill="black" stroke="black" points="2252.94,-122.3 2262.94,-118.8 2252.94,-115.3 2252.94,-122.3"/>
</g>
<!-- RoomBoardDTOFactory -->
<g id="node27" class="node">
<title>RoomBoardDTOFactory</title>
<ellipse fill="#fdb462" stroke="black" cx="1877" cy="-66.8" rx="107.68" ry="18"/>
<text text-anchor="middle" x="1877" y="-62.6" font-family="Times,serif" font-size="14.00">RoomBoardDTOFactory</text>
</g>
<!-- RoomBoardDTOFactory&#45;&gt;LearnroomModule -->
<g id="edge27" class="edge">
<title>RoomBoardDTOFactory&#45;&gt;LearnroomModule</title>
<path fill="none" stroke="black" d="M1877,-85.08C1877,-100.75 1877,-120.8 1877,-120.8 1877,-120.8 2253.25,-120.8 2253.25,-120.8"/>
<polygon fill="black" stroke="black" points="2253.25,-124.3 2263.25,-120.8 2253.25,-117.3 2253.25,-124.3"/>
</g>
<!-- RoomBoardResponseMapper -->
<g id="node28" class="node">
<title>RoomBoardResponseMapper</title>
<ellipse fill="#fdb462" stroke="black" cx="1626" cy="-66.8" rx="125.09" ry="18"/>
<text text-anchor="middle" x="1626" y="-62.6" font-family="Times,serif" font-size="14.00">RoomBoardResponseMapper</text>
</g>
<!-- RoomBoardResponseMapper&#45;&gt;LearnroomModule -->
<g id="edge28" class="edge">
<title>RoomBoardResponseMapper&#45;&gt;LearnroomModule</title>
<path fill="none" stroke="black" d="M1626,-84.83C1626,-101.2 1626,-122.8 1626,-122.8 1626,-122.8 2252.97,-122.8 2252.97,-122.8"/>
<polygon fill="black" stroke="black" points="2252.97,-126.3 2262.97,-122.8 2252.97,-119.3 2252.97,-126.3"/>
</g>
<!-- RoomsAuthorisationService -->
<g id="node29" class="node">
<title>RoomsAuthorisationService</title>
<ellipse fill="#fdb462" stroke="black" cx="1362" cy="-66.8" rx="120.44" ry="18"/>
<text text-anchor="middle" x="1362" y="-62.6" font-family="Times,serif" font-size="14.00">RoomsAuthorisationService</text>
</g>
<!-- RoomsAuthorisationService&#45;&gt;LearnroomModule -->
<g id="edge29" class="edge">
<title>RoomsAuthorisationService&#45;&gt;LearnroomModule</title>
<path fill="none" stroke="black" d="M1362,-84.82C1362,-102.17 1362,-125.8 1362,-125.8 1362,-125.8 2253.09,-125.8 2253.09,-125.8"/>
<polygon fill="black" stroke="black" points="2253.09,-129.3 2263.09,-125.8 2253.09,-122.3 2253.09,-129.3"/>
</g>
<!-- RoomsService -->
<g id="node30" class="node">
<title>RoomsService</title>
<ellipse fill="#fdb462" stroke="black" cx="1156" cy="-66.8" rx="67.22" ry="18"/>
<text text-anchor="middle" x="1156" y="-62.6" font-family="Times,serif" font-size="14.00">RoomsService</text>
</g>
<!-- RoomsService&#45;&gt;LearnroomModule -->
<g id="edge30" class="edge">
<title>RoomsService&#45;&gt;LearnroomModule</title>
<path fill="none" stroke="black" d="M1156,-85.1C1156,-103.07 1156,-127.8 1156,-127.8 1156,-127.8 2252.85,-127.8 2252.85,-127.8"/>
<polygon fill="black" stroke="black" points="2252.85,-131.3 2262.85,-127.8 2252.85,-124.3 2252.85,-131.3"/>
</g>
<!-- RoomsUc -->
<g id="node31" class="node">
<title>RoomsUc</title>
<ellipse fill="#fdb462" stroke="black" cx="1021" cy="-66.8" rx="49.83" ry="18"/>
<text text-anchor="middle" x="1021" y="-62.6" font-family="Times,serif" font-size="14.00">RoomsUc</text>
</g>
<!-- RoomsUc&#45;&gt;LearnroomModule -->
<g id="edge31" class="edge">
<title>RoomsUc&#45;&gt;LearnroomModule</title>
<path fill="none" stroke="black" d="M1021,-85.02C1021,-103.63 1021,-129.8 1021,-129.8 1021,-129.8 2252.9,-129.8 2252.9,-129.8"/>
<polygon fill="black" stroke="black" points="2252.9,-133.3 2262.9,-129.8 2252.9,-126.3 2252.9,-133.3"/>
</g>
<!-- TaskRepo -->
<g id="node32" class="node">
<title>TaskRepo</title>
<ellipse fill="#fdb462" stroke="black" cx="903" cy="-66.8" rx="50.39" ry="18"/>
<text text-anchor="middle" x="903" y="-62.6" font-family="Times,serif" font-size="14.00">TaskRepo</text>
</g>
<!-- TaskRepo&#45;&gt;LearnroomModule -->
<g id="edge32" class="edge">
<title>TaskRepo&#45;&gt;LearnroomModule</title>
<path fill="none" stroke="black" d="M903,-84.91C903,-104.14 903,-131.8 903,-131.8 903,-131.8 2252.94,-131.8 2252.94,-131.8"/>
<polygon fill="black" stroke="black" points="2252.94,-135.3 2262.94,-131.8 2252.94,-128.3 2252.94,-135.3"/>
</g>
<!-- UserRepo -->
<g id="node33" class="node">
<title>UserRepo</title>
<ellipse fill="#fdb462" stroke="black" cx="785" cy="-66.8" rx="49.81" ry="18"/>
<text text-anchor="middle" x="785" y="-62.6" font-family="Times,serif" font-size="14.00">UserRepo</text>
</g>
<!-- UserRepo&#45;&gt;LearnroomModule -->
<g id="edge33" class="edge">
<title>UserRepo&#45;&gt;LearnroomModule</title>
<path fill="none" stroke="black" d="M785,-85.02C785,-105.17 785,-134.8 785,-134.8 785,-134.8 2253.2,-134.8 2253.2,-134.8"/>
<polygon fill="black" stroke="black" points="2253.2,-138.3 2263.2,-134.8 2253.2,-131.3 2253.2,-138.3"/>
</g>
</g>
</svg>
