<?xml version="1.0" encoding="UTF-8" standalone="no"?>
<!DOCTYPE svg PUBLIC "-//W3C//DTD SVG 1.1//EN"
 "http://www.w3.org/Graphics/SVG/1.1/DTD/svg11.dtd">
<!-- Generated by graphviz version 5.0.0 (20220707.1540)
 -->
<!-- Title: dependencies Pages: 1 -->
<svg width="4306pt" height="174pt"
 viewBox="0.00 0.00 4306.00 173.80" xmlns="http://www.w3.org/2000/svg" xmlns:xlink="http://www.w3.org/1999/xlink">
<g id="graph0" class="graph" transform="scale(1 1) rotate(0) translate(4 169.8)">
<title>dependencies</title>
<polygon fill="white" stroke="transparent" points="-4,4 -4,-169.8 4302,-169.8 4302,4 -4,4"/>
<text text-anchor="middle" x="2149" y="-8.2" font-family="sans-serif" font-size="14.00">dependencies</text>
<g id="clust1" class="cluster">
<title>cluster_LearnroomModule</title>
<polygon fill="none" stroke="black" stroke-dasharray="1,5" points="8,-32.8 8,-157.8 4290,-157.8 4290,-32.8 8,-32.8"/>
</g>
<g id="clust3" class="cluster">
<title>cluster_LearnroomModule_imports</title>
<polygon fill="none" stroke="black" points="4128,-40.8 4128,-92.8 4282,-92.8 4282,-40.8 4128,-40.8"/>
</g>
<g id="clust6" class="cluster">
<title>cluster_LearnroomModule_providers</title>
<polygon fill="none" stroke="black" points="16,-40.8 16,-92.8 4120,-92.8 4120,-40.8 16,-40.8"/>
</g>
<!-- AuthorizationModule -->
<g id="node1" class="node">
<title>AuthorizationModule</title>
<polygon fill="#8dd3c7" stroke="black" points="4273.81,-84.8 4270.81,-88.8 4249.81,-88.8 4246.81,-84.8 4136.19,-84.8 4136.19,-48.8 4273.81,-48.8 4273.81,-84.8"/>
<text text-anchor="middle" x="4205" y="-62.6" font-family="Times,serif" font-size="14.00">AuthorizationModule</text>
</g>
<!-- LearnroomModule -->
<g id="node2" class="node">
<title>LearnroomModule</title>
<polygon fill="#8dd3c7" stroke="black" points="2187.75,-149.8 2184.75,-153.8 2163.75,-153.8 2160.75,-149.8 2066.25,-149.8 2066.25,-113.8 2187.75,-113.8 2187.75,-149.8"/>
<text text-anchor="middle" x="2127" y="-127.6" font-family="Times,serif" font-size="14.00">LearnroomModule</text>
</g>
<!-- AuthorizationModule&#45;&gt;LearnroomModule -->
<g id="edge1" class="edge">
<title>AuthorizationModule&#45;&gt;LearnroomModule</title>
<path fill="none" stroke="black" d="M4205,-85.18C4205,-109.08 4205,-147.8 4205,-147.8 4205,-147.8 2197.79,-147.8 2197.79,-147.8"/>
<polygon fill="black" stroke="black" points="2197.79,-144.3 2187.79,-147.8 2197.79,-151.3 2197.79,-144.3"/>
</g>
<!-- BoardCopyService -->
<g id="node3" class="node">
<title>BoardCopyService</title>
<ellipse fill="#fdb462" stroke="black" cx="4027" cy="-66.8" rx="84.54" ry="18"/>
<text text-anchor="middle" x="4027" y="-62.6" font-family="Times,serif" font-size="14.00">BoardCopyService</text>
</g>
<!-- BoardCopyService&#45;&gt;LearnroomModule -->
<g id="edge2" class="edge">
<title>BoardCopyService&#45;&gt;LearnroomModule</title>
<path fill="none" stroke="black" d="M4027,-84.89C4027,-107.93 4027,-144.8 4027,-144.8 4027,-144.8 2197.8,-144.8 2197.8,-144.8"/>
<polygon fill="black" stroke="black" points="2197.8,-141.3 2187.8,-144.8 2197.8,-148.3 2197.8,-141.3"/>
</g>
<!-- BoardRepo -->
<g id="node4" class="node">
<title>BoardRepo</title>
<ellipse fill="#fdb462" stroke="black" cx="3869" cy="-66.8" rx="55.04" ry="18"/>
<text text-anchor="middle" x="3869" y="-62.6" font-family="Times,serif" font-size="14.00">BoardRepo</text>
</g>
<!-- BoardRepo&#45;&gt;LearnroomModule -->
<g id="edge3" class="edge">
<title>BoardRepo&#45;&gt;LearnroomModule</title>
<path fill="none" stroke="black" d="M3869,-84.96C3869,-107.15 3869,-141.8 3869,-141.8 3869,-141.8 2197.98,-141.8 2197.98,-141.8"/>
<polygon fill="black" stroke="black" points="2197.98,-138.3 2187.98,-141.8 2197.98,-145.3 2197.98,-138.3"/>
</g>
<!-- CopyHelperService -->
<g id="node5" class="node">
<title>CopyHelperService</title>
<ellipse fill="#fdb462" stroke="black" cx="3709" cy="-66.8" rx="87.39" ry="18"/>
<text text-anchor="middle" x="3709" y="-62.6" font-family="Times,serif" font-size="14.00">CopyHelperService</text>
</g>
<!-- CopyHelperService&#45;&gt;LearnroomModule -->
<g id="edge4" class="edge">
<title>CopyHelperService&#45;&gt;LearnroomModule</title>
<path fill="none" stroke="black" d="M3709,-84.97C3709,-106.3 3709,-138.8 3709,-138.8 3709,-138.8 2198.05,-138.8 2198.05,-138.8"/>
<polygon fill="black" stroke="black" points="2198.05,-135.3 2188.05,-138.8 2198.05,-142.3 2198.05,-135.3"/>
</g>
<!-- CourseCopyService -->
<g id="node6" class="node">
<title>CourseCopyService</title>
<ellipse fill="#fdb462" stroke="black" cx="3516" cy="-66.8" rx="88.06" ry="18"/>
<text text-anchor="middle" x="3516" y="-62.6" font-family="Times,serif" font-size="14.00">CourseCopyService</text>
</g>
<!-- CourseCopyService&#45;&gt;LearnroomModule -->
<g id="edge5" class="edge">
<title>CourseCopyService&#45;&gt;LearnroomModule</title>
<path fill="none" stroke="black" d="M3516,-84.83C3516,-105.57 3516,-136.8 3516,-136.8 3516,-136.8 2198.03,-136.8 2198.03,-136.8"/>
<polygon fill="black" stroke="black" points="2198.03,-133.3 2188.03,-136.8 2198.03,-140.3 2198.03,-133.3"/>
</g>
<!-- CourseCopyUC -->
<g id="node7" class="node">
<title>CourseCopyUC</title>
<ellipse fill="#fdb462" stroke="black" cx="3337" cy="-66.8" rx="72.97" ry="18"/>
<text text-anchor="middle" x="3337" y="-62.6" font-family="Times,serif" font-size="14.00">CourseCopyUC</text>
</g>
<!-- CourseCopyUC&#45;&gt;LearnroomModule -->
<g id="edge6" class="edge">
<title>CourseCopyUC&#45;&gt;LearnroomModule</title>
<path fill="none" stroke="black" d="M3337,-85.11C3337,-104.95 3337,-133.8 3337,-133.8 3337,-133.8 2197.83,-133.8 2197.83,-133.8"/>
<polygon fill="black" stroke="black" points="2197.83,-130.3 2187.83,-133.8 2197.83,-137.3 2197.83,-130.3"/>
</g>
<!-- CourseRepo -->
<g id="node8" class="node">
<title>CourseRepo</title>
<ellipse fill="#fdb462" stroke="black" cx="3187" cy="-66.8" rx="58.56" ry="18"/>
<text text-anchor="middle" x="3187" y="-62.6" font-family="Times,serif" font-size="14.00">CourseRepo</text>
</g>
<!-- CourseRepo&#45;&gt;LearnroomModule -->
<g id="edge7" class="edge">
<title>CourseRepo&#45;&gt;LearnroomModule</title>
<path fill="none" stroke="black" d="M3187,-84.97C3187,-103.89 3187,-130.8 3187,-130.8 3187,-130.8 2197.8,-130.8 2197.8,-130.8"/>
<polygon fill="black" stroke="black" points="2197.8,-127.3 2187.8,-130.8 2197.8,-134.3 2197.8,-127.3"/>
</g>
<!-- CourseUc -->
<g id="node9" class="node">
<title>CourseUc</title>
<ellipse fill="#fdb462" stroke="black" cx="3061" cy="-66.8" rx="49.81" ry="18"/>
<text text-anchor="middle" x="3061" y="-62.6" font-family="Times,serif" font-size="14.00">CourseUc</text>
</g>
<!-- CourseUc&#45;&gt;LearnroomModule -->
<g id="edge8" class="edge">
<title>CourseUc&#45;&gt;LearnroomModule</title>
<path fill="none" stroke="black" d="M3061,-85.1C3061,-103.07 3061,-127.8 3061,-127.8 3061,-127.8 2197.92,-127.8 2197.92,-127.8"/>
<polygon fill="black" stroke="black" points="2197.92,-124.3 2187.92,-127.8 2197.92,-131.3 2197.92,-124.3"/>
</g>
<!-- DashboardModelMapper -->
<g id="node10" class="node">
<title>DashboardModelMapper</title>
<ellipse fill="#fdb462" stroke="black" cx="2885" cy="-66.8" rx="108.23" ry="18"/>
<text text-anchor="middle" x="2885" y="-62.6" font-family="Times,serif" font-size="14.00">DashboardModelMapper</text>
</g>
<!-- DashboardModelMapper&#45;&gt;LearnroomModule -->
<g id="edge9" class="edge">
<title>DashboardModelMapper&#45;&gt;LearnroomModule</title>
<path fill="none" stroke="black" d="M2885,-84.82C2885,-102.17 2885,-125.8 2885,-125.8 2885,-125.8 2197.75,-125.8 2197.75,-125.8"/>
<polygon fill="black" stroke="black" points="2197.75,-122.3 2187.75,-125.8 2197.75,-129.3 2197.75,-122.3"/>
</g>
<!-- DashboardUc -->
<g id="node11" class="node">
<title>DashboardUc</title>
<ellipse fill="#fdb462" stroke="black" cx="2695" cy="-66.8" rx="64.26" ry="18"/>
<text text-anchor="middle" x="2695" y="-62.6" font-family="Times,serif" font-size="14.00">DashboardUc</text>
</g>
<!-- DashboardUc&#45;&gt;LearnroomModule -->
<g id="edge10" class="edge">
<title>DashboardUc&#45;&gt;LearnroomModule</title>
<path fill="none" stroke="black" d="M2695,-84.83C2695,-101.2 2695,-122.8 2695,-122.8 2695,-122.8 2197.79,-122.8 2197.79,-122.8"/>
<polygon fill="black" stroke="black" points="2197.79,-119.3 2187.79,-122.8 2197.79,-126.3 2197.79,-119.3"/>
</g>
<!-- EtherpadService -->
<g id="node12" class="node">
<title>EtherpadService</title>
<ellipse fill="#fdb462" stroke="black" cx="2538" cy="-66.8" rx="74.7" ry="18"/>
<text text-anchor="middle" x="2538" y="-62.6" font-family="Times,serif" font-size="14.00">EtherpadService</text>
</g>
<!-- EtherpadService&#45;&gt;LearnroomModule -->
<g id="edge11" class="edge">
<title>EtherpadService&#45;&gt;LearnroomModule</title>
<path fill="none" stroke="black" d="M2538,-85.04C2538,-100.37 2538,-119.8 2538,-119.8 2538,-119.8 2198.09,-119.8 2198.09,-119.8"/>
<polygon fill="black" stroke="black" points="2198.09,-116.3 2188.09,-119.8 2198.09,-123.3 2198.09,-116.3"/>
</g>
<!-- FeathersServiceProvider -->
<g id="node13" class="node">
<title>FeathersServiceProvider</title>
<ellipse fill="#fdb462" stroke="black" cx="2339" cy="-66.8" rx="105.93" ry="18"/>
<text text-anchor="middle" x="2339" y="-62.6" font-family="Times,serif" font-size="14.00">FeathersServiceProvider</text>
</g>
<!-- FeathersServiceProvider&#45;&gt;LearnroomModule -->
<g id="edge12" class="edge">
<title>FeathersServiceProvider&#45;&gt;LearnroomModule</title>
<path fill="none" stroke="black" d="M2339,-84.85C2339,-99.17 2339,-116.8 2339,-116.8 2339,-116.8 2197.75,-116.8 2197.75,-116.8"/>
<polygon fill="black" stroke="black" points="2197.75,-113.3 2187.75,-116.8 2197.75,-120.3 2197.75,-113.3"/>
</g>
<!-- LessonCopyService -->
<g id="node14" class="node">
<title>LessonCopyService</title>
<ellipse fill="#fdb462" stroke="black" cx="2127" cy="-66.8" rx="88.06" ry="18"/>
<text text-anchor="middle" x="2127" y="-62.6" font-family="Times,serif" font-size="14.00">LessonCopyService</text>
</g>
<!-- LessonCopyService&#45;&gt;LearnroomModule -->
<g id="edge13" class="edge">
<title>LessonCopyService&#45;&gt;LearnroomModule</title>
<path fill="none" stroke="black" d="M2127,-84.91C2127,-84.91 2127,-103.79 2127,-103.79"/>
<polygon fill="black" stroke="black" points="2123.5,-103.79 2127,-113.79 2130.5,-103.79 2123.5,-103.79"/>
</g>
<!-- LessonCopyUC -->
<g id="node15" class="node">
<title>LessonCopyUC</title>
<ellipse fill="#fdb462" stroke="black" cx="1948" cy="-66.8" rx="72.97" ry="18"/>
<text text-anchor="middle" x="1948" y="-62.6" font-family="Times,serif" font-size="14.00">LessonCopyUC</text>
</g>
<!-- LessonCopyUC&#45;&gt;LearnroomModule -->
<g id="edge14" class="edge">
<title>LessonCopyUC&#45;&gt;LearnroomModule</title>
<path fill="none" stroke="black" d="M1948,-84.85C1948,-99.17 1948,-116.8 1948,-116.8 1948,-116.8 2056.15,-116.8 2056.15,-116.8"/>
<polygon fill="black" stroke="black" points="2056.15,-120.3 2066.15,-116.8 2056.15,-113.3 2056.15,-120.3"/>
</g>
<!-- LessonRepo -->
<g id="node16" class="node">
<title>LessonRepo</title>
<ellipse fill="#fdb462" stroke="black" cx="1798" cy="-66.8" rx="58.56" ry="18"/>
<text text-anchor="middle" x="1798" y="-62.6" font-family="Times,serif" font-size="14.00">LessonRepo</text>
</g>
<!-- LessonRepo&#45;&gt;LearnroomModule -->
<g id="edge15" class="edge">
<title>LessonRepo&#45;&gt;LearnroomModule</title>
<path fill="none" stroke="black" d="M1798,-85.04C1798,-100.37 1798,-119.8 1798,-119.8 1798,-119.8 2055.89,-119.8 2055.89,-119.8"/>
<polygon fill="black" stroke="black" points="2055.89,-123.3 2065.89,-119.8 2055.89,-116.3 2055.89,-123.3"/>
</g>
<!-- Logger -->
<g id="node17" class="node">
<title>Logger</title>
<ellipse fill="#fdb462" stroke="black" cx="1682" cy="-66.8" rx="38.85" ry="18"/>
<text text-anchor="middle" x="1682" y="-62.6" font-family="Times,serif" font-size="14.00">Logger</text>
</g>
<!-- Logger&#45;&gt;LearnroomModule -->
<g id="edge16" class="edge">
<title>Logger&#45;&gt;LearnroomModule</title>
<path fill="none" stroke="black" d="M1682,-84.83C1682,-101.2 1682,-122.8 1682,-122.8 1682,-122.8 2056.06,-122.8 2056.06,-122.8"/>
<polygon fill="black" stroke="black" points="2056.06,-126.3 2066.06,-122.8 2056.06,-119.3 2056.06,-126.3"/>
</g>
<!-- NexboardService -->
<g id="node18" class="node">
<title>NexboardService</title>
<ellipse fill="#fdb462" stroke="black" cx="1547" cy="-66.8" rx="78.14" ry="18"/>
<text text-anchor="middle" x="1547" y="-62.6" font-family="Times,serif" font-size="14.00">NexboardService</text>
</g>
<!-- NexboardService&#45;&gt;LearnroomModule -->
<g id="edge17" class="edge">
<title>NexboardService&#45;&gt;LearnroomModule</title>
<path fill="none" stroke="black" d="M1547,-84.82C1547,-102.17 1547,-125.8 1547,-125.8 1547,-125.8 2056.03,-125.8 2056.03,-125.8"/>
<polygon fill="black" stroke="black" points="2056.03,-129.3 2066.03,-125.8 2056.03,-122.3 2056.03,-129.3"/>
</g>
<!-- RoomBoardDTOFactory -->
<g id="node19" class="node">
<title>RoomBoardDTOFactory</title>
<ellipse fill="#fdb462" stroke="black" cx="1343" cy="-66.8" rx="107.68" ry="18"/>
<text text-anchor="middle" x="1343" y="-62.6" font-family="Times,serif" font-size="14.00">RoomBoardDTOFactory</text>
</g>
<!-- RoomBoardDTOFactory&#45;&gt;LearnroomModule -->
<g id="edge18" class="edge">
<title>RoomBoardDTOFactory&#45;&gt;LearnroomModule</title>
<path fill="none" stroke="black" d="M1343,-85.1C1343,-103.07 1343,-127.8 1343,-127.8 1343,-127.8 2056.13,-127.8 2056.13,-127.8"/>
<polygon fill="black" stroke="black" points="2056.13,-131.3 2066.13,-127.8 2056.13,-124.3 2056.13,-131.3"/>
</g>
<!-- RoomBoardResponseMapper -->
<g id="node20" class="node">
<title>RoomBoardResponseMapper</title>
<ellipse fill="#fdb462" stroke="black" cx="1092" cy="-66.8" rx="125.09" ry="18"/>
<text text-anchor="middle" x="1092" y="-62.6" font-family="Times,serif" font-size="14.00">RoomBoardResponseMapper</text>
</g>
<!-- RoomBoardResponseMapper&#45;&gt;LearnroomModule -->
<g id="edge19" class="edge">
<title>RoomBoardResponseMapper&#45;&gt;LearnroomModule</title>
<path fill="none" stroke="black" d="M1092,-84.97C1092,-103.89 1092,-130.8 1092,-130.8 1092,-130.8 2056.12,-130.8 2056.12,-130.8"/>
<polygon fill="black" stroke="black" points="2056.12,-134.3 2066.12,-130.8 2056.12,-127.3 2056.12,-134.3"/>
</g>
<!-- RoomsAuthorisationService -->
<g id="node21" class="node">
<title>RoomsAuthorisationService</title>
<ellipse fill="#fdb462" stroke="black" cx="828" cy="-66.8" rx="120.44" ry="18"/>
<text text-anchor="middle" x="828" y="-62.6" font-family="Times,serif" font-size="14.00">RoomsAuthorisationService</text>
</g>
<!-- RoomsAuthorisationService&#45;&gt;LearnroomModule -->
<g id="edge20" class="edge">
<title>RoomsAuthorisationService&#45;&gt;LearnroomModule</title>
<path fill="none" stroke="black" d="M828,-85.11C828,-104.95 828,-133.8 828,-133.8 828,-133.8 2056.09,-133.8 2056.09,-133.8"/>
<polygon fill="black" stroke="black" points="2056.09,-137.3 2066.09,-133.8 2056.09,-130.3 2056.09,-137.3"/>
</g>
<!-- RoomsService -->
<g id="node22" class="node">
<title>RoomsService</title>
<ellipse fill="#fdb462" stroke="black" cx="622" cy="-66.8" rx="67.22" ry="18"/>
<text text-anchor="middle" x="622" y="-62.6" font-family="Times,serif" font-size="14.00">RoomsService</text>
</g>
<!-- RoomsService&#45;&gt;LearnroomModule -->
<g id="edge21" class="edge">
<title>RoomsService&#45;&gt;LearnroomModule</title>
<path fill="none" stroke="black" d="M622,-84.83C622,-105.57 622,-136.8 622,-136.8 622,-136.8 2056.14,-136.8 2056.14,-136.8"/>
<polygon fill="black" stroke="black" points="2056.14,-140.3 2066.14,-136.8 2056.14,-133.3 2056.14,-140.3"/>
</g>
<!-- RoomsUc -->
<g id="node23" class="node">
<title>RoomsUc</title>
<ellipse fill="#fdb462" stroke="black" cx="487" cy="-66.8" rx="49.83" ry="18"/>
<text text-anchor="middle" x="487" y="-62.6" font-family="Times,serif" font-size="14.00">RoomsUc</text>
</g>
<!-- RoomsUc&#45;&gt;LearnroomModule -->
<g id="edge22" class="edge">
<title>RoomsUc&#45;&gt;LearnroomModule</title>
<path fill="none" stroke="black" d="M487,-84.97C487,-106.3 487,-138.8 487,-138.8 487,-138.8 2056.2,-138.8 2056.2,-138.8"/>
<polygon fill="black" stroke="black" points="2056.2,-142.3 2066.2,-138.8 2056.2,-135.3 2056.2,-142.3"/>
</g>
<!-- TaskCopyService -->
<g id="node24" class="node">
<title>TaskCopyService</title>
<ellipse fill="#fdb462" stroke="black" cx="340" cy="-66.8" rx="79.88" ry="18"/>
<text text-anchor="middle" x="340" y="-62.6" font-family="Times,serif" font-size="14.00">TaskCopyService</text>
</g>
<!-- TaskCopyService&#45;&gt;LearnroomModule -->
<g id="edge23" class="edge">
<title>TaskCopyService&#45;&gt;LearnroomModule</title>
<path fill="none" stroke="black" d="M340,-84.96C340,-107.15 340,-141.8 340,-141.8 340,-141.8 2056,-141.8 2056,-141.8"/>
<polygon fill="black" stroke="black" points="2056,-145.3 2066,-141.8 2056,-138.3 2056,-145.3"/>
</g>
<!-- TaskRepo -->
<g id="node25" class="node">
<title>TaskRepo</title>
<ellipse fill="#fdb462" stroke="black" cx="192" cy="-66.8" rx="50.39" ry="18"/>
<text text-anchor="middle" x="192" y="-62.6" font-family="Times,serif" font-size="14.00">TaskRepo</text>
</g>
<!-- TaskRepo&#45;&gt;LearnroomModule -->
<g id="edge24" class="edge">
<title>TaskRepo&#45;&gt;LearnroomModule</title>
<path fill="none" stroke="black" d="M192,-84.89C192,-107.93 192,-144.8 192,-144.8 192,-144.8 2056.16,-144.8 2056.16,-144.8"/>
<polygon fill="black" stroke="black" points="2056.16,-148.3 2066.16,-144.8 2056.16,-141.3 2056.16,-148.3"/>
</g>
<!-- UserRepo -->
<g id="node26" class="node">
<title>UserRepo</title>
<ellipse fill="#fdb462" stroke="black" cx="74" cy="-66.8" rx="49.81" ry="18"/>
<text text-anchor="middle" x="74" y="-62.6" font-family="Times,serif" font-size="14.00">UserRepo</text>
</g>
<!-- UserRepo&#45;&gt;LearnroomModule -->
<g id="edge25" class="edge">
<title>UserRepo&#45;&gt;LearnroomModule</title>
<path fill="none" stroke="black" d="M74,-85.18C74,-109.08 74,-147.8 74,-147.8 74,-147.8 2056.11,-147.8 2056.11,-147.8"/>
<polygon fill="black" stroke="black" points="2056.11,-151.3 2066.11,-147.8 2056.11,-144.3 2056.11,-151.3"/>
</g>
</g>
</svg>
