<?xml version="1.0" encoding="UTF-8" standalone="no"?>
<!DOCTYPE svg PUBLIC "-//W3C//DTD SVG 1.1//EN"
 "http://www.w3.org/Graphics/SVG/1.1/DTD/svg11.dtd">
<!-- Generated by graphviz version 3.0.0 (20220226.1711)
 -->
<!-- Title: dependencies Pages: 1 -->
<svg width="2569pt" height="174pt"
 viewBox="0.00 0.00 2569.00 173.80" xmlns="http://www.w3.org/2000/svg" xmlns:xlink="http://www.w3.org/1999/xlink">
<g id="graph0" class="graph" transform="scale(1 1) rotate(0) translate(4 169.8)">
<title>dependencies</title>
<polygon fill="white" stroke="transparent" points="-4,4 -4,-169.8 2565,-169.8 2565,4 -4,4"/>
<text text-anchor="middle" x="1280.5" y="-8.2" font-family="sans-serif" font-size="14.00">dependencies</text>
<g id="clust1" class="cluster">
<title>cluster_LearnroomModule</title>
<polygon fill="none" stroke="black" stroke-dasharray="1,5" points="8,-32.8 8,-157.8 2553,-157.8 2553,-32.8 8,-32.8"/>
</g>
<g id="clust3" class="cluster">
<title>cluster_LearnroomModule_imports</title>
<polygon fill="none" stroke="black" points="2391,-40.8 2391,-92.8 2545,-92.8 2545,-40.8 2391,-40.8"/>
</g>
<g id="clust6" class="cluster">
<title>cluster_LearnroomModule_providers</title>
<polygon fill="none" stroke="black" points="16,-40.8 16,-92.8 2383,-92.8 2383,-40.8 16,-40.8"/>
</g>
<!-- AuthorizationModule -->
<g id="node1" class="node">
<title>AuthorizationModule</title>
<polygon fill="#8dd3c7" stroke="black" points="2536.81,-84.8 2533.81,-88.8 2512.81,-88.8 2509.81,-84.8 2399.19,-84.8 2399.19,-48.8 2536.81,-48.8 2536.81,-84.8"/>
<text text-anchor="middle" x="2468" y="-62.6" font-family="Times,serif" font-size="14.00">AuthorizationModule</text>
</g>
<!-- LearnroomModule -->
<g id="node2" class="node">
<title>LearnroomModule</title>
<polygon fill="#8dd3c7" stroke="black" points="1398.75,-149.8 1395.75,-153.8 1374.75,-153.8 1371.75,-149.8 1277.25,-149.8 1277.25,-113.8 1398.75,-113.8 1398.75,-149.8"/>
<text text-anchor="middle" x="1338" y="-127.6" font-family="Times,serif" font-size="14.00">LearnroomModule</text>
</g>
<!-- AuthorizationModule&#45;&gt;LearnroomModule -->
<g id="edge1" class="edge">
<title>AuthorizationModule&#45;&gt;LearnroomModule</title>
<path fill="none" stroke="black" d="M2468,-85.12C2468,-108.46 2468,-145.8 2468,-145.8 2468,-145.8 1408.75,-145.8 1408.75,-145.8"/>
<polygon fill="black" stroke="black" points="1408.75,-142.3 1398.75,-145.8 1408.75,-149.3 1408.75,-142.3"/>
</g>
<!-- BoardRepo -->
<g id="node3" class="node">
<title>BoardRepo</title>
<ellipse fill="#fdb462" stroke="black" cx="2320" cy="-66.8" rx="55.04" ry="18"/>
<text text-anchor="middle" x="2320" y="-62.6" font-family="Times,serif" font-size="14.00">BoardRepo</text>
</g>
<!-- BoardRepo&#45;&gt;LearnroomModule -->
<g id="edge2" class="edge">
<title>BoardRepo&#45;&gt;LearnroomModule</title>
<path fill="none" stroke="black" d="M2320,-85.09C2320,-107.01 2320,-140.8 2320,-140.8 2320,-140.8 1409.06,-140.8 1409.06,-140.8"/>
<polygon fill="black" stroke="black" points="1409.06,-137.3 1399.06,-140.8 1409.06,-144.3 1409.06,-137.3"/>
</g>
<!-- CourseCopyService -->
<g id="node4" class="node">
<title>CourseCopyService</title>
<ellipse fill="#fdb462" stroke="black" cx="2159" cy="-66.8" rx="88.06" ry="18"/>
<text text-anchor="middle" x="2159" y="-62.6" font-family="Times,serif" font-size="14.00">CourseCopyService</text>
</g>
<!-- CourseCopyService&#45;&gt;LearnroomModule -->
<g id="edge3" class="edge">
<title>CourseCopyService&#45;&gt;LearnroomModule</title>
<path fill="none" stroke="black" d="M2159,-84.83C2159,-105.57 2159,-136.8 2159,-136.8 2159,-136.8 1409.04,-136.8 1409.04,-136.8"/>
<polygon fill="black" stroke="black" points="1409.04,-133.3 1399.04,-136.8 1409.04,-140.3 1409.04,-133.3"/>
</g>
<!-- CourseCopyUC -->
<g id="node5" class="node">
<title>CourseCopyUC</title>
<ellipse fill="#fdb462" stroke="black" cx="1980" cy="-66.8" rx="72.97" ry="18"/>
<text text-anchor="middle" x="1980" y="-62.6" font-family="Times,serif" font-size="14.00">CourseCopyUC</text>
</g>
<!-- CourseCopyUC&#45;&gt;LearnroomModule -->
<g id="edge4" class="edge">
<title>CourseCopyUC&#45;&gt;LearnroomModule</title>
<path fill="none" stroke="black" d="M1980,-84.91C1980,-104.14 1980,-131.8 1980,-131.8 1980,-131.8 1408.98,-131.8 1408.98,-131.8"/>
<polygon fill="black" stroke="black" points="1408.98,-128.3 1398.98,-131.8 1408.98,-135.3 1408.98,-128.3"/>
</g>
<!-- CourseRepo -->
<g id="node6" class="node">
<title>CourseRepo</title>
<ellipse fill="#fdb462" stroke="black" cx="1830" cy="-66.8" rx="58.56" ry="18"/>
<text text-anchor="middle" x="1830" y="-62.6" font-family="Times,serif" font-size="14.00">CourseRepo</text>
</g>
<!-- CourseRepo&#45;&gt;LearnroomModule -->
<g id="edge5" class="edge">
<title>CourseRepo&#45;&gt;LearnroomModule</title>
<path fill="none" stroke="black" d="M1830,-85.1C1830,-103.07 1830,-127.8 1830,-127.8 1830,-127.8 1408.82,-127.8 1408.82,-127.8"/>
<polygon fill="black" stroke="black" points="1408.82,-124.3 1398.82,-127.8 1408.82,-131.3 1408.82,-124.3"/>
</g>
<!-- CourseUc -->
<g id="node7" class="node">
<title>CourseUc</title>
<ellipse fill="#fdb462" stroke="black" cx="1704" cy="-66.8" rx="49.81" ry="18"/>
<text text-anchor="middle" x="1704" y="-62.6" font-family="Times,serif" font-size="14.00">CourseUc</text>
</g>
<!-- CourseUc&#45;&gt;LearnroomModule -->
<g id="edge6" class="edge">
<title>CourseUc&#45;&gt;LearnroomModule</title>
<path fill="none" stroke="black" d="M1704,-84.83C1704,-101.2 1704,-122.8 1704,-122.8 1704,-122.8 1408.85,-122.8 1408.85,-122.8"/>
<polygon fill="black" stroke="black" points="1408.85,-119.3 1398.85,-122.8 1408.85,-126.3 1408.85,-119.3"/>
</g>
<!-- DashboardModelMapper -->
<g id="node8" class="node">
<title>DashboardModelMapper</title>
<ellipse fill="#fdb462" stroke="black" cx="1528" cy="-66.8" rx="108.23" ry="18"/>
<text text-anchor="middle" x="1528" y="-62.6" font-family="Times,serif" font-size="14.00">DashboardModelMapper</text>
</g>
<!-- DashboardModelMapper&#45;&gt;LearnroomModule -->
<g id="edge7" class="edge">
<title>DashboardModelMapper&#45;&gt;LearnroomModule</title>
<path fill="none" stroke="black" d="M1528,-84.99C1528,-99.98 1528,-118.8 1528,-118.8 1528,-118.8 1408.9,-118.8 1408.9,-118.8"/>
<polygon fill="black" stroke="black" points="1408.9,-115.3 1398.9,-118.8 1408.9,-122.3 1408.9,-115.3"/>
</g>
<!-- DashboardUc -->
<g id="node9" class="node">
<title>DashboardUc</title>
<ellipse fill="#fdb462" stroke="black" cx="1338" cy="-66.8" rx="64.26" ry="18"/>
<text text-anchor="middle" x="1338" y="-62.6" font-family="Times,serif" font-size="14.00">DashboardUc</text>
</g>
<!-- DashboardUc&#45;&gt;LearnroomModule -->
<g id="edge8" class="edge">
<title>DashboardUc&#45;&gt;LearnroomModule</title>
<path fill="none" stroke="black" d="M1338,-84.91C1338,-84.91 1338,-103.79 1338,-103.79"/>
<polygon fill="black" stroke="black" points="1334.5,-103.79 1338,-113.79 1341.5,-103.79 1334.5,-103.79"/>
</g>
<!-- LessonRepo -->
<g id="node10" class="node">
<title>LessonRepo</title>
<ellipse fill="#fdb462" stroke="black" cx="1197" cy="-66.8" rx="58.56" ry="18"/>
<text text-anchor="middle" x="1197" y="-62.6" font-family="Times,serif" font-size="14.00">LessonRepo</text>
</g>
<!-- LessonRepo&#45;&gt;LearnroomModule -->
<g id="edge9" class="edge">
<title>LessonRepo&#45;&gt;LearnroomModule</title>
<path fill="none" stroke="black" d="M1197,-84.99C1197,-99.98 1197,-118.8 1197,-118.8 1197,-118.8 1266.98,-118.8 1266.98,-118.8"/>
<polygon fill="black" stroke="black" points="1266.98,-122.3 1276.98,-118.8 1266.98,-115.3 1266.98,-122.3"/>
</g>
<!-- RoomBoardDTOFactory -->
<g id="node11" class="node">
<title>RoomBoardDTOFactory</title>
<ellipse fill="#fdb462" stroke="black" cx="1013" cy="-66.8" rx="107.68" ry="18"/>
<text text-anchor="middle" x="1013" y="-62.6" font-family="Times,serif" font-size="14.00">RoomBoardDTOFactory</text>
</g>
<!-- RoomBoardDTOFactory&#45;&gt;LearnroomModule -->
<g id="edge10" class="edge">
<title>RoomBoardDTOFactory&#45;&gt;LearnroomModule</title>
<path fill="none" stroke="black" d="M1013,-84.83C1013,-101.2 1013,-122.8 1013,-122.8 1013,-122.8 1267.25,-122.8 1267.25,-122.8"/>
<polygon fill="black" stroke="black" points="1267.25,-126.3 1277.25,-122.8 1267.25,-119.3 1267.25,-126.3"/>
</g>
<!-- RoomBoardResponseMapper -->
<g id="node12" class="node">
<title>RoomBoardResponseMapper</title>
<ellipse fill="#fdb462" stroke="black" cx="762" cy="-66.8" rx="125.09" ry="18"/>
<text text-anchor="middle" x="762" y="-62.6" font-family="Times,serif" font-size="14.00">RoomBoardResponseMapper</text>
</g>
<!-- RoomBoardResponseMapper&#45;&gt;LearnroomModule -->
<g id="edge11" class="edge">
<title>RoomBoardResponseMapper&#45;&gt;LearnroomModule</title>
<path fill="none" stroke="black" d="M762,-85.1C762,-103.07 762,-127.8 762,-127.8 762,-127.8 1267.18,-127.8 1267.18,-127.8"/>
<polygon fill="black" stroke="black" points="1267.18,-131.3 1277.18,-127.8 1267.18,-124.3 1267.18,-131.3"/>
</g>
<!-- RoomsAuthorisationService -->
<g id="node13" class="node">
<title>RoomsAuthorisationService</title>
<ellipse fill="#fdb462" stroke="black" cx="498" cy="-66.8" rx="120.44" ry="18"/>
<text text-anchor="middle" x="498" y="-62.6" font-family="Times,serif" font-size="14.00">RoomsAuthorisationService</text>
</g>
<!-- RoomsAuthorisationService&#45;&gt;LearnroomModule -->
<g id="edge12" class="edge">
<title>RoomsAuthorisationService&#45;&gt;LearnroomModule</title>
<path fill="none" stroke="black" d="M498,-84.91C498,-104.14 498,-131.8 498,-131.8 498,-131.8 1267.25,-131.8 1267.25,-131.8"/>
<polygon fill="black" stroke="black" points="1267.25,-135.3 1277.25,-131.8 1267.25,-128.3 1267.25,-135.3"/>
</g>
<!-- RoomsUc -->
<g id="node14" class="node">
<title>RoomsUc</title>
<ellipse fill="#fdb462" stroke="black" cx="310" cy="-66.8" rx="49.83" ry="18"/>
<text text-anchor="middle" x="310" y="-62.6" font-family="Times,serif" font-size="14.00">RoomsUc</text>
</g>
<!-- RoomsUc&#45;&gt;LearnroomModule -->
<g id="edge13" class="edge">
<title>RoomsUc&#45;&gt;LearnroomModule</title>
<path fill="none" stroke="black" d="M310,-84.83C310,-105.57 310,-136.8 310,-136.8 310,-136.8 1267.15,-136.8 1267.15,-136.8"/>
<polygon fill="black" stroke="black" points="1267.15,-140.3 1277.15,-136.8 1267.15,-133.3 1267.15,-140.3"/>
</g>
<!-- TaskRepo -->
<g id="node15" class="node">
<title>TaskRepo</title>
<ellipse fill="#fdb462" stroke="black" cx="192" cy="-66.8" rx="50.39" ry="18"/>
<text text-anchor="middle" x="192" y="-62.6" font-family="Times,serif" font-size="14.00">TaskRepo</text>
</g>
<!-- TaskRepo&#45;&gt;LearnroomModule -->
<g id="edge14" class="edge">
<title>TaskRepo&#45;&gt;LearnroomModule</title>
<path fill="none" stroke="black" d="M192,-85.09C192,-107.01 192,-140.8 192,-140.8 192,-140.8 1267.2,-140.8 1267.2,-140.8"/>
<polygon fill="black" stroke="black" points="1267.2,-144.3 1277.2,-140.8 1267.2,-137.3 1267.2,-144.3"/>
</g>
<!-- UserRepo -->
<g id="node16" class="node">
<title>UserRepo</title>
<ellipse fill="#fdb462" stroke="black" cx="74" cy="-66.8" rx="49.81" ry="18"/>
<text text-anchor="middle" x="74" y="-62.6" font-family="Times,serif" font-size="14.00">UserRepo</text>
</g>
<!-- UserRepo&#45;&gt;LearnroomModule -->
<g id="edge15" class="edge">
<title>UserRepo&#45;&gt;LearnroomModule</title>
<path fill="none" stroke="black" d="M74,-85.12C74,-108.46 74,-145.8 74,-145.8 74,-145.8 1267.03,-145.8 1267.03,-145.8"/>
<polygon fill="black" stroke="black" points="1267.03,-149.3 1277.03,-145.8 1267.03,-142.3 1267.03,-149.3"/>
</g>
</g>
</svg>
