<?xml version="1.0" encoding="UTF-8" standalone="no"?>
<!DOCTYPE svg PUBLIC "-//W3C//DTD SVG 1.1//EN"
 "http://www.w3.org/Graphics/SVG/1.1/DTD/svg11.dtd">
<!-- Generated by graphviz version 5.0.0 (20220707.1540)
 -->
<!-- Title: dependencies Pages: 1 -->
<svg width="6152pt" height="247pt"
 viewBox="0.00 0.00 6152.00 246.80" xmlns="http://www.w3.org/2000/svg" xmlns:xlink="http://www.w3.org/1999/xlink">
<g id="graph0" class="graph" transform="scale(1 1) rotate(0) translate(4 242.8)">
<title>dependencies</title>
<polygon fill="white" stroke="transparent" points="-4,4 -4,-242.8 6148,-242.8 6148,4 -4,4"/>
<text text-anchor="middle" x="3072" y="-8.2" font-family="sans-serif" font-size="14.00">dependencies</text>
<g id="clust1" class="cluster">
<title>cluster_LearnroomModule</title>
<polygon fill="none" stroke="black" stroke-dasharray="1,5" points="8,-32.8 8,-230.8 6136,-230.8 6136,-32.8 8,-32.8"/>
</g>
<g id="clust6" class="cluster">
<title>cluster_LearnroomModule_providers</title>
<polygon fill="none" stroke="black" points="581,-40.8 581,-92.8 6128,-92.8 6128,-40.8 581,-40.8"/>
</g>
<g id="clust3" class="cluster">
<title>cluster_LearnroomModule_imports</title>
<polygon fill="none" stroke="black" points="16,-40.8 16,-92.8 573,-92.8 573,-40.8 16,-40.8"/>
</g>
<g id="clust4" class="cluster">
<title>cluster_LearnroomModule_exports</title>
<polygon fill="none" stroke="black" points="2725,-170.8 2725,-222.8 3002,-222.8 3002,-170.8 2725,-170.8"/>
</g>
<!-- AuthorizationModule -->
<g id="node1" class="node">
<title>AuthorizationModule</title>
<polygon fill="#8dd3c7" stroke="black" points="564.81,-84.8 561.81,-88.8 540.81,-88.8 537.81,-84.8 427.19,-84.8 427.19,-48.8 564.81,-48.8 564.81,-84.8"/>
<text text-anchor="middle" x="496" y="-62.6" font-family="Times,serif" font-size="14.00">AuthorizationModule</text>
</g>
<!-- LearnroomModule -->
<g id="node5" class="node">
<title>LearnroomModule</title>
<polygon fill="#8dd3c7" stroke="black" points="2918.75,-149.8 2915.75,-153.8 2894.75,-153.8 2891.75,-149.8 2797.25,-149.8 2797.25,-113.8 2918.75,-113.8 2918.75,-149.8"/>
<text text-anchor="middle" x="2858" y="-127.6" font-family="Times,serif" font-size="14.00">LearnroomModule</text>
</g>
<!-- AuthorizationModule&#45;&gt;LearnroomModule -->
<g id="edge1" class="edge">
<title>AuthorizationModule&#45;&gt;LearnroomModule</title>
<path fill="none" stroke="black" d="M496,-84.96C496,-107.15 496,-141.8 496,-141.8 496,-141.8 2787.24,-141.8 2787.24,-141.8"/>
<polygon fill="black" stroke="black" points="2787.24,-145.3 2797.24,-141.8 2787.24,-138.3 2787.24,-145.3"/>
</g>
<!-- FilesStorageClientModule -->
<g id="node2" class="node">
<title>FilesStorageClientModule</title>
<polygon fill="#8dd3c7" stroke="black" points="408.77,-84.8 405.77,-88.8 384.77,-88.8 381.77,-84.8 245.23,-84.8 245.23,-48.8 408.77,-48.8 408.77,-84.8"/>
<text text-anchor="middle" x="327" y="-62.6" font-family="Times,serif" font-size="14.00">FilesStorageClientModule</text>
</g>
<!-- FilesStorageClientModule&#45;&gt;LearnroomModule -->
<g id="edge2" class="edge">
<title>FilesStorageClientModule&#45;&gt;LearnroomModule</title>
<path fill="none" stroke="black" d="M327,-85.05C327,-107.82 327,-143.8 327,-143.8 327,-143.8 2787,-143.8 2787,-143.8"/>
<polygon fill="black" stroke="black" points="2787,-147.3 2797,-143.8 2787,-140.3 2787,-147.3"/>
</g>
<!-- LessonModule -->
<g id="node3" class="node">
<title>LessonModule</title>
<polygon fill="#8dd3c7" stroke="black" points="227.71,-84.8 224.71,-88.8 203.71,-88.8 200.71,-84.8 128.29,-84.8 128.29,-48.8 227.71,-48.8 227.71,-84.8"/>
<text text-anchor="middle" x="178" y="-62.6" font-family="Times,serif" font-size="14.00">LessonModule</text>
</g>
<!-- LessonModule&#45;&gt;LearnroomModule -->
<g id="edge3" class="edge">
<title>LessonModule&#45;&gt;LearnroomModule</title>
<path fill="none" stroke="black" d="M178,-85.12C178,-108.46 178,-145.8 178,-145.8 178,-145.8 2786.99,-145.8 2786.99,-145.8"/>
<polygon fill="black" stroke="black" points="2786.99,-149.3 2796.99,-145.8 2786.99,-142.3 2786.99,-149.3"/>
</g>
<!-- TaskModule -->
<g id="node4" class="node">
<title>TaskModule</title>
<polygon fill="#8dd3c7" stroke="black" points="110.27,-84.8 107.27,-88.8 86.27,-88.8 83.27,-84.8 23.73,-84.8 23.73,-48.8 110.27,-48.8 110.27,-84.8"/>
<text text-anchor="middle" x="67" y="-62.6" font-family="Times,serif" font-size="14.00">TaskModule</text>
</g>
<!-- TaskModule&#45;&gt;LearnroomModule -->
<g id="edge4" class="edge">
<title>TaskModule&#45;&gt;LearnroomModule</title>
<path fill="none" stroke="black" d="M67,-85.18C67,-109.08 67,-147.8 67,-147.8 67,-147.8 2787.11,-147.8 2787.11,-147.8"/>
<polygon fill="black" stroke="black" points="2787.11,-151.3 2797.11,-147.8 2787.11,-144.3 2787.11,-151.3"/>
</g>
<!-- CourseCopyService  -->
<g id="node6" class="node">
<title>CourseCopyService </title>
<polygon fill="#fb8072" stroke="black" points="2993.98,-214.8 2862.02,-214.8 2862.02,-178.8 2993.98,-178.8 2993.98,-214.8"/>
<text text-anchor="middle" x="2928" y="-192.6" font-family="Times,serif" font-size="14.00">CourseCopyService </text>
</g>
<!-- LearnroomModule&#45;&gt;CourseCopyService  -->
<g id="edge5" class="edge">
<title>LearnroomModule&#45;&gt;CourseCopyService </title>
<path fill="none" stroke="black" stroke-dasharray="5,2" d="M2890.57,-149.91C2890.57,-149.91 2890.57,-168.79 2890.57,-168.79"/>
<polygon fill="black" stroke="black" points="2887.07,-168.79 2890.57,-178.79 2894.07,-168.79 2887.07,-168.79"/>
</g>
<!-- MetadataLoader  -->
<g id="node7" class="node">
<title>MetadataLoader </title>
<polygon fill="#fb8072" stroke="black" points="2844.72,-214.8 2733.28,-214.8 2733.28,-178.8 2844.72,-178.8 2844.72,-214.8"/>
<text text-anchor="middle" x="2789" y="-192.6" font-family="Times,serif" font-size="14.00">MetadataLoader </text>
</g>
<!-- LearnroomModule&#45;&gt;MetadataLoader  -->
<g id="edge6" class="edge">
<title>LearnroomModule&#45;&gt;MetadataLoader </title>
<path fill="none" stroke="black" stroke-dasharray="5,2" d="M2820.87,-149.91C2820.87,-149.91 2820.87,-168.79 2820.87,-168.79"/>
<polygon fill="black" stroke="black" points="2817.37,-168.79 2820.87,-178.79 2824.37,-168.79 2817.37,-168.79"/>
</g>
<!-- BoardCopyService -->
<g id="node8" class="node">
<title>BoardCopyService</title>
<ellipse fill="#fdb462" stroke="black" cx="6035" cy="-66.8" rx="84.54" ry="18"/>
<text text-anchor="middle" x="6035" y="-62.6" font-family="Times,serif" font-size="14.00">BoardCopyService</text>
</g>
<!-- BoardCopyService&#45;&gt;LearnroomModule -->
<g id="edge7" class="edge">
<title>BoardCopyService&#45;&gt;LearnroomModule</title>
<path fill="none" stroke="black" d="M6035,-85.18C6035,-109.08 6035,-147.8 6035,-147.8 6035,-147.8 2928.98,-147.8 2928.98,-147.8"/>
<polygon fill="black" stroke="black" points="2928.98,-144.3 2918.98,-147.8 2928.98,-151.3 2928.98,-144.3"/>
</g>
<!-- BoardRepo -->
<g id="node9" class="node">
<title>BoardRepo</title>
<ellipse fill="#fdb462" stroke="black" cx="5877" cy="-66.8" rx="55.04" ry="18"/>
<text text-anchor="middle" x="5877" y="-62.6" font-family="Times,serif" font-size="14.00">BoardRepo</text>
</g>
<!-- BoardRepo&#45;&gt;LearnroomModule -->
<g id="edge8" class="edge">
<title>BoardRepo&#45;&gt;LearnroomModule</title>
<path fill="none" stroke="black" d="M5877,-85.12C5877,-108.46 5877,-145.8 5877,-145.8 5877,-145.8 2928.99,-145.8 2928.99,-145.8"/>
<polygon fill="black" stroke="black" points="2928.99,-142.3 2918.99,-145.8 2928.99,-149.3 2928.99,-142.3"/>
</g>
<!-- CommonCartridgeExportService -->
<g id="node10" class="node">
<title>CommonCartridgeExportService</title>
<ellipse fill="#fdb462" stroke="black" cx="5665" cy="-66.8" rx="138.89" ry="18"/>
<text text-anchor="middle" x="5665" y="-62.6" font-family="Times,serif" font-size="14.00">CommonCartridgeExportService</text>
</g>
<!-- CommonCartridgeExportService&#45;&gt;LearnroomModule -->
<g id="edge9" class="edge">
<title>CommonCartridgeExportService&#45;&gt;LearnroomModule</title>
<path fill="none" stroke="black" d="M5665,-85.05C5665,-107.82 5665,-143.8 5665,-143.8 5665,-143.8 2928.91,-143.8 2928.91,-143.8"/>
<polygon fill="black" stroke="black" points="2928.91,-140.3 2918.91,-143.8 2928.91,-147.3 2928.91,-140.3"/>
</g>
<!-- CopyHelperService -->
<g id="node11" class="node">
<title>CopyHelperService</title>
<ellipse fill="#fdb462" stroke="black" cx="5421" cy="-66.8" rx="87.39" ry="18"/>
<text text-anchor="middle" x="5421" y="-62.6" font-family="Times,serif" font-size="14.00">CopyHelperService</text>
</g>
<!-- CopyHelperService&#45;&gt;LearnroomModule -->
<g id="edge10" class="edge">
<title>CopyHelperService&#45;&gt;LearnroomModule</title>
<path fill="none" stroke="black" d="M5421,-84.96C5421,-107.15 5421,-141.8 5421,-141.8 5421,-141.8 2928.83,-141.8 2928.83,-141.8"/>
<polygon fill="black" stroke="black" points="2928.83,-138.3 2918.83,-141.8 2928.83,-145.3 2928.83,-138.3"/>
</g>
<!-- CourseCopyService -->
<g id="node12" class="node">
<title>CourseCopyService</title>
<ellipse fill="#fdb462" stroke="black" cx="5228" cy="-66.8" rx="88.06" ry="18"/>
<text text-anchor="middle" x="5228" y="-62.6" font-family="Times,serif" font-size="14.00">CourseCopyService</text>
</g>
<!-- CourseCopyService&#45;&gt;LearnroomModule -->
<g id="edge11" class="edge">
<title>CourseCopyService&#45;&gt;LearnroomModule</title>
<path fill="none" stroke="black" d="M5228,-84.84C5228,-106.46 5228,-139.8 5228,-139.8 5228,-139.8 2928.97,-139.8 2928.97,-139.8"/>
<polygon fill="black" stroke="black" points="2928.97,-136.3 2918.97,-139.8 2928.97,-143.3 2928.97,-136.3"/>
</g>
<!-- CourseCopyUC -->
<g id="node13" class="node">
<title>CourseCopyUC</title>
<ellipse fill="#fdb462" stroke="black" cx="5049" cy="-66.8" rx="72.97" ry="18"/>
<text text-anchor="middle" x="5049" y="-62.6" font-family="Times,serif" font-size="14.00">CourseCopyUC</text>
</g>
<!-- CourseCopyUC&#45;&gt;LearnroomModule -->
<g id="edge12" class="edge">
<title>CourseCopyUC&#45;&gt;LearnroomModule</title>
<path fill="none" stroke="black" d="M5049,-85.08C5049,-106.12 5049,-137.8 5049,-137.8 5049,-137.8 2928.89,-137.8 2928.89,-137.8"/>
<polygon fill="black" stroke="black" points="2928.89,-134.3 2918.89,-137.8 2928.89,-141.3 2928.89,-134.3"/>
</g>
<!-- CourseEntityCopyService -->
<g id="node14" class="node">
<title>CourseEntityCopyService</title>
<ellipse fill="#fdb462" stroke="black" cx="4846" cy="-66.8" rx="111.77" ry="18"/>
<text text-anchor="middle" x="4846" y="-62.6" font-family="Times,serif" font-size="14.00">CourseEntityCopyService</text>
</g>
<!-- CourseEntityCopyService&#45;&gt;LearnroomModule -->
<g id="edge13" class="edge">
<title>CourseEntityCopyService&#45;&gt;LearnroomModule</title>
<path fill="none" stroke="black" d="M4846,-84.93C4846,-105.37 4846,-135.8 4846,-135.8 4846,-135.8 2928.86,-135.8 2928.86,-135.8"/>
<polygon fill="black" stroke="black" points="2928.86,-132.3 2918.86,-135.8 2928.86,-139.3 2928.86,-132.3"/>
</g>
<!-- CourseExportUc -->
<g id="node15" class="node">
<title>CourseExportUc</title>
<ellipse fill="#fdb462" stroke="black" cx="4640" cy="-66.8" rx="75.88" ry="18"/>
<text text-anchor="middle" x="4640" y="-62.6" font-family="Times,serif" font-size="14.00">CourseExportUc</text>
</g>
<!-- CourseExportUc&#45;&gt;LearnroomModule -->
<g id="edge14" class="edge">
<title>CourseExportUc&#45;&gt;LearnroomModule</title>
<path fill="none" stroke="black" d="M4640,-85.11C4640,-104.95 4640,-133.8 4640,-133.8 4640,-133.8 2928.82,-133.8 2928.82,-133.8"/>
<polygon fill="black" stroke="black" points="2928.82,-130.3 2918.82,-133.8 2928.82,-137.3 2928.82,-130.3"/>
</g>
<!-- CourseRepo -->
<g id="node16" class="node">
<title>CourseRepo</title>
<ellipse fill="#fdb462" stroke="black" cx="4487" cy="-66.8" rx="58.56" ry="18"/>
<text text-anchor="middle" x="4487" y="-62.6" font-family="Times,serif" font-size="14.00">CourseRepo</text>
</g>
<!-- CourseRepo&#45;&gt;LearnroomModule -->
<g id="edge15" class="edge">
<title>CourseRepo&#45;&gt;LearnroomModule</title>
<path fill="none" stroke="black" d="M4487,-84.91C4487,-104.14 4487,-131.8 4487,-131.8 4487,-131.8 2928.89,-131.8 2928.89,-131.8"/>
<polygon fill="black" stroke="black" points="2928.89,-128.3 2918.89,-131.8 2928.89,-135.3 2928.89,-128.3"/>
</g>
<!-- CourseService -->
<g id="node17" class="node">
<title>CourseService</title>
<ellipse fill="#fdb462" stroke="black" cx="4343" cy="-66.8" rx="67.2" ry="18"/>
<text text-anchor="middle" x="4343" y="-62.6" font-family="Times,serif" font-size="14.00">CourseService</text>
</g>
<!-- CourseService&#45;&gt;LearnroomModule -->
<g id="edge16" class="edge">
<title>CourseService&#45;&gt;LearnroomModule</title>
<path fill="none" stroke="black" d="M4343,-85.02C4343,-103.63 4343,-129.8 4343,-129.8 4343,-129.8 2928.98,-129.8 2928.98,-129.8"/>
<polygon fill="black" stroke="black" points="2928.98,-126.3 2918.98,-129.8 2928.98,-133.3 2928.98,-126.3"/>
</g>
<!-- CourseUc -->
<g id="node18" class="node">
<title>CourseUc</title>
<ellipse fill="#fdb462" stroke="black" cx="4208" cy="-66.8" rx="49.81" ry="18"/>
<text text-anchor="middle" x="4208" y="-62.6" font-family="Times,serif" font-size="14.00">CourseUc</text>
</g>
<!-- CourseUc&#45;&gt;LearnroomModule -->
<g id="edge17" class="edge">
<title>CourseUc&#45;&gt;LearnroomModule</title>
<path fill="none" stroke="black" d="M4208,-85.1C4208,-103.07 4208,-127.8 4208,-127.8 4208,-127.8 2929.07,-127.8 2929.07,-127.8"/>
<polygon fill="black" stroke="black" points="2929.07,-124.3 2919.07,-127.8 2929.07,-131.3 2929.07,-124.3"/>
</g>
<!-- DashboardModelMapper -->
<g id="node19" class="node">
<title>DashboardModelMapper</title>
<ellipse fill="#fdb462" stroke="black" cx="4032" cy="-66.8" rx="108.23" ry="18"/>
<text text-anchor="middle" x="4032" y="-62.6" font-family="Times,serif" font-size="14.00">DashboardModelMapper</text>
</g>
<!-- DashboardModelMapper&#45;&gt;LearnroomModule -->
<g id="edge18" class="edge">
<title>DashboardModelMapper&#45;&gt;LearnroomModule</title>
<path fill="none" stroke="black" d="M4032,-84.82C4032,-102.17 4032,-125.8 4032,-125.8 4032,-125.8 2929.06,-125.8 2929.06,-125.8"/>
<polygon fill="black" stroke="black" points="2929.06,-122.3 2919.06,-125.8 2929.06,-129.3 2929.06,-122.3"/>
</g>
<!-- DashboardUc -->
<g id="node20" class="node">
<title>DashboardUc</title>
<ellipse fill="#fdb462" stroke="black" cx="3842" cy="-66.8" rx="64.26" ry="18"/>
<text text-anchor="middle" x="3842" y="-62.6" font-family="Times,serif" font-size="14.00">DashboardUc</text>
</g>
<!-- DashboardUc&#45;&gt;LearnroomModule -->
<g id="edge19" class="edge">
<title>DashboardUc&#45;&gt;LearnroomModule</title>
<path fill="none" stroke="black" d="M3842,-84.84C3842,-101.53 3842,-123.8 3842,-123.8 3842,-123.8 2928.81,-123.8 2928.81,-123.8"/>
<polygon fill="black" stroke="black" points="2928.81,-120.3 2918.81,-123.8 2928.81,-127.3 2928.81,-120.3"/>
</g>
<!-- EtherpadService -->
<g id="node21" class="node">
<title>EtherpadService</title>
<ellipse fill="#fdb462" stroke="black" cx="3685" cy="-66.8" rx="74.7" ry="18"/>
<text text-anchor="middle" x="3685" y="-62.6" font-family="Times,serif" font-size="14.00">EtherpadService</text>
</g>
<!-- EtherpadService&#45;&gt;LearnroomModule -->
<g id="edge20" class="edge">
<title>EtherpadService&#45;&gt;LearnroomModule</title>
<path fill="none" stroke="black" d="M3685,-84.81C3685,-100.85 3685,-121.8 3685,-121.8 3685,-121.8 2928.81,-121.8 2928.81,-121.8"/>
<polygon fill="black" stroke="black" points="2928.81,-118.3 2918.81,-121.8 2928.81,-125.3 2928.81,-118.3"/>
</g>
<!-- FeathersServiceProvider -->
<g id="node22" class="node">
<title>FeathersServiceProvider</title>
<ellipse fill="#fdb462" stroke="black" cx="3486" cy="-66.8" rx="105.93" ry="18"/>
<text text-anchor="middle" x="3486" y="-62.6" font-family="Times,serif" font-size="14.00">FeathersServiceProvider</text>
</g>
<!-- FeathersServiceProvider&#45;&gt;LearnroomModule -->
<g id="edge21" class="edge">
<title>FeathersServiceProvider&#45;&gt;LearnroomModule</title>
<path fill="none" stroke="black" d="M3486,-85.04C3486,-100.37 3486,-119.8 3486,-119.8 3486,-119.8 2928.79,-119.8 2928.79,-119.8"/>
<polygon fill="black" stroke="black" points="2928.79,-116.3 2918.79,-119.8 2928.79,-123.3 2928.79,-116.3"/>
</g>
<!-- FileCopyAppendService -->
<g id="node23" class="node">
<title>FileCopyAppendService</title>
<ellipse fill="#fdb462" stroke="black" cx="3256" cy="-66.8" rx="106.53" ry="18"/>
<text text-anchor="middle" x="3256" y="-62.6" font-family="Times,serif" font-size="14.00">FileCopyAppendService</text>
</g>
<!-- FileCopyAppendService&#45;&gt;LearnroomModule -->
<g id="edge22" class="edge">
<title>FileCopyAppendService&#45;&gt;LearnroomModule</title>
<path fill="none" stroke="black" d="M3256,-84.92C3256,-99.58 3256,-117.8 3256,-117.8 3256,-117.8 2928.88,-117.8 2928.88,-117.8"/>
<polygon fill="black" stroke="black" points="2928.88,-114.3 2918.88,-117.8 2928.88,-121.3 2928.88,-114.3"/>
</g>
<!-- FileLegacyService -->
<g id="node24" class="node">
<title>FileLegacyService</title>
<ellipse fill="#fdb462" stroke="black" cx="3048" cy="-66.8" rx="83.36" ry="18"/>
<text text-anchor="middle" x="3048" y="-62.6" font-family="Times,serif" font-size="14.00">FileLegacyService</text>
</g>
<!-- FileLegacyService&#45;&gt;LearnroomModule -->
<g id="edge23" class="edge">
<title>FileLegacyService&#45;&gt;LearnroomModule</title>
<path fill="none" stroke="black" d="M2979.15,-77.19C2979.15,-91.58 2979.15,-115.8 2979.15,-115.8 2979.15,-115.8 2928.93,-115.8 2928.93,-115.8"/>
<polygon fill="black" stroke="black" points="2928.93,-112.3 2918.93,-115.8 2928.93,-119.3 2928.93,-112.3"/>
</g>
<!-- LessonCopyService -->
<g id="node25" class="node">
<title>LessonCopyService</title>
<ellipse fill="#fdb462" stroke="black" cx="2858" cy="-66.8" rx="88.06" ry="18"/>
<text text-anchor="middle" x="2858" y="-62.6" font-family="Times,serif" font-size="14.00">LessonCopyService</text>
</g>
<!-- LessonCopyService&#45;&gt;LearnroomModule -->
<g id="edge24" class="edge">
<title>LessonCopyService&#45;&gt;LearnroomModule</title>
<path fill="none" stroke="black" d="M2858,-84.91C2858,-84.91 2858,-103.79 2858,-103.79"/>
<polygon fill="black" stroke="black" points="2854.5,-103.79 2858,-113.79 2861.5,-103.79 2854.5,-103.79"/>
</g>
<!-- LessonCopyUC -->
<g id="node26" class="node">
<title>LessonCopyUC</title>
<ellipse fill="#fdb462" stroke="black" cx="2679" cy="-66.8" rx="72.97" ry="18"/>
<text text-anchor="middle" x="2679" y="-62.6" font-family="Times,serif" font-size="14.00">LessonCopyUC</text>
</g>
<!-- LessonCopyUC&#45;&gt;LearnroomModule -->
<g id="edge25" class="edge">
<title>LessonCopyUC&#45;&gt;LearnroomModule</title>
<path fill="none" stroke="black" d="M2742.56,-75.79C2742.56,-89.93 2742.56,-115.8 2742.56,-115.8 2742.56,-115.8 2787.24,-115.8 2787.24,-115.8"/>
<polygon fill="black" stroke="black" points="2787.24,-119.3 2797.24,-115.8 2787.24,-112.3 2787.24,-119.3"/>
</g>
<!-- LessonRepo -->
<g id="node27" class="node">
<title>LessonRepo</title>
<ellipse fill="#fdb462" stroke="black" cx="2529" cy="-66.8" rx="58.56" ry="18"/>
<text text-anchor="middle" x="2529" y="-62.6" font-family="Times,serif" font-size="14.00">LessonRepo</text>
</g>
<!-- LessonRepo&#45;&gt;LearnroomModule -->
<g id="edge26" class="edge">
<title>LessonRepo&#45;&gt;LearnroomModule</title>
<path fill="none" stroke="black" d="M2529,-84.92C2529,-99.58 2529,-117.8 2529,-117.8 2529,-117.8 2786.89,-117.8 2786.89,-117.8"/>
<polygon fill="black" stroke="black" points="2786.89,-121.3 2796.89,-117.8 2786.89,-114.3 2786.89,-121.3"/>
</g>
<!-- Logger -->
<g id="node28" class="node">
<title>Logger</title>
<ellipse fill="#fdb462" stroke="black" cx="2413" cy="-66.8" rx="38.85" ry="18"/>
<text text-anchor="middle" x="2413" y="-62.6" font-family="Times,serif" font-size="14.00">Logger</text>
</g>
<!-- Logger&#45;&gt;LearnroomModule -->
<g id="edge27" class="edge">
<title>Logger&#45;&gt;LearnroomModule</title>
<path fill="none" stroke="black" d="M2413,-85.04C2413,-100.37 2413,-119.8 2413,-119.8 2413,-119.8 2787.06,-119.8 2787.06,-119.8"/>
<polygon fill="black" stroke="black" points="2787.06,-123.3 2797.06,-119.8 2787.06,-116.3 2787.06,-123.3"/>
</g>
<!-- MetadataLoader -->
<g id="node29" class="node">
<title>MetadataLoader</title>
<ellipse fill="#fdb462" stroke="black" cx="2282" cy="-66.8" rx="74.11" ry="18"/>
<text text-anchor="middle" x="2282" y="-62.6" font-family="Times,serif" font-size="14.00">MetadataLoader</text>
</g>
<!-- MetadataLoader&#45;&gt;LearnroomModule -->
<g id="edge28" class="edge">
<title>MetadataLoader&#45;&gt;LearnroomModule</title>
<path fill="none" stroke="black" d="M2282,-84.81C2282,-100.85 2282,-121.8 2282,-121.8 2282,-121.8 2787.18,-121.8 2787.18,-121.8"/>
<polygon fill="black" stroke="black" points="2787.18,-125.3 2797.18,-121.8 2787.18,-118.3 2787.18,-125.3"/>
</g>
<!-- NexboardService -->
<g id="node30" class="node">
<title>NexboardService</title>
<ellipse fill="#fdb462" stroke="black" cx="2112" cy="-66.8" rx="78.14" ry="18"/>
<text text-anchor="middle" x="2112" y="-62.6" font-family="Times,serif" font-size="14.00">NexboardService</text>
</g>
<!-- NexboardService&#45;&gt;LearnroomModule -->
<g id="edge29" class="edge">
<title>NexboardService&#45;&gt;LearnroomModule</title>
<path fill="none" stroke="black" d="M2112,-84.84C2112,-101.53 2112,-123.8 2112,-123.8 2112,-123.8 2786.95,-123.8 2786.95,-123.8"/>
<polygon fill="black" stroke="black" points="2786.95,-127.3 2796.95,-123.8 2786.95,-120.3 2786.95,-127.3"/>
</g>
<!-- RoomBoardDTOFactory -->
<g id="node31" class="node">
<title>RoomBoardDTOFactory</title>
<ellipse fill="#fdb462" stroke="black" cx="1908" cy="-66.8" rx="107.68" ry="18"/>
<text text-anchor="middle" x="1908" y="-62.6" font-family="Times,serif" font-size="14.00">RoomBoardDTOFactory</text>
</g>
<!-- RoomBoardDTOFactory&#45;&gt;LearnroomModule -->
<g id="edge30" class="edge">
<title>RoomBoardDTOFactory&#45;&gt;LearnroomModule</title>
<path fill="none" stroke="black" d="M1908,-84.82C1908,-102.17 1908,-125.8 1908,-125.8 1908,-125.8 2787.13,-125.8 2787.13,-125.8"/>
<polygon fill="black" stroke="black" points="2787.13,-129.3 2797.13,-125.8 2787.13,-122.3 2787.13,-129.3"/>
</g>
<!-- RoomBoardResponseMapper -->
<g id="node32" class="node">
<title>RoomBoardResponseMapper</title>
<ellipse fill="#fdb462" stroke="black" cx="1657" cy="-66.8" rx="125.09" ry="18"/>
<text text-anchor="middle" x="1657" y="-62.6" font-family="Times,serif" font-size="14.00">RoomBoardResponseMapper</text>
</g>
<!-- RoomBoardResponseMapper&#45;&gt;LearnroomModule -->
<g id="edge31" class="edge">
<title>RoomBoardResponseMapper&#45;&gt;LearnroomModule</title>
<path fill="none" stroke="black" d="M1657,-85.1C1657,-103.07 1657,-127.8 1657,-127.8 1657,-127.8 2787.21,-127.8 2787.21,-127.8"/>
<polygon fill="black" stroke="black" points="2787.21,-131.3 2797.21,-127.8 2787.21,-124.3 2787.21,-131.3"/>
</g>
<!-- RoomsAuthorisationService -->
<g id="node33" class="node">
<title>RoomsAuthorisationService</title>
<ellipse fill="#fdb462" stroke="black" cx="1393" cy="-66.8" rx="120.44" ry="18"/>
<text text-anchor="middle" x="1393" y="-62.6" font-family="Times,serif" font-size="14.00">RoomsAuthorisationService</text>
</g>
<!-- RoomsAuthorisationService&#45;&gt;LearnroomModule -->
<g id="edge32" class="edge">
<title>RoomsAuthorisationService&#45;&gt;LearnroomModule</title>
<path fill="none" stroke="black" d="M1393,-85.02C1393,-103.63 1393,-129.8 1393,-129.8 1393,-129.8 2786.92,-129.8 2786.92,-129.8"/>
<polygon fill="black" stroke="black" points="2786.92,-133.3 2796.92,-129.8 2786.92,-126.3 2786.92,-133.3"/>
</g>
<!-- RoomsService -->
<g id="node34" class="node">
<title>RoomsService</title>
<ellipse fill="#fdb462" stroke="black" cx="1187" cy="-66.8" rx="67.22" ry="18"/>
<text text-anchor="middle" x="1187" y="-62.6" font-family="Times,serif" font-size="14.00">RoomsService</text>
</g>
<!-- RoomsService&#45;&gt;LearnroomModule -->
<g id="edge33" class="edge">
<title>RoomsService&#45;&gt;LearnroomModule</title>
<path fill="none" stroke="black" d="M1187,-84.91C1187,-104.14 1187,-131.8 1187,-131.8 1187,-131.8 2787.04,-131.8 2787.04,-131.8"/>
<polygon fill="black" stroke="black" points="2787.04,-135.3 2797.04,-131.8 2787.04,-128.3 2787.04,-135.3"/>
</g>
<!-- RoomsUc -->
<g id="node35" class="node">
<title>RoomsUc</title>
<ellipse fill="#fdb462" stroke="black" cx="1052" cy="-66.8" rx="49.83" ry="18"/>
<text text-anchor="middle" x="1052" y="-62.6" font-family="Times,serif" font-size="14.00">RoomsUc</text>
</g>
<!-- RoomsUc&#45;&gt;LearnroomModule -->
<g id="edge34" class="edge">
<title>RoomsUc&#45;&gt;LearnroomModule</title>
<path fill="none" stroke="black" d="M1052,-85.11C1052,-104.95 1052,-133.8 1052,-133.8 1052,-133.8 2787.14,-133.8 2787.14,-133.8"/>
<polygon fill="black" stroke="black" points="2787.14,-137.3 2797.14,-133.8 2787.14,-130.3 2787.14,-137.3"/>
</g>
<!-- TaskCopyService -->
<g id="node36" class="node">
<title>TaskCopyService</title>
<ellipse fill="#fdb462" stroke="black" cx="905" cy="-66.8" rx="79.88" ry="18"/>
<text text-anchor="middle" x="905" y="-62.6" font-family="Times,serif" font-size="14.00">TaskCopyService</text>
</g>
<!-- TaskCopyService&#45;&gt;LearnroomModule -->
<g id="edge35" class="edge">
<title>TaskCopyService&#45;&gt;LearnroomModule</title>
<path fill="none" stroke="black" d="M905,-84.93C905,-105.37 905,-135.8 905,-135.8 905,-135.8 2787.14,-135.8 2787.14,-135.8"/>
<polygon fill="black" stroke="black" points="2787.14,-139.3 2797.14,-135.8 2787.14,-132.3 2787.14,-139.3"/>
</g>
<!-- TaskRepo -->
<g id="node37" class="node">
<title>TaskRepo</title>
<ellipse fill="#fdb462" stroke="black" cx="757" cy="-66.8" rx="50.39" ry="18"/>
<text text-anchor="middle" x="757" y="-62.6" font-family="Times,serif" font-size="14.00">TaskRepo</text>
</g>
<!-- TaskRepo&#45;&gt;LearnroomModule -->
<g id="edge36" class="edge">
<title>TaskRepo&#45;&gt;LearnroomModule</title>
<path fill="none" stroke="black" d="M757,-85.08C757,-106.12 757,-137.8 757,-137.8 757,-137.8 2787.11,-137.8 2787.11,-137.8"/>
<polygon fill="black" stroke="black" points="2787.11,-141.3 2797.11,-137.8 2787.11,-134.3 2787.11,-141.3"/>
</g>
<!-- UserRepo -->
<g id="node38" class="node">
<title>UserRepo</title>
<ellipse fill="#fdb462" stroke="black" cx="639" cy="-66.8" rx="49.81" ry="18"/>
<text text-anchor="middle" x="639" y="-62.6" font-family="Times,serif" font-size="14.00">UserRepo</text>
</g>
<!-- UserRepo&#45;&gt;LearnroomModule -->
<g id="edge37" class="edge">
<title>UserRepo&#45;&gt;LearnroomModule</title>
<path fill="none" stroke="black" d="M639,-84.84C639,-106.46 639,-139.8 639,-139.8 639,-139.8 2787.21,-139.8 2787.21,-139.8"/>
<polygon fill="black" stroke="black" points="2787.21,-143.3 2797.21,-139.8 2787.21,-136.3 2787.21,-143.3"/>
</g>
</g>
</svg>
