<?xml version="1.0" encoding="UTF-8" standalone="no"?>
<!DOCTYPE svg PUBLIC "-//W3C//DTD SVG 1.1//EN"
 "http://www.w3.org/Graphics/SVG/1.1/DTD/svg11.dtd">
<!-- Generated by graphviz version 5.0.0 (20220707.1540)
 -->
<!-- Title: dependencies Pages: 1 -->
<svg width="6152pt" height="247pt"
 viewBox="0.00 0.00 6152.00 246.80" xmlns="http://www.w3.org/2000/svg" xmlns:xlink="http://www.w3.org/1999/xlink">
<g id="graph0" class="graph" transform="scale(1 1) rotate(0) translate(4 242.8)">
<title>dependencies</title>
<polygon fill="white" stroke="transparent" points="-4,4 -4,-242.8 6148,-242.8 6148,4 -4,4"/>
<text text-anchor="middle" x="3072" y="-8.2" font-family="sans-serif" font-size="14.00">dependencies</text>
<g id="clust1" class="cluster">
<title>cluster_LearnroomModule</title>
<polygon fill="none" stroke="black" stroke-dasharray="1,5" points="8,-32.8 8,-230.8 6136,-230.8 6136,-32.8 8,-32.8"/>
</g>
<g id="clust3" class="cluster">
<title>cluster_LearnroomModule_imports</title>
<polygon fill="none" stroke="black" points="5571,-40.8 5571,-92.8 6128,-92.8 6128,-40.8 5571,-40.8"/>
</g>
<g id="clust4" class="cluster">
<title>cluster_LearnroomModule_exports</title>
<polygon fill="none" stroke="black" points="2987,-170.8 2987,-222.8 3264,-222.8 3264,-170.8 2987,-170.8"/>
</g>
<g id="clust6" class="cluster">
<title>cluster_LearnroomModule_providers</title>
<polygon fill="none" stroke="black" points="16,-40.8 16,-92.8 5563,-92.8 5563,-40.8 16,-40.8"/>
</g>
<!-- AuthorizationModule -->
<g id="node1" class="node">
<title>AuthorizationModule</title>
<polygon fill="#8dd3c7" stroke="black" points="6119.81,-84.8 6116.81,-88.8 6095.81,-88.8 6092.81,-84.8 5982.19,-84.8 5982.19,-48.8 6119.81,-48.8 6119.81,-84.8"/>
<text text-anchor="middle" x="6051" y="-62.6" font-family="Times,serif" font-size="14.00">AuthorizationModule</text>
</g>
<!-- LearnroomModule -->
<g id="node5" class="node">
<title>LearnroomModule</title>
<polygon fill="#8dd3c7" stroke="black" points="3180.75,-149.8 3177.75,-153.8 3156.75,-153.8 3153.75,-149.8 3059.25,-149.8 3059.25,-113.8 3180.75,-113.8 3180.75,-149.8"/>
<text text-anchor="middle" x="3120" y="-127.6" font-family="Times,serif" font-size="14.00">LearnroomModule</text>
</g>
<!-- AuthorizationModule&#45;&gt;LearnroomModule -->
<g id="edge1" class="edge">
<title>AuthorizationModule&#45;&gt;LearnroomModule</title>
<path fill="none" stroke="black" d="M6051,-85.18C6051,-109.08 6051,-147.8 6051,-147.8 6051,-147.8 3190.88,-147.8 3190.88,-147.8"/>
<polygon fill="black" stroke="black" points="3190.88,-144.3 3180.88,-147.8 3190.88,-151.3 3190.88,-144.3"/>
</g>
<!-- FilesStorageClientModule -->
<g id="node2" class="node">
<title>FilesStorageClientModule</title>
<polygon fill="#8dd3c7" stroke="black" points="5963.77,-84.8 5960.77,-88.8 5939.77,-88.8 5936.77,-84.8 5800.23,-84.8 5800.23,-48.8 5963.77,-48.8 5963.77,-84.8"/>
<text text-anchor="middle" x="5882" y="-62.6" font-family="Times,serif" font-size="14.00">FilesStorageClientModule</text>
</g>
<!-- FilesStorageClientModule&#45;&gt;LearnroomModule -->
<g id="edge2" class="edge">
<title>FilesStorageClientModule&#45;&gt;LearnroomModule</title>
<path fill="none" stroke="black" d="M5882,-85.12C5882,-108.46 5882,-145.8 5882,-145.8 5882,-145.8 3190.91,-145.8 3190.91,-145.8"/>
<polygon fill="black" stroke="black" points="3190.91,-142.3 3180.91,-145.8 3190.91,-149.3 3190.91,-142.3"/>
</g>
<!-- LessonModule -->
<g id="node3" class="node">
<title>LessonModule</title>
<polygon fill="#8dd3c7" stroke="black" points="5782.71,-84.8 5779.71,-88.8 5758.71,-88.8 5755.71,-84.8 5683.29,-84.8 5683.29,-48.8 5782.71,-48.8 5782.71,-84.8"/>
<text text-anchor="middle" x="5733" y="-62.6" font-family="Times,serif" font-size="14.00">LessonModule</text>
</g>
<!-- LessonModule&#45;&gt;LearnroomModule -->
<g id="edge3" class="edge">
<title>LessonModule&#45;&gt;LearnroomModule</title>
<path fill="none" stroke="black" d="M5733,-85.05C5733,-107.82 5733,-143.8 5733,-143.8 5733,-143.8 3191.06,-143.8 3191.06,-143.8"/>
<polygon fill="black" stroke="black" points="3191.06,-140.3 3181.06,-143.8 3191.06,-147.3 3191.06,-140.3"/>
</g>
<!-- TaskModule -->
<g id="node4" class="node">
<title>TaskModule</title>
<polygon fill="#8dd3c7" stroke="black" points="5665.27,-84.8 5662.27,-88.8 5641.27,-88.8 5638.27,-84.8 5578.73,-84.8 5578.73,-48.8 5665.27,-48.8 5665.27,-84.8"/>
<text text-anchor="middle" x="5622" y="-62.6" font-family="Times,serif" font-size="14.00">TaskModule</text>
</g>
<!-- TaskModule&#45;&gt;LearnroomModule -->
<g id="edge4" class="edge">
<title>TaskModule&#45;&gt;LearnroomModule</title>
<path fill="none" stroke="black" d="M5622,-84.96C5622,-107.15 5622,-141.8 5622,-141.8 5622,-141.8 3190.92,-141.8 3190.92,-141.8"/>
<polygon fill="black" stroke="black" points="3190.92,-138.3 3180.92,-141.8 3190.92,-145.3 3190.92,-138.3"/>
</g>
<!-- CourseCopyService  -->
<g id="node6" class="node">
<title>CourseCopyService </title>
<polygon fill="#fb8072" stroke="black" points="3255.98,-214.8 3124.02,-214.8 3124.02,-178.8 3255.98,-178.8 3255.98,-214.8"/>
<text text-anchor="middle" x="3190" y="-192.6" font-family="Times,serif" font-size="14.00">CourseCopyService </text>
</g>
<!-- LearnroomModule&#45;&gt;CourseCopyService  -->
<g id="edge5" class="edge">
<title>LearnroomModule&#45;&gt;CourseCopyService </title>
<path fill="none" stroke="black" stroke-dasharray="5,2" d="M3152.57,-149.91C3152.57,-149.91 3152.57,-168.79 3152.57,-168.79"/>
<polygon fill="black" stroke="black" points="3149.07,-168.79 3152.57,-178.79 3156.07,-168.79 3149.07,-168.79"/>
</g>
<!-- MetadataLoader  -->
<g id="node7" class="node">
<title>MetadataLoader </title>
<polygon fill="#fb8072" stroke="black" points="3106.72,-214.8 2995.28,-214.8 2995.28,-178.8 3106.72,-178.8 3106.72,-214.8"/>
<text text-anchor="middle" x="3051" y="-192.6" font-family="Times,serif" font-size="14.00">MetadataLoader </text>
</g>
<!-- LearnroomModule&#45;&gt;MetadataLoader  -->
<g id="edge6" class="edge">
<title>LearnroomModule&#45;&gt;MetadataLoader </title>
<path fill="none" stroke="black" stroke-dasharray="5,2" d="M3082.87,-149.91C3082.87,-149.91 3082.87,-168.79 3082.87,-168.79"/>
<polygon fill="black" stroke="black" points="3079.37,-168.79 3082.87,-178.79 3086.37,-168.79 3079.37,-168.79"/>
</g>
<!-- BoardCopyService -->
<g id="node8" class="node">
<title>BoardCopyService</title>
<ellipse fill="#fdb462" stroke="black" cx="5470" cy="-66.8" rx="84.54" ry="18"/>
<text text-anchor="middle" x="5470" y="-62.6" font-family="Times,serif" font-size="14.00">BoardCopyService</text>
</g>
<!-- BoardCopyService&#45;&gt;LearnroomModule -->
<g id="edge7" class="edge">
<title>BoardCopyService&#45;&gt;LearnroomModule</title>
<path fill="none" stroke="black" d="M5470,-84.84C5470,-106.46 5470,-139.8 5470,-139.8 5470,-139.8 3190.75,-139.8 3190.75,-139.8"/>
<polygon fill="black" stroke="black" points="3190.75,-136.3 3180.75,-139.8 3190.75,-143.3 3190.75,-136.3"/>
</g>
<!-- BoardRepo -->
<g id="node9" class="node">
<title>BoardRepo</title>
<ellipse fill="#fdb462" stroke="black" cx="5312" cy="-66.8" rx="55.04" ry="18"/>
<text text-anchor="middle" x="5312" y="-62.6" font-family="Times,serif" font-size="14.00">BoardRepo</text>
</g>
<!-- BoardRepo&#45;&gt;LearnroomModule -->
<g id="edge8" class="edge">
<title>BoardRepo&#45;&gt;LearnroomModule</title>
<path fill="none" stroke="black" d="M5312,-85.08C5312,-106.12 5312,-137.8 5312,-137.8 5312,-137.8 3190.91,-137.8 3190.91,-137.8"/>
<polygon fill="black" stroke="black" points="3190.91,-134.3 3180.91,-137.8 3190.91,-141.3 3190.91,-134.3"/>
</g>
<!-- CommonCartridgeExportService -->
<g id="node10" class="node">
<title>CommonCartridgeExportService</title>
<ellipse fill="#fdb462" stroke="black" cx="5100" cy="-66.8" rx="138.89" ry="18"/>
<text text-anchor="middle" x="5100" y="-62.6" font-family="Times,serif" font-size="14.00">CommonCartridgeExportService</text>
</g>
<!-- CommonCartridgeExportService&#45;&gt;LearnroomModule -->
<g id="edge9" class="edge">
<title>CommonCartridgeExportService&#45;&gt;LearnroomModule</title>
<path fill="none" stroke="black" d="M5100,-84.93C5100,-105.37 5100,-135.8 5100,-135.8 5100,-135.8 3190.88,-135.8 3190.88,-135.8"/>
<polygon fill="black" stroke="black" points="3190.88,-132.3 3180.88,-135.8 3190.88,-139.3 3190.88,-132.3"/>
</g>
<!-- CopyHelperService -->
<g id="node11" class="node">
<title>CopyHelperService</title>
<ellipse fill="#fdb462" stroke="black" cx="4856" cy="-66.8" rx="87.39" ry="18"/>
<text text-anchor="middle" x="4856" y="-62.6" font-family="Times,serif" font-size="14.00">CopyHelperService</text>
</g>
<!-- CopyHelperService&#45;&gt;LearnroomModule -->
<g id="edge10" class="edge">
<title>CopyHelperService&#45;&gt;LearnroomModule</title>
<path fill="none" stroke="black" d="M4856,-85.11C4856,-104.95 4856,-133.8 4856,-133.8 4856,-133.8 3190.77,-133.8 3190.77,-133.8"/>
<polygon fill="black" stroke="black" points="3190.77,-130.3 3180.77,-133.8 3190.77,-137.3 3190.77,-130.3"/>
</g>
<!-- CourseCopyService -->
<g id="node12" class="node">
<title>CourseCopyService</title>
<ellipse fill="#fdb462" stroke="black" cx="4663" cy="-66.8" rx="88.06" ry="18"/>
<text text-anchor="middle" x="4663" y="-62.6" font-family="Times,serif" font-size="14.00">CourseCopyService</text>
</g>
<!-- CourseCopyService&#45;&gt;LearnroomModule -->
<g id="edge11" class="edge">
<title>CourseCopyService&#45;&gt;LearnroomModule</title>
<path fill="none" stroke="black" d="M4663,-84.91C4663,-104.14 4663,-131.8 4663,-131.8 4663,-131.8 3190.96,-131.8 3190.96,-131.8"/>
<polygon fill="black" stroke="black" points="3190.96,-128.3 3180.96,-131.8 3190.96,-135.3 3190.96,-128.3"/>
</g>
<!-- CourseCopyUC -->
<g id="node13" class="node">
<title>CourseCopyUC</title>
<ellipse fill="#fdb462" stroke="black" cx="4484" cy="-66.8" rx="72.97" ry="18"/>
<text text-anchor="middle" x="4484" y="-62.6" font-family="Times,serif" font-size="14.00">CourseCopyUC</text>
</g>
<!-- CourseCopyUC&#45;&gt;LearnroomModule -->
<g id="edge12" class="edge">
<title>CourseCopyUC&#45;&gt;LearnroomModule</title>
<path fill="none" stroke="black" d="M4484,-85.02C4484,-103.63 4484,-129.8 4484,-129.8 4484,-129.8 3190.81,-129.8 3190.81,-129.8"/>
<polygon fill="black" stroke="black" points="3190.81,-126.3 3180.81,-129.8 3190.81,-133.3 3190.81,-126.3"/>
</g>
<!-- CourseEntityCopyService -->
<g id="node14" class="node">
<title>CourseEntityCopyService</title>
<ellipse fill="#fdb462" stroke="black" cx="4281" cy="-66.8" rx="111.77" ry="18"/>
<text text-anchor="middle" x="4281" y="-62.6" font-family="Times,serif" font-size="14.00">CourseEntityCopyService</text>
</g>
<!-- CourseEntityCopyService&#45;&gt;LearnroomModule -->
<g id="edge13" class="edge">
<title>CourseEntityCopyService&#45;&gt;LearnroomModule</title>
<path fill="none" stroke="black" d="M4281,-85.1C4281,-103.07 4281,-127.8 4281,-127.8 4281,-127.8 3190.79,-127.8 3190.79,-127.8"/>
<polygon fill="black" stroke="black" points="3190.79,-124.3 3180.79,-127.8 3190.79,-131.3 3190.79,-124.3"/>
</g>
<!-- CourseExportUc -->
<g id="node15" class="node">
<title>CourseExportUc</title>
<ellipse fill="#fdb462" stroke="black" cx="4075" cy="-66.8" rx="75.88" ry="18"/>
<text text-anchor="middle" x="4075" y="-62.6" font-family="Times,serif" font-size="14.00">CourseExportUc</text>
</g>
<!-- CourseExportUc&#45;&gt;LearnroomModule -->
<g id="edge14" class="edge">
<title>CourseExportUc&#45;&gt;LearnroomModule</title>
<path fill="none" stroke="black" d="M4075,-84.82C4075,-102.17 4075,-125.8 4075,-125.8 4075,-125.8 3190.83,-125.8 3190.83,-125.8"/>
<polygon fill="black" stroke="black" points="3190.83,-122.3 3180.83,-125.8 3190.83,-129.3 3190.83,-122.3"/>
</g>
<!-- CourseRepo -->
<g id="node16" class="node">
<title>CourseRepo</title>
<ellipse fill="#fdb462" stroke="black" cx="3922" cy="-66.8" rx="58.56" ry="18"/>
<text text-anchor="middle" x="3922" y="-62.6" font-family="Times,serif" font-size="14.00">CourseRepo</text>
</g>
<!-- CourseRepo&#45;&gt;LearnroomModule -->
<g id="edge15" class="edge">
<title>CourseRepo&#45;&gt;LearnroomModule</title>
<path fill="none" stroke="black" d="M3922,-84.84C3922,-101.53 3922,-123.8 3922,-123.8 3922,-123.8 3190.94,-123.8 3190.94,-123.8"/>
<polygon fill="black" stroke="black" points="3190.94,-120.3 3180.94,-123.8 3190.94,-127.3 3190.94,-120.3"/>
</g>
<!-- CourseService -->
<g id="node17" class="node">
<title>CourseService</title>
<ellipse fill="#fdb462" stroke="black" cx="3778" cy="-66.8" rx="67.2" ry="18"/>
<text text-anchor="middle" x="3778" y="-62.6" font-family="Times,serif" font-size="14.00">CourseService</text>
</g>
<!-- CourseService&#45;&gt;LearnroomModule -->
<g id="edge16" class="edge">
<title>CourseService&#45;&gt;LearnroomModule</title>
<path fill="none" stroke="black" d="M3778,-84.81C3778,-100.85 3778,-121.8 3778,-121.8 3778,-121.8 3191.02,-121.8 3191.02,-121.8"/>
<polygon fill="black" stroke="black" points="3191.02,-118.3 3181.02,-121.8 3191.02,-125.3 3191.02,-118.3"/>
</g>
<!-- CourseUc -->
<g id="node18" class="node">
<title>CourseUc</title>
<ellipse fill="#fdb462" stroke="black" cx="3643" cy="-66.8" rx="49.81" ry="18"/>
<text text-anchor="middle" x="3643" y="-62.6" font-family="Times,serif" font-size="14.00">CourseUc</text>
</g>
<!-- CourseUc&#45;&gt;LearnroomModule -->
<g id="edge17" class="edge">
<title>CourseUc&#45;&gt;LearnroomModule</title>
<path fill="none" stroke="black" d="M3643,-85.04C3643,-100.37 3643,-119.8 3643,-119.8 3643,-119.8 3190.76,-119.8 3190.76,-119.8"/>
<polygon fill="black" stroke="black" points="3190.76,-116.3 3180.76,-119.8 3190.76,-123.3 3190.76,-116.3"/>
</g>
<!-- DashboardModelMapper -->
<g id="node19" class="node">
<title>DashboardModelMapper</title>
<ellipse fill="#fdb462" stroke="black" cx="3467" cy="-66.8" rx="108.23" ry="18"/>
<text text-anchor="middle" x="3467" y="-62.6" font-family="Times,serif" font-size="14.00">DashboardModelMapper</text>
</g>
<!-- DashboardModelMapper&#45;&gt;LearnroomModule -->
<g id="edge18" class="edge">
<title>DashboardModelMapper&#45;&gt;LearnroomModule</title>
<path fill="none" stroke="black" d="M3467,-84.92C3467,-99.58 3467,-117.8 3467,-117.8 3467,-117.8 3190.84,-117.8 3190.84,-117.8"/>
<polygon fill="black" stroke="black" points="3190.84,-114.3 3180.84,-117.8 3190.84,-121.3 3190.84,-114.3"/>
</g>
<!-- DashboardUc -->
<g id="node20" class="node">
<title>DashboardUc</title>
<ellipse fill="#fdb462" stroke="black" cx="3277" cy="-66.8" rx="64.26" ry="18"/>
<text text-anchor="middle" x="3277" y="-62.6" font-family="Times,serif" font-size="14.00">DashboardUc</text>
</g>
<!-- DashboardUc&#45;&gt;LearnroomModule -->
<g id="edge19" class="edge">
<title>DashboardUc&#45;&gt;LearnroomModule</title>
<path fill="none" stroke="black" d="M3234.3,-80.45C3234.3,-94.95 3234.3,-115.8 3234.3,-115.8 3234.3,-115.8 3190.83,-115.8 3190.83,-115.8"/>
<polygon fill="black" stroke="black" points="3190.83,-112.3 3180.83,-115.8 3190.83,-119.3 3190.83,-112.3"/>
</g>
<!-- EtherpadService -->
<g id="node21" class="node">
<title>EtherpadService</title>
<ellipse fill="#fdb462" stroke="black" cx="3120" cy="-66.8" rx="74.7" ry="18"/>
<text text-anchor="middle" x="3120" y="-62.6" font-family="Times,serif" font-size="14.00">EtherpadService</text>
</g>
<!-- EtherpadService&#45;&gt;LearnroomModule -->
<g id="edge20" class="edge">
<title>EtherpadService&#45;&gt;LearnroomModule</title>
<path fill="none" stroke="black" d="M3120,-84.91C3120,-84.91 3120,-103.79 3120,-103.79"/>
<polygon fill="black" stroke="black" points="3116.5,-103.79 3120,-113.79 3123.5,-103.79 3116.5,-103.79"/>
</g>
<!-- FeathersServiceProvider -->
<g id="node22" class="node">
<title>FeathersServiceProvider</title>
<ellipse fill="#fdb462" stroke="black" cx="2921" cy="-66.8" rx="105.93" ry="18"/>
<text text-anchor="middle" x="2921" y="-62.6" font-family="Times,serif" font-size="14.00">FeathersServiceProvider</text>
</g>
<!-- FeathersServiceProvider&#45;&gt;LearnroomModule -->
<g id="edge21" class="edge">
<title>FeathersServiceProvider&#45;&gt;LearnroomModule</title>
<path fill="none" stroke="black" d="M3011.18,-76.72C3011.18,-91.03 3011.18,-115.8 3011.18,-115.8 3011.18,-115.8 3049.22,-115.8 3049.22,-115.8"/>
<polygon fill="black" stroke="black" points="3049.22,-119.3 3059.22,-115.8 3049.22,-112.3 3049.22,-119.3"/>
</g>
<!-- FileCopyAppendService -->
<g id="node23" class="node">
<title>FileCopyAppendService</title>
<ellipse fill="#fdb462" stroke="black" cx="2691" cy="-66.8" rx="106.53" ry="18"/>
<text text-anchor="middle" x="2691" y="-62.6" font-family="Times,serif" font-size="14.00">FileCopyAppendService</text>
</g>
<!-- FileCopyAppendService&#45;&gt;LearnroomModule -->
<g id="edge22" class="edge">
<title>FileCopyAppendService&#45;&gt;LearnroomModule</title>
<path fill="none" stroke="black" d="M2691,-84.92C2691,-99.58 2691,-117.8 2691,-117.8 2691,-117.8 3048.99,-117.8 3048.99,-117.8"/>
<polygon fill="black" stroke="black" points="3048.99,-121.3 3058.99,-117.8 3048.99,-114.3 3048.99,-121.3"/>
</g>
<!-- FileLegacyService -->
<g id="node24" class="node">
<title>FileLegacyService</title>
<ellipse fill="#fdb462" stroke="black" cx="2483" cy="-66.8" rx="83.36" ry="18"/>
<text text-anchor="middle" x="2483" y="-62.6" font-family="Times,serif" font-size="14.00">FileLegacyService</text>
</g>
<!-- FileLegacyService&#45;&gt;LearnroomModule -->
<g id="edge23" class="edge">
<title>FileLegacyService&#45;&gt;LearnroomModule</title>
<path fill="none" stroke="black" d="M2483,-85.04C2483,-100.37 2483,-119.8 2483,-119.8 2483,-119.8 3049.21,-119.8 3049.21,-119.8"/>
<polygon fill="black" stroke="black" points="3049.21,-123.3 3059.21,-119.8 3049.21,-116.3 3049.21,-123.3"/>
</g>
<!-- LessonCopyService -->
<g id="node25" class="node">
<title>LessonCopyService</title>
<ellipse fill="#fdb462" stroke="black" cx="2293" cy="-66.8" rx="88.06" ry="18"/>
<text text-anchor="middle" x="2293" y="-62.6" font-family="Times,serif" font-size="14.00">LessonCopyService</text>
</g>
<!-- LessonCopyService&#45;&gt;LearnroomModule -->
<g id="edge24" class="edge">
<title>LessonCopyService&#45;&gt;LearnroomModule</title>
<path fill="none" stroke="black" d="M2293,-84.81C2293,-100.85 2293,-121.8 2293,-121.8 2293,-121.8 3049.19,-121.8 3049.19,-121.8"/>
<polygon fill="black" stroke="black" points="3049.19,-125.3 3059.19,-121.8 3049.19,-118.3 3049.19,-125.3"/>
</g>
<!-- LessonCopyUC -->
<g id="node26" class="node">
<title>LessonCopyUC</title>
<ellipse fill="#fdb462" stroke="black" cx="2114" cy="-66.8" rx="72.97" ry="18"/>
<text text-anchor="middle" x="2114" y="-62.6" font-family="Times,serif" font-size="14.00">LessonCopyUC</text>
</g>
<!-- LessonCopyUC&#45;&gt;LearnroomModule -->
<g id="edge25" class="edge">
<title>LessonCopyUC&#45;&gt;LearnroomModule</title>
<path fill="none" stroke="black" d="M2114,-84.84C2114,-101.53 2114,-123.8 2114,-123.8 2114,-123.8 3048.96,-123.8 3048.96,-123.8"/>
<polygon fill="black" stroke="black" points="3048.96,-127.3 3058.96,-123.8 3048.96,-120.3 3048.96,-127.3"/>
</g>
<!-- LessonRepo -->
<g id="node27" class="node">
<title>LessonRepo</title>
<ellipse fill="#fdb462" stroke="black" cx="1964" cy="-66.8" rx="58.56" ry="18"/>
<text text-anchor="middle" x="1964" y="-62.6" font-family="Times,serif" font-size="14.00">LessonRepo</text>
</g>
<!-- LessonRepo&#45;&gt;LearnroomModule -->
<g id="edge26" class="edge">
<title>LessonRepo&#45;&gt;LearnroomModule</title>
<path fill="none" stroke="black" d="M1964,-84.82C1964,-102.17 1964,-125.8 1964,-125.8 1964,-125.8 3049.07,-125.8 3049.07,-125.8"/>
<polygon fill="black" stroke="black" points="3049.07,-129.3 3059.07,-125.8 3049.07,-122.3 3049.07,-129.3"/>
</g>
<!-- Logger -->
<g id="node28" class="node">
<title>Logger</title>
<ellipse fill="#fdb462" stroke="black" cx="1848" cy="-66.8" rx="38.85" ry="18"/>
<text text-anchor="middle" x="1848" y="-62.6" font-family="Times,serif" font-size="14.00">Logger</text>
</g>
<!-- Logger&#45;&gt;LearnroomModule -->
<g id="edge27" class="edge">
<title>Logger&#45;&gt;LearnroomModule</title>
<path fill="none" stroke="black" d="M1848,-85.1C1848,-103.07 1848,-127.8 1848,-127.8 1848,-127.8 3049.08,-127.8 3049.08,-127.8"/>
<polygon fill="black" stroke="black" points="3049.08,-131.3 3059.08,-127.8 3049.08,-124.3 3049.08,-131.3"/>
</g>
<!-- MetadataLoader -->
<g id="node29" class="node">
<title>MetadataLoader</title>
<ellipse fill="#fdb462" stroke="black" cx="1717" cy="-66.8" rx="74.11" ry="18"/>
<text text-anchor="middle" x="1717" y="-62.6" font-family="Times,serif" font-size="14.00">MetadataLoader</text>
</g>
<!-- MetadataLoader&#45;&gt;LearnroomModule -->
<g id="edge28" class="edge">
<title>MetadataLoader&#45;&gt;LearnroomModule</title>
<path fill="none" stroke="black" d="M1717,-85.02C1717,-103.63 1717,-129.8 1717,-129.8 1717,-129.8 3048.81,-129.8 3048.81,-129.8"/>
<polygon fill="black" stroke="black" points="3048.81,-133.3 3058.81,-129.8 3048.81,-126.3 3048.81,-133.3"/>
</g>
<!-- NexboardService -->
<g id="node30" class="node">
<title>NexboardService</title>
<ellipse fill="#fdb462" stroke="black" cx="1547" cy="-66.8" rx="78.14" ry="18"/>
<text text-anchor="middle" x="1547" y="-62.6" font-family="Times,serif" font-size="14.00">NexboardService</text>
</g>
<!-- NexboardService&#45;&gt;LearnroomModule -->
<g id="edge29" class="edge">
<title>NexboardService&#45;&gt;LearnroomModule</title>
<path fill="none" stroke="black" d="M1547,-84.91C1547,-104.14 1547,-131.8 1547,-131.8 1547,-131.8 3048.82,-131.8 3048.82,-131.8"/>
<polygon fill="black" stroke="black" points="3048.82,-135.3 3058.82,-131.8 3048.82,-128.3 3048.82,-135.3"/>
</g>
<!-- RoomBoardDTOFactory -->
<g id="node31" class="node">
<title>RoomBoardDTOFactory</title>
<ellipse fill="#fdb462" stroke="black" cx="1343" cy="-66.8" rx="107.68" ry="18"/>
<text text-anchor="middle" x="1343" y="-62.6" font-family="Times,serif" font-size="14.00">RoomBoardDTOFactory</text>
</g>
<!-- RoomBoardDTOFactory&#45;&gt;LearnroomModule -->
<g id="edge30" class="edge">
<title>RoomBoardDTOFactory&#45;&gt;LearnroomModule</title>
<path fill="none" stroke="black" d="M1343,-85.11C1343,-104.95 1343,-133.8 1343,-133.8 1343,-133.8 3049.09,-133.8 3049.09,-133.8"/>
<polygon fill="black" stroke="black" points="3049.09,-137.3 3059.09,-133.8 3049.09,-130.3 3049.09,-137.3"/>
</g>
<!-- RoomBoardResponseMapper -->
<g id="node32" class="node">
<title>RoomBoardResponseMapper</title>
<ellipse fill="#fdb462" stroke="black" cx="1092" cy="-66.8" rx="125.09" ry="18"/>
<text text-anchor="middle" x="1092" y="-62.6" font-family="Times,serif" font-size="14.00">RoomBoardResponseMapper</text>
</g>
<!-- RoomBoardResponseMapper&#45;&gt;LearnroomModule -->
<g id="edge31" class="edge">
<title>RoomBoardResponseMapper&#45;&gt;LearnroomModule</title>
<path fill="none" stroke="black" d="M1092,-84.93C1092,-105.37 1092,-135.8 1092,-135.8 1092,-135.8 3049.03,-135.8 3049.03,-135.8"/>
<polygon fill="black" stroke="black" points="3049.03,-139.3 3059.03,-135.8 3049.03,-132.3 3049.03,-139.3"/>
</g>
<!-- RoomsAuthorisationService -->
<g id="node33" class="node">
<title>RoomsAuthorisationService</title>
<ellipse fill="#fdb462" stroke="black" cx="828" cy="-66.8" rx="120.44" ry="18"/>
<text text-anchor="middle" x="828" y="-62.6" font-family="Times,serif" font-size="14.00">RoomsAuthorisationService</text>
</g>
<!-- RoomsAuthorisationService&#45;&gt;LearnroomModule -->
<g id="edge32" class="edge">
<title>RoomsAuthorisationService&#45;&gt;LearnroomModule</title>
<path fill="none" stroke="black" d="M828,-85.08C828,-106.12 828,-137.8 828,-137.8 828,-137.8 3048.99,-137.8 3048.99,-137.8"/>
<polygon fill="black" stroke="black" points="3048.99,-141.3 3058.99,-137.8 3048.99,-134.3 3048.99,-141.3"/>
</g>
<!-- RoomsService -->
<g id="node34" class="node">
<title>RoomsService</title>
<ellipse fill="#fdb462" stroke="black" cx="622" cy="-66.8" rx="67.22" ry="18"/>
<text text-anchor="middle" x="622" y="-62.6" font-family="Times,serif" font-size="14.00">RoomsService</text>
</g>
<!-- RoomsService&#45;&gt;LearnroomModule -->
<g id="edge33" class="edge">
<title>RoomsService&#45;&gt;LearnroomModule</title>
<path fill="none" stroke="black" d="M622,-84.84C622,-106.46 622,-139.8 622,-139.8 622,-139.8 3049.18,-139.8 3049.18,-139.8"/>
<polygon fill="black" stroke="black" points="3049.18,-143.3 3059.18,-139.8 3049.18,-136.3 3049.18,-143.3"/>
</g>
<!-- RoomsUc -->
<g id="node35" class="node">
<title>RoomsUc</title>
<ellipse fill="#fdb462" stroke="black" cx="487" cy="-66.8" rx="49.83" ry="18"/>
<text text-anchor="middle" x="487" y="-62.6" font-family="Times,serif" font-size="14.00">RoomsUc</text>
</g>
<!-- RoomsUc&#45;&gt;LearnroomModule -->
<g id="edge34" class="edge">
<title>RoomsUc&#45;&gt;LearnroomModule</title>
<path fill="none" stroke="black" d="M487,-84.96C487,-107.15 487,-141.8 487,-141.8 487,-141.8 3049.11,-141.8 3049.11,-141.8"/>
<polygon fill="black" stroke="black" points="3049.11,-145.3 3059.11,-141.8 3049.11,-138.3 3049.11,-145.3"/>
</g>
<!-- TaskCopyService -->
<g id="node36" class="node">
<title>TaskCopyService</title>
<ellipse fill="#fdb462" stroke="black" cx="340" cy="-66.8" rx="79.88" ry="18"/>
<text text-anchor="middle" x="340" y="-62.6" font-family="Times,serif" font-size="14.00">TaskCopyService</text>
</g>
<!-- TaskCopyService&#45;&gt;LearnroomModule -->
<g id="edge35" class="edge">
<title>TaskCopyService&#45;&gt;LearnroomModule</title>
<path fill="none" stroke="black" d="M340,-85.05C340,-107.82 340,-143.8 340,-143.8 340,-143.8 3049.02,-143.8 3049.02,-143.8"/>
<polygon fill="black" stroke="black" points="3049.02,-147.3 3059.02,-143.8 3049.02,-140.3 3049.02,-147.3"/>
</g>
<!-- TaskRepo -->
<g id="node37" class="node">
<title>TaskRepo</title>
<ellipse fill="#fdb462" stroke="black" cx="192" cy="-66.8" rx="50.39" ry="18"/>
<text text-anchor="middle" x="192" y="-62.6" font-family="Times,serif" font-size="14.00">TaskRepo</text>
</g>
<!-- TaskRepo&#45;&gt;LearnroomModule -->
<g id="edge36" class="edge">
<title>TaskRepo&#45;&gt;LearnroomModule</title>
<path fill="none" stroke="black" d="M192,-85.12C192,-108.46 192,-145.8 192,-145.8 192,-145.8 3049.18,-145.8 3049.18,-145.8"/>
<polygon fill="black" stroke="black" points="3049.18,-149.3 3059.18,-145.8 3049.18,-142.3 3049.18,-149.3"/>
</g>
<!-- UserRepo -->
<g id="node38" class="node">
<title>UserRepo</title>
<ellipse fill="#fdb462" stroke="black" cx="74" cy="-66.8" rx="49.81" ry="18"/>
<text text-anchor="middle" x="74" y="-62.6" font-family="Times,serif" font-size="14.00">UserRepo</text>
</g>
<!-- UserRepo&#45;&gt;LearnroomModule -->
<g id="edge37" class="edge">
<title>UserRepo&#45;&gt;LearnroomModule</title>
<path fill="none" stroke="black" d="M74,-85.18C74,-109.08 74,-147.8 74,-147.8 74,-147.8 3049.15,-147.8 3049.15,-147.8"/>
<polygon fill="black" stroke="black" points="3049.16,-151.3 3059.15,-147.8 3049.15,-144.3 3049.16,-151.3"/>
</g>
</g>
</svg>
