<?xml version="1.0" encoding="UTF-8" standalone="no"?>
<!DOCTYPE svg PUBLIC "-//W3C//DTD SVG 1.1//EN"
 "http://www.w3.org/Graphics/SVG/1.1/DTD/svg11.dtd">
<!-- Generated by graphviz version 5.0.0 (20220707.1540)
 -->
<!-- Title: dependencies Pages: 1 -->
<svg width="5679pt" height="247pt"
 viewBox="0.00 0.00 5679.00 246.80" xmlns="http://www.w3.org/2000/svg" xmlns:xlink="http://www.w3.org/1999/xlink">
<g id="graph0" class="graph" transform="scale(1 1) rotate(0) translate(4 242.8)">
<title>dependencies</title>
<polygon fill="white" stroke="transparent" points="-4,4 -4,-242.8 5675,-242.8 5675,4 -4,4"/>
<text text-anchor="middle" x="2835.5" y="-8.2" font-family="sans-serif" font-size="14.00">dependencies</text>
<g id="clust1" class="cluster">
<title>cluster_LearnroomModule</title>
<polygon fill="none" stroke="black" stroke-dasharray="1,5" points="8,-32.8 8,-230.8 5663,-230.8 5663,-32.8 8,-32.8"/>
</g>
<g id="clust6" class="cluster">
<title>cluster_LearnroomModule_providers</title>
<polygon fill="none" stroke="black" points="581,-40.8 581,-92.8 5655,-92.8 5655,-40.8 581,-40.8"/>
</g>
<g id="clust3" class="cluster">
<title>cluster_LearnroomModule_imports</title>
<polygon fill="none" stroke="black" points="16,-40.8 16,-92.8 573,-92.8 573,-40.8 16,-40.8"/>
</g>
<g id="clust4" class="cluster">
<title>cluster_LearnroomModule_exports</title>
<polygon fill="none" stroke="black" points="2546,-170.8 2546,-222.8 2823,-222.8 2823,-170.8 2546,-170.8"/>
</g>
<!-- AuthorizationModule -->
<g id="node1" class="node">
<title>AuthorizationModule</title>
<polygon fill="#8dd3c7" stroke="black" points="564.81,-84.8 561.81,-88.8 540.81,-88.8 537.81,-84.8 427.19,-84.8 427.19,-48.8 564.81,-48.8 564.81,-84.8"/>
<text text-anchor="middle" x="496" y="-62.6" font-family="Times,serif" font-size="14.00">AuthorizationModule</text>
</g>
<!-- LearnroomModule -->
<g id="node5" class="node">
<title>LearnroomModule</title>
<polygon fill="#8dd3c7" stroke="black" points="2739.75,-149.8 2736.75,-153.8 2715.75,-153.8 2712.75,-149.8 2618.25,-149.8 2618.25,-113.8 2739.75,-113.8 2739.75,-149.8"/>
<text text-anchor="middle" x="2679" y="-127.6" font-family="Times,serif" font-size="14.00">LearnroomModule</text>
</g>
<!-- AuthorizationModule&#45;&gt;LearnroomModule -->
<g id="edge1" class="edge">
<title>AuthorizationModule&#45;&gt;LearnroomModule</title>
<path fill="none" stroke="black" d="M496,-84.96C496,-107.15 496,-141.8 496,-141.8 496,-141.8 2608.05,-141.8 2608.05,-141.8"/>
<polygon fill="black" stroke="black" points="2608.05,-145.3 2618.05,-141.8 2608.05,-138.3 2608.05,-145.3"/>
</g>
<!-- FilesStorageClientModule -->
<g id="node2" class="node">
<title>FilesStorageClientModule</title>
<polygon fill="#8dd3c7" stroke="black" points="408.77,-84.8 405.77,-88.8 384.77,-88.8 381.77,-84.8 245.23,-84.8 245.23,-48.8 408.77,-48.8 408.77,-84.8"/>
<text text-anchor="middle" x="327" y="-62.6" font-family="Times,serif" font-size="14.00">FilesStorageClientModule</text>
</g>
<!-- FilesStorageClientModule&#45;&gt;LearnroomModule -->
<g id="edge2" class="edge">
<title>FilesStorageClientModule&#45;&gt;LearnroomModule</title>
<path fill="none" stroke="black" d="M327,-85.05C327,-107.82 327,-143.8 327,-143.8 327,-143.8 2608.2,-143.8 2608.2,-143.8"/>
<polygon fill="black" stroke="black" points="2608.2,-147.3 2618.2,-143.8 2608.2,-140.3 2608.2,-147.3"/>
</g>
<!-- LessonModule -->
<g id="node3" class="node">
<title>LessonModule</title>
<polygon fill="#8dd3c7" stroke="black" points="227.71,-84.8 224.71,-88.8 203.71,-88.8 200.71,-84.8 128.29,-84.8 128.29,-48.8 227.71,-48.8 227.71,-84.8"/>
<text text-anchor="middle" x="178" y="-62.6" font-family="Times,serif" font-size="14.00">LessonModule</text>
</g>
<!-- LessonModule&#45;&gt;LearnroomModule -->
<g id="edge3" class="edge">
<title>LessonModule&#45;&gt;LearnroomModule</title>
<path fill="none" stroke="black" d="M178,-85.12C178,-108.46 178,-145.8 178,-145.8 178,-145.8 2608.11,-145.8 2608.11,-145.8"/>
<polygon fill="black" stroke="black" points="2608.11,-149.3 2618.11,-145.8 2608.11,-142.3 2608.11,-149.3"/>
</g>
<!-- TaskModule -->
<g id="node4" class="node">
<title>TaskModule</title>
<polygon fill="#8dd3c7" stroke="black" points="110.27,-84.8 107.27,-88.8 86.27,-88.8 83.27,-84.8 23.73,-84.8 23.73,-48.8 110.27,-48.8 110.27,-84.8"/>
<text text-anchor="middle" x="67" y="-62.6" font-family="Times,serif" font-size="14.00">TaskModule</text>
</g>
<!-- TaskModule&#45;&gt;LearnroomModule -->
<g id="edge4" class="edge">
<title>TaskModule&#45;&gt;LearnroomModule</title>
<path fill="none" stroke="black" d="M67,-85.18C67,-109.08 67,-147.8 67,-147.8 67,-147.8 2607.96,-147.8 2607.96,-147.8"/>
<polygon fill="black" stroke="black" points="2607.96,-151.3 2617.96,-147.8 2607.96,-144.3 2607.96,-151.3"/>
</g>
<!-- CourseCopyService  -->
<g id="node6" class="node">
<title>CourseCopyService </title>
<polygon fill="#fb8072" stroke="black" points="2814.98,-214.8 2683.02,-214.8 2683.02,-178.8 2814.98,-178.8 2814.98,-214.8"/>
<text text-anchor="middle" x="2749" y="-192.6" font-family="Times,serif" font-size="14.00">CourseCopyService </text>
</g>
<!-- LearnroomModule&#45;&gt;CourseCopyService  -->
<g id="edge5" class="edge">
<title>LearnroomModule&#45;&gt;CourseCopyService </title>
<path fill="none" stroke="black" stroke-dasharray="5,2" d="M2711.57,-149.91C2711.57,-149.91 2711.57,-168.79 2711.57,-168.79"/>
<polygon fill="black" stroke="black" points="2708.07,-168.79 2711.57,-178.79 2715.07,-168.79 2708.07,-168.79"/>
</g>
<!-- MetadataLoader  -->
<g id="node7" class="node">
<title>MetadataLoader </title>
<polygon fill="#fb8072" stroke="black" points="2665.72,-214.8 2554.28,-214.8 2554.28,-178.8 2665.72,-178.8 2665.72,-214.8"/>
<text text-anchor="middle" x="2610" y="-192.6" font-family="Times,serif" font-size="14.00">MetadataLoader </text>
</g>
<!-- LearnroomModule&#45;&gt;MetadataLoader  -->
<g id="edge6" class="edge">
<title>LearnroomModule&#45;&gt;MetadataLoader </title>
<path fill="none" stroke="black" stroke-dasharray="5,2" d="M2641.87,-149.91C2641.87,-149.91 2641.87,-168.79 2641.87,-168.79"/>
<polygon fill="black" stroke="black" points="2638.37,-168.79 2641.87,-178.79 2645.37,-168.79 2638.37,-168.79"/>
</g>
<!-- BoardCopyService -->
<g id="node8" class="node">
<title>BoardCopyService</title>
<ellipse fill="#fdb462" stroke="black" cx="5562" cy="-66.8" rx="84.54" ry="18"/>
<text text-anchor="middle" x="5562" y="-62.6" font-family="Times,serif" font-size="14.00">BoardCopyService</text>
</g>
<!-- BoardCopyService&#45;&gt;LearnroomModule -->
<g id="edge7" class="edge">
<title>BoardCopyService&#45;&gt;LearnroomModule</title>
<path fill="none" stroke="black" d="M5562,-85.18C5562,-109.08 5562,-147.8 5562,-147.8 5562,-147.8 2749.88,-147.8 2749.88,-147.8"/>
<polygon fill="black" stroke="black" points="2749.88,-144.3 2739.88,-147.8 2749.88,-151.3 2749.88,-144.3"/>
</g>
<!-- BoardRepo -->
<g id="node9" class="node">
<title>BoardRepo</title>
<ellipse fill="#fdb462" stroke="black" cx="5404" cy="-66.8" rx="55.04" ry="18"/>
<text text-anchor="middle" x="5404" y="-62.6" font-family="Times,serif" font-size="14.00">BoardRepo</text>
</g>
<!-- BoardRepo&#45;&gt;LearnroomModule -->
<g id="edge8" class="edge">
<title>BoardRepo&#45;&gt;LearnroomModule</title>
<path fill="none" stroke="black" d="M5404,-85.12C5404,-108.46 5404,-145.8 5404,-145.8 5404,-145.8 2750.06,-145.8 2750.06,-145.8"/>
<polygon fill="black" stroke="black" points="2750.06,-142.3 2740.06,-145.8 2750.06,-149.3 2750.06,-142.3"/>
</g>
<!-- CommonCartridgeExportService -->
<g id="node10" class="node">
<title>CommonCartridgeExportService</title>
<ellipse fill="#fdb462" stroke="black" cx="5192" cy="-66.8" rx="138.89" ry="18"/>
<text text-anchor="middle" x="5192" y="-62.6" font-family="Times,serif" font-size="14.00">CommonCartridgeExportService</text>
</g>
<!-- CommonCartridgeExportService&#45;&gt;LearnroomModule -->
<g id="edge9" class="edge">
<title>CommonCartridgeExportService&#45;&gt;LearnroomModule</title>
<path fill="none" stroke="black" d="M5192,-85.05C5192,-107.82 5192,-143.8 5192,-143.8 5192,-143.8 2749.87,-143.8 2749.87,-143.8"/>
<polygon fill="black" stroke="black" points="2749.87,-140.3 2739.87,-143.8 2749.87,-147.3 2749.87,-140.3"/>
</g>
<!-- CopyHelperService -->
<g id="node11" class="node">
<title>CopyHelperService</title>
<ellipse fill="#fdb462" stroke="black" cx="4948" cy="-66.8" rx="87.39" ry="18"/>
<text text-anchor="middle" x="4948" y="-62.6" font-family="Times,serif" font-size="14.00">CopyHelperService</text>
</g>
<!-- CopyHelperService&#45;&gt;LearnroomModule -->
<g id="edge10" class="edge">
<title>CopyHelperService&#45;&gt;LearnroomModule</title>
<path fill="none" stroke="black" d="M4948,-84.96C4948,-107.15 4948,-141.8 4948,-141.8 4948,-141.8 2749.98,-141.8 2749.98,-141.8"/>
<polygon fill="black" stroke="black" points="2749.98,-138.3 2739.98,-141.8 2749.98,-145.3 2749.98,-138.3"/>
</g>
<!-- CourseCopyService -->
<g id="node12" class="node">
<title>CourseCopyService</title>
<ellipse fill="#fdb462" stroke="black" cx="4755" cy="-66.8" rx="88.06" ry="18"/>
<text text-anchor="middle" x="4755" y="-62.6" font-family="Times,serif" font-size="14.00">CourseCopyService</text>
</g>
<!-- CourseCopyService&#45;&gt;LearnroomModule -->
<g id="edge11" class="edge">
<title>CourseCopyService&#45;&gt;LearnroomModule</title>
<path fill="none" stroke="black" d="M4755,-84.84C4755,-106.46 4755,-139.8 4755,-139.8 4755,-139.8 2750.01,-139.8 2750.01,-139.8"/>
<polygon fill="black" stroke="black" points="2750.01,-136.3 2740.01,-139.8 2750.01,-143.3 2750.01,-136.3"/>
</g>
<!-- CourseCopyUC -->
<g id="node13" class="node">
<title>CourseCopyUC</title>
<ellipse fill="#fdb462" stroke="black" cx="4576" cy="-66.8" rx="72.97" ry="18"/>
<text text-anchor="middle" x="4576" y="-62.6" font-family="Times,serif" font-size="14.00">CourseCopyUC</text>
</g>
<!-- CourseCopyUC&#45;&gt;LearnroomModule -->
<g id="edge12" class="edge">
<title>CourseCopyUC&#45;&gt;LearnroomModule</title>
<path fill="none" stroke="black" d="M4576,-85.08C4576,-106.12 4576,-137.8 4576,-137.8 4576,-137.8 2749.97,-137.8 2749.97,-137.8"/>
<polygon fill="black" stroke="black" points="2749.97,-134.3 2739.97,-137.8 2749.97,-141.3 2749.97,-134.3"/>
</g>
<!-- CourseExportUc -->
<g id="node14" class="node">
<title>CourseExportUc</title>
<ellipse fill="#fdb462" stroke="black" cx="4409" cy="-66.8" rx="75.88" ry="18"/>
<text text-anchor="middle" x="4409" y="-62.6" font-family="Times,serif" font-size="14.00">CourseExportUc</text>
</g>
<!-- CourseExportUc&#45;&gt;LearnroomModule -->
<g id="edge13" class="edge">
<title>CourseExportUc&#45;&gt;LearnroomModule</title>
<path fill="none" stroke="black" d="M4409,-84.93C4409,-105.37 4409,-135.8 4409,-135.8 4409,-135.8 2749.81,-135.8 2749.81,-135.8"/>
<polygon fill="black" stroke="black" points="2749.81,-132.3 2739.81,-135.8 2749.81,-139.3 2749.81,-132.3"/>
</g>
<!-- CourseRepo -->
<g id="node15" class="node">
<title>CourseRepo</title>
<ellipse fill="#fdb462" stroke="black" cx="4256" cy="-66.8" rx="58.56" ry="18"/>
<text text-anchor="middle" x="4256" y="-62.6" font-family="Times,serif" font-size="14.00">CourseRepo</text>
</g>
<!-- CourseRepo&#45;&gt;LearnroomModule -->
<g id="edge14" class="edge">
<title>CourseRepo&#45;&gt;LearnroomModule</title>
<path fill="none" stroke="black" d="M4256,-85.11C4256,-104.95 4256,-133.8 4256,-133.8 4256,-133.8 2749.85,-133.8 2749.85,-133.8"/>
<polygon fill="black" stroke="black" points="2749.85,-130.3 2739.85,-133.8 2749.85,-137.3 2749.85,-130.3"/>
</g>
<!-- CourseService -->
<g id="node16" class="node">
<title>CourseService</title>
<ellipse fill="#fdb462" stroke="black" cx="4112" cy="-66.8" rx="67.2" ry="18"/>
<text text-anchor="middle" x="4112" y="-62.6" font-family="Times,serif" font-size="14.00">CourseService</text>
</g>
<!-- CourseService&#45;&gt;LearnroomModule -->
<g id="edge15" class="edge">
<title>CourseService&#45;&gt;LearnroomModule</title>
<path fill="none" stroke="black" d="M4112,-84.97C4112,-103.89 4112,-130.8 4112,-130.8 4112,-130.8 2750.12,-130.8 2750.12,-130.8"/>
<polygon fill="black" stroke="black" points="2750.12,-127.3 2740.12,-130.8 2750.12,-134.3 2750.12,-127.3"/>
</g>
<!-- CourseUc -->
<g id="node17" class="node">
<title>CourseUc</title>
<ellipse fill="#fdb462" stroke="black" cx="3977" cy="-66.8" rx="49.81" ry="18"/>
<text text-anchor="middle" x="3977" y="-62.6" font-family="Times,serif" font-size="14.00">CourseUc</text>
</g>
<!-- CourseUc&#45;&gt;LearnroomModule -->
<g id="edge16" class="edge">
<title>CourseUc&#45;&gt;LearnroomModule</title>
<path fill="none" stroke="black" d="M3977,-85.07C3977,-103.36 3977,-128.8 3977,-128.8 3977,-128.8 2749.86,-128.8 2749.86,-128.8"/>
<polygon fill="black" stroke="black" points="2749.86,-125.3 2739.86,-128.8 2749.86,-132.3 2749.86,-125.3"/>
</g>
<!-- DashboardModelMapper -->
<g id="node18" class="node">
<title>DashboardModelMapper</title>
<ellipse fill="#fdb462" stroke="black" cx="3801" cy="-66.8" rx="108.23" ry="18"/>
<text text-anchor="middle" x="3801" y="-62.6" font-family="Times,serif" font-size="14.00">DashboardModelMapper</text>
</g>
<!-- DashboardModelMapper&#45;&gt;LearnroomModule -->
<g id="edge17" class="edge">
<title>DashboardModelMapper&#45;&gt;LearnroomModule</title>
<path fill="none" stroke="black" d="M3801,-84.8C3801,-102.48 3801,-126.8 3801,-126.8 3801,-126.8 2750.12,-126.8 2750.12,-126.8"/>
<polygon fill="black" stroke="black" points="2750.12,-123.3 2740.12,-126.8 2750.12,-130.3 2750.12,-123.3"/>
</g>
<!-- DashboardUc -->
<g id="node19" class="node">
<title>DashboardUc</title>
<ellipse fill="#fdb462" stroke="black" cx="3611" cy="-66.8" rx="64.26" ry="18"/>
<text text-anchor="middle" x="3611" y="-62.6" font-family="Times,serif" font-size="14.00">DashboardUc</text>
</g>
<!-- DashboardUc&#45;&gt;LearnroomModule -->
<g id="edge18" class="edge">
<title>DashboardUc&#45;&gt;LearnroomModule</title>
<path fill="none" stroke="black" d="M3611,-84.83C3611,-101.86 3611,-124.8 3611,-124.8 3611,-124.8 2749.79,-124.8 2749.79,-124.8"/>
<polygon fill="black" stroke="black" points="2749.79,-121.3 2739.79,-124.8 2749.79,-128.3 2749.79,-121.3"/>
</g>
<!-- EtherpadService -->
<g id="node20" class="node">
<title>EtherpadService</title>
<ellipse fill="#fdb462" stroke="black" cx="3454" cy="-66.8" rx="74.7" ry="18"/>
<text text-anchor="middle" x="3454" y="-62.6" font-family="Times,serif" font-size="14.00">EtherpadService</text>
</g>
<!-- EtherpadService&#45;&gt;LearnroomModule -->
<g id="edge19" class="edge">
<title>EtherpadService&#45;&gt;LearnroomModule</title>
<path fill="none" stroke="black" d="M3454,-84.83C3454,-101.2 3454,-122.8 3454,-122.8 3454,-122.8 2749.81,-122.8 2749.81,-122.8"/>
<polygon fill="black" stroke="black" points="2749.81,-119.3 2739.81,-122.8 2749.81,-126.3 2749.81,-119.3"/>
</g>
<!-- FeathersServiceProvider -->
<g id="node21" class="node">
<title>FeathersServiceProvider</title>
<ellipse fill="#fdb462" stroke="black" cx="3255" cy="-66.8" rx="105.93" ry="18"/>
<text text-anchor="middle" x="3255" y="-62.6" font-family="Times,serif" font-size="14.00">FeathersServiceProvider</text>
</g>
<!-- FeathersServiceProvider&#45;&gt;LearnroomModule -->
<g id="edge20" class="edge">
<title>FeathersServiceProvider&#45;&gt;LearnroomModule</title>
<path fill="none" stroke="black" d="M3255,-85.08C3255,-100.75 3255,-120.8 3255,-120.8 3255,-120.8 2749.82,-120.8 2749.82,-120.8"/>
<polygon fill="black" stroke="black" points="2749.82,-117.3 2739.82,-120.8 2749.82,-124.3 2749.82,-117.3"/>
</g>
<!-- FileLegacyService -->
<g id="node22" class="node">
<title>FileLegacyService</title>
<ellipse fill="#fdb462" stroke="black" cx="3048" cy="-66.8" rx="83.36" ry="18"/>
<text text-anchor="middle" x="3048" y="-62.6" font-family="Times,serif" font-size="14.00">FileLegacyService</text>
</g>
<!-- FileLegacyService&#45;&gt;LearnroomModule -->
<g id="edge21" class="edge">
<title>FileLegacyService&#45;&gt;LearnroomModule</title>
<path fill="none" stroke="black" d="M3048,-84.99C3048,-99.98 3048,-118.8 3048,-118.8 3048,-118.8 2749.93,-118.8 2749.93,-118.8"/>
<polygon fill="black" stroke="black" points="2749.93,-115.3 2739.93,-118.8 2749.93,-122.3 2749.93,-115.3"/>
</g>
<!-- LessonCopyService -->
<g id="node23" class="node">
<title>LessonCopyService</title>
<ellipse fill="#fdb462" stroke="black" cx="2858" cy="-66.8" rx="88.06" ry="18"/>
<text text-anchor="middle" x="2858" y="-62.6" font-family="Times,serif" font-size="14.00">LessonCopyService</text>
</g>
<!-- LessonCopyService&#45;&gt;LearnroomModule -->
<g id="edge22" class="edge">
<title>LessonCopyService&#45;&gt;LearnroomModule</title>
<path fill="none" stroke="black" d="M2792.23,-78.9C2792.23,-93.7 2792.23,-116.8 2792.23,-116.8 2792.23,-116.8 2749.92,-116.8 2749.92,-116.8"/>
<polygon fill="black" stroke="black" points="2749.92,-113.3 2739.92,-116.8 2749.92,-120.3 2749.92,-113.3"/>
</g>
<!-- LessonCopyUC -->
<g id="node24" class="node">
<title>LessonCopyUC</title>
<ellipse fill="#fdb462" stroke="black" cx="2679" cy="-66.8" rx="72.97" ry="18"/>
<text text-anchor="middle" x="2679" y="-62.6" font-family="Times,serif" font-size="14.00">LessonCopyUC</text>
</g>
<!-- LessonCopyUC&#45;&gt;LearnroomModule -->
<g id="edge23" class="edge">
<title>LessonCopyUC&#45;&gt;LearnroomModule</title>
<path fill="none" stroke="black" d="M2679,-84.91C2679,-84.91 2679,-103.79 2679,-103.79"/>
<polygon fill="black" stroke="black" points="2675.5,-103.79 2679,-113.79 2682.5,-103.79 2675.5,-103.79"/>
</g>
<!-- LessonRepo -->
<g id="node25" class="node">
<title>LessonRepo</title>
<ellipse fill="#fdb462" stroke="black" cx="2529" cy="-66.8" rx="58.56" ry="18"/>
<text text-anchor="middle" x="2529" y="-62.6" font-family="Times,serif" font-size="14.00">LessonRepo</text>
</g>
<!-- LessonRepo&#45;&gt;LearnroomModule -->
<g id="edge24" class="edge">
<title>LessonRepo&#45;&gt;LearnroomModule</title>
<path fill="none" stroke="black" d="M2571.08,-79.42C2571.08,-94.23 2571.08,-116.8 2571.08,-116.8 2571.08,-116.8 2608.1,-116.8 2608.1,-116.8"/>
<polygon fill="black" stroke="black" points="2608.1,-120.3 2618.1,-116.8 2608.1,-113.3 2608.1,-120.3"/>
</g>
<!-- Logger -->
<g id="node26" class="node">
<title>Logger</title>
<ellipse fill="#fdb462" stroke="black" cx="2413" cy="-66.8" rx="38.85" ry="18"/>
<text text-anchor="middle" x="2413" y="-62.6" font-family="Times,serif" font-size="14.00">Logger</text>
</g>
<!-- Logger&#45;&gt;LearnroomModule -->
<g id="edge25" class="edge">
<title>Logger&#45;&gt;LearnroomModule</title>
<path fill="none" stroke="black" d="M2413,-84.99C2413,-99.98 2413,-118.8 2413,-118.8 2413,-118.8 2607.97,-118.8 2607.97,-118.8"/>
<polygon fill="black" stroke="black" points="2607.97,-122.3 2617.97,-118.8 2607.97,-115.3 2607.97,-122.3"/>
</g>
<!-- MetadataLoader -->
<g id="node27" class="node">
<title>MetadataLoader</title>
<ellipse fill="#fdb462" stroke="black" cx="2282" cy="-66.8" rx="74.11" ry="18"/>
<text text-anchor="middle" x="2282" y="-62.6" font-family="Times,serif" font-size="14.00">MetadataLoader</text>
</g>
<!-- MetadataLoader&#45;&gt;LearnroomModule -->
<g id="edge26" class="edge">
<title>MetadataLoader&#45;&gt;LearnroomModule</title>
<path fill="none" stroke="black" d="M2282,-85.08C2282,-100.75 2282,-120.8 2282,-120.8 2282,-120.8 2607.84,-120.8 2607.84,-120.8"/>
<polygon fill="black" stroke="black" points="2607.84,-124.3 2617.84,-120.8 2607.84,-117.3 2607.84,-124.3"/>
</g>
<!-- NexboardService -->
<g id="node28" class="node">
<title>NexboardService</title>
<ellipse fill="#fdb462" stroke="black" cx="2112" cy="-66.8" rx="78.14" ry="18"/>
<text text-anchor="middle" x="2112" y="-62.6" font-family="Times,serif" font-size="14.00">NexboardService</text>
</g>
<!-- NexboardService&#45;&gt;LearnroomModule -->
<g id="edge27" class="edge">
<title>NexboardService&#45;&gt;LearnroomModule</title>
<path fill="none" stroke="black" d="M2112,-84.83C2112,-101.2 2112,-122.8 2112,-122.8 2112,-122.8 2608.05,-122.8 2608.05,-122.8"/>
<polygon fill="black" stroke="black" points="2608.05,-126.3 2618.05,-122.8 2608.05,-119.3 2608.05,-126.3"/>
</g>
<!-- RoomBoardDTOFactory -->
<g id="node29" class="node">
<title>RoomBoardDTOFactory</title>
<ellipse fill="#fdb462" stroke="black" cx="1908" cy="-66.8" rx="107.68" ry="18"/>
<text text-anchor="middle" x="1908" y="-62.6" font-family="Times,serif" font-size="14.00">RoomBoardDTOFactory</text>
</g>
<!-- RoomBoardDTOFactory&#45;&gt;LearnroomModule -->
<g id="edge28" class="edge">
<title>RoomBoardDTOFactory&#45;&gt;LearnroomModule</title>
<path fill="none" stroke="black" d="M1908,-84.83C1908,-101.86 1908,-124.8 1908,-124.8 1908,-124.8 2608.18,-124.8 2608.18,-124.8"/>
<polygon fill="black" stroke="black" points="2608.18,-128.3 2618.18,-124.8 2608.18,-121.3 2608.18,-128.3"/>
</g>
<!-- RoomBoardResponseMapper -->
<g id="node30" class="node">
<title>RoomBoardResponseMapper</title>
<ellipse fill="#fdb462" stroke="black" cx="1657" cy="-66.8" rx="125.09" ry="18"/>
<text text-anchor="middle" x="1657" y="-62.6" font-family="Times,serif" font-size="14.00">RoomBoardResponseMapper</text>
</g>
<!-- RoomBoardResponseMapper&#45;&gt;LearnroomModule -->
<g id="edge29" class="edge">
<title>RoomBoardResponseMapper&#45;&gt;LearnroomModule</title>
<path fill="none" stroke="black" d="M1657,-84.8C1657,-102.48 1657,-126.8 1657,-126.8 1657,-126.8 2608.13,-126.8 2608.13,-126.8"/>
<polygon fill="black" stroke="black" points="2608.13,-130.3 2618.13,-126.8 2608.13,-123.3 2608.13,-130.3"/>
</g>
<!-- RoomsAuthorisationService -->
<g id="node31" class="node">
<title>RoomsAuthorisationService</title>
<ellipse fill="#fdb462" stroke="black" cx="1393" cy="-66.8" rx="120.44" ry="18"/>
<text text-anchor="middle" x="1393" y="-62.6" font-family="Times,serif" font-size="14.00">RoomsAuthorisationService</text>
</g>
<!-- RoomsAuthorisationService&#45;&gt;LearnroomModule -->
<g id="edge30" class="edge">
<title>RoomsAuthorisationService&#45;&gt;LearnroomModule</title>
<path fill="none" stroke="black" d="M1393,-85.07C1393,-103.36 1393,-128.8 1393,-128.8 1393,-128.8 2607.84,-128.8 2607.84,-128.8"/>
<polygon fill="black" stroke="black" points="2607.84,-132.3 2617.84,-128.8 2607.84,-125.3 2607.84,-132.3"/>
</g>
<!-- RoomsService -->
<g id="node32" class="node">
<title>RoomsService</title>
<ellipse fill="#fdb462" stroke="black" cx="1187" cy="-66.8" rx="67.22" ry="18"/>
<text text-anchor="middle" x="1187" y="-62.6" font-family="Times,serif" font-size="14.00">RoomsService</text>
</g>
<!-- RoomsService&#45;&gt;LearnroomModule -->
<g id="edge31" class="edge">
<title>RoomsService&#45;&gt;LearnroomModule</title>
<path fill="none" stroke="black" d="M1187,-84.97C1187,-103.89 1187,-130.8 1187,-130.8 1187,-130.8 2608.2,-130.8 2608.2,-130.8"/>
<polygon fill="black" stroke="black" points="2608.2,-134.3 2618.2,-130.8 2608.2,-127.3 2608.2,-134.3"/>
</g>
<!-- RoomsUc -->
<g id="node33" class="node">
<title>RoomsUc</title>
<ellipse fill="#fdb462" stroke="black" cx="1052" cy="-66.8" rx="49.83" ry="18"/>
<text text-anchor="middle" x="1052" y="-62.6" font-family="Times,serif" font-size="14.00">RoomsUc</text>
</g>
<!-- RoomsUc&#45;&gt;LearnroomModule -->
<g id="edge32" class="edge">
<title>RoomsUc&#45;&gt;LearnroomModule</title>
<path fill="none" stroke="black" d="M1052,-85.11C1052,-104.95 1052,-133.8 1052,-133.8 1052,-133.8 2608.19,-133.8 2608.19,-133.8"/>
<polygon fill="black" stroke="black" points="2608.19,-137.3 2618.19,-133.8 2608.19,-130.3 2608.19,-137.3"/>
</g>
<!-- TaskCopyService -->
<g id="node34" class="node">
<title>TaskCopyService</title>
<ellipse fill="#fdb462" stroke="black" cx="905" cy="-66.8" rx="79.88" ry="18"/>
<text text-anchor="middle" x="905" y="-62.6" font-family="Times,serif" font-size="14.00">TaskCopyService</text>
</g>
<!-- TaskCopyService&#45;&gt;LearnroomModule -->
<g id="edge33" class="edge">
<title>TaskCopyService&#45;&gt;LearnroomModule</title>
<path fill="none" stroke="black" d="M905,-84.93C905,-105.37 905,-135.8 905,-135.8 905,-135.8 2608.19,-135.8 2608.19,-135.8"/>
<polygon fill="black" stroke="black" points="2608.19,-139.3 2618.19,-135.8 2608.19,-132.3 2608.19,-139.3"/>
</g>
<!-- TaskRepo -->
<g id="node35" class="node">
<title>TaskRepo</title>
<ellipse fill="#fdb462" stroke="black" cx="757" cy="-66.8" rx="50.39" ry="18"/>
<text text-anchor="middle" x="757" y="-62.6" font-family="Times,serif" font-size="14.00">TaskRepo</text>
</g>
<!-- TaskRepo&#45;&gt;LearnroomModule -->
<g id="edge34" class="edge">
<title>TaskRepo&#45;&gt;LearnroomModule</title>
<path fill="none" stroke="black" d="M757,-85.08C757,-106.12 757,-137.8 757,-137.8 757,-137.8 2608.04,-137.8 2608.04,-137.8"/>
<polygon fill="black" stroke="black" points="2608.04,-141.3 2618.04,-137.8 2608.04,-134.3 2608.04,-141.3"/>
</g>
<!-- UserRepo -->
<g id="node36" class="node">
<title>UserRepo</title>
<ellipse fill="#fdb462" stroke="black" cx="639" cy="-66.8" rx="49.81" ry="18"/>
<text text-anchor="middle" x="639" y="-62.6" font-family="Times,serif" font-size="14.00">UserRepo</text>
</g>
<!-- UserRepo&#45;&gt;LearnroomModule -->
<g id="edge35" class="edge">
<title>UserRepo&#45;&gt;LearnroomModule</title>
<path fill="none" stroke="black" d="M639,-84.84C639,-106.46 639,-139.8 639,-139.8 639,-139.8 2608.22,-139.8 2608.22,-139.8"/>
<polygon fill="black" stroke="black" points="2608.22,-143.3 2618.22,-139.8 2608.22,-136.3 2608.22,-143.3"/>
</g>
</g>
</svg>
