<?xml version="1.0" encoding="UTF-8" standalone="no"?>
<!DOCTYPE svg PUBLIC "-//W3C//DTD SVG 1.1//EN"
 "http://www.w3.org/Graphics/SVG/1.1/DTD/svg11.dtd">
<!-- Generated by graphviz version 2.47.3 (20210619.1520)
 -->
<!-- Title: dependencies Pages: 1 -->
<svg width="1054pt" height="174pt"
 viewBox="0.00 0.00 1054.00 173.80" xmlns="http://www.w3.org/2000/svg" xmlns:xlink="http://www.w3.org/1999/xlink">
<g id="graph0" class="graph" transform="scale(1 1) rotate(0) translate(4 169.8)">
<title>dependencies</title>
<polygon fill="white" stroke="transparent" points="-4,4 -4,-169.8 1050,-169.8 1050,4 -4,4"/>
<text text-anchor="middle" x="523" y="-8.2" font-family="sans-serif" font-size="14.00">dependencies</text>
<g id="clust1" class="cluster">
<title>cluster_LearnroomModule</title>
<polygon fill="none" stroke="black" stroke-dasharray="1,5" points="8,-32.8 8,-157.8 1038,-157.8 1038,-32.8 8,-32.8"/>
</g>
<g id="clust6" class="cluster">
<title>cluster_LearnroomModule_providers</title>
<polygon fill="none" stroke="black" points="16,-40.8 16,-92.8 1030,-92.8 1030,-40.8 16,-40.8"/>
</g>
<!-- BoardMapper -->
<g id="node1" class="node">
<title>BoardMapper</title>
<ellipse fill="#fdb462" stroke="black" cx="957" cy="-66.8" rx="64.83" ry="18"/>
<text text-anchor="middle" x="957" y="-62.6" font-family="Times,serif" font-size="14.00">BoardMapper</text>
</g>
<!-- LearnroomModule -->
<g id="node8" class="node">
<title>LearnroomModule</title>
<polygon fill="#8dd3c7" stroke="black" points="574.74,-149.8 571.74,-153.8 550.74,-153.8 547.74,-149.8 453.26,-149.8 453.26,-113.8 574.74,-113.8 574.74,-149.8"/>
<text text-anchor="middle" x="514" y="-127.6" font-family="Times,serif" font-size="14.00">LearnroomModule</text>
</g>
<!-- BoardMapper&#45;&gt;LearnroomModule -->
<g id="edge1" class="edge">
<title>BoardMapper&#45;&gt;LearnroomModule</title>
<path fill="none" stroke="black" d="M957,-85.09C957,-107.01 957,-140.8 957,-140.8 957,-140.8 585.13,-140.8 585.13,-140.8"/>
<polygon fill="black" stroke="black" points="585.13,-137.3 575.13,-140.8 585.13,-144.3 585.13,-137.3"/>
</g>
<!-- CourseRepo -->
<g id="node2" class="node">
<title>CourseRepo</title>
<ellipse fill="#fdb462" stroke="black" cx="816" cy="-66.8" rx="58.55" ry="18"/>
<text text-anchor="middle" x="816" y="-62.6" font-family="Times,serif" font-size="14.00">CourseRepo</text>
</g>
<!-- CourseRepo&#45;&gt;LearnroomModule -->
<g id="edge2" class="edge">
<title>CourseRepo&#45;&gt;LearnroomModule</title>
<path fill="none" stroke="black" d="M816,-84.91C816,-104.14 816,-131.8 816,-131.8 816,-131.8 584.75,-131.8 584.75,-131.8"/>
<polygon fill="black" stroke="black" points="584.75,-128.3 574.75,-131.8 584.75,-135.3 584.75,-128.3"/>
</g>
<!-- CourseUc -->
<g id="node3" class="node">
<title>CourseUc</title>
<ellipse fill="#fdb462" stroke="black" cx="690" cy="-66.8" rx="49.8" ry="18"/>
<text text-anchor="middle" x="690" y="-62.6" font-family="Times,serif" font-size="14.00">CourseUc</text>
</g>
<!-- CourseUc&#45;&gt;LearnroomModule -->
<g id="edge3" class="edge">
<title>CourseUc&#45;&gt;LearnroomModule</title>
<path fill="none" stroke="black" d="M690,-84.83C690,-101.2 690,-122.8 690,-122.8 690,-122.8 585.06,-122.8 585.06,-122.8"/>
<polygon fill="black" stroke="black" points="585.06,-119.3 575.06,-122.8 585.06,-126.3 585.06,-119.3"/>
</g>
<!-- DashboardModelMapper -->
<g id="node4" class="node">
<title>DashboardModelMapper</title>
<ellipse fill="#fdb462" stroke="black" cx="514" cy="-66.8" rx="108.21" ry="18"/>
<text text-anchor="middle" x="514" y="-62.6" font-family="Times,serif" font-size="14.00">DashboardModelMapper</text>
</g>
<!-- DashboardModelMapper&#45;&gt;LearnroomModule -->
<g id="edge4" class="edge">
<title>DashboardModelMapper&#45;&gt;LearnroomModule</title>
<path fill="none" stroke="black" d="M514,-84.91C514,-84.91 514,-103.79 514,-103.79"/>
<polygon fill="black" stroke="black" points="510.5,-103.79 514,-113.79 517.5,-103.79 510.5,-103.79"/>
</g>
<!-- DashboardUc -->
<g id="node5" class="node">
<title>DashboardUc</title>
<ellipse fill="#fdb462" stroke="black" cx="324" cy="-66.8" rx="64.25" ry="18"/>
<text text-anchor="middle" x="324" y="-62.6" font-family="Times,serif" font-size="14.00">DashboardUc</text>
</g>
<!-- DashboardUc&#45;&gt;LearnroomModule -->
<g id="edge5" class="edge">
<title>DashboardUc&#45;&gt;LearnroomModule</title>
<path fill="none" stroke="black" d="M324,-84.83C324,-101.2 324,-122.8 324,-122.8 324,-122.8 443.1,-122.8 443.1,-122.8"/>
<polygon fill="black" stroke="black" points="443.1,-126.3 453.1,-122.8 443.1,-119.3 443.1,-126.3"/>
</g>
<!-- RoomsUc -->
<g id="node6" class="node">
<title>RoomsUc</title>
<ellipse fill="#fdb462" stroke="black" cx="192" cy="-66.8" rx="49.82" ry="18"/>
<text text-anchor="middle" x="192" y="-62.6" font-family="Times,serif" font-size="14.00">RoomsUc</text>
</g>
<!-- RoomsUc&#45;&gt;LearnroomModule -->
<g id="edge6" class="edge">
<title>RoomsUc&#45;&gt;LearnroomModule</title>
<path fill="none" stroke="black" d="M192,-84.91C192,-104.14 192,-131.8 192,-131.8 192,-131.8 443.06,-131.8 443.06,-131.8"/>
<polygon fill="black" stroke="black" points="443.06,-135.3 453.06,-131.8 443.06,-128.3 443.06,-135.3"/>
</g>
<!-- TaskRepo -->
<g id="node7" class="node">
<title>TaskRepo</title>
<ellipse fill="#fdb462" stroke="black" cx="74" cy="-66.8" rx="50.38" ry="18"/>
<text text-anchor="middle" x="74" y="-62.6" font-family="Times,serif" font-size="14.00">TaskRepo</text>
</g>
<!-- TaskRepo&#45;&gt;LearnroomModule -->
<g id="edge7" class="edge">
<title>TaskRepo&#45;&gt;LearnroomModule</title>
<path fill="none" stroke="black" d="M74,-85.09C74,-107.01 74,-140.8 74,-140.8 74,-140.8 442.82,-140.8 442.82,-140.8"/>
<polygon fill="black" stroke="black" points="442.82,-144.3 452.82,-140.8 442.82,-137.3 442.82,-144.3"/>
</g>
</g>
</svg>
