<?xml version="1.0" encoding="UTF-8" standalone="no"?>
<!DOCTYPE svg PUBLIC "-//W3C//DTD SVG 1.1//EN"
 "http://www.w3.org/Graphics/SVG/1.1/DTD/svg11.dtd">
<!-- Generated by graphviz version 5.0.0 (20220707.1540)
 -->
<!-- Title: dependencies Pages: 1 -->
<svg width="4719pt" height="174pt"
 viewBox="0.00 0.00 4719.00 173.80" xmlns="http://www.w3.org/2000/svg" xmlns:xlink="http://www.w3.org/1999/xlink">
<g id="graph0" class="graph" transform="scale(1 1) rotate(0) translate(4 169.8)">
<title>dependencies</title>
<polygon fill="white" stroke="transparent" points="-4,4 -4,-169.8 4715,-169.8 4715,4 -4,4"/>
<text text-anchor="middle" x="2355.5" y="-8.2" font-family="sans-serif" font-size="14.00">dependencies</text>
<g id="clust1" class="cluster">
<title>cluster_LearnroomModule</title>
<polygon fill="none" stroke="black" stroke-dasharray="1,5" points="8,-32.8 8,-157.8 4703,-157.8 4703,-32.8 8,-32.8"/>
</g>
<g id="clust6" class="cluster">
<title>cluster_LearnroomModule_providers</title>
<polygon fill="none" stroke="black" points="360,-40.8 360,-92.8 4695,-92.8 4695,-40.8 360,-40.8"/>
</g>
<g id="clust3" class="cluster">
<title>cluster_LearnroomModule_imports</title>
<polygon fill="none" stroke="black" points="16,-40.8 16,-92.8 352,-92.8 352,-40.8 16,-40.8"/>
</g>
<!-- AuthorizationModule -->
<g id="node1" class="node">
<title>AuthorizationModule</title>
<polygon fill="#8dd3c7" stroke="black" points="343.81,-84.8 340.81,-88.8 319.81,-88.8 316.81,-84.8 206.19,-84.8 206.19,-48.8 343.81,-48.8 343.81,-84.8"/>
<text text-anchor="middle" x="275" y="-62.6" font-family="Times,serif" font-size="14.00">AuthorizationModule</text>
</g>
<!-- LearnroomModule -->
<g id="node3" class="node">
<title>LearnroomModule</title>
<polygon fill="#8dd3c7" stroke="black" points="2352.75,-149.8 2349.75,-153.8 2328.75,-153.8 2325.75,-149.8 2231.25,-149.8 2231.25,-113.8 2352.75,-113.8 2352.75,-149.8"/>
<text text-anchor="middle" x="2292" y="-127.6" font-family="Times,serif" font-size="14.00">LearnroomModule</text>
</g>
<!-- AuthorizationModule&#45;&gt;LearnroomModule -->
<g id="edge1" class="edge">
<title>AuthorizationModule&#45;&gt;LearnroomModule</title>
<path fill="none" stroke="black" d="M275,-84.89C275,-107.93 275,-144.8 275,-144.8 275,-144.8 2221.09,-144.8 2221.09,-144.8"/>
<polygon fill="black" stroke="black" points="2221.09,-148.3 2231.09,-144.8 2221.09,-141.3 2221.09,-148.3"/>
</g>
<!-- FilesStorageClientModule -->
<g id="node2" class="node">
<title>FilesStorageClientModule</title>
<polygon fill="#8dd3c7" stroke="black" points="187.77,-84.8 184.77,-88.8 163.77,-88.8 160.77,-84.8 24.23,-84.8 24.23,-48.8 187.77,-48.8 187.77,-84.8"/>
<text text-anchor="middle" x="106" y="-62.6" font-family="Times,serif" font-size="14.00">FilesStorageClientModule</text>
</g>
<!-- FilesStorageClientModule&#45;&gt;LearnroomModule -->
<g id="edge2" class="edge">
<title>FilesStorageClientModule&#45;&gt;LearnroomModule</title>
<path fill="none" stroke="black" d="M106,-85.18C106,-109.08 106,-147.8 106,-147.8 106,-147.8 2221.25,-147.8 2221.25,-147.8"/>
<polygon fill="black" stroke="black" points="2221.25,-151.3 2231.25,-147.8 2221.25,-144.3 2221.25,-151.3"/>
</g>
<!-- BoardCopyService -->
<g id="node4" class="node">
<title>BoardCopyService</title>
<ellipse fill="#fdb462" stroke="black" cx="4602" cy="-66.8" rx="84.54" ry="18"/>
<text text-anchor="middle" x="4602" y="-62.6" font-family="Times,serif" font-size="14.00">BoardCopyService</text>
</g>
<!-- BoardCopyService&#45;&gt;LearnroomModule -->
<g id="edge3" class="edge">
<title>BoardCopyService&#45;&gt;LearnroomModule</title>
<path fill="none" stroke="black" d="M4602,-85.18C4602,-109.08 4602,-147.8 4602,-147.8 4602,-147.8 2362.9,-147.8 2362.9,-147.8"/>
<polygon fill="black" stroke="black" points="2362.9,-144.3 2352.9,-147.8 2362.9,-151.3 2362.9,-144.3"/>
</g>
<!-- BoardRepo -->
<g id="node5" class="node">
<title>BoardRepo</title>
<ellipse fill="#fdb462" stroke="black" cx="4444" cy="-66.8" rx="55.04" ry="18"/>
<text text-anchor="middle" x="4444" y="-62.6" font-family="Times,serif" font-size="14.00">BoardRepo</text>
</g>
<!-- BoardRepo&#45;&gt;LearnroomModule -->
<g id="edge4" class="edge">
<title>BoardRepo&#45;&gt;LearnroomModule</title>
<path fill="none" stroke="black" d="M4444,-84.89C4444,-107.93 4444,-144.8 4444,-144.8 4444,-144.8 2362.94,-144.8 2362.94,-144.8"/>
<polygon fill="black" stroke="black" points="2362.94,-141.3 2352.94,-144.8 2362.94,-148.3 2362.94,-141.3"/>
</g>
<!-- CopyHelperService -->
<g id="node6" class="node">
<title>CopyHelperService</title>
<ellipse fill="#fdb462" stroke="black" cx="4284" cy="-66.8" rx="87.39" ry="18"/>
<text text-anchor="middle" x="4284" y="-62.6" font-family="Times,serif" font-size="14.00">CopyHelperService</text>
</g>
<!-- CopyHelperService&#45;&gt;LearnroomModule -->
<g id="edge5" class="edge">
<title>CopyHelperService&#45;&gt;LearnroomModule</title>
<path fill="none" stroke="black" d="M4284,-84.81C4284,-107.29 4284,-142.8 4284,-142.8 4284,-142.8 2362.98,-142.8 2362.98,-142.8"/>
<polygon fill="black" stroke="black" points="2362.98,-139.3 2352.98,-142.8 2362.98,-146.3 2362.98,-139.3"/>
</g>
<!-- CourseCopyService -->
<g id="node7" class="node">
<title>CourseCopyService</title>
<ellipse fill="#fdb462" stroke="black" cx="4091" cy="-66.8" rx="88.06" ry="18"/>
<text text-anchor="middle" x="4091" y="-62.6" font-family="Times,serif" font-size="14.00">CourseCopyService</text>
</g>
<!-- CourseCopyService&#45;&gt;LearnroomModule -->
<g id="edge6" class="edge">
<title>CourseCopyService&#45;&gt;LearnroomModule</title>
<path fill="none" stroke="black" d="M4091,-84.84C4091,-106.46 4091,-139.8 4091,-139.8 4091,-139.8 2362.89,-139.8 2362.89,-139.8"/>
<polygon fill="black" stroke="black" points="2362.89,-136.3 2352.89,-139.8 2362.89,-143.3 2362.89,-136.3"/>
</g>
<!-- CourseCopyUC -->
<g id="node8" class="node">
<title>CourseCopyUC</title>
<ellipse fill="#fdb462" stroke="black" cx="3912" cy="-66.8" rx="72.97" ry="18"/>
<text text-anchor="middle" x="3912" y="-62.6" font-family="Times,serif" font-size="14.00">CourseCopyUC</text>
</g>
<!-- CourseCopyUC&#45;&gt;LearnroomModule -->
<g id="edge7" class="edge">
<title>CourseCopyUC&#45;&gt;LearnroomModule</title>
<path fill="none" stroke="black" d="M3912,-85.08C3912,-106.12 3912,-137.8 3912,-137.8 3912,-137.8 2363.04,-137.8 2363.04,-137.8"/>
<polygon fill="black" stroke="black" points="2363.04,-134.3 2353.04,-137.8 2363.04,-141.3 2363.04,-134.3"/>
</g>
<!-- CourseRepo -->
<g id="node9" class="node">
<title>CourseRepo</title>
<ellipse fill="#fdb462" stroke="black" cx="3762" cy="-66.8" rx="58.56" ry="18"/>
<text text-anchor="middle" x="3762" y="-62.6" font-family="Times,serif" font-size="14.00">CourseRepo</text>
</g>
<!-- CourseRepo&#45;&gt;LearnroomModule -->
<g id="edge8" class="edge">
<title>CourseRepo&#45;&gt;LearnroomModule</title>
<path fill="none" stroke="black" d="M3762,-85.02C3762,-105.17 3762,-134.8 3762,-134.8 3762,-134.8 2362.83,-134.8 2362.83,-134.8"/>
<polygon fill="black" stroke="black" points="2362.83,-131.3 2352.83,-134.8 2362.83,-138.3 2362.83,-131.3"/>
</g>
<!-- CourseUc -->
<g id="node10" class="node">
<title>CourseUc</title>
<ellipse fill="#fdb462" stroke="black" cx="3636" cy="-66.8" rx="49.81" ry="18"/>
<text text-anchor="middle" x="3636" y="-62.6" font-family="Times,serif" font-size="14.00">CourseUc</text>
</g>
<!-- CourseUc&#45;&gt;LearnroomModule -->
<g id="edge9" class="edge">
<title>CourseUc&#45;&gt;LearnroomModule</title>
<path fill="none" stroke="black" d="M3636,-84.91C3636,-104.14 3636,-131.8 3636,-131.8 3636,-131.8 2362.8,-131.8 2362.8,-131.8"/>
<polygon fill="black" stroke="black" points="2362.8,-128.3 2352.8,-131.8 2362.8,-135.3 2362.8,-128.3"/>
</g>
<!-- DashboardModelMapper -->
<g id="node11" class="node">
<title>DashboardModelMapper</title>
<ellipse fill="#fdb462" stroke="black" cx="3460" cy="-66.8" rx="108.23" ry="18"/>
<text text-anchor="middle" x="3460" y="-62.6" font-family="Times,serif" font-size="14.00">DashboardModelMapper</text>
</g>
<!-- DashboardModelMapper&#45;&gt;LearnroomModule -->
<g id="edge10" class="edge">
<title>DashboardModelMapper&#45;&gt;LearnroomModule</title>
<path fill="none" stroke="black" d="M3460,-85.02C3460,-103.63 3460,-129.8 3460,-129.8 3460,-129.8 2363.15,-129.8 2363.15,-129.8"/>
<polygon fill="black" stroke="black" points="2363.15,-126.3 2353.15,-129.8 2363.15,-133.3 2363.15,-126.3"/>
</g>
<!-- DashboardUc -->
<g id="node12" class="node">
<title>DashboardUc</title>
<ellipse fill="#fdb462" stroke="black" cx="3270" cy="-66.8" rx="64.26" ry="18"/>
<text text-anchor="middle" x="3270" y="-62.6" font-family="Times,serif" font-size="14.00">DashboardUc</text>
</g>
<!-- DashboardUc&#45;&gt;LearnroomModule -->
<g id="edge11" class="edge">
<title>DashboardUc&#45;&gt;LearnroomModule</title>
<path fill="none" stroke="black" d="M3270,-84.8C3270,-102.48 3270,-126.8 3270,-126.8 3270,-126.8 2362.81,-126.8 2362.81,-126.8"/>
<polygon fill="black" stroke="black" points="2362.81,-123.3 2352.81,-126.8 2362.81,-130.3 2362.81,-123.3"/>
</g>
<!-- EtherpadService -->
<g id="node13" class="node">
<title>EtherpadService</title>
<ellipse fill="#fdb462" stroke="black" cx="3113" cy="-66.8" rx="74.7" ry="18"/>
<text text-anchor="middle" x="3113" y="-62.6" font-family="Times,serif" font-size="14.00">EtherpadService</text>
</g>
<!-- EtherpadService&#45;&gt;LearnroomModule -->
<g id="edge12" class="edge">
<title>EtherpadService&#45;&gt;LearnroomModule</title>
<path fill="none" stroke="black" d="M3113,-84.83C3113,-101.86 3113,-124.8 3113,-124.8 3113,-124.8 2363.04,-124.8 2363.04,-124.8"/>
<polygon fill="black" stroke="black" points="2363.04,-121.3 2353.04,-124.8 2363.04,-128.3 2363.04,-121.3"/>
</g>
<!-- FeathersServiceProvider -->
<g id="node14" class="node">
<title>FeathersServiceProvider</title>
<ellipse fill="#fdb462" stroke="black" cx="2914" cy="-66.8" rx="105.93" ry="18"/>
<text text-anchor="middle" x="2914" y="-62.6" font-family="Times,serif" font-size="14.00">FeathersServiceProvider</text>
</g>
<!-- FeathersServiceProvider&#45;&gt;LearnroomModule -->
<g id="edge13" class="edge">
<title>FeathersServiceProvider&#45;&gt;LearnroomModule</title>
<path fill="none" stroke="black" d="M2914,-84.81C2914,-100.85 2914,-121.8 2914,-121.8 2914,-121.8 2362.77,-121.8 2362.77,-121.8"/>
<polygon fill="black" stroke="black" points="2362.77,-118.3 2352.77,-121.8 2362.77,-125.3 2362.77,-118.3"/>
</g>
<!-- FileCopyAppendService -->
<g id="node15" class="node">
<title>FileCopyAppendService</title>
<ellipse fill="#fdb462" stroke="black" cx="2684" cy="-66.8" rx="106.53" ry="18"/>
<text text-anchor="middle" x="2684" y="-62.6" font-family="Times,serif" font-size="14.00">FileCopyAppendService</text>
</g>
<!-- FileCopyAppendService&#45;&gt;LearnroomModule -->
<g id="edge14" class="edge">
<title>FileCopyAppendService&#45;&gt;LearnroomModule</title>
<path fill="none" stroke="black" d="M2684,-85.04C2684,-100.37 2684,-119.8 2684,-119.8 2684,-119.8 2362.82,-119.8 2362.82,-119.8"/>
<polygon fill="black" stroke="black" points="2362.82,-116.3 2352.82,-119.8 2362.82,-123.3 2362.82,-116.3"/>
</g>
<!-- LessonCopyService -->
<g id="node16" class="node">
<title>LessonCopyService</title>
<ellipse fill="#fdb462" stroke="black" cx="2471" cy="-66.8" rx="88.06" ry="18"/>
<text text-anchor="middle" x="2471" y="-62.6" font-family="Times,serif" font-size="14.00">LessonCopyService</text>
</g>
<!-- LessonCopyService&#45;&gt;LearnroomModule -->
<g id="edge15" class="edge">
<title>LessonCopyService&#45;&gt;LearnroomModule</title>
<path fill="none" stroke="black" d="M2471,-84.85C2471,-99.17 2471,-116.8 2471,-116.8 2471,-116.8 2362.85,-116.8 2362.85,-116.8"/>
<polygon fill="black" stroke="black" points="2362.85,-113.3 2352.85,-116.8 2362.85,-120.3 2362.85,-113.3"/>
</g>
<!-- LessonCopyUC -->
<g id="node17" class="node">
<title>LessonCopyUC</title>
<ellipse fill="#fdb462" stroke="black" cx="2292" cy="-66.8" rx="72.97" ry="18"/>
<text text-anchor="middle" x="2292" y="-62.6" font-family="Times,serif" font-size="14.00">LessonCopyUC</text>
</g>
<!-- LessonCopyUC&#45;&gt;LearnroomModule -->
<g id="edge16" class="edge">
<title>LessonCopyUC&#45;&gt;LearnroomModule</title>
<path fill="none" stroke="black" d="M2292,-84.91C2292,-84.91 2292,-103.79 2292,-103.79"/>
<polygon fill="black" stroke="black" points="2288.5,-103.79 2292,-113.79 2295.5,-103.79 2288.5,-103.79"/>
</g>
<!-- LessonRepo -->
<g id="node18" class="node">
<title>LessonRepo</title>
<ellipse fill="#fdb462" stroke="black" cx="2142" cy="-66.8" rx="58.56" ry="18"/>
<text text-anchor="middle" x="2142" y="-62.6" font-family="Times,serif" font-size="14.00">LessonRepo</text>
</g>
<!-- LessonRepo&#45;&gt;LearnroomModule -->
<g id="edge17" class="edge">
<title>LessonRepo&#45;&gt;LearnroomModule</title>
<path fill="none" stroke="black" d="M2142,-84.85C2142,-99.17 2142,-116.8 2142,-116.8 2142,-116.8 2220.99,-116.8 2220.99,-116.8"/>
<polygon fill="black" stroke="black" points="2220.99,-120.3 2230.99,-116.8 2220.99,-113.3 2220.99,-120.3"/>
</g>
<!-- Logger -->
<g id="node19" class="node">
<title>Logger</title>
<ellipse fill="#fdb462" stroke="black" cx="2026" cy="-66.8" rx="38.85" ry="18"/>
<text text-anchor="middle" x="2026" y="-62.6" font-family="Times,serif" font-size="14.00">Logger</text>
</g>
<!-- Logger&#45;&gt;LearnroomModule -->
<g id="edge18" class="edge">
<title>Logger&#45;&gt;LearnroomModule</title>
<path fill="none" stroke="black" d="M2026,-85.04C2026,-100.37 2026,-119.8 2026,-119.8 2026,-119.8 2220.97,-119.8 2220.97,-119.8"/>
<polygon fill="black" stroke="black" points="2220.97,-123.3 2230.97,-119.8 2220.97,-116.3 2220.97,-123.3"/>
</g>
<!-- NexboardService -->
<g id="node20" class="node">
<title>NexboardService</title>
<ellipse fill="#fdb462" stroke="black" cx="1891" cy="-66.8" rx="78.14" ry="18"/>
<text text-anchor="middle" x="1891" y="-62.6" font-family="Times,serif" font-size="14.00">NexboardService</text>
</g>
<!-- NexboardService&#45;&gt;LearnroomModule -->
<g id="edge19" class="edge">
<title>NexboardService&#45;&gt;LearnroomModule</title>
<path fill="none" stroke="black" d="M1891,-84.81C1891,-100.85 1891,-121.8 1891,-121.8 1891,-121.8 2221.1,-121.8 2221.1,-121.8"/>
<polygon fill="black" stroke="black" points="2221.1,-125.3 2231.1,-121.8 2221.1,-118.3 2221.1,-125.3"/>
</g>
<!-- RoomBoardDTOFactory -->
<g id="node21" class="node">
<title>RoomBoardDTOFactory</title>
<ellipse fill="#fdb462" stroke="black" cx="1687" cy="-66.8" rx="107.68" ry="18"/>
<text text-anchor="middle" x="1687" y="-62.6" font-family="Times,serif" font-size="14.00">RoomBoardDTOFactory</text>
</g>
<!-- RoomBoardDTOFactory&#45;&gt;LearnroomModule -->
<g id="edge20" class="edge">
<title>RoomBoardDTOFactory&#45;&gt;LearnroomModule</title>
<path fill="none" stroke="black" d="M1687,-84.83C1687,-101.86 1687,-124.8 1687,-124.8 1687,-124.8 2221.22,-124.8 2221.22,-124.8"/>
<polygon fill="black" stroke="black" points="2221.22,-128.3 2231.22,-124.8 2221.22,-121.3 2221.22,-128.3"/>
</g>
<!-- RoomBoardResponseMapper -->
<g id="node22" class="node">
<title>RoomBoardResponseMapper</title>
<ellipse fill="#fdb462" stroke="black" cx="1436" cy="-66.8" rx="125.09" ry="18"/>
<text text-anchor="middle" x="1436" y="-62.6" font-family="Times,serif" font-size="14.00">RoomBoardResponseMapper</text>
</g>
<!-- RoomBoardResponseMapper&#45;&gt;LearnroomModule -->
<g id="edge21" class="edge">
<title>RoomBoardResponseMapper&#45;&gt;LearnroomModule</title>
<path fill="none" stroke="black" d="M1436,-84.8C1436,-102.48 1436,-126.8 1436,-126.8 1436,-126.8 2221.12,-126.8 2221.12,-126.8"/>
<polygon fill="black" stroke="black" points="2221.12,-130.3 2231.12,-126.8 2221.12,-123.3 2221.12,-130.3"/>
</g>
<!-- RoomsAuthorisationService -->
<g id="node23" class="node">
<title>RoomsAuthorisationService</title>
<ellipse fill="#fdb462" stroke="black" cx="1172" cy="-66.8" rx="120.44" ry="18"/>
<text text-anchor="middle" x="1172" y="-62.6" font-family="Times,serif" font-size="14.00">RoomsAuthorisationService</text>
</g>
<!-- RoomsAuthorisationService&#45;&gt;LearnroomModule -->
<g id="edge22" class="edge">
<title>RoomsAuthorisationService&#45;&gt;LearnroomModule</title>
<path fill="none" stroke="black" d="M1172,-85.02C1172,-103.63 1172,-129.8 1172,-129.8 1172,-129.8 2220.99,-129.8 2220.99,-129.8"/>
<polygon fill="black" stroke="black" points="2220.99,-133.3 2230.99,-129.8 2220.99,-126.3 2220.99,-133.3"/>
</g>
<!-- RoomsService -->
<g id="node24" class="node">
<title>RoomsService</title>
<ellipse fill="#fdb462" stroke="black" cx="966" cy="-66.8" rx="67.22" ry="18"/>
<text text-anchor="middle" x="966" y="-62.6" font-family="Times,serif" font-size="14.00">RoomsService</text>
</g>
<!-- RoomsService&#45;&gt;LearnroomModule -->
<g id="edge23" class="edge">
<title>RoomsService&#45;&gt;LearnroomModule</title>
<path fill="none" stroke="black" d="M966,-84.91C966,-104.14 966,-131.8 966,-131.8 966,-131.8 2221.14,-131.8 2221.14,-131.8"/>
<polygon fill="black" stroke="black" points="2221.14,-135.3 2231.14,-131.8 2221.14,-128.3 2221.14,-135.3"/>
</g>
<!-- RoomsUc -->
<g id="node25" class="node">
<title>RoomsUc</title>
<ellipse fill="#fdb462" stroke="black" cx="831" cy="-66.8" rx="49.83" ry="18"/>
<text text-anchor="middle" x="831" y="-62.6" font-family="Times,serif" font-size="14.00">RoomsUc</text>
</g>
<!-- RoomsUc&#45;&gt;LearnroomModule -->
<g id="edge24" class="edge">
<title>RoomsUc&#45;&gt;LearnroomModule</title>
<path fill="none" stroke="black" d="M831,-85.02C831,-105.17 831,-134.8 831,-134.8 831,-134.8 2221.08,-134.8 2221.08,-134.8"/>
<polygon fill="black" stroke="black" points="2221.08,-138.3 2231.08,-134.8 2221.08,-131.3 2221.08,-138.3"/>
</g>
<!-- TaskCopyService -->
<g id="node26" class="node">
<title>TaskCopyService</title>
<ellipse fill="#fdb462" stroke="black" cx="684" cy="-66.8" rx="79.88" ry="18"/>
<text text-anchor="middle" x="684" y="-62.6" font-family="Times,serif" font-size="14.00">TaskCopyService</text>
</g>
<!-- TaskCopyService&#45;&gt;LearnroomModule -->
<g id="edge25" class="edge">
<title>TaskCopyService&#45;&gt;LearnroomModule</title>
<path fill="none" stroke="black" d="M684,-85.08C684,-106.12 684,-137.8 684,-137.8 684,-137.8 2220.93,-137.8 2220.93,-137.8"/>
<polygon fill="black" stroke="black" points="2220.93,-141.3 2230.93,-137.8 2220.93,-134.3 2220.93,-141.3"/>
</g>
<!-- TaskRepo -->
<g id="node27" class="node">
<title>TaskRepo</title>
<ellipse fill="#fdb462" stroke="black" cx="536" cy="-66.8" rx="50.39" ry="18"/>
<text text-anchor="middle" x="536" y="-62.6" font-family="Times,serif" font-size="14.00">TaskRepo</text>
</g>
<!-- TaskRepo&#45;&gt;LearnroomModule -->
<g id="edge26" class="edge">
<title>TaskRepo&#45;&gt;LearnroomModule</title>
<path fill="none" stroke="black" d="M536,-84.84C536,-106.46 536,-139.8 536,-139.8 536,-139.8 2221.04,-139.8 2221.04,-139.8"/>
<polygon fill="black" stroke="black" points="2221.04,-143.3 2231.04,-139.8 2221.04,-136.3 2221.04,-143.3"/>
</g>
<!-- UserRepo -->
<g id="node28" class="node">
<title>UserRepo</title>
<ellipse fill="#fdb462" stroke="black" cx="418" cy="-66.8" rx="49.81" ry="18"/>
<text text-anchor="middle" x="418" y="-62.6" font-family="Times,serif" font-size="14.00">UserRepo</text>
</g>
<!-- UserRepo&#45;&gt;LearnroomModule -->
<g id="edge27" class="edge">
<title>UserRepo&#45;&gt;LearnroomModule</title>
<path fill="none" stroke="black" d="M418,-84.81C418,-107.29 418,-142.8 418,-142.8 418,-142.8 2221.24,-142.8 2221.24,-142.8"/>
<polygon fill="black" stroke="black" points="2221.24,-146.3 2231.24,-142.8 2221.24,-139.3 2221.24,-146.3"/>
</g>
</g>
</svg>
