<?xml version="1.0" encoding="UTF-8" standalone="no"?>
<!DOCTYPE svg PUBLIC "-//W3C//DTD SVG 1.1//EN"
 "http://www.w3.org/Graphics/SVG/1.1/DTD/svg11.dtd">
<!-- Generated by graphviz version 2.47.3 (20210619.1520)
 -->
<!-- Title: dependencies Pages: 1 -->
<svg width="671pt" height="174pt"
 viewBox="0.00 0.00 671.00 173.80" xmlns="http://www.w3.org/2000/svg" xmlns:xlink="http://www.w3.org/1999/xlink">
<g id="graph0" class="graph" transform="scale(1 1) rotate(0) translate(4 169.8)">
<title>dependencies</title>
<polygon fill="white" stroke="transparent" points="-4,4 -4,-169.8 667,-169.8 667,4 -4,4"/>
<text text-anchor="middle" x="331.5" y="-8.2" font-family="sans-serif" font-size="14.00">dependencies</text>
<g id="clust1" class="cluster">
<title>cluster_LearnroomModule</title>
<polygon fill="none" stroke="black" stroke-dasharray="1,5" points="8,-32.8 8,-157.8 655,-157.8 655,-32.8 8,-32.8"/>
</g>
<g id="clust6" class="cluster">
<title>cluster_LearnroomModule_providers</title>
<polygon fill="none" stroke="black" points="16,-40.8 16,-92.8 647,-92.8 647,-40.8 16,-40.8"/>
</g>
<!-- CourseRepo -->
<g id="node1" class="node">
<title>CourseRepo</title>
<ellipse fill="#fdb462" stroke="black" cx="580" cy="-66.8" rx="58.55" ry="18"/>
<text text-anchor="middle" x="580" y="-62.6" font-family="Times,serif" font-size="14.00">CourseRepo</text>
</g>
<!-- LearnroomModule -->
<g id="node5" class="node">
<title>LearnroomModule</title>
<polygon fill="#8dd3c7" stroke="black" points="426.74,-149.8 423.74,-153.8 402.74,-153.8 399.74,-149.8 305.26,-149.8 305.26,-113.8 426.74,-113.8 426.74,-149.8"/>
<text text-anchor="middle" x="366" y="-127.6" font-family="Times,serif" font-size="14.00">LearnroomModule</text>
</g>
<!-- CourseRepo&#45;&gt;LearnroomModule -->
<g id="edge1" class="edge">
<title>CourseRepo&#45;&gt;LearnroomModule</title>
<path fill="none" stroke="black" d="M580,-84.91C580,-104.14 580,-131.8 580,-131.8 580,-131.8 436.75,-131.8 436.75,-131.8"/>
<polygon fill="black" stroke="black" points="436.75,-128.3 426.75,-131.8 436.75,-135.3 436.75,-128.3"/>
</g>
<!-- CourseUc -->
<g id="node2" class="node">
<title>CourseUc</title>
<ellipse fill="#fdb462" stroke="black" cx="454" cy="-66.8" rx="49.8" ry="18"/>
<text text-anchor="middle" x="454" y="-62.6" font-family="Times,serif" font-size="14.00">CourseUc</text>
</g>
<!-- CourseUc&#45;&gt;LearnroomModule -->
<g id="edge2" class="edge">
<title>CourseUc&#45;&gt;LearnroomModule</title>
<path fill="none" stroke="black" d="M415.61,-78.42C415.61,-78.42 415.61,-103.65 415.61,-103.65"/>
<polygon fill="black" stroke="black" points="412.11,-103.65 415.61,-113.65 419.11,-103.65 412.11,-103.65"/>
</g>
<!-- DashboardModelMapper -->
<g id="node3" class="node">
<title>DashboardModelMapper</title>
<ellipse fill="#fdb462" stroke="black" cx="278" cy="-66.8" rx="108.21" ry="18"/>
<text text-anchor="middle" x="278" y="-62.6" font-family="Times,serif" font-size="14.00">DashboardModelMapper</text>
</g>
<!-- DashboardModelMapper&#45;&gt;LearnroomModule -->
<g id="edge3" class="edge">
<title>DashboardModelMapper&#45;&gt;LearnroomModule</title>
<path fill="none" stroke="black" d="M345.62,-80.9C345.62,-80.9 345.62,-103.52 345.62,-103.52"/>
<polygon fill="black" stroke="black" points="342.12,-103.52 345.62,-113.52 349.12,-103.52 342.12,-103.52"/>
</g>
<!-- DashboardUc -->
<g id="node4" class="node">
<title>DashboardUc</title>
<ellipse fill="#fdb462" stroke="black" cx="88" cy="-66.8" rx="64.25" ry="18"/>
<text text-anchor="middle" x="88" y="-62.6" font-family="Times,serif" font-size="14.00">DashboardUc</text>
</g>
<!-- DashboardUc&#45;&gt;LearnroomModule -->
<g id="edge4" class="edge">
<title>DashboardUc&#45;&gt;LearnroomModule</title>
<path fill="none" stroke="black" d="M88,-84.91C88,-104.14 88,-131.8 88,-131.8 88,-131.8 294.99,-131.8 294.99,-131.8"/>
<polygon fill="black" stroke="black" points="294.99,-135.3 304.99,-131.8 294.99,-128.3 294.99,-135.3"/>
</g>
</g>
</svg>
