<?xml version="1.0" encoding="UTF-8" standalone="no"?>
<!DOCTYPE svg PUBLIC "-//W3C//DTD SVG 1.1//EN"
 "http://www.w3.org/Graphics/SVG/1.1/DTD/svg11.dtd">
<!-- Generated by graphviz version 5.0.0 (20220707.1540)
 -->
<!-- Title: dependencies Pages: 1 -->
<svg width="3637pt" height="174pt"
 viewBox="0.00 0.00 3637.00 173.80" xmlns="http://www.w3.org/2000/svg" xmlns:xlink="http://www.w3.org/1999/xlink">
<g id="graph0" class="graph" transform="scale(1 1) rotate(0) translate(4 169.8)">
<title>dependencies</title>
<polygon fill="white" stroke="transparent" points="-4,4 -4,-169.8 3633,-169.8 3633,4 -4,4"/>
<text text-anchor="middle" x="1814.5" y="-8.2" font-family="sans-serif" font-size="14.00">dependencies</text>
<g id="clust1" class="cluster">
<title>cluster_LearnroomModule</title>
<polygon fill="none" stroke="black" stroke-dasharray="1,5" points="8,-32.8 8,-157.8 3621,-157.8 3621,-32.8 8,-32.8"/>
</g>
<g id="clust3" class="cluster">
<title>cluster_LearnroomModule_imports</title>
<polygon fill="none" stroke="black" points="3459,-40.8 3459,-92.8 3613,-92.8 3613,-40.8 3459,-40.8"/>
</g>
<g id="clust6" class="cluster">
<title>cluster_LearnroomModule_providers</title>
<polygon fill="none" stroke="black" points="16,-40.8 16,-92.8 3451,-92.8 3451,-40.8 16,-40.8"/>
</g>
<!-- AuthorizationModule -->
<g id="node1" class="node">
<title>AuthorizationModule</title>
<polygon fill="#8dd3c7" stroke="black" points="3604.81,-84.8 3601.81,-88.8 3580.81,-88.8 3577.81,-84.8 3467.19,-84.8 3467.19,-48.8 3604.81,-48.8 3604.81,-84.8"/>
<text text-anchor="middle" x="3536" y="-62.6" font-family="Times,serif" font-size="14.00">AuthorizationModule</text>
</g>
<!-- LearnroomModule -->
<g id="node2" class="node">
<title>LearnroomModule</title>
<polygon fill="#8dd3c7" stroke="black" points="1916.75,-149.8 1913.75,-153.8 1892.75,-153.8 1889.75,-149.8 1795.25,-149.8 1795.25,-113.8 1916.75,-113.8 1916.75,-149.8"/>
<text text-anchor="middle" x="1856" y="-127.6" font-family="Times,serif" font-size="14.00">LearnroomModule</text>
</g>
<!-- AuthorizationModule&#45;&gt;LearnroomModule -->
<g id="edge1" class="edge">
<title>AuthorizationModule&#45;&gt;LearnroomModule</title>
<path fill="none" stroke="black" d="M3536,-84.95C3536,-108.56 3536,-146.8 3536,-146.8 3536,-146.8 1926.78,-146.8 1926.78,-146.8"/>
<polygon fill="black" stroke="black" points="1926.78,-143.3 1916.78,-146.8 1926.78,-150.3 1926.78,-143.3"/>
</g>
<!-- BoardCopyService -->
<g id="node3" class="node">
<title>BoardCopyService</title>
<ellipse fill="#fdb462" stroke="black" cx="3358" cy="-66.8" rx="84.54" ry="18"/>
<text text-anchor="middle" x="3358" y="-62.6" font-family="Times,serif" font-size="14.00">BoardCopyService</text>
</g>
<!-- BoardCopyService&#45;&gt;LearnroomModule -->
<g id="edge2" class="edge">
<title>BoardCopyService&#45;&gt;LearnroomModule</title>
<path fill="none" stroke="black" d="M3358,-85.05C3358,-107.82 3358,-143.8 3358,-143.8 3358,-143.8 1927.21,-143.8 1927.21,-143.8"/>
<polygon fill="black" stroke="black" points="1927.21,-140.3 1917.21,-143.8 1927.21,-147.3 1927.21,-140.3"/>
</g>
<!-- BoardRepo -->
<g id="node4" class="node">
<title>BoardRepo</title>
<ellipse fill="#fdb462" stroke="black" cx="3200" cy="-66.8" rx="55.04" ry="18"/>
<text text-anchor="middle" x="3200" y="-62.6" font-family="Times,serif" font-size="14.00">BoardRepo</text>
</g>
<!-- BoardRepo&#45;&gt;LearnroomModule -->
<g id="edge3" class="edge">
<title>BoardRepo&#45;&gt;LearnroomModule</title>
<path fill="none" stroke="black" d="M3200,-85.09C3200,-107.01 3200,-140.8 3200,-140.8 3200,-140.8 1926.8,-140.8 1926.8,-140.8"/>
<polygon fill="black" stroke="black" points="1926.8,-137.3 1916.8,-140.8 1926.8,-144.3 1926.8,-137.3"/>
</g>
<!-- CopyHelperService -->
<g id="node5" class="node">
<title>CopyHelperService</title>
<ellipse fill="#fdb462" stroke="black" cx="3040" cy="-66.8" rx="87.39" ry="18"/>
<text text-anchor="middle" x="3040" y="-62.6" font-family="Times,serif" font-size="14.00">CopyHelperService</text>
</g>
<!-- CopyHelperService&#45;&gt;LearnroomModule -->
<g id="edge4" class="edge">
<title>CopyHelperService&#45;&gt;LearnroomModule</title>
<path fill="none" stroke="black" d="M3040,-84.83C3040,-105.57 3040,-136.8 3040,-136.8 3040,-136.8 1926.75,-136.8 1926.75,-136.8"/>
<polygon fill="black" stroke="black" points="1926.75,-133.3 1916.75,-136.8 1926.75,-140.3 1926.75,-133.3"/>
</g>
<!-- CourseCopyService -->
<g id="node6" class="node">
<title>CourseCopyService</title>
<ellipse fill="#fdb462" stroke="black" cx="2847" cy="-66.8" rx="88.06" ry="18"/>
<text text-anchor="middle" x="2847" y="-62.6" font-family="Times,serif" font-size="14.00">CourseCopyService</text>
</g>
<!-- CourseCopyService&#45;&gt;LearnroomModule -->
<g id="edge5" class="edge">
<title>CourseCopyService&#45;&gt;LearnroomModule</title>
<path fill="none" stroke="black" d="M2847,-85.11C2847,-104.95 2847,-133.8 2847,-133.8 2847,-133.8 1926.87,-133.8 1926.87,-133.8"/>
<polygon fill="black" stroke="black" points="1926.87,-130.3 1916.87,-133.8 1926.87,-137.3 1926.87,-130.3"/>
</g>
<!-- CourseCopyUC -->
<g id="node7" class="node">
<title>CourseCopyUC</title>
<ellipse fill="#fdb462" stroke="black" cx="2668" cy="-66.8" rx="72.97" ry="18"/>
<text text-anchor="middle" x="2668" y="-62.6" font-family="Times,serif" font-size="14.00">CourseCopyUC</text>
</g>
<!-- CourseCopyUC&#45;&gt;LearnroomModule -->
<g id="edge6" class="edge">
<title>CourseCopyUC&#45;&gt;LearnroomModule</title>
<path fill="none" stroke="black" d="M2668,-84.97C2668,-103.89 2668,-130.8 2668,-130.8 2668,-130.8 1927.03,-130.8 1927.03,-130.8"/>
<polygon fill="black" stroke="black" points="1927.03,-127.3 1917.03,-130.8 1927.03,-134.3 1927.03,-127.3"/>
</g>
<!-- CourseRepo -->
<g id="node8" class="node">
<title>CourseRepo</title>
<ellipse fill="#fdb462" stroke="black" cx="2518" cy="-66.8" rx="58.56" ry="18"/>
<text text-anchor="middle" x="2518" y="-62.6" font-family="Times,serif" font-size="14.00">CourseRepo</text>
</g>
<!-- CourseRepo&#45;&gt;LearnroomModule -->
<g id="edge7" class="edge">
<title>CourseRepo&#45;&gt;LearnroomModule</title>
<path fill="none" stroke="black" d="M2518,-85.1C2518,-103.07 2518,-127.8 2518,-127.8 2518,-127.8 1926.8,-127.8 1926.8,-127.8"/>
<polygon fill="black" stroke="black" points="1926.8,-124.3 1916.8,-127.8 1926.8,-131.3 1926.8,-124.3"/>
</g>
<!-- CourseUc -->
<g id="node9" class="node">
<title>CourseUc</title>
<ellipse fill="#fdb462" stroke="black" cx="2392" cy="-66.8" rx="49.81" ry="18"/>
<text text-anchor="middle" x="2392" y="-62.6" font-family="Times,serif" font-size="14.00">CourseUc</text>
</g>
<!-- CourseUc&#45;&gt;LearnroomModule -->
<g id="edge8" class="edge">
<title>CourseUc&#45;&gt;LearnroomModule</title>
<path fill="none" stroke="black" d="M2392,-84.84C2392,-101.53 2392,-123.8 2392,-123.8 2392,-123.8 1926.96,-123.8 1926.96,-123.8"/>
<polygon fill="black" stroke="black" points="1926.96,-120.3 1916.96,-123.8 1926.96,-127.3 1926.96,-120.3"/>
</g>
<!-- DashboardModelMapper -->
<g id="node10" class="node">
<title>DashboardModelMapper</title>
<ellipse fill="#fdb462" stroke="black" cx="2216" cy="-66.8" rx="108.23" ry="18"/>
<text text-anchor="middle" x="2216" y="-62.6" font-family="Times,serif" font-size="14.00">DashboardModelMapper</text>
</g>
<!-- DashboardModelMapper&#45;&gt;LearnroomModule -->
<g id="edge9" class="edge">
<title>DashboardModelMapper&#45;&gt;LearnroomModule</title>
<path fill="none" stroke="black" d="M2216,-85.08C2216,-100.75 2216,-120.8 2216,-120.8 2216,-120.8 1927.07,-120.8 1927.07,-120.8"/>
<polygon fill="black" stroke="black" points="1927.07,-117.3 1917.07,-120.8 1927.07,-124.3 1927.07,-117.3"/>
</g>
<!-- DashboardUc -->
<g id="node11" class="node">
<title>DashboardUc</title>
<ellipse fill="#fdb462" stroke="black" cx="2026" cy="-66.8" rx="64.26" ry="18"/>
<text text-anchor="middle" x="2026" y="-62.6" font-family="Times,serif" font-size="14.00">DashboardUc</text>
</g>
<!-- DashboardUc&#45;&gt;LearnroomModule -->
<g id="edge10" class="edge">
<title>DashboardUc&#45;&gt;LearnroomModule</title>
<path fill="none" stroke="black" d="M2026,-84.92C2026,-99.58 2026,-117.8 2026,-117.8 2026,-117.8 1926.89,-117.8 1926.89,-117.8"/>
<polygon fill="black" stroke="black" points="1926.89,-114.3 1916.89,-117.8 1926.89,-121.3 1926.89,-114.3"/>
</g>
<!-- LessonCopyService -->
<g id="node12" class="node">
<title>LessonCopyService</title>
<ellipse fill="#fdb462" stroke="black" cx="1856" cy="-66.8" rx="88.06" ry="18"/>
<text text-anchor="middle" x="1856" y="-62.6" font-family="Times,serif" font-size="14.00">LessonCopyService</text>
</g>
<!-- LessonCopyService&#45;&gt;LearnroomModule -->
<g id="edge11" class="edge">
<title>LessonCopyService&#45;&gt;LearnroomModule</title>
<path fill="none" stroke="black" d="M1856,-84.91C1856,-84.91 1856,-103.79 1856,-103.79"/>
<polygon fill="black" stroke="black" points="1852.5,-103.79 1856,-113.79 1859.5,-103.79 1852.5,-103.79"/>
</g>
<!-- LessonCopyUC -->
<g id="node13" class="node">
<title>LessonCopyUC</title>
<ellipse fill="#fdb462" stroke="black" cx="1677" cy="-66.8" rx="72.97" ry="18"/>
<text text-anchor="middle" x="1677" y="-62.6" font-family="Times,serif" font-size="14.00">LessonCopyUC</text>
</g>
<!-- LessonCopyUC&#45;&gt;LearnroomModule -->
<g id="edge12" class="edge">
<title>LessonCopyUC&#45;&gt;LearnroomModule</title>
<path fill="none" stroke="black" d="M1677,-84.92C1677,-99.58 1677,-117.8 1677,-117.8 1677,-117.8 1785.15,-117.8 1785.15,-117.8"/>
<polygon fill="black" stroke="black" points="1785.15,-121.3 1795.15,-117.8 1785.15,-114.3 1785.15,-121.3"/>
</g>
<!-- LessonRepo -->
<g id="node14" class="node">
<title>LessonRepo</title>
<ellipse fill="#fdb462" stroke="black" cx="1527" cy="-66.8" rx="58.56" ry="18"/>
<text text-anchor="middle" x="1527" y="-62.6" font-family="Times,serif" font-size="14.00">LessonRepo</text>
</g>
<!-- LessonRepo&#45;&gt;LearnroomModule -->
<g id="edge13" class="edge">
<title>LessonRepo&#45;&gt;LearnroomModule</title>
<path fill="none" stroke="black" d="M1527,-85.08C1527,-100.75 1527,-120.8 1527,-120.8 1527,-120.8 1784.89,-120.8 1784.89,-120.8"/>
<polygon fill="black" stroke="black" points="1784.89,-124.3 1794.89,-120.8 1784.89,-117.3 1784.89,-124.3"/>
</g>
<!-- RoomBoardDTOFactory -->
<g id="node15" class="node">
<title>RoomBoardDTOFactory</title>
<ellipse fill="#fdb462" stroke="black" cx="1343" cy="-66.8" rx="107.68" ry="18"/>
<text text-anchor="middle" x="1343" y="-62.6" font-family="Times,serif" font-size="14.00">RoomBoardDTOFactory</text>
</g>
<!-- RoomBoardDTOFactory&#45;&gt;LearnroomModule -->
<g id="edge14" class="edge">
<title>RoomBoardDTOFactory&#45;&gt;LearnroomModule</title>
<path fill="none" stroke="black" d="M1343,-84.84C1343,-101.53 1343,-123.8 1343,-123.8 1343,-123.8 1785.14,-123.8 1785.14,-123.8"/>
<polygon fill="black" stroke="black" points="1785.14,-127.3 1795.14,-123.8 1785.14,-120.3 1785.14,-127.3"/>
</g>
<!-- RoomBoardResponseMapper -->
<g id="node16" class="node">
<title>RoomBoardResponseMapper</title>
<ellipse fill="#fdb462" stroke="black" cx="1092" cy="-66.8" rx="125.09" ry="18"/>
<text text-anchor="middle" x="1092" y="-62.6" font-family="Times,serif" font-size="14.00">RoomBoardResponseMapper</text>
</g>
<!-- RoomBoardResponseMapper&#45;&gt;LearnroomModule -->
<g id="edge15" class="edge">
<title>RoomBoardResponseMapper&#45;&gt;LearnroomModule</title>
<path fill="none" stroke="black" d="M1092,-85.1C1092,-103.07 1092,-127.8 1092,-127.8 1092,-127.8 1785.09,-127.8 1785.09,-127.8"/>
<polygon fill="black" stroke="black" points="1785.09,-131.3 1795.09,-127.8 1785.09,-124.3 1785.09,-131.3"/>
</g>
<!-- RoomsAuthorisationService -->
<g id="node17" class="node">
<title>RoomsAuthorisationService</title>
<ellipse fill="#fdb462" stroke="black" cx="828" cy="-66.8" rx="120.44" ry="18"/>
<text text-anchor="middle" x="828" y="-62.6" font-family="Times,serif" font-size="14.00">RoomsAuthorisationService</text>
</g>
<!-- RoomsAuthorisationService&#45;&gt;LearnroomModule -->
<g id="edge16" class="edge">
<title>RoomsAuthorisationService&#45;&gt;LearnroomModule</title>
<path fill="none" stroke="black" d="M828,-84.97C828,-103.89 828,-130.8 828,-130.8 828,-130.8 1785.15,-130.8 1785.15,-130.8"/>
<polygon fill="black" stroke="black" points="1785.15,-134.3 1795.15,-130.8 1785.15,-127.3 1785.15,-134.3"/>
</g>
<!-- RoomsService -->
<g id="node18" class="node">
<title>RoomsService</title>
<ellipse fill="#fdb462" stroke="black" cx="622" cy="-66.8" rx="67.22" ry="18"/>
<text text-anchor="middle" x="622" y="-62.6" font-family="Times,serif" font-size="14.00">RoomsService</text>
</g>
<!-- RoomsService&#45;&gt;LearnroomModule -->
<g id="edge17" class="edge">
<title>RoomsService&#45;&gt;LearnroomModule</title>
<path fill="none" stroke="black" d="M622,-85.11C622,-104.95 622,-133.8 622,-133.8 622,-133.8 1785.23,-133.8 1785.23,-133.8"/>
<polygon fill="black" stroke="black" points="1785.23,-137.3 1795.23,-133.8 1785.23,-130.3 1785.23,-137.3"/>
</g>
<!-- RoomsUc -->
<g id="node19" class="node">
<title>RoomsUc</title>
<ellipse fill="#fdb462" stroke="black" cx="487" cy="-66.8" rx="49.83" ry="18"/>
<text text-anchor="middle" x="487" y="-62.6" font-family="Times,serif" font-size="14.00">RoomsUc</text>
</g>
<!-- RoomsUc&#45;&gt;LearnroomModule -->
<g id="edge18" class="edge">
<title>RoomsUc&#45;&gt;LearnroomModule</title>
<path fill="none" stroke="black" d="M487,-84.83C487,-105.57 487,-136.8 487,-136.8 487,-136.8 1784.96,-136.8 1784.96,-136.8"/>
<polygon fill="black" stroke="black" points="1784.96,-140.3 1794.96,-136.8 1784.96,-133.3 1784.96,-140.3"/>
</g>
<!-- TaskCopyService -->
<g id="node20" class="node">
<title>TaskCopyService</title>
<ellipse fill="#fdb462" stroke="black" cx="340" cy="-66.8" rx="79.88" ry="18"/>
<text text-anchor="middle" x="340" y="-62.6" font-family="Times,serif" font-size="14.00">TaskCopyService</text>
</g>
<!-- TaskCopyService&#45;&gt;LearnroomModule -->
<g id="edge19" class="edge">
<title>TaskCopyService&#45;&gt;LearnroomModule</title>
<path fill="none" stroke="black" d="M340,-85.09C340,-107.01 340,-140.8 340,-140.8 340,-140.8 1785.17,-140.8 1785.17,-140.8"/>
<polygon fill="black" stroke="black" points="1785.17,-144.3 1795.17,-140.8 1785.17,-137.3 1785.17,-144.3"/>
</g>
<!-- TaskRepo -->
<g id="node21" class="node">
<title>TaskRepo</title>
<ellipse fill="#fdb462" stroke="black" cx="192" cy="-66.8" rx="50.39" ry="18"/>
<text text-anchor="middle" x="192" y="-62.6" font-family="Times,serif" font-size="14.00">TaskRepo</text>
</g>
<!-- TaskRepo&#45;&gt;LearnroomModule -->
<g id="edge20" class="edge">
<title>TaskRepo&#45;&gt;LearnroomModule</title>
<path fill="none" stroke="black" d="M192,-85.05C192,-107.82 192,-143.8 192,-143.8 192,-143.8 1784.8,-143.8 1784.8,-143.8"/>
<polygon fill="black" stroke="black" points="1784.8,-147.3 1794.8,-143.8 1784.8,-140.3 1784.8,-147.3"/>
</g>
<!-- UserRepo -->
<g id="node22" class="node">
<title>UserRepo</title>
<ellipse fill="#fdb462" stroke="black" cx="74" cy="-66.8" rx="49.81" ry="18"/>
<text text-anchor="middle" x="74" y="-62.6" font-family="Times,serif" font-size="14.00">UserRepo</text>
</g>
<!-- UserRepo&#45;&gt;LearnroomModule -->
<g id="edge21" class="edge">
<title>UserRepo&#45;&gt;LearnroomModule</title>
<path fill="none" stroke="black" d="M74,-84.95C74,-108.56 74,-146.8 74,-146.8 74,-146.8 1785.18,-146.8 1785.18,-146.8"/>
<polygon fill="black" stroke="black" points="1785.18,-150.3 1795.18,-146.8 1785.18,-143.3 1785.18,-150.3"/>
</g>
</g>
</svg>
