<?xml version="1.0" encoding="UTF-8" standalone="no"?>
<!DOCTYPE svg PUBLIC "-//W3C//DTD SVG 1.1//EN"
 "http://www.w3.org/Graphics/SVG/1.1/DTD/svg11.dtd">
<!-- Generated by graphviz version 3.0.0 (20220226.1711)
 -->
<!-- Title: dependencies Pages: 1 -->
<svg width="3281pt" height="174pt"
 viewBox="0.00 0.00 3281.00 173.80" xmlns="http://www.w3.org/2000/svg" xmlns:xlink="http://www.w3.org/1999/xlink">
<g id="graph0" class="graph" transform="scale(1 1) rotate(0) translate(4 169.8)">
<title>dependencies</title>
<polygon fill="white" stroke="transparent" points="-4,4 -4,-169.8 3277,-169.8 3277,4 -4,4"/>
<text text-anchor="middle" x="1636.5" y="-8.2" font-family="sans-serif" font-size="14.00">dependencies</text>
<g id="clust1" class="cluster">
<title>cluster_LearnroomModule</title>
<polygon fill="none" stroke="black" stroke-dasharray="1,5" points="8,-32.8 8,-157.8 3265,-157.8 3265,-32.8 8,-32.8"/>
</g>
<g id="clust3" class="cluster">
<title>cluster_LearnroomModule_imports</title>
<polygon fill="none" stroke="black" points="3103,-40.8 3103,-92.8 3257,-92.8 3257,-40.8 3103,-40.8"/>
</g>
<g id="clust6" class="cluster">
<title>cluster_LearnroomModule_providers</title>
<polygon fill="none" stroke="black" points="16,-40.8 16,-92.8 3095,-92.8 3095,-40.8 16,-40.8"/>
</g>
<!-- AuthorizationModule -->
<g id="node1" class="node">
<title>AuthorizationModule</title>
<polygon fill="#8dd3c7" stroke="black" points="3248.81,-84.8 3245.81,-88.8 3224.81,-88.8 3221.81,-84.8 3111.19,-84.8 3111.19,-48.8 3248.81,-48.8 3248.81,-84.8"/>
<text text-anchor="middle" x="3180" y="-62.6" font-family="Times,serif" font-size="14.00">AuthorizationModule</text>
</g>
<!-- LearnroomModule -->
<g id="node2" class="node">
<title>LearnroomModule</title>
<polygon fill="#8dd3c7" stroke="black" points="1752.75,-149.8 1749.75,-153.8 1728.75,-153.8 1725.75,-149.8 1631.25,-149.8 1631.25,-113.8 1752.75,-113.8 1752.75,-149.8"/>
<text text-anchor="middle" x="1692" y="-127.6" font-family="Times,serif" font-size="14.00">LearnroomModule</text>
</g>
<!-- AuthorizationModule&#45;&gt;LearnroomModule -->
<g id="edge1" class="edge">
<title>AuthorizationModule&#45;&gt;LearnroomModule</title>
<path fill="none" stroke="black" d="M3180,-84.95C3180,-108.56 3180,-146.8 3180,-146.8 3180,-146.8 1763.11,-146.8 1763.11,-146.8"/>
<polygon fill="black" stroke="black" points="1763.11,-143.3 1753.11,-146.8 1763.11,-150.3 1763.11,-143.3"/>
</g>
<!-- BoardCopyService -->
<g id="node3" class="node">
<title>BoardCopyService</title>
<ellipse fill="#fdb462" stroke="black" cx="3002" cy="-66.8" rx="84.54" ry="18"/>
<text text-anchor="middle" x="3002" y="-62.6" font-family="Times,serif" font-size="14.00">BoardCopyService</text>
</g>
<!-- BoardCopyService&#45;&gt;LearnroomModule -->
<g id="edge2" class="edge">
<title>BoardCopyService&#45;&gt;LearnroomModule</title>
<path fill="none" stroke="black" d="M3002,-84.81C3002,-107.29 3002,-142.8 3002,-142.8 3002,-142.8 1762.99,-142.8 1762.99,-142.8"/>
<polygon fill="black" stroke="black" points="1762.99,-139.3 1752.99,-142.8 1762.99,-146.3 1762.99,-139.3"/>
</g>
<!-- BoardRepo -->
<g id="node4" class="node">
<title>BoardRepo</title>
<ellipse fill="#fdb462" stroke="black" cx="2844" cy="-66.8" rx="55.04" ry="18"/>
<text text-anchor="middle" x="2844" y="-62.6" font-family="Times,serif" font-size="14.00">BoardRepo</text>
</g>
<!-- BoardRepo&#45;&gt;LearnroomModule -->
<g id="edge3" class="edge">
<title>BoardRepo&#45;&gt;LearnroomModule</title>
<path fill="none" stroke="black" d="M2844,-84.84C2844,-106.46 2844,-139.8 2844,-139.8 2844,-139.8 1763.12,-139.8 1763.12,-139.8"/>
<polygon fill="black" stroke="black" points="1763.12,-136.3 1753.12,-139.8 1763.12,-143.3 1763.12,-136.3"/>
</g>
<!-- CourseCopyService -->
<g id="node5" class="node">
<title>CourseCopyService</title>
<ellipse fill="#fdb462" stroke="black" cx="2683" cy="-66.8" rx="88.06" ry="18"/>
<text text-anchor="middle" x="2683" y="-62.6" font-family="Times,serif" font-size="14.00">CourseCopyService</text>
</g>
<!-- CourseCopyService&#45;&gt;LearnroomModule -->
<g id="edge4" class="edge">
<title>CourseCopyService&#45;&gt;LearnroomModule</title>
<path fill="none" stroke="black" d="M2683,-84.93C2683,-105.37 2683,-135.8 2683,-135.8 2683,-135.8 1762.87,-135.8 1762.87,-135.8"/>
<polygon fill="black" stroke="black" points="1762.87,-132.3 1752.87,-135.8 1762.87,-139.3 1762.87,-132.3"/>
</g>
<!-- CourseCopyUC -->
<g id="node6" class="node">
<title>CourseCopyUC</title>
<ellipse fill="#fdb462" stroke="black" cx="2504" cy="-66.8" rx="72.97" ry="18"/>
<text text-anchor="middle" x="2504" y="-62.6" font-family="Times,serif" font-size="14.00">CourseCopyUC</text>
</g>
<!-- CourseCopyUC&#45;&gt;LearnroomModule -->
<g id="edge5" class="edge">
<title>CourseCopyUC&#45;&gt;LearnroomModule</title>
<path fill="none" stroke="black" d="M2504,-84.91C2504,-104.14 2504,-131.8 2504,-131.8 2504,-131.8 1763.03,-131.8 1763.03,-131.8"/>
<polygon fill="black" stroke="black" points="1763.03,-128.3 1753.03,-131.8 1763.03,-135.3 1763.03,-128.3"/>
</g>
<!-- CourseRepo -->
<g id="node7" class="node">
<title>CourseRepo</title>
<ellipse fill="#fdb462" stroke="black" cx="2354" cy="-66.8" rx="58.56" ry="18"/>
<text text-anchor="middle" x="2354" y="-62.6" font-family="Times,serif" font-size="14.00">CourseRepo</text>
</g>
<!-- CourseRepo&#45;&gt;LearnroomModule -->
<g id="edge6" class="edge">
<title>CourseRepo&#45;&gt;LearnroomModule</title>
<path fill="none" stroke="black" d="M2354,-85.07C2354,-103.36 2354,-128.8 2354,-128.8 2354,-128.8 1762.8,-128.8 1762.8,-128.8"/>
<polygon fill="black" stroke="black" points="1762.8,-125.3 1752.8,-128.8 1762.8,-132.3 1762.8,-125.3"/>
</g>
<!-- CourseUc -->
<g id="node8" class="node">
<title>CourseUc</title>
<ellipse fill="#fdb462" stroke="black" cx="2228" cy="-66.8" rx="49.81" ry="18"/>
<text text-anchor="middle" x="2228" y="-62.6" font-family="Times,serif" font-size="14.00">CourseUc</text>
</g>
<!-- CourseUc&#45;&gt;LearnroomModule -->
<g id="edge7" class="edge">
<title>CourseUc&#45;&gt;LearnroomModule</title>
<path fill="none" stroke="black" d="M2228,-84.83C2228,-101.86 2228,-124.8 2228,-124.8 2228,-124.8 1762.96,-124.8 1762.96,-124.8"/>
<polygon fill="black" stroke="black" points="1762.96,-121.3 1752.96,-124.8 1762.96,-128.3 1762.96,-121.3"/>
</g>
<!-- DashboardModelMapper -->
<g id="node9" class="node">
<title>DashboardModelMapper</title>
<ellipse fill="#fdb462" stroke="black" cx="2052" cy="-66.8" rx="108.23" ry="18"/>
<text text-anchor="middle" x="2052" y="-62.6" font-family="Times,serif" font-size="14.00">DashboardModelMapper</text>
</g>
<!-- DashboardModelMapper&#45;&gt;LearnroomModule -->
<g id="edge8" class="edge">
<title>DashboardModelMapper&#45;&gt;LearnroomModule</title>
<path fill="none" stroke="black" d="M2052,-84.81C2052,-100.85 2052,-121.8 2052,-121.8 2052,-121.8 1763.07,-121.8 1763.07,-121.8"/>
<polygon fill="black" stroke="black" points="1763.07,-118.3 1753.07,-121.8 1763.07,-125.3 1763.07,-118.3"/>
</g>
<!-- DashboardUc -->
<g id="node10" class="node">
<title>DashboardUc</title>
<ellipse fill="#fdb462" stroke="black" cx="1862" cy="-66.8" rx="64.26" ry="18"/>
<text text-anchor="middle" x="1862" y="-62.6" font-family="Times,serif" font-size="14.00">DashboardUc</text>
</g>
<!-- DashboardUc&#45;&gt;LearnroomModule -->
<g id="edge9" class="edge">
<title>DashboardUc&#45;&gt;LearnroomModule</title>
<path fill="none" stroke="black" d="M1862,-84.92C1862,-99.58 1862,-117.8 1862,-117.8 1862,-117.8 1762.89,-117.8 1762.89,-117.8"/>
<polygon fill="black" stroke="black" points="1762.89,-114.3 1752.89,-117.8 1762.89,-121.3 1762.89,-114.3"/>
</g>
<!-- LessonCopyService -->
<g id="node11" class="node">
<title>LessonCopyService</title>
<ellipse fill="#fdb462" stroke="black" cx="1692" cy="-66.8" rx="88.06" ry="18"/>
<text text-anchor="middle" x="1692" y="-62.6" font-family="Times,serif" font-size="14.00">LessonCopyService</text>
</g>
<!-- LessonCopyService&#45;&gt;LearnroomModule -->
<g id="edge10" class="edge">
<title>LessonCopyService&#45;&gt;LearnroomModule</title>
<path fill="none" stroke="black" d="M1692,-84.91C1692,-84.91 1692,-103.79 1692,-103.79"/>
<polygon fill="black" stroke="black" points="1688.5,-103.79 1692,-113.79 1695.5,-103.79 1688.5,-103.79"/>
</g>
<!-- LessonRepo -->
<g id="node12" class="node">
<title>LessonRepo</title>
<ellipse fill="#fdb462" stroke="black" cx="1527" cy="-66.8" rx="58.56" ry="18"/>
<text text-anchor="middle" x="1527" y="-62.6" font-family="Times,serif" font-size="14.00">LessonRepo</text>
</g>
<!-- LessonRepo&#45;&gt;LearnroomModule -->
<g id="edge11" class="edge">
<title>LessonRepo&#45;&gt;LearnroomModule</title>
<path fill="none" stroke="black" d="M1527,-84.92C1527,-99.58 1527,-117.8 1527,-117.8 1527,-117.8 1621.03,-117.8 1621.03,-117.8"/>
<polygon fill="black" stroke="black" points="1621.03,-121.3 1631.03,-117.8 1621.03,-114.3 1621.03,-121.3"/>
</g>
<!-- RoomBoardDTOFactory -->
<g id="node13" class="node">
<title>RoomBoardDTOFactory</title>
<ellipse fill="#fdb462" stroke="black" cx="1343" cy="-66.8" rx="107.68" ry="18"/>
<text text-anchor="middle" x="1343" y="-62.6" font-family="Times,serif" font-size="14.00">RoomBoardDTOFactory</text>
</g>
<!-- RoomBoardDTOFactory&#45;&gt;LearnroomModule -->
<g id="edge12" class="edge">
<title>RoomBoardDTOFactory&#45;&gt;LearnroomModule</title>
<path fill="none" stroke="black" d="M1343,-84.81C1343,-100.85 1343,-121.8 1343,-121.8 1343,-121.8 1621.21,-121.8 1621.21,-121.8"/>
<polygon fill="black" stroke="black" points="1621.21,-125.3 1631.21,-121.8 1621.21,-118.3 1621.21,-125.3"/>
</g>
<!-- RoomBoardResponseMapper -->
<g id="node14" class="node">
<title>RoomBoardResponseMapper</title>
<ellipse fill="#fdb462" stroke="black" cx="1092" cy="-66.8" rx="125.09" ry="18"/>
<text text-anchor="middle" x="1092" y="-62.6" font-family="Times,serif" font-size="14.00">RoomBoardResponseMapper</text>
</g>
<!-- RoomBoardResponseMapper&#45;&gt;LearnroomModule -->
<g id="edge13" class="edge">
<title>RoomBoardResponseMapper&#45;&gt;LearnroomModule</title>
<path fill="none" stroke="black" d="M1092,-84.83C1092,-101.86 1092,-124.8 1092,-124.8 1092,-124.8 1621.17,-124.8 1621.17,-124.8"/>
<polygon fill="black" stroke="black" points="1621.17,-128.3 1631.17,-124.8 1621.17,-121.3 1621.17,-128.3"/>
</g>
<!-- RoomsAuthorisationService -->
<g id="node15" class="node">
<title>RoomsAuthorisationService</title>
<ellipse fill="#fdb462" stroke="black" cx="828" cy="-66.8" rx="120.44" ry="18"/>
<text text-anchor="middle" x="828" y="-62.6" font-family="Times,serif" font-size="14.00">RoomsAuthorisationService</text>
</g>
<!-- RoomsAuthorisationService&#45;&gt;LearnroomModule -->
<g id="edge14" class="edge">
<title>RoomsAuthorisationService&#45;&gt;LearnroomModule</title>
<path fill="none" stroke="black" d="M828,-85.07C828,-103.36 828,-128.8 828,-128.8 828,-128.8 1621.25,-128.8 1621.25,-128.8"/>
<polygon fill="black" stroke="black" points="1621.25,-132.3 1631.25,-128.8 1621.25,-125.3 1621.25,-132.3"/>
</g>
<!-- RoomsService -->
<g id="node16" class="node">
<title>RoomsService</title>
<ellipse fill="#fdb462" stroke="black" cx="622" cy="-66.8" rx="67.22" ry="18"/>
<text text-anchor="middle" x="622" y="-62.6" font-family="Times,serif" font-size="14.00">RoomsService</text>
</g>
<!-- RoomsService&#45;&gt;LearnroomModule -->
<g id="edge15" class="edge">
<title>RoomsService&#45;&gt;LearnroomModule</title>
<path fill="none" stroke="black" d="M622,-84.91C622,-104.14 622,-131.8 622,-131.8 622,-131.8 1621.02,-131.8 1621.02,-131.8"/>
<polygon fill="black" stroke="black" points="1621.02,-135.3 1631.02,-131.8 1621.02,-128.3 1621.02,-135.3"/>
</g>
<!-- RoomsUc -->
<g id="node17" class="node">
<title>RoomsUc</title>
<ellipse fill="#fdb462" stroke="black" cx="487" cy="-66.8" rx="49.83" ry="18"/>
<text text-anchor="middle" x="487" y="-62.6" font-family="Times,serif" font-size="14.00">RoomsUc</text>
</g>
<!-- RoomsUc&#45;&gt;LearnroomModule -->
<g id="edge16" class="edge">
<title>RoomsUc&#45;&gt;LearnroomModule</title>
<path fill="none" stroke="black" d="M487,-84.93C487,-105.37 487,-135.8 487,-135.8 487,-135.8 1621,-135.8 1621,-135.8"/>
<polygon fill="black" stroke="black" points="1621,-139.3 1631,-135.8 1621,-132.3 1621,-139.3"/>
</g>
<!-- TaskCopyService -->
<g id="node18" class="node">
<title>TaskCopyService</title>
<ellipse fill="#fdb462" stroke="black" cx="340" cy="-66.8" rx="79.88" ry="18"/>
<text text-anchor="middle" x="340" y="-62.6" font-family="Times,serif" font-size="14.00">TaskCopyService</text>
</g>
<!-- TaskCopyService&#45;&gt;LearnroomModule -->
<g id="edge17" class="edge">
<title>TaskCopyService&#45;&gt;LearnroomModule</title>
<path fill="none" stroke="black" d="M340,-84.84C340,-106.46 340,-139.8 340,-139.8 340,-139.8 1620.84,-139.8 1620.84,-139.8"/>
<polygon fill="black" stroke="black" points="1620.84,-143.3 1630.84,-139.8 1620.84,-136.3 1620.84,-143.3"/>
</g>
<!-- TaskRepo -->
<g id="node19" class="node">
<title>TaskRepo</title>
<ellipse fill="#fdb462" stroke="black" cx="192" cy="-66.8" rx="50.39" ry="18"/>
<text text-anchor="middle" x="192" y="-62.6" font-family="Times,serif" font-size="14.00">TaskRepo</text>
</g>
<!-- TaskRepo&#45;&gt;LearnroomModule -->
<g id="edge18" class="edge">
<title>TaskRepo&#45;&gt;LearnroomModule</title>
<path fill="none" stroke="black" d="M192,-84.81C192,-107.29 192,-142.8 192,-142.8 192,-142.8 1620.87,-142.8 1620.87,-142.8"/>
<polygon fill="black" stroke="black" points="1620.87,-146.3 1630.87,-142.8 1620.87,-139.3 1620.87,-146.3"/>
</g>
<!-- UserRepo -->
<g id="node20" class="node">
<title>UserRepo</title>
<ellipse fill="#fdb462" stroke="black" cx="74" cy="-66.8" rx="49.81" ry="18"/>
<text text-anchor="middle" x="74" y="-62.6" font-family="Times,serif" font-size="14.00">UserRepo</text>
</g>
<!-- UserRepo&#45;&gt;LearnroomModule -->
<g id="edge19" class="edge">
<title>UserRepo&#45;&gt;LearnroomModule</title>
<path fill="none" stroke="black" d="M74,-84.95C74,-108.56 74,-146.8 74,-146.8 74,-146.8 1621.04,-146.8 1621.04,-146.8"/>
<polygon fill="black" stroke="black" points="1621.04,-150.3 1631.04,-146.8 1621.04,-143.3 1621.04,-150.3"/>
</g>
</g>
</svg>
