<?xml version="1.0" encoding="UTF-8" standalone="no"?>
<!DOCTYPE svg PUBLIC "-//W3C//DTD SVG 1.1//EN"
 "http://www.w3.org/Graphics/SVG/1.1/DTD/svg11.dtd">
<!-- Generated by graphviz version 3.0.0 (20220226.1711)
 -->
<!-- Title: dependencies Pages: 1 -->
<svg width="3632pt" height="174pt"
 viewBox="0.00 0.00 3632.00 173.80" xmlns="http://www.w3.org/2000/svg" xmlns:xlink="http://www.w3.org/1999/xlink">
<g id="graph0" class="graph" transform="scale(1 1) rotate(0) translate(4 169.8)">
<title>dependencies</title>
<polygon fill="white" stroke="transparent" points="-4,4 -4,-169.8 3628,-169.8 3628,4 -4,4"/>
<text text-anchor="middle" x="1812" y="-8.2" font-family="sans-serif" font-size="14.00">dependencies</text>
<g id="clust1" class="cluster">
<title>cluster_LearnroomModule</title>
<polygon fill="none" stroke="black" stroke-dasharray="1,5" points="8,-32.8 8,-157.8 3616,-157.8 3616,-32.8 8,-32.8"/>
</g>
<g id="clust6" class="cluster">
<title>cluster_LearnroomModule_providers</title>
<polygon fill="none" stroke="black" points="178,-40.8 178,-92.8 3608,-92.8 3608,-40.8 178,-40.8"/>
</g>
<g id="clust3" class="cluster">
<title>cluster_LearnroomModule_imports</title>
<polygon fill="none" stroke="black" points="16,-40.8 16,-92.8 170,-92.8 170,-40.8 16,-40.8"/>
</g>
<!-- AuthorizationModule -->
<g id="node1" class="node">
<title>AuthorizationModule</title>
<polygon fill="#8dd3c7" stroke="black" points="161.81,-84.8 158.81,-88.8 137.81,-88.8 134.81,-84.8 24.19,-84.8 24.19,-48.8 161.81,-48.8 161.81,-84.8"/>
<text text-anchor="middle" x="93" y="-62.6" font-family="Times,serif" font-size="14.00">AuthorizationModule</text>
</g>
<!-- LearnroomModule -->
<g id="node2" class="node">
<title>LearnroomModule</title>
<polygon fill="#8dd3c7" stroke="black" points="1936.75,-149.8 1933.75,-153.8 1912.75,-153.8 1909.75,-149.8 1815.25,-149.8 1815.25,-113.8 1936.75,-113.8 1936.75,-149.8"/>
<text text-anchor="middle" x="1876" y="-127.6" font-family="Times,serif" font-size="14.00">LearnroomModule</text>
</g>
<!-- AuthorizationModule&#45;&gt;LearnroomModule -->
<g id="edge1" class="edge">
<title>AuthorizationModule&#45;&gt;LearnroomModule</title>
<path fill="none" stroke="black" d="M93,-84.95C93,-108.56 93,-146.8 93,-146.8 93,-146.8 1805.14,-146.8 1805.14,-146.8"/>
<polygon fill="black" stroke="black" points="1805.14,-150.3 1815.14,-146.8 1805.14,-143.3 1805.14,-150.3"/>
</g>
<!-- BoardCopyService -->
<g id="node3" class="node">
<title>BoardCopyService</title>
<ellipse fill="#fdb462" stroke="black" cx="3515" cy="-66.8" rx="84.54" ry="18"/>
<text text-anchor="middle" x="3515" y="-62.6" font-family="Times,serif" font-size="14.00">BoardCopyService</text>
</g>
<!-- BoardCopyService&#45;&gt;LearnroomModule -->
<g id="edge2" class="edge">
<title>BoardCopyService&#45;&gt;LearnroomModule</title>
<path fill="none" stroke="black" d="M3515,-84.95C3515,-108.56 3515,-146.8 3515,-146.8 3515,-146.8 1946.77,-146.8 1946.77,-146.8"/>
<polygon fill="black" stroke="black" points="1946.77,-143.3 1936.77,-146.8 1946.77,-150.3 1946.77,-143.3"/>
</g>
<!-- BoardRepo -->
<g id="node4" class="node">
<title>BoardRepo</title>
<ellipse fill="#fdb462" stroke="black" cx="3357" cy="-66.8" rx="55.04" ry="18"/>
<text text-anchor="middle" x="3357" y="-62.6" font-family="Times,serif" font-size="14.00">BoardRepo</text>
</g>
<!-- BoardRepo&#45;&gt;LearnroomModule -->
<g id="edge3" class="edge">
<title>BoardRepo&#45;&gt;LearnroomModule</title>
<path fill="none" stroke="black" d="M3357,-85.05C3357,-107.82 3357,-143.8 3357,-143.8 3357,-143.8 1946.82,-143.8 1946.82,-143.8"/>
<polygon fill="black" stroke="black" points="1946.82,-140.3 1936.82,-143.8 1946.82,-147.3 1946.82,-140.3"/>
</g>
<!-- CourseCopyService -->
<g id="node5" class="node">
<title>CourseCopyService</title>
<ellipse fill="#fdb462" stroke="black" cx="3196" cy="-66.8" rx="88.06" ry="18"/>
<text text-anchor="middle" x="3196" y="-62.6" font-family="Times,serif" font-size="14.00">CourseCopyService</text>
</g>
<!-- CourseCopyService&#45;&gt;LearnroomModule -->
<g id="edge4" class="edge">
<title>CourseCopyService&#45;&gt;LearnroomModule</title>
<path fill="none" stroke="black" d="M3196,-85.09C3196,-107.01 3196,-140.8 3196,-140.8 3196,-140.8 1947.02,-140.8 1947.02,-140.8"/>
<polygon fill="black" stroke="black" points="1947.02,-137.3 1937.02,-140.8 1947.02,-144.3 1947.02,-137.3"/>
</g>
<!-- CourseCopyUC -->
<g id="node6" class="node">
<title>CourseCopyUC</title>
<ellipse fill="#fdb462" stroke="black" cx="3017" cy="-66.8" rx="72.97" ry="18"/>
<text text-anchor="middle" x="3017" y="-62.6" font-family="Times,serif" font-size="14.00">CourseCopyUC</text>
</g>
<!-- CourseCopyUC&#45;&gt;LearnroomModule -->
<g id="edge5" class="edge">
<title>CourseCopyUC&#45;&gt;LearnroomModule</title>
<path fill="none" stroke="black" d="M3017,-84.83C3017,-105.57 3017,-136.8 3017,-136.8 3017,-136.8 1946.94,-136.8 1946.94,-136.8"/>
<polygon fill="black" stroke="black" points="1946.94,-133.3 1936.94,-136.8 1946.94,-140.3 1946.94,-133.3"/>
</g>
<!-- CourseRepo -->
<g id="node7" class="node">
<title>CourseRepo</title>
<ellipse fill="#fdb462" stroke="black" cx="2867" cy="-66.8" rx="58.56" ry="18"/>
<text text-anchor="middle" x="2867" y="-62.6" font-family="Times,serif" font-size="14.00">CourseRepo</text>
</g>
<!-- CourseRepo&#45;&gt;LearnroomModule -->
<g id="edge6" class="edge">
<title>CourseRepo&#45;&gt;LearnroomModule</title>
<path fill="none" stroke="black" d="M2867,-85.11C2867,-104.95 2867,-133.8 2867,-133.8 2867,-133.8 1946.87,-133.8 1946.87,-133.8"/>
<polygon fill="black" stroke="black" points="1946.87,-130.3 1936.87,-133.8 1946.87,-137.3 1946.87,-130.3"/>
</g>
<!-- CourseUc -->
<g id="node8" class="node">
<title>CourseUc</title>
<ellipse fill="#fdb462" stroke="black" cx="2741" cy="-66.8" rx="49.81" ry="18"/>
<text text-anchor="middle" x="2741" y="-62.6" font-family="Times,serif" font-size="14.00">CourseUc</text>
</g>
<!-- CourseUc&#45;&gt;LearnroomModule -->
<g id="edge7" class="edge">
<title>CourseUc&#45;&gt;LearnroomModule</title>
<path fill="none" stroke="black" d="M2741,-84.97C2741,-103.89 2741,-130.8 2741,-130.8 2741,-130.8 1946.83,-130.8 1946.83,-130.8"/>
<polygon fill="black" stroke="black" points="1946.83,-127.3 1936.83,-130.8 1946.83,-134.3 1946.83,-127.3"/>
</g>
<!-- DashboardModelMapper -->
<g id="node9" class="node">
<title>DashboardModelMapper</title>
<ellipse fill="#fdb462" stroke="black" cx="2565" cy="-66.8" rx="108.23" ry="18"/>
<text text-anchor="middle" x="2565" y="-62.6" font-family="Times,serif" font-size="14.00">DashboardModelMapper</text>
</g>
<!-- DashboardModelMapper&#45;&gt;LearnroomModule -->
<g id="edge8" class="edge">
<title>DashboardModelMapper&#45;&gt;LearnroomModule</title>
<path fill="none" stroke="black" d="M2565,-85.1C2565,-103.07 2565,-127.8 2565,-127.8 2565,-127.8 1946.84,-127.8 1946.84,-127.8"/>
<polygon fill="black" stroke="black" points="1946.84,-124.3 1936.84,-127.8 1946.84,-131.3 1946.84,-124.3"/>
</g>
<!-- DashboardUc -->
<g id="node10" class="node">
<title>DashboardUc</title>
<ellipse fill="#fdb462" stroke="black" cx="2375" cy="-66.8" rx="64.26" ry="18"/>
<text text-anchor="middle" x="2375" y="-62.6" font-family="Times,serif" font-size="14.00">DashboardUc</text>
</g>
<!-- DashboardUc&#45;&gt;LearnroomModule -->
<g id="edge9" class="edge">
<title>DashboardUc&#45;&gt;LearnroomModule</title>
<path fill="none" stroke="black" d="M2375,-84.84C2375,-101.53 2375,-123.8 2375,-123.8 2375,-123.8 1947.19,-123.8 1947.19,-123.8"/>
<polygon fill="black" stroke="black" points="1947.19,-120.3 1937.19,-123.8 1947.19,-127.3 1947.19,-120.3"/>
</g>
<!-- LessonCopyService -->
<g id="node11" class="node">
<title>LessonCopyService</title>
<ellipse fill="#fdb462" stroke="black" cx="2205" cy="-66.8" rx="88.06" ry="18"/>
<text text-anchor="middle" x="2205" y="-62.6" font-family="Times,serif" font-size="14.00">LessonCopyService</text>
</g>
<!-- LessonCopyService&#45;&gt;LearnroomModule -->
<g id="edge10" class="edge">
<title>LessonCopyService&#45;&gt;LearnroomModule</title>
<path fill="none" stroke="black" d="M2205,-85.08C2205,-100.75 2205,-120.8 2205,-120.8 2205,-120.8 1947.11,-120.8 1947.11,-120.8"/>
<polygon fill="black" stroke="black" points="1947.11,-117.3 1937.11,-120.8 1947.11,-124.3 1947.11,-117.3"/>
</g>
<!-- LessonCopyUC -->
<g id="node12" class="node">
<title>LessonCopyUC</title>
<ellipse fill="#fdb462" stroke="black" cx="2026" cy="-66.8" rx="72.97" ry="18"/>
<text text-anchor="middle" x="2026" y="-62.6" font-family="Times,serif" font-size="14.00">LessonCopyUC</text>
</g>
<!-- LessonCopyUC&#45;&gt;LearnroomModule -->
<g id="edge11" class="edge">
<title>LessonCopyUC&#45;&gt;LearnroomModule</title>
<path fill="none" stroke="black" d="M2026,-84.92C2026,-99.58 2026,-117.8 2026,-117.8 2026,-117.8 1947.01,-117.8 1947.01,-117.8"/>
<polygon fill="black" stroke="black" points="1947.01,-114.3 1937.01,-117.8 1947.01,-121.3 1947.01,-114.3"/>
</g>
<!-- LessonRepo -->
<g id="node13" class="node">
<title>LessonRepo</title>
<ellipse fill="#fdb462" stroke="black" cx="1876" cy="-66.8" rx="58.56" ry="18"/>
<text text-anchor="middle" x="1876" y="-62.6" font-family="Times,serif" font-size="14.00">LessonRepo</text>
</g>
<!-- LessonRepo&#45;&gt;LearnroomModule -->
<g id="edge12" class="edge">
<title>LessonRepo&#45;&gt;LearnroomModule</title>
<path fill="none" stroke="black" d="M1876,-84.91C1876,-84.91 1876,-103.79 1876,-103.79"/>
<polygon fill="black" stroke="black" points="1872.5,-103.79 1876,-113.79 1879.5,-103.79 1872.5,-103.79"/>
</g>
<!-- NameCopyService -->
<g id="node14" class="node">
<title>NameCopyService</title>
<ellipse fill="#fdb462" stroke="black" cx="1715" cy="-66.8" rx="83.96" ry="18"/>
<text text-anchor="middle" x="1715" y="-62.6" font-family="Times,serif" font-size="14.00">NameCopyService</text>
</g>
<!-- NameCopyService&#45;&gt;LearnroomModule -->
<g id="edge13" class="edge">
<title>NameCopyService&#45;&gt;LearnroomModule</title>
<path fill="none" stroke="black" d="M1715,-84.92C1715,-99.58 1715,-117.8 1715,-117.8 1715,-117.8 1805.13,-117.8 1805.13,-117.8"/>
<polygon fill="black" stroke="black" points="1805.13,-121.3 1815.13,-117.8 1805.13,-114.3 1805.13,-121.3"/>
</g>
<!-- RoomBoardDTOFactory -->
<g id="node15" class="node">
<title>RoomBoardDTOFactory</title>
<ellipse fill="#fdb462" stroke="black" cx="1505" cy="-66.8" rx="107.68" ry="18"/>
<text text-anchor="middle" x="1505" y="-62.6" font-family="Times,serif" font-size="14.00">RoomBoardDTOFactory</text>
</g>
<!-- RoomBoardDTOFactory&#45;&gt;LearnroomModule -->
<g id="edge14" class="edge">
<title>RoomBoardDTOFactory&#45;&gt;LearnroomModule</title>
<path fill="none" stroke="black" d="M1505,-85.08C1505,-100.75 1505,-120.8 1505,-120.8 1505,-120.8 1805.15,-120.8 1805.15,-120.8"/>
<polygon fill="black" stroke="black" points="1805.15,-124.3 1815.15,-120.8 1805.15,-117.3 1805.15,-124.3"/>
</g>
<!-- RoomBoardResponseMapper -->
<g id="node16" class="node">
<title>RoomBoardResponseMapper</title>
<ellipse fill="#fdb462" stroke="black" cx="1254" cy="-66.8" rx="125.09" ry="18"/>
<text text-anchor="middle" x="1254" y="-62.6" font-family="Times,serif" font-size="14.00">RoomBoardResponseMapper</text>
</g>
<!-- RoomBoardResponseMapper&#45;&gt;LearnroomModule -->
<g id="edge15" class="edge">
<title>RoomBoardResponseMapper&#45;&gt;LearnroomModule</title>
<path fill="none" stroke="black" d="M1254,-84.84C1254,-101.53 1254,-123.8 1254,-123.8 1254,-123.8 1805.23,-123.8 1805.23,-123.8"/>
<polygon fill="black" stroke="black" points="1805.23,-127.3 1815.23,-123.8 1805.23,-120.3 1805.23,-127.3"/>
</g>
<!-- RoomsAuthorisationService -->
<g id="node17" class="node">
<title>RoomsAuthorisationService</title>
<ellipse fill="#fdb462" stroke="black" cx="990" cy="-66.8" rx="120.44" ry="18"/>
<text text-anchor="middle" x="990" y="-62.6" font-family="Times,serif" font-size="14.00">RoomsAuthorisationService</text>
</g>
<!-- RoomsAuthorisationService&#45;&gt;LearnroomModule -->
<g id="edge16" class="edge">
<title>RoomsAuthorisationService&#45;&gt;LearnroomModule</title>
<path fill="none" stroke="black" d="M990,-85.1C990,-103.07 990,-127.8 990,-127.8 990,-127.8 1805.1,-127.8 1805.1,-127.8"/>
<polygon fill="black" stroke="black" points="1805.1,-131.3 1815.1,-127.8 1805.1,-124.3 1805.1,-131.3"/>
</g>
<!-- RoomsService -->
<g id="node18" class="node">
<title>RoomsService</title>
<ellipse fill="#fdb462" stroke="black" cx="784" cy="-66.8" rx="67.22" ry="18"/>
<text text-anchor="middle" x="784" y="-62.6" font-family="Times,serif" font-size="14.00">RoomsService</text>
</g>
<!-- RoomsService&#45;&gt;LearnroomModule -->
<g id="edge17" class="edge">
<title>RoomsService&#45;&gt;LearnroomModule</title>
<path fill="none" stroke="black" d="M784,-84.97C784,-103.89 784,-130.8 784,-130.8 784,-130.8 1804.95,-130.8 1804.95,-130.8"/>
<polygon fill="black" stroke="black" points="1804.95,-134.3 1814.95,-130.8 1804.95,-127.3 1804.95,-134.3"/>
</g>
<!-- RoomsUc -->
<g id="node19" class="node">
<title>RoomsUc</title>
<ellipse fill="#fdb462" stroke="black" cx="649" cy="-66.8" rx="49.83" ry="18"/>
<text text-anchor="middle" x="649" y="-62.6" font-family="Times,serif" font-size="14.00">RoomsUc</text>
</g>
<!-- RoomsUc&#45;&gt;LearnroomModule -->
<g id="edge18" class="edge">
<title>RoomsUc&#45;&gt;LearnroomModule</title>
<path fill="none" stroke="black" d="M649,-85.11C649,-104.95 649,-133.8 649,-133.8 649,-133.8 1805.15,-133.8 1805.15,-133.8"/>
<polygon fill="black" stroke="black" points="1805.15,-137.3 1815.15,-133.8 1805.15,-130.3 1805.15,-137.3"/>
</g>
<!-- TaskCopyService -->
<g id="node20" class="node">
<title>TaskCopyService</title>
<ellipse fill="#fdb462" stroke="black" cx="502" cy="-66.8" rx="79.88" ry="18"/>
<text text-anchor="middle" x="502" y="-62.6" font-family="Times,serif" font-size="14.00">TaskCopyService</text>
</g>
<!-- TaskCopyService&#45;&gt;LearnroomModule -->
<g id="edge19" class="edge">
<title>TaskCopyService&#45;&gt;LearnroomModule</title>
<path fill="none" stroke="black" d="M502,-84.83C502,-105.57 502,-136.8 502,-136.8 502,-136.8 1805.19,-136.8 1805.19,-136.8"/>
<polygon fill="black" stroke="black" points="1805.19,-140.3 1815.19,-136.8 1805.19,-133.3 1805.19,-140.3"/>
</g>
<!-- TaskRepo -->
<g id="node21" class="node">
<title>TaskRepo</title>
<ellipse fill="#fdb462" stroke="black" cx="354" cy="-66.8" rx="50.39" ry="18"/>
<text text-anchor="middle" x="354" y="-62.6" font-family="Times,serif" font-size="14.00">TaskRepo</text>
</g>
<!-- TaskRepo&#45;&gt;LearnroomModule -->
<g id="edge20" class="edge">
<title>TaskRepo&#45;&gt;LearnroomModule</title>
<path fill="none" stroke="black" d="M354,-85.09C354,-107.01 354,-140.8 354,-140.8 354,-140.8 1804.92,-140.8 1804.92,-140.8"/>
<polygon fill="black" stroke="black" points="1804.92,-144.3 1814.92,-140.8 1804.92,-137.3 1804.92,-144.3"/>
</g>
<!-- UserRepo -->
<g id="node22" class="node">
<title>UserRepo</title>
<ellipse fill="#fdb462" stroke="black" cx="236" cy="-66.8" rx="49.81" ry="18"/>
<text text-anchor="middle" x="236" y="-62.6" font-family="Times,serif" font-size="14.00">UserRepo</text>
</g>
<!-- UserRepo&#45;&gt;LearnroomModule -->
<g id="edge21" class="edge">
<title>UserRepo&#45;&gt;LearnroomModule</title>
<path fill="none" stroke="black" d="M236,-85.05C236,-107.82 236,-143.8 236,-143.8 236,-143.8 1805.2,-143.8 1805.2,-143.8"/>
<polygon fill="black" stroke="black" points="1805.2,-147.3 1815.2,-143.8 1805.2,-140.3 1805.2,-147.3"/>
</g>
</g>
</svg>
