<?xml version="1.0" encoding="UTF-8" standalone="no"?>
<!DOCTYPE svg PUBLIC "-//W3C//DTD SVG 1.1//EN"
 "http://www.w3.org/Graphics/SVG/1.1/DTD/svg11.dtd">
<!-- Generated by graphviz version 2.47.3 (20210619.1520)
 -->
<!-- Title: dependencies Pages: 1 -->
<svg width="1172pt" height="174pt"
 viewBox="0.00 0.00 1172.00 173.80" xmlns="http://www.w3.org/2000/svg" xmlns:xlink="http://www.w3.org/1999/xlink">
<g id="graph0" class="graph" transform="scale(1 1) rotate(0) translate(4 169.8)">
<title>dependencies</title>
<polygon fill="white" stroke="transparent" points="-4,4 -4,-169.8 1168,-169.8 1168,4 -4,4"/>
<text text-anchor="middle" x="582" y="-8.2" font-family="sans-serif" font-size="14.00">dependencies</text>
<g id="clust1" class="cluster">
<title>cluster_LearnroomModule</title>
<polygon fill="none" stroke="black" stroke-dasharray="1,5" points="8,-32.8 8,-157.8 1156,-157.8 1156,-32.8 8,-32.8"/>
</g>
<g id="clust6" class="cluster">
<title>cluster_LearnroomModule_providers</title>
<polygon fill="none" stroke="black" points="16,-40.8 16,-92.8 1148,-92.8 1148,-40.8 16,-40.8"/>
</g>
<!-- BoardMapper -->
<g id="node1" class="node">
<title>BoardMapper</title>
<ellipse fill="#fdb462" stroke="black" cx="1075" cy="-66.8" rx="64.83" ry="18"/>
<text text-anchor="middle" x="1075" y="-62.6" font-family="Times,serif" font-size="14.00">BoardMapper</text>
</g>
<!-- LearnroomModule -->
<g id="node9" class="node">
<title>LearnroomModule</title>
<polygon fill="#8dd3c7" stroke="black" points="597.74,-149.8 594.74,-153.8 573.74,-153.8 570.74,-149.8 476.26,-149.8 476.26,-113.8 597.74,-113.8 597.74,-149.8"/>
<text text-anchor="middle" x="537" y="-127.6" font-family="Times,serif" font-size="14.00">LearnroomModule</text>
</g>
<!-- BoardMapper&#45;&gt;LearnroomModule -->
<g id="edge1" class="edge">
<title>BoardMapper&#45;&gt;LearnroomModule</title>
<path fill="none" stroke="black" d="M1075,-85.09C1075,-107.01 1075,-140.8 1075,-140.8 1075,-140.8 607.93,-140.8 607.93,-140.8"/>
<polygon fill="black" stroke="black" points="607.93,-137.3 597.93,-140.8 607.93,-144.3 607.93,-137.3"/>
</g>
<!-- CourseRepo -->
<g id="node2" class="node">
<title>CourseRepo</title>
<ellipse fill="#fdb462" stroke="black" cx="934" cy="-66.8" rx="58.55" ry="18"/>
<text text-anchor="middle" x="934" y="-62.6" font-family="Times,serif" font-size="14.00">CourseRepo</text>
</g>
<!-- CourseRepo&#45;&gt;LearnroomModule -->
<g id="edge2" class="edge">
<title>CourseRepo&#45;&gt;LearnroomModule</title>
<path fill="none" stroke="black" d="M934,-84.91C934,-104.14 934,-131.8 934,-131.8 934,-131.8 608.16,-131.8 608.16,-131.8"/>
<polygon fill="black" stroke="black" points="608.16,-128.3 598.16,-131.8 608.16,-135.3 608.16,-128.3"/>
</g>
<!-- CourseUc -->
<g id="node3" class="node">
<title>CourseUc</title>
<ellipse fill="#fdb462" stroke="black" cx="808" cy="-66.8" rx="49.8" ry="18"/>
<text text-anchor="middle" x="808" y="-62.6" font-family="Times,serif" font-size="14.00">CourseUc</text>
</g>
<!-- CourseUc&#45;&gt;LearnroomModule -->
<g id="edge3" class="edge">
<title>CourseUc&#45;&gt;LearnroomModule</title>
<path fill="none" stroke="black" d="M808,-84.83C808,-101.2 808,-122.8 808,-122.8 808,-122.8 607.82,-122.8 607.82,-122.8"/>
<polygon fill="black" stroke="black" points="607.82,-119.3 597.82,-122.8 607.82,-126.3 607.82,-119.3"/>
</g>
<!-- DashboardModelMapper -->
<g id="node4" class="node">
<title>DashboardModelMapper</title>
<ellipse fill="#fdb462" stroke="black" cx="632" cy="-66.8" rx="108.21" ry="18"/>
<text text-anchor="middle" x="632" y="-62.6" font-family="Times,serif" font-size="14.00">DashboardModelMapper</text>
</g>
<!-- DashboardModelMapper&#45;&gt;LearnroomModule -->
<g id="edge4" class="edge">
<title>DashboardModelMapper&#45;&gt;LearnroomModule</title>
<path fill="none" stroke="black" d="M560.88,-80.58C560.88,-80.58 560.88,-103.35 560.88,-103.35"/>
<polygon fill="black" stroke="black" points="557.38,-103.35 560.88,-113.35 564.38,-103.35 557.38,-103.35"/>
</g>
<!-- DashboardUc -->
<g id="node5" class="node">
<title>DashboardUc</title>
<ellipse fill="#fdb462" stroke="black" cx="442" cy="-66.8" rx="64.25" ry="18"/>
<text text-anchor="middle" x="442" y="-62.6" font-family="Times,serif" font-size="14.00">DashboardUc</text>
</g>
<!-- DashboardUc&#45;&gt;LearnroomModule -->
<g id="edge5" class="edge">
<title>DashboardUc&#45;&gt;LearnroomModule</title>
<path fill="none" stroke="black" d="M491.13,-78.42C491.13,-78.42 491.13,-103.65 491.13,-103.65"/>
<polygon fill="black" stroke="black" points="487.63,-103.65 491.13,-113.65 494.63,-103.65 487.63,-103.65"/>
</g>
<!-- RoomsUc -->
<g id="node6" class="node">
<title>RoomsUc</title>
<ellipse fill="#fdb462" stroke="black" cx="310" cy="-66.8" rx="49.82" ry="18"/>
<text text-anchor="middle" x="310" y="-62.6" font-family="Times,serif" font-size="14.00">RoomsUc</text>
</g>
<!-- RoomsUc&#45;&gt;LearnroomModule -->
<g id="edge6" class="edge">
<title>RoomsUc&#45;&gt;LearnroomModule</title>
<path fill="none" stroke="black" d="M310,-84.83C310,-101.2 310,-122.8 310,-122.8 310,-122.8 466.17,-122.8 466.17,-122.8"/>
<polygon fill="black" stroke="black" points="466.17,-126.3 476.17,-122.8 466.17,-119.3 466.17,-126.3"/>
</g>
<!-- TaskRepo -->
<g id="node7" class="node">
<title>TaskRepo</title>
<ellipse fill="#fdb462" stroke="black" cx="192" cy="-66.8" rx="50.38" ry="18"/>
<text text-anchor="middle" x="192" y="-62.6" font-family="Times,serif" font-size="14.00">TaskRepo</text>
</g>
<!-- TaskRepo&#45;&gt;LearnroomModule -->
<g id="edge7" class="edge">
<title>TaskRepo&#45;&gt;LearnroomModule</title>
<path fill="none" stroke="black" d="M192,-84.91C192,-104.14 192,-131.8 192,-131.8 192,-131.8 466.12,-131.8 466.12,-131.8"/>
<polygon fill="black" stroke="black" points="466.12,-135.3 476.12,-131.8 466.12,-128.3 466.12,-135.3"/>
</g>
<!-- UserRepo -->
<g id="node8" class="node">
<title>UserRepo</title>
<ellipse fill="#fdb462" stroke="black" cx="74" cy="-66.8" rx="49.8" ry="18"/>
<text text-anchor="middle" x="74" y="-62.6" font-family="Times,serif" font-size="14.00">UserRepo</text>
</g>
<!-- UserRepo&#45;&gt;LearnroomModule -->
<g id="edge8" class="edge">
<title>UserRepo&#45;&gt;LearnroomModule</title>
<path fill="none" stroke="black" d="M74,-85.09C74,-107.01 74,-140.8 74,-140.8 74,-140.8 465.99,-140.8 465.99,-140.8"/>
<polygon fill="black" stroke="black" points="465.99,-144.3 475.99,-140.8 465.99,-137.3 465.99,-144.3"/>
</g>
</g>
</svg>
