<?xml version="1.0" encoding="UTF-8" standalone="no"?>
<!DOCTYPE svg PUBLIC "-//W3C//DTD SVG 1.1//EN"
 "http://www.w3.org/Graphics/SVG/1.1/DTD/svg11.dtd">
<!-- Generated by graphviz version 5.0.0 (20220707.1540)
 -->
<!-- Title: dependencies Pages: 1 -->
<svg width="4936pt" height="247pt"
 viewBox="0.00 0.00 4936.00 246.80" xmlns="http://www.w3.org/2000/svg" xmlns:xlink="http://www.w3.org/1999/xlink">
<g id="graph0" class="graph" transform="scale(1 1) rotate(0) translate(4 242.8)">
<title>dependencies</title>
<polygon fill="white" stroke="transparent" points="-4,4 -4,-242.8 4932,-242.8 4932,4 -4,4"/>
<text text-anchor="middle" x="2464" y="-8.2" font-family="sans-serif" font-size="14.00">dependencies</text>
<g id="clust1" class="cluster">
<title>cluster_LearnroomModule</title>
<polygon fill="none" stroke="black" stroke-dasharray="1,5" points="8,-32.8 8,-230.8 4920,-230.8 4920,-32.8 8,-32.8"/>
</g>
<g id="clust3" class="cluster">
<title>cluster_LearnroomModule_imports</title>
<polygon fill="none" stroke="black" points="4209,-40.8 4209,-92.8 4912,-92.8 4912,-40.8 4209,-40.8"/>
</g>
<g id="clust6" class="cluster">
<title>cluster_LearnroomModule_providers</title>
<polygon fill="none" stroke="black" points="16,-40.8 16,-92.8 4201,-92.8 4201,-40.8 16,-40.8"/>
</g>
<g id="clust4" class="cluster">
<title>cluster_LearnroomModule_exports</title>
<polygon fill="none" stroke="black" points="2473,-170.8 2473,-222.8 2740,-222.8 2740,-170.8 2473,-170.8"/>
</g>
<!-- AuthorizationModule -->
<g id="node1" class="node">
<title>AuthorizationModule</title>
<polygon fill="#8dd3c7" stroke="black" points="4903.81,-84.8 4900.81,-88.8 4879.81,-88.8 4876.81,-84.8 4766.19,-84.8 4766.19,-48.8 4903.81,-48.8 4903.81,-84.8"/>
<text text-anchor="middle" x="4835" y="-62.6" font-family="Times,serif" font-size="14.00">AuthorizationModule</text>
</g>
<!-- LearnroomModule -->
<g id="node6" class="node">
<title>LearnroomModule</title>
<polygon fill="#8dd3c7" stroke="black" points="2659.75,-149.8 2656.75,-153.8 2635.75,-153.8 2632.75,-149.8 2538.25,-149.8 2538.25,-113.8 2659.75,-113.8 2659.75,-149.8"/>
<text text-anchor="middle" x="2599" y="-127.6" font-family="Times,serif" font-size="14.00">LearnroomModule</text>
</g>
<!-- AuthorizationModule&#45;&gt;LearnroomModule -->
<g id="edge1" class="edge">
<title>AuthorizationModule&#45;&gt;LearnroomModule</title>
<path fill="none" stroke="black" d="M4835,-85.18C4835,-109.08 4835,-147.8 4835,-147.8 4835,-147.8 2669.97,-147.8 2669.97,-147.8"/>
<polygon fill="black" stroke="black" points="2669.97,-144.3 2659.97,-147.8 2669.97,-151.3 2669.97,-144.3"/>
</g>
<!-- CopyHelperModule -->
<g id="node2" class="node">
<title>CopyHelperModule</title>
<polygon fill="#8dd3c7" stroke="black" points="4747.98,-84.8 4744.98,-88.8 4723.98,-88.8 4720.98,-84.8 4620.02,-84.8 4620.02,-48.8 4747.98,-48.8 4747.98,-84.8"/>
<text text-anchor="middle" x="4684" y="-62.6" font-family="Times,serif" font-size="14.00">CopyHelperModule</text>
</g>
<!-- CopyHelperModule&#45;&gt;LearnroomModule -->
<g id="edge2" class="edge">
<title>CopyHelperModule&#45;&gt;LearnroomModule</title>
<path fill="none" stroke="black" d="M4684,-85.12C4684,-108.46 4684,-145.8 4684,-145.8 4684,-145.8 2669.99,-145.8 2669.99,-145.8"/>
<polygon fill="black" stroke="black" points="2669.99,-142.3 2659.99,-145.8 2669.99,-149.3 2669.99,-142.3"/>
</g>
<!-- FilesStorageClientModule -->
<g id="node3" class="node">
<title>FilesStorageClientModule</title>
<polygon fill="#8dd3c7" stroke="black" points="4601.77,-84.8 4598.77,-88.8 4577.77,-88.8 4574.77,-84.8 4438.23,-84.8 4438.23,-48.8 4601.77,-48.8 4601.77,-84.8"/>
<text text-anchor="middle" x="4520" y="-62.6" font-family="Times,serif" font-size="14.00">FilesStorageClientModule</text>
</g>
<!-- FilesStorageClientModule&#45;&gt;LearnroomModule -->
<g id="edge3" class="edge">
<title>FilesStorageClientModule&#45;&gt;LearnroomModule</title>
<path fill="none" stroke="black" d="M4520,-84.81C4520,-107.29 4520,-142.8 4520,-142.8 4520,-142.8 2669.93,-142.8 2669.93,-142.8"/>
<polygon fill="black" stroke="black" points="2669.93,-139.3 2659.93,-142.8 2669.93,-146.3 2669.93,-139.3"/>
</g>
<!-- LessonModule -->
<g id="node4" class="node">
<title>LessonModule</title>
<polygon fill="#8dd3c7" stroke="black" points="4420.71,-84.8 4417.71,-88.8 4396.71,-88.8 4393.71,-84.8 4321.29,-84.8 4321.29,-48.8 4420.71,-48.8 4420.71,-84.8"/>
<text text-anchor="middle" x="4371" y="-62.6" font-family="Times,serif" font-size="14.00">LessonModule</text>
</g>
<!-- LessonModule&#45;&gt;LearnroomModule -->
<g id="edge4" class="edge">
<title>LessonModule&#45;&gt;LearnroomModule</title>
<path fill="none" stroke="black" d="M4371,-85.09C4371,-107.01 4371,-140.8 4371,-140.8 4371,-140.8 2670,-140.8 2670,-140.8"/>
<polygon fill="black" stroke="black" points="2670,-137.3 2660,-140.8 2670,-144.3 2670,-137.3"/>
</g>
<!-- TaskModule -->
<g id="node5" class="node">
<title>TaskModule</title>
<polygon fill="#8dd3c7" stroke="black" points="4303.27,-84.8 4300.27,-88.8 4279.27,-88.8 4276.27,-84.8 4216.73,-84.8 4216.73,-48.8 4303.27,-48.8 4303.27,-84.8"/>
<text text-anchor="middle" x="4260" y="-62.6" font-family="Times,serif" font-size="14.00">TaskModule</text>
</g>
<!-- TaskModule&#45;&gt;LearnroomModule -->
<g id="edge5" class="edge">
<title>TaskModule&#45;&gt;LearnroomModule</title>
<path fill="none" stroke="black" d="M4274.46,-85.08C4274.46,-106.12 4274.46,-137.8 4274.46,-137.8 4274.46,-137.8 2670.12,-137.8 2670.12,-137.8"/>
<polygon fill="black" stroke="black" points="2670.12,-134.3 2660.12,-137.8 2670.12,-141.3 2670.12,-134.3"/>
</g>
<!-- TaskModule&#45;&gt;LearnroomModule -->
<g id="edge6" class="edge">
<title>TaskModule&#45;&gt;LearnroomModule</title>
<path fill="none" stroke="black" d="M4245.54,-84.93C4245.54,-105.37 4245.54,-135.8 4245.54,-135.8 4245.54,-135.8 2670.05,-135.8 2670.05,-135.8"/>
<polygon fill="black" stroke="black" points="2670.05,-132.3 2660.05,-135.8 2670.05,-139.3 2670.05,-132.3"/>
</g>
<!-- CourseCopyService  -->
<g id="node7" class="node">
<title>CourseCopyService </title>
<polygon fill="#fb8072" stroke="black" points="2731.98,-214.8 2600.02,-214.8 2600.02,-178.8 2731.98,-178.8 2731.98,-214.8"/>
<text text-anchor="middle" x="2666" y="-192.6" font-family="Times,serif" font-size="14.00">CourseCopyService </text>
</g>
<!-- LearnroomModule&#45;&gt;CourseCopyService  -->
<g id="edge7" class="edge">
<title>LearnroomModule&#45;&gt;CourseCopyService </title>
<path fill="none" stroke="black" stroke-dasharray="5,2" d="M2630.07,-149.91C2630.07,-149.91 2630.07,-168.79 2630.07,-168.79"/>
<polygon fill="black" stroke="black" points="2626.57,-168.79 2630.07,-178.79 2633.57,-168.79 2626.57,-168.79"/>
</g>
<!-- CourseService  -->
<g id="node8" class="node">
<title>CourseService </title>
<polygon fill="#fb8072" stroke="black" points="2582.64,-214.8 2481.36,-214.8 2481.36,-178.8 2582.64,-178.8 2582.64,-214.8"/>
<text text-anchor="middle" x="2532" y="-192.6" font-family="Times,serif" font-size="14.00">CourseService </text>
</g>
<!-- LearnroomModule&#45;&gt;CourseService  -->
<g id="edge8" class="edge">
<title>LearnroomModule&#45;&gt;CourseService </title>
<path fill="none" stroke="black" stroke-dasharray="5,2" d="M2560.35,-149.91C2560.35,-149.91 2560.35,-168.79 2560.35,-168.79"/>
<polygon fill="black" stroke="black" points="2556.85,-168.79 2560.35,-178.79 2563.85,-168.79 2556.85,-168.79"/>
</g>
<!-- AuthorisationUtils -->
<g id="node9" class="node">
<title>AuthorisationUtils</title>
<ellipse fill="#fdb462" stroke="black" cx="4110" cy="-66.8" rx="82.85" ry="18"/>
<text text-anchor="middle" x="4110" y="-62.6" font-family="Times,serif" font-size="14.00">AuthorisationUtils</text>
</g>
<!-- AuthorisationUtils&#45;&gt;LearnroomModule -->
<g id="edge9" class="edge">
<title>AuthorisationUtils&#45;&gt;LearnroomModule</title>
<path fill="none" stroke="black" d="M4110,-85.11C4110,-104.95 4110,-133.8 4110,-133.8 4110,-133.8 2670.1,-133.8 2670.1,-133.8"/>
<polygon fill="black" stroke="black" points="2670.1,-130.3 2660.1,-133.8 2670.1,-137.3 2670.1,-130.3"/>
</g>
<!-- BoardCopyService -->
<g id="node10" class="node">
<title>BoardCopyService</title>
<ellipse fill="#fdb462" stroke="black" cx="3925" cy="-66.8" rx="84.54" ry="18"/>
<text text-anchor="middle" x="3925" y="-62.6" font-family="Times,serif" font-size="14.00">BoardCopyService</text>
</g>
<!-- BoardCopyService&#45;&gt;LearnroomModule -->
<g id="edge10" class="edge">
<title>BoardCopyService&#45;&gt;LearnroomModule</title>
<path fill="none" stroke="black" d="M3925,-84.97C3925,-103.89 3925,-130.8 3925,-130.8 3925,-130.8 2669.86,-130.8 2669.86,-130.8"/>
<polygon fill="black" stroke="black" points="2669.86,-127.3 2659.86,-130.8 2669.86,-134.3 2669.86,-127.3"/>
</g>
<!-- BoardRepo -->
<g id="node11" class="node">
<title>BoardRepo</title>
<ellipse fill="#fdb462" stroke="black" cx="3767" cy="-66.8" rx="55.04" ry="18"/>
<text text-anchor="middle" x="3767" y="-62.6" font-family="Times,serif" font-size="14.00">BoardRepo</text>
</g>
<!-- BoardRepo&#45;&gt;LearnroomModule -->
<g id="edge11" class="edge">
<title>BoardRepo&#45;&gt;LearnroomModule</title>
<path fill="none" stroke="black" d="M3767,-85.07C3767,-103.36 3767,-128.8 3767,-128.8 3767,-128.8 2670.15,-128.8 2670.15,-128.8"/>
<polygon fill="black" stroke="black" points="2670.15,-125.3 2660.15,-128.8 2670.15,-132.3 2670.15,-125.3"/>
</g>
<!-- CommonCartridgeExportService -->
<g id="node12" class="node">
<title>CommonCartridgeExportService</title>
<ellipse fill="#fdb462" stroke="black" cx="3555" cy="-66.8" rx="138.89" ry="18"/>
<text text-anchor="middle" x="3555" y="-62.6" font-family="Times,serif" font-size="14.00">CommonCartridgeExportService</text>
</g>
<!-- CommonCartridgeExportService&#45;&gt;LearnroomModule -->
<g id="edge12" class="edge">
<title>CommonCartridgeExportService&#45;&gt;LearnroomModule</title>
<path fill="none" stroke="black" d="M3555,-84.82C3555,-102.17 3555,-125.8 3555,-125.8 3555,-125.8 2669.89,-125.8 2669.89,-125.8"/>
<polygon fill="black" stroke="black" points="2669.89,-122.3 2659.89,-125.8 2669.89,-129.3 2669.89,-122.3"/>
</g>
<!-- CourseCopyService -->
<g id="node13" class="node">
<title>CourseCopyService</title>
<ellipse fill="#fdb462" stroke="black" cx="3310" cy="-66.8" rx="88.06" ry="18"/>
<text text-anchor="middle" x="3310" y="-62.6" font-family="Times,serif" font-size="14.00">CourseCopyService</text>
</g>
<!-- CourseCopyService&#45;&gt;LearnroomModule -->
<g id="edge13" class="edge">
<title>CourseCopyService&#45;&gt;LearnroomModule</title>
<path fill="none" stroke="black" d="M3310,-84.84C3310,-101.53 3310,-123.8 3310,-123.8 3310,-123.8 2669.93,-123.8 2669.93,-123.8"/>
<polygon fill="black" stroke="black" points="2669.93,-120.3 2659.93,-123.8 2669.93,-127.3 2669.93,-120.3"/>
</g>
<!-- CourseCopyUC -->
<g id="node14" class="node">
<title>CourseCopyUC</title>
<ellipse fill="#fdb462" stroke="black" cx="3131" cy="-66.8" rx="72.97" ry="18"/>
<text text-anchor="middle" x="3131" y="-62.6" font-family="Times,serif" font-size="14.00">CourseCopyUC</text>
</g>
<!-- CourseCopyUC&#45;&gt;LearnroomModule -->
<g id="edge14" class="edge">
<title>CourseCopyUC&#45;&gt;LearnroomModule</title>
<path fill="none" stroke="black" d="M3131,-84.81C3131,-100.85 3131,-121.8 3131,-121.8 3131,-121.8 2669.77,-121.8 2669.77,-121.8"/>
<polygon fill="black" stroke="black" points="2669.77,-118.3 2659.77,-121.8 2669.77,-125.3 2669.77,-118.3"/>
</g>
<!-- CourseExportUc -->
<g id="node15" class="node">
<title>CourseExportUc</title>
<ellipse fill="#fdb462" stroke="black" cx="2964" cy="-66.8" rx="75.88" ry="18"/>
<text text-anchor="middle" x="2964" y="-62.6" font-family="Times,serif" font-size="14.00">CourseExportUc</text>
</g>
<!-- CourseExportUc&#45;&gt;LearnroomModule -->
<g id="edge15" class="edge">
<title>CourseExportUc&#45;&gt;LearnroomModule</title>
<path fill="none" stroke="black" d="M2964,-84.99C2964,-99.98 2964,-118.8 2964,-118.8 2964,-118.8 2670.09,-118.8 2670.09,-118.8"/>
<polygon fill="black" stroke="black" points="2670.09,-115.3 2660.09,-118.8 2670.09,-122.3 2670.09,-115.3"/>
</g>
<!-- CourseRepo -->
<g id="node16" class="node">
<title>CourseRepo</title>
<ellipse fill="#fdb462" stroke="black" cx="2811" cy="-66.8" rx="58.56" ry="18"/>
<text text-anchor="middle" x="2811" y="-62.6" font-family="Times,serif" font-size="14.00">CourseRepo</text>
</g>
<!-- CourseRepo&#45;&gt;LearnroomModule -->
<g id="edge16" class="edge">
<title>CourseRepo&#45;&gt;LearnroomModule</title>
<path fill="none" stroke="black" d="M2811,-84.85C2811,-99.17 2811,-116.8 2811,-116.8 2811,-116.8 2669.75,-116.8 2669.75,-116.8"/>
<polygon fill="black" stroke="black" points="2669.75,-113.3 2659.75,-116.8 2669.75,-120.3 2669.75,-113.3"/>
</g>
<!-- CourseService -->
<g id="node17" class="node">
<title>CourseService</title>
<ellipse fill="#fdb462" stroke="black" cx="2667" cy="-66.8" rx="67.2" ry="18"/>
<text text-anchor="middle" x="2667" y="-62.6" font-family="Times,serif" font-size="14.00">CourseService</text>
</g>
<!-- CourseService&#45;&gt;LearnroomModule -->
<g id="edge17" class="edge">
<title>CourseService&#45;&gt;LearnroomModule</title>
<path fill="none" stroke="black" d="M2629.76,-81.88C2629.76,-81.88 2629.76,-103.56 2629.76,-103.56"/>
<polygon fill="black" stroke="black" points="2626.26,-103.56 2629.76,-113.56 2633.26,-103.56 2626.26,-103.56"/>
</g>
<!-- CourseUc -->
<g id="node18" class="node">
<title>CourseUc</title>
<ellipse fill="#fdb462" stroke="black" cx="2532" cy="-66.8" rx="49.81" ry="18"/>
<text text-anchor="middle" x="2532" y="-62.6" font-family="Times,serif" font-size="14.00">CourseUc</text>
</g>
<!-- CourseUc&#45;&gt;LearnroomModule -->
<g id="edge18" class="edge">
<title>CourseUc&#45;&gt;LearnroomModule</title>
<path fill="none" stroke="black" d="M2559.89,-81.88C2559.89,-81.88 2559.89,-103.56 2559.89,-103.56"/>
<polygon fill="black" stroke="black" points="2556.39,-103.56 2559.89,-113.56 2563.39,-103.56 2556.39,-103.56"/>
</g>
<!-- DashboardModelMapper -->
<g id="node19" class="node">
<title>DashboardModelMapper</title>
<ellipse fill="#fdb462" stroke="black" cx="2356" cy="-66.8" rx="108.23" ry="18"/>
<text text-anchor="middle" x="2356" y="-62.6" font-family="Times,serif" font-size="14.00">DashboardModelMapper</text>
</g>
<!-- DashboardModelMapper&#45;&gt;LearnroomModule -->
<g id="edge19" class="edge">
<title>DashboardModelMapper&#45;&gt;LearnroomModule</title>
<path fill="none" stroke="black" d="M2356,-84.85C2356,-99.17 2356,-116.8 2356,-116.8 2356,-116.8 2527.99,-116.8 2527.99,-116.8"/>
<polygon fill="black" stroke="black" points="2527.99,-120.3 2537.99,-116.8 2527.99,-113.3 2527.99,-120.3"/>
</g>
<!-- DashboardUc -->
<g id="node20" class="node">
<title>DashboardUc</title>
<ellipse fill="#fdb462" stroke="black" cx="2166" cy="-66.8" rx="64.26" ry="18"/>
<text text-anchor="middle" x="2166" y="-62.6" font-family="Times,serif" font-size="14.00">DashboardUc</text>
</g>
<!-- DashboardUc&#45;&gt;LearnroomModule -->
<g id="edge20" class="edge">
<title>DashboardUc&#45;&gt;LearnroomModule</title>
<path fill="none" stroke="black" d="M2166,-84.99C2166,-99.98 2166,-118.8 2166,-118.8 2166,-118.8 2527.88,-118.8 2527.88,-118.8"/>
<polygon fill="black" stroke="black" points="2527.88,-122.3 2537.88,-118.8 2527.88,-115.3 2527.88,-122.3"/>
</g>
<!-- FeathersServiceProvider -->
<g id="node21" class="node">
<title>FeathersServiceProvider</title>
<ellipse fill="#fdb462" stroke="black" cx="1978" cy="-66.8" rx="105.93" ry="18"/>
<text text-anchor="middle" x="1978" y="-62.6" font-family="Times,serif" font-size="14.00">FeathersServiceProvider</text>
</g>
<!-- FeathersServiceProvider&#45;&gt;LearnroomModule -->
<g id="edge21" class="edge">
<title>FeathersServiceProvider&#45;&gt;LearnroomModule</title>
<path fill="none" stroke="black" d="M1978,-84.81C1978,-100.85 1978,-121.8 1978,-121.8 1978,-121.8 2528.04,-121.8 2528.04,-121.8"/>
<polygon fill="black" stroke="black" points="2528.04,-125.3 2538.04,-121.8 2528.04,-118.3 2528.04,-125.3"/>
</g>
<!-- FileLegacyService -->
<g id="node22" class="node">
<title>FileLegacyService</title>
<ellipse fill="#fdb462" stroke="black" cx="1771" cy="-66.8" rx="83.36" ry="18"/>
<text text-anchor="middle" x="1771" y="-62.6" font-family="Times,serif" font-size="14.00">FileLegacyService</text>
</g>
<!-- FileLegacyService&#45;&gt;LearnroomModule -->
<g id="edge22" class="edge">
<title>FileLegacyService&#45;&gt;LearnroomModule</title>
<path fill="none" stroke="black" d="M1771,-84.84C1771,-101.53 1771,-123.8 1771,-123.8 1771,-123.8 2528.12,-123.8 2528.12,-123.8"/>
<polygon fill="black" stroke="black" points="2528.12,-127.3 2538.12,-123.8 2528.12,-120.3 2528.12,-127.3"/>
</g>
<!-- LessonCopyUC -->
<g id="node23" class="node">
<title>LessonCopyUC</title>
<ellipse fill="#fdb462" stroke="black" cx="1597" cy="-66.8" rx="72.97" ry="18"/>
<text text-anchor="middle" x="1597" y="-62.6" font-family="Times,serif" font-size="14.00">LessonCopyUC</text>
</g>
<!-- LessonCopyUC&#45;&gt;LearnroomModule -->
<g id="edge23" class="edge">
<title>LessonCopyUC&#45;&gt;LearnroomModule</title>
<path fill="none" stroke="black" d="M1597,-84.82C1597,-102.17 1597,-125.8 1597,-125.8 1597,-125.8 2528.2,-125.8 2528.2,-125.8"/>
<polygon fill="black" stroke="black" points="2528.2,-129.3 2538.2,-125.8 2528.2,-122.3 2528.2,-129.3"/>
</g>
<!-- LessonRepo -->
<g id="node24" class="node">
<title>LessonRepo</title>
<ellipse fill="#fdb462" stroke="black" cx="1447" cy="-66.8" rx="58.56" ry="18"/>
<text text-anchor="middle" x="1447" y="-62.6" font-family="Times,serif" font-size="14.00">LessonRepo</text>
</g>
<!-- LessonRepo&#45;&gt;LearnroomModule -->
<g id="edge24" class="edge">
<title>LessonRepo&#45;&gt;LearnroomModule</title>
<path fill="none" stroke="black" d="M1447,-85.07C1447,-103.36 1447,-128.8 1447,-128.8 1447,-128.8 2527.88,-128.8 2527.88,-128.8"/>
<polygon fill="black" stroke="black" points="2527.88,-132.3 2537.88,-128.8 2527.88,-125.3 2527.88,-132.3"/>
</g>
<!-- Logger -->
<g id="node25" class="node">
<title>Logger</title>
<ellipse fill="#fdb462" stroke="black" cx="1331" cy="-66.8" rx="38.85" ry="18"/>
<text text-anchor="middle" x="1331" y="-62.6" font-family="Times,serif" font-size="14.00">Logger</text>
</g>
<!-- Logger&#45;&gt;LearnroomModule -->
<g id="edge25" class="edge">
<title>Logger&#45;&gt;LearnroomModule</title>
<path fill="none" stroke="black" d="M1331,-84.97C1331,-103.89 1331,-130.8 1331,-130.8 1331,-130.8 2527.84,-130.8 2527.84,-130.8"/>
<polygon fill="black" stroke="black" points="2527.84,-134.3 2537.84,-130.8 2527.84,-127.3 2527.84,-134.3"/>
</g>
<!-- RoomBoardDTOFactory -->
<g id="node26" class="node">
<title>RoomBoardDTOFactory</title>
<ellipse fill="#fdb462" stroke="black" cx="1166" cy="-66.8" rx="107.68" ry="18"/>
<text text-anchor="middle" x="1166" y="-62.6" font-family="Times,serif" font-size="14.00">RoomBoardDTOFactory</text>
</g>
<!-- RoomBoardDTOFactory&#45;&gt;LearnroomModule -->
<g id="edge26" class="edge">
<title>RoomBoardDTOFactory&#45;&gt;LearnroomModule</title>
<path fill="none" stroke="black" d="M1166,-85.11C1166,-104.95 1166,-133.8 1166,-133.8 1166,-133.8 2527.88,-133.8 2527.88,-133.8"/>
<polygon fill="black" stroke="black" points="2527.88,-137.3 2537.88,-133.8 2527.88,-130.3 2527.88,-137.3"/>
</g>
<!-- RoomBoardResponseMapper -->
<g id="node27" class="node">
<title>RoomBoardResponseMapper</title>
<ellipse fill="#fdb462" stroke="black" cx="915" cy="-66.8" rx="125.09" ry="18"/>
<text text-anchor="middle" x="915" y="-62.6" font-family="Times,serif" font-size="14.00">RoomBoardResponseMapper</text>
</g>
<!-- RoomBoardResponseMapper&#45;&gt;LearnroomModule -->
<g id="edge27" class="edge">
<title>RoomBoardResponseMapper&#45;&gt;LearnroomModule</title>
<path fill="none" stroke="black" d="M915,-84.93C915,-105.37 915,-135.8 915,-135.8 915,-135.8 2528.07,-135.8 2528.07,-135.8"/>
<polygon fill="black" stroke="black" points="2528.07,-139.3 2538.07,-135.8 2528.07,-132.3 2528.07,-139.3"/>
</g>
<!-- RoomsAuthorisationService -->
<g id="node28" class="node">
<title>RoomsAuthorisationService</title>
<ellipse fill="#fdb462" stroke="black" cx="651" cy="-66.8" rx="120.44" ry="18"/>
<text text-anchor="middle" x="651" y="-62.6" font-family="Times,serif" font-size="14.00">RoomsAuthorisationService</text>
</g>
<!-- RoomsAuthorisationService&#45;&gt;LearnroomModule -->
<g id="edge28" class="edge">
<title>RoomsAuthorisationService&#45;&gt;LearnroomModule</title>
<path fill="none" stroke="black" d="M651,-85.08C651,-106.12 651,-137.8 651,-137.8 651,-137.8 2528.02,-137.8 2528.02,-137.8"/>
<polygon fill="black" stroke="black" points="2528.02,-141.3 2538.02,-137.8 2528.02,-134.3 2528.02,-141.3"/>
</g>
<!-- RoomsService -->
<g id="node29" class="node">
<title>RoomsService</title>
<ellipse fill="#fdb462" stroke="black" cx="445" cy="-66.8" rx="67.22" ry="18"/>
<text text-anchor="middle" x="445" y="-62.6" font-family="Times,serif" font-size="14.00">RoomsService</text>
</g>
<!-- RoomsService&#45;&gt;LearnroomModule -->
<g id="edge29" class="edge">
<title>RoomsService&#45;&gt;LearnroomModule</title>
<path fill="none" stroke="black" d="M445,-85.09C445,-107.01 445,-140.8 445,-140.8 445,-140.8 2528,-140.8 2528,-140.8"/>
<polygon fill="black" stroke="black" points="2528,-144.3 2538,-140.8 2528,-137.3 2528,-144.3"/>
</g>
<!-- RoomsUc -->
<g id="node30" class="node">
<title>RoomsUc</title>
<ellipse fill="#fdb462" stroke="black" cx="310" cy="-66.8" rx="49.83" ry="18"/>
<text text-anchor="middle" x="310" y="-62.6" font-family="Times,serif" font-size="14.00">RoomsUc</text>
</g>
<!-- RoomsUc&#45;&gt;LearnroomModule -->
<g id="edge30" class="edge">
<title>RoomsUc&#45;&gt;LearnroomModule</title>
<path fill="none" stroke="black" d="M310,-84.81C310,-107.29 310,-142.8 310,-142.8 310,-142.8 2528.07,-142.8 2528.07,-142.8"/>
<polygon fill="black" stroke="black" points="2528.07,-146.3 2538.07,-142.8 2528.07,-139.3 2528.07,-146.3"/>
</g>
<!-- TaskRepo -->
<g id="node31" class="node">
<title>TaskRepo</title>
<ellipse fill="#fdb462" stroke="black" cx="192" cy="-66.8" rx="50.39" ry="18"/>
<text text-anchor="middle" x="192" y="-62.6" font-family="Times,serif" font-size="14.00">TaskRepo</text>
</g>
<!-- TaskRepo&#45;&gt;LearnroomModule -->
<g id="edge31" class="edge">
<title>TaskRepo&#45;&gt;LearnroomModule</title>
<path fill="none" stroke="black" d="M192,-85.12C192,-108.46 192,-145.8 192,-145.8 192,-145.8 2527.99,-145.8 2527.99,-145.8"/>
<polygon fill="black" stroke="black" points="2527.99,-149.3 2537.99,-145.8 2527.99,-142.3 2527.99,-149.3"/>
</g>
<!-- UserRepo -->
<g id="node32" class="node">
<title>UserRepo</title>
<ellipse fill="#fdb462" stroke="black" cx="74" cy="-66.8" rx="49.81" ry="18"/>
<text text-anchor="middle" x="74" y="-62.6" font-family="Times,serif" font-size="14.00">UserRepo</text>
</g>
<!-- UserRepo&#45;&gt;LearnroomModule -->
<g id="edge32" class="edge">
<title>UserRepo&#45;&gt;LearnroomModule</title>
<path fill="none" stroke="black" d="M74,-85.18C74,-109.08 74,-147.8 74,-147.8 74,-147.8 2528.15,-147.8 2528.15,-147.8"/>
<polygon fill="black" stroke="black" points="2528.15,-151.3 2538.15,-147.8 2528.15,-144.3 2528.15,-151.3"/>
</g>
</g>
</svg>
