<?xml version="1.0" encoding="UTF-8" standalone="no"?>
<!DOCTYPE svg PUBLIC "-//W3C//DTD SVG 1.1//EN"
 "http://www.w3.org/Graphics/SVG/1.1/DTD/svg11.dtd">
<!-- Generated by graphviz version 5.0.0 (20220707.1540)
 -->
<!-- Title: dependencies Pages: 1 -->
<svg width="4904pt" height="174pt"
 viewBox="0.00 0.00 4904.00 173.80" xmlns="http://www.w3.org/2000/svg" xmlns:xlink="http://www.w3.org/1999/xlink">
<g id="graph0" class="graph" transform="scale(1 1) rotate(0) translate(4 169.8)">
<title>dependencies</title>
<polygon fill="white" stroke="transparent" points="-4,4 -4,-169.8 4900,-169.8 4900,4 -4,4"/>
<text text-anchor="middle" x="2448" y="-8.2" font-family="sans-serif" font-size="14.00">dependencies</text>
<g id="clust1" class="cluster">
<title>cluster_LearnroomModule</title>
<polygon fill="none" stroke="black" stroke-dasharray="1,5" points="8,-32.8 8,-157.8 4888,-157.8 4888,-32.8 8,-32.8"/>
</g>
<g id="clust6" class="cluster">
<title>cluster_LearnroomModule_providers</title>
<polygon fill="none" stroke="black" points="360,-40.8 360,-92.8 4880,-92.8 4880,-40.8 360,-40.8"/>
</g>
<g id="clust3" class="cluster">
<title>cluster_LearnroomModule_imports</title>
<polygon fill="none" stroke="black" points="16,-40.8 16,-92.8 352,-92.8 352,-40.8 16,-40.8"/>
</g>
<!-- AuthorizationModule -->
<g id="node1" class="node">
<title>AuthorizationModule</title>
<polygon fill="#8dd3c7" stroke="black" points="343.81,-84.8 340.81,-88.8 319.81,-88.8 316.81,-84.8 206.19,-84.8 206.19,-48.8 343.81,-48.8 343.81,-84.8"/>
<text text-anchor="middle" x="275" y="-62.6" font-family="Times,serif" font-size="14.00">AuthorizationModule</text>
</g>
<!-- LearnroomModule -->
<g id="node3" class="node">
<title>LearnroomModule</title>
<polygon fill="#8dd3c7" stroke="black" points="2441.75,-149.8 2438.75,-153.8 2417.75,-153.8 2414.75,-149.8 2320.25,-149.8 2320.25,-113.8 2441.75,-113.8 2441.75,-149.8"/>
<text text-anchor="middle" x="2381" y="-127.6" font-family="Times,serif" font-size="14.00">LearnroomModule</text>
</g>
<!-- AuthorizationModule&#45;&gt;LearnroomModule -->
<g id="edge1" class="edge">
<title>AuthorizationModule&#45;&gt;LearnroomModule</title>
<path fill="none" stroke="black" d="M275,-84.89C275,-107.93 275,-144.8 275,-144.8 275,-144.8 2310.24,-144.8 2310.24,-144.8"/>
<polygon fill="black" stroke="black" points="2310.24,-148.3 2320.24,-144.8 2310.24,-141.3 2310.24,-148.3"/>
</g>
<!-- FilesStorageClientModule -->
<g id="node2" class="node">
<title>FilesStorageClientModule</title>
<polygon fill="#8dd3c7" stroke="black" points="187.77,-84.8 184.77,-88.8 163.77,-88.8 160.77,-84.8 24.23,-84.8 24.23,-48.8 187.77,-48.8 187.77,-84.8"/>
<text text-anchor="middle" x="106" y="-62.6" font-family="Times,serif" font-size="14.00">FilesStorageClientModule</text>
</g>
<!-- FilesStorageClientModule&#45;&gt;LearnroomModule -->
<g id="edge2" class="edge">
<title>FilesStorageClientModule&#45;&gt;LearnroomModule</title>
<path fill="none" stroke="black" d="M106,-85.18C106,-109.08 106,-147.8 106,-147.8 106,-147.8 2310.15,-147.8 2310.15,-147.8"/>
<polygon fill="black" stroke="black" points="2310.15,-151.3 2320.15,-147.8 2310.15,-144.3 2310.15,-151.3"/>
</g>
<!-- BoardCopyService -->
<g id="node4" class="node">
<title>BoardCopyService</title>
<ellipse fill="#fdb462" stroke="black" cx="4787" cy="-66.8" rx="84.54" ry="18"/>
<text text-anchor="middle" x="4787" y="-62.6" font-family="Times,serif" font-size="14.00">BoardCopyService</text>
</g>
<!-- BoardCopyService&#45;&gt;LearnroomModule -->
<g id="edge3" class="edge">
<title>BoardCopyService&#45;&gt;LearnroomModule</title>
<path fill="none" stroke="black" d="M4787,-85.18C4787,-109.08 4787,-147.8 4787,-147.8 4787,-147.8 2451.98,-147.8 2451.98,-147.8"/>
<polygon fill="black" stroke="black" points="2451.98,-144.3 2441.98,-147.8 2451.98,-151.3 2451.98,-144.3"/>
</g>
<!-- BoardRepo -->
<g id="node5" class="node">
<title>BoardRepo</title>
<ellipse fill="#fdb462" stroke="black" cx="4629" cy="-66.8" rx="55.04" ry="18"/>
<text text-anchor="middle" x="4629" y="-62.6" font-family="Times,serif" font-size="14.00">BoardRepo</text>
</g>
<!-- BoardRepo&#45;&gt;LearnroomModule -->
<g id="edge4" class="edge">
<title>BoardRepo&#45;&gt;LearnroomModule</title>
<path fill="none" stroke="black" d="M4629,-84.89C4629,-107.93 4629,-144.8 4629,-144.8 4629,-144.8 2452,-144.8 2452,-144.8"/>
<polygon fill="black" stroke="black" points="2452,-141.3 2442,-144.8 2452,-148.3 2452,-141.3"/>
</g>
<!-- CopyHelperService -->
<g id="node6" class="node">
<title>CopyHelperService</title>
<ellipse fill="#fdb462" stroke="black" cx="4469" cy="-66.8" rx="87.39" ry="18"/>
<text text-anchor="middle" x="4469" y="-62.6" font-family="Times,serif" font-size="14.00">CopyHelperService</text>
</g>
<!-- CopyHelperService&#45;&gt;LearnroomModule -->
<g id="edge5" class="edge">
<title>CopyHelperService&#45;&gt;LearnroomModule</title>
<path fill="none" stroke="black" d="M4469,-84.81C4469,-107.29 4469,-142.8 4469,-142.8 4469,-142.8 2451.8,-142.8 2451.8,-142.8"/>
<polygon fill="black" stroke="black" points="2451.8,-139.3 2441.8,-142.8 2451.8,-146.3 2451.8,-139.3"/>
</g>
<!-- CourseCopyService -->
<g id="node7" class="node">
<title>CourseCopyService</title>
<ellipse fill="#fdb462" stroke="black" cx="4276" cy="-66.8" rx="88.06" ry="18"/>
<text text-anchor="middle" x="4276" y="-62.6" font-family="Times,serif" font-size="14.00">CourseCopyService</text>
</g>
<!-- CourseCopyService&#45;&gt;LearnroomModule -->
<g id="edge6" class="edge">
<title>CourseCopyService&#45;&gt;LearnroomModule</title>
<path fill="none" stroke="black" d="M4276,-84.84C4276,-106.46 4276,-139.8 4276,-139.8 4276,-139.8 2451.9,-139.8 2451.9,-139.8"/>
<polygon fill="black" stroke="black" points="2451.9,-136.3 2441.9,-139.8 2451.9,-143.3 2451.9,-136.3"/>
</g>
<!-- CourseCopyUC -->
<g id="node8" class="node">
<title>CourseCopyUC</title>
<ellipse fill="#fdb462" stroke="black" cx="4097" cy="-66.8" rx="72.97" ry="18"/>
<text text-anchor="middle" x="4097" y="-62.6" font-family="Times,serif" font-size="14.00">CourseCopyUC</text>
</g>
<!-- CourseCopyUC&#45;&gt;LearnroomModule -->
<g id="edge7" class="edge">
<title>CourseCopyUC&#45;&gt;LearnroomModule</title>
<path fill="none" stroke="black" d="M4097,-85.08C4097,-106.12 4097,-137.8 4097,-137.8 4097,-137.8 2451.82,-137.8 2451.82,-137.8"/>
<polygon fill="black" stroke="black" points="2451.82,-134.3 2441.82,-137.8 2451.82,-141.3 2451.82,-134.3"/>
</g>
<!-- CourseRepo -->
<g id="node9" class="node">
<title>CourseRepo</title>
<ellipse fill="#fdb462" stroke="black" cx="3947" cy="-66.8" rx="58.56" ry="18"/>
<text text-anchor="middle" x="3947" y="-62.6" font-family="Times,serif" font-size="14.00">CourseRepo</text>
</g>
<!-- CourseRepo&#45;&gt;LearnroomModule -->
<g id="edge8" class="edge">
<title>CourseRepo&#45;&gt;LearnroomModule</title>
<path fill="none" stroke="black" d="M3947,-85.02C3947,-105.17 3947,-134.8 3947,-134.8 3947,-134.8 2451.91,-134.8 2451.91,-134.8"/>
<polygon fill="black" stroke="black" points="2451.91,-131.3 2441.91,-134.8 2451.91,-138.3 2451.91,-131.3"/>
</g>
<!-- CourseUc -->
<g id="node10" class="node">
<title>CourseUc</title>
<ellipse fill="#fdb462" stroke="black" cx="3821" cy="-66.8" rx="49.81" ry="18"/>
<text text-anchor="middle" x="3821" y="-62.6" font-family="Times,serif" font-size="14.00">CourseUc</text>
</g>
<!-- CourseUc&#45;&gt;LearnroomModule -->
<g id="edge9" class="edge">
<title>CourseUc&#45;&gt;LearnroomModule</title>
<path fill="none" stroke="black" d="M3821,-84.91C3821,-104.14 3821,-131.8 3821,-131.8 3821,-131.8 2451.96,-131.8 2451.96,-131.8"/>
<polygon fill="black" stroke="black" points="2451.96,-128.3 2441.96,-131.8 2451.96,-135.3 2451.96,-128.3"/>
</g>
<!-- DashboardModelMapper -->
<g id="node11" class="node">
<title>DashboardModelMapper</title>
<ellipse fill="#fdb462" stroke="black" cx="3645" cy="-66.8" rx="108.23" ry="18"/>
<text text-anchor="middle" x="3645" y="-62.6" font-family="Times,serif" font-size="14.00">DashboardModelMapper</text>
</g>
<!-- DashboardModelMapper&#45;&gt;LearnroomModule -->
<g id="edge10" class="edge">
<title>DashboardModelMapper&#45;&gt;LearnroomModule</title>
<path fill="none" stroke="black" d="M3645,-85.02C3645,-103.63 3645,-129.8 3645,-129.8 3645,-129.8 2451.97,-129.8 2451.97,-129.8"/>
<polygon fill="black" stroke="black" points="2451.97,-126.3 2441.97,-129.8 2451.97,-133.3 2451.97,-126.3"/>
</g>
<!-- DashboardUc -->
<g id="node12" class="node">
<title>DashboardUc</title>
<ellipse fill="#fdb462" stroke="black" cx="3455" cy="-66.8" rx="64.26" ry="18"/>
<text text-anchor="middle" x="3455" y="-62.6" font-family="Times,serif" font-size="14.00">DashboardUc</text>
</g>
<!-- DashboardUc&#45;&gt;LearnroomModule -->
<g id="edge11" class="edge">
<title>DashboardUc&#45;&gt;LearnroomModule</title>
<path fill="none" stroke="black" d="M3455,-84.8C3455,-102.48 3455,-126.8 3455,-126.8 3455,-126.8 2451.82,-126.8 2451.82,-126.8"/>
<polygon fill="black" stroke="black" points="2451.82,-123.3 2441.82,-126.8 2451.82,-130.3 2451.82,-123.3"/>
</g>
<!-- EtherpadService -->
<g id="node13" class="node">
<title>EtherpadService</title>
<ellipse fill="#fdb462" stroke="black" cx="3298" cy="-66.8" rx="74.7" ry="18"/>
<text text-anchor="middle" x="3298" y="-62.6" font-family="Times,serif" font-size="14.00">EtherpadService</text>
</g>
<!-- EtherpadService&#45;&gt;LearnroomModule -->
<g id="edge12" class="edge">
<title>EtherpadService&#45;&gt;LearnroomModule</title>
<path fill="none" stroke="black" d="M3298,-84.83C3298,-101.86 3298,-124.8 3298,-124.8 3298,-124.8 2451.88,-124.8 2451.88,-124.8"/>
<polygon fill="black" stroke="black" points="2451.88,-121.3 2441.88,-124.8 2451.88,-128.3 2451.88,-121.3"/>
</g>
<!-- FeathersServiceProvider -->
<g id="node14" class="node">
<title>FeathersServiceProvider</title>
<ellipse fill="#fdb462" stroke="black" cx="3099" cy="-66.8" rx="105.93" ry="18"/>
<text text-anchor="middle" x="3099" y="-62.6" font-family="Times,serif" font-size="14.00">FeathersServiceProvider</text>
</g>
<!-- FeathersServiceProvider&#45;&gt;LearnroomModule -->
<g id="edge13" class="edge">
<title>FeathersServiceProvider&#45;&gt;LearnroomModule</title>
<path fill="none" stroke="black" d="M3099,-84.81C3099,-100.85 3099,-121.8 3099,-121.8 3099,-121.8 2451.91,-121.8 2451.91,-121.8"/>
<polygon fill="black" stroke="black" points="2451.91,-118.3 2441.91,-121.8 2451.91,-125.3 2451.91,-118.3"/>
</g>
<!-- FileCopyAppendService -->
<g id="node15" class="node">
<title>FileCopyAppendService</title>
<ellipse fill="#fdb462" stroke="black" cx="2869" cy="-66.8" rx="106.53" ry="18"/>
<text text-anchor="middle" x="2869" y="-62.6" font-family="Times,serif" font-size="14.00">FileCopyAppendService</text>
</g>
<!-- FileCopyAppendService&#45;&gt;LearnroomModule -->
<g id="edge14" class="edge">
<title>FileCopyAppendService&#45;&gt;LearnroomModule</title>
<path fill="none" stroke="black" d="M2869,-85.04C2869,-100.37 2869,-119.8 2869,-119.8 2869,-119.8 2451.82,-119.8 2451.82,-119.8"/>
<polygon fill="black" stroke="black" points="2451.82,-116.3 2441.82,-119.8 2451.82,-123.3 2451.82,-116.3"/>
</g>
<!-- FileLegacyService -->
<g id="node16" class="node">
<title>FileLegacyService</title>
<ellipse fill="#fdb462" stroke="black" cx="2661" cy="-66.8" rx="83.36" ry="18"/>
<text text-anchor="middle" x="2661" y="-62.6" font-family="Times,serif" font-size="14.00">FileLegacyService</text>
</g>
<!-- FileLegacyService&#45;&gt;LearnroomModule -->
<g id="edge15" class="edge">
<title>FileLegacyService&#45;&gt;LearnroomModule</title>
<path fill="none" stroke="black" d="M2661,-84.85C2661,-99.17 2661,-116.8 2661,-116.8 2661,-116.8 2451.76,-116.8 2451.76,-116.8"/>
<polygon fill="black" stroke="black" points="2451.76,-113.3 2441.76,-116.8 2451.76,-120.3 2451.76,-113.3"/>
</g>
<!-- LessonCopyService -->
<g id="node17" class="node">
<title>LessonCopyService</title>
<ellipse fill="#fdb462" stroke="black" cx="2471" cy="-66.8" rx="88.06" ry="18"/>
<text text-anchor="middle" x="2471" y="-62.6" font-family="Times,serif" font-size="14.00">LessonCopyService</text>
</g>
<!-- LessonCopyService&#45;&gt;LearnroomModule -->
<g id="edge16" class="edge">
<title>LessonCopyService&#45;&gt;LearnroomModule</title>
<path fill="none" stroke="black" d="M2412.3,-80.27C2412.3,-80.27 2412.3,-103.66 2412.3,-103.66"/>
<polygon fill="black" stroke="black" points="2408.8,-103.66 2412.3,-113.66 2415.8,-103.66 2408.8,-103.66"/>
</g>
<!-- LessonCopyUC -->
<g id="node18" class="node">
<title>LessonCopyUC</title>
<ellipse fill="#fdb462" stroke="black" cx="2292" cy="-66.8" rx="72.97" ry="18"/>
<text text-anchor="middle" x="2292" y="-62.6" font-family="Times,serif" font-size="14.00">LessonCopyUC</text>
</g>
<!-- LessonCopyUC&#45;&gt;LearnroomModule -->
<g id="edge17" class="edge">
<title>LessonCopyUC&#45;&gt;LearnroomModule</title>
<path fill="none" stroke="black" d="M2342.43,-79.95C2342.43,-79.95 2342.43,-103.49 2342.43,-103.49"/>
<polygon fill="black" stroke="black" points="2338.93,-103.49 2342.43,-113.49 2345.93,-103.49 2338.93,-103.49"/>
</g>
<!-- LessonRepo -->
<g id="node19" class="node">
<title>LessonRepo</title>
<ellipse fill="#fdb462" stroke="black" cx="2142" cy="-66.8" rx="58.56" ry="18"/>
<text text-anchor="middle" x="2142" y="-62.6" font-family="Times,serif" font-size="14.00">LessonRepo</text>
</g>
<!-- LessonRepo&#45;&gt;LearnroomModule -->
<g id="edge18" class="edge">
<title>LessonRepo&#45;&gt;LearnroomModule</title>
<path fill="none" stroke="black" d="M2142,-84.85C2142,-99.17 2142,-116.8 2142,-116.8 2142,-116.8 2310.07,-116.8 2310.07,-116.8"/>
<polygon fill="black" stroke="black" points="2310.07,-120.3 2320.07,-116.8 2310.07,-113.3 2310.07,-120.3"/>
</g>
<!-- Logger -->
<g id="node20" class="node">
<title>Logger</title>
<ellipse fill="#fdb462" stroke="black" cx="2026" cy="-66.8" rx="38.85" ry="18"/>
<text text-anchor="middle" x="2026" y="-62.6" font-family="Times,serif" font-size="14.00">Logger</text>
</g>
<!-- Logger&#45;&gt;LearnroomModule -->
<g id="edge19" class="edge">
<title>Logger&#45;&gt;LearnroomModule</title>
<path fill="none" stroke="black" d="M2026,-85.04C2026,-100.37 2026,-119.8 2026,-119.8 2026,-119.8 2309.97,-119.8 2309.97,-119.8"/>
<polygon fill="black" stroke="black" points="2309.97,-123.3 2319.97,-119.8 2309.97,-116.3 2309.97,-123.3"/>
</g>
<!-- NexboardService -->
<g id="node21" class="node">
<title>NexboardService</title>
<ellipse fill="#fdb462" stroke="black" cx="1891" cy="-66.8" rx="78.14" ry="18"/>
<text text-anchor="middle" x="1891" y="-62.6" font-family="Times,serif" font-size="14.00">NexboardService</text>
</g>
<!-- NexboardService&#45;&gt;LearnroomModule -->
<g id="edge20" class="edge">
<title>NexboardService&#45;&gt;LearnroomModule</title>
<path fill="none" stroke="black" d="M1891,-84.81C1891,-100.85 1891,-121.8 1891,-121.8 1891,-121.8 2309.93,-121.8 2309.93,-121.8"/>
<polygon fill="black" stroke="black" points="2309.93,-125.3 2319.93,-121.8 2309.93,-118.3 2309.93,-125.3"/>
</g>
<!-- RoomBoardDTOFactory -->
<g id="node22" class="node">
<title>RoomBoardDTOFactory</title>
<ellipse fill="#fdb462" stroke="black" cx="1687" cy="-66.8" rx="107.68" ry="18"/>
<text text-anchor="middle" x="1687" y="-62.6" font-family="Times,serif" font-size="14.00">RoomBoardDTOFactory</text>
</g>
<!-- RoomBoardDTOFactory&#45;&gt;LearnroomModule -->
<g id="edge21" class="edge">
<title>RoomBoardDTOFactory&#45;&gt;LearnroomModule</title>
<path fill="none" stroke="black" d="M1687,-84.83C1687,-101.86 1687,-124.8 1687,-124.8 1687,-124.8 2310.02,-124.8 2310.02,-124.8"/>
<polygon fill="black" stroke="black" points="2310.02,-128.3 2320.02,-124.8 2310.02,-121.3 2310.02,-128.3"/>
</g>
<!-- RoomBoardResponseMapper -->
<g id="node23" class="node">
<title>RoomBoardResponseMapper</title>
<ellipse fill="#fdb462" stroke="black" cx="1436" cy="-66.8" rx="125.09" ry="18"/>
<text text-anchor="middle" x="1436" y="-62.6" font-family="Times,serif" font-size="14.00">RoomBoardResponseMapper</text>
</g>
<!-- RoomBoardResponseMapper&#45;&gt;LearnroomModule -->
<g id="edge22" class="edge">
<title>RoomBoardResponseMapper&#45;&gt;LearnroomModule</title>
<path fill="none" stroke="black" d="M1436,-84.8C1436,-102.48 1436,-126.8 1436,-126.8 1436,-126.8 2310.09,-126.8 2310.09,-126.8"/>
<polygon fill="black" stroke="black" points="2310.09,-130.3 2320.09,-126.8 2310.09,-123.3 2310.09,-130.3"/>
</g>
<!-- RoomsAuthorisationService -->
<g id="node24" class="node">
<title>RoomsAuthorisationService</title>
<ellipse fill="#fdb462" stroke="black" cx="1172" cy="-66.8" rx="120.44" ry="18"/>
<text text-anchor="middle" x="1172" y="-62.6" font-family="Times,serif" font-size="14.00">RoomsAuthorisationService</text>
</g>
<!-- RoomsAuthorisationService&#45;&gt;LearnroomModule -->
<g id="edge23" class="edge">
<title>RoomsAuthorisationService&#45;&gt;LearnroomModule</title>
<path fill="none" stroke="black" d="M1172,-85.02C1172,-103.63 1172,-129.8 1172,-129.8 1172,-129.8 2310.22,-129.8 2310.22,-129.8"/>
<polygon fill="black" stroke="black" points="2310.22,-133.3 2320.22,-129.8 2310.22,-126.3 2310.22,-133.3"/>
</g>
<!-- RoomsService -->
<g id="node25" class="node">
<title>RoomsService</title>
<ellipse fill="#fdb462" stroke="black" cx="966" cy="-66.8" rx="67.22" ry="18"/>
<text text-anchor="middle" x="966" y="-62.6" font-family="Times,serif" font-size="14.00">RoomsService</text>
</g>
<!-- RoomsService&#45;&gt;LearnroomModule -->
<g id="edge24" class="edge">
<title>RoomsService&#45;&gt;LearnroomModule</title>
<path fill="none" stroke="black" d="M966,-84.91C966,-104.14 966,-131.8 966,-131.8 966,-131.8 2310.2,-131.8 2310.2,-131.8"/>
<polygon fill="black" stroke="black" points="2310.2,-135.3 2320.2,-131.8 2310.2,-128.3 2310.2,-135.3"/>
</g>
<!-- RoomsUc -->
<g id="node26" class="node">
<title>RoomsUc</title>
<ellipse fill="#fdb462" stroke="black" cx="831" cy="-66.8" rx="49.83" ry="18"/>
<text text-anchor="middle" x="831" y="-62.6" font-family="Times,serif" font-size="14.00">RoomsUc</text>
</g>
<!-- RoomsUc&#45;&gt;LearnroomModule -->
<g id="edge25" class="edge">
<title>RoomsUc&#45;&gt;LearnroomModule</title>
<path fill="none" stroke="black" d="M831,-85.02C831,-105.17 831,-134.8 831,-134.8 831,-134.8 2310.24,-134.8 2310.24,-134.8"/>
<polygon fill="black" stroke="black" points="2310.24,-138.3 2320.24,-134.8 2310.24,-131.3 2310.24,-138.3"/>
</g>
<!-- TaskCopyService -->
<g id="node27" class="node">
<title>TaskCopyService</title>
<ellipse fill="#fdb462" stroke="black" cx="684" cy="-66.8" rx="79.88" ry="18"/>
<text text-anchor="middle" x="684" y="-62.6" font-family="Times,serif" font-size="14.00">TaskCopyService</text>
</g>
<!-- TaskCopyService&#45;&gt;LearnroomModule -->
<g id="edge26" class="edge">
<title>TaskCopyService&#45;&gt;LearnroomModule</title>
<path fill="none" stroke="black" d="M684,-85.08C684,-106.12 684,-137.8 684,-137.8 684,-137.8 2310.1,-137.8 2310.1,-137.8"/>
<polygon fill="black" stroke="black" points="2310.1,-141.3 2320.1,-137.8 2310.1,-134.3 2310.1,-141.3"/>
</g>
<!-- TaskRepo -->
<g id="node28" class="node">
<title>TaskRepo</title>
<ellipse fill="#fdb462" stroke="black" cx="536" cy="-66.8" rx="50.39" ry="18"/>
<text text-anchor="middle" x="536" y="-62.6" font-family="Times,serif" font-size="14.00">TaskRepo</text>
</g>
<!-- TaskRepo&#45;&gt;LearnroomModule -->
<g id="edge27" class="edge">
<title>TaskRepo&#45;&gt;LearnroomModule</title>
<path fill="none" stroke="black" d="M536,-84.84C536,-106.46 536,-139.8 536,-139.8 536,-139.8 2310.14,-139.8 2310.14,-139.8"/>
<polygon fill="black" stroke="black" points="2310.14,-143.3 2320.14,-139.8 2310.14,-136.3 2310.14,-143.3"/>
</g>
<!-- UserRepo -->
<g id="node29" class="node">
<title>UserRepo</title>
<ellipse fill="#fdb462" stroke="black" cx="418" cy="-66.8" rx="49.81" ry="18"/>
<text text-anchor="middle" x="418" y="-62.6" font-family="Times,serif" font-size="14.00">UserRepo</text>
</g>
<!-- UserRepo&#45;&gt;LearnroomModule -->
<g id="edge28" class="edge">
<title>UserRepo&#45;&gt;LearnroomModule</title>
<path fill="none" stroke="black" d="M418,-84.81C418,-107.29 418,-142.8 418,-142.8 418,-142.8 2310.1,-142.8 2310.1,-142.8"/>
<polygon fill="black" stroke="black" points="2310.1,-146.3 2320.1,-142.8 2310.1,-139.3 2310.1,-146.3"/>
</g>
</g>
</svg>
