<?xml version="1.0" encoding="UTF-8" standalone="no"?>
<!DOCTYPE svg PUBLIC "-//W3C//DTD SVG 1.1//EN"
 "http://www.w3.org/Graphics/SVG/1.1/DTD/svg11.dtd">
<!-- Generated by graphviz version 5.0.0 (20220707.1540)
 -->
<!-- Title: dependencies Pages: 1 -->
<svg width="4919pt" height="247pt"
 viewBox="0.00 0.00 4919.00 246.80" xmlns="http://www.w3.org/2000/svg" xmlns:xlink="http://www.w3.org/1999/xlink">
<g id="graph0" class="graph" transform="scale(1 1) rotate(0) translate(4 242.8)">
<title>dependencies</title>
<polygon fill="white" stroke="transparent" points="-4,4 -4,-242.8 4915,-242.8 4915,4 -4,4"/>
<text text-anchor="middle" x="2455.5" y="-8.2" font-family="sans-serif" font-size="14.00">dependencies</text>
<g id="clust1" class="cluster">
<title>cluster_LearnroomModule</title>
<polygon fill="none" stroke="black" stroke-dasharray="1,5" points="8,-32.8 8,-230.8 4903,-230.8 4903,-32.8 8,-32.8"/>
</g>
<g id="clust3" class="cluster">
<title>cluster_LearnroomModule_imports</title>
<polygon fill="none" stroke="black" points="4192,-40.8 4192,-92.8 4895,-92.8 4895,-40.8 4192,-40.8"/>
</g>
<g id="clust4" class="cluster">
<title>cluster_LearnroomModule_exports</title>
<polygon fill="none" stroke="black" points="2477,-170.8 2477,-222.8 2754,-222.8 2754,-170.8 2477,-170.8"/>
</g>
<g id="clust6" class="cluster">
<title>cluster_LearnroomModule_providers</title>
<polygon fill="none" stroke="black" points="16,-40.8 16,-92.8 4184,-92.8 4184,-40.8 16,-40.8"/>
</g>
<!-- AuthorizationModule -->
<g id="node1" class="node">
<title>AuthorizationModule</title>
<polygon fill="#8dd3c7" stroke="black" points="4886.81,-84.8 4883.81,-88.8 4862.81,-88.8 4859.81,-84.8 4749.19,-84.8 4749.19,-48.8 4886.81,-48.8 4886.81,-84.8"/>
<text text-anchor="middle" x="4818" y="-62.6" font-family="Times,serif" font-size="14.00">AuthorizationModule</text>
</g>
<!-- LearnroomModule -->
<g id="node6" class="node">
<title>LearnroomModule</title>
<polygon fill="#8dd3c7" stroke="black" points="2670.75,-149.8 2667.75,-153.8 2646.75,-153.8 2643.75,-149.8 2549.25,-149.8 2549.25,-113.8 2670.75,-113.8 2670.75,-149.8"/>
<text text-anchor="middle" x="2610" y="-127.6" font-family="Times,serif" font-size="14.00">LearnroomModule</text>
</g>
<!-- AuthorizationModule&#45;&gt;LearnroomModule -->
<g id="edge1" class="edge">
<title>AuthorizationModule&#45;&gt;LearnroomModule</title>
<path fill="none" stroke="black" d="M4818,-85.18C4818,-109.08 4818,-147.8 4818,-147.8 4818,-147.8 2680.78,-147.8 2680.78,-147.8"/>
<polygon fill="black" stroke="black" points="2680.78,-144.3 2670.78,-147.8 2680.78,-151.3 2680.78,-144.3"/>
</g>
<!-- CopyHelperModule -->
<g id="node2" class="node">
<title>CopyHelperModule</title>
<polygon fill="#8dd3c7" stroke="black" points="4730.98,-84.8 4727.98,-88.8 4706.98,-88.8 4703.98,-84.8 4603.02,-84.8 4603.02,-48.8 4730.98,-48.8 4730.98,-84.8"/>
<text text-anchor="middle" x="4667" y="-62.6" font-family="Times,serif" font-size="14.00">CopyHelperModule</text>
</g>
<!-- CopyHelperModule&#45;&gt;LearnroomModule -->
<g id="edge2" class="edge">
<title>CopyHelperModule&#45;&gt;LearnroomModule</title>
<path fill="none" stroke="black" d="M4667,-85.12C4667,-108.46 4667,-145.8 4667,-145.8 4667,-145.8 2681,-145.8 2681,-145.8"/>
<polygon fill="black" stroke="black" points="2681,-142.3 2671,-145.8 2681,-149.3 2681,-142.3"/>
</g>
<!-- FilesStorageClientModule -->
<g id="node3" class="node">
<title>FilesStorageClientModule</title>
<polygon fill="#8dd3c7" stroke="black" points="4584.77,-84.8 4581.77,-88.8 4560.77,-88.8 4557.77,-84.8 4421.23,-84.8 4421.23,-48.8 4584.77,-48.8 4584.77,-84.8"/>
<text text-anchor="middle" x="4503" y="-62.6" font-family="Times,serif" font-size="14.00">FilesStorageClientModule</text>
</g>
<!-- FilesStorageClientModule&#45;&gt;LearnroomModule -->
<g id="edge3" class="edge">
<title>FilesStorageClientModule&#45;&gt;LearnroomModule</title>
<path fill="none" stroke="black" d="M4503,-84.81C4503,-107.29 4503,-142.8 4503,-142.8 4503,-142.8 2680.84,-142.8 2680.84,-142.8"/>
<polygon fill="black" stroke="black" points="2680.84,-139.3 2670.84,-142.8 2680.84,-146.3 2680.84,-139.3"/>
</g>
<!-- LessonModule -->
<g id="node4" class="node">
<title>LessonModule</title>
<polygon fill="#8dd3c7" stroke="black" points="4403.71,-84.8 4400.71,-88.8 4379.71,-88.8 4376.71,-84.8 4304.29,-84.8 4304.29,-48.8 4403.71,-48.8 4403.71,-84.8"/>
<text text-anchor="middle" x="4354" y="-62.6" font-family="Times,serif" font-size="14.00">LessonModule</text>
</g>
<!-- LessonModule&#45;&gt;LearnroomModule -->
<g id="edge4" class="edge">
<title>LessonModule&#45;&gt;LearnroomModule</title>
<path fill="none" stroke="black" d="M4354,-85.09C4354,-107.01 4354,-140.8 4354,-140.8 4354,-140.8 2680.79,-140.8 2680.79,-140.8"/>
<polygon fill="black" stroke="black" points="2680.79,-137.3 2670.79,-140.8 2680.79,-144.3 2680.79,-137.3"/>
</g>
<!-- TaskModule -->
<g id="node5" class="node">
<title>TaskModule</title>
<polygon fill="#8dd3c7" stroke="black" points="4286.27,-84.8 4283.27,-88.8 4262.27,-88.8 4259.27,-84.8 4199.73,-84.8 4199.73,-48.8 4286.27,-48.8 4286.27,-84.8"/>
<text text-anchor="middle" x="4243" y="-62.6" font-family="Times,serif" font-size="14.00">TaskModule</text>
</g>
<!-- TaskModule&#45;&gt;LearnroomModule -->
<g id="edge5" class="edge">
<title>TaskModule&#45;&gt;LearnroomModule</title>
<path fill="none" stroke="black" d="M4257.46,-85.08C4257.46,-106.12 4257.46,-137.8 4257.46,-137.8 4257.46,-137.8 2681.08,-137.8 2681.08,-137.8"/>
<polygon fill="black" stroke="black" points="2681.08,-134.3 2671.08,-137.8 2681.08,-141.3 2681.08,-134.3"/>
</g>
<!-- TaskModule&#45;&gt;LearnroomModule -->
<g id="edge6" class="edge">
<title>TaskModule&#45;&gt;LearnroomModule</title>
<path fill="none" stroke="black" d="M4228.54,-84.93C4228.54,-105.37 4228.54,-135.8 4228.54,-135.8 4228.54,-135.8 2680.98,-135.8 2680.98,-135.8"/>
<polygon fill="black" stroke="black" points="2680.98,-132.3 2670.98,-135.8 2680.98,-139.3 2680.98,-132.3"/>
</g>
<!-- CourseCopyService  -->
<g id="node7" class="node">
<title>CourseCopyService </title>
<polygon fill="#fb8072" stroke="black" points="2745.98,-214.8 2614.02,-214.8 2614.02,-178.8 2745.98,-178.8 2745.98,-214.8"/>
<text text-anchor="middle" x="2680" y="-192.6" font-family="Times,serif" font-size="14.00">CourseCopyService </text>
</g>
<!-- LearnroomModule&#45;&gt;CourseCopyService  -->
<g id="edge7" class="edge">
<title>LearnroomModule&#45;&gt;CourseCopyService </title>
<path fill="none" stroke="black" stroke-dasharray="5,2" d="M2642.57,-149.91C2642.57,-149.91 2642.57,-168.79 2642.57,-168.79"/>
<polygon fill="black" stroke="black" points="2639.07,-168.79 2642.57,-178.79 2646.07,-168.79 2639.07,-168.79"/>
</g>
<!-- MetadataLoader  -->
<g id="node8" class="node">
<title>MetadataLoader </title>
<polygon fill="#fb8072" stroke="black" points="2596.72,-214.8 2485.28,-214.8 2485.28,-178.8 2596.72,-178.8 2596.72,-214.8"/>
<text text-anchor="middle" x="2541" y="-192.6" font-family="Times,serif" font-size="14.00">MetadataLoader </text>
</g>
<!-- LearnroomModule&#45;&gt;MetadataLoader  -->
<g id="edge8" class="edge">
<title>LearnroomModule&#45;&gt;MetadataLoader </title>
<path fill="none" stroke="black" stroke-dasharray="5,2" d="M2572.87,-149.91C2572.87,-149.91 2572.87,-168.79 2572.87,-168.79"/>
<polygon fill="black" stroke="black" points="2569.37,-168.79 2572.87,-178.79 2576.37,-168.79 2569.37,-168.79"/>
</g>
<!-- BoardCopyService -->
<g id="node9" class="node">
<title>BoardCopyService</title>
<ellipse fill="#fdb462" stroke="black" cx="4091" cy="-66.8" rx="84.54" ry="18"/>
<text text-anchor="middle" x="4091" y="-62.6" font-family="Times,serif" font-size="14.00">BoardCopyService</text>
</g>
<!-- BoardCopyService&#45;&gt;LearnroomModule -->
<g id="edge9" class="edge">
<title>BoardCopyService&#45;&gt;LearnroomModule</title>
<path fill="none" stroke="black" d="M4091,-85.11C4091,-104.95 4091,-133.8 4091,-133.8 4091,-133.8 2680.82,-133.8 2680.82,-133.8"/>
<polygon fill="black" stroke="black" points="2680.82,-130.3 2670.82,-133.8 2680.82,-137.3 2680.82,-130.3"/>
</g>
<!-- BoardRepo -->
<g id="node10" class="node">
<title>BoardRepo</title>
<ellipse fill="#fdb462" stroke="black" cx="3933" cy="-66.8" rx="55.04" ry="18"/>
<text text-anchor="middle" x="3933" y="-62.6" font-family="Times,serif" font-size="14.00">BoardRepo</text>
</g>
<!-- BoardRepo&#45;&gt;LearnroomModule -->
<g id="edge10" class="edge">
<title>BoardRepo&#45;&gt;LearnroomModule</title>
<path fill="none" stroke="black" d="M3933,-84.97C3933,-103.89 3933,-130.8 3933,-130.8 3933,-130.8 2681.16,-130.8 2681.16,-130.8"/>
<polygon fill="black" stroke="black" points="2681.16,-127.3 2671.16,-130.8 2681.16,-134.3 2681.16,-127.3"/>
</g>
<!-- CommonCartridgeExportService -->
<g id="node11" class="node">
<title>CommonCartridgeExportService</title>
<ellipse fill="#fdb462" stroke="black" cx="3721" cy="-66.8" rx="138.89" ry="18"/>
<text text-anchor="middle" x="3721" y="-62.6" font-family="Times,serif" font-size="14.00">CommonCartridgeExportService</text>
</g>
<!-- CommonCartridgeExportService&#45;&gt;LearnroomModule -->
<g id="edge11" class="edge">
<title>CommonCartridgeExportService&#45;&gt;LearnroomModule</title>
<path fill="none" stroke="black" d="M3721,-85.07C3721,-103.36 3721,-128.8 3721,-128.8 3721,-128.8 2680.92,-128.8 2680.92,-128.8"/>
<polygon fill="black" stroke="black" points="2680.92,-125.3 2670.92,-128.8 2680.92,-132.3 2680.92,-125.3"/>
</g>
<!-- CourseCopyService -->
<g id="node12" class="node">
<title>CourseCopyService</title>
<ellipse fill="#fdb462" stroke="black" cx="3476" cy="-66.8" rx="88.06" ry="18"/>
<text text-anchor="middle" x="3476" y="-62.6" font-family="Times,serif" font-size="14.00">CourseCopyService</text>
</g>
<!-- CourseCopyService&#45;&gt;LearnroomModule -->
<g id="edge12" class="edge">
<title>CourseCopyService&#45;&gt;LearnroomModule</title>
<path fill="none" stroke="black" d="M3476,-84.82C3476,-102.17 3476,-125.8 3476,-125.8 3476,-125.8 2680.9,-125.8 2680.9,-125.8"/>
<polygon fill="black" stroke="black" points="2680.9,-122.3 2670.9,-125.8 2680.9,-129.3 2680.9,-122.3"/>
</g>
<!-- CourseCopyUC -->
<g id="node13" class="node">
<title>CourseCopyUC</title>
<ellipse fill="#fdb462" stroke="black" cx="3297" cy="-66.8" rx="72.97" ry="18"/>
<text text-anchor="middle" x="3297" y="-62.6" font-family="Times,serif" font-size="14.00">CourseCopyUC</text>
</g>
<!-- CourseCopyUC&#45;&gt;LearnroomModule -->
<g id="edge13" class="edge">
<title>CourseCopyUC&#45;&gt;LearnroomModule</title>
<path fill="none" stroke="black" d="M3297,-84.84C3297,-101.53 3297,-123.8 3297,-123.8 3297,-123.8 2680.97,-123.8 2680.97,-123.8"/>
<polygon fill="black" stroke="black" points="2680.97,-120.3 2670.97,-123.8 2680.97,-127.3 2680.97,-120.3"/>
</g>
<!-- CourseExportUc -->
<g id="node14" class="node">
<title>CourseExportUc</title>
<ellipse fill="#fdb462" stroke="black" cx="3130" cy="-66.8" rx="75.88" ry="18"/>
<text text-anchor="middle" x="3130" y="-62.6" font-family="Times,serif" font-size="14.00">CourseExportUc</text>
</g>
<!-- CourseExportUc&#45;&gt;LearnroomModule -->
<g id="edge14" class="edge">
<title>CourseExportUc&#45;&gt;LearnroomModule</title>
<path fill="none" stroke="black" d="M3130,-84.81C3130,-100.85 3130,-121.8 3130,-121.8 3130,-121.8 2680.92,-121.8 2680.92,-121.8"/>
<polygon fill="black" stroke="black" points="2680.92,-118.3 2670.92,-121.8 2680.92,-125.3 2680.92,-118.3"/>
</g>
<!-- CourseRepo -->
<g id="node15" class="node">
<title>CourseRepo</title>
<ellipse fill="#fdb462" stroke="black" cx="2977" cy="-66.8" rx="58.56" ry="18"/>
<text text-anchor="middle" x="2977" y="-62.6" font-family="Times,serif" font-size="14.00">CourseRepo</text>
</g>
<!-- CourseRepo&#45;&gt;LearnroomModule -->
<g id="edge15" class="edge">
<title>CourseRepo&#45;&gt;LearnroomModule</title>
<path fill="none" stroke="black" d="M2977,-84.99C2977,-99.98 2977,-118.8 2977,-118.8 2977,-118.8 2681.01,-118.8 2681.01,-118.8"/>
<polygon fill="black" stroke="black" points="2681.01,-115.3 2671.01,-118.8 2681.01,-122.3 2681.01,-115.3"/>
</g>
<!-- CourseService -->
<g id="node16" class="node">
<title>CourseService</title>
<ellipse fill="#fdb462" stroke="black" cx="2833" cy="-66.8" rx="67.2" ry="18"/>
<text text-anchor="middle" x="2833" y="-62.6" font-family="Times,serif" font-size="14.00">CourseService</text>
</g>
<!-- CourseService&#45;&gt;LearnroomModule -->
<g id="edge16" class="edge">
<title>CourseService&#45;&gt;LearnroomModule</title>
<path fill="none" stroke="black" d="M2833,-84.85C2833,-99.17 2833,-116.8 2833,-116.8 2833,-116.8 2680.94,-116.8 2680.94,-116.8"/>
<polygon fill="black" stroke="black" points="2680.94,-113.3 2670.94,-116.8 2680.94,-120.3 2680.94,-113.3"/>
</g>
<!-- CourseUc -->
<g id="node17" class="node">
<title>CourseUc</title>
<ellipse fill="#fdb462" stroke="black" cx="2698" cy="-66.8" rx="49.81" ry="18"/>
<text text-anchor="middle" x="2698" y="-62.6" font-family="Times,serif" font-size="14.00">CourseUc</text>
</g>
<!-- CourseUc&#45;&gt;LearnroomModule -->
<g id="edge17" class="edge">
<title>CourseUc&#45;&gt;LearnroomModule</title>
<path fill="none" stroke="black" d="M2659.61,-78.42C2659.61,-78.42 2659.61,-103.65 2659.61,-103.65"/>
<polygon fill="black" stroke="black" points="2656.11,-103.65 2659.61,-113.65 2663.11,-103.65 2656.11,-103.65"/>
</g>
<!-- DashboardModelMapper -->
<g id="node18" class="node">
<title>DashboardModelMapper</title>
<ellipse fill="#fdb462" stroke="black" cx="2522" cy="-66.8" rx="108.23" ry="18"/>
<text text-anchor="middle" x="2522" y="-62.6" font-family="Times,serif" font-size="14.00">DashboardModelMapper</text>
</g>
<!-- DashboardModelMapper&#45;&gt;LearnroomModule -->
<g id="edge18" class="edge">
<title>DashboardModelMapper&#45;&gt;LearnroomModule</title>
<path fill="none" stroke="black" d="M2589.62,-80.9C2589.62,-80.9 2589.62,-103.52 2589.62,-103.52"/>
<polygon fill="black" stroke="black" points="2586.12,-103.52 2589.62,-113.52 2593.12,-103.52 2586.12,-103.52"/>
</g>
<!-- DashboardUc -->
<g id="node19" class="node">
<title>DashboardUc</title>
<ellipse fill="#fdb462" stroke="black" cx="2332" cy="-66.8" rx="64.26" ry="18"/>
<text text-anchor="middle" x="2332" y="-62.6" font-family="Times,serif" font-size="14.00">DashboardUc</text>
</g>
<!-- DashboardUc&#45;&gt;LearnroomModule -->
<g id="edge19" class="edge">
<title>DashboardUc&#45;&gt;LearnroomModule</title>
<path fill="none" stroke="black" d="M2332,-84.85C2332,-99.17 2332,-116.8 2332,-116.8 2332,-116.8 2538.99,-116.8 2538.99,-116.8"/>
<polygon fill="black" stroke="black" points="2538.99,-120.3 2548.99,-116.8 2538.99,-113.3 2538.99,-120.3"/>
</g>
<!-- FeathersServiceProvider -->
<g id="node20" class="node">
<title>FeathersServiceProvider</title>
<ellipse fill="#fdb462" stroke="black" cx="2144" cy="-66.8" rx="105.93" ry="18"/>
<text text-anchor="middle" x="2144" y="-62.6" font-family="Times,serif" font-size="14.00">FeathersServiceProvider</text>
</g>
<!-- FeathersServiceProvider&#45;&gt;LearnroomModule -->
<g id="edge20" class="edge">
<title>FeathersServiceProvider&#45;&gt;LearnroomModule</title>
<path fill="none" stroke="black" d="M2144,-84.99C2144,-99.98 2144,-118.8 2144,-118.8 2144,-118.8 2539.08,-118.8 2539.08,-118.8"/>
<polygon fill="black" stroke="black" points="2539.08,-122.3 2549.08,-118.8 2539.08,-115.3 2539.08,-122.3"/>
</g>
<!-- FileLegacyService -->
<g id="node21" class="node">
<title>FileLegacyService</title>
<ellipse fill="#fdb462" stroke="black" cx="1937" cy="-66.8" rx="83.36" ry="18"/>
<text text-anchor="middle" x="1937" y="-62.6" font-family="Times,serif" font-size="14.00">FileLegacyService</text>
</g>
<!-- FileLegacyService&#45;&gt;LearnroomModule -->
<g id="edge21" class="edge">
<title>FileLegacyService&#45;&gt;LearnroomModule</title>
<path fill="none" stroke="black" d="M1937,-84.81C1937,-100.85 1937,-121.8 1937,-121.8 1937,-121.8 2539.09,-121.8 2539.09,-121.8"/>
<polygon fill="black" stroke="black" points="2539.09,-125.3 2549.09,-121.8 2539.09,-118.3 2539.09,-125.3"/>
</g>
<!-- LessonCopyUC -->
<g id="node22" class="node">
<title>LessonCopyUC</title>
<ellipse fill="#fdb462" stroke="black" cx="1763" cy="-66.8" rx="72.97" ry="18"/>
<text text-anchor="middle" x="1763" y="-62.6" font-family="Times,serif" font-size="14.00">LessonCopyUC</text>
</g>
<!-- LessonCopyUC&#45;&gt;LearnroomModule -->
<g id="edge22" class="edge">
<title>LessonCopyUC&#45;&gt;LearnroomModule</title>
<path fill="none" stroke="black" d="M1763,-84.84C1763,-101.53 1763,-123.8 1763,-123.8 1763,-123.8 2539.09,-123.8 2539.09,-123.8"/>
<polygon fill="black" stroke="black" points="2539.09,-127.3 2549.09,-123.8 2539.09,-120.3 2539.09,-127.3"/>
</g>
<!-- LessonRepo -->
<g id="node23" class="node">
<title>LessonRepo</title>
<ellipse fill="#fdb462" stroke="black" cx="1613" cy="-66.8" rx="58.56" ry="18"/>
<text text-anchor="middle" x="1613" y="-62.6" font-family="Times,serif" font-size="14.00">LessonRepo</text>
</g>
<!-- LessonRepo&#45;&gt;LearnroomModule -->
<g id="edge23" class="edge">
<title>LessonRepo&#45;&gt;LearnroomModule</title>
<path fill="none" stroke="black" d="M1613,-84.82C1613,-102.17 1613,-125.8 1613,-125.8 1613,-125.8 2539.13,-125.8 2539.13,-125.8"/>
<polygon fill="black" stroke="black" points="2539.13,-129.3 2549.13,-125.8 2539.13,-122.3 2539.13,-129.3"/>
</g>
<!-- Logger -->
<g id="node24" class="node">
<title>Logger</title>
<ellipse fill="#fdb462" stroke="black" cx="1497" cy="-66.8" rx="38.85" ry="18"/>
<text text-anchor="middle" x="1497" y="-62.6" font-family="Times,serif" font-size="14.00">Logger</text>
</g>
<!-- Logger&#45;&gt;LearnroomModule -->
<g id="edge24" class="edge">
<title>Logger&#45;&gt;LearnroomModule</title>
<path fill="none" stroke="black" d="M1497,-85.07C1497,-103.36 1497,-128.8 1497,-128.8 1497,-128.8 2538.97,-128.8 2538.97,-128.8"/>
<polygon fill="black" stroke="black" points="2538.97,-132.3 2548.97,-128.8 2538.97,-125.3 2538.97,-132.3"/>
</g>
<!-- MetadataLoader -->
<g id="node25" class="node">
<title>MetadataLoader</title>
<ellipse fill="#fdb462" stroke="black" cx="1366" cy="-66.8" rx="74.11" ry="18"/>
<text text-anchor="middle" x="1366" y="-62.6" font-family="Times,serif" font-size="14.00">MetadataLoader</text>
</g>
<!-- MetadataLoader&#45;&gt;LearnroomModule -->
<g id="edge25" class="edge">
<title>MetadataLoader&#45;&gt;LearnroomModule</title>
<path fill="none" stroke="black" d="M1366,-84.97C1366,-103.89 1366,-130.8 1366,-130.8 1366,-130.8 2539.16,-130.8 2539.16,-130.8"/>
<polygon fill="black" stroke="black" points="2539.16,-134.3 2549.16,-130.8 2539.16,-127.3 2539.16,-134.3"/>
</g>
<!-- RoomBoardDTOFactory -->
<g id="node26" class="node">
<title>RoomBoardDTOFactory</title>
<ellipse fill="#fdb462" stroke="black" cx="1166" cy="-66.8" rx="107.68" ry="18"/>
<text text-anchor="middle" x="1166" y="-62.6" font-family="Times,serif" font-size="14.00">RoomBoardDTOFactory</text>
</g>
<!-- RoomBoardDTOFactory&#45;&gt;LearnroomModule -->
<g id="edge26" class="edge">
<title>RoomBoardDTOFactory&#45;&gt;LearnroomModule</title>
<path fill="none" stroke="black" d="M1166,-85.11C1166,-104.95 1166,-133.8 1166,-133.8 1166,-133.8 2538.88,-133.8 2538.88,-133.8"/>
<polygon fill="black" stroke="black" points="2538.88,-137.3 2548.88,-133.8 2538.88,-130.3 2538.88,-137.3"/>
</g>
<!-- RoomBoardResponseMapper -->
<g id="node27" class="node">
<title>RoomBoardResponseMapper</title>
<ellipse fill="#fdb462" stroke="black" cx="915" cy="-66.8" rx="125.09" ry="18"/>
<text text-anchor="middle" x="915" y="-62.6" font-family="Times,serif" font-size="14.00">RoomBoardResponseMapper</text>
</g>
<!-- RoomBoardResponseMapper&#45;&gt;LearnroomModule -->
<g id="edge27" class="edge">
<title>RoomBoardResponseMapper&#45;&gt;LearnroomModule</title>
<path fill="none" stroke="black" d="M915,-84.93C915,-105.37 915,-135.8 915,-135.8 915,-135.8 2539.17,-135.8 2539.17,-135.8"/>
<polygon fill="black" stroke="black" points="2539.17,-139.3 2549.17,-135.8 2539.17,-132.3 2539.17,-139.3"/>
</g>
<!-- RoomsAuthorisationService -->
<g id="node28" class="node">
<title>RoomsAuthorisationService</title>
<ellipse fill="#fdb462" stroke="black" cx="651" cy="-66.8" rx="120.44" ry="18"/>
<text text-anchor="middle" x="651" y="-62.6" font-family="Times,serif" font-size="14.00">RoomsAuthorisationService</text>
</g>
<!-- RoomsAuthorisationService&#45;&gt;LearnroomModule -->
<g id="edge28" class="edge">
<title>RoomsAuthorisationService&#45;&gt;LearnroomModule</title>
<path fill="none" stroke="black" d="M651,-85.08C651,-106.12 651,-137.8 651,-137.8 651,-137.8 2539.22,-137.8 2539.22,-137.8"/>
<polygon fill="black" stroke="black" points="2539.22,-141.3 2549.22,-137.8 2539.22,-134.3 2539.22,-141.3"/>
</g>
<!-- RoomsService -->
<g id="node29" class="node">
<title>RoomsService</title>
<ellipse fill="#fdb462" stroke="black" cx="445" cy="-66.8" rx="67.22" ry="18"/>
<text text-anchor="middle" x="445" y="-62.6" font-family="Times,serif" font-size="14.00">RoomsService</text>
</g>
<!-- RoomsService&#45;&gt;LearnroomModule -->
<g id="edge29" class="edge">
<title>RoomsService&#45;&gt;LearnroomModule</title>
<path fill="none" stroke="black" d="M445,-85.09C445,-107.01 445,-140.8 445,-140.8 445,-140.8 2538.98,-140.8 2538.98,-140.8"/>
<polygon fill="black" stroke="black" points="2538.98,-144.3 2548.98,-140.8 2538.98,-137.3 2538.98,-144.3"/>
</g>
<!-- RoomsUc -->
<g id="node30" class="node">
<title>RoomsUc</title>
<ellipse fill="#fdb462" stroke="black" cx="310" cy="-66.8" rx="49.83" ry="18"/>
<text text-anchor="middle" x="310" y="-62.6" font-family="Times,serif" font-size="14.00">RoomsUc</text>
</g>
<!-- RoomsUc&#45;&gt;LearnroomModule -->
<g id="edge30" class="edge">
<title>RoomsUc&#45;&gt;LearnroomModule</title>
<path fill="none" stroke="black" d="M310,-84.81C310,-107.29 310,-142.8 310,-142.8 310,-142.8 2539.07,-142.8 2539.07,-142.8"/>
<polygon fill="black" stroke="black" points="2539.07,-146.3 2549.07,-142.8 2539.07,-139.3 2539.07,-146.3"/>
</g>
<!-- TaskRepo -->
<g id="node31" class="node">
<title>TaskRepo</title>
<ellipse fill="#fdb462" stroke="black" cx="192" cy="-66.8" rx="50.39" ry="18"/>
<text text-anchor="middle" x="192" y="-62.6" font-family="Times,serif" font-size="14.00">TaskRepo</text>
</g>
<!-- TaskRepo&#45;&gt;LearnroomModule -->
<g id="edge31" class="edge">
<title>TaskRepo&#45;&gt;LearnroomModule</title>
<path fill="none" stroke="black" d="M192,-85.12C192,-108.46 192,-145.8 192,-145.8 192,-145.8 2539.02,-145.8 2539.02,-145.8"/>
<polygon fill="black" stroke="black" points="2539.02,-149.3 2549.02,-145.8 2539.02,-142.3 2539.02,-149.3"/>
</g>
<!-- UserRepo -->
<g id="node32" class="node">
<title>UserRepo</title>
<ellipse fill="#fdb462" stroke="black" cx="74" cy="-66.8" rx="49.81" ry="18"/>
<text text-anchor="middle" x="74" y="-62.6" font-family="Times,serif" font-size="14.00">UserRepo</text>
</g>
<!-- UserRepo&#45;&gt;LearnroomModule -->
<g id="edge32" class="edge">
<title>UserRepo&#45;&gt;LearnroomModule</title>
<path fill="none" stroke="black" d="M74,-85.18C74,-109.08 74,-147.8 74,-147.8 74,-147.8 2539.19,-147.8 2539.19,-147.8"/>
<polygon fill="black" stroke="black" points="2539.19,-151.3 2549.19,-147.8 2539.19,-144.3 2539.19,-151.3"/>
</g>
</g>
</svg>
