<?xml version="1.0" encoding="UTF-8" standalone="no"?>
<!DOCTYPE svg PUBLIC "-//W3C//DTD SVG 1.1//EN"
 "http://www.w3.org/Graphics/SVG/1.1/DTD/svg11.dtd">
<!-- Generated by graphviz version 5.0.0 (20220707.1540)
 -->
<!-- Title: dependencies Pages: 1 -->
<svg width="4306pt" height="174pt"
 viewBox="0.00 0.00 4306.00 173.80" xmlns="http://www.w3.org/2000/svg" xmlns:xlink="http://www.w3.org/1999/xlink">
<g id="graph0" class="graph" transform="scale(1 1) rotate(0) translate(4 169.8)">
<title>dependencies</title>
<polygon fill="white" stroke="transparent" points="-4,4 -4,-169.8 4302,-169.8 4302,4 -4,4"/>
<text text-anchor="middle" x="2149" y="-8.2" font-family="sans-serif" font-size="14.00">dependencies</text>
<g id="clust1" class="cluster">
<title>cluster_LearnroomModule</title>
<polygon fill="none" stroke="black" stroke-dasharray="1,5" points="8,-32.8 8,-157.8 4290,-157.8 4290,-32.8 8,-32.8"/>
</g>
<g id="clust6" class="cluster">
<title>cluster_LearnroomModule_providers</title>
<polygon fill="none" stroke="black" points="178,-40.8 178,-92.8 4282,-92.8 4282,-40.8 178,-40.8"/>
</g>
<g id="clust3" class="cluster">
<title>cluster_LearnroomModule_imports</title>
<polygon fill="none" stroke="black" points="16,-40.8 16,-92.8 170,-92.8 170,-40.8 16,-40.8"/>
</g>
<!-- AuthorizationModule -->
<g id="node1" class="node">
<title>AuthorizationModule</title>
<polygon fill="#8dd3c7" stroke="black" points="161.81,-84.8 158.81,-88.8 137.81,-88.8 134.81,-84.8 24.19,-84.8 24.19,-48.8 161.81,-48.8 161.81,-84.8"/>
<text text-anchor="middle" x="93" y="-62.6" font-family="Times,serif" font-size="14.00">AuthorizationModule</text>
</g>
<!-- LearnroomModule -->
<g id="node2" class="node">
<title>LearnroomModule</title>
<polygon fill="#8dd3c7" stroke="black" points="2170.75,-149.8 2167.75,-153.8 2146.75,-153.8 2143.75,-149.8 2049.25,-149.8 2049.25,-113.8 2170.75,-113.8 2170.75,-149.8"/>
<text text-anchor="middle" x="2110" y="-127.6" font-family="Times,serif" font-size="14.00">LearnroomModule</text>
</g>
<!-- AuthorizationModule&#45;&gt;LearnroomModule -->
<g id="edge1" class="edge">
<title>AuthorizationModule&#45;&gt;LearnroomModule</title>
<path fill="none" stroke="black" d="M93,-85.18C93,-109.08 93,-147.8 93,-147.8 93,-147.8 2039.09,-147.8 2039.09,-147.8"/>
<polygon fill="black" stroke="black" points="2039.09,-151.3 2049.09,-147.8 2039.09,-144.3 2039.09,-151.3"/>
</g>
<!-- BoardCopyService -->
<g id="node3" class="node">
<title>BoardCopyService</title>
<ellipse fill="#fdb462" stroke="black" cx="4189" cy="-66.8" rx="84.54" ry="18"/>
<text text-anchor="middle" x="4189" y="-62.6" font-family="Times,serif" font-size="14.00">BoardCopyService</text>
</g>
<!-- BoardCopyService&#45;&gt;LearnroomModule -->
<g id="edge2" class="edge">
<title>BoardCopyService&#45;&gt;LearnroomModule</title>
<path fill="none" stroke="black" d="M4189,-85.18C4189,-109.08 4189,-147.8 4189,-147.8 4189,-147.8 2180.81,-147.8 2180.81,-147.8"/>
<polygon fill="black" stroke="black" points="2180.81,-144.3 2170.81,-147.8 2180.81,-151.3 2180.81,-144.3"/>
</g>
<!-- BoardRepo -->
<g id="node4" class="node">
<title>BoardRepo</title>
<ellipse fill="#fdb462" stroke="black" cx="4031" cy="-66.8" rx="55.04" ry="18"/>
<text text-anchor="middle" x="4031" y="-62.6" font-family="Times,serif" font-size="14.00">BoardRepo</text>
</g>
<!-- BoardRepo&#45;&gt;LearnroomModule -->
<g id="edge3" class="edge">
<title>BoardRepo&#45;&gt;LearnroomModule</title>
<path fill="none" stroke="black" d="M4031,-84.89C4031,-107.93 4031,-144.8 4031,-144.8 4031,-144.8 2180.93,-144.8 2180.93,-144.8"/>
<polygon fill="black" stroke="black" points="2180.93,-141.3 2170.93,-144.8 2180.93,-148.3 2180.93,-141.3"/>
</g>
<!-- CopyHelperService -->
<g id="node5" class="node">
<title>CopyHelperService</title>
<ellipse fill="#fdb462" stroke="black" cx="3871" cy="-66.8" rx="87.39" ry="18"/>
<text text-anchor="middle" x="3871" y="-62.6" font-family="Times,serif" font-size="14.00">CopyHelperService</text>
</g>
<!-- CopyHelperService&#45;&gt;LearnroomModule -->
<g id="edge4" class="edge">
<title>CopyHelperService&#45;&gt;LearnroomModule</title>
<path fill="none" stroke="black" d="M3871,-84.96C3871,-107.15 3871,-141.8 3871,-141.8 3871,-141.8 2180.87,-141.8 2180.87,-141.8"/>
<polygon fill="black" stroke="black" points="2180.87,-138.3 2170.87,-141.8 2180.87,-145.3 2180.87,-138.3"/>
</g>
<!-- CourseCopyService -->
<g id="node6" class="node">
<title>CourseCopyService</title>
<ellipse fill="#fdb462" stroke="black" cx="3678" cy="-66.8" rx="88.06" ry="18"/>
<text text-anchor="middle" x="3678" y="-62.6" font-family="Times,serif" font-size="14.00">CourseCopyService</text>
</g>
<!-- CourseCopyService&#45;&gt;LearnroomModule -->
<g id="edge5" class="edge">
<title>CourseCopyService&#45;&gt;LearnroomModule</title>
<path fill="none" stroke="black" d="M3678,-84.97C3678,-106.3 3678,-138.8 3678,-138.8 3678,-138.8 2180.99,-138.8 2180.99,-138.8"/>
<polygon fill="black" stroke="black" points="2180.99,-135.3 2170.99,-138.8 2180.99,-142.3 2180.99,-135.3"/>
</g>
<!-- CourseCopyUC -->
<g id="node7" class="node">
<title>CourseCopyUC</title>
<ellipse fill="#fdb462" stroke="black" cx="3499" cy="-66.8" rx="72.97" ry="18"/>
<text text-anchor="middle" x="3499" y="-62.6" font-family="Times,serif" font-size="14.00">CourseCopyUC</text>
</g>
<!-- CourseCopyUC&#45;&gt;LearnroomModule -->
<g id="edge6" class="edge">
<title>CourseCopyUC&#45;&gt;LearnroomModule</title>
<path fill="none" stroke="black" d="M3499,-84.83C3499,-105.57 3499,-136.8 3499,-136.8 3499,-136.8 2181.03,-136.8 2181.03,-136.8"/>
<polygon fill="black" stroke="black" points="2181.03,-133.3 2171.03,-136.8 2181.03,-140.3 2181.03,-133.3"/>
</g>
<!-- CourseRepo -->
<g id="node8" class="node">
<title>CourseRepo</title>
<ellipse fill="#fdb462" stroke="black" cx="3349" cy="-66.8" rx="58.56" ry="18"/>
<text text-anchor="middle" x="3349" y="-62.6" font-family="Times,serif" font-size="14.00">CourseRepo</text>
</g>
<!-- CourseRepo&#45;&gt;LearnroomModule -->
<g id="edge7" class="edge">
<title>CourseRepo&#45;&gt;LearnroomModule</title>
<path fill="none" stroke="black" d="M3349,-85.11C3349,-104.95 3349,-133.8 3349,-133.8 3349,-133.8 2181.02,-133.8 2181.02,-133.8"/>
<polygon fill="black" stroke="black" points="2181.02,-130.3 2171.02,-133.8 2181.02,-137.3 2181.02,-130.3"/>
</g>
<!-- CourseUc -->
<g id="node9" class="node">
<title>CourseUc</title>
<ellipse fill="#fdb462" stroke="black" cx="3223" cy="-66.8" rx="49.81" ry="18"/>
<text text-anchor="middle" x="3223" y="-62.6" font-family="Times,serif" font-size="14.00">CourseUc</text>
</g>
<!-- CourseUc&#45;&gt;LearnroomModule -->
<g id="edge8" class="edge">
<title>CourseUc&#45;&gt;LearnroomModule</title>
<path fill="none" stroke="black" d="M3223,-84.97C3223,-103.89 3223,-130.8 3223,-130.8 3223,-130.8 2181.03,-130.8 2181.03,-130.8"/>
<polygon fill="black" stroke="black" points="2181.03,-127.3 2171.03,-130.8 2181.03,-134.3 2181.03,-127.3"/>
</g>
<!-- DashboardModelMapper -->
<g id="node10" class="node">
<title>DashboardModelMapper</title>
<ellipse fill="#fdb462" stroke="black" cx="3047" cy="-66.8" rx="108.23" ry="18"/>
<text text-anchor="middle" x="3047" y="-62.6" font-family="Times,serif" font-size="14.00">DashboardModelMapper</text>
</g>
<!-- DashboardModelMapper&#45;&gt;LearnroomModule -->
<g id="edge9" class="edge">
<title>DashboardModelMapper&#45;&gt;LearnroomModule</title>
<path fill="none" stroke="black" d="M3047,-85.1C3047,-103.07 3047,-127.8 3047,-127.8 3047,-127.8 2180.76,-127.8 2180.76,-127.8"/>
<polygon fill="black" stroke="black" points="2180.76,-124.3 2170.76,-127.8 2180.76,-131.3 2180.76,-124.3"/>
</g>
<!-- DashboardUc -->
<g id="node11" class="node">
<title>DashboardUc</title>
<ellipse fill="#fdb462" stroke="black" cx="2857" cy="-66.8" rx="64.26" ry="18"/>
<text text-anchor="middle" x="2857" y="-62.6" font-family="Times,serif" font-size="14.00">DashboardUc</text>
</g>
<!-- DashboardUc&#45;&gt;LearnroomModule -->
<g id="edge10" class="edge">
<title>DashboardUc&#45;&gt;LearnroomModule</title>
<path fill="none" stroke="black" d="M2857,-84.82C2857,-102.17 2857,-125.8 2857,-125.8 2857,-125.8 2180.81,-125.8 2180.81,-125.8"/>
<polygon fill="black" stroke="black" points="2180.81,-122.3 2170.81,-125.8 2180.81,-129.3 2180.81,-122.3"/>
</g>
<!-- EtherpadService -->
<g id="node12" class="node">
<title>EtherpadService</title>
<ellipse fill="#fdb462" stroke="black" cx="2700" cy="-66.8" rx="74.7" ry="18"/>
<text text-anchor="middle" x="2700" y="-62.6" font-family="Times,serif" font-size="14.00">EtherpadService</text>
</g>
<!-- EtherpadService&#45;&gt;LearnroomModule -->
<g id="edge11" class="edge">
<title>EtherpadService&#45;&gt;LearnroomModule</title>
<path fill="none" stroke="black" d="M2700,-84.83C2700,-101.2 2700,-122.8 2700,-122.8 2700,-122.8 2180.92,-122.8 2180.92,-122.8"/>
<polygon fill="black" stroke="black" points="2180.92,-119.3 2170.92,-122.8 2180.92,-126.3 2180.92,-119.3"/>
</g>
<!-- FeathersServiceProvider -->
<g id="node13" class="node">
<title>FeathersServiceProvider</title>
<ellipse fill="#fdb462" stroke="black" cx="2501" cy="-66.8" rx="105.93" ry="18"/>
<text text-anchor="middle" x="2501" y="-62.6" font-family="Times,serif" font-size="14.00">FeathersServiceProvider</text>
</g>
<!-- FeathersServiceProvider&#45;&gt;LearnroomModule -->
<g id="edge12" class="edge">
<title>FeathersServiceProvider&#45;&gt;LearnroomModule</title>
<path fill="none" stroke="black" d="M2501,-85.04C2501,-100.37 2501,-119.8 2501,-119.8 2501,-119.8 2181.09,-119.8 2181.09,-119.8"/>
<polygon fill="black" stroke="black" points="2181.09,-116.3 2171.09,-119.8 2181.09,-123.3 2181.09,-116.3"/>
</g>
<!-- LessonCopyService -->
<g id="node14" class="node">
<title>LessonCopyService</title>
<ellipse fill="#fdb462" stroke="black" cx="2289" cy="-66.8" rx="88.06" ry="18"/>
<text text-anchor="middle" x="2289" y="-62.6" font-family="Times,serif" font-size="14.00">LessonCopyService</text>
</g>
<!-- LessonCopyService&#45;&gt;LearnroomModule -->
<g id="edge13" class="edge">
<title>LessonCopyService&#45;&gt;LearnroomModule</title>
<path fill="none" stroke="black" d="M2289,-84.85C2289,-99.17 2289,-116.8 2289,-116.8 2289,-116.8 2180.85,-116.8 2180.85,-116.8"/>
<polygon fill="black" stroke="black" points="2180.85,-113.3 2170.85,-116.8 2180.85,-120.3 2180.85,-113.3"/>
</g>
<!-- LessonCopyUC -->
<g id="node15" class="node">
<title>LessonCopyUC</title>
<ellipse fill="#fdb462" stroke="black" cx="2110" cy="-66.8" rx="72.97" ry="18"/>
<text text-anchor="middle" x="2110" y="-62.6" font-family="Times,serif" font-size="14.00">LessonCopyUC</text>
</g>
<!-- LessonCopyUC&#45;&gt;LearnroomModule -->
<g id="edge14" class="edge">
<title>LessonCopyUC&#45;&gt;LearnroomModule</title>
<path fill="none" stroke="black" d="M2110,-84.91C2110,-84.91 2110,-103.79 2110,-103.79"/>
<polygon fill="black" stroke="black" points="2106.5,-103.79 2110,-113.79 2113.5,-103.79 2106.5,-103.79"/>
</g>
<!-- LessonRepo -->
<g id="node16" class="node">
<title>LessonRepo</title>
<ellipse fill="#fdb462" stroke="black" cx="1960" cy="-66.8" rx="58.56" ry="18"/>
<text text-anchor="middle" x="1960" y="-62.6" font-family="Times,serif" font-size="14.00">LessonRepo</text>
</g>
<!-- LessonRepo&#45;&gt;LearnroomModule -->
<g id="edge15" class="edge">
<title>LessonRepo&#45;&gt;LearnroomModule</title>
<path fill="none" stroke="black" d="M1960,-84.85C1960,-99.17 1960,-116.8 1960,-116.8 1960,-116.8 2038.99,-116.8 2038.99,-116.8"/>
<polygon fill="black" stroke="black" points="2038.99,-120.3 2048.99,-116.8 2038.99,-113.3 2038.99,-120.3"/>
</g>
<!-- Logger -->
<g id="node17" class="node">
<title>Logger</title>
<ellipse fill="#fdb462" stroke="black" cx="1844" cy="-66.8" rx="38.85" ry="18"/>
<text text-anchor="middle" x="1844" y="-62.6" font-family="Times,serif" font-size="14.00">Logger</text>
</g>
<!-- Logger&#45;&gt;LearnroomModule -->
<g id="edge16" class="edge">
<title>Logger&#45;&gt;LearnroomModule</title>
<path fill="none" stroke="black" d="M1844,-85.04C1844,-100.37 1844,-119.8 1844,-119.8 1844,-119.8 2038.97,-119.8 2038.97,-119.8"/>
<polygon fill="black" stroke="black" points="2038.97,-123.3 2048.97,-119.8 2038.97,-116.3 2038.97,-123.3"/>
</g>
<!-- NexboardService -->
<g id="node18" class="node">
<title>NexboardService</title>
<ellipse fill="#fdb462" stroke="black" cx="1709" cy="-66.8" rx="78.14" ry="18"/>
<text text-anchor="middle" x="1709" y="-62.6" font-family="Times,serif" font-size="14.00">NexboardService</text>
</g>
<!-- NexboardService&#45;&gt;LearnroomModule -->
<g id="edge17" class="edge">
<title>NexboardService&#45;&gt;LearnroomModule</title>
<path fill="none" stroke="black" d="M1709,-84.83C1709,-101.2 1709,-122.8 1709,-122.8 1709,-122.8 2039.1,-122.8 2039.1,-122.8"/>
<polygon fill="black" stroke="black" points="2039.1,-126.3 2049.1,-122.8 2039.1,-119.3 2039.1,-126.3"/>
</g>
<!-- RoomBoardDTOFactory -->
<g id="node19" class="node">
<title>RoomBoardDTOFactory</title>
<ellipse fill="#fdb462" stroke="black" cx="1505" cy="-66.8" rx="107.68" ry="18"/>
<text text-anchor="middle" x="1505" y="-62.6" font-family="Times,serif" font-size="14.00">RoomBoardDTOFactory</text>
</g>
<!-- RoomBoardDTOFactory&#45;&gt;LearnroomModule -->
<g id="edge18" class="edge">
<title>RoomBoardDTOFactory&#45;&gt;LearnroomModule</title>
<path fill="none" stroke="black" d="M1505,-84.82C1505,-102.17 1505,-125.8 1505,-125.8 1505,-125.8 2039.22,-125.8 2039.22,-125.8"/>
<polygon fill="black" stroke="black" points="2039.22,-129.3 2049.22,-125.8 2039.22,-122.3 2039.22,-129.3"/>
</g>
<!-- RoomBoardResponseMapper -->
<g id="node20" class="node">
<title>RoomBoardResponseMapper</title>
<ellipse fill="#fdb462" stroke="black" cx="1254" cy="-66.8" rx="125.09" ry="18"/>
<text text-anchor="middle" x="1254" y="-62.6" font-family="Times,serif" font-size="14.00">RoomBoardResponseMapper</text>
</g>
<!-- RoomBoardResponseMapper&#45;&gt;LearnroomModule -->
<g id="edge19" class="edge">
<title>RoomBoardResponseMapper&#45;&gt;LearnroomModule</title>
<path fill="none" stroke="black" d="M1254,-85.1C1254,-103.07 1254,-127.8 1254,-127.8 1254,-127.8 2039.12,-127.8 2039.12,-127.8"/>
<polygon fill="black" stroke="black" points="2039.12,-131.3 2049.12,-127.8 2039.12,-124.3 2039.12,-131.3"/>
</g>
<!-- RoomsAuthorisationService -->
<g id="node21" class="node">
<title>RoomsAuthorisationService</title>
<ellipse fill="#fdb462" stroke="black" cx="990" cy="-66.8" rx="120.44" ry="18"/>
<text text-anchor="middle" x="990" y="-62.6" font-family="Times,serif" font-size="14.00">RoomsAuthorisationService</text>
</g>
<!-- RoomsAuthorisationService&#45;&gt;LearnroomModule -->
<g id="edge20" class="edge">
<title>RoomsAuthorisationService&#45;&gt;LearnroomModule</title>
<path fill="none" stroke="black" d="M990,-84.97C990,-103.89 990,-130.8 990,-130.8 990,-130.8 2038.99,-130.8 2038.99,-130.8"/>
<polygon fill="black" stroke="black" points="2038.99,-134.3 2048.99,-130.8 2038.99,-127.3 2038.99,-134.3"/>
</g>
<!-- RoomsService -->
<g id="node22" class="node">
<title>RoomsService</title>
<ellipse fill="#fdb462" stroke="black" cx="784" cy="-66.8" rx="67.22" ry="18"/>
<text text-anchor="middle" x="784" y="-62.6" font-family="Times,serif" font-size="14.00">RoomsService</text>
</g>
<!-- RoomsService&#45;&gt;LearnroomModule -->
<g id="edge21" class="edge">
<title>RoomsService&#45;&gt;LearnroomModule</title>
<path fill="none" stroke="black" d="M784,-85.11C784,-104.95 784,-133.8 784,-133.8 784,-133.8 2039.14,-133.8 2039.14,-133.8"/>
<polygon fill="black" stroke="black" points="2039.14,-137.3 2049.14,-133.8 2039.14,-130.3 2039.14,-137.3"/>
</g>
<!-- RoomsUc -->
<g id="node23" class="node">
<title>RoomsUc</title>
<ellipse fill="#fdb462" stroke="black" cx="649" cy="-66.8" rx="49.83" ry="18"/>
<text text-anchor="middle" x="649" y="-62.6" font-family="Times,serif" font-size="14.00">RoomsUc</text>
</g>
<!-- RoomsUc&#45;&gt;LearnroomModule -->
<g id="edge22" class="edge">
<title>RoomsUc&#45;&gt;LearnroomModule</title>
<path fill="none" stroke="black" d="M649,-84.83C649,-105.57 649,-136.8 649,-136.8 649,-136.8 2039.08,-136.8 2039.08,-136.8"/>
<polygon fill="black" stroke="black" points="2039.08,-140.3 2049.08,-136.8 2039.08,-133.3 2039.08,-140.3"/>
</g>
<!-- TaskCopyService -->
<g id="node24" class="node">
<title>TaskCopyService</title>
<ellipse fill="#fdb462" stroke="black" cx="502" cy="-66.8" rx="79.88" ry="18"/>
<text text-anchor="middle" x="502" y="-62.6" font-family="Times,serif" font-size="14.00">TaskCopyService</text>
</g>
<!-- TaskCopyService&#45;&gt;LearnroomModule -->
<g id="edge23" class="edge">
<title>TaskCopyService&#45;&gt;LearnroomModule</title>
<path fill="none" stroke="black" d="M502,-84.97C502,-106.3 502,-138.8 502,-138.8 502,-138.8 2038.93,-138.8 2038.93,-138.8"/>
<polygon fill="black" stroke="black" points="2038.93,-142.3 2048.93,-138.8 2038.93,-135.3 2038.93,-142.3"/>
</g>
<!-- TaskRepo -->
<g id="node25" class="node">
<title>TaskRepo</title>
<ellipse fill="#fdb462" stroke="black" cx="354" cy="-66.8" rx="50.39" ry="18"/>
<text text-anchor="middle" x="354" y="-62.6" font-family="Times,serif" font-size="14.00">TaskRepo</text>
</g>
<!-- TaskRepo&#45;&gt;LearnroomModule -->
<g id="edge24" class="edge">
<title>TaskRepo&#45;&gt;LearnroomModule</title>
<path fill="none" stroke="black" d="M354,-84.96C354,-107.15 354,-141.8 354,-141.8 354,-141.8 2039.04,-141.8 2039.04,-141.8"/>
<polygon fill="black" stroke="black" points="2039.04,-145.3 2049.04,-141.8 2039.04,-138.3 2039.04,-145.3"/>
</g>
<!-- UserRepo -->
<g id="node26" class="node">
<title>UserRepo</title>
<ellipse fill="#fdb462" stroke="black" cx="236" cy="-66.8" rx="49.81" ry="18"/>
<text text-anchor="middle" x="236" y="-62.6" font-family="Times,serif" font-size="14.00">UserRepo</text>
</g>
<!-- UserRepo&#45;&gt;LearnroomModule -->
<g id="edge25" class="edge">
<title>UserRepo&#45;&gt;LearnroomModule</title>
<path fill="none" stroke="black" d="M236,-84.89C236,-107.93 236,-144.8 236,-144.8 236,-144.8 2039.24,-144.8 2039.24,-144.8"/>
<polygon fill="black" stroke="black" points="2039.24,-148.3 2049.24,-144.8 2039.24,-141.3 2039.24,-148.3"/>
</g>
</g>
</svg>
