<?xml version="1.0" encoding="UTF-8" standalone="no"?>
<!DOCTYPE svg PUBLIC "-//W3C//DTD SVG 1.1//EN"
 "http://www.w3.org/Graphics/SVG/1.1/DTD/svg11.dtd">
<!-- Generated by graphviz version 5.0.0 (20220707.1540)
 -->
<!-- Title: dependencies Pages: 1 -->
<svg width="4719pt" height="174pt"
 viewBox="0.00 0.00 4719.00 173.80" xmlns="http://www.w3.org/2000/svg" xmlns:xlink="http://www.w3.org/1999/xlink">
<g id="graph0" class="graph" transform="scale(1 1) rotate(0) translate(4 169.8)">
<title>dependencies</title>
<polygon fill="white" stroke="transparent" points="-4,4 -4,-169.8 4715,-169.8 4715,4 -4,4"/>
<text text-anchor="middle" x="2355.5" y="-8.2" font-family="sans-serif" font-size="14.00">dependencies</text>
<g id="clust1" class="cluster">
<title>cluster_LearnroomModule</title>
<polygon fill="none" stroke="black" stroke-dasharray="1,5" points="8,-32.8 8,-157.8 4703,-157.8 4703,-32.8 8,-32.8"/>
</g>
<g id="clust3" class="cluster">
<title>cluster_LearnroomModule_imports</title>
<polygon fill="none" stroke="black" points="4359,-40.8 4359,-92.8 4695,-92.8 4695,-40.8 4359,-40.8"/>
</g>
<g id="clust6" class="cluster">
<title>cluster_LearnroomModule_providers</title>
<polygon fill="none" stroke="black" points="16,-40.8 16,-92.8 4351,-92.8 4351,-40.8 16,-40.8"/>
</g>
<!-- AuthorizationModule -->
<g id="node1" class="node">
<title>AuthorizationModule</title>
<polygon fill="#8dd3c7" stroke="black" points="4686.81,-84.8 4683.81,-88.8 4662.81,-88.8 4659.81,-84.8 4549.19,-84.8 4549.19,-48.8 4686.81,-48.8 4686.81,-84.8"/>
<text text-anchor="middle" x="4618" y="-62.6" font-family="Times,serif" font-size="14.00">AuthorizationModule</text>
</g>
<!-- LearnroomModule -->
<g id="node3" class="node">
<title>LearnroomModule</title>
<polygon fill="#8dd3c7" stroke="black" points="2400.75,-149.8 2397.75,-153.8 2376.75,-153.8 2373.75,-149.8 2279.25,-149.8 2279.25,-113.8 2400.75,-113.8 2400.75,-149.8"/>
<text text-anchor="middle" x="2340" y="-127.6" font-family="Times,serif" font-size="14.00">LearnroomModule</text>
</g>
<!-- AuthorizationModule&#45;&gt;LearnroomModule -->
<g id="edge1" class="edge">
<title>AuthorizationModule&#45;&gt;LearnroomModule</title>
<path fill="none" stroke="black" d="M4618,-85.18C4618,-109.08 4618,-147.8 4618,-147.8 4618,-147.8 2410.93,-147.8 2410.93,-147.8"/>
<polygon fill="black" stroke="black" points="2410.93,-144.3 2400.93,-147.8 2410.93,-151.3 2410.93,-144.3"/>
</g>
<!-- FilesStorageClientModule -->
<g id="node2" class="node">
<title>FilesStorageClientModule</title>
<polygon fill="#8dd3c7" stroke="black" points="4530.77,-84.8 4527.77,-88.8 4506.77,-88.8 4503.77,-84.8 4367.23,-84.8 4367.23,-48.8 4530.77,-48.8 4530.77,-84.8"/>
<text text-anchor="middle" x="4449" y="-62.6" font-family="Times,serif" font-size="14.00">FilesStorageClientModule</text>
</g>
<!-- FilesStorageClientModule&#45;&gt;LearnroomModule -->
<g id="edge2" class="edge">
<title>FilesStorageClientModule&#45;&gt;LearnroomModule</title>
<path fill="none" stroke="black" d="M4449,-84.89C4449,-107.93 4449,-144.8 4449,-144.8 4449,-144.8 2410.84,-144.8 2410.84,-144.8"/>
<polygon fill="black" stroke="black" points="2410.84,-141.3 2400.84,-144.8 2410.84,-148.3 2410.84,-141.3"/>
</g>
<!-- BoardCopyService -->
<g id="node4" class="node">
<title>BoardCopyService</title>
<ellipse fill="#fdb462" stroke="black" cx="4258" cy="-66.8" rx="84.54" ry="18"/>
<text text-anchor="middle" x="4258" y="-62.6" font-family="Times,serif" font-size="14.00">BoardCopyService</text>
</g>
<!-- BoardCopyService&#45;&gt;LearnroomModule -->
<g id="edge3" class="edge">
<title>BoardCopyService&#45;&gt;LearnroomModule</title>
<path fill="none" stroke="black" d="M4258,-84.81C4258,-107.29 4258,-142.8 4258,-142.8 4258,-142.8 2410.84,-142.8 2410.84,-142.8"/>
<polygon fill="black" stroke="black" points="2410.84,-139.3 2400.84,-142.8 2410.84,-146.3 2410.84,-139.3"/>
</g>
<!-- BoardRepo -->
<g id="node5" class="node">
<title>BoardRepo</title>
<ellipse fill="#fdb462" stroke="black" cx="4100" cy="-66.8" rx="55.04" ry="18"/>
<text text-anchor="middle" x="4100" y="-62.6" font-family="Times,serif" font-size="14.00">BoardRepo</text>
</g>
<!-- BoardRepo&#45;&gt;LearnroomModule -->
<g id="edge4" class="edge">
<title>BoardRepo&#45;&gt;LearnroomModule</title>
<path fill="none" stroke="black" d="M4100,-84.84C4100,-106.46 4100,-139.8 4100,-139.8 4100,-139.8 2410.84,-139.8 2410.84,-139.8"/>
<polygon fill="black" stroke="black" points="2410.84,-136.3 2400.84,-139.8 2410.84,-143.3 2410.84,-136.3"/>
</g>
<!-- CopyHelperService -->
<g id="node6" class="node">
<title>CopyHelperService</title>
<ellipse fill="#fdb462" stroke="black" cx="3940" cy="-66.8" rx="87.39" ry="18"/>
<text text-anchor="middle" x="3940" y="-62.6" font-family="Times,serif" font-size="14.00">CopyHelperService</text>
</g>
<!-- CopyHelperService&#45;&gt;LearnroomModule -->
<g id="edge5" class="edge">
<title>CopyHelperService&#45;&gt;LearnroomModule</title>
<path fill="none" stroke="black" d="M3940,-85.08C3940,-106.12 3940,-137.8 3940,-137.8 3940,-137.8 2410.77,-137.8 2410.77,-137.8"/>
<polygon fill="black" stroke="black" points="2410.77,-134.3 2400.77,-137.8 2410.77,-141.3 2410.77,-134.3"/>
</g>
<!-- CourseCopyService -->
<g id="node7" class="node">
<title>CourseCopyService</title>
<ellipse fill="#fdb462" stroke="black" cx="3747" cy="-66.8" rx="88.06" ry="18"/>
<text text-anchor="middle" x="3747" y="-62.6" font-family="Times,serif" font-size="14.00">CourseCopyService</text>
</g>
<!-- CourseCopyService&#45;&gt;LearnroomModule -->
<g id="edge6" class="edge">
<title>CourseCopyService&#45;&gt;LearnroomModule</title>
<path fill="none" stroke="black" d="M3747,-85.02C3747,-105.17 3747,-134.8 3747,-134.8 3747,-134.8 2410.91,-134.8 2410.91,-134.8"/>
<polygon fill="black" stroke="black" points="2410.91,-131.3 2400.91,-134.8 2410.91,-138.3 2410.91,-131.3"/>
</g>
<!-- CourseCopyUC -->
<g id="node8" class="node">
<title>CourseCopyUC</title>
<ellipse fill="#fdb462" stroke="black" cx="3568" cy="-66.8" rx="72.97" ry="18"/>
<text text-anchor="middle" x="3568" y="-62.6" font-family="Times,serif" font-size="14.00">CourseCopyUC</text>
</g>
<!-- CourseCopyUC&#45;&gt;LearnroomModule -->
<g id="edge7" class="edge">
<title>CourseCopyUC&#45;&gt;LearnroomModule</title>
<path fill="none" stroke="black" d="M3568,-84.91C3568,-104.14 3568,-131.8 3568,-131.8 3568,-131.8 2410.9,-131.8 2410.9,-131.8"/>
<polygon fill="black" stroke="black" points="2410.9,-128.3 2400.9,-131.8 2410.9,-135.3 2410.9,-128.3"/>
</g>
<!-- CourseRepo -->
<g id="node9" class="node">
<title>CourseRepo</title>
<ellipse fill="#fdb462" stroke="black" cx="3418" cy="-66.8" rx="58.56" ry="18"/>
<text text-anchor="middle" x="3418" y="-62.6" font-family="Times,serif" font-size="14.00">CourseRepo</text>
</g>
<!-- CourseRepo&#45;&gt;LearnroomModule -->
<g id="edge8" class="edge">
<title>CourseRepo&#45;&gt;LearnroomModule</title>
<path fill="none" stroke="black" d="M3418,-85.02C3418,-103.63 3418,-129.8 3418,-129.8 3418,-129.8 2411.05,-129.8 2411.05,-129.8"/>
<polygon fill="black" stroke="black" points="2411.05,-126.3 2401.05,-129.8 2411.05,-133.3 2411.05,-126.3"/>
</g>
<!-- CourseUc -->
<g id="node10" class="node">
<title>CourseUc</title>
<ellipse fill="#fdb462" stroke="black" cx="3292" cy="-66.8" rx="49.81" ry="18"/>
<text text-anchor="middle" x="3292" y="-62.6" font-family="Times,serif" font-size="14.00">CourseUc</text>
</g>
<!-- CourseUc&#45;&gt;LearnroomModule -->
<g id="edge9" class="edge">
<title>CourseUc&#45;&gt;LearnroomModule</title>
<path fill="none" stroke="black" d="M3292,-84.8C3292,-102.48 3292,-126.8 3292,-126.8 3292,-126.8 2411,-126.8 2411,-126.8"/>
<polygon fill="black" stroke="black" points="2411,-123.3 2401,-126.8 2411,-130.3 2411,-123.3"/>
</g>
<!-- DashboardModelMapper -->
<g id="node11" class="node">
<title>DashboardModelMapper</title>
<ellipse fill="#fdb462" stroke="black" cx="3116" cy="-66.8" rx="108.23" ry="18"/>
<text text-anchor="middle" x="3116" y="-62.6" font-family="Times,serif" font-size="14.00">DashboardModelMapper</text>
</g>
<!-- DashboardModelMapper&#45;&gt;LearnroomModule -->
<g id="edge10" class="edge">
<title>DashboardModelMapper&#45;&gt;LearnroomModule</title>
<path fill="none" stroke="black" d="M3116,-84.83C3116,-101.86 3116,-124.8 3116,-124.8 3116,-124.8 2410.89,-124.8 2410.89,-124.8"/>
<polygon fill="black" stroke="black" points="2410.89,-121.3 2400.89,-124.8 2410.89,-128.3 2410.89,-121.3"/>
</g>
<!-- DashboardUc -->
<g id="node12" class="node">
<title>DashboardUc</title>
<ellipse fill="#fdb462" stroke="black" cx="2926" cy="-66.8" rx="64.26" ry="18"/>
<text text-anchor="middle" x="2926" y="-62.6" font-family="Times,serif" font-size="14.00">DashboardUc</text>
</g>
<!-- DashboardUc&#45;&gt;LearnroomModule -->
<g id="edge11" class="edge">
<title>DashboardUc&#45;&gt;LearnroomModule</title>
<path fill="none" stroke="black" d="M2926,-84.81C2926,-100.85 2926,-121.8 2926,-121.8 2926,-121.8 2410.78,-121.8 2410.78,-121.8"/>
<polygon fill="black" stroke="black" points="2410.78,-118.3 2400.78,-121.8 2410.78,-125.3 2410.78,-118.3"/>
</g>
<!-- EtherpadService -->
<g id="node13" class="node">
<title>EtherpadService</title>
<ellipse fill="#fdb462" stroke="black" cx="2769" cy="-66.8" rx="74.7" ry="18"/>
<text text-anchor="middle" x="2769" y="-62.6" font-family="Times,serif" font-size="14.00">EtherpadService</text>
</g>
<!-- EtherpadService&#45;&gt;LearnroomModule -->
<g id="edge12" class="edge">
<title>EtherpadService&#45;&gt;LearnroomModule</title>
<path fill="none" stroke="black" d="M2769,-85.04C2769,-100.37 2769,-119.8 2769,-119.8 2769,-119.8 2411.01,-119.8 2411.01,-119.8"/>
<polygon fill="black" stroke="black" points="2411.01,-116.3 2401.01,-119.8 2411.01,-123.3 2411.01,-116.3"/>
</g>
<!-- FeathersServiceProvider -->
<g id="node14" class="node">
<title>FeathersServiceProvider</title>
<ellipse fill="#fdb462" stroke="black" cx="2570" cy="-66.8" rx="105.93" ry="18"/>
<text text-anchor="middle" x="2570" y="-62.6" font-family="Times,serif" font-size="14.00">FeathersServiceProvider</text>
</g>
<!-- FeathersServiceProvider&#45;&gt;LearnroomModule -->
<g id="edge13" class="edge">
<title>FeathersServiceProvider&#45;&gt;LearnroomModule</title>
<path fill="none" stroke="black" d="M2570,-84.85C2570,-99.17 2570,-116.8 2570,-116.8 2570,-116.8 2411.03,-116.8 2411.03,-116.8"/>
<polygon fill="black" stroke="black" points="2411.03,-113.3 2401.03,-116.8 2411.03,-120.3 2411.03,-113.3"/>
</g>
<!-- FileCopyAppendService -->
<g id="node15" class="node">
<title>FileCopyAppendService</title>
<ellipse fill="#fdb462" stroke="black" cx="2340" cy="-66.8" rx="106.53" ry="18"/>
<text text-anchor="middle" x="2340" y="-62.6" font-family="Times,serif" font-size="14.00">FileCopyAppendService</text>
</g>
<!-- FileCopyAppendService&#45;&gt;LearnroomModule -->
<g id="edge14" class="edge">
<title>FileCopyAppendService&#45;&gt;LearnroomModule</title>
<path fill="none" stroke="black" d="M2340,-84.91C2340,-84.91 2340,-103.79 2340,-103.79"/>
<polygon fill="black" stroke="black" points="2336.5,-103.79 2340,-113.79 2343.5,-103.79 2336.5,-103.79"/>
</g>
<!-- LessonCopyService -->
<g id="node16" class="node">
<title>LessonCopyService</title>
<ellipse fill="#fdb462" stroke="black" cx="2127" cy="-66.8" rx="88.06" ry="18"/>
<text text-anchor="middle" x="2127" y="-62.6" font-family="Times,serif" font-size="14.00">LessonCopyService</text>
</g>
<!-- LessonCopyService&#45;&gt;LearnroomModule -->
<g id="edge15" class="edge">
<title>LessonCopyService&#45;&gt;LearnroomModule</title>
<path fill="none" stroke="black" d="M2127,-84.85C2127,-99.17 2127,-116.8 2127,-116.8 2127,-116.8 2269.25,-116.8 2269.25,-116.8"/>
<polygon fill="black" stroke="black" points="2269.25,-120.3 2279.25,-116.8 2269.25,-113.3 2269.25,-120.3"/>
</g>
<!-- LessonCopyUC -->
<g id="node17" class="node">
<title>LessonCopyUC</title>
<ellipse fill="#fdb462" stroke="black" cx="1948" cy="-66.8" rx="72.97" ry="18"/>
<text text-anchor="middle" x="1948" y="-62.6" font-family="Times,serif" font-size="14.00">LessonCopyUC</text>
</g>
<!-- LessonCopyUC&#45;&gt;LearnroomModule -->
<g id="edge16" class="edge">
<title>LessonCopyUC&#45;&gt;LearnroomModule</title>
<path fill="none" stroke="black" d="M1948,-85.04C1948,-100.37 1948,-119.8 1948,-119.8 1948,-119.8 2269.18,-119.8 2269.18,-119.8"/>
<polygon fill="black" stroke="black" points="2269.18,-123.3 2279.18,-119.8 2269.18,-116.3 2269.18,-123.3"/>
</g>
<!-- LessonRepo -->
<g id="node18" class="node">
<title>LessonRepo</title>
<ellipse fill="#fdb462" stroke="black" cx="1798" cy="-66.8" rx="58.56" ry="18"/>
<text text-anchor="middle" x="1798" y="-62.6" font-family="Times,serif" font-size="14.00">LessonRepo</text>
</g>
<!-- LessonRepo&#45;&gt;LearnroomModule -->
<g id="edge17" class="edge">
<title>LessonRepo&#45;&gt;LearnroomModule</title>
<path fill="none" stroke="black" d="M1798,-84.81C1798,-100.85 1798,-121.8 1798,-121.8 1798,-121.8 2269.14,-121.8 2269.14,-121.8"/>
<polygon fill="black" stroke="black" points="2269.14,-125.3 2279.14,-121.8 2269.14,-118.3 2269.14,-125.3"/>
</g>
<!-- Logger -->
<g id="node19" class="node">
<title>Logger</title>
<ellipse fill="#fdb462" stroke="black" cx="1682" cy="-66.8" rx="38.85" ry="18"/>
<text text-anchor="middle" x="1682" y="-62.6" font-family="Times,serif" font-size="14.00">Logger</text>
</g>
<!-- Logger&#45;&gt;LearnroomModule -->
<g id="edge18" class="edge">
<title>Logger&#45;&gt;LearnroomModule</title>
<path fill="none" stroke="black" d="M1682,-84.83C1682,-101.86 1682,-124.8 1682,-124.8 1682,-124.8 2268.98,-124.8 2268.98,-124.8"/>
<polygon fill="black" stroke="black" points="2268.98,-128.3 2278.98,-124.8 2268.98,-121.3 2268.98,-128.3"/>
</g>
<!-- NexboardService -->
<g id="node20" class="node">
<title>NexboardService</title>
<ellipse fill="#fdb462" stroke="black" cx="1547" cy="-66.8" rx="78.14" ry="18"/>
<text text-anchor="middle" x="1547" y="-62.6" font-family="Times,serif" font-size="14.00">NexboardService</text>
</g>
<!-- NexboardService&#45;&gt;LearnroomModule -->
<g id="edge19" class="edge">
<title>NexboardService&#45;&gt;LearnroomModule</title>
<path fill="none" stroke="black" d="M1547,-84.8C1547,-102.48 1547,-126.8 1547,-126.8 1547,-126.8 2269.09,-126.8 2269.09,-126.8"/>
<polygon fill="black" stroke="black" points="2269.09,-130.3 2279.09,-126.8 2269.09,-123.3 2269.09,-130.3"/>
</g>
<!-- RoomBoardDTOFactory -->
<g id="node21" class="node">
<title>RoomBoardDTOFactory</title>
<ellipse fill="#fdb462" stroke="black" cx="1343" cy="-66.8" rx="107.68" ry="18"/>
<text text-anchor="middle" x="1343" y="-62.6" font-family="Times,serif" font-size="14.00">RoomBoardDTOFactory</text>
</g>
<!-- RoomBoardDTOFactory&#45;&gt;LearnroomModule -->
<g id="edge20" class="edge">
<title>RoomBoardDTOFactory&#45;&gt;LearnroomModule</title>
<path fill="none" stroke="black" d="M1343,-85.02C1343,-103.63 1343,-129.8 1343,-129.8 1343,-129.8 2269.13,-129.8 2269.13,-129.8"/>
<polygon fill="black" stroke="black" points="2269.13,-133.3 2279.13,-129.8 2269.13,-126.3 2269.13,-133.3"/>
</g>
<!-- RoomBoardResponseMapper -->
<g id="node22" class="node">
<title>RoomBoardResponseMapper</title>
<ellipse fill="#fdb462" stroke="black" cx="1092" cy="-66.8" rx="125.09" ry="18"/>
<text text-anchor="middle" x="1092" y="-62.6" font-family="Times,serif" font-size="14.00">RoomBoardResponseMapper</text>
</g>
<!-- RoomBoardResponseMapper&#45;&gt;LearnroomModule -->
<g id="edge21" class="edge">
<title>RoomBoardResponseMapper&#45;&gt;LearnroomModule</title>
<path fill="none" stroke="black" d="M1092,-84.91C1092,-104.14 1092,-131.8 1092,-131.8 1092,-131.8 2268.96,-131.8 2268.96,-131.8"/>
<polygon fill="black" stroke="black" points="2268.96,-135.3 2278.96,-131.8 2268.96,-128.3 2268.96,-135.3"/>
</g>
<!-- RoomsAuthorisationService -->
<g id="node23" class="node">
<title>RoomsAuthorisationService</title>
<ellipse fill="#fdb462" stroke="black" cx="828" cy="-66.8" rx="120.44" ry="18"/>
<text text-anchor="middle" x="828" y="-62.6" font-family="Times,serif" font-size="14.00">RoomsAuthorisationService</text>
</g>
<!-- RoomsAuthorisationService&#45;&gt;LearnroomModule -->
<g id="edge22" class="edge">
<title>RoomsAuthorisationService&#45;&gt;LearnroomModule</title>
<path fill="none" stroke="black" d="M828,-85.02C828,-105.17 828,-134.8 828,-134.8 828,-134.8 2268.86,-134.8 2268.86,-134.8"/>
<polygon fill="black" stroke="black" points="2268.86,-138.3 2278.86,-134.8 2268.86,-131.3 2268.86,-138.3"/>
</g>
<!-- RoomsService -->
<g id="node24" class="node">
<title>RoomsService</title>
<ellipse fill="#fdb462" stroke="black" cx="622" cy="-66.8" rx="67.22" ry="18"/>
<text text-anchor="middle" x="622" y="-62.6" font-family="Times,serif" font-size="14.00">RoomsService</text>
</g>
<!-- RoomsService&#45;&gt;LearnroomModule -->
<g id="edge23" class="edge">
<title>RoomsService&#45;&gt;LearnroomModule</title>
<path fill="none" stroke="black" d="M622,-85.08C622,-106.12 622,-137.8 622,-137.8 622,-137.8 2269.11,-137.8 2269.11,-137.8"/>
<polygon fill="black" stroke="black" points="2269.11,-141.3 2279.11,-137.8 2269.11,-134.3 2269.11,-141.3"/>
</g>
<!-- RoomsUc -->
<g id="node25" class="node">
<title>RoomsUc</title>
<ellipse fill="#fdb462" stroke="black" cx="487" cy="-66.8" rx="49.83" ry="18"/>
<text text-anchor="middle" x="487" y="-62.6" font-family="Times,serif" font-size="14.00">RoomsUc</text>
</g>
<!-- RoomsUc&#45;&gt;LearnroomModule -->
<g id="edge24" class="edge">
<title>RoomsUc&#45;&gt;LearnroomModule</title>
<path fill="none" stroke="black" d="M487,-84.84C487,-106.46 487,-139.8 487,-139.8 487,-139.8 2269.14,-139.8 2269.14,-139.8"/>
<polygon fill="black" stroke="black" points="2269.14,-143.3 2279.14,-139.8 2269.14,-136.3 2269.14,-143.3"/>
</g>
<!-- TaskCopyService -->
<g id="node26" class="node">
<title>TaskCopyService</title>
<ellipse fill="#fdb462" stroke="black" cx="340" cy="-66.8" rx="79.88" ry="18"/>
<text text-anchor="middle" x="340" y="-62.6" font-family="Times,serif" font-size="14.00">TaskCopyService</text>
</g>
<!-- TaskCopyService&#45;&gt;LearnroomModule -->
<g id="edge25" class="edge">
<title>TaskCopyService&#45;&gt;LearnroomModule</title>
<path fill="none" stroke="black" d="M340,-84.81C340,-107.29 340,-142.8 340,-142.8 340,-142.8 2269.05,-142.8 2269.05,-142.8"/>
<polygon fill="black" stroke="black" points="2269.05,-146.3 2279.05,-142.8 2269.05,-139.3 2269.05,-146.3"/>
</g>
<!-- TaskRepo -->
<g id="node27" class="node">
<title>TaskRepo</title>
<ellipse fill="#fdb462" stroke="black" cx="192" cy="-66.8" rx="50.39" ry="18"/>
<text text-anchor="middle" x="192" y="-62.6" font-family="Times,serif" font-size="14.00">TaskRepo</text>
</g>
<!-- TaskRepo&#45;&gt;LearnroomModule -->
<g id="edge26" class="edge">
<title>TaskRepo&#45;&gt;LearnroomModule</title>
<path fill="none" stroke="black" d="M192,-84.89C192,-107.93 192,-144.8 192,-144.8 192,-144.8 2269.17,-144.8 2269.17,-144.8"/>
<polygon fill="black" stroke="black" points="2269.17,-148.3 2279.17,-144.8 2269.17,-141.3 2269.17,-148.3"/>
</g>
<!-- UserRepo -->
<g id="node28" class="node">
<title>UserRepo</title>
<ellipse fill="#fdb462" stroke="black" cx="74" cy="-66.8" rx="49.81" ry="18"/>
<text text-anchor="middle" x="74" y="-62.6" font-family="Times,serif" font-size="14.00">UserRepo</text>
</g>
<!-- UserRepo&#45;&gt;LearnroomModule -->
<g id="edge27" class="edge">
<title>UserRepo&#45;&gt;LearnroomModule</title>
<path fill="none" stroke="black" d="M74,-85.18C74,-109.08 74,-147.8 74,-147.8 74,-147.8 2269.1,-147.8 2269.1,-147.8"/>
<polygon fill="black" stroke="black" points="2269.1,-151.3 2279.1,-147.8 2269.1,-144.3 2269.1,-151.3"/>
</g>
</g>
</svg>
