<?xml version="1.0" encoding="UTF-8" standalone="no"?>
<!DOCTYPE svg PUBLIC "-//W3C//DTD SVG 1.1//EN"
 "http://www.w3.org/Graphics/SVG/1.1/DTD/svg11.dtd">
<!-- Generated by graphviz version 2.47.3 (20210619.1520)
 -->
<!-- Title: dependencies Pages: 1 -->
<svg width="1307pt" height="174pt"
 viewBox="0.00 0.00 1307.00 173.80" xmlns="http://www.w3.org/2000/svg" xmlns:xlink="http://www.w3.org/1999/xlink">
<g id="graph0" class="graph" transform="scale(1 1) rotate(0) translate(4 169.8)">
<title>dependencies</title>
<polygon fill="white" stroke="transparent" points="-4,4 -4,-169.8 1303,-169.8 1303,4 -4,4"/>
<text text-anchor="middle" x="649.5" y="-8.2" font-family="sans-serif" font-size="14.00">dependencies</text>
<g id="clust1" class="cluster">
<title>cluster_LearnroomModule</title>
<polygon fill="none" stroke="black" stroke-dasharray="1,5" points="8,-32.8 8,-157.8 1291,-157.8 1291,-32.8 8,-32.8"/>
</g>
<g id="clust6" class="cluster">
<title>cluster_LearnroomModule_providers</title>
<polygon fill="none" stroke="black" points="16,-40.8 16,-92.8 1283,-92.8 1283,-40.8 16,-40.8"/>
</g>
<!-- BoardMapper -->
<g id="node1" class="node">
<title>BoardMapper</title>
<ellipse fill="#fdb462" stroke="black" cx="1210" cy="-66.8" rx="64.83" ry="18"/>
<text text-anchor="middle" x="1210" y="-62.6" font-family="Times,serif" font-size="14.00">BoardMapper</text>
</g>
<!-- LearnroomModule -->
<g id="node10" class="node">
<title>LearnroomModule</title>
<polygon fill="#8dd3c7" stroke="black" points="637.74,-149.8 634.74,-153.8 613.74,-153.8 610.74,-149.8 516.26,-149.8 516.26,-113.8 637.74,-113.8 637.74,-149.8"/>
<text text-anchor="middle" x="577" y="-127.6" font-family="Times,serif" font-size="14.00">LearnroomModule</text>
</g>
<!-- BoardMapper&#45;&gt;LearnroomModule -->
<g id="edge1" class="edge">
<title>BoardMapper&#45;&gt;LearnroomModule</title>
<path fill="none" stroke="black" d="M1210,-84.81C1210,-107.29 1210,-142.8 1210,-142.8 1210,-142.8 647.98,-142.8 647.98,-142.8"/>
<polygon fill="black" stroke="black" points="647.98,-139.3 637.98,-142.8 647.98,-146.3 647.98,-139.3"/>
</g>
<!-- CourseRepo -->
<g id="node2" class="node">
<title>CourseRepo</title>
<ellipse fill="#fdb462" stroke="black" cx="1069" cy="-66.8" rx="58.55" ry="18"/>
<text text-anchor="middle" x="1069" y="-62.6" font-family="Times,serif" font-size="14.00">CourseRepo</text>
</g>
<!-- CourseRepo&#45;&gt;LearnroomModule -->
<g id="edge2" class="edge">
<title>CourseRepo&#45;&gt;LearnroomModule</title>
<path fill="none" stroke="black" d="M1069,-84.93C1069,-105.37 1069,-135.8 1069,-135.8 1069,-135.8 647.82,-135.8 647.82,-135.8"/>
<polygon fill="black" stroke="black" points="647.82,-132.3 637.82,-135.8 647.82,-139.3 647.82,-132.3"/>
</g>
<!-- CourseUc -->
<g id="node3" class="node">
<title>CourseUc</title>
<ellipse fill="#fdb462" stroke="black" cx="943" cy="-66.8" rx="49.8" ry="18"/>
<text text-anchor="middle" x="943" y="-62.6" font-family="Times,serif" font-size="14.00">CourseUc</text>
</g>
<!-- CourseUc&#45;&gt;LearnroomModule -->
<g id="edge3" class="edge">
<title>CourseUc&#45;&gt;LearnroomModule</title>
<path fill="none" stroke="black" d="M943,-85.07C943,-103.36 943,-128.8 943,-128.8 943,-128.8 647.85,-128.8 647.85,-128.8"/>
<polygon fill="black" stroke="black" points="647.85,-125.3 637.85,-128.8 647.85,-132.3 647.85,-125.3"/>
</g>
<!-- DashboardModelMapper -->
<g id="node4" class="node">
<title>DashboardModelMapper</title>
<ellipse fill="#fdb462" stroke="black" cx="767" cy="-66.8" rx="108.21" ry="18"/>
<text text-anchor="middle" x="767" y="-62.6" font-family="Times,serif" font-size="14.00">DashboardModelMapper</text>
</g>
<!-- DashboardModelMapper&#45;&gt;LearnroomModule -->
<g id="edge4" class="edge">
<title>DashboardModelMapper&#45;&gt;LearnroomModule</title>
<path fill="none" stroke="black" d="M767,-84.81C767,-100.85 767,-121.8 767,-121.8 767,-121.8 647.9,-121.8 647.9,-121.8"/>
<polygon fill="black" stroke="black" points="647.9,-118.3 637.9,-121.8 647.9,-125.3 647.9,-118.3"/>
</g>
<!-- DashboardUc -->
<g id="node5" class="node">
<title>DashboardUc</title>
<ellipse fill="#fdb462" stroke="black" cx="577" cy="-66.8" rx="64.25" ry="18"/>
<text text-anchor="middle" x="577" y="-62.6" font-family="Times,serif" font-size="14.00">DashboardUc</text>
</g>
<!-- DashboardUc&#45;&gt;LearnroomModule -->
<g id="edge5" class="edge">
<title>DashboardUc&#45;&gt;LearnroomModule</title>
<path fill="none" stroke="black" d="M577,-84.91C577,-84.91 577,-103.79 577,-103.79"/>
<polygon fill="black" stroke="black" points="573.5,-103.79 577,-113.79 580.5,-103.79 573.5,-103.79"/>
</g>
<!-- LessonRepo -->
<g id="node6" class="node">
<title>LessonRepo</title>
<ellipse fill="#fdb462" stroke="black" cx="436" cy="-66.8" rx="58.55" ry="18"/>
<text text-anchor="middle" x="436" y="-62.6" font-family="Times,serif" font-size="14.00">LessonRepo</text>
</g>
<!-- LessonRepo&#45;&gt;LearnroomModule -->
<g id="edge6" class="edge">
<title>LessonRepo&#45;&gt;LearnroomModule</title>
<path fill="none" stroke="black" d="M436,-84.81C436,-100.85 436,-121.8 436,-121.8 436,-121.8 505.98,-121.8 505.98,-121.8"/>
<polygon fill="black" stroke="black" points="505.98,-125.3 515.98,-121.8 505.98,-118.3 505.98,-125.3"/>
</g>
<!-- RoomsUc -->
<g id="node7" class="node">
<title>RoomsUc</title>
<ellipse fill="#fdb462" stroke="black" cx="310" cy="-66.8" rx="49.82" ry="18"/>
<text text-anchor="middle" x="310" y="-62.6" font-family="Times,serif" font-size="14.00">RoomsUc</text>
</g>
<!-- RoomsUc&#45;&gt;LearnroomModule -->
<g id="edge7" class="edge">
<title>RoomsUc&#45;&gt;LearnroomModule</title>
<path fill="none" stroke="black" d="M310,-85.07C310,-103.36 310,-128.8 310,-128.8 310,-128.8 506.08,-128.8 506.08,-128.8"/>
<polygon fill="black" stroke="black" points="506.08,-132.3 516.08,-128.8 506.08,-125.3 506.08,-132.3"/>
</g>
<!-- TaskRepo -->
<g id="node8" class="node">
<title>TaskRepo</title>
<ellipse fill="#fdb462" stroke="black" cx="192" cy="-66.8" rx="50.38" ry="18"/>
<text text-anchor="middle" x="192" y="-62.6" font-family="Times,serif" font-size="14.00">TaskRepo</text>
</g>
<!-- TaskRepo&#45;&gt;LearnroomModule -->
<g id="edge8" class="edge">
<title>TaskRepo&#45;&gt;LearnroomModule</title>
<path fill="none" stroke="black" d="M192,-84.93C192,-105.37 192,-135.8 192,-135.8 192,-135.8 506,-135.8 506,-135.8"/>
<polygon fill="black" stroke="black" points="506,-139.3 516,-135.8 506,-132.3 506,-139.3"/>
</g>
<!-- UserRepo -->
<g id="node9" class="node">
<title>UserRepo</title>
<ellipse fill="#fdb462" stroke="black" cx="74" cy="-66.8" rx="49.8" ry="18"/>
<text text-anchor="middle" x="74" y="-62.6" font-family="Times,serif" font-size="14.00">UserRepo</text>
</g>
<!-- UserRepo&#45;&gt;LearnroomModule -->
<g id="edge9" class="edge">
<title>UserRepo&#45;&gt;LearnroomModule</title>
<path fill="none" stroke="black" d="M74,-84.81C74,-107.29 74,-142.8 74,-142.8 74,-142.8 506.08,-142.8 506.08,-142.8"/>
<polygon fill="black" stroke="black" points="506.08,-146.3 516.08,-142.8 506.08,-139.3 506.08,-146.3"/>
</g>
</g>
</svg>
