<?xml version="1.0" encoding="UTF-8" standalone="no"?>
<!DOCTYPE svg PUBLIC "-//W3C//DTD SVG 1.1//EN"
 "http://www.w3.org/Graphics/SVG/1.1/DTD/svg11.dtd">
<!-- Generated by graphviz version 3.0.0 (20220226.1711)
 -->
<!-- Title: dependencies Pages: 1 -->
<svg width="3637pt" height="174pt"
 viewBox="0.00 0.00 3637.00 173.80" xmlns="http://www.w3.org/2000/svg" xmlns:xlink="http://www.w3.org/1999/xlink">
<g id="graph0" class="graph" transform="scale(1 1) rotate(0) translate(4 169.8)">
<title>dependencies</title>
<polygon fill="white" stroke="transparent" points="-4,4 -4,-169.8 3633,-169.8 3633,4 -4,4"/>
<text text-anchor="middle" x="1814.5" y="-8.2" font-family="sans-serif" font-size="14.00">dependencies</text>
<g id="clust1" class="cluster">
<title>cluster_LearnroomModule</title>
<polygon fill="none" stroke="black" stroke-dasharray="1,5" points="8,-32.8 8,-157.8 3621,-157.8 3621,-32.8 8,-32.8"/>
</g>
<g id="clust6" class="cluster">
<title>cluster_LearnroomModule_providers</title>
<polygon fill="none" stroke="black" points="178,-40.8 178,-92.8 3613,-92.8 3613,-40.8 178,-40.8"/>
</g>
<g id="clust3" class="cluster">
<title>cluster_LearnroomModule_imports</title>
<polygon fill="none" stroke="black" points="16,-40.8 16,-92.8 170,-92.8 170,-40.8 16,-40.8"/>
</g>
<!-- AuthorizationModule -->
<g id="node1" class="node">
<title>AuthorizationModule</title>
<polygon fill="#8dd3c7" stroke="black" points="161.81,-84.8 158.81,-88.8 137.81,-88.8 134.81,-84.8 24.19,-84.8 24.19,-48.8 161.81,-48.8 161.81,-84.8"/>
<text text-anchor="middle" x="93" y="-62.6" font-family="Times,serif" font-size="14.00">AuthorizationModule</text>
</g>
<!-- LearnroomModule -->
<g id="node2" class="node">
<title>LearnroomModule</title>
<polygon fill="#8dd3c7" stroke="black" points="1899.75,-149.8 1896.75,-153.8 1875.75,-153.8 1872.75,-149.8 1778.25,-149.8 1778.25,-113.8 1899.75,-113.8 1899.75,-149.8"/>
<text text-anchor="middle" x="1839" y="-127.6" font-family="Times,serif" font-size="14.00">LearnroomModule</text>
</g>
<!-- AuthorizationModule&#45;&gt;LearnroomModule -->
<g id="edge1" class="edge">
<title>AuthorizationModule&#45;&gt;LearnroomModule</title>
<path fill="none" stroke="black" d="M93,-84.95C93,-108.56 93,-146.8 93,-146.8 93,-146.8 1768.14,-146.8 1768.14,-146.8"/>
<polygon fill="black" stroke="black" points="1768.14,-150.3 1778.14,-146.8 1768.14,-143.3 1768.14,-150.3"/>
</g>
<!-- BoardCopyService -->
<g id="node3" class="node">
<title>BoardCopyService</title>
<ellipse fill="#fdb462" stroke="black" cx="3520" cy="-66.8" rx="84.54" ry="18"/>
<text text-anchor="middle" x="3520" y="-62.6" font-family="Times,serif" font-size="14.00">BoardCopyService</text>
</g>
<!-- BoardCopyService&#45;&gt;LearnroomModule -->
<g id="edge2" class="edge">
<title>BoardCopyService&#45;&gt;LearnroomModule</title>
<path fill="none" stroke="black" d="M3520,-84.95C3520,-108.56 3520,-146.8 3520,-146.8 3520,-146.8 1909.82,-146.8 1909.82,-146.8"/>
<polygon fill="black" stroke="black" points="1909.82,-143.3 1899.82,-146.8 1909.82,-150.3 1909.82,-143.3"/>
</g>
<!-- BoardRepo -->
<g id="node4" class="node">
<title>BoardRepo</title>
<ellipse fill="#fdb462" stroke="black" cx="3362" cy="-66.8" rx="55.04" ry="18"/>
<text text-anchor="middle" x="3362" y="-62.6" font-family="Times,serif" font-size="14.00">BoardRepo</text>
</g>
<!-- BoardRepo&#45;&gt;LearnroomModule -->
<g id="edge3" class="edge">
<title>BoardRepo&#45;&gt;LearnroomModule</title>
<path fill="none" stroke="black" d="M3362,-85.05C3362,-107.82 3362,-143.8 3362,-143.8 3362,-143.8 1910.12,-143.8 1910.12,-143.8"/>
<polygon fill="black" stroke="black" points="1910.12,-140.3 1900.12,-143.8 1910.12,-147.3 1910.12,-140.3"/>
</g>
<!-- CopyHelperService -->
<g id="node5" class="node">
<title>CopyHelperService</title>
<ellipse fill="#fdb462" stroke="black" cx="3202" cy="-66.8" rx="87.39" ry="18"/>
<text text-anchor="middle" x="3202" y="-62.6" font-family="Times,serif" font-size="14.00">CopyHelperService</text>
</g>
<!-- CopyHelperService&#45;&gt;LearnroomModule -->
<g id="edge4" class="edge">
<title>CopyHelperService&#45;&gt;LearnroomModule</title>
<path fill="none" stroke="black" d="M3202,-85.09C3202,-107.01 3202,-140.8 3202,-140.8 3202,-140.8 1909.77,-140.8 1909.77,-140.8"/>
<polygon fill="black" stroke="black" points="1909.77,-137.3 1899.77,-140.8 1909.77,-144.3 1909.77,-137.3"/>
</g>
<!-- CourseCopyService -->
<g id="node6" class="node">
<title>CourseCopyService</title>
<ellipse fill="#fdb462" stroke="black" cx="3009" cy="-66.8" rx="88.06" ry="18"/>
<text text-anchor="middle" x="3009" y="-62.6" font-family="Times,serif" font-size="14.00">CourseCopyService</text>
</g>
<!-- CourseCopyService&#45;&gt;LearnroomModule -->
<g id="edge5" class="edge">
<title>CourseCopyService&#45;&gt;LearnroomModule</title>
<path fill="none" stroke="black" d="M3009,-84.83C3009,-105.57 3009,-136.8 3009,-136.8 3009,-136.8 1909.85,-136.8 1909.85,-136.8"/>
<polygon fill="black" stroke="black" points="1909.85,-133.3 1899.85,-136.8 1909.85,-140.3 1909.85,-133.3"/>
</g>
<!-- CourseCopyUC -->
<g id="node7" class="node">
<title>CourseCopyUC</title>
<ellipse fill="#fdb462" stroke="black" cx="2830" cy="-66.8" rx="72.97" ry="18"/>
<text text-anchor="middle" x="2830" y="-62.6" font-family="Times,serif" font-size="14.00">CourseCopyUC</text>
</g>
<!-- CourseCopyUC&#45;&gt;LearnroomModule -->
<g id="edge6" class="edge">
<title>CourseCopyUC&#45;&gt;LearnroomModule</title>
<path fill="none" stroke="black" d="M2830,-85.11C2830,-104.95 2830,-133.8 2830,-133.8 2830,-133.8 1909.87,-133.8 1909.87,-133.8"/>
<polygon fill="black" stroke="black" points="1909.87,-130.3 1899.87,-133.8 1909.87,-137.3 1909.87,-130.3"/>
</g>
<!-- CourseRepo -->
<g id="node8" class="node">
<title>CourseRepo</title>
<ellipse fill="#fdb462" stroke="black" cx="2680" cy="-66.8" rx="58.56" ry="18"/>
<text text-anchor="middle" x="2680" y="-62.6" font-family="Times,serif" font-size="14.00">CourseRepo</text>
</g>
<!-- CourseRepo&#45;&gt;LearnroomModule -->
<g id="edge7" class="edge">
<title>CourseRepo&#45;&gt;LearnroomModule</title>
<path fill="none" stroke="black" d="M2680,-84.97C2680,-103.89 2680,-130.8 2680,-130.8 2680,-130.8 1909.82,-130.8 1909.82,-130.8"/>
<polygon fill="black" stroke="black" points="1909.82,-127.3 1899.82,-130.8 1909.82,-134.3 1909.82,-127.3"/>
</g>
<!-- CourseUc -->
<g id="node9" class="node">
<title>CourseUc</title>
<ellipse fill="#fdb462" stroke="black" cx="2554" cy="-66.8" rx="49.81" ry="18"/>
<text text-anchor="middle" x="2554" y="-62.6" font-family="Times,serif" font-size="14.00">CourseUc</text>
</g>
<!-- CourseUc&#45;&gt;LearnroomModule -->
<g id="edge8" class="edge">
<title>CourseUc&#45;&gt;LearnroomModule</title>
<path fill="none" stroke="black" d="M2554,-85.1C2554,-103.07 2554,-127.8 2554,-127.8 2554,-127.8 1909.96,-127.8 1909.96,-127.8"/>
<polygon fill="black" stroke="black" points="1909.96,-124.3 1899.96,-127.8 1909.96,-131.3 1909.96,-124.3"/>
</g>
<!-- DashboardModelMapper -->
<g id="node10" class="node">
<title>DashboardModelMapper</title>
<ellipse fill="#fdb462" stroke="black" cx="2378" cy="-66.8" rx="108.23" ry="18"/>
<text text-anchor="middle" x="2378" y="-62.6" font-family="Times,serif" font-size="14.00">DashboardModelMapper</text>
</g>
<!-- DashboardModelMapper&#45;&gt;LearnroomModule -->
<g id="edge9" class="edge">
<title>DashboardModelMapper&#45;&gt;LearnroomModule</title>
<path fill="none" stroke="black" d="M2378,-84.84C2378,-101.53 2378,-123.8 2378,-123.8 2378,-123.8 1909.78,-123.8 1909.78,-123.8"/>
<polygon fill="black" stroke="black" points="1909.78,-120.3 1899.78,-123.8 1909.78,-127.3 1909.78,-120.3"/>
</g>
<!-- DashboardUc -->
<g id="node11" class="node">
<title>DashboardUc</title>
<ellipse fill="#fdb462" stroke="black" cx="2188" cy="-66.8" rx="64.26" ry="18"/>
<text text-anchor="middle" x="2188" y="-62.6" font-family="Times,serif" font-size="14.00">DashboardUc</text>
</g>
<!-- DashboardUc&#45;&gt;LearnroomModule -->
<g id="edge10" class="edge">
<title>DashboardUc&#45;&gt;LearnroomModule</title>
<path fill="none" stroke="black" d="M2188,-85.08C2188,-100.75 2188,-120.8 2188,-120.8 2188,-120.8 1909.79,-120.8 1909.79,-120.8"/>
<polygon fill="black" stroke="black" points="1909.79,-117.3 1899.79,-120.8 1909.79,-124.3 1909.79,-117.3"/>
</g>
<!-- LessonCopyService -->
<g id="node12" class="node">
<title>LessonCopyService</title>
<ellipse fill="#fdb462" stroke="black" cx="2018" cy="-66.8" rx="88.06" ry="18"/>
<text text-anchor="middle" x="2018" y="-62.6" font-family="Times,serif" font-size="14.00">LessonCopyService</text>
</g>
<!-- LessonCopyService&#45;&gt;LearnroomModule -->
<g id="edge11" class="edge">
<title>LessonCopyService&#45;&gt;LearnroomModule</title>
<path fill="none" stroke="black" d="M2018,-84.92C2018,-99.58 2018,-117.8 2018,-117.8 2018,-117.8 1909.85,-117.8 1909.85,-117.8"/>
<polygon fill="black" stroke="black" points="1909.85,-114.3 1899.85,-117.8 1909.85,-121.3 1909.85,-114.3"/>
</g>
<!-- LessonCopyUC -->
<g id="node13" class="node">
<title>LessonCopyUC</title>
<ellipse fill="#fdb462" stroke="black" cx="1839" cy="-66.8" rx="72.97" ry="18"/>
<text text-anchor="middle" x="1839" y="-62.6" font-family="Times,serif" font-size="14.00">LessonCopyUC</text>
</g>
<!-- LessonCopyUC&#45;&gt;LearnroomModule -->
<g id="edge12" class="edge">
<title>LessonCopyUC&#45;&gt;LearnroomModule</title>
<path fill="none" stroke="black" d="M1839,-84.91C1839,-84.91 1839,-103.79 1839,-103.79"/>
<polygon fill="black" stroke="black" points="1835.5,-103.79 1839,-113.79 1842.5,-103.79 1835.5,-103.79"/>
</g>
<!-- LessonRepo -->
<g id="node14" class="node">
<title>LessonRepo</title>
<ellipse fill="#fdb462" stroke="black" cx="1689" cy="-66.8" rx="58.56" ry="18"/>
<text text-anchor="middle" x="1689" y="-62.6" font-family="Times,serif" font-size="14.00">LessonRepo</text>
</g>
<!-- LessonRepo&#45;&gt;LearnroomModule -->
<g id="edge13" class="edge">
<title>LessonRepo&#45;&gt;LearnroomModule</title>
<path fill="none" stroke="black" d="M1689,-84.92C1689,-99.58 1689,-117.8 1689,-117.8 1689,-117.8 1767.99,-117.8 1767.99,-117.8"/>
<polygon fill="black" stroke="black" points="1767.99,-121.3 1777.99,-117.8 1767.99,-114.3 1767.99,-121.3"/>
</g>
<!-- RoomBoardDTOFactory -->
<g id="node15" class="node">
<title>RoomBoardDTOFactory</title>
<ellipse fill="#fdb462" stroke="black" cx="1505" cy="-66.8" rx="107.68" ry="18"/>
<text text-anchor="middle" x="1505" y="-62.6" font-family="Times,serif" font-size="14.00">RoomBoardDTOFactory</text>
</g>
<!-- RoomBoardDTOFactory&#45;&gt;LearnroomModule -->
<g id="edge14" class="edge">
<title>RoomBoardDTOFactory&#45;&gt;LearnroomModule</title>
<path fill="none" stroke="black" d="M1505,-85.08C1505,-100.75 1505,-120.8 1505,-120.8 1505,-120.8 1768.13,-120.8 1768.13,-120.8"/>
<polygon fill="black" stroke="black" points="1768.13,-124.3 1778.13,-120.8 1768.13,-117.3 1768.13,-124.3"/>
</g>
<!-- RoomBoardResponseMapper -->
<g id="node16" class="node">
<title>RoomBoardResponseMapper</title>
<ellipse fill="#fdb462" stroke="black" cx="1254" cy="-66.8" rx="125.09" ry="18"/>
<text text-anchor="middle" x="1254" y="-62.6" font-family="Times,serif" font-size="14.00">RoomBoardResponseMapper</text>
</g>
<!-- RoomBoardResponseMapper&#45;&gt;LearnroomModule -->
<g id="edge15" class="edge">
<title>RoomBoardResponseMapper&#45;&gt;LearnroomModule</title>
<path fill="none" stroke="black" d="M1254,-84.84C1254,-101.53 1254,-123.8 1254,-123.8 1254,-123.8 1768.05,-123.8 1768.05,-123.8"/>
<polygon fill="black" stroke="black" points="1768.05,-127.3 1778.05,-123.8 1768.05,-120.3 1768.05,-127.3"/>
</g>
<!-- RoomsAuthorisationService -->
<g id="node17" class="node">
<title>RoomsAuthorisationService</title>
<ellipse fill="#fdb462" stroke="black" cx="990" cy="-66.8" rx="120.44" ry="18"/>
<text text-anchor="middle" x="990" y="-62.6" font-family="Times,serif" font-size="14.00">RoomsAuthorisationService</text>
</g>
<!-- RoomsAuthorisationService&#45;&gt;LearnroomModule -->
<g id="edge16" class="edge">
<title>RoomsAuthorisationService&#45;&gt;LearnroomModule</title>
<path fill="none" stroke="black" d="M990,-85.1C990,-103.07 990,-127.8 990,-127.8 990,-127.8 1767.94,-127.8 1767.94,-127.8"/>
<polygon fill="black" stroke="black" points="1767.94,-131.3 1777.94,-127.8 1767.94,-124.3 1767.94,-131.3"/>
</g>
<!-- RoomsService -->
<g id="node18" class="node">
<title>RoomsService</title>
<ellipse fill="#fdb462" stroke="black" cx="784" cy="-66.8" rx="67.22" ry="18"/>
<text text-anchor="middle" x="784" y="-62.6" font-family="Times,serif" font-size="14.00">RoomsService</text>
</g>
<!-- RoomsService&#45;&gt;LearnroomModule -->
<g id="edge17" class="edge">
<title>RoomsService&#45;&gt;LearnroomModule</title>
<path fill="none" stroke="black" d="M784,-84.97C784,-103.89 784,-130.8 784,-130.8 784,-130.8 1768.1,-130.8 1768.1,-130.8"/>
<polygon fill="black" stroke="black" points="1768.1,-134.3 1778.1,-130.8 1768.1,-127.3 1768.1,-134.3"/>
</g>
<!-- RoomsUc -->
<g id="node19" class="node">
<title>RoomsUc</title>
<ellipse fill="#fdb462" stroke="black" cx="649" cy="-66.8" rx="49.83" ry="18"/>
<text text-anchor="middle" x="649" y="-62.6" font-family="Times,serif" font-size="14.00">RoomsUc</text>
</g>
<!-- RoomsUc&#45;&gt;LearnroomModule -->
<g id="edge18" class="edge">
<title>RoomsUc&#45;&gt;LearnroomModule</title>
<path fill="none" stroke="black" d="M649,-85.11C649,-104.95 649,-133.8 649,-133.8 649,-133.8 1767.94,-133.8 1767.94,-133.8"/>
<polygon fill="black" stroke="black" points="1767.94,-137.3 1777.94,-133.8 1767.94,-130.3 1767.94,-137.3"/>
</g>
<!-- TaskCopyService -->
<g id="node20" class="node">
<title>TaskCopyService</title>
<ellipse fill="#fdb462" stroke="black" cx="502" cy="-66.8" rx="79.88" ry="18"/>
<text text-anchor="middle" x="502" y="-62.6" font-family="Times,serif" font-size="14.00">TaskCopyService</text>
</g>
<!-- TaskCopyService&#45;&gt;LearnroomModule -->
<g id="edge19" class="edge">
<title>TaskCopyService&#45;&gt;LearnroomModule</title>
<path fill="none" stroke="black" d="M502,-84.83C502,-105.57 502,-136.8 502,-136.8 502,-136.8 1768.08,-136.8 1768.08,-136.8"/>
<polygon fill="black" stroke="black" points="1768.08,-140.3 1778.08,-136.8 1768.08,-133.3 1768.08,-140.3"/>
</g>
<!-- TaskRepo -->
<g id="node21" class="node">
<title>TaskRepo</title>
<ellipse fill="#fdb462" stroke="black" cx="354" cy="-66.8" rx="50.39" ry="18"/>
<text text-anchor="middle" x="354" y="-62.6" font-family="Times,serif" font-size="14.00">TaskRepo</text>
</g>
<!-- TaskRepo&#45;&gt;LearnroomModule -->
<g id="edge20" class="edge">
<title>TaskRepo&#45;&gt;LearnroomModule</title>
<path fill="none" stroke="black" d="M354,-85.09C354,-107.01 354,-140.8 354,-140.8 354,-140.8 1768.02,-140.8 1768.02,-140.8"/>
<polygon fill="black" stroke="black" points="1768.02,-144.3 1778.02,-140.8 1768.02,-137.3 1768.02,-144.3"/>
</g>
<!-- UserRepo -->
<g id="node22" class="node">
<title>UserRepo</title>
<ellipse fill="#fdb462" stroke="black" cx="236" cy="-66.8" rx="49.81" ry="18"/>
<text text-anchor="middle" x="236" y="-62.6" font-family="Times,serif" font-size="14.00">UserRepo</text>
</g>
<!-- UserRepo&#45;&gt;LearnroomModule -->
<g id="edge21" class="edge">
<title>UserRepo&#45;&gt;LearnroomModule</title>
<path fill="none" stroke="black" d="M236,-85.05C236,-107.82 236,-143.8 236,-143.8 236,-143.8 1768.12,-143.8 1768.12,-143.8"/>
<polygon fill="black" stroke="black" points="1768.12,-147.3 1778.12,-143.8 1768.12,-140.3 1768.12,-147.3"/>
</g>
</g>
</svg>
