<?xml version="1.0" encoding="UTF-8" standalone="no"?>
<!DOCTYPE svg PUBLIC "-//W3C//DTD SVG 1.1//EN"
 "http://www.w3.org/Graphics/SVG/1.1/DTD/svg11.dtd">
<!-- Generated by graphviz version 3.0.0 (20220226.1711)
 -->
<!-- Title: dependencies Pages: 1 -->
<svg width="3468pt" height="174pt"
 viewBox="0.00 0.00 3468.00 173.80" xmlns="http://www.w3.org/2000/svg" xmlns:xlink="http://www.w3.org/1999/xlink">
<g id="graph0" class="graph" transform="scale(1 1) rotate(0) translate(4 169.8)">
<title>dependencies</title>
<polygon fill="white" stroke="transparent" points="-4,4 -4,-169.8 3464,-169.8 3464,4 -4,4"/>
<text text-anchor="middle" x="1730" y="-8.2" font-family="sans-serif" font-size="14.00">dependencies</text>
<g id="clust1" class="cluster">
<title>cluster_LearnroomModule</title>
<polygon fill="none" stroke="black" stroke-dasharray="1,5" points="8,-32.8 8,-157.8 3452,-157.8 3452,-32.8 8,-32.8"/>
</g>
<g id="clust3" class="cluster">
<title>cluster_LearnroomModule_imports</title>
<polygon fill="none" stroke="black" points="3290,-40.8 3290,-92.8 3444,-92.8 3444,-40.8 3290,-40.8"/>
</g>
<g id="clust6" class="cluster">
<title>cluster_LearnroomModule_providers</title>
<polygon fill="none" stroke="black" points="16,-40.8 16,-92.8 3282,-92.8 3282,-40.8 16,-40.8"/>
</g>
<!-- AuthorizationModule -->
<g id="node1" class="node">
<title>AuthorizationModule</title>
<polygon fill="#8dd3c7" stroke="black" points="3435.81,-84.8 3432.81,-88.8 3411.81,-88.8 3408.81,-84.8 3298.19,-84.8 3298.19,-48.8 3435.81,-48.8 3435.81,-84.8"/>
<text text-anchor="middle" x="3367" y="-62.6" font-family="Times,serif" font-size="14.00">AuthorizationModule</text>
</g>
<!-- LearnroomModule -->
<g id="node2" class="node">
<title>LearnroomModule</title>
<polygon fill="#8dd3c7" stroke="black" points="1856.75,-149.8 1853.75,-153.8 1832.75,-153.8 1829.75,-149.8 1735.25,-149.8 1735.25,-113.8 1856.75,-113.8 1856.75,-149.8"/>
<text text-anchor="middle" x="1796" y="-127.6" font-family="Times,serif" font-size="14.00">LearnroomModule</text>
</g>
<!-- AuthorizationModule&#45;&gt;LearnroomModule -->
<g id="edge1" class="edge">
<title>AuthorizationModule&#45;&gt;LearnroomModule</title>
<path fill="none" stroke="black" d="M3367,-84.95C3367,-108.56 3367,-146.8 3367,-146.8 3367,-146.8 1867.1,-146.8 1867.1,-146.8"/>
<polygon fill="black" stroke="black" points="1867.1,-143.3 1857.1,-146.8 1867.1,-150.3 1867.1,-143.3"/>
</g>
<!-- BoardCopyService -->
<g id="node3" class="node">
<title>BoardCopyService</title>
<ellipse fill="#fdb462" stroke="black" cx="3189" cy="-66.8" rx="84.54" ry="18"/>
<text text-anchor="middle" x="3189" y="-62.6" font-family="Times,serif" font-size="14.00">BoardCopyService</text>
</g>
<!-- BoardCopyService&#45;&gt;LearnroomModule -->
<g id="edge2" class="edge">
<title>BoardCopyService&#45;&gt;LearnroomModule</title>
<path fill="none" stroke="black" d="M3189,-84.81C3189,-107.29 3189,-142.8 3189,-142.8 3189,-142.8 1866.75,-142.8 1866.75,-142.8"/>
<polygon fill="black" stroke="black" points="1866.75,-139.3 1856.75,-142.8 1866.75,-146.3 1866.75,-139.3"/>
</g>
<!-- BoardRepo -->
<g id="node4" class="node">
<title>BoardRepo</title>
<ellipse fill="#fdb462" stroke="black" cx="3031" cy="-66.8" rx="55.04" ry="18"/>
<text text-anchor="middle" x="3031" y="-62.6" font-family="Times,serif" font-size="14.00">BoardRepo</text>
</g>
<!-- BoardRepo&#45;&gt;LearnroomModule -->
<g id="edge3" class="edge">
<title>BoardRepo&#45;&gt;LearnroomModule</title>
<path fill="none" stroke="black" d="M3031,-84.84C3031,-106.46 3031,-139.8 3031,-139.8 3031,-139.8 1866.82,-139.8 1866.82,-139.8"/>
<polygon fill="black" stroke="black" points="1866.82,-136.3 1856.82,-139.8 1866.82,-143.3 1866.82,-136.3"/>
</g>
<!-- CourseCopyService -->
<g id="node5" class="node">
<title>CourseCopyService</title>
<ellipse fill="#fdb462" stroke="black" cx="2870" cy="-66.8" rx="88.06" ry="18"/>
<text text-anchor="middle" x="2870" y="-62.6" font-family="Times,serif" font-size="14.00">CourseCopyService</text>
</g>
<!-- CourseCopyService&#45;&gt;LearnroomModule -->
<g id="edge4" class="edge">
<title>CourseCopyService&#45;&gt;LearnroomModule</title>
<path fill="none" stroke="black" d="M2870,-84.93C2870,-105.37 2870,-135.8 2870,-135.8 2870,-135.8 1866.82,-135.8 1866.82,-135.8"/>
<polygon fill="black" stroke="black" points="1866.82,-132.3 1856.82,-135.8 1866.82,-139.3 1866.82,-132.3"/>
</g>
<!-- CourseCopyUC -->
<g id="node6" class="node">
<title>CourseCopyUC</title>
<ellipse fill="#fdb462" stroke="black" cx="2691" cy="-66.8" rx="72.97" ry="18"/>
<text text-anchor="middle" x="2691" y="-62.6" font-family="Times,serif" font-size="14.00">CourseCopyUC</text>
</g>
<!-- CourseCopyUC&#45;&gt;LearnroomModule -->
<g id="edge5" class="edge">
<title>CourseCopyUC&#45;&gt;LearnroomModule</title>
<path fill="none" stroke="black" d="M2691,-84.91C2691,-104.14 2691,-131.8 2691,-131.8 2691,-131.8 1866.81,-131.8 1866.81,-131.8"/>
<polygon fill="black" stroke="black" points="1866.81,-128.3 1856.81,-131.8 1866.81,-135.3 1866.81,-128.3"/>
</g>
<!-- CourseRepo -->
<g id="node7" class="node">
<title>CourseRepo</title>
<ellipse fill="#fdb462" stroke="black" cx="2541" cy="-66.8" rx="58.56" ry="18"/>
<text text-anchor="middle" x="2541" y="-62.6" font-family="Times,serif" font-size="14.00">CourseRepo</text>
</g>
<!-- CourseRepo&#45;&gt;LearnroomModule -->
<g id="edge6" class="edge">
<title>CourseRepo&#45;&gt;LearnroomModule</title>
<path fill="none" stroke="black" d="M2541,-85.07C2541,-103.36 2541,-128.8 2541,-128.8 2541,-128.8 1866.97,-128.8 1866.97,-128.8"/>
<polygon fill="black" stroke="black" points="1866.97,-125.3 1856.97,-128.8 1866.97,-132.3 1866.97,-125.3"/>
</g>
<!-- CourseUc -->
<g id="node8" class="node">
<title>CourseUc</title>
<ellipse fill="#fdb462" stroke="black" cx="2415" cy="-66.8" rx="49.81" ry="18"/>
<text text-anchor="middle" x="2415" y="-62.6" font-family="Times,serif" font-size="14.00">CourseUc</text>
</g>
<!-- CourseUc&#45;&gt;LearnroomModule -->
<g id="edge7" class="edge">
<title>CourseUc&#45;&gt;LearnroomModule</title>
<path fill="none" stroke="black" d="M2415,-84.83C2415,-101.86 2415,-124.8 2415,-124.8 2415,-124.8 1866.76,-124.8 1866.76,-124.8"/>
<polygon fill="black" stroke="black" points="1866.76,-121.3 1856.76,-124.8 1866.76,-128.3 1866.76,-121.3"/>
</g>
<!-- DashboardModelMapper -->
<g id="node9" class="node">
<title>DashboardModelMapper</title>
<ellipse fill="#fdb462" stroke="black" cx="2239" cy="-66.8" rx="108.23" ry="18"/>
<text text-anchor="middle" x="2239" y="-62.6" font-family="Times,serif" font-size="14.00">DashboardModelMapper</text>
</g>
<!-- DashboardModelMapper&#45;&gt;LearnroomModule -->
<g id="edge8" class="edge">
<title>DashboardModelMapper&#45;&gt;LearnroomModule</title>
<path fill="none" stroke="black" d="M2239,-84.81C2239,-100.85 2239,-121.8 2239,-121.8 2239,-121.8 1867.13,-121.8 1867.13,-121.8"/>
<polygon fill="black" stroke="black" points="1867.13,-118.3 1857.13,-121.8 1867.13,-125.3 1867.13,-118.3"/>
</g>
<!-- DashboardUc -->
<g id="node10" class="node">
<title>DashboardUc</title>
<ellipse fill="#fdb462" stroke="black" cx="2049" cy="-66.8" rx="64.26" ry="18"/>
<text text-anchor="middle" x="2049" y="-62.6" font-family="Times,serif" font-size="14.00">DashboardUc</text>
</g>
<!-- DashboardUc&#45;&gt;LearnroomModule -->
<g id="edge9" class="edge">
<title>DashboardUc&#45;&gt;LearnroomModule</title>
<path fill="none" stroke="black" d="M2049,-84.92C2049,-99.58 2049,-117.8 2049,-117.8 2049,-117.8 1866.92,-117.8 1866.92,-117.8"/>
<polygon fill="black" stroke="black" points="1866.92,-114.3 1856.92,-117.8 1866.92,-121.3 1866.92,-114.3"/>
</g>
<!-- LessonCopyService -->
<g id="node11" class="node">
<title>LessonCopyService</title>
<ellipse fill="#fdb462" stroke="black" cx="1879" cy="-66.8" rx="88.06" ry="18"/>
<text text-anchor="middle" x="1879" y="-62.6" font-family="Times,serif" font-size="14.00">LessonCopyService</text>
</g>
<!-- LessonCopyService&#45;&gt;LearnroomModule -->
<g id="edge10" class="edge">
<title>LessonCopyService&#45;&gt;LearnroomModule</title>
<path fill="none" stroke="black" d="M1823.8,-80.9C1823.8,-80.9 1823.8,-103.52 1823.8,-103.52"/>
<polygon fill="black" stroke="black" points="1820.3,-103.52 1823.8,-113.52 1827.3,-103.52 1820.3,-103.52"/>
</g>
<!-- LessonRepo -->
<g id="node12" class="node">
<title>LessonRepo</title>
<ellipse fill="#fdb462" stroke="black" cx="1714" cy="-66.8" rx="58.56" ry="18"/>
<text text-anchor="middle" x="1714" y="-62.6" font-family="Times,serif" font-size="14.00">LessonRepo</text>
</g>
<!-- LessonRepo&#45;&gt;LearnroomModule -->
<g id="edge11" class="edge">
<title>LessonRepo&#45;&gt;LearnroomModule</title>
<path fill="none" stroke="black" d="M1753.95,-80.27C1753.95,-80.27 1753.95,-103.66 1753.95,-103.66"/>
<polygon fill="black" stroke="black" points="1750.45,-103.66 1753.95,-113.66 1757.45,-103.66 1750.45,-103.66"/>
</g>
<!-- NameCopyService -->
<g id="node13" class="node">
<title>NameCopyService</title>
<ellipse fill="#fdb462" stroke="black" cx="1553" cy="-66.8" rx="83.96" ry="18"/>
<text text-anchor="middle" x="1553" y="-62.6" font-family="Times,serif" font-size="14.00">NameCopyService</text>
</g>
<!-- NameCopyService&#45;&gt;LearnroomModule -->
<g id="edge12" class="edge">
<title>NameCopyService&#45;&gt;LearnroomModule</title>
<path fill="none" stroke="black" d="M1553,-84.92C1553,-99.58 1553,-117.8 1553,-117.8 1553,-117.8 1724.99,-117.8 1724.99,-117.8"/>
<polygon fill="black" stroke="black" points="1724.99,-121.3 1734.99,-117.8 1724.99,-114.3 1724.99,-121.3"/>
</g>
<!-- RoomBoardDTOFactory -->
<g id="node14" class="node">
<title>RoomBoardDTOFactory</title>
<ellipse fill="#fdb462" stroke="black" cx="1343" cy="-66.8" rx="107.68" ry="18"/>
<text text-anchor="middle" x="1343" y="-62.6" font-family="Times,serif" font-size="14.00">RoomBoardDTOFactory</text>
</g>
<!-- RoomBoardDTOFactory&#45;&gt;LearnroomModule -->
<g id="edge13" class="edge">
<title>RoomBoardDTOFactory&#45;&gt;LearnroomModule</title>
<path fill="none" stroke="black" d="M1343,-84.81C1343,-100.85 1343,-121.8 1343,-121.8 1343,-121.8 1724.91,-121.8 1724.91,-121.8"/>
<polygon fill="black" stroke="black" points="1724.91,-125.3 1734.91,-121.8 1724.91,-118.3 1724.91,-125.3"/>
</g>
<!-- RoomBoardResponseMapper -->
<g id="node15" class="node">
<title>RoomBoardResponseMapper</title>
<ellipse fill="#fdb462" stroke="black" cx="1092" cy="-66.8" rx="125.09" ry="18"/>
<text text-anchor="middle" x="1092" y="-62.6" font-family="Times,serif" font-size="14.00">RoomBoardResponseMapper</text>
</g>
<!-- RoomBoardResponseMapper&#45;&gt;LearnroomModule -->
<g id="edge14" class="edge">
<title>RoomBoardResponseMapper&#45;&gt;LearnroomModule</title>
<path fill="none" stroke="black" d="M1092,-84.83C1092,-101.86 1092,-124.8 1092,-124.8 1092,-124.8 1725.06,-124.8 1725.06,-124.8"/>
<polygon fill="black" stroke="black" points="1725.06,-128.3 1735.06,-124.8 1725.06,-121.3 1725.06,-128.3"/>
</g>
<!-- RoomsAuthorisationService -->
<g id="node16" class="node">
<title>RoomsAuthorisationService</title>
<ellipse fill="#fdb462" stroke="black" cx="828" cy="-66.8" rx="120.44" ry="18"/>
<text text-anchor="middle" x="828" y="-62.6" font-family="Times,serif" font-size="14.00">RoomsAuthorisationService</text>
</g>
<!-- RoomsAuthorisationService&#45;&gt;LearnroomModule -->
<g id="edge15" class="edge">
<title>RoomsAuthorisationService&#45;&gt;LearnroomModule</title>
<path fill="none" stroke="black" d="M828,-85.07C828,-103.36 828,-128.8 828,-128.8 828,-128.8 1725.08,-128.8 1725.08,-128.8"/>
<polygon fill="black" stroke="black" points="1725.08,-132.3 1735.08,-128.8 1725.08,-125.3 1725.08,-132.3"/>
</g>
<!-- RoomsService -->
<g id="node17" class="node">
<title>RoomsService</title>
<ellipse fill="#fdb462" stroke="black" cx="622" cy="-66.8" rx="67.22" ry="18"/>
<text text-anchor="middle" x="622" y="-62.6" font-family="Times,serif" font-size="14.00">RoomsService</text>
</g>
<!-- RoomsService&#45;&gt;LearnroomModule -->
<g id="edge16" class="edge">
<title>RoomsService&#45;&gt;LearnroomModule</title>
<path fill="none" stroke="black" d="M622,-84.91C622,-104.14 622,-131.8 622,-131.8 622,-131.8 1724.94,-131.8 1724.94,-131.8"/>
<polygon fill="black" stroke="black" points="1724.94,-135.3 1734.94,-131.8 1724.94,-128.3 1724.94,-135.3"/>
</g>
<!-- RoomsUc -->
<g id="node18" class="node">
<title>RoomsUc</title>
<ellipse fill="#fdb462" stroke="black" cx="487" cy="-66.8" rx="49.83" ry="18"/>
<text text-anchor="middle" x="487" y="-62.6" font-family="Times,serif" font-size="14.00">RoomsUc</text>
</g>
<!-- RoomsUc&#45;&gt;LearnroomModule -->
<g id="edge17" class="edge">
<title>RoomsUc&#45;&gt;LearnroomModule</title>
<path fill="none" stroke="black" d="M487,-84.93C487,-105.37 487,-135.8 487,-135.8 487,-135.8 1725.06,-135.8 1725.06,-135.8"/>
<polygon fill="black" stroke="black" points="1725.06,-139.3 1735.06,-135.8 1725.06,-132.3 1725.06,-139.3"/>
</g>
<!-- TaskCopyService -->
<g id="node19" class="node">
<title>TaskCopyService</title>
<ellipse fill="#fdb462" stroke="black" cx="340" cy="-66.8" rx="79.88" ry="18"/>
<text text-anchor="middle" x="340" y="-62.6" font-family="Times,serif" font-size="14.00">TaskCopyService</text>
</g>
<!-- TaskCopyService&#45;&gt;LearnroomModule -->
<g id="edge18" class="edge">
<title>TaskCopyService&#45;&gt;LearnroomModule</title>
<path fill="none" stroke="black" d="M340,-84.84C340,-106.46 340,-139.8 340,-139.8 340,-139.8 1724.83,-139.8 1724.83,-139.8"/>
<polygon fill="black" stroke="black" points="1724.83,-143.3 1734.83,-139.8 1724.83,-136.3 1724.83,-143.3"/>
</g>
<!-- TaskRepo -->
<g id="node20" class="node">
<title>TaskRepo</title>
<ellipse fill="#fdb462" stroke="black" cx="192" cy="-66.8" rx="50.39" ry="18"/>
<text text-anchor="middle" x="192" y="-62.6" font-family="Times,serif" font-size="14.00">TaskRepo</text>
</g>
<!-- TaskRepo&#45;&gt;LearnroomModule -->
<g id="edge19" class="edge">
<title>TaskRepo&#45;&gt;LearnroomModule</title>
<path fill="none" stroke="black" d="M192,-84.81C192,-107.29 192,-142.8 192,-142.8 192,-142.8 1725.08,-142.8 1725.08,-142.8"/>
<polygon fill="black" stroke="black" points="1725.08,-146.3 1735.08,-142.8 1725.08,-139.3 1725.08,-146.3"/>
</g>
<!-- UserRepo -->
<g id="node21" class="node">
<title>UserRepo</title>
<ellipse fill="#fdb462" stroke="black" cx="74" cy="-66.8" rx="49.81" ry="18"/>
<text text-anchor="middle" x="74" y="-62.6" font-family="Times,serif" font-size="14.00">UserRepo</text>
</g>
<!-- UserRepo&#45;&gt;LearnroomModule -->
<g id="edge20" class="edge">
<title>UserRepo&#45;&gt;LearnroomModule</title>
<path fill="none" stroke="black" d="M74,-84.95C74,-108.56 74,-146.8 74,-146.8 74,-146.8 1725.22,-146.8 1725.22,-146.8"/>
<polygon fill="black" stroke="black" points="1725.22,-150.3 1735.22,-146.8 1725.22,-143.3 1725.22,-150.3"/>
</g>
</g>
</svg>
