<?xml version="1.0" encoding="UTF-8" standalone="no"?>
<!DOCTYPE svg PUBLIC "-//W3C//DTD SVG 1.1//EN"
 "http://www.w3.org/Graphics/SVG/1.1/DTD/svg11.dtd">
<!-- Generated by graphviz version 5.0.0 (20220707.1540)
 -->
<!-- Title: dependencies Pages: 1 -->
<svg width="1345pt" height="174pt"
 viewBox="0.00 0.00 1345.00 173.80" xmlns="http://www.w3.org/2000/svg" xmlns:xlink="http://www.w3.org/1999/xlink">
<g id="graph0" class="graph" transform="scale(1 1) rotate(0) translate(4 169.8)">
<title>dependencies</title>
<polygon fill="white" stroke="transparent" points="-4,4 -4,-169.8 1341,-169.8 1341,4 -4,4"/>
<text text-anchor="middle" x="668.5" y="-8.2" font-family="sans-serif" font-size="14.00">dependencies</text>
<g id="clust1" class="cluster">
<title>cluster_FilesStorageModule</title>
<polygon fill="none" stroke="black" stroke-dasharray="1,5" points="8,-32.8 8,-157.8 1329,-157.8 1329,-32.8 8,-32.8"/>
</g>
<g id="clust3" class="cluster">
<title>cluster_FilesStorageModule_imports</title>
<polygon fill="none" stroke="black" points="771,-40.8 771,-92.8 1321,-92.8 1321,-40.8 771,-40.8"/>
</g>
<g id="clust6" class="cluster">
<title>cluster_FilesStorageModule_providers</title>
<polygon fill="none" stroke="black" points="16,-40.8 16,-92.8 763,-92.8 763,-40.8 16,-40.8"/>
</g>
<!-- AuthModule -->
<g id="node1" class="node">
<title>AuthModule</title>
<polygon fill="#8dd3c7" stroke="black" points="1312.55,-84.8 1309.55,-88.8 1288.55,-88.8 1285.55,-84.8 1225.45,-84.8 1225.45,-48.8 1312.55,-48.8 1312.55,-84.8"/>
<text text-anchor="middle" x="1269" y="-62.6" font-family="Times,serif" font-size="14.00">AuthModule</text>
</g>
<!-- FilesStorageModule -->
<g id="node5" class="node">
<title>FilesStorageModule</title>
<polygon fill="#8dd3c7" stroke="black" points="745.55,-149.8 742.55,-153.8 721.55,-153.8 718.55,-149.8 616.45,-149.8 616.45,-113.8 745.55,-113.8 745.55,-149.8"/>
<text text-anchor="middle" x="681" y="-127.6" font-family="Times,serif" font-size="14.00">FilesStorageModule</text>
</g>
<!-- AuthModule&#45;&gt;FilesStorageModule -->
<g id="edge1" class="edge">
<title>AuthModule&#45;&gt;FilesStorageModule</title>
<path fill="none" stroke="black" d="M1269,-84.81C1269,-107.29 1269,-142.8 1269,-142.8 1269,-142.8 755.61,-142.8 755.61,-142.8"/>
<polygon fill="black" stroke="black" points="755.61,-139.3 745.61,-142.8 755.61,-146.3 755.61,-139.3"/>
</g>
<!-- AuthorizationModule -->
<g id="node2" class="node">
<title>AuthorizationModule</title>
<polygon fill="#8dd3c7" stroke="black" points="1207.81,-84.8 1204.81,-88.8 1183.81,-88.8 1180.81,-84.8 1070.19,-84.8 1070.19,-48.8 1207.81,-48.8 1207.81,-84.8"/>
<text text-anchor="middle" x="1139" y="-62.6" font-family="Times,serif" font-size="14.00">AuthorizationModule</text>
</g>
<!-- AuthorizationModule&#45;&gt;FilesStorageModule -->
<g id="edge2" class="edge">
<title>AuthorizationModule&#45;&gt;FilesStorageModule</title>
<path fill="none" stroke="black" d="M1139,-84.93C1139,-105.37 1139,-135.8 1139,-135.8 1139,-135.8 755.65,-135.8 755.65,-135.8"/>
<polygon fill="black" stroke="black" points="755.65,-132.3 745.65,-135.8 755.65,-139.3 755.65,-132.3"/>
</g>
<!-- CoreModule -->
<g id="node3" class="node">
<title>CoreModule</title>
<polygon fill="#8dd3c7" stroke="black" points="1052.27,-84.8 1049.27,-88.8 1028.27,-88.8 1025.27,-84.8 965.73,-84.8 965.73,-48.8 1052.27,-48.8 1052.27,-84.8"/>
<text text-anchor="middle" x="1009" y="-62.6" font-family="Times,serif" font-size="14.00">CoreModule</text>
</g>
<!-- CoreModule&#45;&gt;FilesStorageModule -->
<g id="edge3" class="edge">
<title>CoreModule&#45;&gt;FilesStorageModule</title>
<path fill="none" stroke="black" d="M1009,-85.07C1009,-103.36 1009,-128.8 1009,-128.8 1009,-128.8 755.8,-128.8 755.8,-128.8"/>
<polygon fill="black" stroke="black" points="755.8,-125.3 745.8,-128.8 755.8,-132.3 755.8,-125.3"/>
</g>
<!-- RabbitMQWrapperModule -->
<g id="node4" class="node">
<title>RabbitMQWrapperModule</title>
<polygon fill="#8dd3c7" stroke="black" points="947.41,-84.8 944.41,-88.8 923.41,-88.8 920.41,-84.8 778.59,-84.8 778.59,-48.8 947.41,-48.8 947.41,-84.8"/>
<text text-anchor="middle" x="863" y="-62.6" font-family="Times,serif" font-size="14.00">RabbitMQWrapperModule</text>
</g>
<!-- RabbitMQWrapperModule&#45;&gt;FilesStorageModule -->
<g id="edge4" class="edge">
<title>RabbitMQWrapperModule&#45;&gt;FilesStorageModule</title>
<path fill="none" stroke="black" d="M863,-84.81C863,-100.85 863,-121.8 863,-121.8 863,-121.8 755.68,-121.8 755.68,-121.8"/>
<polygon fill="black" stroke="black" points="755.68,-118.3 745.68,-121.8 755.68,-125.3 755.68,-118.3"/>
</g>
<!-- FileRecordRepo -->
<g id="node6" class="node">
<title>FileRecordRepo</title>
<ellipse fill="#fdb462" stroke="black" cx="681" cy="-66.8" rx="74.16" ry="18"/>
<text text-anchor="middle" x="681" y="-62.6" font-family="Times,serif" font-size="14.00">FileRecordRepo</text>
</g>
<!-- FileRecordRepo&#45;&gt;FilesStorageModule -->
<g id="edge5" class="edge">
<title>FileRecordRepo&#45;&gt;FilesStorageModule</title>
<path fill="none" stroke="black" d="M681,-84.91C681,-84.91 681,-103.79 681,-103.79"/>
<polygon fill="black" stroke="black" points="677.5,-103.79 681,-113.79 684.5,-103.79 677.5,-103.79"/>
</g>
<!-- FileRecordUC -->
<g id="node7" class="node">
<title>FileRecordUC</title>
<ellipse fill="#fdb462" stroke="black" cx="521" cy="-66.8" rx="67.22" ry="18"/>
<text text-anchor="middle" x="521" y="-62.6" font-family="Times,serif" font-size="14.00">FileRecordUC</text>
</g>
<!-- FileRecordUC&#45;&gt;FilesStorageModule -->
<g id="edge6" class="edge">
<title>FileRecordUC&#45;&gt;FilesStorageModule</title>
<path fill="none" stroke="black" d="M521,-84.81C521,-100.85 521,-121.8 521,-121.8 521,-121.8 606.38,-121.8 606.38,-121.8"/>
<polygon fill="black" stroke="black" points="606.38,-125.3 616.38,-121.8 606.38,-118.3 606.38,-125.3"/>
</g>
<!-- FilesStorageUC -->
<g id="node8" class="node">
<title>FilesStorageUC</title>
<ellipse fill="#fdb462" stroke="black" cx="363" cy="-66.8" rx="72.96" ry="18"/>
<text text-anchor="middle" x="363" y="-62.6" font-family="Times,serif" font-size="14.00">FilesStorageUC</text>
</g>
<!-- FilesStorageUC&#45;&gt;FilesStorageModule -->
<g id="edge7" class="edge">
<title>FilesStorageUC&#45;&gt;FilesStorageModule</title>
<path fill="none" stroke="black" d="M363,-85.07C363,-103.36 363,-128.8 363,-128.8 363,-128.8 606.26,-128.8 606.26,-128.8"/>
<polygon fill="black" stroke="black" points="606.26,-132.3 616.26,-128.8 606.26,-125.3 606.26,-132.3"/>
</g>
<!-- Logger -->
<g id="node9" class="node">
<title>Logger</title>
<ellipse fill="#fdb462" stroke="black" cx="233" cy="-66.8" rx="38.85" ry="18"/>
<text text-anchor="middle" x="233" y="-62.6" font-family="Times,serif" font-size="14.00">Logger</text>
</g>
<!-- Logger&#45;&gt;FilesStorageModule -->
<g id="edge8" class="edge">
<title>Logger&#45;&gt;FilesStorageModule</title>
<path fill="none" stroke="black" d="M233,-84.93C233,-105.37 233,-135.8 233,-135.8 233,-135.8 606.34,-135.8 606.34,-135.8"/>
<polygon fill="black" stroke="black" points="606.34,-139.3 616.34,-135.8 606.34,-132.3 606.34,-139.3"/>
</g>
<!-- S3ClientAdapter -->
<g id="node10" class="node">
<title>S3ClientAdapter</title>
<ellipse fill="#fdb462" stroke="black" cx="100" cy="-66.8" rx="75.89" ry="18"/>
<text text-anchor="middle" x="100" y="-62.6" font-family="Times,serif" font-size="14.00">S3ClientAdapter</text>
</g>
<!-- S3ClientAdapter&#45;&gt;FilesStorageModule -->
<g id="edge9" class="edge">
<title>S3ClientAdapter&#45;&gt;FilesStorageModule</title>
<path fill="none" stroke="black" d="M100,-84.81C100,-107.29 100,-142.8 100,-142.8 100,-142.8 606.32,-142.8 606.32,-142.8"/>
<polygon fill="black" stroke="black" points="606.32,-146.3 616.32,-142.8 606.32,-139.3 606.32,-146.3"/>
</g>
</g>
</svg>
