<?xml version="1.0" encoding="UTF-8" standalone="no"?>
<!DOCTYPE svg PUBLIC "-//W3C//DTD SVG 1.1//EN"
 "http://www.w3.org/Graphics/SVG/1.1/DTD/svg11.dtd">
<!-- Generated by graphviz version 3.0.0 (20220226.1711)
 -->
<!-- Title: dependencies Pages: 1 -->
<svg width="1190pt" height="174pt"
 viewBox="0.00 0.00 1190.00 173.80" xmlns="http://www.w3.org/2000/svg" xmlns:xlink="http://www.w3.org/1999/xlink">
<g id="graph0" class="graph" transform="scale(1 1) rotate(0) translate(4 169.8)">
<title>dependencies</title>
<polygon fill="white" stroke="transparent" points="-4,4 -4,-169.8 1186,-169.8 1186,4 -4,4"/>
<text text-anchor="middle" x="591" y="-8.2" font-family="sans-serif" font-size="14.00">dependencies</text>
<g id="clust1" class="cluster">
<title>cluster_FilesStorageModule</title>
<polygon fill="none" stroke="black" stroke-dasharray="1,5" points="8,-32.8 8,-157.8 1174,-157.8 1174,-32.8 8,-32.8"/>
</g>
<g id="clust3" class="cluster">
<title>cluster_FilesStorageModule_imports</title>
<polygon fill="none" stroke="black" points="771,-40.8 771,-92.8 1166,-92.8 1166,-40.8 771,-40.8"/>
</g>
<g id="clust6" class="cluster">
<title>cluster_FilesStorageModule_providers</title>
<polygon fill="none" stroke="black" points="16,-40.8 16,-92.8 763,-92.8 763,-40.8 16,-40.8"/>
</g>
<!-- AuthModule -->
<g id="node1" class="node">
<title>AuthModule</title>
<polygon fill="#8dd3c7" stroke="black" points="1157.55,-84.8 1154.55,-88.8 1133.55,-88.8 1130.55,-84.8 1070.45,-84.8 1070.45,-48.8 1157.55,-48.8 1157.55,-84.8"/>
<text text-anchor="middle" x="1114" y="-62.6" font-family="Times,serif" font-size="14.00">AuthModule</text>
</g>
<!-- FilesStorageModule -->
<g id="node4" class="node">
<title>FilesStorageModule</title>
<polygon fill="#8dd3c7" stroke="black" points="665.55,-149.8 662.55,-153.8 641.55,-153.8 638.55,-149.8 536.45,-149.8 536.45,-113.8 665.55,-113.8 665.55,-149.8"/>
<text text-anchor="middle" x="601" y="-127.6" font-family="Times,serif" font-size="14.00">FilesStorageModule</text>
</g>
<!-- AuthModule&#45;&gt;FilesStorageModule -->
<g id="edge1" class="edge">
<title>AuthModule&#45;&gt;FilesStorageModule</title>
<path fill="none" stroke="black" d="M1114,-85.09C1114,-107.01 1114,-140.8 1114,-140.8 1114,-140.8 675.71,-140.8 675.71,-140.8"/>
<polygon fill="black" stroke="black" points="675.71,-137.3 665.71,-140.8 675.71,-144.3 675.71,-137.3"/>
</g>
<!-- CoreModule -->
<g id="node2" class="node">
<title>CoreModule</title>
<polygon fill="#8dd3c7" stroke="black" points="1052.27,-84.8 1049.27,-88.8 1028.27,-88.8 1025.27,-84.8 965.73,-84.8 965.73,-48.8 1052.27,-48.8 1052.27,-84.8"/>
<text text-anchor="middle" x="1009" y="-62.6" font-family="Times,serif" font-size="14.00">CoreModule</text>
</g>
<!-- CoreModule&#45;&gt;FilesStorageModule -->
<g id="edge2" class="edge">
<title>CoreModule&#45;&gt;FilesStorageModule</title>
<path fill="none" stroke="black" d="M1009,-84.91C1009,-104.14 1009,-131.8 1009,-131.8 1009,-131.8 675.65,-131.8 675.65,-131.8"/>
<polygon fill="black" stroke="black" points="675.65,-128.3 665.65,-131.8 675.65,-135.3 675.65,-128.3"/>
</g>
<!-- RabbitMQWrapperModule -->
<g id="node3" class="node">
<title>RabbitMQWrapperModule</title>
<polygon fill="#8dd3c7" stroke="black" points="947.41,-84.8 944.41,-88.8 923.41,-88.8 920.41,-84.8 778.59,-84.8 778.59,-48.8 947.41,-48.8 947.41,-84.8"/>
<text text-anchor="middle" x="863" y="-62.6" font-family="Times,serif" font-size="14.00">RabbitMQWrapperModule</text>
</g>
<!-- RabbitMQWrapperModule&#45;&gt;FilesStorageModule -->
<g id="edge3" class="edge">
<title>RabbitMQWrapperModule&#45;&gt;FilesStorageModule</title>
<path fill="none" stroke="black" d="M863,-84.83C863,-101.2 863,-122.8 863,-122.8 863,-122.8 675.76,-122.8 675.76,-122.8"/>
<polygon fill="black" stroke="black" points="675.76,-119.3 665.76,-122.8 675.76,-126.3 675.76,-119.3"/>
</g>
<!-- FileRecordRepo -->
<g id="node5" class="node">
<title>FileRecordRepo</title>
<ellipse fill="#fdb462" stroke="black" cx="681" cy="-66.8" rx="74.16" ry="18"/>
<text text-anchor="middle" x="681" y="-62.6" font-family="Times,serif" font-size="14.00">FileRecordRepo</text>
</g>
<!-- FileRecordRepo&#45;&gt;FilesStorageModule -->
<g id="edge4" class="edge">
<title>FileRecordRepo&#45;&gt;FilesStorageModule</title>
<path fill="none" stroke="black" d="M636.22,-81.23C636.22,-81.23 636.22,-103.69 636.22,-103.69"/>
<polygon fill="black" stroke="black" points="632.72,-103.69 636.22,-113.69 639.72,-103.69 632.72,-103.69"/>
</g>
<!-- FileRecordUC -->
<g id="node6" class="node">
<title>FileRecordUC</title>
<ellipse fill="#fdb462" stroke="black" cx="521" cy="-66.8" rx="67.22" ry="18"/>
<text text-anchor="middle" x="521" y="-62.6" font-family="Times,serif" font-size="14.00">FileRecordUC</text>
</g>
<!-- FileRecordUC&#45;&gt;FilesStorageModule -->
<g id="edge5" class="edge">
<title>FileRecordUC&#45;&gt;FilesStorageModule</title>
<path fill="none" stroke="black" d="M562.29,-81.23C562.29,-81.23 562.29,-103.69 562.29,-103.69"/>
<polygon fill="black" stroke="black" points="558.79,-103.69 562.29,-113.69 565.79,-103.69 558.79,-103.69"/>
</g>
<!-- FilesStorageUC -->
<g id="node7" class="node">
<title>FilesStorageUC</title>
<ellipse fill="#fdb462" stroke="black" cx="363" cy="-66.8" rx="72.96" ry="18"/>
<text text-anchor="middle" x="363" y="-62.6" font-family="Times,serif" font-size="14.00">FilesStorageUC</text>
</g>
<!-- FilesStorageUC&#45;&gt;FilesStorageModule -->
<g id="edge6" class="edge">
<title>FilesStorageUC&#45;&gt;FilesStorageModule</title>
<path fill="none" stroke="black" d="M363,-84.83C363,-101.2 363,-122.8 363,-122.8 363,-122.8 526.28,-122.8 526.28,-122.8"/>
<polygon fill="black" stroke="black" points="526.28,-126.3 536.28,-122.8 526.28,-119.3 526.28,-126.3"/>
</g>
<!-- Logger -->
<g id="node8" class="node">
<title>Logger</title>
<ellipse fill="#fdb462" stroke="black" cx="233" cy="-66.8" rx="38.85" ry="18"/>
<text text-anchor="middle" x="233" y="-62.6" font-family="Times,serif" font-size="14.00">Logger</text>
</g>
<!-- Logger&#45;&gt;FilesStorageModule -->
<g id="edge7" class="edge">
<title>Logger&#45;&gt;FilesStorageModule</title>
<path fill="none" stroke="black" d="M233,-84.91C233,-104.14 233,-131.8 233,-131.8 233,-131.8 526.06,-131.8 526.06,-131.8"/>
<polygon fill="black" stroke="black" points="526.06,-135.3 536.06,-131.8 526.06,-128.3 526.06,-135.3"/>
</g>
<!-- S3ClientAdapter -->
<g id="node9" class="node">
<title>S3ClientAdapter</title>
<ellipse fill="#fdb462" stroke="black" cx="100" cy="-66.8" rx="75.89" ry="18"/>
<text text-anchor="middle" x="100" y="-62.6" font-family="Times,serif" font-size="14.00">S3ClientAdapter</text>
</g>
<!-- S3ClientAdapter&#45;&gt;FilesStorageModule -->
<g id="edge8" class="edge">
<title>S3ClientAdapter&#45;&gt;FilesStorageModule</title>
<path fill="none" stroke="black" d="M100,-85.09C100,-107.01 100,-140.8 100,-140.8 100,-140.8 526.27,-140.8 526.27,-140.8"/>
<polygon fill="black" stroke="black" points="526.27,-144.3 536.27,-140.8 526.27,-137.3 526.27,-144.3"/>
</g>
</g>
</svg>
