<?xml version="1.0" encoding="UTF-8" standalone="no"?>
<!DOCTYPE svg PUBLIC "-//W3C//DTD SVG 1.1//EN"
 "http://www.w3.org/Graphics/SVG/1.1/DTD/svg11.dtd">
<!-- Generated by graphviz version 2.47.3 (20210619.1520)
 -->
<!-- Title: dependencies Pages: 1 -->
<svg width="1094pt" height="174pt"
 viewBox="0.00 0.00 1094.00 173.80" xmlns="http://www.w3.org/2000/svg" xmlns:xlink="http://www.w3.org/1999/xlink">
<g id="graph0" class="graph" transform="scale(1 1) rotate(0) translate(4 169.8)">
<title>dependencies</title>
<polygon fill="white" stroke="transparent" points="-4,4 -4,-169.8 1090,-169.8 1090,4 -4,4"/>
<text text-anchor="middle" x="543" y="-8.2" font-family="sans-serif" font-size="14.00">dependencies</text>
<g id="clust1" class="cluster">
<title>cluster_FilesStorageModule</title>
<polygon fill="none" stroke="black" stroke-dasharray="1,5" points="8,-32.8 8,-157.8 1078,-157.8 1078,-32.8 8,-32.8"/>
</g>
<g id="clust6" class="cluster">
<title>cluster_FilesStorageModule_providers</title>
<polygon fill="none" stroke="black" points="419,-40.8 419,-92.8 1070,-92.8 1070,-40.8 419,-40.8"/>
</g>
<g id="clust3" class="cluster">
<title>cluster_FilesStorageModule_imports</title>
<polygon fill="none" stroke="black" points="16,-40.8 16,-92.8 411,-92.8 411,-40.8 16,-40.8"/>
</g>
<!-- AuthModule -->
<g id="node1" class="node">
<title>AuthModule</title>
<polygon fill="#8dd3c7" stroke="black" points="402.55,-84.8 399.55,-88.8 378.55,-88.8 375.55,-84.8 315.45,-84.8 315.45,-48.8 402.55,-48.8 402.55,-84.8"/>
<text text-anchor="middle" x="359" y="-62.6" font-family="Times,serif" font-size="14.00">AuthModule</text>
</g>
<!-- FilesStorageModule -->
<g id="node4" class="node">
<title>FilesStorageModule</title>
<polygon fill="#8dd3c7" stroke="black" points="567.54,-149.8 564.54,-153.8 543.54,-153.8 540.54,-149.8 438.46,-149.8 438.46,-113.8 567.54,-113.8 567.54,-149.8"/>
<text text-anchor="middle" x="503" y="-127.6" font-family="Times,serif" font-size="14.00">FilesStorageModule</text>
</g>
<!-- AuthModule&#45;&gt;FilesStorageModule -->
<g id="edge1" class="edge">
<title>AuthModule&#45;&gt;FilesStorageModule</title>
<path fill="none" stroke="black" d="M359,-84.83C359,-101.2 359,-122.8 359,-122.8 359,-122.8 428.16,-122.8 428.16,-122.8"/>
<polygon fill="black" stroke="black" points="428.16,-126.3 438.16,-122.8 428.16,-119.3 428.16,-126.3"/>
</g>
<!-- CoreModule -->
<g id="node2" class="node">
<title>CoreModule</title>
<polygon fill="#8dd3c7" stroke="black" points="297.26,-84.8 294.26,-88.8 273.26,-88.8 270.26,-84.8 210.74,-84.8 210.74,-48.8 297.26,-48.8 297.26,-84.8"/>
<text text-anchor="middle" x="254" y="-62.6" font-family="Times,serif" font-size="14.00">CoreModule</text>
</g>
<!-- CoreModule&#45;&gt;FilesStorageModule -->
<g id="edge2" class="edge">
<title>CoreModule&#45;&gt;FilesStorageModule</title>
<path fill="none" stroke="black" d="M254,-84.91C254,-104.14 254,-131.8 254,-131.8 254,-131.8 428.23,-131.8 428.23,-131.8"/>
<polygon fill="black" stroke="black" points="428.23,-135.3 438.23,-131.8 428.23,-128.3 428.23,-135.3"/>
</g>
<!-- RabbitMQWrapperModule -->
<g id="node3" class="node">
<title>RabbitMQWrapperModule</title>
<polygon fill="#8dd3c7" stroke="black" points="192.4,-84.8 189.4,-88.8 168.4,-88.8 165.4,-84.8 23.6,-84.8 23.6,-48.8 192.4,-48.8 192.4,-84.8"/>
<text text-anchor="middle" x="108" y="-62.6" font-family="Times,serif" font-size="14.00">RabbitMQWrapperModule</text>
</g>
<!-- RabbitMQWrapperModule&#45;&gt;FilesStorageModule -->
<g id="edge3" class="edge">
<title>RabbitMQWrapperModule&#45;&gt;FilesStorageModule</title>
<path fill="none" stroke="black" d="M108,-85.09C108,-107.01 108,-140.8 108,-140.8 108,-140.8 428.22,-140.8 428.22,-140.8"/>
<polygon fill="black" stroke="black" points="428.22,-144.3 438.22,-140.8 428.22,-137.3 428.22,-144.3"/>
</g>
<!-- FileRecordRepo -->
<g id="node5" class="node">
<title>FileRecordRepo</title>
<ellipse fill="#fdb462" stroke="black" cx="988" cy="-66.8" rx="74.16" ry="18"/>
<text text-anchor="middle" x="988" y="-62.6" font-family="Times,serif" font-size="14.00">FileRecordRepo</text>
</g>
<!-- FileRecordRepo&#45;&gt;FilesStorageModule -->
<g id="edge4" class="edge">
<title>FileRecordRepo&#45;&gt;FilesStorageModule</title>
<path fill="none" stroke="black" d="M988,-85.09C988,-107.01 988,-140.8 988,-140.8 988,-140.8 577.65,-140.8 577.65,-140.8"/>
<polygon fill="black" stroke="black" points="577.65,-137.3 567.65,-140.8 577.65,-144.3 577.65,-137.3"/>
</g>
<!-- FileRecordUC -->
<g id="node6" class="node">
<title>FileRecordUC</title>
<ellipse fill="#fdb462" stroke="black" cx="828" cy="-66.8" rx="67.21" ry="18"/>
<text text-anchor="middle" x="828" y="-62.6" font-family="Times,serif" font-size="14.00">FileRecordUC</text>
</g>
<!-- FileRecordUC&#45;&gt;FilesStorageModule -->
<g id="edge5" class="edge">
<title>FileRecordUC&#45;&gt;FilesStorageModule</title>
<path fill="none" stroke="black" d="M828,-84.91C828,-104.14 828,-131.8 828,-131.8 828,-131.8 577.6,-131.8 577.6,-131.8"/>
<polygon fill="black" stroke="black" points="577.6,-128.3 567.6,-131.8 577.6,-135.3 577.6,-128.3"/>
</g>
<!-- FilesStorageUC -->
<g id="node7" class="node">
<title>FilesStorageUC</title>
<ellipse fill="#fdb462" stroke="black" cx="670" cy="-66.8" rx="72.95" ry="18"/>
<text text-anchor="middle" x="670" y="-62.6" font-family="Times,serif" font-size="14.00">FilesStorageUC</text>
</g>
<!-- FilesStorageUC&#45;&gt;FilesStorageModule -->
<g id="edge6" class="edge">
<title>FilesStorageUC&#45;&gt;FilesStorageModule</title>
<path fill="none" stroke="black" d="M670,-84.83C670,-101.2 670,-122.8 670,-122.8 670,-122.8 577.57,-122.8 577.57,-122.8"/>
<polygon fill="black" stroke="black" points="577.57,-119.3 567.57,-122.8 577.57,-126.3 577.57,-119.3"/>
</g>
<!-- S3ClientAdapter -->
<g id="node8" class="node">
<title>S3ClientAdapter</title>
<ellipse fill="#fdb462" stroke="black" cx="503" cy="-66.8" rx="75.88" ry="18"/>
<text text-anchor="middle" x="503" y="-62.6" font-family="Times,serif" font-size="14.00">S3ClientAdapter</text>
</g>
<!-- S3ClientAdapter&#45;&gt;FilesStorageModule -->
<g id="edge7" class="edge">
<title>S3ClientAdapter&#45;&gt;FilesStorageModule</title>
<path fill="none" stroke="black" d="M503,-84.91C503,-84.91 503,-103.79 503,-103.79"/>
<polygon fill="black" stroke="black" points="499.5,-103.79 503,-113.79 506.5,-103.79 499.5,-103.79"/>
</g>
</g>
</svg>
