<?xml version="1.0" encoding="UTF-8" standalone="no"?>
<!DOCTYPE svg PUBLIC "-//W3C//DTD SVG 1.1//EN"
 "http://www.w3.org/Graphics/SVG/1.1/DTD/svg11.dtd">
<!-- Generated by graphviz version 2.47.3 (20210619.1520)
 -->
<!-- Title: dependencies Pages: 1 -->
<svg width="1190pt" height="174pt"
 viewBox="0.00 0.00 1190.00 173.80" xmlns="http://www.w3.org/2000/svg" xmlns:xlink="http://www.w3.org/1999/xlink">
<g id="graph0" class="graph" transform="scale(1 1) rotate(0) translate(4 169.8)">
<title>dependencies</title>
<polygon fill="white" stroke="transparent" points="-4,4 -4,-169.8 1186,-169.8 1186,4 -4,4"/>
<text text-anchor="middle" x="591" y="-8.2" font-family="sans-serif" font-size="14.00">dependencies</text>
<g id="clust1" class="cluster">
<title>cluster_FilesStorageModule</title>
<polygon fill="none" stroke="black" stroke-dasharray="1,5" points="8,-32.8 8,-157.8 1174,-157.8 1174,-32.8 8,-32.8"/>
</g>
<g id="clust6" class="cluster">
<title>cluster_FilesStorageModule_providers</title>
<polygon fill="none" stroke="black" points="419,-40.8 419,-92.8 1166,-92.8 1166,-40.8 419,-40.8"/>
</g>
<g id="clust3" class="cluster">
<title>cluster_FilesStorageModule_imports</title>
<polygon fill="none" stroke="black" points="16,-40.8 16,-92.8 411,-92.8 411,-40.8 16,-40.8"/>
</g>
<!-- AuthModule -->
<g id="node1" class="node">
<title>AuthModule</title>
<polygon fill="#8dd3c7" stroke="black" points="402.55,-84.8 399.55,-88.8 378.55,-88.8 375.55,-84.8 315.45,-84.8 315.45,-48.8 402.55,-48.8 402.55,-84.8"/>
<text text-anchor="middle" x="359" y="-62.6" font-family="Times,serif" font-size="14.00">AuthModule</text>
</g>
<!-- FilesStorageModule -->
<g id="node4" class="node">
<title>FilesStorageModule</title>
<polygon fill="#8dd3c7" stroke="black" points="633.54,-149.8 630.54,-153.8 609.54,-153.8 606.54,-149.8 504.46,-149.8 504.46,-113.8 633.54,-113.8 633.54,-149.8"/>
<text text-anchor="middle" x="569" y="-127.6" font-family="Times,serif" font-size="14.00">FilesStorageModule</text>
</g>
<!-- AuthModule&#45;&gt;FilesStorageModule -->
<g id="edge1" class="edge">
<title>AuthModule&#45;&gt;FilesStorageModule</title>
<path fill="none" stroke="black" d="M359,-84.83C359,-101.2 359,-122.8 359,-122.8 359,-122.8 494.28,-122.8 494.28,-122.8"/>
<polygon fill="black" stroke="black" points="494.28,-126.3 504.28,-122.8 494.28,-119.3 494.28,-126.3"/>
</g>
<!-- CoreModule -->
<g id="node2" class="node">
<title>CoreModule</title>
<polygon fill="#8dd3c7" stroke="black" points="297.26,-84.8 294.26,-88.8 273.26,-88.8 270.26,-84.8 210.74,-84.8 210.74,-48.8 297.26,-48.8 297.26,-84.8"/>
<text text-anchor="middle" x="254" y="-62.6" font-family="Times,serif" font-size="14.00">CoreModule</text>
</g>
<!-- CoreModule&#45;&gt;FilesStorageModule -->
<g id="edge2" class="edge">
<title>CoreModule&#45;&gt;FilesStorageModule</title>
<path fill="none" stroke="black" d="M254,-84.91C254,-104.14 254,-131.8 254,-131.8 254,-131.8 494.11,-131.8 494.11,-131.8"/>
<polygon fill="black" stroke="black" points="494.11,-135.3 504.11,-131.8 494.11,-128.3 494.11,-135.3"/>
</g>
<!-- RabbitMQWrapperModule -->
<g id="node3" class="node">
<title>RabbitMQWrapperModule</title>
<polygon fill="#8dd3c7" stroke="black" points="192.4,-84.8 189.4,-88.8 168.4,-88.8 165.4,-84.8 23.6,-84.8 23.6,-48.8 192.4,-48.8 192.4,-84.8"/>
<text text-anchor="middle" x="108" y="-62.6" font-family="Times,serif" font-size="14.00">RabbitMQWrapperModule</text>
</g>
<!-- RabbitMQWrapperModule&#45;&gt;FilesStorageModule -->
<g id="edge3" class="edge">
<title>RabbitMQWrapperModule&#45;&gt;FilesStorageModule</title>
<path fill="none" stroke="black" d="M108,-85.09C108,-107.01 108,-140.8 108,-140.8 108,-140.8 494.41,-140.8 494.41,-140.8"/>
<polygon fill="black" stroke="black" points="494.41,-144.3 504.41,-140.8 494.41,-137.3 494.41,-144.3"/>
</g>
<!-- FileRecordRepo -->
<g id="node5" class="node">
<title>FileRecordRepo</title>
<ellipse fill="#fdb462" stroke="black" cx="1084" cy="-66.8" rx="74.16" ry="18"/>
<text text-anchor="middle" x="1084" y="-62.6" font-family="Times,serif" font-size="14.00">FileRecordRepo</text>
</g>
<!-- FileRecordRepo&#45;&gt;FilesStorageModule -->
<g id="edge4" class="edge">
<title>FileRecordRepo&#45;&gt;FilesStorageModule</title>
<path fill="none" stroke="black" d="M1084,-85.09C1084,-107.01 1084,-140.8 1084,-140.8 1084,-140.8 643.7,-140.8 643.7,-140.8"/>
<polygon fill="black" stroke="black" points="643.7,-137.3 633.7,-140.8 643.7,-144.3 643.7,-137.3"/>
</g>
<!-- FileRecordUC -->
<g id="node6" class="node">
<title>FileRecordUC</title>
<ellipse fill="#fdb462" stroke="black" cx="924" cy="-66.8" rx="67.21" ry="18"/>
<text text-anchor="middle" x="924" y="-62.6" font-family="Times,serif" font-size="14.00">FileRecordUC</text>
</g>
<!-- FileRecordUC&#45;&gt;FilesStorageModule -->
<g id="edge5" class="edge">
<title>FileRecordUC&#45;&gt;FilesStorageModule</title>
<path fill="none" stroke="black" d="M924,-84.91C924,-104.14 924,-131.8 924,-131.8 924,-131.8 643.7,-131.8 643.7,-131.8"/>
<polygon fill="black" stroke="black" points="643.7,-128.3 633.7,-131.8 643.7,-135.3 643.7,-128.3"/>
</g>
<!-- FilesStorageUC -->
<g id="node7" class="node">
<title>FilesStorageUC</title>
<ellipse fill="#fdb462" stroke="black" cx="766" cy="-66.8" rx="72.95" ry="18"/>
<text text-anchor="middle" x="766" y="-62.6" font-family="Times,serif" font-size="14.00">FilesStorageUC</text>
</g>
<!-- FilesStorageUC&#45;&gt;FilesStorageModule -->
<g id="edge6" class="edge">
<title>FilesStorageUC&#45;&gt;FilesStorageModule</title>
<path fill="none" stroke="black" d="M766,-84.83C766,-101.2 766,-122.8 766,-122.8 766,-122.8 643.78,-122.8 643.78,-122.8"/>
<polygon fill="black" stroke="black" points="643.78,-119.3 633.78,-122.8 643.78,-126.3 643.78,-119.3"/>
</g>
<!-- Logger -->
<g id="node8" class="node">
<title>Logger</title>
<ellipse fill="#fdb462" stroke="black" cx="636" cy="-66.8" rx="38.85" ry="18"/>
<text text-anchor="middle" x="636" y="-62.6" font-family="Times,serif" font-size="14.00">Logger</text>
</g>
<!-- Logger&#45;&gt;FilesStorageModule -->
<g id="edge7" class="edge">
<title>Logger&#45;&gt;FilesStorageModule</title>
<path fill="none" stroke="black" d="M615.42,-82.2C615.42,-82.2 615.42,-103.74 615.42,-103.74"/>
<polygon fill="black" stroke="black" points="611.92,-103.74 615.42,-113.74 618.92,-103.74 611.92,-103.74"/>
</g>
<!-- S3ClientAdapter -->
<g id="node9" class="node">
<title>S3ClientAdapter</title>
<ellipse fill="#fdb462" stroke="black" cx="503" cy="-66.8" rx="75.88" ry="18"/>
<text text-anchor="middle" x="503" y="-62.6" font-family="Times,serif" font-size="14.00">S3ClientAdapter</text>
</g>
<!-- S3ClientAdapter&#45;&gt;FilesStorageModule -->
<g id="edge8" class="edge">
<title>S3ClientAdapter&#45;&gt;FilesStorageModule</title>
<path fill="none" stroke="black" d="M541.59,-82.53C541.59,-82.53 541.59,-103.45 541.59,-103.45"/>
<polygon fill="black" stroke="black" points="538.09,-103.45 541.59,-113.45 545.09,-103.45 538.09,-103.45"/>
</g>
</g>
</svg>
