<?xml version="1.0" encoding="UTF-8" standalone="no"?>
<!DOCTYPE svg PUBLIC "-//W3C//DTD SVG 1.1//EN"
 "http://www.w3.org/Graphics/SVG/1.1/DTD/svg11.dtd">
<!-- Generated by graphviz version 2.47.3 (20210619.1520)
 -->
<!-- Title: dependencies Pages: 1 -->
<svg width="754pt" height="174pt"
 viewBox="0.00 0.00 754.00 173.80" xmlns="http://www.w3.org/2000/svg" xmlns:xlink="http://www.w3.org/1999/xlink">
<g id="graph0" class="graph" transform="scale(1 1) rotate(0) translate(4 169.8)">
<title>dependencies</title>
<polygon fill="white" stroke="transparent" points="-4,4 -4,-169.8 750,-169.8 750,4 -4,4"/>
<text text-anchor="middle" x="373" y="-8.2" font-family="sans-serif" font-size="14.00">dependencies</text>
<g id="clust1" class="cluster">
<title>cluster_FilesStorageModule</title>
<polygon fill="none" stroke="black" stroke-dasharray="1,5" points="8,-32.8 8,-157.8 738,-157.8 738,-32.8 8,-32.8"/>
</g>
<g id="clust3" class="cluster">
<title>cluster_FilesStorageModule_imports</title>
<polygon fill="none" stroke="black" points="522,-40.8 522,-92.8 730,-92.8 730,-40.8 522,-40.8"/>
</g>
<g id="clust6" class="cluster">
<title>cluster_FilesStorageModule_providers</title>
<polygon fill="none" stroke="black" points="16,-40.8 16,-92.8 514,-92.8 514,-40.8 16,-40.8"/>
</g>
<!-- AuthModule -->
<g id="node1" class="node">
<title>AuthModule</title>
<polygon fill="#8dd3c7" stroke="black" points="721.55,-84.8 718.55,-88.8 697.55,-88.8 694.55,-84.8 634.45,-84.8 634.45,-48.8 721.55,-48.8 721.55,-84.8"/>
<text text-anchor="middle" x="678" y="-62.6" font-family="Times,serif" font-size="14.00">AuthModule</text>
</g>
<!-- FilesStorageModule -->
<g id="node3" class="node">
<title>FilesStorageModule</title>
<polygon fill="#8dd3c7" stroke="black" points="496.54,-149.8 493.54,-153.8 472.54,-153.8 469.54,-149.8 367.46,-149.8 367.46,-113.8 496.54,-113.8 496.54,-149.8"/>
<text text-anchor="middle" x="432" y="-127.6" font-family="Times,serif" font-size="14.00">FilesStorageModule</text>
</g>
<!-- AuthModule&#45;&gt;FilesStorageModule -->
<g id="edge1" class="edge">
<title>AuthModule&#45;&gt;FilesStorageModule</title>
<path fill="none" stroke="black" d="M678,-85.08C678,-106.12 678,-137.8 678,-137.8 678,-137.8 506.63,-137.8 506.63,-137.8"/>
<polygon fill="black" stroke="black" points="506.63,-134.3 496.63,-137.8 506.63,-141.3 506.63,-134.3"/>
</g>
<!-- CoreModule -->
<g id="node2" class="node">
<title>CoreModule</title>
<polygon fill="#8dd3c7" stroke="black" points="616.26,-84.8 613.26,-88.8 592.26,-88.8 589.26,-84.8 529.74,-84.8 529.74,-48.8 616.26,-48.8 616.26,-84.8"/>
<text text-anchor="middle" x="573" y="-62.6" font-family="Times,serif" font-size="14.00">CoreModule</text>
</g>
<!-- CoreModule&#45;&gt;FilesStorageModule -->
<g id="edge2" class="edge">
<title>CoreModule&#45;&gt;FilesStorageModule</title>
<path fill="none" stroke="black" d="M573,-84.82C573,-102.17 573,-125.8 573,-125.8 573,-125.8 506.72,-125.8 506.72,-125.8"/>
<polygon fill="black" stroke="black" points="506.72,-122.3 496.72,-125.8 506.72,-129.3 506.72,-122.3"/>
</g>
<!-- FileRecordRepo -->
<g id="node4" class="node">
<title>FileRecordRepo</title>
<ellipse fill="#fdb462" stroke="black" cx="432" cy="-66.8" rx="74.16" ry="18"/>
<text text-anchor="middle" x="432" y="-62.6" font-family="Times,serif" font-size="14.00">FileRecordRepo</text>
</g>
<!-- FileRecordRepo&#45;&gt;FilesStorageModule -->
<g id="edge3" class="edge">
<title>FileRecordRepo&#45;&gt;FilesStorageModule</title>
<path fill="none" stroke="black" d="M432,-84.91C432,-84.91 432,-103.79 432,-103.79"/>
<polygon fill="black" stroke="black" points="428.5,-103.79 432,-113.79 435.5,-103.79 428.5,-103.79"/>
</g>
<!-- FilesStorageUC -->
<g id="node5" class="node">
<title>FilesStorageUC</title>
<ellipse fill="#fdb462" stroke="black" cx="267" cy="-66.8" rx="72.95" ry="18"/>
<text text-anchor="middle" x="267" y="-62.6" font-family="Times,serif" font-size="14.00">FilesStorageUC</text>
</g>
<!-- FilesStorageUC&#45;&gt;FilesStorageModule -->
<g id="edge4" class="edge">
<title>FilesStorageUC&#45;&gt;FilesStorageModule</title>
<path fill="none" stroke="black" d="M267,-84.82C267,-102.17 267,-125.8 267,-125.8 267,-125.8 357.26,-125.8 357.26,-125.8"/>
<polygon fill="black" stroke="black" points="357.26,-129.3 367.26,-125.8 357.26,-122.3 357.26,-129.3"/>
</g>
<!-- S3ClientAdapter -->
<g id="node6" class="node">
<title>S3ClientAdapter</title>
<ellipse fill="#fdb462" stroke="black" cx="100" cy="-66.8" rx="75.88" ry="18"/>
<text text-anchor="middle" x="100" y="-62.6" font-family="Times,serif" font-size="14.00">S3ClientAdapter</text>
</g>
<!-- S3ClientAdapter&#45;&gt;FilesStorageModule -->
<g id="edge5" class="edge">
<title>S3ClientAdapter&#45;&gt;FilesStorageModule</title>
<path fill="none" stroke="black" d="M100,-85.08C100,-106.12 100,-137.8 100,-137.8 100,-137.8 357.2,-137.8 357.2,-137.8"/>
<polygon fill="black" stroke="black" points="357.2,-141.3 367.2,-137.8 357.2,-134.3 357.2,-141.3"/>
</g>
</g>
</svg>
