<?xml version="1.0" encoding="UTF-8" standalone="no"?>
<!DOCTYPE svg PUBLIC "-//W3C//DTD SVG 1.1//EN"
 "http://www.w3.org/Graphics/SVG/1.1/DTD/svg11.dtd">
<!-- Generated by graphviz version 2.47.3 (20210619.1520)
 -->
<!-- Title: dependencies Pages: 1 -->
<svg width="768pt" height="174pt"
 viewBox="0.00 0.00 768.00 173.80" xmlns="http://www.w3.org/2000/svg" xmlns:xlink="http://www.w3.org/1999/xlink">
<g id="graph0" class="graph" transform="scale(1 1) rotate(0) translate(4 169.8)">
<title>dependencies</title>
<polygon fill="white" stroke="transparent" points="-4,4 -4,-169.8 764,-169.8 764,4 -4,4"/>
<text text-anchor="middle" x="380" y="-8.2" font-family="sans-serif" font-size="14.00">dependencies</text>
<g id="clust1" class="cluster">
<title>cluster_FilesStorageModule</title>
<polygon fill="none" stroke="black" stroke-dasharray="1,5" points="8,-32.8 8,-157.8 752,-157.8 752,-32.8 8,-32.8"/>
</g>
<g id="clust6" class="cluster">
<title>cluster_FilesStorageModule_providers</title>
<polygon fill="none" stroke="black" points="246,-40.8 246,-92.8 744,-92.8 744,-40.8 246,-40.8"/>
</g>
<g id="clust3" class="cluster">
<title>cluster_FilesStorageModule_imports</title>
<polygon fill="none" stroke="black" points="16,-40.8 16,-92.8 238,-92.8 238,-40.8 16,-40.8"/>
</g>
<!-- AuthModule -->
<g id="node1" class="node">
<title>AuthModule</title>
<polygon fill="#8dd3c7" stroke="black" points="229.55,-84.8 226.55,-88.8 205.55,-88.8 202.55,-84.8 142.45,-84.8 142.45,-48.8 229.55,-48.8 229.55,-84.8"/>
<text text-anchor="middle" x="186" y="-62.6" font-family="Times,serif" font-size="14.00">AuthModule</text>
</g>
<!-- FilesStorageModule -->
<g id="node3" class="node">
<title>FilesStorageModule</title>
<polygon fill="#8dd3c7" stroke="black" points="394.54,-149.8 391.54,-153.8 370.54,-153.8 367.54,-149.8 265.46,-149.8 265.46,-113.8 394.54,-113.8 394.54,-149.8"/>
<text text-anchor="middle" x="330" y="-127.6" font-family="Times,serif" font-size="14.00">FilesStorageModule</text>
</g>
<!-- AuthModule&#45;&gt;FilesStorageModule -->
<g id="edge1" class="edge">
<title>AuthModule&#45;&gt;FilesStorageModule</title>
<path fill="none" stroke="black" d="M186,-84.82C186,-102.17 186,-125.8 186,-125.8 186,-125.8 255.16,-125.8 255.16,-125.8"/>
<polygon fill="black" stroke="black" points="255.16,-129.3 265.16,-125.8 255.16,-122.3 255.16,-129.3"/>
</g>
<!-- LoggerModule -->
<g id="node2" class="node">
<title>LoggerModule</title>
<polygon fill="#8dd3c7" stroke="black" points="123.98,-84.8 120.98,-88.8 99.98,-88.8 96.98,-84.8 24.02,-84.8 24.02,-48.8 123.98,-48.8 123.98,-84.8"/>
<text text-anchor="middle" x="74" y="-62.6" font-family="Times,serif" font-size="14.00">LoggerModule</text>
</g>
<!-- LoggerModule&#45;&gt;FilesStorageModule -->
<g id="edge2" class="edge">
<title>LoggerModule&#45;&gt;FilesStorageModule</title>
<path fill="none" stroke="black" d="M74,-85.08C74,-106.12 74,-137.8 74,-137.8 74,-137.8 255.4,-137.8 255.4,-137.8"/>
<polygon fill="black" stroke="black" points="255.4,-141.3 265.4,-137.8 255.4,-134.3 255.4,-141.3"/>
</g>
<!-- FileRecordRepo -->
<g id="node4" class="node">
<title>FileRecordRepo</title>
<ellipse fill="#fdb462" stroke="black" cx="662" cy="-66.8" rx="74.16" ry="18"/>
<text text-anchor="middle" x="662" y="-62.6" font-family="Times,serif" font-size="14.00">FileRecordRepo</text>
</g>
<!-- FileRecordRepo&#45;&gt;FilesStorageModule -->
<g id="edge3" class="edge">
<title>FileRecordRepo&#45;&gt;FilesStorageModule</title>
<path fill="none" stroke="black" d="M662,-85.08C662,-106.12 662,-137.8 662,-137.8 662,-137.8 404.8,-137.8 404.8,-137.8"/>
<polygon fill="black" stroke="black" points="404.8,-134.3 394.8,-137.8 404.8,-141.3 404.8,-134.3"/>
</g>
<!-- FilesStorageUC -->
<g id="node5" class="node">
<title>FilesStorageUC</title>
<ellipse fill="#fdb462" stroke="black" cx="497" cy="-66.8" rx="72.95" ry="18"/>
<text text-anchor="middle" x="497" y="-62.6" font-family="Times,serif" font-size="14.00">FilesStorageUC</text>
</g>
<!-- FilesStorageUC&#45;&gt;FilesStorageModule -->
<g id="edge4" class="edge">
<title>FilesStorageUC&#45;&gt;FilesStorageModule</title>
<path fill="none" stroke="black" d="M497,-84.82C497,-102.17 497,-125.8 497,-125.8 497,-125.8 404.57,-125.8 404.57,-125.8"/>
<polygon fill="black" stroke="black" points="404.57,-122.3 394.57,-125.8 404.57,-129.3 404.57,-122.3"/>
</g>
<!-- S3ClientAdapter -->
<g id="node6" class="node">
<title>S3ClientAdapter</title>
<ellipse fill="#fdb462" stroke="black" cx="330" cy="-66.8" rx="75.88" ry="18"/>
<text text-anchor="middle" x="330" y="-62.6" font-family="Times,serif" font-size="14.00">S3ClientAdapter</text>
</g>
<!-- S3ClientAdapter&#45;&gt;FilesStorageModule -->
<g id="edge5" class="edge">
<title>S3ClientAdapter&#45;&gt;FilesStorageModule</title>
<path fill="none" stroke="black" d="M330,-84.91C330,-84.91 330,-103.79 330,-103.79"/>
<polygon fill="black" stroke="black" points="326.5,-103.79 330,-113.79 333.5,-103.79 326.5,-103.79"/>
</g>
</g>
</svg>
