<?xml version="1.0" encoding="UTF-8" standalone="no"?>
<!DOCTYPE svg PUBLIC "-//W3C//DTD SVG 1.1//EN"
 "http://www.w3.org/Graphics/SVG/1.1/DTD/svg11.dtd">
<!-- Generated by graphviz version 2.47.3 (20210619.1520)
 -->
<!-- Title: dependencies Pages: 1 -->
<svg width="1094pt" height="174pt"
 viewBox="0.00 0.00 1094.00 173.80" xmlns="http://www.w3.org/2000/svg" xmlns:xlink="http://www.w3.org/1999/xlink">
<g id="graph0" class="graph" transform="scale(1 1) rotate(0) translate(4 169.8)">
<title>dependencies</title>
<polygon fill="white" stroke="transparent" points="-4,4 -4,-169.8 1090,-169.8 1090,4 -4,4"/>
<text text-anchor="middle" x="543" y="-8.2" font-family="sans-serif" font-size="14.00">dependencies</text>
<g id="clust1" class="cluster">
<title>cluster_FilesStorageModule</title>
<polygon fill="none" stroke="black" stroke-dasharray="1,5" points="8,-32.8 8,-157.8 1078,-157.8 1078,-32.8 8,-32.8"/>
</g>
<g id="clust3" class="cluster">
<title>cluster_FilesStorageModule_imports</title>
<polygon fill="none" stroke="black" points="675,-40.8 675,-92.8 1070,-92.8 1070,-40.8 675,-40.8"/>
</g>
<g id="clust6" class="cluster">
<title>cluster_FilesStorageModule_providers</title>
<polygon fill="none" stroke="black" points="16,-40.8 16,-92.8 667,-92.8 667,-40.8 16,-40.8"/>
</g>
<!-- AuthModule -->
<g id="node1" class="node">
<title>AuthModule</title>
<polygon fill="#8dd3c7" stroke="black" points="1061.55,-84.8 1058.55,-88.8 1037.55,-88.8 1034.55,-84.8 974.45,-84.8 974.45,-48.8 1061.55,-48.8 1061.55,-84.8"/>
<text text-anchor="middle" x="1018" y="-62.6" font-family="Times,serif" font-size="14.00">AuthModule</text>
</g>
<!-- FilesStorageModule -->
<g id="node4" class="node">
<title>FilesStorageModule</title>
<polygon fill="#8dd3c7" stroke="black" points="649.54,-149.8 646.54,-153.8 625.54,-153.8 622.54,-149.8 520.46,-149.8 520.46,-113.8 649.54,-113.8 649.54,-149.8"/>
<text text-anchor="middle" x="585" y="-127.6" font-family="Times,serif" font-size="14.00">FilesStorageModule</text>
</g>
<!-- AuthModule&#45;&gt;FilesStorageModule -->
<g id="edge1" class="edge">
<title>AuthModule&#45;&gt;FilesStorageModule</title>
<path fill="none" stroke="black" d="M1018,-85.09C1018,-107.01 1018,-140.8 1018,-140.8 1018,-140.8 659.82,-140.8 659.82,-140.8"/>
<polygon fill="black" stroke="black" points="659.82,-137.3 649.82,-140.8 659.82,-144.3 659.82,-137.3"/>
</g>
<!-- CoreModule -->
<g id="node2" class="node">
<title>CoreModule</title>
<polygon fill="#8dd3c7" stroke="black" points="956.26,-84.8 953.26,-88.8 932.26,-88.8 929.26,-84.8 869.74,-84.8 869.74,-48.8 956.26,-48.8 956.26,-84.8"/>
<text text-anchor="middle" x="913" y="-62.6" font-family="Times,serif" font-size="14.00">CoreModule</text>
</g>
<!-- CoreModule&#45;&gt;FilesStorageModule -->
<g id="edge2" class="edge">
<title>CoreModule&#45;&gt;FilesStorageModule</title>
<path fill="none" stroke="black" d="M913,-84.91C913,-104.14 913,-131.8 913,-131.8 913,-131.8 659.8,-131.8 659.8,-131.8"/>
<polygon fill="black" stroke="black" points="659.8,-128.3 649.8,-131.8 659.8,-135.3 659.8,-128.3"/>
</g>
<!-- RabbitMQWrapperModule -->
<g id="node3" class="node">
<title>RabbitMQWrapperModule</title>
<polygon fill="#8dd3c7" stroke="black" points="851.4,-84.8 848.4,-88.8 827.4,-88.8 824.4,-84.8 682.6,-84.8 682.6,-48.8 851.4,-48.8 851.4,-84.8"/>
<text text-anchor="middle" x="767" y="-62.6" font-family="Times,serif" font-size="14.00">RabbitMQWrapperModule</text>
</g>
<!-- RabbitMQWrapperModule&#45;&gt;FilesStorageModule -->
<g id="edge3" class="edge">
<title>RabbitMQWrapperModule&#45;&gt;FilesStorageModule</title>
<path fill="none" stroke="black" d="M767,-84.83C767,-101.2 767,-122.8 767,-122.8 767,-122.8 659.68,-122.8 659.68,-122.8"/>
<polygon fill="black" stroke="black" points="659.68,-119.3 649.68,-122.8 659.68,-126.3 659.68,-119.3"/>
</g>
<!-- FileRecordRepo -->
<g id="node5" class="node">
<title>FileRecordRepo</title>
<ellipse fill="#fdb462" stroke="black" cx="585" cy="-66.8" rx="74.16" ry="18"/>
<text text-anchor="middle" x="585" y="-62.6" font-family="Times,serif" font-size="14.00">FileRecordRepo</text>
</g>
<!-- FileRecordRepo&#45;&gt;FilesStorageModule -->
<g id="edge4" class="edge">
<title>FileRecordRepo&#45;&gt;FilesStorageModule</title>
<path fill="none" stroke="black" d="M585,-84.91C585,-84.91 585,-103.79 585,-103.79"/>
<polygon fill="black" stroke="black" points="581.5,-103.79 585,-113.79 588.5,-103.79 581.5,-103.79"/>
</g>
<!-- FileRecordUC -->
<g id="node6" class="node">
<title>FileRecordUC</title>
<ellipse fill="#fdb462" stroke="black" cx="425" cy="-66.8" rx="67.21" ry="18"/>
<text text-anchor="middle" x="425" y="-62.6" font-family="Times,serif" font-size="14.00">FileRecordUC</text>
</g>
<!-- FileRecordUC&#45;&gt;FilesStorageModule -->
<g id="edge5" class="edge">
<title>FileRecordUC&#45;&gt;FilesStorageModule</title>
<path fill="none" stroke="black" d="M425,-84.83C425,-101.2 425,-122.8 425,-122.8 425,-122.8 510.38,-122.8 510.38,-122.8"/>
<polygon fill="black" stroke="black" points="510.38,-126.3 520.38,-122.8 510.38,-119.3 510.38,-126.3"/>
</g>
<!-- FilesStorageUC -->
<g id="node7" class="node">
<title>FilesStorageUC</title>
<ellipse fill="#fdb462" stroke="black" cx="267" cy="-66.8" rx="72.95" ry="18"/>
<text text-anchor="middle" x="267" y="-62.6" font-family="Times,serif" font-size="14.00">FilesStorageUC</text>
</g>
<!-- FilesStorageUC&#45;&gt;FilesStorageModule -->
<g id="edge6" class="edge">
<title>FilesStorageUC&#45;&gt;FilesStorageModule</title>
<path fill="none" stroke="black" d="M267,-84.91C267,-104.14 267,-131.8 267,-131.8 267,-131.8 510.26,-131.8 510.26,-131.8"/>
<polygon fill="black" stroke="black" points="510.26,-135.3 520.26,-131.8 510.26,-128.3 510.26,-135.3"/>
</g>
<!-- S3ClientAdapter -->
<g id="node8" class="node">
<title>S3ClientAdapter</title>
<ellipse fill="#fdb462" stroke="black" cx="100" cy="-66.8" rx="75.88" ry="18"/>
<text text-anchor="middle" x="100" y="-62.6" font-family="Times,serif" font-size="14.00">S3ClientAdapter</text>
</g>
<!-- S3ClientAdapter&#45;&gt;FilesStorageModule -->
<g id="edge7" class="edge">
<title>S3ClientAdapter&#45;&gt;FilesStorageModule</title>
<path fill="none" stroke="black" d="M100,-85.09C100,-107.01 100,-140.8 100,-140.8 100,-140.8 510.35,-140.8 510.35,-140.8"/>
<polygon fill="black" stroke="black" points="510.35,-144.3 520.35,-140.8 510.35,-137.3 510.35,-144.3"/>
</g>
</g>
</svg>
