<?xml version="1.0" encoding="UTF-8" standalone="no"?>
<!DOCTYPE svg PUBLIC "-//W3C//DTD SVG 1.1//EN"
 "http://www.w3.org/Graphics/SVG/1.1/DTD/svg11.dtd">
<!-- Generated by graphviz version 5.0.0 (20220707.1540)
 -->
<!-- Title: dependencies Pages: 1 -->
<svg width="1345pt" height="174pt"
 viewBox="0.00 0.00 1345.00 173.80" xmlns="http://www.w3.org/2000/svg" xmlns:xlink="http://www.w3.org/1999/xlink">
<g id="graph0" class="graph" transform="scale(1 1) rotate(0) translate(4 169.8)">
<title>dependencies</title>
<polygon fill="white" stroke="transparent" points="-4,4 -4,-169.8 1341,-169.8 1341,4 -4,4"/>
<text text-anchor="middle" x="668.5" y="-8.2" font-family="sans-serif" font-size="14.00">dependencies</text>
<g id="clust1" class="cluster">
<title>cluster_FilesStorageModule</title>
<polygon fill="none" stroke="black" stroke-dasharray="1,5" points="8,-32.8 8,-157.8 1329,-157.8 1329,-32.8 8,-32.8"/>
</g>
<g id="clust6" class="cluster">
<title>cluster_FilesStorageModule_providers</title>
<polygon fill="none" stroke="black" points="574,-40.8 574,-92.8 1321,-92.8 1321,-40.8 574,-40.8"/>
</g>
<g id="clust3" class="cluster">
<title>cluster_FilesStorageModule_imports</title>
<polygon fill="none" stroke="black" points="16,-40.8 16,-92.8 566,-92.8 566,-40.8 16,-40.8"/>
</g>
<!-- AuthModule -->
<g id="node1" class="node">
<title>AuthModule</title>
<polygon fill="#8dd3c7" stroke="black" points="557.55,-84.8 554.55,-88.8 533.55,-88.8 530.55,-84.8 470.45,-84.8 470.45,-48.8 557.55,-48.8 557.55,-84.8"/>
<text text-anchor="middle" x="514" y="-62.6" font-family="Times,serif" font-size="14.00">AuthModule</text>
</g>
<!-- FilesStorageModule -->
<g id="node5" class="node">
<title>FilesStorageModule</title>
<polygon fill="#8dd3c7" stroke="black" points="722.55,-149.8 719.55,-153.8 698.55,-153.8 695.55,-149.8 593.45,-149.8 593.45,-113.8 722.55,-113.8 722.55,-149.8"/>
<text text-anchor="middle" x="658" y="-127.6" font-family="Times,serif" font-size="14.00">FilesStorageModule</text>
</g>
<!-- AuthModule&#45;&gt;FilesStorageModule -->
<g id="edge1" class="edge">
<title>AuthModule&#45;&gt;FilesStorageModule</title>
<path fill="none" stroke="black" d="M514,-84.81C514,-100.85 514,-121.8 514,-121.8 514,-121.8 583.16,-121.8 583.16,-121.8"/>
<polygon fill="black" stroke="black" points="583.16,-125.3 593.16,-121.8 583.16,-118.3 583.16,-125.3"/>
</g>
<!-- AuthorizationModule -->
<g id="node2" class="node">
<title>AuthorizationModule</title>
<polygon fill="#8dd3c7" stroke="black" points="452.81,-84.8 449.81,-88.8 428.81,-88.8 425.81,-84.8 315.19,-84.8 315.19,-48.8 452.81,-48.8 452.81,-84.8"/>
<text text-anchor="middle" x="384" y="-62.6" font-family="Times,serif" font-size="14.00">AuthorizationModule</text>
</g>
<!-- AuthorizationModule&#45;&gt;FilesStorageModule -->
<g id="edge2" class="edge">
<title>AuthorizationModule&#45;&gt;FilesStorageModule</title>
<path fill="none" stroke="black" d="M384,-85.07C384,-103.36 384,-128.8 384,-128.8 384,-128.8 583.41,-128.8 583.41,-128.8"/>
<polygon fill="black" stroke="black" points="583.41,-132.3 593.41,-128.8 583.41,-125.3 583.41,-132.3"/>
</g>
<!-- CoreModule -->
<g id="node3" class="node">
<title>CoreModule</title>
<polygon fill="#8dd3c7" stroke="black" points="297.27,-84.8 294.27,-88.8 273.27,-88.8 270.27,-84.8 210.73,-84.8 210.73,-48.8 297.27,-48.8 297.27,-84.8"/>
<text text-anchor="middle" x="254" y="-62.6" font-family="Times,serif" font-size="14.00">CoreModule</text>
</g>
<!-- CoreModule&#45;&gt;FilesStorageModule -->
<g id="edge3" class="edge">
<title>CoreModule&#45;&gt;FilesStorageModule</title>
<path fill="none" stroke="black" d="M254,-84.93C254,-105.37 254,-135.8 254,-135.8 254,-135.8 583.09,-135.8 583.09,-135.8"/>
<polygon fill="black" stroke="black" points="583.09,-139.3 593.09,-135.8 583.09,-132.3 583.09,-139.3"/>
</g>
<!-- RabbitMQWrapperModule -->
<g id="node4" class="node">
<title>RabbitMQWrapperModule</title>
<polygon fill="#8dd3c7" stroke="black" points="192.41,-84.8 189.41,-88.8 168.41,-88.8 165.41,-84.8 23.59,-84.8 23.59,-48.8 192.41,-48.8 192.41,-84.8"/>
<text text-anchor="middle" x="108" y="-62.6" font-family="Times,serif" font-size="14.00">RabbitMQWrapperModule</text>
</g>
<!-- RabbitMQWrapperModule&#45;&gt;FilesStorageModule -->
<g id="edge4" class="edge">
<title>RabbitMQWrapperModule&#45;&gt;FilesStorageModule</title>
<path fill="none" stroke="black" d="M108,-84.81C108,-107.29 108,-142.8 108,-142.8 108,-142.8 583.29,-142.8 583.29,-142.8"/>
<polygon fill="black" stroke="black" points="583.29,-146.3 593.29,-142.8 583.29,-139.3 583.29,-146.3"/>
</g>
<!-- FileRecordRepo -->
<g id="node6" class="node">
<title>FileRecordRepo</title>
<ellipse fill="#fdb462" stroke="black" cx="1239" cy="-66.8" rx="74.16" ry="18"/>
<text text-anchor="middle" x="1239" y="-62.6" font-family="Times,serif" font-size="14.00">FileRecordRepo</text>
</g>
<!-- FileRecordRepo&#45;&gt;FilesStorageModule -->
<g id="edge5" class="edge">
<title>FileRecordRepo&#45;&gt;FilesStorageModule</title>
<path fill="none" stroke="black" d="M1239,-84.81C1239,-107.29 1239,-142.8 1239,-142.8 1239,-142.8 732.68,-142.8 732.68,-142.8"/>
<polygon fill="black" stroke="black" points="732.68,-139.3 722.68,-142.8 732.68,-146.3 732.68,-139.3"/>
</g>
<!-- FileRecordUC -->
<g id="node7" class="node">
<title>FileRecordUC</title>
<ellipse fill="#fdb462" stroke="black" cx="1079" cy="-66.8" rx="67.22" ry="18"/>
<text text-anchor="middle" x="1079" y="-62.6" font-family="Times,serif" font-size="14.00">FileRecordUC</text>
</g>
<!-- FileRecordUC&#45;&gt;FilesStorageModule -->
<g id="edge6" class="edge">
<title>FileRecordUC&#45;&gt;FilesStorageModule</title>
<path fill="none" stroke="black" d="M1079,-84.93C1079,-105.37 1079,-135.8 1079,-135.8 1079,-135.8 732.86,-135.8 732.86,-135.8"/>
<polygon fill="black" stroke="black" points="732.86,-132.3 722.86,-135.8 732.86,-139.3 732.86,-132.3"/>
</g>
<!-- FilesStorageUC -->
<g id="node8" class="node">
<title>FilesStorageUC</title>
<ellipse fill="#fdb462" stroke="black" cx="921" cy="-66.8" rx="72.96" ry="18"/>
<text text-anchor="middle" x="921" y="-62.6" font-family="Times,serif" font-size="14.00">FilesStorageUC</text>
</g>
<!-- FilesStorageUC&#45;&gt;FilesStorageModule -->
<g id="edge7" class="edge">
<title>FilesStorageUC&#45;&gt;FilesStorageModule</title>
<path fill="none" stroke="black" d="M921,-85.07C921,-103.36 921,-128.8 921,-128.8 921,-128.8 732.67,-128.8 732.67,-128.8"/>
<polygon fill="black" stroke="black" points="732.67,-125.3 722.67,-128.8 732.67,-132.3 732.67,-125.3"/>
</g>
<!-- Logger -->
<g id="node9" class="node">
<title>Logger</title>
<ellipse fill="#fdb462" stroke="black" cx="791" cy="-66.8" rx="38.85" ry="18"/>
<text text-anchor="middle" x="791" y="-62.6" font-family="Times,serif" font-size="14.00">Logger</text>
</g>
<!-- Logger&#45;&gt;FilesStorageModule -->
<g id="edge8" class="edge">
<title>Logger&#45;&gt;FilesStorageModule</title>
<path fill="none" stroke="black" d="M791,-84.81C791,-100.85 791,-121.8 791,-121.8 791,-121.8 732.55,-121.8 732.55,-121.8"/>
<polygon fill="black" stroke="black" points="732.55,-118.3 722.55,-121.8 732.55,-125.3 732.55,-118.3"/>
</g>
<!-- S3ClientAdapter -->
<g id="node10" class="node">
<title>S3ClientAdapter</title>
<ellipse fill="#fdb462" stroke="black" cx="658" cy="-66.8" rx="75.89" ry="18"/>
<text text-anchor="middle" x="658" y="-62.6" font-family="Times,serif" font-size="14.00">S3ClientAdapter</text>
</g>
<!-- S3ClientAdapter&#45;&gt;FilesStorageModule -->
<g id="edge9" class="edge">
<title>S3ClientAdapter&#45;&gt;FilesStorageModule</title>
<path fill="none" stroke="black" d="M658,-84.91C658,-84.91 658,-103.79 658,-103.79"/>
<polygon fill="black" stroke="black" points="654.5,-103.79 658,-113.79 661.5,-103.79 654.5,-103.79"/>
</g>
</g>
</svg>
