<?xml version="1.0" encoding="UTF-8" standalone="no"?>
<!DOCTYPE svg PUBLIC "-//W3C//DTD SVG 1.1//EN"
 "http://www.w3.org/Graphics/SVG/1.1/DTD/svg11.dtd">
<!-- Generated by graphviz version 5.0.0 (20220707.1540)
 -->
<!-- Title: dependencies Pages: 1 -->
<svg width="2670pt" height="174pt"
 viewBox="0.00 0.00 2670.00 173.80" xmlns="http://www.w3.org/2000/svg" xmlns:xlink="http://www.w3.org/1999/xlink">
<g id="graph0" class="graph" transform="scale(1 1) rotate(0) translate(4 169.8)">
<title>dependencies</title>
<polygon fill="white" stroke="transparent" points="-4,4 -4,-169.8 2666,-169.8 2666,4 -4,4"/>
<text text-anchor="middle" x="1331" y="-8.2" font-family="sans-serif" font-size="14.00">dependencies</text>
<g id="clust1" class="cluster">
<title>cluster_ToolApiModule</title>
<polygon fill="none" stroke="black" stroke-dasharray="1,5" points="8,-32.8 8,-157.8 2654,-157.8 2654,-32.8 8,-32.8"/>
</g>
<g id="clust3" class="cluster">
<title>cluster_ToolApiModule_imports</title>
<polygon fill="none" stroke="black" points="2166,-40.8 2166,-92.8 2646,-92.8 2646,-40.8 2166,-40.8"/>
</g>
<g id="clust6" class="cluster">
<title>cluster_ToolApiModule_providers</title>
<polygon fill="none" stroke="black" points="16,-40.8 16,-92.8 2158,-92.8 2158,-40.8 16,-40.8"/>
</g>
<!-- AuthorizationModule -->
<g id="node1" class="node">
<title>AuthorizationModule</title>
<polygon fill="#8dd3c7" stroke="black" points="2637.81,-84.8 2634.81,-88.8 2613.81,-88.8 2610.81,-84.8 2500.19,-84.8 2500.19,-48.8 2637.81,-48.8 2637.81,-84.8"/>
<text text-anchor="middle" x="2569" y="-62.6" font-family="Times,serif" font-size="14.00">AuthorizationModule</text>
</g>
<!-- ToolApiModule -->
<g id="node5" class="node">
<title>ToolApiModule</title>
<polygon fill="#8dd3c7" stroke="black" points="1427.49,-149.8 1424.49,-153.8 1403.49,-153.8 1400.49,-149.8 1320.51,-149.8 1320.51,-113.8 1427.49,-113.8 1427.49,-149.8"/>
<text text-anchor="middle" x="1374" y="-127.6" font-family="Times,serif" font-size="14.00">ToolApiModule</text>
</g>
<!-- AuthorizationModule&#45;&gt;ToolApiModule -->
<g id="edge1" class="edge">
<title>AuthorizationModule&#45;&gt;ToolApiModule</title>
<path fill="none" stroke="black" d="M2569,-84.89C2569,-107.93 2569,-144.8 2569,-144.8 2569,-144.8 1437.67,-144.8 1437.67,-144.8"/>
<polygon fill="black" stroke="black" points="1437.67,-141.3 1427.67,-144.8 1437.67,-148.3 1437.67,-141.3"/>
</g>
<!-- LoggerModule -->
<g id="node2" class="node">
<title>LoggerModule</title>
<polygon fill="#8dd3c7" stroke="black" points="2481.98,-84.8 2478.98,-88.8 2457.98,-88.8 2454.98,-84.8 2382.02,-84.8 2382.02,-48.8 2481.98,-48.8 2481.98,-84.8"/>
<text text-anchor="middle" x="2432" y="-62.6" font-family="Times,serif" font-size="14.00">LoggerModule</text>
</g>
<!-- LoggerModule&#45;&gt;ToolApiModule -->
<g id="edge2" class="edge">
<title>LoggerModule&#45;&gt;ToolApiModule</title>
<path fill="none" stroke="black" d="M2432,-84.84C2432,-106.46 2432,-139.8 2432,-139.8 2432,-139.8 1437.56,-139.8 1437.56,-139.8"/>
<polygon fill="black" stroke="black" points="1437.56,-136.3 1427.56,-139.8 1437.56,-143.3 1437.56,-136.3"/>
</g>
<!-- ToolModule -->
<g id="node3" class="node">
<title>ToolModule</title>
<polygon fill="#8dd3c7" stroke="black" points="2363.99,-84.8 2360.99,-88.8 2339.99,-88.8 2336.99,-84.8 2278.01,-84.8 2278.01,-48.8 2363.99,-48.8 2363.99,-84.8"/>
<text text-anchor="middle" x="2321" y="-62.6" font-family="Times,serif" font-size="14.00">ToolModule</text>
</g>
<!-- ToolModule&#45;&gt;ToolApiModule -->
<g id="edge3" class="edge">
<title>ToolModule&#45;&gt;ToolApiModule</title>
<path fill="none" stroke="black" d="M2321,-85.02C2321,-105.17 2321,-134.8 2321,-134.8 2321,-134.8 1437.63,-134.8 1437.63,-134.8"/>
<polygon fill="black" stroke="black" points="1437.63,-131.3 1427.63,-134.8 1437.63,-138.3 1437.63,-131.3"/>
</g>
<!-- UserModule -->
<g id="node4" class="node">
<title>UserModule</title>
<polygon fill="#8dd3c7" stroke="black" points="2259.99,-84.8 2256.99,-88.8 2235.99,-88.8 2232.99,-84.8 2174.01,-84.8 2174.01,-48.8 2259.99,-48.8 2259.99,-84.8"/>
<text text-anchor="middle" x="2217" y="-62.6" font-family="Times,serif" font-size="14.00">UserModule</text>
</g>
<!-- UserModule&#45;&gt;ToolApiModule -->
<g id="edge4" class="edge">
<title>UserModule&#45;&gt;ToolApiModule</title>
<path fill="none" stroke="black" d="M2217,-85.02C2217,-103.63 2217,-129.8 2217,-129.8 2217,-129.8 1437.69,-129.8 1437.69,-129.8"/>
<polygon fill="black" stroke="black" points="1437.69,-126.3 1427.69,-129.8 1437.69,-133.3 1437.69,-126.3"/>
</g>
<!-- ExternalToolConfigurationUc -->
<g id="node6" class="node">
<title>ExternalToolConfigurationUc</title>
<ellipse fill="#fdb462" stroke="black" cx="2023" cy="-66.8" rx="127.35" ry="18"/>
<text text-anchor="middle" x="2023" y="-62.6" font-family="Times,serif" font-size="14.00">ExternalToolConfigurationUc</text>
</g>
<!-- ExternalToolConfigurationUc&#45;&gt;ToolApiModule -->
<g id="edge5" class="edge">
<title>ExternalToolConfigurationUc&#45;&gt;ToolApiModule</title>
<path fill="none" stroke="black" d="M2023,-84.83C2023,-101.86 2023,-124.8 2023,-124.8 2023,-124.8 1437.66,-124.8 1437.66,-124.8"/>
<polygon fill="black" stroke="black" points="1437.66,-121.3 1427.66,-124.8 1437.66,-128.3 1437.66,-121.3"/>
</g>
<!-- ExternalToolRequestMapper -->
<g id="node7" class="node">
<title>ExternalToolRequestMapper</title>
<ellipse fill="#fdb462" stroke="black" cx="1754" cy="-66.8" rx="123.26" ry="18"/>
<text text-anchor="middle" x="1754" y="-62.6" font-family="Times,serif" font-size="14.00">ExternalToolRequestMapper</text>
</g>
<!-- ExternalToolRequestMapper&#45;&gt;ToolApiModule -->
<g id="edge6" class="edge">
<title>ExternalToolRequestMapper&#45;&gt;ToolApiModule</title>
<path fill="none" stroke="black" d="M1754,-85.04C1754,-100.37 1754,-119.8 1754,-119.8 1754,-119.8 1437.64,-119.8 1437.64,-119.8"/>
<polygon fill="black" stroke="black" points="1437.64,-116.3 1427.64,-119.8 1437.64,-123.3 1437.64,-116.3"/>
</g>
<!-- ExternalToolResponseMapper -->
<g id="node8" class="node">
<title>ExternalToolResponseMapper</title>
<ellipse fill="#fdb462" stroke="black" cx="1484" cy="-66.8" rx="129.06" ry="18"/>
<text text-anchor="middle" x="1484" y="-62.6" font-family="Times,serif" font-size="14.00">ExternalToolResponseMapper</text>
</g>
<!-- ExternalToolResponseMapper&#45;&gt;ToolApiModule -->
<g id="edge7" class="edge">
<title>ExternalToolResponseMapper&#45;&gt;ToolApiModule</title>
<path fill="none" stroke="black" d="M1391.23,-79.33C1391.23,-79.33 1391.23,-103.65 1391.23,-103.65"/>
<polygon fill="black" stroke="black" points="1387.73,-103.65 1391.23,-113.65 1394.73,-103.65 1387.73,-103.65"/>
</g>
<!-- ExternalToolUc -->
<g id="node9" class="node">
<title>ExternalToolUc</title>
<ellipse fill="#fdb462" stroke="black" cx="1264" cy="-66.8" rx="73.49" ry="18"/>
<text text-anchor="middle" x="1264" y="-62.6" font-family="Times,serif" font-size="14.00">ExternalToolUc</text>
</g>
<!-- ExternalToolUc&#45;&gt;ToolApiModule -->
<g id="edge8" class="edge">
<title>ExternalToolUc&#45;&gt;ToolApiModule</title>
<path fill="none" stroke="black" d="M1328.87,-75.3C1328.87,-75.3 1328.87,-103.71 1328.87,-103.71"/>
<polygon fill="black" stroke="black" points="1325.37,-103.71 1328.87,-113.71 1332.37,-103.71 1325.37,-103.71"/>
</g>
<!-- Lti11ResponseMapper -->
<g id="node10" class="node">
<title>Lti11ResponseMapper</title>
<ellipse fill="#fdb462" stroke="black" cx="1074" cy="-66.8" rx="99.01" ry="18"/>
<text text-anchor="middle" x="1074" y="-62.6" font-family="Times,serif" font-size="14.00">Lti11ResponseMapper</text>
</g>
<!-- Lti11ResponseMapper&#45;&gt;ToolApiModule -->
<g id="edge9" class="edge">
<title>Lti11ResponseMapper&#45;&gt;ToolApiModule</title>
<path fill="none" stroke="black" d="M1074,-85.04C1074,-100.37 1074,-119.8 1074,-119.8 1074,-119.8 1310.37,-119.8 1310.37,-119.8"/>
<polygon fill="black" stroke="black" points="1310.37,-123.3 1320.37,-119.8 1310.37,-116.3 1310.37,-123.3"/>
</g>
<!-- Lti11Uc -->
<g id="node11" class="node">
<title>Lti11Uc</title>
<ellipse fill="#fdb462" stroke="black" cx="914" cy="-66.8" rx="43.44" ry="18"/>
<text text-anchor="middle" x="914" y="-62.6" font-family="Times,serif" font-size="14.00">Lti11Uc</text>
</g>
<!-- Lti11Uc&#45;&gt;ToolApiModule -->
<g id="edge10" class="edge">
<title>Lti11Uc&#45;&gt;ToolApiModule</title>
<path fill="none" stroke="black" d="M914,-84.83C914,-101.86 914,-124.8 914,-124.8 914,-124.8 1310.33,-124.8 1310.33,-124.8"/>
<polygon fill="black" stroke="black" points="1310.33,-128.3 1320.33,-124.8 1310.33,-121.3 1310.33,-128.3"/>
</g>
<!-- LtiRoleMapper -->
<g id="node12" class="node">
<title>LtiRoleMapper</title>
<ellipse fill="#fdb462" stroke="black" cx="782" cy="-66.8" rx="70.64" ry="18"/>
<text text-anchor="middle" x="782" y="-62.6" font-family="Times,serif" font-size="14.00">LtiRoleMapper</text>
</g>
<!-- LtiRoleMapper&#45;&gt;ToolApiModule -->
<g id="edge11" class="edge">
<title>LtiRoleMapper&#45;&gt;ToolApiModule</title>
<path fill="none" stroke="black" d="M782,-85.02C782,-103.63 782,-129.8 782,-129.8 782,-129.8 1310.42,-129.8 1310.42,-129.8"/>
<polygon fill="black" stroke="black" points="1310.42,-133.3 1320.42,-129.8 1310.42,-126.3 1310.42,-133.3"/>
</g>
<!-- LtiToolRepo -->
<g id="node13" class="node">
<title>LtiToolRepo</title>
<ellipse fill="#fdb462" stroke="black" cx="633" cy="-66.8" rx="60.85" ry="18"/>
<text text-anchor="middle" x="633" y="-62.6" font-family="Times,serif" font-size="14.00">LtiToolRepo</text>
</g>
<!-- LtiToolRepo&#45;&gt;ToolApiModule -->
<g id="edge12" class="edge">
<title>LtiToolRepo&#45;&gt;ToolApiModule</title>
<path fill="none" stroke="black" d="M633,-85.02C633,-105.17 633,-134.8 633,-134.8 633,-134.8 1310.41,-134.8 1310.41,-134.8"/>
<polygon fill="black" stroke="black" points="1310.41,-138.3 1320.41,-134.8 1310.41,-131.3 1310.41,-138.3"/>
</g>
<!-- SchoolExternalToolResponseMapper -->
<g id="node14" class="node">
<title>SchoolExternalToolResponseMapper</title>
<ellipse fill="#fdb462" stroke="black" cx="398" cy="-66.8" rx="155.72" ry="18"/>
<text text-anchor="middle" x="398" y="-62.6" font-family="Times,serif" font-size="14.00">SchoolExternalToolResponseMapper</text>
</g>
<!-- SchoolExternalToolResponseMapper&#45;&gt;ToolApiModule -->
<g id="edge13" class="edge">
<title>SchoolExternalToolResponseMapper&#45;&gt;ToolApiModule</title>
<path fill="none" stroke="black" d="M398,-84.84C398,-106.46 398,-139.8 398,-139.8 398,-139.8 1310.48,-139.8 1310.48,-139.8"/>
<polygon fill="black" stroke="black" points="1310.48,-143.3 1320.48,-139.8 1310.48,-136.3 1310.48,-143.3"/>
</g>
<!-- SchoolExternalToolUc -->
<g id="node15" class="node">
<title>SchoolExternalToolUc</title>
<ellipse fill="#fdb462" stroke="black" cx="124" cy="-66.8" rx="100.14" ry="18"/>
<text text-anchor="middle" x="124" y="-62.6" font-family="Times,serif" font-size="14.00">SchoolExternalToolUc</text>
</g>
<!-- SchoolExternalToolUc&#45;&gt;ToolApiModule -->
<g id="edge14" class="edge">
<title>SchoolExternalToolUc&#45;&gt;ToolApiModule</title>
<path fill="none" stroke="black" d="M124,-84.89C124,-107.93 124,-144.8 124,-144.8 124,-144.8 1310.29,-144.8 1310.29,-144.8"/>
<polygon fill="black" stroke="black" points="1310.29,-148.3 1320.29,-144.8 1310.29,-141.3 1310.29,-148.3"/>
</g>
</g>
</svg>
