<?xml version="1.0" encoding="UTF-8" standalone="no"?>
<!DOCTYPE svg PUBLIC "-//W3C//DTD SVG 1.1//EN"
 "http://www.w3.org/Graphics/SVG/1.1/DTD/svg11.dtd">
<!-- Generated by graphviz version 5.0.0 (20220707.1540)
 -->
<!-- Title: dependencies Pages: 1 -->
<svg width="1849pt" height="174pt"
 viewBox="0.00 0.00 1849.00 173.80" xmlns="http://www.w3.org/2000/svg" xmlns:xlink="http://www.w3.org/1999/xlink">
<g id="graph0" class="graph" transform="scale(1 1) rotate(0) translate(4 169.8)">
<title>dependencies</title>
<polygon fill="white" stroke="transparent" points="-4,4 -4,-169.8 1845,-169.8 1845,4 -4,4"/>
<text text-anchor="middle" x="920.5" y="-8.2" font-family="sans-serif" font-size="14.00">dependencies</text>
<g id="clust1" class="cluster">
<title>cluster_ToolApiModule</title>
<polygon fill="none" stroke="black" stroke-dasharray="1,5" points="8,-32.8 8,-157.8 1833,-157.8 1833,-32.8 8,-32.8"/>
</g>
<g id="clust6" class="cluster">
<title>cluster_ToolApiModule_providers</title>
<polygon fill="none" stroke="black" points="504,-40.8 504,-92.8 1825,-92.8 1825,-40.8 504,-40.8"/>
</g>
<g id="clust3" class="cluster">
<title>cluster_ToolApiModule_imports</title>
<polygon fill="none" stroke="black" points="16,-40.8 16,-92.8 496,-92.8 496,-40.8 16,-40.8"/>
</g>
<!-- AuthorizationModule -->
<g id="node1" class="node">
<title>AuthorizationModule</title>
<polygon fill="#8dd3c7" stroke="black" points="487.81,-84.8 484.81,-88.8 463.81,-88.8 460.81,-84.8 350.19,-84.8 350.19,-48.8 487.81,-48.8 487.81,-84.8"/>
<text text-anchor="middle" x="419" y="-62.6" font-family="Times,serif" font-size="14.00">AuthorizationModule</text>
</g>
<!-- ToolApiModule -->
<g id="node5" class="node">
<title>ToolApiModule</title>
<polygon fill="#8dd3c7" stroke="black" points="775.49,-149.8 772.49,-153.8 751.49,-153.8 748.49,-149.8 668.51,-149.8 668.51,-113.8 775.49,-113.8 775.49,-149.8"/>
<text text-anchor="middle" x="722" y="-127.6" font-family="Times,serif" font-size="14.00">ToolApiModule</text>
</g>
<!-- AuthorizationModule&#45;&gt;ToolApiModule -->
<g id="edge1" class="edge">
<title>AuthorizationModule&#45;&gt;ToolApiModule</title>
<path fill="none" stroke="black" d="M419,-84.82C419,-102.17 419,-125.8 419,-125.8 419,-125.8 658.18,-125.8 658.18,-125.8"/>
<polygon fill="black" stroke="black" points="658.18,-129.3 668.18,-125.8 658.18,-122.3 658.18,-129.3"/>
</g>
<!-- LoggerModule -->
<g id="node2" class="node">
<title>LoggerModule</title>
<polygon fill="#8dd3c7" stroke="black" points="331.98,-84.8 328.98,-88.8 307.98,-88.8 304.98,-84.8 232.02,-84.8 232.02,-48.8 331.98,-48.8 331.98,-84.8"/>
<text text-anchor="middle" x="282" y="-62.6" font-family="Times,serif" font-size="14.00">LoggerModule</text>
</g>
<!-- LoggerModule&#45;&gt;ToolApiModule -->
<g id="edge2" class="edge">
<title>LoggerModule&#45;&gt;ToolApiModule</title>
<path fill="none" stroke="black" d="M282,-84.91C282,-104.14 282,-131.8 282,-131.8 282,-131.8 658.49,-131.8 658.49,-131.8"/>
<polygon fill="black" stroke="black" points="658.49,-135.3 668.49,-131.8 658.49,-128.3 658.49,-135.3"/>
</g>
<!-- ToolModule -->
<g id="node3" class="node">
<title>ToolModule</title>
<polygon fill="#8dd3c7" stroke="black" points="213.99,-84.8 210.99,-88.8 189.99,-88.8 186.99,-84.8 128.01,-84.8 128.01,-48.8 213.99,-48.8 213.99,-84.8"/>
<text text-anchor="middle" x="171" y="-62.6" font-family="Times,serif" font-size="14.00">ToolModule</text>
</g>
<!-- ToolModule&#45;&gt;ToolApiModule -->
<g id="edge3" class="edge">
<title>ToolModule&#45;&gt;ToolApiModule</title>
<path fill="none" stroke="black" d="M171,-85.08C171,-106.12 171,-137.8 171,-137.8 171,-137.8 658.42,-137.8 658.42,-137.8"/>
<polygon fill="black" stroke="black" points="658.42,-141.3 668.42,-137.8 658.42,-134.3 658.42,-141.3"/>
</g>
<!-- UserModule -->
<g id="node4" class="node">
<title>UserModule</title>
<polygon fill="#8dd3c7" stroke="black" points="109.99,-84.8 106.99,-88.8 85.99,-88.8 82.99,-84.8 24.01,-84.8 24.01,-48.8 109.99,-48.8 109.99,-84.8"/>
<text text-anchor="middle" x="67" y="-62.6" font-family="Times,serif" font-size="14.00">UserModule</text>
</g>
<!-- UserModule&#45;&gt;ToolApiModule -->
<g id="edge4" class="edge">
<title>UserModule&#45;&gt;ToolApiModule</title>
<path fill="none" stroke="black" d="M67,-84.89C67,-107.93 67,-144.8 67,-144.8 67,-144.8 658.4,-144.8 658.4,-144.8"/>
<polygon fill="black" stroke="black" points="658.4,-148.3 668.4,-144.8 658.4,-141.3 658.4,-148.3"/>
</g>
<!-- ExternalToolRequestMapper -->
<g id="node6" class="node">
<title>ExternalToolRequestMapper</title>
<ellipse fill="#fdb462" stroke="black" cx="1694" cy="-66.8" rx="123.26" ry="18"/>
<text text-anchor="middle" x="1694" y="-62.6" font-family="Times,serif" font-size="14.00">ExternalToolRequestMapper</text>
</g>
<!-- ExternalToolRequestMapper&#45;&gt;ToolApiModule -->
<g id="edge5" class="edge">
<title>ExternalToolRequestMapper&#45;&gt;ToolApiModule</title>
<path fill="none" stroke="black" d="M1694,-84.89C1694,-107.93 1694,-144.8 1694,-144.8 1694,-144.8 785.64,-144.8 785.64,-144.8"/>
<polygon fill="black" stroke="black" points="785.64,-141.3 775.64,-144.8 785.64,-148.3 785.64,-141.3"/>
</g>
<!-- ExternalToolResponseMapper -->
<g id="node7" class="node">
<title>ExternalToolResponseMapper</title>
<ellipse fill="#fdb462" stroke="black" cx="1424" cy="-66.8" rx="129.06" ry="18"/>
<text text-anchor="middle" x="1424" y="-62.6" font-family="Times,serif" font-size="14.00">ExternalToolResponseMapper</text>
</g>
<!-- ExternalToolResponseMapper&#45;&gt;ToolApiModule -->
<g id="edge6" class="edge">
<title>ExternalToolResponseMapper&#45;&gt;ToolApiModule</title>
<path fill="none" stroke="black" d="M1424,-85.08C1424,-106.12 1424,-137.8 1424,-137.8 1424,-137.8 785.63,-137.8 785.63,-137.8"/>
<polygon fill="black" stroke="black" points="785.63,-134.3 775.63,-137.8 785.63,-141.3 785.63,-134.3"/>
</g>
<!-- ExternalToolUc -->
<g id="node8" class="node">
<title>ExternalToolUc</title>
<ellipse fill="#fdb462" stroke="black" cx="1204" cy="-66.8" rx="73.49" ry="18"/>
<text text-anchor="middle" x="1204" y="-62.6" font-family="Times,serif" font-size="14.00">ExternalToolUc</text>
</g>
<!-- ExternalToolUc&#45;&gt;ToolApiModule -->
<g id="edge7" class="edge">
<title>ExternalToolUc&#45;&gt;ToolApiModule</title>
<path fill="none" stroke="black" d="M1204,-84.91C1204,-104.14 1204,-131.8 1204,-131.8 1204,-131.8 785.89,-131.8 785.89,-131.8"/>
<polygon fill="black" stroke="black" points="785.89,-128.3 775.89,-131.8 785.89,-135.3 785.89,-128.3"/>
</g>
<!-- Lti11ResponseMapper -->
<g id="node9" class="node">
<title>Lti11ResponseMapper</title>
<ellipse fill="#fdb462" stroke="black" cx="1014" cy="-66.8" rx="99.01" ry="18"/>
<text text-anchor="middle" x="1014" y="-62.6" font-family="Times,serif" font-size="14.00">Lti11ResponseMapper</text>
</g>
<!-- Lti11ResponseMapper&#45;&gt;ToolApiModule -->
<g id="edge8" class="edge">
<title>Lti11ResponseMapper&#45;&gt;ToolApiModule</title>
<path fill="none" stroke="black" d="M1014,-84.82C1014,-102.17 1014,-125.8 1014,-125.8 1014,-125.8 785.56,-125.8 785.56,-125.8"/>
<polygon fill="black" stroke="black" points="785.56,-122.3 775.56,-125.8 785.56,-129.3 785.56,-122.3"/>
</g>
<!-- Lti11Uc -->
<g id="node10" class="node">
<title>Lti11Uc</title>
<ellipse fill="#fdb462" stroke="black" cx="854" cy="-66.8" rx="43.44" ry="18"/>
<text text-anchor="middle" x="854" y="-62.6" font-family="Times,serif" font-size="14.00">Lti11Uc</text>
</g>
<!-- Lti11Uc&#45;&gt;ToolApiModule -->
<g id="edge9" class="edge">
<title>Lti11Uc&#45;&gt;ToolApiModule</title>
<path fill="none" stroke="black" d="M854,-85.04C854,-100.37 854,-119.8 854,-119.8 854,-119.8 785.69,-119.8 785.69,-119.8"/>
<polygon fill="black" stroke="black" points="785.69,-116.3 775.69,-119.8 785.69,-123.3 785.69,-116.3"/>
</g>
<!-- LtiRoleMapper -->
<g id="node11" class="node">
<title>LtiRoleMapper</title>
<ellipse fill="#fdb462" stroke="black" cx="722" cy="-66.8" rx="70.64" ry="18"/>
<text text-anchor="middle" x="722" y="-62.6" font-family="Times,serif" font-size="14.00">LtiRoleMapper</text>
</g>
<!-- LtiRoleMapper&#45;&gt;ToolApiModule -->
<g id="edge10" class="edge">
<title>LtiRoleMapper&#45;&gt;ToolApiModule</title>
<path fill="none" stroke="black" d="M722,-84.91C722,-84.91 722,-103.79 722,-103.79"/>
<polygon fill="black" stroke="black" points="718.5,-103.79 722,-113.79 725.5,-103.79 718.5,-103.79"/>
</g>
<!-- LtiToolRepo -->
<g id="node12" class="node">
<title>LtiToolRepo</title>
<ellipse fill="#fdb462" stroke="black" cx="573" cy="-66.8" rx="60.85" ry="18"/>
<text text-anchor="middle" x="573" y="-62.6" font-family="Times,serif" font-size="14.00">LtiToolRepo</text>
</g>
<!-- LtiToolRepo&#45;&gt;ToolApiModule -->
<g id="edge11" class="edge">
<title>LtiToolRepo&#45;&gt;ToolApiModule</title>
<path fill="none" stroke="black" d="M573,-85.04C573,-100.37 573,-119.8 573,-119.8 573,-119.8 658.21,-119.8 658.21,-119.8"/>
<polygon fill="black" stroke="black" points="658.21,-123.3 668.21,-119.8 658.21,-116.3 658.21,-123.3"/>
</g>
</g>
</svg>
