<?xml version="1.0" encoding="UTF-8" standalone="no"?>
<!DOCTYPE svg PUBLIC "-//W3C//DTD SVG 1.1//EN"
 "http://www.w3.org/Graphics/SVG/1.1/DTD/svg11.dtd">
<!-- Generated by graphviz version 5.0.0 (20220707.1540)
 -->
<!-- Title: dependencies Pages: 1 -->
<svg width="2786pt" height="174pt"
 viewBox="0.00 0.00 2786.00 173.80" xmlns="http://www.w3.org/2000/svg" xmlns:xlink="http://www.w3.org/1999/xlink">
<g id="graph0" class="graph" transform="scale(1 1) rotate(0) translate(4 169.8)">
<title>dependencies</title>
<polygon fill="white" stroke="transparent" points="-4,4 -4,-169.8 2782,-169.8 2782,4 -4,4"/>
<text text-anchor="middle" x="1389" y="-8.2" font-family="sans-serif" font-size="14.00">dependencies</text>
<g id="clust1" class="cluster">
<title>cluster_ToolApiModule</title>
<polygon fill="none" stroke="black" stroke-dasharray="1,5" points="8,-32.8 8,-157.8 2770,-157.8 2770,-32.8 8,-32.8"/>
</g>
<g id="clust3" class="cluster">
<title>cluster_ToolApiModule_imports</title>
<polygon fill="none" stroke="black" points="2166,-40.8 2166,-92.8 2762,-92.8 2762,-40.8 2166,-40.8"/>
</g>
<g id="clust6" class="cluster">
<title>cluster_ToolApiModule_providers</title>
<polygon fill="none" stroke="black" points="16,-40.8 16,-92.8 2158,-92.8 2158,-40.8 16,-40.8"/>
</g>
<!-- AuthorizationModule -->
<g id="node1" class="node">
<title>AuthorizationModule</title>
<polygon fill="#8dd3c7" stroke="black" points="2753.81,-84.8 2750.81,-88.8 2729.81,-88.8 2726.81,-84.8 2616.19,-84.8 2616.19,-48.8 2753.81,-48.8 2753.81,-84.8"/>
<text text-anchor="middle" x="2685" y="-62.6" font-family="Times,serif" font-size="14.00">AuthorizationModule</text>
</g>
<!-- ToolApiModule -->
<g id="node6" class="node">
<title>ToolApiModule</title>
<polygon fill="#8dd3c7" stroke="black" points="1537.49,-149.8 1534.49,-153.8 1513.49,-153.8 1510.49,-149.8 1430.51,-149.8 1430.51,-113.8 1537.49,-113.8 1537.49,-149.8"/>
<text text-anchor="middle" x="1484" y="-127.6" font-family="Times,serif" font-size="14.00">ToolApiModule</text>
</g>
<!-- AuthorizationModule&#45;&gt;ToolApiModule -->
<g id="edge1" class="edge">
<title>AuthorizationModule&#45;&gt;ToolApiModule</title>
<path fill="none" stroke="black" d="M2685,-85.12C2685,-108.46 2685,-145.8 2685,-145.8 2685,-145.8 1547.55,-145.8 1547.55,-145.8"/>
<polygon fill="black" stroke="black" points="1547.55,-142.3 1537.55,-145.8 1547.55,-149.3 1547.55,-142.3"/>
</g>
<!-- LoggerModule -->
<g id="node2" class="node">
<title>LoggerModule</title>
<polygon fill="#8dd3c7" stroke="black" points="2597.98,-84.8 2594.98,-88.8 2573.98,-88.8 2570.98,-84.8 2498.02,-84.8 2498.02,-48.8 2597.98,-48.8 2597.98,-84.8"/>
<text text-anchor="middle" x="2548" y="-62.6" font-family="Times,serif" font-size="14.00">LoggerModule</text>
</g>
<!-- LoggerModule&#45;&gt;ToolApiModule -->
<g id="edge2" class="edge">
<title>LoggerModule&#45;&gt;ToolApiModule</title>
<path fill="none" stroke="black" d="M2548,-85.09C2548,-107.01 2548,-140.8 2548,-140.8 2548,-140.8 1547.86,-140.8 1547.86,-140.8"/>
<polygon fill="black" stroke="black" points="1547.86,-137.3 1537.86,-140.8 1547.86,-144.3 1547.86,-137.3"/>
</g>
<!-- SchoolModule -->
<g id="node3" class="node">
<title>SchoolModule</title>
<polygon fill="#8dd3c7" stroke="black" points="2480.44,-84.8 2477.44,-88.8 2456.44,-88.8 2453.44,-84.8 2381.56,-84.8 2381.56,-48.8 2480.44,-48.8 2480.44,-84.8"/>
<text text-anchor="middle" x="2431" y="-62.6" font-family="Times,serif" font-size="14.00">SchoolModule</text>
</g>
<!-- SchoolModule&#45;&gt;ToolApiModule -->
<g id="edge3" class="edge">
<title>SchoolModule&#45;&gt;ToolApiModule</title>
<path fill="none" stroke="black" d="M2431,-84.83C2431,-105.57 2431,-136.8 2431,-136.8 2431,-136.8 1547.63,-136.8 1547.63,-136.8"/>
<polygon fill="black" stroke="black" points="1547.63,-133.3 1537.63,-136.8 1547.63,-140.3 1547.63,-133.3"/>
</g>
<!-- ToolModule -->
<g id="node4" class="node">
<title>ToolModule</title>
<polygon fill="#8dd3c7" stroke="black" points="2363.99,-84.8 2360.99,-88.8 2339.99,-88.8 2336.99,-84.8 2278.01,-84.8 2278.01,-48.8 2363.99,-48.8 2363.99,-84.8"/>
<text text-anchor="middle" x="2321" y="-62.6" font-family="Times,serif" font-size="14.00">ToolModule</text>
</g>
<!-- ToolModule&#45;&gt;ToolApiModule -->
<g id="edge4" class="edge">
<title>ToolModule&#45;&gt;ToolApiModule</title>
<path fill="none" stroke="black" d="M2321,-84.91C2321,-104.14 2321,-131.8 2321,-131.8 2321,-131.8 1547.63,-131.8 1547.63,-131.8"/>
<polygon fill="black" stroke="black" points="1547.63,-128.3 1537.63,-131.8 1547.63,-135.3 1547.63,-128.3"/>
</g>
<!-- UserModule -->
<g id="node5" class="node">
<title>UserModule</title>
<polygon fill="#8dd3c7" stroke="black" points="2259.99,-84.8 2256.99,-88.8 2235.99,-88.8 2232.99,-84.8 2174.01,-84.8 2174.01,-48.8 2259.99,-48.8 2259.99,-84.8"/>
<text text-anchor="middle" x="2217" y="-62.6" font-family="Times,serif" font-size="14.00">UserModule</text>
</g>
<!-- UserModule&#45;&gt;ToolApiModule -->
<g id="edge5" class="edge">
<title>UserModule&#45;&gt;ToolApiModule</title>
<path fill="none" stroke="black" d="M2217,-85.1C2217,-103.07 2217,-127.8 2217,-127.8 2217,-127.8 1547.6,-127.8 1547.6,-127.8"/>
<polygon fill="black" stroke="black" points="1547.6,-124.3 1537.6,-127.8 1547.6,-131.3 1547.6,-124.3"/>
</g>
<!-- ExternalToolConfigurationUc -->
<g id="node7" class="node">
<title>ExternalToolConfigurationUc</title>
<ellipse fill="#fdb462" stroke="black" cx="2023" cy="-66.8" rx="127.35" ry="18"/>
<text text-anchor="middle" x="2023" y="-62.6" font-family="Times,serif" font-size="14.00">ExternalToolConfigurationUc</text>
</g>
<!-- ExternalToolConfigurationUc&#45;&gt;ToolApiModule -->
<g id="edge6" class="edge">
<title>ExternalToolConfigurationUc&#45;&gt;ToolApiModule</title>
<path fill="none" stroke="black" d="M2023,-84.83C2023,-101.2 2023,-122.8 2023,-122.8 2023,-122.8 1547.65,-122.8 1547.65,-122.8"/>
<polygon fill="black" stroke="black" points="1547.65,-119.3 1537.65,-122.8 1547.65,-126.3 1547.65,-119.3"/>
</g>
<!-- ExternalToolRequestMapper -->
<g id="node8" class="node">
<title>ExternalToolRequestMapper</title>
<ellipse fill="#fdb462" stroke="black" cx="1754" cy="-66.8" rx="123.26" ry="18"/>
<text text-anchor="middle" x="1754" y="-62.6" font-family="Times,serif" font-size="14.00">ExternalToolRequestMapper</text>
</g>
<!-- ExternalToolRequestMapper&#45;&gt;ToolApiModule -->
<g id="edge7" class="edge">
<title>ExternalToolRequestMapper&#45;&gt;ToolApiModule</title>
<path fill="none" stroke="black" d="M1754,-84.99C1754,-99.98 1754,-118.8 1754,-118.8 1754,-118.8 1547.67,-118.8 1547.67,-118.8"/>
<polygon fill="black" stroke="black" points="1547.67,-115.3 1537.67,-118.8 1547.67,-122.3 1547.67,-115.3"/>
</g>
<!-- ExternalToolResponseMapper -->
<g id="node9" class="node">
<title>ExternalToolResponseMapper</title>
<ellipse fill="#fdb462" stroke="black" cx="1484" cy="-66.8" rx="129.06" ry="18"/>
<text text-anchor="middle" x="1484" y="-62.6" font-family="Times,serif" font-size="14.00">ExternalToolResponseMapper</text>
</g>
<!-- ExternalToolResponseMapper&#45;&gt;ToolApiModule -->
<g id="edge8" class="edge">
<title>ExternalToolResponseMapper&#45;&gt;ToolApiModule</title>
<path fill="none" stroke="black" d="M1484,-84.91C1484,-84.91 1484,-103.79 1484,-103.79"/>
<polygon fill="black" stroke="black" points="1480.5,-103.79 1484,-113.79 1487.5,-103.79 1480.5,-103.79"/>
</g>
<!-- ExternalToolUc -->
<g id="node10" class="node">
<title>ExternalToolUc</title>
<ellipse fill="#fdb462" stroke="black" cx="1264" cy="-66.8" rx="73.49" ry="18"/>
<text text-anchor="middle" x="1264" y="-62.6" font-family="Times,serif" font-size="14.00">ExternalToolUc</text>
</g>
<!-- ExternalToolUc&#45;&gt;ToolApiModule -->
<g id="edge9" class="edge">
<title>ExternalToolUc&#45;&gt;ToolApiModule</title>
<path fill="none" stroke="black" d="M1264,-84.99C1264,-99.98 1264,-118.8 1264,-118.8 1264,-118.8 1420.46,-118.8 1420.46,-118.8"/>
<polygon fill="black" stroke="black" points="1420.46,-122.3 1430.46,-118.8 1420.46,-115.3 1420.46,-122.3"/>
</g>
<!-- Lti11ResponseMapper -->
<g id="node11" class="node">
<title>Lti11ResponseMapper</title>
<ellipse fill="#fdb462" stroke="black" cx="1074" cy="-66.8" rx="99.01" ry="18"/>
<text text-anchor="middle" x="1074" y="-62.6" font-family="Times,serif" font-size="14.00">Lti11ResponseMapper</text>
</g>
<!-- Lti11ResponseMapper&#45;&gt;ToolApiModule -->
<g id="edge10" class="edge">
<title>Lti11ResponseMapper&#45;&gt;ToolApiModule</title>
<path fill="none" stroke="black" d="M1074,-84.83C1074,-101.2 1074,-122.8 1074,-122.8 1074,-122.8 1420.4,-122.8 1420.4,-122.8"/>
<polygon fill="black" stroke="black" points="1420.4,-126.3 1430.4,-122.8 1420.4,-119.3 1420.4,-126.3"/>
</g>
<!-- Lti11Uc -->
<g id="node12" class="node">
<title>Lti11Uc</title>
<ellipse fill="#fdb462" stroke="black" cx="914" cy="-66.8" rx="43.44" ry="18"/>
<text text-anchor="middle" x="914" y="-62.6" font-family="Times,serif" font-size="14.00">Lti11Uc</text>
</g>
<!-- Lti11Uc&#45;&gt;ToolApiModule -->
<g id="edge11" class="edge">
<title>Lti11Uc&#45;&gt;ToolApiModule</title>
<path fill="none" stroke="black" d="M914,-85.1C914,-103.07 914,-127.8 914,-127.8 914,-127.8 1420.38,-127.8 1420.38,-127.8"/>
<polygon fill="black" stroke="black" points="1420.38,-131.3 1430.38,-127.8 1420.38,-124.3 1420.38,-131.3"/>
</g>
<!-- LtiRoleMapper -->
<g id="node13" class="node">
<title>LtiRoleMapper</title>
<ellipse fill="#fdb462" stroke="black" cx="782" cy="-66.8" rx="70.64" ry="18"/>
<text text-anchor="middle" x="782" y="-62.6" font-family="Times,serif" font-size="14.00">LtiRoleMapper</text>
</g>
<!-- LtiRoleMapper&#45;&gt;ToolApiModule -->
<g id="edge12" class="edge">
<title>LtiRoleMapper&#45;&gt;ToolApiModule</title>
<path fill="none" stroke="black" d="M782,-84.91C782,-104.14 782,-131.8 782,-131.8 782,-131.8 1420.37,-131.8 1420.37,-131.8"/>
<polygon fill="black" stroke="black" points="1420.37,-135.3 1430.37,-131.8 1420.37,-128.3 1420.37,-135.3"/>
</g>
<!-- LtiToolRepo -->
<g id="node14" class="node">
<title>LtiToolRepo</title>
<ellipse fill="#fdb462" stroke="black" cx="633" cy="-66.8" rx="60.85" ry="18"/>
<text text-anchor="middle" x="633" y="-62.6" font-family="Times,serif" font-size="14.00">LtiToolRepo</text>
</g>
<!-- LtiToolRepo&#45;&gt;ToolApiModule -->
<g id="edge13" class="edge">
<title>LtiToolRepo&#45;&gt;ToolApiModule</title>
<path fill="none" stroke="black" d="M633,-84.83C633,-105.57 633,-136.8 633,-136.8 633,-136.8 1420.44,-136.8 1420.44,-136.8"/>
<polygon fill="black" stroke="black" points="1420.44,-140.3 1430.44,-136.8 1420.44,-133.3 1420.44,-140.3"/>
</g>
<!-- SchoolExternalToolResponseMapper -->
<g id="node15" class="node">
<title>SchoolExternalToolResponseMapper</title>
<ellipse fill="#fdb462" stroke="black" cx="398" cy="-66.8" rx="155.72" ry="18"/>
<text text-anchor="middle" x="398" y="-62.6" font-family="Times,serif" font-size="14.00">SchoolExternalToolResponseMapper</text>
</g>
<!-- SchoolExternalToolResponseMapper&#45;&gt;ToolApiModule -->
<g id="edge14" class="edge">
<title>SchoolExternalToolResponseMapper&#45;&gt;ToolApiModule</title>
<path fill="none" stroke="black" d="M398,-85.09C398,-107.01 398,-140.8 398,-140.8 398,-140.8 1420.15,-140.8 1420.15,-140.8"/>
<polygon fill="black" stroke="black" points="1420.15,-144.3 1430.15,-140.8 1420.15,-137.3 1420.15,-144.3"/>
</g>
<!-- SchoolExternalToolUc -->
<g id="node16" class="node">
<title>SchoolExternalToolUc</title>
<ellipse fill="#fdb462" stroke="black" cx="124" cy="-66.8" rx="100.14" ry="18"/>
<text text-anchor="middle" x="124" y="-62.6" font-family="Times,serif" font-size="14.00">SchoolExternalToolUc</text>
</g>
<!-- SchoolExternalToolUc&#45;&gt;ToolApiModule -->
<g id="edge15" class="edge">
<title>SchoolExternalToolUc&#45;&gt;ToolApiModule</title>
<path fill="none" stroke="black" d="M124,-85.12C124,-108.46 124,-145.8 124,-145.8 124,-145.8 1420.27,-145.8 1420.27,-145.8"/>
<polygon fill="black" stroke="black" points="1420.27,-149.3 1430.27,-145.8 1420.27,-142.3 1420.27,-149.3"/>
</g>
</g>
</svg>
