<?xml version="1.0" encoding="UTF-8" standalone="no"?>
<!DOCTYPE svg PUBLIC "-//W3C//DTD SVG 1.1//EN"
 "http://www.w3.org/Graphics/SVG/1.1/DTD/svg11.dtd">
<!-- Generated by graphviz version 5.0.0 (20220707.1540)
 -->
<!-- Title: dependencies Pages: 1 -->
<svg width="2191pt" height="174pt"
 viewBox="0.00 0.00 2191.00 173.80" xmlns="http://www.w3.org/2000/svg" xmlns:xlink="http://www.w3.org/1999/xlink">
<g id="graph0" class="graph" transform="scale(1 1) rotate(0) translate(4 169.8)">
<title>dependencies</title>
<polygon fill="white" stroke="transparent" points="-4,4 -4,-169.8 2187,-169.8 2187,4 -4,4"/>
<text text-anchor="middle" x="1091.5" y="-8.2" font-family="sans-serif" font-size="14.00">dependencies</text>
<g id="clust1" class="cluster">
<title>cluster_ToolApiModule</title>
<polygon fill="none" stroke="black" stroke-dasharray="1,5" points="8,-32.8 8,-157.8 2175,-157.8 2175,-32.8 8,-32.8"/>
</g>
<g id="clust3" class="cluster">
<title>cluster_ToolApiModule_imports</title>
<polygon fill="none" stroke="black" points="1345,-40.8 1345,-92.8 2167,-92.8 2167,-40.8 1345,-40.8"/>
</g>
<g id="clust6" class="cluster">
<title>cluster_ToolApiModule_providers</title>
<polygon fill="none" stroke="black" points="16,-40.8 16,-92.8 1337,-92.8 1337,-40.8 16,-40.8"/>
</g>
<!-- AuthorizationModule -->
<g id="node1" class="node">
<title>AuthorizationModule</title>
<polygon fill="#8dd3c7" stroke="black" points="2158.81,-84.8 2155.81,-88.8 2134.81,-88.8 2131.81,-84.8 2021.19,-84.8 2021.19,-48.8 2158.81,-48.8 2158.81,-84.8"/>
<text text-anchor="middle" x="2090" y="-62.6" font-family="Times,serif" font-size="14.00">AuthorizationModule</text>
</g>
<!-- ToolApiModule -->
<g id="node7" class="node">
<title>ToolApiModule</title>
<polygon fill="#8dd3c7" stroke="black" points="1259.49,-149.8 1256.49,-153.8 1235.49,-153.8 1232.49,-149.8 1152.51,-149.8 1152.51,-113.8 1259.49,-113.8 1259.49,-149.8"/>
<text text-anchor="middle" x="1206" y="-127.6" font-family="Times,serif" font-size="14.00">ToolApiModule</text>
</g>
<!-- AuthorizationModule&#45;&gt;ToolApiModule -->
<g id="edge1" class="edge">
<title>AuthorizationModule&#45;&gt;ToolApiModule</title>
<path fill="none" stroke="black" d="M2090,-84.89C2090,-107.93 2090,-144.8 2090,-144.8 2090,-144.8 1269.64,-144.8 1269.64,-144.8"/>
<polygon fill="black" stroke="black" points="1269.64,-141.3 1259.64,-144.8 1269.64,-148.3 1269.64,-141.3"/>
</g>
<!-- EncryptionModule -->
<g id="node2" class="node">
<title>EncryptionModule</title>
<polygon fill="#8dd3c7" stroke="black" points="2002.76,-84.8 1999.76,-88.8 1978.76,-88.8 1975.76,-84.8 1881.24,-84.8 1881.24,-48.8 2002.76,-48.8 2002.76,-84.8"/>
<text text-anchor="middle" x="1942" y="-62.6" font-family="Times,serif" font-size="14.00">EncryptionModule</text>
</g>
<!-- EncryptionModule&#45;&gt;ToolApiModule -->
<g id="edge2" class="edge">
<title>EncryptionModule&#45;&gt;ToolApiModule</title>
<path fill="none" stroke="black" d="M1942,-84.84C1942,-106.46 1942,-139.8 1942,-139.8 1942,-139.8 1269.52,-139.8 1269.52,-139.8"/>
<polygon fill="black" stroke="black" points="1269.52,-136.3 1259.52,-139.8 1269.52,-143.3 1269.52,-136.3"/>
</g>
<!-- LoggerModule -->
<g id="node3" class="node">
<title>LoggerModule</title>
<polygon fill="#8dd3c7" stroke="black" points="1862.98,-84.8 1859.98,-88.8 1838.98,-88.8 1835.98,-84.8 1763.02,-84.8 1763.02,-48.8 1862.98,-48.8 1862.98,-84.8"/>
<text text-anchor="middle" x="1813" y="-62.6" font-family="Times,serif" font-size="14.00">LoggerModule</text>
</g>
<!-- LoggerModule&#45;&gt;ToolApiModule -->
<g id="edge3" class="edge">
<title>LoggerModule&#45;&gt;ToolApiModule</title>
<path fill="none" stroke="black" d="M1813,-85.02C1813,-105.17 1813,-134.8 1813,-134.8 1813,-134.8 1269.6,-134.8 1269.6,-134.8"/>
<polygon fill="black" stroke="black" points="1269.6,-131.3 1259.6,-134.8 1269.6,-138.3 1269.6,-131.3"/>
</g>
<!-- OauthProviderServiceModule -->
<g id="node4" class="node">
<title>OauthProviderServiceModule</title>
<polygon fill="#8dd3c7" stroke="black" points="1744.96,-84.8 1741.96,-88.8 1720.96,-88.8 1717.96,-84.8 1561.04,-84.8 1561.04,-48.8 1744.96,-48.8 1744.96,-84.8"/>
<text text-anchor="middle" x="1653" y="-62.6" font-family="Times,serif" font-size="14.00">OauthProviderServiceModule</text>
</g>
<!-- OauthProviderServiceModule&#45;&gt;ToolApiModule -->
<g id="edge4" class="edge">
<title>OauthProviderServiceModule&#45;&gt;ToolApiModule</title>
<path fill="none" stroke="black" d="M1653,-85.02C1653,-103.63 1653,-129.8 1653,-129.8 1653,-129.8 1269.92,-129.8 1269.92,-129.8"/>
<polygon fill="black" stroke="black" points="1269.92,-126.3 1259.92,-129.8 1269.92,-133.3 1269.92,-126.3"/>
</g>
<!-- ToolModule -->
<g id="node5" class="node">
<title>ToolModule</title>
<polygon fill="#8dd3c7" stroke="black" points="1542.99,-84.8 1539.99,-88.8 1518.99,-88.8 1515.99,-84.8 1457.01,-84.8 1457.01,-48.8 1542.99,-48.8 1542.99,-84.8"/>
<text text-anchor="middle" x="1500" y="-62.6" font-family="Times,serif" font-size="14.00">ToolModule</text>
</g>
<!-- ToolModule&#45;&gt;ToolApiModule -->
<g id="edge5" class="edge">
<title>ToolModule&#45;&gt;ToolApiModule</title>
<path fill="none" stroke="black" d="M1500,-84.83C1500,-101.86 1500,-124.8 1500,-124.8 1500,-124.8 1269.58,-124.8 1269.58,-124.8"/>
<polygon fill="black" stroke="black" points="1269.58,-121.3 1259.58,-124.8 1269.58,-128.3 1269.58,-121.3"/>
</g>
<!-- UserModule -->
<g id="node6" class="node">
<title>UserModule</title>
<polygon fill="#8dd3c7" stroke="black" points="1438.99,-84.8 1435.99,-88.8 1414.99,-88.8 1411.99,-84.8 1353.01,-84.8 1353.01,-48.8 1438.99,-48.8 1438.99,-84.8"/>
<text text-anchor="middle" x="1396" y="-62.6" font-family="Times,serif" font-size="14.00">UserModule</text>
</g>
<!-- UserModule&#45;&gt;ToolApiModule -->
<g id="edge6" class="edge">
<title>UserModule&#45;&gt;ToolApiModule</title>
<path fill="none" stroke="black" d="M1396,-85.04C1396,-100.37 1396,-119.8 1396,-119.8 1396,-119.8 1269.68,-119.8 1269.68,-119.8"/>
<polygon fill="black" stroke="black" points="1269.68,-116.3 1259.68,-119.8 1269.68,-123.3 1269.68,-116.3"/>
</g>
<!-- ExternalToolRequestMapper -->
<g id="node8" class="node">
<title>ExternalToolRequestMapper</title>
<ellipse fill="#fdb462" stroke="black" cx="1206" cy="-66.8" rx="123.26" ry="18"/>
<text text-anchor="middle" x="1206" y="-62.6" font-family="Times,serif" font-size="14.00">ExternalToolRequestMapper</text>
</g>
<!-- ExternalToolRequestMapper&#45;&gt;ToolApiModule -->
<g id="edge7" class="edge">
<title>ExternalToolRequestMapper&#45;&gt;ToolApiModule</title>
<path fill="none" stroke="black" d="M1206,-84.91C1206,-84.91 1206,-103.79 1206,-103.79"/>
<polygon fill="black" stroke="black" points="1202.5,-103.79 1206,-113.79 1209.5,-103.79 1202.5,-103.79"/>
</g>
<!-- ExternalToolResponseMapper -->
<g id="node9" class="node">
<title>ExternalToolResponseMapper</title>
<ellipse fill="#fdb462" stroke="black" cx="936" cy="-66.8" rx="129.06" ry="18"/>
<text text-anchor="middle" x="936" y="-62.6" font-family="Times,serif" font-size="14.00">ExternalToolResponseMapper</text>
</g>
<!-- ExternalToolResponseMapper&#45;&gt;ToolApiModule -->
<g id="edge8" class="edge">
<title>ExternalToolResponseMapper&#45;&gt;ToolApiModule</title>
<path fill="none" stroke="black" d="M936,-85.04C936,-100.37 936,-119.8 936,-119.8 936,-119.8 1142.33,-119.8 1142.33,-119.8"/>
<polygon fill="black" stroke="black" points="1142.33,-123.3 1152.33,-119.8 1142.33,-116.3 1142.33,-123.3"/>
</g>
<!-- ExternalToolUc -->
<g id="node10" class="node">
<title>ExternalToolUc</title>
<ellipse fill="#fdb462" stroke="black" cx="716" cy="-66.8" rx="73.49" ry="18"/>
<text text-anchor="middle" x="716" y="-62.6" font-family="Times,serif" font-size="14.00">ExternalToolUc</text>
</g>
<!-- ExternalToolUc&#45;&gt;ToolApiModule -->
<g id="edge9" class="edge">
<title>ExternalToolUc&#45;&gt;ToolApiModule</title>
<path fill="none" stroke="black" d="M716,-84.83C716,-101.86 716,-124.8 716,-124.8 716,-124.8 1142.16,-124.8 1142.16,-124.8"/>
<polygon fill="black" stroke="black" points="1142.16,-128.3 1152.16,-124.8 1142.16,-121.3 1142.16,-128.3"/>
</g>
<!-- Lti11ResponseMapper -->
<g id="node11" class="node">
<title>Lti11ResponseMapper</title>
<ellipse fill="#fdb462" stroke="black" cx="526" cy="-66.8" rx="99.01" ry="18"/>
<text text-anchor="middle" x="526" y="-62.6" font-family="Times,serif" font-size="14.00">Lti11ResponseMapper</text>
</g>
<!-- Lti11ResponseMapper&#45;&gt;ToolApiModule -->
<g id="edge10" class="edge">
<title>Lti11ResponseMapper&#45;&gt;ToolApiModule</title>
<path fill="none" stroke="black" d="M526,-85.02C526,-103.63 526,-129.8 526,-129.8 526,-129.8 1142.36,-129.8 1142.36,-129.8"/>
<polygon fill="black" stroke="black" points="1142.36,-133.3 1152.36,-129.8 1142.36,-126.3 1142.36,-133.3"/>
</g>
<!-- Lti11Uc -->
<g id="node12" class="node">
<title>Lti11Uc</title>
<ellipse fill="#fdb462" stroke="black" cx="366" cy="-66.8" rx="43.44" ry="18"/>
<text text-anchor="middle" x="366" y="-62.6" font-family="Times,serif" font-size="14.00">Lti11Uc</text>
</g>
<!-- Lti11Uc&#45;&gt;ToolApiModule -->
<g id="edge11" class="edge">
<title>Lti11Uc&#45;&gt;ToolApiModule</title>
<path fill="none" stroke="black" d="M366,-85.02C366,-105.17 366,-134.8 366,-134.8 366,-134.8 1142.5,-134.8 1142.5,-134.8"/>
<polygon fill="black" stroke="black" points="1142.5,-138.3 1152.5,-134.8 1142.5,-131.3 1142.5,-138.3"/>
</g>
<!-- LtiRoleMapper -->
<g id="node13" class="node">
<title>LtiRoleMapper</title>
<ellipse fill="#fdb462" stroke="black" cx="234" cy="-66.8" rx="70.64" ry="18"/>
<text text-anchor="middle" x="234" y="-62.6" font-family="Times,serif" font-size="14.00">LtiRoleMapper</text>
</g>
<!-- LtiRoleMapper&#45;&gt;ToolApiModule -->
<g id="edge12" class="edge">
<title>LtiRoleMapper&#45;&gt;ToolApiModule</title>
<path fill="none" stroke="black" d="M234,-84.84C234,-106.46 234,-139.8 234,-139.8 234,-139.8 1142.36,-139.8 1142.36,-139.8"/>
<polygon fill="black" stroke="black" points="1142.36,-143.3 1152.36,-139.8 1142.36,-136.3 1142.36,-143.3"/>
</g>
<!-- LtiToolRepo -->
<g id="node14" class="node">
<title>LtiToolRepo</title>
<ellipse fill="#fdb462" stroke="black" cx="85" cy="-66.8" rx="60.85" ry="18"/>
<text text-anchor="middle" x="85" y="-62.6" font-family="Times,serif" font-size="14.00">LtiToolRepo</text>
</g>
<!-- LtiToolRepo&#45;&gt;ToolApiModule -->
<g id="edge13" class="edge">
<title>LtiToolRepo&#45;&gt;ToolApiModule</title>
<path fill="none" stroke="black" d="M85,-84.89C85,-107.93 85,-144.8 85,-144.8 85,-144.8 1142.31,-144.8 1142.31,-144.8"/>
<polygon fill="black" stroke="black" points="1142.31,-148.3 1152.31,-144.8 1142.31,-141.3 1142.31,-148.3"/>
</g>
</g>
</svg>
