<?xml version="1.0" encoding="UTF-8" standalone="no"?>
<!DOCTYPE svg PUBLIC "-//W3C//DTD SVG 1.1//EN"
 "http://www.w3.org/Graphics/SVG/1.1/DTD/svg11.dtd">
<!-- Generated by graphviz version 5.0.0 (20220707.1540)
 -->
<!-- Title: dependencies Pages: 1 -->
<svg width="1849pt" height="174pt"
 viewBox="0.00 0.00 1849.00 173.80" xmlns="http://www.w3.org/2000/svg" xmlns:xlink="http://www.w3.org/1999/xlink">
<g id="graph0" class="graph" transform="scale(1 1) rotate(0) translate(4 169.8)">
<title>dependencies</title>
<polygon fill="white" stroke="transparent" points="-4,4 -4,-169.8 1845,-169.8 1845,4 -4,4"/>
<text text-anchor="middle" x="920.5" y="-8.2" font-family="sans-serif" font-size="14.00">dependencies</text>
<g id="clust1" class="cluster">
<title>cluster_ToolApiModule</title>
<polygon fill="none" stroke="black" stroke-dasharray="1,5" points="8,-32.8 8,-157.8 1833,-157.8 1833,-32.8 8,-32.8"/>
</g>
<g id="clust3" class="cluster">
<title>cluster_ToolApiModule_imports</title>
<polygon fill="none" stroke="black" points="1345,-40.8 1345,-92.8 1825,-92.8 1825,-40.8 1345,-40.8"/>
</g>
<g id="clust6" class="cluster">
<title>cluster_ToolApiModule_providers</title>
<polygon fill="none" stroke="black" points="16,-40.8 16,-92.8 1337,-92.8 1337,-40.8 16,-40.8"/>
</g>
<!-- AuthorizationModule -->
<g id="node1" class="node">
<title>AuthorizationModule</title>
<polygon fill="#8dd3c7" stroke="black" points="1816.81,-84.8 1813.81,-88.8 1792.81,-88.8 1789.81,-84.8 1679.19,-84.8 1679.19,-48.8 1816.81,-48.8 1816.81,-84.8"/>
<text text-anchor="middle" x="1748" y="-62.6" font-family="Times,serif" font-size="14.00">AuthorizationModule</text>
</g>
<!-- ToolApiModule -->
<g id="node5" class="node">
<title>ToolApiModule</title>
<polygon fill="#8dd3c7" stroke="black" points="989.49,-149.8 986.49,-153.8 965.49,-153.8 962.49,-149.8 882.51,-149.8 882.51,-113.8 989.49,-113.8 989.49,-149.8"/>
<text text-anchor="middle" x="936" y="-127.6" font-family="Times,serif" font-size="14.00">ToolApiModule</text>
</g>
<!-- AuthorizationModule&#45;&gt;ToolApiModule -->
<g id="edge1" class="edge">
<title>AuthorizationModule&#45;&gt;ToolApiModule</title>
<path fill="none" stroke="black" d="M1748,-84.89C1748,-107.93 1748,-144.8 1748,-144.8 1748,-144.8 999.59,-144.8 999.59,-144.8"/>
<polygon fill="black" stroke="black" points="999.59,-141.3 989.59,-144.8 999.59,-148.3 999.59,-141.3"/>
</g>
<!-- LoggerModule -->
<g id="node2" class="node">
<title>LoggerModule</title>
<polygon fill="#8dd3c7" stroke="black" points="1660.98,-84.8 1657.98,-88.8 1636.98,-88.8 1633.98,-84.8 1561.02,-84.8 1561.02,-48.8 1660.98,-48.8 1660.98,-84.8"/>
<text text-anchor="middle" x="1611" y="-62.6" font-family="Times,serif" font-size="14.00">LoggerModule</text>
</g>
<!-- LoggerModule&#45;&gt;ToolApiModule -->
<g id="edge2" class="edge">
<title>LoggerModule&#45;&gt;ToolApiModule</title>
<path fill="none" stroke="black" d="M1611,-85.08C1611,-106.12 1611,-137.8 1611,-137.8 1611,-137.8 999.53,-137.8 999.53,-137.8"/>
<polygon fill="black" stroke="black" points="999.53,-134.3 989.53,-137.8 999.53,-141.3 999.53,-134.3"/>
</g>
<!-- ToolModule -->
<g id="node3" class="node">
<title>ToolModule</title>
<polygon fill="#8dd3c7" stroke="black" points="1542.99,-84.8 1539.99,-88.8 1518.99,-88.8 1515.99,-84.8 1457.01,-84.8 1457.01,-48.8 1542.99,-48.8 1542.99,-84.8"/>
<text text-anchor="middle" x="1500" y="-62.6" font-family="Times,serif" font-size="14.00">ToolModule</text>
</g>
<!-- ToolModule&#45;&gt;ToolApiModule -->
<g id="edge3" class="edge">
<title>ToolModule&#45;&gt;ToolApiModule</title>
<path fill="none" stroke="black" d="M1500,-84.91C1500,-104.14 1500,-131.8 1500,-131.8 1500,-131.8 999.57,-131.8 999.57,-131.8"/>
<polygon fill="black" stroke="black" points="999.57,-128.3 989.57,-131.8 999.57,-135.3 999.57,-128.3"/>
</g>
<!-- UserModule -->
<g id="node4" class="node">
<title>UserModule</title>
<polygon fill="#8dd3c7" stroke="black" points="1438.99,-84.8 1435.99,-88.8 1414.99,-88.8 1411.99,-84.8 1353.01,-84.8 1353.01,-48.8 1438.99,-48.8 1438.99,-84.8"/>
<text text-anchor="middle" x="1396" y="-62.6" font-family="Times,serif" font-size="14.00">UserModule</text>
</g>
<!-- UserModule&#45;&gt;ToolApiModule -->
<g id="edge4" class="edge">
<title>UserModule&#45;&gt;ToolApiModule</title>
<path fill="none" stroke="black" d="M1396,-84.82C1396,-102.17 1396,-125.8 1396,-125.8 1396,-125.8 999.67,-125.8 999.67,-125.8"/>
<polygon fill="black" stroke="black" points="999.67,-122.3 989.67,-125.8 999.67,-129.3 999.67,-122.3"/>
</g>
<!-- ExternalToolRequestMapper -->
<g id="node6" class="node">
<title>ExternalToolRequestMapper</title>
<ellipse fill="#fdb462" stroke="black" cx="1206" cy="-66.8" rx="123.26" ry="18"/>
<text text-anchor="middle" x="1206" y="-62.6" font-family="Times,serif" font-size="14.00">ExternalToolRequestMapper</text>
</g>
<!-- ExternalToolRequestMapper&#45;&gt;ToolApiModule -->
<g id="edge5" class="edge">
<title>ExternalToolRequestMapper&#45;&gt;ToolApiModule</title>
<path fill="none" stroke="black" d="M1206,-85.04C1206,-100.37 1206,-119.8 1206,-119.8 1206,-119.8 999.67,-119.8 999.67,-119.8"/>
<polygon fill="black" stroke="black" points="999.67,-116.3 989.67,-119.8 999.67,-123.3 999.67,-116.3"/>
</g>
<!-- ExternalToolResponseMapper -->
<g id="node7" class="node">
<title>ExternalToolResponseMapper</title>
<ellipse fill="#fdb462" stroke="black" cx="936" cy="-66.8" rx="129.06" ry="18"/>
<text text-anchor="middle" x="936" y="-62.6" font-family="Times,serif" font-size="14.00">ExternalToolResponseMapper</text>
</g>
<!-- ExternalToolResponseMapper&#45;&gt;ToolApiModule -->
<g id="edge6" class="edge">
<title>ExternalToolResponseMapper&#45;&gt;ToolApiModule</title>
<path fill="none" stroke="black" d="M936,-84.91C936,-84.91 936,-103.79 936,-103.79"/>
<polygon fill="black" stroke="black" points="932.5,-103.79 936,-113.79 939.5,-103.79 932.5,-103.79"/>
</g>
<!-- ExternalToolUc -->
<g id="node8" class="node">
<title>ExternalToolUc</title>
<ellipse fill="#fdb462" stroke="black" cx="716" cy="-66.8" rx="73.49" ry="18"/>
<text text-anchor="middle" x="716" y="-62.6" font-family="Times,serif" font-size="14.00">ExternalToolUc</text>
</g>
<!-- ExternalToolUc&#45;&gt;ToolApiModule -->
<g id="edge7" class="edge">
<title>ExternalToolUc&#45;&gt;ToolApiModule</title>
<path fill="none" stroke="black" d="M716,-85.04C716,-100.37 716,-119.8 716,-119.8 716,-119.8 872.46,-119.8 872.46,-119.8"/>
<polygon fill="black" stroke="black" points="872.46,-123.3 882.46,-119.8 872.46,-116.3 872.46,-123.3"/>
</g>
<!-- Lti11ResponseMapper -->
<g id="node9" class="node">
<title>Lti11ResponseMapper</title>
<ellipse fill="#fdb462" stroke="black" cx="526" cy="-66.8" rx="99.01" ry="18"/>
<text text-anchor="middle" x="526" y="-62.6" font-family="Times,serif" font-size="14.00">Lti11ResponseMapper</text>
</g>
<!-- Lti11ResponseMapper&#45;&gt;ToolApiModule -->
<g id="edge8" class="edge">
<title>Lti11ResponseMapper&#45;&gt;ToolApiModule</title>
<path fill="none" stroke="black" d="M526,-84.82C526,-102.17 526,-125.8 526,-125.8 526,-125.8 872.4,-125.8 872.4,-125.8"/>
<polygon fill="black" stroke="black" points="872.4,-129.3 882.4,-125.8 872.4,-122.3 872.4,-129.3"/>
</g>
<!-- Lti11Uc -->
<g id="node10" class="node">
<title>Lti11Uc</title>
<ellipse fill="#fdb462" stroke="black" cx="366" cy="-66.8" rx="43.44" ry="18"/>
<text text-anchor="middle" x="366" y="-62.6" font-family="Times,serif" font-size="14.00">Lti11Uc</text>
</g>
<!-- Lti11Uc&#45;&gt;ToolApiModule -->
<g id="edge9" class="edge">
<title>Lti11Uc&#45;&gt;ToolApiModule</title>
<path fill="none" stroke="black" d="M366,-84.91C366,-104.14 366,-131.8 366,-131.8 366,-131.8 872.38,-131.8 872.38,-131.8"/>
<polygon fill="black" stroke="black" points="872.38,-135.3 882.38,-131.8 872.38,-128.3 872.38,-135.3"/>
</g>
<!-- LtiRoleMapper -->
<g id="node11" class="node">
<title>LtiRoleMapper</title>
<ellipse fill="#fdb462" stroke="black" cx="234" cy="-66.8" rx="70.64" ry="18"/>
<text text-anchor="middle" x="234" y="-62.6" font-family="Times,serif" font-size="14.00">LtiRoleMapper</text>
</g>
<!-- LtiRoleMapper&#45;&gt;ToolApiModule -->
<g id="edge10" class="edge">
<title>LtiRoleMapper&#45;&gt;ToolApiModule</title>
<path fill="none" stroke="black" d="M234,-85.08C234,-106.12 234,-137.8 234,-137.8 234,-137.8 872.37,-137.8 872.37,-137.8"/>
<polygon fill="black" stroke="black" points="872.37,-141.3 882.37,-137.8 872.37,-134.3 872.37,-141.3"/>
</g>
<!-- LtiToolRepo -->
<g id="node12" class="node">
<title>LtiToolRepo</title>
<ellipse fill="#fdb462" stroke="black" cx="85" cy="-66.8" rx="60.85" ry="18"/>
<text text-anchor="middle" x="85" y="-62.6" font-family="Times,serif" font-size="14.00">LtiToolRepo</text>
</g>
<!-- LtiToolRepo&#45;&gt;ToolApiModule -->
<g id="edge11" class="edge">
<title>LtiToolRepo&#45;&gt;ToolApiModule</title>
<path fill="none" stroke="black" d="M85,-84.89C85,-107.93 85,-144.8 85,-144.8 85,-144.8 872.44,-144.8 872.44,-144.8"/>
<polygon fill="black" stroke="black" points="872.44,-148.3 882.44,-144.8 872.44,-141.3 872.44,-148.3"/>
</g>
</g>
</svg>
