<?xml version="1.0" encoding="UTF-8" standalone="no"?>
<!DOCTYPE svg PUBLIC "-//W3C//DTD SVG 1.1//EN"
 "http://www.w3.org/Graphics/SVG/1.1/DTD/svg11.dtd">
<!-- Generated by graphviz version 5.0.0 (20220707.1540)
 -->
<!-- Title: dependencies Pages: 1 -->
<svg width="2513pt" height="174pt"
 viewBox="0.00 0.00 2513.00 173.80" xmlns="http://www.w3.org/2000/svg" xmlns:xlink="http://www.w3.org/1999/xlink">
<g id="graph0" class="graph" transform="scale(1 1) rotate(0) translate(4 169.8)">
<title>dependencies</title>
<polygon fill="white" stroke="transparent" points="-4,4 -4,-169.8 2509,-169.8 2509,4 -4,4"/>
<text text-anchor="middle" x="1252.5" y="-8.2" font-family="sans-serif" font-size="14.00">dependencies</text>
<g id="clust1" class="cluster">
<title>cluster_ToolApiModule</title>
<polygon fill="none" stroke="black" stroke-dasharray="1,5" points="8,-32.8 8,-157.8 2497,-157.8 2497,-32.8 8,-32.8"/>
</g>
<g id="clust6" class="cluster">
<title>cluster_ToolApiModule_providers</title>
<polygon fill="none" stroke="black" points="620,-40.8 620,-92.8 2489,-92.8 2489,-40.8 620,-40.8"/>
</g>
<g id="clust3" class="cluster">
<title>cluster_ToolApiModule_imports</title>
<polygon fill="none" stroke="black" points="16,-40.8 16,-92.8 612,-92.8 612,-40.8 16,-40.8"/>
</g>
<!-- AuthorizationModule -->
<g id="node1" class="node">
<title>AuthorizationModule</title>
<polygon fill="#8dd3c7" stroke="black" points="603.81,-84.8 600.81,-88.8 579.81,-88.8 576.81,-84.8 466.19,-84.8 466.19,-48.8 603.81,-48.8 603.81,-84.8"/>
<text text-anchor="middle" x="535" y="-62.6" font-family="Times,serif" font-size="14.00">AuthorizationModule</text>
</g>
<!-- ToolApiModule -->
<g id="node6" class="node">
<title>ToolApiModule</title>
<polygon fill="#8dd3c7" stroke="black" points="1172.49,-149.8 1169.49,-153.8 1148.49,-153.8 1145.49,-149.8 1065.51,-149.8 1065.51,-113.8 1172.49,-113.8 1172.49,-149.8"/>
<text text-anchor="middle" x="1119" y="-127.6" font-family="Times,serif" font-size="14.00">ToolApiModule</text>
</g>
<!-- AuthorizationModule&#45;&gt;ToolApiModule -->
<g id="edge1" class="edge">
<title>AuthorizationModule&#45;&gt;ToolApiModule</title>
<path fill="none" stroke="black" d="M535,-84.83C535,-101.86 535,-124.8 535,-124.8 535,-124.8 1055.37,-124.8 1055.37,-124.8"/>
<polygon fill="black" stroke="black" points="1055.37,-128.3 1065.37,-124.8 1055.37,-121.3 1055.37,-128.3"/>
</g>
<!-- LoggerModule -->
<g id="node2" class="node">
<title>LoggerModule</title>
<polygon fill="#8dd3c7" stroke="black" points="447.98,-84.8 444.98,-88.8 423.98,-88.8 420.98,-84.8 348.02,-84.8 348.02,-48.8 447.98,-48.8 447.98,-84.8"/>
<text text-anchor="middle" x="398" y="-62.6" font-family="Times,serif" font-size="14.00">LoggerModule</text>
</g>
<!-- LoggerModule&#45;&gt;ToolApiModule -->
<g id="edge2" class="edge">
<title>LoggerModule&#45;&gt;ToolApiModule</title>
<path fill="none" stroke="black" d="M398,-85.02C398,-103.63 398,-129.8 398,-129.8 398,-129.8 1055.4,-129.8 1055.4,-129.8"/>
<polygon fill="black" stroke="black" points="1055.4,-133.3 1065.4,-129.8 1055.4,-126.3 1055.4,-133.3"/>
</g>
<!-- SchoolModule -->
<g id="node3" class="node">
<title>SchoolModule</title>
<polygon fill="#8dd3c7" stroke="black" points="330.44,-84.8 327.44,-88.8 306.44,-88.8 303.44,-84.8 231.56,-84.8 231.56,-48.8 330.44,-48.8 330.44,-84.8"/>
<text text-anchor="middle" x="281" y="-62.6" font-family="Times,serif" font-size="14.00">SchoolModule</text>
</g>
<!-- SchoolModule&#45;&gt;ToolApiModule -->
<g id="edge3" class="edge">
<title>SchoolModule&#45;&gt;ToolApiModule</title>
<path fill="none" stroke="black" d="M281,-85.02C281,-105.17 281,-134.8 281,-134.8 281,-134.8 1055.3,-134.8 1055.3,-134.8"/>
<polygon fill="black" stroke="black" points="1055.3,-138.3 1065.3,-134.8 1055.3,-131.3 1055.3,-138.3"/>
</g>
<!-- ToolModule -->
<g id="node4" class="node">
<title>ToolModule</title>
<polygon fill="#8dd3c7" stroke="black" points="213.99,-84.8 210.99,-88.8 189.99,-88.8 186.99,-84.8 128.01,-84.8 128.01,-48.8 213.99,-48.8 213.99,-84.8"/>
<text text-anchor="middle" x="171" y="-62.6" font-family="Times,serif" font-size="14.00">ToolModule</text>
</g>
<!-- ToolModule&#45;&gt;ToolApiModule -->
<g id="edge4" class="edge">
<title>ToolModule&#45;&gt;ToolApiModule</title>
<path fill="none" stroke="black" d="M171,-84.84C171,-106.46 171,-139.8 171,-139.8 171,-139.8 1055.32,-139.8 1055.32,-139.8"/>
<polygon fill="black" stroke="black" points="1055.32,-143.3 1065.32,-139.8 1055.32,-136.3 1055.32,-143.3"/>
</g>
<!-- UserModule -->
<g id="node5" class="node">
<title>UserModule</title>
<polygon fill="#8dd3c7" stroke="black" points="109.99,-84.8 106.99,-88.8 85.99,-88.8 82.99,-84.8 24.01,-84.8 24.01,-48.8 109.99,-48.8 109.99,-84.8"/>
<text text-anchor="middle" x="67" y="-62.6" font-family="Times,serif" font-size="14.00">UserModule</text>
</g>
<!-- UserModule&#45;&gt;ToolApiModule -->
<g id="edge5" class="edge">
<title>UserModule&#45;&gt;ToolApiModule</title>
<path fill="none" stroke="black" d="M67,-84.89C67,-107.93 67,-144.8 67,-144.8 67,-144.8 1055.38,-144.8 1055.38,-144.8"/>
<polygon fill="black" stroke="black" points="1055.38,-148.3 1065.38,-144.8 1055.38,-141.3 1055.38,-148.3"/>
</g>
<!-- ExternalToolRequestMapper -->
<g id="node7" class="node">
<title>ExternalToolRequestMapper</title>
<ellipse fill="#fdb462" stroke="black" cx="2358" cy="-66.8" rx="123.26" ry="18"/>
<text text-anchor="middle" x="2358" y="-62.6" font-family="Times,serif" font-size="14.00">ExternalToolRequestMapper</text>
</g>
<!-- ExternalToolRequestMapper&#45;&gt;ToolApiModule -->
<g id="edge6" class="edge">
<title>ExternalToolRequestMapper&#45;&gt;ToolApiModule</title>
<path fill="none" stroke="black" d="M2358,-84.89C2358,-107.93 2358,-144.8 2358,-144.8 2358,-144.8 1182.64,-144.8 1182.64,-144.8"/>
<polygon fill="black" stroke="black" points="1182.64,-141.3 1172.64,-144.8 1182.64,-148.3 1182.64,-141.3"/>
</g>
<!-- ExternalToolResponseMapper -->
<g id="node8" class="node">
<title>ExternalToolResponseMapper</title>
<ellipse fill="#fdb462" stroke="black" cx="2088" cy="-66.8" rx="129.06" ry="18"/>
<text text-anchor="middle" x="2088" y="-62.6" font-family="Times,serif" font-size="14.00">ExternalToolResponseMapper</text>
</g>
<!-- ExternalToolResponseMapper&#45;&gt;ToolApiModule -->
<g id="edge7" class="edge">
<title>ExternalToolResponseMapper&#45;&gt;ToolApiModule</title>
<path fill="none" stroke="black" d="M2088,-84.84C2088,-106.46 2088,-139.8 2088,-139.8 2088,-139.8 1182.83,-139.8 1182.83,-139.8"/>
<polygon fill="black" stroke="black" points="1182.83,-136.3 1172.83,-139.8 1182.83,-143.3 1182.83,-136.3"/>
</g>
<!-- ExternalToolUc -->
<g id="node9" class="node">
<title>ExternalToolUc</title>
<ellipse fill="#fdb462" stroke="black" cx="1868" cy="-66.8" rx="73.49" ry="18"/>
<text text-anchor="middle" x="1868" y="-62.6" font-family="Times,serif" font-size="14.00">ExternalToolUc</text>
</g>
<!-- ExternalToolUc&#45;&gt;ToolApiModule -->
<g id="edge8" class="edge">
<title>ExternalToolUc&#45;&gt;ToolApiModule</title>
<path fill="none" stroke="black" d="M1868,-85.02C1868,-105.17 1868,-134.8 1868,-134.8 1868,-134.8 1182.57,-134.8 1182.57,-134.8"/>
<polygon fill="black" stroke="black" points="1182.57,-131.3 1172.57,-134.8 1182.57,-138.3 1182.57,-131.3"/>
</g>
<!-- Lti11ResponseMapper -->
<g id="node10" class="node">
<title>Lti11ResponseMapper</title>
<ellipse fill="#fdb462" stroke="black" cx="1678" cy="-66.8" rx="99.01" ry="18"/>
<text text-anchor="middle" x="1678" y="-62.6" font-family="Times,serif" font-size="14.00">Lti11ResponseMapper</text>
</g>
<!-- Lti11ResponseMapper&#45;&gt;ToolApiModule -->
<g id="edge9" class="edge">
<title>Lti11ResponseMapper&#45;&gt;ToolApiModule</title>
<path fill="none" stroke="black" d="M1678,-85.02C1678,-103.63 1678,-129.8 1678,-129.8 1678,-129.8 1182.6,-129.8 1182.6,-129.8"/>
<polygon fill="black" stroke="black" points="1182.6,-126.3 1172.6,-129.8 1182.6,-133.3 1182.6,-126.3"/>
</g>
<!-- Lti11Uc -->
<g id="node11" class="node">
<title>Lti11Uc</title>
<ellipse fill="#fdb462" stroke="black" cx="1518" cy="-66.8" rx="43.44" ry="18"/>
<text text-anchor="middle" x="1518" y="-62.6" font-family="Times,serif" font-size="14.00">Lti11Uc</text>
</g>
<!-- Lti11Uc&#45;&gt;ToolApiModule -->
<g id="edge10" class="edge">
<title>Lti11Uc&#45;&gt;ToolApiModule</title>
<path fill="none" stroke="black" d="M1518,-84.83C1518,-101.86 1518,-124.8 1518,-124.8 1518,-124.8 1182.81,-124.8 1182.81,-124.8"/>
<polygon fill="black" stroke="black" points="1182.81,-121.3 1172.81,-124.8 1182.81,-128.3 1182.81,-121.3"/>
</g>
<!-- LtiRoleMapper -->
<g id="node12" class="node">
<title>LtiRoleMapper</title>
<ellipse fill="#fdb462" stroke="black" cx="1386" cy="-66.8" rx="70.64" ry="18"/>
<text text-anchor="middle" x="1386" y="-62.6" font-family="Times,serif" font-size="14.00">LtiRoleMapper</text>
</g>
<!-- LtiRoleMapper&#45;&gt;ToolApiModule -->
<g id="edge11" class="edge">
<title>LtiRoleMapper&#45;&gt;ToolApiModule</title>
<path fill="none" stroke="black" d="M1386,-85.04C1386,-100.37 1386,-119.8 1386,-119.8 1386,-119.8 1182.71,-119.8 1182.71,-119.8"/>
<polygon fill="black" stroke="black" points="1182.71,-116.3 1172.71,-119.8 1182.71,-123.3 1182.71,-116.3"/>
</g>
<!-- LtiToolRepo -->
<g id="node13" class="node">
<title>LtiToolRepo</title>
<ellipse fill="#fdb462" stroke="black" cx="1237" cy="-66.8" rx="60.85" ry="18"/>
<text text-anchor="middle" x="1237" y="-62.6" font-family="Times,serif" font-size="14.00">LtiToolRepo</text>
</g>
<!-- LtiToolRepo&#45;&gt;ToolApiModule -->
<g id="edge12" class="edge">
<title>LtiToolRepo&#45;&gt;ToolApiModule</title>
<path fill="none" stroke="black" d="M1175.77,-66.8C1169.39,-66.8 1165.18,-66.8 1165.18,-66.8 1165.18,-66.8 1165.18,-103.69 1165.18,-103.69"/>
<polygon fill="black" stroke="black" points="1161.68,-103.69 1165.18,-113.69 1168.68,-103.69 1161.68,-103.69"/>
</g>
<!-- SchoolExternalToolResponseMapper -->
<g id="node14" class="node">
<title>SchoolExternalToolResponseMapper</title>
<ellipse fill="#fdb462" stroke="black" cx="1002" cy="-66.8" rx="155.72" ry="18"/>
<text text-anchor="middle" x="1002" y="-62.6" font-family="Times,serif" font-size="14.00">SchoolExternalToolResponseMapper</text>
</g>
<!-- SchoolExternalToolResponseMapper&#45;&gt;ToolApiModule -->
<g id="edge13" class="edge">
<title>SchoolExternalToolResponseMapper&#45;&gt;ToolApiModule</title>
<path fill="none" stroke="black" d="M1111.68,-79.64C1111.68,-79.64 1111.68,-103.32 1111.68,-103.32"/>
<polygon fill="black" stroke="black" points="1108.18,-103.32 1111.68,-113.32 1115.18,-103.32 1108.18,-103.32"/>
</g>
<!-- SchoolExternalToolUc -->
<g id="node15" class="node">
<title>SchoolExternalToolUc</title>
<ellipse fill="#fdb462" stroke="black" cx="728" cy="-66.8" rx="100.14" ry="18"/>
<text text-anchor="middle" x="728" y="-62.6" font-family="Times,serif" font-size="14.00">SchoolExternalToolUc</text>
</g>
<!-- SchoolExternalToolUc&#45;&gt;ToolApiModule -->
<g id="edge14" class="edge">
<title>SchoolExternalToolUc&#45;&gt;ToolApiModule</title>
<path fill="none" stroke="black" d="M728,-85.04C728,-100.37 728,-119.8 728,-119.8 728,-119.8 1055.45,-119.8 1055.45,-119.8"/>
<polygon fill="black" stroke="black" points="1055.45,-123.3 1065.45,-119.8 1055.45,-116.3 1055.45,-123.3"/>
</g>
</g>
</svg>
