<?xml version="1.0" encoding="UTF-8" standalone="no"?>
<!DOCTYPE svg PUBLIC "-//W3C//DTD SVG 1.1//EN"
 "http://www.w3.org/Graphics/SVG/1.1/DTD/svg11.dtd">
<!-- Generated by graphviz version 5.0.0 (20220707.1540)
 -->
<!-- Title: dependencies Pages: 1 -->
<svg width="2513pt" height="174pt"
 viewBox="0.00 0.00 2513.00 173.80" xmlns="http://www.w3.org/2000/svg" xmlns:xlink="http://www.w3.org/1999/xlink">
<g id="graph0" class="graph" transform="scale(1 1) rotate(0) translate(4 169.8)">
<title>dependencies</title>
<polygon fill="white" stroke="transparent" points="-4,4 -4,-169.8 2509,-169.8 2509,4 -4,4"/>
<text text-anchor="middle" x="1252.5" y="-8.2" font-family="sans-serif" font-size="14.00">dependencies</text>
<g id="clust1" class="cluster">
<title>cluster_ToolApiModule</title>
<polygon fill="none" stroke="black" stroke-dasharray="1,5" points="8,-32.8 8,-157.8 2497,-157.8 2497,-32.8 8,-32.8"/>
</g>
<g id="clust3" class="cluster">
<title>cluster_ToolApiModule_imports</title>
<polygon fill="none" stroke="black" points="1893,-40.8 1893,-92.8 2489,-92.8 2489,-40.8 1893,-40.8"/>
</g>
<g id="clust6" class="cluster">
<title>cluster_ToolApiModule_providers</title>
<polygon fill="none" stroke="black" points="16,-40.8 16,-92.8 1885,-92.8 1885,-40.8 16,-40.8"/>
</g>
<!-- AuthorizationModule -->
<g id="node1" class="node">
<title>AuthorizationModule</title>
<polygon fill="#8dd3c7" stroke="black" points="2480.81,-84.8 2477.81,-88.8 2456.81,-88.8 2453.81,-84.8 2343.19,-84.8 2343.19,-48.8 2480.81,-48.8 2480.81,-84.8"/>
<text text-anchor="middle" x="2412" y="-62.6" font-family="Times,serif" font-size="14.00">AuthorizationModule</text>
</g>
<!-- ToolApiModule -->
<g id="node6" class="node">
<title>ToolApiModule</title>
<polygon fill="#8dd3c7" stroke="black" points="1427.49,-149.8 1424.49,-153.8 1403.49,-153.8 1400.49,-149.8 1320.51,-149.8 1320.51,-113.8 1427.49,-113.8 1427.49,-149.8"/>
<text text-anchor="middle" x="1374" y="-127.6" font-family="Times,serif" font-size="14.00">ToolApiModule</text>
</g>
<!-- AuthorizationModule&#45;&gt;ToolApiModule -->
<g id="edge1" class="edge">
<title>AuthorizationModule&#45;&gt;ToolApiModule</title>
<path fill="none" stroke="black" d="M2412,-84.89C2412,-107.93 2412,-144.8 2412,-144.8 2412,-144.8 1437.62,-144.8 1437.62,-144.8"/>
<polygon fill="black" stroke="black" points="1437.62,-141.3 1427.62,-144.8 1437.62,-148.3 1437.62,-141.3"/>
</g>
<!-- LoggerModule -->
<g id="node2" class="node">
<title>LoggerModule</title>
<polygon fill="#8dd3c7" stroke="black" points="2324.98,-84.8 2321.98,-88.8 2300.98,-88.8 2297.98,-84.8 2225.02,-84.8 2225.02,-48.8 2324.98,-48.8 2324.98,-84.8"/>
<text text-anchor="middle" x="2275" y="-62.6" font-family="Times,serif" font-size="14.00">LoggerModule</text>
</g>
<!-- LoggerModule&#45;&gt;ToolApiModule -->
<g id="edge2" class="edge">
<title>LoggerModule&#45;&gt;ToolApiModule</title>
<path fill="none" stroke="black" d="M2275,-84.84C2275,-106.46 2275,-139.8 2275,-139.8 2275,-139.8 1437.66,-139.8 1437.66,-139.8"/>
<polygon fill="black" stroke="black" points="1437.66,-136.3 1427.66,-139.8 1437.66,-143.3 1437.66,-136.3"/>
</g>
<!-- SchoolModule -->
<g id="node3" class="node">
<title>SchoolModule</title>
<polygon fill="#8dd3c7" stroke="black" points="2207.44,-84.8 2204.44,-88.8 2183.44,-88.8 2180.44,-84.8 2108.56,-84.8 2108.56,-48.8 2207.44,-48.8 2207.44,-84.8"/>
<text text-anchor="middle" x="2158" y="-62.6" font-family="Times,serif" font-size="14.00">SchoolModule</text>
</g>
<!-- SchoolModule&#45;&gt;ToolApiModule -->
<g id="edge3" class="edge">
<title>SchoolModule&#45;&gt;ToolApiModule</title>
<path fill="none" stroke="black" d="M2158,-85.02C2158,-105.17 2158,-134.8 2158,-134.8 2158,-134.8 1437.58,-134.8 1437.58,-134.8"/>
<polygon fill="black" stroke="black" points="1437.58,-131.3 1427.58,-134.8 1437.58,-138.3 1437.58,-131.3"/>
</g>
<!-- ToolModule -->
<g id="node4" class="node">
<title>ToolModule</title>
<polygon fill="#8dd3c7" stroke="black" points="2090.99,-84.8 2087.99,-88.8 2066.99,-88.8 2063.99,-84.8 2005.01,-84.8 2005.01,-48.8 2090.99,-48.8 2090.99,-84.8"/>
<text text-anchor="middle" x="2048" y="-62.6" font-family="Times,serif" font-size="14.00">ToolModule</text>
</g>
<!-- ToolModule&#45;&gt;ToolApiModule -->
<g id="edge4" class="edge">
<title>ToolModule&#45;&gt;ToolApiModule</title>
<path fill="none" stroke="black" d="M2048,-85.02C2048,-103.63 2048,-129.8 2048,-129.8 2048,-129.8 1437.73,-129.8 1437.73,-129.8"/>
<polygon fill="black" stroke="black" points="1437.73,-126.3 1427.73,-129.8 1437.73,-133.3 1437.73,-126.3"/>
</g>
<!-- UserModule -->
<g id="node5" class="node">
<title>UserModule</title>
<polygon fill="#8dd3c7" stroke="black" points="1986.99,-84.8 1983.99,-88.8 1962.99,-88.8 1959.99,-84.8 1901.01,-84.8 1901.01,-48.8 1986.99,-48.8 1986.99,-84.8"/>
<text text-anchor="middle" x="1944" y="-62.6" font-family="Times,serif" font-size="14.00">UserModule</text>
</g>
<!-- UserModule&#45;&gt;ToolApiModule -->
<g id="edge5" class="edge">
<title>UserModule&#45;&gt;ToolApiModule</title>
<path fill="none" stroke="black" d="M1944,-84.83C1944,-101.86 1944,-124.8 1944,-124.8 1944,-124.8 1437.62,-124.8 1437.62,-124.8"/>
<polygon fill="black" stroke="black" points="1437.62,-121.3 1427.62,-124.8 1437.62,-128.3 1437.62,-121.3"/>
</g>
<!-- ExternalToolRequestMapper -->
<g id="node7" class="node">
<title>ExternalToolRequestMapper</title>
<ellipse fill="#fdb462" stroke="black" cx="1754" cy="-66.8" rx="123.26" ry="18"/>
<text text-anchor="middle" x="1754" y="-62.6" font-family="Times,serif" font-size="14.00">ExternalToolRequestMapper</text>
</g>
<!-- ExternalToolRequestMapper&#45;&gt;ToolApiModule -->
<g id="edge6" class="edge">
<title>ExternalToolRequestMapper&#45;&gt;ToolApiModule</title>
<path fill="none" stroke="black" d="M1754,-85.04C1754,-100.37 1754,-119.8 1754,-119.8 1754,-119.8 1437.64,-119.8 1437.64,-119.8"/>
<polygon fill="black" stroke="black" points="1437.64,-116.3 1427.64,-119.8 1437.64,-123.3 1437.64,-116.3"/>
</g>
<!-- ExternalToolResponseMapper -->
<g id="node8" class="node">
<title>ExternalToolResponseMapper</title>
<ellipse fill="#fdb462" stroke="black" cx="1484" cy="-66.8" rx="129.06" ry="18"/>
<text text-anchor="middle" x="1484" y="-62.6" font-family="Times,serif" font-size="14.00">ExternalToolResponseMapper</text>
</g>
<!-- ExternalToolResponseMapper&#45;&gt;ToolApiModule -->
<g id="edge7" class="edge">
<title>ExternalToolResponseMapper&#45;&gt;ToolApiModule</title>
<path fill="none" stroke="black" d="M1391.23,-79.33C1391.23,-79.33 1391.23,-103.65 1391.23,-103.65"/>
<polygon fill="black" stroke="black" points="1387.73,-103.65 1391.23,-113.65 1394.73,-103.65 1387.73,-103.65"/>
</g>
<!-- ExternalToolUc -->
<g id="node9" class="node">
<title>ExternalToolUc</title>
<ellipse fill="#fdb462" stroke="black" cx="1264" cy="-66.8" rx="73.49" ry="18"/>
<text text-anchor="middle" x="1264" y="-62.6" font-family="Times,serif" font-size="14.00">ExternalToolUc</text>
</g>
<!-- ExternalToolUc&#45;&gt;ToolApiModule -->
<g id="edge8" class="edge">
<title>ExternalToolUc&#45;&gt;ToolApiModule</title>
<path fill="none" stroke="black" d="M1328.87,-75.3C1328.87,-75.3 1328.87,-103.71 1328.87,-103.71"/>
<polygon fill="black" stroke="black" points="1325.37,-103.71 1328.87,-113.71 1332.37,-103.71 1325.37,-103.71"/>
</g>
<!-- Lti11ResponseMapper -->
<g id="node10" class="node">
<title>Lti11ResponseMapper</title>
<ellipse fill="#fdb462" stroke="black" cx="1074" cy="-66.8" rx="99.01" ry="18"/>
<text text-anchor="middle" x="1074" y="-62.6" font-family="Times,serif" font-size="14.00">Lti11ResponseMapper</text>
</g>
<!-- Lti11ResponseMapper&#45;&gt;ToolApiModule -->
<g id="edge9" class="edge">
<title>Lti11ResponseMapper&#45;&gt;ToolApiModule</title>
<path fill="none" stroke="black" d="M1074,-85.04C1074,-100.37 1074,-119.8 1074,-119.8 1074,-119.8 1310.37,-119.8 1310.37,-119.8"/>
<polygon fill="black" stroke="black" points="1310.37,-123.3 1320.37,-119.8 1310.37,-116.3 1310.37,-123.3"/>
</g>
<!-- Lti11Uc -->
<g id="node11" class="node">
<title>Lti11Uc</title>
<ellipse fill="#fdb462" stroke="black" cx="914" cy="-66.8" rx="43.44" ry="18"/>
<text text-anchor="middle" x="914" y="-62.6" font-family="Times,serif" font-size="14.00">Lti11Uc</text>
</g>
<!-- Lti11Uc&#45;&gt;ToolApiModule -->
<g id="edge10" class="edge">
<title>Lti11Uc&#45;&gt;ToolApiModule</title>
<path fill="none" stroke="black" d="M914,-84.83C914,-101.86 914,-124.8 914,-124.8 914,-124.8 1310.33,-124.8 1310.33,-124.8"/>
<polygon fill="black" stroke="black" points="1310.33,-128.3 1320.33,-124.8 1310.33,-121.3 1310.33,-128.3"/>
</g>
<!-- LtiRoleMapper -->
<g id="node12" class="node">
<title>LtiRoleMapper</title>
<ellipse fill="#fdb462" stroke="black" cx="782" cy="-66.8" rx="70.64" ry="18"/>
<text text-anchor="middle" x="782" y="-62.6" font-family="Times,serif" font-size="14.00">LtiRoleMapper</text>
</g>
<!-- LtiRoleMapper&#45;&gt;ToolApiModule -->
<g id="edge11" class="edge">
<title>LtiRoleMapper&#45;&gt;ToolApiModule</title>
<path fill="none" stroke="black" d="M782,-85.02C782,-103.63 782,-129.8 782,-129.8 782,-129.8 1310.42,-129.8 1310.42,-129.8"/>
<polygon fill="black" stroke="black" points="1310.42,-133.3 1320.42,-129.8 1310.42,-126.3 1310.42,-133.3"/>
</g>
<!-- LtiToolRepo -->
<g id="node13" class="node">
<title>LtiToolRepo</title>
<ellipse fill="#fdb462" stroke="black" cx="633" cy="-66.8" rx="60.85" ry="18"/>
<text text-anchor="middle" x="633" y="-62.6" font-family="Times,serif" font-size="14.00">LtiToolRepo</text>
</g>
<!-- LtiToolRepo&#45;&gt;ToolApiModule -->
<g id="edge12" class="edge">
<title>LtiToolRepo&#45;&gt;ToolApiModule</title>
<path fill="none" stroke="black" d="M633,-85.02C633,-105.17 633,-134.8 633,-134.8 633,-134.8 1310.41,-134.8 1310.41,-134.8"/>
<polygon fill="black" stroke="black" points="1310.41,-138.3 1320.41,-134.8 1310.41,-131.3 1310.41,-138.3"/>
</g>
<!-- SchoolExternalToolResponseMapper -->
<g id="node14" class="node">
<title>SchoolExternalToolResponseMapper</title>
<ellipse fill="#fdb462" stroke="black" cx="398" cy="-66.8" rx="155.72" ry="18"/>
<text text-anchor="middle" x="398" y="-62.6" font-family="Times,serif" font-size="14.00">SchoolExternalToolResponseMapper</text>
</g>
<!-- SchoolExternalToolResponseMapper&#45;&gt;ToolApiModule -->
<g id="edge13" class="edge">
<title>SchoolExternalToolResponseMapper&#45;&gt;ToolApiModule</title>
<path fill="none" stroke="black" d="M398,-84.84C398,-106.46 398,-139.8 398,-139.8 398,-139.8 1310.48,-139.8 1310.48,-139.8"/>
<polygon fill="black" stroke="black" points="1310.48,-143.3 1320.48,-139.8 1310.48,-136.3 1310.48,-143.3"/>
</g>
<!-- SchoolExternalToolUc -->
<g id="node15" class="node">
<title>SchoolExternalToolUc</title>
<ellipse fill="#fdb462" stroke="black" cx="124" cy="-66.8" rx="100.14" ry="18"/>
<text text-anchor="middle" x="124" y="-62.6" font-family="Times,serif" font-size="14.00">SchoolExternalToolUc</text>
</g>
<!-- SchoolExternalToolUc&#45;&gt;ToolApiModule -->
<g id="edge14" class="edge">
<title>SchoolExternalToolUc&#45;&gt;ToolApiModule</title>
<path fill="none" stroke="black" d="M124,-84.89C124,-107.93 124,-144.8 124,-144.8 124,-144.8 1310.29,-144.8 1310.29,-144.8"/>
<polygon fill="black" stroke="black" points="1310.29,-148.3 1320.29,-144.8 1310.29,-141.3 1310.29,-148.3"/>
</g>
</g>
</svg>
