<?xml version="1.0" encoding="UTF-8" standalone="no"?>
<!DOCTYPE svg PUBLIC "-//W3C//DTD SVG 1.1//EN"
 "http://www.w3.org/Graphics/SVG/1.1/DTD/svg11.dtd">
<!-- Generated by graphviz version 2.47.3 (20210619.1520)
 -->
<!-- Title: dependencies Pages: 1 -->
<svg width="828pt" height="174pt"
 viewBox="0.00 0.00 828.00 173.80" xmlns="http://www.w3.org/2000/svg" xmlns:xlink="http://www.w3.org/1999/xlink">
<g id="graph0" class="graph" transform="scale(1 1) rotate(0) translate(4 169.8)">
<title>dependencies</title>
<polygon fill="white" stroke="transparent" points="-4,4 -4,-169.8 824,-169.8 824,4 -4,4"/>
<text text-anchor="middle" x="410" y="-8.2" font-family="sans-serif" font-size="14.00">dependencies</text>
<g id="clust1" class="cluster">
<title>cluster_FilesModule</title>
<polygon fill="none" stroke="black" stroke-dasharray="1,5" points="8,-32.8 8,-157.8 812,-157.8 812,-32.8 8,-32.8"/>
</g>
<g id="clust3" class="cluster">
<title>cluster_FilesModule_imports</title>
<polygon fill="none" stroke="black" points="688,-40.8 688,-92.8 804,-92.8 804,-40.8 688,-40.8"/>
</g>
<g id="clust6" class="cluster">
<title>cluster_FilesModule_providers</title>
<polygon fill="none" stroke="black" points="16,-40.8 16,-92.8 680,-92.8 680,-40.8 16,-40.8"/>
</g>
<!-- LoggerModule -->
<g id="node1" class="node">
<title>LoggerModule</title>
<polygon fill="#8dd3c7" stroke="black" points="795.98,-84.8 792.98,-88.8 771.98,-88.8 768.98,-84.8 696.02,-84.8 696.02,-48.8 795.98,-48.8 795.98,-84.8"/>
<text text-anchor="middle" x="746" y="-62.6" font-family="Times,serif" font-size="14.00">LoggerModule</text>
</g>
<!-- FilesModule -->
<g id="node2" class="node">
<title>FilesModule</title>
<polygon fill="#8dd3c7" stroke="black" points="478.27,-149.8 475.27,-153.8 454.27,-153.8 451.27,-149.8 391.73,-149.8 391.73,-113.8 478.27,-113.8 478.27,-149.8"/>
<text text-anchor="middle" x="435" y="-127.6" font-family="Times,serif" font-size="14.00">FilesModule</text>
</g>
<!-- LoggerModule&#45;&gt;FilesModule -->
<g id="edge1" class="edge">
<title>LoggerModule&#45;&gt;FilesModule</title>
<path fill="none" stroke="black" d="M746,-85.08C746,-106.12 746,-137.8 746,-137.8 746,-137.8 488.57,-137.8 488.57,-137.8"/>
<polygon fill="black" stroke="black" points="488.57,-134.3 478.57,-137.8 488.57,-141.3 488.57,-134.3"/>
</g>
<!-- DeleteFilesUc -->
<g id="node3" class="node">
<title>DeleteFilesUc</title>
<ellipse fill="#fdb462" stroke="black" cx="606" cy="-66.8" rx="66.04" ry="18"/>
<text text-anchor="middle" x="606" y="-62.6" font-family="Times,serif" font-size="14.00">DeleteFilesUc</text>
</g>
<!-- DeleteFilesUc&#45;&gt;FilesModule -->
<g id="edge2" class="edge">
<title>DeleteFilesUc&#45;&gt;FilesModule</title>
<path fill="none" stroke="black" d="M606,-84.82C606,-102.17 606,-125.8 606,-125.8 606,-125.8 488.59,-125.8 488.59,-125.8"/>
<polygon fill="black" stroke="black" points="488.59,-122.3 478.59,-125.8 488.59,-129.3 488.59,-122.3"/>
</g>
<!-- FileStorageAdapter -->
<g id="node4" class="node">
<title>FileStorageAdapter</title>
<ellipse fill="#fdb462" stroke="black" cx="435" cy="-66.8" rx="86.81" ry="18"/>
<text text-anchor="middle" x="435" y="-62.6" font-family="Times,serif" font-size="14.00">FileStorageAdapter</text>
</g>
<!-- FileStorageAdapter&#45;&gt;FilesModule -->
<g id="edge3" class="edge">
<title>FileStorageAdapter&#45;&gt;FilesModule</title>
<path fill="none" stroke="black" d="M435,-84.91C435,-84.91 435,-103.79 435,-103.79"/>
<polygon fill="black" stroke="black" points="431.5,-103.79 435,-113.79 438.5,-103.79 431.5,-103.79"/>
</g>
<!-- FilesRepo -->
<g id="node5" class="node">
<title>FilesRepo</title>
<ellipse fill="#fdb462" stroke="black" cx="280" cy="-66.8" rx="50.4" ry="18"/>
<text text-anchor="middle" x="280" y="-62.6" font-family="Times,serif" font-size="14.00">FilesRepo</text>
</g>
<!-- FilesRepo&#45;&gt;FilesModule -->
<g id="edge4" class="edge">
<title>FilesRepo&#45;&gt;FilesModule</title>
<path fill="none" stroke="black" d="M280,-84.82C280,-102.17 280,-125.8 280,-125.8 280,-125.8 381.41,-125.8 381.41,-125.8"/>
<polygon fill="black" stroke="black" points="381.41,-129.3 391.41,-125.8 381.41,-122.3 381.41,-129.3"/>
</g>
<!-- StorageProviderRepo -->
<g id="node6" class="node">
<title>StorageProviderRepo</title>
<ellipse fill="#fdb462" stroke="black" cx="118" cy="-66.8" rx="94.34" ry="18"/>
<text text-anchor="middle" x="118" y="-62.6" font-family="Times,serif" font-size="14.00">StorageProviderRepo</text>
</g>
<!-- StorageProviderRepo&#45;&gt;FilesModule -->
<g id="edge5" class="edge">
<title>StorageProviderRepo&#45;&gt;FilesModule</title>
<path fill="none" stroke="black" d="M118,-85.08C118,-106.12 118,-137.8 118,-137.8 118,-137.8 381.59,-137.8 381.59,-137.8"/>
<polygon fill="black" stroke="black" points="381.59,-141.3 391.59,-137.8 381.59,-134.3 381.59,-141.3"/>
</g>
</g>
</svg>
