<?xml version="1.0" encoding="UTF-8" standalone="no"?>
<!DOCTYPE svg PUBLIC "-//W3C//DTD SVG 1.1//EN"
 "http://www.w3.org/Graphics/SVG/1.1/DTD/svg11.dtd">
<!-- Generated by graphviz version 3.0.0 (20220226.1711)
 -->
<!-- Title: dependencies Pages: 1 -->
<svg width="1770pt" height="174pt"
 viewBox="0.00 0.00 1770.00 173.80" xmlns="http://www.w3.org/2000/svg" xmlns:xlink="http://www.w3.org/1999/xlink">
<g id="graph0" class="graph" transform="scale(1 1) rotate(0) translate(4 169.8)">
<title>dependencies</title>
<polygon fill="white" stroke="transparent" points="-4,4 -4,-169.8 1766,-169.8 1766,4 -4,4"/>
<text text-anchor="middle" x="881" y="-8.2" font-family="sans-serif" font-size="14.00">dependencies</text>
<g id="clust1" class="cluster">
<title>cluster_FilesModule</title>
<polygon fill="none" stroke="black" stroke-dasharray="1,5" points="8,-32.8 8,-157.8 1754,-157.8 1754,-32.8 8,-32.8"/>
</g>
<g id="clust6" class="cluster">
<title>cluster_FilesModule_providers</title>
<polygon fill="none" stroke="black" points="140,-40.8 140,-92.8 1746,-92.8 1746,-40.8 140,-40.8"/>
</g>
<g id="clust3" class="cluster">
<title>cluster_FilesModule_imports</title>
<polygon fill="none" stroke="black" points="16,-40.8 16,-92.8 132,-92.8 132,-40.8 16,-40.8"/>
</g>
<!-- LoggerModule -->
<g id="node1" class="node">
<title>LoggerModule</title>
<polygon fill="#8dd3c7" stroke="black" points="123.98,-84.8 120.98,-88.8 99.98,-88.8 96.98,-84.8 24.02,-84.8 24.02,-48.8 123.98,-48.8 123.98,-84.8"/>
<text text-anchor="middle" x="74" y="-62.6" font-family="Times,serif" font-size="14.00">LoggerModule</text>
</g>
<!-- FilesModule -->
<g id="node2" class="node">
<title>FilesModule</title>
<polygon fill="#8dd3c7" stroke="black" points="947.28,-149.8 944.28,-153.8 923.28,-153.8 920.28,-149.8 860.72,-149.8 860.72,-113.8 947.28,-113.8 947.28,-149.8"/>
<text text-anchor="middle" x="904" y="-127.6" font-family="Times,serif" font-size="14.00">FilesModule</text>
</g>
<!-- LoggerModule&#45;&gt;FilesModule -->
<g id="edge1" class="edge">
<title>LoggerModule&#45;&gt;FilesModule</title>
<path fill="none" stroke="black" d="M74,-84.81C74,-107.29 74,-142.8 74,-142.8 74,-142.8 850.54,-142.8 850.54,-142.8"/>
<polygon fill="black" stroke="black" points="850.54,-146.3 860.54,-142.8 850.54,-139.3 850.54,-146.3"/>
</g>
<!-- DeleteFilesUc -->
<g id="node3" class="node">
<title>DeleteFilesUc</title>
<ellipse fill="#fdb462" stroke="black" cx="1672" cy="-66.8" rx="66.05" ry="18"/>
<text text-anchor="middle" x="1672" y="-62.6" font-family="Times,serif" font-size="14.00">DeleteFilesUc</text>
</g>
<!-- DeleteFilesUc&#45;&gt;FilesModule -->
<g id="edge2" class="edge">
<title>DeleteFilesUc&#45;&gt;FilesModule</title>
<path fill="none" stroke="black" d="M1672,-84.81C1672,-107.29 1672,-142.8 1672,-142.8 1672,-142.8 957.49,-142.8 957.49,-142.8"/>
<polygon fill="black" stroke="black" points="957.49,-139.3 947.49,-142.8 957.49,-146.3 957.49,-139.3"/>
</g>
<!-- FileRecordRepo -->
<g id="node4" class="node">
<title>FileRecordRepo</title>
<ellipse fill="#fdb462" stroke="black" cx="1513" cy="-66.8" rx="74.16" ry="18"/>
<text text-anchor="middle" x="1513" y="-62.6" font-family="Times,serif" font-size="14.00">FileRecordRepo</text>
</g>
<!-- FileRecordRepo&#45;&gt;FilesModule -->
<g id="edge3" class="edge">
<title>FileRecordRepo&#45;&gt;FilesModule</title>
<path fill="none" stroke="black" d="M1513,-84.93C1513,-105.37 1513,-135.8 1513,-135.8 1513,-135.8 957.31,-135.8 957.31,-135.8"/>
<polygon fill="black" stroke="black" points="957.31,-132.3 947.31,-135.8 957.31,-139.3 957.31,-132.3"/>
</g>
<!-- FileStorageAdapter -->
<g id="node5" class="node">
<title>FileStorageAdapter</title>
<ellipse fill="#fdb462" stroke="black" cx="1334" cy="-66.8" rx="86.82" ry="18"/>
<text text-anchor="middle" x="1334" y="-62.6" font-family="Times,serif" font-size="14.00">FileStorageAdapter</text>
</g>
<!-- FileStorageAdapter&#45;&gt;FilesModule -->
<g id="edge4" class="edge">
<title>FileStorageAdapter&#45;&gt;FilesModule</title>
<path fill="none" stroke="black" d="M1334,-85.07C1334,-103.36 1334,-128.8 1334,-128.8 1334,-128.8 957.6,-128.8 957.6,-128.8"/>
<polygon fill="black" stroke="black" points="957.6,-125.3 947.6,-128.8 957.6,-132.3 957.6,-125.3"/>
</g>
<!-- FilesRepo -->
<g id="node6" class="node">
<title>FilesRepo</title>
<ellipse fill="#fdb462" stroke="black" cx="1179" cy="-66.8" rx="50.4" ry="18"/>
<text text-anchor="middle" x="1179" y="-62.6" font-family="Times,serif" font-size="14.00">FilesRepo</text>
</g>
<!-- FilesRepo&#45;&gt;FilesModule -->
<g id="edge5" class="edge">
<title>FilesRepo&#45;&gt;FilesModule</title>
<path fill="none" stroke="black" d="M1179,-84.81C1179,-100.85 1179,-121.8 1179,-121.8 1179,-121.8 957.57,-121.8 957.57,-121.8"/>
<polygon fill="black" stroke="black" points="957.57,-118.3 947.57,-121.8 957.57,-125.3 957.57,-118.3"/>
</g>
<!-- StorageProviderRepo -->
<g id="node7" class="node">
<title>StorageProviderRepo</title>
<ellipse fill="#fdb462" stroke="black" cx="1017" cy="-66.8" rx="94.35" ry="18"/>
<text text-anchor="middle" x="1017" y="-62.6" font-family="Times,serif" font-size="14.00">StorageProviderRepo</text>
</g>
<!-- StorageProviderRepo&#45;&gt;FilesModule -->
<g id="edge6" class="edge">
<title>StorageProviderRepo&#45;&gt;FilesModule</title>
<path fill="none" stroke="black" d="M935.11,-75.84C935.11,-75.84 935.11,-103.76 935.11,-103.76"/>
<polygon fill="black" stroke="black" points="931.61,-103.76 935.11,-113.76 938.61,-103.76 931.61,-103.76"/>
</g>
<!-- SyncFilesMetadataService -->
<g id="node8" class="node">
<title>SyncFilesMetadataService</title>
<ellipse fill="#fdb462" stroke="black" cx="791" cy="-66.8" rx="114.03" ry="18"/>
<text text-anchor="middle" x="791" y="-62.6" font-family="Times,serif" font-size="14.00">SyncFilesMetadataService</text>
</g>
<!-- SyncFilesMetadataService&#45;&gt;FilesModule -->
<g id="edge7" class="edge">
<title>SyncFilesMetadataService&#45;&gt;FilesModule</title>
<path fill="none" stroke="black" d="M882.81,-77.53C882.81,-77.53 882.81,-103.67 882.81,-103.67"/>
<polygon fill="black" stroke="black" points="879.31,-103.67 882.81,-113.67 886.31,-103.67 879.31,-103.67"/>
</g>
<!-- SyncFilesRepo -->
<g id="node9" class="node">
<title>SyncFilesRepo</title>
<ellipse fill="#fdb462" stroke="black" cx="589" cy="-66.8" rx="69.53" ry="18"/>
<text text-anchor="middle" x="589" y="-62.6" font-family="Times,serif" font-size="14.00">SyncFilesRepo</text>
</g>
<!-- SyncFilesRepo&#45;&gt;FilesModule -->
<g id="edge8" class="edge">
<title>SyncFilesRepo&#45;&gt;FilesModule</title>
<path fill="none" stroke="black" d="M589,-84.81C589,-100.85 589,-121.8 589,-121.8 589,-121.8 850.53,-121.8 850.53,-121.8"/>
<polygon fill="black" stroke="black" points="850.53,-125.3 860.53,-121.8 850.53,-118.3 850.53,-125.3"/>
</g>
<!-- SyncFilesStorageService -->
<g id="node10" class="node">
<title>SyncFilesStorageService</title>
<ellipse fill="#fdb462" stroke="black" cx="394" cy="-66.8" rx="107.67" ry="18"/>
<text text-anchor="middle" x="394" y="-62.6" font-family="Times,serif" font-size="14.00">SyncFilesStorageService</text>
</g>
<!-- SyncFilesStorageService&#45;&gt;FilesModule -->
<g id="edge9" class="edge">
<title>SyncFilesStorageService&#45;&gt;FilesModule</title>
<path fill="none" stroke="black" d="M394,-85.07C394,-103.36 394,-128.8 394,-128.8 394,-128.8 850.52,-128.8 850.52,-128.8"/>
<polygon fill="black" stroke="black" points="850.52,-132.3 860.52,-128.8 850.52,-125.3 850.52,-132.3"/>
</g>
<!-- SyncFilesUc -->
<g id="node11" class="node">
<title>SyncFilesUc</title>
<ellipse fill="#fdb462" stroke="black" cx="208" cy="-66.8" rx="60.28" ry="18"/>
<text text-anchor="middle" x="208" y="-62.6" font-family="Times,serif" font-size="14.00">SyncFilesUc</text>
</g>
<!-- SyncFilesUc&#45;&gt;FilesModule -->
<g id="edge10" class="edge">
<title>SyncFilesUc&#45;&gt;FilesModule</title>
<path fill="none" stroke="black" d="M208,-84.93C208,-105.37 208,-135.8 208,-135.8 208,-135.8 850.46,-135.8 850.46,-135.8"/>
<polygon fill="black" stroke="black" points="850.46,-139.3 860.46,-135.8 850.46,-132.3 850.46,-139.3"/>
</g>
</g>
</svg>
