<?xml version="1.0" encoding="UTF-8" standalone="no"?>
<!DOCTYPE svg PUBLIC "-//W3C//DTD SVG 1.1//EN"
 "http://www.w3.org/Graphics/SVG/1.1/DTD/svg11.dtd">
<!-- Generated by graphviz version 3.0.0 (20220226.1711)
 -->
<!-- Title: dependencies Pages: 1 -->
<svg width="2191pt" height="174pt"
 viewBox="0.00 0.00 2191.00 173.80" xmlns="http://www.w3.org/2000/svg" xmlns:xlink="http://www.w3.org/1999/xlink">
<g id="graph0" class="graph" transform="scale(1 1) rotate(0) translate(4 169.8)">
<title>dependencies</title>
<polygon fill="white" stroke="transparent" points="-4,4 -4,-169.8 2187,-169.8 2187,4 -4,4"/>
<text text-anchor="middle" x="1091.5" y="-8.2" font-family="sans-serif" font-size="14.00">dependencies</text>
<g id="clust1" class="cluster">
<title>cluster_FilesModule</title>
<polygon fill="none" stroke="black" stroke-dasharray="1,5" points="8,-32.8 8,-157.8 2175,-157.8 2175,-32.8 8,-32.8"/>
</g>
<g id="clust6" class="cluster">
<title>cluster_FilesModule_providers</title>
<polygon fill="none" stroke="black" points="140,-40.8 140,-92.8 2167,-92.8 2167,-40.8 140,-40.8"/>
</g>
<g id="clust3" class="cluster">
<title>cluster_FilesModule_imports</title>
<polygon fill="none" stroke="black" points="16,-40.8 16,-92.8 132,-92.8 132,-40.8 16,-40.8"/>
</g>
<!-- LoggerModule -->
<g id="node1" class="node">
<title>LoggerModule</title>
<polygon fill="#8dd3c7" stroke="black" points="123.98,-84.8 120.98,-88.8 99.98,-88.8 96.98,-84.8 24.02,-84.8 24.02,-48.8 123.98,-48.8 123.98,-84.8"/>
<text text-anchor="middle" x="74" y="-62.6" font-family="Times,serif" font-size="14.00">LoggerModule</text>
</g>
<!-- FilesModule -->
<g id="node2" class="node">
<title>FilesModule</title>
<polygon fill="#8dd3c7" stroke="black" points="1160.28,-149.8 1157.28,-153.8 1136.28,-153.8 1133.28,-149.8 1073.72,-149.8 1073.72,-113.8 1160.28,-113.8 1160.28,-149.8"/>
<text text-anchor="middle" x="1117" y="-127.6" font-family="Times,serif" font-size="14.00">FilesModule</text>
</g>
<!-- LoggerModule&#45;&gt;FilesModule -->
<g id="edge1" class="edge">
<title>LoggerModule&#45;&gt;FilesModule</title>
<path fill="none" stroke="black" d="M74,-84.89C74,-107.93 74,-144.8 74,-144.8 74,-144.8 1063.51,-144.8 1063.51,-144.8"/>
<polygon fill="black" stroke="black" points="1063.51,-148.3 1073.51,-144.8 1063.51,-141.3 1063.51,-148.3"/>
</g>
<!-- DeleteFilesUc -->
<g id="node3" class="node">
<title>DeleteFilesUc</title>
<ellipse fill="#fdb462" stroke="black" cx="2093" cy="-66.8" rx="66.05" ry="18"/>
<text text-anchor="middle" x="2093" y="-62.6" font-family="Times,serif" font-size="14.00">DeleteFilesUc</text>
</g>
<!-- DeleteFilesUc&#45;&gt;FilesModule -->
<g id="edge2" class="edge">
<title>DeleteFilesUc&#45;&gt;FilesModule</title>
<path fill="none" stroke="black" d="M2093,-84.89C2093,-107.93 2093,-144.8 2093,-144.8 2093,-144.8 1170.51,-144.8 1170.51,-144.8"/>
<polygon fill="black" stroke="black" points="1170.51,-141.3 1160.51,-144.8 1170.51,-148.3 1170.51,-141.3"/>
</g>
<!-- DeleteOrphanedFilesUc -->
<g id="node4" class="node">
<title>DeleteOrphanedFilesUc</title>
<ellipse fill="#fdb462" stroke="black" cx="1904" cy="-66.8" rx="104.2" ry="18"/>
<text text-anchor="middle" x="1904" y="-62.6" font-family="Times,serif" font-size="14.00">DeleteOrphanedFilesUc</text>
</g>
<!-- DeleteOrphanedFilesUc&#45;&gt;FilesModule -->
<g id="edge3" class="edge">
<title>DeleteOrphanedFilesUc&#45;&gt;FilesModule</title>
<path fill="none" stroke="black" d="M1904,-85.08C1904,-106.12 1904,-137.8 1904,-137.8 1904,-137.8 1170.43,-137.8 1170.43,-137.8"/>
<polygon fill="black" stroke="black" points="1170.43,-134.3 1160.43,-137.8 1170.43,-141.3 1170.43,-134.3"/>
</g>
<!-- FileRecordRepo -->
<g id="node5" class="node">
<title>FileRecordRepo</title>
<ellipse fill="#fdb462" stroke="black" cx="1707" cy="-66.8" rx="74.16" ry="18"/>
<text text-anchor="middle" x="1707" y="-62.6" font-family="Times,serif" font-size="14.00">FileRecordRepo</text>
</g>
<!-- FileRecordRepo&#45;&gt;FilesModule -->
<g id="edge4" class="edge">
<title>FileRecordRepo&#45;&gt;FilesModule</title>
<path fill="none" stroke="black" d="M1707,-84.91C1707,-104.14 1707,-131.8 1707,-131.8 1707,-131.8 1170.38,-131.8 1170.38,-131.8"/>
<polygon fill="black" stroke="black" points="1170.38,-128.3 1160.38,-131.8 1170.38,-135.3 1170.38,-128.3"/>
</g>
<!-- FileStorageAdapter -->
<g id="node6" class="node">
<title>FileStorageAdapter</title>
<ellipse fill="#fdb462" stroke="black" cx="1528" cy="-66.8" rx="86.82" ry="18"/>
<text text-anchor="middle" x="1528" y="-62.6" font-family="Times,serif" font-size="14.00">FileStorageAdapter</text>
</g>
<!-- FileStorageAdapter&#45;&gt;FilesModule -->
<g id="edge5" class="edge">
<title>FileStorageAdapter&#45;&gt;FilesModule</title>
<path fill="none" stroke="black" d="M1528,-84.82C1528,-102.17 1528,-125.8 1528,-125.8 1528,-125.8 1170.6,-125.8 1170.6,-125.8"/>
<polygon fill="black" stroke="black" points="1170.6,-122.3 1160.6,-125.8 1170.6,-129.3 1170.6,-122.3"/>
</g>
<!-- FilesRepo -->
<g id="node7" class="node">
<title>FilesRepo</title>
<ellipse fill="#fdb462" stroke="black" cx="1373" cy="-66.8" rx="50.4" ry="18"/>
<text text-anchor="middle" x="1373" y="-62.6" font-family="Times,serif" font-size="14.00">FilesRepo</text>
</g>
<!-- FilesRepo&#45;&gt;FilesModule -->
<g id="edge6" class="edge">
<title>FilesRepo&#45;&gt;FilesModule</title>
<path fill="none" stroke="black" d="M1373,-85.04C1373,-100.37 1373,-119.8 1373,-119.8 1373,-119.8 1170.43,-119.8 1170.43,-119.8"/>
<polygon fill="black" stroke="black" points="1170.43,-116.3 1160.43,-119.8 1170.43,-123.3 1170.43,-116.3"/>
</g>
<!-- OrphanedFilesRepo -->
<g id="node8" class="node">
<title>OrphanedFilesRepo</title>
<ellipse fill="#fdb462" stroke="black" cx="1217" cy="-66.8" rx="88.06" ry="18"/>
<text text-anchor="middle" x="1217" y="-62.6" font-family="Times,serif" font-size="14.00">OrphanedFilesRepo</text>
</g>
<!-- OrphanedFilesRepo&#45;&gt;FilesModule -->
<g id="edge7" class="edge">
<title>OrphanedFilesRepo&#45;&gt;FilesModule</title>
<path fill="none" stroke="black" d="M1144.56,-77.24C1144.56,-77.24 1144.56,-103.77 1144.56,-103.77"/>
<polygon fill="black" stroke="black" points="1141.06,-103.77 1144.56,-113.77 1148.06,-103.77 1141.06,-103.77"/>
</g>
<!-- StorageProviderRepo -->
<g id="node9" class="node">
<title>StorageProviderRepo</title>
<ellipse fill="#fdb462" stroke="black" cx="1017" cy="-66.8" rx="94.35" ry="18"/>
<text text-anchor="middle" x="1017" y="-62.6" font-family="Times,serif" font-size="14.00">StorageProviderRepo</text>
</g>
<!-- StorageProviderRepo&#45;&gt;FilesModule -->
<g id="edge8" class="edge">
<title>StorageProviderRepo&#45;&gt;FilesModule</title>
<path fill="none" stroke="black" d="M1092.39,-77.83C1092.39,-77.83 1092.39,-103.58 1092.39,-103.58"/>
<polygon fill="black" stroke="black" points="1088.89,-103.58 1092.39,-113.58 1095.89,-103.58 1088.89,-103.58"/>
</g>
<!-- SyncFilesMetadataService -->
<g id="node10" class="node">
<title>SyncFilesMetadataService</title>
<ellipse fill="#fdb462" stroke="black" cx="791" cy="-66.8" rx="114.03" ry="18"/>
<text text-anchor="middle" x="791" y="-62.6" font-family="Times,serif" font-size="14.00">SyncFilesMetadataService</text>
</g>
<!-- SyncFilesMetadataService&#45;&gt;FilesModule -->
<g id="edge9" class="edge">
<title>SyncFilesMetadataService&#45;&gt;FilesModule</title>
<path fill="none" stroke="black" d="M791,-85.04C791,-100.37 791,-119.8 791,-119.8 791,-119.8 1063.71,-119.8 1063.71,-119.8"/>
<polygon fill="black" stroke="black" points="1063.71,-123.3 1073.71,-119.8 1063.71,-116.3 1063.71,-123.3"/>
</g>
<!-- SyncFilesRepo -->
<g id="node11" class="node">
<title>SyncFilesRepo</title>
<ellipse fill="#fdb462" stroke="black" cx="589" cy="-66.8" rx="69.53" ry="18"/>
<text text-anchor="middle" x="589" y="-62.6" font-family="Times,serif" font-size="14.00">SyncFilesRepo</text>
</g>
<!-- SyncFilesRepo&#45;&gt;FilesModule -->
<g id="edge10" class="edge">
<title>SyncFilesRepo&#45;&gt;FilesModule</title>
<path fill="none" stroke="black" d="M589,-84.82C589,-102.17 589,-125.8 589,-125.8 589,-125.8 1063.34,-125.8 1063.34,-125.8"/>
<polygon fill="black" stroke="black" points="1063.34,-129.3 1073.34,-125.8 1063.34,-122.3 1063.34,-129.3"/>
</g>
<!-- SyncFilesStorageService -->
<g id="node12" class="node">
<title>SyncFilesStorageService</title>
<ellipse fill="#fdb462" stroke="black" cx="394" cy="-66.8" rx="107.67" ry="18"/>
<text text-anchor="middle" x="394" y="-62.6" font-family="Times,serif" font-size="14.00">SyncFilesStorageService</text>
</g>
<!-- SyncFilesStorageService&#45;&gt;FilesModule -->
<g id="edge11" class="edge">
<title>SyncFilesStorageService&#45;&gt;FilesModule</title>
<path fill="none" stroke="black" d="M394,-84.91C394,-104.14 394,-131.8 394,-131.8 394,-131.8 1063.67,-131.8 1063.67,-131.8"/>
<polygon fill="black" stroke="black" points="1063.67,-135.3 1073.67,-131.8 1063.67,-128.3 1063.67,-135.3"/>
</g>
<!-- SyncFilesUc -->
<g id="node13" class="node">
<title>SyncFilesUc</title>
<ellipse fill="#fdb462" stroke="black" cx="208" cy="-66.8" rx="60.28" ry="18"/>
<text text-anchor="middle" x="208" y="-62.6" font-family="Times,serif" font-size="14.00">SyncFilesUc</text>
</g>
<!-- SyncFilesUc&#45;&gt;FilesModule -->
<g id="edge12" class="edge">
<title>SyncFilesUc&#45;&gt;FilesModule</title>
<path fill="none" stroke="black" d="M208,-85.08C208,-106.12 208,-137.8 208,-137.8 208,-137.8 1063.46,-137.8 1063.46,-137.8"/>
<polygon fill="black" stroke="black" points="1063.46,-141.3 1073.46,-137.8 1063.46,-134.3 1063.46,-141.3"/>
</g>
</g>
</svg>
