<?xml version="1.0" encoding="UTF-8" standalone="no"?>
<!DOCTYPE svg PUBLIC "-//W3C//DTD SVG 1.1//EN"
 "http://www.w3.org/Graphics/SVG/1.1/DTD/svg11.dtd">
<!-- Generated by graphviz version 3.0.0 (20220226.1711)
 -->
<!-- Title: dependencies Pages: 1 -->
<svg width="828pt" height="174pt"
 viewBox="0.00 0.00 828.00 173.80" xmlns="http://www.w3.org/2000/svg" xmlns:xlink="http://www.w3.org/1999/xlink">
<g id="graph0" class="graph" transform="scale(1 1) rotate(0) translate(4 169.8)">
<title>dependencies</title>
<polygon fill="white" stroke="transparent" points="-4,4 -4,-169.8 824,-169.8 824,4 -4,4"/>
<text text-anchor="middle" x="410" y="-8.2" font-family="sans-serif" font-size="14.00">dependencies</text>
<g id="clust1" class="cluster">
<title>cluster_FilesModule</title>
<polygon fill="none" stroke="black" stroke-dasharray="1,5" points="8,-32.8 8,-157.8 812,-157.8 812,-32.8 8,-32.8"/>
</g>
<g id="clust6" class="cluster">
<title>cluster_FilesModule_providers</title>
<polygon fill="none" stroke="black" points="140,-40.8 140,-92.8 804,-92.8 804,-40.8 140,-40.8"/>
</g>
<g id="clust3" class="cluster">
<title>cluster_FilesModule_imports</title>
<polygon fill="none" stroke="black" points="16,-40.8 16,-92.8 132,-92.8 132,-40.8 16,-40.8"/>
</g>
<!-- LoggerModule -->
<g id="node1" class="node">
<title>LoggerModule</title>
<polygon fill="#8dd3c7" stroke="black" points="123.98,-84.8 120.98,-88.8 99.98,-88.8 96.98,-84.8 24.02,-84.8 24.02,-48.8 123.98,-48.8 123.98,-84.8"/>
<text text-anchor="middle" x="74" y="-62.6" font-family="Times,serif" font-size="14.00">LoggerModule</text>
</g>
<!-- FilesModule -->
<g id="node2" class="node">
<title>FilesModule</title>
<polygon fill="#8dd3c7" stroke="black" points="447.28,-149.8 444.28,-153.8 423.28,-153.8 420.28,-149.8 360.72,-149.8 360.72,-113.8 447.28,-113.8 447.28,-149.8"/>
<text text-anchor="middle" x="404" y="-127.6" font-family="Times,serif" font-size="14.00">FilesModule</text>
</g>
<!-- LoggerModule&#45;&gt;FilesModule -->
<g id="edge1" class="edge">
<title>LoggerModule&#45;&gt;FilesModule</title>
<path fill="none" stroke="black" d="M74,-85.08C74,-106.12 74,-137.8 74,-137.8 74,-137.8 350.52,-137.8 350.52,-137.8"/>
<polygon fill="black" stroke="black" points="350.52,-141.3 360.52,-137.8 350.52,-134.3 350.52,-141.3"/>
</g>
<!-- DeleteFilesUc -->
<g id="node3" class="node">
<title>DeleteFilesUc</title>
<ellipse fill="#fdb462" stroke="black" cx="730" cy="-66.8" rx="66.05" ry="18"/>
<text text-anchor="middle" x="730" y="-62.6" font-family="Times,serif" font-size="14.00">DeleteFilesUc</text>
</g>
<!-- DeleteFilesUc&#45;&gt;FilesModule -->
<g id="edge2" class="edge">
<title>DeleteFilesUc&#45;&gt;FilesModule</title>
<path fill="none" stroke="black" d="M730,-85.08C730,-106.12 730,-137.8 730,-137.8 730,-137.8 457.29,-137.8 457.29,-137.8"/>
<polygon fill="black" stroke="black" points="457.29,-134.3 447.29,-137.8 457.29,-141.3 457.29,-134.3"/>
</g>
<!-- FileStorageAdapter -->
<g id="node4" class="node">
<title>FileStorageAdapter</title>
<ellipse fill="#fdb462" stroke="black" cx="559" cy="-66.8" rx="86.82" ry="18"/>
<text text-anchor="middle" x="559" y="-62.6" font-family="Times,serif" font-size="14.00">FileStorageAdapter</text>
</g>
<!-- FileStorageAdapter&#45;&gt;FilesModule -->
<g id="edge3" class="edge">
<title>FileStorageAdapter&#45;&gt;FilesModule</title>
<path fill="none" stroke="black" d="M559,-84.82C559,-102.17 559,-125.8 559,-125.8 559,-125.8 457.59,-125.8 457.59,-125.8"/>
<polygon fill="black" stroke="black" points="457.59,-122.3 447.59,-125.8 457.59,-129.3 457.59,-122.3"/>
</g>
<!-- FilesRepo -->
<g id="node5" class="node">
<title>FilesRepo</title>
<ellipse fill="#fdb462" stroke="black" cx="404" cy="-66.8" rx="50.4" ry="18"/>
<text text-anchor="middle" x="404" y="-62.6" font-family="Times,serif" font-size="14.00">FilesRepo</text>
</g>
<!-- FilesRepo&#45;&gt;FilesModule -->
<g id="edge4" class="edge">
<title>FilesRepo&#45;&gt;FilesModule</title>
<path fill="none" stroke="black" d="M404,-84.91C404,-84.91 404,-103.79 404,-103.79"/>
<polygon fill="black" stroke="black" points="400.5,-103.79 404,-113.79 407.5,-103.79 400.5,-103.79"/>
</g>
<!-- StorageProviderRepo -->
<g id="node6" class="node">
<title>StorageProviderRepo</title>
<ellipse fill="#fdb462" stroke="black" cx="242" cy="-66.8" rx="94.35" ry="18"/>
<text text-anchor="middle" x="242" y="-62.6" font-family="Times,serif" font-size="14.00">StorageProviderRepo</text>
</g>
<!-- StorageProviderRepo&#45;&gt;FilesModule -->
<g id="edge5" class="edge">
<title>StorageProviderRepo&#45;&gt;FilesModule</title>
<path fill="none" stroke="black" d="M242,-84.82C242,-102.17 242,-125.8 242,-125.8 242,-125.8 350.59,-125.8 350.59,-125.8"/>
<polygon fill="black" stroke="black" points="350.59,-129.3 360.59,-125.8 350.59,-122.3 350.59,-129.3"/>
</g>
</g>
</svg>
