<?xml version="1.0" encoding="UTF-8" standalone="no"?>
<!DOCTYPE svg PUBLIC "-//W3C//DTD SVG 1.1//EN"
 "http://www.w3.org/Graphics/SVG/1.1/DTD/svg11.dtd">
<!-- Generated by graphviz version 5.0.0 (20220707.1540)
 -->
<!-- Title: dependencies Pages: 1 -->
<svg width="2614pt" height="174pt"
 viewBox="0.00 0.00 2614.00 173.80" xmlns="http://www.w3.org/2000/svg" xmlns:xlink="http://www.w3.org/1999/xlink">
<g id="graph0" class="graph" transform="scale(1 1) rotate(0) translate(4 169.8)">
<title>dependencies</title>
<polygon fill="white" stroke="transparent" points="-4,4 -4,-169.8 2610,-169.8 2610,4 -4,4"/>
<text text-anchor="middle" x="1303" y="-8.2" font-family="sans-serif" font-size="14.00">dependencies</text>
<g id="clust1" class="cluster">
<title>cluster_FilesModule</title>
<polygon fill="none" stroke="black" stroke-dasharray="1,5" points="8,-32.8 8,-157.8 2598,-157.8 2598,-32.8 8,-32.8"/>
</g>
<g id="clust6" class="cluster">
<title>cluster_FilesModule_providers</title>
<polygon fill="none" stroke="black" points="140,-40.8 140,-92.8 2590,-92.8 2590,-40.8 140,-40.8"/>
</g>
<g id="clust3" class="cluster">
<title>cluster_FilesModule_imports</title>
<polygon fill="none" stroke="black" points="16,-40.8 16,-92.8 132,-92.8 132,-40.8 16,-40.8"/>
</g>
<!-- LoggerModule -->
<g id="node1" class="node">
<title>LoggerModule</title>
<polygon fill="#8dd3c7" stroke="black" points="123.98,-84.8 120.98,-88.8 99.98,-88.8 96.98,-84.8 24.02,-84.8 24.02,-48.8 123.98,-48.8 123.98,-84.8"/>
<text text-anchor="middle" x="74" y="-62.6" font-family="Times,serif" font-size="14.00">LoggerModule</text>
</g>
<!-- FilesModule -->
<g id="node2" class="node">
<title>FilesModule</title>
<polygon fill="#8dd3c7" stroke="black" points="1382.28,-149.8 1379.28,-153.8 1358.28,-153.8 1355.28,-149.8 1295.72,-149.8 1295.72,-113.8 1382.28,-113.8 1382.28,-149.8"/>
<text text-anchor="middle" x="1339" y="-127.6" font-family="Times,serif" font-size="14.00">FilesModule</text>
</g>
<!-- LoggerModule&#45;&gt;FilesModule -->
<g id="edge1" class="edge">
<title>LoggerModule&#45;&gt;FilesModule</title>
<path fill="none" stroke="black" d="M74,-84.89C74,-107.93 74,-144.8 74,-144.8 74,-144.8 1285.46,-144.8 1285.46,-144.8"/>
<polygon fill="black" stroke="black" points="1285.46,-148.3 1295.46,-144.8 1285.46,-141.3 1285.46,-148.3"/>
</g>
<!-- DeleteFilesUc -->
<g id="node3" class="node">
<title>DeleteFilesUc</title>
<ellipse fill="#fdb462" stroke="black" cx="2516" cy="-66.8" rx="66.05" ry="18"/>
<text text-anchor="middle" x="2516" y="-62.6" font-family="Times,serif" font-size="14.00">DeleteFilesUc</text>
</g>
<!-- DeleteFilesUc&#45;&gt;FilesModule -->
<g id="edge2" class="edge">
<title>DeleteFilesUc&#45;&gt;FilesModule</title>
<path fill="none" stroke="black" d="M2516,-84.89C2516,-107.93 2516,-144.8 2516,-144.8 2516,-144.8 1392.29,-144.8 1392.29,-144.8"/>
<polygon fill="black" stroke="black" points="1392.29,-141.3 1382.29,-144.8 1392.29,-148.3 1392.29,-141.3"/>
</g>
<!-- DeleteOrphanedFilesUc -->
<g id="node4" class="node">
<title>DeleteOrphanedFilesUc</title>
<ellipse fill="#fdb462" stroke="black" cx="2327" cy="-66.8" rx="104.2" ry="18"/>
<text text-anchor="middle" x="2327" y="-62.6" font-family="Times,serif" font-size="14.00">DeleteOrphanedFilesUc</text>
</g>
<!-- DeleteOrphanedFilesUc&#45;&gt;FilesModule -->
<g id="edge3" class="edge">
<title>DeleteOrphanedFilesUc&#45;&gt;FilesModule</title>
<path fill="none" stroke="black" d="M2327,-84.84C2327,-106.46 2327,-139.8 2327,-139.8 2327,-139.8 1392.41,-139.8 1392.41,-139.8"/>
<polygon fill="black" stroke="black" points="1392.41,-136.3 1382.41,-139.8 1392.41,-143.3 1392.41,-136.3"/>
</g>
<!-- EmbeddedFilesRepo -->
<g id="node5" class="node">
<title>EmbeddedFilesRepo</title>
<ellipse fill="#fdb462" stroke="black" cx="2113" cy="-66.8" rx="91.5" ry="18"/>
<text text-anchor="middle" x="2113" y="-62.6" font-family="Times,serif" font-size="14.00">EmbeddedFilesRepo</text>
</g>
<!-- EmbeddedFilesRepo&#45;&gt;FilesModule -->
<g id="edge4" class="edge">
<title>EmbeddedFilesRepo&#45;&gt;FilesModule</title>
<path fill="none" stroke="black" d="M2113,-85.02C2113,-105.17 2113,-134.8 2113,-134.8 2113,-134.8 1392.55,-134.8 1392.55,-134.8"/>
<polygon fill="black" stroke="black" points="1392.55,-131.3 1382.55,-134.8 1392.55,-138.3 1392.55,-131.3"/>
</g>
<!-- FileRecordRepo -->
<g id="node6" class="node">
<title>FileRecordRepo</title>
<ellipse fill="#fdb462" stroke="black" cx="1929" cy="-66.8" rx="74.16" ry="18"/>
<text text-anchor="middle" x="1929" y="-62.6" font-family="Times,serif" font-size="14.00">FileRecordRepo</text>
</g>
<!-- FileRecordRepo&#45;&gt;FilesModule -->
<g id="edge5" class="edge">
<title>FileRecordRepo&#45;&gt;FilesModule</title>
<path fill="none" stroke="black" d="M1929,-85.02C1929,-103.63 1929,-129.8 1929,-129.8 1929,-129.8 1392.38,-129.8 1392.38,-129.8"/>
<polygon fill="black" stroke="black" points="1392.38,-126.3 1382.38,-129.8 1392.38,-133.3 1392.38,-126.3"/>
</g>
<!-- FileStorageAdapter -->
<g id="node7" class="node">
<title>FileStorageAdapter</title>
<ellipse fill="#fdb462" stroke="black" cx="1750" cy="-66.8" rx="86.82" ry="18"/>
<text text-anchor="middle" x="1750" y="-62.6" font-family="Times,serif" font-size="14.00">FileStorageAdapter</text>
</g>
<!-- FileStorageAdapter&#45;&gt;FilesModule -->
<g id="edge6" class="edge">
<title>FileStorageAdapter&#45;&gt;FilesModule</title>
<path fill="none" stroke="black" d="M1750,-84.83C1750,-101.86 1750,-124.8 1750,-124.8 1750,-124.8 1392.6,-124.8 1392.6,-124.8"/>
<polygon fill="black" stroke="black" points="1392.6,-121.3 1382.6,-124.8 1392.6,-128.3 1392.6,-121.3"/>
</g>
<!-- FilesRepo -->
<g id="node8" class="node">
<title>FilesRepo</title>
<ellipse fill="#fdb462" stroke="black" cx="1595" cy="-66.8" rx="50.4" ry="18"/>
<text text-anchor="middle" x="1595" y="-62.6" font-family="Times,serif" font-size="14.00">FilesRepo</text>
</g>
<!-- FilesRepo&#45;&gt;FilesModule -->
<g id="edge7" class="edge">
<title>FilesRepo&#45;&gt;FilesModule</title>
<path fill="none" stroke="black" d="M1595,-85.04C1595,-100.37 1595,-119.8 1595,-119.8 1595,-119.8 1392.43,-119.8 1392.43,-119.8"/>
<polygon fill="black" stroke="black" points="1392.43,-116.3 1382.43,-119.8 1392.43,-123.3 1392.43,-116.3"/>
</g>
<!-- OrphanedFilesRepo -->
<g id="node9" class="node">
<title>OrphanedFilesRepo</title>
<ellipse fill="#fdb462" stroke="black" cx="1439" cy="-66.8" rx="88.06" ry="18"/>
<text text-anchor="middle" x="1439" y="-62.6" font-family="Times,serif" font-size="14.00">OrphanedFilesRepo</text>
</g>
<!-- OrphanedFilesRepo&#45;&gt;FilesModule -->
<g id="edge8" class="edge">
<title>OrphanedFilesRepo&#45;&gt;FilesModule</title>
<path fill="none" stroke="black" d="M1366.56,-77.24C1366.56,-77.24 1366.56,-103.77 1366.56,-103.77"/>
<polygon fill="black" stroke="black" points="1363.06,-103.77 1366.56,-113.77 1370.06,-103.77 1363.06,-103.77"/>
</g>
<!-- StorageProviderRepo -->
<g id="node10" class="node">
<title>StorageProviderRepo</title>
<ellipse fill="#fdb462" stroke="black" cx="1239" cy="-66.8" rx="94.35" ry="18"/>
<text text-anchor="middle" x="1239" y="-62.6" font-family="Times,serif" font-size="14.00">StorageProviderRepo</text>
</g>
<!-- StorageProviderRepo&#45;&gt;FilesModule -->
<g id="edge9" class="edge">
<title>StorageProviderRepo&#45;&gt;FilesModule</title>
<path fill="none" stroke="black" d="M1314.39,-77.83C1314.39,-77.83 1314.39,-103.58 1314.39,-103.58"/>
<polygon fill="black" stroke="black" points="1310.89,-103.58 1314.39,-113.58 1317.89,-103.58 1310.89,-103.58"/>
</g>
<!-- SyncEmbeddedFilesUc -->
<g id="node11" class="node">
<title>SyncEmbeddedFilesUc</title>
<ellipse fill="#fdb462" stroke="black" cx="1025" cy="-66.8" rx="101.88" ry="18"/>
<text text-anchor="middle" x="1025" y="-62.6" font-family="Times,serif" font-size="14.00">SyncEmbeddedFilesUc</text>
</g>
<!-- SyncEmbeddedFilesUc&#45;&gt;FilesModule -->
<g id="edge10" class="edge">
<title>SyncEmbeddedFilesUc&#45;&gt;FilesModule</title>
<path fill="none" stroke="black" d="M1025,-85.04C1025,-100.37 1025,-119.8 1025,-119.8 1025,-119.8 1285.67,-119.8 1285.67,-119.8"/>
<polygon fill="black" stroke="black" points="1285.67,-123.3 1295.67,-119.8 1285.67,-116.3 1285.67,-123.3"/>
</g>
<!-- SyncFilesMetadataService -->
<g id="node12" class="node">
<title>SyncFilesMetadataService</title>
<ellipse fill="#fdb462" stroke="black" cx="791" cy="-66.8" rx="114.03" ry="18"/>
<text text-anchor="middle" x="791" y="-62.6" font-family="Times,serif" font-size="14.00">SyncFilesMetadataService</text>
</g>
<!-- SyncFilesMetadataService&#45;&gt;FilesModule -->
<g id="edge11" class="edge">
<title>SyncFilesMetadataService&#45;&gt;FilesModule</title>
<path fill="none" stroke="black" d="M791,-84.83C791,-101.86 791,-124.8 791,-124.8 791,-124.8 1285.54,-124.8 1285.54,-124.8"/>
<polygon fill="black" stroke="black" points="1285.54,-128.3 1295.54,-124.8 1285.54,-121.3 1285.54,-128.3"/>
</g>
<!-- SyncFilesRepo -->
<g id="node13" class="node">
<title>SyncFilesRepo</title>
<ellipse fill="#fdb462" stroke="black" cx="589" cy="-66.8" rx="69.53" ry="18"/>
<text text-anchor="middle" x="589" y="-62.6" font-family="Times,serif" font-size="14.00">SyncFilesRepo</text>
</g>
<!-- SyncFilesRepo&#45;&gt;FilesModule -->
<g id="edge12" class="edge">
<title>SyncFilesRepo&#45;&gt;FilesModule</title>
<path fill="none" stroke="black" d="M589,-85.02C589,-103.63 589,-129.8 589,-129.8 589,-129.8 1285.71,-129.8 1285.71,-129.8"/>
<polygon fill="black" stroke="black" points="1285.71,-133.3 1295.71,-129.8 1285.71,-126.3 1285.71,-133.3"/>
</g>
<!-- SyncFilesStorageService -->
<g id="node14" class="node">
<title>SyncFilesStorageService</title>
<ellipse fill="#fdb462" stroke="black" cx="394" cy="-66.8" rx="107.67" ry="18"/>
<text text-anchor="middle" x="394" y="-62.6" font-family="Times,serif" font-size="14.00">SyncFilesStorageService</text>
</g>
<!-- SyncFilesStorageService&#45;&gt;FilesModule -->
<g id="edge13" class="edge">
<title>SyncFilesStorageService&#45;&gt;FilesModule</title>
<path fill="none" stroke="black" d="M394,-85.02C394,-105.17 394,-134.8 394,-134.8 394,-134.8 1285.63,-134.8 1285.63,-134.8"/>
<polygon fill="black" stroke="black" points="1285.63,-138.3 1295.63,-134.8 1285.63,-131.3 1285.63,-138.3"/>
</g>
<!-- SyncFilesUc -->
<g id="node15" class="node">
<title>SyncFilesUc</title>
<ellipse fill="#fdb462" stroke="black" cx="208" cy="-66.8" rx="60.28" ry="18"/>
<text text-anchor="middle" x="208" y="-62.6" font-family="Times,serif" font-size="14.00">SyncFilesUc</text>
</g>
<!-- SyncFilesUc&#45;&gt;FilesModule -->
<g id="edge14" class="edge">
<title>SyncFilesUc&#45;&gt;FilesModule</title>
<path fill="none" stroke="black" d="M208,-84.84C208,-106.46 208,-139.8 208,-139.8 208,-139.8 1285.7,-139.8 1285.7,-139.8"/>
<polygon fill="black" stroke="black" points="1285.7,-143.3 1295.7,-139.8 1285.7,-136.3 1285.7,-143.3"/>
</g>
</g>
</svg>
