<?xml version="1.0" encoding="UTF-8" standalone="no"?>
<!DOCTYPE svg PUBLIC "-//W3C//DTD SVG 1.1//EN"
 "http://www.w3.org/Graphics/SVG/1.1/DTD/svg11.dtd">
<!-- Generated by graphviz version 5.0.0 (20220707.1540)
 -->
<!-- Title: dependencies Pages: 1 -->
<svg width="2614pt" height="174pt"
 viewBox="0.00 0.00 2614.00 173.80" xmlns="http://www.w3.org/2000/svg" xmlns:xlink="http://www.w3.org/1999/xlink">
<g id="graph0" class="graph" transform="scale(1 1) rotate(0) translate(4 169.8)">
<title>dependencies</title>
<polygon fill="white" stroke="transparent" points="-4,4 -4,-169.8 2610,-169.8 2610,4 -4,4"/>
<text text-anchor="middle" x="1303" y="-8.2" font-family="sans-serif" font-size="14.00">dependencies</text>
<g id="clust1" class="cluster">
<title>cluster_FilesModule</title>
<polygon fill="none" stroke="black" stroke-dasharray="1,5" points="8,-32.8 8,-157.8 2598,-157.8 2598,-32.8 8,-32.8"/>
</g>
<g id="clust3" class="cluster">
<title>cluster_FilesModule_imports</title>
<polygon fill="none" stroke="black" points="2474,-40.8 2474,-92.8 2590,-92.8 2590,-40.8 2474,-40.8"/>
</g>
<g id="clust6" class="cluster">
<title>cluster_FilesModule_providers</title>
<polygon fill="none" stroke="black" points="16,-40.8 16,-92.8 2466,-92.8 2466,-40.8 16,-40.8"/>
</g>
<!-- LoggerModule -->
<g id="node1" class="node">
<title>LoggerModule</title>
<polygon fill="#8dd3c7" stroke="black" points="2581.98,-84.8 2578.98,-88.8 2557.98,-88.8 2554.98,-84.8 2482.02,-84.8 2482.02,-48.8 2581.98,-48.8 2581.98,-84.8"/>
<text text-anchor="middle" x="2532" y="-62.6" font-family="Times,serif" font-size="14.00">LoggerModule</text>
</g>
<!-- FilesModule -->
<g id="node2" class="node">
<title>FilesModule</title>
<polygon fill="#8dd3c7" stroke="black" points="1436.28,-149.8 1433.28,-153.8 1412.28,-153.8 1409.28,-149.8 1349.72,-149.8 1349.72,-113.8 1436.28,-113.8 1436.28,-149.8"/>
<text text-anchor="middle" x="1393" y="-127.6" font-family="Times,serif" font-size="14.00">FilesModule</text>
</g>
<!-- LoggerModule&#45;&gt;FilesModule -->
<g id="edge1" class="edge">
<title>LoggerModule&#45;&gt;FilesModule</title>
<path fill="none" stroke="black" d="M2532,-84.89C2532,-107.93 2532,-144.8 2532,-144.8 2532,-144.8 1446.61,-144.8 1446.61,-144.8"/>
<polygon fill="black" stroke="black" points="1446.61,-141.3 1436.61,-144.8 1446.61,-148.3 1446.61,-141.3"/>
</g>
<!-- DeleteFilesUc -->
<g id="node3" class="node">
<title>DeleteFilesUc</title>
<ellipse fill="#fdb462" stroke="black" cx="2392" cy="-66.8" rx="66.05" ry="18"/>
<text text-anchor="middle" x="2392" y="-62.6" font-family="Times,serif" font-size="14.00">DeleteFilesUc</text>
</g>
<!-- DeleteFilesUc&#45;&gt;FilesModule -->
<g id="edge2" class="edge">
<title>DeleteFilesUc&#45;&gt;FilesModule</title>
<path fill="none" stroke="black" d="M2392,-84.84C2392,-106.46 2392,-139.8 2392,-139.8 2392,-139.8 1446.57,-139.8 1446.57,-139.8"/>
<polygon fill="black" stroke="black" points="1446.57,-136.3 1436.57,-139.8 1446.57,-143.3 1446.57,-136.3"/>
</g>
<!-- DeleteOrphanedFilesUc -->
<g id="node4" class="node">
<title>DeleteOrphanedFilesUc</title>
<ellipse fill="#fdb462" stroke="black" cx="2203" cy="-66.8" rx="104.2" ry="18"/>
<text text-anchor="middle" x="2203" y="-62.6" font-family="Times,serif" font-size="14.00">DeleteOrphanedFilesUc</text>
</g>
<!-- DeleteOrphanedFilesUc&#45;&gt;FilesModule -->
<g id="edge3" class="edge">
<title>DeleteOrphanedFilesUc&#45;&gt;FilesModule</title>
<path fill="none" stroke="black" d="M2203,-85.02C2203,-105.17 2203,-134.8 2203,-134.8 2203,-134.8 1446.55,-134.8 1446.55,-134.8"/>
<polygon fill="black" stroke="black" points="1446.55,-131.3 1436.55,-134.8 1446.55,-138.3 1446.55,-131.3"/>
</g>
<!-- EmbeddedFilesRepo -->
<g id="node5" class="node">
<title>EmbeddedFilesRepo</title>
<ellipse fill="#fdb462" stroke="black" cx="1989" cy="-66.8" rx="91.5" ry="18"/>
<text text-anchor="middle" x="1989" y="-62.6" font-family="Times,serif" font-size="14.00">EmbeddedFilesRepo</text>
</g>
<!-- EmbeddedFilesRepo&#45;&gt;FilesModule -->
<g id="edge4" class="edge">
<title>EmbeddedFilesRepo&#45;&gt;FilesModule</title>
<path fill="none" stroke="black" d="M1989,-85.02C1989,-103.63 1989,-129.8 1989,-129.8 1989,-129.8 1446.34,-129.8 1446.34,-129.8"/>
<polygon fill="black" stroke="black" points="1446.34,-126.3 1436.34,-129.8 1446.34,-133.3 1446.34,-126.3"/>
</g>
<!-- FileRecordRepo -->
<g id="node6" class="node">
<title>FileRecordRepo</title>
<ellipse fill="#fdb462" stroke="black" cx="1805" cy="-66.8" rx="74.16" ry="18"/>
<text text-anchor="middle" x="1805" y="-62.6" font-family="Times,serif" font-size="14.00">FileRecordRepo</text>
</g>
<!-- FileRecordRepo&#45;&gt;FilesModule -->
<g id="edge5" class="edge">
<title>FileRecordRepo&#45;&gt;FilesModule</title>
<path fill="none" stroke="black" d="M1805,-84.83C1805,-101.86 1805,-124.8 1805,-124.8 1805,-124.8 1446.31,-124.8 1446.31,-124.8"/>
<polygon fill="black" stroke="black" points="1446.31,-121.3 1436.31,-124.8 1446.31,-128.3 1446.31,-121.3"/>
</g>
<!-- FileStorageAdapter -->
<g id="node7" class="node">
<title>FileStorageAdapter</title>
<ellipse fill="#fdb462" stroke="black" cx="1626" cy="-66.8" rx="86.82" ry="18"/>
<text text-anchor="middle" x="1626" y="-62.6" font-family="Times,serif" font-size="14.00">FileStorageAdapter</text>
</g>
<!-- FileStorageAdapter&#45;&gt;FilesModule -->
<g id="edge6" class="edge">
<title>FileStorageAdapter&#45;&gt;FilesModule</title>
<path fill="none" stroke="black" d="M1626,-85.04C1626,-100.37 1626,-119.8 1626,-119.8 1626,-119.8 1446.55,-119.8 1446.55,-119.8"/>
<polygon fill="black" stroke="black" points="1446.55,-116.3 1436.55,-119.8 1446.55,-123.3 1446.55,-116.3"/>
</g>
<!-- FilesRepo -->
<g id="node8" class="node">
<title>FilesRepo</title>
<ellipse fill="#fdb462" stroke="black" cx="1471" cy="-66.8" rx="50.4" ry="18"/>
<text text-anchor="middle" x="1471" y="-62.6" font-family="Times,serif" font-size="14.00">FilesRepo</text>
</g>
<!-- FilesRepo&#45;&gt;FilesModule -->
<g id="edge7" class="edge">
<title>FilesRepo&#45;&gt;FilesModule</title>
<path fill="none" stroke="black" d="M1428.59,-76.67C1428.59,-76.67 1428.59,-103.71 1428.59,-103.71"/>
<polygon fill="black" stroke="black" points="1425.09,-103.71 1428.59,-113.71 1432.09,-103.71 1425.09,-103.71"/>
</g>
<!-- OrphanedFilesRepo -->
<g id="node9" class="node">
<title>OrphanedFilesRepo</title>
<ellipse fill="#fdb462" stroke="black" cx="1315" cy="-66.8" rx="88.06" ry="18"/>
<text text-anchor="middle" x="1315" y="-62.6" font-family="Times,serif" font-size="14.00">OrphanedFilesRepo</text>
</g>
<!-- OrphanedFilesRepo&#45;&gt;FilesModule -->
<g id="edge8" class="edge">
<title>OrphanedFilesRepo&#45;&gt;FilesModule</title>
<path fill="none" stroke="black" d="M1376.44,-79.95C1376.44,-79.95 1376.44,-103.49 1376.44,-103.49"/>
<polygon fill="black" stroke="black" points="1372.94,-103.49 1376.44,-113.49 1379.94,-103.49 1372.94,-103.49"/>
</g>
<!-- StorageProviderRepo -->
<g id="node10" class="node">
<title>StorageProviderRepo</title>
<ellipse fill="#fdb462" stroke="black" cx="1115" cy="-66.8" rx="94.35" ry="18"/>
<text text-anchor="middle" x="1115" y="-62.6" font-family="Times,serif" font-size="14.00">StorageProviderRepo</text>
</g>
<!-- StorageProviderRepo&#45;&gt;FilesModule -->
<g id="edge9" class="edge">
<title>StorageProviderRepo&#45;&gt;FilesModule</title>
<path fill="none" stroke="black" d="M1115,-85.04C1115,-100.37 1115,-119.8 1115,-119.8 1115,-119.8 1339.56,-119.8 1339.56,-119.8"/>
<polygon fill="black" stroke="black" points="1339.56,-123.3 1349.56,-119.8 1339.56,-116.3 1339.56,-123.3"/>
</g>
<!-- SyncEmbeddedFilesUc -->
<g id="node11" class="node">
<title>SyncEmbeddedFilesUc</title>
<ellipse fill="#fdb462" stroke="black" cx="901" cy="-66.8" rx="101.88" ry="18"/>
<text text-anchor="middle" x="901" y="-62.6" font-family="Times,serif" font-size="14.00">SyncEmbeddedFilesUc</text>
</g>
<!-- SyncEmbeddedFilesUc&#45;&gt;FilesModule -->
<g id="edge10" class="edge">
<title>SyncEmbeddedFilesUc&#45;&gt;FilesModule</title>
<path fill="none" stroke="black" d="M901,-84.83C901,-101.86 901,-124.8 901,-124.8 901,-124.8 1339.34,-124.8 1339.34,-124.8"/>
<polygon fill="black" stroke="black" points="1339.34,-128.3 1349.34,-124.8 1339.34,-121.3 1339.34,-128.3"/>
</g>
<!-- SyncFilesMetadataService -->
<g id="node12" class="node">
<title>SyncFilesMetadataService</title>
<ellipse fill="#fdb462" stroke="black" cx="667" cy="-66.8" rx="114.03" ry="18"/>
<text text-anchor="middle" x="667" y="-62.6" font-family="Times,serif" font-size="14.00">SyncFilesMetadataService</text>
</g>
<!-- SyncFilesMetadataService&#45;&gt;FilesModule -->
<g id="edge11" class="edge">
<title>SyncFilesMetadataService&#45;&gt;FilesModule</title>
<path fill="none" stroke="black" d="M667,-85.02C667,-103.63 667,-129.8 667,-129.8 667,-129.8 1339.49,-129.8 1339.49,-129.8"/>
<polygon fill="black" stroke="black" points="1339.49,-133.3 1349.49,-129.8 1339.49,-126.3 1339.49,-133.3"/>
</g>
<!-- SyncFilesRepo -->
<g id="node13" class="node">
<title>SyncFilesRepo</title>
<ellipse fill="#fdb462" stroke="black" cx="465" cy="-66.8" rx="69.53" ry="18"/>
<text text-anchor="middle" x="465" y="-62.6" font-family="Times,serif" font-size="14.00">SyncFilesRepo</text>
</g>
<!-- SyncFilesRepo&#45;&gt;FilesModule -->
<g id="edge12" class="edge">
<title>SyncFilesRepo&#45;&gt;FilesModule</title>
<path fill="none" stroke="black" d="M465,-85.02C465,-105.17 465,-134.8 465,-134.8 465,-134.8 1339.49,-134.8 1339.49,-134.8"/>
<polygon fill="black" stroke="black" points="1339.49,-138.3 1349.49,-134.8 1339.49,-131.3 1339.49,-138.3"/>
</g>
<!-- SyncFilesStorageService -->
<g id="node14" class="node">
<title>SyncFilesStorageService</title>
<ellipse fill="#fdb462" stroke="black" cx="270" cy="-66.8" rx="107.67" ry="18"/>
<text text-anchor="middle" x="270" y="-62.6" font-family="Times,serif" font-size="14.00">SyncFilesStorageService</text>
</g>
<!-- SyncFilesStorageService&#45;&gt;FilesModule -->
<g id="edge13" class="edge">
<title>SyncFilesStorageService&#45;&gt;FilesModule</title>
<path fill="none" stroke="black" d="M270,-84.84C270,-106.46 270,-139.8 270,-139.8 270,-139.8 1339.67,-139.8 1339.67,-139.8"/>
<polygon fill="black" stroke="black" points="1339.67,-143.3 1349.67,-139.8 1339.67,-136.3 1339.67,-143.3"/>
</g>
<!-- SyncFilesUc -->
<g id="node15" class="node">
<title>SyncFilesUc</title>
<ellipse fill="#fdb462" stroke="black" cx="84" cy="-66.8" rx="60.28" ry="18"/>
<text text-anchor="middle" x="84" y="-62.6" font-family="Times,serif" font-size="14.00">SyncFilesUc</text>
</g>
<!-- SyncFilesUc&#45;&gt;FilesModule -->
<g id="edge14" class="edge">
<title>SyncFilesUc&#45;&gt;FilesModule</title>
<path fill="none" stroke="black" d="M84,-84.89C84,-107.93 84,-144.8 84,-144.8 84,-144.8 1339.45,-144.8 1339.45,-144.8"/>
<polygon fill="black" stroke="black" points="1339.45,-148.3 1349.45,-144.8 1339.45,-141.3 1339.45,-148.3"/>
</g>
</g>
</svg>
