<?xml version="1.0" encoding="UTF-8" standalone="no"?>
<!DOCTYPE svg PUBLIC "-//W3C//DTD SVG 1.1//EN"
 "http://www.w3.org/Graphics/SVG/1.1/DTD/svg11.dtd">
<!-- Generated by graphviz version 5.0.0 (20220707.1540)
 -->
<!-- Title: dependencies Pages: 1 -->
<svg width="2191pt" height="174pt"
 viewBox="0.00 0.00 2191.00 173.80" xmlns="http://www.w3.org/2000/svg" xmlns:xlink="http://www.w3.org/1999/xlink">
<g id="graph0" class="graph" transform="scale(1 1) rotate(0) translate(4 169.8)">
<title>dependencies</title>
<polygon fill="white" stroke="transparent" points="-4,4 -4,-169.8 2187,-169.8 2187,4 -4,4"/>
<text text-anchor="middle" x="1091.5" y="-8.2" font-family="sans-serif" font-size="14.00">dependencies</text>
<g id="clust1" class="cluster">
<title>cluster_FilesModule</title>
<polygon fill="none" stroke="black" stroke-dasharray="1,5" points="8,-32.8 8,-157.8 2175,-157.8 2175,-32.8 8,-32.8"/>
</g>
<g id="clust3" class="cluster">
<title>cluster_FilesModule_imports</title>
<polygon fill="none" stroke="black" points="2051,-40.8 2051,-92.8 2167,-92.8 2167,-40.8 2051,-40.8"/>
</g>
<g id="clust6" class="cluster">
<title>cluster_FilesModule_providers</title>
<polygon fill="none" stroke="black" points="16,-40.8 16,-92.8 2043,-92.8 2043,-40.8 16,-40.8"/>
</g>
<!-- LoggerModule -->
<g id="node1" class="node">
<title>LoggerModule</title>
<polygon fill="#8dd3c7" stroke="black" points="2158.98,-84.8 2155.98,-88.8 2134.98,-88.8 2131.98,-84.8 2059.02,-84.8 2059.02,-48.8 2158.98,-48.8 2158.98,-84.8"/>
<text text-anchor="middle" x="2109" y="-62.6" font-family="Times,serif" font-size="14.00">LoggerModule</text>
</g>
<!-- FilesModule -->
<g id="node2" class="node">
<title>FilesModule</title>
<polygon fill="#8dd3c7" stroke="black" points="1214.28,-149.8 1211.28,-153.8 1190.28,-153.8 1187.28,-149.8 1127.72,-149.8 1127.72,-113.8 1214.28,-113.8 1214.28,-149.8"/>
<text text-anchor="middle" x="1171" y="-127.6" font-family="Times,serif" font-size="14.00">FilesModule</text>
</g>
<!-- LoggerModule&#45;&gt;FilesModule -->
<g id="edge1" class="edge">
<title>LoggerModule&#45;&gt;FilesModule</title>
<path fill="none" stroke="black" d="M2109,-84.89C2109,-107.93 2109,-144.8 2109,-144.8 2109,-144.8 1224.36,-144.8 1224.36,-144.8"/>
<polygon fill="black" stroke="black" points="1224.36,-141.3 1214.36,-144.8 1224.36,-148.3 1224.36,-141.3"/>
</g>
<!-- DeleteFilesUc -->
<g id="node3" class="node">
<title>DeleteFilesUc</title>
<ellipse fill="#fdb462" stroke="black" cx="1969" cy="-66.8" rx="66.05" ry="18"/>
<text text-anchor="middle" x="1969" y="-62.6" font-family="Times,serif" font-size="14.00">DeleteFilesUc</text>
</g>
<!-- DeleteFilesUc&#45;&gt;FilesModule -->
<g id="edge2" class="edge">
<title>DeleteFilesUc&#45;&gt;FilesModule</title>
<path fill="none" stroke="black" d="M1969,-85.08C1969,-106.12 1969,-137.8 1969,-137.8 1969,-137.8 1224.47,-137.8 1224.47,-137.8"/>
<polygon fill="black" stroke="black" points="1224.47,-134.3 1214.47,-137.8 1224.47,-141.3 1224.47,-134.3"/>
</g>
<!-- DeleteOrphanedFilesUc -->
<g id="node4" class="node">
<title>DeleteOrphanedFilesUc</title>
<ellipse fill="#fdb462" stroke="black" cx="1780" cy="-66.8" rx="104.2" ry="18"/>
<text text-anchor="middle" x="1780" y="-62.6" font-family="Times,serif" font-size="14.00">DeleteOrphanedFilesUc</text>
</g>
<!-- DeleteOrphanedFilesUc&#45;&gt;FilesModule -->
<g id="edge3" class="edge">
<title>DeleteOrphanedFilesUc&#45;&gt;FilesModule</title>
<path fill="none" stroke="black" d="M1780,-84.91C1780,-104.14 1780,-131.8 1780,-131.8 1780,-131.8 1224.31,-131.8 1224.31,-131.8"/>
<polygon fill="black" stroke="black" points="1224.31,-128.3 1214.31,-131.8 1224.31,-135.3 1224.31,-128.3"/>
</g>
<!-- FileRecordRepo -->
<g id="node5" class="node">
<title>FileRecordRepo</title>
<ellipse fill="#fdb462" stroke="black" cx="1583" cy="-66.8" rx="74.16" ry="18"/>
<text text-anchor="middle" x="1583" y="-62.6" font-family="Times,serif" font-size="14.00">FileRecordRepo</text>
</g>
<!-- FileRecordRepo&#45;&gt;FilesModule -->
<g id="edge4" class="edge">
<title>FileRecordRepo&#45;&gt;FilesModule</title>
<path fill="none" stroke="black" d="M1583,-84.82C1583,-102.17 1583,-125.8 1583,-125.8 1583,-125.8 1224.31,-125.8 1224.31,-125.8"/>
<polygon fill="black" stroke="black" points="1224.31,-122.3 1214.31,-125.8 1224.31,-129.3 1224.31,-122.3"/>
</g>
<!-- FileStorageAdapter -->
<g id="node6" class="node">
<title>FileStorageAdapter</title>
<ellipse fill="#fdb462" stroke="black" cx="1404" cy="-66.8" rx="86.82" ry="18"/>
<text text-anchor="middle" x="1404" y="-62.6" font-family="Times,serif" font-size="14.00">FileStorageAdapter</text>
</g>
<!-- FileStorageAdapter&#45;&gt;FilesModule -->
<g id="edge5" class="edge">
<title>FileStorageAdapter&#45;&gt;FilesModule</title>
<path fill="none" stroke="black" d="M1404,-85.04C1404,-100.37 1404,-119.8 1404,-119.8 1404,-119.8 1224.55,-119.8 1224.55,-119.8"/>
<polygon fill="black" stroke="black" points="1224.55,-116.3 1214.55,-119.8 1224.55,-123.3 1224.55,-116.3"/>
</g>
<!-- FilesRepo -->
<g id="node7" class="node">
<title>FilesRepo</title>
<ellipse fill="#fdb462" stroke="black" cx="1249" cy="-66.8" rx="50.4" ry="18"/>
<text text-anchor="middle" x="1249" y="-62.6" font-family="Times,serif" font-size="14.00">FilesRepo</text>
</g>
<!-- FilesRepo&#45;&gt;FilesModule -->
<g id="edge6" class="edge">
<title>FilesRepo&#45;&gt;FilesModule</title>
<path fill="none" stroke="black" d="M1206.59,-76.67C1206.59,-76.67 1206.59,-103.71 1206.59,-103.71"/>
<polygon fill="black" stroke="black" points="1203.09,-103.71 1206.59,-113.71 1210.09,-103.71 1203.09,-103.71"/>
</g>
<!-- OrphanedFilesRepo -->
<g id="node8" class="node">
<title>OrphanedFilesRepo</title>
<ellipse fill="#fdb462" stroke="black" cx="1093" cy="-66.8" rx="88.06" ry="18"/>
<text text-anchor="middle" x="1093" y="-62.6" font-family="Times,serif" font-size="14.00">OrphanedFilesRepo</text>
</g>
<!-- OrphanedFilesRepo&#45;&gt;FilesModule -->
<g id="edge7" class="edge">
<title>OrphanedFilesRepo&#45;&gt;FilesModule</title>
<path fill="none" stroke="black" d="M1154.44,-79.95C1154.44,-79.95 1154.44,-103.49 1154.44,-103.49"/>
<polygon fill="black" stroke="black" points="1150.94,-103.49 1154.44,-113.49 1157.94,-103.49 1150.94,-103.49"/>
</g>
<!-- StorageProviderRepo -->
<g id="node9" class="node">
<title>StorageProviderRepo</title>
<ellipse fill="#fdb462" stroke="black" cx="893" cy="-66.8" rx="94.35" ry="18"/>
<text text-anchor="middle" x="893" y="-62.6" font-family="Times,serif" font-size="14.00">StorageProviderRepo</text>
</g>
<!-- StorageProviderRepo&#45;&gt;FilesModule -->
<g id="edge8" class="edge">
<title>StorageProviderRepo&#45;&gt;FilesModule</title>
<path fill="none" stroke="black" d="M893,-85.04C893,-100.37 893,-119.8 893,-119.8 893,-119.8 1117.56,-119.8 1117.56,-119.8"/>
<polygon fill="black" stroke="black" points="1117.56,-123.3 1127.56,-119.8 1117.56,-116.3 1117.56,-123.3"/>
</g>
<!-- SyncFilesMetadataService -->
<g id="node10" class="node">
<title>SyncFilesMetadataService</title>
<ellipse fill="#fdb462" stroke="black" cx="667" cy="-66.8" rx="114.03" ry="18"/>
<text text-anchor="middle" x="667" y="-62.6" font-family="Times,serif" font-size="14.00">SyncFilesMetadataService</text>
</g>
<!-- SyncFilesMetadataService&#45;&gt;FilesModule -->
<g id="edge9" class="edge">
<title>SyncFilesMetadataService&#45;&gt;FilesModule</title>
<path fill="none" stroke="black" d="M667,-84.82C667,-102.17 667,-125.8 667,-125.8 667,-125.8 1117.59,-125.8 1117.59,-125.8"/>
<polygon fill="black" stroke="black" points="1117.59,-129.3 1127.59,-125.8 1117.59,-122.3 1117.59,-129.3"/>
</g>
<!-- SyncFilesRepo -->
<g id="node11" class="node">
<title>SyncFilesRepo</title>
<ellipse fill="#fdb462" stroke="black" cx="465" cy="-66.8" rx="69.53" ry="18"/>
<text text-anchor="middle" x="465" y="-62.6" font-family="Times,serif" font-size="14.00">SyncFilesRepo</text>
</g>
<!-- SyncFilesRepo&#45;&gt;FilesModule -->
<g id="edge10" class="edge">
<title>SyncFilesRepo&#45;&gt;FilesModule</title>
<path fill="none" stroke="black" d="M465,-84.91C465,-104.14 465,-131.8 465,-131.8 465,-131.8 1117.63,-131.8 1117.63,-131.8"/>
<polygon fill="black" stroke="black" points="1117.63,-135.3 1127.63,-131.8 1117.63,-128.3 1117.63,-135.3"/>
</g>
<!-- SyncFilesStorageService -->
<g id="node12" class="node">
<title>SyncFilesStorageService</title>
<ellipse fill="#fdb462" stroke="black" cx="270" cy="-66.8" rx="107.67" ry="18"/>
<text text-anchor="middle" x="270" y="-62.6" font-family="Times,serif" font-size="14.00">SyncFilesStorageService</text>
</g>
<!-- SyncFilesStorageService&#45;&gt;FilesModule -->
<g id="edge11" class="edge">
<title>SyncFilesStorageService&#45;&gt;FilesModule</title>
<path fill="none" stroke="black" d="M270,-85.08C270,-106.12 270,-137.8 270,-137.8 270,-137.8 1117.54,-137.8 1117.54,-137.8"/>
<polygon fill="black" stroke="black" points="1117.54,-141.3 1127.54,-137.8 1117.54,-134.3 1117.54,-141.3"/>
</g>
<!-- SyncFilesUc -->
<g id="node13" class="node">
<title>SyncFilesUc</title>
<ellipse fill="#fdb462" stroke="black" cx="84" cy="-66.8" rx="60.28" ry="18"/>
<text text-anchor="middle" x="84" y="-62.6" font-family="Times,serif" font-size="14.00">SyncFilesUc</text>
</g>
<!-- SyncFilesUc&#45;&gt;FilesModule -->
<g id="edge12" class="edge">
<title>SyncFilesUc&#45;&gt;FilesModule</title>
<path fill="none" stroke="black" d="M84,-84.89C84,-107.93 84,-144.8 84,-144.8 84,-144.8 1117.72,-144.8 1117.72,-144.8"/>
<polygon fill="black" stroke="black" points="1117.72,-148.3 1127.72,-144.8 1117.72,-141.3 1117.72,-148.3"/>
</g>
</g>
</svg>
