<?xml version="1.0" encoding="UTF-8" standalone="no"?>
<!DOCTYPE svg PUBLIC "-//W3C//DTD SVG 1.1//EN"
 "http://www.w3.org/Graphics/SVG/1.1/DTD/svg11.dtd">
<!-- Generated by graphviz version 3.0.0 (20220226.1711)
 -->
<!-- Title: dependencies Pages: 1 -->
<svg width="1770pt" height="174pt"
 viewBox="0.00 0.00 1770.00 173.80" xmlns="http://www.w3.org/2000/svg" xmlns:xlink="http://www.w3.org/1999/xlink">
<g id="graph0" class="graph" transform="scale(1 1) rotate(0) translate(4 169.8)">
<title>dependencies</title>
<polygon fill="white" stroke="transparent" points="-4,4 -4,-169.8 1766,-169.8 1766,4 -4,4"/>
<text text-anchor="middle" x="881" y="-8.2" font-family="sans-serif" font-size="14.00">dependencies</text>
<g id="clust1" class="cluster">
<title>cluster_FilesModule</title>
<polygon fill="none" stroke="black" stroke-dasharray="1,5" points="8,-32.8 8,-157.8 1754,-157.8 1754,-32.8 8,-32.8"/>
</g>
<g id="clust3" class="cluster">
<title>cluster_FilesModule_imports</title>
<polygon fill="none" stroke="black" points="1630,-40.8 1630,-92.8 1746,-92.8 1746,-40.8 1630,-40.8"/>
</g>
<g id="clust6" class="cluster">
<title>cluster_FilesModule_providers</title>
<polygon fill="none" stroke="black" points="16,-40.8 16,-92.8 1622,-92.8 1622,-40.8 16,-40.8"/>
</g>
<!-- LoggerModule -->
<g id="node1" class="node">
<title>LoggerModule</title>
<polygon fill="#8dd3c7" stroke="black" points="1737.98,-84.8 1734.98,-88.8 1713.98,-88.8 1710.98,-84.8 1638.02,-84.8 1638.02,-48.8 1737.98,-48.8 1737.98,-84.8"/>
<text text-anchor="middle" x="1688" y="-62.6" font-family="Times,serif" font-size="14.00">LoggerModule</text>
</g>
<!-- FilesModule -->
<g id="node2" class="node">
<title>FilesModule</title>
<polygon fill="#8dd3c7" stroke="black" points="1017.28,-149.8 1014.28,-153.8 993.28,-153.8 990.28,-149.8 930.72,-149.8 930.72,-113.8 1017.28,-113.8 1017.28,-149.8"/>
<text text-anchor="middle" x="974" y="-127.6" font-family="Times,serif" font-size="14.00">FilesModule</text>
</g>
<!-- LoggerModule&#45;&gt;FilesModule -->
<g id="edge1" class="edge">
<title>LoggerModule&#45;&gt;FilesModule</title>
<path fill="none" stroke="black" d="M1688,-84.81C1688,-107.29 1688,-142.8 1688,-142.8 1688,-142.8 1027.32,-142.8 1027.32,-142.8"/>
<polygon fill="black" stroke="black" points="1027.32,-139.3 1017.32,-142.8 1027.32,-146.3 1027.32,-139.3"/>
</g>
<!-- DeleteFilesUc -->
<g id="node3" class="node">
<title>DeleteFilesUc</title>
<ellipse fill="#fdb462" stroke="black" cx="1548" cy="-66.8" rx="66.05" ry="18"/>
<text text-anchor="middle" x="1548" y="-62.6" font-family="Times,serif" font-size="14.00">DeleteFilesUc</text>
</g>
<!-- DeleteFilesUc&#45;&gt;FilesModule -->
<g id="edge2" class="edge">
<title>DeleteFilesUc&#45;&gt;FilesModule</title>
<path fill="none" stroke="black" d="M1548,-84.93C1548,-105.37 1548,-135.8 1548,-135.8 1548,-135.8 1027.61,-135.8 1027.61,-135.8"/>
<polygon fill="black" stroke="black" points="1027.61,-132.3 1017.61,-135.8 1027.61,-139.3 1027.61,-132.3"/>
</g>
<!-- FileRecordRepo -->
<g id="node4" class="node">
<title>FileRecordRepo</title>
<ellipse fill="#fdb462" stroke="black" cx="1389" cy="-66.8" rx="74.16" ry="18"/>
<text text-anchor="middle" x="1389" y="-62.6" font-family="Times,serif" font-size="14.00">FileRecordRepo</text>
</g>
<!-- FileRecordRepo&#45;&gt;FilesModule -->
<g id="edge3" class="edge">
<title>FileRecordRepo&#45;&gt;FilesModule</title>
<path fill="none" stroke="black" d="M1389,-85.07C1389,-103.36 1389,-128.8 1389,-128.8 1389,-128.8 1027.63,-128.8 1027.63,-128.8"/>
<polygon fill="black" stroke="black" points="1027.63,-125.3 1017.63,-128.8 1027.63,-132.3 1027.63,-125.3"/>
</g>
<!-- FileStorageAdapter -->
<g id="node5" class="node">
<title>FileStorageAdapter</title>
<ellipse fill="#fdb462" stroke="black" cx="1210" cy="-66.8" rx="86.82" ry="18"/>
<text text-anchor="middle" x="1210" y="-62.6" font-family="Times,serif" font-size="14.00">FileStorageAdapter</text>
</g>
<!-- FileStorageAdapter&#45;&gt;FilesModule -->
<g id="edge4" class="edge">
<title>FileStorageAdapter&#45;&gt;FilesModule</title>
<path fill="none" stroke="black" d="M1210,-84.81C1210,-100.85 1210,-121.8 1210,-121.8 1210,-121.8 1027.29,-121.8 1027.29,-121.8"/>
<polygon fill="black" stroke="black" points="1027.29,-118.3 1017.29,-121.8 1027.29,-125.3 1027.29,-118.3"/>
</g>
<!-- FilesRepo -->
<g id="node6" class="node">
<title>FilesRepo</title>
<ellipse fill="#fdb462" stroke="black" cx="1055" cy="-66.8" rx="50.4" ry="18"/>
<text text-anchor="middle" x="1055" y="-62.6" font-family="Times,serif" font-size="14.00">FilesRepo</text>
</g>
<!-- FilesRepo&#45;&gt;FilesModule -->
<g id="edge5" class="edge">
<title>FilesRepo&#45;&gt;FilesModule</title>
<path fill="none" stroke="black" d="M1011.09,-75.57C1011.09,-75.57 1011.09,-103.6 1011.09,-103.6"/>
<polygon fill="black" stroke="black" points="1007.59,-103.6 1011.09,-113.6 1014.59,-103.6 1007.59,-103.6"/>
</g>
<!-- StorageProviderRepo -->
<g id="node7" class="node">
<title>StorageProviderRepo</title>
<ellipse fill="#fdb462" stroke="black" cx="893" cy="-66.8" rx="94.35" ry="18"/>
<text text-anchor="middle" x="893" y="-62.6" font-family="Times,serif" font-size="14.00">StorageProviderRepo</text>
</g>
<!-- StorageProviderRepo&#45;&gt;FilesModule -->
<g id="edge6" class="edge">
<title>StorageProviderRepo&#45;&gt;FilesModule</title>
<path fill="none" stroke="black" d="M958.89,-79.95C958.89,-79.95 958.89,-103.49 958.89,-103.49"/>
<polygon fill="black" stroke="black" points="955.39,-103.49 958.89,-113.49 962.39,-103.49 955.39,-103.49"/>
</g>
<!-- SyncFilesMetadataService -->
<g id="node8" class="node">
<title>SyncFilesMetadataService</title>
<ellipse fill="#fdb462" stroke="black" cx="667" cy="-66.8" rx="114.03" ry="18"/>
<text text-anchor="middle" x="667" y="-62.6" font-family="Times,serif" font-size="14.00">SyncFilesMetadataService</text>
</g>
<!-- SyncFilesMetadataService&#45;&gt;FilesModule -->
<g id="edge7" class="edge">
<title>SyncFilesMetadataService&#45;&gt;FilesModule</title>
<path fill="none" stroke="black" d="M667,-84.81C667,-100.85 667,-121.8 667,-121.8 667,-121.8 920.67,-121.8 920.67,-121.8"/>
<polygon fill="black" stroke="black" points="920.67,-125.3 930.67,-121.8 920.67,-118.3 920.67,-125.3"/>
</g>
<!-- SyncFilesRepo -->
<g id="node9" class="node">
<title>SyncFilesRepo</title>
<ellipse fill="#fdb462" stroke="black" cx="465" cy="-66.8" rx="69.53" ry="18"/>
<text text-anchor="middle" x="465" y="-62.6" font-family="Times,serif" font-size="14.00">SyncFilesRepo</text>
</g>
<!-- SyncFilesRepo&#45;&gt;FilesModule -->
<g id="edge8" class="edge">
<title>SyncFilesRepo&#45;&gt;FilesModule</title>
<path fill="none" stroke="black" d="M465,-85.07C465,-103.36 465,-128.8 465,-128.8 465,-128.8 920.6,-128.8 920.6,-128.8"/>
<polygon fill="black" stroke="black" points="920.6,-132.3 930.6,-128.8 920.6,-125.3 920.6,-132.3"/>
</g>
<!-- SyncFilesStorageService -->
<g id="node10" class="node">
<title>SyncFilesStorageService</title>
<ellipse fill="#fdb462" stroke="black" cx="270" cy="-66.8" rx="107.67" ry="18"/>
<text text-anchor="middle" x="270" y="-62.6" font-family="Times,serif" font-size="14.00">SyncFilesStorageService</text>
</g>
<!-- SyncFilesStorageService&#45;&gt;FilesModule -->
<g id="edge9" class="edge">
<title>SyncFilesStorageService&#45;&gt;FilesModule</title>
<path fill="none" stroke="black" d="M270,-84.93C270,-105.37 270,-135.8 270,-135.8 270,-135.8 920.49,-135.8 920.49,-135.8"/>
<polygon fill="black" stroke="black" points="920.49,-139.3 930.49,-135.8 920.49,-132.3 920.49,-139.3"/>
</g>
<!-- SyncFilesUc -->
<g id="node11" class="node">
<title>SyncFilesUc</title>
<ellipse fill="#fdb462" stroke="black" cx="84" cy="-66.8" rx="60.28" ry="18"/>
<text text-anchor="middle" x="84" y="-62.6" font-family="Times,serif" font-size="14.00">SyncFilesUc</text>
</g>
<!-- SyncFilesUc&#45;&gt;FilesModule -->
<g id="edge10" class="edge">
<title>SyncFilesUc&#45;&gt;FilesModule</title>
<path fill="none" stroke="black" d="M84,-84.81C84,-107.29 84,-142.8 84,-142.8 84,-142.8 920.47,-142.8 920.47,-142.8"/>
<polygon fill="black" stroke="black" points="920.47,-146.3 930.47,-142.8 920.47,-139.3 920.47,-146.3"/>
</g>
</g>
</svg>
