<?xml version="1.0" encoding="UTF-8" standalone="no"?>
<!DOCTYPE svg PUBLIC "-//W3C//DTD SVG 1.1//EN"
 "http://www.w3.org/Graphics/SVG/1.1/DTD/svg11.dtd">
<!-- Generated by graphviz version 5.0.0 (20220707.1540)
 -->
<!-- Title: dependencies Pages: 1 -->
<svg width="1636pt" height="247pt"
 viewBox="0.00 0.00 1636.00 246.80" xmlns="http://www.w3.org/2000/svg" xmlns:xlink="http://www.w3.org/1999/xlink">
<g id="graph0" class="graph" transform="scale(1 1) rotate(0) translate(4 242.8)">
<title>dependencies</title>
<polygon fill="white" stroke="transparent" points="-4,4 -4,-242.8 1632,-242.8 1632,4 -4,4"/>
<text text-anchor="middle" x="814" y="-8.2" font-family="sans-serif" font-size="14.00">dependencies</text>
<g id="clust1" class="cluster">
<title>cluster_OauthModule</title>
<polygon fill="none" stroke="black" stroke-dasharray="1,5" points="8,-32.8 8,-230.8 1620,-230.8 1620,-32.8 8,-32.8"/>
</g>
<g id="clust6" class="cluster">
<title>cluster_OauthModule_providers</title>
<polygon fill="none" stroke="black" points="436,-40.8 436,-92.8 1612,-92.8 1612,-40.8 436,-40.8"/>
</g>
<g id="clust4" class="cluster">
<title>cluster_OauthModule_exports</title>
<polygon fill="none" stroke="black" points="703,-170.8 703,-222.8 789,-222.8 789,-170.8 703,-170.8"/>
</g>
<g id="clust3" class="cluster">
<title>cluster_OauthModule_imports</title>
<polygon fill="none" stroke="black" points="16,-40.8 16,-92.8 428,-92.8 428,-40.8 16,-40.8"/>
</g>
<!-- AuthorizationModule -->
<g id="node1" class="node">
<title>AuthorizationModule</title>
<polygon fill="#8dd3c7" stroke="black" points="419.81,-84.8 416.81,-88.8 395.81,-88.8 392.81,-84.8 282.19,-84.8 282.19,-48.8 419.81,-48.8 419.81,-84.8"/>
<text text-anchor="middle" x="351" y="-62.6" font-family="Times,serif" font-size="14.00">AuthorizationModule</text>
</g>
<!-- OauthModule -->
<g id="node4" class="node">
<title>OauthModule</title>
<polygon fill="#8dd3c7" stroke="black" points="792.77,-149.8 789.77,-153.8 768.77,-153.8 765.77,-149.8 699.23,-149.8 699.23,-113.8 792.77,-113.8 792.77,-149.8"/>
<text text-anchor="middle" x="746" y="-127.6" font-family="Times,serif" font-size="14.00">OauthModule</text>
</g>
<!-- AuthorizationModule&#45;&gt;OauthModule -->
<g id="edge1" class="edge">
<title>AuthorizationModule&#45;&gt;OauthModule</title>
<path fill="none" stroke="black" d="M351,-84.91C351,-104.14 351,-131.8 351,-131.8 351,-131.8 689.14,-131.8 689.14,-131.8"/>
<polygon fill="black" stroke="black" points="689.14,-135.3 699.14,-131.8 689.14,-128.3 689.14,-135.3"/>
</g>
<!-- EncryptionModule -->
<g id="node2" class="node">
<title>EncryptionModule</title>
<polygon fill="#8dd3c7" stroke="black" points="263.76,-84.8 260.76,-88.8 239.76,-88.8 236.76,-84.8 142.24,-84.8 142.24,-48.8 263.76,-48.8 263.76,-84.8"/>
<text text-anchor="middle" x="203" y="-62.6" font-family="Times,serif" font-size="14.00">EncryptionModule</text>
</g>
<!-- EncryptionModule&#45;&gt;OauthModule -->
<g id="edge2" class="edge">
<title>EncryptionModule&#45;&gt;OauthModule</title>
<path fill="none" stroke="black" d="M203,-85.08C203,-106.12 203,-137.8 203,-137.8 203,-137.8 688.76,-137.8 688.76,-137.8"/>
<polygon fill="black" stroke="black" points="688.76,-141.3 698.76,-137.8 688.76,-134.3 688.76,-141.3"/>
</g>
<!-- LoggerModule -->
<g id="node3" class="node">
<title>LoggerModule</title>
<polygon fill="#8dd3c7" stroke="black" points="123.98,-84.8 120.98,-88.8 99.98,-88.8 96.98,-84.8 24.02,-84.8 24.02,-48.8 123.98,-48.8 123.98,-84.8"/>
<text text-anchor="middle" x="74" y="-62.6" font-family="Times,serif" font-size="14.00">LoggerModule</text>
</g>
<!-- LoggerModule&#45;&gt;OauthModule -->
<g id="edge3" class="edge">
<title>LoggerModule&#45;&gt;OauthModule</title>
<path fill="none" stroke="black" d="M74,-85.05C74,-107.82 74,-143.8 74,-143.8 74,-143.8 689.01,-143.8 689.01,-143.8"/>
<polygon fill="black" stroke="black" points="689.01,-147.3 699.01,-143.8 689.01,-140.3 689.01,-147.3"/>
</g>
<!-- OauthUc  -->
<g id="node5" class="node">
<title>OauthUc </title>
<polygon fill="#fb8072" stroke="black" points="781.04,-214.8 710.96,-214.8 710.96,-178.8 781.04,-178.8 781.04,-214.8"/>
<text text-anchor="middle" x="746" y="-192.6" font-family="Times,serif" font-size="14.00">OauthUc </text>
</g>
<!-- OauthModule&#45;&gt;OauthUc  -->
<g id="edge4" class="edge">
<title>OauthModule&#45;&gt;OauthUc </title>
<path fill="none" stroke="black" stroke-dasharray="5,2" d="M746,-149.91C746,-149.91 746,-168.79 746,-168.79"/>
<polygon fill="black" stroke="black" points="742.5,-168.79 746,-178.79 749.5,-168.79 742.5,-168.79"/>
</g>
<!-- HydraOauthUc -->
<g id="node6" class="node">
<title>HydraOauthUc</title>
<ellipse fill="#fdb462" stroke="black" cx="1534" cy="-66.8" rx="70.06" ry="18"/>
<text text-anchor="middle" x="1534" y="-62.6" font-family="Times,serif" font-size="14.00">HydraOauthUc</text>
</g>
<!-- HydraOauthUc&#45;&gt;OauthModule -->
<g id="edge5" class="edge">
<title>HydraOauthUc&#45;&gt;OauthModule</title>
<path fill="none" stroke="black" d="M1534,-85.05C1534,-107.82 1534,-143.8 1534,-143.8 1534,-143.8 802.93,-143.8 802.93,-143.8"/>
<polygon fill="black" stroke="black" points="802.93,-140.3 792.93,-143.8 802.93,-147.3 802.93,-140.3"/>
</g>
<!-- HydraSsoService -->
<g id="node7" class="node">
<title>HydraSsoService</title>
<ellipse fill="#fdb462" stroke="black" cx="1368" cy="-66.8" rx="78.17" ry="18"/>
<text text-anchor="middle" x="1368" y="-62.6" font-family="Times,serif" font-size="14.00">HydraSsoService</text>
</g>
<!-- HydraSsoService&#45;&gt;OauthModule -->
<g id="edge6" class="edge">
<title>HydraSsoService&#45;&gt;OauthModule</title>
<path fill="none" stroke="black" d="M1368,-85.08C1368,-106.12 1368,-137.8 1368,-137.8 1368,-137.8 803.01,-137.8 803.01,-137.8"/>
<polygon fill="black" stroke="black" points="803.01,-134.3 793.01,-137.8 803.01,-141.3 803.01,-134.3"/>
</g>
<!-- IservOAuthService -->
<g id="node8" class="node">
<title>IservOAuthService</title>
<ellipse fill="#fdb462" stroke="black" cx="1186" cy="-66.8" rx="85.67" ry="18"/>
<text text-anchor="middle" x="1186" y="-62.6" font-family="Times,serif" font-size="14.00">IservOAuthService</text>
</g>
<!-- IservOAuthService&#45;&gt;OauthModule -->
<g id="edge7" class="edge">
<title>IservOAuthService&#45;&gt;OauthModule</title>
<path fill="none" stroke="black" d="M1186,-84.91C1186,-104.14 1186,-131.8 1186,-131.8 1186,-131.8 803.09,-131.8 803.09,-131.8"/>
<polygon fill="black" stroke="black" points="803.09,-128.3 793.09,-131.8 803.09,-135.3 803.09,-128.3"/>
</g>
<!-- LtiToolRepo -->
<g id="node9" class="node">
<title>LtiToolRepo</title>
<ellipse fill="#fdb462" stroke="black" cx="1021" cy="-66.8" rx="60.85" ry="18"/>
<text text-anchor="middle" x="1021" y="-62.6" font-family="Times,serif" font-size="14.00">LtiToolRepo</text>
</g>
<!-- LtiToolRepo&#45;&gt;OauthModule -->
<g id="edge8" class="edge">
<title>LtiToolRepo&#45;&gt;OauthModule</title>
<path fill="none" stroke="black" d="M1021,-84.82C1021,-102.17 1021,-125.8 1021,-125.8 1021,-125.8 802.96,-125.8 802.96,-125.8"/>
<polygon fill="black" stroke="black" points="802.96,-122.3 792.96,-125.8 802.96,-129.3 802.96,-122.3"/>
</g>
<!-- OAuthService -->
<g id="node10" class="node">
<title>OAuthService</title>
<ellipse fill="#fdb462" stroke="black" cx="876" cy="-66.8" rx="66.06" ry="18"/>
<text text-anchor="middle" x="876" y="-62.6" font-family="Times,serif" font-size="14.00">OAuthService</text>
</g>
<!-- OAuthService&#45;&gt;OauthModule -->
<g id="edge9" class="edge">
<title>OAuthService&#45;&gt;OauthModule</title>
<path fill="none" stroke="black" d="M876,-85.04C876,-100.37 876,-119.8 876,-119.8 876,-119.8 802.93,-119.8 802.93,-119.8"/>
<polygon fill="black" stroke="black" points="802.93,-116.3 792.93,-119.8 802.93,-123.3 802.93,-116.3"/>
</g>
<!-- OauthUc -->
<g id="node11" class="node">
<title>OauthUc</title>
<ellipse fill="#fdb462" stroke="black" cx="746" cy="-66.8" rx="45.79" ry="18"/>
<text text-anchor="middle" x="746" y="-62.6" font-family="Times,serif" font-size="14.00">OauthUc</text>
</g>
<!-- OauthUc&#45;&gt;OauthModule -->
<g id="edge10" class="edge">
<title>OauthUc&#45;&gt;OauthModule</title>
<path fill="none" stroke="black" d="M746,-84.91C746,-84.91 746,-103.79 746,-103.79"/>
<polygon fill="black" stroke="black" points="742.5,-103.79 746,-113.79 749.5,-103.79 742.5,-103.79"/>
</g>
<!-- SystemRepo -->
<g id="node12" class="node">
<title>SystemRepo</title>
<ellipse fill="#fdb462" stroke="black" cx="622" cy="-66.8" rx="59.72" ry="18"/>
<text text-anchor="middle" x="622" y="-62.6" font-family="Times,serif" font-size="14.00">SystemRepo</text>
</g>
<!-- SystemRepo&#45;&gt;OauthModule -->
<g id="edge11" class="edge">
<title>SystemRepo&#45;&gt;OauthModule</title>
<path fill="none" stroke="black" d="M622,-85.04C622,-100.37 622,-119.8 622,-119.8 622,-119.8 689.12,-119.8 689.12,-119.8"/>
<polygon fill="black" stroke="black" points="689.12,-123.3 699.12,-119.8 689.12,-116.3 689.12,-123.3"/>
</g>
<!-- UserRepo -->
<g id="node13" class="node">
<title>UserRepo</title>
<ellipse fill="#fdb462" stroke="black" cx="494" cy="-66.8" rx="49.81" ry="18"/>
<text text-anchor="middle" x="494" y="-62.6" font-family="Times,serif" font-size="14.00">UserRepo</text>
</g>
<!-- UserRepo&#45;&gt;OauthModule -->
<g id="edge12" class="edge">
<title>UserRepo&#45;&gt;OauthModule</title>
<path fill="none" stroke="black" d="M494,-84.82C494,-102.17 494,-125.8 494,-125.8 494,-125.8 689.19,-125.8 689.19,-125.8"/>
<polygon fill="black" stroke="black" points="689.19,-129.3 699.19,-125.8 689.19,-122.3 689.19,-129.3"/>
</g>
</g>
</svg>
