<?xml version="1.0" encoding="UTF-8" standalone="no"?>
<!DOCTYPE svg PUBLIC "-//W3C//DTD SVG 1.1//EN"
 "http://www.w3.org/Graphics/SVG/1.1/DTD/svg11.dtd">
<!-- Generated by graphviz version 5.0.0 (20220707.1540)
 -->
<!-- Title: dependencies Pages: 1 -->
<svg width="1164pt" height="247pt"
 viewBox="0.00 0.00 1164.00 246.80" xmlns="http://www.w3.org/2000/svg" xmlns:xlink="http://www.w3.org/1999/xlink">
<g id="graph0" class="graph" transform="scale(1 1) rotate(0) translate(4 242.8)">
<title>dependencies</title>
<polygon fill="white" stroke="transparent" points="-4,4 -4,-242.8 1160,-242.8 1160,4 -4,4"/>
<text text-anchor="middle" x="578" y="-8.2" font-family="sans-serif" font-size="14.00">dependencies</text>
<g id="clust1" class="cluster">
<title>cluster_OauthModule</title>
<polygon fill="none" stroke="black" stroke-dasharray="1,5" points="8,-32.8 8,-230.8 1148,-230.8 1148,-32.8 8,-32.8"/>
</g>
<g id="clust4" class="cluster">
<title>cluster_OauthModule_exports</title>
<polygon fill="none" stroke="black" points="515,-170.8 515,-222.8 601,-222.8 601,-170.8 515,-170.8"/>
</g>
<g id="clust6" class="cluster">
<title>cluster_OauthModule_providers</title>
<polygon fill="none" stroke="black" points="436,-40.8 436,-92.8 1140,-92.8 1140,-40.8 436,-40.8"/>
</g>
<g id="clust3" class="cluster">
<title>cluster_OauthModule_imports</title>
<polygon fill="none" stroke="black" points="16,-40.8 16,-92.8 428,-92.8 428,-40.8 16,-40.8"/>
</g>
<!-- AuthorizationModule -->
<g id="node1" class="node">
<title>AuthorizationModule</title>
<polygon fill="#8dd3c7" stroke="black" points="419.81,-84.8 416.81,-88.8 395.81,-88.8 392.81,-84.8 282.19,-84.8 282.19,-48.8 419.81,-48.8 419.81,-84.8"/>
<text text-anchor="middle" x="351" y="-62.6" font-family="Times,serif" font-size="14.00">AuthorizationModule</text>
</g>
<!-- OauthModule -->
<g id="node4" class="node">
<title>OauthModule</title>
<polygon fill="#8dd3c7" stroke="black" points="604.77,-149.8 601.77,-153.8 580.77,-153.8 577.77,-149.8 511.23,-149.8 511.23,-113.8 604.77,-113.8 604.77,-149.8"/>
<text text-anchor="middle" x="558" y="-127.6" font-family="Times,serif" font-size="14.00">OauthModule</text>
</g>
<!-- AuthorizationModule&#45;&gt;OauthModule -->
<g id="edge1" class="edge">
<title>AuthorizationModule&#45;&gt;OauthModule</title>
<path fill="none" stroke="black" d="M351,-84.83C351,-101.2 351,-122.8 351,-122.8 351,-122.8 501.03,-122.8 501.03,-122.8"/>
<polygon fill="black" stroke="black" points="501.03,-126.3 511.03,-122.8 501.03,-119.3 501.03,-126.3"/>
</g>
<!-- EncryptionModule -->
<g id="node2" class="node">
<title>EncryptionModule</title>
<polygon fill="#8dd3c7" stroke="black" points="263.76,-84.8 260.76,-88.8 239.76,-88.8 236.76,-84.8 142.24,-84.8 142.24,-48.8 263.76,-48.8 263.76,-84.8"/>
<text text-anchor="middle" x="203" y="-62.6" font-family="Times,serif" font-size="14.00">EncryptionModule</text>
</g>
<!-- EncryptionModule&#45;&gt;OauthModule -->
<g id="edge2" class="edge">
<title>EncryptionModule&#45;&gt;OauthModule</title>
<path fill="none" stroke="black" d="M203,-84.91C203,-104.14 203,-131.8 203,-131.8 203,-131.8 501.22,-131.8 501.22,-131.8"/>
<polygon fill="black" stroke="black" points="501.22,-135.3 511.22,-131.8 501.22,-128.3 501.22,-135.3"/>
</g>
<!-- LoggerModule -->
<g id="node3" class="node">
<title>LoggerModule</title>
<polygon fill="#8dd3c7" stroke="black" points="123.98,-84.8 120.98,-88.8 99.98,-88.8 96.98,-84.8 24.02,-84.8 24.02,-48.8 123.98,-48.8 123.98,-84.8"/>
<text text-anchor="middle" x="74" y="-62.6" font-family="Times,serif" font-size="14.00">LoggerModule</text>
</g>
<!-- LoggerModule&#45;&gt;OauthModule -->
<g id="edge3" class="edge">
<title>LoggerModule&#45;&gt;OauthModule</title>
<path fill="none" stroke="black" d="M74,-85.09C74,-107.01 74,-140.8 74,-140.8 74,-140.8 501.15,-140.8 501.15,-140.8"/>
<polygon fill="black" stroke="black" points="501.15,-144.3 511.15,-140.8 501.15,-137.3 501.15,-144.3"/>
</g>
<!-- OauthUc  -->
<g id="node5" class="node">
<title>OauthUc </title>
<polygon fill="#fb8072" stroke="black" points="593.04,-214.8 522.96,-214.8 522.96,-178.8 593.04,-178.8 593.04,-214.8"/>
<text text-anchor="middle" x="558" y="-192.6" font-family="Times,serif" font-size="14.00">OauthUc </text>
</g>
<!-- OauthModule&#45;&gt;OauthUc  -->
<g id="edge4" class="edge">
<title>OauthModule&#45;&gt;OauthUc </title>
<path fill="none" stroke="black" stroke-dasharray="5,2" d="M558,-149.91C558,-149.91 558,-168.79 558,-168.79"/>
<polygon fill="black" stroke="black" points="554.5,-168.79 558,-178.79 561.5,-168.79 554.5,-168.79"/>
</g>
<!-- IservOAuthService -->
<g id="node6" class="node">
<title>IservOAuthService</title>
<ellipse fill="#fdb462" stroke="black" cx="1046" cy="-66.8" rx="85.67" ry="18"/>
<text text-anchor="middle" x="1046" y="-62.6" font-family="Times,serif" font-size="14.00">IservOAuthService</text>
</g>
<!-- IservOAuthService&#45;&gt;OauthModule -->
<g id="edge5" class="edge">
<title>IservOAuthService&#45;&gt;OauthModule</title>
<path fill="none" stroke="black" d="M1046,-85.09C1046,-107.01 1046,-140.8 1046,-140.8 1046,-140.8 614.79,-140.8 614.79,-140.8"/>
<polygon fill="black" stroke="black" points="614.79,-137.3 604.79,-140.8 614.79,-144.3 614.79,-137.3"/>
</g>
<!-- OAuthService -->
<g id="node7" class="node">
<title>OAuthService</title>
<ellipse fill="#fdb462" stroke="black" cx="876" cy="-66.8" rx="66.06" ry="18"/>
<text text-anchor="middle" x="876" y="-62.6" font-family="Times,serif" font-size="14.00">OAuthService</text>
</g>
<!-- OAuthService&#45;&gt;OauthModule -->
<g id="edge6" class="edge">
<title>OAuthService&#45;&gt;OauthModule</title>
<path fill="none" stroke="black" d="M876,-84.91C876,-104.14 876,-131.8 876,-131.8 876,-131.8 614.92,-131.8 614.92,-131.8"/>
<polygon fill="black" stroke="black" points="614.92,-128.3 604.92,-131.8 614.92,-135.3 614.92,-128.3"/>
</g>
<!-- OauthUc -->
<g id="node8" class="node">
<title>OauthUc</title>
<ellipse fill="#fdb462" stroke="black" cx="746" cy="-66.8" rx="45.79" ry="18"/>
<text text-anchor="middle" x="746" y="-62.6" font-family="Times,serif" font-size="14.00">OauthUc</text>
</g>
<!-- OauthUc&#45;&gt;OauthModule -->
<g id="edge7" class="edge">
<title>OauthUc&#45;&gt;OauthModule</title>
<path fill="none" stroke="black" d="M746,-84.83C746,-101.2 746,-122.8 746,-122.8 746,-122.8 614.96,-122.8 614.96,-122.8"/>
<polygon fill="black" stroke="black" points="614.96,-119.3 604.96,-122.8 614.96,-126.3 614.96,-119.3"/>
</g>
<!-- SystemRepo -->
<g id="node9" class="node">
<title>SystemRepo</title>
<ellipse fill="#fdb462" stroke="black" cx="622" cy="-66.8" rx="59.72" ry="18"/>
<text text-anchor="middle" x="622" y="-62.6" font-family="Times,serif" font-size="14.00">SystemRepo</text>
</g>
<!-- SystemRepo&#45;&gt;OauthModule -->
<g id="edge8" class="edge">
<title>SystemRepo&#45;&gt;OauthModule</title>
<path fill="none" stroke="black" d="M583.51,-80.9C583.51,-80.9 583.51,-103.52 583.51,-103.52"/>
<polygon fill="black" stroke="black" points="580.01,-103.52 583.51,-113.52 587.01,-103.52 580.01,-103.52"/>
</g>
<!-- UserRepo -->
<g id="node10" class="node">
<title>UserRepo</title>
<ellipse fill="#fdb462" stroke="black" cx="494" cy="-66.8" rx="49.81" ry="18"/>
<text text-anchor="middle" x="494" y="-62.6" font-family="Times,serif" font-size="14.00">UserRepo</text>
</g>
<!-- UserRepo&#45;&gt;OauthModule -->
<g id="edge9" class="edge">
<title>UserRepo&#45;&gt;OauthModule</title>
<path fill="none" stroke="black" d="M527.39,-80.27C527.39,-80.27 527.39,-103.66 527.39,-103.66"/>
<polygon fill="black" stroke="black" points="523.89,-103.66 527.39,-113.66 530.89,-103.66 523.89,-103.66"/>
</g>
</g>
</svg>
