<?xml version="1.0" encoding="UTF-8" standalone="no"?>
<!DOCTYPE svg PUBLIC "-//W3C//DTD SVG 1.1//EN"
 "http://www.w3.org/Graphics/SVG/1.1/DTD/svg11.dtd">
<!-- Generated by graphviz version 2.47.3 (20210619.1520)
 -->
<!-- Title: dependencies Pages: 1 -->
<svg width="684pt" height="247pt"
 viewBox="0.00 0.00 684.00 246.80" xmlns="http://www.w3.org/2000/svg" xmlns:xlink="http://www.w3.org/1999/xlink">
<g id="graph0" class="graph" transform="scale(1 1) rotate(0) translate(4 242.8)">
<title>dependencies</title>
<polygon fill="white" stroke="transparent" points="-4,4 -4,-242.8 680,-242.8 680,4 -4,4"/>
<text text-anchor="middle" x="338" y="-8.2" font-family="sans-serif" font-size="14.00">dependencies</text>
<g id="clust1" class="cluster">
<title>cluster_OauthModule</title>
<polygon fill="none" stroke="black" stroke-dasharray="1,5" points="8,-32.8 8,-230.8 668,-230.8 668,-32.8 8,-32.8"/>
</g>
<g id="clust3" class="cluster">
<title>cluster_OauthModule_imports</title>
<polygon fill="none" stroke="black" points="388,-40.8 388,-92.8 660,-92.8 660,-40.8 388,-40.8"/>
</g>
<g id="clust6" class="cluster">
<title>cluster_OauthModule_providers</title>
<polygon fill="none" stroke="black" points="16,-40.8 16,-92.8 380,-92.8 380,-40.8 16,-40.8"/>
</g>
<g id="clust4" class="cluster">
<title>cluster_OauthModule_exports</title>
<polygon fill="none" stroke="black" points="283,-170.8 283,-222.8 369,-222.8 369,-170.8 283,-170.8"/>
</g>
<!-- AuthorizationModule -->
<g id="node1" class="node">
<title>AuthorizationModule</title>
<polygon fill="#8dd3c7" stroke="black" points="651.81,-84.8 648.81,-88.8 627.81,-88.8 624.81,-84.8 514.19,-84.8 514.19,-48.8 651.81,-48.8 651.81,-84.8"/>
<text text-anchor="middle" x="583" y="-62.6" font-family="Times,serif" font-size="14.00">AuthorizationModule</text>
</g>
<!-- OauthModule -->
<g id="node3" class="node">
<title>OauthModule</title>
<polygon fill="#8dd3c7" stroke="black" points="372.76,-149.8 369.76,-153.8 348.76,-153.8 345.76,-149.8 279.24,-149.8 279.24,-113.8 372.76,-113.8 372.76,-149.8"/>
<text text-anchor="middle" x="326" y="-127.6" font-family="Times,serif" font-size="14.00">OauthModule</text>
</g>
<!-- AuthorizationModule&#45;&gt;OauthModule -->
<g id="edge1" class="edge">
<title>AuthorizationModule&#45;&gt;OauthModule</title>
<path fill="none" stroke="black" d="M583,-85.08C583,-106.12 583,-137.8 583,-137.8 583,-137.8 382.84,-137.8 382.84,-137.8"/>
<polygon fill="black" stroke="black" points="382.84,-134.3 372.84,-137.8 382.84,-141.3 382.84,-134.3"/>
</g>
<!-- LoggerModule -->
<g id="node2" class="node">
<title>LoggerModule</title>
<polygon fill="#8dd3c7" stroke="black" points="495.98,-84.8 492.98,-88.8 471.98,-88.8 468.98,-84.8 396.02,-84.8 396.02,-48.8 495.98,-48.8 495.98,-84.8"/>
<text text-anchor="middle" x="446" y="-62.6" font-family="Times,serif" font-size="14.00">LoggerModule</text>
</g>
<!-- LoggerModule&#45;&gt;OauthModule -->
<g id="edge2" class="edge">
<title>LoggerModule&#45;&gt;OauthModule</title>
<path fill="none" stroke="black" d="M446,-84.82C446,-102.17 446,-125.8 446,-125.8 446,-125.8 383.08,-125.8 383.08,-125.8"/>
<polygon fill="black" stroke="black" points="383.08,-122.3 373.08,-125.8 383.08,-129.3 383.08,-122.3"/>
</g>
<!-- OauthUc  -->
<g id="node4" class="node">
<title>OauthUc </title>
<polygon fill="#fb8072" stroke="black" points="361.03,-214.8 290.97,-214.8 290.97,-178.8 361.03,-178.8 361.03,-214.8"/>
<text text-anchor="middle" x="326" y="-192.6" font-family="Times,serif" font-size="14.00">OauthUc </text>
</g>
<!-- OauthModule&#45;&gt;OauthUc  -->
<g id="edge3" class="edge">
<title>OauthModule&#45;&gt;OauthUc </title>
<path fill="none" stroke="black" stroke-dasharray="5,2" d="M326,-149.91C326,-149.91 326,-168.79 326,-168.79"/>
<polygon fill="black" stroke="black" points="322.5,-168.79 326,-178.79 329.5,-168.79 322.5,-168.79"/>
</g>
<!-- OauthUc -->
<g id="node5" class="node">
<title>OauthUc</title>
<ellipse fill="#fdb462" stroke="black" cx="326" cy="-66.8" rx="45.79" ry="18"/>
<text text-anchor="middle" x="326" y="-62.6" font-family="Times,serif" font-size="14.00">OauthUc</text>
</g>
<!-- OauthUc&#45;&gt;OauthModule -->
<g id="edge4" class="edge">
<title>OauthUc&#45;&gt;OauthModule</title>
<path fill="none" stroke="black" d="M326,-84.91C326,-84.91 326,-103.79 326,-103.79"/>
<polygon fill="black" stroke="black" points="322.5,-103.79 326,-113.79 329.5,-103.79 322.5,-103.79"/>
</g>
<!-- SystemRepo -->
<g id="node6" class="node">
<title>SystemRepo</title>
<ellipse fill="#fdb462" stroke="black" cx="202" cy="-66.8" rx="59.71" ry="18"/>
<text text-anchor="middle" x="202" y="-62.6" font-family="Times,serif" font-size="14.00">SystemRepo</text>
</g>
<!-- SystemRepo&#45;&gt;OauthModule -->
<g id="edge5" class="edge">
<title>SystemRepo&#45;&gt;OauthModule</title>
<path fill="none" stroke="black" d="M202,-84.82C202,-102.17 202,-125.8 202,-125.8 202,-125.8 269.12,-125.8 269.12,-125.8"/>
<polygon fill="black" stroke="black" points="269.12,-129.3 279.12,-125.8 269.12,-122.3 269.12,-129.3"/>
</g>
<!-- UserRepo -->
<g id="node7" class="node">
<title>UserRepo</title>
<ellipse fill="#fdb462" stroke="black" cx="74" cy="-66.8" rx="49.8" ry="18"/>
<text text-anchor="middle" x="74" y="-62.6" font-family="Times,serif" font-size="14.00">UserRepo</text>
</g>
<!-- UserRepo&#45;&gt;OauthModule -->
<g id="edge6" class="edge">
<title>UserRepo&#45;&gt;OauthModule</title>
<path fill="none" stroke="black" d="M74,-85.08C74,-106.12 74,-137.8 74,-137.8 74,-137.8 269.19,-137.8 269.19,-137.8"/>
<polygon fill="black" stroke="black" points="269.19,-141.3 279.19,-137.8 269.19,-134.3 269.19,-141.3"/>
</g>
</g>
</svg>
