<?xml version="1.0" encoding="UTF-8" standalone="no"?>
<!DOCTYPE svg PUBLIC "-//W3C//DTD SVG 1.1//EN"
 "http://www.w3.org/Graphics/SVG/1.1/DTD/svg11.dtd">
<!-- Generated by graphviz version 3.0.0 (20220226.1711)
 -->
<!-- Title: dependencies Pages: 1 -->
<svg width="1310pt" height="247pt"
 viewBox="0.00 0.00 1310.00 246.80" xmlns="http://www.w3.org/2000/svg" xmlns:xlink="http://www.w3.org/1999/xlink">
<g id="graph0" class="graph" transform="scale(1 1) rotate(0) translate(4 242.8)">
<title>dependencies</title>
<polygon fill="white" stroke="transparent" points="-4,4 -4,-242.8 1306,-242.8 1306,4 -4,4"/>
<text text-anchor="middle" x="651" y="-8.2" font-family="sans-serif" font-size="14.00">dependencies</text>
<g id="clust1" class="cluster">
<title>cluster_OauthModule</title>
<polygon fill="none" stroke="black" stroke-dasharray="1,5" points="8,-32.8 8,-230.8 1294,-230.8 1294,-32.8 8,-32.8"/>
</g>
<g id="clust6" class="cluster">
<title>cluster_OauthModule_providers</title>
<polygon fill="none" stroke="black" points="296,-40.8 296,-92.8 1286,-92.8 1286,-40.8 296,-40.8"/>
</g>
<g id="clust3" class="cluster">
<title>cluster_OauthModule_imports</title>
<polygon fill="none" stroke="black" points="16,-40.8 16,-92.8 288,-92.8 288,-40.8 16,-40.8"/>
</g>
<g id="clust4" class="cluster">
<title>cluster_OauthModule_exports</title>
<polygon fill="none" stroke="black" points="545,-170.8 545,-222.8 631,-222.8 631,-170.8 545,-170.8"/>
</g>
<!-- AuthorizationModule -->
<g id="node1" class="node">
<title>AuthorizationModule</title>
<polygon fill="#8dd3c7" stroke="black" points="279.81,-84.8 276.81,-88.8 255.81,-88.8 252.81,-84.8 142.19,-84.8 142.19,-48.8 279.81,-48.8 279.81,-84.8"/>
<text text-anchor="middle" x="211" y="-62.6" font-family="Times,serif" font-size="14.00">AuthorizationModule</text>
</g>
<!-- OauthModule -->
<g id="node3" class="node">
<title>OauthModule</title>
<polygon fill="#8dd3c7" stroke="black" points="634.77,-149.8 631.77,-153.8 610.77,-153.8 607.77,-149.8 541.23,-149.8 541.23,-113.8 634.77,-113.8 634.77,-149.8"/>
<text text-anchor="middle" x="588" y="-127.6" font-family="Times,serif" font-size="14.00">OauthModule</text>
</g>
<!-- AuthorizationModule&#45;&gt;OauthModule -->
<g id="edge1" class="edge">
<title>AuthorizationModule&#45;&gt;OauthModule</title>
<path fill="none" stroke="black" d="M211,-84.91C211,-104.14 211,-131.8 211,-131.8 211,-131.8 531.01,-131.8 531.01,-131.8"/>
<polygon fill="black" stroke="black" points="531.01,-135.3 541.01,-131.8 531.01,-128.3 531.01,-135.3"/>
</g>
<!-- LoggerModule -->
<g id="node2" class="node">
<title>LoggerModule</title>
<polygon fill="#8dd3c7" stroke="black" points="123.98,-84.8 120.98,-88.8 99.98,-88.8 96.98,-84.8 24.02,-84.8 24.02,-48.8 123.98,-48.8 123.98,-84.8"/>
<text text-anchor="middle" x="74" y="-62.6" font-family="Times,serif" font-size="14.00">LoggerModule</text>
</g>
<!-- LoggerModule&#45;&gt;OauthModule -->
<g id="edge2" class="edge">
<title>LoggerModule&#45;&gt;OauthModule</title>
<path fill="none" stroke="black" d="M74,-85.09C74,-107.01 74,-140.8 74,-140.8 74,-140.8 531.02,-140.8 531.02,-140.8"/>
<polygon fill="black" stroke="black" points="531.02,-144.3 541.02,-140.8 531.02,-137.3 531.02,-144.3"/>
</g>
<!-- OauthUc  -->
<g id="node4" class="node">
<title>OauthUc </title>
<polygon fill="#fb8072" stroke="black" points="623.04,-214.8 552.96,-214.8 552.96,-178.8 623.04,-178.8 623.04,-214.8"/>
<text text-anchor="middle" x="588" y="-192.6" font-family="Times,serif" font-size="14.00">OauthUc </text>
</g>
<!-- OauthModule&#45;&gt;OauthUc  -->
<g id="edge3" class="edge">
<title>OauthModule&#45;&gt;OauthUc </title>
<path fill="none" stroke="black" stroke-dasharray="5,2" d="M588,-149.91C588,-149.91 588,-168.79 588,-168.79"/>
<polygon fill="black" stroke="black" points="584.5,-168.79 588,-178.79 591.5,-168.79 584.5,-168.79"/>
</g>
<!-- IservOAuthService -->
<g id="node5" class="node">
<title>IservOAuthService</title>
<ellipse fill="#fdb462" stroke="black" cx="1192" cy="-66.8" rx="85.67" ry="18"/>
<text text-anchor="middle" x="1192" y="-62.6" font-family="Times,serif" font-size="14.00">IservOAuthService</text>
</g>
<!-- IservOAuthService&#45;&gt;OauthModule -->
<g id="edge4" class="edge">
<title>IservOAuthService&#45;&gt;OauthModule</title>
<path fill="none" stroke="black" d="M1192,-85.09C1192,-107.01 1192,-140.8 1192,-140.8 1192,-140.8 644.89,-140.8 644.89,-140.8"/>
<polygon fill="black" stroke="black" points="644.89,-137.3 634.89,-140.8 644.89,-144.3 644.89,-137.3"/>
</g>
<!-- OAuthService -->
<g id="node6" class="node">
<title>OAuthService</title>
<ellipse fill="#fdb462" stroke="black" cx="1022" cy="-66.8" rx="66.06" ry="18"/>
<text text-anchor="middle" x="1022" y="-62.6" font-family="Times,serif" font-size="14.00">OAuthService</text>
</g>
<!-- OAuthService&#45;&gt;OauthModule -->
<g id="edge5" class="edge">
<title>OAuthService&#45;&gt;OauthModule</title>
<path fill="none" stroke="black" d="M1022,-84.91C1022,-104.14 1022,-131.8 1022,-131.8 1022,-131.8 644.86,-131.8 644.86,-131.8"/>
<polygon fill="black" stroke="black" points="644.86,-128.3 634.86,-131.8 644.86,-135.3 644.86,-128.3"/>
</g>
<!-- OauthUc -->
<g id="node7" class="node">
<title>OauthUc</title>
<ellipse fill="#fdb462" stroke="black" cx="892" cy="-66.8" rx="45.79" ry="18"/>
<text text-anchor="middle" x="892" y="-62.6" font-family="Times,serif" font-size="14.00">OauthUc</text>
</g>
<!-- OauthUc&#45;&gt;OauthModule -->
<g id="edge6" class="edge">
<title>OauthUc&#45;&gt;OauthModule</title>
<path fill="none" stroke="black" d="M892,-84.83C892,-101.2 892,-122.8 892,-122.8 892,-122.8 644.83,-122.8 644.83,-122.8"/>
<polygon fill="black" stroke="black" points="644.83,-119.3 634.83,-122.8 644.83,-126.3 644.83,-119.3"/>
</g>
<!-- SymetricKeyEncryptionService -->
<g id="node8" class="node">
<title>SymetricKeyEncryptionService</title>
<ellipse fill="#fdb462" stroke="black" cx="694" cy="-66.8" rx="133.71" ry="18"/>
<text text-anchor="middle" x="694" y="-62.6" font-family="Times,serif" font-size="14.00">SymetricKeyEncryptionService</text>
</g>
<!-- SymetricKeyEncryptionService&#45;&gt;OauthModule -->
<g id="edge7" class="edge">
<title>SymetricKeyEncryptionService&#45;&gt;OauthModule</title>
<path fill="none" stroke="black" d="M597.51,-79.33C597.51,-79.33 597.51,-103.65 597.51,-103.65"/>
<polygon fill="black" stroke="black" points="594.01,-103.65 597.51,-113.65 601.01,-103.65 594.01,-103.65"/>
</g>
<!-- SystemRepo -->
<g id="node9" class="node">
<title>SystemRepo</title>
<ellipse fill="#fdb462" stroke="black" cx="482" cy="-66.8" rx="59.72" ry="18"/>
<text text-anchor="middle" x="482" y="-62.6" font-family="Times,serif" font-size="14.00">SystemRepo</text>
</g>
<!-- SystemRepo&#45;&gt;OauthModule -->
<g id="edge8" class="edge">
<title>SystemRepo&#45;&gt;OauthModule</title>
<path fill="none" stroke="black" d="M541.98,-66.8C547.46,-66.8 551,-66.8 551,-66.8 551,-66.8 551,-103.69 551,-103.69"/>
<polygon fill="black" stroke="black" points="547.5,-103.69 551,-113.69 554.5,-103.69 547.5,-103.69"/>
</g>
<!-- UserRepo -->
<g id="node10" class="node">
<title>UserRepo</title>
<ellipse fill="#fdb462" stroke="black" cx="354" cy="-66.8" rx="49.81" ry="18"/>
<text text-anchor="middle" x="354" y="-62.6" font-family="Times,serif" font-size="14.00">UserRepo</text>
</g>
<!-- UserRepo&#45;&gt;OauthModule -->
<g id="edge9" class="edge">
<title>UserRepo&#45;&gt;OauthModule</title>
<path fill="none" stroke="black" d="M354,-84.83C354,-101.2 354,-122.8 354,-122.8 354,-122.8 531.21,-122.8 531.21,-122.8"/>
<polygon fill="black" stroke="black" points="531.21,-126.3 541.21,-122.8 531.21,-119.3 531.21,-126.3"/>
</g>
</g>
</svg>
