<?xml version="1.0" encoding="UTF-8" standalone="no"?>
<!DOCTYPE svg PUBLIC "-//W3C//DTD SVG 1.1//EN"
 "http://www.w3.org/Graphics/SVG/1.1/DTD/svg11.dtd">
<!-- Generated by graphviz version 5.0.0 (20220707.1540)
 -->
<!-- Title: dependencies Pages: 1 -->
<svg width="1026pt" height="247pt"
 viewBox="0.00 0.00 1026.00 246.80" xmlns="http://www.w3.org/2000/svg" xmlns:xlink="http://www.w3.org/1999/xlink">
<g id="graph0" class="graph" transform="scale(1 1) rotate(0) translate(4 242.8)">
<title>dependencies</title>
<polygon fill="white" stroke="transparent" points="-4,4 -4,-242.8 1022,-242.8 1022,4 -4,4"/>
<text text-anchor="middle" x="509" y="-8.2" font-family="sans-serif" font-size="14.00">dependencies</text>
<g id="clust1" class="cluster">
<title>cluster_OauthModule</title>
<polygon fill="none" stroke="black" stroke-dasharray="1,5" points="8,-32.8 8,-230.8 1010,-230.8 1010,-32.8 8,-32.8"/>
</g>
<g id="clust4" class="cluster">
<title>cluster_OauthModule_exports</title>
<polygon fill="none" stroke="black" points="416,-170.8 416,-222.8 666,-222.8 666,-170.8 416,-170.8"/>
</g>
<g id="clust3" class="cluster">
<title>cluster_OauthModule_imports</title>
<polygon fill="none" stroke="black" points="486,-40.8 486,-92.8 1002,-92.8 1002,-40.8 486,-40.8"/>
</g>
<g id="clust6" class="cluster">
<title>cluster_OauthModule_providers</title>
<polygon fill="none" stroke="black" points="16,-40.8 16,-92.8 478,-92.8 478,-40.8 16,-40.8"/>
</g>
<!-- AuthorizationModule -->
<g id="node1" class="node">
<title>AuthorizationModule</title>
<polygon fill="#8dd3c7" stroke="black" points="993.81,-84.8 990.81,-88.8 969.81,-88.8 966.81,-84.8 856.19,-84.8 856.19,-48.8 993.81,-48.8 993.81,-84.8"/>
<text text-anchor="middle" x="925" y="-62.6" font-family="Times,serif" font-size="14.00">AuthorizationModule</text>
</g>
<!-- OauthModule -->
<g id="node5" class="node">
<title>OauthModule</title>
<polygon fill="#8dd3c7" stroke="black" points="583.77,-149.8 580.77,-153.8 559.77,-153.8 556.77,-149.8 490.23,-149.8 490.23,-113.8 583.77,-113.8 583.77,-149.8"/>
<text text-anchor="middle" x="537" y="-127.6" font-family="Times,serif" font-size="14.00">OauthModule</text>
</g>
<!-- AuthorizationModule&#45;&gt;OauthModule -->
<g id="edge1" class="edge">
<title>AuthorizationModule&#45;&gt;OauthModule</title>
<path fill="none" stroke="black" d="M925,-85.09C925,-107.01 925,-140.8 925,-140.8 925,-140.8 593.8,-140.8 593.8,-140.8"/>
<polygon fill="black" stroke="black" points="593.8,-137.3 583.8,-140.8 593.8,-144.3 593.8,-137.3"/>
</g>
<!-- EncryptionModule -->
<g id="node2" class="node">
<title>EncryptionModule</title>
<polygon fill="#8dd3c7" stroke="black" points="837.76,-84.8 834.76,-88.8 813.76,-88.8 810.76,-84.8 716.24,-84.8 716.24,-48.8 837.76,-48.8 837.76,-84.8"/>
<text text-anchor="middle" x="777" y="-62.6" font-family="Times,serif" font-size="14.00">EncryptionModule</text>
</g>
<!-- EncryptionModule&#45;&gt;OauthModule -->
<g id="edge2" class="edge">
<title>EncryptionModule&#45;&gt;OauthModule</title>
<path fill="none" stroke="black" d="M777,-84.91C777,-104.14 777,-131.8 777,-131.8 777,-131.8 593.84,-131.8 593.84,-131.8"/>
<polygon fill="black" stroke="black" points="593.84,-128.3 583.84,-131.8 593.84,-135.3 593.84,-128.3"/>
</g>
<!-- LoggerModule -->
<g id="node3" class="node">
<title>LoggerModule</title>
<polygon fill="#8dd3c7" stroke="black" points="697.98,-84.8 694.98,-88.8 673.98,-88.8 670.98,-84.8 598.02,-84.8 598.02,-48.8 697.98,-48.8 697.98,-84.8"/>
<text text-anchor="middle" x="648" y="-62.6" font-family="Times,serif" font-size="14.00">LoggerModule</text>
</g>
<!-- LoggerModule&#45;&gt;OauthModule -->
<g id="edge3" class="edge">
<title>LoggerModule&#45;&gt;OauthModule</title>
<path fill="none" stroke="black" d="M628.18,-84.83C628.18,-101.2 628.18,-122.8 628.18,-122.8 628.18,-122.8 593.93,-122.8 593.93,-122.8"/>
<polygon fill="black" stroke="black" points="593.93,-119.3 583.93,-122.8 593.93,-126.3 593.93,-119.3"/>
</g>
<!-- UserModule -->
<g id="node4" class="node">
<title>UserModule</title>
<polygon fill="#8dd3c7" stroke="black" points="579.99,-84.8 576.99,-88.8 555.99,-88.8 552.99,-84.8 494.01,-84.8 494.01,-48.8 579.99,-48.8 579.99,-84.8"/>
<text text-anchor="middle" x="537" y="-62.6" font-family="Times,serif" font-size="14.00">UserModule</text>
</g>
<!-- UserModule&#45;&gt;OauthModule -->
<g id="edge4" class="edge">
<title>UserModule&#45;&gt;OauthModule</title>
<path fill="none" stroke="black" d="M537,-84.91C537,-84.91 537,-103.79 537,-103.79"/>
<polygon fill="black" stroke="black" points="533.5,-103.79 537,-113.79 540.5,-103.79 533.5,-103.79"/>
</g>
<!-- HydraSsoService  -->
<g id="node6" class="node">
<title>HydraSsoService </title>
<polygon fill="#fb8072" stroke="black" points="658.2,-214.8 541.8,-214.8 541.8,-178.8 658.2,-178.8 658.2,-214.8"/>
<text text-anchor="middle" x="600" y="-192.6" font-family="Times,serif" font-size="14.00">HydraSsoService </text>
</g>
<!-- OauthModule&#45;&gt;HydraSsoService  -->
<g id="edge5" class="edge">
<title>OauthModule&#45;&gt;HydraSsoService </title>
<path fill="none" stroke="black" stroke-dasharray="5,2" d="M562.77,-149.91C562.77,-149.91 562.77,-168.79 562.77,-168.79"/>
<polygon fill="black" stroke="black" points="559.27,-168.79 562.77,-178.79 566.27,-168.79 559.27,-168.79"/>
</g>
<!-- OAuthService  -->
<g id="node7" class="node">
<title>OAuthService </title>
<polygon fill="#fb8072" stroke="black" points="523.59,-214.8 424.41,-214.8 424.41,-178.8 523.59,-178.8 523.59,-214.8"/>
<text text-anchor="middle" x="474" y="-192.6" font-family="Times,serif" font-size="14.00">OAuthService </text>
</g>
<!-- OauthModule&#45;&gt;OAuthService  -->
<g id="edge6" class="edge">
<title>OauthModule&#45;&gt;OAuthService </title>
<path fill="none" stroke="black" stroke-dasharray="5,2" d="M506.96,-149.91C506.96,-149.91 506.96,-168.79 506.96,-168.79"/>
<polygon fill="black" stroke="black" points="503.46,-168.79 506.96,-178.79 510.46,-168.79 503.46,-168.79"/>
</g>
<!-- HydraSsoService -->
<g id="node8" class="node">
<title>HydraSsoService</title>
<ellipse fill="#fdb462" stroke="black" cx="392" cy="-66.8" rx="78.17" ry="18"/>
<text text-anchor="middle" x="392" y="-62.6" font-family="Times,serif" font-size="14.00">HydraSsoService</text>
</g>
<!-- HydraSsoService&#45;&gt;OauthModule -->
<g id="edge7" class="edge">
<title>HydraSsoService&#45;&gt;OauthModule</title>
<path fill="none" stroke="black" d="M447.14,-79.79C447.14,-96.33 447.14,-122.8 447.14,-122.8 447.14,-122.8 480.23,-122.8 480.23,-122.8"/>
<polygon fill="black" stroke="black" points="480.23,-126.3 490.23,-122.8 480.23,-119.3 480.23,-126.3"/>
</g>
<!-- LtiToolRepo -->
<g id="node9" class="node">
<title>LtiToolRepo</title>
<ellipse fill="#fdb462" stroke="black" cx="235" cy="-66.8" rx="60.85" ry="18"/>
<text text-anchor="middle" x="235" y="-62.6" font-family="Times,serif" font-size="14.00">LtiToolRepo</text>
</g>
<!-- LtiToolRepo&#45;&gt;OauthModule -->
<g id="edge8" class="edge">
<title>LtiToolRepo&#45;&gt;OauthModule</title>
<path fill="none" stroke="black" d="M235,-84.91C235,-104.14 235,-131.8 235,-131.8 235,-131.8 480.14,-131.8 480.14,-131.8"/>
<polygon fill="black" stroke="black" points="480.14,-135.3 490.14,-131.8 480.14,-128.3 480.14,-135.3"/>
</g>
<!-- OAuthService -->
<g id="node10" class="node">
<title>OAuthService</title>
<ellipse fill="#fdb462" stroke="black" cx="90" cy="-66.8" rx="66.06" ry="18"/>
<text text-anchor="middle" x="90" y="-62.6" font-family="Times,serif" font-size="14.00">OAuthService</text>
</g>
<!-- OAuthService&#45;&gt;OauthModule -->
<g id="edge9" class="edge">
<title>OAuthService&#45;&gt;OauthModule</title>
<path fill="none" stroke="black" d="M90,-85.09C90,-107.01 90,-140.8 90,-140.8 90,-140.8 480.01,-140.8 480.01,-140.8"/>
<polygon fill="black" stroke="black" points="480.01,-144.3 490.01,-140.8 480.01,-137.3 480.01,-144.3"/>
</g>
</g>
</svg>
