<?xml version="1.0" encoding="UTF-8" standalone="no"?>
<!DOCTYPE svg PUBLIC "-//W3C//DTD SVG 1.1//EN"
 "http://www.w3.org/Graphics/SVG/1.1/DTD/svg11.dtd">
<!-- Generated by graphviz version 5.0.0 (20220707.1540)
 -->
<!-- Title: dependencies Pages: 1 -->
<svg width="1616pt" height="247pt"
 viewBox="0.00 0.00 1616.00 246.80" xmlns="http://www.w3.org/2000/svg" xmlns:xlink="http://www.w3.org/1999/xlink">
<g id="graph0" class="graph" transform="scale(1 1) rotate(0) translate(4 242.8)">
<title>dependencies</title>
<polygon fill="white" stroke="transparent" points="-4,4 -4,-242.8 1612,-242.8 1612,4 -4,4"/>
<text text-anchor="middle" x="804" y="-8.2" font-family="sans-serif" font-size="14.00">dependencies</text>
<g id="clust1" class="cluster">
<title>cluster_OauthModule</title>
<polygon fill="none" stroke="black" stroke-dasharray="1,5" points="8,-32.8 8,-230.8 1600,-230.8 1600,-32.8 8,-32.8"/>
</g>
<g id="clust3" class="cluster">
<title>cluster_OauthModule_imports</title>
<polygon fill="none" stroke="black" points="1062,-40.8 1062,-92.8 1592,-92.8 1592,-40.8 1062,-40.8"/>
</g>
<g id="clust6" class="cluster">
<title>cluster_OauthModule_providers</title>
<polygon fill="none" stroke="black" points="16,-40.8 16,-92.8 1054,-92.8 1054,-40.8 16,-40.8"/>
</g>
<g id="clust4" class="cluster">
<title>cluster_OauthModule_exports</title>
<polygon fill="none" stroke="black" points="767,-170.8 767,-222.8 853,-222.8 853,-170.8 767,-170.8"/>
</g>
<!-- AuthorizationModule -->
<g id="node1" class="node">
<title>AuthorizationModule</title>
<polygon fill="#8dd3c7" stroke="black" points="1583.81,-84.8 1580.81,-88.8 1559.81,-88.8 1556.81,-84.8 1446.19,-84.8 1446.19,-48.8 1583.81,-48.8 1583.81,-84.8"/>
<text text-anchor="middle" x="1515" y="-62.6" font-family="Times,serif" font-size="14.00">AuthorizationModule</text>
</g>
<!-- OauthModule -->
<g id="node5" class="node">
<title>OauthModule</title>
<polygon fill="#8dd3c7" stroke="black" points="856.77,-149.8 853.77,-153.8 832.77,-153.8 829.77,-149.8 763.23,-149.8 763.23,-113.8 856.77,-113.8 856.77,-149.8"/>
<text text-anchor="middle" x="810" y="-127.6" font-family="Times,serif" font-size="14.00">OauthModule</text>
</g>
<!-- AuthorizationModule&#45;&gt;OauthModule -->
<g id="edge1" class="edge">
<title>AuthorizationModule&#45;&gt;OauthModule</title>
<path fill="none" stroke="black" d="M1515,-85.05C1515,-107.82 1515,-143.8 1515,-143.8 1515,-143.8 866.8,-143.8 866.8,-143.8"/>
<polygon fill="black" stroke="black" points="866.8,-140.3 856.8,-143.8 866.8,-147.3 866.8,-140.3"/>
</g>
<!-- EncryptionModule -->
<g id="node2" class="node">
<title>EncryptionModule</title>
<polygon fill="#8dd3c7" stroke="black" points="1427.76,-84.8 1424.76,-88.8 1403.76,-88.8 1400.76,-84.8 1306.24,-84.8 1306.24,-48.8 1427.76,-48.8 1427.76,-84.8"/>
<text text-anchor="middle" x="1367" y="-62.6" font-family="Times,serif" font-size="14.00">EncryptionModule</text>
</g>
<!-- EncryptionModule&#45;&gt;OauthModule -->
<g id="edge2" class="edge">
<title>EncryptionModule&#45;&gt;OauthModule</title>
<path fill="none" stroke="black" d="M1367,-85.08C1367,-106.12 1367,-137.8 1367,-137.8 1367,-137.8 867.01,-137.8 867.01,-137.8"/>
<polygon fill="black" stroke="black" points="867.01,-134.3 857.01,-137.8 867.01,-141.3 867.01,-134.3"/>
</g>
<!-- LoggerModule -->
<g id="node3" class="node">
<title>LoggerModule</title>
<polygon fill="#8dd3c7" stroke="black" points="1287.98,-84.8 1284.98,-88.8 1263.98,-88.8 1260.98,-84.8 1188.02,-84.8 1188.02,-48.8 1287.98,-48.8 1287.98,-84.8"/>
<text text-anchor="middle" x="1238" y="-62.6" font-family="Times,serif" font-size="14.00">LoggerModule</text>
</g>
<!-- LoggerModule&#45;&gt;OauthModule -->
<g id="edge3" class="edge">
<title>LoggerModule&#45;&gt;OauthModule</title>
<path fill="none" stroke="black" d="M1238,-84.91C1238,-104.14 1238,-131.8 1238,-131.8 1238,-131.8 867.03,-131.8 867.03,-131.8"/>
<polygon fill="black" stroke="black" points="867.03,-128.3 857.03,-131.8 867.03,-135.3 867.03,-128.3"/>
</g>
<!-- SystemModule -->
<g id="node4" class="node">
<title>SystemModule</title>
<polygon fill="#8dd3c7" stroke="black" points="1170.28,-84.8 1167.28,-88.8 1146.28,-88.8 1143.28,-84.8 1069.72,-84.8 1069.72,-48.8 1170.28,-48.8 1170.28,-84.8"/>
<text text-anchor="middle" x="1120" y="-62.6" font-family="Times,serif" font-size="14.00">SystemModule</text>
</g>
<!-- SystemModule&#45;&gt;OauthModule -->
<g id="edge4" class="edge">
<title>SystemModule&#45;&gt;OauthModule</title>
<path fill="none" stroke="black" d="M1120,-84.82C1120,-102.17 1120,-125.8 1120,-125.8 1120,-125.8 867.08,-125.8 867.08,-125.8"/>
<polygon fill="black" stroke="black" points="867.08,-122.3 857.08,-125.8 867.08,-129.3 867.08,-122.3"/>
</g>
<!-- OauthUc  -->
<g id="node6" class="node">
<title>OauthUc </title>
<polygon fill="#fb8072" stroke="black" points="845.04,-214.8 774.96,-214.8 774.96,-178.8 845.04,-178.8 845.04,-214.8"/>
<text text-anchor="middle" x="810" y="-192.6" font-family="Times,serif" font-size="14.00">OauthUc </text>
</g>
<!-- OauthModule&#45;&gt;OauthUc  -->
<g id="edge5" class="edge">
<title>OauthModule&#45;&gt;OauthUc </title>
<path fill="none" stroke="black" stroke-dasharray="5,2" d="M810,-149.91C810,-149.91 810,-168.79 810,-168.79"/>
<polygon fill="black" stroke="black" points="806.5,-168.79 810,-178.79 813.5,-168.79 806.5,-168.79"/>
</g>
<!-- HydraOauthUc -->
<g id="node7" class="node">
<title>HydraOauthUc</title>
<ellipse fill="#fdb462" stroke="black" cx="976" cy="-66.8" rx="70.06" ry="18"/>
<text text-anchor="middle" x="976" y="-62.6" font-family="Times,serif" font-size="14.00">HydraOauthUc</text>
</g>
<!-- HydraOauthUc&#45;&gt;OauthModule -->
<g id="edge6" class="edge">
<title>HydraOauthUc&#45;&gt;OauthModule</title>
<path fill="none" stroke="black" d="M976,-85.04C976,-100.37 976,-119.8 976,-119.8 976,-119.8 867.12,-119.8 867.12,-119.8"/>
<polygon fill="black" stroke="black" points="867.12,-116.3 857.12,-119.8 867.12,-123.3 867.12,-116.3"/>
</g>
<!-- HydraSsoService -->
<g id="node8" class="node">
<title>HydraSsoService</title>
<ellipse fill="#fdb462" stroke="black" cx="810" cy="-66.8" rx="78.17" ry="18"/>
<text text-anchor="middle" x="810" y="-62.6" font-family="Times,serif" font-size="14.00">HydraSsoService</text>
</g>
<!-- HydraSsoService&#45;&gt;OauthModule -->
<g id="edge7" class="edge">
<title>HydraSsoService&#45;&gt;OauthModule</title>
<path fill="none" stroke="black" d="M810,-84.91C810,-84.91 810,-103.79 810,-103.79"/>
<polygon fill="black" stroke="black" points="806.5,-103.79 810,-113.79 813.5,-103.79 806.5,-103.79"/>
</g>
<!-- IservOAuthService -->
<g id="node9" class="node">
<title>IservOAuthService</title>
<ellipse fill="#fdb462" stroke="black" cx="628" cy="-66.8" rx="85.67" ry="18"/>
<text text-anchor="middle" x="628" y="-62.6" font-family="Times,serif" font-size="14.00">IservOAuthService</text>
</g>
<!-- IservOAuthService&#45;&gt;OauthModule -->
<g id="edge8" class="edge">
<title>IservOAuthService&#45;&gt;OauthModule</title>
<path fill="none" stroke="black" d="M628,-85.04C628,-100.37 628,-119.8 628,-119.8 628,-119.8 753.13,-119.8 753.13,-119.8"/>
<polygon fill="black" stroke="black" points="753.13,-123.3 763.13,-119.8 753.13,-116.3 753.13,-123.3"/>
</g>
<!-- LtiToolRepo -->
<g id="node10" class="node">
<title>LtiToolRepo</title>
<ellipse fill="#fdb462" stroke="black" cx="463" cy="-66.8" rx="60.85" ry="18"/>
<text text-anchor="middle" x="463" y="-62.6" font-family="Times,serif" font-size="14.00">LtiToolRepo</text>
</g>
<!-- LtiToolRepo&#45;&gt;OauthModule -->
<g id="edge9" class="edge">
<title>LtiToolRepo&#45;&gt;OauthModule</title>
<path fill="none" stroke="black" d="M463,-84.82C463,-102.17 463,-125.8 463,-125.8 463,-125.8 753.2,-125.8 753.2,-125.8"/>
<polygon fill="black" stroke="black" points="753.2,-129.3 763.2,-125.8 753.2,-122.3 753.2,-129.3"/>
</g>
<!-- OAuthService -->
<g id="node11" class="node">
<title>OAuthService</title>
<ellipse fill="#fdb462" stroke="black" cx="318" cy="-66.8" rx="66.06" ry="18"/>
<text text-anchor="middle" x="318" y="-62.6" font-family="Times,serif" font-size="14.00">OAuthService</text>
</g>
<!-- OAuthService&#45;&gt;OauthModule -->
<g id="edge10" class="edge">
<title>OAuthService&#45;&gt;OauthModule</title>
<path fill="none" stroke="black" d="M318,-84.91C318,-104.14 318,-131.8 318,-131.8 318,-131.8 752.82,-131.8 752.82,-131.8"/>
<polygon fill="black" stroke="black" points="752.83,-135.3 762.82,-131.8 752.82,-128.3 752.83,-135.3"/>
</g>
<!-- OauthUc -->
<g id="node12" class="node">
<title>OauthUc</title>
<ellipse fill="#fdb462" stroke="black" cx="188" cy="-66.8" rx="45.79" ry="18"/>
<text text-anchor="middle" x="188" y="-62.6" font-family="Times,serif" font-size="14.00">OauthUc</text>
</g>
<!-- OauthUc&#45;&gt;OauthModule -->
<g id="edge11" class="edge">
<title>OauthUc&#45;&gt;OauthModule</title>
<path fill="none" stroke="black" d="M188,-85.08C188,-106.12 188,-137.8 188,-137.8 188,-137.8 752.99,-137.8 752.99,-137.8"/>
<polygon fill="black" stroke="black" points="752.99,-141.3 762.99,-137.8 752.99,-134.3 752.99,-141.3"/>
</g>
<!-- UserRepo -->
<g id="node13" class="node">
<title>UserRepo</title>
<ellipse fill="#fdb462" stroke="black" cx="74" cy="-66.8" rx="49.81" ry="18"/>
<text text-anchor="middle" x="74" y="-62.6" font-family="Times,serif" font-size="14.00">UserRepo</text>
</g>
<!-- UserRepo&#45;&gt;OauthModule -->
<g id="edge12" class="edge">
<title>UserRepo&#45;&gt;OauthModule</title>
<path fill="none" stroke="black" d="M74,-85.05C74,-107.82 74,-143.8 74,-143.8 74,-143.8 753.12,-143.8 753.12,-143.8"/>
<polygon fill="black" stroke="black" points="753.12,-147.3 763.12,-143.8 753.12,-140.3 753.12,-147.3"/>
</g>
</g>
</svg>
