<?xml version="1.0" encoding="UTF-8" standalone="no"?>
<!DOCTYPE svg PUBLIC "-//W3C//DTD SVG 1.1//EN"
 "http://www.w3.org/Graphics/SVG/1.1/DTD/svg11.dtd">
<!-- Generated by graphviz version 5.0.0 (20220707.1540)
 -->
<!-- Title: dependencies Pages: 1 -->
<svg width="1696pt" height="247pt"
 viewBox="0.00 0.00 1696.00 246.80" xmlns="http://www.w3.org/2000/svg" xmlns:xlink="http://www.w3.org/1999/xlink">
<g id="graph0" class="graph" transform="scale(1 1) rotate(0) translate(4 242.8)">
<title>dependencies</title>
<polygon fill="white" stroke="transparent" points="-4,4 -4,-242.8 1692,-242.8 1692,4 -4,4"/>
<text text-anchor="middle" x="844" y="-8.2" font-family="sans-serif" font-size="14.00">dependencies</text>
<g id="clust1" class="cluster">
<title>cluster_OauthModule</title>
<polygon fill="none" stroke="black" stroke-dasharray="1,5" points="8,-32.8 8,-230.8 1680,-230.8 1680,-32.8 8,-32.8"/>
</g>
<g id="clust6" class="cluster">
<title>cluster_OauthModule_providers</title>
<polygon fill="none" stroke="black" points="1002,-40.8 1002,-92.8 1672,-92.8 1672,-40.8 1002,-40.8"/>
</g>
<g id="clust4" class="cluster">
<title>cluster_OauthModule_exports</title>
<polygon fill="none" stroke="black" points="648,-170.8 648,-222.8 898,-222.8 898,-170.8 648,-170.8"/>
</g>
<g id="clust3" class="cluster">
<title>cluster_OauthModule_imports</title>
<polygon fill="none" stroke="black" points="16,-40.8 16,-92.8 994,-92.8 994,-40.8 16,-40.8"/>
</g>
<!-- AuthorizationModule -->
<g id="node1" class="node">
<title>AuthorizationModule</title>
<polygon fill="#8dd3c7" stroke="black" points="985.81,-84.8 982.81,-88.8 961.81,-88.8 958.81,-84.8 848.19,-84.8 848.19,-48.8 985.81,-48.8 985.81,-84.8"/>
<text text-anchor="middle" x="917" y="-62.6" font-family="Times,serif" font-size="14.00">AuthorizationModule</text>
</g>
<!-- OauthModule -->
<g id="node8" class="node">
<title>OauthModule</title>
<polygon fill="#8dd3c7" stroke="black" points="815.77,-149.8 812.77,-153.8 791.77,-153.8 788.77,-149.8 722.23,-149.8 722.23,-113.8 815.77,-113.8 815.77,-149.8"/>
<text text-anchor="middle" x="769" y="-127.6" font-family="Times,serif" font-size="14.00">OauthModule</text>
</g>
<!-- AuthorizationModule&#45;&gt;OauthModule -->
<g id="edge1" class="edge">
<title>AuthorizationModule&#45;&gt;OauthModule</title>
<path fill="none" stroke="black" d="M869.35,-85.04C869.35,-100.37 869.35,-119.8 869.35,-119.8 869.35,-119.8 825.94,-119.8 825.94,-119.8"/>
<polygon fill="black" stroke="black" points="825.94,-116.3 815.94,-119.8 825.94,-123.3 825.94,-116.3"/>
</g>
<!-- EncryptionModule -->
<g id="node2" class="node">
<title>EncryptionModule</title>
<polygon fill="#8dd3c7" stroke="black" points="829.76,-84.8 826.76,-88.8 805.76,-88.8 802.76,-84.8 708.24,-84.8 708.24,-48.8 829.76,-48.8 829.76,-84.8"/>
<text text-anchor="middle" x="769" y="-62.6" font-family="Times,serif" font-size="14.00">EncryptionModule</text>
</g>
<!-- EncryptionModule&#45;&gt;OauthModule -->
<g id="edge2" class="edge">
<title>EncryptionModule&#45;&gt;OauthModule</title>
<path fill="none" stroke="black" d="M769,-84.91C769,-84.91 769,-103.79 769,-103.79"/>
<polygon fill="black" stroke="black" points="765.5,-103.79 769,-113.79 772.5,-103.79 765.5,-103.79"/>
</g>
<!-- LoggerModule -->
<g id="node3" class="node">
<title>LoggerModule</title>
<polygon fill="#8dd3c7" stroke="black" points="689.98,-84.8 686.98,-88.8 665.98,-88.8 662.98,-84.8 590.02,-84.8 590.02,-48.8 689.98,-48.8 689.98,-84.8"/>
<text text-anchor="middle" x="640" y="-62.6" font-family="Times,serif" font-size="14.00">LoggerModule</text>
</g>
<!-- LoggerModule&#45;&gt;OauthModule -->
<g id="edge3" class="edge">
<title>LoggerModule&#45;&gt;OauthModule</title>
<path fill="none" stroke="black" d="M673.1,-85.04C673.1,-100.37 673.1,-119.8 673.1,-119.8 673.1,-119.8 712.17,-119.8 712.17,-119.8"/>
<polygon fill="black" stroke="black" points="712.17,-123.3 722.17,-119.8 712.17,-116.3 712.17,-123.3"/>
</g>
<!-- ProvisioningModule -->
<g id="node4" class="node">
<title>ProvisioningModule</title>
<polygon fill="#8dd3c7" stroke="black" points="571.62,-84.8 568.62,-88.8 547.62,-88.8 544.62,-84.8 440.38,-84.8 440.38,-48.8 571.62,-48.8 571.62,-84.8"/>
<text text-anchor="middle" x="506" y="-62.6" font-family="Times,serif" font-size="14.00">ProvisioningModule</text>
</g>
<!-- ProvisioningModule&#45;&gt;OauthModule -->
<g id="edge4" class="edge">
<title>ProvisioningModule&#45;&gt;OauthModule</title>
<path fill="none" stroke="black" d="M506,-84.82C506,-102.17 506,-125.8 506,-125.8 506,-125.8 711.98,-125.8 711.98,-125.8"/>
<polygon fill="black" stroke="black" points="711.98,-129.3 721.98,-125.8 711.98,-122.3 711.98,-129.3"/>
</g>
<!-- SystemModule -->
<g id="node5" class="node">
<title>SystemModule</title>
<polygon fill="#8dd3c7" stroke="black" points="422.28,-84.8 419.28,-88.8 398.28,-88.8 395.28,-84.8 321.72,-84.8 321.72,-48.8 422.28,-48.8 422.28,-84.8"/>
<text text-anchor="middle" x="372" y="-62.6" font-family="Times,serif" font-size="14.00">SystemModule</text>
</g>
<!-- SystemModule&#45;&gt;OauthModule -->
<g id="edge5" class="edge">
<title>SystemModule&#45;&gt;OauthModule</title>
<path fill="none" stroke="black" d="M372,-84.91C372,-104.14 372,-131.8 372,-131.8 372,-131.8 711.9,-131.8 711.9,-131.8"/>
<polygon fill="black" stroke="black" points="711.9,-135.3 721.9,-131.8 711.9,-128.3 711.9,-135.3"/>
</g>
<!-- UserLoginMigrationModule -->
<g id="node6" class="node">
<title>UserLoginMigrationModule</title>
<polygon fill="#8dd3c7" stroke="black" points="303.92,-84.8 300.92,-88.8 279.92,-88.8 276.92,-84.8 128.08,-84.8 128.08,-48.8 303.92,-48.8 303.92,-84.8"/>
<text text-anchor="middle" x="216" y="-62.6" font-family="Times,serif" font-size="14.00">UserLoginMigrationModule</text>
</g>
<!-- UserLoginMigrationModule&#45;&gt;OauthModule -->
<g id="edge6" class="edge">
<title>UserLoginMigrationModule&#45;&gt;OauthModule</title>
<path fill="none" stroke="black" d="M216,-85.08C216,-106.12 216,-137.8 216,-137.8 216,-137.8 711.85,-137.8 711.85,-137.8"/>
<polygon fill="black" stroke="black" points="711.85,-141.3 721.85,-137.8 711.85,-134.3 711.85,-141.3"/>
</g>
<!-- UserModule -->
<g id="node7" class="node">
<title>UserModule</title>
<polygon fill="#8dd3c7" stroke="black" points="109.99,-84.8 106.99,-88.8 85.99,-88.8 82.99,-84.8 24.01,-84.8 24.01,-48.8 109.99,-48.8 109.99,-84.8"/>
<text text-anchor="middle" x="67" y="-62.6" font-family="Times,serif" font-size="14.00">UserModule</text>
</g>
<!-- UserModule&#45;&gt;OauthModule -->
<g id="edge7" class="edge">
<title>UserModule&#45;&gt;OauthModule</title>
<path fill="none" stroke="black" d="M67,-85.05C67,-107.82 67,-143.8 67,-143.8 67,-143.8 712.12,-143.8 712.12,-143.8"/>
<polygon fill="black" stroke="black" points="712.12,-147.3 722.12,-143.8 712.12,-140.3 712.12,-147.3"/>
</g>
<!-- HydraSsoService  -->
<g id="node9" class="node">
<title>HydraSsoService </title>
<polygon fill="#fb8072" stroke="black" points="890.2,-214.8 773.8,-214.8 773.8,-178.8 890.2,-178.8 890.2,-214.8"/>
<text text-anchor="middle" x="832" y="-192.6" font-family="Times,serif" font-size="14.00">HydraSsoService </text>
</g>
<!-- OauthModule&#45;&gt;HydraSsoService  -->
<g id="edge8" class="edge">
<title>OauthModule&#45;&gt;HydraSsoService </title>
<path fill="none" stroke="black" stroke-dasharray="5,2" d="M794.77,-149.91C794.77,-149.91 794.77,-168.79 794.77,-168.79"/>
<polygon fill="black" stroke="black" points="791.27,-168.79 794.77,-178.79 798.27,-168.79 791.27,-168.79"/>
</g>
<!-- OAuthService  -->
<g id="node10" class="node">
<title>OAuthService </title>
<polygon fill="#fb8072" stroke="black" points="755.59,-214.8 656.41,-214.8 656.41,-178.8 755.59,-178.8 755.59,-214.8"/>
<text text-anchor="middle" x="706" y="-192.6" font-family="Times,serif" font-size="14.00">OAuthService </text>
</g>
<!-- OauthModule&#45;&gt;OAuthService  -->
<g id="edge9" class="edge">
<title>OauthModule&#45;&gt;OAuthService </title>
<path fill="none" stroke="black" stroke-dasharray="5,2" d="M738.96,-149.91C738.96,-149.91 738.96,-168.79 738.96,-168.79"/>
<polygon fill="black" stroke="black" points="735.46,-168.79 738.96,-178.79 742.46,-168.79 735.46,-168.79"/>
</g>
<!-- HydraSsoService -->
<g id="node11" class="node">
<title>HydraSsoService</title>
<ellipse fill="#fdb462" stroke="black" cx="1586" cy="-66.8" rx="78.17" ry="18"/>
<text text-anchor="middle" x="1586" y="-62.6" font-family="Times,serif" font-size="14.00">HydraSsoService</text>
</g>
<!-- HydraSsoService&#45;&gt;OauthModule -->
<g id="edge10" class="edge">
<title>HydraSsoService&#45;&gt;OauthModule</title>
<path fill="none" stroke="black" d="M1586,-85.05C1586,-107.82 1586,-143.8 1586,-143.8 1586,-143.8 825.86,-143.8 825.86,-143.8"/>
<polygon fill="black" stroke="black" points="825.86,-140.3 815.86,-143.8 825.86,-147.3 825.86,-140.3"/>
</g>
<!-- LtiToolRepo -->
<g id="node12" class="node">
<title>LtiToolRepo</title>
<ellipse fill="#fdb462" stroke="black" cx="1429" cy="-66.8" rx="60.85" ry="18"/>
<text text-anchor="middle" x="1429" y="-62.6" font-family="Times,serif" font-size="14.00">LtiToolRepo</text>
</g>
<!-- LtiToolRepo&#45;&gt;OauthModule -->
<g id="edge11" class="edge">
<title>LtiToolRepo&#45;&gt;OauthModule</title>
<path fill="none" stroke="black" d="M1429,-85.08C1429,-106.12 1429,-137.8 1429,-137.8 1429,-137.8 825.94,-137.8 825.94,-137.8"/>
<polygon fill="black" stroke="black" points="825.94,-134.3 815.94,-137.8 825.94,-141.3 825.94,-134.3"/>
</g>
<!-- OAuthService -->
<g id="node13" class="node">
<title>OAuthService</title>
<ellipse fill="#fdb462" stroke="black" cx="1284" cy="-66.8" rx="66.06" ry="18"/>
<text text-anchor="middle" x="1284" y="-62.6" font-family="Times,serif" font-size="14.00">OAuthService</text>
</g>
<!-- OAuthService&#45;&gt;OauthModule -->
<g id="edge12" class="edge">
<title>OAuthService&#45;&gt;OauthModule</title>
<path fill="none" stroke="black" d="M1284,-84.91C1284,-104.14 1284,-131.8 1284,-131.8 1284,-131.8 826.07,-131.8 826.07,-131.8"/>
<polygon fill="black" stroke="black" points="826.07,-128.3 816.07,-131.8 826.07,-135.3 826.07,-128.3"/>
</g>
<!-- OauthAdapterService -->
<g id="node14" class="node">
<title>OauthAdapterService</title>
<ellipse fill="#fdb462" stroke="black" cx="1105" cy="-66.8" rx="94.89" ry="18"/>
<text text-anchor="middle" x="1105" y="-62.6" font-family="Times,serif" font-size="14.00">OauthAdapterService</text>
</g>
<!-- OauthAdapterService&#45;&gt;OauthModule -->
<g id="edge13" class="edge">
<title>OauthAdapterService&#45;&gt;OauthModule</title>
<path fill="none" stroke="black" d="M1105,-84.82C1105,-102.17 1105,-125.8 1105,-125.8 1105,-125.8 826.07,-125.8 826.07,-125.8"/>
<polygon fill="black" stroke="black" points="826.07,-122.3 816.07,-125.8 826.07,-129.3 826.07,-122.3"/>
</g>
</g>
</svg>
