<?xml version="1.0" encoding="UTF-8" standalone="no"?>
<!DOCTYPE svg PUBLIC "-//W3C//DTD SVG 1.1//EN"
 "http://www.w3.org/Graphics/SVG/1.1/DTD/svg11.dtd">
<!-- Generated by graphviz version 5.0.0 (20220707.1540)
 -->
<!-- Title: dependencies Pages: 1 -->
<svg width="1696pt" height="247pt"
 viewBox="0.00 0.00 1696.00 246.80" xmlns="http://www.w3.org/2000/svg" xmlns:xlink="http://www.w3.org/1999/xlink">
<g id="graph0" class="graph" transform="scale(1 1) rotate(0) translate(4 242.8)">
<title>dependencies</title>
<polygon fill="white" stroke="transparent" points="-4,4 -4,-242.8 1692,-242.8 1692,4 -4,4"/>
<text text-anchor="middle" x="844" y="-8.2" font-family="sans-serif" font-size="14.00">dependencies</text>
<g id="clust1" class="cluster">
<title>cluster_OauthModule</title>
<polygon fill="none" stroke="black" stroke-dasharray="1,5" points="8,-32.8 8,-230.8 1680,-230.8 1680,-32.8 8,-32.8"/>
</g>
<g id="clust3" class="cluster">
<title>cluster_OauthModule_imports</title>
<polygon fill="none" stroke="black" points="694,-40.8 694,-92.8 1672,-92.8 1672,-40.8 694,-40.8"/>
</g>
<g id="clust6" class="cluster">
<title>cluster_OauthModule_providers</title>
<polygon fill="none" stroke="black" points="16,-40.8 16,-92.8 686,-92.8 686,-40.8 16,-40.8"/>
</g>
<g id="clust4" class="cluster">
<title>cluster_OauthModule_exports</title>
<polygon fill="none" stroke="black" points="773,-170.8 773,-222.8 1023,-222.8 1023,-170.8 773,-170.8"/>
</g>
<!-- AuthorizationModule -->
<g id="node1" class="node">
<title>AuthorizationModule</title>
<polygon fill="#8dd3c7" stroke="black" points="1663.81,-84.8 1660.81,-88.8 1639.81,-88.8 1636.81,-84.8 1526.19,-84.8 1526.19,-48.8 1663.81,-48.8 1663.81,-84.8"/>
<text text-anchor="middle" x="1595" y="-62.6" font-family="Times,serif" font-size="14.00">AuthorizationModule</text>
</g>
<!-- OauthModule -->
<g id="node8" class="node">
<title>OauthModule</title>
<polygon fill="#8dd3c7" stroke="black" points="940.77,-149.8 937.77,-153.8 916.77,-153.8 913.77,-149.8 847.23,-149.8 847.23,-113.8 940.77,-113.8 940.77,-149.8"/>
<text text-anchor="middle" x="894" y="-127.6" font-family="Times,serif" font-size="14.00">OauthModule</text>
</g>
<!-- AuthorizationModule&#45;&gt;OauthModule -->
<g id="edge1" class="edge">
<title>AuthorizationModule&#45;&gt;OauthModule</title>
<path fill="none" stroke="black" d="M1595,-85.05C1595,-107.82 1595,-143.8 1595,-143.8 1595,-143.8 950.81,-143.8 950.81,-143.8"/>
<polygon fill="black" stroke="black" points="950.81,-140.3 940.81,-143.8 950.81,-147.3 950.81,-140.3"/>
</g>
<!-- EncryptionModule -->
<g id="node2" class="node">
<title>EncryptionModule</title>
<polygon fill="#8dd3c7" stroke="black" points="1507.76,-84.8 1504.76,-88.8 1483.76,-88.8 1480.76,-84.8 1386.24,-84.8 1386.24,-48.8 1507.76,-48.8 1507.76,-84.8"/>
<text text-anchor="middle" x="1447" y="-62.6" font-family="Times,serif" font-size="14.00">EncryptionModule</text>
</g>
<!-- EncryptionModule&#45;&gt;OauthModule -->
<g id="edge2" class="edge">
<title>EncryptionModule&#45;&gt;OauthModule</title>
<path fill="none" stroke="black" d="M1447,-85.08C1447,-106.12 1447,-137.8 1447,-137.8 1447,-137.8 951.15,-137.8 951.15,-137.8"/>
<polygon fill="black" stroke="black" points="951.15,-134.3 941.15,-137.8 951.15,-141.3 951.15,-134.3"/>
</g>
<!-- LoggerModule -->
<g id="node3" class="node">
<title>LoggerModule</title>
<polygon fill="#8dd3c7" stroke="black" points="1367.98,-84.8 1364.98,-88.8 1343.98,-88.8 1340.98,-84.8 1268.02,-84.8 1268.02,-48.8 1367.98,-48.8 1367.98,-84.8"/>
<text text-anchor="middle" x="1318" y="-62.6" font-family="Times,serif" font-size="14.00">LoggerModule</text>
</g>
<!-- LoggerModule&#45;&gt;OauthModule -->
<g id="edge3" class="edge">
<title>LoggerModule&#45;&gt;OauthModule</title>
<path fill="none" stroke="black" d="M1318,-84.91C1318,-104.14 1318,-131.8 1318,-131.8 1318,-131.8 951,-131.8 951,-131.8"/>
<polygon fill="black" stroke="black" points="951,-128.3 941,-131.8 951,-135.3 951,-128.3"/>
</g>
<!-- ProvisioningModule -->
<g id="node4" class="node">
<title>ProvisioningModule</title>
<polygon fill="#8dd3c7" stroke="black" points="1249.62,-84.8 1246.62,-88.8 1225.62,-88.8 1222.62,-84.8 1118.38,-84.8 1118.38,-48.8 1249.62,-48.8 1249.62,-84.8"/>
<text text-anchor="middle" x="1184" y="-62.6" font-family="Times,serif" font-size="14.00">ProvisioningModule</text>
</g>
<!-- ProvisioningModule&#45;&gt;OauthModule -->
<g id="edge4" class="edge">
<title>ProvisioningModule&#45;&gt;OauthModule</title>
<path fill="none" stroke="black" d="M1184,-84.82C1184,-102.17 1184,-125.8 1184,-125.8 1184,-125.8 950.92,-125.8 950.92,-125.8"/>
<polygon fill="black" stroke="black" points="950.92,-122.3 940.92,-125.8 950.92,-129.3 950.92,-122.3"/>
</g>
<!-- SystemModule -->
<g id="node5" class="node">
<title>SystemModule</title>
<polygon fill="#8dd3c7" stroke="black" points="1100.28,-84.8 1097.28,-88.8 1076.28,-88.8 1073.28,-84.8 999.72,-84.8 999.72,-48.8 1100.28,-48.8 1100.28,-84.8"/>
<text text-anchor="middle" x="1050" y="-62.6" font-family="Times,serif" font-size="14.00">SystemModule</text>
</g>
<!-- SystemModule&#45;&gt;OauthModule -->
<g id="edge5" class="edge">
<title>SystemModule&#45;&gt;OauthModule</title>
<path fill="none" stroke="black" d="M1007.48,-85.04C1007.48,-100.37 1007.48,-119.8 1007.48,-119.8 1007.48,-119.8 950.81,-119.8 950.81,-119.8"/>
<polygon fill="black" stroke="black" points="950.81,-116.3 940.81,-119.8 950.81,-123.3 950.81,-116.3"/>
</g>
<!-- UserLoginMigrationModule -->
<g id="node6" class="node">
<title>UserLoginMigrationModule</title>
<polygon fill="#8dd3c7" stroke="black" points="981.92,-84.8 978.92,-88.8 957.92,-88.8 954.92,-84.8 806.08,-84.8 806.08,-48.8 981.92,-48.8 981.92,-84.8"/>
<text text-anchor="middle" x="894" y="-62.6" font-family="Times,serif" font-size="14.00">UserLoginMigrationModule</text>
</g>
<!-- UserLoginMigrationModule&#45;&gt;OauthModule -->
<g id="edge6" class="edge">
<title>UserLoginMigrationModule&#45;&gt;OauthModule</title>
<path fill="none" stroke="black" d="M894,-84.91C894,-84.91 894,-103.79 894,-103.79"/>
<polygon fill="black" stroke="black" points="890.5,-103.79 894,-113.79 897.5,-103.79 890.5,-103.79"/>
</g>
<!-- UserModule -->
<g id="node7" class="node">
<title>UserModule</title>
<polygon fill="#8dd3c7" stroke="black" points="787.99,-84.8 784.99,-88.8 763.99,-88.8 760.99,-84.8 702.01,-84.8 702.01,-48.8 787.99,-48.8 787.99,-84.8"/>
<text text-anchor="middle" x="745" y="-62.6" font-family="Times,serif" font-size="14.00">UserModule</text>
</g>
<!-- UserModule&#45;&gt;OauthModule -->
<g id="edge7" class="edge">
<title>UserModule&#45;&gt;OauthModule</title>
<path fill="none" stroke="black" d="M741.61,-85.04C741.61,-100.37 741.61,-119.8 741.61,-119.8 741.61,-119.8 837.03,-119.8 837.03,-119.8"/>
<polygon fill="black" stroke="black" points="837.03,-123.3 847.03,-119.8 837.03,-116.3 837.03,-123.3"/>
</g>
<!-- HydraSsoService  -->
<g id="node9" class="node">
<title>HydraSsoService </title>
<polygon fill="#fb8072" stroke="black" points="1015.2,-214.8 898.8,-214.8 898.8,-178.8 1015.2,-178.8 1015.2,-214.8"/>
<text text-anchor="middle" x="957" y="-192.6" font-family="Times,serif" font-size="14.00">HydraSsoService </text>
</g>
<!-- OauthModule&#45;&gt;HydraSsoService  -->
<g id="edge8" class="edge">
<title>OauthModule&#45;&gt;HydraSsoService </title>
<path fill="none" stroke="black" stroke-dasharray="5,2" d="M919.77,-149.91C919.77,-149.91 919.77,-168.79 919.77,-168.79"/>
<polygon fill="black" stroke="black" points="916.27,-168.79 919.77,-178.79 923.27,-168.79 916.27,-168.79"/>
</g>
<!-- OAuthService  -->
<g id="node10" class="node">
<title>OAuthService </title>
<polygon fill="#fb8072" stroke="black" points="880.59,-214.8 781.41,-214.8 781.41,-178.8 880.59,-178.8 880.59,-214.8"/>
<text text-anchor="middle" x="831" y="-192.6" font-family="Times,serif" font-size="14.00">OAuthService </text>
</g>
<!-- OauthModule&#45;&gt;OAuthService  -->
<g id="edge9" class="edge">
<title>OauthModule&#45;&gt;OAuthService </title>
<path fill="none" stroke="black" stroke-dasharray="5,2" d="M863.96,-149.91C863.96,-149.91 863.96,-168.79 863.96,-168.79"/>
<polygon fill="black" stroke="black" points="860.46,-168.79 863.96,-178.79 867.46,-168.79 860.46,-168.79"/>
</g>
<!-- HydraSsoService -->
<g id="node11" class="node">
<title>HydraSsoService</title>
<ellipse fill="#fdb462" stroke="black" cx="600" cy="-66.8" rx="78.17" ry="18"/>
<text text-anchor="middle" x="600" y="-62.6" font-family="Times,serif" font-size="14.00">HydraSsoService</text>
</g>
<!-- HydraSsoService&#45;&gt;OauthModule -->
<g id="edge10" class="edge">
<title>HydraSsoService&#45;&gt;OauthModule</title>
<path fill="none" stroke="black" d="M600,-84.82C600,-102.17 600,-125.8 600,-125.8 600,-125.8 837.09,-125.8 837.09,-125.8"/>
<polygon fill="black" stroke="black" points="837.09,-129.3 847.09,-125.8 837.09,-122.3 837.09,-129.3"/>
</g>
<!-- LtiToolRepo -->
<g id="node12" class="node">
<title>LtiToolRepo</title>
<ellipse fill="#fdb462" stroke="black" cx="443" cy="-66.8" rx="60.85" ry="18"/>
<text text-anchor="middle" x="443" y="-62.6" font-family="Times,serif" font-size="14.00">LtiToolRepo</text>
</g>
<!-- LtiToolRepo&#45;&gt;OauthModule -->
<g id="edge11" class="edge">
<title>LtiToolRepo&#45;&gt;OauthModule</title>
<path fill="none" stroke="black" d="M443,-84.91C443,-104.14 443,-131.8 443,-131.8 443,-131.8 837.01,-131.8 837.01,-131.8"/>
<polygon fill="black" stroke="black" points="837.01,-135.3 847.01,-131.8 837.01,-128.3 837.01,-135.3"/>
</g>
<!-- OAuthService -->
<g id="node13" class="node">
<title>OAuthService</title>
<ellipse fill="#fdb462" stroke="black" cx="298" cy="-66.8" rx="66.06" ry="18"/>
<text text-anchor="middle" x="298" y="-62.6" font-family="Times,serif" font-size="14.00">OAuthService</text>
</g>
<!-- OAuthService&#45;&gt;OauthModule -->
<g id="edge12" class="edge">
<title>OAuthService&#45;&gt;OauthModule</title>
<path fill="none" stroke="black" d="M298,-85.08C298,-106.12 298,-137.8 298,-137.8 298,-137.8 837.23,-137.8 837.23,-137.8"/>
<polygon fill="black" stroke="black" points="837.23,-141.3 847.23,-137.8 837.23,-134.3 837.23,-141.3"/>
</g>
<!-- OauthAdapterService -->
<g id="node14" class="node">
<title>OauthAdapterService</title>
<ellipse fill="#fdb462" stroke="black" cx="119" cy="-66.8" rx="94.89" ry="18"/>
<text text-anchor="middle" x="119" y="-62.6" font-family="Times,serif" font-size="14.00">OauthAdapterService</text>
</g>
<!-- OauthAdapterService&#45;&gt;OauthModule -->
<g id="edge13" class="edge">
<title>OauthAdapterService&#45;&gt;OauthModule</title>
<path fill="none" stroke="black" d="M119,-85.05C119,-107.82 119,-143.8 119,-143.8 119,-143.8 836.98,-143.8 836.98,-143.8"/>
<polygon fill="black" stroke="black" points="836.98,-147.3 846.98,-143.8 836.98,-140.3 836.98,-147.3"/>
</g>
</g>
</svg>
