<?xml version="1.0" encoding="UTF-8" standalone="no"?>
<!DOCTYPE svg PUBLIC "-//W3C//DTD SVG 1.1//EN"
 "http://www.w3.org/Graphics/SVG/1.1/DTD/svg11.dtd">
<!-- Generated by graphviz version 5.0.0 (20220707.1540)
 -->
<!-- Title: dependencies Pages: 1 -->
<svg width="1310pt" height="247pt"
 viewBox="0.00 0.00 1310.00 246.80" xmlns="http://www.w3.org/2000/svg" xmlns:xlink="http://www.w3.org/1999/xlink">
<g id="graph0" class="graph" transform="scale(1 1) rotate(0) translate(4 242.8)">
<title>dependencies</title>
<polygon fill="white" stroke="transparent" points="-4,4 -4,-242.8 1306,-242.8 1306,4 -4,4"/>
<text text-anchor="middle" x="651" y="-8.2" font-family="sans-serif" font-size="14.00">dependencies</text>
<g id="clust1" class="cluster">
<title>cluster_OauthModule</title>
<polygon fill="none" stroke="black" stroke-dasharray="1,5" points="8,-32.8 8,-230.8 1294,-230.8 1294,-32.8 8,-32.8"/>
</g>
<g id="clust4" class="cluster">
<title>cluster_OauthModule_exports</title>
<polygon fill="none" stroke="black" points="634,-170.8 634,-222.8 720,-222.8 720,-170.8 634,-170.8"/>
</g>
<g id="clust3" class="cluster">
<title>cluster_OauthModule_imports</title>
<polygon fill="none" stroke="black" points="1014,-40.8 1014,-92.8 1286,-92.8 1286,-40.8 1014,-40.8"/>
</g>
<g id="clust6" class="cluster">
<title>cluster_OauthModule_providers</title>
<polygon fill="none" stroke="black" points="16,-40.8 16,-92.8 1006,-92.8 1006,-40.8 16,-40.8"/>
</g>
<!-- AuthorizationModule -->
<g id="node1" class="node">
<title>AuthorizationModule</title>
<polygon fill="#8dd3c7" stroke="black" points="1277.81,-84.8 1274.81,-88.8 1253.81,-88.8 1250.81,-84.8 1140.19,-84.8 1140.19,-48.8 1277.81,-48.8 1277.81,-84.8"/>
<text text-anchor="middle" x="1209" y="-62.6" font-family="Times,serif" font-size="14.00">AuthorizationModule</text>
</g>
<!-- OauthModule -->
<g id="node3" class="node">
<title>OauthModule</title>
<polygon fill="#8dd3c7" stroke="black" points="723.77,-149.8 720.77,-153.8 699.77,-153.8 696.77,-149.8 630.23,-149.8 630.23,-113.8 723.77,-113.8 723.77,-149.8"/>
<text text-anchor="middle" x="677" y="-127.6" font-family="Times,serif" font-size="14.00">OauthModule</text>
</g>
<!-- AuthorizationModule&#45;&gt;OauthModule -->
<g id="edge1" class="edge">
<title>AuthorizationModule&#45;&gt;OauthModule</title>
<path fill="none" stroke="black" d="M1209,-85.09C1209,-107.01 1209,-140.8 1209,-140.8 1209,-140.8 734.21,-140.8 734.21,-140.8"/>
<polygon fill="black" stroke="black" points="734.21,-137.3 724.21,-140.8 734.21,-144.3 734.21,-137.3"/>
</g>
<!-- LoggerModule -->
<g id="node2" class="node">
<title>LoggerModule</title>
<polygon fill="#8dd3c7" stroke="black" points="1121.98,-84.8 1118.98,-88.8 1097.98,-88.8 1094.98,-84.8 1022.02,-84.8 1022.02,-48.8 1121.98,-48.8 1121.98,-84.8"/>
<text text-anchor="middle" x="1072" y="-62.6" font-family="Times,serif" font-size="14.00">LoggerModule</text>
</g>
<!-- LoggerModule&#45;&gt;OauthModule -->
<g id="edge2" class="edge">
<title>LoggerModule&#45;&gt;OauthModule</title>
<path fill="none" stroke="black" d="M1072,-84.91C1072,-104.14 1072,-131.8 1072,-131.8 1072,-131.8 733.86,-131.8 733.86,-131.8"/>
<polygon fill="black" stroke="black" points="733.86,-128.3 723.86,-131.8 733.86,-135.3 733.86,-128.3"/>
</g>
<!-- OauthUc  -->
<g id="node4" class="node">
<title>OauthUc </title>
<polygon fill="#fb8072" stroke="black" points="712.04,-214.8 641.96,-214.8 641.96,-178.8 712.04,-178.8 712.04,-214.8"/>
<text text-anchor="middle" x="677" y="-192.6" font-family="Times,serif" font-size="14.00">OauthUc </text>
</g>
<!-- OauthModule&#45;&gt;OauthUc  -->
<g id="edge3" class="edge">
<title>OauthModule&#45;&gt;OauthUc </title>
<path fill="none" stroke="black" stroke-dasharray="5,2" d="M677,-149.91C677,-149.91 677,-168.79 677,-168.79"/>
<polygon fill="black" stroke="black" points="673.5,-168.79 677,-178.79 680.5,-168.79 673.5,-168.79"/>
</g>
<!-- IservOAuthService -->
<g id="node5" class="node">
<title>IservOAuthService</title>
<ellipse fill="#fdb462" stroke="black" cx="912" cy="-66.8" rx="85.67" ry="18"/>
<text text-anchor="middle" x="912" y="-62.6" font-family="Times,serif" font-size="14.00">IservOAuthService</text>
</g>
<!-- IservOAuthService&#45;&gt;OauthModule -->
<g id="edge4" class="edge">
<title>IservOAuthService&#45;&gt;OauthModule</title>
<path fill="none" stroke="black" d="M912,-84.83C912,-101.2 912,-122.8 912,-122.8 912,-122.8 733.99,-122.8 733.99,-122.8"/>
<polygon fill="black" stroke="black" points="733.99,-119.3 723.99,-122.8 733.99,-126.3 733.99,-119.3"/>
</g>
<!-- OAuthService -->
<g id="node6" class="node">
<title>OAuthService</title>
<ellipse fill="#fdb462" stroke="black" cx="742" cy="-66.8" rx="66.06" ry="18"/>
<text text-anchor="middle" x="742" y="-62.6" font-family="Times,serif" font-size="14.00">OAuthService</text>
</g>
<!-- OAuthService&#45;&gt;OauthModule -->
<g id="edge5" class="edge">
<title>OAuthService&#45;&gt;OauthModule</title>
<path fill="none" stroke="black" d="M699.8,-80.9C699.8,-80.9 699.8,-103.52 699.8,-103.52"/>
<polygon fill="black" stroke="black" points="696.3,-103.52 699.8,-113.52 703.3,-103.52 696.3,-103.52"/>
</g>
<!-- OauthUc -->
<g id="node7" class="node">
<title>OauthUc</title>
<ellipse fill="#fdb462" stroke="black" cx="612" cy="-66.8" rx="45.79" ry="18"/>
<text text-anchor="middle" x="612" y="-62.6" font-family="Times,serif" font-size="14.00">OauthUc</text>
</g>
<!-- OauthUc&#45;&gt;OauthModule -->
<g id="edge6" class="edge">
<title>OauthUc&#45;&gt;OauthModule</title>
<path fill="none" stroke="black" d="M644.01,-79.95C644.01,-79.95 644.01,-103.49 644.01,-103.49"/>
<polygon fill="black" stroke="black" points="640.51,-103.49 644.01,-113.49 647.51,-103.49 640.51,-103.49"/>
</g>
<!-- SymetricKeyEncryptionService -->
<g id="node8" class="node">
<title>SymetricKeyEncryptionService</title>
<ellipse fill="#fdb462" stroke="black" cx="414" cy="-66.8" rx="133.71" ry="18"/>
<text text-anchor="middle" x="414" y="-62.6" font-family="Times,serif" font-size="14.00">SymetricKeyEncryptionService</text>
</g>
<!-- SymetricKeyEncryptionService&#45;&gt;OauthModule -->
<g id="edge7" class="edge">
<title>SymetricKeyEncryptionService&#45;&gt;OauthModule</title>
<path fill="none" stroke="black" d="M414,-84.83C414,-101.2 414,-122.8 414,-122.8 414,-122.8 619.98,-122.8 619.98,-122.8"/>
<polygon fill="black" stroke="black" points="619.98,-126.3 629.98,-122.8 619.98,-119.3 619.98,-126.3"/>
</g>
<!-- SystemRepo -->
<g id="node9" class="node">
<title>SystemRepo</title>
<ellipse fill="#fdb462" stroke="black" cx="202" cy="-66.8" rx="59.72" ry="18"/>
<text text-anchor="middle" x="202" y="-62.6" font-family="Times,serif" font-size="14.00">SystemRepo</text>
</g>
<!-- SystemRepo&#45;&gt;OauthModule -->
<g id="edge8" class="edge">
<title>SystemRepo&#45;&gt;OauthModule</title>
<path fill="none" stroke="black" d="M202,-84.91C202,-104.14 202,-131.8 202,-131.8 202,-131.8 620.16,-131.8 620.16,-131.8"/>
<polygon fill="black" stroke="black" points="620.16,-135.3 630.16,-131.8 620.16,-128.3 620.16,-135.3"/>
</g>
<!-- UserRepo -->
<g id="node10" class="node">
<title>UserRepo</title>
<ellipse fill="#fdb462" stroke="black" cx="74" cy="-66.8" rx="49.81" ry="18"/>
<text text-anchor="middle" x="74" y="-62.6" font-family="Times,serif" font-size="14.00">UserRepo</text>
</g>
<!-- UserRepo&#45;&gt;OauthModule -->
<g id="edge9" class="edge">
<title>UserRepo&#45;&gt;OauthModule</title>
<path fill="none" stroke="black" d="M74,-85.09C74,-107.01 74,-140.8 74,-140.8 74,-140.8 620.19,-140.8 620.19,-140.8"/>
<polygon fill="black" stroke="black" points="620.19,-144.3 630.19,-140.8 620.19,-137.3 620.19,-144.3"/>
</g>
</g>
</svg>
