<?xml version="1.0" encoding="UTF-8" standalone="no"?>
<!DOCTYPE svg PUBLIC "-//W3C//DTD SVG 1.1//EN"
 "http://www.w3.org/Graphics/SVG/1.1/DTD/svg11.dtd">
<!-- Generated by graphviz version 5.0.0 (20220707.1540)
 -->
<!-- Title: dependencies Pages: 1 -->
<svg width="1857pt" height="247pt"
 viewBox="0.00 0.00 1857.00 246.80" xmlns="http://www.w3.org/2000/svg" xmlns:xlink="http://www.w3.org/1999/xlink">
<g id="graph0" class="graph" transform="scale(1 1) rotate(0) translate(4 242.8)">
<title>dependencies</title>
<polygon fill="white" stroke="transparent" points="-4,4 -4,-242.8 1853,-242.8 1853,4 -4,4"/>
<text text-anchor="middle" x="924.5" y="-8.2" font-family="sans-serif" font-size="14.00">dependencies</text>
<g id="clust1" class="cluster">
<title>cluster_OauthModule</title>
<polygon fill="none" stroke="black" stroke-dasharray="1,5" points="8,-32.8 8,-230.8 1841,-230.8 1841,-32.8 8,-32.8"/>
</g>
<g id="clust3" class="cluster">
<title>cluster_OauthModule_imports</title>
<polygon fill="none" stroke="black" points="694,-40.8 694,-92.8 1833,-92.8 1833,-40.8 694,-40.8"/>
</g>
<g id="clust4" class="cluster">
<title>cluster_OauthModule_exports</title>
<polygon fill="none" stroke="black" points="851,-170.8 851,-222.8 1101,-222.8 1101,-170.8 851,-170.8"/>
</g>
<g id="clust6" class="cluster">
<title>cluster_OauthModule_providers</title>
<polygon fill="none" stroke="black" points="16,-40.8 16,-92.8 686,-92.8 686,-40.8 16,-40.8"/>
</g>
<!-- AuthorizationModule -->
<g id="node1" class="node">
<title>AuthorizationModule</title>
<polygon fill="#8dd3c7" stroke="black" points="1824.81,-84.8 1821.81,-88.8 1800.81,-88.8 1797.81,-84.8 1687.19,-84.8 1687.19,-48.8 1824.81,-48.8 1824.81,-84.8"/>
<text text-anchor="middle" x="1756" y="-62.6" font-family="Times,serif" font-size="14.00">AuthorizationModule</text>
</g>
<!-- OauthModule -->
<g id="node9" class="node">
<title>OauthModule</title>
<polygon fill="#8dd3c7" stroke="black" points="1018.77,-149.8 1015.77,-153.8 994.77,-153.8 991.77,-149.8 925.23,-149.8 925.23,-113.8 1018.77,-113.8 1018.77,-149.8"/>
<text text-anchor="middle" x="972" y="-127.6" font-family="Times,serif" font-size="14.00">OauthModule</text>
</g>
<!-- AuthorizationModule&#45;&gt;OauthModule -->
<g id="edge1" class="edge">
<title>AuthorizationModule&#45;&gt;OauthModule</title>
<path fill="none" stroke="black" d="M1756,-85.05C1756,-107.82 1756,-143.8 1756,-143.8 1756,-143.8 1028.99,-143.8 1028.99,-143.8"/>
<polygon fill="black" stroke="black" points="1028.99,-140.3 1018.99,-143.8 1028.99,-147.3 1028.99,-140.3"/>
</g>
<!-- CacheWrapperModule -->
<g id="node2" class="node">
<title>CacheWrapperModule</title>
<polygon fill="#8dd3c7" stroke="black" points="1670,-84.8 1667,-88.8 1646,-88.8 1643,-84.8 1526,-84.8 1526,-48.8 1670,-48.8 1670,-84.8"/>
<text text-anchor="middle" x="1598" y="-62.6" font-family="Times,serif" font-size="14.00">CacheWrapperModule</text>
</g>
<!-- CacheWrapperModule&#45;&gt;OauthModule -->
<g id="edge2" class="edge">
<title>CacheWrapperModule&#45;&gt;OauthModule</title>
<path fill="none" stroke="black" d="M1598,-85.08C1598,-106.12 1598,-137.8 1598,-137.8 1598,-137.8 1028.8,-137.8 1028.8,-137.8"/>
<polygon fill="black" stroke="black" points="1028.8,-134.3 1018.8,-137.8 1028.8,-141.3 1028.8,-134.3"/>
</g>
<!-- EncryptionModule -->
<g id="node3" class="node">
<title>EncryptionModule</title>
<polygon fill="#8dd3c7" stroke="black" points="1507.76,-84.8 1504.76,-88.8 1483.76,-88.8 1480.76,-84.8 1386.24,-84.8 1386.24,-48.8 1507.76,-48.8 1507.76,-84.8"/>
<text text-anchor="middle" x="1447" y="-62.6" font-family="Times,serif" font-size="14.00">EncryptionModule</text>
</g>
<!-- EncryptionModule&#45;&gt;OauthModule -->
<g id="edge3" class="edge">
<title>EncryptionModule&#45;&gt;OauthModule</title>
<path fill="none" stroke="black" d="M1447,-84.91C1447,-104.14 1447,-131.8 1447,-131.8 1447,-131.8 1028.84,-131.8 1028.84,-131.8"/>
<polygon fill="black" stroke="black" points="1028.84,-128.3 1018.84,-131.8 1028.84,-135.3 1028.84,-128.3"/>
</g>
<!-- LoggerModule -->
<g id="node4" class="node">
<title>LoggerModule</title>
<polygon fill="#8dd3c7" stroke="black" points="1367.98,-84.8 1364.98,-88.8 1343.98,-88.8 1340.98,-84.8 1268.02,-84.8 1268.02,-48.8 1367.98,-48.8 1367.98,-84.8"/>
<text text-anchor="middle" x="1318" y="-62.6" font-family="Times,serif" font-size="14.00">LoggerModule</text>
</g>
<!-- LoggerModule&#45;&gt;OauthModule -->
<g id="edge4" class="edge">
<title>LoggerModule&#45;&gt;OauthModule</title>
<path fill="none" stroke="black" d="M1318,-84.82C1318,-102.17 1318,-125.8 1318,-125.8 1318,-125.8 1029.02,-125.8 1029.02,-125.8"/>
<polygon fill="black" stroke="black" points="1029.02,-122.3 1019.02,-125.8 1029.02,-129.3 1029.02,-122.3"/>
</g>
<!-- ProvisioningModule -->
<g id="node5" class="node">
<title>ProvisioningModule</title>
<polygon fill="#8dd3c7" stroke="black" points="1249.62,-84.8 1246.62,-88.8 1225.62,-88.8 1222.62,-84.8 1118.38,-84.8 1118.38,-48.8 1249.62,-48.8 1249.62,-84.8"/>
<text text-anchor="middle" x="1184" y="-62.6" font-family="Times,serif" font-size="14.00">ProvisioningModule</text>
</g>
<!-- ProvisioningModule&#45;&gt;OauthModule -->
<g id="edge5" class="edge">
<title>ProvisioningModule&#45;&gt;OauthModule</title>
<path fill="none" stroke="black" d="M1184,-85.04C1184,-100.37 1184,-119.8 1184,-119.8 1184,-119.8 1028.79,-119.8 1028.79,-119.8"/>
<polygon fill="black" stroke="black" points="1028.79,-116.3 1018.79,-119.8 1028.79,-123.3 1028.79,-116.3"/>
</g>
<!-- SystemModule -->
<g id="node6" class="node">
<title>SystemModule</title>
<polygon fill="#8dd3c7" stroke="black" points="1100.28,-84.8 1097.28,-88.8 1076.28,-88.8 1073.28,-84.8 999.72,-84.8 999.72,-48.8 1100.28,-48.8 1100.28,-84.8"/>
<text text-anchor="middle" x="1050" y="-62.6" font-family="Times,serif" font-size="14.00">SystemModule</text>
</g>
<!-- SystemModule&#45;&gt;OauthModule -->
<g id="edge6" class="edge">
<title>SystemModule&#45;&gt;OauthModule</title>
<path fill="none" stroke="black" d="M1009.25,-84.91C1009.25,-84.91 1009.25,-103.79 1009.25,-103.79"/>
<polygon fill="black" stroke="black" points="1005.75,-103.79 1009.25,-113.79 1012.75,-103.79 1005.75,-103.79"/>
</g>
<!-- UserLoginMigrationModule -->
<g id="node7" class="node">
<title>UserLoginMigrationModule</title>
<polygon fill="#8dd3c7" stroke="black" points="981.92,-84.8 978.92,-88.8 957.92,-88.8 954.92,-84.8 806.08,-84.8 806.08,-48.8 981.92,-48.8 981.92,-84.8"/>
<text text-anchor="middle" x="894" y="-62.6" font-family="Times,serif" font-size="14.00">UserLoginMigrationModule</text>
</g>
<!-- UserLoginMigrationModule&#45;&gt;OauthModule -->
<g id="edge7" class="edge">
<title>UserLoginMigrationModule&#45;&gt;OauthModule</title>
<path fill="none" stroke="black" d="M953.41,-84.91C953.41,-84.91 953.41,-103.79 953.41,-103.79"/>
<polygon fill="black" stroke="black" points="949.91,-103.79 953.41,-113.79 956.91,-103.79 949.91,-103.79"/>
</g>
<!-- UserModule -->
<g id="node8" class="node">
<title>UserModule</title>
<polygon fill="#8dd3c7" stroke="black" points="787.99,-84.8 784.99,-88.8 763.99,-88.8 760.99,-84.8 702.01,-84.8 702.01,-48.8 787.99,-48.8 787.99,-84.8"/>
<text text-anchor="middle" x="745" y="-62.6" font-family="Times,serif" font-size="14.00">UserModule</text>
</g>
<!-- UserModule&#45;&gt;OauthModule -->
<g id="edge8" class="edge">
<title>UserModule&#45;&gt;OauthModule</title>
<path fill="none" stroke="black" d="M745,-85.04C745,-100.37 745,-119.8 745,-119.8 745,-119.8 914.97,-119.8 914.97,-119.8"/>
<polygon fill="black" stroke="black" points="914.97,-123.3 924.97,-119.8 914.97,-116.3 914.97,-123.3"/>
</g>
<!-- HydraSsoService  -->
<g id="node10" class="node">
<title>HydraSsoService </title>
<polygon fill="#fb8072" stroke="black" points="1093.2,-214.8 976.8,-214.8 976.8,-178.8 1093.2,-178.8 1093.2,-214.8"/>
<text text-anchor="middle" x="1035" y="-192.6" font-family="Times,serif" font-size="14.00">HydraSsoService </text>
</g>
<!-- OauthModule&#45;&gt;HydraSsoService  -->
<g id="edge9" class="edge">
<title>OauthModule&#45;&gt;HydraSsoService </title>
<path fill="none" stroke="black" stroke-dasharray="5,2" d="M997.77,-149.91C997.77,-149.91 997.77,-168.79 997.77,-168.79"/>
<polygon fill="black" stroke="black" points="994.27,-168.79 997.77,-178.79 1001.27,-168.79 994.27,-168.79"/>
</g>
<!-- OAuthService  -->
<g id="node11" class="node">
<title>OAuthService </title>
<polygon fill="#fb8072" stroke="black" points="958.59,-214.8 859.41,-214.8 859.41,-178.8 958.59,-178.8 958.59,-214.8"/>
<text text-anchor="middle" x="909" y="-192.6" font-family="Times,serif" font-size="14.00">OAuthService </text>
</g>
<!-- OauthModule&#45;&gt;OAuthService  -->
<g id="edge10" class="edge">
<title>OauthModule&#45;&gt;OAuthService </title>
<path fill="none" stroke="black" stroke-dasharray="5,2" d="M941.96,-149.91C941.96,-149.91 941.96,-168.79 941.96,-168.79"/>
<polygon fill="black" stroke="black" points="938.46,-168.79 941.96,-178.79 945.46,-168.79 938.46,-168.79"/>
</g>
<!-- HydraSsoService -->
<g id="node12" class="node">
<title>HydraSsoService</title>
<ellipse fill="#fdb462" stroke="black" cx="600" cy="-66.8" rx="78.17" ry="18"/>
<text text-anchor="middle" x="600" y="-62.6" font-family="Times,serif" font-size="14.00">HydraSsoService</text>
</g>
<!-- HydraSsoService&#45;&gt;OauthModule -->
<g id="edge11" class="edge">
<title>HydraSsoService&#45;&gt;OauthModule</title>
<path fill="none" stroke="black" d="M600,-84.82C600,-102.17 600,-125.8 600,-125.8 600,-125.8 914.89,-125.8 914.89,-125.8"/>
<polygon fill="black" stroke="black" points="914.89,-129.3 924.89,-125.8 914.89,-122.3 914.89,-129.3"/>
</g>
<!-- LtiToolRepo -->
<g id="node13" class="node">
<title>LtiToolRepo</title>
<ellipse fill="#fdb462" stroke="black" cx="443" cy="-66.8" rx="60.85" ry="18"/>
<text text-anchor="middle" x="443" y="-62.6" font-family="Times,serif" font-size="14.00">LtiToolRepo</text>
</g>
<!-- LtiToolRepo&#45;&gt;OauthModule -->
<g id="edge12" class="edge">
<title>LtiToolRepo&#45;&gt;OauthModule</title>
<path fill="none" stroke="black" d="M443,-84.91C443,-104.14 443,-131.8 443,-131.8 443,-131.8 915.05,-131.8 915.05,-131.8"/>
<polygon fill="black" stroke="black" points="915.05,-135.3 925.05,-131.8 915.05,-128.3 915.05,-135.3"/>
</g>
<!-- OAuthService -->
<g id="node14" class="node">
<title>OAuthService</title>
<ellipse fill="#fdb462" stroke="black" cx="298" cy="-66.8" rx="66.06" ry="18"/>
<text text-anchor="middle" x="298" y="-62.6" font-family="Times,serif" font-size="14.00">OAuthService</text>
</g>
<!-- OAuthService&#45;&gt;OauthModule -->
<g id="edge13" class="edge">
<title>OAuthService&#45;&gt;OauthModule</title>
<path fill="none" stroke="black" d="M298,-85.08C298,-106.12 298,-137.8 298,-137.8 298,-137.8 915.14,-137.8 915.14,-137.8"/>
<polygon fill="black" stroke="black" points="915.14,-141.3 925.14,-137.8 915.14,-134.3 915.14,-141.3"/>
</g>
<!-- OauthAdapterService -->
<g id="node15" class="node">
<title>OauthAdapterService</title>
<ellipse fill="#fdb462" stroke="black" cx="119" cy="-66.8" rx="94.89" ry="18"/>
<text text-anchor="middle" x="119" y="-62.6" font-family="Times,serif" font-size="14.00">OauthAdapterService</text>
</g>
<!-- OauthAdapterService&#45;&gt;OauthModule -->
<g id="edge14" class="edge">
<title>OauthAdapterService&#45;&gt;OauthModule</title>
<path fill="none" stroke="black" d="M119,-85.05C119,-107.82 119,-143.8 119,-143.8 119,-143.8 915.23,-143.8 915.23,-143.8"/>
<polygon fill="black" stroke="black" points="915.23,-147.3 925.23,-143.8 915.23,-140.3 915.23,-147.3"/>
</g>
</g>
</svg>
