<?xml version="1.0" encoding="UTF-8" standalone="no"?>
<!DOCTYPE svg PUBLIC "-//W3C//DTD SVG 1.1//EN"
 "http://www.w3.org/Graphics/SVG/1.1/DTD/svg11.dtd">
<!-- Generated by graphviz version 5.0.0 (20220707.1540)
 -->
<!-- Title: dependencies Pages: 1 -->
<svg width="1636pt" height="247pt"
 viewBox="0.00 0.00 1636.00 246.80" xmlns="http://www.w3.org/2000/svg" xmlns:xlink="http://www.w3.org/1999/xlink">
<g id="graph0" class="graph" transform="scale(1 1) rotate(0) translate(4 242.8)">
<title>dependencies</title>
<polygon fill="white" stroke="transparent" points="-4,4 -4,-242.8 1632,-242.8 1632,4 -4,4"/>
<text text-anchor="middle" x="814" y="-8.2" font-family="sans-serif" font-size="14.00">dependencies</text>
<g id="clust1" class="cluster">
<title>cluster_OauthModule</title>
<polygon fill="none" stroke="black" stroke-dasharray="1,5" points="8,-32.8 8,-230.8 1620,-230.8 1620,-32.8 8,-32.8"/>
</g>
<g id="clust3" class="cluster">
<title>cluster_OauthModule_imports</title>
<polygon fill="none" stroke="black" points="1200,-40.8 1200,-92.8 1612,-92.8 1612,-40.8 1200,-40.8"/>
</g>
<g id="clust4" class="cluster">
<title>cluster_OauthModule_exports</title>
<polygon fill="none" stroke="black" points="723,-170.8 723,-222.8 809,-222.8 809,-170.8 723,-170.8"/>
</g>
<g id="clust6" class="cluster">
<title>cluster_OauthModule_providers</title>
<polygon fill="none" stroke="black" points="16,-40.8 16,-92.8 1192,-92.8 1192,-40.8 16,-40.8"/>
</g>
<!-- AuthorizationModule -->
<g id="node1" class="node">
<title>AuthorizationModule</title>
<polygon fill="#8dd3c7" stroke="black" points="1603.81,-84.8 1600.81,-88.8 1579.81,-88.8 1576.81,-84.8 1466.19,-84.8 1466.19,-48.8 1603.81,-48.8 1603.81,-84.8"/>
<text text-anchor="middle" x="1535" y="-62.6" font-family="Times,serif" font-size="14.00">AuthorizationModule</text>
</g>
<!-- OauthModule -->
<g id="node4" class="node">
<title>OauthModule</title>
<polygon fill="#8dd3c7" stroke="black" points="812.77,-149.8 809.77,-153.8 788.77,-153.8 785.77,-149.8 719.23,-149.8 719.23,-113.8 812.77,-113.8 812.77,-149.8"/>
<text text-anchor="middle" x="766" y="-127.6" font-family="Times,serif" font-size="14.00">OauthModule</text>
</g>
<!-- AuthorizationModule&#45;&gt;OauthModule -->
<g id="edge1" class="edge">
<title>AuthorizationModule&#45;&gt;OauthModule</title>
<path fill="none" stroke="black" d="M1535,-85.05C1535,-107.82 1535,-143.8 1535,-143.8 1535,-143.8 822.95,-143.8 822.95,-143.8"/>
<polygon fill="black" stroke="black" points="822.95,-140.3 812.95,-143.8 822.95,-147.3 822.95,-140.3"/>
</g>
<!-- EncryptionModule -->
<g id="node2" class="node">
<title>EncryptionModule</title>
<polygon fill="#8dd3c7" stroke="black" points="1447.76,-84.8 1444.76,-88.8 1423.76,-88.8 1420.76,-84.8 1326.24,-84.8 1326.24,-48.8 1447.76,-48.8 1447.76,-84.8"/>
<text text-anchor="middle" x="1387" y="-62.6" font-family="Times,serif" font-size="14.00">EncryptionModule</text>
</g>
<!-- EncryptionModule&#45;&gt;OauthModule -->
<g id="edge2" class="edge">
<title>EncryptionModule&#45;&gt;OauthModule</title>
<path fill="none" stroke="black" d="M1387,-85.08C1387,-106.12 1387,-137.8 1387,-137.8 1387,-137.8 822.93,-137.8 822.93,-137.8"/>
<polygon fill="black" stroke="black" points="822.93,-134.3 812.93,-137.8 822.93,-141.3 822.93,-134.3"/>
</g>
<!-- LoggerModule -->
<g id="node3" class="node">
<title>LoggerModule</title>
<polygon fill="#8dd3c7" stroke="black" points="1307.98,-84.8 1304.98,-88.8 1283.98,-88.8 1280.98,-84.8 1208.02,-84.8 1208.02,-48.8 1307.98,-48.8 1307.98,-84.8"/>
<text text-anchor="middle" x="1258" y="-62.6" font-family="Times,serif" font-size="14.00">LoggerModule</text>
</g>
<!-- LoggerModule&#45;&gt;OauthModule -->
<g id="edge3" class="edge">
<title>LoggerModule&#45;&gt;OauthModule</title>
<path fill="none" stroke="black" d="M1258,-84.91C1258,-104.14 1258,-131.8 1258,-131.8 1258,-131.8 823.18,-131.8 823.18,-131.8"/>
<polygon fill="black" stroke="black" points="823.18,-128.3 813.18,-131.8 823.17,-135.3 823.18,-128.3"/>
</g>
<!-- OauthUc  -->
<g id="node5" class="node">
<title>OauthUc </title>
<polygon fill="#fb8072" stroke="black" points="801.04,-214.8 730.96,-214.8 730.96,-178.8 801.04,-178.8 801.04,-214.8"/>
<text text-anchor="middle" x="766" y="-192.6" font-family="Times,serif" font-size="14.00">OauthUc </text>
</g>
<!-- OauthModule&#45;&gt;OauthUc  -->
<g id="edge4" class="edge">
<title>OauthModule&#45;&gt;OauthUc </title>
<path fill="none" stroke="black" stroke-dasharray="5,2" d="M766,-149.91C766,-149.91 766,-168.79 766,-168.79"/>
<polygon fill="black" stroke="black" points="762.5,-168.79 766,-178.79 769.5,-168.79 762.5,-168.79"/>
</g>
<!-- HydraOauthUc -->
<g id="node6" class="node">
<title>HydraOauthUc</title>
<ellipse fill="#fdb462" stroke="black" cx="1114" cy="-66.8" rx="70.06" ry="18"/>
<text text-anchor="middle" x="1114" y="-62.6" font-family="Times,serif" font-size="14.00">HydraOauthUc</text>
</g>
<!-- HydraOauthUc&#45;&gt;OauthModule -->
<g id="edge5" class="edge">
<title>HydraOauthUc&#45;&gt;OauthModule</title>
<path fill="none" stroke="black" d="M1114,-84.82C1114,-102.17 1114,-125.8 1114,-125.8 1114,-125.8 822.93,-125.8 822.93,-125.8"/>
<polygon fill="black" stroke="black" points="822.93,-122.3 812.93,-125.8 822.93,-129.3 822.93,-122.3"/>
</g>
<!-- HydraSsoService -->
<g id="node7" class="node">
<title>HydraSsoService</title>
<ellipse fill="#fdb462" stroke="black" cx="948" cy="-66.8" rx="78.17" ry="18"/>
<text text-anchor="middle" x="948" y="-62.6" font-family="Times,serif" font-size="14.00">HydraSsoService</text>
</g>
<!-- HydraSsoService&#45;&gt;OauthModule -->
<g id="edge6" class="edge">
<title>HydraSsoService&#45;&gt;OauthModule</title>
<path fill="none" stroke="black" d="M948,-85.04C948,-100.37 948,-119.8 948,-119.8 948,-119.8 822.87,-119.8 822.87,-119.8"/>
<polygon fill="black" stroke="black" points="822.87,-116.3 812.87,-119.8 822.87,-123.3 822.87,-116.3"/>
</g>
<!-- IservOAuthService -->
<g id="node8" class="node">
<title>IservOAuthService</title>
<ellipse fill="#fdb462" stroke="black" cx="766" cy="-66.8" rx="85.67" ry="18"/>
<text text-anchor="middle" x="766" y="-62.6" font-family="Times,serif" font-size="14.00">IservOAuthService</text>
</g>
<!-- IservOAuthService&#45;&gt;OauthModule -->
<g id="edge7" class="edge">
<title>IservOAuthService&#45;&gt;OauthModule</title>
<path fill="none" stroke="black" d="M766,-84.91C766,-84.91 766,-103.79 766,-103.79"/>
<polygon fill="black" stroke="black" points="762.5,-103.79 766,-113.79 769.5,-103.79 762.5,-103.79"/>
</g>
<!-- LtiToolRepo -->
<g id="node9" class="node">
<title>LtiToolRepo</title>
<ellipse fill="#fdb462" stroke="black" cx="601" cy="-66.8" rx="60.85" ry="18"/>
<text text-anchor="middle" x="601" y="-62.6" font-family="Times,serif" font-size="14.00">LtiToolRepo</text>
</g>
<!-- LtiToolRepo&#45;&gt;OauthModule -->
<g id="edge8" class="edge">
<title>LtiToolRepo&#45;&gt;OauthModule</title>
<path fill="none" stroke="black" d="M601,-85.04C601,-100.37 601,-119.8 601,-119.8 601,-119.8 709.16,-119.8 709.16,-119.8"/>
<polygon fill="black" stroke="black" points="709.16,-123.3 719.16,-119.8 709.16,-116.3 709.16,-123.3"/>
</g>
<!-- OAuthService -->
<g id="node10" class="node">
<title>OAuthService</title>
<ellipse fill="#fdb462" stroke="black" cx="456" cy="-66.8" rx="66.06" ry="18"/>
<text text-anchor="middle" x="456" y="-62.6" font-family="Times,serif" font-size="14.00">OAuthService</text>
</g>
<!-- OAuthService&#45;&gt;OauthModule -->
<g id="edge9" class="edge">
<title>OAuthService&#45;&gt;OauthModule</title>
<path fill="none" stroke="black" d="M456,-84.82C456,-102.17 456,-125.8 456,-125.8 456,-125.8 708.92,-125.8 708.92,-125.8"/>
<polygon fill="black" stroke="black" points="708.92,-129.3 718.92,-125.8 708.92,-122.3 708.92,-129.3"/>
</g>
<!-- OauthUc -->
<g id="node11" class="node">
<title>OauthUc</title>
<ellipse fill="#fdb462" stroke="black" cx="326" cy="-66.8" rx="45.79" ry="18"/>
<text text-anchor="middle" x="326" y="-62.6" font-family="Times,serif" font-size="14.00">OauthUc</text>
</g>
<!-- OauthUc&#45;&gt;OauthModule -->
<g id="edge10" class="edge">
<title>OauthUc&#45;&gt;OauthModule</title>
<path fill="none" stroke="black" d="M326,-84.91C326,-104.14 326,-131.8 326,-131.8 326,-131.8 708.91,-131.8 708.91,-131.8"/>
<polygon fill="black" stroke="black" points="708.91,-135.3 718.91,-131.8 708.91,-128.3 708.91,-135.3"/>
</g>
<!-- SystemRepo -->
<g id="node12" class="node">
<title>SystemRepo</title>
<ellipse fill="#fdb462" stroke="black" cx="202" cy="-66.8" rx="59.72" ry="18"/>
<text text-anchor="middle" x="202" y="-62.6" font-family="Times,serif" font-size="14.00">SystemRepo</text>
</g>
<!-- SystemRepo&#45;&gt;OauthModule -->
<g id="edge11" class="edge">
<title>SystemRepo&#45;&gt;OauthModule</title>
<path fill="none" stroke="black" d="M202,-85.08C202,-106.12 202,-137.8 202,-137.8 202,-137.8 708.88,-137.8 708.88,-137.8"/>
<polygon fill="black" stroke="black" points="708.88,-141.3 718.88,-137.8 708.88,-134.3 708.88,-141.3"/>
</g>
<!-- UserRepo -->
<g id="node13" class="node">
<title>UserRepo</title>
<ellipse fill="#fdb462" stroke="black" cx="74" cy="-66.8" rx="49.81" ry="18"/>
<text text-anchor="middle" x="74" y="-62.6" font-family="Times,serif" font-size="14.00">UserRepo</text>
</g>
<!-- UserRepo&#45;&gt;OauthModule -->
<g id="edge12" class="edge">
<title>UserRepo&#45;&gt;OauthModule</title>
<path fill="none" stroke="black" d="M74,-85.05C74,-107.82 74,-143.8 74,-143.8 74,-143.8 708.98,-143.8 708.98,-143.8"/>
<polygon fill="black" stroke="black" points="708.98,-147.3 718.98,-143.8 708.98,-140.3 708.98,-147.3"/>
</g>
</g>
</svg>
