<?xml version="1.0" encoding="UTF-8" standalone="no"?>
<!DOCTYPE svg PUBLIC "-//W3C//DTD SVG 1.1//EN"
 "http://www.w3.org/Graphics/SVG/1.1/DTD/svg11.dtd">
<!-- Generated by graphviz version 5.0.0 (20220707.1540)
 -->
<!-- Title: dependencies Pages: 1 -->
<svg width="1576pt" height="247pt"
 viewBox="0.00 0.00 1576.00 246.80" xmlns="http://www.w3.org/2000/svg" xmlns:xlink="http://www.w3.org/1999/xlink">
<g id="graph0" class="graph" transform="scale(1 1) rotate(0) translate(4 242.8)">
<title>dependencies</title>
<polygon fill="white" stroke="transparent" points="-4,4 -4,-242.8 1572,-242.8 1572,4 -4,4"/>
<text text-anchor="middle" x="784" y="-8.2" font-family="sans-serif" font-size="14.00">dependencies</text>
<g id="clust1" class="cluster">
<title>cluster_OauthModule</title>
<polygon fill="none" stroke="black" stroke-dasharray="1,5" points="8,-32.8 8,-230.8 1560,-230.8 1560,-32.8 8,-32.8"/>
</g>
<g id="clust4" class="cluster">
<title>cluster_OauthModule_exports</title>
<polygon fill="none" stroke="black" points="719,-170.8 719,-222.8 805,-222.8 805,-170.8 719,-170.8"/>
</g>
<g id="clust6" class="cluster">
<title>cluster_OauthModule_providers</title>
<polygon fill="none" stroke="black" points="704,-40.8 704,-92.8 1552,-92.8 1552,-40.8 704,-40.8"/>
</g>
<g id="clust3" class="cluster">
<title>cluster_OauthModule_imports</title>
<polygon fill="none" stroke="black" points="16,-40.8 16,-92.8 696,-92.8 696,-40.8 16,-40.8"/>
</g>
<!-- AuthorizationModule -->
<g id="node1" class="node">
<title>AuthorizationModule</title>
<polygon fill="#8dd3c7" stroke="black" points="687.81,-84.8 684.81,-88.8 663.81,-88.8 660.81,-84.8 550.19,-84.8 550.19,-48.8 687.81,-48.8 687.81,-84.8"/>
<text text-anchor="middle" x="619" y="-62.6" font-family="Times,serif" font-size="14.00">AuthorizationModule</text>
</g>
<!-- OauthModule -->
<g id="node6" class="node">
<title>OauthModule</title>
<polygon fill="#8dd3c7" stroke="black" points="808.77,-149.8 805.77,-153.8 784.77,-153.8 781.77,-149.8 715.23,-149.8 715.23,-113.8 808.77,-113.8 808.77,-149.8"/>
<text text-anchor="middle" x="762" y="-127.6" font-family="Times,serif" font-size="14.00">OauthModule</text>
</g>
<!-- AuthorizationModule&#45;&gt;OauthModule -->
<g id="edge1" class="edge">
<title>AuthorizationModule&#45;&gt;OauthModule</title>
<path fill="none" stroke="black" d="M619,-85.04C619,-100.37 619,-119.8 619,-119.8 619,-119.8 705.18,-119.8 705.18,-119.8"/>
<polygon fill="black" stroke="black" points="705.18,-123.3 715.18,-119.8 705.18,-116.3 705.18,-123.3"/>
</g>
<!-- EncryptionModule -->
<g id="node2" class="node">
<title>EncryptionModule</title>
<polygon fill="#8dd3c7" stroke="black" points="531.76,-84.8 528.76,-88.8 507.76,-88.8 504.76,-84.8 410.24,-84.8 410.24,-48.8 531.76,-48.8 531.76,-84.8"/>
<text text-anchor="middle" x="471" y="-62.6" font-family="Times,serif" font-size="14.00">EncryptionModule</text>
</g>
<!-- EncryptionModule&#45;&gt;OauthModule -->
<g id="edge2" class="edge">
<title>EncryptionModule&#45;&gt;OauthModule</title>
<path fill="none" stroke="black" d="M471,-84.82C471,-102.17 471,-125.8 471,-125.8 471,-125.8 704.92,-125.8 704.92,-125.8"/>
<polygon fill="black" stroke="black" points="704.92,-129.3 714.92,-125.8 704.92,-122.3 704.92,-129.3"/>
</g>
<!-- LoggerModule -->
<g id="node3" class="node">
<title>LoggerModule</title>
<polygon fill="#8dd3c7" stroke="black" points="391.98,-84.8 388.98,-88.8 367.98,-88.8 364.98,-84.8 292.02,-84.8 292.02,-48.8 391.98,-48.8 391.98,-84.8"/>
<text text-anchor="middle" x="342" y="-62.6" font-family="Times,serif" font-size="14.00">LoggerModule</text>
</g>
<!-- LoggerModule&#45;&gt;OauthModule -->
<g id="edge3" class="edge">
<title>LoggerModule&#45;&gt;OauthModule</title>
<path fill="none" stroke="black" d="M342,-84.91C342,-104.14 342,-131.8 342,-131.8 342,-131.8 705.04,-131.8 705.04,-131.8"/>
<polygon fill="black" stroke="black" points="705.04,-135.3 715.04,-131.8 705.04,-128.3 705.04,-135.3"/>
</g>
<!-- ProvisioningModule -->
<g id="node4" class="node">
<title>ProvisioningModule</title>
<polygon fill="#8dd3c7" stroke="black" points="273.62,-84.8 270.62,-88.8 249.62,-88.8 246.62,-84.8 142.38,-84.8 142.38,-48.8 273.62,-48.8 273.62,-84.8"/>
<text text-anchor="middle" x="208" y="-62.6" font-family="Times,serif" font-size="14.00">ProvisioningModule</text>
</g>
<!-- ProvisioningModule&#45;&gt;OauthModule -->
<g id="edge4" class="edge">
<title>ProvisioningModule&#45;&gt;OauthModule</title>
<path fill="none" stroke="black" d="M208,-85.08C208,-106.12 208,-137.8 208,-137.8 208,-137.8 704.77,-137.8 704.77,-137.8"/>
<polygon fill="black" stroke="black" points="704.77,-141.3 714.77,-137.8 704.77,-134.3 704.77,-141.3"/>
</g>
<!-- SystemModule -->
<g id="node5" class="node">
<title>SystemModule</title>
<polygon fill="#8dd3c7" stroke="black" points="124.28,-84.8 121.28,-88.8 100.28,-88.8 97.28,-84.8 23.72,-84.8 23.72,-48.8 124.28,-48.8 124.28,-84.8"/>
<text text-anchor="middle" x="74" y="-62.6" font-family="Times,serif" font-size="14.00">SystemModule</text>
</g>
<!-- SystemModule&#45;&gt;OauthModule -->
<g id="edge5" class="edge">
<title>SystemModule&#45;&gt;OauthModule</title>
<path fill="none" stroke="black" d="M74,-85.05C74,-107.82 74,-143.8 74,-143.8 74,-143.8 704.98,-143.8 704.98,-143.8"/>
<polygon fill="black" stroke="black" points="704.98,-147.3 714.98,-143.8 704.98,-140.3 704.98,-147.3"/>
</g>
<!-- OauthUc  -->
<g id="node7" class="node">
<title>OauthUc </title>
<polygon fill="#fb8072" stroke="black" points="797.04,-214.8 726.96,-214.8 726.96,-178.8 797.04,-178.8 797.04,-214.8"/>
<text text-anchor="middle" x="762" y="-192.6" font-family="Times,serif" font-size="14.00">OauthUc </text>
</g>
<!-- OauthModule&#45;&gt;OauthUc  -->
<g id="edge6" class="edge">
<title>OauthModule&#45;&gt;OauthUc </title>
<path fill="none" stroke="black" stroke-dasharray="5,2" d="M762,-149.91C762,-149.91 762,-168.79 762,-168.79"/>
<polygon fill="black" stroke="black" points="758.5,-168.79 762,-178.79 765.5,-168.79 758.5,-168.79"/>
</g>
<!-- HydraOauthUc -->
<g id="node8" class="node">
<title>HydraOauthUc</title>
<ellipse fill="#fdb462" stroke="black" cx="1474" cy="-66.8" rx="70.06" ry="18"/>
<text text-anchor="middle" x="1474" y="-62.6" font-family="Times,serif" font-size="14.00">HydraOauthUc</text>
</g>
<!-- HydraOauthUc&#45;&gt;OauthModule -->
<g id="edge7" class="edge">
<title>HydraOauthUc&#45;&gt;OauthModule</title>
<path fill="none" stroke="black" d="M1474,-85.05C1474,-107.82 1474,-143.8 1474,-143.8 1474,-143.8 818.99,-143.8 818.99,-143.8"/>
<polygon fill="black" stroke="black" points="818.99,-140.3 808.99,-143.8 818.99,-147.3 818.99,-140.3"/>
</g>
<!-- HydraSsoService -->
<g id="node9" class="node">
<title>HydraSsoService</title>
<ellipse fill="#fdb462" stroke="black" cx="1308" cy="-66.8" rx="78.17" ry="18"/>
<text text-anchor="middle" x="1308" y="-62.6" font-family="Times,serif" font-size="14.00">HydraSsoService</text>
</g>
<!-- HydraSsoService&#45;&gt;OauthModule -->
<g id="edge8" class="edge">
<title>HydraSsoService&#45;&gt;OauthModule</title>
<path fill="none" stroke="black" d="M1308,-85.08C1308,-106.12 1308,-137.8 1308,-137.8 1308,-137.8 819.02,-137.8 819.02,-137.8"/>
<polygon fill="black" stroke="black" points="819.02,-134.3 809.02,-137.8 819.02,-141.3 819.02,-134.3"/>
</g>
<!-- LtiToolRepo -->
<g id="node10" class="node">
<title>LtiToolRepo</title>
<ellipse fill="#fdb462" stroke="black" cx="1151" cy="-66.8" rx="60.85" ry="18"/>
<text text-anchor="middle" x="1151" y="-62.6" font-family="Times,serif" font-size="14.00">LtiToolRepo</text>
</g>
<!-- LtiToolRepo&#45;&gt;OauthModule -->
<g id="edge9" class="edge">
<title>LtiToolRepo&#45;&gt;OauthModule</title>
<path fill="none" stroke="black" d="M1151,-84.91C1151,-104.14 1151,-131.8 1151,-131.8 1151,-131.8 818.92,-131.8 818.92,-131.8"/>
<polygon fill="black" stroke="black" points="818.92,-128.3 808.92,-131.8 818.92,-135.3 818.92,-128.3"/>
</g>
<!-- OAuthService -->
<g id="node11" class="node">
<title>OAuthService</title>
<ellipse fill="#fdb462" stroke="black" cx="1006" cy="-66.8" rx="66.06" ry="18"/>
<text text-anchor="middle" x="1006" y="-62.6" font-family="Times,serif" font-size="14.00">OAuthService</text>
</g>
<!-- OAuthService&#45;&gt;OauthModule -->
<g id="edge10" class="edge">
<title>OAuthService&#45;&gt;OauthModule</title>
<path fill="none" stroke="black" d="M1006,-84.82C1006,-102.17 1006,-125.8 1006,-125.8 1006,-125.8 819.05,-125.8 819.05,-125.8"/>
<polygon fill="black" stroke="black" points="819.05,-122.3 809.05,-125.8 819.05,-129.3 819.05,-122.3"/>
</g>
<!-- OauthUc -->
<g id="node12" class="node">
<title>OauthUc</title>
<ellipse fill="#fdb462" stroke="black" cx="876" cy="-66.8" rx="45.79" ry="18"/>
<text text-anchor="middle" x="876" y="-62.6" font-family="Times,serif" font-size="14.00">OauthUc</text>
</g>
<!-- OauthUc&#45;&gt;OauthModule -->
<g id="edge11" class="edge">
<title>OauthUc&#45;&gt;OauthModule</title>
<path fill="none" stroke="black" d="M876,-85.04C876,-100.37 876,-119.8 876,-119.8 876,-119.8 819.03,-119.8 819.03,-119.8"/>
<polygon fill="black" stroke="black" points="819.03,-116.3 809.03,-119.8 819.03,-123.3 819.03,-116.3"/>
</g>
<!-- UserRepo -->
<g id="node13" class="node">
<title>UserRepo</title>
<ellipse fill="#fdb462" stroke="black" cx="762" cy="-66.8" rx="49.81" ry="18"/>
<text text-anchor="middle" x="762" y="-62.6" font-family="Times,serif" font-size="14.00">UserRepo</text>
</g>
<!-- UserRepo&#45;&gt;OauthModule -->
<g id="edge12" class="edge">
<title>UserRepo&#45;&gt;OauthModule</title>
<path fill="none" stroke="black" d="M762,-84.91C762,-84.91 762,-103.79 762,-103.79"/>
<polygon fill="black" stroke="black" points="758.5,-103.79 762,-113.79 765.5,-103.79 758.5,-103.79"/>
</g>
</g>
</svg>
