<?xml version="1.0" encoding="UTF-8" standalone="no"?>
<!DOCTYPE svg PUBLIC "-//W3C//DTD SVG 1.1//EN"
 "http://www.w3.org/Graphics/SVG/1.1/DTD/svg11.dtd">
<!-- Generated by graphviz version 5.0.0 (20220707.1540)
 -->
<!-- Title: dependencies Pages: 1 -->
<svg width="1662pt" height="247pt"
 viewBox="0.00 0.00 1662.00 246.80" xmlns="http://www.w3.org/2000/svg" xmlns:xlink="http://www.w3.org/1999/xlink">
<g id="graph0" class="graph" transform="scale(1 1) rotate(0) translate(4 242.8)">
<title>dependencies</title>
<polygon fill="white" stroke="transparent" points="-4,4 -4,-242.8 1658,-242.8 1658,4 -4,4"/>
<text text-anchor="middle" x="827" y="-8.2" font-family="sans-serif" font-size="14.00">dependencies</text>
<g id="clust1" class="cluster">
<title>cluster_OauthModule</title>
<polygon fill="none" stroke="black" stroke-dasharray="1,5" points="8,-32.8 8,-230.8 1646,-230.8 1646,-32.8 8,-32.8"/>
</g>
<g id="clust6" class="cluster">
<title>cluster_OauthModule_providers</title>
<polygon fill="none" stroke="black" points="968,-40.8 968,-92.8 1638,-92.8 1638,-40.8 968,-40.8"/>
</g>
<g id="clust3" class="cluster">
<title>cluster_OauthModule_imports</title>
<polygon fill="none" stroke="black" points="16,-40.8 16,-92.8 960,-92.8 960,-40.8 16,-40.8"/>
</g>
<g id="clust4" class="cluster">
<title>cluster_OauthModule_exports</title>
<polygon fill="none" stroke="black" points="614,-170.8 614,-222.8 864,-222.8 864,-170.8 614,-170.8"/>
</g>
<!-- AuthorizationModule -->
<g id="node1" class="node">
<title>AuthorizationModule</title>
<polygon fill="#8dd3c7" stroke="black" points="951.81,-84.8 948.81,-88.8 927.81,-88.8 924.81,-84.8 814.19,-84.8 814.19,-48.8 951.81,-48.8 951.81,-84.8"/>
<text text-anchor="middle" x="883" y="-62.6" font-family="Times,serif" font-size="14.00">AuthorizationModule</text>
</g>
<!-- OauthModule -->
<g id="node8" class="node">
<title>OauthModule</title>
<polygon fill="#8dd3c7" stroke="black" points="781.77,-149.8 778.77,-153.8 757.77,-153.8 754.77,-149.8 688.23,-149.8 688.23,-113.8 781.77,-113.8 781.77,-149.8"/>
<text text-anchor="middle" x="735" y="-127.6" font-family="Times,serif" font-size="14.00">OauthModule</text>
</g>
<!-- AuthorizationModule&#45;&gt;OauthModule -->
<g id="edge1" class="edge">
<title>AuthorizationModule&#45;&gt;OauthModule</title>
<path fill="none" stroke="black" d="M835.35,-85.04C835.35,-100.37 835.35,-119.8 835.35,-119.8 835.35,-119.8 791.94,-119.8 791.94,-119.8"/>
<polygon fill="black" stroke="black" points="791.94,-116.3 781.94,-119.8 791.94,-123.3 791.94,-116.3"/>
</g>
<!-- EncryptionModule -->
<g id="node2" class="node">
<title>EncryptionModule</title>
<polygon fill="#8dd3c7" stroke="black" points="795.76,-84.8 792.76,-88.8 771.76,-88.8 768.76,-84.8 674.24,-84.8 674.24,-48.8 795.76,-48.8 795.76,-84.8"/>
<text text-anchor="middle" x="735" y="-62.6" font-family="Times,serif" font-size="14.00">EncryptionModule</text>
</g>
<!-- EncryptionModule&#45;&gt;OauthModule -->
<g id="edge2" class="edge">
<title>EncryptionModule&#45;&gt;OauthModule</title>
<path fill="none" stroke="black" d="M735,-84.91C735,-84.91 735,-103.79 735,-103.79"/>
<polygon fill="black" stroke="black" points="731.5,-103.79 735,-113.79 738.5,-103.79 731.5,-103.79"/>
</g>
<!-- LoggerModule -->
<g id="node3" class="node">
<title>LoggerModule</title>
<polygon fill="#8dd3c7" stroke="black" points="655.98,-84.8 652.98,-88.8 631.98,-88.8 628.98,-84.8 556.02,-84.8 556.02,-48.8 655.98,-48.8 655.98,-84.8"/>
<text text-anchor="middle" x="606" y="-62.6" font-family="Times,serif" font-size="14.00">LoggerModule</text>
</g>
<!-- LoggerModule&#45;&gt;OauthModule -->
<g id="edge3" class="edge">
<title>LoggerModule&#45;&gt;OauthModule</title>
<path fill="none" stroke="black" d="M639.1,-85.04C639.1,-100.37 639.1,-119.8 639.1,-119.8 639.1,-119.8 678.17,-119.8 678.17,-119.8"/>
<polygon fill="black" stroke="black" points="678.17,-123.3 688.17,-119.8 678.17,-116.3 678.17,-123.3"/>
</g>
<!-- ProvisioningModule -->
<g id="node4" class="node">
<title>ProvisioningModule</title>
<polygon fill="#8dd3c7" stroke="black" points="537.62,-84.8 534.62,-88.8 513.62,-88.8 510.62,-84.8 406.38,-84.8 406.38,-48.8 537.62,-48.8 537.62,-84.8"/>
<text text-anchor="middle" x="472" y="-62.6" font-family="Times,serif" font-size="14.00">ProvisioningModule</text>
</g>
<!-- ProvisioningModule&#45;&gt;OauthModule -->
<g id="edge4" class="edge">
<title>ProvisioningModule&#45;&gt;OauthModule</title>
<path fill="none" stroke="black" d="M472,-84.82C472,-102.17 472,-125.8 472,-125.8 472,-125.8 677.98,-125.8 677.98,-125.8"/>
<polygon fill="black" stroke="black" points="677.98,-129.3 687.98,-125.8 677.98,-122.3 677.98,-129.3"/>
</g>
<!-- SystemModule -->
<g id="node5" class="node">
<title>SystemModule</title>
<polygon fill="#8dd3c7" stroke="black" points="388.28,-84.8 385.28,-88.8 364.28,-88.8 361.28,-84.8 287.72,-84.8 287.72,-48.8 388.28,-48.8 388.28,-84.8"/>
<text text-anchor="middle" x="338" y="-62.6" font-family="Times,serif" font-size="14.00">SystemModule</text>
</g>
<!-- SystemModule&#45;&gt;OauthModule -->
<g id="edge5" class="edge">
<title>SystemModule&#45;&gt;OauthModule</title>
<path fill="none" stroke="black" d="M338,-84.91C338,-104.14 338,-131.8 338,-131.8 338,-131.8 677.9,-131.8 677.9,-131.8"/>
<polygon fill="black" stroke="black" points="677.9,-135.3 687.9,-131.8 677.9,-128.3 677.9,-135.3"/>
</g>
<!-- UserMigrationModule -->
<g id="node6" class="node">
<title>UserMigrationModule</title>
<polygon fill="#8dd3c7" stroke="black" points="269.98,-84.8 266.98,-88.8 245.98,-88.8 242.98,-84.8 128.02,-84.8 128.02,-48.8 269.98,-48.8 269.98,-84.8"/>
<text text-anchor="middle" x="199" y="-62.6" font-family="Times,serif" font-size="14.00">UserMigrationModule</text>
</g>
<!-- UserMigrationModule&#45;&gt;OauthModule -->
<g id="edge6" class="edge">
<title>UserMigrationModule&#45;&gt;OauthModule</title>
<path fill="none" stroke="black" d="M199,-85.08C199,-106.12 199,-137.8 199,-137.8 199,-137.8 677.9,-137.8 677.9,-137.8"/>
<polygon fill="black" stroke="black" points="677.9,-141.3 687.9,-137.8 677.9,-134.3 677.9,-141.3"/>
</g>
<!-- UserModule -->
<g id="node7" class="node">
<title>UserModule</title>
<polygon fill="#8dd3c7" stroke="black" points="109.99,-84.8 106.99,-88.8 85.99,-88.8 82.99,-84.8 24.01,-84.8 24.01,-48.8 109.99,-48.8 109.99,-84.8"/>
<text text-anchor="middle" x="67" y="-62.6" font-family="Times,serif" font-size="14.00">UserModule</text>
</g>
<!-- UserModule&#45;&gt;OauthModule -->
<g id="edge7" class="edge">
<title>UserModule&#45;&gt;OauthModule</title>
<path fill="none" stroke="black" d="M67,-85.05C67,-107.82 67,-143.8 67,-143.8 67,-143.8 678.03,-143.8 678.03,-143.8"/>
<polygon fill="black" stroke="black" points="678.03,-147.3 688.03,-143.8 678.03,-140.3 678.03,-147.3"/>
</g>
<!-- HydraSsoService  -->
<g id="node9" class="node">
<title>HydraSsoService </title>
<polygon fill="#fb8072" stroke="black" points="856.2,-214.8 739.8,-214.8 739.8,-178.8 856.2,-178.8 856.2,-214.8"/>
<text text-anchor="middle" x="798" y="-192.6" font-family="Times,serif" font-size="14.00">HydraSsoService </text>
</g>
<!-- OauthModule&#45;&gt;HydraSsoService  -->
<g id="edge8" class="edge">
<title>OauthModule&#45;&gt;HydraSsoService </title>
<path fill="none" stroke="black" stroke-dasharray="5,2" d="M760.77,-149.91C760.77,-149.91 760.77,-168.79 760.77,-168.79"/>
<polygon fill="black" stroke="black" points="757.27,-168.79 760.77,-178.79 764.27,-168.79 757.27,-168.79"/>
</g>
<!-- OAuthService  -->
<g id="node10" class="node">
<title>OAuthService </title>
<polygon fill="#fb8072" stroke="black" points="721.59,-214.8 622.41,-214.8 622.41,-178.8 721.59,-178.8 721.59,-214.8"/>
<text text-anchor="middle" x="672" y="-192.6" font-family="Times,serif" font-size="14.00">OAuthService </text>
</g>
<!-- OauthModule&#45;&gt;OAuthService  -->
<g id="edge9" class="edge">
<title>OauthModule&#45;&gt;OAuthService </title>
<path fill="none" stroke="black" stroke-dasharray="5,2" d="M704.96,-149.91C704.96,-149.91 704.96,-168.79 704.96,-168.79"/>
<polygon fill="black" stroke="black" points="701.46,-168.79 704.96,-178.79 708.46,-168.79 701.46,-168.79"/>
</g>
<!-- HydraSsoService -->
<g id="node11" class="node">
<title>HydraSsoService</title>
<ellipse fill="#fdb462" stroke="black" cx="1552" cy="-66.8" rx="78.17" ry="18"/>
<text text-anchor="middle" x="1552" y="-62.6" font-family="Times,serif" font-size="14.00">HydraSsoService</text>
</g>
<!-- HydraSsoService&#45;&gt;OauthModule -->
<g id="edge10" class="edge">
<title>HydraSsoService&#45;&gt;OauthModule</title>
<path fill="none" stroke="black" d="M1552,-85.05C1552,-107.82 1552,-143.8 1552,-143.8 1552,-143.8 791.86,-143.8 791.86,-143.8"/>
<polygon fill="black" stroke="black" points="791.86,-140.3 781.86,-143.8 791.86,-147.3 791.86,-140.3"/>
</g>
<!-- LtiToolRepo -->
<g id="node12" class="node">
<title>LtiToolRepo</title>
<ellipse fill="#fdb462" stroke="black" cx="1395" cy="-66.8" rx="60.85" ry="18"/>
<text text-anchor="middle" x="1395" y="-62.6" font-family="Times,serif" font-size="14.00">LtiToolRepo</text>
</g>
<!-- LtiToolRepo&#45;&gt;OauthModule -->
<g id="edge11" class="edge">
<title>LtiToolRepo&#45;&gt;OauthModule</title>
<path fill="none" stroke="black" d="M1395,-85.08C1395,-106.12 1395,-137.8 1395,-137.8 1395,-137.8 791.94,-137.8 791.94,-137.8"/>
<polygon fill="black" stroke="black" points="791.94,-134.3 781.94,-137.8 791.94,-141.3 791.94,-134.3"/>
</g>
<!-- OAuthService -->
<g id="node13" class="node">
<title>OAuthService</title>
<ellipse fill="#fdb462" stroke="black" cx="1250" cy="-66.8" rx="66.06" ry="18"/>
<text text-anchor="middle" x="1250" y="-62.6" font-family="Times,serif" font-size="14.00">OAuthService</text>
</g>
<!-- OAuthService&#45;&gt;OauthModule -->
<g id="edge12" class="edge">
<title>OAuthService&#45;&gt;OauthModule</title>
<path fill="none" stroke="black" d="M1250,-84.91C1250,-104.14 1250,-131.8 1250,-131.8 1250,-131.8 792.07,-131.8 792.07,-131.8"/>
<polygon fill="black" stroke="black" points="792.07,-128.3 782.07,-131.8 792.07,-135.3 792.07,-128.3"/>
</g>
<!-- OauthAdapterService -->
<g id="node14" class="node">
<title>OauthAdapterService</title>
<ellipse fill="#fdb462" stroke="black" cx="1071" cy="-66.8" rx="94.89" ry="18"/>
<text text-anchor="middle" x="1071" y="-62.6" font-family="Times,serif" font-size="14.00">OauthAdapterService</text>
</g>
<!-- OauthAdapterService&#45;&gt;OauthModule -->
<g id="edge13" class="edge">
<title>OauthAdapterService&#45;&gt;OauthModule</title>
<path fill="none" stroke="black" d="M1071,-84.82C1071,-102.17 1071,-125.8 1071,-125.8 1071,-125.8 792.07,-125.8 792.07,-125.8"/>
<polygon fill="black" stroke="black" points="792.07,-122.3 782.07,-125.8 792.07,-129.3 792.07,-122.3"/>
</g>
</g>
</svg>
