<?xml version="1.0" encoding="UTF-8" standalone="no"?>
<!DOCTYPE svg PUBLIC "-//W3C//DTD SVG 1.1//EN"
 "http://www.w3.org/Graphics/SVG/1.1/DTD/svg11.dtd">
<!-- Generated by graphviz version 5.0.0 (20220707.1540)
 -->
<!-- Title: dependencies Pages: 1 -->
<svg width="1576pt" height="247pt"
 viewBox="0.00 0.00 1576.00 246.80" xmlns="http://www.w3.org/2000/svg" xmlns:xlink="http://www.w3.org/1999/xlink">
<g id="graph0" class="graph" transform="scale(1 1) rotate(0) translate(4 242.8)">
<title>dependencies</title>
<polygon fill="white" stroke="transparent" points="-4,4 -4,-242.8 1572,-242.8 1572,4 -4,4"/>
<text text-anchor="middle" x="784" y="-8.2" font-family="sans-serif" font-size="14.00">dependencies</text>
<g id="clust1" class="cluster">
<title>cluster_OauthModule</title>
<polygon fill="none" stroke="black" stroke-dasharray="1,5" points="8,-32.8 8,-230.8 1560,-230.8 1560,-32.8 8,-32.8"/>
</g>
<g id="clust3" class="cluster">
<title>cluster_OauthModule_imports</title>
<polygon fill="none" stroke="black" points="872,-40.8 872,-92.8 1552,-92.8 1552,-40.8 872,-40.8"/>
</g>
<g id="clust6" class="cluster">
<title>cluster_OauthModule_providers</title>
<polygon fill="none" stroke="black" points="16,-40.8 16,-92.8 864,-92.8 864,-40.8 16,-40.8"/>
</g>
<g id="clust4" class="cluster">
<title>cluster_OauthModule_exports</title>
<polygon fill="none" stroke="black" points="743,-170.8 743,-222.8 829,-222.8 829,-170.8 743,-170.8"/>
</g>
<!-- AuthorizationModule -->
<g id="node1" class="node">
<title>AuthorizationModule</title>
<polygon fill="#8dd3c7" stroke="black" points="1543.81,-84.8 1540.81,-88.8 1519.81,-88.8 1516.81,-84.8 1406.19,-84.8 1406.19,-48.8 1543.81,-48.8 1543.81,-84.8"/>
<text text-anchor="middle" x="1475" y="-62.6" font-family="Times,serif" font-size="14.00">AuthorizationModule</text>
</g>
<!-- OauthModule -->
<g id="node6" class="node">
<title>OauthModule</title>
<polygon fill="#8dd3c7" stroke="black" points="832.77,-149.8 829.77,-153.8 808.77,-153.8 805.77,-149.8 739.23,-149.8 739.23,-113.8 832.77,-113.8 832.77,-149.8"/>
<text text-anchor="middle" x="786" y="-127.6" font-family="Times,serif" font-size="14.00">OauthModule</text>
</g>
<!-- AuthorizationModule&#45;&gt;OauthModule -->
<g id="edge1" class="edge">
<title>AuthorizationModule&#45;&gt;OauthModule</title>
<path fill="none" stroke="black" d="M1475,-85.05C1475,-107.82 1475,-143.8 1475,-143.8 1475,-143.8 842.82,-143.8 842.82,-143.8"/>
<polygon fill="black" stroke="black" points="842.82,-140.3 832.82,-143.8 842.82,-147.3 842.82,-140.3"/>
</g>
<!-- EncryptionModule -->
<g id="node2" class="node">
<title>EncryptionModule</title>
<polygon fill="#8dd3c7" stroke="black" points="1387.76,-84.8 1384.76,-88.8 1363.76,-88.8 1360.76,-84.8 1266.24,-84.8 1266.24,-48.8 1387.76,-48.8 1387.76,-84.8"/>
<text text-anchor="middle" x="1327" y="-62.6" font-family="Times,serif" font-size="14.00">EncryptionModule</text>
</g>
<!-- EncryptionModule&#45;&gt;OauthModule -->
<g id="edge2" class="edge">
<title>EncryptionModule&#45;&gt;OauthModule</title>
<path fill="none" stroke="black" d="M1327,-85.08C1327,-106.12 1327,-137.8 1327,-137.8 1327,-137.8 843.06,-137.8 843.06,-137.8"/>
<polygon fill="black" stroke="black" points="843.06,-134.3 833.06,-137.8 843.06,-141.3 843.06,-134.3"/>
</g>
<!-- LoggerModule -->
<g id="node3" class="node">
<title>LoggerModule</title>
<polygon fill="#8dd3c7" stroke="black" points="1247.98,-84.8 1244.98,-88.8 1223.98,-88.8 1220.98,-84.8 1148.02,-84.8 1148.02,-48.8 1247.98,-48.8 1247.98,-84.8"/>
<text text-anchor="middle" x="1198" y="-62.6" font-family="Times,serif" font-size="14.00">LoggerModule</text>
</g>
<!-- LoggerModule&#45;&gt;OauthModule -->
<g id="edge3" class="edge">
<title>LoggerModule&#45;&gt;OauthModule</title>
<path fill="none" stroke="black" d="M1198,-84.91C1198,-104.14 1198,-131.8 1198,-131.8 1198,-131.8 842.86,-131.8 842.86,-131.8"/>
<polygon fill="black" stroke="black" points="842.86,-128.3 832.86,-131.8 842.86,-135.3 842.86,-128.3"/>
</g>
<!-- ProvisioningModule -->
<g id="node4" class="node">
<title>ProvisioningModule</title>
<polygon fill="#8dd3c7" stroke="black" points="1129.62,-84.8 1126.62,-88.8 1105.62,-88.8 1102.62,-84.8 998.38,-84.8 998.38,-48.8 1129.62,-48.8 1129.62,-84.8"/>
<text text-anchor="middle" x="1064" y="-62.6" font-family="Times,serif" font-size="14.00">ProvisioningModule</text>
</g>
<!-- ProvisioningModule&#45;&gt;OauthModule -->
<g id="edge4" class="edge">
<title>ProvisioningModule&#45;&gt;OauthModule</title>
<path fill="none" stroke="black" d="M1064,-84.82C1064,-102.17 1064,-125.8 1064,-125.8 1064,-125.8 842.84,-125.8 842.84,-125.8"/>
<polygon fill="black" stroke="black" points="842.84,-122.3 832.84,-125.8 842.84,-129.3 842.84,-122.3"/>
</g>
<!-- SystemModule -->
<g id="node5" class="node">
<title>SystemModule</title>
<polygon fill="#8dd3c7" stroke="black" points="980.28,-84.8 977.28,-88.8 956.28,-88.8 953.28,-84.8 879.72,-84.8 879.72,-48.8 980.28,-48.8 980.28,-84.8"/>
<text text-anchor="middle" x="930" y="-62.6" font-family="Times,serif" font-size="14.00">SystemModule</text>
</g>
<!-- SystemModule&#45;&gt;OauthModule -->
<g id="edge5" class="edge">
<title>SystemModule&#45;&gt;OauthModule</title>
<path fill="none" stroke="black" d="M930,-85.04C930,-100.37 930,-119.8 930,-119.8 930,-119.8 843.15,-119.8 843.15,-119.8"/>
<polygon fill="black" stroke="black" points="843.15,-116.3 833.15,-119.8 843.15,-123.3 843.15,-116.3"/>
</g>
<!-- OauthUc  -->
<g id="node7" class="node">
<title>OauthUc </title>
<polygon fill="#fb8072" stroke="black" points="821.04,-214.8 750.96,-214.8 750.96,-178.8 821.04,-178.8 821.04,-214.8"/>
<text text-anchor="middle" x="786" y="-192.6" font-family="Times,serif" font-size="14.00">OauthUc </text>
</g>
<!-- OauthModule&#45;&gt;OauthUc  -->
<g id="edge6" class="edge">
<title>OauthModule&#45;&gt;OauthUc </title>
<path fill="none" stroke="black" stroke-dasharray="5,2" d="M786,-149.91C786,-149.91 786,-168.79 786,-168.79"/>
<polygon fill="black" stroke="black" points="782.5,-168.79 786,-178.79 789.5,-168.79 782.5,-168.79"/>
</g>
<!-- HydraOauthUc -->
<g id="node8" class="node">
<title>HydraOauthUc</title>
<ellipse fill="#fdb462" stroke="black" cx="786" cy="-66.8" rx="70.06" ry="18"/>
<text text-anchor="middle" x="786" y="-62.6" font-family="Times,serif" font-size="14.00">HydraOauthUc</text>
</g>
<!-- HydraOauthUc&#45;&gt;OauthModule -->
<g id="edge7" class="edge">
<title>HydraOauthUc&#45;&gt;OauthModule</title>
<path fill="none" stroke="black" d="M786,-84.91C786,-84.91 786,-103.79 786,-103.79"/>
<polygon fill="black" stroke="black" points="782.5,-103.79 786,-113.79 789.5,-103.79 782.5,-103.79"/>
</g>
<!-- HydraSsoService -->
<g id="node9" class="node">
<title>HydraSsoService</title>
<ellipse fill="#fdb462" stroke="black" cx="620" cy="-66.8" rx="78.17" ry="18"/>
<text text-anchor="middle" x="620" y="-62.6" font-family="Times,serif" font-size="14.00">HydraSsoService</text>
</g>
<!-- HydraSsoService&#45;&gt;OauthModule -->
<g id="edge8" class="edge">
<title>HydraSsoService&#45;&gt;OauthModule</title>
<path fill="none" stroke="black" d="M620,-85.04C620,-100.37 620,-119.8 620,-119.8 620,-119.8 728.88,-119.8 728.88,-119.8"/>
<polygon fill="black" stroke="black" points="728.88,-123.3 738.88,-119.8 728.88,-116.3 728.88,-123.3"/>
</g>
<!-- LtiToolRepo -->
<g id="node10" class="node">
<title>LtiToolRepo</title>
<ellipse fill="#fdb462" stroke="black" cx="463" cy="-66.8" rx="60.85" ry="18"/>
<text text-anchor="middle" x="463" y="-62.6" font-family="Times,serif" font-size="14.00">LtiToolRepo</text>
</g>
<!-- LtiToolRepo&#45;&gt;OauthModule -->
<g id="edge9" class="edge">
<title>LtiToolRepo&#45;&gt;OauthModule</title>
<path fill="none" stroke="black" d="M463,-84.82C463,-102.17 463,-125.8 463,-125.8 463,-125.8 729.03,-125.8 729.03,-125.8"/>
<polygon fill="black" stroke="black" points="729.03,-129.3 739.03,-125.8 729.03,-122.3 729.03,-129.3"/>
</g>
<!-- OAuthService -->
<g id="node11" class="node">
<title>OAuthService</title>
<ellipse fill="#fdb462" stroke="black" cx="318" cy="-66.8" rx="66.06" ry="18"/>
<text text-anchor="middle" x="318" y="-62.6" font-family="Times,serif" font-size="14.00">OAuthService</text>
</g>
<!-- OAuthService&#45;&gt;OauthModule -->
<g id="edge10" class="edge">
<title>OAuthService&#45;&gt;OauthModule</title>
<path fill="none" stroke="black" d="M318,-84.91C318,-104.14 318,-131.8 318,-131.8 318,-131.8 728.98,-131.8 728.98,-131.8"/>
<polygon fill="black" stroke="black" points="728.98,-135.3 738.98,-131.8 728.98,-128.3 728.98,-135.3"/>
</g>
<!-- OauthUc -->
<g id="node12" class="node">
<title>OauthUc</title>
<ellipse fill="#fdb462" stroke="black" cx="188" cy="-66.8" rx="45.79" ry="18"/>
<text text-anchor="middle" x="188" y="-62.6" font-family="Times,serif" font-size="14.00">OauthUc</text>
</g>
<!-- OauthUc&#45;&gt;OauthModule -->
<g id="edge11" class="edge">
<title>OauthUc&#45;&gt;OauthModule</title>
<path fill="none" stroke="black" d="M188,-85.08C188,-106.12 188,-137.8 188,-137.8 188,-137.8 729.08,-137.8 729.08,-137.8"/>
<polygon fill="black" stroke="black" points="729.08,-141.3 739.08,-137.8 729.08,-134.3 729.08,-141.3"/>
</g>
<!-- UserRepo -->
<g id="node13" class="node">
<title>UserRepo</title>
<ellipse fill="#fdb462" stroke="black" cx="74" cy="-66.8" rx="49.81" ry="18"/>
<text text-anchor="middle" x="74" y="-62.6" font-family="Times,serif" font-size="14.00">UserRepo</text>
</g>
<!-- UserRepo&#45;&gt;OauthModule -->
<g id="edge12" class="edge">
<title>UserRepo&#45;&gt;OauthModule</title>
<path fill="none" stroke="black" d="M74,-85.05C74,-107.82 74,-143.8 74,-143.8 74,-143.8 729.01,-143.8 729.01,-143.8"/>
<polygon fill="black" stroke="black" points="729.01,-147.3 739.01,-143.8 729.01,-140.3 729.01,-147.3"/>
</g>
</g>
</svg>
