<?xml version="1.0" encoding="UTF-8" standalone="no"?>
<!DOCTYPE svg PUBLIC "-//W3C//DTD SVG 1.1//EN"
 "http://www.w3.org/Graphics/SVG/1.1/DTD/svg11.dtd">
<!-- Generated by graphviz version 5.0.0 (20220707.1540)
 -->
<!-- Title: dependencies Pages: 1 -->
<svg width="1026pt" height="247pt"
 viewBox="0.00 0.00 1026.00 246.80" xmlns="http://www.w3.org/2000/svg" xmlns:xlink="http://www.w3.org/1999/xlink">
<g id="graph0" class="graph" transform="scale(1 1) rotate(0) translate(4 242.8)">
<title>dependencies</title>
<polygon fill="white" stroke="transparent" points="-4,4 -4,-242.8 1022,-242.8 1022,4 -4,4"/>
<text text-anchor="middle" x="509" y="-8.2" font-family="sans-serif" font-size="14.00">dependencies</text>
<g id="clust1" class="cluster">
<title>cluster_OauthModule</title>
<polygon fill="none" stroke="black" stroke-dasharray="1,5" points="8,-32.8 8,-230.8 1010,-230.8 1010,-32.8 8,-32.8"/>
</g>
<g id="clust6" class="cluster">
<title>cluster_OauthModule_providers</title>
<polygon fill="none" stroke="black" points="540,-40.8 540,-92.8 1002,-92.8 1002,-40.8 540,-40.8"/>
</g>
<g id="clust4" class="cluster">
<title>cluster_OauthModule_exports</title>
<polygon fill="none" stroke="black" points="334,-170.8 334,-222.8 584,-222.8 584,-170.8 334,-170.8"/>
</g>
<g id="clust3" class="cluster">
<title>cluster_OauthModule_imports</title>
<polygon fill="none" stroke="black" points="16,-40.8 16,-92.8 532,-92.8 532,-40.8 16,-40.8"/>
</g>
<!-- AuthorizationModule -->
<g id="node1" class="node">
<title>AuthorizationModule</title>
<polygon fill="#8dd3c7" stroke="black" points="523.81,-84.8 520.81,-88.8 499.81,-88.8 496.81,-84.8 386.19,-84.8 386.19,-48.8 523.81,-48.8 523.81,-84.8"/>
<text text-anchor="middle" x="455" y="-62.6" font-family="Times,serif" font-size="14.00">AuthorizationModule</text>
</g>
<!-- OauthModule -->
<g id="node5" class="node">
<title>OauthModule</title>
<polygon fill="#8dd3c7" stroke="black" points="501.77,-149.8 498.77,-153.8 477.77,-153.8 474.77,-149.8 408.23,-149.8 408.23,-113.8 501.77,-113.8 501.77,-149.8"/>
<text text-anchor="middle" x="455" y="-127.6" font-family="Times,serif" font-size="14.00">OauthModule</text>
</g>
<!-- AuthorizationModule&#45;&gt;OauthModule -->
<g id="edge1" class="edge">
<title>AuthorizationModule&#45;&gt;OauthModule</title>
<path fill="none" stroke="black" d="M455,-84.91C455,-84.91 455,-103.79 455,-103.79"/>
<polygon fill="black" stroke="black" points="451.5,-103.79 455,-113.79 458.5,-103.79 451.5,-103.79"/>
</g>
<!-- EncryptionModule -->
<g id="node2" class="node">
<title>EncryptionModule</title>
<polygon fill="#8dd3c7" stroke="black" points="367.76,-84.8 364.76,-88.8 343.76,-88.8 340.76,-84.8 246.24,-84.8 246.24,-48.8 367.76,-48.8 367.76,-84.8"/>
<text text-anchor="middle" x="307" y="-62.6" font-family="Times,serif" font-size="14.00">EncryptionModule</text>
</g>
<!-- EncryptionModule&#45;&gt;OauthModule -->
<g id="edge2" class="edge">
<title>EncryptionModule&#45;&gt;OauthModule</title>
<path fill="none" stroke="black" d="M355.04,-84.83C355.04,-101.2 355.04,-122.8 355.04,-122.8 355.04,-122.8 397.95,-122.8 397.95,-122.8"/>
<polygon fill="black" stroke="black" points="397.95,-126.3 407.95,-122.8 397.95,-119.3 397.95,-126.3"/>
</g>
<!-- LoggerModule -->
<g id="node3" class="node">
<title>LoggerModule</title>
<polygon fill="#8dd3c7" stroke="black" points="227.98,-84.8 224.98,-88.8 203.98,-88.8 200.98,-84.8 128.02,-84.8 128.02,-48.8 227.98,-48.8 227.98,-84.8"/>
<text text-anchor="middle" x="178" y="-62.6" font-family="Times,serif" font-size="14.00">LoggerModule</text>
</g>
<!-- LoggerModule&#45;&gt;OauthModule -->
<g id="edge3" class="edge">
<title>LoggerModule&#45;&gt;OauthModule</title>
<path fill="none" stroke="black" d="M178,-84.91C178,-104.14 178,-131.8 178,-131.8 178,-131.8 398.01,-131.8 398.01,-131.8"/>
<polygon fill="black" stroke="black" points="398.01,-135.3 408.01,-131.8 398.01,-128.3 398.01,-135.3"/>
</g>
<!-- UserModule -->
<g id="node4" class="node">
<title>UserModule</title>
<polygon fill="#8dd3c7" stroke="black" points="109.99,-84.8 106.99,-88.8 85.99,-88.8 82.99,-84.8 24.01,-84.8 24.01,-48.8 109.99,-48.8 109.99,-84.8"/>
<text text-anchor="middle" x="67" y="-62.6" font-family="Times,serif" font-size="14.00">UserModule</text>
</g>
<!-- UserModule&#45;&gt;OauthModule -->
<g id="edge4" class="edge">
<title>UserModule&#45;&gt;OauthModule</title>
<path fill="none" stroke="black" d="M67,-85.09C67,-107.01 67,-140.8 67,-140.8 67,-140.8 398.2,-140.8 398.2,-140.8"/>
<polygon fill="black" stroke="black" points="398.2,-144.3 408.2,-140.8 398.2,-137.3 398.2,-144.3"/>
</g>
<!-- HydraSsoService  -->
<g id="node6" class="node">
<title>HydraSsoService </title>
<polygon fill="#fb8072" stroke="black" points="576.2,-214.8 459.8,-214.8 459.8,-178.8 576.2,-178.8 576.2,-214.8"/>
<text text-anchor="middle" x="518" y="-192.6" font-family="Times,serif" font-size="14.00">HydraSsoService </text>
</g>
<!-- OauthModule&#45;&gt;HydraSsoService  -->
<g id="edge5" class="edge">
<title>OauthModule&#45;&gt;HydraSsoService </title>
<path fill="none" stroke="black" stroke-dasharray="5,2" d="M480.77,-149.91C480.77,-149.91 480.77,-168.79 480.77,-168.79"/>
<polygon fill="black" stroke="black" points="477.27,-168.79 480.77,-178.79 484.27,-168.79 477.27,-168.79"/>
</g>
<!-- OAuthService  -->
<g id="node7" class="node">
<title>OAuthService </title>
<polygon fill="#fb8072" stroke="black" points="441.59,-214.8 342.41,-214.8 342.41,-178.8 441.59,-178.8 441.59,-214.8"/>
<text text-anchor="middle" x="392" y="-192.6" font-family="Times,serif" font-size="14.00">OAuthService </text>
</g>
<!-- OauthModule&#45;&gt;OAuthService  -->
<g id="edge6" class="edge">
<title>OauthModule&#45;&gt;OAuthService </title>
<path fill="none" stroke="black" stroke-dasharray="5,2" d="M424.96,-149.91C424.96,-149.91 424.96,-168.79 424.96,-168.79"/>
<polygon fill="black" stroke="black" points="421.46,-168.79 424.96,-178.79 428.46,-168.79 421.46,-168.79"/>
</g>
<!-- HydraSsoService -->
<g id="node8" class="node">
<title>HydraSsoService</title>
<ellipse fill="#fdb462" stroke="black" cx="916" cy="-66.8" rx="78.17" ry="18"/>
<text text-anchor="middle" x="916" y="-62.6" font-family="Times,serif" font-size="14.00">HydraSsoService</text>
</g>
<!-- HydraSsoService&#45;&gt;OauthModule -->
<g id="edge7" class="edge">
<title>HydraSsoService&#45;&gt;OauthModule</title>
<path fill="none" stroke="black" d="M916,-85.09C916,-107.01 916,-140.8 916,-140.8 916,-140.8 512.17,-140.8 512.17,-140.8"/>
<polygon fill="black" stroke="black" points="512.17,-137.3 502.17,-140.8 512.17,-144.3 512.17,-137.3"/>
</g>
<!-- LtiToolRepo -->
<g id="node9" class="node">
<title>LtiToolRepo</title>
<ellipse fill="#fdb462" stroke="black" cx="759" cy="-66.8" rx="60.85" ry="18"/>
<text text-anchor="middle" x="759" y="-62.6" font-family="Times,serif" font-size="14.00">LtiToolRepo</text>
</g>
<!-- LtiToolRepo&#45;&gt;OauthModule -->
<g id="edge8" class="edge">
<title>LtiToolRepo&#45;&gt;OauthModule</title>
<path fill="none" stroke="black" d="M759,-84.91C759,-104.14 759,-131.8 759,-131.8 759,-131.8 511.83,-131.8 511.83,-131.8"/>
<polygon fill="black" stroke="black" points="511.83,-128.3 501.83,-131.8 511.83,-135.3 511.83,-128.3"/>
</g>
<!-- OAuthService -->
<g id="node10" class="node">
<title>OAuthService</title>
<ellipse fill="#fdb462" stroke="black" cx="614" cy="-66.8" rx="66.06" ry="18"/>
<text text-anchor="middle" x="614" y="-62.6" font-family="Times,serif" font-size="14.00">OAuthService</text>
</g>
<!-- OAuthService&#45;&gt;OauthModule -->
<g id="edge9" class="edge">
<title>OAuthService&#45;&gt;OauthModule</title>
<path fill="none" stroke="black" d="M562.03,-78.13C562.03,-94.5 562.03,-122.8 562.03,-122.8 562.03,-122.8 511.95,-122.8 511.95,-122.8"/>
<polygon fill="black" stroke="black" points="511.95,-119.3 501.95,-122.8 511.95,-126.3 511.95,-119.3"/>
</g>
</g>
</svg>
