<?xml version="1.0" encoding="UTF-8" standalone="no"?>
<!DOCTYPE svg PUBLIC "-//W3C//DTD SVG 1.1//EN"
 "http://www.w3.org/Graphics/SVG/1.1/DTD/svg11.dtd">
<!-- Generated by graphviz version 5.0.0 (20220707.1540)
 -->
<!-- Title: dependencies Pages: 1 -->
<svg width="1164pt" height="247pt"
 viewBox="0.00 0.00 1164.00 246.80" xmlns="http://www.w3.org/2000/svg" xmlns:xlink="http://www.w3.org/1999/xlink">
<g id="graph0" class="graph" transform="scale(1 1) rotate(0) translate(4 242.8)">
<title>dependencies</title>
<polygon fill="white" stroke="transparent" points="-4,4 -4,-242.8 1160,-242.8 1160,4 -4,4"/>
<text text-anchor="middle" x="578" y="-8.2" font-family="sans-serif" font-size="14.00">dependencies</text>
<g id="clust1" class="cluster">
<title>cluster_OauthModule</title>
<polygon fill="none" stroke="black" stroke-dasharray="1,5" points="8,-32.8 8,-230.8 1148,-230.8 1148,-32.8 8,-32.8"/>
</g>
<g id="clust4" class="cluster">
<title>cluster_OauthModule_exports</title>
<polygon fill="none" stroke="black" points="498,-170.8 498,-222.8 584,-222.8 584,-170.8 498,-170.8"/>
</g>
<g id="clust3" class="cluster">
<title>cluster_OauthModule_imports</title>
<polygon fill="none" stroke="black" points="728,-40.8 728,-92.8 1140,-92.8 1140,-40.8 728,-40.8"/>
</g>
<g id="clust6" class="cluster">
<title>cluster_OauthModule_providers</title>
<polygon fill="none" stroke="black" points="16,-40.8 16,-92.8 720,-92.8 720,-40.8 16,-40.8"/>
</g>
<!-- AuthorizationModule -->
<g id="node1" class="node">
<title>AuthorizationModule</title>
<polygon fill="#8dd3c7" stroke="black" points="1131.81,-84.8 1128.81,-88.8 1107.81,-88.8 1104.81,-84.8 994.19,-84.8 994.19,-48.8 1131.81,-48.8 1131.81,-84.8"/>
<text text-anchor="middle" x="1063" y="-62.6" font-family="Times,serif" font-size="14.00">AuthorizationModule</text>
</g>
<!-- OauthModule -->
<g id="node4" class="node">
<title>OauthModule</title>
<polygon fill="#8dd3c7" stroke="black" points="587.77,-149.8 584.77,-153.8 563.77,-153.8 560.77,-149.8 494.23,-149.8 494.23,-113.8 587.77,-113.8 587.77,-149.8"/>
<text text-anchor="middle" x="541" y="-127.6" font-family="Times,serif" font-size="14.00">OauthModule</text>
</g>
<!-- AuthorizationModule&#45;&gt;OauthModule -->
<g id="edge1" class="edge">
<title>AuthorizationModule&#45;&gt;OauthModule</title>
<path fill="none" stroke="black" d="M1063,-85.09C1063,-107.01 1063,-140.8 1063,-140.8 1063,-140.8 597.78,-140.8 597.78,-140.8"/>
<polygon fill="black" stroke="black" points="597.78,-137.3 587.78,-140.8 597.78,-144.3 597.78,-137.3"/>
</g>
<!-- EncryptionModule -->
<g id="node2" class="node">
<title>EncryptionModule</title>
<polygon fill="#8dd3c7" stroke="black" points="975.76,-84.8 972.76,-88.8 951.76,-88.8 948.76,-84.8 854.24,-84.8 854.24,-48.8 975.76,-48.8 975.76,-84.8"/>
<text text-anchor="middle" x="915" y="-62.6" font-family="Times,serif" font-size="14.00">EncryptionModule</text>
</g>
<!-- EncryptionModule&#45;&gt;OauthModule -->
<g id="edge2" class="edge">
<title>EncryptionModule&#45;&gt;OauthModule</title>
<path fill="none" stroke="black" d="M915,-84.91C915,-104.14 915,-131.8 915,-131.8 915,-131.8 597.99,-131.8 597.99,-131.8"/>
<polygon fill="black" stroke="black" points="597.99,-128.3 587.99,-131.8 597.99,-135.3 597.99,-128.3"/>
</g>
<!-- LoggerModule -->
<g id="node3" class="node">
<title>LoggerModule</title>
<polygon fill="#8dd3c7" stroke="black" points="835.98,-84.8 832.98,-88.8 811.98,-88.8 808.98,-84.8 736.02,-84.8 736.02,-48.8 835.98,-48.8 835.98,-84.8"/>
<text text-anchor="middle" x="786" y="-62.6" font-family="Times,serif" font-size="14.00">LoggerModule</text>
</g>
<!-- LoggerModule&#45;&gt;OauthModule -->
<g id="edge3" class="edge">
<title>LoggerModule&#45;&gt;OauthModule</title>
<path fill="none" stroke="black" d="M786,-84.83C786,-101.2 786,-122.8 786,-122.8 786,-122.8 597.95,-122.8 597.95,-122.8"/>
<polygon fill="black" stroke="black" points="597.95,-119.3 587.95,-122.8 597.95,-126.3 597.95,-119.3"/>
</g>
<!-- OauthUc  -->
<g id="node5" class="node">
<title>OauthUc </title>
<polygon fill="#fb8072" stroke="black" points="576.04,-214.8 505.96,-214.8 505.96,-178.8 576.04,-178.8 576.04,-214.8"/>
<text text-anchor="middle" x="541" y="-192.6" font-family="Times,serif" font-size="14.00">OauthUc </text>
</g>
<!-- OauthModule&#45;&gt;OauthUc  -->
<g id="edge4" class="edge">
<title>OauthModule&#45;&gt;OauthUc </title>
<path fill="none" stroke="black" stroke-dasharray="5,2" d="M541,-149.91C541,-149.91 541,-168.79 541,-168.79"/>
<polygon fill="black" stroke="black" points="537.5,-168.79 541,-178.79 544.5,-168.79 537.5,-168.79"/>
</g>
<!-- IservOAuthService -->
<g id="node6" class="node">
<title>IservOAuthService</title>
<ellipse fill="#fdb462" stroke="black" cx="626" cy="-66.8" rx="85.67" ry="18"/>
<text text-anchor="middle" x="626" y="-62.6" font-family="Times,serif" font-size="14.00">IservOAuthService</text>
</g>
<!-- IservOAuthService&#45;&gt;OauthModule -->
<g id="edge5" class="edge">
<title>IservOAuthService&#45;&gt;OauthModule</title>
<path fill="none" stroke="black" d="M564.15,-79.33C564.15,-79.33 564.15,-103.65 564.15,-103.65"/>
<polygon fill="black" stroke="black" points="560.65,-103.65 564.15,-113.65 567.65,-103.65 560.65,-103.65"/>
</g>
<!-- OAuthService -->
<g id="node7" class="node">
<title>OAuthService</title>
<ellipse fill="#fdb462" stroke="black" cx="456" cy="-66.8" rx="66.06" ry="18"/>
<text text-anchor="middle" x="456" y="-62.6" font-family="Times,serif" font-size="14.00">OAuthService</text>
</g>
<!-- OAuthService&#45;&gt;OauthModule -->
<g id="edge6" class="edge">
<title>OAuthService&#45;&gt;OauthModule</title>
<path fill="none" stroke="black" d="M508.2,-78.12C508.2,-78.12 508.2,-103.74 508.2,-103.74"/>
<polygon fill="black" stroke="black" points="504.7,-103.74 508.2,-113.74 511.7,-103.74 504.7,-103.74"/>
</g>
<!-- OauthUc -->
<g id="node8" class="node">
<title>OauthUc</title>
<ellipse fill="#fdb462" stroke="black" cx="326" cy="-66.8" rx="45.79" ry="18"/>
<text text-anchor="middle" x="326" y="-62.6" font-family="Times,serif" font-size="14.00">OauthUc</text>
</g>
<!-- OauthUc&#45;&gt;OauthModule -->
<g id="edge7" class="edge">
<title>OauthUc&#45;&gt;OauthModule</title>
<path fill="none" stroke="black" d="M326,-84.83C326,-101.2 326,-122.8 326,-122.8 326,-122.8 484.08,-122.8 484.08,-122.8"/>
<polygon fill="black" stroke="black" points="484.08,-126.3 494.08,-122.8 484.08,-119.3 484.08,-126.3"/>
</g>
<!-- SystemRepo -->
<g id="node9" class="node">
<title>SystemRepo</title>
<ellipse fill="#fdb462" stroke="black" cx="202" cy="-66.8" rx="59.72" ry="18"/>
<text text-anchor="middle" x="202" y="-62.6" font-family="Times,serif" font-size="14.00">SystemRepo</text>
</g>
<!-- SystemRepo&#45;&gt;OauthModule -->
<g id="edge8" class="edge">
<title>SystemRepo&#45;&gt;OauthModule</title>
<path fill="none" stroke="black" d="M202,-84.91C202,-104.14 202,-131.8 202,-131.8 202,-131.8 484.22,-131.8 484.22,-131.8"/>
<polygon fill="black" stroke="black" points="484.22,-135.3 494.22,-131.8 484.22,-128.3 484.22,-135.3"/>
</g>
<!-- UserRepo -->
<g id="node10" class="node">
<title>UserRepo</title>
<ellipse fill="#fdb462" stroke="black" cx="74" cy="-66.8" rx="49.81" ry="18"/>
<text text-anchor="middle" x="74" y="-62.6" font-family="Times,serif" font-size="14.00">UserRepo</text>
</g>
<!-- UserRepo&#45;&gt;OauthModule -->
<g id="edge9" class="edge">
<title>UserRepo&#45;&gt;OauthModule</title>
<path fill="none" stroke="black" d="M74,-85.09C74,-107.01 74,-140.8 74,-140.8 74,-140.8 484.08,-140.8 484.08,-140.8"/>
<polygon fill="black" stroke="black" points="484.08,-144.3 494.08,-140.8 484.08,-137.3 484.08,-144.3"/>
</g>
</g>
</svg>
