<?xml version="1.0" encoding="UTF-8" standalone="no"?>
<!DOCTYPE svg PUBLIC "-//W3C//DTD SVG 1.1//EN"
 "http://www.w3.org/Graphics/SVG/1.1/DTD/svg11.dtd">
<!-- Generated by graphviz version 3.0.0 (20220226.1711)
 -->
<!-- Title: dependencies Pages: 1 -->
<svg width="684pt" height="247pt"
 viewBox="0.00 0.00 684.00 246.80" xmlns="http://www.w3.org/2000/svg" xmlns:xlink="http://www.w3.org/1999/xlink">
<g id="graph0" class="graph" transform="scale(1 1) rotate(0) translate(4 242.8)">
<title>dependencies</title>
<polygon fill="white" stroke="transparent" points="-4,4 -4,-242.8 680,-242.8 680,4 -4,4"/>
<text text-anchor="middle" x="338" y="-8.2" font-family="sans-serif" font-size="14.00">dependencies</text>
<g id="clust1" class="cluster">
<title>cluster_OauthModule</title>
<polygon fill="none" stroke="black" stroke-dasharray="1,5" points="8,-32.8 8,-230.8 668,-230.8 668,-32.8 8,-32.8"/>
</g>
<g id="clust6" class="cluster">
<title>cluster_OauthModule_providers</title>
<polygon fill="none" stroke="black" points="296,-40.8 296,-92.8 660,-92.8 660,-40.8 296,-40.8"/>
</g>
<g id="clust4" class="cluster">
<title>cluster_OauthModule_exports</title>
<polygon fill="none" stroke="black" points="311,-170.8 311,-222.8 397,-222.8 397,-170.8 311,-170.8"/>
</g>
<g id="clust3" class="cluster">
<title>cluster_OauthModule_imports</title>
<polygon fill="none" stroke="black" points="16,-40.8 16,-92.8 288,-92.8 288,-40.8 16,-40.8"/>
</g>
<!-- AuthorizationModule -->
<g id="node1" class="node">
<title>AuthorizationModule</title>
<polygon fill="#8dd3c7" stroke="black" points="279.81,-84.8 276.81,-88.8 255.81,-88.8 252.81,-84.8 142.19,-84.8 142.19,-48.8 279.81,-48.8 279.81,-84.8"/>
<text text-anchor="middle" x="211" y="-62.6" font-family="Times,serif" font-size="14.00">AuthorizationModule</text>
</g>
<!-- OauthModule -->
<g id="node3" class="node">
<title>OauthModule</title>
<polygon fill="#8dd3c7" stroke="black" points="400.77,-149.8 397.77,-153.8 376.77,-153.8 373.77,-149.8 307.23,-149.8 307.23,-113.8 400.77,-113.8 400.77,-149.8"/>
<text text-anchor="middle" x="354" y="-127.6" font-family="Times,serif" font-size="14.00">OauthModule</text>
</g>
<!-- AuthorizationModule&#45;&gt;OauthModule -->
<g id="edge1" class="edge">
<title>AuthorizationModule&#45;&gt;OauthModule</title>
<path fill="none" stroke="black" d="M211,-84.82C211,-102.17 211,-125.8 211,-125.8 211,-125.8 297.18,-125.8 297.18,-125.8"/>
<polygon fill="black" stroke="black" points="297.18,-129.3 307.18,-125.8 297.18,-122.3 297.18,-129.3"/>
</g>
<!-- LoggerModule -->
<g id="node2" class="node">
<title>LoggerModule</title>
<polygon fill="#8dd3c7" stroke="black" points="123.98,-84.8 120.98,-88.8 99.98,-88.8 96.98,-84.8 24.02,-84.8 24.02,-48.8 123.98,-48.8 123.98,-84.8"/>
<text text-anchor="middle" x="74" y="-62.6" font-family="Times,serif" font-size="14.00">LoggerModule</text>
</g>
<!-- LoggerModule&#45;&gt;OauthModule -->
<g id="edge2" class="edge">
<title>LoggerModule&#45;&gt;OauthModule</title>
<path fill="none" stroke="black" d="M74,-85.08C74,-106.12 74,-137.8 74,-137.8 74,-137.8 297.13,-137.8 297.13,-137.8"/>
<polygon fill="black" stroke="black" points="297.13,-141.3 307.13,-137.8 297.13,-134.3 297.13,-141.3"/>
</g>
<!-- OauthUc  -->
<g id="node4" class="node">
<title>OauthUc </title>
<polygon fill="#fb8072" stroke="black" points="389.04,-214.8 318.96,-214.8 318.96,-178.8 389.04,-178.8 389.04,-214.8"/>
<text text-anchor="middle" x="354" y="-192.6" font-family="Times,serif" font-size="14.00">OauthUc </text>
</g>
<!-- OauthModule&#45;&gt;OauthUc  -->
<g id="edge3" class="edge">
<title>OauthModule&#45;&gt;OauthUc </title>
<path fill="none" stroke="black" stroke-dasharray="5,2" d="M354,-149.91C354,-149.91 354,-168.79 354,-168.79"/>
<polygon fill="black" stroke="black" points="350.5,-168.79 354,-178.79 357.5,-168.79 350.5,-168.79"/>
</g>
<!-- OauthUc -->
<g id="node5" class="node">
<title>OauthUc</title>
<ellipse fill="#fdb462" stroke="black" cx="606" cy="-66.8" rx="45.79" ry="18"/>
<text text-anchor="middle" x="606" y="-62.6" font-family="Times,serif" font-size="14.00">OauthUc</text>
</g>
<!-- OauthUc&#45;&gt;OauthModule -->
<g id="edge4" class="edge">
<title>OauthUc&#45;&gt;OauthModule</title>
<path fill="none" stroke="black" d="M606,-85.08C606,-106.12 606,-137.8 606,-137.8 606,-137.8 410.81,-137.8 410.81,-137.8"/>
<polygon fill="black" stroke="black" points="410.81,-134.3 400.81,-137.8 410.81,-141.3 410.81,-134.3"/>
</g>
<!-- SystemRepo -->
<g id="node6" class="node">
<title>SystemRepo</title>
<ellipse fill="#fdb462" stroke="black" cx="482" cy="-66.8" rx="59.72" ry="18"/>
<text text-anchor="middle" x="482" y="-62.6" font-family="Times,serif" font-size="14.00">SystemRepo</text>
</g>
<!-- SystemRepo&#45;&gt;OauthModule -->
<g id="edge5" class="edge">
<title>SystemRepo&#45;&gt;OauthModule</title>
<path fill="none" stroke="black" d="M482,-84.82C482,-102.17 482,-125.8 482,-125.8 482,-125.8 410.94,-125.8 410.94,-125.8"/>
<polygon fill="black" stroke="black" points="410.94,-122.3 400.94,-125.8 410.94,-129.3 410.94,-122.3"/>
</g>
<!-- UserRepo -->
<g id="node7" class="node">
<title>UserRepo</title>
<ellipse fill="#fdb462" stroke="black" cx="354" cy="-66.8" rx="49.81" ry="18"/>
<text text-anchor="middle" x="354" y="-62.6" font-family="Times,serif" font-size="14.00">UserRepo</text>
</g>
<!-- UserRepo&#45;&gt;OauthModule -->
<g id="edge6" class="edge">
<title>UserRepo&#45;&gt;OauthModule</title>
<path fill="none" stroke="black" d="M354,-84.91C354,-84.91 354,-103.79 354,-103.79"/>
<polygon fill="black" stroke="black" points="350.5,-103.79 354,-113.79 357.5,-103.79 350.5,-103.79"/>
</g>
</g>
</svg>
