<?xml version="1.0" encoding="UTF-8" standalone="no"?>
<!DOCTYPE svg PUBLIC "-//W3C//DTD SVG 1.1//EN"
 "http://www.w3.org/Graphics/SVG/1.1/DTD/svg11.dtd">
<!-- Generated by graphviz version 3.0.0 (20220226.1711)
 -->
<!-- Title: dependencies Pages: 1 -->
<svg width="1024pt" height="247pt"
 viewBox="0.00 0.00 1024.00 246.80" xmlns="http://www.w3.org/2000/svg" xmlns:xlink="http://www.w3.org/1999/xlink">
<g id="graph0" class="graph" transform="scale(1 1) rotate(0) translate(4 242.8)">
<title>dependencies</title>
<polygon fill="white" stroke="transparent" points="-4,4 -4,-242.8 1020,-242.8 1020,4 -4,4"/>
<text text-anchor="middle" x="508" y="-8.2" font-family="sans-serif" font-size="14.00">dependencies</text>
<g id="clust1" class="cluster">
<title>cluster_OauthModule</title>
<polygon fill="none" stroke="black" stroke-dasharray="1,5" points="8,-32.8 8,-230.8 1008,-230.8 1008,-32.8 8,-32.8"/>
</g>
<g id="clust6" class="cluster">
<title>cluster_OauthModule_providers</title>
<polygon fill="none" stroke="black" points="296,-40.8 296,-92.8 1000,-92.8 1000,-40.8 296,-40.8"/>
</g>
<g id="clust3" class="cluster">
<title>cluster_OauthModule_imports</title>
<polygon fill="none" stroke="black" points="16,-40.8 16,-92.8 288,-92.8 288,-40.8 16,-40.8"/>
</g>
<g id="clust4" class="cluster">
<title>cluster_OauthModule_exports</title>
<polygon fill="none" stroke="black" points="439,-170.8 439,-222.8 525,-222.8 525,-170.8 439,-170.8"/>
</g>
<!-- AuthorizationModule -->
<g id="node1" class="node">
<title>AuthorizationModule</title>
<polygon fill="#8dd3c7" stroke="black" points="279.81,-84.8 276.81,-88.8 255.81,-88.8 252.81,-84.8 142.19,-84.8 142.19,-48.8 279.81,-48.8 279.81,-84.8"/>
<text text-anchor="middle" x="211" y="-62.6" font-family="Times,serif" font-size="14.00">AuthorizationModule</text>
</g>
<!-- OauthModule -->
<g id="node3" class="node">
<title>OauthModule</title>
<polygon fill="#8dd3c7" stroke="black" points="528.77,-149.8 525.77,-153.8 504.77,-153.8 501.77,-149.8 435.23,-149.8 435.23,-113.8 528.77,-113.8 528.77,-149.8"/>
<text text-anchor="middle" x="482" y="-127.6" font-family="Times,serif" font-size="14.00">OauthModule</text>
</g>
<!-- AuthorizationModule&#45;&gt;OauthModule -->
<g id="edge1" class="edge">
<title>AuthorizationModule&#45;&gt;OauthModule</title>
<path fill="none" stroke="black" d="M211,-84.91C211,-104.14 211,-131.8 211,-131.8 211,-131.8 425.1,-131.8 425.1,-131.8"/>
<polygon fill="black" stroke="black" points="425.1,-135.3 435.1,-131.8 425.1,-128.3 425.1,-135.3"/>
</g>
<!-- LoggerModule -->
<g id="node2" class="node">
<title>LoggerModule</title>
<polygon fill="#8dd3c7" stroke="black" points="123.98,-84.8 120.98,-88.8 99.98,-88.8 96.98,-84.8 24.02,-84.8 24.02,-48.8 123.98,-48.8 123.98,-84.8"/>
<text text-anchor="middle" x="74" y="-62.6" font-family="Times,serif" font-size="14.00">LoggerModule</text>
</g>
<!-- LoggerModule&#45;&gt;OauthModule -->
<g id="edge2" class="edge">
<title>LoggerModule&#45;&gt;OauthModule</title>
<path fill="none" stroke="black" d="M74,-85.09C74,-107.01 74,-140.8 74,-140.8 74,-140.8 425.2,-140.8 425.2,-140.8"/>
<polygon fill="black" stroke="black" points="425.2,-144.3 435.2,-140.8 425.2,-137.3 425.2,-144.3"/>
</g>
<!-- OauthUc  -->
<g id="node4" class="node">
<title>OauthUc </title>
<polygon fill="#fb8072" stroke="black" points="517.04,-214.8 446.96,-214.8 446.96,-178.8 517.04,-178.8 517.04,-214.8"/>
<text text-anchor="middle" x="482" y="-192.6" font-family="Times,serif" font-size="14.00">OauthUc </text>
</g>
<!-- OauthModule&#45;&gt;OauthUc  -->
<g id="edge3" class="edge">
<title>OauthModule&#45;&gt;OauthUc </title>
<path fill="none" stroke="black" stroke-dasharray="5,2" d="M482,-149.91C482,-149.91 482,-168.79 482,-168.79"/>
<polygon fill="black" stroke="black" points="478.5,-168.79 482,-178.79 485.5,-168.79 478.5,-168.79"/>
</g>
<!-- IservOAuthService -->
<g id="node5" class="node">
<title>IservOAuthService</title>
<ellipse fill="#fdb462" stroke="black" cx="906" cy="-66.8" rx="85.67" ry="18"/>
<text text-anchor="middle" x="906" y="-62.6" font-family="Times,serif" font-size="14.00">IservOAuthService</text>
</g>
<!-- IservOAuthService&#45;&gt;OauthModule -->
<g id="edge4" class="edge">
<title>IservOAuthService&#45;&gt;OauthModule</title>
<path fill="none" stroke="black" d="M906,-85.09C906,-107.01 906,-140.8 906,-140.8 906,-140.8 539,-140.8 539,-140.8"/>
<polygon fill="black" stroke="black" points="539,-137.3 529,-140.8 539,-144.3 539,-137.3"/>
</g>
<!-- OAuthService -->
<g id="node6" class="node">
<title>OAuthService</title>
<ellipse fill="#fdb462" stroke="black" cx="736" cy="-66.8" rx="66.06" ry="18"/>
<text text-anchor="middle" x="736" y="-62.6" font-family="Times,serif" font-size="14.00">OAuthService</text>
</g>
<!-- OAuthService&#45;&gt;OauthModule -->
<g id="edge5" class="edge">
<title>OAuthService&#45;&gt;OauthModule</title>
<path fill="none" stroke="black" d="M736,-84.91C736,-104.14 736,-131.8 736,-131.8 736,-131.8 538.88,-131.8 538.88,-131.8"/>
<polygon fill="black" stroke="black" points="538.88,-128.3 528.88,-131.8 538.88,-135.3 538.88,-128.3"/>
</g>
<!-- OauthUc -->
<g id="node7" class="node">
<title>OauthUc</title>
<ellipse fill="#fdb462" stroke="black" cx="606" cy="-66.8" rx="45.79" ry="18"/>
<text text-anchor="middle" x="606" y="-62.6" font-family="Times,serif" font-size="14.00">OauthUc</text>
</g>
<!-- OauthUc&#45;&gt;OauthModule -->
<g id="edge6" class="edge">
<title>OauthUc&#45;&gt;OauthModule</title>
<path fill="none" stroke="black" d="M606,-84.83C606,-101.2 606,-122.8 606,-122.8 606,-122.8 538.88,-122.8 538.88,-122.8"/>
<polygon fill="black" stroke="black" points="538.88,-119.3 528.88,-122.8 538.88,-126.3 538.88,-119.3"/>
</g>
<!-- SystemRepo -->
<g id="node8" class="node">
<title>SystemRepo</title>
<ellipse fill="#fdb462" stroke="black" cx="482" cy="-66.8" rx="59.72" ry="18"/>
<text text-anchor="middle" x="482" y="-62.6" font-family="Times,serif" font-size="14.00">SystemRepo</text>
</g>
<!-- SystemRepo&#45;&gt;OauthModule -->
<g id="edge7" class="edge">
<title>SystemRepo&#45;&gt;OauthModule</title>
<path fill="none" stroke="black" d="M482,-84.91C482,-84.91 482,-103.79 482,-103.79"/>
<polygon fill="black" stroke="black" points="478.5,-103.79 482,-113.79 485.5,-103.79 478.5,-103.79"/>
</g>
<!-- UserRepo -->
<g id="node9" class="node">
<title>UserRepo</title>
<ellipse fill="#fdb462" stroke="black" cx="354" cy="-66.8" rx="49.81" ry="18"/>
<text text-anchor="middle" x="354" y="-62.6" font-family="Times,serif" font-size="14.00">UserRepo</text>
</g>
<!-- UserRepo&#45;&gt;OauthModule -->
<g id="edge8" class="edge">
<title>UserRepo&#45;&gt;OauthModule</title>
<path fill="none" stroke="black" d="M354,-84.83C354,-101.2 354,-122.8 354,-122.8 354,-122.8 425.06,-122.8 425.06,-122.8"/>
<polygon fill="black" stroke="black" points="425.06,-126.3 435.06,-122.8 425.06,-119.3 425.06,-126.3"/>
</g>
</g>
</svg>
