<?xml version="1.0" encoding="UTF-8" standalone="no"?>
<!DOCTYPE svg PUBLIC "-//W3C//DTD SVG 1.1//EN"
 "http://www.w3.org/Graphics/SVG/1.1/DTD/svg11.dtd">
<!-- Generated by graphviz version 5.0.0 (20220707.1540)
 -->
<!-- Title: dependencies Pages: 1 -->
<svg width="3170pt" height="247pt"
 viewBox="0.00 0.00 3170.00 246.80" xmlns="http://www.w3.org/2000/svg" xmlns:xlink="http://www.w3.org/1999/xlink">
<g id="graph0" class="graph" transform="scale(1 1) rotate(0) translate(4 242.8)">
<title>dependencies</title>
<polygon fill="white" stroke="transparent" points="-4,4 -4,-242.8 3166,-242.8 3166,4 -4,4"/>
<text text-anchor="middle" x="1581" y="-8.2" font-family="sans-serif" font-size="14.00">dependencies</text>
<g id="clust1" class="cluster">
<title>cluster_ToolModule</title>
<polygon fill="none" stroke="black" stroke-dasharray="1,5" points="8,-32.8 8,-230.8 3154,-230.8 3154,-32.8 8,-32.8"/>
</g>
<g id="clust3" class="cluster">
<title>cluster_ToolModule_imports</title>
<polygon fill="none" stroke="black" points="2688,-40.8 2688,-92.8 3146,-92.8 3146,-40.8 2688,-40.8"/>
</g>
<g id="clust6" class="cluster">
<title>cluster_ToolModule_providers</title>
<polygon fill="none" stroke="black" points="16,-40.8 16,-92.8 2680,-92.8 2680,-40.8 16,-40.8"/>
</g>
<g id="clust4" class="cluster">
<title>cluster_ToolModule_exports</title>
<polygon fill="none" stroke="black" points="1352,-170.8 1352,-222.8 1972,-222.8 1972,-170.8 1352,-170.8"/>
</g>
<!-- EncryptionModule -->
<g id="node1" class="node">
<title>EncryptionModule</title>
<polygon fill="#8dd3c7" stroke="black" points="3137.76,-84.8 3134.76,-88.8 3113.76,-88.8 3110.76,-84.8 3016.24,-84.8 3016.24,-48.8 3137.76,-48.8 3137.76,-84.8"/>
<text text-anchor="middle" x="3077" y="-62.6" font-family="Times,serif" font-size="14.00">EncryptionModule</text>
</g>
<!-- ToolModule -->
<g id="node4" class="node">
<title>ToolModule</title>
<polygon fill="#8dd3c7" stroke="black" points="1730.99,-149.8 1727.99,-153.8 1706.99,-153.8 1703.99,-149.8 1645.01,-149.8 1645.01,-113.8 1730.99,-113.8 1730.99,-149.8"/>
<text text-anchor="middle" x="1688" y="-127.6" font-family="Times,serif" font-size="14.00">ToolModule</text>
</g>
<!-- EncryptionModule&#45;&gt;ToolModule -->
<g id="edge1" class="edge">
<title>EncryptionModule&#45;&gt;ToolModule</title>
<path fill="none" stroke="black" d="M3077,-84.96C3077,-107.15 3077,-141.8 3077,-141.8 3077,-141.8 1741.09,-141.8 1741.09,-141.8"/>
<polygon fill="black" stroke="black" points="1741.09,-138.3 1731.09,-141.8 1741.09,-145.3 1741.09,-138.3"/>
</g>
<!-- LoggerModule -->
<g id="node2" class="node">
<title>LoggerModule</title>
<polygon fill="#8dd3c7" stroke="black" points="2997.98,-84.8 2994.98,-88.8 2973.98,-88.8 2970.98,-84.8 2898.02,-84.8 2898.02,-48.8 2997.98,-48.8 2997.98,-84.8"/>
<text text-anchor="middle" x="2948" y="-62.6" font-family="Times,serif" font-size="14.00">LoggerModule</text>
</g>
<!-- LoggerModule&#45;&gt;ToolModule -->
<g id="edge2" class="edge">
<title>LoggerModule&#45;&gt;ToolModule</title>
<path fill="none" stroke="black" d="M2948,-85.08C2948,-106.12 2948,-137.8 2948,-137.8 2948,-137.8 1741.01,-137.8 1741.01,-137.8"/>
<polygon fill="black" stroke="black" points="1741.01,-134.3 1731.01,-137.8 1741.01,-141.3 1741.01,-134.3"/>
</g>
<!-- OauthProviderServiceModule -->
<g id="node3" class="node">
<title>OauthProviderServiceModule</title>
<polygon fill="#8dd3c7" stroke="black" points="2879.96,-84.8 2876.96,-88.8 2855.96,-88.8 2852.96,-84.8 2696.04,-84.8 2696.04,-48.8 2879.96,-48.8 2879.96,-84.8"/>
<text text-anchor="middle" x="2788" y="-62.6" font-family="Times,serif" font-size="14.00">OauthProviderServiceModule</text>
</g>
<!-- OauthProviderServiceModule&#45;&gt;ToolModule -->
<g id="edge3" class="edge">
<title>OauthProviderServiceModule&#45;&gt;ToolModule</title>
<path fill="none" stroke="black" d="M2788,-85.11C2788,-104.95 2788,-133.8 2788,-133.8 2788,-133.8 1741.12,-133.8 1741.12,-133.8"/>
<polygon fill="black" stroke="black" points="1741.12,-130.3 1731.12,-133.8 1741.12,-137.3 1741.12,-130.3"/>
</g>
<!-- ExternalToolService  -->
<g id="node5" class="node">
<title>ExternalToolService </title>
<polygon fill="#fb8072" stroke="black" points="1963.84,-214.8 1828.16,-214.8 1828.16,-178.8 1963.84,-178.8 1963.84,-214.8"/>
<text text-anchor="middle" x="1896" y="-192.6" font-family="Times,serif" font-size="14.00">ExternalToolService </text>
</g>
<!-- ToolModule&#45;&gt;ExternalToolService  -->
<g id="edge4" class="edge">
<title>ToolModule&#45;&gt;ExternalToolService </title>
<path fill="none" stroke="black" stroke-dasharray="5,2" d="M1731.1,-145.8C1797.83,-145.8 1918.56,-145.8 1918.56,-145.8 1918.56,-145.8 1918.56,-168.68 1918.56,-168.68"/>
<polygon fill="black" stroke="black" points="1915.06,-168.68 1918.56,-178.68 1922.06,-168.68 1915.06,-168.68"/>
</g>
<!-- Lti11Service  -->
<g id="node6" class="node">
<title>Lti11Service </title>
<polygon fill="#fb8072" stroke="black" points="1809.81,-214.8 1718.19,-214.8 1718.19,-178.8 1809.81,-178.8 1809.81,-214.8"/>
<text text-anchor="middle" x="1764" y="-192.6" font-family="Times,serif" font-size="14.00">Lti11Service </text>
</g>
<!-- ToolModule&#45;&gt;Lti11Service  -->
<g id="edge5" class="edge">
<title>ToolModule&#45;&gt;Lti11Service </title>
<path fill="none" stroke="black" stroke-dasharray="5,2" d="M1724.55,-149.91C1724.55,-149.91 1724.55,-168.79 1724.55,-168.79"/>
<polygon fill="black" stroke="black" points="1721.05,-168.79 1724.55,-178.79 1728.05,-168.79 1721.05,-168.79"/>
</g>
<!-- SchoolExternalToolService  -->
<g id="node7" class="node">
<title>SchoolExternalToolService </title>
<polygon fill="#fb8072" stroke="black" points="1700.23,-214.8 1525.77,-214.8 1525.77,-178.8 1700.23,-178.8 1700.23,-214.8"/>
<text text-anchor="middle" x="1613" y="-192.6" font-family="Times,serif" font-size="14.00">SchoolExternalToolService </text>
</g>
<!-- ToolModule&#45;&gt;SchoolExternalToolService  -->
<g id="edge6" class="edge">
<title>ToolModule&#45;&gt;SchoolExternalToolService </title>
<path fill="none" stroke="black" stroke-dasharray="5,2" d="M1672.56,-149.91C1672.56,-149.91 1672.56,-168.79 1672.56,-168.79"/>
<polygon fill="black" stroke="black" points="1669.06,-168.79 1672.56,-178.79 1676.06,-168.79 1669.06,-168.79"/>
</g>
<!-- ToolValidationService  -->
<g id="node8" class="node">
<title>ToolValidationService </title>
<polygon fill="#fb8072" stroke="black" points="1507.52,-214.8 1360.48,-214.8 1360.48,-178.8 1507.52,-178.8 1507.52,-214.8"/>
<text text-anchor="middle" x="1434" y="-192.6" font-family="Times,serif" font-size="14.00">ToolValidationService </text>
</g>
<!-- ToolModule&#45;&gt;ToolValidationService  -->
<g id="edge7" class="edge">
<title>ToolModule&#45;&gt;ToolValidationService </title>
<path fill="none" stroke="black" stroke-dasharray="5,2" d="M1644.91,-145.8C1572.45,-145.8 1434,-145.8 1434,-145.8 1434,-145.8 1434,-168.68 1434,-168.68"/>
<polygon fill="black" stroke="black" points="1430.5,-168.68 1434,-178.68 1437.5,-168.68 1430.5,-168.68"/>
</g>
<!-- CourseExternalToolRepo -->
<g id="node9" class="node">
<title>CourseExternalToolRepo</title>
<ellipse fill="#fdb462" stroke="black" cx="2562" cy="-66.8" rx="109.96" ry="18"/>
<text text-anchor="middle" x="2562" y="-62.6" font-family="Times,serif" font-size="14.00">CourseExternalToolRepo</text>
</g>
<!-- CourseExternalToolRepo&#45;&gt;ToolModule -->
<g id="edge8" class="edge">
<title>CourseExternalToolRepo&#45;&gt;ToolModule</title>
<path fill="none" stroke="black" d="M2562,-85.02C2562,-103.63 2562,-129.8 2562,-129.8 2562,-129.8 1741.04,-129.8 1741.04,-129.8"/>
<polygon fill="black" stroke="black" points="1741.04,-126.3 1731.04,-129.8 1741.04,-133.3 1741.04,-126.3"/>
</g>
<!-- ExternalToolRepo -->
<g id="node10" class="node">
<title>ExternalToolRepo</title>
<ellipse fill="#fdb462" stroke="black" cx="2352" cy="-66.8" rx="82.24" ry="18"/>
<text text-anchor="middle" x="2352" y="-62.6" font-family="Times,serif" font-size="14.00">ExternalToolRepo</text>
</g>
<!-- ExternalToolRepo&#45;&gt;ToolModule -->
<g id="edge9" class="edge">
<title>ExternalToolRepo&#45;&gt;ToolModule</title>
<path fill="none" stroke="black" d="M2352,-84.82C2352,-102.17 2352,-125.8 2352,-125.8 2352,-125.8 1741.06,-125.8 1741.06,-125.8"/>
<polygon fill="black" stroke="black" points="1741.06,-122.3 1731.06,-125.8 1741.06,-129.3 1741.06,-122.3"/>
</g>
<!-- ExternalToolRepoMapper -->
<g id="node11" class="node">
<title>ExternalToolRepoMapper</title>
<ellipse fill="#fdb462" stroke="black" cx="2139" cy="-66.8" rx="112.3" ry="18"/>
<text text-anchor="middle" x="2139" y="-62.6" font-family="Times,serif" font-size="14.00">ExternalToolRepoMapper</text>
</g>
<!-- ExternalToolRepoMapper&#45;&gt;ToolModule -->
<g id="edge10" class="edge">
<title>ExternalToolRepoMapper&#45;&gt;ToolModule</title>
<path fill="none" stroke="black" d="M2139,-84.81C2139,-100.85 2139,-121.8 2139,-121.8 2139,-121.8 1741.24,-121.8 1741.24,-121.8"/>
<polygon fill="black" stroke="black" points="1741.24,-118.3 1731.24,-121.8 1741.24,-125.3 1741.24,-118.3"/>
</g>
<!-- ExternalToolService -->
<g id="node12" class="node">
<title>ExternalToolService</title>
<ellipse fill="#fdb462" stroke="black" cx="1918" cy="-66.8" rx="90.88" ry="18"/>
<text text-anchor="middle" x="1918" y="-62.6" font-family="Times,serif" font-size="14.00">ExternalToolService</text>
</g>
<!-- ExternalToolService&#45;&gt;ToolModule -->
<g id="edge11" class="edge">
<title>ExternalToolService&#45;&gt;ToolModule</title>
<path fill="none" stroke="black" d="M1873.44,-82.66C1873.44,-97.63 1873.44,-117.8 1873.44,-117.8 1873.44,-117.8 1741.01,-117.8 1741.01,-117.8"/>
<polygon fill="black" stroke="black" points="1741.01,-114.3 1731.01,-117.8 1741.01,-121.3 1741.01,-114.3"/>
</g>
<!-- ExternalToolServiceMapper -->
<g id="node13" class="node">
<title>ExternalToolServiceMapper</title>
<ellipse fill="#fdb462" stroke="black" cx="1688" cy="-66.8" rx="120.95" ry="18"/>
<text text-anchor="middle" x="1688" y="-62.6" font-family="Times,serif" font-size="14.00">ExternalToolServiceMapper</text>
</g>
<!-- ExternalToolServiceMapper&#45;&gt;ToolModule -->
<g id="edge12" class="edge">
<title>ExternalToolServiceMapper&#45;&gt;ToolModule</title>
<path fill="none" stroke="black" d="M1688,-84.91C1688,-84.91 1688,-103.79 1688,-103.79"/>
<polygon fill="black" stroke="black" points="1684.5,-103.79 1688,-113.79 1691.5,-103.79 1684.5,-103.79"/>
</g>
<!-- ExternalToolSortingMapper -->
<g id="node14" class="node">
<title>ExternalToolSortingMapper</title>
<ellipse fill="#fdb462" stroke="black" cx="1429" cy="-66.8" rx="120.41" ry="18"/>
<text text-anchor="middle" x="1429" y="-62.6" font-family="Times,serif" font-size="14.00">ExternalToolSortingMapper</text>
</g>
<!-- ExternalToolSortingMapper&#45;&gt;ToolModule -->
<g id="edge13" class="edge">
<title>ExternalToolSortingMapper&#45;&gt;ToolModule</title>
<path fill="none" stroke="black" d="M1537.67,-74.77C1537.67,-89.11 1537.67,-117.8 1537.67,-117.8 1537.67,-117.8 1634.92,-117.8 1634.92,-117.8"/>
<polygon fill="black" stroke="black" points="1634.92,-121.3 1644.92,-117.8 1634.92,-114.3 1634.92,-121.3"/>
</g>
<!-- ExternalToolVersionService -->
<g id="node15" class="node">
<title>ExternalToolVersionService</title>
<ellipse fill="#fdb462" stroke="black" cx="1169" cy="-66.8" rx="121.53" ry="18"/>
<text text-anchor="middle" x="1169" y="-62.6" font-family="Times,serif" font-size="14.00">ExternalToolVersionService</text>
</g>
<!-- ExternalToolVersionService&#45;&gt;ToolModule -->
<g id="edge14" class="edge">
<title>ExternalToolVersionService&#45;&gt;ToolModule</title>
<path fill="none" stroke="black" d="M1169,-84.81C1169,-100.85 1169,-121.8 1169,-121.8 1169,-121.8 1634.64,-121.8 1634.64,-121.8"/>
<polygon fill="black" stroke="black" points="1634.64,-125.3 1644.64,-121.8 1634.64,-118.3 1634.64,-125.3"/>
</g>
<!-- Lti11Service -->
<g id="node16" class="node">
<title>Lti11Service</title>
<ellipse fill="#fdb462" stroke="black" cx="969" cy="-66.8" rx="60.83" ry="18"/>
<text text-anchor="middle" x="969" y="-62.6" font-family="Times,serif" font-size="14.00">Lti11Service</text>
</g>
<!-- Lti11Service&#45;&gt;ToolModule -->
<g id="edge15" class="edge">
<title>Lti11Service&#45;&gt;ToolModule</title>
<path fill="none" stroke="black" d="M969,-84.82C969,-102.17 969,-125.8 969,-125.8 969,-125.8 1634.91,-125.8 1634.91,-125.8"/>
<polygon fill="black" stroke="black" points="1634.91,-129.3 1644.91,-125.8 1634.91,-122.3 1634.91,-129.3"/>
</g>
<!-- PseudonymsRepo -->
<g id="node17" class="node">
<title>PseudonymsRepo</title>
<ellipse fill="#fdb462" stroke="black" cx="810" cy="-66.8" rx="80.5" ry="18"/>
<text text-anchor="middle" x="810" y="-62.6" font-family="Times,serif" font-size="14.00">PseudonymsRepo</text>
</g>
<!-- PseudonymsRepo&#45;&gt;ToolModule -->
<g id="edge16" class="edge">
<title>PseudonymsRepo&#45;&gt;ToolModule</title>
<path fill="none" stroke="black" d="M810,-85.02C810,-103.63 810,-129.8 810,-129.8 810,-129.8 1634.76,-129.8 1634.76,-129.8"/>
<polygon fill="black" stroke="black" points="1634.76,-133.3 1644.76,-129.8 1634.76,-126.3 1634.76,-133.3"/>
</g>
<!-- SchoolExternalToolRepo -->
<g id="node18" class="node">
<title>SchoolExternalToolRepo</title>
<ellipse fill="#fdb462" stroke="black" cx="603" cy="-66.8" rx="109.39" ry="18"/>
<text text-anchor="middle" x="603" y="-62.6" font-family="Times,serif" font-size="14.00">SchoolExternalToolRepo</text>
</g>
<!-- SchoolExternalToolRepo&#45;&gt;ToolModule -->
<g id="edge17" class="edge">
<title>SchoolExternalToolRepo&#45;&gt;ToolModule</title>
<path fill="none" stroke="black" d="M603,-85.11C603,-104.95 603,-133.8 603,-133.8 603,-133.8 1634.8,-133.8 1634.8,-133.8"/>
<polygon fill="black" stroke="black" points="1634.8,-137.3 1644.8,-133.8 1634.8,-130.3 1634.8,-137.3"/>
</g>
<!-- SchoolExternalToolService -->
<g id="node19" class="node">
<title>SchoolExternalToolService</title>
<ellipse fill="#fdb462" stroke="black" cx="358" cy="-66.8" rx="117.54" ry="18"/>
<text text-anchor="middle" x="358" y="-62.6" font-family="Times,serif" font-size="14.00">SchoolExternalToolService</text>
</g>
<!-- SchoolExternalToolService&#45;&gt;ToolModule -->
<g id="edge18" class="edge">
<title>SchoolExternalToolService&#45;&gt;ToolModule</title>
<path fill="none" stroke="black" d="M358,-85.08C358,-106.12 358,-137.8 358,-137.8 358,-137.8 1634.88,-137.8 1634.88,-137.8"/>
<polygon fill="black" stroke="black" points="1634.88,-141.3 1644.88,-137.8 1634.88,-134.3 1634.88,-141.3"/>
</g>
<!-- ToolValidationService -->
<g id="node20" class="node">
<title>ToolValidationService</title>
<ellipse fill="#fdb462" stroke="black" cx="123" cy="-66.8" rx="98.99" ry="18"/>
<text text-anchor="middle" x="123" y="-62.6" font-family="Times,serif" font-size="14.00">ToolValidationService</text>
</g>
<!-- ToolValidationService&#45;&gt;ToolModule -->
<g id="edge19" class="edge">
<title>ToolValidationService&#45;&gt;ToolModule</title>
<path fill="none" stroke="black" d="M123,-84.96C123,-107.15 123,-141.8 123,-141.8 123,-141.8 1634.92,-141.8 1634.92,-141.8"/>
<polygon fill="black" stroke="black" points="1634.92,-145.3 1644.92,-141.8 1634.92,-138.3 1634.92,-145.3"/>
</g>
</g>
</svg>
