<?xml version="1.0" encoding="UTF-8" standalone="no"?>
<!DOCTYPE svg PUBLIC "-//W3C//DTD SVG 1.1//EN"
 "http://www.w3.org/Graphics/SVG/1.1/DTD/svg11.dtd">
<!-- Generated by graphviz version 5.0.0 (20220707.1540)
 -->
<!-- Title: dependencies Pages: 1 -->
<svg width="3713pt" height="247pt"
 viewBox="0.00 0.00 3713.00 246.80" xmlns="http://www.w3.org/2000/svg" xmlns:xlink="http://www.w3.org/1999/xlink">
<g id="graph0" class="graph" transform="scale(1 1) rotate(0) translate(4 242.8)">
<title>dependencies</title>
<polygon fill="white" stroke="transparent" points="-4,4 -4,-242.8 3709,-242.8 3709,4 -4,4"/>
<text text-anchor="middle" x="1852.5" y="-8.2" font-family="sans-serif" font-size="14.00">dependencies</text>
<g id="clust1" class="cluster">
<title>cluster_ToolModule</title>
<polygon fill="none" stroke="black" stroke-dasharray="1,5" points="8,-32.8 8,-230.8 3697,-230.8 3697,-32.8 8,-32.8"/>
</g>
<g id="clust4" class="cluster">
<title>cluster_ToolModule_exports</title>
<polygon fill="none" stroke="black" points="1374,-170.8 1374,-222.8 2589,-222.8 2589,-170.8 1374,-170.8"/>
</g>
<g id="clust3" class="cluster">
<title>cluster_ToolModule_imports</title>
<polygon fill="none" stroke="black" points="3231,-40.8 3231,-92.8 3689,-92.8 3689,-40.8 3231,-40.8"/>
</g>
<g id="clust6" class="cluster">
<title>cluster_ToolModule_providers</title>
<polygon fill="none" stroke="black" points="16,-40.8 16,-92.8 3223,-92.8 3223,-40.8 16,-40.8"/>
</g>
<!-- EncryptionModule -->
<g id="node1" class="node">
<title>EncryptionModule</title>
<polygon fill="#8dd3c7" stroke="black" points="3680.76,-84.8 3677.76,-88.8 3656.76,-88.8 3653.76,-84.8 3559.24,-84.8 3559.24,-48.8 3680.76,-48.8 3680.76,-84.8"/>
<text text-anchor="middle" x="3620" y="-62.6" font-family="Times,serif" font-size="14.00">EncryptionModule</text>
</g>
<!-- ToolModule -->
<g id="node4" class="node">
<title>ToolModule</title>
<polygon fill="#8dd3c7" stroke="black" points="1960.99,-149.8 1957.99,-153.8 1936.99,-153.8 1933.99,-149.8 1875.01,-149.8 1875.01,-113.8 1960.99,-113.8 1960.99,-149.8"/>
<text text-anchor="middle" x="1918" y="-127.6" font-family="Times,serif" font-size="14.00">ToolModule</text>
</g>
<!-- EncryptionModule&#45;&gt;ToolModule -->
<g id="edge1" class="edge">
<title>EncryptionModule&#45;&gt;ToolModule</title>
<path fill="none" stroke="black" d="M3620,-85.08C3620,-106.12 3620,-137.8 3620,-137.8 3620,-137.8 1971.35,-137.8 1971.35,-137.8"/>
<polygon fill="black" stroke="black" points="1971.35,-134.3 1961.35,-137.8 1971.35,-141.3 1971.35,-134.3"/>
</g>
<!-- LoggerModule -->
<g id="node2" class="node">
<title>LoggerModule</title>
<polygon fill="#8dd3c7" stroke="black" points="3540.98,-84.8 3537.98,-88.8 3516.98,-88.8 3513.98,-84.8 3441.02,-84.8 3441.02,-48.8 3540.98,-48.8 3540.98,-84.8"/>
<text text-anchor="middle" x="3491" y="-62.6" font-family="Times,serif" font-size="14.00">LoggerModule</text>
</g>
<!-- LoggerModule&#45;&gt;ToolModule -->
<g id="edge2" class="edge">
<title>LoggerModule&#45;&gt;ToolModule</title>
<path fill="none" stroke="black" d="M3491,-85.02C3491,-105.17 3491,-134.8 3491,-134.8 3491,-134.8 1971.3,-134.8 1971.3,-134.8"/>
<polygon fill="black" stroke="black" points="1971.3,-131.3 1961.3,-134.8 1971.3,-138.3 1971.3,-131.3"/>
</g>
<!-- OauthProviderServiceModule -->
<g id="node3" class="node">
<title>OauthProviderServiceModule</title>
<polygon fill="#8dd3c7" stroke="black" points="3422.96,-84.8 3419.96,-88.8 3398.96,-88.8 3395.96,-84.8 3239.04,-84.8 3239.04,-48.8 3422.96,-48.8 3422.96,-84.8"/>
<text text-anchor="middle" x="3331" y="-62.6" font-family="Times,serif" font-size="14.00">OauthProviderServiceModule</text>
</g>
<!-- OauthProviderServiceModule&#45;&gt;ToolModule -->
<g id="edge3" class="edge">
<title>OauthProviderServiceModule&#45;&gt;ToolModule</title>
<path fill="none" stroke="black" d="M3331,-84.91C3331,-104.14 3331,-131.8 3331,-131.8 3331,-131.8 1971.06,-131.8 1971.06,-131.8"/>
<polygon fill="black" stroke="black" points="1971.06,-128.3 1961.06,-131.8 1971.06,-135.3 1971.06,-128.3"/>
</g>
<!-- CommonToolValidationService  -->
<g id="node5" class="node">
<title>CommonToolValidationService </title>
<polygon fill="#fb8072" stroke="black" points="2580.63,-214.8 2381.37,-214.8 2381.37,-178.8 2580.63,-178.8 2580.63,-214.8"/>
<text text-anchor="middle" x="2481" y="-192.6" font-family="Times,serif" font-size="14.00">CommonToolValidationService </text>
</g>
<!-- ToolModule&#45;&gt;CommonToolValidationService  -->
<g id="edge4" class="edge">
<title>ToolModule&#45;&gt;CommonToolValidationService </title>
<path fill="none" stroke="black" stroke-dasharray="5,2" d="M1961.05,-140.8C2080.59,-140.8 2407.9,-140.8 2407.9,-140.8 2407.9,-140.8 2407.9,-168.77 2407.9,-168.77"/>
<polygon fill="black" stroke="black" points="2404.4,-168.77 2407.9,-178.77 2411.4,-168.77 2404.4,-168.77"/>
</g>
<!-- CourseExternalToolService  -->
<g id="node6" class="node">
<title>CourseExternalToolService </title>
<polygon fill="#fb8072" stroke="black" points="2363.5,-214.8 2188.5,-214.8 2188.5,-178.8 2363.5,-178.8 2363.5,-214.8"/>
<text text-anchor="middle" x="2276" y="-192.6" font-family="Times,serif" font-size="14.00">CourseExternalToolService </text>
</g>
<!-- ToolModule&#45;&gt;CourseExternalToolService  -->
<g id="edge5" class="edge">
<title>ToolModule&#45;&gt;CourseExternalToolService </title>
<path fill="none" stroke="black" stroke-dasharray="5,2" d="M1961.26,-143.8C2044.75,-143.8 2219.95,-143.8 2219.95,-143.8 2219.95,-143.8 2219.95,-168.56 2219.95,-168.56"/>
<polygon fill="black" stroke="black" points="2216.45,-168.56 2219.95,-178.56 2223.45,-168.56 2216.45,-168.56"/>
</g>
<!-- ExternalToolRepoMapper  -->
<g id="node7" class="node">
<title>ExternalToolRepoMapper </title>
<polygon fill="#fb8072" stroke="black" points="2170.45,-214.8 2003.55,-214.8 2003.55,-178.8 2170.45,-178.8 2170.45,-214.8"/>
<text text-anchor="middle" x="2087" y="-192.6" font-family="Times,serif" font-size="14.00">ExternalToolRepoMapper </text>
</g>
<!-- ToolModule&#45;&gt;ExternalToolRepoMapper  -->
<g id="edge6" class="edge">
<title>ToolModule&#45;&gt;ExternalToolRepoMapper </title>
<path fill="none" stroke="black" stroke-dasharray="5,2" d="M1961.18,-146.8C1988.14,-146.8 2017.77,-146.8 2017.77,-146.8 2017.77,-146.8 2017.77,-168.75 2017.77,-168.75"/>
<polygon fill="black" stroke="black" points="2014.27,-168.75 2017.77,-178.75 2021.27,-168.75 2014.27,-168.75"/>
</g>
<!-- ExternalToolService  -->
<g id="node8" class="node">
<title>ExternalToolService </title>
<polygon fill="#fb8072" stroke="black" points="1985.84,-214.8 1850.16,-214.8 1850.16,-178.8 1985.84,-178.8 1985.84,-214.8"/>
<text text-anchor="middle" x="1918" y="-192.6" font-family="Times,serif" font-size="14.00">ExternalToolService </text>
</g>
<!-- ToolModule&#45;&gt;ExternalToolService  -->
<g id="edge7" class="edge">
<title>ToolModule&#45;&gt;ExternalToolService </title>
<path fill="none" stroke="black" stroke-dasharray="5,2" d="M1918,-149.91C1918,-149.91 1918,-168.79 1918,-168.79"/>
<polygon fill="black" stroke="black" points="1914.5,-168.79 1918,-178.79 1921.5,-168.79 1914.5,-168.79"/>
</g>
<!-- Lti11Service  -->
<g id="node9" class="node">
<title>Lti11Service </title>
<polygon fill="#fb8072" stroke="black" points="1831.81,-214.8 1740.19,-214.8 1740.19,-178.8 1831.81,-178.8 1831.81,-214.8"/>
<text text-anchor="middle" x="1786" y="-192.6" font-family="Times,serif" font-size="14.00">Lti11Service </text>
</g>
<!-- ToolModule&#45;&gt;Lti11Service  -->
<g id="edge8" class="edge">
<title>ToolModule&#45;&gt;Lti11Service </title>
<path fill="none" stroke="black" stroke-dasharray="5,2" d="M1874.73,-146.8C1847.71,-146.8 1818.02,-146.8 1818.02,-146.8 1818.02,-146.8 1818.02,-168.75 1818.02,-168.75"/>
<polygon fill="black" stroke="black" points="1814.52,-168.75 1818.02,-178.75 1821.52,-168.75 1814.52,-168.75"/>
</g>
<!-- SchoolExternalToolService  -->
<g id="node10" class="node">
<title>SchoolExternalToolService </title>
<polygon fill="#fb8072" stroke="black" points="1722.23,-214.8 1547.77,-214.8 1547.77,-178.8 1722.23,-178.8 1722.23,-214.8"/>
<text text-anchor="middle" x="1635" y="-192.6" font-family="Times,serif" font-size="14.00">SchoolExternalToolService </text>
</g>
<!-- ToolModule&#45;&gt;SchoolExternalToolService  -->
<g id="edge9" class="edge">
<title>ToolModule&#45;&gt;SchoolExternalToolService </title>
<path fill="none" stroke="black" stroke-dasharray="5,2" d="M1874.98,-143.8C1797.97,-143.8 1644.57,-143.8 1644.57,-143.8 1644.57,-143.8 1644.57,-168.56 1644.57,-168.56"/>
<polygon fill="black" stroke="black" points="1641.07,-168.56 1644.57,-178.56 1648.07,-168.56 1641.07,-168.56"/>
</g>
<!-- ToolValidationService  -->
<g id="node11" class="node">
<title>ToolValidationService </title>
<polygon fill="#fb8072" stroke="black" points="1529.52,-214.8 1382.48,-214.8 1382.48,-178.8 1529.52,-178.8 1529.52,-214.8"/>
<text text-anchor="middle" x="1456" y="-192.6" font-family="Times,serif" font-size="14.00">ToolValidationService </text>
</g>
<!-- ToolModule&#45;&gt;ToolValidationService  -->
<g id="edge10" class="edge">
<title>ToolModule&#45;&gt;ToolValidationService </title>
<path fill="none" stroke="black" stroke-dasharray="5,2" d="M1874.95,-140.8C1760.26,-140.8 1456,-140.8 1456,-140.8 1456,-140.8 1456,-168.77 1456,-168.77"/>
<polygon fill="black" stroke="black" points="1452.5,-168.77 1456,-178.77 1459.5,-168.77 1452.5,-168.77"/>
</g>
<!-- CommonToolValidationService -->
<g id="node12" class="node">
<title>CommonToolValidationService</title>
<ellipse fill="#fdb462" stroke="black" cx="3080" cy="-66.8" rx="134.89" ry="18"/>
<text text-anchor="middle" x="3080" y="-62.6" font-family="Times,serif" font-size="14.00">CommonToolValidationService</text>
</g>
<!-- CommonToolValidationService&#45;&gt;ToolModule -->
<g id="edge11" class="edge">
<title>CommonToolValidationService&#45;&gt;ToolModule</title>
<path fill="none" stroke="black" d="M3080,-85.07C3080,-103.36 3080,-128.8 3080,-128.8 3080,-128.8 1971.08,-128.8 1971.08,-128.8"/>
<polygon fill="black" stroke="black" points="1971.08,-125.3 1961.08,-128.8 1971.08,-132.3 1971.08,-125.3"/>
</g>
<!-- CourseExternalToolRepo -->
<g id="node13" class="node">
<title>CourseExternalToolRepo</title>
<ellipse fill="#fdb462" stroke="black" cx="2817" cy="-66.8" rx="109.96" ry="18"/>
<text text-anchor="middle" x="2817" y="-62.6" font-family="Times,serif" font-size="14.00">CourseExternalToolRepo</text>
</g>
<!-- CourseExternalToolRepo&#45;&gt;ToolModule -->
<g id="edge12" class="edge">
<title>CourseExternalToolRepo&#45;&gt;ToolModule</title>
<path fill="none" stroke="black" d="M2817,-84.82C2817,-102.17 2817,-125.8 2817,-125.8 2817,-125.8 1971.06,-125.8 1971.06,-125.8"/>
<polygon fill="black" stroke="black" points="1971.06,-122.3 1961.06,-125.8 1971.06,-129.3 1971.06,-122.3"/>
</g>
<!-- CourseExternalToolService -->
<g id="node14" class="node">
<title>CourseExternalToolService</title>
<ellipse fill="#fdb462" stroke="black" cx="2571" cy="-66.8" rx="118.1" ry="18"/>
<text text-anchor="middle" x="2571" y="-62.6" font-family="Times,serif" font-size="14.00">CourseExternalToolService</text>
</g>
<!-- CourseExternalToolService&#45;&gt;ToolModule -->
<g id="edge13" class="edge">
<title>CourseExternalToolService&#45;&gt;ToolModule</title>
<path fill="none" stroke="black" d="M2516.63,-83C2516.63,-99.54 2516.63,-122.8 2516.63,-122.8 2516.63,-122.8 1971.05,-122.8 1971.05,-122.8"/>
<polygon fill="black" stroke="black" points="1971.05,-119.3 1961.05,-122.8 1971.05,-126.3 1971.05,-119.3"/>
</g>
<!-- ExternalToolRepo -->
<g id="node15" class="node">
<title>ExternalToolRepo</title>
<ellipse fill="#fdb462" stroke="black" cx="2352" cy="-66.8" rx="82.24" ry="18"/>
<text text-anchor="middle" x="2352" y="-62.6" font-family="Times,serif" font-size="14.00">ExternalToolRepo</text>
</g>
<!-- ExternalToolRepo&#45;&gt;ToolModule -->
<g id="edge14" class="edge">
<title>ExternalToolRepo&#45;&gt;ToolModule</title>
<path fill="none" stroke="black" d="M2316.57,-83.28C2316.57,-98.84 2316.57,-119.8 2316.57,-119.8 2316.57,-119.8 1971.03,-119.8 1971.03,-119.8"/>
<polygon fill="black" stroke="black" points="1971.03,-116.3 1961.03,-119.8 1971.03,-123.3 1971.03,-116.3"/>
</g>
<!-- ExternalToolRepoMapper -->
<g id="node16" class="node">
<title>ExternalToolRepoMapper</title>
<ellipse fill="#fdb462" stroke="black" cx="2139" cy="-66.8" rx="112.3" ry="18"/>
<text text-anchor="middle" x="2139" y="-62.6" font-family="Times,serif" font-size="14.00">ExternalToolRepoMapper</text>
</g>
<!-- ExternalToolRepoMapper&#45;&gt;ToolModule -->
<g id="edge15" class="edge">
<title>ExternalToolRepoMapper&#45;&gt;ToolModule</title>
<path fill="none" stroke="black" d="M2098.41,-83.73C2098.41,-98.23 2098.41,-116.8 2098.41,-116.8 2098.41,-116.8 1971.21,-116.8 1971.21,-116.8"/>
<polygon fill="black" stroke="black" points="1971.21,-113.3 1961.21,-116.8 1971.21,-120.3 1971.21,-113.3"/>
</g>
<!-- ExternalToolService -->
<g id="node17" class="node">
<title>ExternalToolService</title>
<ellipse fill="#fdb462" stroke="black" cx="1918" cy="-66.8" rx="90.88" ry="18"/>
<text text-anchor="middle" x="1918" y="-62.6" font-family="Times,serif" font-size="14.00">ExternalToolService</text>
</g>
<!-- ExternalToolService&#45;&gt;ToolModule -->
<g id="edge16" class="edge">
<title>ExternalToolService&#45;&gt;ToolModule</title>
<path fill="none" stroke="black" d="M1918,-84.91C1918,-84.91 1918,-103.79 1918,-103.79"/>
<polygon fill="black" stroke="black" points="1914.5,-103.79 1918,-113.79 1921.5,-103.79 1914.5,-103.79"/>
</g>
<!-- ExternalToolServiceMapper -->
<g id="node18" class="node">
<title>ExternalToolServiceMapper</title>
<ellipse fill="#fdb462" stroke="black" cx="1688" cy="-66.8" rx="120.95" ry="18"/>
<text text-anchor="middle" x="1688" y="-62.6" font-family="Times,serif" font-size="14.00">ExternalToolServiceMapper</text>
</g>
<!-- ExternalToolServiceMapper&#45;&gt;ToolModule -->
<g id="edge17" class="edge">
<title>ExternalToolServiceMapper&#45;&gt;ToolModule</title>
<path fill="none" stroke="black" d="M1774.53,-79.42C1774.53,-94.23 1774.53,-116.8 1774.53,-116.8 1774.53,-116.8 1864.96,-116.8 1864.96,-116.8"/>
<polygon fill="black" stroke="black" points="1864.96,-120.3 1874.96,-116.8 1864.96,-113.3 1864.96,-120.3"/>
</g>
<!-- ExternalToolSortingMapper -->
<g id="node19" class="node">
<title>ExternalToolSortingMapper</title>
<ellipse fill="#fdb462" stroke="black" cx="1429" cy="-66.8" rx="120.41" ry="18"/>
<text text-anchor="middle" x="1429" y="-62.6" font-family="Times,serif" font-size="14.00">ExternalToolSortingMapper</text>
</g>
<!-- ExternalToolSortingMapper&#45;&gt;ToolModule -->
<g id="edge18" class="edge">
<title>ExternalToolSortingMapper&#45;&gt;ToolModule</title>
<path fill="none" stroke="black" d="M1538.7,-74.62C1538.7,-89.36 1538.7,-119.8 1538.7,-119.8 1538.7,-119.8 1864.86,-119.8 1864.86,-119.8"/>
<polygon fill="black" stroke="black" points="1864.86,-123.3 1874.86,-119.8 1864.86,-116.3 1864.86,-123.3"/>
</g>
<!-- ExternalToolVersionService -->
<g id="node20" class="node">
<title>ExternalToolVersionService</title>
<ellipse fill="#fdb462" stroke="black" cx="1169" cy="-66.8" rx="121.53" ry="18"/>
<text text-anchor="middle" x="1169" y="-62.6" font-family="Times,serif" font-size="14.00">ExternalToolVersionService</text>
</g>
<!-- ExternalToolVersionService&#45;&gt;ToolModule -->
<g id="edge19" class="edge">
<title>ExternalToolVersionService&#45;&gt;ToolModule</title>
<path fill="none" stroke="black" d="M1169,-84.83C1169,-101.2 1169,-122.8 1169,-122.8 1169,-122.8 1864.77,-122.8 1864.77,-122.8"/>
<polygon fill="black" stroke="black" points="1864.77,-126.3 1874.77,-122.8 1864.77,-119.3 1864.77,-126.3"/>
</g>
<!-- Lti11Service -->
<g id="node21" class="node">
<title>Lti11Service</title>
<ellipse fill="#fdb462" stroke="black" cx="969" cy="-66.8" rx="60.83" ry="18"/>
<text text-anchor="middle" x="969" y="-62.6" font-family="Times,serif" font-size="14.00">Lti11Service</text>
</g>
<!-- Lti11Service&#45;&gt;ToolModule -->
<g id="edge20" class="edge">
<title>Lti11Service&#45;&gt;ToolModule</title>
<path fill="none" stroke="black" d="M969,-84.82C969,-102.17 969,-125.8 969,-125.8 969,-125.8 1864.76,-125.8 1864.76,-125.8"/>
<polygon fill="black" stroke="black" points="1864.76,-129.3 1874.76,-125.8 1864.76,-122.3 1864.76,-129.3"/>
</g>
<!-- PseudonymsRepo -->
<g id="node22" class="node">
<title>PseudonymsRepo</title>
<ellipse fill="#fdb462" stroke="black" cx="810" cy="-66.8" rx="80.5" ry="18"/>
<text text-anchor="middle" x="810" y="-62.6" font-family="Times,serif" font-size="14.00">PseudonymsRepo</text>
</g>
<!-- PseudonymsRepo&#45;&gt;ToolModule -->
<g id="edge21" class="edge">
<title>PseudonymsRepo&#45;&gt;ToolModule</title>
<path fill="none" stroke="black" d="M810,-85.07C810,-103.36 810,-128.8 810,-128.8 810,-128.8 1864.91,-128.8 1864.91,-128.8"/>
<polygon fill="black" stroke="black" points="1864.91,-132.3 1874.91,-128.8 1864.91,-125.3 1864.91,-132.3"/>
</g>
<!-- SchoolExternalToolRepo -->
<g id="node23" class="node">
<title>SchoolExternalToolRepo</title>
<ellipse fill="#fdb462" stroke="black" cx="603" cy="-66.8" rx="109.39" ry="18"/>
<text text-anchor="middle" x="603" y="-62.6" font-family="Times,serif" font-size="14.00">SchoolExternalToolRepo</text>
</g>
<!-- SchoolExternalToolRepo&#45;&gt;ToolModule -->
<g id="edge22" class="edge">
<title>SchoolExternalToolRepo&#45;&gt;ToolModule</title>
<path fill="none" stroke="black" d="M603,-84.91C603,-104.14 603,-131.8 603,-131.8 603,-131.8 1865,-131.8 1865,-131.8"/>
<polygon fill="black" stroke="black" points="1865,-135.3 1875,-131.8 1865,-128.3 1865,-135.3"/>
</g>
<!-- SchoolExternalToolService -->
<g id="node24" class="node">
<title>SchoolExternalToolService</title>
<ellipse fill="#fdb462" stroke="black" cx="358" cy="-66.8" rx="117.54" ry="18"/>
<text text-anchor="middle" x="358" y="-62.6" font-family="Times,serif" font-size="14.00">SchoolExternalToolService</text>
</g>
<!-- SchoolExternalToolService&#45;&gt;ToolModule -->
<g id="edge23" class="edge">
<title>SchoolExternalToolService&#45;&gt;ToolModule</title>
<path fill="none" stroke="black" d="M358,-85.02C358,-105.17 358,-134.8 358,-134.8 358,-134.8 1864.65,-134.8 1864.65,-134.8"/>
<polygon fill="black" stroke="black" points="1864.65,-138.3 1874.65,-134.8 1864.65,-131.3 1864.65,-138.3"/>
</g>
<!-- ToolValidationService -->
<g id="node25" class="node">
<title>ToolValidationService</title>
<ellipse fill="#fdb462" stroke="black" cx="123" cy="-66.8" rx="98.99" ry="18"/>
<text text-anchor="middle" x="123" y="-62.6" font-family="Times,serif" font-size="14.00">ToolValidationService</text>
</g>
<!-- ToolValidationService&#45;&gt;ToolModule -->
<g id="edge24" class="edge">
<title>ToolValidationService&#45;&gt;ToolModule</title>
<path fill="none" stroke="black" d="M123,-85.08C123,-106.12 123,-137.8 123,-137.8 123,-137.8 1864.96,-137.8 1864.96,-137.8"/>
<polygon fill="black" stroke="black" points="1864.96,-141.3 1874.96,-137.8 1864.96,-134.3 1864.96,-141.3"/>
</g>
</g>
</svg>
