<?xml version="1.0" encoding="UTF-8" standalone="no"?>
<!DOCTYPE svg PUBLIC "-//W3C//DTD SVG 1.1//EN"
 "http://www.w3.org/Graphics/SVG/1.1/DTD/svg11.dtd">
<!-- Generated by graphviz version 5.0.0 (20220707.1540)
 -->
<!-- Title: dependencies Pages: 1 -->
<svg width="2916pt" height="247pt"
 viewBox="0.00 0.00 2916.00 246.80" xmlns="http://www.w3.org/2000/svg" xmlns:xlink="http://www.w3.org/1999/xlink">
<g id="graph0" class="graph" transform="scale(1 1) rotate(0) translate(4 242.8)">
<title>dependencies</title>
<polygon fill="white" stroke="transparent" points="-4,4 -4,-242.8 2912,-242.8 2912,4 -4,4"/>
<text text-anchor="middle" x="1454" y="-8.2" font-family="sans-serif" font-size="14.00">dependencies</text>
<g id="clust1" class="cluster">
<title>cluster_ToolModule</title>
<polygon fill="none" stroke="black" stroke-dasharray="1,5" points="8,-32.8 8,-230.8 2900,-230.8 2900,-32.8 8,-32.8"/>
</g>
<g id="clust4" class="cluster">
<title>cluster_ToolModule_exports</title>
<polygon fill="none" stroke="black" points="1330,-170.8 1330,-222.8 1757,-222.8 1757,-170.8 1330,-170.8"/>
</g>
<g id="clust3" class="cluster">
<title>cluster_ToolModule_imports</title>
<polygon fill="none" stroke="black" points="2434,-40.8 2434,-92.8 2892,-92.8 2892,-40.8 2434,-40.8"/>
</g>
<g id="clust6" class="cluster">
<title>cluster_ToolModule_providers</title>
<polygon fill="none" stroke="black" points="16,-40.8 16,-92.8 2426,-92.8 2426,-40.8 16,-40.8"/>
</g>
<!-- EncryptionModule -->
<g id="node1" class="node">
<title>EncryptionModule</title>
<polygon fill="#8dd3c7" stroke="black" points="2883.76,-84.8 2880.76,-88.8 2859.76,-88.8 2856.76,-84.8 2762.24,-84.8 2762.24,-48.8 2883.76,-48.8 2883.76,-84.8"/>
<text text-anchor="middle" x="2823" y="-62.6" font-family="Times,serif" font-size="14.00">EncryptionModule</text>
</g>
<!-- ToolModule -->
<g id="node4" class="node">
<title>ToolModule</title>
<polygon fill="#8dd3c7" stroke="black" points="1591.99,-149.8 1588.99,-153.8 1567.99,-153.8 1564.99,-149.8 1506.01,-149.8 1506.01,-113.8 1591.99,-113.8 1591.99,-149.8"/>
<text text-anchor="middle" x="1549" y="-127.6" font-family="Times,serif" font-size="14.00">ToolModule</text>
</g>
<!-- EncryptionModule&#45;&gt;ToolModule -->
<g id="edge1" class="edge">
<title>EncryptionModule&#45;&gt;ToolModule</title>
<path fill="none" stroke="black" d="M2823,-85.09C2823,-107.01 2823,-140.8 2823,-140.8 2823,-140.8 1602.12,-140.8 1602.12,-140.8"/>
<polygon fill="black" stroke="black" points="1602.12,-137.3 1592.12,-140.8 1602.12,-144.3 1602.12,-137.3"/>
</g>
<!-- LoggerModule -->
<g id="node2" class="node">
<title>LoggerModule</title>
<polygon fill="#8dd3c7" stroke="black" points="2743.98,-84.8 2740.98,-88.8 2719.98,-88.8 2716.98,-84.8 2644.02,-84.8 2644.02,-48.8 2743.98,-48.8 2743.98,-84.8"/>
<text text-anchor="middle" x="2694" y="-62.6" font-family="Times,serif" font-size="14.00">LoggerModule</text>
</g>
<!-- LoggerModule&#45;&gt;ToolModule -->
<g id="edge2" class="edge">
<title>LoggerModule&#45;&gt;ToolModule</title>
<path fill="none" stroke="black" d="M2694,-84.83C2694,-105.57 2694,-136.8 2694,-136.8 2694,-136.8 1602.14,-136.8 1602.14,-136.8"/>
<polygon fill="black" stroke="black" points="1602.14,-133.3 1592.14,-136.8 1602.14,-140.3 1602.14,-133.3"/>
</g>
<!-- OauthProviderServiceModule -->
<g id="node3" class="node">
<title>OauthProviderServiceModule</title>
<polygon fill="#8dd3c7" stroke="black" points="2625.96,-84.8 2622.96,-88.8 2601.96,-88.8 2598.96,-84.8 2442.04,-84.8 2442.04,-48.8 2625.96,-48.8 2625.96,-84.8"/>
<text text-anchor="middle" x="2534" y="-62.6" font-family="Times,serif" font-size="14.00">OauthProviderServiceModule</text>
</g>
<!-- OauthProviderServiceModule&#45;&gt;ToolModule -->
<g id="edge3" class="edge">
<title>OauthProviderServiceModule&#45;&gt;ToolModule</title>
<path fill="none" stroke="black" d="M2534,-84.91C2534,-104.14 2534,-131.8 2534,-131.8 2534,-131.8 1602.28,-131.8 1602.28,-131.8"/>
<polygon fill="black" stroke="black" points="1602.28,-128.3 1592.28,-131.8 1602.28,-135.3 1602.28,-128.3"/>
</g>
<!-- ExternalToolService  -->
<g id="node5" class="node">
<title>ExternalToolService </title>
<polygon fill="#fb8072" stroke="black" points="1748.84,-214.8 1613.16,-214.8 1613.16,-178.8 1748.84,-178.8 1748.84,-214.8"/>
<text text-anchor="middle" x="1681" y="-192.6" font-family="Times,serif" font-size="14.00">ExternalToolService </text>
</g>
<!-- ToolModule&#45;&gt;ExternalToolService  -->
<g id="edge4" class="edge">
<title>ToolModule&#45;&gt;ExternalToolService </title>
<path fill="none" stroke="black" stroke-dasharray="5,2" d="M1592.22,-145.8C1630.72,-145.8 1681,-145.8 1681,-145.8 1681,-145.8 1681,-168.68 1681,-168.68"/>
<polygon fill="black" stroke="black" points="1677.5,-168.68 1681,-178.68 1684.5,-168.68 1677.5,-168.68"/>
</g>
<!-- Lti11Service  -->
<g id="node6" class="node">
<title>Lti11Service </title>
<polygon fill="#fb8072" stroke="black" points="1594.81,-214.8 1503.19,-214.8 1503.19,-178.8 1594.81,-178.8 1594.81,-214.8"/>
<text text-anchor="middle" x="1549" y="-192.6" font-family="Times,serif" font-size="14.00">Lti11Service </text>
</g>
<!-- ToolModule&#45;&gt;Lti11Service  -->
<g id="edge5" class="edge">
<title>ToolModule&#45;&gt;Lti11Service </title>
<path fill="none" stroke="black" stroke-dasharray="5,2" d="M1549,-149.91C1549,-149.91 1549,-168.79 1549,-168.79"/>
<polygon fill="black" stroke="black" points="1545.5,-168.79 1549,-178.79 1552.5,-168.79 1545.5,-168.79"/>
</g>
<!-- ToolValidationService  -->
<g id="node7" class="node">
<title>ToolValidationService </title>
<polygon fill="#fb8072" stroke="black" points="1485.52,-214.8 1338.48,-214.8 1338.48,-178.8 1485.52,-178.8 1485.52,-214.8"/>
<text text-anchor="middle" x="1412" y="-192.6" font-family="Times,serif" font-size="14.00">ToolValidationService </text>
</g>
<!-- ToolModule&#45;&gt;ToolValidationService  -->
<g id="edge6" class="edge">
<title>ToolModule&#45;&gt;ToolValidationService </title>
<path fill="none" stroke="black" stroke-dasharray="5,2" d="M1505.65,-145.8C1465.52,-145.8 1412,-145.8 1412,-145.8 1412,-145.8 1412,-168.68 1412,-168.68"/>
<polygon fill="black" stroke="black" points="1408.5,-168.68 1412,-178.68 1415.5,-168.68 1408.5,-168.68"/>
</g>
<!-- CourseExternalToolRepo -->
<g id="node8" class="node">
<title>CourseExternalToolRepo</title>
<ellipse fill="#fdb462" stroke="black" cx="2308" cy="-66.8" rx="109.96" ry="18"/>
<text text-anchor="middle" x="2308" y="-62.6" font-family="Times,serif" font-size="14.00">CourseExternalToolRepo</text>
</g>
<!-- CourseExternalToolRepo&#45;&gt;ToolModule -->
<g id="edge7" class="edge">
<title>CourseExternalToolRepo&#45;&gt;ToolModule</title>
<path fill="none" stroke="black" d="M2308,-85.1C2308,-103.07 2308,-127.8 2308,-127.8 2308,-127.8 1602.26,-127.8 1602.26,-127.8"/>
<polygon fill="black" stroke="black" points="1602.26,-124.3 1592.26,-127.8 1602.26,-131.3 1602.26,-124.3"/>
</g>
<!-- ExternalToolRepo -->
<g id="node9" class="node">
<title>ExternalToolRepo</title>
<ellipse fill="#fdb462" stroke="black" cx="2098" cy="-66.8" rx="82.24" ry="18"/>
<text text-anchor="middle" x="2098" y="-62.6" font-family="Times,serif" font-size="14.00">ExternalToolRepo</text>
</g>
<!-- ExternalToolRepo&#45;&gt;ToolModule -->
<g id="edge8" class="edge">
<title>ExternalToolRepo&#45;&gt;ToolModule</title>
<path fill="none" stroke="black" d="M2098,-84.83C2098,-101.2 2098,-122.8 2098,-122.8 2098,-122.8 1602.08,-122.8 1602.08,-122.8"/>
<polygon fill="black" stroke="black" points="1602.08,-119.3 1592.08,-122.8 1602.08,-126.3 1602.08,-119.3"/>
</g>
<!-- ExternalToolRepoMapper -->
<g id="node10" class="node">
<title>ExternalToolRepoMapper</title>
<ellipse fill="#fdb462" stroke="black" cx="1885" cy="-66.8" rx="112.3" ry="18"/>
<text text-anchor="middle" x="1885" y="-62.6" font-family="Times,serif" font-size="14.00">ExternalToolRepoMapper</text>
</g>
<!-- ExternalToolRepoMapper&#45;&gt;ToolModule -->
<g id="edge9" class="edge">
<title>ExternalToolRepoMapper&#45;&gt;ToolModule</title>
<path fill="none" stroke="black" d="M1885,-84.99C1885,-99.98 1885,-118.8 1885,-118.8 1885,-118.8 1602.24,-118.8 1602.24,-118.8"/>
<polygon fill="black" stroke="black" points="1602.24,-115.3 1592.24,-118.8 1602.24,-122.3 1602.24,-115.3"/>
</g>
<!-- ExternalToolService -->
<g id="node11" class="node">
<title>ExternalToolService</title>
<ellipse fill="#fdb462" stroke="black" cx="1664" cy="-66.8" rx="90.88" ry="18"/>
<text text-anchor="middle" x="1664" y="-62.6" font-family="Times,serif" font-size="14.00">ExternalToolService</text>
</g>
<!-- ExternalToolService&#45;&gt;ToolModule -->
<g id="edge10" class="edge">
<title>ExternalToolService&#45;&gt;ToolModule</title>
<path fill="none" stroke="black" d="M1582.53,-75.03C1582.53,-75.03 1582.53,-103.56 1582.53,-103.56"/>
<polygon fill="black" stroke="black" points="1579.03,-103.56 1582.53,-113.56 1586.03,-103.56 1579.03,-103.56"/>
</g>
<!-- ExternalToolServiceMapper -->
<g id="node12" class="node">
<title>ExternalToolServiceMapper</title>
<ellipse fill="#fdb462" stroke="black" cx="1434" cy="-66.8" rx="120.95" ry="18"/>
<text text-anchor="middle" x="1434" y="-62.6" font-family="Times,serif" font-size="14.00">ExternalToolServiceMapper</text>
</g>
<!-- ExternalToolServiceMapper&#45;&gt;ToolModule -->
<g id="edge11" class="edge">
<title>ExternalToolServiceMapper&#45;&gt;ToolModule</title>
<path fill="none" stroke="black" d="M1530.49,-77.83C1530.49,-77.83 1530.49,-103.58 1530.49,-103.58"/>
<polygon fill="black" stroke="black" points="1526.99,-103.58 1530.49,-113.58 1533.99,-103.58 1526.99,-103.58"/>
</g>
<!-- ExternalToolSortingMapper -->
<g id="node13" class="node">
<title>ExternalToolSortingMapper</title>
<ellipse fill="#fdb462" stroke="black" cx="1175" cy="-66.8" rx="120.41" ry="18"/>
<text text-anchor="middle" x="1175" y="-62.6" font-family="Times,serif" font-size="14.00">ExternalToolSortingMapper</text>
</g>
<!-- ExternalToolSortingMapper&#45;&gt;ToolModule -->
<g id="edge12" class="edge">
<title>ExternalToolSortingMapper&#45;&gt;ToolModule</title>
<path fill="none" stroke="black" d="M1175,-84.99C1175,-99.98 1175,-118.8 1175,-118.8 1175,-118.8 1495.73,-118.8 1495.73,-118.8"/>
<polygon fill="black" stroke="black" points="1495.73,-122.3 1505.73,-118.8 1495.73,-115.3 1495.73,-122.3"/>
</g>
<!-- ExternalToolVersionService -->
<g id="node14" class="node">
<title>ExternalToolVersionService</title>
<ellipse fill="#fdb462" stroke="black" cx="915" cy="-66.8" rx="121.53" ry="18"/>
<text text-anchor="middle" x="915" y="-62.6" font-family="Times,serif" font-size="14.00">ExternalToolVersionService</text>
</g>
<!-- ExternalToolVersionService&#45;&gt;ToolModule -->
<g id="edge13" class="edge">
<title>ExternalToolVersionService&#45;&gt;ToolModule</title>
<path fill="none" stroke="black" d="M915,-84.83C915,-101.2 915,-122.8 915,-122.8 915,-122.8 1495.92,-122.8 1495.92,-122.8"/>
<polygon fill="black" stroke="black" points="1495.92,-126.3 1505.92,-122.8 1495.92,-119.3 1495.92,-126.3"/>
</g>
<!-- Lti11Service -->
<g id="node15" class="node">
<title>Lti11Service</title>
<ellipse fill="#fdb462" stroke="black" cx="715" cy="-66.8" rx="60.83" ry="18"/>
<text text-anchor="middle" x="715" y="-62.6" font-family="Times,serif" font-size="14.00">Lti11Service</text>
</g>
<!-- Lti11Service&#45;&gt;ToolModule -->
<g id="edge14" class="edge">
<title>Lti11Service&#45;&gt;ToolModule</title>
<path fill="none" stroke="black" d="M715,-85.1C715,-103.07 715,-127.8 715,-127.8 715,-127.8 1495.92,-127.8 1495.92,-127.8"/>
<polygon fill="black" stroke="black" points="1495.92,-131.3 1505.92,-127.8 1495.92,-124.3 1495.92,-131.3"/>
</g>
<!-- PseudonymsRepo -->
<g id="node16" class="node">
<title>PseudonymsRepo</title>
<ellipse fill="#fdb462" stroke="black" cx="556" cy="-66.8" rx="80.5" ry="18"/>
<text text-anchor="middle" x="556" y="-62.6" font-family="Times,serif" font-size="14.00">PseudonymsRepo</text>
</g>
<!-- PseudonymsRepo&#45;&gt;ToolModule -->
<g id="edge15" class="edge">
<title>PseudonymsRepo&#45;&gt;ToolModule</title>
<path fill="none" stroke="black" d="M556,-84.91C556,-104.14 556,-131.8 556,-131.8 556,-131.8 1495.69,-131.8 1495.69,-131.8"/>
<polygon fill="black" stroke="black" points="1495.69,-135.3 1505.69,-131.8 1495.69,-128.3 1495.69,-135.3"/>
</g>
<!-- SchoolExternalToolRepo -->
<g id="node17" class="node">
<title>SchoolExternalToolRepo</title>
<ellipse fill="#fdb462" stroke="black" cx="349" cy="-66.8" rx="109.39" ry="18"/>
<text text-anchor="middle" x="349" y="-62.6" font-family="Times,serif" font-size="14.00">SchoolExternalToolRepo</text>
</g>
<!-- SchoolExternalToolRepo&#45;&gt;ToolModule -->
<g id="edge16" class="edge">
<title>SchoolExternalToolRepo&#45;&gt;ToolModule</title>
<path fill="none" stroke="black" d="M349,-84.83C349,-105.57 349,-136.8 349,-136.8 349,-136.8 1495.94,-136.8 1495.94,-136.8"/>
<polygon fill="black" stroke="black" points="1495.94,-140.3 1505.94,-136.8 1495.94,-133.3 1495.94,-140.3"/>
</g>
<!-- ToolValidationService -->
<g id="node18" class="node">
<title>ToolValidationService</title>
<ellipse fill="#fdb462" stroke="black" cx="123" cy="-66.8" rx="98.99" ry="18"/>
<text text-anchor="middle" x="123" y="-62.6" font-family="Times,serif" font-size="14.00">ToolValidationService</text>
</g>
<!-- ToolValidationService&#45;&gt;ToolModule -->
<g id="edge17" class="edge">
<title>ToolValidationService&#45;&gt;ToolModule</title>
<path fill="none" stroke="black" d="M123,-85.09C123,-107.01 123,-140.8 123,-140.8 123,-140.8 1495.93,-140.8 1495.93,-140.8"/>
<polygon fill="black" stroke="black" points="1495.93,-144.3 1505.93,-140.8 1495.93,-137.3 1495.93,-144.3"/>
</g>
</g>
</svg>
