<?xml version="1.0" encoding="UTF-8" standalone="no"?>
<!DOCTYPE svg PUBLIC "-//W3C//DTD SVG 1.1//EN"
 "http://www.w3.org/Graphics/SVG/1.1/DTD/svg11.dtd">
<!-- Generated by graphviz version 5.0.0 (20220707.1540)
 -->
<!-- Title: dependencies Pages: 1 -->
<svg width="1965pt" height="247pt"
 viewBox="0.00 0.00 1965.00 246.80" xmlns="http://www.w3.org/2000/svg" xmlns:xlink="http://www.w3.org/1999/xlink">
<g id="graph0" class="graph" transform="scale(1 1) rotate(0) translate(4 242.8)">
<title>dependencies</title>
<polygon fill="white" stroke="transparent" points="-4,4 -4,-242.8 1961,-242.8 1961,4 -4,4"/>
<text text-anchor="middle" x="978.5" y="-8.2" font-family="sans-serif" font-size="14.00">dependencies</text>
<g id="clust1" class="cluster">
<title>cluster_ToolModule</title>
<polygon fill="none" stroke="black" stroke-dasharray="1,5" points="8,-32.8 8,-230.8 1949,-230.8 1949,-32.8 8,-32.8"/>
</g>
<g id="clust6" class="cluster">
<title>cluster_ToolModule_providers</title>
<polygon fill="none" stroke="black" points="482,-40.8 482,-92.8 1941,-92.8 1941,-40.8 482,-40.8"/>
</g>
<g id="clust3" class="cluster">
<title>cluster_ToolModule_imports</title>
<polygon fill="none" stroke="black" points="16,-40.8 16,-92.8 474,-92.8 474,-40.8 16,-40.8"/>
</g>
<g id="clust4" class="cluster">
<title>cluster_ToolModule_exports</title>
<polygon fill="none" stroke="black" points="708,-170.8 708,-222.8 970,-222.8 970,-170.8 708,-170.8"/>
</g>
<!-- EncryptionModule -->
<g id="node1" class="node">
<title>EncryptionModule</title>
<polygon fill="#8dd3c7" stroke="black" points="465.76,-84.8 462.76,-88.8 441.76,-88.8 438.76,-84.8 344.24,-84.8 344.24,-48.8 465.76,-48.8 465.76,-84.8"/>
<text text-anchor="middle" x="405" y="-62.6" font-family="Times,serif" font-size="14.00">EncryptionModule</text>
</g>
<!-- ToolModule -->
<g id="node4" class="node">
<title>ToolModule</title>
<polygon fill="#8dd3c7" stroke="black" points="870.99,-149.8 867.99,-153.8 846.99,-153.8 843.99,-149.8 785.01,-149.8 785.01,-113.8 870.99,-113.8 870.99,-149.8"/>
<text text-anchor="middle" x="828" y="-127.6" font-family="Times,serif" font-size="14.00">ToolModule</text>
</g>
<!-- EncryptionModule&#45;&gt;ToolModule -->
<g id="edge1" class="edge">
<title>EncryptionModule&#45;&gt;ToolModule</title>
<path fill="none" stroke="black" d="M405,-85.07C405,-103.36 405,-128.8 405,-128.8 405,-128.8 774.72,-128.8 774.72,-128.8"/>
<polygon fill="black" stroke="black" points="774.72,-132.3 784.72,-128.8 774.72,-125.3 774.72,-132.3"/>
</g>
<!-- LoggerModule -->
<g id="node2" class="node">
<title>LoggerModule</title>
<polygon fill="#8dd3c7" stroke="black" points="325.98,-84.8 322.98,-88.8 301.98,-88.8 298.98,-84.8 226.02,-84.8 226.02,-48.8 325.98,-48.8 325.98,-84.8"/>
<text text-anchor="middle" x="276" y="-62.6" font-family="Times,serif" font-size="14.00">LoggerModule</text>
</g>
<!-- LoggerModule&#45;&gt;ToolModule -->
<g id="edge2" class="edge">
<title>LoggerModule&#45;&gt;ToolModule</title>
<path fill="none" stroke="black" d="M276,-84.93C276,-105.37 276,-135.8 276,-135.8 276,-135.8 774.69,-135.8 774.69,-135.8"/>
<polygon fill="black" stroke="black" points="774.69,-139.3 784.69,-135.8 774.69,-132.3 774.69,-139.3"/>
</g>
<!-- OauthProviderServiceModule -->
<g id="node3" class="node">
<title>OauthProviderServiceModule</title>
<polygon fill="#8dd3c7" stroke="black" points="207.96,-84.8 204.96,-88.8 183.96,-88.8 180.96,-84.8 24.04,-84.8 24.04,-48.8 207.96,-48.8 207.96,-84.8"/>
<text text-anchor="middle" x="116" y="-62.6" font-family="Times,serif" font-size="14.00">OauthProviderServiceModule</text>
</g>
<!-- OauthProviderServiceModule&#45;&gt;ToolModule -->
<g id="edge3" class="edge">
<title>OauthProviderServiceModule&#45;&gt;ToolModule</title>
<path fill="none" stroke="black" d="M116,-84.81C116,-107.29 116,-142.8 116,-142.8 116,-142.8 774.8,-142.8 774.8,-142.8"/>
<polygon fill="black" stroke="black" points="774.8,-146.3 784.8,-142.8 774.8,-139.3 774.8,-146.3"/>
</g>
<!-- ExternalToolService  -->
<g id="node5" class="node">
<title>ExternalToolService </title>
<polygon fill="#fb8072" stroke="black" points="961.84,-214.8 826.16,-214.8 826.16,-178.8 961.84,-178.8 961.84,-214.8"/>
<text text-anchor="middle" x="894" y="-192.6" font-family="Times,serif" font-size="14.00">ExternalToolService </text>
</g>
<!-- ToolModule&#45;&gt;ExternalToolService  -->
<g id="edge4" class="edge">
<title>ToolModule&#45;&gt;ExternalToolService </title>
<path fill="none" stroke="black" stroke-dasharray="5,2" d="M848.66,-149.91C848.66,-149.91 848.66,-168.79 848.66,-168.79"/>
<polygon fill="black" stroke="black" points="845.16,-168.79 848.66,-178.79 852.16,-168.79 845.16,-168.79"/>
</g>
<!-- Lti11Service  -->
<g id="node6" class="node">
<title>Lti11Service </title>
<polygon fill="#fb8072" stroke="black" points="807.81,-214.8 716.19,-214.8 716.19,-178.8 807.81,-178.8 807.81,-214.8"/>
<text text-anchor="middle" x="762" y="-192.6" font-family="Times,serif" font-size="14.00">Lti11Service </text>
</g>
<!-- ToolModule&#45;&gt;Lti11Service  -->
<g id="edge5" class="edge">
<title>ToolModule&#45;&gt;Lti11Service </title>
<path fill="none" stroke="black" stroke-dasharray="5,2" d="M796.45,-149.91C796.45,-149.91 796.45,-168.79 796.45,-168.79"/>
<polygon fill="black" stroke="black" points="792.95,-168.79 796.45,-178.79 799.95,-168.79 792.95,-168.79"/>
</g>
<!-- ExternalToolRepo -->
<g id="node7" class="node">
<title>ExternalToolRepo</title>
<ellipse fill="#fdb462" stroke="black" cx="1851" cy="-66.8" rx="82.24" ry="18"/>
<text text-anchor="middle" x="1851" y="-62.6" font-family="Times,serif" font-size="14.00">ExternalToolRepo</text>
</g>
<!-- ExternalToolRepo&#45;&gt;ToolModule -->
<g id="edge6" class="edge">
<title>ExternalToolRepo&#45;&gt;ToolModule</title>
<path fill="none" stroke="black" d="M1851,-84.81C1851,-107.29 1851,-142.8 1851,-142.8 1851,-142.8 881.3,-142.8 881.3,-142.8"/>
<polygon fill="black" stroke="black" points="881.3,-139.3 871.3,-142.8 881.3,-146.3 881.3,-139.3"/>
</g>
<!-- ExternalToolRepoMapper -->
<g id="node8" class="node">
<title>ExternalToolRepoMapper</title>
<ellipse fill="#fdb462" stroke="black" cx="1638" cy="-66.8" rx="112.3" ry="18"/>
<text text-anchor="middle" x="1638" y="-62.6" font-family="Times,serif" font-size="14.00">ExternalToolRepoMapper</text>
</g>
<!-- ExternalToolRepoMapper&#45;&gt;ToolModule -->
<g id="edge7" class="edge">
<title>ExternalToolRepoMapper&#45;&gt;ToolModule</title>
<path fill="none" stroke="black" d="M1638,-84.93C1638,-105.37 1638,-135.8 1638,-135.8 1638,-135.8 881.26,-135.8 881.26,-135.8"/>
<polygon fill="black" stroke="black" points="881.26,-132.3 871.26,-135.8 881.26,-139.3 881.26,-132.3"/>
</g>
<!-- ExternalToolService -->
<g id="node9" class="node">
<title>ExternalToolService</title>
<ellipse fill="#fdb462" stroke="black" cx="1417" cy="-66.8" rx="90.88" ry="18"/>
<text text-anchor="middle" x="1417" y="-62.6" font-family="Times,serif" font-size="14.00">ExternalToolService</text>
</g>
<!-- ExternalToolService&#45;&gt;ToolModule -->
<g id="edge8" class="edge">
<title>ExternalToolService&#45;&gt;ToolModule</title>
<path fill="none" stroke="black" d="M1417,-85.07C1417,-103.36 1417,-128.8 1417,-128.8 1417,-128.8 881.31,-128.8 881.31,-128.8"/>
<polygon fill="black" stroke="black" points="881.31,-125.3 871.31,-128.8 881.31,-132.3 881.31,-125.3"/>
</g>
<!-- ExternalToolServiceMapper -->
<g id="node10" class="node">
<title>ExternalToolServiceMapper</title>
<ellipse fill="#fdb462" stroke="black" cx="1187" cy="-66.8" rx="120.95" ry="18"/>
<text text-anchor="middle" x="1187" y="-62.6" font-family="Times,serif" font-size="14.00">ExternalToolServiceMapper</text>
</g>
<!-- ExternalToolServiceMapper&#45;&gt;ToolModule -->
<g id="edge9" class="edge">
<title>ExternalToolServiceMapper&#45;&gt;ToolModule</title>
<path fill="none" stroke="black" d="M1187,-84.81C1187,-100.85 1187,-121.8 1187,-121.8 1187,-121.8 881.3,-121.8 881.3,-121.8"/>
<polygon fill="black" stroke="black" points="881.3,-118.3 871.3,-121.8 881.3,-125.3 881.3,-118.3"/>
</g>
<!-- ExternalToolSortingMapper -->
<g id="node11" class="node">
<title>ExternalToolSortingMapper</title>
<ellipse fill="#fdb462" stroke="black" cx="928" cy="-66.8" rx="120.41" ry="18"/>
<text text-anchor="middle" x="928" y="-62.6" font-family="Times,serif" font-size="14.00">ExternalToolSortingMapper</text>
</g>
<!-- ExternalToolSortingMapper&#45;&gt;ToolModule -->
<g id="edge10" class="edge">
<title>ExternalToolSortingMapper&#45;&gt;ToolModule</title>
<path fill="none" stroke="black" d="M839.27,-79.03C839.27,-79.03 839.27,-103.48 839.27,-103.48"/>
<polygon fill="black" stroke="black" points="835.77,-103.48 839.27,-113.48 842.77,-103.48 835.77,-103.48"/>
</g>
<!-- Lti11Service -->
<g id="node12" class="node">
<title>Lti11Service</title>
<ellipse fill="#fdb462" stroke="black" cx="729" cy="-66.8" rx="60.83" ry="18"/>
<text text-anchor="middle" x="729" y="-62.6" font-family="Times,serif" font-size="14.00">Lti11Service</text>
</g>
<!-- Lti11Service&#45;&gt;ToolModule -->
<g id="edge11" class="edge">
<title>Lti11Service&#45;&gt;ToolModule</title>
<path fill="none" stroke="black" d="M790.18,-66.8C795.39,-66.8 798.73,-66.8 798.73,-66.8 798.73,-66.8 798.73,-103.69 798.73,-103.69"/>
<polygon fill="black" stroke="black" points="795.23,-103.69 798.73,-113.69 802.23,-103.69 795.23,-103.69"/>
</g>
<!-- PseudonymsRepo -->
<g id="node13" class="node">
<title>PseudonymsRepo</title>
<ellipse fill="#fdb462" stroke="black" cx="570" cy="-66.8" rx="80.5" ry="18"/>
<text text-anchor="middle" x="570" y="-62.6" font-family="Times,serif" font-size="14.00">PseudonymsRepo</text>
</g>
<!-- PseudonymsRepo&#45;&gt;ToolModule -->
<g id="edge12" class="edge">
<title>PseudonymsRepo&#45;&gt;ToolModule</title>
<path fill="none" stroke="black" d="M570,-84.81C570,-100.85 570,-121.8 570,-121.8 570,-121.8 774.82,-121.8 774.82,-121.8"/>
<polygon fill="black" stroke="black" points="774.82,-125.3 784.82,-121.8 774.82,-118.3 774.82,-125.3"/>
</g>
</g>
</svg>
