<?xml version="1.0" encoding="UTF-8" standalone="no"?>
<!DOCTYPE svg PUBLIC "-//W3C//DTD SVG 1.1//EN"
 "http://www.w3.org/Graphics/SVG/1.1/DTD/svg11.dtd">
<!-- Generated by graphviz version 5.0.0 (20220707.1540)
 -->
<!-- Title: dependencies Pages: 1 -->
<svg width="2655pt" height="247pt"
 viewBox="0.00 0.00 2655.00 246.80" xmlns="http://www.w3.org/2000/svg" xmlns:xlink="http://www.w3.org/1999/xlink">
<g id="graph0" class="graph" transform="scale(1 1) rotate(0) translate(4 242.8)">
<title>dependencies</title>
<polygon fill="white" stroke="transparent" points="-4,4 -4,-242.8 2651,-242.8 2651,4 -4,4"/>
<text text-anchor="middle" x="1323.5" y="-8.2" font-family="sans-serif" font-size="14.00">dependencies</text>
<g id="clust1" class="cluster">
<title>cluster_ToolModule</title>
<polygon fill="none" stroke="black" stroke-dasharray="1,5" points="8,-32.8 8,-230.8 2639,-230.8 2639,-32.8 8,-32.8"/>
</g>
<g id="clust3" class="cluster">
<title>cluster_ToolModule_imports</title>
<polygon fill="none" stroke="black" points="2173,-40.8 2173,-92.8 2631,-92.8 2631,-40.8 2173,-40.8"/>
</g>
<g id="clust6" class="cluster">
<title>cluster_ToolModule_providers</title>
<polygon fill="none" stroke="black" points="16,-40.8 16,-92.8 2165,-92.8 2165,-40.8 16,-40.8"/>
</g>
<g id="clust4" class="cluster">
<title>cluster_ToolModule_exports</title>
<polygon fill="none" stroke="black" points="1184,-170.8 1184,-222.8 1611,-222.8 1611,-170.8 1184,-170.8"/>
</g>
<!-- EncryptionModule -->
<g id="node1" class="node">
<title>EncryptionModule</title>
<polygon fill="#8dd3c7" stroke="black" points="2622.76,-84.8 2619.76,-88.8 2598.76,-88.8 2595.76,-84.8 2501.24,-84.8 2501.24,-48.8 2622.76,-48.8 2622.76,-84.8"/>
<text text-anchor="middle" x="2562" y="-62.6" font-family="Times,serif" font-size="14.00">EncryptionModule</text>
</g>
<!-- ToolModule -->
<g id="node4" class="node">
<title>ToolModule</title>
<polygon fill="#8dd3c7" stroke="black" points="1445.99,-149.8 1442.99,-153.8 1421.99,-153.8 1418.99,-149.8 1360.01,-149.8 1360.01,-113.8 1445.99,-113.8 1445.99,-149.8"/>
<text text-anchor="middle" x="1403" y="-127.6" font-family="Times,serif" font-size="14.00">ToolModule</text>
</g>
<!-- EncryptionModule&#45;&gt;ToolModule -->
<g id="edge1" class="edge">
<title>EncryptionModule&#45;&gt;ToolModule</title>
<path fill="none" stroke="black" d="M2562,-85.09C2562,-107.01 2562,-140.8 2562,-140.8 2562,-140.8 1456.32,-140.8 1456.32,-140.8"/>
<polygon fill="black" stroke="black" points="1456.32,-137.3 1446.32,-140.8 1456.32,-144.3 1456.32,-137.3"/>
</g>
<!-- LoggerModule -->
<g id="node2" class="node">
<title>LoggerModule</title>
<polygon fill="#8dd3c7" stroke="black" points="2482.98,-84.8 2479.98,-88.8 2458.98,-88.8 2455.98,-84.8 2383.02,-84.8 2383.02,-48.8 2482.98,-48.8 2482.98,-84.8"/>
<text text-anchor="middle" x="2433" y="-62.6" font-family="Times,serif" font-size="14.00">LoggerModule</text>
</g>
<!-- LoggerModule&#45;&gt;ToolModule -->
<g id="edge2" class="edge">
<title>LoggerModule&#45;&gt;ToolModule</title>
<path fill="none" stroke="black" d="M2433,-84.83C2433,-105.57 2433,-136.8 2433,-136.8 2433,-136.8 1456.27,-136.8 1456.27,-136.8"/>
<polygon fill="black" stroke="black" points="1456.27,-133.3 1446.27,-136.8 1456.27,-140.3 1456.27,-133.3"/>
</g>
<!-- OauthProviderServiceModule -->
<g id="node3" class="node">
<title>OauthProviderServiceModule</title>
<polygon fill="#8dd3c7" stroke="black" points="2364.96,-84.8 2361.96,-88.8 2340.96,-88.8 2337.96,-84.8 2181.04,-84.8 2181.04,-48.8 2364.96,-48.8 2364.96,-84.8"/>
<text text-anchor="middle" x="2273" y="-62.6" font-family="Times,serif" font-size="14.00">OauthProviderServiceModule</text>
</g>
<!-- OauthProviderServiceModule&#45;&gt;ToolModule -->
<g id="edge3" class="edge">
<title>OauthProviderServiceModule&#45;&gt;ToolModule</title>
<path fill="none" stroke="black" d="M2273,-84.91C2273,-104.14 2273,-131.8 2273,-131.8 2273,-131.8 1456.14,-131.8 1456.14,-131.8"/>
<polygon fill="black" stroke="black" points="1456.14,-128.3 1446.14,-131.8 1456.14,-135.3 1456.14,-128.3"/>
</g>
<!-- ExternalToolService  -->
<g id="node5" class="node">
<title>ExternalToolService </title>
<polygon fill="#fb8072" stroke="black" points="1602.84,-214.8 1467.16,-214.8 1467.16,-178.8 1602.84,-178.8 1602.84,-214.8"/>
<text text-anchor="middle" x="1535" y="-192.6" font-family="Times,serif" font-size="14.00">ExternalToolService </text>
</g>
<!-- ToolModule&#45;&gt;ExternalToolService  -->
<g id="edge4" class="edge">
<title>ToolModule&#45;&gt;ExternalToolService </title>
<path fill="none" stroke="black" stroke-dasharray="5,2" d="M1446.36,-145.8C1464.14,-145.8 1480.64,-145.8 1480.64,-145.8 1480.64,-145.8 1480.64,-168.68 1480.64,-168.68"/>
<polygon fill="black" stroke="black" points="1477.14,-168.68 1480.64,-178.68 1484.14,-168.68 1477.14,-168.68"/>
</g>
<!-- Lti11Service  -->
<g id="node6" class="node">
<title>Lti11Service </title>
<polygon fill="#fb8072" stroke="black" points="1448.81,-214.8 1357.19,-214.8 1357.19,-178.8 1448.81,-178.8 1448.81,-214.8"/>
<text text-anchor="middle" x="1403" y="-192.6" font-family="Times,serif" font-size="14.00">Lti11Service </text>
</g>
<!-- ToolModule&#45;&gt;Lti11Service  -->
<g id="edge5" class="edge">
<title>ToolModule&#45;&gt;Lti11Service </title>
<path fill="none" stroke="black" stroke-dasharray="5,2" d="M1403,-149.91C1403,-149.91 1403,-168.79 1403,-168.79"/>
<polygon fill="black" stroke="black" points="1399.5,-168.79 1403,-178.79 1406.5,-168.79 1399.5,-168.79"/>
</g>
<!-- ToolValidationService  -->
<g id="node7" class="node">
<title>ToolValidationService </title>
<polygon fill="#fb8072" stroke="black" points="1339.52,-214.8 1192.48,-214.8 1192.48,-178.8 1339.52,-178.8 1339.52,-214.8"/>
<text text-anchor="middle" x="1266" y="-192.6" font-family="Times,serif" font-size="14.00">ToolValidationService </text>
</g>
<!-- ToolModule&#45;&gt;ToolValidationService  -->
<g id="edge6" class="edge">
<title>ToolModule&#45;&gt;ToolValidationService </title>
<path fill="none" stroke="black" stroke-dasharray="5,2" d="M1359.88,-145.8C1342.19,-145.8 1325.78,-145.8 1325.78,-145.8 1325.78,-145.8 1325.78,-168.68 1325.78,-168.68"/>
<polygon fill="black" stroke="black" points="1322.28,-168.68 1325.78,-178.68 1329.28,-168.68 1322.28,-168.68"/>
</g>
<!-- CourseExternalToolRepo -->
<g id="node8" class="node">
<title>CourseExternalToolRepo</title>
<ellipse fill="#fdb462" stroke="black" cx="2047" cy="-66.8" rx="109.96" ry="18"/>
<text text-anchor="middle" x="2047" y="-62.6" font-family="Times,serif" font-size="14.00">CourseExternalToolRepo</text>
</g>
<!-- CourseExternalToolRepo&#45;&gt;ToolModule -->
<g id="edge7" class="edge">
<title>CourseExternalToolRepo&#45;&gt;ToolModule</title>
<path fill="none" stroke="black" d="M2047,-85.1C2047,-103.07 2047,-127.8 2047,-127.8 2047,-127.8 1456,-127.8 1456,-127.8"/>
<polygon fill="black" stroke="black" points="1456,-124.3 1446,-127.8 1456,-131.3 1456,-124.3"/>
</g>
<!-- ExternalToolRepo -->
<g id="node9" class="node">
<title>ExternalToolRepo</title>
<ellipse fill="#fdb462" stroke="black" cx="1837" cy="-66.8" rx="82.24" ry="18"/>
<text text-anchor="middle" x="1837" y="-62.6" font-family="Times,serif" font-size="14.00">ExternalToolRepo</text>
</g>
<!-- ExternalToolRepo&#45;&gt;ToolModule -->
<g id="edge8" class="edge">
<title>ExternalToolRepo&#45;&gt;ToolModule</title>
<path fill="none" stroke="black" d="M1837,-84.83C1837,-101.2 1837,-122.8 1837,-122.8 1837,-122.8 1456.2,-122.8 1456.2,-122.8"/>
<polygon fill="black" stroke="black" points="1456.2,-119.3 1446.2,-122.8 1456.2,-126.3 1456.2,-119.3"/>
</g>
<!-- ExternalToolRepoMapper -->
<g id="node10" class="node">
<title>ExternalToolRepoMapper</title>
<ellipse fill="#fdb462" stroke="black" cx="1624" cy="-66.8" rx="112.3" ry="18"/>
<text text-anchor="middle" x="1624" y="-62.6" font-family="Times,serif" font-size="14.00">ExternalToolRepoMapper</text>
</g>
<!-- ExternalToolRepoMapper&#45;&gt;ToolModule -->
<g id="edge9" class="edge">
<title>ExternalToolRepoMapper&#45;&gt;ToolModule</title>
<path fill="none" stroke="black" d="M1557.13,-81.28C1557.13,-96.67 1557.13,-118.8 1557.13,-118.8 1557.13,-118.8 1456.35,-118.8 1456.35,-118.8"/>
<polygon fill="black" stroke="black" points="1456.35,-115.3 1446.35,-118.8 1456.35,-122.3 1456.35,-115.3"/>
</g>
<!-- ExternalToolService -->
<g id="node11" class="node">
<title>ExternalToolService</title>
<ellipse fill="#fdb462" stroke="black" cx="1403" cy="-66.8" rx="90.88" ry="18"/>
<text text-anchor="middle" x="1403" y="-62.6" font-family="Times,serif" font-size="14.00">ExternalToolService</text>
</g>
<!-- ExternalToolService&#45;&gt;ToolModule -->
<g id="edge10" class="edge">
<title>ExternalToolService&#45;&gt;ToolModule</title>
<path fill="none" stroke="black" d="M1403,-84.91C1403,-84.91 1403,-103.79 1403,-103.79"/>
<polygon fill="black" stroke="black" points="1399.5,-103.79 1403,-113.79 1406.5,-103.79 1399.5,-103.79"/>
</g>
<!-- ExternalToolServiceMapper -->
<g id="node12" class="node">
<title>ExternalToolServiceMapper</title>
<ellipse fill="#fdb462" stroke="black" cx="1173" cy="-66.8" rx="120.95" ry="18"/>
<text text-anchor="middle" x="1173" y="-62.6" font-family="Times,serif" font-size="14.00">ExternalToolServiceMapper</text>
</g>
<!-- ExternalToolServiceMapper&#45;&gt;ToolModule -->
<g id="edge11" class="edge">
<title>ExternalToolServiceMapper&#45;&gt;ToolModule</title>
<path fill="none" stroke="black" d="M1243.23,-81.56C1243.23,-96.94 1243.23,-118.8 1243.23,-118.8 1243.23,-118.8 1349.76,-118.8 1349.76,-118.8"/>
<polygon fill="black" stroke="black" points="1349.76,-122.3 1359.76,-118.8 1349.76,-115.3 1349.76,-122.3"/>
</g>
<!-- ExternalToolSortingMapper -->
<g id="node13" class="node">
<title>ExternalToolSortingMapper</title>
<ellipse fill="#fdb462" stroke="black" cx="914" cy="-66.8" rx="120.41" ry="18"/>
<text text-anchor="middle" x="914" y="-62.6" font-family="Times,serif" font-size="14.00">ExternalToolSortingMapper</text>
</g>
<!-- ExternalToolSortingMapper&#45;&gt;ToolModule -->
<g id="edge12" class="edge">
<title>ExternalToolSortingMapper&#45;&gt;ToolModule</title>
<path fill="none" stroke="black" d="M914,-84.83C914,-101.2 914,-122.8 914,-122.8 914,-122.8 1349.6,-122.8 1349.6,-122.8"/>
<polygon fill="black" stroke="black" points="1349.6,-126.3 1359.6,-122.8 1349.6,-119.3 1349.6,-126.3"/>
</g>
<!-- Lti11Service -->
<g id="node14" class="node">
<title>Lti11Service</title>
<ellipse fill="#fdb462" stroke="black" cx="715" cy="-66.8" rx="60.83" ry="18"/>
<text text-anchor="middle" x="715" y="-62.6" font-family="Times,serif" font-size="14.00">Lti11Service</text>
</g>
<!-- Lti11Service&#45;&gt;ToolModule -->
<g id="edge13" class="edge">
<title>Lti11Service&#45;&gt;ToolModule</title>
<path fill="none" stroke="black" d="M715,-85.1C715,-103.07 715,-127.8 715,-127.8 715,-127.8 1349.96,-127.8 1349.96,-127.8"/>
<polygon fill="black" stroke="black" points="1349.96,-131.3 1359.96,-127.8 1349.96,-124.3 1349.96,-131.3"/>
</g>
<!-- PseudonymsRepo -->
<g id="node15" class="node">
<title>PseudonymsRepo</title>
<ellipse fill="#fdb462" stroke="black" cx="556" cy="-66.8" rx="80.5" ry="18"/>
<text text-anchor="middle" x="556" y="-62.6" font-family="Times,serif" font-size="14.00">PseudonymsRepo</text>
</g>
<!-- PseudonymsRepo&#45;&gt;ToolModule -->
<g id="edge14" class="edge">
<title>PseudonymsRepo&#45;&gt;ToolModule</title>
<path fill="none" stroke="black" d="M556,-84.91C556,-104.14 556,-131.8 556,-131.8 556,-131.8 1349.83,-131.8 1349.83,-131.8"/>
<polygon fill="black" stroke="black" points="1349.83,-135.3 1359.83,-131.8 1349.83,-128.3 1349.83,-135.3"/>
</g>
<!-- SchoolExternalToolRepo -->
<g id="node16" class="node">
<title>SchoolExternalToolRepo</title>
<ellipse fill="#fdb462" stroke="black" cx="349" cy="-66.8" rx="109.39" ry="18"/>
<text text-anchor="middle" x="349" y="-62.6" font-family="Times,serif" font-size="14.00">SchoolExternalToolRepo</text>
</g>
<!-- SchoolExternalToolRepo&#45;&gt;ToolModule -->
<g id="edge15" class="edge">
<title>SchoolExternalToolRepo&#45;&gt;ToolModule</title>
<path fill="none" stroke="black" d="M349,-84.83C349,-105.57 349,-136.8 349,-136.8 349,-136.8 1349.72,-136.8 1349.72,-136.8"/>
<polygon fill="black" stroke="black" points="1349.72,-140.3 1359.72,-136.8 1349.72,-133.3 1349.72,-140.3"/>
</g>
<!-- ToolValidationService -->
<g id="node17" class="node">
<title>ToolValidationService</title>
<ellipse fill="#fdb462" stroke="black" cx="123" cy="-66.8" rx="98.99" ry="18"/>
<text text-anchor="middle" x="123" y="-62.6" font-family="Times,serif" font-size="14.00">ToolValidationService</text>
</g>
<!-- ToolValidationService&#45;&gt;ToolModule -->
<g id="edge16" class="edge">
<title>ToolValidationService&#45;&gt;ToolModule</title>
<path fill="none" stroke="black" d="M123,-85.09C123,-107.01 123,-140.8 123,-140.8 123,-140.8 1349.68,-140.8 1349.68,-140.8"/>
<polygon fill="black" stroke="black" points="1349.68,-144.3 1359.68,-140.8 1349.68,-137.3 1349.68,-144.3"/>
</g>
</g>
</svg>
