<?xml version="1.0" encoding="UTF-8" standalone="no"?>
<!DOCTYPE svg PUBLIC "-//W3C//DTD SVG 1.1//EN"
 "http://www.w3.org/Graphics/SVG/1.1/DTD/svg11.dtd">
<!-- Generated by graphviz version 5.0.0 (20220707.1540)
 -->
<!-- Title: dependencies Pages: 1 -->
<svg width="3170pt" height="247pt"
 viewBox="0.00 0.00 3170.00 246.80" xmlns="http://www.w3.org/2000/svg" xmlns:xlink="http://www.w3.org/1999/xlink">
<g id="graph0" class="graph" transform="scale(1 1) rotate(0) translate(4 242.8)">
<title>dependencies</title>
<polygon fill="white" stroke="transparent" points="-4,4 -4,-242.8 3166,-242.8 3166,4 -4,4"/>
<text text-anchor="middle" x="1581" y="-8.2" font-family="sans-serif" font-size="14.00">dependencies</text>
<g id="clust1" class="cluster">
<title>cluster_ToolModule</title>
<polygon fill="none" stroke="black" stroke-dasharray="1,5" points="8,-32.8 8,-230.8 3154,-230.8 3154,-32.8 8,-32.8"/>
</g>
<g id="clust6" class="cluster">
<title>cluster_ToolModule_providers</title>
<polygon fill="none" stroke="black" points="482,-40.8 482,-92.8 3146,-92.8 3146,-40.8 482,-40.8"/>
</g>
<g id="clust3" class="cluster">
<title>cluster_ToolModule_imports</title>
<polygon fill="none" stroke="black" points="16,-40.8 16,-92.8 474,-92.8 474,-40.8 16,-40.8"/>
</g>
<g id="clust4" class="cluster">
<title>cluster_ToolModule_exports</title>
<polygon fill="none" stroke="black" points="1099,-170.8 1099,-222.8 1719,-222.8 1719,-170.8 1099,-170.8"/>
</g>
<!-- EncryptionModule -->
<g id="node1" class="node">
<title>EncryptionModule</title>
<polygon fill="#8dd3c7" stroke="black" points="465.76,-84.8 462.76,-88.8 441.76,-88.8 438.76,-84.8 344.24,-84.8 344.24,-48.8 465.76,-48.8 465.76,-84.8"/>
<text text-anchor="middle" x="405" y="-62.6" font-family="Times,serif" font-size="14.00">EncryptionModule</text>
</g>
<!-- ToolModule -->
<g id="node4" class="node">
<title>ToolModule</title>
<polygon fill="#8dd3c7" stroke="black" points="1477.99,-149.8 1474.99,-153.8 1453.99,-153.8 1450.99,-149.8 1392.01,-149.8 1392.01,-113.8 1477.99,-113.8 1477.99,-149.8"/>
<text text-anchor="middle" x="1435" y="-127.6" font-family="Times,serif" font-size="14.00">ToolModule</text>
</g>
<!-- EncryptionModule&#45;&gt;ToolModule -->
<g id="edge1" class="edge">
<title>EncryptionModule&#45;&gt;ToolModule</title>
<path fill="none" stroke="black" d="M405,-85.11C405,-104.95 405,-133.8 405,-133.8 405,-133.8 1381.73,-133.8 1381.73,-133.8"/>
<polygon fill="black" stroke="black" points="1381.73,-137.3 1391.73,-133.8 1381.73,-130.3 1381.73,-137.3"/>
</g>
<!-- LoggerModule -->
<g id="node2" class="node">
<title>LoggerModule</title>
<polygon fill="#8dd3c7" stroke="black" points="325.98,-84.8 322.98,-88.8 301.98,-88.8 298.98,-84.8 226.02,-84.8 226.02,-48.8 325.98,-48.8 325.98,-84.8"/>
<text text-anchor="middle" x="276" y="-62.6" font-family="Times,serif" font-size="14.00">LoggerModule</text>
</g>
<!-- LoggerModule&#45;&gt;ToolModule -->
<g id="edge2" class="edge">
<title>LoggerModule&#45;&gt;ToolModule</title>
<path fill="none" stroke="black" d="M276,-85.08C276,-106.12 276,-137.8 276,-137.8 276,-137.8 1381.68,-137.8 1381.68,-137.8"/>
<polygon fill="black" stroke="black" points="1381.68,-141.3 1391.68,-137.8 1381.68,-134.3 1381.68,-141.3"/>
</g>
<!-- OauthProviderServiceModule -->
<g id="node3" class="node">
<title>OauthProviderServiceModule</title>
<polygon fill="#8dd3c7" stroke="black" points="207.96,-84.8 204.96,-88.8 183.96,-88.8 180.96,-84.8 24.04,-84.8 24.04,-48.8 207.96,-48.8 207.96,-84.8"/>
<text text-anchor="middle" x="116" y="-62.6" font-family="Times,serif" font-size="14.00">OauthProviderServiceModule</text>
</g>
<!-- OauthProviderServiceModule&#45;&gt;ToolModule -->
<g id="edge3" class="edge">
<title>OauthProviderServiceModule&#45;&gt;ToolModule</title>
<path fill="none" stroke="black" d="M116,-84.96C116,-107.15 116,-141.8 116,-141.8 116,-141.8 1381.86,-141.8 1381.86,-141.8"/>
<polygon fill="black" stroke="black" points="1381.86,-145.3 1391.86,-141.8 1381.86,-138.3 1381.86,-145.3"/>
</g>
<!-- ExternalToolService  -->
<g id="node5" class="node">
<title>ExternalToolService </title>
<polygon fill="#fb8072" stroke="black" points="1710.84,-214.8 1575.16,-214.8 1575.16,-178.8 1710.84,-178.8 1710.84,-214.8"/>
<text text-anchor="middle" x="1643" y="-192.6" font-family="Times,serif" font-size="14.00">ExternalToolService </text>
</g>
<!-- ToolModule&#45;&gt;ExternalToolService  -->
<g id="edge4" class="edge">
<title>ToolModule&#45;&gt;ExternalToolService </title>
<path fill="none" stroke="black" stroke-dasharray="5,2" d="M1478.1,-145.8C1539.02,-145.8 1643,-145.8 1643,-145.8 1643,-145.8 1643,-168.68 1643,-168.68"/>
<polygon fill="black" stroke="black" points="1639.5,-168.68 1643,-178.68 1646.5,-168.68 1639.5,-168.68"/>
</g>
<!-- Lti11Service  -->
<g id="node6" class="node">
<title>Lti11Service </title>
<polygon fill="#fb8072" stroke="black" points="1556.81,-214.8 1465.19,-214.8 1465.19,-178.8 1556.81,-178.8 1556.81,-214.8"/>
<text text-anchor="middle" x="1511" y="-192.6" font-family="Times,serif" font-size="14.00">Lti11Service </text>
</g>
<!-- ToolModule&#45;&gt;Lti11Service  -->
<g id="edge5" class="edge">
<title>ToolModule&#45;&gt;Lti11Service </title>
<path fill="none" stroke="black" stroke-dasharray="5,2" d="M1471.55,-149.91C1471.55,-149.91 1471.55,-168.79 1471.55,-168.79"/>
<polygon fill="black" stroke="black" points="1468.05,-168.79 1471.55,-178.79 1475.05,-168.79 1468.05,-168.79"/>
</g>
<!-- SchoolExternalToolService  -->
<g id="node7" class="node">
<title>SchoolExternalToolService </title>
<polygon fill="#fb8072" stroke="black" points="1447.23,-214.8 1272.77,-214.8 1272.77,-178.8 1447.23,-178.8 1447.23,-214.8"/>
<text text-anchor="middle" x="1360" y="-192.6" font-family="Times,serif" font-size="14.00">SchoolExternalToolService </text>
</g>
<!-- ToolModule&#45;&gt;SchoolExternalToolService  -->
<g id="edge6" class="edge">
<title>ToolModule&#45;&gt;SchoolExternalToolService </title>
<path fill="none" stroke="black" stroke-dasharray="5,2" d="M1419.56,-149.91C1419.56,-149.91 1419.56,-168.79 1419.56,-168.79"/>
<polygon fill="black" stroke="black" points="1416.06,-168.79 1419.56,-178.79 1423.06,-168.79 1416.06,-168.79"/>
</g>
<!-- ToolValidationService  -->
<g id="node8" class="node">
<title>ToolValidationService </title>
<polygon fill="#fb8072" stroke="black" points="1254.52,-214.8 1107.48,-214.8 1107.48,-178.8 1254.52,-178.8 1254.52,-214.8"/>
<text text-anchor="middle" x="1181" y="-192.6" font-family="Times,serif" font-size="14.00">ToolValidationService </text>
</g>
<!-- ToolModule&#45;&gt;ToolValidationService  -->
<g id="edge7" class="edge">
<title>ToolModule&#45;&gt;ToolValidationService </title>
<path fill="none" stroke="black" stroke-dasharray="5,2" d="M1391.77,-145.8C1330.33,-145.8 1225.13,-145.8 1225.13,-145.8 1225.13,-145.8 1225.13,-168.68 1225.13,-168.68"/>
<polygon fill="black" stroke="black" points="1221.63,-168.68 1225.13,-178.68 1228.63,-168.68 1221.63,-168.68"/>
</g>
<!-- CourseExternalToolRepo -->
<g id="node9" class="node">
<title>CourseExternalToolRepo</title>
<ellipse fill="#fdb462" stroke="black" cx="3028" cy="-66.8" rx="109.96" ry="18"/>
<text text-anchor="middle" x="3028" y="-62.6" font-family="Times,serif" font-size="14.00">CourseExternalToolRepo</text>
</g>
<!-- CourseExternalToolRepo&#45;&gt;ToolModule -->
<g id="edge8" class="edge">
<title>CourseExternalToolRepo&#45;&gt;ToolModule</title>
<path fill="none" stroke="black" d="M3028,-84.96C3028,-107.15 3028,-141.8 3028,-141.8 3028,-141.8 1488.02,-141.8 1488.02,-141.8"/>
<polygon fill="black" stroke="black" points="1488.02,-138.3 1478.02,-141.8 1488.02,-145.3 1488.02,-138.3"/>
</g>
<!-- ExternalToolRepo -->
<g id="node10" class="node">
<title>ExternalToolRepo</title>
<ellipse fill="#fdb462" stroke="black" cx="2818" cy="-66.8" rx="82.24" ry="18"/>
<text text-anchor="middle" x="2818" y="-62.6" font-family="Times,serif" font-size="14.00">ExternalToolRepo</text>
</g>
<!-- ExternalToolRepo&#45;&gt;ToolModule -->
<g id="edge9" class="edge">
<title>ExternalToolRepo&#45;&gt;ToolModule</title>
<path fill="none" stroke="black" d="M2818,-85.08C2818,-106.12 2818,-137.8 2818,-137.8 2818,-137.8 1488.29,-137.8 1488.29,-137.8"/>
<polygon fill="black" stroke="black" points="1488.29,-134.3 1478.29,-137.8 1488.29,-141.3 1488.29,-134.3"/>
</g>
<!-- ExternalToolRepoMapper -->
<g id="node11" class="node">
<title>ExternalToolRepoMapper</title>
<ellipse fill="#fdb462" stroke="black" cx="2605" cy="-66.8" rx="112.3" ry="18"/>
<text text-anchor="middle" x="2605" y="-62.6" font-family="Times,serif" font-size="14.00">ExternalToolRepoMapper</text>
</g>
<!-- ExternalToolRepoMapper&#45;&gt;ToolModule -->
<g id="edge10" class="edge">
<title>ExternalToolRepoMapper&#45;&gt;ToolModule</title>
<path fill="none" stroke="black" d="M2605,-85.11C2605,-104.95 2605,-133.8 2605,-133.8 2605,-133.8 1488.03,-133.8 1488.03,-133.8"/>
<polygon fill="black" stroke="black" points="1488.03,-130.3 1478.03,-133.8 1488.03,-137.3 1488.03,-130.3"/>
</g>
<!-- ExternalToolService -->
<g id="node12" class="node">
<title>ExternalToolService</title>
<ellipse fill="#fdb462" stroke="black" cx="2384" cy="-66.8" rx="90.88" ry="18"/>
<text text-anchor="middle" x="2384" y="-62.6" font-family="Times,serif" font-size="14.00">ExternalToolService</text>
</g>
<!-- ExternalToolService&#45;&gt;ToolModule -->
<g id="edge11" class="edge">
<title>ExternalToolService&#45;&gt;ToolModule</title>
<path fill="none" stroke="black" d="M2384,-85.02C2384,-103.63 2384,-129.8 2384,-129.8 2384,-129.8 1488.24,-129.8 1488.24,-129.8"/>
<polygon fill="black" stroke="black" points="1488.24,-126.3 1478.24,-129.8 1488.24,-133.3 1488.24,-126.3"/>
</g>
<!-- ExternalToolServiceMapper -->
<g id="node13" class="node">
<title>ExternalToolServiceMapper</title>
<ellipse fill="#fdb462" stroke="black" cx="2154" cy="-66.8" rx="120.95" ry="18"/>
<text text-anchor="middle" x="2154" y="-62.6" font-family="Times,serif" font-size="14.00">ExternalToolServiceMapper</text>
</g>
<!-- ExternalToolServiceMapper&#45;&gt;ToolModule -->
<g id="edge12" class="edge">
<title>ExternalToolServiceMapper&#45;&gt;ToolModule</title>
<path fill="none" stroke="black" d="M2154,-84.82C2154,-102.17 2154,-125.8 2154,-125.8 2154,-125.8 1488.09,-125.8 1488.09,-125.8"/>
<polygon fill="black" stroke="black" points="1488.09,-122.3 1478.09,-125.8 1488.09,-129.3 1488.09,-122.3"/>
</g>
<!-- ExternalToolSortingMapper -->
<g id="node14" class="node">
<title>ExternalToolSortingMapper</title>
<ellipse fill="#fdb462" stroke="black" cx="1895" cy="-66.8" rx="120.41" ry="18"/>
<text text-anchor="middle" x="1895" y="-62.6" font-family="Times,serif" font-size="14.00">ExternalToolSortingMapper</text>
</g>
<!-- ExternalToolSortingMapper&#45;&gt;ToolModule -->
<g id="edge13" class="edge">
<title>ExternalToolSortingMapper&#45;&gt;ToolModule</title>
<path fill="none" stroke="black" d="M1895,-84.81C1895,-100.85 1895,-121.8 1895,-121.8 1895,-121.8 1488.28,-121.8 1488.28,-121.8"/>
<polygon fill="black" stroke="black" points="1488.28,-118.3 1478.28,-121.8 1488.28,-125.3 1488.28,-118.3"/>
</g>
<!-- ExternalToolVersionService -->
<g id="node15" class="node">
<title>ExternalToolVersionService</title>
<ellipse fill="#fdb462" stroke="black" cx="1635" cy="-66.8" rx="121.53" ry="18"/>
<text text-anchor="middle" x="1635" y="-62.6" font-family="Times,serif" font-size="14.00">ExternalToolVersionService</text>
</g>
<!-- ExternalToolVersionService&#45;&gt;ToolModule -->
<g id="edge14" class="edge">
<title>ExternalToolVersionService&#45;&gt;ToolModule</title>
<path fill="none" stroke="black" d="M1535.19,-77.12C1535.19,-92.02 1535.19,-117.8 1535.19,-117.8 1535.19,-117.8 1488.07,-117.8 1488.07,-117.8"/>
<polygon fill="black" stroke="black" points="1488.07,-114.3 1478.07,-117.8 1488.07,-121.3 1488.07,-114.3"/>
</g>
<!-- Lti11Service -->
<g id="node16" class="node">
<title>Lti11Service</title>
<ellipse fill="#fdb462" stroke="black" cx="1435" cy="-66.8" rx="60.83" ry="18"/>
<text text-anchor="middle" x="1435" y="-62.6" font-family="Times,serif" font-size="14.00">Lti11Service</text>
</g>
<!-- Lti11Service&#45;&gt;ToolModule -->
<g id="edge15" class="edge">
<title>Lti11Service&#45;&gt;ToolModule</title>
<path fill="none" stroke="black" d="M1435,-84.91C1435,-84.91 1435,-103.79 1435,-103.79"/>
<polygon fill="black" stroke="black" points="1431.5,-103.79 1435,-113.79 1438.5,-103.79 1431.5,-103.79"/>
</g>
<!-- PseudonymsRepo -->
<g id="node17" class="node">
<title>PseudonymsRepo</title>
<ellipse fill="#fdb462" stroke="black" cx="1276" cy="-66.8" rx="80.5" ry="18"/>
<text text-anchor="middle" x="1276" y="-62.6" font-family="Times,serif" font-size="14.00">PseudonymsRepo</text>
</g>
<!-- PseudonymsRepo&#45;&gt;ToolModule -->
<g id="edge16" class="edge">
<title>PseudonymsRepo&#45;&gt;ToolModule</title>
<path fill="none" stroke="black" d="M1314.57,-82.66C1314.57,-97.63 1314.57,-117.8 1314.57,-117.8 1314.57,-117.8 1381.86,-117.8 1381.86,-117.8"/>
<polygon fill="black" stroke="black" points="1381.86,-121.3 1391.86,-117.8 1381.86,-114.3 1381.86,-121.3"/>
</g>
<!-- SchoolExternalToolRepo -->
<g id="node18" class="node">
<title>SchoolExternalToolRepo</title>
<ellipse fill="#fdb462" stroke="black" cx="1069" cy="-66.8" rx="109.39" ry="18"/>
<text text-anchor="middle" x="1069" y="-62.6" font-family="Times,serif" font-size="14.00">SchoolExternalToolRepo</text>
</g>
<!-- SchoolExternalToolRepo&#45;&gt;ToolModule -->
<g id="edge17" class="edge">
<title>SchoolExternalToolRepo&#45;&gt;ToolModule</title>
<path fill="none" stroke="black" d="M1142.84,-80.11C1142.84,-96.39 1142.84,-121.8 1142.84,-121.8 1142.84,-121.8 1381.89,-121.8 1381.89,-121.8"/>
<polygon fill="black" stroke="black" points="1381.89,-125.3 1391.89,-121.8 1381.89,-118.3 1381.89,-125.3"/>
</g>
<!-- SchoolExternalToolService -->
<g id="node19" class="node">
<title>SchoolExternalToolService</title>
<ellipse fill="#fdb462" stroke="black" cx="824" cy="-66.8" rx="117.54" ry="18"/>
<text text-anchor="middle" x="824" y="-62.6" font-family="Times,serif" font-size="14.00">SchoolExternalToolService</text>
</g>
<!-- SchoolExternalToolService&#45;&gt;ToolModule -->
<g id="edge18" class="edge">
<title>SchoolExternalToolService&#45;&gt;ToolModule</title>
<path fill="none" stroke="black" d="M824,-84.82C824,-102.17 824,-125.8 824,-125.8 824,-125.8 1381.55,-125.8 1381.55,-125.8"/>
<polygon fill="black" stroke="black" points="1381.55,-129.3 1391.55,-125.8 1381.55,-122.3 1381.55,-129.3"/>
</g>
<!-- ToolValidationService -->
<g id="node20" class="node">
<title>ToolValidationService</title>
<ellipse fill="#fdb462" stroke="black" cx="589" cy="-66.8" rx="98.99" ry="18"/>
<text text-anchor="middle" x="589" y="-62.6" font-family="Times,serif" font-size="14.00">ToolValidationService</text>
</g>
<!-- ToolValidationService&#45;&gt;ToolModule -->
<g id="edge19" class="edge">
<title>ToolValidationService&#45;&gt;ToolModule</title>
<path fill="none" stroke="black" d="M589,-85.02C589,-103.63 589,-129.8 589,-129.8 589,-129.8 1381.88,-129.8 1381.88,-129.8"/>
<polygon fill="black" stroke="black" points="1381.88,-133.3 1391.88,-129.8 1381.88,-126.3 1381.88,-133.3"/>
</g>
</g>
</svg>
