<?xml version="1.0" encoding="UTF-8" standalone="no"?>
<!DOCTYPE svg PUBLIC "-//W3C//DTD SVG 1.1//EN"
 "http://www.w3.org/Graphics/SVG/1.1/DTD/svg11.dtd">
<!-- Generated by graphviz version 5.0.0 (20220707.1540)
 -->
<!-- Title: dependencies Pages: 1 -->
<svg width="3425pt" height="247pt"
 viewBox="0.00 0.00 3425.00 246.80" xmlns="http://www.w3.org/2000/svg" xmlns:xlink="http://www.w3.org/1999/xlink">
<g id="graph0" class="graph" transform="scale(1 1) rotate(0) translate(4 242.8)">
<title>dependencies</title>
<polygon fill="white" stroke="transparent" points="-4,4 -4,-242.8 3421,-242.8 3421,4 -4,4"/>
<text text-anchor="middle" x="1708.5" y="-8.2" font-family="sans-serif" font-size="14.00">dependencies</text>
<g id="clust1" class="cluster">
<title>cluster_ToolModule</title>
<polygon fill="none" stroke="black" stroke-dasharray="1,5" points="8,-32.8 8,-230.8 3409,-230.8 3409,-32.8 8,-32.8"/>
</g>
<g id="clust4" class="cluster">
<title>cluster_ToolModule_exports</title>
<polygon fill="none" stroke="black" points="1325,-170.8 1325,-222.8 2323,-222.8 2323,-170.8 1325,-170.8"/>
</g>
<g id="clust3" class="cluster">
<title>cluster_ToolModule_imports</title>
<polygon fill="none" stroke="black" points="2943,-40.8 2943,-92.8 3401,-92.8 3401,-40.8 2943,-40.8"/>
</g>
<g id="clust6" class="cluster">
<title>cluster_ToolModule_providers</title>
<polygon fill="none" stroke="black" points="16,-40.8 16,-92.8 2935,-92.8 2935,-40.8 16,-40.8"/>
</g>
<!-- EncryptionModule -->
<g id="node1" class="node">
<title>EncryptionModule</title>
<polygon fill="#8dd3c7" stroke="black" points="3392.76,-84.8 3389.76,-88.8 3368.76,-88.8 3365.76,-84.8 3271.24,-84.8 3271.24,-48.8 3392.76,-48.8 3392.76,-84.8"/>
<text text-anchor="middle" x="3332" y="-62.6" font-family="Times,serif" font-size="14.00">EncryptionModule</text>
</g>
<!-- ToolModule -->
<g id="node4" class="node">
<title>ToolModule</title>
<polygon fill="#8dd3c7" stroke="black" points="1845.99,-149.8 1842.99,-153.8 1821.99,-153.8 1818.99,-149.8 1760.01,-149.8 1760.01,-113.8 1845.99,-113.8 1845.99,-149.8"/>
<text text-anchor="middle" x="1803" y="-127.6" font-family="Times,serif" font-size="14.00">ToolModule</text>
</g>
<!-- EncryptionModule&#45;&gt;ToolModule -->
<g id="edge1" class="edge">
<title>EncryptionModule&#45;&gt;ToolModule</title>
<path fill="none" stroke="black" d="M3332,-84.84C3332,-106.46 3332,-139.8 3332,-139.8 3332,-139.8 1856.3,-139.8 1856.3,-139.8"/>
<polygon fill="black" stroke="black" points="1856.3,-136.3 1846.3,-139.8 1856.3,-143.3 1856.3,-136.3"/>
</g>
<!-- LoggerModule -->
<g id="node2" class="node">
<title>LoggerModule</title>
<polygon fill="#8dd3c7" stroke="black" points="3252.98,-84.8 3249.98,-88.8 3228.98,-88.8 3225.98,-84.8 3153.02,-84.8 3153.02,-48.8 3252.98,-48.8 3252.98,-84.8"/>
<text text-anchor="middle" x="3203" y="-62.6" font-family="Times,serif" font-size="14.00">LoggerModule</text>
</g>
<!-- LoggerModule&#45;&gt;ToolModule -->
<g id="edge2" class="edge">
<title>LoggerModule&#45;&gt;ToolModule</title>
<path fill="none" stroke="black" d="M3203,-84.93C3203,-105.37 3203,-135.8 3203,-135.8 3203,-135.8 1856.05,-135.8 1856.05,-135.8"/>
<polygon fill="black" stroke="black" points="1856.05,-132.3 1846.05,-135.8 1856.05,-139.3 1856.05,-132.3"/>
</g>
<!-- OauthProviderServiceModule -->
<g id="node3" class="node">
<title>OauthProviderServiceModule</title>
<polygon fill="#8dd3c7" stroke="black" points="3134.96,-84.8 3131.96,-88.8 3110.96,-88.8 3107.96,-84.8 2951.04,-84.8 2951.04,-48.8 3134.96,-48.8 3134.96,-84.8"/>
<text text-anchor="middle" x="3043" y="-62.6" font-family="Times,serif" font-size="14.00">OauthProviderServiceModule</text>
</g>
<!-- OauthProviderServiceModule&#45;&gt;ToolModule -->
<g id="edge3" class="edge">
<title>OauthProviderServiceModule&#45;&gt;ToolModule</title>
<path fill="none" stroke="black" d="M3043,-84.91C3043,-104.14 3043,-131.8 3043,-131.8 3043,-131.8 1856.04,-131.8 1856.04,-131.8"/>
<polygon fill="black" stroke="black" points="1856.04,-128.3 1846.04,-131.8 1856.04,-135.3 1856.04,-128.3"/>
</g>
<!-- CourseExternalToolService  -->
<g id="node5" class="node">
<title>CourseExternalToolService </title>
<polygon fill="#fb8072" stroke="black" points="2314.5,-214.8 2139.5,-214.8 2139.5,-178.8 2314.5,-178.8 2314.5,-214.8"/>
<text text-anchor="middle" x="2227" y="-192.6" font-family="Times,serif" font-size="14.00">CourseExternalToolService </text>
</g>
<!-- ToolModule&#45;&gt;CourseExternalToolService  -->
<g id="edge4" class="edge">
<title>ToolModule&#45;&gt;CourseExternalToolService </title>
<path fill="none" stroke="black" stroke-dasharray="5,2" d="M1846.12,-142.8C1948.07,-142.8 2195.45,-142.8 2195.45,-142.8 2195.45,-142.8 2195.45,-168.52 2195.45,-168.52"/>
<polygon fill="black" stroke="black" points="2191.95,-168.52 2195.45,-178.52 2198.95,-168.52 2191.95,-168.52"/>
</g>
<!-- ExternalToolRepoMapper  -->
<g id="node6" class="node">
<title>ExternalToolRepoMapper </title>
<polygon fill="#fb8072" stroke="black" points="2121.45,-214.8 1954.55,-214.8 1954.55,-178.8 2121.45,-178.8 2121.45,-214.8"/>
<text text-anchor="middle" x="2038" y="-192.6" font-family="Times,serif" font-size="14.00">ExternalToolRepoMapper </text>
</g>
<!-- ToolModule&#45;&gt;ExternalToolRepoMapper  -->
<g id="edge5" class="edge">
<title>ToolModule&#45;&gt;ExternalToolRepoMapper </title>
<path fill="none" stroke="black" stroke-dasharray="5,2" d="M1846.3,-146.8C1899.23,-146.8 1981.86,-146.8 1981.86,-146.8 1981.86,-146.8 1981.86,-168.75 1981.86,-168.75"/>
<polygon fill="black" stroke="black" points="1978.36,-168.75 1981.86,-178.75 1985.36,-168.75 1978.36,-168.75"/>
</g>
<!-- ExternalToolService  -->
<g id="node7" class="node">
<title>ExternalToolService </title>
<polygon fill="#fb8072" stroke="black" points="1936.84,-214.8 1801.16,-214.8 1801.16,-178.8 1936.84,-178.8 1936.84,-214.8"/>
<text text-anchor="middle" x="1869" y="-192.6" font-family="Times,serif" font-size="14.00">ExternalToolService </text>
</g>
<!-- ToolModule&#45;&gt;ExternalToolService  -->
<g id="edge6" class="edge">
<title>ToolModule&#45;&gt;ExternalToolService </title>
<path fill="none" stroke="black" stroke-dasharray="5,2" d="M1823.66,-149.91C1823.66,-149.91 1823.66,-168.79 1823.66,-168.79"/>
<polygon fill="black" stroke="black" points="1820.16,-168.79 1823.66,-178.79 1827.16,-168.79 1820.16,-168.79"/>
</g>
<!-- Lti11Service  -->
<g id="node8" class="node">
<title>Lti11Service </title>
<polygon fill="#fb8072" stroke="black" points="1782.81,-214.8 1691.19,-214.8 1691.19,-178.8 1782.81,-178.8 1782.81,-214.8"/>
<text text-anchor="middle" x="1737" y="-192.6" font-family="Times,serif" font-size="14.00">Lti11Service </text>
</g>
<!-- ToolModule&#45;&gt;Lti11Service  -->
<g id="edge7" class="edge">
<title>ToolModule&#45;&gt;Lti11Service </title>
<path fill="none" stroke="black" stroke-dasharray="5,2" d="M1771.45,-149.91C1771.45,-149.91 1771.45,-168.79 1771.45,-168.79"/>
<polygon fill="black" stroke="black" points="1767.95,-168.79 1771.45,-178.79 1774.95,-168.79 1767.95,-168.79"/>
</g>
<!-- SchoolExternalToolService  -->
<g id="node9" class="node">
<title>SchoolExternalToolService </title>
<polygon fill="#fb8072" stroke="black" points="1673.23,-214.8 1498.77,-214.8 1498.77,-178.8 1673.23,-178.8 1673.23,-214.8"/>
<text text-anchor="middle" x="1586" y="-192.6" font-family="Times,serif" font-size="14.00">SchoolExternalToolService </text>
</g>
<!-- ToolModule&#45;&gt;SchoolExternalToolService  -->
<g id="edge8" class="edge">
<title>ToolModule&#45;&gt;SchoolExternalToolService </title>
<path fill="none" stroke="black" stroke-dasharray="5,2" d="M1759.65,-146.8C1705.55,-146.8 1620.07,-146.8 1620.07,-146.8 1620.07,-146.8 1620.07,-168.75 1620.07,-168.75"/>
<polygon fill="black" stroke="black" points="1616.57,-168.75 1620.07,-178.75 1623.57,-168.75 1616.57,-168.75"/>
</g>
<!-- ToolValidationService  -->
<g id="node10" class="node">
<title>ToolValidationService </title>
<polygon fill="#fb8072" stroke="black" points="1480.52,-214.8 1333.48,-214.8 1333.48,-178.8 1480.52,-178.8 1480.52,-214.8"/>
<text text-anchor="middle" x="1407" y="-192.6" font-family="Times,serif" font-size="14.00">ToolValidationService </text>
</g>
<!-- ToolModule&#45;&gt;ToolValidationService  -->
<g id="edge9" class="edge">
<title>ToolModule&#45;&gt;ToolValidationService </title>
<path fill="none" stroke="black" stroke-dasharray="5,2" d="M1759.87,-142.8C1657.23,-142.8 1407,-142.8 1407,-142.8 1407,-142.8 1407,-168.52 1407,-168.52"/>
<polygon fill="black" stroke="black" points="1403.5,-168.52 1407,-178.52 1410.5,-168.52 1403.5,-168.52"/>
</g>
<!-- CourseExternalToolRepo -->
<g id="node11" class="node">
<title>CourseExternalToolRepo</title>
<ellipse fill="#fdb462" stroke="black" cx="2817" cy="-66.8" rx="109.96" ry="18"/>
<text text-anchor="middle" x="2817" y="-62.6" font-family="Times,serif" font-size="14.00">CourseExternalToolRepo</text>
</g>
<!-- CourseExternalToolRepo&#45;&gt;ToolModule -->
<g id="edge10" class="edge">
<title>CourseExternalToolRepo&#45;&gt;ToolModule</title>
<path fill="none" stroke="black" d="M2817,-85.07C2817,-103.36 2817,-128.8 2817,-128.8 2817,-128.8 1856.25,-128.8 1856.25,-128.8"/>
<polygon fill="black" stroke="black" points="1856.25,-125.3 1846.25,-128.8 1856.25,-132.3 1856.25,-125.3"/>
</g>
<!-- CourseExternalToolService -->
<g id="node12" class="node">
<title>CourseExternalToolService</title>
<ellipse fill="#fdb462" stroke="black" cx="2571" cy="-66.8" rx="118.1" ry="18"/>
<text text-anchor="middle" x="2571" y="-62.6" font-family="Times,serif" font-size="14.00">CourseExternalToolService</text>
</g>
<!-- CourseExternalToolService&#45;&gt;ToolModule -->
<g id="edge11" class="edge">
<title>CourseExternalToolService&#45;&gt;ToolModule</title>
<path fill="none" stroke="black" d="M2571,-84.83C2571,-101.86 2571,-124.8 2571,-124.8 2571,-124.8 1856.21,-124.8 1856.21,-124.8"/>
<polygon fill="black" stroke="black" points="1856.21,-121.3 1846.21,-124.8 1856.21,-128.3 1856.21,-121.3"/>
</g>
<!-- ExternalToolRepo -->
<g id="node13" class="node">
<title>ExternalToolRepo</title>
<ellipse fill="#fdb462" stroke="black" cx="2352" cy="-66.8" rx="82.24" ry="18"/>
<text text-anchor="middle" x="2352" y="-62.6" font-family="Times,serif" font-size="14.00">ExternalToolRepo</text>
</g>
<!-- ExternalToolRepo&#45;&gt;ToolModule -->
<g id="edge12" class="edge">
<title>ExternalToolRepo&#45;&gt;ToolModule</title>
<path fill="none" stroke="black" d="M2292.07,-79.28C2292.07,-95.51 2292.07,-121.8 2292.07,-121.8 2292.07,-121.8 1856.4,-121.8 1856.4,-121.8"/>
<polygon fill="black" stroke="black" points="1856.4,-118.3 1846.4,-121.8 1856.4,-125.3 1856.4,-118.3"/>
</g>
<!-- ExternalToolRepoMapper -->
<g id="node14" class="node">
<title>ExternalToolRepoMapper</title>
<ellipse fill="#fdb462" stroke="black" cx="2139" cy="-66.8" rx="112.3" ry="18"/>
<text text-anchor="middle" x="2139" y="-62.6" font-family="Times,serif" font-size="14.00">ExternalToolRepoMapper</text>
</g>
<!-- ExternalToolRepoMapper&#45;&gt;ToolModule -->
<g id="edge13" class="edge">
<title>ExternalToolRepoMapper&#45;&gt;ToolModule</title>
<path fill="none" stroke="black" d="M2073.91,-81.55C2073.91,-96.61 2073.91,-117.8 2073.91,-117.8 2073.91,-117.8 1856.23,-117.8 1856.23,-117.8"/>
<polygon fill="black" stroke="black" points="1856.23,-114.3 1846.23,-117.8 1856.23,-121.3 1856.23,-114.3"/>
</g>
<!-- ExternalToolService -->
<g id="node15" class="node">
<title>ExternalToolService</title>
<ellipse fill="#fdb462" stroke="black" cx="1918" cy="-66.8" rx="90.88" ry="18"/>
<text text-anchor="middle" x="1918" y="-62.6" font-family="Times,serif" font-size="14.00">ExternalToolService</text>
</g>
<!-- ExternalToolService&#45;&gt;ToolModule -->
<g id="edge14" class="edge">
<title>ExternalToolService&#45;&gt;ToolModule</title>
<path fill="none" stroke="black" d="M1836.53,-75.03C1836.53,-75.03 1836.53,-103.56 1836.53,-103.56"/>
<polygon fill="black" stroke="black" points="1833.03,-103.56 1836.53,-113.56 1840.03,-103.56 1833.03,-103.56"/>
</g>
<!-- ExternalToolServiceMapper -->
<g id="node16" class="node">
<title>ExternalToolServiceMapper</title>
<ellipse fill="#fdb462" stroke="black" cx="1688" cy="-66.8" rx="120.95" ry="18"/>
<text text-anchor="middle" x="1688" y="-62.6" font-family="Times,serif" font-size="14.00">ExternalToolServiceMapper</text>
</g>
<!-- ExternalToolServiceMapper&#45;&gt;ToolModule -->
<g id="edge15" class="edge">
<title>ExternalToolServiceMapper&#45;&gt;ToolModule</title>
<path fill="none" stroke="black" d="M1784.49,-77.83C1784.49,-77.83 1784.49,-103.58 1784.49,-103.58"/>
<polygon fill="black" stroke="black" points="1780.99,-103.58 1784.49,-113.58 1787.99,-103.58 1780.99,-103.58"/>
</g>
<!-- ExternalToolSortingMapper -->
<g id="node17" class="node">
<title>ExternalToolSortingMapper</title>
<ellipse fill="#fdb462" stroke="black" cx="1429" cy="-66.8" rx="120.41" ry="18"/>
<text text-anchor="middle" x="1429" y="-62.6" font-family="Times,serif" font-size="14.00">ExternalToolSortingMapper</text>
</g>
<!-- ExternalToolSortingMapper&#45;&gt;ToolModule -->
<g id="edge16" class="edge">
<title>ExternalToolSortingMapper&#45;&gt;ToolModule</title>
<path fill="none" stroke="black" d="M1524.17,-77.87C1524.17,-92.87 1524.17,-117.8 1524.17,-117.8 1524.17,-117.8 1749.74,-117.8 1749.74,-117.8"/>
<polygon fill="black" stroke="black" points="1749.74,-121.3 1759.74,-117.8 1749.74,-114.3 1749.74,-121.3"/>
</g>
<!-- ExternalToolVersionService -->
<g id="node18" class="node">
<title>ExternalToolVersionService</title>
<ellipse fill="#fdb462" stroke="black" cx="1169" cy="-66.8" rx="121.53" ry="18"/>
<text text-anchor="middle" x="1169" y="-62.6" font-family="Times,serif" font-size="14.00">ExternalToolVersionService</text>
</g>
<!-- ExternalToolVersionService&#45;&gt;ToolModule -->
<g id="edge17" class="edge">
<title>ExternalToolVersionService&#45;&gt;ToolModule</title>
<path fill="none" stroke="black" d="M1169,-84.81C1169,-100.85 1169,-121.8 1169,-121.8 1169,-121.8 1749.92,-121.8 1749.92,-121.8"/>
<polygon fill="black" stroke="black" points="1749.92,-125.3 1759.92,-121.8 1749.92,-118.3 1749.92,-125.3"/>
</g>
<!-- Lti11Service -->
<g id="node19" class="node">
<title>Lti11Service</title>
<ellipse fill="#fdb462" stroke="black" cx="969" cy="-66.8" rx="60.83" ry="18"/>
<text text-anchor="middle" x="969" y="-62.6" font-family="Times,serif" font-size="14.00">Lti11Service</text>
</g>
<!-- Lti11Service&#45;&gt;ToolModule -->
<g id="edge18" class="edge">
<title>Lti11Service&#45;&gt;ToolModule</title>
<path fill="none" stroke="black" d="M969,-84.83C969,-101.86 969,-124.8 969,-124.8 969,-124.8 1749.92,-124.8 1749.92,-124.8"/>
<polygon fill="black" stroke="black" points="1749.92,-128.3 1759.92,-124.8 1749.92,-121.3 1749.92,-128.3"/>
</g>
<!-- PseudonymsRepo -->
<g id="node20" class="node">
<title>PseudonymsRepo</title>
<ellipse fill="#fdb462" stroke="black" cx="810" cy="-66.8" rx="80.5" ry="18"/>
<text text-anchor="middle" x="810" y="-62.6" font-family="Times,serif" font-size="14.00">PseudonymsRepo</text>
</g>
<!-- PseudonymsRepo&#45;&gt;ToolModule -->
<g id="edge19" class="edge">
<title>PseudonymsRepo&#45;&gt;ToolModule</title>
<path fill="none" stroke="black" d="M810,-85.07C810,-103.36 810,-128.8 810,-128.8 810,-128.8 1749.69,-128.8 1749.69,-128.8"/>
<polygon fill="black" stroke="black" points="1749.69,-132.3 1759.69,-128.8 1749.69,-125.3 1749.69,-132.3"/>
</g>
<!-- SchoolExternalToolRepo -->
<g id="node21" class="node">
<title>SchoolExternalToolRepo</title>
<ellipse fill="#fdb462" stroke="black" cx="603" cy="-66.8" rx="109.39" ry="18"/>
<text text-anchor="middle" x="603" y="-62.6" font-family="Times,serif" font-size="14.00">SchoolExternalToolRepo</text>
</g>
<!-- SchoolExternalToolRepo&#45;&gt;ToolModule -->
<g id="edge20" class="edge">
<title>SchoolExternalToolRepo&#45;&gt;ToolModule</title>
<path fill="none" stroke="black" d="M603,-84.91C603,-104.14 603,-131.8 603,-131.8 603,-131.8 1749.94,-131.8 1749.94,-131.8"/>
<polygon fill="black" stroke="black" points="1749.94,-135.3 1759.94,-131.8 1749.94,-128.3 1749.94,-135.3"/>
</g>
<!-- SchoolExternalToolService -->
<g id="node22" class="node">
<title>SchoolExternalToolService</title>
<ellipse fill="#fdb462" stroke="black" cx="358" cy="-66.8" rx="117.54" ry="18"/>
<text text-anchor="middle" x="358" y="-62.6" font-family="Times,serif" font-size="14.00">SchoolExternalToolService</text>
</g>
<!-- SchoolExternalToolService&#45;&gt;ToolModule -->
<g id="edge21" class="edge">
<title>SchoolExternalToolService&#45;&gt;ToolModule</title>
<path fill="none" stroke="black" d="M358,-84.93C358,-105.37 358,-135.8 358,-135.8 358,-135.8 1749.75,-135.8 1749.75,-135.8"/>
<polygon fill="black" stroke="black" points="1749.75,-139.3 1759.75,-135.8 1749.75,-132.3 1749.75,-139.3"/>
</g>
<!-- ToolValidationService -->
<g id="node23" class="node">
<title>ToolValidationService</title>
<ellipse fill="#fdb462" stroke="black" cx="123" cy="-66.8" rx="98.99" ry="18"/>
<text text-anchor="middle" x="123" y="-62.6" font-family="Times,serif" font-size="14.00">ToolValidationService</text>
</g>
<!-- ToolValidationService&#45;&gt;ToolModule -->
<g id="edge22" class="edge">
<title>ToolValidationService&#45;&gt;ToolModule</title>
<path fill="none" stroke="black" d="M123,-84.84C123,-106.46 123,-139.8 123,-139.8 123,-139.8 1749.78,-139.8 1749.78,-139.8"/>
<polygon fill="black" stroke="black" points="1749.78,-143.3 1759.78,-139.8 1749.78,-136.3 1749.78,-143.3"/>
</g>
</g>
</svg>
