<?xml version="1.0" encoding="UTF-8" standalone="no"?>
<!DOCTYPE svg PUBLIC "-//W3C//DTD SVG 1.1//EN"
 "http://www.w3.org/Graphics/SVG/1.1/DTD/svg11.dtd">
<!-- Generated by graphviz version 5.0.0 (20220707.1540)
 -->
<!-- Title: dependencies Pages: 1 -->
<svg width="3425pt" height="247pt"
 viewBox="0.00 0.00 3425.00 246.80" xmlns="http://www.w3.org/2000/svg" xmlns:xlink="http://www.w3.org/1999/xlink">
<g id="graph0" class="graph" transform="scale(1 1) rotate(0) translate(4 242.8)">
<title>dependencies</title>
<polygon fill="white" stroke="transparent" points="-4,4 -4,-242.8 3421,-242.8 3421,4 -4,4"/>
<text text-anchor="middle" x="1708.5" y="-8.2" font-family="sans-serif" font-size="14.00">dependencies</text>
<g id="clust1" class="cluster">
<title>cluster_ToolModule</title>
<polygon fill="none" stroke="black" stroke-dasharray="1,5" points="8,-32.8 8,-230.8 3409,-230.8 3409,-32.8 8,-32.8"/>
</g>
<g id="clust6" class="cluster">
<title>cluster_ToolModule_providers</title>
<polygon fill="none" stroke="black" points="482,-40.8 482,-92.8 3401,-92.8 3401,-40.8 482,-40.8"/>
</g>
<g id="clust3" class="cluster">
<title>cluster_ToolModule_imports</title>
<polygon fill="none" stroke="black" points="16,-40.8 16,-92.8 474,-92.8 474,-40.8 16,-40.8"/>
</g>
<g id="clust4" class="cluster">
<title>cluster_ToolModule_exports</title>
<polygon fill="none" stroke="black" points="1057,-170.8 1057,-222.8 2055,-222.8 2055,-170.8 1057,-170.8"/>
</g>
<!-- EncryptionModule -->
<g id="node1" class="node">
<title>EncryptionModule</title>
<polygon fill="#8dd3c7" stroke="black" points="465.76,-84.8 462.76,-88.8 441.76,-88.8 438.76,-84.8 344.24,-84.8 344.24,-48.8 465.76,-48.8 465.76,-84.8"/>
<text text-anchor="middle" x="405" y="-62.6" font-family="Times,serif" font-size="14.00">EncryptionModule</text>
</g>
<!-- ToolModule -->
<g id="node4" class="node">
<title>ToolModule</title>
<polygon fill="#8dd3c7" stroke="black" points="1577.99,-149.8 1574.99,-153.8 1553.99,-153.8 1550.99,-149.8 1492.01,-149.8 1492.01,-113.8 1577.99,-113.8 1577.99,-149.8"/>
<text text-anchor="middle" x="1535" y="-127.6" font-family="Times,serif" font-size="14.00">ToolModule</text>
</g>
<!-- EncryptionModule&#45;&gt;ToolModule -->
<g id="edge1" class="edge">
<title>EncryptionModule&#45;&gt;ToolModule</title>
<path fill="none" stroke="black" d="M405,-84.91C405,-104.14 405,-131.8 405,-131.8 405,-131.8 1481.74,-131.8 1481.74,-131.8"/>
<polygon fill="black" stroke="black" points="1481.74,-135.3 1491.74,-131.8 1481.74,-128.3 1481.74,-135.3"/>
</g>
<!-- LoggerModule -->
<g id="node2" class="node">
<title>LoggerModule</title>
<polygon fill="#8dd3c7" stroke="black" points="325.98,-84.8 322.98,-88.8 301.98,-88.8 298.98,-84.8 226.02,-84.8 226.02,-48.8 325.98,-48.8 325.98,-84.8"/>
<text text-anchor="middle" x="276" y="-62.6" font-family="Times,serif" font-size="14.00">LoggerModule</text>
</g>
<!-- LoggerModule&#45;&gt;ToolModule -->
<g id="edge2" class="edge">
<title>LoggerModule&#45;&gt;ToolModule</title>
<path fill="none" stroke="black" d="M276,-84.93C276,-105.37 276,-135.8 276,-135.8 276,-135.8 1481.66,-135.8 1481.66,-135.8"/>
<polygon fill="black" stroke="black" points="1481.66,-139.3 1491.66,-135.8 1481.66,-132.3 1481.66,-139.3"/>
</g>
<!-- OauthProviderServiceModule -->
<g id="node3" class="node">
<title>OauthProviderServiceModule</title>
<polygon fill="#8dd3c7" stroke="black" points="207.96,-84.8 204.96,-88.8 183.96,-88.8 180.96,-84.8 24.04,-84.8 24.04,-48.8 207.96,-48.8 207.96,-84.8"/>
<text text-anchor="middle" x="116" y="-62.6" font-family="Times,serif" font-size="14.00">OauthProviderServiceModule</text>
</g>
<!-- OauthProviderServiceModule&#45;&gt;ToolModule -->
<g id="edge3" class="edge">
<title>OauthProviderServiceModule&#45;&gt;ToolModule</title>
<path fill="none" stroke="black" d="M116,-84.84C116,-106.46 116,-139.8 116,-139.8 116,-139.8 1481.76,-139.8 1481.76,-139.8"/>
<polygon fill="black" stroke="black" points="1481.76,-143.3 1491.76,-139.8 1481.76,-136.3 1481.76,-143.3"/>
</g>
<!-- CourseExternalToolService  -->
<g id="node5" class="node">
<title>CourseExternalToolService </title>
<polygon fill="#fb8072" stroke="black" points="2046.5,-214.8 1871.5,-214.8 1871.5,-178.8 2046.5,-178.8 2046.5,-214.8"/>
<text text-anchor="middle" x="1959" y="-192.6" font-family="Times,serif" font-size="14.00">CourseExternalToolService </text>
</g>
<!-- ToolModule&#45;&gt;CourseExternalToolService  -->
<g id="edge4" class="edge">
<title>ToolModule&#45;&gt;CourseExternalToolService </title>
<path fill="none" stroke="black" stroke-dasharray="5,2" d="M1578.33,-142.8C1683.45,-142.8 1943.48,-142.8 1943.48,-142.8 1943.48,-142.8 1943.48,-168.52 1943.48,-168.52"/>
<polygon fill="black" stroke="black" points="1939.98,-168.52 1943.48,-178.52 1946.98,-168.52 1939.98,-168.52"/>
</g>
<!-- ExternalToolRepoMapper  -->
<g id="node6" class="node">
<title>ExternalToolRepoMapper </title>
<polygon fill="#fb8072" stroke="black" points="1853.45,-214.8 1686.55,-214.8 1686.55,-178.8 1853.45,-178.8 1853.45,-214.8"/>
<text text-anchor="middle" x="1770" y="-192.6" font-family="Times,serif" font-size="14.00">ExternalToolRepoMapper </text>
</g>
<!-- ToolModule&#45;&gt;ExternalToolRepoMapper  -->
<g id="edge5" class="edge">
<title>ToolModule&#45;&gt;ExternalToolRepoMapper </title>
<path fill="none" stroke="black" stroke-dasharray="5,2" d="M1578.29,-146.8C1633.43,-146.8 1721.65,-146.8 1721.65,-146.8 1721.65,-146.8 1721.65,-168.75 1721.65,-168.75"/>
<polygon fill="black" stroke="black" points="1718.15,-168.75 1721.65,-178.75 1725.15,-168.75 1718.15,-168.75"/>
</g>
<!-- ExternalToolService  -->
<g id="node7" class="node">
<title>ExternalToolService </title>
<polygon fill="#fb8072" stroke="black" points="1668.84,-214.8 1533.16,-214.8 1533.16,-178.8 1668.84,-178.8 1668.84,-214.8"/>
<text text-anchor="middle" x="1601" y="-192.6" font-family="Times,serif" font-size="14.00">ExternalToolService </text>
</g>
<!-- ToolModule&#45;&gt;ExternalToolService  -->
<g id="edge6" class="edge">
<title>ToolModule&#45;&gt;ExternalToolService </title>
<path fill="none" stroke="black" stroke-dasharray="5,2" d="M1555.66,-149.91C1555.66,-149.91 1555.66,-168.79 1555.66,-168.79"/>
<polygon fill="black" stroke="black" points="1552.16,-168.79 1555.66,-178.79 1559.16,-168.79 1552.16,-168.79"/>
</g>
<!-- Lti11Service  -->
<g id="node8" class="node">
<title>Lti11Service </title>
<polygon fill="#fb8072" stroke="black" points="1514.81,-214.8 1423.19,-214.8 1423.19,-178.8 1514.81,-178.8 1514.81,-214.8"/>
<text text-anchor="middle" x="1469" y="-192.6" font-family="Times,serif" font-size="14.00">Lti11Service </text>
</g>
<!-- ToolModule&#45;&gt;Lti11Service  -->
<g id="edge7" class="edge">
<title>ToolModule&#45;&gt;Lti11Service </title>
<path fill="none" stroke="black" stroke-dasharray="5,2" d="M1503.45,-149.91C1503.45,-149.91 1503.45,-168.79 1503.45,-168.79"/>
<polygon fill="black" stroke="black" points="1499.95,-168.79 1503.45,-178.79 1506.95,-168.79 1499.95,-168.79"/>
</g>
<!-- SchoolExternalToolService  -->
<g id="node9" class="node">
<title>SchoolExternalToolService </title>
<polygon fill="#fb8072" stroke="black" points="1405.23,-214.8 1230.77,-214.8 1230.77,-178.8 1405.23,-178.8 1405.23,-214.8"/>
<text text-anchor="middle" x="1318" y="-192.6" font-family="Times,serif" font-size="14.00">SchoolExternalToolService </text>
</g>
<!-- ToolModule&#45;&gt;SchoolExternalToolService  -->
<g id="edge8" class="edge">
<title>ToolModule&#45;&gt;SchoolExternalToolService </title>
<path fill="none" stroke="black" stroke-dasharray="5,2" d="M1491.77,-146.8C1448.91,-146.8 1389.6,-146.8 1389.6,-146.8 1389.6,-146.8 1389.6,-168.75 1389.6,-168.75"/>
<polygon fill="black" stroke="black" points="1386.1,-168.75 1389.6,-178.75 1393.1,-168.75 1386.1,-168.75"/>
</g>
<!-- ToolValidationService  -->
<g id="node10" class="node">
<title>ToolValidationService </title>
<polygon fill="#fb8072" stroke="black" points="1212.52,-214.8 1065.48,-214.8 1065.48,-178.8 1212.52,-178.8 1212.52,-214.8"/>
<text text-anchor="middle" x="1139" y="-192.6" font-family="Times,serif" font-size="14.00">ToolValidationService </text>
</g>
<!-- ToolModule&#45;&gt;ToolValidationService  -->
<g id="edge9" class="edge">
<title>ToolModule&#45;&gt;ToolValidationService </title>
<path fill="none" stroke="black" stroke-dasharray="5,2" d="M1491.74,-142.8C1402.06,-142.8 1204.13,-142.8 1204.13,-142.8 1204.13,-142.8 1204.13,-168.52 1204.13,-168.52"/>
<polygon fill="black" stroke="black" points="1200.63,-168.52 1204.13,-178.52 1207.63,-168.52 1200.63,-168.52"/>
</g>
<!-- CourseExternalToolRepo -->
<g id="node11" class="node">
<title>CourseExternalToolRepo</title>
<ellipse fill="#fdb462" stroke="black" cx="3283" cy="-66.8" rx="109.96" ry="18"/>
<text text-anchor="middle" x="3283" y="-62.6" font-family="Times,serif" font-size="14.00">CourseExternalToolRepo</text>
</g>
<!-- CourseExternalToolRepo&#45;&gt;ToolModule -->
<g id="edge10" class="edge">
<title>CourseExternalToolRepo&#45;&gt;ToolModule</title>
<path fill="none" stroke="black" d="M3283,-84.84C3283,-106.46 3283,-139.8 3283,-139.8 3283,-139.8 1588.21,-139.8 1588.21,-139.8"/>
<polygon fill="black" stroke="black" points="1588.21,-136.3 1578.21,-139.8 1588.21,-143.3 1588.21,-136.3"/>
</g>
<!-- CourseExternalToolService -->
<g id="node12" class="node">
<title>CourseExternalToolService</title>
<ellipse fill="#fdb462" stroke="black" cx="3037" cy="-66.8" rx="118.1" ry="18"/>
<text text-anchor="middle" x="3037" y="-62.6" font-family="Times,serif" font-size="14.00">CourseExternalToolService</text>
</g>
<!-- CourseExternalToolService&#45;&gt;ToolModule -->
<g id="edge11" class="edge">
<title>CourseExternalToolService&#45;&gt;ToolModule</title>
<path fill="none" stroke="black" d="M3037,-84.93C3037,-105.37 3037,-135.8 3037,-135.8 3037,-135.8 1588.33,-135.8 1588.33,-135.8"/>
<polygon fill="black" stroke="black" points="1588.33,-132.3 1578.33,-135.8 1588.33,-139.3 1588.33,-132.3"/>
</g>
<!-- ExternalToolRepo -->
<g id="node13" class="node">
<title>ExternalToolRepo</title>
<ellipse fill="#fdb462" stroke="black" cx="2818" cy="-66.8" rx="82.24" ry="18"/>
<text text-anchor="middle" x="2818" y="-62.6" font-family="Times,serif" font-size="14.00">ExternalToolRepo</text>
</g>
<!-- ExternalToolRepo&#45;&gt;ToolModule -->
<g id="edge12" class="edge">
<title>ExternalToolRepo&#45;&gt;ToolModule</title>
<path fill="none" stroke="black" d="M2818,-84.91C2818,-104.14 2818,-131.8 2818,-131.8 2818,-131.8 1588.05,-131.8 1588.05,-131.8"/>
<polygon fill="black" stroke="black" points="1588.05,-128.3 1578.05,-131.8 1588.05,-135.3 1588.05,-128.3"/>
</g>
<!-- ExternalToolRepoMapper -->
<g id="node14" class="node">
<title>ExternalToolRepoMapper</title>
<ellipse fill="#fdb462" stroke="black" cx="2605" cy="-66.8" rx="112.3" ry="18"/>
<text text-anchor="middle" x="2605" y="-62.6" font-family="Times,serif" font-size="14.00">ExternalToolRepoMapper</text>
</g>
<!-- ExternalToolRepoMapper&#45;&gt;ToolModule -->
<g id="edge13" class="edge">
<title>ExternalToolRepoMapper&#45;&gt;ToolModule</title>
<path fill="none" stroke="black" d="M2605,-85.07C2605,-103.36 2605,-128.8 2605,-128.8 2605,-128.8 1588.27,-128.8 1588.27,-128.8"/>
<polygon fill="black" stroke="black" points="1588.27,-125.3 1578.27,-128.8 1588.27,-132.3 1588.27,-125.3"/>
</g>
<!-- ExternalToolService -->
<g id="node15" class="node">
<title>ExternalToolService</title>
<ellipse fill="#fdb462" stroke="black" cx="2384" cy="-66.8" rx="90.88" ry="18"/>
<text text-anchor="middle" x="2384" y="-62.6" font-family="Times,serif" font-size="14.00">ExternalToolService</text>
</g>
<!-- ExternalToolService&#45;&gt;ToolModule -->
<g id="edge14" class="edge">
<title>ExternalToolService&#45;&gt;ToolModule</title>
<path fill="none" stroke="black" d="M2384,-84.83C2384,-101.86 2384,-124.8 2384,-124.8 2384,-124.8 1588.27,-124.8 1588.27,-124.8"/>
<polygon fill="black" stroke="black" points="1588.27,-121.3 1578.27,-124.8 1588.27,-128.3 1588.27,-121.3"/>
</g>
<!-- ExternalToolServiceMapper -->
<g id="node16" class="node">
<title>ExternalToolServiceMapper</title>
<ellipse fill="#fdb462" stroke="black" cx="2154" cy="-66.8" rx="120.95" ry="18"/>
<text text-anchor="middle" x="2154" y="-62.6" font-family="Times,serif" font-size="14.00">ExternalToolServiceMapper</text>
</g>
<!-- ExternalToolServiceMapper&#45;&gt;ToolModule -->
<g id="edge15" class="edge">
<title>ExternalToolServiceMapper&#45;&gt;ToolModule</title>
<path fill="none" stroke="black" d="M2039.76,-73.11C2039.76,-87.56 2039.76,-121.8 2039.76,-121.8 2039.76,-121.8 1588.04,-121.8 1588.04,-121.8"/>
<polygon fill="black" stroke="black" points="1588.04,-118.3 1578.04,-121.8 1588.04,-125.3 1588.04,-118.3"/>
</g>
<!-- ExternalToolSortingMapper -->
<g id="node17" class="node">
<title>ExternalToolSortingMapper</title>
<ellipse fill="#fdb462" stroke="black" cx="1895" cy="-66.8" rx="120.41" ry="18"/>
<text text-anchor="middle" x="1895" y="-62.6" font-family="Times,serif" font-size="14.00">ExternalToolSortingMapper</text>
</g>
<!-- ExternalToolSortingMapper&#45;&gt;ToolModule -->
<g id="edge16" class="edge">
<title>ExternalToolSortingMapper&#45;&gt;ToolModule</title>
<path fill="none" stroke="black" d="M1813.89,-80.2C1813.89,-95.31 1813.89,-117.8 1813.89,-117.8 1813.89,-117.8 1588.27,-117.8 1588.27,-117.8"/>
<polygon fill="black" stroke="black" points="1588.27,-114.3 1578.27,-117.8 1588.27,-121.3 1588.27,-114.3"/>
</g>
<!-- ExternalToolVersionService -->
<g id="node18" class="node">
<title>ExternalToolVersionService</title>
<ellipse fill="#fdb462" stroke="black" cx="1635" cy="-66.8" rx="121.53" ry="18"/>
<text text-anchor="middle" x="1635" y="-62.6" font-family="Times,serif" font-size="14.00">ExternalToolVersionService</text>
</g>
<!-- ExternalToolVersionService&#45;&gt;ToolModule -->
<g id="edge17" class="edge">
<title>ExternalToolVersionService&#45;&gt;ToolModule</title>
<path fill="none" stroke="black" d="M1545.74,-79.03C1545.74,-79.03 1545.74,-103.48 1545.74,-103.48"/>
<polygon fill="black" stroke="black" points="1542.24,-103.48 1545.74,-113.48 1549.24,-103.48 1542.24,-103.48"/>
</g>
<!-- Lti11Service -->
<g id="node19" class="node">
<title>Lti11Service</title>
<ellipse fill="#fdb462" stroke="black" cx="1435" cy="-66.8" rx="60.83" ry="18"/>
<text text-anchor="middle" x="1435" y="-62.6" font-family="Times,serif" font-size="14.00">Lti11Service</text>
</g>
<!-- Lti11Service&#45;&gt;ToolModule -->
<g id="edge18" class="edge">
<title>Lti11Service&#45;&gt;ToolModule</title>
<path fill="none" stroke="black" d="M1496.15,-66.8C1501.36,-66.8 1504.7,-66.8 1504.7,-66.8 1504.7,-66.8 1504.7,-103.69 1504.7,-103.69"/>
<polygon fill="black" stroke="black" points="1501.2,-103.69 1504.7,-113.69 1508.2,-103.69 1501.2,-103.69"/>
</g>
<!-- PseudonymsRepo -->
<g id="node20" class="node">
<title>PseudonymsRepo</title>
<ellipse fill="#fdb462" stroke="black" cx="1276" cy="-66.8" rx="80.5" ry="18"/>
<text text-anchor="middle" x="1276" y="-62.6" font-family="Times,serif" font-size="14.00">PseudonymsRepo</text>
</g>
<!-- PseudonymsRepo&#45;&gt;ToolModule -->
<g id="edge19" class="edge">
<title>PseudonymsRepo&#45;&gt;ToolModule</title>
<path fill="none" stroke="black" d="M1293.57,-84.64C1293.57,-99.34 1293.57,-117.8 1293.57,-117.8 1293.57,-117.8 1481.84,-117.8 1481.84,-117.8"/>
<polygon fill="black" stroke="black" points="1481.84,-121.3 1491.84,-117.8 1481.84,-114.3 1481.84,-121.3"/>
</g>
<!-- SchoolExternalToolRepo -->
<g id="node21" class="node">
<title>SchoolExternalToolRepo</title>
<ellipse fill="#fdb462" stroke="black" cx="1069" cy="-66.8" rx="109.39" ry="18"/>
<text text-anchor="middle" x="1069" y="-62.6" font-family="Times,serif" font-size="14.00">SchoolExternalToolRepo</text>
</g>
<!-- SchoolExternalToolRepo&#45;&gt;ToolModule -->
<g id="edge20" class="edge">
<title>SchoolExternalToolRepo&#45;&gt;ToolModule</title>
<path fill="none" stroke="black" d="M1121.84,-82.71C1121.84,-98.95 1121.84,-121.8 1121.84,-121.8 1121.84,-121.8 1481.95,-121.8 1481.95,-121.8"/>
<polygon fill="black" stroke="black" points="1481.95,-125.3 1491.95,-121.8 1481.95,-118.3 1481.95,-125.3"/>
</g>
<!-- SchoolExternalToolService -->
<g id="node22" class="node">
<title>SchoolExternalToolService</title>
<ellipse fill="#fdb462" stroke="black" cx="824" cy="-66.8" rx="117.54" ry="18"/>
<text text-anchor="middle" x="824" y="-62.6" font-family="Times,serif" font-size="14.00">SchoolExternalToolService</text>
</g>
<!-- SchoolExternalToolService&#45;&gt;ToolModule -->
<g id="edge21" class="edge">
<title>SchoolExternalToolService&#45;&gt;ToolModule</title>
<path fill="none" stroke="black" d="M824,-84.83C824,-101.86 824,-124.8 824,-124.8 824,-124.8 1481.86,-124.8 1481.86,-124.8"/>
<polygon fill="black" stroke="black" points="1481.86,-128.3 1491.86,-124.8 1481.86,-121.3 1481.86,-128.3"/>
</g>
<!-- ToolValidationService -->
<g id="node23" class="node">
<title>ToolValidationService</title>
<ellipse fill="#fdb462" stroke="black" cx="589" cy="-66.8" rx="98.99" ry="18"/>
<text text-anchor="middle" x="589" y="-62.6" font-family="Times,serif" font-size="14.00">ToolValidationService</text>
</g>
<!-- ToolValidationService&#45;&gt;ToolModule -->
<g id="edge22" class="edge">
<title>ToolValidationService&#45;&gt;ToolModule</title>
<path fill="none" stroke="black" d="M589,-85.07C589,-103.36 589,-128.8 589,-128.8 589,-128.8 1481.89,-128.8 1481.89,-128.8"/>
<polygon fill="black" stroke="black" points="1481.89,-132.3 1491.89,-128.8 1481.89,-125.3 1481.89,-132.3"/>
</g>
</g>
</svg>
