<?xml version="1.0" encoding="UTF-8" standalone="no"?>
<!DOCTYPE svg PUBLIC "-//W3C//DTD SVG 1.1//EN"
 "http://www.w3.org/Graphics/SVG/1.1/DTD/svg11.dtd">
<!-- Generated by graphviz version 5.0.0 (20220707.1540)
 -->
<!-- Title: dependencies Pages: 1 -->
<svg width="1245pt" height="247pt"
 viewBox="0.00 0.00 1245.00 246.80" xmlns="http://www.w3.org/2000/svg" xmlns:xlink="http://www.w3.org/1999/xlink">
<g id="graph0" class="graph" transform="scale(1 1) rotate(0) translate(4 242.8)">
<title>dependencies</title>
<polygon fill="white" stroke="transparent" points="-4,4 -4,-242.8 1241,-242.8 1241,4 -4,4"/>
<text text-anchor="middle" x="618.5" y="-8.2" font-family="sans-serif" font-size="14.00">dependencies</text>
<g id="clust1" class="cluster">
<title>cluster_ToolModule</title>
<polygon fill="none" stroke="black" stroke-dasharray="1,5" points="8,-32.8 8,-230.8 1229,-230.8 1229,-32.8 8,-32.8"/>
</g>
<g id="clust3" class="cluster">
<title>cluster_ToolModule_imports</title>
<polygon fill="none" stroke="black" points="1105,-40.8 1105,-92.8 1221,-92.8 1221,-40.8 1105,-40.8"/>
</g>
<g id="clust6" class="cluster">
<title>cluster_ToolModule_providers</title>
<polygon fill="none" stroke="black" points="16,-40.8 16,-92.8 1097,-92.8 1097,-40.8 16,-40.8"/>
</g>
<g id="clust4" class="cluster">
<title>cluster_ToolModule_exports</title>
<polygon fill="none" stroke="black" points="453,-170.8 453,-222.8 715,-222.8 715,-170.8 453,-170.8"/>
</g>
<!-- LoggerModule -->
<g id="node1" class="node">
<title>LoggerModule</title>
<polygon fill="#8dd3c7" stroke="black" points="1212.98,-84.8 1209.98,-88.8 1188.98,-88.8 1185.98,-84.8 1113.02,-84.8 1113.02,-48.8 1212.98,-48.8 1212.98,-84.8"/>
<text text-anchor="middle" x="1163" y="-62.6" font-family="Times,serif" font-size="14.00">LoggerModule</text>
</g>
<!-- ToolModule -->
<g id="node2" class="node">
<title>ToolModule</title>
<polygon fill="#8dd3c7" stroke="black" points="615.99,-149.8 612.99,-153.8 591.99,-153.8 588.99,-149.8 530.01,-149.8 530.01,-113.8 615.99,-113.8 615.99,-149.8"/>
<text text-anchor="middle" x="573" y="-127.6" font-family="Times,serif" font-size="14.00">ToolModule</text>
</g>
<!-- LoggerModule&#45;&gt;ToolModule -->
<g id="edge1" class="edge">
<title>LoggerModule&#45;&gt;ToolModule</title>
<path fill="none" stroke="black" d="M1163,-85.09C1163,-107.01 1163,-140.8 1163,-140.8 1163,-140.8 626.38,-140.8 626.38,-140.8"/>
<polygon fill="black" stroke="black" points="626.38,-137.3 616.38,-140.8 626.38,-144.3 626.38,-137.3"/>
</g>
<!-- ExternalToolService  -->
<g id="node3" class="node">
<title>ExternalToolService </title>
<polygon fill="#fb8072" stroke="black" points="706.84,-214.8 571.16,-214.8 571.16,-178.8 706.84,-178.8 706.84,-214.8"/>
<text text-anchor="middle" x="639" y="-192.6" font-family="Times,serif" font-size="14.00">ExternalToolService </text>
</g>
<!-- ToolModule&#45;&gt;ExternalToolService  -->
<g id="edge2" class="edge">
<title>ToolModule&#45;&gt;ExternalToolService </title>
<path fill="none" stroke="black" stroke-dasharray="5,2" d="M593.66,-149.91C593.66,-149.91 593.66,-168.79 593.66,-168.79"/>
<polygon fill="black" stroke="black" points="590.16,-168.79 593.66,-178.79 597.16,-168.79 590.16,-168.79"/>
</g>
<!-- Lti11Service  -->
<g id="node4" class="node">
<title>Lti11Service </title>
<polygon fill="#fb8072" stroke="black" points="552.81,-214.8 461.19,-214.8 461.19,-178.8 552.81,-178.8 552.81,-214.8"/>
<text text-anchor="middle" x="507" y="-192.6" font-family="Times,serif" font-size="14.00">Lti11Service </text>
</g>
<!-- ToolModule&#45;&gt;Lti11Service  -->
<g id="edge3" class="edge">
<title>ToolModule&#45;&gt;Lti11Service </title>
<path fill="none" stroke="black" stroke-dasharray="5,2" d="M541.45,-149.91C541.45,-149.91 541.45,-168.79 541.45,-168.79"/>
<polygon fill="black" stroke="black" points="537.95,-168.79 541.45,-178.79 544.95,-168.79 537.95,-168.79"/>
</g>
<!-- ExternalToolRepo -->
<g id="node5" class="node">
<title>ExternalToolRepo</title>
<ellipse fill="#fdb462" stroke="black" cx="1007" cy="-66.8" rx="82.24" ry="18"/>
<text text-anchor="middle" x="1007" y="-62.6" font-family="Times,serif" font-size="14.00">ExternalToolRepo</text>
</g>
<!-- ExternalToolRepo&#45;&gt;ToolModule -->
<g id="edge4" class="edge">
<title>ExternalToolRepo&#45;&gt;ToolModule</title>
<path fill="none" stroke="black" d="M1007,-84.91C1007,-104.14 1007,-131.8 1007,-131.8 1007,-131.8 626.2,-131.8 626.2,-131.8"/>
<polygon fill="black" stroke="black" points="626.2,-128.3 616.2,-131.8 626.2,-135.3 626.2,-128.3"/>
</g>
<!-- ExternalToolRepoMapper -->
<g id="node6" class="node">
<title>ExternalToolRepoMapper</title>
<ellipse fill="#fdb462" stroke="black" cx="794" cy="-66.8" rx="112.3" ry="18"/>
<text text-anchor="middle" x="794" y="-62.6" font-family="Times,serif" font-size="14.00">ExternalToolRepoMapper</text>
</g>
<!-- ExternalToolRepoMapper&#45;&gt;ToolModule -->
<g id="edge5" class="edge">
<title>ExternalToolRepoMapper&#45;&gt;ToolModule</title>
<path fill="none" stroke="black" d="M694.13,-75.06C694.13,-90.64 694.13,-122.8 694.13,-122.8 694.13,-122.8 626.05,-122.8 626.05,-122.8"/>
<polygon fill="black" stroke="black" points="626.05,-119.3 616.05,-122.8 626.05,-126.3 626.05,-119.3"/>
</g>
<!-- ExternalToolService -->
<g id="node7" class="node">
<title>ExternalToolService</title>
<ellipse fill="#fdb462" stroke="black" cx="573" cy="-66.8" rx="90.88" ry="18"/>
<text text-anchor="middle" x="573" y="-62.6" font-family="Times,serif" font-size="14.00">ExternalToolService</text>
</g>
<!-- ExternalToolService&#45;&gt;ToolModule -->
<g id="edge6" class="edge">
<title>ExternalToolService&#45;&gt;ToolModule</title>
<path fill="none" stroke="black" d="M573,-84.91C573,-84.91 573,-103.79 573,-103.79"/>
<polygon fill="black" stroke="black" points="569.5,-103.79 573,-113.79 576.5,-103.79 569.5,-103.79"/>
</g>
<!-- Lti11Service -->
<g id="node8" class="node">
<title>Lti11Service</title>
<ellipse fill="#fdb462" stroke="black" cx="403" cy="-66.8" rx="60.83" ry="18"/>
<text text-anchor="middle" x="403" y="-62.6" font-family="Times,serif" font-size="14.00">Lti11Service</text>
</g>
<!-- Lti11Service&#45;&gt;ToolModule -->
<g id="edge7" class="edge">
<title>Lti11Service&#45;&gt;ToolModule</title>
<path fill="none" stroke="black" d="M401.59,-84.83C401.59,-101.2 401.59,-122.8 401.59,-122.8 401.59,-122.8 519.75,-122.8 519.75,-122.8"/>
<polygon fill="black" stroke="black" points="519.75,-126.3 529.75,-122.8 519.75,-119.3 519.75,-126.3"/>
</g>
<!-- LtiToolRepo -->
<g id="node9" class="node">
<title>LtiToolRepo</title>
<ellipse fill="#fdb462" stroke="black" cx="263" cy="-66.8" rx="60.85" ry="18"/>
<text text-anchor="middle" x="263" y="-62.6" font-family="Times,serif" font-size="14.00">LtiToolRepo</text>
</g>
<!-- LtiToolRepo&#45;&gt;ToolModule -->
<g id="edge8" class="edge">
<title>LtiToolRepo&#45;&gt;ToolModule</title>
<path fill="none" stroke="black" d="M263,-84.91C263,-104.14 263,-131.8 263,-131.8 263,-131.8 519.9,-131.8 519.9,-131.8"/>
<polygon fill="black" stroke="black" points="519.9,-135.3 529.9,-131.8 519.9,-128.3 519.9,-135.3"/>
</g>
<!-- PseudonymsRepo -->
<g id="node10" class="node">
<title>PseudonymsRepo</title>
<ellipse fill="#fdb462" stroke="black" cx="104" cy="-66.8" rx="80.5" ry="18"/>
<text text-anchor="middle" x="104" y="-62.6" font-family="Times,serif" font-size="14.00">PseudonymsRepo</text>
</g>
<!-- PseudonymsRepo&#45;&gt;ToolModule -->
<g id="edge9" class="edge">
<title>PseudonymsRepo&#45;&gt;ToolModule</title>
<path fill="none" stroke="black" d="M104,-85.09C104,-107.01 104,-140.8 104,-140.8 104,-140.8 519.72,-140.8 519.72,-140.8"/>
<polygon fill="black" stroke="black" points="519.72,-144.3 529.72,-140.8 519.72,-137.3 519.72,-144.3"/>
</g>
</g>
</svg>
