<?xml version="1.0" encoding="UTF-8" standalone="no"?>
<!DOCTYPE svg PUBLIC "-//W3C//DTD SVG 1.1//EN"
 "http://www.w3.org/Graphics/SVG/1.1/DTD/svg11.dtd">
<!-- Generated by graphviz version 5.0.0 (20220707.1540)
 -->
<!-- Title: dependencies Pages: 1 -->
<svg width="2439pt" height="247pt"
 viewBox="0.00 0.00 2439.00 246.80" xmlns="http://www.w3.org/2000/svg" xmlns:xlink="http://www.w3.org/1999/xlink">
<g id="graph0" class="graph" transform="scale(1 1) rotate(0) translate(4 242.8)">
<title>dependencies</title>
<polygon fill="white" stroke="transparent" points="-4,4 -4,-242.8 2435,-242.8 2435,4 -4,4"/>
<text text-anchor="middle" x="1215.5" y="-8.2" font-family="sans-serif" font-size="14.00">dependencies</text>
<g id="clust1" class="cluster">
<title>cluster_ToolModule</title>
<polygon fill="none" stroke="black" stroke-dasharray="1,5" points="8,-32.8 8,-230.8 2423,-230.8 2423,-32.8 8,-32.8"/>
</g>
<g id="clust3" class="cluster">
<title>cluster_ToolModule_imports</title>
<polygon fill="none" stroke="black" points="1957,-40.8 1957,-92.8 2415,-92.8 2415,-40.8 1957,-40.8"/>
</g>
<g id="clust6" class="cluster">
<title>cluster_ToolModule_providers</title>
<polygon fill="none" stroke="black" points="16,-40.8 16,-92.8 1949,-92.8 1949,-40.8 16,-40.8"/>
</g>
<g id="clust4" class="cluster">
<title>cluster_ToolModule_exports</title>
<polygon fill="none" stroke="black" points="1177,-170.8 1177,-222.8 1439,-222.8 1439,-170.8 1177,-170.8"/>
</g>
<!-- EncryptionModule -->
<g id="node1" class="node">
<title>EncryptionModule</title>
<polygon fill="#8dd3c7" stroke="black" points="2406.76,-84.8 2403.76,-88.8 2382.76,-88.8 2379.76,-84.8 2285.24,-84.8 2285.24,-48.8 2406.76,-48.8 2406.76,-84.8"/>
<text text-anchor="middle" x="2346" y="-62.6" font-family="Times,serif" font-size="14.00">EncryptionModule</text>
</g>
<!-- ToolModule -->
<g id="node4" class="node">
<title>ToolModule</title>
<polygon fill="#8dd3c7" stroke="black" points="1339.99,-149.8 1336.99,-153.8 1315.99,-153.8 1312.99,-149.8 1254.01,-149.8 1254.01,-113.8 1339.99,-113.8 1339.99,-149.8"/>
<text text-anchor="middle" x="1297" y="-127.6" font-family="Times,serif" font-size="14.00">ToolModule</text>
</g>
<!-- EncryptionModule&#45;&gt;ToolModule -->
<g id="edge1" class="edge">
<title>EncryptionModule&#45;&gt;ToolModule</title>
<path fill="none" stroke="black" d="M2346,-85.05C2346,-107.82 2346,-143.8 2346,-143.8 2346,-143.8 1350.08,-143.8 1350.08,-143.8"/>
<polygon fill="black" stroke="black" points="1350.08,-140.3 1340.08,-143.8 1350.08,-147.3 1350.08,-140.3"/>
</g>
<!-- LoggerModule -->
<g id="node2" class="node">
<title>LoggerModule</title>
<polygon fill="#8dd3c7" stroke="black" points="2266.98,-84.8 2263.98,-88.8 2242.98,-88.8 2239.98,-84.8 2167.02,-84.8 2167.02,-48.8 2266.98,-48.8 2266.98,-84.8"/>
<text text-anchor="middle" x="2217" y="-62.6" font-family="Times,serif" font-size="14.00">LoggerModule</text>
</g>
<!-- LoggerModule&#45;&gt;ToolModule -->
<g id="edge2" class="edge">
<title>LoggerModule&#45;&gt;ToolModule</title>
<path fill="none" stroke="black" d="M2217,-85.08C2217,-106.12 2217,-137.8 2217,-137.8 2217,-137.8 1350.14,-137.8 1350.14,-137.8"/>
<polygon fill="black" stroke="black" points="1350.14,-134.3 1340.14,-137.8 1350.14,-141.3 1350.14,-134.3"/>
</g>
<!-- OauthProviderServiceModule -->
<g id="node3" class="node">
<title>OauthProviderServiceModule</title>
<polygon fill="#8dd3c7" stroke="black" points="2148.96,-84.8 2145.96,-88.8 2124.96,-88.8 2121.96,-84.8 1965.04,-84.8 1965.04,-48.8 2148.96,-48.8 2148.96,-84.8"/>
<text text-anchor="middle" x="2057" y="-62.6" font-family="Times,serif" font-size="14.00">OauthProviderServiceModule</text>
</g>
<!-- OauthProviderServiceModule&#45;&gt;ToolModule -->
<g id="edge3" class="edge">
<title>OauthProviderServiceModule&#45;&gt;ToolModule</title>
<path fill="none" stroke="black" d="M2057,-84.91C2057,-104.14 2057,-131.8 2057,-131.8 2057,-131.8 1350.04,-131.8 1350.04,-131.8"/>
<polygon fill="black" stroke="black" points="1350.04,-128.3 1340.04,-131.8 1350.04,-135.3 1350.04,-128.3"/>
</g>
<!-- ExternalToolService  -->
<g id="node5" class="node">
<title>ExternalToolService </title>
<polygon fill="#fb8072" stroke="black" points="1430.84,-214.8 1295.16,-214.8 1295.16,-178.8 1430.84,-178.8 1430.84,-214.8"/>
<text text-anchor="middle" x="1363" y="-192.6" font-family="Times,serif" font-size="14.00">ExternalToolService </text>
</g>
<!-- ToolModule&#45;&gt;ExternalToolService  -->
<g id="edge4" class="edge">
<title>ToolModule&#45;&gt;ExternalToolService </title>
<path fill="none" stroke="black" stroke-dasharray="5,2" d="M1317.66,-149.91C1317.66,-149.91 1317.66,-168.79 1317.66,-168.79"/>
<polygon fill="black" stroke="black" points="1314.16,-168.79 1317.66,-178.79 1321.16,-168.79 1314.16,-168.79"/>
</g>
<!-- Lti11Service  -->
<g id="node6" class="node">
<title>Lti11Service </title>
<polygon fill="#fb8072" stroke="black" points="1276.81,-214.8 1185.19,-214.8 1185.19,-178.8 1276.81,-178.8 1276.81,-214.8"/>
<text text-anchor="middle" x="1231" y="-192.6" font-family="Times,serif" font-size="14.00">Lti11Service </text>
</g>
<!-- ToolModule&#45;&gt;Lti11Service  -->
<g id="edge5" class="edge">
<title>ToolModule&#45;&gt;Lti11Service </title>
<path fill="none" stroke="black" stroke-dasharray="5,2" d="M1265.45,-149.91C1265.45,-149.91 1265.45,-168.79 1265.45,-168.79"/>
<polygon fill="black" stroke="black" points="1261.95,-168.79 1265.45,-178.79 1268.95,-168.79 1261.95,-168.79"/>
</g>
<!-- CourseExternalToolRepo -->
<g id="node7" class="node">
<title>CourseExternalToolRepo</title>
<ellipse fill="#fdb462" stroke="black" cx="1831" cy="-66.8" rx="109.96" ry="18"/>
<text text-anchor="middle" x="1831" y="-62.6" font-family="Times,serif" font-size="14.00">CourseExternalToolRepo</text>
</g>
<!-- CourseExternalToolRepo&#45;&gt;ToolModule -->
<g id="edge6" class="edge">
<title>CourseExternalToolRepo&#45;&gt;ToolModule</title>
<path fill="none" stroke="black" d="M1831,-84.82C1831,-102.17 1831,-125.8 1831,-125.8 1831,-125.8 1350.25,-125.8 1350.25,-125.8"/>
<polygon fill="black" stroke="black" points="1350.25,-122.3 1340.25,-125.8 1350.25,-129.3 1350.25,-122.3"/>
</g>
<!-- ExternalToolRepo -->
<g id="node8" class="node">
<title>ExternalToolRepo</title>
<ellipse fill="#fdb462" stroke="black" cx="1621" cy="-66.8" rx="82.24" ry="18"/>
<text text-anchor="middle" x="1621" y="-62.6" font-family="Times,serif" font-size="14.00">ExternalToolRepo</text>
</g>
<!-- ExternalToolRepo&#45;&gt;ToolModule -->
<g id="edge7" class="edge">
<title>ExternalToolRepo&#45;&gt;ToolModule</title>
<path fill="none" stroke="black" d="M1621,-85.04C1621,-100.37 1621,-119.8 1621,-119.8 1621,-119.8 1350.02,-119.8 1350.02,-119.8"/>
<polygon fill="black" stroke="black" points="1350.02,-116.3 1340.02,-119.8 1350.02,-123.3 1350.02,-116.3"/>
</g>
<!-- ExternalToolRepoMapper -->
<g id="node9" class="node">
<title>ExternalToolRepoMapper</title>
<ellipse fill="#fdb462" stroke="black" cx="1408" cy="-66.8" rx="112.3" ry="18"/>
<text text-anchor="middle" x="1408" y="-62.6" font-family="Times,serif" font-size="14.00">ExternalToolRepoMapper</text>
</g>
<!-- ExternalToolRepoMapper&#45;&gt;ToolModule -->
<g id="edge8" class="edge">
<title>ExternalToolRepoMapper&#45;&gt;ToolModule</title>
<path fill="none" stroke="black" d="M1317.8,-77.83C1317.8,-77.83 1317.8,-103.58 1317.8,-103.58"/>
<polygon fill="black" stroke="black" points="1314.3,-103.58 1317.8,-113.58 1321.3,-103.58 1314.3,-103.58"/>
</g>
<!-- ExternalToolService -->
<g id="node10" class="node">
<title>ExternalToolService</title>
<ellipse fill="#fdb462" stroke="black" cx="1187" cy="-66.8" rx="90.88" ry="18"/>
<text text-anchor="middle" x="1187" y="-62.6" font-family="Times,serif" font-size="14.00">ExternalToolService</text>
</g>
<!-- ExternalToolService&#45;&gt;ToolModule -->
<g id="edge9" class="edge">
<title>ExternalToolService&#45;&gt;ToolModule</title>
<path fill="none" stroke="black" d="M1265.97,-75.84C1265.97,-75.84 1265.97,-103.76 1265.97,-103.76"/>
<polygon fill="black" stroke="black" points="1262.47,-103.76 1265.97,-113.76 1269.47,-103.76 1262.47,-103.76"/>
</g>
<!-- ExternalToolServiceMapper -->
<g id="node11" class="node">
<title>ExternalToolServiceMapper</title>
<ellipse fill="#fdb462" stroke="black" cx="957" cy="-66.8" rx="120.95" ry="18"/>
<text text-anchor="middle" x="957" y="-62.6" font-family="Times,serif" font-size="14.00">ExternalToolServiceMapper</text>
</g>
<!-- ExternalToolServiceMapper&#45;&gt;ToolModule -->
<g id="edge10" class="edge">
<title>ExternalToolServiceMapper&#45;&gt;ToolModule</title>
<path fill="none" stroke="black" d="M957,-85.04C957,-100.37 957,-119.8 957,-119.8 957,-119.8 1243.94,-119.8 1243.94,-119.8"/>
<polygon fill="black" stroke="black" points="1243.94,-123.3 1253.94,-119.8 1243.94,-116.3 1243.94,-123.3"/>
</g>
<!-- ExternalToolSortingMapper -->
<g id="node12" class="node">
<title>ExternalToolSortingMapper</title>
<ellipse fill="#fdb462" stroke="black" cx="698" cy="-66.8" rx="120.41" ry="18"/>
<text text-anchor="middle" x="698" y="-62.6" font-family="Times,serif" font-size="14.00">ExternalToolSortingMapper</text>
</g>
<!-- ExternalToolSortingMapper&#45;&gt;ToolModule -->
<g id="edge11" class="edge">
<title>ExternalToolSortingMapper&#45;&gt;ToolModule</title>
<path fill="none" stroke="black" d="M698,-84.82C698,-102.17 698,-125.8 698,-125.8 698,-125.8 1243.92,-125.8 1243.92,-125.8"/>
<polygon fill="black" stroke="black" points="1243.92,-129.3 1253.92,-125.8 1243.92,-122.3 1243.92,-129.3"/>
</g>
<!-- Lti11Service -->
<g id="node13" class="node">
<title>Lti11Service</title>
<ellipse fill="#fdb462" stroke="black" cx="499" cy="-66.8" rx="60.83" ry="18"/>
<text text-anchor="middle" x="499" y="-62.6" font-family="Times,serif" font-size="14.00">Lti11Service</text>
</g>
<!-- Lti11Service&#45;&gt;ToolModule -->
<g id="edge12" class="edge">
<title>Lti11Service&#45;&gt;ToolModule</title>
<path fill="none" stroke="black" d="M499,-84.91C499,-104.14 499,-131.8 499,-131.8 499,-131.8 1243.81,-131.8 1243.81,-131.8"/>
<polygon fill="black" stroke="black" points="1243.81,-135.3 1253.81,-131.8 1243.81,-128.3 1243.81,-135.3"/>
</g>
<!-- PseudonymsRepo -->
<g id="node14" class="node">
<title>PseudonymsRepo</title>
<ellipse fill="#fdb462" stroke="black" cx="340" cy="-66.8" rx="80.5" ry="18"/>
<text text-anchor="middle" x="340" y="-62.6" font-family="Times,serif" font-size="14.00">PseudonymsRepo</text>
</g>
<!-- PseudonymsRepo&#45;&gt;ToolModule -->
<g id="edge13" class="edge">
<title>PseudonymsRepo&#45;&gt;ToolModule</title>
<path fill="none" stroke="black" d="M340,-85.08C340,-106.12 340,-137.8 340,-137.8 340,-137.8 1243.71,-137.8 1243.71,-137.8"/>
<polygon fill="black" stroke="black" points="1243.71,-141.3 1253.71,-137.8 1243.71,-134.3 1243.71,-141.3"/>
</g>
<!-- SchoolExternalToolRepo -->
<g id="node15" class="node">
<title>SchoolExternalToolRepo</title>
<ellipse fill="#fdb462" stroke="black" cx="133" cy="-66.8" rx="109.39" ry="18"/>
<text text-anchor="middle" x="133" y="-62.6" font-family="Times,serif" font-size="14.00">SchoolExternalToolRepo</text>
</g>
<!-- SchoolExternalToolRepo&#45;&gt;ToolModule -->
<g id="edge14" class="edge">
<title>SchoolExternalToolRepo&#45;&gt;ToolModule</title>
<path fill="none" stroke="black" d="M133,-85.05C133,-107.82 133,-143.8 133,-143.8 133,-143.8 1243.84,-143.8 1243.84,-143.8"/>
<polygon fill="black" stroke="black" points="1243.84,-147.3 1253.84,-143.8 1243.84,-140.3 1243.84,-147.3"/>
</g>
</g>
</svg>
