<?xml version="1.0" encoding="UTF-8" standalone="no"?>
<!DOCTYPE svg PUBLIC "-//W3C//DTD SVG 1.1//EN"
 "http://www.w3.org/Graphics/SVG/1.1/DTD/svg11.dtd">
<!-- Generated by graphviz version 5.0.0 (20220707.1540)
 -->
<!-- Title: dependencies Pages: 1 -->
<svg width="3713pt" height="247pt"
 viewBox="0.00 0.00 3713.00 246.80" xmlns="http://www.w3.org/2000/svg" xmlns:xlink="http://www.w3.org/1999/xlink">
<g id="graph0" class="graph" transform="scale(1 1) rotate(0) translate(4 242.8)">
<title>dependencies</title>
<polygon fill="white" stroke="transparent" points="-4,4 -4,-242.8 3709,-242.8 3709,4 -4,4"/>
<text text-anchor="middle" x="1852.5" y="-8.2" font-family="sans-serif" font-size="14.00">dependencies</text>
<g id="clust1" class="cluster">
<title>cluster_ToolModule</title>
<polygon fill="none" stroke="black" stroke-dasharray="1,5" points="8,-32.8 8,-230.8 3697,-230.8 3697,-32.8 8,-32.8"/>
</g>
<g id="clust6" class="cluster">
<title>cluster_ToolModule_providers</title>
<polygon fill="none" stroke="black" points="482,-40.8 482,-92.8 3689,-92.8 3689,-40.8 482,-40.8"/>
</g>
<g id="clust3" class="cluster">
<title>cluster_ToolModule_imports</title>
<polygon fill="none" stroke="black" points="16,-40.8 16,-92.8 474,-92.8 474,-40.8 16,-40.8"/>
</g>
<g id="clust4" class="cluster">
<title>cluster_ToolModule_exports</title>
<polygon fill="none" stroke="black" points="1091,-170.8 1091,-222.8 2306,-222.8 2306,-170.8 1091,-170.8"/>
</g>
<!-- EncryptionModule -->
<g id="node1" class="node">
<title>EncryptionModule</title>
<polygon fill="#8dd3c7" stroke="black" points="465.76,-84.8 462.76,-88.8 441.76,-88.8 438.76,-84.8 344.24,-84.8 344.24,-48.8 465.76,-48.8 465.76,-84.8"/>
<text text-anchor="middle" x="405" y="-62.6" font-family="Times,serif" font-size="14.00">EncryptionModule</text>
</g>
<!-- ToolModule -->
<g id="node4" class="node">
<title>ToolModule</title>
<polygon fill="#8dd3c7" stroke="black" points="1677.99,-149.8 1674.99,-153.8 1653.99,-153.8 1650.99,-149.8 1592.01,-149.8 1592.01,-113.8 1677.99,-113.8 1677.99,-149.8"/>
<text text-anchor="middle" x="1635" y="-127.6" font-family="Times,serif" font-size="14.00">ToolModule</text>
</g>
<!-- EncryptionModule&#45;&gt;ToolModule -->
<g id="edge1" class="edge">
<title>EncryptionModule&#45;&gt;ToolModule</title>
<path fill="none" stroke="black" d="M405,-84.91C405,-104.14 405,-131.8 405,-131.8 405,-131.8 1581.94,-131.8 1581.94,-131.8"/>
<polygon fill="black" stroke="black" points="1581.94,-135.3 1591.94,-131.8 1581.94,-128.3 1581.94,-135.3"/>
</g>
<!-- LoggerModule -->
<g id="node2" class="node">
<title>LoggerModule</title>
<polygon fill="#8dd3c7" stroke="black" points="325.98,-84.8 322.98,-88.8 301.98,-88.8 298.98,-84.8 226.02,-84.8 226.02,-48.8 325.98,-48.8 325.98,-84.8"/>
<text text-anchor="middle" x="276" y="-62.6" font-family="Times,serif" font-size="14.00">LoggerModule</text>
</g>
<!-- LoggerModule&#45;&gt;ToolModule -->
<g id="edge2" class="edge">
<title>LoggerModule&#45;&gt;ToolModule</title>
<path fill="none" stroke="black" d="M276,-85.02C276,-105.17 276,-134.8 276,-134.8 276,-134.8 1581.7,-134.8 1581.7,-134.8"/>
<polygon fill="black" stroke="black" points="1581.7,-138.3 1591.7,-134.8 1581.7,-131.3 1581.7,-138.3"/>
</g>
<!-- OauthProviderServiceModule -->
<g id="node3" class="node">
<title>OauthProviderServiceModule</title>
<polygon fill="#8dd3c7" stroke="black" points="207.96,-84.8 204.96,-88.8 183.96,-88.8 180.96,-84.8 24.04,-84.8 24.04,-48.8 207.96,-48.8 207.96,-84.8"/>
<text text-anchor="middle" x="116" y="-62.6" font-family="Times,serif" font-size="14.00">OauthProviderServiceModule</text>
</g>
<!-- OauthProviderServiceModule&#45;&gt;ToolModule -->
<g id="edge3" class="edge">
<title>OauthProviderServiceModule&#45;&gt;ToolModule</title>
<path fill="none" stroke="black" d="M116,-85.08C116,-106.12 116,-137.8 116,-137.8 116,-137.8 1581.99,-137.8 1581.99,-137.8"/>
<polygon fill="black" stroke="black" points="1581.99,-141.3 1591.99,-137.8 1581.99,-134.3 1581.99,-141.3"/>
</g>
<!-- CommonToolValidationService  -->
<g id="node5" class="node">
<title>CommonToolValidationService </title>
<polygon fill="#fb8072" stroke="black" points="2297.63,-214.8 2098.37,-214.8 2098.37,-178.8 2297.63,-178.8 2297.63,-214.8"/>
<text text-anchor="middle" x="2198" y="-192.6" font-family="Times,serif" font-size="14.00">CommonToolValidationService </text>
</g>
<!-- ToolModule&#45;&gt;CommonToolValidationService  -->
<g id="edge4" class="edge">
<title>ToolModule&#45;&gt;CommonToolValidationService </title>
<path fill="none" stroke="black" stroke-dasharray="5,2" d="M1678.29,-140.8C1808.35,-140.8 2186.7,-140.8 2186.7,-140.8 2186.7,-140.8 2186.7,-168.77 2186.7,-168.77"/>
<polygon fill="black" stroke="black" points="2183.2,-168.77 2186.7,-178.77 2190.2,-168.77 2183.2,-168.77"/>
</g>
<!-- CourseExternalToolService  -->
<g id="node6" class="node">
<title>CourseExternalToolService </title>
<polygon fill="#fb8072" stroke="black" points="2080.5,-214.8 1905.5,-214.8 1905.5,-178.8 2080.5,-178.8 2080.5,-214.8"/>
<text text-anchor="middle" x="1993" y="-192.6" font-family="Times,serif" font-size="14.00">CourseExternalToolService </text>
</g>
<!-- ToolModule&#45;&gt;CourseExternalToolService  -->
<g id="edge5" class="edge">
<title>ToolModule&#45;&gt;CourseExternalToolService </title>
<path fill="none" stroke="black" stroke-dasharray="5,2" d="M1678.22,-143.8C1766.76,-143.8 1960.48,-143.8 1960.48,-143.8 1960.48,-143.8 1960.48,-168.56 1960.48,-168.56"/>
<polygon fill="black" stroke="black" points="1956.98,-168.56 1960.48,-178.56 1963.98,-168.56 1956.98,-168.56"/>
</g>
<!-- ExternalToolRepoMapper  -->
<g id="node7" class="node">
<title>ExternalToolRepoMapper </title>
<polygon fill="#fb8072" stroke="black" points="1887.45,-214.8 1720.55,-214.8 1720.55,-178.8 1887.45,-178.8 1887.45,-214.8"/>
<text text-anchor="middle" x="1804" y="-192.6" font-family="Times,serif" font-size="14.00">ExternalToolRepoMapper </text>
</g>
<!-- ToolModule&#45;&gt;ExternalToolRepoMapper  -->
<g id="edge6" class="edge">
<title>ToolModule&#45;&gt;ExternalToolRepoMapper </title>
<path fill="none" stroke="black" stroke-dasharray="5,2" d="M1678.05,-146.8C1706.53,-146.8 1738.65,-146.8 1738.65,-146.8 1738.65,-146.8 1738.65,-168.75 1738.65,-168.75"/>
<polygon fill="black" stroke="black" points="1735.15,-168.75 1738.65,-178.75 1742.15,-168.75 1735.15,-168.75"/>
</g>
<!-- ExternalToolService  -->
<g id="node8" class="node">
<title>ExternalToolService </title>
<polygon fill="#fb8072" stroke="black" points="1702.84,-214.8 1567.16,-214.8 1567.16,-178.8 1702.84,-178.8 1702.84,-214.8"/>
<text text-anchor="middle" x="1635" y="-192.6" font-family="Times,serif" font-size="14.00">ExternalToolService </text>
</g>
<!-- ToolModule&#45;&gt;ExternalToolService  -->
<g id="edge7" class="edge">
<title>ToolModule&#45;&gt;ExternalToolService </title>
<path fill="none" stroke="black" stroke-dasharray="5,2" d="M1635,-149.91C1635,-149.91 1635,-168.79 1635,-168.79"/>
<polygon fill="black" stroke="black" points="1631.5,-168.79 1635,-178.79 1638.5,-168.79 1631.5,-168.79"/>
</g>
<!-- Lti11Service  -->
<g id="node9" class="node">
<title>Lti11Service </title>
<polygon fill="#fb8072" stroke="black" points="1548.81,-214.8 1457.19,-214.8 1457.19,-178.8 1548.81,-178.8 1548.81,-214.8"/>
<text text-anchor="middle" x="1503" y="-192.6" font-family="Times,serif" font-size="14.00">Lti11Service </text>
</g>
<!-- ToolModule&#45;&gt;Lti11Service  -->
<g id="edge8" class="edge">
<title>ToolModule&#45;&gt;Lti11Service </title>
<path fill="none" stroke="black" stroke-dasharray="5,2" d="M1591.88,-146.8C1563.36,-146.8 1531.19,-146.8 1531.19,-146.8 1531.19,-146.8 1531.19,-168.75 1531.19,-168.75"/>
<polygon fill="black" stroke="black" points="1527.69,-168.75 1531.19,-178.75 1534.69,-168.75 1527.69,-168.75"/>
</g>
<!-- SchoolExternalToolService  -->
<g id="node10" class="node">
<title>SchoolExternalToolService </title>
<polygon fill="#fb8072" stroke="black" points="1439.23,-214.8 1264.77,-214.8 1264.77,-178.8 1439.23,-178.8 1439.23,-214.8"/>
<text text-anchor="middle" x="1352" y="-192.6" font-family="Times,serif" font-size="14.00">SchoolExternalToolService </text>
</g>
<!-- ToolModule&#45;&gt;SchoolExternalToolService  -->
<g id="edge9" class="edge">
<title>ToolModule&#45;&gt;SchoolExternalToolService </title>
<path fill="none" stroke="black" stroke-dasharray="5,2" d="M1591.77,-143.8C1525.56,-143.8 1406.6,-143.8 1406.6,-143.8 1406.6,-143.8 1406.6,-168.56 1406.6,-168.56"/>
<polygon fill="black" stroke="black" points="1403.1,-168.56 1406.6,-178.56 1410.1,-168.56 1403.1,-168.56"/>
</g>
<!-- ToolValidationService  -->
<g id="node11" class="node">
<title>ToolValidationService </title>
<polygon fill="#fb8072" stroke="black" points="1246.52,-214.8 1099.48,-214.8 1099.48,-178.8 1246.52,-178.8 1246.52,-214.8"/>
<text text-anchor="middle" x="1173" y="-192.6" font-family="Times,serif" font-size="14.00">ToolValidationService </text>
</g>
<!-- ToolModule&#45;&gt;ToolValidationService  -->
<g id="edge10" class="edge">
<title>ToolModule&#45;&gt;ToolValidationService </title>
<path fill="none" stroke="black" stroke-dasharray="5,2" d="M1591.88,-140.8C1485.88,-140.8 1221.13,-140.8 1221.13,-140.8 1221.13,-140.8 1221.13,-168.77 1221.13,-168.77"/>
<polygon fill="black" stroke="black" points="1217.63,-168.77 1221.13,-178.77 1224.63,-168.77 1217.63,-168.77"/>
</g>
<!-- CommonToolValidationService -->
<g id="node12" class="node">
<title>CommonToolValidationService</title>
<ellipse fill="#fdb462" stroke="black" cx="3546" cy="-66.8" rx="134.89" ry="18"/>
<text text-anchor="middle" x="3546" y="-62.6" font-family="Times,serif" font-size="14.00">CommonToolValidationService</text>
</g>
<!-- CommonToolValidationService&#45;&gt;ToolModule -->
<g id="edge11" class="edge">
<title>CommonToolValidationService&#45;&gt;ToolModule</title>
<path fill="none" stroke="black" d="M3546,-85.08C3546,-106.12 3546,-137.8 3546,-137.8 3546,-137.8 1688.05,-137.8 1688.05,-137.8"/>
<polygon fill="black" stroke="black" points="1688.05,-134.3 1678.05,-137.8 1688.05,-141.3 1688.05,-134.3"/>
</g>
<!-- CourseExternalToolRepo -->
<g id="node13" class="node">
<title>CourseExternalToolRepo</title>
<ellipse fill="#fdb462" stroke="black" cx="3283" cy="-66.8" rx="109.96" ry="18"/>
<text text-anchor="middle" x="3283" y="-62.6" font-family="Times,serif" font-size="14.00">CourseExternalToolRepo</text>
</g>
<!-- CourseExternalToolRepo&#45;&gt;ToolModule -->
<g id="edge12" class="edge">
<title>CourseExternalToolRepo&#45;&gt;ToolModule</title>
<path fill="none" stroke="black" d="M3283,-85.02C3283,-105.17 3283,-134.8 3283,-134.8 3283,-134.8 1688.23,-134.8 1688.23,-134.8"/>
<polygon fill="black" stroke="black" points="1688.23,-131.3 1678.23,-134.8 1688.23,-138.3 1688.23,-131.3"/>
</g>
<!-- CourseExternalToolService -->
<g id="node14" class="node">
<title>CourseExternalToolService</title>
<ellipse fill="#fdb462" stroke="black" cx="3037" cy="-66.8" rx="118.1" ry="18"/>
<text text-anchor="middle" x="3037" y="-62.6" font-family="Times,serif" font-size="14.00">CourseExternalToolService</text>
</g>
<!-- CourseExternalToolService&#45;&gt;ToolModule -->
<g id="edge13" class="edge">
<title>CourseExternalToolService&#45;&gt;ToolModule</title>
<path fill="none" stroke="black" d="M3037,-84.91C3037,-104.14 3037,-131.8 3037,-131.8 3037,-131.8 1688.11,-131.8 1688.11,-131.8"/>
<polygon fill="black" stroke="black" points="1688.11,-128.3 1678.11,-131.8 1688.11,-135.3 1688.11,-128.3"/>
</g>
<!-- ExternalToolRepo -->
<g id="node15" class="node">
<title>ExternalToolRepo</title>
<ellipse fill="#fdb462" stroke="black" cx="2818" cy="-66.8" rx="82.24" ry="18"/>
<text text-anchor="middle" x="2818" y="-62.6" font-family="Times,serif" font-size="14.00">ExternalToolRepo</text>
</g>
<!-- ExternalToolRepo&#45;&gt;ToolModule -->
<g id="edge14" class="edge">
<title>ExternalToolRepo&#45;&gt;ToolModule</title>
<path fill="none" stroke="black" d="M2818,-85.07C2818,-103.36 2818,-128.8 2818,-128.8 2818,-128.8 1688.15,-128.8 1688.15,-128.8"/>
<polygon fill="black" stroke="black" points="1688.15,-125.3 1678.15,-128.8 1688.15,-132.3 1688.15,-125.3"/>
</g>
<!-- ExternalToolRepoMapper -->
<g id="node16" class="node">
<title>ExternalToolRepoMapper</title>
<ellipse fill="#fdb462" stroke="black" cx="2605" cy="-66.8" rx="112.3" ry="18"/>
<text text-anchor="middle" x="2605" y="-62.6" font-family="Times,serif" font-size="14.00">ExternalToolRepoMapper</text>
</g>
<!-- ExternalToolRepoMapper&#45;&gt;ToolModule -->
<g id="edge15" class="edge">
<title>ExternalToolRepoMapper&#45;&gt;ToolModule</title>
<path fill="none" stroke="black" d="M2605,-84.82C2605,-102.17 2605,-125.8 2605,-125.8 2605,-125.8 1688.25,-125.8 1688.25,-125.8"/>
<polygon fill="black" stroke="black" points="1688.25,-122.3 1678.25,-125.8 1688.25,-129.3 1688.25,-122.3"/>
</g>
<!-- ExternalToolService -->
<g id="node17" class="node">
<title>ExternalToolService</title>
<ellipse fill="#fdb462" stroke="black" cx="2384" cy="-66.8" rx="90.88" ry="18"/>
<text text-anchor="middle" x="2384" y="-62.6" font-family="Times,serif" font-size="14.00">ExternalToolService</text>
</g>
<!-- ExternalToolService&#45;&gt;ToolModule -->
<g id="edge16" class="edge">
<title>ExternalToolService&#45;&gt;ToolModule</title>
<path fill="none" stroke="black" d="M2386.25,-84.83C2386.25,-101.2 2386.25,-122.8 2386.25,-122.8 2386.25,-122.8 1688.09,-122.8 1688.09,-122.8"/>
<polygon fill="black" stroke="black" points="1688.09,-119.3 1678.09,-122.8 1688.09,-126.3 1688.09,-119.3"/>
</g>
<!-- ExternalToolServiceMapper -->
<g id="node18" class="node">
<title>ExternalToolServiceMapper</title>
<ellipse fill="#fdb462" stroke="black" cx="2154" cy="-66.8" rx="120.95" ry="18"/>
<text text-anchor="middle" x="2154" y="-62.6" font-family="Times,serif" font-size="14.00">ExternalToolServiceMapper</text>
</g>
<!-- ExternalToolServiceMapper&#45;&gt;ToolModule -->
<g id="edge17" class="edge">
<title>ExternalToolServiceMapper&#45;&gt;ToolModule</title>
<path fill="none" stroke="black" d="M2056.76,-77.53C2056.76,-93.01 2056.76,-119.8 2056.76,-119.8 2056.76,-119.8 1688.15,-119.8 1688.15,-119.8"/>
<polygon fill="black" stroke="black" points="1688.15,-116.3 1678.15,-119.8 1688.15,-123.3 1688.15,-116.3"/>
</g>
<!-- ExternalToolSortingMapper -->
<g id="node19" class="node">
<title>ExternalToolSortingMapper</title>
<ellipse fill="#fdb462" stroke="black" cx="1895" cy="-66.8" rx="120.41" ry="18"/>
<text text-anchor="middle" x="1895" y="-62.6" font-family="Times,serif" font-size="14.00">ExternalToolSortingMapper</text>
</g>
<!-- ExternalToolSortingMapper&#45;&gt;ToolModule -->
<g id="edge18" class="edge">
<title>ExternalToolSortingMapper&#45;&gt;ToolModule</title>
<path fill="none" stroke="black" d="M1830.89,-82.07C1830.89,-96.78 1830.89,-116.8 1830.89,-116.8 1830.89,-116.8 1688.47,-116.8 1688.47,-116.8"/>
<polygon fill="black" stroke="black" points="1688.47,-113.3 1678.47,-116.8 1688.47,-120.3 1688.47,-113.3"/>
</g>
<!-- ExternalToolVersionService -->
<g id="node20" class="node">
<title>ExternalToolVersionService</title>
<ellipse fill="#fdb462" stroke="black" cx="1635" cy="-66.8" rx="121.53" ry="18"/>
<text text-anchor="middle" x="1635" y="-62.6" font-family="Times,serif" font-size="14.00">ExternalToolVersionService</text>
</g>
<!-- ExternalToolVersionService&#45;&gt;ToolModule -->
<g id="edge19" class="edge">
<title>ExternalToolVersionService&#45;&gt;ToolModule</title>
<path fill="none" stroke="black" d="M1635,-84.91C1635,-84.91 1635,-103.79 1635,-103.79"/>
<polygon fill="black" stroke="black" points="1631.5,-103.79 1635,-113.79 1638.5,-103.79 1631.5,-103.79"/>
</g>
<!-- Lti11Service -->
<g id="node21" class="node">
<title>Lti11Service</title>
<ellipse fill="#fdb462" stroke="black" cx="1435" cy="-66.8" rx="60.83" ry="18"/>
<text text-anchor="middle" x="1435" y="-62.6" font-family="Times,serif" font-size="14.00">Lti11Service</text>
</g>
<!-- Lti11Service&#45;&gt;ToolModule -->
<g id="edge20" class="edge">
<title>Lti11Service&#45;&gt;ToolModule</title>
<path fill="none" stroke="black" d="M1476.5,-80.2C1476.5,-95.01 1476.5,-116.8 1476.5,-116.8 1476.5,-116.8 1581.69,-116.8 1581.69,-116.8"/>
<polygon fill="black" stroke="black" points="1581.69,-120.3 1591.69,-116.8 1581.69,-113.3 1581.69,-120.3"/>
</g>
<!-- PseudonymsRepo -->
<g id="node22" class="node">
<title>PseudonymsRepo</title>
<ellipse fill="#fdb462" stroke="black" cx="1276" cy="-66.8" rx="80.5" ry="18"/>
<text text-anchor="middle" x="1276" y="-62.6" font-family="Times,serif" font-size="14.00">PseudonymsRepo</text>
</g>
<!-- PseudonymsRepo&#45;&gt;ToolModule -->
<g id="edge21" class="edge">
<title>PseudonymsRepo&#45;&gt;ToolModule</title>
<path fill="none" stroke="black" d="M1310.57,-83.28C1310.57,-98.84 1310.57,-119.8 1310.57,-119.8 1310.57,-119.8 1581.92,-119.8 1581.92,-119.8"/>
<polygon fill="black" stroke="black" points="1581.92,-123.3 1591.92,-119.8 1581.92,-116.3 1581.92,-123.3"/>
</g>
<!-- SchoolExternalToolRepo -->
<g id="node23" class="node">
<title>SchoolExternalToolRepo</title>
<ellipse fill="#fdb462" stroke="black" cx="1069" cy="-66.8" rx="109.39" ry="18"/>
<text text-anchor="middle" x="1069" y="-62.6" font-family="Times,serif" font-size="14.00">SchoolExternalToolRepo</text>
</g>
<!-- SchoolExternalToolRepo&#45;&gt;ToolModule -->
<g id="edge22" class="edge">
<title>SchoolExternalToolRepo&#45;&gt;ToolModule</title>
<path fill="none" stroke="black" d="M1138.84,-80.64C1138.84,-97.23 1138.84,-122.8 1138.84,-122.8 1138.84,-122.8 1581.84,-122.8 1581.84,-122.8"/>
<polygon fill="black" stroke="black" points="1581.84,-126.3 1591.84,-122.8 1581.84,-119.3 1581.84,-126.3"/>
</g>
<!-- SchoolExternalToolService -->
<g id="node24" class="node">
<title>SchoolExternalToolService</title>
<ellipse fill="#fdb462" stroke="black" cx="824" cy="-66.8" rx="117.54" ry="18"/>
<text text-anchor="middle" x="824" y="-62.6" font-family="Times,serif" font-size="14.00">SchoolExternalToolService</text>
</g>
<!-- SchoolExternalToolService&#45;&gt;ToolModule -->
<g id="edge23" class="edge">
<title>SchoolExternalToolService&#45;&gt;ToolModule</title>
<path fill="none" stroke="black" d="M824,-84.82C824,-102.17 824,-125.8 824,-125.8 824,-125.8 1581.97,-125.8 1581.97,-125.8"/>
<polygon fill="black" stroke="black" points="1581.97,-129.3 1591.97,-125.8 1581.97,-122.3 1581.97,-129.3"/>
</g>
<!-- ToolValidationService -->
<g id="node25" class="node">
<title>ToolValidationService</title>
<ellipse fill="#fdb462" stroke="black" cx="589" cy="-66.8" rx="98.99" ry="18"/>
<text text-anchor="middle" x="589" y="-62.6" font-family="Times,serif" font-size="14.00">ToolValidationService</text>
</g>
<!-- ToolValidationService&#45;&gt;ToolModule -->
<g id="edge24" class="edge">
<title>ToolValidationService&#45;&gt;ToolModule</title>
<path fill="none" stroke="black" d="M589,-85.07C589,-103.36 589,-128.8 589,-128.8 589,-128.8 1581.72,-128.8 1581.72,-128.8"/>
<polygon fill="black" stroke="black" points="1581.72,-132.3 1591.72,-128.8 1581.72,-125.3 1581.72,-132.3"/>
</g>
</g>
</svg>
