<?xml version="1.0" encoding="UTF-8" standalone="no"?>
<!DOCTYPE svg PUBLIC "-//W3C//DTD SVG 1.1//EN"
 "http://www.w3.org/Graphics/SVG/1.1/DTD/svg11.dtd">
<!-- Generated by graphviz version 5.0.0 (20220707.1540)
 -->
<!-- Title: dependencies Pages: 1 -->
<svg width="3406pt" height="247pt"
 viewBox="0.00 0.00 3406.00 246.80" xmlns="http://www.w3.org/2000/svg" xmlns:xlink="http://www.w3.org/1999/xlink">
<g id="graph0" class="graph" transform="scale(1 1) rotate(0) translate(4 242.8)">
<title>dependencies</title>
<polygon fill="white" stroke="transparent" points="-4,4 -4,-242.8 3402,-242.8 3402,4 -4,4"/>
<text text-anchor="middle" x="1699" y="-8.2" font-family="sans-serif" font-size="14.00">dependencies</text>
<g id="clust1" class="cluster">
<title>cluster_ToolModule</title>
<polygon fill="none" stroke="black" stroke-dasharray="1,5" points="8,-32.8 8,-230.8 3390,-230.8 3390,-32.8 8,-32.8"/>
</g>
<g id="clust4" class="cluster">
<title>cluster_ToolModule_exports</title>
<polygon fill="none" stroke="black" points="1593,-170.8 1593,-222.8 1855,-222.8 1855,-170.8 1593,-170.8"/>
</g>
<g id="clust3" class="cluster">
<title>cluster_ToolModule_imports</title>
<polygon fill="none" stroke="black" points="2548,-40.8 2548,-92.8 3382,-92.8 3382,-40.8 2548,-40.8"/>
</g>
<g id="clust6" class="cluster">
<title>cluster_ToolModule_providers</title>
<polygon fill="none" stroke="black" points="16,-40.8 16,-92.8 2540,-92.8 2540,-40.8 16,-40.8"/>
</g>
<!-- AuthorizationModule -->
<g id="node1" class="node">
<title>AuthorizationModule</title>
<polygon fill="#8dd3c7" stroke="black" points="3373.81,-84.8 3370.81,-88.8 3349.81,-88.8 3346.81,-84.8 3236.19,-84.8 3236.19,-48.8 3373.81,-48.8 3373.81,-84.8"/>
<text text-anchor="middle" x="3305" y="-62.6" font-family="Times,serif" font-size="14.00">AuthorizationModule</text>
</g>
<!-- ToolModule -->
<g id="node7" class="node">
<title>ToolModule</title>
<polygon fill="#8dd3c7" stroke="black" points="1755.99,-149.8 1752.99,-153.8 1731.99,-153.8 1728.99,-149.8 1670.01,-149.8 1670.01,-113.8 1755.99,-113.8 1755.99,-149.8"/>
<text text-anchor="middle" x="1713" y="-127.6" font-family="Times,serif" font-size="14.00">ToolModule</text>
</g>
<!-- AuthorizationModule&#45;&gt;ToolModule -->
<g id="edge1" class="edge">
<title>AuthorizationModule&#45;&gt;ToolModule</title>
<path fill="none" stroke="black" d="M3305,-84.95C3305,-108.56 3305,-146.8 3305,-146.8 3305,-146.8 1765.99,-146.8 1765.99,-146.8"/>
<polygon fill="black" stroke="black" points="1765.99,-143.3 1755.99,-146.8 1765.99,-150.3 1765.99,-143.3"/>
</g>
<!-- EncryptionModule -->
<g id="node2" class="node">
<title>EncryptionModule</title>
<polygon fill="#8dd3c7" stroke="black" points="3217.76,-84.8 3214.76,-88.8 3193.76,-88.8 3190.76,-84.8 3096.24,-84.8 3096.24,-48.8 3217.76,-48.8 3217.76,-84.8"/>
<text text-anchor="middle" x="3157" y="-62.6" font-family="Times,serif" font-size="14.00">EncryptionModule</text>
</g>
<!-- EncryptionModule&#45;&gt;ToolModule -->
<g id="edge2" class="edge">
<title>EncryptionModule&#45;&gt;ToolModule</title>
<path fill="none" stroke="black" d="M3157,-84.81C3157,-107.29 3157,-142.8 3157,-142.8 3157,-142.8 1766.22,-142.8 1766.22,-142.8"/>
<polygon fill="black" stroke="black" points="1766.22,-139.3 1756.22,-142.8 1766.22,-146.3 1766.22,-139.3"/>
</g>
<!-- LoggerModule -->
<g id="node3" class="node">
<title>LoggerModule</title>
<polygon fill="#8dd3c7" stroke="black" points="3077.98,-84.8 3074.98,-88.8 3053.98,-88.8 3050.98,-84.8 2978.02,-84.8 2978.02,-48.8 3077.98,-48.8 3077.98,-84.8"/>
<text text-anchor="middle" x="3028" y="-62.6" font-family="Times,serif" font-size="14.00">LoggerModule</text>
</g>
<!-- LoggerModule&#45;&gt;ToolModule -->
<g id="edge3" class="edge">
<title>LoggerModule&#45;&gt;ToolModule</title>
<path fill="none" stroke="black" d="M3028,-84.84C3028,-106.46 3028,-139.8 3028,-139.8 3028,-139.8 1766,-139.8 1766,-139.8"/>
<polygon fill="black" stroke="black" points="1766,-136.3 1756,-139.8 1766,-143.3 1766,-136.3"/>
</g>
<!-- OauthProviderServiceModule -->
<g id="node4" class="node">
<title>OauthProviderServiceModule</title>
<polygon fill="#8dd3c7" stroke="black" points="2959.96,-84.8 2956.96,-88.8 2935.96,-88.8 2932.96,-84.8 2776.04,-84.8 2776.04,-48.8 2959.96,-48.8 2959.96,-84.8"/>
<text text-anchor="middle" x="2868" y="-62.6" font-family="Times,serif" font-size="14.00">OauthProviderServiceModule</text>
</g>
<!-- OauthProviderServiceModule&#45;&gt;ToolModule -->
<g id="edge4" class="edge">
<title>OauthProviderServiceModule&#45;&gt;ToolModule</title>
<path fill="none" stroke="black" d="M2868,-84.93C2868,-105.37 2868,-135.8 2868,-135.8 2868,-135.8 1766.17,-135.8 1766.17,-135.8"/>
<polygon fill="black" stroke="black" points="1766.17,-132.3 1756.17,-135.8 1766.17,-139.3 1766.17,-132.3"/>
</g>
<!-- SchoolModule -->
<g id="node5" class="node">
<title>SchoolModule</title>
<polygon fill="#8dd3c7" stroke="black" points="2758.44,-84.8 2755.44,-88.8 2734.44,-88.8 2731.44,-84.8 2659.56,-84.8 2659.56,-48.8 2758.44,-48.8 2758.44,-84.8"/>
<text text-anchor="middle" x="2709" y="-62.6" font-family="Times,serif" font-size="14.00">SchoolModule</text>
</g>
<!-- SchoolModule&#45;&gt;ToolModule -->
<g id="edge5" class="edge">
<title>SchoolModule&#45;&gt;ToolModule</title>
<path fill="none" stroke="black" d="M2709,-84.91C2709,-104.14 2709,-131.8 2709,-131.8 2709,-131.8 1766.12,-131.8 1766.12,-131.8"/>
<polygon fill="black" stroke="black" points="1766.12,-128.3 1756.12,-131.8 1766.12,-135.3 1766.12,-128.3"/>
</g>
<!-- UserModule -->
<g id="node6" class="node">
<title>UserModule</title>
<polygon fill="#8dd3c7" stroke="black" points="2641.99,-84.8 2638.99,-88.8 2617.99,-88.8 2614.99,-84.8 2556.01,-84.8 2556.01,-48.8 2641.99,-48.8 2641.99,-84.8"/>
<text text-anchor="middle" x="2599" y="-62.6" font-family="Times,serif" font-size="14.00">UserModule</text>
</g>
<!-- UserModule&#45;&gt;ToolModule -->
<g id="edge6" class="edge">
<title>UserModule&#45;&gt;ToolModule</title>
<path fill="none" stroke="black" d="M2599,-85.07C2599,-103.36 2599,-128.8 2599,-128.8 2599,-128.8 1766.03,-128.8 1766.03,-128.8"/>
<polygon fill="black" stroke="black" points="1766.03,-125.3 1756.03,-128.8 1766.03,-132.3 1766.03,-125.3"/>
</g>
<!-- ExternalToolService  -->
<g id="node8" class="node">
<title>ExternalToolService </title>
<polygon fill="#fb8072" stroke="black" points="1846.84,-214.8 1711.16,-214.8 1711.16,-178.8 1846.84,-178.8 1846.84,-214.8"/>
<text text-anchor="middle" x="1779" y="-192.6" font-family="Times,serif" font-size="14.00">ExternalToolService </text>
</g>
<!-- ToolModule&#45;&gt;ExternalToolService  -->
<g id="edge7" class="edge">
<title>ToolModule&#45;&gt;ExternalToolService </title>
<path fill="none" stroke="black" stroke-dasharray="5,2" d="M1733.66,-149.91C1733.66,-149.91 1733.66,-168.79 1733.66,-168.79"/>
<polygon fill="black" stroke="black" points="1730.16,-168.79 1733.66,-178.79 1737.16,-168.79 1730.16,-168.79"/>
</g>
<!-- Lti11Service  -->
<g id="node9" class="node">
<title>Lti11Service </title>
<polygon fill="#fb8072" stroke="black" points="1692.81,-214.8 1601.19,-214.8 1601.19,-178.8 1692.81,-178.8 1692.81,-214.8"/>
<text text-anchor="middle" x="1647" y="-192.6" font-family="Times,serif" font-size="14.00">Lti11Service </text>
</g>
<!-- ToolModule&#45;&gt;Lti11Service  -->
<g id="edge8" class="edge">
<title>ToolModule&#45;&gt;Lti11Service </title>
<path fill="none" stroke="black" stroke-dasharray="5,2" d="M1681.45,-149.91C1681.45,-149.91 1681.45,-168.79 1681.45,-168.79"/>
<polygon fill="black" stroke="black" points="1677.95,-168.79 1681.45,-178.79 1684.95,-168.79 1677.95,-168.79"/>
</g>
<!-- ExternalToolRepo -->
<g id="node10" class="node">
<title>ExternalToolRepo</title>
<ellipse fill="#fdb462" stroke="black" cx="2450" cy="-66.8" rx="82.24" ry="18"/>
<text text-anchor="middle" x="2450" y="-62.6" font-family="Times,serif" font-size="14.00">ExternalToolRepo</text>
</g>
<!-- ExternalToolRepo&#45;&gt;ToolModule -->
<g id="edge9" class="edge">
<title>ExternalToolRepo&#45;&gt;ToolModule</title>
<path fill="none" stroke="black" d="M2450,-84.83C2450,-101.86 2450,-124.8 2450,-124.8 2450,-124.8 1766.08,-124.8 1766.08,-124.8"/>
<polygon fill="black" stroke="black" points="1766.08,-121.3 1756.08,-124.8 1766.08,-128.3 1766.08,-121.3"/>
</g>
<!-- ExternalToolRepoMapper -->
<g id="node11" class="node">
<title>ExternalToolRepoMapper</title>
<ellipse fill="#fdb462" stroke="black" cx="2237" cy="-66.8" rx="112.3" ry="18"/>
<text text-anchor="middle" x="2237" y="-62.6" font-family="Times,serif" font-size="14.00">ExternalToolRepoMapper</text>
</g>
<!-- ExternalToolRepoMapper&#45;&gt;ToolModule -->
<g id="edge10" class="edge">
<title>ExternalToolRepoMapper&#45;&gt;ToolModule</title>
<path fill="none" stroke="black" d="M2237,-84.81C2237,-100.85 2237,-121.8 2237,-121.8 2237,-121.8 1766.33,-121.8 1766.33,-121.8"/>
<polygon fill="black" stroke="black" points="1766.33,-118.3 1756.33,-121.8 1766.33,-125.3 1766.33,-118.3"/>
</g>
<!-- ExternalToolRequestMapper -->
<g id="node12" class="node">
<title>ExternalToolRequestMapper</title>
<ellipse fill="#fdb462" stroke="black" cx="1983" cy="-66.8" rx="123.26" ry="18"/>
<text text-anchor="middle" x="1983" y="-62.6" font-family="Times,serif" font-size="14.00">ExternalToolRequestMapper</text>
</g>
<!-- ExternalToolRequestMapper&#45;&gt;ToolModule -->
<g id="edge11" class="edge">
<title>ExternalToolRequestMapper&#45;&gt;ToolModule</title>
<path fill="none" stroke="black" d="M1983,-84.92C1983,-99.58 1983,-117.8 1983,-117.8 1983,-117.8 1766.08,-117.8 1766.08,-117.8"/>
<polygon fill="black" stroke="black" points="1766.08,-114.3 1756.08,-117.8 1766.08,-121.3 1766.08,-114.3"/>
</g>
<!-- ExternalToolResponseMapper -->
<g id="node13" class="node">
<title>ExternalToolResponseMapper</title>
<ellipse fill="#fdb462" stroke="black" cx="1713" cy="-66.8" rx="129.06" ry="18"/>
<text text-anchor="middle" x="1713" y="-62.6" font-family="Times,serif" font-size="14.00">ExternalToolResponseMapper</text>
</g>
<!-- ExternalToolResponseMapper&#45;&gt;ToolModule -->
<g id="edge12" class="edge">
<title>ExternalToolResponseMapper&#45;&gt;ToolModule</title>
<path fill="none" stroke="black" d="M1713,-84.91C1713,-84.91 1713,-103.79 1713,-103.79"/>
<polygon fill="black" stroke="black" points="1709.5,-103.79 1713,-113.79 1716.5,-103.79 1709.5,-103.79"/>
</g>
<!-- ExternalToolService -->
<g id="node14" class="node">
<title>ExternalToolService</title>
<ellipse fill="#fdb462" stroke="black" cx="1475" cy="-66.8" rx="90.88" ry="18"/>
<text text-anchor="middle" x="1475" y="-62.6" font-family="Times,serif" font-size="14.00">ExternalToolService</text>
</g>
<!-- ExternalToolService&#45;&gt;ToolModule -->
<g id="edge13" class="edge">
<title>ExternalToolService&#45;&gt;ToolModule</title>
<path fill="none" stroke="black" d="M1475,-84.92C1475,-99.58 1475,-117.8 1475,-117.8 1475,-117.8 1659.9,-117.8 1659.9,-117.8"/>
<polygon fill="black" stroke="black" points="1659.9,-121.3 1669.9,-117.8 1659.9,-114.3 1659.9,-121.3"/>
</g>
<!-- ExternalToolSortingMapper -->
<g id="node15" class="node">
<title>ExternalToolSortingMapper</title>
<ellipse fill="#fdb462" stroke="black" cx="1246" cy="-66.8" rx="120.41" ry="18"/>
<text text-anchor="middle" x="1246" y="-62.6" font-family="Times,serif" font-size="14.00">ExternalToolSortingMapper</text>
</g>
<!-- ExternalToolSortingMapper&#45;&gt;ToolModule -->
<g id="edge14" class="edge">
<title>ExternalToolSortingMapper&#45;&gt;ToolModule</title>
<path fill="none" stroke="black" d="M1246,-84.81C1246,-100.85 1246,-121.8 1246,-121.8 1246,-121.8 1659.9,-121.8 1659.9,-121.8"/>
<polygon fill="black" stroke="black" points="1659.9,-125.3 1669.9,-121.8 1659.9,-118.3 1659.9,-125.3"/>
</g>
<!-- ExternalToolUc -->
<g id="node16" class="node">
<title>ExternalToolUc</title>
<ellipse fill="#fdb462" stroke="black" cx="1034" cy="-66.8" rx="73.49" ry="18"/>
<text text-anchor="middle" x="1034" y="-62.6" font-family="Times,serif" font-size="14.00">ExternalToolUc</text>
</g>
<!-- ExternalToolUc&#45;&gt;ToolModule -->
<g id="edge15" class="edge">
<title>ExternalToolUc&#45;&gt;ToolModule</title>
<path fill="none" stroke="black" d="M1034,-84.83C1034,-101.86 1034,-124.8 1034,-124.8 1034,-124.8 1659.75,-124.8 1659.75,-124.8"/>
<polygon fill="black" stroke="black" points="1659.75,-128.3 1669.75,-124.8 1659.75,-121.3 1659.75,-128.3"/>
</g>
<!-- Lti11ResponseMapper -->
<g id="node17" class="node">
<title>Lti11ResponseMapper</title>
<ellipse fill="#fdb462" stroke="black" cx="844" cy="-66.8" rx="99.01" ry="18"/>
<text text-anchor="middle" x="844" y="-62.6" font-family="Times,serif" font-size="14.00">Lti11ResponseMapper</text>
</g>
<!-- Lti11ResponseMapper&#45;&gt;ToolModule -->
<g id="edge16" class="edge">
<title>Lti11ResponseMapper&#45;&gt;ToolModule</title>
<path fill="none" stroke="black" d="M844,-85.07C844,-103.36 844,-128.8 844,-128.8 844,-128.8 1659.91,-128.8 1659.91,-128.8"/>
<polygon fill="black" stroke="black" points="1659.91,-132.3 1669.91,-128.8 1659.91,-125.3 1659.91,-132.3"/>
</g>
<!-- Lti11Service -->
<g id="node18" class="node">
<title>Lti11Service</title>
<ellipse fill="#fdb462" stroke="black" cx="666" cy="-66.8" rx="60.83" ry="18"/>
<text text-anchor="middle" x="666" y="-62.6" font-family="Times,serif" font-size="14.00">Lti11Service</text>
</g>
<!-- Lti11Service&#45;&gt;ToolModule -->
<g id="edge17" class="edge">
<title>Lti11Service&#45;&gt;ToolModule</title>
<path fill="none" stroke="black" d="M666,-84.91C666,-104.14 666,-131.8 666,-131.8 666,-131.8 1660,-131.8 1660,-131.8"/>
<polygon fill="black" stroke="black" points="1660,-135.3 1670,-131.8 1660,-128.3 1660,-135.3"/>
</g>
<!-- Lti11Uc -->
<g id="node19" class="node">
<title>Lti11Uc</title>
<ellipse fill="#fdb462" stroke="black" cx="544" cy="-66.8" rx="43.44" ry="18"/>
<text text-anchor="middle" x="544" y="-62.6" font-family="Times,serif" font-size="14.00">Lti11Uc</text>
</g>
<!-- Lti11Uc&#45;&gt;ToolModule -->
<g id="edge18" class="edge">
<title>Lti11Uc&#45;&gt;ToolModule</title>
<path fill="none" stroke="black" d="M544,-84.93C544,-105.37 544,-135.8 544,-135.8 544,-135.8 1659.66,-135.8 1659.66,-135.8"/>
<polygon fill="black" stroke="black" points="1659.66,-139.3 1669.66,-135.8 1659.66,-132.3 1659.66,-139.3"/>
</g>
<!-- LtiRoleMapper -->
<g id="node20" class="node">
<title>LtiRoleMapper</title>
<ellipse fill="#fdb462" stroke="black" cx="412" cy="-66.8" rx="70.64" ry="18"/>
<text text-anchor="middle" x="412" y="-62.6" font-family="Times,serif" font-size="14.00">LtiRoleMapper</text>
</g>
<!-- LtiRoleMapper&#45;&gt;ToolModule -->
<g id="edge19" class="edge">
<title>LtiRoleMapper&#45;&gt;ToolModule</title>
<path fill="none" stroke="black" d="M412,-84.84C412,-106.46 412,-139.8 412,-139.8 412,-139.8 1659.71,-139.8 1659.71,-139.8"/>
<polygon fill="black" stroke="black" points="1659.71,-143.3 1669.71,-139.8 1659.71,-136.3 1659.71,-143.3"/>
</g>
<!-- LtiToolRepo -->
<g id="node21" class="node">
<title>LtiToolRepo</title>
<ellipse fill="#fdb462" stroke="black" cx="263" cy="-66.8" rx="60.85" ry="18"/>
<text text-anchor="middle" x="263" y="-62.6" font-family="Times,serif" font-size="14.00">LtiToolRepo</text>
</g>
<!-- LtiToolRepo&#45;&gt;ToolModule -->
<g id="edge20" class="edge">
<title>LtiToolRepo&#45;&gt;ToolModule</title>
<path fill="none" stroke="black" d="M263,-84.81C263,-107.29 263,-142.8 263,-142.8 263,-142.8 1660,-142.8 1660,-142.8"/>
<polygon fill="black" stroke="black" points="1660,-146.3 1670,-142.8 1660,-139.3 1660,-146.3"/>
</g>
<!-- PseudonymsRepo -->
<g id="node22" class="node">
<title>PseudonymsRepo</title>
<ellipse fill="#fdb462" stroke="black" cx="104" cy="-66.8" rx="80.5" ry="18"/>
<text text-anchor="middle" x="104" y="-62.6" font-family="Times,serif" font-size="14.00">PseudonymsRepo</text>
</g>
<!-- PseudonymsRepo&#45;&gt;ToolModule -->
<g id="edge21" class="edge">
<title>PseudonymsRepo&#45;&gt;ToolModule</title>
<path fill="none" stroke="black" d="M104,-84.95C104,-108.56 104,-146.8 104,-146.8 104,-146.8 1659.96,-146.8 1659.96,-146.8"/>
<polygon fill="black" stroke="black" points="1659.96,-150.3 1669.96,-146.8 1659.96,-143.3 1659.96,-150.3"/>
</g>
</g>
</svg>
