<?xml version="1.0" encoding="UTF-8" standalone="no"?>
<!DOCTYPE svg PUBLIC "-//W3C//DTD SVG 1.1//EN"
 "http://www.w3.org/Graphics/SVG/1.1/DTD/svg11.dtd">
<!-- Generated by graphviz version 5.0.0 (20220707.1540)
 -->
<!-- Title: dependencies Pages: 1 -->
<svg width="3147pt" height="174pt"
 viewBox="0.00 0.00 3147.00 173.80" xmlns="http://www.w3.org/2000/svg" xmlns:xlink="http://www.w3.org/1999/xlink">
<g id="graph0" class="graph" transform="scale(1 1) rotate(0) translate(4 169.8)">
<title>dependencies</title>
<polygon fill="white" stroke="transparent" points="-4,4 -4,-169.8 3143,-169.8 3143,4 -4,4"/>
<text text-anchor="middle" x="1569.5" y="-8.2" font-family="sans-serif" font-size="14.00">dependencies</text>
<g id="clust1" class="cluster">
<title>cluster_ToolModule</title>
<polygon fill="none" stroke="black" stroke-dasharray="1,5" points="8,-32.8 8,-157.8 3131,-157.8 3131,-32.8 8,-32.8"/>
</g>
<g id="clust6" class="cluster">
<title>cluster_ToolModule_providers</title>
<polygon fill="none" stroke="black" points="858,-40.8 858,-92.8 3123,-92.8 3123,-40.8 858,-40.8"/>
</g>
<g id="clust3" class="cluster">
<title>cluster_ToolModule_imports</title>
<polygon fill="none" stroke="black" points="16,-40.8 16,-92.8 850,-92.8 850,-40.8 16,-40.8"/>
</g>
<!-- AuthorizationModule -->
<g id="node1" class="node">
<title>AuthorizationModule</title>
<polygon fill="#8dd3c7" stroke="black" points="841.81,-84.8 838.81,-88.8 817.81,-88.8 814.81,-84.8 704.19,-84.8 704.19,-48.8 841.81,-48.8 841.81,-84.8"/>
<text text-anchor="middle" x="773" y="-62.6" font-family="Times,serif" font-size="14.00">AuthorizationModule</text>
</g>
<!-- ToolModule -->
<g id="node7" class="node">
<title>ToolModule</title>
<polygon fill="#8dd3c7" stroke="black" points="1362.99,-149.8 1359.99,-153.8 1338.99,-153.8 1335.99,-149.8 1277.01,-149.8 1277.01,-113.8 1362.99,-113.8 1362.99,-149.8"/>
<text text-anchor="middle" x="1320" y="-127.6" font-family="Times,serif" font-size="14.00">ToolModule</text>
</g>
<!-- AuthorizationModule&#45;&gt;ToolModule -->
<g id="edge1" class="edge">
<title>AuthorizationModule&#45;&gt;ToolModule</title>
<path fill="none" stroke="black" d="M773,-84.82C773,-102.17 773,-125.8 773,-125.8 773,-125.8 1266.62,-125.8 1266.62,-125.8"/>
<polygon fill="black" stroke="black" points="1266.62,-129.3 1276.62,-125.8 1266.62,-122.3 1266.62,-129.3"/>
</g>
<!-- EncryptionModule -->
<g id="node2" class="node">
<title>EncryptionModule</title>
<polygon fill="#8dd3c7" stroke="black" points="685.76,-84.8 682.76,-88.8 661.76,-88.8 658.76,-84.8 564.24,-84.8 564.24,-48.8 685.76,-48.8 685.76,-84.8"/>
<text text-anchor="middle" x="625" y="-62.6" font-family="Times,serif" font-size="14.00">EncryptionModule</text>
</g>
<!-- EncryptionModule&#45;&gt;ToolModule -->
<g id="edge2" class="edge">
<title>EncryptionModule&#45;&gt;ToolModule</title>
<path fill="none" stroke="black" d="M625,-85.02C625,-103.63 625,-129.8 625,-129.8 625,-129.8 1266.79,-129.8 1266.79,-129.8"/>
<polygon fill="black" stroke="black" points="1266.79,-133.3 1276.79,-129.8 1266.79,-126.3 1266.79,-133.3"/>
</g>
<!-- LoggerModule -->
<g id="node3" class="node">
<title>LoggerModule</title>
<polygon fill="#8dd3c7" stroke="black" points="545.98,-84.8 542.98,-88.8 521.98,-88.8 518.98,-84.8 446.02,-84.8 446.02,-48.8 545.98,-48.8 545.98,-84.8"/>
<text text-anchor="middle" x="496" y="-62.6" font-family="Times,serif" font-size="14.00">LoggerModule</text>
</g>
<!-- LoggerModule&#45;&gt;ToolModule -->
<g id="edge3" class="edge">
<title>LoggerModule&#45;&gt;ToolModule</title>
<path fill="none" stroke="black" d="M496,-85.11C496,-104.95 496,-133.8 496,-133.8 496,-133.8 1266.86,-133.8 1266.86,-133.8"/>
<polygon fill="black" stroke="black" points="1266.86,-137.3 1276.86,-133.8 1266.86,-130.3 1266.86,-137.3"/>
</g>
<!-- OauthProviderServiceModule -->
<g id="node4" class="node">
<title>OauthProviderServiceModule</title>
<polygon fill="#8dd3c7" stroke="black" points="427.96,-84.8 424.96,-88.8 403.96,-88.8 400.96,-84.8 244.04,-84.8 244.04,-48.8 427.96,-48.8 427.96,-84.8"/>
<text text-anchor="middle" x="336" y="-62.6" font-family="Times,serif" font-size="14.00">OauthProviderServiceModule</text>
</g>
<!-- OauthProviderServiceModule&#45;&gt;ToolModule -->
<g id="edge4" class="edge">
<title>OauthProviderServiceModule&#45;&gt;ToolModule</title>
<path fill="none" stroke="black" d="M336,-85.08C336,-106.12 336,-137.8 336,-137.8 336,-137.8 1266.77,-137.8 1266.77,-137.8"/>
<polygon fill="black" stroke="black" points="1266.77,-141.3 1276.77,-137.8 1266.77,-134.3 1266.77,-141.3"/>
</g>
<!-- SchoolModule -->
<g id="node5" class="node">
<title>SchoolModule</title>
<polygon fill="#8dd3c7" stroke="black" points="226.44,-84.8 223.44,-88.8 202.44,-88.8 199.44,-84.8 127.56,-84.8 127.56,-48.8 226.44,-48.8 226.44,-84.8"/>
<text text-anchor="middle" x="177" y="-62.6" font-family="Times,serif" font-size="14.00">SchoolModule</text>
</g>
<!-- SchoolModule&#45;&gt;ToolModule -->
<g id="edge5" class="edge">
<title>SchoolModule&#45;&gt;ToolModule</title>
<path fill="none" stroke="black" d="M177,-84.96C177,-107.15 177,-141.8 177,-141.8 177,-141.8 1266.93,-141.8 1266.93,-141.8"/>
<polygon fill="black" stroke="black" points="1266.93,-145.3 1276.93,-141.8 1266.93,-138.3 1266.93,-145.3"/>
</g>
<!-- UserModule -->
<g id="node6" class="node">
<title>UserModule</title>
<polygon fill="#8dd3c7" stroke="black" points="109.99,-84.8 106.99,-88.8 85.99,-88.8 82.99,-84.8 24.01,-84.8 24.01,-48.8 109.99,-48.8 109.99,-84.8"/>
<text text-anchor="middle" x="67" y="-62.6" font-family="Times,serif" font-size="14.00">UserModule</text>
</g>
<!-- UserModule&#45;&gt;ToolModule -->
<g id="edge6" class="edge">
<title>UserModule&#45;&gt;ToolModule</title>
<path fill="none" stroke="black" d="M67,-85.12C67,-108.46 67,-145.8 67,-145.8 67,-145.8 1266.87,-145.8 1266.87,-145.8"/>
<polygon fill="black" stroke="black" points="1266.87,-149.3 1276.87,-145.8 1266.87,-142.3 1266.87,-149.3"/>
</g>
<!-- ExternalToolRepo -->
<g id="node8" class="node">
<title>ExternalToolRepo</title>
<ellipse fill="#fdb462" stroke="black" cx="3033" cy="-66.8" rx="82.24" ry="18"/>
<text text-anchor="middle" x="3033" y="-62.6" font-family="Times,serif" font-size="14.00">ExternalToolRepo</text>
</g>
<!-- ExternalToolRepo&#45;&gt;ToolModule -->
<g id="edge7" class="edge">
<title>ExternalToolRepo&#45;&gt;ToolModule</title>
<path fill="none" stroke="black" d="M3033,-85.12C3033,-108.46 3033,-145.8 3033,-145.8 3033,-145.8 1373.2,-145.8 1373.2,-145.8"/>
<polygon fill="black" stroke="black" points="1373.2,-142.3 1363.2,-145.8 1373.2,-149.3 1373.2,-142.3"/>
</g>
<!-- ExternalToolRepoMapper -->
<g id="node9" class="node">
<title>ExternalToolRepoMapper</title>
<ellipse fill="#fdb462" stroke="black" cx="2820" cy="-66.8" rx="112.3" ry="18"/>
<text text-anchor="middle" x="2820" y="-62.6" font-family="Times,serif" font-size="14.00">ExternalToolRepoMapper</text>
</g>
<!-- ExternalToolRepoMapper&#45;&gt;ToolModule -->
<g id="edge8" class="edge">
<title>ExternalToolRepoMapper&#45;&gt;ToolModule</title>
<path fill="none" stroke="black" d="M2820,-84.96C2820,-107.15 2820,-141.8 2820,-141.8 2820,-141.8 1373.27,-141.8 1373.27,-141.8"/>
<polygon fill="black" stroke="black" points="1373.27,-138.3 1363.27,-141.8 1373.27,-145.3 1373.27,-138.3"/>
</g>
<!-- ExternalToolRequestMapper -->
<g id="node10" class="node">
<title>ExternalToolRequestMapper</title>
<ellipse fill="#fdb462" stroke="black" cx="2566" cy="-66.8" rx="123.26" ry="18"/>
<text text-anchor="middle" x="2566" y="-62.6" font-family="Times,serif" font-size="14.00">ExternalToolRequestMapper</text>
</g>
<!-- ExternalToolRequestMapper&#45;&gt;ToolModule -->
<g id="edge9" class="edge">
<title>ExternalToolRequestMapper&#45;&gt;ToolModule</title>
<path fill="none" stroke="black" d="M2566,-85.08C2566,-106.12 2566,-137.8 2566,-137.8 2566,-137.8 1373.25,-137.8 1373.25,-137.8"/>
<polygon fill="black" stroke="black" points="1373.25,-134.3 1363.25,-137.8 1373.25,-141.3 1373.25,-134.3"/>
</g>
<!-- ExternalToolResponseMapper -->
<g id="node11" class="node">
<title>ExternalToolResponseMapper</title>
<ellipse fill="#fdb462" stroke="black" cx="2296" cy="-66.8" rx="129.06" ry="18"/>
<text text-anchor="middle" x="2296" y="-62.6" font-family="Times,serif" font-size="14.00">ExternalToolResponseMapper</text>
</g>
<!-- ExternalToolResponseMapper&#45;&gt;ToolModule -->
<g id="edge10" class="edge">
<title>ExternalToolResponseMapper&#45;&gt;ToolModule</title>
<path fill="none" stroke="black" d="M2296,-85.11C2296,-104.95 2296,-133.8 2296,-133.8 2296,-133.8 1373.2,-133.8 1373.2,-133.8"/>
<polygon fill="black" stroke="black" points="1373.2,-130.3 1363.2,-133.8 1373.2,-137.3 1373.2,-130.3"/>
</g>
<!-- ExternalToolService -->
<g id="node12" class="node">
<title>ExternalToolService</title>
<ellipse fill="#fdb462" stroke="black" cx="2058" cy="-66.8" rx="90.88" ry="18"/>
<text text-anchor="middle" x="2058" y="-62.6" font-family="Times,serif" font-size="14.00">ExternalToolService</text>
</g>
<!-- ExternalToolService&#45;&gt;ToolModule -->
<g id="edge11" class="edge">
<title>ExternalToolService&#45;&gt;ToolModule</title>
<path fill="none" stroke="black" d="M2058,-85.02C2058,-103.63 2058,-129.8 2058,-129.8 2058,-129.8 1373.14,-129.8 1373.14,-129.8"/>
<polygon fill="black" stroke="black" points="1373.14,-126.3 1363.14,-129.8 1373.14,-133.3 1373.14,-126.3"/>
</g>
<!-- ExternalToolUc -->
<g id="node13" class="node">
<title>ExternalToolUc</title>
<ellipse fill="#fdb462" stroke="black" cx="1876" cy="-66.8" rx="73.49" ry="18"/>
<text text-anchor="middle" x="1876" y="-62.6" font-family="Times,serif" font-size="14.00">ExternalToolUc</text>
</g>
<!-- ExternalToolUc&#45;&gt;ToolModule -->
<g id="edge12" class="edge">
<title>ExternalToolUc&#45;&gt;ToolModule</title>
<path fill="none" stroke="black" d="M1876,-84.82C1876,-102.17 1876,-125.8 1876,-125.8 1876,-125.8 1373.17,-125.8 1373.17,-125.8"/>
<polygon fill="black" stroke="black" points="1373.17,-122.3 1363.17,-125.8 1373.17,-129.3 1373.17,-122.3"/>
</g>
<!-- Lti11ResponseMapper -->
<g id="node14" class="node">
<title>Lti11ResponseMapper</title>
<ellipse fill="#fdb462" stroke="black" cx="1686" cy="-66.8" rx="99.01" ry="18"/>
<text text-anchor="middle" x="1686" y="-62.6" font-family="Times,serif" font-size="14.00">Lti11ResponseMapper</text>
</g>
<!-- Lti11ResponseMapper&#45;&gt;ToolModule -->
<g id="edge13" class="edge">
<title>Lti11ResponseMapper&#45;&gt;ToolModule</title>
<path fill="none" stroke="black" d="M1686,-84.81C1686,-100.85 1686,-121.8 1686,-121.8 1686,-121.8 1373.06,-121.8 1373.06,-121.8"/>
<polygon fill="black" stroke="black" points="1373.06,-118.3 1363.06,-121.8 1373.06,-125.3 1373.06,-118.3"/>
</g>
<!-- Lti11Service -->
<g id="node15" class="node">
<title>Lti11Service</title>
<ellipse fill="#fdb462" stroke="black" cx="1508" cy="-66.8" rx="60.83" ry="18"/>
<text text-anchor="middle" x="1508" y="-62.6" font-family="Times,serif" font-size="14.00">Lti11Service</text>
</g>
<!-- Lti11Service&#45;&gt;ToolModule -->
<g id="edge14" class="edge">
<title>Lti11Service&#45;&gt;ToolModule</title>
<path fill="none" stroke="black" d="M1508,-84.92C1508,-99.58 1508,-117.8 1508,-117.8 1508,-117.8 1373.13,-117.8 1373.13,-117.8"/>
<polygon fill="black" stroke="black" points="1373.13,-114.3 1363.13,-117.8 1373.13,-121.3 1373.13,-114.3"/>
</g>
<!-- Lti11Uc -->
<g id="node16" class="node">
<title>Lti11Uc</title>
<ellipse fill="#fdb462" stroke="black" cx="1386" cy="-66.8" rx="43.44" ry="18"/>
<text text-anchor="middle" x="1386" y="-62.6" font-family="Times,serif" font-size="14.00">Lti11Uc</text>
</g>
<!-- Lti11Uc&#45;&gt;ToolModule -->
<g id="edge15" class="edge">
<title>Lti11Uc&#45;&gt;ToolModule</title>
<path fill="none" stroke="black" d="M1352.89,-78.42C1352.89,-78.42 1352.89,-103.65 1352.89,-103.65"/>
<polygon fill="black" stroke="black" points="1349.39,-103.65 1352.89,-113.65 1356.39,-103.65 1349.39,-103.65"/>
</g>
<!-- LtiRoleMapper -->
<g id="node17" class="node">
<title>LtiRoleMapper</title>
<ellipse fill="#fdb462" stroke="black" cx="1254" cy="-66.8" rx="70.64" ry="18"/>
<text text-anchor="middle" x="1254" y="-62.6" font-family="Times,serif" font-size="14.00">LtiRoleMapper</text>
</g>
<!-- LtiRoleMapper&#45;&gt;ToolModule -->
<g id="edge16" class="edge">
<title>LtiRoleMapper&#45;&gt;ToolModule</title>
<path fill="none" stroke="black" d="M1300.79,-80.58C1300.79,-80.58 1300.79,-103.35 1300.79,-103.35"/>
<polygon fill="black" stroke="black" points="1297.29,-103.35 1300.79,-113.35 1304.29,-103.35 1297.29,-103.35"/>
</g>
<!-- LtiToolRepo -->
<g id="node18" class="node">
<title>LtiToolRepo</title>
<ellipse fill="#fdb462" stroke="black" cx="1105" cy="-66.8" rx="60.85" ry="18"/>
<text text-anchor="middle" x="1105" y="-62.6" font-family="Times,serif" font-size="14.00">LtiToolRepo</text>
</g>
<!-- LtiToolRepo&#45;&gt;ToolModule -->
<g id="edge17" class="edge">
<title>LtiToolRepo&#45;&gt;ToolModule</title>
<path fill="none" stroke="black" d="M1105,-84.92C1105,-99.58 1105,-117.8 1105,-117.8 1105,-117.8 1266.75,-117.8 1266.75,-117.8"/>
<polygon fill="black" stroke="black" points="1266.75,-121.3 1276.75,-117.8 1266.75,-114.3 1266.75,-121.3"/>
</g>
<!-- PseudonymsRepo -->
<g id="node19" class="node">
<title>PseudonymsRepo</title>
<ellipse fill="#fdb462" stroke="black" cx="946" cy="-66.8" rx="80.5" ry="18"/>
<text text-anchor="middle" x="946" y="-62.6" font-family="Times,serif" font-size="14.00">PseudonymsRepo</text>
</g>
<!-- PseudonymsRepo&#45;&gt;ToolModule -->
<g id="edge18" class="edge">
<title>PseudonymsRepo&#45;&gt;ToolModule</title>
<path fill="none" stroke="black" d="M946,-84.81C946,-100.85 946,-121.8 946,-121.8 946,-121.8 1266.73,-121.8 1266.73,-121.8"/>
<polygon fill="black" stroke="black" points="1266.73,-125.3 1276.73,-121.8 1266.73,-118.3 1266.73,-125.3"/>
</g>
</g>
</svg>
