<?xml version="1.0" encoding="UTF-8" standalone="no"?>
<!DOCTYPE svg PUBLIC "-//W3C//DTD SVG 1.1//EN"
 "http://www.w3.org/Graphics/SVG/1.1/DTD/svg11.dtd">
<!-- Generated by graphviz version 5.0.0 (20220707.1540)
 -->
<!-- Title: dependencies Pages: 1 -->
<svg width="1476pt" height="174pt"
 viewBox="0.00 0.00 1476.00 173.80" xmlns="http://www.w3.org/2000/svg" xmlns:xlink="http://www.w3.org/1999/xlink">
<g id="graph0" class="graph" transform="scale(1 1) rotate(0) translate(4 169.8)">
<title>dependencies</title>
<polygon fill="white" stroke="transparent" points="-4,4 -4,-169.8 1472,-169.8 1472,4 -4,4"/>
<text text-anchor="middle" x="734" y="-8.2" font-family="sans-serif" font-size="14.00">dependencies</text>
<g id="clust1" class="cluster">
<title>cluster_ToolModule</title>
<polygon fill="none" stroke="black" stroke-dasharray="1,5" points="8,-32.8 8,-157.8 1460,-157.8 1460,-32.8 8,-32.8"/>
</g>
<g id="clust3" class="cluster">
<title>cluster_ToolModule_imports</title>
<polygon fill="none" stroke="black" points="1116,-40.8 1116,-92.8 1452,-92.8 1452,-40.8 1116,-40.8"/>
</g>
<g id="clust6" class="cluster">
<title>cluster_ToolModule_providers</title>
<polygon fill="none" stroke="black" points="16,-40.8 16,-92.8 1108,-92.8 1108,-40.8 16,-40.8"/>
</g>
<!-- LoggerModule -->
<g id="node1" class="node">
<title>LoggerModule</title>
<polygon fill="#8dd3c7" stroke="black" points="1443.98,-84.8 1440.98,-88.8 1419.98,-88.8 1416.98,-84.8 1344.02,-84.8 1344.02,-48.8 1443.98,-48.8 1443.98,-84.8"/>
<text text-anchor="middle" x="1394" y="-62.6" font-family="Times,serif" font-size="14.00">LoggerModule</text>
</g>
<!-- ToolModule -->
<g id="node4" class="node">
<title>ToolModule</title>
<polygon fill="#8dd3c7" stroke="black" points="804.99,-149.8 801.99,-153.8 780.99,-153.8 777.99,-149.8 719.01,-149.8 719.01,-113.8 804.99,-113.8 804.99,-149.8"/>
<text text-anchor="middle" x="762" y="-127.6" font-family="Times,serif" font-size="14.00">ToolModule</text>
</g>
<!-- LoggerModule&#45;&gt;ToolModule -->
<g id="edge1" class="edge">
<title>LoggerModule&#45;&gt;ToolModule</title>
<path fill="none" stroke="black" d="M1394,-84.81C1394,-107.29 1394,-142.8 1394,-142.8 1394,-142.8 815.44,-142.8 815.44,-142.8"/>
<polygon fill="black" stroke="black" points="815.44,-139.3 805.44,-142.8 815.44,-146.3 815.44,-139.3"/>
</g>
<!-- SchoolModule -->
<g id="node2" class="node">
<title>SchoolModule</title>
<polygon fill="#8dd3c7" stroke="black" points="1326.44,-84.8 1323.44,-88.8 1302.44,-88.8 1299.44,-84.8 1227.56,-84.8 1227.56,-48.8 1326.44,-48.8 1326.44,-84.8"/>
<text text-anchor="middle" x="1277" y="-62.6" font-family="Times,serif" font-size="14.00">SchoolModule</text>
</g>
<!-- SchoolModule&#45;&gt;ToolModule -->
<g id="edge2" class="edge">
<title>SchoolModule&#45;&gt;ToolModule</title>
<path fill="none" stroke="black" d="M1277,-84.93C1277,-105.37 1277,-135.8 1277,-135.8 1277,-135.8 815.02,-135.8 815.02,-135.8"/>
<polygon fill="black" stroke="black" points="815.02,-132.3 805.02,-135.8 815.02,-139.3 815.02,-132.3"/>
</g>
<!-- UserModule -->
<g id="node3" class="node">
<title>UserModule</title>
<polygon fill="#8dd3c7" stroke="black" points="1209.99,-84.8 1206.99,-88.8 1185.99,-88.8 1182.99,-84.8 1124.01,-84.8 1124.01,-48.8 1209.99,-48.8 1209.99,-84.8"/>
<text text-anchor="middle" x="1167" y="-62.6" font-family="Times,serif" font-size="14.00">UserModule</text>
</g>
<!-- UserModule&#45;&gt;ToolModule -->
<g id="edge3" class="edge">
<title>UserModule&#45;&gt;ToolModule</title>
<path fill="none" stroke="black" d="M1167,-85.07C1167,-103.36 1167,-128.8 1167,-128.8 1167,-128.8 815.34,-128.8 815.34,-128.8"/>
<polygon fill="black" stroke="black" points="815.34,-125.3 805.34,-128.8 815.34,-132.3 815.34,-125.3"/>
</g>
<!-- Lti11ResponseMapper -->
<g id="node5" class="node">
<title>Lti11ResponseMapper</title>
<ellipse fill="#fdb462" stroke="black" cx="1001" cy="-66.8" rx="99.01" ry="18"/>
<text text-anchor="middle" x="1001" y="-62.6" font-family="Times,serif" font-size="14.00">Lti11ResponseMapper</text>
</g>
<!-- Lti11ResponseMapper&#45;&gt;ToolModule -->
<g id="edge4" class="edge">
<title>Lti11ResponseMapper&#45;&gt;ToolModule</title>
<path fill="none" stroke="black" d="M1001,-84.81C1001,-100.85 1001,-121.8 1001,-121.8 1001,-121.8 815,-121.8 815,-121.8"/>
<polygon fill="black" stroke="black" points="815,-118.3 805,-121.8 815,-125.3 815,-118.3"/>
</g>
<!-- Lti11Service -->
<g id="node6" class="node">
<title>Lti11Service</title>
<ellipse fill="#fdb462" stroke="black" cx="823" cy="-66.8" rx="60.83" ry="18"/>
<text text-anchor="middle" x="823" y="-62.6" font-family="Times,serif" font-size="14.00">Lti11Service</text>
</g>
<!-- Lti11Service&#45;&gt;ToolModule -->
<g id="edge5" class="edge">
<title>Lti11Service&#45;&gt;ToolModule</title>
<path fill="none" stroke="black" d="M783.54,-80.58C783.54,-80.58 783.54,-103.35 783.54,-103.35"/>
<polygon fill="black" stroke="black" points="780.04,-103.35 783.54,-113.35 787.04,-103.35 780.04,-103.35"/>
</g>
<!-- Lti11Uc -->
<g id="node7" class="node">
<title>Lti11Uc</title>
<ellipse fill="#fdb462" stroke="black" cx="701" cy="-66.8" rx="43.44" ry="18"/>
<text text-anchor="middle" x="701" y="-62.6" font-family="Times,serif" font-size="14.00">Lti11Uc</text>
</g>
<!-- Lti11Uc&#45;&gt;ToolModule -->
<g id="edge6" class="edge">
<title>Lti11Uc&#45;&gt;ToolModule</title>
<path fill="none" stroke="black" d="M731.61,-79.64C731.61,-79.64 731.61,-103.32 731.61,-103.32"/>
<polygon fill="black" stroke="black" points="728.11,-103.32 731.61,-113.32 735.11,-103.32 728.11,-103.32"/>
</g>
<!-- LtiRoleMapper -->
<g id="node8" class="node">
<title>LtiRoleMapper</title>
<ellipse fill="#fdb462" stroke="black" cx="569" cy="-66.8" rx="70.64" ry="18"/>
<text text-anchor="middle" x="569" y="-62.6" font-family="Times,serif" font-size="14.00">LtiRoleMapper</text>
</g>
<!-- LtiRoleMapper&#45;&gt;ToolModule -->
<g id="edge7" class="edge">
<title>LtiRoleMapper&#45;&gt;ToolModule</title>
<path fill="none" stroke="black" d="M569,-84.81C569,-100.85 569,-121.8 569,-121.8 569,-121.8 708.69,-121.8 708.69,-121.8"/>
<polygon fill="black" stroke="black" points="708.69,-125.3 718.69,-121.8 708.69,-118.3 708.69,-125.3"/>
</g>
<!-- LtiToolRepo -->
<g id="node9" class="node">
<title>LtiToolRepo</title>
<ellipse fill="#fdb462" stroke="black" cx="420" cy="-66.8" rx="60.85" ry="18"/>
<text text-anchor="middle" x="420" y="-62.6" font-family="Times,serif" font-size="14.00">LtiToolRepo</text>
</g>
<!-- LtiToolRepo&#45;&gt;ToolModule -->
<g id="edge8" class="edge">
<title>LtiToolRepo&#45;&gt;ToolModule</title>
<path fill="none" stroke="black" d="M420,-85.07C420,-103.36 420,-128.8 420,-128.8 420,-128.8 708.69,-128.8 708.69,-128.8"/>
<polygon fill="black" stroke="black" points="708.69,-132.3 718.69,-128.8 708.69,-125.3 708.69,-132.3"/>
</g>
<!-- LtiToolService -->
<g id="node10" class="node">
<title>LtiToolService</title>
<ellipse fill="#fdb462" stroke="black" cx="272" cy="-66.8" rx="69.49" ry="18"/>
<text text-anchor="middle" x="272" y="-62.6" font-family="Times,serif" font-size="14.00">LtiToolService</text>
</g>
<!-- LtiToolService&#45;&gt;ToolModule -->
<g id="edge9" class="edge">
<title>LtiToolService&#45;&gt;ToolModule</title>
<path fill="none" stroke="black" d="M272,-84.93C272,-105.37 272,-135.8 272,-135.8 272,-135.8 708.95,-135.8 708.95,-135.8"/>
<polygon fill="black" stroke="black" points="708.95,-139.3 718.95,-135.8 708.95,-132.3 708.95,-139.3"/>
</g>
<!-- PseudonymsRepo -->
<g id="node11" class="node">
<title>PseudonymsRepo</title>
<ellipse fill="#fdb462" stroke="black" cx="104" cy="-66.8" rx="80.5" ry="18"/>
<text text-anchor="middle" x="104" y="-62.6" font-family="Times,serif" font-size="14.00">PseudonymsRepo</text>
</g>
<!-- PseudonymsRepo&#45;&gt;ToolModule -->
<g id="edge10" class="edge">
<title>PseudonymsRepo&#45;&gt;ToolModule</title>
<path fill="none" stroke="black" d="M104,-84.81C104,-107.29 104,-142.8 104,-142.8 104,-142.8 708.83,-142.8 708.83,-142.8"/>
<polygon fill="black" stroke="black" points="708.83,-146.3 718.83,-142.8 708.83,-139.3 708.83,-146.3"/>
</g>
</g>
</svg>
