<?xml version="1.0" encoding="UTF-8" standalone="no"?>
<!DOCTYPE svg PUBLIC "-//W3C//DTD SVG 1.1//EN"
 "http://www.w3.org/Graphics/SVG/1.1/DTD/svg11.dtd">
<!-- Generated by graphviz version 3.0.0 (20220226.1711)
 -->
<!-- Title: dependencies Pages: 1 -->
<svg width="2508pt" height="247pt"
 viewBox="0.00 0.00 2508.00 246.80" xmlns="http://www.w3.org/2000/svg" xmlns:xlink="http://www.w3.org/1999/xlink">
<g id="graph0" class="graph" transform="scale(1 1) rotate(0) translate(4 242.8)">
<title>dependencies</title>
<polygon fill="white" stroke="transparent" points="-4,4 -4,-242.8 2504,-242.8 2504,4 -4,4"/>
<text text-anchor="middle" x="1250" y="-8.2" font-family="sans-serif" font-size="14.00">dependencies</text>
<g id="clust1" class="cluster">
<title>cluster_AuthorizationModule</title>
<polygon fill="none" stroke="black" stroke-dasharray="1,5" points="8,-32.8 8,-230.8 2492,-230.8 2492,-32.8 8,-32.8"/>
</g>
<g id="clust3" class="cluster">
<title>cluster_AuthorizationModule_imports</title>
<polygon fill="none" stroke="black" points="2362,-40.8 2362,-92.8 2484,-92.8 2484,-40.8 2362,-40.8"/>
</g>
<g id="clust4" class="cluster">
<title>cluster_AuthorizationModule_exports</title>
<polygon fill="none" stroke="black" points="780,-170.8 780,-222.8 1293,-222.8 1293,-170.8 780,-170.8"/>
</g>
<g id="clust6" class="cluster">
<title>cluster_AuthorizationModule_providers</title>
<polygon fill="none" stroke="black" points="16,-40.8 16,-92.8 2354,-92.8 2354,-40.8 16,-40.8"/>
</g>
<!-- FeathersModule -->
<g id="node1" class="node">
<title>FeathersModule</title>
<polygon fill="#8dd3c7" stroke="black" points="2476.48,-84.8 2473.48,-88.8 2452.48,-88.8 2449.48,-84.8 2369.52,-84.8 2369.52,-48.8 2476.48,-48.8 2476.48,-84.8"/>
<text text-anchor="middle" x="2423" y="-62.6" font-family="Times,serif" font-size="14.00">FeathersModule</text>
</g>
<!-- AuthorizationModule -->
<g id="node2" class="node">
<title>AuthorizationModule</title>
<polygon fill="#8dd3c7" stroke="black" points="1102.81,-149.8 1099.81,-153.8 1078.81,-153.8 1075.81,-149.8 965.19,-149.8 965.19,-113.8 1102.81,-113.8 1102.81,-149.8"/>
<text text-anchor="middle" x="1034" y="-127.6" font-family="Times,serif" font-size="14.00">AuthorizationModule</text>
</g>
<!-- FeathersModule&#45;&gt;AuthorizationModule -->
<g id="edge1" class="edge">
<title>FeathersModule&#45;&gt;AuthorizationModule</title>
<path fill="none" stroke="black" d="M2423,-84.96C2423,-107.15 2423,-141.8 2423,-141.8 2423,-141.8 1112.88,-141.8 1112.88,-141.8"/>
<polygon fill="black" stroke="black" points="1112.88,-138.3 1102.88,-141.8 1112.88,-145.3 1112.88,-138.3"/>
</g>
<!-- AuthorizationService  -->
<g id="node3" class="node">
<title>AuthorizationService </title>
<polygon fill="#fb8072" stroke="black" points="1284.74,-214.8 1145.26,-214.8 1145.26,-178.8 1284.74,-178.8 1284.74,-214.8"/>
<text text-anchor="middle" x="1215" y="-192.6" font-family="Times,serif" font-size="14.00">AuthorizationService </text>
</g>
<!-- AuthorizationModule&#45;&gt;AuthorizationService  -->
<g id="edge2" class="edge">
<title>AuthorizationModule&#45;&gt;AuthorizationService </title>
<path fill="none" stroke="black" stroke-dasharray="5,2" d="M1102.87,-145.8C1136.31,-145.8 1169.36,-145.8 1169.36,-145.8 1169.36,-145.8 1169.36,-168.68 1169.36,-168.68"/>
<polygon fill="black" stroke="black" points="1165.86,-168.68 1169.36,-178.68 1172.86,-168.68 1165.86,-168.68"/>
</g>
<!-- FeathersAuthorizationService  -->
<g id="node4" class="node">
<title>FeathersAuthorizationService </title>
<polygon fill="#fb8072" stroke="black" points="1127.17,-214.8 940.83,-214.8 940.83,-178.8 1127.17,-178.8 1127.17,-214.8"/>
<text text-anchor="middle" x="1034" y="-192.6" font-family="Times,serif" font-size="14.00">FeathersAuthorizationService </text>
</g>
<!-- AuthorizationModule&#45;&gt;FeathersAuthorizationService  -->
<g id="edge3" class="edge">
<title>AuthorizationModule&#45;&gt;FeathersAuthorizationService </title>
<path fill="none" stroke="black" stroke-dasharray="5,2" d="M1034,-149.91C1034,-149.91 1034,-168.79 1034,-168.79"/>
<polygon fill="black" stroke="black" points="1030.5,-168.79 1034,-178.79 1037.5,-168.79 1030.5,-168.79"/>
</g>
<!-- FeathersJwtProvider  -->
<g id="node5" class="node">
<title>FeathersJwtProvider </title>
<polygon fill="#fb8072" stroke="black" points="922.09,-214.8 787.91,-214.8 787.91,-178.8 922.09,-178.8 922.09,-214.8"/>
<text text-anchor="middle" x="855" y="-192.6" font-family="Times,serif" font-size="14.00">FeathersJwtProvider </text>
</g>
<!-- AuthorizationModule&#45;&gt;FeathersJwtProvider  -->
<g id="edge4" class="edge">
<title>AuthorizationModule&#45;&gt;FeathersJwtProvider </title>
<path fill="none" stroke="black" stroke-dasharray="5,2" d="M965.04,-145.8C930.9,-145.8 896.89,-145.8 896.89,-145.8 896.89,-145.8 896.89,-168.68 896.89,-168.68"/>
<polygon fill="black" stroke="black" points="893.39,-168.68 896.89,-178.68 900.39,-168.68 893.39,-168.68"/>
</g>
<!-- AuthorizationService -->
<g id="node6" class="node">
<title>AuthorizationService</title>
<ellipse fill="#fdb462" stroke="black" cx="2252" cy="-66.8" rx="93.76" ry="18"/>
<text text-anchor="middle" x="2252" y="-62.6" font-family="Times,serif" font-size="14.00">AuthorizationService</text>
</g>
<!-- AuthorizationService&#45;&gt;AuthorizationModule -->
<g id="edge5" class="edge">
<title>AuthorizationService&#45;&gt;AuthorizationModule</title>
<path fill="none" stroke="black" d="M2252,-85.08C2252,-106.12 2252,-137.8 2252,-137.8 2252,-137.8 1112.97,-137.8 1112.97,-137.8"/>
<polygon fill="black" stroke="black" points="1112.97,-134.3 1102.97,-137.8 1112.97,-141.3 1112.97,-134.3"/>
</g>
<!-- CourseRepo -->
<g id="node7" class="node">
<title>CourseRepo</title>
<ellipse fill="#fdb462" stroke="black" cx="2082" cy="-66.8" rx="58.56" ry="18"/>
<text text-anchor="middle" x="2082" y="-62.6" font-family="Times,serif" font-size="14.00">CourseRepo</text>
</g>
<!-- CourseRepo&#45;&gt;AuthorizationModule -->
<g id="edge6" class="edge">
<title>CourseRepo&#45;&gt;AuthorizationModule</title>
<path fill="none" stroke="black" d="M2082,-85.11C2082,-104.95 2082,-133.8 2082,-133.8 2082,-133.8 1112.76,-133.8 1112.76,-133.8"/>
<polygon fill="black" stroke="black" points="1112.76,-130.3 1102.76,-133.8 1112.76,-137.3 1112.76,-130.3"/>
</g>
<!-- CourseRule -->
<g id="node8" class="node">
<title>CourseRule</title>
<ellipse fill="#fdb462" stroke="black" cx="1949" cy="-66.8" rx="56.77" ry="18"/>
<text text-anchor="middle" x="1949" y="-62.6" font-family="Times,serif" font-size="14.00">CourseRule</text>
</g>
<!-- CourseRule&#45;&gt;AuthorizationModule -->
<g id="edge7" class="edge">
<title>CourseRule&#45;&gt;AuthorizationModule</title>
<path fill="none" stroke="black" d="M1949,-85.02C1949,-103.63 1949,-129.8 1949,-129.8 1949,-129.8 1112.77,-129.8 1112.77,-129.8"/>
<polygon fill="black" stroke="black" points="1112.77,-126.3 1102.77,-129.8 1112.77,-133.3 1112.77,-126.3"/>
</g>
<!-- FeathersAuthProvider -->
<g id="node9" class="node">
<title>FeathersAuthProvider</title>
<ellipse fill="#fdb462" stroke="black" cx="1778" cy="-66.8" rx="96.14" ry="18"/>
<text text-anchor="middle" x="1778" y="-62.6" font-family="Times,serif" font-size="14.00">FeathersAuthProvider</text>
</g>
<!-- FeathersAuthProvider&#45;&gt;AuthorizationModule -->
<g id="edge8" class="edge">
<title>FeathersAuthProvider&#45;&gt;AuthorizationModule</title>
<path fill="none" stroke="black" d="M1778,-84.82C1778,-102.17 1778,-125.8 1778,-125.8 1778,-125.8 1112.66,-125.8 1112.66,-125.8"/>
<polygon fill="black" stroke="black" points="1112.66,-122.3 1102.66,-125.8 1112.66,-129.3 1112.66,-122.3"/>
</g>
<!-- FeathersAuthorizationService -->
<g id="node10" class="node">
<title>FeathersAuthorizationService</title>
<ellipse fill="#fdb462" stroke="black" cx="1537" cy="-66.8" rx="126.19" ry="18"/>
<text text-anchor="middle" x="1537" y="-62.6" font-family="Times,serif" font-size="14.00">FeathersAuthorizationService</text>
</g>
<!-- FeathersAuthorizationService&#45;&gt;AuthorizationModule -->
<g id="edge9" class="edge">
<title>FeathersAuthorizationService&#45;&gt;AuthorizationModule</title>
<path fill="none" stroke="black" d="M1537,-84.81C1537,-100.85 1537,-121.8 1537,-121.8 1537,-121.8 1112.89,-121.8 1112.89,-121.8"/>
<polygon fill="black" stroke="black" points="1112.89,-118.3 1102.89,-121.8 1112.89,-125.3 1112.89,-118.3"/>
</g>
<!-- FeathersJwtProvider -->
<g id="node11" class="node">
<title>FeathersJwtProvider</title>
<ellipse fill="#fdb462" stroke="black" cx="1302" cy="-66.8" rx="90.35" ry="18"/>
<text text-anchor="middle" x="1302" y="-62.6" font-family="Times,serif" font-size="14.00">FeathersJwtProvider</text>
</g>
<!-- FeathersJwtProvider&#45;&gt;AuthorizationModule -->
<g id="edge10" class="edge">
<title>FeathersJwtProvider&#45;&gt;AuthorizationModule</title>
<path fill="none" stroke="black" d="M1248.1,-81.28C1248.1,-96.36 1248.1,-117.8 1248.1,-117.8 1248.1,-117.8 1112.92,-117.8 1112.92,-117.8"/>
<polygon fill="black" stroke="black" points="1112.92,-114.3 1102.92,-117.8 1112.92,-121.3 1112.92,-114.3"/>
</g>
<!-- FileRecordRepo -->
<g id="node12" class="node">
<title>FileRecordRepo</title>
<ellipse fill="#fdb462" stroke="black" cx="1119" cy="-66.8" rx="74.16" ry="18"/>
<text text-anchor="middle" x="1119" y="-62.6" font-family="Times,serif" font-size="14.00">FileRecordRepo</text>
</g>
<!-- FileRecordRepo&#45;&gt;AuthorizationModule -->
<g id="edge11" class="edge">
<title>FileRecordRepo&#45;&gt;AuthorizationModule</title>
<path fill="none" stroke="black" d="M1073.66,-81.23C1073.66,-81.23 1073.66,-103.69 1073.66,-103.69"/>
<polygon fill="black" stroke="black" points="1070.16,-103.69 1073.66,-113.69 1077.16,-103.69 1070.16,-103.69"/>
</g>
<!-- ReferenceLoader -->
<g id="node13" class="node">
<title>ReferenceLoader</title>
<ellipse fill="#fdb462" stroke="black" cx="949" cy="-66.8" rx="77.53" ry="18"/>
<text text-anchor="middle" x="949" y="-62.6" font-family="Times,serif" font-size="14.00">ReferenceLoader</text>
</g>
<!-- ReferenceLoader&#45;&gt;AuthorizationModule -->
<g id="edge12" class="edge">
<title>ReferenceLoader&#45;&gt;AuthorizationModule</title>
<path fill="none" stroke="black" d="M995.93,-81.23C995.93,-81.23 995.93,-103.69 995.93,-103.69"/>
<polygon fill="black" stroke="black" points="992.43,-103.69 995.93,-113.69 999.43,-103.69 992.43,-103.69"/>
</g>
<!-- SchoolRepo -->
<g id="node14" class="node">
<title>SchoolRepo</title>
<ellipse fill="#fdb462" stroke="black" cx="795" cy="-66.8" rx="58.49" ry="18"/>
<text text-anchor="middle" x="795" y="-62.6" font-family="Times,serif" font-size="14.00">SchoolRepo</text>
</g>
<!-- SchoolRepo&#45;&gt;AuthorizationModule -->
<g id="edge13" class="edge">
<title>SchoolRepo&#45;&gt;AuthorizationModule</title>
<path fill="none" stroke="black" d="M820.48,-83.22C820.48,-98.13 820.48,-117.8 820.48,-117.8 820.48,-117.8 955.26,-117.8 955.26,-117.8"/>
<polygon fill="black" stroke="black" points="955.26,-121.3 965.26,-117.8 955.26,-114.3 955.26,-121.3"/>
</g>
<!-- SchoolRule -->
<g id="node15" class="node">
<title>SchoolRule</title>
<ellipse fill="#fdb462" stroke="black" cx="663" cy="-66.8" rx="56.2" ry="18"/>
<text text-anchor="middle" x="663" y="-62.6" font-family="Times,serif" font-size="14.00">SchoolRule</text>
</g>
<!-- SchoolRule&#45;&gt;AuthorizationModule -->
<g id="edge14" class="edge">
<title>SchoolRule&#45;&gt;AuthorizationModule</title>
<path fill="none" stroke="black" d="M663,-84.81C663,-100.85 663,-121.8 663,-121.8 663,-121.8 955.09,-121.8 955.09,-121.8"/>
<polygon fill="black" stroke="black" points="955.09,-125.3 965.09,-121.8 955.09,-118.3 955.09,-125.3"/>
</g>
<!-- TaskRepo -->
<g id="node16" class="node">
<title>TaskRepo</title>
<ellipse fill="#fdb462" stroke="black" cx="539" cy="-66.8" rx="50.39" ry="18"/>
<text text-anchor="middle" x="539" y="-62.6" font-family="Times,serif" font-size="14.00">TaskRepo</text>
</g>
<!-- TaskRepo&#45;&gt;AuthorizationModule -->
<g id="edge15" class="edge">
<title>TaskRepo&#45;&gt;AuthorizationModule</title>
<path fill="none" stroke="black" d="M539,-84.82C539,-102.17 539,-125.8 539,-125.8 539,-125.8 955.17,-125.8 955.17,-125.8"/>
<polygon fill="black" stroke="black" points="955.17,-129.3 965.17,-125.8 955.17,-122.3 955.17,-129.3"/>
</g>
<!-- TaskRule -->
<g id="node17" class="node">
<title>TaskRule</title>
<ellipse fill="#fdb462" stroke="black" cx="423" cy="-66.8" rx="48.09" ry="18"/>
<text text-anchor="middle" x="423" y="-62.6" font-family="Times,serif" font-size="14.00">TaskRule</text>
</g>
<!-- TaskRule&#45;&gt;AuthorizationModule -->
<g id="edge16" class="edge">
<title>TaskRule&#45;&gt;AuthorizationModule</title>
<path fill="none" stroke="black" d="M423,-85.02C423,-103.63 423,-129.8 423,-129.8 423,-129.8 955.1,-129.8 955.1,-129.8"/>
<polygon fill="black" stroke="black" points="955.1,-133.3 965.1,-129.8 955.1,-126.3 955.1,-133.3"/>
</g>
<!-- TeamRule -->
<g id="node18" class="node">
<title>TeamRule</title>
<ellipse fill="#fdb462" stroke="black" cx="306" cy="-66.8" rx="51.02" ry="18"/>
<text text-anchor="middle" x="306" y="-62.6" font-family="Times,serif" font-size="14.00">TeamRule</text>
</g>
<!-- TeamRule&#45;&gt;AuthorizationModule -->
<g id="edge17" class="edge">
<title>TeamRule&#45;&gt;AuthorizationModule</title>
<path fill="none" stroke="black" d="M306,-85.11C306,-104.95 306,-133.8 306,-133.8 306,-133.8 955.18,-133.8 955.18,-133.8"/>
<polygon fill="black" stroke="black" points="955.18,-137.3 965.18,-133.8 955.18,-130.3 955.18,-137.3"/>
</g>
<!-- UserRepo -->
<g id="node19" class="node">
<title>UserRepo</title>
<ellipse fill="#fdb462" stroke="black" cx="187" cy="-66.8" rx="49.81" ry="18"/>
<text text-anchor="middle" x="187" y="-62.6" font-family="Times,serif" font-size="14.00">UserRepo</text>
</g>
<!-- UserRepo&#45;&gt;AuthorizationModule -->
<g id="edge18" class="edge">
<title>UserRepo&#45;&gt;AuthorizationModule</title>
<path fill="none" stroke="black" d="M187,-85.08C187,-106.12 187,-137.8 187,-137.8 187,-137.8 955.05,-137.8 955.05,-137.8"/>
<polygon fill="black" stroke="black" points="955.05,-141.3 965.05,-137.8 955.05,-134.3 955.05,-141.3"/>
</g>
<!-- UserRule -->
<g id="node20" class="node">
<title>UserRule</title>
<ellipse fill="#fdb462" stroke="black" cx="72" cy="-66.8" rx="47.52" ry="18"/>
<text text-anchor="middle" x="72" y="-62.6" font-family="Times,serif" font-size="14.00">UserRule</text>
</g>
<!-- UserRule&#45;&gt;AuthorizationModule -->
<g id="edge19" class="edge">
<title>UserRule&#45;&gt;AuthorizationModule</title>
<path fill="none" stroke="black" d="M72,-84.96C72,-107.15 72,-141.8 72,-141.8 72,-141.8 955.2,-141.8 955.2,-141.8"/>
<polygon fill="black" stroke="black" points="955.2,-145.3 965.2,-141.8 955.2,-138.3 955.2,-145.3"/>
</g>
</g>
</svg>
