<?xml version="1.0" encoding="UTF-8" standalone="no"?>
<!DOCTYPE svg PUBLIC "-//W3C//DTD SVG 1.1//EN"
 "http://www.w3.org/Graphics/SVG/1.1/DTD/svg11.dtd">
<!-- Generated by graphviz version 5.0.0 (20220707.1540)
 -->
<!-- Title: dependencies Pages: 1 -->
<svg width="2639pt" height="247pt"
 viewBox="0.00 0.00 2639.00 246.80" xmlns="http://www.w3.org/2000/svg" xmlns:xlink="http://www.w3.org/1999/xlink">
<g id="graph0" class="graph" transform="scale(1 1) rotate(0) translate(4 242.8)">
<title>dependencies</title>
<polygon fill="white" stroke="transparent" points="-4,4 -4,-242.8 2635,-242.8 2635,4 -4,4"/>
<text text-anchor="middle" x="1315.5" y="-8.2" font-family="sans-serif" font-size="14.00">dependencies</text>
<g id="clust1" class="cluster">
<title>cluster_AuthorizationModule</title>
<polygon fill="none" stroke="black" stroke-dasharray="1,5" points="8,-32.8 8,-230.8 2623,-230.8 2623,-32.8 8,-32.8"/>
</g>
<g id="clust4" class="cluster">
<title>cluster_AuthorizationModule_exports</title>
<polygon fill="none" stroke="black" points="847,-170.8 847,-222.8 1360,-222.8 1360,-170.8 847,-170.8"/>
</g>
<g id="clust3" class="cluster">
<title>cluster_AuthorizationModule_imports</title>
<polygon fill="none" stroke="black" points="2493,-40.8 2493,-92.8 2615,-92.8 2615,-40.8 2493,-40.8"/>
</g>
<g id="clust6" class="cluster">
<title>cluster_AuthorizationModule_providers</title>
<polygon fill="none" stroke="black" points="16,-40.8 16,-92.8 2485,-92.8 2485,-40.8 16,-40.8"/>
</g>
<!-- FeathersModule -->
<g id="node1" class="node">
<title>FeathersModule</title>
<polygon fill="#8dd3c7" stroke="black" points="2607.48,-84.8 2604.48,-88.8 2583.48,-88.8 2580.48,-84.8 2500.52,-84.8 2500.52,-48.8 2607.48,-48.8 2607.48,-84.8"/>
<text text-anchor="middle" x="2554" y="-62.6" font-family="Times,serif" font-size="14.00">FeathersModule</text>
</g>
<!-- AuthorizationModule -->
<g id="node2" class="node">
<title>AuthorizationModule</title>
<polygon fill="#8dd3c7" stroke="black" points="1169.81,-149.8 1166.81,-153.8 1145.81,-153.8 1142.81,-149.8 1032.19,-149.8 1032.19,-113.8 1169.81,-113.8 1169.81,-149.8"/>
<text text-anchor="middle" x="1101" y="-127.6" font-family="Times,serif" font-size="14.00">AuthorizationModule</text>
</g>
<!-- FeathersModule&#45;&gt;AuthorizationModule -->
<g id="edge1" class="edge">
<title>FeathersModule&#45;&gt;AuthorizationModule</title>
<path fill="none" stroke="black" d="M2554,-84.96C2554,-107.15 2554,-141.8 2554,-141.8 2554,-141.8 1180.1,-141.8 1180.1,-141.8"/>
<polygon fill="black" stroke="black" points="1180.1,-138.3 1170.1,-141.8 1180.1,-145.3 1180.1,-138.3"/>
</g>
<!-- AuthorizationService  -->
<g id="node3" class="node">
<title>AuthorizationService </title>
<polygon fill="#fb8072" stroke="black" points="1351.74,-214.8 1212.26,-214.8 1212.26,-178.8 1351.74,-178.8 1351.74,-214.8"/>
<text text-anchor="middle" x="1282" y="-192.6" font-family="Times,serif" font-size="14.00">AuthorizationService </text>
</g>
<!-- AuthorizationModule&#45;&gt;AuthorizationService  -->
<g id="edge2" class="edge">
<title>AuthorizationModule&#45;&gt;AuthorizationService </title>
<path fill="none" stroke="black" stroke-dasharray="5,2" d="M1170.04,-145.8C1216.14,-145.8 1268.36,-145.8 1268.36,-145.8 1268.36,-145.8 1268.36,-168.68 1268.36,-168.68"/>
<polygon fill="black" stroke="black" points="1264.86,-168.68 1268.36,-178.68 1271.86,-168.68 1264.86,-168.68"/>
</g>
<!-- FeathersAuthorizationService  -->
<g id="node4" class="node">
<title>FeathersAuthorizationService </title>
<polygon fill="#fb8072" stroke="black" points="1194.17,-214.8 1007.83,-214.8 1007.83,-178.8 1194.17,-178.8 1194.17,-214.8"/>
<text text-anchor="middle" x="1101" y="-192.6" font-family="Times,serif" font-size="14.00">FeathersAuthorizationService </text>
</g>
<!-- AuthorizationModule&#45;&gt;FeathersAuthorizationService  -->
<g id="edge3" class="edge">
<title>AuthorizationModule&#45;&gt;FeathersAuthorizationService </title>
<path fill="none" stroke="black" stroke-dasharray="5,2" d="M1101,-149.91C1101,-149.91 1101,-168.79 1101,-168.79"/>
<polygon fill="black" stroke="black" points="1097.5,-168.79 1101,-178.79 1104.5,-168.79 1097.5,-168.79"/>
</g>
<!-- FeathersJwtProvider  -->
<g id="node5" class="node">
<title>FeathersJwtProvider </title>
<polygon fill="#fb8072" stroke="black" points="989.09,-214.8 854.91,-214.8 854.91,-178.8 989.09,-178.8 989.09,-214.8"/>
<text text-anchor="middle" x="922" y="-192.6" font-family="Times,serif" font-size="14.00">FeathersJwtProvider </text>
</g>
<!-- AuthorizationModule&#45;&gt;FeathersJwtProvider  -->
<g id="edge4" class="edge">
<title>AuthorizationModule&#45;&gt;FeathersJwtProvider </title>
<path fill="none" stroke="black" stroke-dasharray="5,2" d="M1032.1,-145.8C984.75,-145.8 930.39,-145.8 930.39,-145.8 930.39,-145.8 930.39,-168.68 930.39,-168.68"/>
<polygon fill="black" stroke="black" points="926.89,-168.68 930.39,-178.68 933.89,-168.68 926.89,-168.68"/>
</g>
<!-- AuthorizationService -->
<g id="node6" class="node">
<title>AuthorizationService</title>
<ellipse fill="#fdb462" stroke="black" cx="2383" cy="-66.8" rx="93.76" ry="18"/>
<text text-anchor="middle" x="2383" y="-62.6" font-family="Times,serif" font-size="14.00">AuthorizationService</text>
</g>
<!-- AuthorizationService&#45;&gt;AuthorizationModule -->
<g id="edge5" class="edge">
<title>AuthorizationService&#45;&gt;AuthorizationModule</title>
<path fill="none" stroke="black" d="M2383,-85.08C2383,-106.12 2383,-137.8 2383,-137.8 2383,-137.8 1179.93,-137.8 1179.93,-137.8"/>
<polygon fill="black" stroke="black" points="1179.93,-134.3 1169.93,-137.8 1179.93,-141.3 1179.93,-134.3"/>
</g>
<!-- CourseRepo -->
<g id="node7" class="node">
<title>CourseRepo</title>
<ellipse fill="#fdb462" stroke="black" cx="2213" cy="-66.8" rx="58.56" ry="18"/>
<text text-anchor="middle" x="2213" y="-62.6" font-family="Times,serif" font-size="14.00">CourseRepo</text>
</g>
<!-- CourseRepo&#45;&gt;AuthorizationModule -->
<g id="edge6" class="edge">
<title>CourseRepo&#45;&gt;AuthorizationModule</title>
<path fill="none" stroke="black" d="M2213,-85.11C2213,-104.95 2213,-133.8 2213,-133.8 2213,-133.8 1179.72,-133.8 1179.72,-133.8"/>
<polygon fill="black" stroke="black" points="1179.72,-130.3 1169.72,-133.8 1179.72,-137.3 1179.72,-130.3"/>
</g>
<!-- CourseRule -->
<g id="node8" class="node">
<title>CourseRule</title>
<ellipse fill="#fdb462" stroke="black" cx="2080" cy="-66.8" rx="56.77" ry="18"/>
<text text-anchor="middle" x="2080" y="-62.6" font-family="Times,serif" font-size="14.00">CourseRule</text>
</g>
<!-- CourseRule&#45;&gt;AuthorizationModule -->
<g id="edge7" class="edge">
<title>CourseRule&#45;&gt;AuthorizationModule</title>
<path fill="none" stroke="black" d="M2080,-85.02C2080,-103.63 2080,-129.8 2080,-129.8 2080,-129.8 1179.84,-129.8 1179.84,-129.8"/>
<polygon fill="black" stroke="black" points="1179.84,-126.3 1169.84,-129.8 1179.84,-133.3 1179.84,-126.3"/>
</g>
<!-- FeathersAuthProvider -->
<g id="node9" class="node">
<title>FeathersAuthProvider</title>
<ellipse fill="#fdb462" stroke="black" cx="1909" cy="-66.8" rx="96.14" ry="18"/>
<text text-anchor="middle" x="1909" y="-62.6" font-family="Times,serif" font-size="14.00">FeathersAuthProvider</text>
</g>
<!-- FeathersAuthProvider&#45;&gt;AuthorizationModule -->
<g id="edge8" class="edge">
<title>FeathersAuthProvider&#45;&gt;AuthorizationModule</title>
<path fill="none" stroke="black" d="M1909,-84.82C1909,-102.17 1909,-125.8 1909,-125.8 1909,-125.8 1179.89,-125.8 1179.89,-125.8"/>
<polygon fill="black" stroke="black" points="1179.89,-122.3 1169.89,-125.8 1179.89,-129.3 1179.89,-122.3"/>
</g>
<!-- FeathersAuthorizationService -->
<g id="node10" class="node">
<title>FeathersAuthorizationService</title>
<ellipse fill="#fdb462" stroke="black" cx="1668" cy="-66.8" rx="126.19" ry="18"/>
<text text-anchor="middle" x="1668" y="-62.6" font-family="Times,serif" font-size="14.00">FeathersAuthorizationService</text>
</g>
<!-- FeathersAuthorizationService&#45;&gt;AuthorizationModule -->
<g id="edge9" class="edge">
<title>FeathersAuthorizationService&#45;&gt;AuthorizationModule</title>
<path fill="none" stroke="black" d="M1668,-84.81C1668,-100.85 1668,-121.8 1668,-121.8 1668,-121.8 1179.68,-121.8 1179.68,-121.8"/>
<polygon fill="black" stroke="black" points="1179.68,-118.3 1169.68,-121.8 1179.68,-125.3 1179.68,-118.3"/>
</g>
<!-- FeathersJwtProvider -->
<g id="node11" class="node">
<title>FeathersJwtProvider</title>
<ellipse fill="#fdb462" stroke="black" cx="1433" cy="-66.8" rx="90.35" ry="18"/>
<text text-anchor="middle" x="1433" y="-62.6" font-family="Times,serif" font-size="14.00">FeathersJwtProvider</text>
</g>
<!-- FeathersJwtProvider&#45;&gt;AuthorizationModule -->
<g id="edge10" class="edge">
<title>FeathersJwtProvider&#45;&gt;AuthorizationModule</title>
<path fill="none" stroke="black" d="M1347.1,-72.65C1347.1,-86.05 1347.1,-117.8 1347.1,-117.8 1347.1,-117.8 1179.88,-117.8 1179.88,-117.8"/>
<polygon fill="black" stroke="black" points="1179.88,-114.3 1169.88,-117.8 1179.88,-121.3 1179.88,-114.3"/>
</g>
<!-- FileRecordRepo -->
<g id="node12" class="node">
<title>FileRecordRepo</title>
<ellipse fill="#fdb462" stroke="black" cx="1250" cy="-66.8" rx="74.16" ry="18"/>
<text text-anchor="middle" x="1250" y="-62.6" font-family="Times,serif" font-size="14.00">FileRecordRepo</text>
</g>
<!-- FileRecordRepo&#45;&gt;AuthorizationModule -->
<g id="edge11" class="edge">
<title>FileRecordRepo&#45;&gt;AuthorizationModule</title>
<path fill="none" stroke="black" d="M1175.65,-66.8C1168.39,-66.8 1163.64,-66.8 1163.64,-66.8 1163.64,-66.8 1163.64,-103.69 1163.64,-103.69"/>
<polygon fill="black" stroke="black" points="1160.14,-103.69 1163.64,-113.69 1167.14,-103.69 1160.14,-103.69"/>
</g>
<!-- LessonRule -->
<g id="node13" class="node">
<title>LessonRule</title>
<ellipse fill="#fdb462" stroke="black" cx="1101" cy="-66.8" rx="56.77" ry="18"/>
<text text-anchor="middle" x="1101" y="-62.6" font-family="Times,serif" font-size="14.00">LessonRule</text>
</g>
<!-- LessonRule&#45;&gt;AuthorizationModule -->
<g id="edge12" class="edge">
<title>LessonRule&#45;&gt;AuthorizationModule</title>
<path fill="none" stroke="black" d="M1101,-84.91C1101,-84.91 1101,-103.79 1101,-103.79"/>
<polygon fill="black" stroke="black" points="1097.5,-103.79 1101,-113.79 1104.5,-103.79 1097.5,-103.79"/>
</g>
<!-- ReferenceLoader -->
<g id="node14" class="node">
<title>ReferenceLoader</title>
<ellipse fill="#fdb462" stroke="black" cx="949" cy="-66.8" rx="77.53" ry="18"/>
<text text-anchor="middle" x="949" y="-62.6" font-family="Times,serif" font-size="14.00">ReferenceLoader</text>
</g>
<!-- ReferenceLoader&#45;&gt;AuthorizationModule -->
<g id="edge13" class="edge">
<title>ReferenceLoader&#45;&gt;AuthorizationModule</title>
<path fill="none" stroke="black" d="M1026.67,-66.8C1033.77,-66.8 1038.36,-66.8 1038.36,-66.8 1038.36,-66.8 1038.36,-103.69 1038.36,-103.69"/>
<polygon fill="black" stroke="black" points="1034.86,-103.69 1038.36,-113.69 1041.86,-103.69 1034.86,-103.69"/>
</g>
<!-- SchoolRepo -->
<g id="node15" class="node">
<title>SchoolRepo</title>
<ellipse fill="#fdb462" stroke="black" cx="795" cy="-66.8" rx="58.49" ry="18"/>
<text text-anchor="middle" x="795" y="-62.6" font-family="Times,serif" font-size="14.00">SchoolRepo</text>
</g>
<!-- SchoolRepo&#45;&gt;AuthorizationModule -->
<g id="edge14" class="edge">
<title>SchoolRepo&#45;&gt;AuthorizationModule</title>
<path fill="none" stroke="black" d="M795,-84.92C795,-99.58 795,-117.8 795,-117.8 795,-117.8 1022.33,-117.8 1022.33,-117.8"/>
<polygon fill="black" stroke="black" points="1022.33,-121.3 1032.33,-117.8 1022.33,-114.3 1022.33,-121.3"/>
</g>
<!-- SchoolRule -->
<g id="node16" class="node">
<title>SchoolRule</title>
<ellipse fill="#fdb462" stroke="black" cx="663" cy="-66.8" rx="56.2" ry="18"/>
<text text-anchor="middle" x="663" y="-62.6" font-family="Times,serif" font-size="14.00">SchoolRule</text>
</g>
<!-- SchoolRule&#45;&gt;AuthorizationModule -->
<g id="edge15" class="edge">
<title>SchoolRule&#45;&gt;AuthorizationModule</title>
<path fill="none" stroke="black" d="M663,-84.81C663,-100.85 663,-121.8 663,-121.8 663,-121.8 1022.08,-121.8 1022.08,-121.8"/>
<polygon fill="black" stroke="black" points="1022.08,-125.3 1032.08,-121.8 1022.08,-118.3 1022.08,-125.3"/>
</g>
<!-- TaskRepo -->
<g id="node17" class="node">
<title>TaskRepo</title>
<ellipse fill="#fdb462" stroke="black" cx="539" cy="-66.8" rx="50.39" ry="18"/>
<text text-anchor="middle" x="539" y="-62.6" font-family="Times,serif" font-size="14.00">TaskRepo</text>
</g>
<!-- TaskRepo&#45;&gt;AuthorizationModule -->
<g id="edge16" class="edge">
<title>TaskRepo&#45;&gt;AuthorizationModule</title>
<path fill="none" stroke="black" d="M539,-84.82C539,-102.17 539,-125.8 539,-125.8 539,-125.8 1022.09,-125.8 1022.09,-125.8"/>
<polygon fill="black" stroke="black" points="1022.09,-129.3 1032.09,-125.8 1022.09,-122.3 1022.09,-129.3"/>
</g>
<!-- TaskRule -->
<g id="node18" class="node">
<title>TaskRule</title>
<ellipse fill="#fdb462" stroke="black" cx="423" cy="-66.8" rx="48.09" ry="18"/>
<text text-anchor="middle" x="423" y="-62.6" font-family="Times,serif" font-size="14.00">TaskRule</text>
</g>
<!-- TaskRule&#45;&gt;AuthorizationModule -->
<g id="edge17" class="edge">
<title>TaskRule&#45;&gt;AuthorizationModule</title>
<path fill="none" stroke="black" d="M423,-85.02C423,-103.63 423,-129.8 423,-129.8 423,-129.8 1022.26,-129.8 1022.26,-129.8"/>
<polygon fill="black" stroke="black" points="1022.26,-133.3 1032.26,-129.8 1022.26,-126.3 1022.26,-133.3"/>
</g>
<!-- TeamRule -->
<g id="node19" class="node">
<title>TeamRule</title>
<ellipse fill="#fdb462" stroke="black" cx="306" cy="-66.8" rx="51.02" ry="18"/>
<text text-anchor="middle" x="306" y="-62.6" font-family="Times,serif" font-size="14.00">TeamRule</text>
</g>
<!-- TeamRule&#45;&gt;AuthorizationModule -->
<g id="edge18" class="edge">
<title>TeamRule&#45;&gt;AuthorizationModule</title>
<path fill="none" stroke="black" d="M306,-85.11C306,-104.95 306,-133.8 306,-133.8 306,-133.8 1022.19,-133.8 1022.19,-133.8"/>
<polygon fill="black" stroke="black" points="1022.19,-137.3 1032.19,-133.8 1022.19,-130.3 1022.19,-137.3"/>
</g>
<!-- UserRepo -->
<g id="node20" class="node">
<title>UserRepo</title>
<ellipse fill="#fdb462" stroke="black" cx="187" cy="-66.8" rx="49.81" ry="18"/>
<text text-anchor="middle" x="187" y="-62.6" font-family="Times,serif" font-size="14.00">UserRepo</text>
</g>
<!-- UserRepo&#45;&gt;AuthorizationModule -->
<g id="edge19" class="edge">
<title>UserRepo&#45;&gt;AuthorizationModule</title>
<path fill="none" stroke="black" d="M187,-85.08C187,-106.12 187,-137.8 187,-137.8 187,-137.8 1022.3,-137.8 1022.3,-137.8"/>
<polygon fill="black" stroke="black" points="1022.3,-141.3 1032.3,-137.8 1022.3,-134.3 1022.3,-141.3"/>
</g>
<!-- UserRule -->
<g id="node21" class="node">
<title>UserRule</title>
<ellipse fill="#fdb462" stroke="black" cx="72" cy="-66.8" rx="47.52" ry="18"/>
<text text-anchor="middle" x="72" y="-62.6" font-family="Times,serif" font-size="14.00">UserRule</text>
</g>
<!-- UserRule&#45;&gt;AuthorizationModule -->
<g id="edge20" class="edge">
<title>UserRule&#45;&gt;AuthorizationModule</title>
<path fill="none" stroke="black" d="M72,-84.96C72,-107.15 72,-141.8 72,-141.8 72,-141.8 1022.29,-141.8 1022.29,-141.8"/>
<polygon fill="black" stroke="black" points="1022.29,-145.3 1032.29,-141.8 1022.29,-138.3 1022.29,-145.3"/>
</g>
</g>
</svg>
