<?xml version="1.0" encoding="UTF-8" standalone="no"?>
<!DOCTYPE svg PUBLIC "-//W3C//DTD SVG 1.1//EN"
 "http://www.w3.org/Graphics/SVG/1.1/DTD/svg11.dtd">
<!-- Generated by graphviz version 2.47.3 (20210619.1520)
 -->
<!-- Title: dependencies Pages: 1 -->
<svg width="783pt" height="247pt"
 viewBox="0.00 0.00 783.00 246.80" xmlns="http://www.w3.org/2000/svg" xmlns:xlink="http://www.w3.org/1999/xlink">
<g id="graph0" class="graph" transform="scale(1 1) rotate(0) translate(4 242.8)">
<title>dependencies</title>
<polygon fill="white" stroke="transparent" points="-4,4 -4,-242.8 779,-242.8 779,4 -4,4"/>
<text text-anchor="middle" x="387.5" y="-8.2" font-family="sans-serif" font-size="14.00">dependencies</text>
<g id="clust1" class="cluster">
<title>cluster_AuthorizationModule</title>
<polygon fill="none" stroke="black" stroke-dasharray="1,5" points="8,-32.8 8,-230.8 767,-230.8 767,-32.8 8,-32.8"/>
</g>
<g id="clust4" class="cluster">
<title>cluster_AuthorizationModule_exports</title>
<polygon fill="none" stroke="black" points="194,-170.8 194,-222.8 502,-222.8 502,-170.8 194,-170.8"/>
</g>
<g id="clust6" class="cluster">
<title>cluster_AuthorizationModule_providers</title>
<polygon fill="none" stroke="black" points="146,-40.8 146,-92.8 759,-92.8 759,-40.8 146,-40.8"/>
</g>
<g id="clust3" class="cluster">
<title>cluster_AuthorizationModule_imports</title>
<polygon fill="none" stroke="black" points="16,-40.8 16,-92.8 138,-92.8 138,-40.8 16,-40.8"/>
</g>
<!-- FeathersModule -->
<g id="node1" class="node">
<title>FeathersModule</title>
<polygon fill="#8dd3c7" stroke="black" points="130.47,-84.8 127.47,-88.8 106.47,-88.8 103.47,-84.8 23.53,-84.8 23.53,-48.8 130.47,-48.8 130.47,-84.8"/>
<text text-anchor="middle" x="77" y="-62.6" font-family="Times,serif" font-size="14.00">FeathersModule</text>
</g>
<!-- AuthorizationModule -->
<g id="node2" class="node">
<title>AuthorizationModule</title>
<polygon fill="#8dd3c7" stroke="black" points="414.81,-149.8 411.81,-153.8 390.81,-153.8 387.81,-149.8 277.19,-149.8 277.19,-113.8 414.81,-113.8 414.81,-149.8"/>
<text text-anchor="middle" x="346" y="-127.6" font-family="Times,serif" font-size="14.00">AuthorizationModule</text>
</g>
<!-- FeathersModule&#45;&gt;AuthorizationModule -->
<g id="edge1" class="edge">
<title>FeathersModule&#45;&gt;AuthorizationModule</title>
<path fill="none" stroke="black" d="M77,-84.91C77,-104.14 77,-131.8 77,-131.8 77,-131.8 267.08,-131.8 267.08,-131.8"/>
<polygon fill="black" stroke="black" points="267.08,-135.3 277.08,-131.8 267.08,-128.3 267.08,-135.3"/>
</g>
<!-- AuthorizationService  -->
<g id="node3" class="node">
<title>AuthorizationService </title>
<polygon fill="#fb8072" stroke="black" points="493.74,-214.8 354.26,-214.8 354.26,-178.8 493.74,-178.8 493.74,-214.8"/>
<text text-anchor="middle" x="424" y="-192.6" font-family="Times,serif" font-size="14.00">AuthorizationService </text>
</g>
<!-- AuthorizationModule&#45;&gt;AuthorizationService  -->
<g id="edge2" class="edge">
<title>AuthorizationModule&#45;&gt;AuthorizationService </title>
<path fill="none" stroke="black" stroke-dasharray="5,2" d="M384.52,-149.91C384.52,-149.91 384.52,-168.79 384.52,-168.79"/>
<polygon fill="black" stroke="black" points="381.02,-168.79 384.52,-178.79 388.02,-168.79 381.02,-168.79"/>
</g>
<!-- FeathersJwtProvider  -->
<g id="node4" class="node">
<title>FeathersJwtProvider </title>
<polygon fill="#fb8072" stroke="black" points="336.07,-214.8 201.93,-214.8 201.93,-178.8 336.07,-178.8 336.07,-214.8"/>
<text text-anchor="middle" x="269" y="-192.6" font-family="Times,serif" font-size="14.00">FeathersJwtProvider </text>
</g>
<!-- AuthorizationModule&#45;&gt;FeathersJwtProvider  -->
<g id="edge3" class="edge">
<title>AuthorizationModule&#45;&gt;FeathersJwtProvider </title>
<path fill="none" stroke="black" stroke-dasharray="5,2" d="M306.82,-149.91C306.82,-149.91 306.82,-168.79 306.82,-168.79"/>
<polygon fill="black" stroke="black" points="303.32,-168.79 306.82,-178.79 310.32,-168.79 303.32,-168.79"/>
</g>
<!-- AuthorizationService -->
<g id="node5" class="node">
<title>AuthorizationService</title>
<ellipse fill="#fdb462" stroke="black" cx="657" cy="-66.8" rx="93.76" ry="18"/>
<text text-anchor="middle" x="657" y="-62.6" font-family="Times,serif" font-size="14.00">AuthorizationService</text>
</g>
<!-- AuthorizationService&#45;&gt;AuthorizationModule -->
<g id="edge4" class="edge">
<title>AuthorizationService&#45;&gt;AuthorizationModule</title>
<path fill="none" stroke="black" d="M657,-84.91C657,-104.14 657,-131.8 657,-131.8 657,-131.8 425.02,-131.8 425.02,-131.8"/>
<polygon fill="black" stroke="black" points="425.02,-128.3 415.02,-131.8 425.02,-135.3 425.02,-128.3"/>
</g>
<!-- FeathersAuthProvider -->
<g id="node6" class="node">
<title>FeathersAuthProvider</title>
<ellipse fill="#fdb462" stroke="black" cx="449" cy="-66.8" rx="96.13" ry="18"/>
<text text-anchor="middle" x="449" y="-62.6" font-family="Times,serif" font-size="14.00">FeathersAuthProvider</text>
</g>
<!-- FeathersAuthProvider&#45;&gt;AuthorizationModule -->
<g id="edge5" class="edge">
<title>FeathersAuthProvider&#45;&gt;AuthorizationModule</title>
<path fill="none" stroke="black" d="M383.67,-80.27C383.67,-80.27 383.67,-103.66 383.67,-103.66"/>
<polygon fill="black" stroke="black" points="380.17,-103.66 383.67,-113.66 387.17,-103.66 380.17,-103.66"/>
</g>
<!-- FeathersJwtProvider -->
<g id="node7" class="node">
<title>FeathersJwtProvider</title>
<ellipse fill="#fdb462" stroke="black" cx="244" cy="-66.8" rx="90.32" ry="18"/>
<text text-anchor="middle" x="244" y="-62.6" font-family="Times,serif" font-size="14.00">FeathersJwtProvider</text>
</g>
<!-- FeathersJwtProvider&#45;&gt;AuthorizationModule -->
<g id="edge6" class="edge">
<title>FeathersJwtProvider&#45;&gt;AuthorizationModule</title>
<path fill="none" stroke="black" d="M305.88,-79.95C305.88,-79.95 305.88,-103.49 305.88,-103.49"/>
<polygon fill="black" stroke="black" points="302.38,-103.49 305.88,-113.49 309.38,-103.49 302.38,-103.49"/>
</g>
</g>
</svg>
