<?xml version="1.0" encoding="UTF-8" standalone="no"?>
<!DOCTYPE svg PUBLIC "-//W3C//DTD SVG 1.1//EN"
 "http://www.w3.org/Graphics/SVG/1.1/DTD/svg11.dtd">
<!-- Generated by graphviz version 5.0.0 (20220707.1540)
 -->
<!-- Title: dependencies Pages: 1 -->
<svg width="3272pt" height="247pt"
 viewBox="0.00 0.00 3272.00 246.80" xmlns="http://www.w3.org/2000/svg" xmlns:xlink="http://www.w3.org/1999/xlink">
<g id="graph0" class="graph" transform="scale(1 1) rotate(0) translate(4 242.8)">
<title>dependencies</title>
<polygon fill="white" stroke="transparent" points="-4,4 -4,-242.8 3268,-242.8 3268,4 -4,4"/>
<text text-anchor="middle" x="1632" y="-8.2" font-family="sans-serif" font-size="14.00">dependencies</text>
<g id="clust1" class="cluster">
<title>cluster_AuthorizationModule</title>
<polygon fill="none" stroke="black" stroke-dasharray="1,5" points="8,-32.8 8,-230.8 3256,-230.8 3256,-32.8 8,-32.8"/>
</g>
<g id="clust3" class="cluster">
<title>cluster_AuthorizationModule_imports</title>
<polygon fill="none" stroke="black" points="3126,-40.8 3126,-92.8 3248,-92.8 3248,-40.8 3126,-40.8"/>
</g>
<g id="clust6" class="cluster">
<title>cluster_AuthorizationModule_providers</title>
<polygon fill="none" stroke="black" points="16,-40.8 16,-92.8 3118,-92.8 3118,-40.8 16,-40.8"/>
</g>
<g id="clust4" class="cluster">
<title>cluster_AuthorizationModule_exports</title>
<polygon fill="none" stroke="black" points="1112,-170.8 1112,-222.8 1625,-222.8 1625,-170.8 1112,-170.8"/>
</g>
<!-- FeathersModule -->
<g id="node1" class="node">
<title>FeathersModule</title>
<polygon fill="#8dd3c7" stroke="black" points="3240.48,-84.8 3237.48,-88.8 3216.48,-88.8 3213.48,-84.8 3133.52,-84.8 3133.52,-48.8 3240.48,-48.8 3240.48,-84.8"/>
<text text-anchor="middle" x="3187" y="-62.6" font-family="Times,serif" font-size="14.00">FeathersModule</text>
</g>
<!-- AuthorizationModule -->
<g id="node2" class="node">
<title>AuthorizationModule</title>
<polygon fill="#8dd3c7" stroke="black" points="1434.81,-149.8 1431.81,-153.8 1410.81,-153.8 1407.81,-149.8 1297.19,-149.8 1297.19,-113.8 1434.81,-113.8 1434.81,-149.8"/>
<text text-anchor="middle" x="1366" y="-127.6" font-family="Times,serif" font-size="14.00">AuthorizationModule</text>
</g>
<!-- FeathersModule&#45;&gt;AuthorizationModule -->
<g id="edge1" class="edge">
<title>FeathersModule&#45;&gt;AuthorizationModule</title>
<path fill="none" stroke="black" d="M3187,-85.05C3187,-107.82 3187,-143.8 3187,-143.8 3187,-143.8 1444.89,-143.8 1444.89,-143.8"/>
<polygon fill="black" stroke="black" points="1444.89,-140.3 1434.89,-143.8 1444.89,-147.3 1444.89,-140.3"/>
</g>
<!-- AuthorizationService  -->
<g id="node3" class="node">
<title>AuthorizationService </title>
<polygon fill="#fb8072" stroke="black" points="1616.74,-214.8 1477.26,-214.8 1477.26,-178.8 1616.74,-178.8 1616.74,-214.8"/>
<text text-anchor="middle" x="1547" y="-192.6" font-family="Times,serif" font-size="14.00">AuthorizationService </text>
</g>
<!-- AuthorizationModule&#45;&gt;AuthorizationService  -->
<g id="edge2" class="edge">
<title>AuthorizationModule&#45;&gt;AuthorizationService </title>
<path fill="none" stroke="black" stroke-dasharray="5,2" d="M1434.96,-146.8C1481.46,-146.8 1534.36,-146.8 1534.36,-146.8 1534.36,-146.8 1534.36,-168.75 1534.36,-168.75"/>
<polygon fill="black" stroke="black" points="1530.86,-168.75 1534.36,-178.75 1537.86,-168.75 1530.86,-168.75"/>
</g>
<!-- FeathersAuthorizationService  -->
<g id="node4" class="node">
<title>FeathersAuthorizationService </title>
<polygon fill="#fb8072" stroke="black" points="1459.17,-214.8 1272.83,-214.8 1272.83,-178.8 1459.17,-178.8 1459.17,-214.8"/>
<text text-anchor="middle" x="1366" y="-192.6" font-family="Times,serif" font-size="14.00">FeathersAuthorizationService </text>
</g>
<!-- AuthorizationModule&#45;&gt;FeathersAuthorizationService  -->
<g id="edge3" class="edge">
<title>AuthorizationModule&#45;&gt;FeathersAuthorizationService </title>
<path fill="none" stroke="black" stroke-dasharray="5,2" d="M1366,-149.91C1366,-149.91 1366,-168.79 1366,-168.79"/>
<polygon fill="black" stroke="black" points="1362.5,-168.79 1366,-178.79 1369.5,-168.79 1362.5,-168.79"/>
</g>
<!-- FeathersJwtProvider  -->
<g id="node5" class="node">
<title>FeathersJwtProvider </title>
<polygon fill="#fb8072" stroke="black" points="1254.09,-214.8 1119.91,-214.8 1119.91,-178.8 1254.09,-178.8 1254.09,-214.8"/>
<text text-anchor="middle" x="1187" y="-192.6" font-family="Times,serif" font-size="14.00">FeathersJwtProvider </text>
</g>
<!-- AuthorizationModule&#45;&gt;FeathersJwtProvider  -->
<g id="edge4" class="edge">
<title>AuthorizationModule&#45;&gt;FeathersJwtProvider </title>
<path fill="none" stroke="black" stroke-dasharray="5,2" d="M1297.28,-146.8C1257.54,-146.8 1215.33,-146.8 1215.33,-146.8 1215.33,-146.8 1215.33,-168.75 1215.33,-168.75"/>
<polygon fill="black" stroke="black" points="1211.83,-168.75 1215.33,-178.75 1218.83,-168.75 1211.83,-168.75"/>
</g>
<!-- AuthorizationService -->
<g id="node6" class="node">
<title>AuthorizationService</title>
<ellipse fill="#fdb462" stroke="black" cx="3016" cy="-66.8" rx="93.76" ry="18"/>
<text text-anchor="middle" x="3016" y="-62.6" font-family="Times,serif" font-size="14.00">AuthorizationService</text>
</g>
<!-- AuthorizationService&#45;&gt;AuthorizationModule -->
<g id="edge5" class="edge">
<title>AuthorizationService&#45;&gt;AuthorizationModule</title>
<path fill="none" stroke="black" d="M3016,-85.09C3016,-107.01 3016,-140.8 3016,-140.8 3016,-140.8 1444.8,-140.8 1444.8,-140.8"/>
<polygon fill="black" stroke="black" points="1444.8,-137.3 1434.8,-140.8 1444.8,-144.3 1444.8,-137.3"/>
</g>
<!-- CourseGroupRepo -->
<g id="node7" class="node">
<title>CourseGroupRepo</title>
<ellipse fill="#fdb462" stroke="black" cx="2821" cy="-66.8" rx="83.41" ry="18"/>
<text text-anchor="middle" x="2821" y="-62.6" font-family="Times,serif" font-size="14.00">CourseGroupRepo</text>
</g>
<!-- CourseGroupRepo&#45;&gt;AuthorizationModule -->
<g id="edge6" class="edge">
<title>CourseGroupRepo&#45;&gt;AuthorizationModule</title>
<path fill="none" stroke="black" d="M2821,-84.83C2821,-105.57 2821,-136.8 2821,-136.8 2821,-136.8 1444.71,-136.8 1444.71,-136.8"/>
<polygon fill="black" stroke="black" points="1444.71,-133.3 1434.71,-136.8 1444.71,-140.3 1444.71,-133.3"/>
</g>
<!-- CourseGroupRule -->
<g id="node8" class="node">
<title>CourseGroupRule</title>
<ellipse fill="#fdb462" stroke="black" cx="2638" cy="-66.8" rx="81.12" ry="18"/>
<text text-anchor="middle" x="2638" y="-62.6" font-family="Times,serif" font-size="14.00">CourseGroupRule</text>
</g>
<!-- CourseGroupRule&#45;&gt;AuthorizationModule -->
<g id="edge7" class="edge">
<title>CourseGroupRule&#45;&gt;AuthorizationModule</title>
<path fill="none" stroke="black" d="M2638,-85.11C2638,-104.95 2638,-133.8 2638,-133.8 2638,-133.8 1444.84,-133.8 1444.84,-133.8"/>
<polygon fill="black" stroke="black" points="1444.84,-130.3 1434.84,-133.8 1444.84,-137.3 1444.84,-130.3"/>
</g>
<!-- CourseRepo -->
<g id="node9" class="node">
<title>CourseRepo</title>
<ellipse fill="#fdb462" stroke="black" cx="2480" cy="-66.8" rx="58.56" ry="18"/>
<text text-anchor="middle" x="2480" y="-62.6" font-family="Times,serif" font-size="14.00">CourseRepo</text>
</g>
<!-- CourseRepo&#45;&gt;AuthorizationModule -->
<g id="edge8" class="edge">
<title>CourseRepo&#45;&gt;AuthorizationModule</title>
<path fill="none" stroke="black" d="M2480,-84.97C2480,-103.89 2480,-130.8 2480,-130.8 2480,-130.8 1444.84,-130.8 1444.84,-130.8"/>
<polygon fill="black" stroke="black" points="1444.85,-127.3 1434.84,-130.8 1444.84,-134.3 1444.85,-127.3"/>
</g>
<!-- CourseRule -->
<g id="node10" class="node">
<title>CourseRule</title>
<ellipse fill="#fdb462" stroke="black" cx="2347" cy="-66.8" rx="56.77" ry="18"/>
<text text-anchor="middle" x="2347" y="-62.6" font-family="Times,serif" font-size="14.00">CourseRule</text>
</g>
<!-- CourseRule&#45;&gt;AuthorizationModule -->
<g id="edge9" class="edge">
<title>CourseRule&#45;&gt;AuthorizationModule</title>
<path fill="none" stroke="black" d="M2347,-85.1C2347,-103.07 2347,-127.8 2347,-127.8 2347,-127.8 1444.98,-127.8 1444.98,-127.8"/>
<polygon fill="black" stroke="black" points="1444.98,-124.3 1434.98,-127.8 1444.98,-131.3 1444.98,-124.3"/>
</g>
<!-- FeathersAuthProvider -->
<g id="node11" class="node">
<title>FeathersAuthProvider</title>
<ellipse fill="#fdb462" stroke="black" cx="2176" cy="-66.8" rx="96.14" ry="18"/>
<text text-anchor="middle" x="2176" y="-62.6" font-family="Times,serif" font-size="14.00">FeathersAuthProvider</text>
</g>
<!-- FeathersAuthProvider&#45;&gt;AuthorizationModule -->
<g id="edge10" class="edge">
<title>FeathersAuthProvider&#45;&gt;AuthorizationModule</title>
<path fill="none" stroke="black" d="M2176,-84.84C2176,-101.53 2176,-123.8 2176,-123.8 2176,-123.8 1444.71,-123.8 1444.71,-123.8"/>
<polygon fill="black" stroke="black" points="1444.71,-120.3 1434.71,-123.8 1444.71,-127.3 1444.71,-120.3"/>
</g>
<!-- FeathersAuthorizationService -->
<g id="node12" class="node">
<title>FeathersAuthorizationService</title>
<ellipse fill="#fdb462" stroke="black" cx="1935" cy="-66.8" rx="126.19" ry="18"/>
<text text-anchor="middle" x="1935" y="-62.6" font-family="Times,serif" font-size="14.00">FeathersAuthorizationService</text>
</g>
<!-- FeathersAuthorizationService&#45;&gt;AuthorizationModule -->
<g id="edge11" class="edge">
<title>FeathersAuthorizationService&#45;&gt;AuthorizationModule</title>
<path fill="none" stroke="black" d="M1935,-85.08C1935,-100.75 1935,-120.8 1935,-120.8 1935,-120.8 1444.92,-120.8 1444.92,-120.8"/>
<polygon fill="black" stroke="black" points="1444.92,-117.3 1434.92,-120.8 1444.92,-124.3 1444.92,-117.3"/>
</g>
<!-- FeathersJwtProvider -->
<g id="node13" class="node">
<title>FeathersJwtProvider</title>
<ellipse fill="#fdb462" stroke="black" cx="1700" cy="-66.8" rx="90.35" ry="18"/>
<text text-anchor="middle" x="1700" y="-62.6" font-family="Times,serif" font-size="14.00">FeathersJwtProvider</text>
</g>
<!-- FeathersJwtProvider&#45;&gt;AuthorizationModule -->
<g id="edge12" class="edge">
<title>FeathersJwtProvider&#45;&gt;AuthorizationModule</title>
<path fill="none" stroke="black" d="M1613.1,-71.88C1613.1,-84.78 1613.1,-117.8 1613.1,-117.8 1613.1,-117.8 1444.83,-117.8 1444.83,-117.8"/>
<polygon fill="black" stroke="black" points="1444.83,-114.3 1434.83,-117.8 1444.83,-121.3 1444.83,-114.3"/>
</g>
<!-- FileRecordRepo -->
<g id="node14" class="node">
<title>FileRecordRepo</title>
<ellipse fill="#fdb462" stroke="black" cx="1517" cy="-66.8" rx="74.16" ry="18"/>
<text text-anchor="middle" x="1517" y="-62.6" font-family="Times,serif" font-size="14.00">FileRecordRepo</text>
</g>
<!-- FileRecordRepo&#45;&gt;AuthorizationModule -->
<g id="edge13" class="edge">
<title>FileRecordRepo&#45;&gt;AuthorizationModule</title>
<path fill="none" stroke="black" d="M1442.6,-66.8C1434.84,-66.8 1429.72,-66.8 1429.72,-66.8 1429.72,-66.8 1429.72,-103.69 1429.72,-103.69"/>
<polygon fill="black" stroke="black" points="1426.22,-103.69 1429.72,-113.69 1433.22,-103.69 1426.22,-103.69"/>
</g>
<!-- LessonRepo -->
<g id="node15" class="node">
<title>LessonRepo</title>
<ellipse fill="#fdb462" stroke="black" cx="1366" cy="-66.8" rx="58.56" ry="18"/>
<text text-anchor="middle" x="1366" y="-62.6" font-family="Times,serif" font-size="14.00">LessonRepo</text>
</g>
<!-- LessonRepo&#45;&gt;AuthorizationModule -->
<g id="edge14" class="edge">
<title>LessonRepo&#45;&gt;AuthorizationModule</title>
<path fill="none" stroke="black" d="M1366,-84.91C1366,-84.91 1366,-103.79 1366,-103.79"/>
<polygon fill="black" stroke="black" points="1362.5,-103.79 1366,-113.79 1369.5,-103.79 1362.5,-103.79"/>
</g>
<!-- LessonRule -->
<g id="node16" class="node">
<title>LessonRule</title>
<ellipse fill="#fdb462" stroke="black" cx="1233" cy="-66.8" rx="56.77" ry="18"/>
<text text-anchor="middle" x="1233" y="-62.6" font-family="Times,serif" font-size="14.00">LessonRule</text>
</g>
<!-- LessonRule&#45;&gt;AuthorizationModule -->
<g id="edge15" class="edge">
<title>LessonRule&#45;&gt;AuthorizationModule</title>
<path fill="none" stroke="black" d="M1289.9,-66.8C1297.25,-66.8 1302.28,-66.8 1302.28,-66.8 1302.28,-66.8 1302.28,-103.69 1302.28,-103.69"/>
<polygon fill="black" stroke="black" points="1298.78,-103.69 1302.28,-113.69 1305.78,-103.69 1298.78,-103.69"/>
</g>
<!-- ReferenceLoader -->
<g id="node17" class="node">
<title>ReferenceLoader</title>
<ellipse fill="#fdb462" stroke="black" cx="1081" cy="-66.8" rx="77.53" ry="18"/>
<text text-anchor="middle" x="1081" y="-62.6" font-family="Times,serif" font-size="14.00">ReferenceLoader</text>
</g>
<!-- ReferenceLoader&#45;&gt;AuthorizationModule -->
<g id="edge16" class="edge">
<title>ReferenceLoader&#45;&gt;AuthorizationModule</title>
<path fill="none" stroke="black" d="M1139.11,-78.89C1139.11,-93.97 1139.11,-117.8 1139.11,-117.8 1139.11,-117.8 1287.31,-117.8 1287.31,-117.8"/>
<polygon fill="black" stroke="black" points="1287.31,-121.3 1297.31,-117.8 1287.31,-114.3 1287.31,-121.3"/>
</g>
<!-- SchoolRepo -->
<g id="node18" class="node">
<title>SchoolRepo</title>
<ellipse fill="#fdb462" stroke="black" cx="927" cy="-66.8" rx="58.49" ry="18"/>
<text text-anchor="middle" x="927" y="-62.6" font-family="Times,serif" font-size="14.00">SchoolRepo</text>
</g>
<!-- SchoolRepo&#45;&gt;AuthorizationModule -->
<g id="edge17" class="edge">
<title>SchoolRepo&#45;&gt;AuthorizationModule</title>
<path fill="none" stroke="black" d="M927,-85.08C927,-100.75 927,-120.8 927,-120.8 927,-120.8 1286.92,-120.8 1286.92,-120.8"/>
<polygon fill="black" stroke="black" points="1286.92,-124.3 1296.92,-120.8 1286.92,-117.3 1286.92,-124.3"/>
</g>
<!-- SchoolRule -->
<g id="node19" class="node">
<title>SchoolRule</title>
<ellipse fill="#fdb462" stroke="black" cx="795" cy="-66.8" rx="56.2" ry="18"/>
<text text-anchor="middle" x="795" y="-62.6" font-family="Times,serif" font-size="14.00">SchoolRule</text>
</g>
<!-- SchoolRule&#45;&gt;AuthorizationModule -->
<g id="edge18" class="edge">
<title>SchoolRule&#45;&gt;AuthorizationModule</title>
<path fill="none" stroke="black" d="M795,-84.84C795,-101.53 795,-123.8 795,-123.8 795,-123.8 1287.12,-123.8 1287.12,-123.8"/>
<polygon fill="black" stroke="black" points="1287.12,-127.3 1297.12,-123.8 1287.12,-120.3 1287.12,-127.3"/>
</g>
<!-- TaskRepo -->
<g id="node20" class="node">
<title>TaskRepo</title>
<ellipse fill="#fdb462" stroke="black" cx="671" cy="-66.8" rx="50.39" ry="18"/>
<text text-anchor="middle" x="671" y="-62.6" font-family="Times,serif" font-size="14.00">TaskRepo</text>
</g>
<!-- TaskRepo&#45;&gt;AuthorizationModule -->
<g id="edge19" class="edge">
<title>TaskRepo&#45;&gt;AuthorizationModule</title>
<path fill="none" stroke="black" d="M671,-85.1C671,-103.07 671,-127.8 671,-127.8 671,-127.8 1287.14,-127.8 1287.14,-127.8"/>
<polygon fill="black" stroke="black" points="1287.14,-131.3 1297.14,-127.8 1287.14,-124.3 1287.14,-131.3"/>
</g>
<!-- TaskRule -->
<g id="node21" class="node">
<title>TaskRule</title>
<ellipse fill="#fdb462" stroke="black" cx="555" cy="-66.8" rx="48.09" ry="18"/>
<text text-anchor="middle" x="555" y="-62.6" font-family="Times,serif" font-size="14.00">TaskRule</text>
</g>
<!-- TaskRule&#45;&gt;AuthorizationModule -->
<g id="edge20" class="edge">
<title>TaskRule&#45;&gt;AuthorizationModule</title>
<path fill="none" stroke="black" d="M555,-84.97C555,-103.89 555,-130.8 555,-130.8 555,-130.8 1287.2,-130.8 1287.2,-130.8"/>
<polygon fill="black" stroke="black" points="1287.2,-134.3 1297.2,-130.8 1287.2,-127.3 1287.2,-134.3"/>
</g>
<!-- TeamRule -->
<g id="node22" class="node">
<title>TeamRule</title>
<ellipse fill="#fdb462" stroke="black" cx="438" cy="-66.8" rx="51.02" ry="18"/>
<text text-anchor="middle" x="438" y="-62.6" font-family="Times,serif" font-size="14.00">TeamRule</text>
</g>
<!-- TeamRule&#45;&gt;AuthorizationModule -->
<g id="edge21" class="edge">
<title>TeamRule&#45;&gt;AuthorizationModule</title>
<path fill="none" stroke="black" d="M438,-85.11C438,-104.95 438,-133.8 438,-133.8 438,-133.8 1287.01,-133.8 1287.01,-133.8"/>
<polygon fill="black" stroke="black" points="1287.01,-137.3 1297.01,-133.8 1287.01,-130.3 1287.01,-137.3"/>
</g>
<!-- TeamsRepo -->
<g id="node23" class="node">
<title>TeamsRepo</title>
<ellipse fill="#fdb462" stroke="black" cx="312" cy="-66.8" rx="57.32" ry="18"/>
<text text-anchor="middle" x="312" y="-62.6" font-family="Times,serif" font-size="14.00">TeamsRepo</text>
</g>
<!-- TeamsRepo&#45;&gt;AuthorizationModule -->
<g id="edge22" class="edge">
<title>TeamsRepo&#45;&gt;AuthorizationModule</title>
<path fill="none" stroke="black" d="M312,-84.83C312,-105.57 312,-136.8 312,-136.8 312,-136.8 1287.25,-136.8 1287.25,-136.8"/>
<polygon fill="black" stroke="black" points="1287.25,-140.3 1297.25,-136.8 1287.25,-133.3 1287.25,-140.3"/>
</g>
<!-- UserRepo -->
<g id="node24" class="node">
<title>UserRepo</title>
<ellipse fill="#fdb462" stroke="black" cx="187" cy="-66.8" rx="49.81" ry="18"/>
<text text-anchor="middle" x="187" y="-62.6" font-family="Times,serif" font-size="14.00">UserRepo</text>
</g>
<!-- UserRepo&#45;&gt;AuthorizationModule -->
<g id="edge23" class="edge">
<title>UserRepo&#45;&gt;AuthorizationModule</title>
<path fill="none" stroke="black" d="M187,-85.09C187,-107.01 187,-140.8 187,-140.8 187,-140.8 1287.08,-140.8 1287.08,-140.8"/>
<polygon fill="black" stroke="black" points="1287.08,-144.3 1297.08,-140.8 1287.08,-137.3 1287.08,-144.3"/>
</g>
<!-- UserRule -->
<g id="node25" class="node">
<title>UserRule</title>
<ellipse fill="#fdb462" stroke="black" cx="72" cy="-66.8" rx="47.52" ry="18"/>
<text text-anchor="middle" x="72" y="-62.6" font-family="Times,serif" font-size="14.00">UserRule</text>
</g>
<!-- UserRule&#45;&gt;AuthorizationModule -->
<g id="edge24" class="edge">
<title>UserRule&#45;&gt;AuthorizationModule</title>
<path fill="none" stroke="black" d="M72,-85.05C72,-107.82 72,-143.8 72,-143.8 72,-143.8 1287.34,-143.8 1287.34,-143.8"/>
<polygon fill="black" stroke="black" points="1287.34,-147.3 1297.34,-143.8 1287.34,-140.3 1287.34,-147.3"/>
</g>
</g>
</svg>
