<?xml version="1.0" encoding="UTF-8" standalone="no"?>
<!DOCTYPE svg PUBLIC "-//W3C//DTD SVG 1.1//EN"
 "http://www.w3.org/Graphics/SVG/1.1/DTD/svg11.dtd">
<!-- Generated by graphviz version 5.0.0 (20220707.1540)
 -->
<!-- Title: dependencies Pages: 1 -->
<svg width="4250pt" height="247pt"
 viewBox="0.00 0.00 4250.00 246.80" xmlns="http://www.w3.org/2000/svg" xmlns:xlink="http://www.w3.org/1999/xlink">
<g id="graph0" class="graph" transform="scale(1 1) rotate(0) translate(4 242.8)">
<title>dependencies</title>
<polygon fill="white" stroke="transparent" points="-4,4 -4,-242.8 4246,-242.8 4246,4 -4,4"/>
<text text-anchor="middle" x="2121" y="-8.2" font-family="sans-serif" font-size="14.00">dependencies</text>
<g id="clust1" class="cluster">
<title>cluster_AuthorizationModule</title>
<polygon fill="none" stroke="black" stroke-dasharray="1,5" points="8,-32.8 8,-230.8 4234,-230.8 4234,-32.8 8,-32.8"/>
</g>
<g id="clust3" class="cluster">
<title>cluster_AuthorizationModule_imports</title>
<polygon fill="none" stroke="black" points="3766,-40.8 3766,-92.8 4226,-92.8 4226,-40.8 3766,-40.8"/>
</g>
<g id="clust4" class="cluster">
<title>cluster_AuthorizationModule_exports</title>
<polygon fill="none" stroke="black" points="1786,-170.8 1786,-222.8 2299,-222.8 2299,-170.8 1786,-170.8"/>
</g>
<g id="clust6" class="cluster">
<title>cluster_AuthorizationModule_providers</title>
<polygon fill="none" stroke="black" points="16,-40.8 16,-92.8 3758,-92.8 3758,-40.8 16,-40.8"/>
</g>
<!-- FeathersModule -->
<g id="node1" class="node">
<title>FeathersModule</title>
<polygon fill="#8dd3c7" stroke="black" points="4218.48,-84.8 4215.48,-88.8 4194.48,-88.8 4191.48,-84.8 4111.52,-84.8 4111.52,-48.8 4218.48,-48.8 4218.48,-84.8"/>
<text text-anchor="middle" x="4165" y="-62.6" font-family="Times,serif" font-size="14.00">FeathersModule</text>
</g>
<!-- AuthorizationModule -->
<g id="node5" class="node">
<title>AuthorizationModule</title>
<polygon fill="#8dd3c7" stroke="black" points="2108.81,-149.8 2105.81,-153.8 2084.81,-153.8 2081.81,-149.8 1971.19,-149.8 1971.19,-113.8 2108.81,-113.8 2108.81,-149.8"/>
<text text-anchor="middle" x="2040" y="-127.6" font-family="Times,serif" font-size="14.00">AuthorizationModule</text>
</g>
<!-- FeathersModule&#45;&gt;AuthorizationModule -->
<g id="edge1" class="edge">
<title>FeathersModule&#45;&gt;AuthorizationModule</title>
<path fill="none" stroke="black" d="M4165,-84.89C4165,-107.93 4165,-144.8 4165,-144.8 4165,-144.8 2118.89,-144.8 2118.89,-144.8"/>
<polygon fill="black" stroke="black" points="2118.89,-141.3 2108.89,-144.8 2118.89,-148.3 2118.89,-141.3"/>
</g>
<!-- LoggerModule -->
<g id="node2" class="node">
<title>LoggerModule</title>
<polygon fill="#8dd3c7" stroke="black" points="4093.98,-84.8 4090.98,-88.8 4069.98,-88.8 4066.98,-84.8 3994.02,-84.8 3994.02,-48.8 4093.98,-48.8 4093.98,-84.8"/>
<text text-anchor="middle" x="4044" y="-62.6" font-family="Times,serif" font-size="14.00">LoggerModule</text>
</g>
<!-- LoggerModule&#45;&gt;AuthorizationModule -->
<g id="edge2" class="edge">
<title>LoggerModule&#45;&gt;AuthorizationModule</title>
<path fill="none" stroke="black" d="M4044,-84.81C4044,-107.29 4044,-142.8 4044,-142.8 4044,-142.8 2118.69,-142.8 2118.69,-142.8"/>
<polygon fill="black" stroke="black" points="2118.69,-139.3 2108.69,-142.8 2118.69,-146.3 2118.69,-139.3"/>
</g>
<!-- SchoolModule -->
<g id="node3" class="node">
<title>SchoolModule</title>
<polygon fill="#8dd3c7" stroke="black" points="3976.44,-84.8 3973.44,-88.8 3952.44,-88.8 3949.44,-84.8 3877.56,-84.8 3877.56,-48.8 3976.44,-48.8 3976.44,-84.8"/>
<text text-anchor="middle" x="3927" y="-62.6" font-family="Times,serif" font-size="14.00">SchoolModule</text>
</g>
<!-- SchoolModule&#45;&gt;AuthorizationModule -->
<g id="edge3" class="edge">
<title>SchoolModule&#45;&gt;AuthorizationModule</title>
<path fill="none" stroke="black" d="M3927,-84.84C3927,-106.46 3927,-139.8 3927,-139.8 3927,-139.8 2118.83,-139.8 2118.83,-139.8"/>
<polygon fill="black" stroke="black" points="2118.83,-136.3 2108.83,-139.8 2118.83,-143.3 2118.83,-136.3"/>
</g>
<!-- ToolModule -->
<g id="node4" class="node">
<title>ToolModule</title>
<polygon fill="#8dd3c7" stroke="black" points="3859.99,-84.8 3856.99,-88.8 3835.99,-88.8 3832.99,-84.8 3774.01,-84.8 3774.01,-48.8 3859.99,-48.8 3859.99,-84.8"/>
<text text-anchor="middle" x="3817" y="-62.6" font-family="Times,serif" font-size="14.00">ToolModule</text>
</g>
<!-- ToolModule&#45;&gt;AuthorizationModule -->
<g id="edge4" class="edge">
<title>ToolModule&#45;&gt;AuthorizationModule</title>
<path fill="none" stroke="black" d="M3817,-85.08C3817,-106.12 3817,-137.8 3817,-137.8 3817,-137.8 2118.84,-137.8 2118.84,-137.8"/>
<polygon fill="black" stroke="black" points="2118.84,-134.3 2108.84,-137.8 2118.84,-141.3 2118.84,-134.3"/>
</g>
<!-- AuthorizationService  -->
<g id="node6" class="node">
<title>AuthorizationService </title>
<polygon fill="#fb8072" stroke="black" points="2290.74,-214.8 2151.26,-214.8 2151.26,-178.8 2290.74,-178.8 2290.74,-214.8"/>
<text text-anchor="middle" x="2221" y="-192.6" font-family="Times,serif" font-size="14.00">AuthorizationService </text>
</g>
<!-- AuthorizationModule&#45;&gt;AuthorizationService  -->
<g id="edge5" class="edge">
<title>AuthorizationModule&#45;&gt;AuthorizationService </title>
<path fill="none" stroke="black" stroke-dasharray="5,2" d="M2108.69,-147.8C2148.8,-147.8 2191.58,-147.8 2191.58,-147.8 2191.58,-147.8 2191.58,-168.55 2191.58,-168.55"/>
<polygon fill="black" stroke="black" points="2188.08,-168.55 2191.58,-178.55 2195.08,-168.55 2188.08,-168.55"/>
</g>
<!-- FeathersAuthorizationService  -->
<g id="node7" class="node">
<title>FeathersAuthorizationService </title>
<polygon fill="#fb8072" stroke="black" points="2133.17,-214.8 1946.83,-214.8 1946.83,-178.8 2133.17,-178.8 2133.17,-214.8"/>
<text text-anchor="middle" x="2040" y="-192.6" font-family="Times,serif" font-size="14.00">FeathersAuthorizationService </text>
</g>
<!-- AuthorizationModule&#45;&gt;FeathersAuthorizationService  -->
<g id="edge6" class="edge">
<title>AuthorizationModule&#45;&gt;FeathersAuthorizationService </title>
<path fill="none" stroke="black" stroke-dasharray="5,2" d="M2040,-149.91C2040,-149.91 2040,-168.79 2040,-168.79"/>
<polygon fill="black" stroke="black" points="2036.5,-168.79 2040,-178.79 2043.5,-168.79 2036.5,-168.79"/>
</g>
<!-- FeathersJwtProvider  -->
<g id="node8" class="node">
<title>FeathersJwtProvider </title>
<polygon fill="#fb8072" stroke="black" points="1928.09,-214.8 1793.91,-214.8 1793.91,-178.8 1928.09,-178.8 1928.09,-214.8"/>
<text text-anchor="middle" x="1861" y="-192.6" font-family="Times,serif" font-size="14.00">FeathersJwtProvider </text>
</g>
<!-- AuthorizationModule&#45;&gt;FeathersJwtProvider  -->
<g id="edge7" class="edge">
<title>AuthorizationModule&#45;&gt;FeathersJwtProvider </title>
<path fill="none" stroke="black" stroke-dasharray="5,2" d="M1971.1,-147.8C1923.75,-147.8 1869.39,-147.8 1869.39,-147.8 1869.39,-147.8 1869.39,-168.55 1869.39,-168.55"/>
<polygon fill="black" stroke="black" points="1865.89,-168.55 1869.39,-178.55 1872.89,-168.55 1865.89,-168.55"/>
</g>
<!-- AuthorizationService -->
<g id="node9" class="node">
<title>AuthorizationService</title>
<ellipse fill="#fdb462" stroke="black" cx="3656" cy="-66.8" rx="93.76" ry="18"/>
<text text-anchor="middle" x="3656" y="-62.6" font-family="Times,serif" font-size="14.00">AuthorizationService</text>
</g>
<!-- AuthorizationService&#45;&gt;AuthorizationModule -->
<g id="edge8" class="edge">
<title>AuthorizationService&#45;&gt;AuthorizationModule</title>
<path fill="none" stroke="black" d="M3656,-85.02C3656,-105.17 3656,-134.8 3656,-134.8 3656,-134.8 2118.66,-134.8 2118.66,-134.8"/>
<polygon fill="black" stroke="black" points="2118.66,-131.3 2108.66,-134.8 2118.66,-138.3 2118.66,-131.3"/>
</g>
<!-- CourseGroupRepo -->
<g id="node10" class="node">
<title>CourseGroupRepo</title>
<ellipse fill="#fdb462" stroke="black" cx="3461" cy="-66.8" rx="83.41" ry="18"/>
<text text-anchor="middle" x="3461" y="-62.6" font-family="Times,serif" font-size="14.00">CourseGroupRepo</text>
</g>
<!-- CourseGroupRepo&#45;&gt;AuthorizationModule -->
<g id="edge9" class="edge">
<title>CourseGroupRepo&#45;&gt;AuthorizationModule</title>
<path fill="none" stroke="black" d="M3461,-84.91C3461,-104.14 3461,-131.8 3461,-131.8 3461,-131.8 2119.02,-131.8 2119.02,-131.8"/>
<polygon fill="black" stroke="black" points="2119.02,-128.3 2109.02,-131.8 2119.02,-135.3 2119.02,-128.3"/>
</g>
<!-- CourseGroupRule -->
<g id="node11" class="node">
<title>CourseGroupRule</title>
<ellipse fill="#fdb462" stroke="black" cx="3278" cy="-66.8" rx="81.12" ry="18"/>
<text text-anchor="middle" x="3278" y="-62.6" font-family="Times,serif" font-size="14.00">CourseGroupRule</text>
</g>
<!-- CourseGroupRule&#45;&gt;AuthorizationModule -->
<g id="edge10" class="edge">
<title>CourseGroupRule&#45;&gt;AuthorizationModule</title>
<path fill="none" stroke="black" d="M3278,-85.02C3278,-103.63 3278,-129.8 3278,-129.8 3278,-129.8 2118.77,-129.8 2118.77,-129.8"/>
<polygon fill="black" stroke="black" points="2118.77,-126.3 2108.77,-129.8 2118.77,-133.3 2118.77,-126.3"/>
</g>
<!-- CourseRepo -->
<g id="node12" class="node">
<title>CourseRepo</title>
<ellipse fill="#fdb462" stroke="black" cx="3120" cy="-66.8" rx="58.56" ry="18"/>
<text text-anchor="middle" x="3120" y="-62.6" font-family="Times,serif" font-size="14.00">CourseRepo</text>
</g>
<!-- CourseRepo&#45;&gt;AuthorizationModule -->
<g id="edge11" class="edge">
<title>CourseRepo&#45;&gt;AuthorizationModule</title>
<path fill="none" stroke="black" d="M3120,-84.8C3120,-102.48 3120,-126.8 3120,-126.8 3120,-126.8 2118.79,-126.8 2118.79,-126.8"/>
<polygon fill="black" stroke="black" points="2118.79,-123.3 2108.79,-126.8 2118.79,-130.3 2118.79,-123.3"/>
</g>
<!-- CourseRule -->
<g id="node13" class="node">
<title>CourseRule</title>
<ellipse fill="#fdb462" stroke="black" cx="2987" cy="-66.8" rx="56.77" ry="18"/>
<text text-anchor="middle" x="2987" y="-62.6" font-family="Times,serif" font-size="14.00">CourseRule</text>
</g>
<!-- CourseRule&#45;&gt;AuthorizationModule -->
<g id="edge12" class="edge">
<title>CourseRule&#45;&gt;AuthorizationModule</title>
<path fill="none" stroke="black" d="M2987,-84.83C2987,-101.86 2987,-124.8 2987,-124.8 2987,-124.8 2118.87,-124.8 2118.87,-124.8"/>
<polygon fill="black" stroke="black" points="2118.87,-121.3 2108.87,-124.8 2118.87,-128.3 2118.87,-121.3"/>
</g>
<!-- FeathersAuthProvider -->
<g id="node14" class="node">
<title>FeathersAuthProvider</title>
<ellipse fill="#fdb462" stroke="black" cx="2816" cy="-66.8" rx="96.14" ry="18"/>
<text text-anchor="middle" x="2816" y="-62.6" font-family="Times,serif" font-size="14.00">FeathersAuthProvider</text>
</g>
<!-- FeathersAuthProvider&#45;&gt;AuthorizationModule -->
<g id="edge13" class="edge">
<title>FeathersAuthProvider&#45;&gt;AuthorizationModule</title>
<path fill="none" stroke="black" d="M2816,-84.81C2816,-100.85 2816,-121.8 2816,-121.8 2816,-121.8 2118.86,-121.8 2118.86,-121.8"/>
<polygon fill="black" stroke="black" points="2118.86,-118.3 2108.86,-121.8 2118.86,-125.3 2118.86,-118.3"/>
</g>
<!-- FeathersAuthorizationService -->
<g id="node15" class="node">
<title>FeathersAuthorizationService</title>
<ellipse fill="#fdb462" stroke="black" cx="2575" cy="-66.8" rx="126.19" ry="18"/>
<text text-anchor="middle" x="2575" y="-62.6" font-family="Times,serif" font-size="14.00">FeathersAuthorizationService</text>
</g>
<!-- FeathersAuthorizationService&#45;&gt;AuthorizationModule -->
<g id="edge14" class="edge">
<title>FeathersAuthorizationService&#45;&gt;AuthorizationModule</title>
<path fill="none" stroke="black" d="M2575,-85.04C2575,-100.37 2575,-119.8 2575,-119.8 2575,-119.8 2118.85,-119.8 2118.85,-119.8"/>
<polygon fill="black" stroke="black" points="2118.85,-116.3 2108.85,-119.8 2118.85,-123.3 2118.85,-116.3"/>
</g>
<!-- FeathersJwtProvider -->
<g id="node16" class="node">
<title>FeathersJwtProvider</title>
<ellipse fill="#fdb462" stroke="black" cx="2340" cy="-66.8" rx="90.35" ry="18"/>
<text text-anchor="middle" x="2340" y="-62.6" font-family="Times,serif" font-size="14.00">FeathersJwtProvider</text>
</g>
<!-- FeathersJwtProvider&#45;&gt;AuthorizationModule -->
<g id="edge15" class="edge">
<title>FeathersJwtProvider&#45;&gt;AuthorizationModule</title>
<path fill="none" stroke="black" d="M2270.1,-78.4C2270.1,-93.17 2270.1,-116.8 2270.1,-116.8 2270.1,-116.8 2118.73,-116.8 2118.73,-116.8"/>
<polygon fill="black" stroke="black" points="2118.73,-113.3 2108.73,-116.8 2118.73,-120.3 2118.73,-113.3"/>
</g>
<!-- LessonRepo -->
<g id="node17" class="node">
<title>LessonRepo</title>
<ellipse fill="#fdb462" stroke="black" cx="2173" cy="-66.8" rx="58.56" ry="18"/>
<text text-anchor="middle" x="2173" y="-62.6" font-family="Times,serif" font-size="14.00">LessonRepo</text>
</g>
<!-- LessonRepo&#45;&gt;AuthorizationModule -->
<g id="edge16" class="edge">
<title>LessonRepo&#45;&gt;AuthorizationModule</title>
<path fill="none" stroke="black" d="M2113.95,-66.8C2107.18,-66.8 2102.64,-66.8 2102.64,-66.8 2102.64,-66.8 2102.64,-103.69 2102.64,-103.69"/>
<polygon fill="black" stroke="black" points="2099.14,-103.69 2102.64,-113.69 2106.14,-103.69 2099.14,-103.69"/>
</g>
<!-- LessonRule -->
<g id="node18" class="node">
<title>LessonRule</title>
<ellipse fill="#fdb462" stroke="black" cx="2040" cy="-66.8" rx="56.77" ry="18"/>
<text text-anchor="middle" x="2040" y="-62.6" font-family="Times,serif" font-size="14.00">LessonRule</text>
</g>
<!-- LessonRule&#45;&gt;AuthorizationModule -->
<g id="edge17" class="edge">
<title>LessonRule&#45;&gt;AuthorizationModule</title>
<path fill="none" stroke="black" d="M2040,-84.91C2040,-84.91 2040,-103.79 2040,-103.79"/>
<polygon fill="black" stroke="black" points="2036.5,-103.79 2040,-113.79 2043.5,-103.79 2036.5,-103.79"/>
</g>
<!-- ReferenceLoader -->
<g id="node19" class="node">
<title>ReferenceLoader</title>
<ellipse fill="#fdb462" stroke="black" cx="1888" cy="-66.8" rx="77.53" ry="18"/>
<text text-anchor="middle" x="1888" y="-62.6" font-family="Times,serif" font-size="14.00">ReferenceLoader</text>
</g>
<!-- ReferenceLoader&#45;&gt;AuthorizationModule -->
<g id="edge18" class="edge">
<title>ReferenceLoader&#45;&gt;AuthorizationModule</title>
<path fill="none" stroke="black" d="M1965.67,-66.8C1972.77,-66.8 1977.36,-66.8 1977.36,-66.8 1977.36,-66.8 1977.36,-103.69 1977.36,-103.69"/>
<polygon fill="black" stroke="black" points="1973.86,-103.69 1977.36,-113.69 1980.86,-103.69 1973.86,-103.69"/>
</g>
<!-- SchoolExternalToolRepo -->
<g id="node20" class="node">
<title>SchoolExternalToolRepo</title>
<ellipse fill="#fdb462" stroke="black" cx="1683" cy="-66.8" rx="109.39" ry="18"/>
<text text-anchor="middle" x="1683" y="-62.6" font-family="Times,serif" font-size="14.00">SchoolExternalToolRepo</text>
</g>
<!-- SchoolExternalToolRepo&#45;&gt;AuthorizationModule -->
<g id="edge19" class="edge">
<title>SchoolExternalToolRepo&#45;&gt;AuthorizationModule</title>
<path fill="none" stroke="black" d="M1683,-84.85C1683,-99.17 1683,-116.8 1683,-116.8 1683,-116.8 1961.17,-116.8 1961.17,-116.8"/>
<polygon fill="black" stroke="black" points="1961.17,-120.3 1971.17,-116.8 1961.17,-113.3 1961.17,-120.3"/>
</g>
<!-- SchoolExternalToolRule -->
<g id="node21" class="node">
<title>SchoolExternalToolRule</title>
<ellipse fill="#fdb462" stroke="black" cx="1449" cy="-66.8" rx="107.1" ry="18"/>
<text text-anchor="middle" x="1449" y="-62.6" font-family="Times,serif" font-size="14.00">SchoolExternalToolRule</text>
</g>
<!-- SchoolExternalToolRule&#45;&gt;AuthorizationModule -->
<g id="edge20" class="edge">
<title>SchoolExternalToolRule&#45;&gt;AuthorizationModule</title>
<path fill="none" stroke="black" d="M1449,-85.04C1449,-100.37 1449,-119.8 1449,-119.8 1449,-119.8 1961.34,-119.8 1961.34,-119.8"/>
<polygon fill="black" stroke="black" points="1961.34,-123.3 1971.34,-119.8 1961.34,-116.3 1961.34,-123.3"/>
</g>
<!-- SchoolRepo -->
<g id="node22" class="node">
<title>SchoolRepo</title>
<ellipse fill="#fdb462" stroke="black" cx="1266" cy="-66.8" rx="58.49" ry="18"/>
<text text-anchor="middle" x="1266" y="-62.6" font-family="Times,serif" font-size="14.00">SchoolRepo</text>
</g>
<!-- SchoolRepo&#45;&gt;AuthorizationModule -->
<g id="edge21" class="edge">
<title>SchoolRepo&#45;&gt;AuthorizationModule</title>
<path fill="none" stroke="black" d="M1266,-84.81C1266,-100.85 1266,-121.8 1266,-121.8 1266,-121.8 1961.31,-121.8 1961.31,-121.8"/>
<polygon fill="black" stroke="black" points="1961.31,-125.3 1971.31,-121.8 1961.31,-118.3 1961.31,-125.3"/>
</g>
<!-- SchoolRule -->
<g id="node23" class="node">
<title>SchoolRule</title>
<ellipse fill="#fdb462" stroke="black" cx="1134" cy="-66.8" rx="56.2" ry="18"/>
<text text-anchor="middle" x="1134" y="-62.6" font-family="Times,serif" font-size="14.00">SchoolRule</text>
</g>
<!-- SchoolRule&#45;&gt;AuthorizationModule -->
<g id="edge22" class="edge">
<title>SchoolRule&#45;&gt;AuthorizationModule</title>
<path fill="none" stroke="black" d="M1134,-84.83C1134,-101.86 1134,-124.8 1134,-124.8 1134,-124.8 1961.16,-124.8 1961.16,-124.8"/>
<polygon fill="black" stroke="black" points="1961.16,-128.3 1971.16,-124.8 1961.16,-121.3 1961.16,-128.3"/>
</g>
<!-- SubmissionRepo -->
<g id="node24" class="node">
<title>SubmissionRepo</title>
<ellipse fill="#fdb462" stroke="black" cx="983" cy="-66.8" rx="76.5" ry="18"/>
<text text-anchor="middle" x="983" y="-62.6" font-family="Times,serif" font-size="14.00">SubmissionRepo</text>
</g>
<!-- SubmissionRepo&#45;&gt;AuthorizationModule -->
<g id="edge23" class="edge">
<title>SubmissionRepo&#45;&gt;AuthorizationModule</title>
<path fill="none" stroke="black" d="M983,-84.8C983,-102.48 983,-126.8 983,-126.8 983,-126.8 1961.06,-126.8 1961.06,-126.8"/>
<polygon fill="black" stroke="black" points="1961.06,-130.3 1971.06,-126.8 1961.05,-123.3 1961.06,-130.3"/>
</g>
<!-- SubmissionRule -->
<g id="node25" class="node">
<title>SubmissionRule</title>
<ellipse fill="#fdb462" stroke="black" cx="814" cy="-66.8" rx="74.21" ry="18"/>
<text text-anchor="middle" x="814" y="-62.6" font-family="Times,serif" font-size="14.00">SubmissionRule</text>
</g>
<!-- SubmissionRule&#45;&gt;AuthorizationModule -->
<g id="edge24" class="edge">
<title>SubmissionRule&#45;&gt;AuthorizationModule</title>
<path fill="none" stroke="black" d="M814,-85.02C814,-103.63 814,-129.8 814,-129.8 814,-129.8 1961.02,-129.8 1961.02,-129.8"/>
<polygon fill="black" stroke="black" points="1961.02,-133.3 1971.02,-129.8 1961.02,-126.3 1961.02,-133.3"/>
</g>
<!-- TaskRepo -->
<g id="node26" class="node">
<title>TaskRepo</title>
<ellipse fill="#fdb462" stroke="black" cx="671" cy="-66.8" rx="50.39" ry="18"/>
<text text-anchor="middle" x="671" y="-62.6" font-family="Times,serif" font-size="14.00">TaskRepo</text>
</g>
<!-- TaskRepo&#45;&gt;AuthorizationModule -->
<g id="edge25" class="edge">
<title>TaskRepo&#45;&gt;AuthorizationModule</title>
<path fill="none" stroke="black" d="M671,-84.91C671,-104.14 671,-131.8 671,-131.8 671,-131.8 1961.17,-131.8 1961.17,-131.8"/>
<polygon fill="black" stroke="black" points="1961.17,-135.3 1971.17,-131.8 1961.17,-128.3 1961.17,-135.3"/>
</g>
<!-- TaskRule -->
<g id="node27" class="node">
<title>TaskRule</title>
<ellipse fill="#fdb462" stroke="black" cx="555" cy="-66.8" rx="48.09" ry="18"/>
<text text-anchor="middle" x="555" y="-62.6" font-family="Times,serif" font-size="14.00">TaskRule</text>
</g>
<!-- TaskRule&#45;&gt;AuthorizationModule -->
<g id="edge26" class="edge">
<title>TaskRule&#45;&gt;AuthorizationModule</title>
<path fill="none" stroke="black" d="M555,-85.02C555,-105.17 555,-134.8 555,-134.8 555,-134.8 1960.86,-134.8 1960.86,-134.8"/>
<polygon fill="black" stroke="black" points="1960.86,-138.3 1970.86,-134.8 1960.86,-131.3 1960.86,-138.3"/>
</g>
<!-- TeamRule -->
<g id="node28" class="node">
<title>TeamRule</title>
<ellipse fill="#fdb462" stroke="black" cx="438" cy="-66.8" rx="51.02" ry="18"/>
<text text-anchor="middle" x="438" y="-62.6" font-family="Times,serif" font-size="14.00">TeamRule</text>
</g>
<!-- TeamRule&#45;&gt;AuthorizationModule -->
<g id="edge27" class="edge">
<title>TeamRule&#45;&gt;AuthorizationModule</title>
<path fill="none" stroke="black" d="M438,-85.08C438,-106.12 438,-137.8 438,-137.8 438,-137.8 1961.16,-137.8 1961.16,-137.8"/>
<polygon fill="black" stroke="black" points="1961.16,-141.3 1971.16,-137.8 1961.16,-134.3 1961.16,-141.3"/>
</g>
<!-- TeamsRepo -->
<g id="node29" class="node">
<title>TeamsRepo</title>
<ellipse fill="#fdb462" stroke="black" cx="312" cy="-66.8" rx="57.32" ry="18"/>
<text text-anchor="middle" x="312" y="-62.6" font-family="Times,serif" font-size="14.00">TeamsRepo</text>
</g>
<!-- TeamsRepo&#45;&gt;AuthorizationModule -->
<g id="edge28" class="edge">
<title>TeamsRepo&#45;&gt;AuthorizationModule</title>
<path fill="none" stroke="black" d="M312,-84.84C312,-106.46 312,-139.8 312,-139.8 312,-139.8 1961.19,-139.8 1961.19,-139.8"/>
<polygon fill="black" stroke="black" points="1961.19,-143.3 1971.19,-139.8 1961.19,-136.3 1961.19,-143.3"/>
</g>
<!-- UserRepo -->
<g id="node30" class="node">
<title>UserRepo</title>
<ellipse fill="#fdb462" stroke="black" cx="187" cy="-66.8" rx="49.81" ry="18"/>
<text text-anchor="middle" x="187" y="-62.6" font-family="Times,serif" font-size="14.00">UserRepo</text>
</g>
<!-- UserRepo&#45;&gt;AuthorizationModule -->
<g id="edge29" class="edge">
<title>UserRepo&#45;&gt;AuthorizationModule</title>
<path fill="none" stroke="black" d="M187,-84.81C187,-107.29 187,-142.8 187,-142.8 187,-142.8 1961.3,-142.8 1961.3,-142.8"/>
<polygon fill="black" stroke="black" points="1961.3,-146.3 1971.3,-142.8 1961.3,-139.3 1961.3,-146.3"/>
</g>
<!-- UserRule -->
<g id="node31" class="node">
<title>UserRule</title>
<ellipse fill="#fdb462" stroke="black" cx="72" cy="-66.8" rx="47.52" ry="18"/>
<text text-anchor="middle" x="72" y="-62.6" font-family="Times,serif" font-size="14.00">UserRule</text>
</g>
<!-- UserRule&#45;&gt;AuthorizationModule -->
<g id="edge30" class="edge">
<title>UserRule&#45;&gt;AuthorizationModule</title>
<path fill="none" stroke="black" d="M72,-84.89C72,-107.93 72,-144.8 72,-144.8 72,-144.8 1961.11,-144.8 1961.11,-144.8"/>
<polygon fill="black" stroke="black" points="1961.11,-148.3 1971.11,-144.8 1961.11,-141.3 1961.11,-148.3"/>
</g>
</g>
</svg>
