<?xml version="1.0" encoding="UTF-8" standalone="no"?>
<!DOCTYPE svg PUBLIC "-//W3C//DTD SVG 1.1//EN"
 "http://www.w3.org/Graphics/SVG/1.1/DTD/svg11.dtd">
<!-- Generated by graphviz version 2.47.3 (20210619.1520)
 -->
<!-- Title: dependencies Pages: 1 -->
<svg width="783pt" height="247pt"
 viewBox="0.00 0.00 783.00 246.80" xmlns="http://www.w3.org/2000/svg" xmlns:xlink="http://www.w3.org/1999/xlink">
<g id="graph0" class="graph" transform="scale(1 1) rotate(0) translate(4 242.8)">
<title>dependencies</title>
<polygon fill="white" stroke="transparent" points="-4,4 -4,-242.8 779,-242.8 779,4 -4,4"/>
<text text-anchor="middle" x="387.5" y="-8.2" font-family="sans-serif" font-size="14.00">dependencies</text>
<g id="clust1" class="cluster">
<title>cluster_AuthorizationModule</title>
<polygon fill="none" stroke="black" stroke-dasharray="1,5" points="8,-32.8 8,-230.8 767,-230.8 767,-32.8 8,-32.8"/>
</g>
<g id="clust4" class="cluster">
<title>cluster_AuthorizationModule_exports</title>
<polygon fill="none" stroke="black" points="270,-170.8 270,-222.8 578,-222.8 578,-170.8 270,-170.8"/>
</g>
<g id="clust3" class="cluster">
<title>cluster_AuthorizationModule_imports</title>
<polygon fill="none" stroke="black" points="637,-40.8 637,-92.8 759,-92.8 759,-40.8 637,-40.8"/>
</g>
<g id="clust6" class="cluster">
<title>cluster_AuthorizationModule_providers</title>
<polygon fill="none" stroke="black" points="16,-40.8 16,-92.8 629,-92.8 629,-40.8 16,-40.8"/>
</g>
<!-- FeathersModule -->
<g id="node1" class="node">
<title>FeathersModule</title>
<polygon fill="#8dd3c7" stroke="black" points="751.47,-84.8 748.47,-88.8 727.47,-88.8 724.47,-84.8 644.53,-84.8 644.53,-48.8 751.47,-48.8 751.47,-84.8"/>
<text text-anchor="middle" x="698" y="-62.6" font-family="Times,serif" font-size="14.00">FeathersModule</text>
</g>
<!-- AuthorizationModule -->
<g id="node2" class="node">
<title>AuthorizationModule</title>
<polygon fill="#8dd3c7" stroke="black" points="490.81,-149.8 487.81,-153.8 466.81,-153.8 463.81,-149.8 353.19,-149.8 353.19,-113.8 490.81,-113.8 490.81,-149.8"/>
<text text-anchor="middle" x="422" y="-127.6" font-family="Times,serif" font-size="14.00">AuthorizationModule</text>
</g>
<!-- FeathersModule&#45;&gt;AuthorizationModule -->
<g id="edge1" class="edge">
<title>FeathersModule&#45;&gt;AuthorizationModule</title>
<path fill="none" stroke="black" d="M698,-84.91C698,-104.14 698,-131.8 698,-131.8 698,-131.8 500.93,-131.8 500.93,-131.8"/>
<polygon fill="black" stroke="black" points="500.93,-128.3 490.93,-131.8 500.93,-135.3 500.93,-128.3"/>
</g>
<!-- AuthorizationService  -->
<g id="node3" class="node">
<title>AuthorizationService </title>
<polygon fill="#fb8072" stroke="black" points="569.74,-214.8 430.26,-214.8 430.26,-178.8 569.74,-178.8 569.74,-214.8"/>
<text text-anchor="middle" x="500" y="-192.6" font-family="Times,serif" font-size="14.00">AuthorizationService </text>
</g>
<!-- AuthorizationModule&#45;&gt;AuthorizationService  -->
<g id="edge2" class="edge">
<title>AuthorizationModule&#45;&gt;AuthorizationService </title>
<path fill="none" stroke="black" stroke-dasharray="5,2" d="M460.52,-149.91C460.52,-149.91 460.52,-168.79 460.52,-168.79"/>
<polygon fill="black" stroke="black" points="457.02,-168.79 460.52,-178.79 464.02,-168.79 457.02,-168.79"/>
</g>
<!-- FeathersJwtProvider  -->
<g id="node4" class="node">
<title>FeathersJwtProvider </title>
<polygon fill="#fb8072" stroke="black" points="412.07,-214.8 277.93,-214.8 277.93,-178.8 412.07,-178.8 412.07,-214.8"/>
<text text-anchor="middle" x="345" y="-192.6" font-family="Times,serif" font-size="14.00">FeathersJwtProvider </text>
</g>
<!-- AuthorizationModule&#45;&gt;FeathersJwtProvider  -->
<g id="edge3" class="edge">
<title>AuthorizationModule&#45;&gt;FeathersJwtProvider </title>
<path fill="none" stroke="black" stroke-dasharray="5,2" d="M382.82,-149.91C382.82,-149.91 382.82,-168.79 382.82,-168.79"/>
<polygon fill="black" stroke="black" points="379.32,-168.79 382.82,-178.79 386.32,-168.79 379.32,-168.79"/>
</g>
<!-- AuthorizationService -->
<g id="node5" class="node">
<title>AuthorizationService</title>
<ellipse fill="#fdb462" stroke="black" cx="527" cy="-66.8" rx="93.76" ry="18"/>
<text text-anchor="middle" x="527" y="-62.6" font-family="Times,serif" font-size="14.00">AuthorizationService</text>
</g>
<!-- AuthorizationService&#45;&gt;AuthorizationModule -->
<g id="edge4" class="edge">
<title>AuthorizationService&#45;&gt;AuthorizationModule</title>
<path fill="none" stroke="black" d="M462.01,-79.95C462.01,-79.95 462.01,-103.49 462.01,-103.49"/>
<polygon fill="black" stroke="black" points="458.51,-103.49 462.01,-113.49 465.51,-103.49 458.51,-103.49"/>
</g>
<!-- FeathersAuthProvider -->
<g id="node6" class="node">
<title>FeathersAuthProvider</title>
<ellipse fill="#fdb462" stroke="black" cx="319" cy="-66.8" rx="96.13" ry="18"/>
<text text-anchor="middle" x="319" y="-62.6" font-family="Times,serif" font-size="14.00">FeathersAuthProvider</text>
</g>
<!-- FeathersAuthProvider&#45;&gt;AuthorizationModule -->
<g id="edge5" class="edge">
<title>FeathersAuthProvider&#45;&gt;AuthorizationModule</title>
<path fill="none" stroke="black" d="M384.33,-80.27C384.33,-80.27 384.33,-103.66 384.33,-103.66"/>
<polygon fill="black" stroke="black" points="380.83,-103.66 384.33,-113.66 387.83,-103.66 380.83,-103.66"/>
</g>
<!-- FeathersJwtProvider -->
<g id="node7" class="node">
<title>FeathersJwtProvider</title>
<ellipse fill="#fdb462" stroke="black" cx="114" cy="-66.8" rx="90.32" ry="18"/>
<text text-anchor="middle" x="114" y="-62.6" font-family="Times,serif" font-size="14.00">FeathersJwtProvider</text>
</g>
<!-- FeathersJwtProvider&#45;&gt;AuthorizationModule -->
<g id="edge6" class="edge">
<title>FeathersJwtProvider&#45;&gt;AuthorizationModule</title>
<path fill="none" stroke="black" d="M114,-84.91C114,-104.14 114,-131.8 114,-131.8 114,-131.8 343.26,-131.8 343.26,-131.8"/>
<polygon fill="black" stroke="black" points="343.26,-135.3 353.26,-131.8 343.26,-128.3 343.26,-135.3"/>
</g>
</g>
</svg>
