<?xml version="1.0" encoding="UTF-8" standalone="no"?>
<!DOCTYPE svg PUBLIC "-//W3C//DTD SVG 1.1//EN"
 "http://www.w3.org/Graphics/SVG/1.1/DTD/svg11.dtd">
<!-- Generated by graphviz version 3.0.0 (20220226.1711)
 -->
<!-- Title: dependencies Pages: 1 -->
<svg width="1299pt" height="247pt"
 viewBox="0.00 0.00 1299.00 246.80" xmlns="http://www.w3.org/2000/svg" xmlns:xlink="http://www.w3.org/1999/xlink">
<g id="graph0" class="graph" transform="scale(1 1) rotate(0) translate(4 242.8)">
<title>dependencies</title>
<polygon fill="white" stroke="transparent" points="-4,4 -4,-242.8 1295,-242.8 1295,4 -4,4"/>
<text text-anchor="middle" x="645.5" y="-8.2" font-family="sans-serif" font-size="14.00">dependencies</text>
<g id="clust1" class="cluster">
<title>cluster_AuthorizationModule</title>
<polygon fill="none" stroke="black" stroke-dasharray="1,5" points="8,-32.8 8,-230.8 1283,-230.8 1283,-32.8 8,-32.8"/>
</g>
<g id="clust3" class="cluster">
<title>cluster_AuthorizationModule_imports</title>
<polygon fill="none" stroke="black" points="1153,-40.8 1153,-92.8 1275,-92.8 1275,-40.8 1153,-40.8"/>
</g>
<g id="clust4" class="cluster">
<title>cluster_AuthorizationModule_exports</title>
<polygon fill="none" stroke="black" points="450,-170.8 450,-222.8 963,-222.8 963,-170.8 450,-170.8"/>
</g>
<g id="clust6" class="cluster">
<title>cluster_AuthorizationModule_providers</title>
<polygon fill="none" stroke="black" points="16,-40.8 16,-92.8 1145,-92.8 1145,-40.8 16,-40.8"/>
</g>
<!-- FeathersModule -->
<g id="node1" class="node">
<title>FeathersModule</title>
<polygon fill="#8dd3c7" stroke="black" points="1267.48,-84.8 1264.48,-88.8 1243.48,-88.8 1240.48,-84.8 1160.52,-84.8 1160.52,-48.8 1267.48,-48.8 1267.48,-84.8"/>
<text text-anchor="middle" x="1214" y="-62.6" font-family="Times,serif" font-size="14.00">FeathersModule</text>
</g>
<!-- AuthorizationModule -->
<g id="node2" class="node">
<title>AuthorizationModule</title>
<polygon fill="#8dd3c7" stroke="black" points="772.81,-149.8 769.81,-153.8 748.81,-153.8 745.81,-149.8 635.19,-149.8 635.19,-113.8 772.81,-113.8 772.81,-149.8"/>
<text text-anchor="middle" x="704" y="-127.6" font-family="Times,serif" font-size="14.00">AuthorizationModule</text>
</g>
<!-- FeathersModule&#45;&gt;AuthorizationModule -->
<g id="edge1" class="edge">
<title>FeathersModule&#45;&gt;AuthorizationModule</title>
<path fill="none" stroke="black" d="M1214,-84.93C1214,-105.37 1214,-135.8 1214,-135.8 1214,-135.8 782.78,-135.8 782.78,-135.8"/>
<polygon fill="black" stroke="black" points="782.78,-132.3 772.78,-135.8 782.78,-139.3 782.78,-132.3"/>
</g>
<!-- AuthorizationService  -->
<g id="node3" class="node">
<title>AuthorizationService </title>
<polygon fill="#fb8072" stroke="black" points="954.74,-214.8 815.26,-214.8 815.26,-178.8 954.74,-178.8 954.74,-214.8"/>
<text text-anchor="middle" x="885" y="-192.6" font-family="Times,serif" font-size="14.00">AuthorizationService </text>
</g>
<!-- AuthorizationModule&#45;&gt;AuthorizationService  -->
<g id="edge2" class="edge">
<title>AuthorizationModule&#45;&gt;AuthorizationService </title>
<path fill="none" stroke="black" stroke-dasharray="5,2" d="M772.94,-142.8C813.19,-142.8 856.12,-142.8 856.12,-142.8 856.12,-142.8 856.12,-168.52 856.12,-168.52"/>
<polygon fill="black" stroke="black" points="852.62,-168.52 856.12,-178.52 859.62,-168.52 852.62,-168.52"/>
</g>
<!-- FeathersAuthorizationService  -->
<g id="node4" class="node">
<title>FeathersAuthorizationService </title>
<polygon fill="#fb8072" stroke="black" points="797.17,-214.8 610.83,-214.8 610.83,-178.8 797.17,-178.8 797.17,-214.8"/>
<text text-anchor="middle" x="704" y="-192.6" font-family="Times,serif" font-size="14.00">FeathersAuthorizationService </text>
</g>
<!-- AuthorizationModule&#45;&gt;FeathersAuthorizationService  -->
<g id="edge3" class="edge">
<title>AuthorizationModule&#45;&gt;FeathersAuthorizationService </title>
<path fill="none" stroke="black" stroke-dasharray="5,2" d="M704,-149.91C704,-149.91 704,-168.79 704,-168.79"/>
<polygon fill="black" stroke="black" points="700.5,-168.79 704,-178.79 707.5,-168.79 700.5,-168.79"/>
</g>
<!-- FeathersJwtProvider  -->
<g id="node5" class="node">
<title>FeathersJwtProvider </title>
<polygon fill="#fb8072" stroke="black" points="592.09,-214.8 457.91,-214.8 457.91,-178.8 592.09,-178.8 592.09,-214.8"/>
<text text-anchor="middle" x="525" y="-192.6" font-family="Times,serif" font-size="14.00">FeathersJwtProvider </text>
</g>
<!-- AuthorizationModule&#45;&gt;FeathersJwtProvider  -->
<g id="edge4" class="edge">
<title>AuthorizationModule&#45;&gt;FeathersJwtProvider </title>
<path fill="none" stroke="black" stroke-dasharray="5,2" d="M634.93,-142.8C592.2,-142.8 545.46,-142.8 545.46,-142.8 545.46,-142.8 545.46,-168.52 545.46,-168.52"/>
<polygon fill="black" stroke="black" points="541.96,-168.52 545.46,-178.52 548.96,-168.52 541.96,-168.52"/>
</g>
<!-- AuthorizationService -->
<g id="node6" class="node">
<title>AuthorizationService</title>
<ellipse fill="#fdb462" stroke="black" cx="1043" cy="-66.8" rx="93.76" ry="18"/>
<text text-anchor="middle" x="1043" y="-62.6" font-family="Times,serif" font-size="14.00">AuthorizationService</text>
</g>
<!-- AuthorizationService&#45;&gt;AuthorizationModule -->
<g id="edge5" class="edge">
<title>AuthorizationService&#45;&gt;AuthorizationModule</title>
<path fill="none" stroke="black" d="M1045.62,-85.07C1045.62,-103.36 1045.62,-128.8 1045.62,-128.8 1045.62,-128.8 782.72,-128.8 782.72,-128.8"/>
<polygon fill="black" stroke="black" points="782.72,-125.3 772.72,-128.8 782.72,-132.3 782.72,-125.3"/>
</g>
<!-- CourseRule -->
<g id="node7" class="node">
<title>CourseRule</title>
<ellipse fill="#fdb462" stroke="black" cx="875" cy="-66.8" rx="56.77" ry="18"/>
<text text-anchor="middle" x="875" y="-62.6" font-family="Times,serif" font-size="14.00">CourseRule</text>
</g>
<!-- CourseRule&#45;&gt;AuthorizationModule -->
<g id="edge6" class="edge">
<title>CourseRule&#45;&gt;AuthorizationModule</title>
<path fill="none" stroke="black" d="M893.88,-83.9C893.88,-100.05 893.88,-121.8 893.88,-121.8 893.88,-121.8 782.82,-121.8 782.82,-121.8"/>
<polygon fill="black" stroke="black" points="782.82,-118.3 772.82,-121.8 782.82,-125.3 782.82,-118.3"/>
</g>
<!-- FeathersAuthProvider -->
<g id="node8" class="node">
<title>FeathersAuthProvider</title>
<ellipse fill="#fdb462" stroke="black" cx="704" cy="-66.8" rx="96.14" ry="18"/>
<text text-anchor="middle" x="704" y="-62.6" font-family="Times,serif" font-size="14.00">FeathersAuthProvider</text>
</g>
<!-- FeathersAuthProvider&#45;&gt;AuthorizationModule -->
<g id="edge7" class="edge">
<title>FeathersAuthProvider&#45;&gt;AuthorizationModule</title>
<path fill="none" stroke="black" d="M704,-84.91C704,-84.91 704,-103.79 704,-103.79"/>
<polygon fill="black" stroke="black" points="700.5,-103.79 704,-113.79 707.5,-103.79 700.5,-103.79"/>
</g>
<!-- FeathersAuthorizationService -->
<g id="node9" class="node">
<title>FeathersAuthorizationService</title>
<ellipse fill="#fdb462" stroke="black" cx="463" cy="-66.8" rx="126.19" ry="18"/>
<text text-anchor="middle" x="463" y="-62.6" font-family="Times,serif" font-size="14.00">FeathersAuthorizationService</text>
</g>
<!-- FeathersAuthorizationService&#45;&gt;AuthorizationModule -->
<g id="edge8" class="edge">
<title>FeathersAuthorizationService&#45;&gt;AuthorizationModule</title>
<path fill="none" stroke="black" d="M501.58,-84.2C501.58,-100.32 501.58,-121.8 501.58,-121.8 501.58,-121.8 625.19,-121.8 625.19,-121.8"/>
<polygon fill="black" stroke="black" points="625.19,-125.3 635.19,-121.8 625.19,-118.3 625.19,-125.3"/>
</g>
<!-- FeathersJwtProvider -->
<g id="node10" class="node">
<title>FeathersJwtProvider</title>
<ellipse fill="#fdb462" stroke="black" cx="228" cy="-66.8" rx="90.35" ry="18"/>
<text text-anchor="middle" x="228" y="-62.6" font-family="Times,serif" font-size="14.00">FeathersJwtProvider</text>
</g>
<!-- FeathersJwtProvider&#45;&gt;AuthorizationModule -->
<g id="edge9" class="edge">
<title>FeathersJwtProvider&#45;&gt;AuthorizationModule</title>
<path fill="none" stroke="black" d="M228,-85.07C228,-103.36 228,-128.8 228,-128.8 228,-128.8 625.29,-128.8 625.29,-128.8"/>
<polygon fill="black" stroke="black" points="625.29,-132.3 635.29,-128.8 625.29,-125.3 625.29,-132.3"/>
</g>
<!-- TaskRule -->
<g id="node11" class="node">
<title>TaskRule</title>
<ellipse fill="#fdb462" stroke="black" cx="72" cy="-66.8" rx="48.09" ry="18"/>
<text text-anchor="middle" x="72" y="-62.6" font-family="Times,serif" font-size="14.00">TaskRule</text>
</g>
<!-- TaskRule&#45;&gt;AuthorizationModule -->
<g id="edge10" class="edge">
<title>TaskRule&#45;&gt;AuthorizationModule</title>
<path fill="none" stroke="black" d="M72,-84.93C72,-105.37 72,-135.8 72,-135.8 72,-135.8 625.16,-135.8 625.16,-135.8"/>
<polygon fill="black" stroke="black" points="625.16,-139.3 635.16,-135.8 625.16,-132.3 625.16,-139.3"/>
</g>
</g>
</svg>
