<?xml version="1.0" encoding="UTF-8" standalone="no"?>
<!DOCTYPE svg PUBLIC "-//W3C//DTD SVG 1.1//EN"
 "http://www.w3.org/Graphics/SVG/1.1/DTD/svg11.dtd">
<!-- Generated by graphviz version 5.0.0 (20220707.1540)
 -->
<!-- Title: dependencies Pages: 1 -->
<svg width="2774pt" height="247pt"
 viewBox="0.00 0.00 2774.00 246.80" xmlns="http://www.w3.org/2000/svg" xmlns:xlink="http://www.w3.org/1999/xlink">
<g id="graph0" class="graph" transform="scale(1 1) rotate(0) translate(4 242.8)">
<title>dependencies</title>
<polygon fill="white" stroke="transparent" points="-4,4 -4,-242.8 2770,-242.8 2770,4 -4,4"/>
<text text-anchor="middle" x="1383" y="-8.2" font-family="sans-serif" font-size="14.00">dependencies</text>
<g id="clust1" class="cluster">
<title>cluster_AuthorizationModule</title>
<polygon fill="none" stroke="black" stroke-dasharray="1,5" points="8,-32.8 8,-230.8 2758,-230.8 2758,-32.8 8,-32.8"/>
</g>
<g id="clust4" class="cluster">
<title>cluster_AuthorizationModule_exports</title>
<polygon fill="none" stroke="black" points="913,-170.8 913,-222.8 1426,-222.8 1426,-170.8 913,-170.8"/>
</g>
<g id="clust3" class="cluster">
<title>cluster_AuthorizationModule_imports</title>
<polygon fill="none" stroke="black" points="2628,-40.8 2628,-92.8 2750,-92.8 2750,-40.8 2628,-40.8"/>
</g>
<g id="clust6" class="cluster">
<title>cluster_AuthorizationModule_providers</title>
<polygon fill="none" stroke="black" points="16,-40.8 16,-92.8 2620,-92.8 2620,-40.8 16,-40.8"/>
</g>
<!-- FeathersModule -->
<g id="node1" class="node">
<title>FeathersModule</title>
<polygon fill="#8dd3c7" stroke="black" points="2742.48,-84.8 2739.48,-88.8 2718.48,-88.8 2715.48,-84.8 2635.52,-84.8 2635.52,-48.8 2742.48,-48.8 2742.48,-84.8"/>
<text text-anchor="middle" x="2689" y="-62.6" font-family="Times,serif" font-size="14.00">FeathersModule</text>
</g>
<!-- AuthorizationModule -->
<g id="node2" class="node">
<title>AuthorizationModule</title>
<polygon fill="#8dd3c7" stroke="black" points="1235.81,-149.8 1232.81,-153.8 1211.81,-153.8 1208.81,-149.8 1098.19,-149.8 1098.19,-113.8 1235.81,-113.8 1235.81,-149.8"/>
<text text-anchor="middle" x="1167" y="-127.6" font-family="Times,serif" font-size="14.00">AuthorizationModule</text>
</g>
<!-- FeathersModule&#45;&gt;AuthorizationModule -->
<g id="edge1" class="edge">
<title>FeathersModule&#45;&gt;AuthorizationModule</title>
<path fill="none" stroke="black" d="M2689,-84.81C2689,-107.29 2689,-142.8 2689,-142.8 2689,-142.8 1245.85,-142.8 1245.85,-142.8"/>
<polygon fill="black" stroke="black" points="1245.85,-139.3 1235.85,-142.8 1245.85,-146.3 1245.85,-139.3"/>
</g>
<!-- AuthorizationService  -->
<g id="node3" class="node">
<title>AuthorizationService </title>
<polygon fill="#fb8072" stroke="black" points="1417.74,-214.8 1278.26,-214.8 1278.26,-178.8 1417.74,-178.8 1417.74,-214.8"/>
<text text-anchor="middle" x="1348" y="-192.6" font-family="Times,serif" font-size="14.00">AuthorizationService </text>
</g>
<!-- AuthorizationModule&#45;&gt;AuthorizationService  -->
<g id="edge2" class="edge">
<title>AuthorizationModule&#45;&gt;AuthorizationService </title>
<path fill="none" stroke="black" stroke-dasharray="5,2" d="M1235.98,-146.8C1262.07,-146.8 1285.58,-146.8 1285.58,-146.8 1285.58,-146.8 1285.58,-168.75 1285.58,-168.75"/>
<polygon fill="black" stroke="black" points="1282.08,-168.75 1285.58,-178.75 1289.08,-168.75 1282.08,-168.75"/>
</g>
<!-- FeathersAuthorizationService  -->
<g id="node4" class="node">
<title>FeathersAuthorizationService </title>
<polygon fill="#fb8072" stroke="black" points="1260.17,-214.8 1073.83,-214.8 1073.83,-178.8 1260.17,-178.8 1260.17,-214.8"/>
<text text-anchor="middle" x="1167" y="-192.6" font-family="Times,serif" font-size="14.00">FeathersAuthorizationService </text>
</g>
<!-- AuthorizationModule&#45;&gt;FeathersAuthorizationService  -->
<g id="edge3" class="edge">
<title>AuthorizationModule&#45;&gt;FeathersAuthorizationService </title>
<path fill="none" stroke="black" stroke-dasharray="5,2" d="M1167,-149.91C1167,-149.91 1167,-168.79 1167,-168.79"/>
<polygon fill="black" stroke="black" points="1163.5,-168.79 1167,-178.79 1170.5,-168.79 1163.5,-168.79"/>
</g>
<!-- FeathersJwtProvider  -->
<g id="node5" class="node">
<title>FeathersJwtProvider </title>
<polygon fill="#fb8072" stroke="black" points="1055.09,-214.8 920.91,-214.8 920.91,-178.8 1055.09,-178.8 1055.09,-214.8"/>
<text text-anchor="middle" x="988" y="-192.6" font-family="Times,serif" font-size="14.00">FeathersJwtProvider </text>
</g>
<!-- AuthorizationModule&#45;&gt;FeathersJwtProvider  -->
<g id="edge4" class="edge">
<title>AuthorizationModule&#45;&gt;FeathersJwtProvider </title>
<path fill="none" stroke="black" stroke-dasharray="5,2" d="M1098.16,-146.8C1072.66,-146.8 1049.83,-146.8 1049.83,-146.8 1049.83,-146.8 1049.83,-168.75 1049.83,-168.75"/>
<polygon fill="black" stroke="black" points="1046.33,-168.75 1049.83,-178.75 1053.33,-168.75 1046.33,-168.75"/>
</g>
<!-- AuthorizationService -->
<g id="node6" class="node">
<title>AuthorizationService</title>
<ellipse fill="#fdb462" stroke="black" cx="2518" cy="-66.8" rx="93.76" ry="18"/>
<text text-anchor="middle" x="2518" y="-62.6" font-family="Times,serif" font-size="14.00">AuthorizationService</text>
</g>
<!-- AuthorizationService&#45;&gt;AuthorizationModule -->
<g id="edge5" class="edge">
<title>AuthorizationService&#45;&gt;AuthorizationModule</title>
<path fill="none" stroke="black" d="M2518,-84.84C2518,-106.46 2518,-139.8 2518,-139.8 2518,-139.8 1245.85,-139.8 1245.85,-139.8"/>
<polygon fill="black" stroke="black" points="1245.85,-136.3 1235.85,-139.8 1245.85,-143.3 1245.85,-136.3"/>
</g>
<!-- CourseRepo -->
<g id="node7" class="node">
<title>CourseRepo</title>
<ellipse fill="#fdb462" stroke="black" cx="2348" cy="-66.8" rx="58.56" ry="18"/>
<text text-anchor="middle" x="2348" y="-62.6" font-family="Times,serif" font-size="14.00">CourseRepo</text>
</g>
<!-- CourseRepo&#45;&gt;AuthorizationModule -->
<g id="edge6" class="edge">
<title>CourseRepo&#45;&gt;AuthorizationModule</title>
<path fill="none" stroke="black" d="M2348,-84.93C2348,-105.37 2348,-135.8 2348,-135.8 2348,-135.8 1246.03,-135.8 1246.03,-135.8"/>
<polygon fill="black" stroke="black" points="1246.03,-132.3 1236.03,-135.8 1246.03,-139.3 1246.03,-132.3"/>
</g>
<!-- CourseRule -->
<g id="node8" class="node">
<title>CourseRule</title>
<ellipse fill="#fdb462" stroke="black" cx="2215" cy="-66.8" rx="56.77" ry="18"/>
<text text-anchor="middle" x="2215" y="-62.6" font-family="Times,serif" font-size="14.00">CourseRule</text>
</g>
<!-- CourseRule&#45;&gt;AuthorizationModule -->
<g id="edge7" class="edge">
<title>CourseRule&#45;&gt;AuthorizationModule</title>
<path fill="none" stroke="black" d="M2215,-84.91C2215,-104.14 2215,-131.8 2215,-131.8 2215,-131.8 1245.76,-131.8 1245.76,-131.8"/>
<polygon fill="black" stroke="black" points="1245.76,-128.3 1235.76,-131.8 1245.76,-135.3 1245.76,-128.3"/>
</g>
<!-- FeathersAuthProvider -->
<g id="node9" class="node">
<title>FeathersAuthProvider</title>
<ellipse fill="#fdb462" stroke="black" cx="2044" cy="-66.8" rx="96.14" ry="18"/>
<text text-anchor="middle" x="2044" y="-62.6" font-family="Times,serif" font-size="14.00">FeathersAuthProvider</text>
</g>
<!-- FeathersAuthProvider&#45;&gt;AuthorizationModule -->
<g id="edge8" class="edge">
<title>FeathersAuthProvider&#45;&gt;AuthorizationModule</title>
<path fill="none" stroke="black" d="M2044,-85.07C2044,-103.36 2044,-128.8 2044,-128.8 2044,-128.8 1245.82,-128.8 1245.82,-128.8"/>
<polygon fill="black" stroke="black" points="1245.82,-125.3 1235.82,-128.8 1245.82,-132.3 1245.82,-125.3"/>
</g>
<!-- FeathersAuthorizationService -->
<g id="node10" class="node">
<title>FeathersAuthorizationService</title>
<ellipse fill="#fdb462" stroke="black" cx="1803" cy="-66.8" rx="126.19" ry="18"/>
<text text-anchor="middle" x="1803" y="-62.6" font-family="Times,serif" font-size="14.00">FeathersAuthorizationService</text>
</g>
<!-- FeathersAuthorizationService&#45;&gt;AuthorizationModule -->
<g id="edge9" class="edge">
<title>FeathersAuthorizationService&#45;&gt;AuthorizationModule</title>
<path fill="none" stroke="black" d="M1803,-84.83C1803,-101.86 1803,-124.8 1803,-124.8 1803,-124.8 1245.67,-124.8 1245.67,-124.8"/>
<polygon fill="black" stroke="black" points="1245.67,-121.3 1235.67,-124.8 1245.67,-128.3 1245.67,-121.3"/>
</g>
<!-- FeathersJwtProvider -->
<g id="node11" class="node">
<title>FeathersJwtProvider</title>
<ellipse fill="#fdb462" stroke="black" cx="1568" cy="-66.8" rx="90.35" ry="18"/>
<text text-anchor="middle" x="1568" y="-62.6" font-family="Times,serif" font-size="14.00">FeathersJwtProvider</text>
</g>
<!-- FeathersJwtProvider&#45;&gt;AuthorizationModule -->
<g id="edge10" class="edge">
<title>FeathersJwtProvider&#45;&gt;AuthorizationModule</title>
<path fill="none" stroke="black" d="M1568,-84.81C1568,-100.85 1568,-121.8 1568,-121.8 1568,-121.8 1245.93,-121.8 1245.93,-121.8"/>
<polygon fill="black" stroke="black" points="1245.93,-118.3 1235.93,-121.8 1245.93,-125.3 1245.93,-118.3"/>
</g>
<!-- FileRecordRepo -->
<g id="node12" class="node">
<title>FileRecordRepo</title>
<ellipse fill="#fdb462" stroke="black" cx="1385" cy="-66.8" rx="74.16" ry="18"/>
<text text-anchor="middle" x="1385" y="-62.6" font-family="Times,serif" font-size="14.00">FileRecordRepo</text>
</g>
<!-- FileRecordRepo&#45;&gt;AuthorizationModule -->
<g id="edge11" class="edge">
<title>FileRecordRepo&#45;&gt;AuthorizationModule</title>
<path fill="none" stroke="black" d="M1364.14,-84.35C1364.14,-99.1 1364.14,-117.8 1364.14,-117.8 1364.14,-117.8 1245.67,-117.8 1245.67,-117.8"/>
<polygon fill="black" stroke="black" points="1245.67,-114.3 1235.67,-117.8 1245.67,-121.3 1245.67,-114.3"/>
</g>
<!-- LessonRepo -->
<g id="node13" class="node">
<title>LessonRepo</title>
<ellipse fill="#fdb462" stroke="black" cx="1234" cy="-66.8" rx="58.56" ry="18"/>
<text text-anchor="middle" x="1234" y="-62.6" font-family="Times,serif" font-size="14.00">LessonRepo</text>
</g>
<!-- LessonRepo&#45;&gt;AuthorizationModule -->
<g id="edge12" class="edge">
<title>LessonRepo&#45;&gt;AuthorizationModule</title>
<path fill="none" stroke="black" d="M1205.44,-82.53C1205.44,-82.53 1205.44,-103.45 1205.44,-103.45"/>
<polygon fill="black" stroke="black" points="1201.94,-103.45 1205.44,-113.45 1208.94,-103.45 1201.94,-103.45"/>
</g>
<!-- LessonRule -->
<g id="node14" class="node">
<title>LessonRule</title>
<ellipse fill="#fdb462" stroke="black" cx="1101" cy="-66.8" rx="56.77" ry="18"/>
<text text-anchor="middle" x="1101" y="-62.6" font-family="Times,serif" font-size="14.00">LessonRule</text>
</g>
<!-- LessonRule&#45;&gt;AuthorizationModule -->
<g id="edge13" class="edge">
<title>LessonRule&#45;&gt;AuthorizationModule</title>
<path fill="none" stroke="black" d="M1127.99,-82.87C1127.99,-82.87 1127.99,-103.62 1127.99,-103.62"/>
<polygon fill="black" stroke="black" points="1124.49,-103.62 1127.99,-113.62 1131.49,-103.62 1124.49,-103.62"/>
</g>
<!-- ReferenceLoader -->
<g id="node15" class="node">
<title>ReferenceLoader</title>
<ellipse fill="#fdb462" stroke="black" cx="949" cy="-66.8" rx="77.53" ry="18"/>
<text text-anchor="middle" x="949" y="-62.6" font-family="Times,serif" font-size="14.00">ReferenceLoader</text>
</g>
<!-- ReferenceLoader&#45;&gt;AuthorizationModule -->
<g id="edge14" class="edge">
<title>ReferenceLoader&#45;&gt;AuthorizationModule</title>
<path fill="none" stroke="black" d="M973.61,-84.07C973.61,-98.86 973.61,-117.8 973.61,-117.8 973.61,-117.8 1088.27,-117.8 1088.27,-117.8"/>
<polygon fill="black" stroke="black" points="1088.27,-121.3 1098.27,-117.8 1088.27,-114.3 1088.27,-121.3"/>
</g>
<!-- SchoolRepo -->
<g id="node16" class="node">
<title>SchoolRepo</title>
<ellipse fill="#fdb462" stroke="black" cx="795" cy="-66.8" rx="58.49" ry="18"/>
<text text-anchor="middle" x="795" y="-62.6" font-family="Times,serif" font-size="14.00">SchoolRepo</text>
</g>
<!-- SchoolRepo&#45;&gt;AuthorizationModule -->
<g id="edge15" class="edge">
<title>SchoolRepo&#45;&gt;AuthorizationModule</title>
<path fill="none" stroke="black" d="M795,-84.81C795,-100.85 795,-121.8 795,-121.8 795,-121.8 1088.34,-121.8 1088.34,-121.8"/>
<polygon fill="black" stroke="black" points="1088.34,-125.3 1098.34,-121.8 1088.34,-118.3 1088.34,-125.3"/>
</g>
<!-- SchoolRule -->
<g id="node17" class="node">
<title>SchoolRule</title>
<ellipse fill="#fdb462" stroke="black" cx="663" cy="-66.8" rx="56.2" ry="18"/>
<text text-anchor="middle" x="663" y="-62.6" font-family="Times,serif" font-size="14.00">SchoolRule</text>
</g>
<!-- SchoolRule&#45;&gt;AuthorizationModule -->
<g id="edge16" class="edge">
<title>SchoolRule&#45;&gt;AuthorizationModule</title>
<path fill="none" stroke="black" d="M663,-84.83C663,-101.86 663,-124.8 663,-124.8 663,-124.8 1088.24,-124.8 1088.24,-124.8"/>
<polygon fill="black" stroke="black" points="1088.24,-128.3 1098.24,-124.8 1088.24,-121.3 1088.24,-128.3"/>
</g>
<!-- TaskRepo -->
<g id="node18" class="node">
<title>TaskRepo</title>
<ellipse fill="#fdb462" stroke="black" cx="539" cy="-66.8" rx="50.39" ry="18"/>
<text text-anchor="middle" x="539" y="-62.6" font-family="Times,serif" font-size="14.00">TaskRepo</text>
</g>
<!-- TaskRepo&#45;&gt;AuthorizationModule -->
<g id="edge17" class="edge">
<title>TaskRepo&#45;&gt;AuthorizationModule</title>
<path fill="none" stroke="black" d="M539,-85.07C539,-103.36 539,-128.8 539,-128.8 539,-128.8 1088.3,-128.8 1088.3,-128.8"/>
<polygon fill="black" stroke="black" points="1088.3,-132.3 1098.3,-128.8 1088.3,-125.3 1088.3,-132.3"/>
</g>
<!-- TaskRule -->
<g id="node19" class="node">
<title>TaskRule</title>
<ellipse fill="#fdb462" stroke="black" cx="423" cy="-66.8" rx="48.09" ry="18"/>
<text text-anchor="middle" x="423" y="-62.6" font-family="Times,serif" font-size="14.00">TaskRule</text>
</g>
<!-- TaskRule&#45;&gt;AuthorizationModule -->
<g id="edge18" class="edge">
<title>TaskRule&#45;&gt;AuthorizationModule</title>
<path fill="none" stroke="black" d="M423,-84.91C423,-104.14 423,-131.8 423,-131.8 423,-131.8 1088.34,-131.8 1088.34,-131.8"/>
<polygon fill="black" stroke="black" points="1088.34,-135.3 1098.34,-131.8 1088.34,-128.3 1088.34,-135.3"/>
</g>
<!-- TeamRule -->
<g id="node20" class="node">
<title>TeamRule</title>
<ellipse fill="#fdb462" stroke="black" cx="306" cy="-66.8" rx="51.02" ry="18"/>
<text text-anchor="middle" x="306" y="-62.6" font-family="Times,serif" font-size="14.00">TeamRule</text>
</g>
<!-- TeamRule&#45;&gt;AuthorizationModule -->
<g id="edge19" class="edge">
<title>TeamRule&#45;&gt;AuthorizationModule</title>
<path fill="none" stroke="black" d="M306,-84.93C306,-105.37 306,-135.8 306,-135.8 306,-135.8 1088,-135.8 1088,-135.8"/>
<polygon fill="black" stroke="black" points="1088,-139.3 1098,-135.8 1088,-132.3 1088,-139.3"/>
</g>
<!-- UserRepo -->
<g id="node21" class="node">
<title>UserRepo</title>
<ellipse fill="#fdb462" stroke="black" cx="187" cy="-66.8" rx="49.81" ry="18"/>
<text text-anchor="middle" x="187" y="-62.6" font-family="Times,serif" font-size="14.00">UserRepo</text>
</g>
<!-- UserRepo&#45;&gt;AuthorizationModule -->
<g id="edge20" class="edge">
<title>UserRepo&#45;&gt;AuthorizationModule</title>
<path fill="none" stroke="black" d="M187,-84.84C187,-106.46 187,-139.8 187,-139.8 187,-139.8 1088.09,-139.8 1088.09,-139.8"/>
<polygon fill="black" stroke="black" points="1088.09,-143.3 1098.09,-139.8 1088.09,-136.3 1088.09,-143.3"/>
</g>
<!-- UserRule -->
<g id="node22" class="node">
<title>UserRule</title>
<ellipse fill="#fdb462" stroke="black" cx="72" cy="-66.8" rx="47.52" ry="18"/>
<text text-anchor="middle" x="72" y="-62.6" font-family="Times,serif" font-size="14.00">UserRule</text>
</g>
<!-- UserRule&#45;&gt;AuthorizationModule -->
<g id="edge21" class="edge">
<title>UserRule&#45;&gt;AuthorizationModule</title>
<path fill="none" stroke="black" d="M72,-84.81C72,-107.29 72,-142.8 72,-142.8 72,-142.8 1088.09,-142.8 1088.09,-142.8"/>
<polygon fill="black" stroke="black" points="1088.09,-146.3 1098.09,-142.8 1088.09,-139.3 1088.09,-146.3"/>
</g>
</g>
</svg>
