<?xml version="1.0" encoding="UTF-8" standalone="no"?>
<!DOCTYPE svg PUBLIC "-//W3C//DTD SVG 1.1//EN"
 "http://www.w3.org/Graphics/SVG/1.1/DTD/svg11.dtd">
<!-- Generated by graphviz version 5.0.0 (20220707.1540)
 -->
<!-- Title: dependencies Pages: 1 -->
<svg width="2906pt" height="247pt"
 viewBox="0.00 0.00 2906.00 246.80" xmlns="http://www.w3.org/2000/svg" xmlns:xlink="http://www.w3.org/1999/xlink">
<g id="graph0" class="graph" transform="scale(1 1) rotate(0) translate(4 242.8)">
<title>dependencies</title>
<polygon fill="white" stroke="transparent" points="-4,4 -4,-242.8 2902,-242.8 2902,4 -4,4"/>
<text text-anchor="middle" x="1449" y="-8.2" font-family="sans-serif" font-size="14.00">dependencies</text>
<g id="clust1" class="cluster">
<title>cluster_AuthorizationModule</title>
<polygon fill="none" stroke="black" stroke-dasharray="1,5" points="8,-32.8 8,-230.8 2890,-230.8 2890,-32.8 8,-32.8"/>
</g>
<g id="clust6" class="cluster">
<title>cluster_AuthorizationModule_providers</title>
<polygon fill="none" stroke="black" points="146,-40.8 146,-92.8 2882,-92.8 2882,-40.8 146,-40.8"/>
</g>
<g id="clust4" class="cluster">
<title>cluster_AuthorizationModule_exports</title>
<polygon fill="none" stroke="black" points="957,-170.8 957,-222.8 1470,-222.8 1470,-170.8 957,-170.8"/>
</g>
<g id="clust3" class="cluster">
<title>cluster_AuthorizationModule_imports</title>
<polygon fill="none" stroke="black" points="16,-40.8 16,-92.8 138,-92.8 138,-40.8 16,-40.8"/>
</g>
<!-- FeathersModule -->
<g id="node1" class="node">
<title>FeathersModule</title>
<polygon fill="#8dd3c7" stroke="black" points="130.48,-84.8 127.48,-88.8 106.48,-88.8 103.48,-84.8 23.52,-84.8 23.52,-48.8 130.48,-48.8 130.48,-84.8"/>
<text text-anchor="middle" x="77" y="-62.6" font-family="Times,serif" font-size="14.00">FeathersModule</text>
</g>
<!-- AuthorizationModule -->
<g id="node2" class="node">
<title>AuthorizationModule</title>
<polygon fill="#8dd3c7" stroke="black" points="1279.81,-149.8 1276.81,-153.8 1255.81,-153.8 1252.81,-149.8 1142.19,-149.8 1142.19,-113.8 1279.81,-113.8 1279.81,-149.8"/>
<text text-anchor="middle" x="1211" y="-127.6" font-family="Times,serif" font-size="14.00">AuthorizationModule</text>
</g>
<!-- FeathersModule&#45;&gt;AuthorizationModule -->
<g id="edge1" class="edge">
<title>FeathersModule&#45;&gt;AuthorizationModule</title>
<path fill="none" stroke="black" d="M77,-85.05C77,-107.82 77,-143.8 77,-143.8 77,-143.8 1132.19,-143.8 1132.19,-143.8"/>
<polygon fill="black" stroke="black" points="1132.19,-147.3 1142.19,-143.8 1132.19,-140.3 1132.19,-147.3"/>
</g>
<!-- AuthorizationService  -->
<g id="node3" class="node">
<title>AuthorizationService </title>
<polygon fill="#fb8072" stroke="black" points="1461.74,-214.8 1322.26,-214.8 1322.26,-178.8 1461.74,-178.8 1461.74,-214.8"/>
<text text-anchor="middle" x="1392" y="-192.6" font-family="Times,serif" font-size="14.00">AuthorizationService </text>
</g>
<!-- AuthorizationModule&#45;&gt;AuthorizationService  -->
<g id="edge2" class="edge">
<title>AuthorizationModule&#45;&gt;AuthorizationService </title>
<path fill="none" stroke="black" stroke-dasharray="5,2" d="M1279.79,-146.8C1323.15,-146.8 1371.01,-146.8 1371.01,-146.8 1371.01,-146.8 1371.01,-168.75 1371.01,-168.75"/>
<polygon fill="black" stroke="black" points="1367.51,-168.75 1371.01,-178.75 1374.51,-168.75 1367.51,-168.75"/>
</g>
<!-- FeathersAuthorizationService  -->
<g id="node4" class="node">
<title>FeathersAuthorizationService </title>
<polygon fill="#fb8072" stroke="black" points="1304.17,-214.8 1117.83,-214.8 1117.83,-178.8 1304.17,-178.8 1304.17,-214.8"/>
<text text-anchor="middle" x="1211" y="-192.6" font-family="Times,serif" font-size="14.00">FeathersAuthorizationService </text>
</g>
<!-- AuthorizationModule&#45;&gt;FeathersAuthorizationService  -->
<g id="edge3" class="edge">
<title>AuthorizationModule&#45;&gt;FeathersAuthorizationService </title>
<path fill="none" stroke="black" stroke-dasharray="5,2" d="M1211,-149.91C1211,-149.91 1211,-168.79 1211,-168.79"/>
<polygon fill="black" stroke="black" points="1207.5,-168.79 1211,-178.79 1214.5,-168.79 1207.5,-168.79"/>
</g>
<!-- FeathersJwtProvider  -->
<g id="node5" class="node">
<title>FeathersJwtProvider </title>
<polygon fill="#fb8072" stroke="black" points="1099.09,-214.8 964.91,-214.8 964.91,-178.8 1099.09,-178.8 1099.09,-214.8"/>
<text text-anchor="middle" x="1032" y="-192.6" font-family="Times,serif" font-size="14.00">FeathersJwtProvider </text>
</g>
<!-- AuthorizationModule&#45;&gt;FeathersJwtProvider  -->
<g id="edge4" class="edge">
<title>AuthorizationModule&#45;&gt;FeathersJwtProvider </title>
<path fill="none" stroke="black" stroke-dasharray="5,2" d="M1142.31,-146.8C1098.16,-146.8 1049.02,-146.8 1049.02,-146.8 1049.02,-146.8 1049.02,-168.75 1049.02,-168.75"/>
<polygon fill="black" stroke="black" points="1045.52,-168.75 1049.02,-178.75 1052.52,-168.75 1045.52,-168.75"/>
</g>
<!-- AuthorizationService -->
<g id="node6" class="node">
<title>AuthorizationService</title>
<ellipse fill="#fdb462" stroke="black" cx="2780" cy="-66.8" rx="93.76" ry="18"/>
<text text-anchor="middle" x="2780" y="-62.6" font-family="Times,serif" font-size="14.00">AuthorizationService</text>
</g>
<!-- AuthorizationService&#45;&gt;AuthorizationModule -->
<g id="edge5" class="edge">
<title>AuthorizationService&#45;&gt;AuthorizationModule</title>
<path fill="none" stroke="black" d="M2780,-85.05C2780,-107.82 2780,-143.8 2780,-143.8 2780,-143.8 1289.68,-143.8 1289.68,-143.8"/>
<polygon fill="black" stroke="black" points="1289.68,-140.3 1279.68,-143.8 1289.68,-147.3 1289.68,-140.3"/>
</g>
<!-- CourseRepo -->
<g id="node7" class="node">
<title>CourseRepo</title>
<ellipse fill="#fdb462" stroke="black" cx="2610" cy="-66.8" rx="58.56" ry="18"/>
<text text-anchor="middle" x="2610" y="-62.6" font-family="Times,serif" font-size="14.00">CourseRepo</text>
</g>
<!-- CourseRepo&#45;&gt;AuthorizationModule -->
<g id="edge6" class="edge">
<title>CourseRepo&#45;&gt;AuthorizationModule</title>
<path fill="none" stroke="black" d="M2610,-85.09C2610,-107.01 2610,-140.8 2610,-140.8 2610,-140.8 1289.9,-140.8 1289.9,-140.8"/>
<polygon fill="black" stroke="black" points="1289.9,-137.3 1279.9,-140.8 1289.9,-144.3 1289.9,-137.3"/>
</g>
<!-- CourseRule -->
<g id="node8" class="node">
<title>CourseRule</title>
<ellipse fill="#fdb462" stroke="black" cx="2477" cy="-66.8" rx="56.77" ry="18"/>
<text text-anchor="middle" x="2477" y="-62.6" font-family="Times,serif" font-size="14.00">CourseRule</text>
</g>
<!-- CourseRule&#45;&gt;AuthorizationModule -->
<g id="edge7" class="edge">
<title>CourseRule&#45;&gt;AuthorizationModule</title>
<path fill="none" stroke="black" d="M2477,-84.83C2477,-105.57 2477,-136.8 2477,-136.8 2477,-136.8 1289.96,-136.8 1289.96,-136.8"/>
<polygon fill="black" stroke="black" points="1289.96,-133.3 1279.96,-136.8 1289.96,-140.3 1289.96,-133.3"/>
</g>
<!-- FeathersAuthProvider -->
<g id="node9" class="node">
<title>FeathersAuthProvider</title>
<ellipse fill="#fdb462" stroke="black" cx="2306" cy="-66.8" rx="96.14" ry="18"/>
<text text-anchor="middle" x="2306" y="-62.6" font-family="Times,serif" font-size="14.00">FeathersAuthProvider</text>
</g>
<!-- FeathersAuthProvider&#45;&gt;AuthorizationModule -->
<g id="edge8" class="edge">
<title>FeathersAuthProvider&#45;&gt;AuthorizationModule</title>
<path fill="none" stroke="black" d="M2306,-85.11C2306,-104.95 2306,-133.8 2306,-133.8 2306,-133.8 1289.91,-133.8 1289.91,-133.8"/>
<polygon fill="black" stroke="black" points="1289.91,-130.3 1279.91,-133.8 1289.91,-137.3 1289.91,-130.3"/>
</g>
<!-- FeathersAuthorizationService -->
<g id="node10" class="node">
<title>FeathersAuthorizationService</title>
<ellipse fill="#fdb462" stroke="black" cx="2065" cy="-66.8" rx="126.19" ry="18"/>
<text text-anchor="middle" x="2065" y="-62.6" font-family="Times,serif" font-size="14.00">FeathersAuthorizationService</text>
</g>
<!-- FeathersAuthorizationService&#45;&gt;AuthorizationModule -->
<g id="edge9" class="edge">
<title>FeathersAuthorizationService&#45;&gt;AuthorizationModule</title>
<path fill="none" stroke="black" d="M2065,-84.97C2065,-103.89 2065,-130.8 2065,-130.8 2065,-130.8 1289.8,-130.8 1289.8,-130.8"/>
<polygon fill="black" stroke="black" points="1289.8,-127.3 1279.8,-130.8 1289.8,-134.3 1289.8,-127.3"/>
</g>
<!-- FeathersJwtProvider -->
<g id="node11" class="node">
<title>FeathersJwtProvider</title>
<ellipse fill="#fdb462" stroke="black" cx="1830" cy="-66.8" rx="90.35" ry="18"/>
<text text-anchor="middle" x="1830" y="-62.6" font-family="Times,serif" font-size="14.00">FeathersJwtProvider</text>
</g>
<!-- FeathersJwtProvider&#45;&gt;AuthorizationModule -->
<g id="edge10" class="edge">
<title>FeathersJwtProvider&#45;&gt;AuthorizationModule</title>
<path fill="none" stroke="black" d="M1830,-85.1C1830,-103.07 1830,-127.8 1830,-127.8 1830,-127.8 1289.91,-127.8 1289.91,-127.8"/>
<polygon fill="black" stroke="black" points="1289.91,-124.3 1279.91,-127.8 1289.91,-131.3 1289.91,-124.3"/>
</g>
<!-- FileRecordRepo -->
<g id="node12" class="node">
<title>FileRecordRepo</title>
<ellipse fill="#fdb462" stroke="black" cx="1647" cy="-66.8" rx="74.16" ry="18"/>
<text text-anchor="middle" x="1647" y="-62.6" font-family="Times,serif" font-size="14.00">FileRecordRepo</text>
</g>
<!-- FileRecordRepo&#45;&gt;AuthorizationModule -->
<g id="edge11" class="edge">
<title>FileRecordRepo&#45;&gt;AuthorizationModule</title>
<path fill="none" stroke="black" d="M1647,-84.84C1647,-101.53 1647,-123.8 1647,-123.8 1647,-123.8 1290.09,-123.8 1290.09,-123.8"/>
<polygon fill="black" stroke="black" points="1290.09,-120.3 1280.09,-123.8 1290.09,-127.3 1290.09,-120.3"/>
</g>
<!-- LessonRepo -->
<g id="node13" class="node">
<title>LessonRepo</title>
<ellipse fill="#fdb462" stroke="black" cx="1496" cy="-66.8" rx="58.56" ry="18"/>
<text text-anchor="middle" x="1496" y="-62.6" font-family="Times,serif" font-size="14.00">LessonRepo</text>
</g>
<!-- LessonRepo&#45;&gt;AuthorizationModule -->
<g id="edge12" class="edge">
<title>LessonRepo&#45;&gt;AuthorizationModule</title>
<path fill="none" stroke="black" d="M1449.42,-77.99C1449.42,-93.81 1449.42,-120.8 1449.42,-120.8 1449.42,-120.8 1289.96,-120.8 1289.96,-120.8"/>
<polygon fill="black" stroke="black" points="1289.96,-117.3 1279.96,-120.8 1289.96,-124.3 1289.96,-117.3"/>
</g>
<!-- LessonRule -->
<g id="node14" class="node">
<title>LessonRule</title>
<ellipse fill="#fdb462" stroke="black" cx="1363" cy="-66.8" rx="56.77" ry="18"/>
<text text-anchor="middle" x="1363" y="-62.6" font-family="Times,serif" font-size="14.00">LessonRule</text>
</g>
<!-- LessonRule&#45;&gt;AuthorizationModule -->
<g id="edge13" class="edge">
<title>LessonRule&#45;&gt;AuthorizationModule</title>
<path fill="none" stroke="black" d="M1314.37,-76.15C1314.37,-90.88 1314.37,-117.8 1314.37,-117.8 1314.37,-117.8 1289.66,-117.8 1289.66,-117.8"/>
<polygon fill="black" stroke="black" points="1289.66,-114.3 1279.66,-117.8 1289.66,-121.3 1289.66,-114.3"/>
</g>
<!-- ReferenceLoader -->
<g id="node15" class="node">
<title>ReferenceLoader</title>
<ellipse fill="#fdb462" stroke="black" cx="1211" cy="-66.8" rx="77.53" ry="18"/>
<text text-anchor="middle" x="1211" y="-62.6" font-family="Times,serif" font-size="14.00">ReferenceLoader</text>
</g>
<!-- ReferenceLoader&#45;&gt;AuthorizationModule -->
<g id="edge14" class="edge">
<title>ReferenceLoader&#45;&gt;AuthorizationModule</title>
<path fill="none" stroke="black" d="M1211,-84.91C1211,-84.91 1211,-103.79 1211,-103.79"/>
<polygon fill="black" stroke="black" points="1207.5,-103.79 1211,-113.79 1214.5,-103.79 1207.5,-103.79"/>
</g>
<!-- SchoolRepo -->
<g id="node16" class="node">
<title>SchoolRepo</title>
<ellipse fill="#fdb462" stroke="black" cx="1057" cy="-66.8" rx="58.49" ry="18"/>
<text text-anchor="middle" x="1057" y="-62.6" font-family="Times,serif" font-size="14.00">SchoolRepo</text>
</g>
<!-- SchoolRepo&#45;&gt;AuthorizationModule -->
<g id="edge15" class="edge">
<title>SchoolRepo&#45;&gt;AuthorizationModule</title>
<path fill="none" stroke="black" d="M1107.27,-76.15C1107.27,-90.88 1107.27,-117.8 1107.27,-117.8 1107.27,-117.8 1132.1,-117.8 1132.1,-117.8"/>
<polygon fill="black" stroke="black" points="1132.1,-121.3 1142.1,-117.8 1132.1,-114.3 1132.1,-121.3"/>
</g>
<!-- SchoolRule -->
<g id="node17" class="node">
<title>SchoolRule</title>
<ellipse fill="#fdb462" stroke="black" cx="925" cy="-66.8" rx="56.2" ry="18"/>
<text text-anchor="middle" x="925" y="-62.6" font-family="Times,serif" font-size="14.00">SchoolRule</text>
</g>
<!-- SchoolRule&#45;&gt;AuthorizationModule -->
<g id="edge16" class="edge">
<title>SchoolRule&#45;&gt;AuthorizationModule</title>
<path fill="none" stroke="black" d="M972.9,-76.21C972.9,-91.68 972.9,-120.8 972.9,-120.8 972.9,-120.8 1132.13,-120.8 1132.13,-120.8"/>
<polygon fill="black" stroke="black" points="1132.13,-124.3 1142.13,-120.8 1132.13,-117.3 1132.13,-124.3"/>
</g>
<!-- TaskRepo -->
<g id="node18" class="node">
<title>TaskRepo</title>
<ellipse fill="#fdb462" stroke="black" cx="801" cy="-66.8" rx="50.39" ry="18"/>
<text text-anchor="middle" x="801" y="-62.6" font-family="Times,serif" font-size="14.00">TaskRepo</text>
</g>
<!-- TaskRepo&#45;&gt;AuthorizationModule -->
<g id="edge17" class="edge">
<title>TaskRepo&#45;&gt;AuthorizationModule</title>
<path fill="none" stroke="black" d="M801,-84.84C801,-101.53 801,-123.8 801,-123.8 801,-123.8 1131.91,-123.8 1131.91,-123.8"/>
<polygon fill="black" stroke="black" points="1131.91,-127.3 1141.91,-123.8 1131.91,-120.3 1131.91,-127.3"/>
</g>
<!-- TaskRule -->
<g id="node19" class="node">
<title>TaskRule</title>
<ellipse fill="#fdb462" stroke="black" cx="685" cy="-66.8" rx="48.09" ry="18"/>
<text text-anchor="middle" x="685" y="-62.6" font-family="Times,serif" font-size="14.00">TaskRule</text>
</g>
<!-- TaskRule&#45;&gt;AuthorizationModule -->
<g id="edge18" class="edge">
<title>TaskRule&#45;&gt;AuthorizationModule</title>
<path fill="none" stroke="black" d="M685,-85.1C685,-103.07 685,-127.8 685,-127.8 685,-127.8 1132.23,-127.8 1132.23,-127.8"/>
<polygon fill="black" stroke="black" points="1132.23,-131.3 1142.23,-127.8 1132.23,-124.3 1132.23,-131.3"/>
</g>
<!-- TeamRule -->
<g id="node20" class="node">
<title>TeamRule</title>
<ellipse fill="#fdb462" stroke="black" cx="568" cy="-66.8" rx="51.02" ry="18"/>
<text text-anchor="middle" x="568" y="-62.6" font-family="Times,serif" font-size="14.00">TeamRule</text>
</g>
<!-- TeamRule&#45;&gt;AuthorizationModule -->
<g id="edge19" class="edge">
<title>TeamRule&#45;&gt;AuthorizationModule</title>
<path fill="none" stroke="black" d="M568,-84.97C568,-103.89 568,-130.8 568,-130.8 568,-130.8 1132.19,-130.8 1132.19,-130.8"/>
<polygon fill="black" stroke="black" points="1132.19,-134.3 1142.19,-130.8 1132.19,-127.3 1132.19,-134.3"/>
</g>
<!-- TeamsRepo -->
<g id="node21" class="node">
<title>TeamsRepo</title>
<ellipse fill="#fdb462" stroke="black" cx="442" cy="-66.8" rx="57.32" ry="18"/>
<text text-anchor="middle" x="442" y="-62.6" font-family="Times,serif" font-size="14.00">TeamsRepo</text>
</g>
<!-- TeamsRepo&#45;&gt;AuthorizationModule -->
<g id="edge20" class="edge">
<title>TeamsRepo&#45;&gt;AuthorizationModule</title>
<path fill="none" stroke="black" d="M442,-85.11C442,-104.95 442,-133.8 442,-133.8 442,-133.8 1132.08,-133.8 1132.08,-133.8"/>
<polygon fill="black" stroke="black" points="1132.08,-137.3 1142.08,-133.8 1132.08,-130.3 1132.08,-137.3"/>
</g>
<!-- UserRepo -->
<g id="node22" class="node">
<title>UserRepo</title>
<ellipse fill="#fdb462" stroke="black" cx="317" cy="-66.8" rx="49.81" ry="18"/>
<text text-anchor="middle" x="317" y="-62.6" font-family="Times,serif" font-size="14.00">UserRepo</text>
</g>
<!-- UserRepo&#45;&gt;AuthorizationModule -->
<g id="edge21" class="edge">
<title>UserRepo&#45;&gt;AuthorizationModule</title>
<path fill="none" stroke="black" d="M317,-84.83C317,-105.57 317,-136.8 317,-136.8 317,-136.8 1132.33,-136.8 1132.33,-136.8"/>
<polygon fill="black" stroke="black" points="1132.33,-140.3 1142.33,-136.8 1132.33,-133.3 1132.33,-140.3"/>
</g>
<!-- UserRule -->
<g id="node23" class="node">
<title>UserRule</title>
<ellipse fill="#fdb462" stroke="black" cx="202" cy="-66.8" rx="47.52" ry="18"/>
<text text-anchor="middle" x="202" y="-62.6" font-family="Times,serif" font-size="14.00">UserRule</text>
</g>
<!-- UserRule&#45;&gt;AuthorizationModule -->
<g id="edge22" class="edge">
<title>UserRule&#45;&gt;AuthorizationModule</title>
<path fill="none" stroke="black" d="M202,-85.09C202,-107.01 202,-140.8 202,-140.8 202,-140.8 1132.04,-140.8 1132.04,-140.8"/>
<polygon fill="black" stroke="black" points="1132.04,-144.3 1142.04,-140.8 1132.04,-137.3 1132.04,-144.3"/>
</g>
</g>
</svg>
