<?xml version="1.0" encoding="UTF-8" standalone="no"?>
<!DOCTYPE svg PUBLIC "-//W3C//DTD SVG 1.1//EN"
 "http://www.w3.org/Graphics/SVG/1.1/DTD/svg11.dtd">
<!-- Generated by graphviz version 5.0.0 (20220707.1540)
 -->
<!-- Title: dependencies Pages: 1 -->
<svg width="3272pt" height="247pt"
 viewBox="0.00 0.00 3272.00 246.80" xmlns="http://www.w3.org/2000/svg" xmlns:xlink="http://www.w3.org/1999/xlink">
<g id="graph0" class="graph" transform="scale(1 1) rotate(0) translate(4 242.8)">
<title>dependencies</title>
<polygon fill="white" stroke="transparent" points="-4,4 -4,-242.8 3268,-242.8 3268,4 -4,4"/>
<text text-anchor="middle" x="1632" y="-8.2" font-family="sans-serif" font-size="14.00">dependencies</text>
<g id="clust1" class="cluster">
<title>cluster_AuthorizationModule</title>
<polygon fill="none" stroke="black" stroke-dasharray="1,5" points="8,-32.8 8,-230.8 3256,-230.8 3256,-32.8 8,-32.8"/>
</g>
<g id="clust6" class="cluster">
<title>cluster_AuthorizationModule_providers</title>
<polygon fill="none" stroke="black" points="146,-40.8 146,-92.8 3248,-92.8 3248,-40.8 146,-40.8"/>
</g>
<g id="clust3" class="cluster">
<title>cluster_AuthorizationModule_imports</title>
<polygon fill="none" stroke="black" points="16,-40.8 16,-92.8 138,-92.8 138,-40.8 16,-40.8"/>
</g>
<g id="clust4" class="cluster">
<title>cluster_AuthorizationModule_exports</title>
<polygon fill="none" stroke="black" points="1109,-170.8 1109,-222.8 1622,-222.8 1622,-170.8 1109,-170.8"/>
</g>
<!-- FeathersModule -->
<g id="node1" class="node">
<title>FeathersModule</title>
<polygon fill="#8dd3c7" stroke="black" points="130.48,-84.8 127.48,-88.8 106.48,-88.8 103.48,-84.8 23.52,-84.8 23.52,-48.8 130.48,-48.8 130.48,-84.8"/>
<text text-anchor="middle" x="77" y="-62.6" font-family="Times,serif" font-size="14.00">FeathersModule</text>
</g>
<!-- AuthorizationModule -->
<g id="node2" class="node">
<title>AuthorizationModule</title>
<polygon fill="#8dd3c7" stroke="black" points="1431.81,-149.8 1428.81,-153.8 1407.81,-153.8 1404.81,-149.8 1294.19,-149.8 1294.19,-113.8 1431.81,-113.8 1431.81,-149.8"/>
<text text-anchor="middle" x="1363" y="-127.6" font-family="Times,serif" font-size="14.00">AuthorizationModule</text>
</g>
<!-- FeathersModule&#45;&gt;AuthorizationModule -->
<g id="edge1" class="edge">
<title>FeathersModule&#45;&gt;AuthorizationModule</title>
<path fill="none" stroke="black" d="M77,-85.05C77,-107.82 77,-143.8 77,-143.8 77,-143.8 1284.31,-143.8 1284.31,-143.8"/>
<polygon fill="black" stroke="black" points="1284.31,-147.3 1294.31,-143.8 1284.31,-140.3 1284.31,-147.3"/>
</g>
<!-- AuthorizationService  -->
<g id="node3" class="node">
<title>AuthorizationService </title>
<polygon fill="#fb8072" stroke="black" points="1613.74,-214.8 1474.26,-214.8 1474.26,-178.8 1613.74,-178.8 1613.74,-214.8"/>
<text text-anchor="middle" x="1544" y="-192.6" font-family="Times,serif" font-size="14.00">AuthorizationService </text>
</g>
<!-- AuthorizationModule&#45;&gt;AuthorizationService  -->
<g id="edge2" class="edge">
<title>AuthorizationModule&#45;&gt;AuthorizationService </title>
<path fill="none" stroke="black" stroke-dasharray="5,2" d="M1431.69,-146.8C1471.8,-146.8 1514.58,-146.8 1514.58,-146.8 1514.58,-146.8 1514.58,-168.75 1514.58,-168.75"/>
<polygon fill="black" stroke="black" points="1511.08,-168.75 1514.58,-178.75 1518.08,-168.75 1511.08,-168.75"/>
</g>
<!-- FeathersAuthorizationService  -->
<g id="node4" class="node">
<title>FeathersAuthorizationService </title>
<polygon fill="#fb8072" stroke="black" points="1456.17,-214.8 1269.83,-214.8 1269.83,-178.8 1456.17,-178.8 1456.17,-214.8"/>
<text text-anchor="middle" x="1363" y="-192.6" font-family="Times,serif" font-size="14.00">FeathersAuthorizationService </text>
</g>
<!-- AuthorizationModule&#45;&gt;FeathersAuthorizationService  -->
<g id="edge3" class="edge">
<title>AuthorizationModule&#45;&gt;FeathersAuthorizationService </title>
<path fill="none" stroke="black" stroke-dasharray="5,2" d="M1363,-149.91C1363,-149.91 1363,-168.79 1363,-168.79"/>
<polygon fill="black" stroke="black" points="1359.5,-168.79 1363,-178.79 1366.5,-168.79 1359.5,-168.79"/>
</g>
<!-- FeathersJwtProvider  -->
<g id="node5" class="node">
<title>FeathersJwtProvider </title>
<polygon fill="#fb8072" stroke="black" points="1251.09,-214.8 1116.91,-214.8 1116.91,-178.8 1251.09,-178.8 1251.09,-214.8"/>
<text text-anchor="middle" x="1184" y="-192.6" font-family="Times,serif" font-size="14.00">FeathersJwtProvider </text>
</g>
<!-- AuthorizationModule&#45;&gt;FeathersJwtProvider  -->
<g id="edge4" class="edge">
<title>AuthorizationModule&#45;&gt;FeathersJwtProvider </title>
<path fill="none" stroke="black" stroke-dasharray="5,2" d="M1294.1,-146.8C1246.75,-146.8 1192.39,-146.8 1192.39,-146.8 1192.39,-146.8 1192.39,-168.75 1192.39,-168.75"/>
<polygon fill="black" stroke="black" points="1188.89,-168.75 1192.39,-178.75 1195.89,-168.75 1188.89,-168.75"/>
</g>
<!-- AuthorizationService -->
<g id="node6" class="node">
<title>AuthorizationService</title>
<ellipse fill="#fdb462" stroke="black" cx="3146" cy="-66.8" rx="93.76" ry="18"/>
<text text-anchor="middle" x="3146" y="-62.6" font-family="Times,serif" font-size="14.00">AuthorizationService</text>
</g>
<!-- AuthorizationService&#45;&gt;AuthorizationModule -->
<g id="edge5" class="edge">
<title>AuthorizationService&#45;&gt;AuthorizationModule</title>
<path fill="none" stroke="black" d="M3146,-85.05C3146,-107.82 3146,-143.8 3146,-143.8 3146,-143.8 1441.8,-143.8 1441.8,-143.8"/>
<polygon fill="black" stroke="black" points="1441.8,-140.3 1431.8,-143.8 1441.8,-147.3 1441.8,-140.3"/>
</g>
<!-- CourseGroupRepo -->
<g id="node7" class="node">
<title>CourseGroupRepo</title>
<ellipse fill="#fdb462" stroke="black" cx="2951" cy="-66.8" rx="83.41" ry="18"/>
<text text-anchor="middle" x="2951" y="-62.6" font-family="Times,serif" font-size="14.00">CourseGroupRepo</text>
</g>
<!-- CourseGroupRepo&#45;&gt;AuthorizationModule -->
<g id="edge6" class="edge">
<title>CourseGroupRepo&#45;&gt;AuthorizationModule</title>
<path fill="none" stroke="black" d="M2951,-85.09C2951,-107.01 2951,-140.8 2951,-140.8 2951,-140.8 1441.74,-140.8 1441.74,-140.8"/>
<polygon fill="black" stroke="black" points="1441.74,-137.3 1431.74,-140.8 1441.74,-144.3 1441.74,-137.3"/>
</g>
<!-- CourseGroupRule -->
<g id="node8" class="node">
<title>CourseGroupRule</title>
<ellipse fill="#fdb462" stroke="black" cx="2768" cy="-66.8" rx="81.12" ry="18"/>
<text text-anchor="middle" x="2768" y="-62.6" font-family="Times,serif" font-size="14.00">CourseGroupRule</text>
</g>
<!-- CourseGroupRule&#45;&gt;AuthorizationModule -->
<g id="edge7" class="edge">
<title>CourseGroupRule&#45;&gt;AuthorizationModule</title>
<path fill="none" stroke="black" d="M2768,-84.83C2768,-105.57 2768,-136.8 2768,-136.8 2768,-136.8 1441.72,-136.8 1441.72,-136.8"/>
<polygon fill="black" stroke="black" points="1441.72,-133.3 1431.72,-136.8 1441.72,-140.3 1441.72,-133.3"/>
</g>
<!-- CourseRepo -->
<g id="node9" class="node">
<title>CourseRepo</title>
<ellipse fill="#fdb462" stroke="black" cx="2610" cy="-66.8" rx="58.56" ry="18"/>
<text text-anchor="middle" x="2610" y="-62.6" font-family="Times,serif" font-size="14.00">CourseRepo</text>
</g>
<!-- CourseRepo&#45;&gt;AuthorizationModule -->
<g id="edge8" class="edge">
<title>CourseRepo&#45;&gt;AuthorizationModule</title>
<path fill="none" stroke="black" d="M2610,-85.11C2610,-104.95 2610,-133.8 2610,-133.8 2610,-133.8 1441.82,-133.8 1441.82,-133.8"/>
<polygon fill="black" stroke="black" points="1441.82,-130.3 1431.82,-133.8 1441.82,-137.3 1441.82,-130.3"/>
</g>
<!-- CourseRule -->
<g id="node10" class="node">
<title>CourseRule</title>
<ellipse fill="#fdb462" stroke="black" cx="2477" cy="-66.8" rx="56.77" ry="18"/>
<text text-anchor="middle" x="2477" y="-62.6" font-family="Times,serif" font-size="14.00">CourseRule</text>
</g>
<!-- CourseRule&#45;&gt;AuthorizationModule -->
<g id="edge9" class="edge">
<title>CourseRule&#45;&gt;AuthorizationModule</title>
<path fill="none" stroke="black" d="M2477,-84.97C2477,-103.89 2477,-130.8 2477,-130.8 2477,-130.8 1441.84,-130.8 1441.84,-130.8"/>
<polygon fill="black" stroke="black" points="1441.85,-127.3 1431.84,-130.8 1441.84,-134.3 1441.85,-127.3"/>
</g>
<!-- FeathersAuthProvider -->
<g id="node11" class="node">
<title>FeathersAuthProvider</title>
<ellipse fill="#fdb462" stroke="black" cx="2306" cy="-66.8" rx="96.14" ry="18"/>
<text text-anchor="middle" x="2306" y="-62.6" font-family="Times,serif" font-size="14.00">FeathersAuthProvider</text>
</g>
<!-- FeathersAuthProvider&#45;&gt;AuthorizationModule -->
<g id="edge10" class="edge">
<title>FeathersAuthProvider&#45;&gt;AuthorizationModule</title>
<path fill="none" stroke="black" d="M2306,-85.1C2306,-103.07 2306,-127.8 2306,-127.8 2306,-127.8 1441.96,-127.8 1441.96,-127.8"/>
<polygon fill="black" stroke="black" points="1441.96,-124.3 1431.96,-127.8 1441.96,-131.3 1441.96,-124.3"/>
</g>
<!-- FeathersAuthorizationService -->
<g id="node12" class="node">
<title>FeathersAuthorizationService</title>
<ellipse fill="#fdb462" stroke="black" cx="2065" cy="-66.8" rx="126.19" ry="18"/>
<text text-anchor="middle" x="2065" y="-62.6" font-family="Times,serif" font-size="14.00">FeathersAuthorizationService</text>
</g>
<!-- FeathersAuthorizationService&#45;&gt;AuthorizationModule -->
<g id="edge11" class="edge">
<title>FeathersAuthorizationService&#45;&gt;AuthorizationModule</title>
<path fill="none" stroke="black" d="M2065,-84.84C2065,-101.53 2065,-123.8 2065,-123.8 2065,-123.8 1441.91,-123.8 1441.91,-123.8"/>
<polygon fill="black" stroke="black" points="1441.91,-120.3 1431.91,-123.8 1441.91,-127.3 1441.91,-120.3"/>
</g>
<!-- FeathersJwtProvider -->
<g id="node13" class="node">
<title>FeathersJwtProvider</title>
<ellipse fill="#fdb462" stroke="black" cx="1830" cy="-66.8" rx="90.35" ry="18"/>
<text text-anchor="middle" x="1830" y="-62.6" font-family="Times,serif" font-size="14.00">FeathersJwtProvider</text>
</g>
<!-- FeathersJwtProvider&#45;&gt;AuthorizationModule -->
<g id="edge12" class="edge">
<title>FeathersJwtProvider&#45;&gt;AuthorizationModule</title>
<path fill="none" stroke="black" d="M1830,-85.08C1830,-100.75 1830,-120.8 1830,-120.8 1830,-120.8 1441.66,-120.8 1441.66,-120.8"/>
<polygon fill="black" stroke="black" points="1441.66,-117.3 1431.66,-120.8 1441.66,-124.3 1441.66,-117.3"/>
</g>
<!-- FileRecordRepo -->
<g id="node14" class="node">
<title>FileRecordRepo</title>
<ellipse fill="#fdb462" stroke="black" cx="1647" cy="-66.8" rx="74.16" ry="18"/>
<text text-anchor="middle" x="1647" y="-62.6" font-family="Times,serif" font-size="14.00">FileRecordRepo</text>
</g>
<!-- FileRecordRepo&#45;&gt;AuthorizationModule -->
<g id="edge13" class="edge">
<title>FileRecordRepo&#45;&gt;AuthorizationModule</title>
<path fill="none" stroke="black" d="M1593.14,-79.41C1593.14,-94.51 1593.14,-117.8 1593.14,-117.8 1593.14,-117.8 1441.74,-117.8 1441.74,-117.8"/>
<polygon fill="black" stroke="black" points="1441.74,-114.3 1431.74,-117.8 1441.74,-121.3 1441.74,-114.3"/>
</g>
<!-- LessonRepo -->
<g id="node15" class="node">
<title>LessonRepo</title>
<ellipse fill="#fdb462" stroke="black" cx="1496" cy="-66.8" rx="58.56" ry="18"/>
<text text-anchor="middle" x="1496" y="-62.6" font-family="Times,serif" font-size="14.00">LessonRepo</text>
</g>
<!-- LessonRepo&#45;&gt;AuthorizationModule -->
<g id="edge14" class="edge">
<title>LessonRepo&#45;&gt;AuthorizationModule</title>
<path fill="none" stroke="black" d="M1436.95,-66.8C1430.18,-66.8 1425.64,-66.8 1425.64,-66.8 1425.64,-66.8 1425.64,-103.69 1425.64,-103.69"/>
<polygon fill="black" stroke="black" points="1422.14,-103.69 1425.64,-113.69 1429.14,-103.69 1422.14,-103.69"/>
</g>
<!-- LessonRule -->
<g id="node16" class="node">
<title>LessonRule</title>
<ellipse fill="#fdb462" stroke="black" cx="1363" cy="-66.8" rx="56.77" ry="18"/>
<text text-anchor="middle" x="1363" y="-62.6" font-family="Times,serif" font-size="14.00">LessonRule</text>
</g>
<!-- LessonRule&#45;&gt;AuthorizationModule -->
<g id="edge15" class="edge">
<title>LessonRule&#45;&gt;AuthorizationModule</title>
<path fill="none" stroke="black" d="M1363,-84.91C1363,-84.91 1363,-103.79 1363,-103.79"/>
<polygon fill="black" stroke="black" points="1359.5,-103.79 1363,-113.79 1366.5,-103.79 1359.5,-103.79"/>
</g>
<!-- ReferenceLoader -->
<g id="node17" class="node">
<title>ReferenceLoader</title>
<ellipse fill="#fdb462" stroke="black" cx="1211" cy="-66.8" rx="77.53" ry="18"/>
<text text-anchor="middle" x="1211" y="-62.6" font-family="Times,serif" font-size="14.00">ReferenceLoader</text>
</g>
<!-- ReferenceLoader&#45;&gt;AuthorizationModule -->
<g id="edge16" class="edge">
<title>ReferenceLoader&#45;&gt;AuthorizationModule</title>
<path fill="none" stroke="black" d="M1288.67,-66.8C1295.77,-66.8 1300.36,-66.8 1300.36,-66.8 1300.36,-66.8 1300.36,-103.69 1300.36,-103.69"/>
<polygon fill="black" stroke="black" points="1296.86,-103.69 1300.36,-113.69 1303.86,-103.69 1296.86,-103.69"/>
</g>
<!-- SchoolRepo -->
<g id="node18" class="node">
<title>SchoolRepo</title>
<ellipse fill="#fdb462" stroke="black" cx="1057" cy="-66.8" rx="58.49" ry="18"/>
<text text-anchor="middle" x="1057" y="-62.6" font-family="Times,serif" font-size="14.00">SchoolRepo</text>
</g>
<!-- SchoolRepo&#45;&gt;AuthorizationModule -->
<g id="edge17" class="edge">
<title>SchoolRepo&#45;&gt;AuthorizationModule</title>
<path fill="none" stroke="black" d="M1057,-84.92C1057,-99.58 1057,-117.8 1057,-117.8 1057,-117.8 1284.33,-117.8 1284.33,-117.8"/>
<polygon fill="black" stroke="black" points="1284.33,-121.3 1294.33,-117.8 1284.33,-114.3 1284.33,-121.3"/>
</g>
<!-- SchoolRule -->
<g id="node19" class="node">
<title>SchoolRule</title>
<ellipse fill="#fdb462" stroke="black" cx="925" cy="-66.8" rx="56.2" ry="18"/>
<text text-anchor="middle" x="925" y="-62.6" font-family="Times,serif" font-size="14.00">SchoolRule</text>
</g>
<!-- SchoolRule&#45;&gt;AuthorizationModule -->
<g id="edge18" class="edge">
<title>SchoolRule&#45;&gt;AuthorizationModule</title>
<path fill="none" stroke="black" d="M925,-85.08C925,-100.75 925,-120.8 925,-120.8 925,-120.8 1284.08,-120.8 1284.08,-120.8"/>
<polygon fill="black" stroke="black" points="1284.08,-124.3 1294.08,-120.8 1284.08,-117.3 1284.08,-124.3"/>
</g>
<!-- TaskRepo -->
<g id="node20" class="node">
<title>TaskRepo</title>
<ellipse fill="#fdb462" stroke="black" cx="801" cy="-66.8" rx="50.39" ry="18"/>
<text text-anchor="middle" x="801" y="-62.6" font-family="Times,serif" font-size="14.00">TaskRepo</text>
</g>
<!-- TaskRepo&#45;&gt;AuthorizationModule -->
<g id="edge19" class="edge">
<title>TaskRepo&#45;&gt;AuthorizationModule</title>
<path fill="none" stroke="black" d="M801,-84.84C801,-101.53 801,-123.8 801,-123.8 801,-123.8 1284.09,-123.8 1284.09,-123.8"/>
<polygon fill="black" stroke="black" points="1284.09,-127.3 1294.09,-123.8 1284.09,-120.3 1284.09,-127.3"/>
</g>
<!-- TaskRule -->
<g id="node21" class="node">
<title>TaskRule</title>
<ellipse fill="#fdb462" stroke="black" cx="685" cy="-66.8" rx="48.09" ry="18"/>
<text text-anchor="middle" x="685" y="-62.6" font-family="Times,serif" font-size="14.00">TaskRule</text>
</g>
<!-- TaskRule&#45;&gt;AuthorizationModule -->
<g id="edge20" class="edge">
<title>TaskRule&#45;&gt;AuthorizationModule</title>
<path fill="none" stroke="black" d="M685,-85.1C685,-103.07 685,-127.8 685,-127.8 685,-127.8 1284.26,-127.8 1284.26,-127.8"/>
<polygon fill="black" stroke="black" points="1284.26,-131.3 1294.26,-127.8 1284.26,-124.3 1284.26,-131.3"/>
</g>
<!-- TeamRule -->
<g id="node22" class="node">
<title>TeamRule</title>
<ellipse fill="#fdb462" stroke="black" cx="568" cy="-66.8" rx="51.02" ry="18"/>
<text text-anchor="middle" x="568" y="-62.6" font-family="Times,serif" font-size="14.00">TeamRule</text>
</g>
<!-- TeamRule&#45;&gt;AuthorizationModule -->
<g id="edge21" class="edge">
<title>TeamRule&#45;&gt;AuthorizationModule</title>
<path fill="none" stroke="black" d="M568,-84.97C568,-103.89 568,-130.8 568,-130.8 568,-130.8 1284.19,-130.8 1284.19,-130.8"/>
<polygon fill="black" stroke="black" points="1284.19,-134.3 1294.19,-130.8 1284.19,-127.3 1284.19,-134.3"/>
</g>
<!-- TeamsRepo -->
<g id="node23" class="node">
<title>TeamsRepo</title>
<ellipse fill="#fdb462" stroke="black" cx="442" cy="-66.8" rx="57.32" ry="18"/>
<text text-anchor="middle" x="442" y="-62.6" font-family="Times,serif" font-size="14.00">TeamsRepo</text>
</g>
<!-- TeamsRepo&#45;&gt;AuthorizationModule -->
<g id="edge22" class="edge">
<title>TeamsRepo&#45;&gt;AuthorizationModule</title>
<path fill="none" stroke="black" d="M442,-85.11C442,-104.95 442,-133.8 442,-133.8 442,-133.8 1284.15,-133.8 1284.15,-133.8"/>
<polygon fill="black" stroke="black" points="1284.15,-137.3 1294.15,-133.8 1284.15,-130.3 1284.15,-137.3"/>
</g>
<!-- UserRepo -->
<g id="node24" class="node">
<title>UserRepo</title>
<ellipse fill="#fdb462" stroke="black" cx="317" cy="-66.8" rx="49.81" ry="18"/>
<text text-anchor="middle" x="317" y="-62.6" font-family="Times,serif" font-size="14.00">UserRepo</text>
</g>
<!-- UserRepo&#45;&gt;AuthorizationModule -->
<g id="edge23" class="edge">
<title>UserRepo&#45;&gt;AuthorizationModule</title>
<path fill="none" stroke="black" d="M317,-84.83C317,-105.57 317,-136.8 317,-136.8 317,-136.8 1283.96,-136.8 1283.96,-136.8"/>
<polygon fill="black" stroke="black" points="1283.96,-140.3 1293.96,-136.8 1283.96,-133.3 1283.96,-140.3"/>
</g>
<!-- UserRule -->
<g id="node25" class="node">
<title>UserRule</title>
<ellipse fill="#fdb462" stroke="black" cx="202" cy="-66.8" rx="47.52" ry="18"/>
<text text-anchor="middle" x="202" y="-62.6" font-family="Times,serif" font-size="14.00">UserRule</text>
</g>
<!-- UserRule&#45;&gt;AuthorizationModule -->
<g id="edge24" class="edge">
<title>UserRule&#45;&gt;AuthorizationModule</title>
<path fill="none" stroke="black" d="M202,-85.09C202,-107.01 202,-140.8 202,-140.8 202,-140.8 1284.28,-140.8 1284.28,-140.8"/>
<polygon fill="black" stroke="black" points="1284.28,-144.3 1294.28,-140.8 1284.28,-137.3 1284.28,-144.3"/>
</g>
</g>
</svg>
