<?xml version="1.0" encoding="UTF-8" standalone="no"?>
<!DOCTYPE svg PUBLIC "-//W3C//DTD SVG 1.1//EN"
 "http://www.w3.org/Graphics/SVG/1.1/DTD/svg11.dtd">
<!-- Generated by graphviz version 3.0.0 (20220226.1711)
 -->
<!-- Title: dependencies Pages: 1 -->
<svg width="2388pt" height="247pt"
 viewBox="0.00 0.00 2388.00 246.80" xmlns="http://www.w3.org/2000/svg" xmlns:xlink="http://www.w3.org/1999/xlink">
<g id="graph0" class="graph" transform="scale(1 1) rotate(0) translate(4 242.8)">
<title>dependencies</title>
<polygon fill="white" stroke="transparent" points="-4,4 -4,-242.8 2384,-242.8 2384,4 -4,4"/>
<text text-anchor="middle" x="1190" y="-8.2" font-family="sans-serif" font-size="14.00">dependencies</text>
<g id="clust1" class="cluster">
<title>cluster_AuthorizationModule</title>
<polygon fill="none" stroke="black" stroke-dasharray="1,5" points="8,-32.8 8,-230.8 2372,-230.8 2372,-32.8 8,-32.8"/>
</g>
<g id="clust3" class="cluster">
<title>cluster_AuthorizationModule_imports</title>
<polygon fill="none" stroke="black" points="2242,-40.8 2242,-92.8 2364,-92.8 2364,-40.8 2242,-40.8"/>
</g>
<g id="clust4" class="cluster">
<title>cluster_AuthorizationModule_exports</title>
<polygon fill="none" stroke="black" points="745,-170.8 745,-222.8 1258,-222.8 1258,-170.8 745,-170.8"/>
</g>
<g id="clust6" class="cluster">
<title>cluster_AuthorizationModule_providers</title>
<polygon fill="none" stroke="black" points="16,-40.8 16,-92.8 2234,-92.8 2234,-40.8 16,-40.8"/>
</g>
<!-- FeathersModule -->
<g id="node1" class="node">
<title>FeathersModule</title>
<polygon fill="#8dd3c7" stroke="black" points="2356.48,-84.8 2353.48,-88.8 2332.48,-88.8 2329.48,-84.8 2249.52,-84.8 2249.52,-48.8 2356.48,-48.8 2356.48,-84.8"/>
<text text-anchor="middle" x="2303" y="-62.6" font-family="Times,serif" font-size="14.00">FeathersModule</text>
</g>
<!-- AuthorizationModule -->
<g id="node2" class="node">
<title>AuthorizationModule</title>
<polygon fill="#8dd3c7" stroke="black" points="1067.81,-149.8 1064.81,-153.8 1043.81,-153.8 1040.81,-149.8 930.19,-149.8 930.19,-113.8 1067.81,-113.8 1067.81,-149.8"/>
<text text-anchor="middle" x="999" y="-127.6" font-family="Times,serif" font-size="14.00">AuthorizationModule</text>
</g>
<!-- FeathersModule&#45;&gt;AuthorizationModule -->
<g id="edge1" class="edge">
<title>FeathersModule&#45;&gt;AuthorizationModule</title>
<path fill="none" stroke="black" d="M2303,-84.96C2303,-107.15 2303,-141.8 2303,-141.8 2303,-141.8 1077.73,-141.8 1077.73,-141.8"/>
<polygon fill="black" stroke="black" points="1077.73,-138.3 1067.73,-141.8 1077.73,-145.3 1077.73,-138.3"/>
</g>
<!-- AuthorizationService  -->
<g id="node3" class="node">
<title>AuthorizationService </title>
<polygon fill="#fb8072" stroke="black" points="1249.74,-214.8 1110.26,-214.8 1110.26,-178.8 1249.74,-178.8 1249.74,-214.8"/>
<text text-anchor="middle" x="1180" y="-192.6" font-family="Times,serif" font-size="14.00">AuthorizationService </text>
</g>
<!-- AuthorizationModule&#45;&gt;AuthorizationService  -->
<g id="edge2" class="edge">
<title>AuthorizationModule&#45;&gt;AuthorizationService </title>
<path fill="none" stroke="black" stroke-dasharray="5,2" d="M1067.69,-145.8C1118.89,-145.8 1180,-145.8 1180,-145.8 1180,-145.8 1180,-168.68 1180,-168.68"/>
<polygon fill="black" stroke="black" points="1176.5,-168.68 1180,-178.68 1183.5,-168.68 1176.5,-168.68"/>
</g>
<!-- FeathersAuthorizationService  -->
<g id="node4" class="node">
<title>FeathersAuthorizationService </title>
<polygon fill="#fb8072" stroke="black" points="1092.17,-214.8 905.83,-214.8 905.83,-178.8 1092.17,-178.8 1092.17,-214.8"/>
<text text-anchor="middle" x="999" y="-192.6" font-family="Times,serif" font-size="14.00">FeathersAuthorizationService </text>
</g>
<!-- AuthorizationModule&#45;&gt;FeathersAuthorizationService  -->
<g id="edge3" class="edge">
<title>AuthorizationModule&#45;&gt;FeathersAuthorizationService </title>
<path fill="none" stroke="black" stroke-dasharray="5,2" d="M999,-149.91C999,-149.91 999,-168.79 999,-168.79"/>
<polygon fill="black" stroke="black" points="995.5,-168.79 999,-178.79 1002.5,-168.79 995.5,-168.79"/>
</g>
<!-- FeathersJwtProvider  -->
<g id="node5" class="node">
<title>FeathersJwtProvider </title>
<polygon fill="#fb8072" stroke="black" points="887.09,-214.8 752.91,-214.8 752.91,-178.8 887.09,-178.8 887.09,-214.8"/>
<text text-anchor="middle" x="820" y="-192.6" font-family="Times,serif" font-size="14.00">FeathersJwtProvider </text>
</g>
<!-- AuthorizationModule&#45;&gt;FeathersJwtProvider  -->
<g id="edge4" class="edge">
<title>AuthorizationModule&#45;&gt;FeathersJwtProvider </title>
<path fill="none" stroke="black" stroke-dasharray="5,2" d="M930.31,-145.8C879.83,-145.8 820,-145.8 820,-145.8 820,-145.8 820,-168.68 820,-168.68"/>
<polygon fill="black" stroke="black" points="816.5,-168.68 820,-178.68 823.5,-168.68 816.5,-168.68"/>
</g>
<!-- AuthorizationService -->
<g id="node6" class="node">
<title>AuthorizationService</title>
<ellipse fill="#fdb462" stroke="black" cx="2132" cy="-66.8" rx="93.76" ry="18"/>
<text text-anchor="middle" x="2132" y="-62.6" font-family="Times,serif" font-size="14.00">AuthorizationService</text>
</g>
<!-- AuthorizationService&#45;&gt;AuthorizationModule -->
<g id="edge5" class="edge">
<title>AuthorizationService&#45;&gt;AuthorizationModule</title>
<path fill="none" stroke="black" d="M2132,-85.08C2132,-106.12 2132,-137.8 2132,-137.8 2132,-137.8 1077.75,-137.8 1077.75,-137.8"/>
<polygon fill="black" stroke="black" points="1077.75,-134.3 1067.75,-137.8 1077.75,-141.3 1077.75,-134.3"/>
</g>
<!-- CourseRepo -->
<g id="node7" class="node">
<title>CourseRepo</title>
<ellipse fill="#fdb462" stroke="black" cx="1962" cy="-66.8" rx="58.56" ry="18"/>
<text text-anchor="middle" x="1962" y="-62.6" font-family="Times,serif" font-size="14.00">CourseRepo</text>
</g>
<!-- CourseRepo&#45;&gt;AuthorizationModule -->
<g id="edge6" class="edge">
<title>CourseRepo&#45;&gt;AuthorizationModule</title>
<path fill="none" stroke="black" d="M1962,-85.11C1962,-104.95 1962,-133.8 1962,-133.8 1962,-133.8 1077.87,-133.8 1077.87,-133.8"/>
<polygon fill="black" stroke="black" points="1077.87,-130.3 1067.87,-133.8 1077.87,-137.3 1077.87,-130.3"/>
</g>
<!-- CourseRule -->
<g id="node8" class="node">
<title>CourseRule</title>
<ellipse fill="#fdb462" stroke="black" cx="1829" cy="-66.8" rx="56.77" ry="18"/>
<text text-anchor="middle" x="1829" y="-62.6" font-family="Times,serif" font-size="14.00">CourseRule</text>
</g>
<!-- CourseRule&#45;&gt;AuthorizationModule -->
<g id="edge7" class="edge">
<title>CourseRule&#45;&gt;AuthorizationModule</title>
<path fill="none" stroke="black" d="M1829,-85.02C1829,-103.63 1829,-129.8 1829,-129.8 1829,-129.8 1077.98,-129.8 1077.98,-129.8"/>
<polygon fill="black" stroke="black" points="1077.98,-126.3 1067.98,-129.8 1077.98,-133.3 1077.98,-126.3"/>
</g>
<!-- FeathersAuthProvider -->
<g id="node9" class="node">
<title>FeathersAuthProvider</title>
<ellipse fill="#fdb462" stroke="black" cx="1658" cy="-66.8" rx="96.14" ry="18"/>
<text text-anchor="middle" x="1658" y="-62.6" font-family="Times,serif" font-size="14.00">FeathersAuthProvider</text>
</g>
<!-- FeathersAuthProvider&#45;&gt;AuthorizationModule -->
<g id="edge8" class="edge">
<title>FeathersAuthProvider&#45;&gt;AuthorizationModule</title>
<path fill="none" stroke="black" d="M1658,-84.82C1658,-102.17 1658,-125.8 1658,-125.8 1658,-125.8 1077.66,-125.8 1077.66,-125.8"/>
<polygon fill="black" stroke="black" points="1077.66,-122.3 1067.66,-125.8 1077.66,-129.3 1077.66,-122.3"/>
</g>
<!-- FeathersAuthorizationService -->
<g id="node10" class="node">
<title>FeathersAuthorizationService</title>
<ellipse fill="#fdb462" stroke="black" cx="1417" cy="-66.8" rx="126.19" ry="18"/>
<text text-anchor="middle" x="1417" y="-62.6" font-family="Times,serif" font-size="14.00">FeathersAuthorizationService</text>
</g>
<!-- FeathersAuthorizationService&#45;&gt;AuthorizationModule -->
<g id="edge9" class="edge">
<title>FeathersAuthorizationService&#45;&gt;AuthorizationModule</title>
<path fill="none" stroke="black" d="M1417,-84.81C1417,-100.85 1417,-121.8 1417,-121.8 1417,-121.8 1078.02,-121.8 1078.02,-121.8"/>
<polygon fill="black" stroke="black" points="1078.02,-118.3 1068.02,-121.8 1078.02,-125.3 1078.02,-118.3"/>
</g>
<!-- FeathersJwtProvider -->
<g id="node11" class="node">
<title>FeathersJwtProvider</title>
<ellipse fill="#fdb462" stroke="black" cx="1182" cy="-66.8" rx="90.35" ry="18"/>
<text text-anchor="middle" x="1182" y="-62.6" font-family="Times,serif" font-size="14.00">FeathersJwtProvider</text>
</g>
<!-- FeathersJwtProvider&#45;&gt;AuthorizationModule -->
<g id="edge10" class="edge">
<title>FeathersJwtProvider&#45;&gt;AuthorizationModule</title>
<path fill="none" stroke="black" d="M1101.36,-75.22C1101.36,-89.71 1101.36,-117.8 1101.36,-117.8 1101.36,-117.8 1077.84,-117.8 1077.84,-117.8"/>
<polygon fill="black" stroke="black" points="1077.84,-114.3 1067.84,-117.8 1077.84,-121.3 1077.84,-114.3"/>
</g>
<!-- FileRecordRepo -->
<g id="node12" class="node">
<title>FileRecordRepo</title>
<ellipse fill="#fdb462" stroke="black" cx="999" cy="-66.8" rx="74.16" ry="18"/>
<text text-anchor="middle" x="999" y="-62.6" font-family="Times,serif" font-size="14.00">FileRecordRepo</text>
</g>
<!-- FileRecordRepo&#45;&gt;AuthorizationModule -->
<g id="edge11" class="edge">
<title>FileRecordRepo&#45;&gt;AuthorizationModule</title>
<path fill="none" stroke="black" d="M999,-84.91C999,-84.91 999,-103.79 999,-103.79"/>
<polygon fill="black" stroke="black" points="995.5,-103.79 999,-113.79 1002.5,-103.79 995.5,-103.79"/>
</g>
<!-- ReferenceLoader -->
<g id="node13" class="node">
<title>ReferenceLoader</title>
<ellipse fill="#fdb462" stroke="black" cx="829" cy="-66.8" rx="77.53" ry="18"/>
<text text-anchor="middle" x="829" y="-62.6" font-family="Times,serif" font-size="14.00">ReferenceLoader</text>
</g>
<!-- ReferenceLoader&#45;&gt;AuthorizationModule -->
<g id="edge12" class="edge">
<title>ReferenceLoader&#45;&gt;AuthorizationModule</title>
<path fill="none" stroke="black" d="M896.48,-75.68C896.48,-90.3 896.48,-117.8 896.48,-117.8 896.48,-117.8 920.33,-117.8 920.33,-117.8"/>
<polygon fill="black" stroke="black" points="920.33,-121.3 930.33,-117.8 920.33,-114.3 920.33,-121.3"/>
</g>
<!-- SchoolRepo -->
<g id="node14" class="node">
<title>SchoolRepo</title>
<ellipse fill="#fdb462" stroke="black" cx="675" cy="-66.8" rx="58.49" ry="18"/>
<text text-anchor="middle" x="675" y="-62.6" font-family="Times,serif" font-size="14.00">SchoolRepo</text>
</g>
<!-- SchoolRepo&#45;&gt;AuthorizationModule -->
<g id="edge13" class="edge">
<title>SchoolRepo&#45;&gt;AuthorizationModule</title>
<path fill="none" stroke="black" d="M675,-84.81C675,-100.85 675,-121.8 675,-121.8 675,-121.8 920.29,-121.8 920.29,-121.8"/>
<polygon fill="black" stroke="black" points="920.29,-125.3 930.29,-121.8 920.29,-118.3 920.29,-125.3"/>
</g>
<!-- SchoolRule -->
<g id="node15" class="node">
<title>SchoolRule</title>
<ellipse fill="#fdb462" stroke="black" cx="543" cy="-66.8" rx="56.2" ry="18"/>
<text text-anchor="middle" x="543" y="-62.6" font-family="Times,serif" font-size="14.00">SchoolRule</text>
</g>
<!-- SchoolRule&#45;&gt;AuthorizationModule -->
<g id="edge14" class="edge">
<title>SchoolRule&#45;&gt;AuthorizationModule</title>
<path fill="none" stroke="black" d="M543,-84.82C543,-102.17 543,-125.8 543,-125.8 543,-125.8 920.24,-125.8 920.24,-125.8"/>
<polygon fill="black" stroke="black" points="920.24,-129.3 930.24,-125.8 920.24,-122.3 920.24,-129.3"/>
</g>
<!-- TaskRepo -->
<g id="node16" class="node">
<title>TaskRepo</title>
<ellipse fill="#fdb462" stroke="black" cx="419" cy="-66.8" rx="50.39" ry="18"/>
<text text-anchor="middle" x="419" y="-62.6" font-family="Times,serif" font-size="14.00">TaskRepo</text>
</g>
<!-- TaskRepo&#45;&gt;AuthorizationModule -->
<g id="edge15" class="edge">
<title>TaskRepo&#45;&gt;AuthorizationModule</title>
<path fill="none" stroke="black" d="M419,-85.02C419,-103.63 419,-129.8 419,-129.8 419,-129.8 920.19,-129.8 920.19,-129.8"/>
<polygon fill="black" stroke="black" points="920.19,-133.3 930.19,-129.8 920.19,-126.3 920.19,-133.3"/>
</g>
<!-- TaskRule -->
<g id="node17" class="node">
<title>TaskRule</title>
<ellipse fill="#fdb462" stroke="black" cx="303" cy="-66.8" rx="48.09" ry="18"/>
<text text-anchor="middle" x="303" y="-62.6" font-family="Times,serif" font-size="14.00">TaskRule</text>
</g>
<!-- TaskRule&#45;&gt;AuthorizationModule -->
<g id="edge16" class="edge">
<title>TaskRule&#45;&gt;AuthorizationModule</title>
<path fill="none" stroke="black" d="M303,-85.11C303,-104.95 303,-133.8 303,-133.8 303,-133.8 920.04,-133.8 920.04,-133.8"/>
<polygon fill="black" stroke="black" points="920.04,-137.3 930.04,-133.8 920.04,-130.3 920.04,-137.3"/>
</g>
<!-- UserRepo -->
<g id="node18" class="node">
<title>UserRepo</title>
<ellipse fill="#fdb462" stroke="black" cx="187" cy="-66.8" rx="49.81" ry="18"/>
<text text-anchor="middle" x="187" y="-62.6" font-family="Times,serif" font-size="14.00">UserRepo</text>
</g>
<!-- UserRepo&#45;&gt;AuthorizationModule -->
<g id="edge17" class="edge">
<title>UserRepo&#45;&gt;AuthorizationModule</title>
<path fill="none" stroke="black" d="M187,-85.08C187,-106.12 187,-137.8 187,-137.8 187,-137.8 920.12,-137.8 920.12,-137.8"/>
<polygon fill="black" stroke="black" points="920.12,-141.3 930.12,-137.8 920.12,-134.3 920.12,-141.3"/>
</g>
<!-- UserRule -->
<g id="node19" class="node">
<title>UserRule</title>
<ellipse fill="#fdb462" stroke="black" cx="72" cy="-66.8" rx="47.52" ry="18"/>
<text text-anchor="middle" x="72" y="-62.6" font-family="Times,serif" font-size="14.00">UserRule</text>
</g>
<!-- UserRule&#45;&gt;AuthorizationModule -->
<g id="edge18" class="edge">
<title>UserRule&#45;&gt;AuthorizationModule</title>
<path fill="none" stroke="black" d="M72,-84.96C72,-107.15 72,-141.8 72,-141.8 72,-141.8 920.08,-141.8 920.08,-141.8"/>
<polygon fill="black" stroke="black" points="920.08,-145.3 930.08,-141.8 920.08,-138.3 920.08,-145.3"/>
</g>
</g>
</svg>
