<?xml version="1.0" encoding="UTF-8" standalone="no"?>
<!DOCTYPE svg PUBLIC "-//W3C//DTD SVG 1.1//EN"
 "http://www.w3.org/Graphics/SVG/1.1/DTD/svg11.dtd">
<!-- Generated by graphviz version 5.0.0 (20220707.1540)
 -->
<!-- Title: dependencies Pages: 1 -->
<svg width="3444pt" height="247pt"
 viewBox="0.00 0.00 3444.00 246.80" xmlns="http://www.w3.org/2000/svg" xmlns:xlink="http://www.w3.org/1999/xlink">
<g id="graph0" class="graph" transform="scale(1 1) rotate(0) translate(4 242.8)">
<title>dependencies</title>
<polygon fill="white" stroke="transparent" points="-4,4 -4,-242.8 3440,-242.8 3440,4 -4,4"/>
<text text-anchor="middle" x="1718" y="-8.2" font-family="sans-serif" font-size="14.00">dependencies</text>
<g id="clust1" class="cluster">
<title>cluster_AuthorizationModule</title>
<polygon fill="none" stroke="black" stroke-dasharray="1,5" points="8,-32.8 8,-230.8 3428,-230.8 3428,-32.8 8,-32.8"/>
</g>
<g id="clust3" class="cluster">
<title>cluster_AuthorizationModule_imports</title>
<polygon fill="none" stroke="black" points="3298,-40.8 3298,-92.8 3420,-92.8 3420,-40.8 3298,-40.8"/>
</g>
<g id="clust4" class="cluster">
<title>cluster_AuthorizationModule_exports</title>
<polygon fill="none" stroke="black" points="1242,-170.8 1242,-222.8 1755,-222.8 1755,-170.8 1242,-170.8"/>
</g>
<g id="clust6" class="cluster">
<title>cluster_AuthorizationModule_providers</title>
<polygon fill="none" stroke="black" points="16,-40.8 16,-92.8 3290,-92.8 3290,-40.8 16,-40.8"/>
</g>
<!-- FeathersModule -->
<g id="node1" class="node">
<title>FeathersModule</title>
<polygon fill="#8dd3c7" stroke="black" points="3412.48,-84.8 3409.48,-88.8 3388.48,-88.8 3385.48,-84.8 3305.52,-84.8 3305.52,-48.8 3412.48,-48.8 3412.48,-84.8"/>
<text text-anchor="middle" x="3359" y="-62.6" font-family="Times,serif" font-size="14.00">FeathersModule</text>
</g>
<!-- AuthorizationModule -->
<g id="node2" class="node">
<title>AuthorizationModule</title>
<polygon fill="#8dd3c7" stroke="black" points="1564.81,-149.8 1561.81,-153.8 1540.81,-153.8 1537.81,-149.8 1427.19,-149.8 1427.19,-113.8 1564.81,-113.8 1564.81,-149.8"/>
<text text-anchor="middle" x="1496" y="-127.6" font-family="Times,serif" font-size="14.00">AuthorizationModule</text>
</g>
<!-- FeathersModule&#45;&gt;AuthorizationModule -->
<g id="edge1" class="edge">
<title>FeathersModule&#45;&gt;AuthorizationModule</title>
<path fill="none" stroke="black" d="M3359,-85.05C3359,-107.82 3359,-143.8 3359,-143.8 3359,-143.8 1574.79,-143.8 1574.79,-143.8"/>
<polygon fill="black" stroke="black" points="1574.79,-140.3 1564.79,-143.8 1574.79,-147.3 1574.79,-140.3"/>
</g>
<!-- AuthorizationService  -->
<g id="node3" class="node">
<title>AuthorizationService </title>
<polygon fill="#fb8072" stroke="black" points="1746.74,-214.8 1607.26,-214.8 1607.26,-178.8 1746.74,-178.8 1746.74,-214.8"/>
<text text-anchor="middle" x="1677" y="-192.6" font-family="Times,serif" font-size="14.00">AuthorizationService </text>
</g>
<!-- AuthorizationModule&#45;&gt;AuthorizationService  -->
<g id="edge2" class="edge">
<title>AuthorizationModule&#45;&gt;AuthorizationService </title>
<path fill="none" stroke="black" stroke-dasharray="5,2" d="M1564.85,-146.8C1592.52,-146.8 1618.01,-146.8 1618.01,-146.8 1618.01,-146.8 1618.01,-168.75 1618.01,-168.75"/>
<polygon fill="black" stroke="black" points="1614.51,-168.75 1618.01,-178.75 1621.51,-168.75 1614.51,-168.75"/>
</g>
<!-- FeathersAuthorizationService  -->
<g id="node4" class="node">
<title>FeathersAuthorizationService </title>
<polygon fill="#fb8072" stroke="black" points="1589.17,-214.8 1402.83,-214.8 1402.83,-178.8 1589.17,-178.8 1589.17,-214.8"/>
<text text-anchor="middle" x="1496" y="-192.6" font-family="Times,serif" font-size="14.00">FeathersAuthorizationService </text>
</g>
<!-- AuthorizationModule&#45;&gt;FeathersAuthorizationService  -->
<g id="edge3" class="edge">
<title>AuthorizationModule&#45;&gt;FeathersAuthorizationService </title>
<path fill="none" stroke="black" stroke-dasharray="5,2" d="M1496,-149.91C1496,-149.91 1496,-168.79 1496,-168.79"/>
<polygon fill="black" stroke="black" points="1492.5,-168.79 1496,-178.79 1499.5,-168.79 1492.5,-168.79"/>
</g>
<!-- FeathersJwtProvider  -->
<g id="node5" class="node">
<title>FeathersJwtProvider </title>
<polygon fill="#fb8072" stroke="black" points="1384.09,-214.8 1249.91,-214.8 1249.91,-178.8 1384.09,-178.8 1384.09,-214.8"/>
<text text-anchor="middle" x="1317" y="-192.6" font-family="Times,serif" font-size="14.00">FeathersJwtProvider </text>
</g>
<!-- AuthorizationModule&#45;&gt;FeathersJwtProvider  -->
<g id="edge4" class="edge">
<title>AuthorizationModule&#45;&gt;FeathersJwtProvider </title>
<path fill="none" stroke="black" stroke-dasharray="5,2" d="M1426.98,-146.8C1394.76,-146.8 1363.39,-146.8 1363.39,-146.8 1363.39,-146.8 1363.39,-168.75 1363.39,-168.75"/>
<polygon fill="black" stroke="black" points="1359.89,-168.75 1363.39,-178.75 1366.89,-168.75 1359.89,-168.75"/>
</g>
<!-- AuthorizationService -->
<g id="node6" class="node">
<title>AuthorizationService</title>
<ellipse fill="#fdb462" stroke="black" cx="3188" cy="-66.8" rx="93.76" ry="18"/>
<text text-anchor="middle" x="3188" y="-62.6" font-family="Times,serif" font-size="14.00">AuthorizationService</text>
</g>
<!-- AuthorizationService&#45;&gt;AuthorizationModule -->
<g id="edge5" class="edge">
<title>AuthorizationService&#45;&gt;AuthorizationModule</title>
<path fill="none" stroke="black" d="M3188,-85.09C3188,-107.01 3188,-140.8 3188,-140.8 3188,-140.8 1574.69,-140.8 1574.69,-140.8"/>
<polygon fill="black" stroke="black" points="1574.69,-137.3 1564.69,-140.8 1574.69,-144.3 1574.69,-137.3"/>
</g>
<!-- CourseGroupRepo -->
<g id="node7" class="node">
<title>CourseGroupRepo</title>
<ellipse fill="#fdb462" stroke="black" cx="2993" cy="-66.8" rx="83.41" ry="18"/>
<text text-anchor="middle" x="2993" y="-62.6" font-family="Times,serif" font-size="14.00">CourseGroupRepo</text>
</g>
<!-- CourseGroupRepo&#45;&gt;AuthorizationModule -->
<g id="edge6" class="edge">
<title>CourseGroupRepo&#45;&gt;AuthorizationModule</title>
<path fill="none" stroke="black" d="M2993,-85.08C2993,-106.12 2993,-137.8 2993,-137.8 2993,-137.8 1574.71,-137.8 1574.71,-137.8"/>
<polygon fill="black" stroke="black" points="1574.71,-134.3 1564.71,-137.8 1574.71,-141.3 1574.71,-134.3"/>
</g>
<!-- CourseGroupRule -->
<g id="node8" class="node">
<title>CourseGroupRule</title>
<ellipse fill="#fdb462" stroke="black" cx="2810" cy="-66.8" rx="81.12" ry="18"/>
<text text-anchor="middle" x="2810" y="-62.6" font-family="Times,serif" font-size="14.00">CourseGroupRule</text>
</g>
<!-- CourseGroupRule&#45;&gt;AuthorizationModule -->
<g id="edge7" class="edge">
<title>CourseGroupRule&#45;&gt;AuthorizationModule</title>
<path fill="none" stroke="black" d="M2810,-85.02C2810,-105.17 2810,-134.8 2810,-134.8 2810,-134.8 1574.8,-134.8 1574.8,-134.8"/>
<polygon fill="black" stroke="black" points="1574.8,-131.3 1564.8,-134.8 1574.8,-138.3 1574.8,-131.3"/>
</g>
<!-- CourseRepo -->
<g id="node9" class="node">
<title>CourseRepo</title>
<ellipse fill="#fdb462" stroke="black" cx="2652" cy="-66.8" rx="58.56" ry="18"/>
<text text-anchor="middle" x="2652" y="-62.6" font-family="Times,serif" font-size="14.00">CourseRepo</text>
</g>
<!-- CourseRepo&#45;&gt;AuthorizationModule -->
<g id="edge8" class="edge">
<title>CourseRepo&#45;&gt;AuthorizationModule</title>
<path fill="none" stroke="black" d="M2652,-84.91C2652,-104.14 2652,-131.8 2652,-131.8 2652,-131.8 1574.85,-131.8 1574.85,-131.8"/>
<polygon fill="black" stroke="black" points="1574.85,-128.3 1564.85,-131.8 1574.85,-135.3 1574.85,-128.3"/>
</g>
<!-- CourseRule -->
<g id="node10" class="node">
<title>CourseRule</title>
<ellipse fill="#fdb462" stroke="black" cx="2519" cy="-66.8" rx="56.77" ry="18"/>
<text text-anchor="middle" x="2519" y="-62.6" font-family="Times,serif" font-size="14.00">CourseRule</text>
</g>
<!-- CourseRule&#45;&gt;AuthorizationModule -->
<g id="edge9" class="edge">
<title>CourseRule&#45;&gt;AuthorizationModule</title>
<path fill="none" stroke="black" d="M2519,-85.07C2519,-103.36 2519,-128.8 2519,-128.8 2519,-128.8 1574.71,-128.8 1574.71,-128.8"/>
<polygon fill="black" stroke="black" points="1574.71,-125.3 1564.71,-128.8 1574.71,-132.3 1574.71,-125.3"/>
</g>
<!-- FeathersAuthProvider -->
<g id="node11" class="node">
<title>FeathersAuthProvider</title>
<ellipse fill="#fdb462" stroke="black" cx="2348" cy="-66.8" rx="96.14" ry="18"/>
<text text-anchor="middle" x="2348" y="-62.6" font-family="Times,serif" font-size="14.00">FeathersAuthProvider</text>
</g>
<!-- FeathersAuthProvider&#45;&gt;AuthorizationModule -->
<g id="edge10" class="edge">
<title>FeathersAuthProvider&#45;&gt;AuthorizationModule</title>
<path fill="none" stroke="black" d="M2348,-84.82C2348,-102.17 2348,-125.8 2348,-125.8 2348,-125.8 1575,-125.8 1575,-125.8"/>
<polygon fill="black" stroke="black" points="1575,-122.3 1565,-125.8 1575,-129.3 1575,-122.3"/>
</g>
<!-- FeathersAuthorizationService -->
<g id="node12" class="node">
<title>FeathersAuthorizationService</title>
<ellipse fill="#fdb462" stroke="black" cx="2107" cy="-66.8" rx="126.19" ry="18"/>
<text text-anchor="middle" x="2107" y="-62.6" font-family="Times,serif" font-size="14.00">FeathersAuthorizationService</text>
</g>
<!-- FeathersAuthorizationService&#45;&gt;AuthorizationModule -->
<g id="edge11" class="edge">
<title>FeathersAuthorizationService&#45;&gt;AuthorizationModule</title>
<path fill="none" stroke="black" d="M2107,-84.83C2107,-101.2 2107,-122.8 2107,-122.8 2107,-122.8 1574.9,-122.8 1574.9,-122.8"/>
<polygon fill="black" stroke="black" points="1574.9,-119.3 1564.9,-122.8 1574.9,-126.3 1574.9,-119.3"/>
</g>
<!-- FeathersJwtProvider -->
<g id="node13" class="node">
<title>FeathersJwtProvider</title>
<ellipse fill="#fdb462" stroke="black" cx="1872" cy="-66.8" rx="90.35" ry="18"/>
<text text-anchor="middle" x="1872" y="-62.6" font-family="Times,serif" font-size="14.00">FeathersJwtProvider</text>
</g>
<!-- FeathersJwtProvider&#45;&gt;AuthorizationModule -->
<g id="edge12" class="edge">
<title>FeathersJwtProvider&#45;&gt;AuthorizationModule</title>
<path fill="none" stroke="black" d="M1872,-85.04C1872,-100.37 1872,-119.8 1872,-119.8 1872,-119.8 1574.96,-119.8 1574.96,-119.8"/>
<polygon fill="black" stroke="black" points="1574.96,-116.3 1564.96,-119.8 1574.96,-123.3 1574.96,-116.3"/>
</g>
<!-- LessonRepo -->
<g id="node14" class="node">
<title>LessonRepo</title>
<ellipse fill="#fdb462" stroke="black" cx="1705" cy="-66.8" rx="58.56" ry="18"/>
<text text-anchor="middle" x="1705" y="-62.6" font-family="Times,serif" font-size="14.00">LessonRepo</text>
</g>
<!-- LessonRepo&#45;&gt;AuthorizationModule -->
<g id="edge13" class="edge">
<title>LessonRepo&#45;&gt;AuthorizationModule</title>
<path fill="none" stroke="black" d="M1696.42,-84.85C1696.42,-99.17 1696.42,-116.8 1696.42,-116.8 1696.42,-116.8 1574.69,-116.8 1574.69,-116.8"/>
<polygon fill="black" stroke="black" points="1574.69,-113.3 1564.69,-116.8 1574.69,-120.3 1574.69,-113.3"/>
</g>
<!-- LessonRule -->
<g id="node15" class="node">
<title>LessonRule</title>
<ellipse fill="#fdb462" stroke="black" cx="1572" cy="-66.8" rx="56.77" ry="18"/>
<text text-anchor="middle" x="1572" y="-62.6" font-family="Times,serif" font-size="14.00">LessonRule</text>
</g>
<!-- LessonRule&#45;&gt;AuthorizationModule -->
<g id="edge14" class="edge">
<title>LessonRule&#45;&gt;AuthorizationModule</title>
<path fill="none" stroke="black" d="M1540.01,-81.88C1540.01,-81.88 1540.01,-103.56 1540.01,-103.56"/>
<polygon fill="black" stroke="black" points="1536.51,-103.56 1540.01,-113.56 1543.51,-103.56 1536.51,-103.56"/>
</g>
<!-- ReferenceLoader -->
<g id="node16" class="node">
<title>ReferenceLoader</title>
<ellipse fill="#fdb462" stroke="black" cx="1420" cy="-66.8" rx="77.53" ry="18"/>
<text text-anchor="middle" x="1420" y="-62.6" font-family="Times,serif" font-size="14.00">ReferenceLoader</text>
</g>
<!-- ReferenceLoader&#45;&gt;AuthorizationModule -->
<g id="edge15" class="edge">
<title>ReferenceLoader&#45;&gt;AuthorizationModule</title>
<path fill="none" stroke="black" d="M1462.43,-81.88C1462.43,-81.88 1462.43,-103.56 1462.43,-103.56"/>
<polygon fill="black" stroke="black" points="1458.93,-103.56 1462.43,-113.56 1465.93,-103.56 1458.93,-103.56"/>
</g>
<!-- SchoolRepo -->
<g id="node17" class="node">
<title>SchoolRepo</title>
<ellipse fill="#fdb462" stroke="black" cx="1266" cy="-66.8" rx="58.49" ry="18"/>
<text text-anchor="middle" x="1266" y="-62.6" font-family="Times,serif" font-size="14.00">SchoolRepo</text>
</g>
<!-- SchoolRepo&#45;&gt;AuthorizationModule -->
<g id="edge16" class="edge">
<title>SchoolRepo&#45;&gt;AuthorizationModule</title>
<path fill="none" stroke="black" d="M1286.98,-83.73C1286.98,-98.23 1286.98,-116.8 1286.98,-116.8 1286.98,-116.8 1417.27,-116.8 1417.27,-116.8"/>
<polygon fill="black" stroke="black" points="1417.27,-120.3 1427.27,-116.8 1417.27,-113.3 1417.27,-120.3"/>
</g>
<!-- SchoolRule -->
<g id="node18" class="node">
<title>SchoolRule</title>
<ellipse fill="#fdb462" stroke="black" cx="1134" cy="-66.8" rx="56.2" ry="18"/>
<text text-anchor="middle" x="1134" y="-62.6" font-family="Times,serif" font-size="14.00">SchoolRule</text>
</g>
<!-- SchoolRule&#45;&gt;AuthorizationModule -->
<g id="edge17" class="edge">
<title>SchoolRule&#45;&gt;AuthorizationModule</title>
<path fill="none" stroke="black" d="M1134,-85.04C1134,-100.37 1134,-119.8 1134,-119.8 1134,-119.8 1417.06,-119.8 1417.06,-119.8"/>
<polygon fill="black" stroke="black" points="1417.06,-123.3 1427.06,-119.8 1417.06,-116.3 1417.06,-123.3"/>
</g>
<!-- SubmissionRepo -->
<g id="node19" class="node">
<title>SubmissionRepo</title>
<ellipse fill="#fdb462" stroke="black" cx="983" cy="-66.8" rx="76.5" ry="18"/>
<text text-anchor="middle" x="983" y="-62.6" font-family="Times,serif" font-size="14.00">SubmissionRepo</text>
</g>
<!-- SubmissionRepo&#45;&gt;AuthorizationModule -->
<g id="edge18" class="edge">
<title>SubmissionRepo&#45;&gt;AuthorizationModule</title>
<path fill="none" stroke="black" d="M983,-84.83C983,-101.2 983,-122.8 983,-122.8 983,-122.8 1417.08,-122.8 1417.08,-122.8"/>
<polygon fill="black" stroke="black" points="1417.08,-126.3 1427.08,-122.8 1417.08,-119.3 1417.08,-126.3"/>
</g>
<!-- SubmissionRule -->
<g id="node20" class="node">
<title>SubmissionRule</title>
<ellipse fill="#fdb462" stroke="black" cx="814" cy="-66.8" rx="74.21" ry="18"/>
<text text-anchor="middle" x="814" y="-62.6" font-family="Times,serif" font-size="14.00">SubmissionRule</text>
</g>
<!-- SubmissionRule&#45;&gt;AuthorizationModule -->
<g id="edge19" class="edge">
<title>SubmissionRule&#45;&gt;AuthorizationModule</title>
<path fill="none" stroke="black" d="M814,-84.82C814,-102.17 814,-125.8 814,-125.8 814,-125.8 1417.17,-125.8 1417.17,-125.8"/>
<polygon fill="black" stroke="black" points="1417.17,-129.3 1427.17,-125.8 1417.17,-122.3 1417.17,-129.3"/>
</g>
<!-- TaskRepo -->
<g id="node21" class="node">
<title>TaskRepo</title>
<ellipse fill="#fdb462" stroke="black" cx="671" cy="-66.8" rx="50.39" ry="18"/>
<text text-anchor="middle" x="671" y="-62.6" font-family="Times,serif" font-size="14.00">TaskRepo</text>
</g>
<!-- TaskRepo&#45;&gt;AuthorizationModule -->
<g id="edge20" class="edge">
<title>TaskRepo&#45;&gt;AuthorizationModule</title>
<path fill="none" stroke="black" d="M671,-85.07C671,-103.36 671,-128.8 671,-128.8 671,-128.8 1417.08,-128.8 1417.08,-128.8"/>
<polygon fill="black" stroke="black" points="1417.08,-132.3 1427.08,-128.8 1417.08,-125.3 1417.08,-132.3"/>
</g>
<!-- TaskRule -->
<g id="node22" class="node">
<title>TaskRule</title>
<ellipse fill="#fdb462" stroke="black" cx="555" cy="-66.8" rx="48.09" ry="18"/>
<text text-anchor="middle" x="555" y="-62.6" font-family="Times,serif" font-size="14.00">TaskRule</text>
</g>
<!-- TaskRule&#45;&gt;AuthorizationModule -->
<g id="edge21" class="edge">
<title>TaskRule&#45;&gt;AuthorizationModule</title>
<path fill="none" stroke="black" d="M555,-84.91C555,-104.14 555,-131.8 555,-131.8 555,-131.8 1417.19,-131.8 1417.19,-131.8"/>
<polygon fill="black" stroke="black" points="1417.19,-135.3 1427.19,-131.8 1417.19,-128.3 1417.19,-135.3"/>
</g>
<!-- TeamRule -->
<g id="node23" class="node">
<title>TeamRule</title>
<ellipse fill="#fdb462" stroke="black" cx="438" cy="-66.8" rx="51.02" ry="18"/>
<text text-anchor="middle" x="438" y="-62.6" font-family="Times,serif" font-size="14.00">TeamRule</text>
</g>
<!-- TeamRule&#45;&gt;AuthorizationModule -->
<g id="edge22" class="edge">
<title>TeamRule&#45;&gt;AuthorizationModule</title>
<path fill="none" stroke="black" d="M438,-85.02C438,-105.17 438,-134.8 438,-134.8 438,-134.8 1416.99,-134.8 1416.99,-134.8"/>
<polygon fill="black" stroke="black" points="1416.99,-138.3 1426.99,-134.8 1416.99,-131.3 1416.99,-138.3"/>
</g>
<!-- TeamsRepo -->
<g id="node24" class="node">
<title>TeamsRepo</title>
<ellipse fill="#fdb462" stroke="black" cx="312" cy="-66.8" rx="57.32" ry="18"/>
<text text-anchor="middle" x="312" y="-62.6" font-family="Times,serif" font-size="14.00">TeamsRepo</text>
</g>
<!-- TeamsRepo&#45;&gt;AuthorizationModule -->
<g id="edge23" class="edge">
<title>TeamsRepo&#45;&gt;AuthorizationModule</title>
<path fill="none" stroke="black" d="M312,-85.08C312,-106.12 312,-137.8 312,-137.8 312,-137.8 1417.23,-137.8 1417.23,-137.8"/>
<polygon fill="black" stroke="black" points="1417.23,-141.3 1427.23,-137.8 1417.23,-134.3 1417.23,-141.3"/>
</g>
<!-- UserRepo -->
<g id="node25" class="node">
<title>UserRepo</title>
<ellipse fill="#fdb462" stroke="black" cx="187" cy="-66.8" rx="49.81" ry="18"/>
<text text-anchor="middle" x="187" y="-62.6" font-family="Times,serif" font-size="14.00">UserRepo</text>
</g>
<!-- UserRepo&#45;&gt;AuthorizationModule -->
<g id="edge24" class="edge">
<title>UserRepo&#45;&gt;AuthorizationModule</title>
<path fill="none" stroke="black" d="M187,-85.09C187,-107.01 187,-140.8 187,-140.8 187,-140.8 1417.01,-140.8 1417.01,-140.8"/>
<polygon fill="black" stroke="black" points="1417.01,-144.3 1427.01,-140.8 1417.01,-137.3 1417.01,-144.3"/>
</g>
<!-- UserRule -->
<g id="node26" class="node">
<title>UserRule</title>
<ellipse fill="#fdb462" stroke="black" cx="72" cy="-66.8" rx="47.52" ry="18"/>
<text text-anchor="middle" x="72" y="-62.6" font-family="Times,serif" font-size="14.00">UserRule</text>
</g>
<!-- UserRule&#45;&gt;AuthorizationModule -->
<g id="edge25" class="edge">
<title>UserRule&#45;&gt;AuthorizationModule</title>
<path fill="none" stroke="black" d="M72,-85.05C72,-107.82 72,-143.8 72,-143.8 72,-143.8 1417.32,-143.8 1417.32,-143.8"/>
<polygon fill="black" stroke="black" points="1417.32,-147.3 1427.32,-143.8 1417.32,-140.3 1417.32,-147.3"/>
</g>
</g>
</svg>
