<?xml version="1.0" encoding="UTF-8" standalone="no"?>
<!DOCTYPE svg PUBLIC "-//W3C//DTD SVG 1.1//EN"
 "http://www.w3.org/Graphics/SVG/1.1/DTD/svg11.dtd">
<!-- Generated by graphviz version 5.0.0 (20220707.1540)
 -->
<!-- Title: dependencies Pages: 1 -->
<svg width="3678pt" height="247pt"
 viewBox="0.00 0.00 3678.00 246.80" xmlns="http://www.w3.org/2000/svg" xmlns:xlink="http://www.w3.org/1999/xlink">
<g id="graph0" class="graph" transform="scale(1 1) rotate(0) translate(4 242.8)">
<title>dependencies</title>
<polygon fill="white" stroke="transparent" points="-4,4 -4,-242.8 3674,-242.8 3674,4 -4,4"/>
<text text-anchor="middle" x="1835" y="-8.2" font-family="sans-serif" font-size="14.00">dependencies</text>
<g id="clust1" class="cluster">
<title>cluster_AuthorizationModule</title>
<polygon fill="none" stroke="black" stroke-dasharray="1,5" points="8,-32.8 8,-230.8 3662,-230.8 3662,-32.8 8,-32.8"/>
</g>
<g id="clust4" class="cluster">
<title>cluster_AuthorizationModule_exports</title>
<polygon fill="none" stroke="black" points="1310,-170.8 1310,-222.8 1823,-222.8 1823,-170.8 1310,-170.8"/>
</g>
<g id="clust6" class="cluster">
<title>cluster_AuthorizationModule_providers</title>
<polygon fill="none" stroke="black" points="380,-40.8 380,-92.8 3654,-92.8 3654,-40.8 380,-40.8"/>
</g>
<g id="clust3" class="cluster">
<title>cluster_AuthorizationModule_imports</title>
<polygon fill="none" stroke="black" points="16,-40.8 16,-92.8 372,-92.8 372,-40.8 16,-40.8"/>
</g>
<!-- FeathersModule -->
<g id="node1" class="node">
<title>FeathersModule</title>
<polygon fill="#8dd3c7" stroke="black" points="364.48,-84.8 361.48,-88.8 340.48,-88.8 337.48,-84.8 257.52,-84.8 257.52,-48.8 364.48,-48.8 364.48,-84.8"/>
<text text-anchor="middle" x="311" y="-62.6" font-family="Times,serif" font-size="14.00">FeathersModule</text>
</g>
<!-- AuthorizationModule -->
<g id="node4" class="node">
<title>AuthorizationModule</title>
<polygon fill="#8dd3c7" stroke="black" points="1632.81,-149.8 1629.81,-153.8 1608.81,-153.8 1605.81,-149.8 1495.19,-149.8 1495.19,-113.8 1632.81,-113.8 1632.81,-149.8"/>
<text text-anchor="middle" x="1564" y="-127.6" font-family="Times,serif" font-size="14.00">AuthorizationModule</text>
</g>
<!-- FeathersModule&#45;&gt;AuthorizationModule -->
<g id="edge1" class="edge">
<title>FeathersModule&#45;&gt;AuthorizationModule</title>
<path fill="none" stroke="black" d="M311,-84.97C311,-106.3 311,-138.8 311,-138.8 311,-138.8 1485.3,-138.8 1485.3,-138.8"/>
<polygon fill="black" stroke="black" points="1485.3,-142.3 1495.3,-138.8 1485.3,-135.3 1485.3,-142.3"/>
</g>
<!-- LoggerModule -->
<g id="node2" class="node">
<title>LoggerModule</title>
<polygon fill="#8dd3c7" stroke="black" points="239.98,-84.8 236.98,-88.8 215.98,-88.8 212.98,-84.8 140.02,-84.8 140.02,-48.8 239.98,-48.8 239.98,-84.8"/>
<text text-anchor="middle" x="190" y="-62.6" font-family="Times,serif" font-size="14.00">LoggerModule</text>
</g>
<!-- LoggerModule&#45;&gt;AuthorizationModule -->
<g id="edge2" class="edge">
<title>LoggerModule&#45;&gt;AuthorizationModule</title>
<path fill="none" stroke="black" d="M190,-84.96C190,-107.15 190,-141.8 190,-141.8 190,-141.8 1484.92,-141.8 1484.92,-141.8"/>
<polygon fill="black" stroke="black" points="1484.92,-145.3 1494.92,-141.8 1484.92,-138.3 1484.92,-145.3"/>
</g>
<!-- SchoolModule -->
<g id="node3" class="node">
<title>SchoolModule</title>
<polygon fill="#8dd3c7" stroke="black" points="122.44,-84.8 119.44,-88.8 98.44,-88.8 95.44,-84.8 23.56,-84.8 23.56,-48.8 122.44,-48.8 122.44,-84.8"/>
<text text-anchor="middle" x="73" y="-62.6" font-family="Times,serif" font-size="14.00">SchoolModule</text>
</g>
<!-- SchoolModule&#45;&gt;AuthorizationModule -->
<g id="edge3" class="edge">
<title>SchoolModule&#45;&gt;AuthorizationModule</title>
<path fill="none" stroke="black" d="M73,-84.89C73,-107.93 73,-144.8 73,-144.8 73,-144.8 1485.08,-144.8 1485.08,-144.8"/>
<polygon fill="black" stroke="black" points="1485.08,-148.3 1495.08,-144.8 1485.08,-141.3 1485.08,-148.3"/>
</g>
<!-- AuthorizationService  -->
<g id="node5" class="node">
<title>AuthorizationService </title>
<polygon fill="#fb8072" stroke="black" points="1814.74,-214.8 1675.26,-214.8 1675.26,-178.8 1814.74,-178.8 1814.74,-214.8"/>
<text text-anchor="middle" x="1745" y="-192.6" font-family="Times,serif" font-size="14.00">AuthorizationService </text>
</g>
<!-- AuthorizationModule&#45;&gt;AuthorizationService  -->
<g id="edge4" class="edge">
<title>AuthorizationModule&#45;&gt;AuthorizationService </title>
<path fill="none" stroke="black" stroke-dasharray="5,2" d="M1632.87,-147.8C1658.66,-147.8 1681.81,-147.8 1681.81,-147.8 1681.81,-147.8 1681.81,-168.55 1681.81,-168.55"/>
<polygon fill="black" stroke="black" points="1678.31,-168.55 1681.81,-178.55 1685.31,-168.55 1678.31,-168.55"/>
</g>
<!-- FeathersAuthorizationService  -->
<g id="node6" class="node">
<title>FeathersAuthorizationService </title>
<polygon fill="#fb8072" stroke="black" points="1657.17,-214.8 1470.83,-214.8 1470.83,-178.8 1657.17,-178.8 1657.17,-214.8"/>
<text text-anchor="middle" x="1564" y="-192.6" font-family="Times,serif" font-size="14.00">FeathersAuthorizationService </text>
</g>
<!-- AuthorizationModule&#45;&gt;FeathersAuthorizationService  -->
<g id="edge5" class="edge">
<title>AuthorizationModule&#45;&gt;FeathersAuthorizationService </title>
<path fill="none" stroke="black" stroke-dasharray="5,2" d="M1564,-149.91C1564,-149.91 1564,-168.79 1564,-168.79"/>
<polygon fill="black" stroke="black" points="1560.5,-168.79 1564,-178.79 1567.5,-168.79 1560.5,-168.79"/>
</g>
<!-- FeathersJwtProvider  -->
<g id="node7" class="node">
<title>FeathersJwtProvider </title>
<polygon fill="#fb8072" stroke="black" points="1452.09,-214.8 1317.91,-214.8 1317.91,-178.8 1452.09,-178.8 1452.09,-214.8"/>
<text text-anchor="middle" x="1385" y="-192.6" font-family="Times,serif" font-size="14.00">FeathersJwtProvider </text>
</g>
<!-- AuthorizationModule&#45;&gt;FeathersJwtProvider  -->
<g id="edge6" class="edge">
<title>AuthorizationModule&#45;&gt;FeathersJwtProvider </title>
<path fill="none" stroke="black" stroke-dasharray="5,2" d="M1495.32,-147.8C1469.87,-147.8 1447.1,-147.8 1447.1,-147.8 1447.1,-147.8 1447.1,-168.55 1447.1,-168.55"/>
<polygon fill="black" stroke="black" points="1443.6,-168.55 1447.1,-178.55 1450.6,-168.55 1443.6,-168.55"/>
</g>
<!-- AuthorizationService -->
<g id="node8" class="node">
<title>AuthorizationService</title>
<ellipse fill="#fdb462" stroke="black" cx="3552" cy="-66.8" rx="93.76" ry="18"/>
<text text-anchor="middle" x="3552" y="-62.6" font-family="Times,serif" font-size="14.00">AuthorizationService</text>
</g>
<!-- AuthorizationService&#45;&gt;AuthorizationModule -->
<g id="edge7" class="edge">
<title>AuthorizationService&#45;&gt;AuthorizationModule</title>
<path fill="none" stroke="black" d="M3552,-84.89C3552,-107.93 3552,-144.8 3552,-144.8 3552,-144.8 1642.72,-144.8 1642.72,-144.8"/>
<polygon fill="black" stroke="black" points="1642.72,-141.3 1632.72,-144.8 1642.72,-148.3 1642.72,-141.3"/>
</g>
<!-- CourseGroupRepo -->
<g id="node9" class="node">
<title>CourseGroupRepo</title>
<ellipse fill="#fdb462" stroke="black" cx="3357" cy="-66.8" rx="83.41" ry="18"/>
<text text-anchor="middle" x="3357" y="-62.6" font-family="Times,serif" font-size="14.00">CourseGroupRepo</text>
</g>
<!-- CourseGroupRepo&#45;&gt;AuthorizationModule -->
<g id="edge8" class="edge">
<title>CourseGroupRepo&#45;&gt;AuthorizationModule</title>
<path fill="none" stroke="black" d="M3357,-84.96C3357,-107.15 3357,-141.8 3357,-141.8 3357,-141.8 1642.92,-141.8 1642.92,-141.8"/>
<polygon fill="black" stroke="black" points="1642.92,-138.3 1632.92,-141.8 1642.92,-145.3 1642.92,-138.3"/>
</g>
<!-- CourseGroupRule -->
<g id="node10" class="node">
<title>CourseGroupRule</title>
<ellipse fill="#fdb462" stroke="black" cx="3174" cy="-66.8" rx="81.12" ry="18"/>
<text text-anchor="middle" x="3174" y="-62.6" font-family="Times,serif" font-size="14.00">CourseGroupRule</text>
</g>
<!-- CourseGroupRule&#45;&gt;AuthorizationModule -->
<g id="edge9" class="edge">
<title>CourseGroupRule&#45;&gt;AuthorizationModule</title>
<path fill="none" stroke="black" d="M3174,-84.97C3174,-106.3 3174,-138.8 3174,-138.8 3174,-138.8 1642.66,-138.8 1642.66,-138.8"/>
<polygon fill="black" stroke="black" points="1642.66,-135.3 1632.66,-138.8 1642.66,-142.3 1642.66,-135.3"/>
</g>
<!-- CourseRepo -->
<g id="node11" class="node">
<title>CourseRepo</title>
<ellipse fill="#fdb462" stroke="black" cx="3016" cy="-66.8" rx="58.56" ry="18"/>
<text text-anchor="middle" x="3016" y="-62.6" font-family="Times,serif" font-size="14.00">CourseRepo</text>
</g>
<!-- CourseRepo&#45;&gt;AuthorizationModule -->
<g id="edge10" class="edge">
<title>CourseRepo&#45;&gt;AuthorizationModule</title>
<path fill="none" stroke="black" d="M3016,-84.83C3016,-105.57 3016,-136.8 3016,-136.8 3016,-136.8 1643.06,-136.8 1643.06,-136.8"/>
<polygon fill="black" stroke="black" points="1643.06,-133.3 1633.06,-136.8 1643.06,-140.3 1643.06,-133.3"/>
</g>
<!-- CourseRule -->
<g id="node12" class="node">
<title>CourseRule</title>
<ellipse fill="#fdb462" stroke="black" cx="2883" cy="-66.8" rx="56.77" ry="18"/>
<text text-anchor="middle" x="2883" y="-62.6" font-family="Times,serif" font-size="14.00">CourseRule</text>
</g>
<!-- CourseRule&#45;&gt;AuthorizationModule -->
<g id="edge11" class="edge">
<title>CourseRule&#45;&gt;AuthorizationModule</title>
<path fill="none" stroke="black" d="M2883,-85.11C2883,-104.95 2883,-133.8 2883,-133.8 2883,-133.8 1643.06,-133.8 1643.06,-133.8"/>
<polygon fill="black" stroke="black" points="1643.06,-130.3 1633.06,-133.8 1643.06,-137.3 1643.06,-130.3"/>
</g>
<!-- FeathersAuthProvider -->
<g id="node13" class="node">
<title>FeathersAuthProvider</title>
<ellipse fill="#fdb462" stroke="black" cx="2712" cy="-66.8" rx="96.14" ry="18"/>
<text text-anchor="middle" x="2712" y="-62.6" font-family="Times,serif" font-size="14.00">FeathersAuthProvider</text>
</g>
<!-- FeathersAuthProvider&#45;&gt;AuthorizationModule -->
<g id="edge12" class="edge">
<title>FeathersAuthProvider&#45;&gt;AuthorizationModule</title>
<path fill="none" stroke="black" d="M2712,-84.97C2712,-103.89 2712,-130.8 2712,-130.8 2712,-130.8 1642.8,-130.8 1642.8,-130.8"/>
<polygon fill="black" stroke="black" points="1642.8,-127.3 1632.8,-130.8 1642.8,-134.3 1642.8,-127.3"/>
</g>
<!-- FeathersAuthorizationService -->
<g id="node14" class="node">
<title>FeathersAuthorizationService</title>
<ellipse fill="#fdb462" stroke="black" cx="2471" cy="-66.8" rx="126.19" ry="18"/>
<text text-anchor="middle" x="2471" y="-62.6" font-family="Times,serif" font-size="14.00">FeathersAuthorizationService</text>
</g>
<!-- FeathersAuthorizationService&#45;&gt;AuthorizationModule -->
<g id="edge13" class="edge">
<title>FeathersAuthorizationService&#45;&gt;AuthorizationModule</title>
<path fill="none" stroke="black" d="M2471,-85.1C2471,-103.07 2471,-127.8 2471,-127.8 2471,-127.8 1642.92,-127.8 1642.92,-127.8"/>
<polygon fill="black" stroke="black" points="1642.92,-124.3 1632.92,-127.8 1642.92,-131.3 1642.92,-124.3"/>
</g>
<!-- FeathersJwtProvider -->
<g id="node15" class="node">
<title>FeathersJwtProvider</title>
<ellipse fill="#fdb462" stroke="black" cx="2236" cy="-66.8" rx="90.35" ry="18"/>
<text text-anchor="middle" x="2236" y="-62.6" font-family="Times,serif" font-size="14.00">FeathersJwtProvider</text>
</g>
<!-- FeathersJwtProvider&#45;&gt;AuthorizationModule -->
<g id="edge14" class="edge">
<title>FeathersJwtProvider&#45;&gt;AuthorizationModule</title>
<path fill="none" stroke="black" d="M2236,-84.82C2236,-102.17 2236,-125.8 2236,-125.8 2236,-125.8 1642.76,-125.8 1642.76,-125.8"/>
<polygon fill="black" stroke="black" points="1642.76,-122.3 1632.76,-125.8 1642.76,-129.3 1642.76,-122.3"/>
</g>
<!-- LessonRepo -->
<g id="node16" class="node">
<title>LessonRepo</title>
<ellipse fill="#fdb462" stroke="black" cx="2069" cy="-66.8" rx="58.56" ry="18"/>
<text text-anchor="middle" x="2069" y="-62.6" font-family="Times,serif" font-size="14.00">LessonRepo</text>
</g>
<!-- LessonRepo&#45;&gt;AuthorizationModule -->
<g id="edge15" class="edge">
<title>LessonRepo&#45;&gt;AuthorizationModule</title>
<path fill="none" stroke="black" d="M2069,-84.83C2069,-101.2 2069,-122.8 2069,-122.8 2069,-122.8 1642.9,-122.8 1642.9,-122.8"/>
<polygon fill="black" stroke="black" points="1642.9,-119.3 1632.9,-122.8 1642.9,-126.3 1642.9,-119.3"/>
</g>
<!-- LessonRule -->
<g id="node17" class="node">
<title>LessonRule</title>
<ellipse fill="#fdb462" stroke="black" cx="1936" cy="-66.8" rx="56.77" ry="18"/>
<text text-anchor="middle" x="1936" y="-62.6" font-family="Times,serif" font-size="14.00">LessonRule</text>
</g>
<!-- LessonRule&#45;&gt;AuthorizationModule -->
<g id="edge16" class="edge">
<title>LessonRule&#45;&gt;AuthorizationModule</title>
<path fill="none" stroke="black" d="M1936,-85.04C1936,-100.37 1936,-119.8 1936,-119.8 1936,-119.8 1642.66,-119.8 1642.66,-119.8"/>
<polygon fill="black" stroke="black" points="1642.66,-116.3 1632.66,-119.8 1642.66,-123.3 1642.66,-116.3"/>
</g>
<!-- ReferenceLoader -->
<g id="node18" class="node">
<title>ReferenceLoader</title>
<ellipse fill="#fdb462" stroke="black" cx="1784" cy="-66.8" rx="77.53" ry="18"/>
<text text-anchor="middle" x="1784" y="-62.6" font-family="Times,serif" font-size="14.00">ReferenceLoader</text>
</g>
<!-- ReferenceLoader&#45;&gt;AuthorizationModule -->
<g id="edge17" class="edge">
<title>ReferenceLoader&#45;&gt;AuthorizationModule</title>
<path fill="none" stroke="black" d="M1760.55,-84.01C1760.55,-98.47 1760.55,-116.8 1760.55,-116.8 1760.55,-116.8 1642.74,-116.8 1642.74,-116.8"/>
<polygon fill="black" stroke="black" points="1642.74,-113.3 1632.74,-116.8 1642.74,-120.3 1642.74,-113.3"/>
</g>
<!-- SchoolRepo -->
<g id="node19" class="node">
<title>SchoolRepo</title>
<ellipse fill="#fdb462" stroke="black" cx="1630" cy="-66.8" rx="58.49" ry="18"/>
<text text-anchor="middle" x="1630" y="-62.6" font-family="Times,serif" font-size="14.00">SchoolRepo</text>
</g>
<!-- SchoolRepo&#45;&gt;AuthorizationModule -->
<g id="edge18" class="edge">
<title>SchoolRepo&#45;&gt;AuthorizationModule</title>
<path fill="none" stroke="black" d="M1602.2,-82.87C1602.2,-82.87 1602.2,-103.62 1602.2,-103.62"/>
<polygon fill="black" stroke="black" points="1598.7,-103.62 1602.2,-113.62 1605.7,-103.62 1598.7,-103.62"/>
</g>
<!-- SchoolRule -->
<g id="node20" class="node">
<title>SchoolRule</title>
<ellipse fill="#fdb462" stroke="black" cx="1498" cy="-66.8" rx="56.2" ry="18"/>
<text text-anchor="middle" x="1498" y="-62.6" font-family="Times,serif" font-size="14.00">SchoolRule</text>
</g>
<!-- SchoolRule&#45;&gt;AuthorizationModule -->
<g id="edge19" class="edge">
<title>SchoolRule&#45;&gt;AuthorizationModule</title>
<path fill="none" stroke="black" d="M1524.72,-82.87C1524.72,-82.87 1524.72,-103.62 1524.72,-103.62"/>
<polygon fill="black" stroke="black" points="1521.22,-103.62 1524.72,-113.62 1528.22,-103.62 1521.22,-103.62"/>
</g>
<!-- SubmissionRepo -->
<g id="node21" class="node">
<title>SubmissionRepo</title>
<ellipse fill="#fdb462" stroke="black" cx="1347" cy="-66.8" rx="76.5" ry="18"/>
<text text-anchor="middle" x="1347" y="-62.6" font-family="Times,serif" font-size="14.00">SubmissionRepo</text>
</g>
<!-- SubmissionRepo&#45;&gt;AuthorizationModule -->
<g id="edge20" class="edge">
<title>SubmissionRepo&#45;&gt;AuthorizationModule</title>
<path fill="none" stroke="black" d="M1370.6,-84.01C1370.6,-98.47 1370.6,-116.8 1370.6,-116.8 1370.6,-116.8 1485.27,-116.8 1485.27,-116.8"/>
<polygon fill="black" stroke="black" points="1485.27,-120.3 1495.27,-116.8 1485.27,-113.3 1485.27,-120.3"/>
</g>
<!-- SubmissionRule -->
<g id="node22" class="node">
<title>SubmissionRule</title>
<ellipse fill="#fdb462" stroke="black" cx="1178" cy="-66.8" rx="74.21" ry="18"/>
<text text-anchor="middle" x="1178" y="-62.6" font-family="Times,serif" font-size="14.00">SubmissionRule</text>
</g>
<!-- SubmissionRule&#45;&gt;AuthorizationModule -->
<g id="edge21" class="edge">
<title>SubmissionRule&#45;&gt;AuthorizationModule</title>
<path fill="none" stroke="black" d="M1178,-85.04C1178,-100.37 1178,-119.8 1178,-119.8 1178,-119.8 1484.99,-119.8 1484.99,-119.8"/>
<polygon fill="black" stroke="black" points="1484.99,-123.3 1494.99,-119.8 1484.99,-116.3 1484.99,-123.3"/>
</g>
<!-- TaskRepo -->
<g id="node23" class="node">
<title>TaskRepo</title>
<ellipse fill="#fdb462" stroke="black" cx="1035" cy="-66.8" rx="50.39" ry="18"/>
<text text-anchor="middle" x="1035" y="-62.6" font-family="Times,serif" font-size="14.00">TaskRepo</text>
</g>
<!-- TaskRepo&#45;&gt;AuthorizationModule -->
<g id="edge22" class="edge">
<title>TaskRepo&#45;&gt;AuthorizationModule</title>
<path fill="none" stroke="black" d="M1035,-84.83C1035,-101.2 1035,-122.8 1035,-122.8 1035,-122.8 1485.11,-122.8 1485.11,-122.8"/>
<polygon fill="black" stroke="black" points="1485.11,-126.3 1495.11,-122.8 1485.11,-119.3 1485.11,-126.3"/>
</g>
<!-- TaskRule -->
<g id="node24" class="node">
<title>TaskRule</title>
<ellipse fill="#fdb462" stroke="black" cx="919" cy="-66.8" rx="48.09" ry="18"/>
<text text-anchor="middle" x="919" y="-62.6" font-family="Times,serif" font-size="14.00">TaskRule</text>
</g>
<!-- TaskRule&#45;&gt;AuthorizationModule -->
<g id="edge23" class="edge">
<title>TaskRule&#45;&gt;AuthorizationModule</title>
<path fill="none" stroke="black" d="M919,-84.82C919,-102.17 919,-125.8 919,-125.8 919,-125.8 1485.28,-125.8 1485.28,-125.8"/>
<polygon fill="black" stroke="black" points="1485.28,-129.3 1495.28,-125.8 1485.28,-122.3 1485.28,-129.3"/>
</g>
<!-- TeamRule -->
<g id="node25" class="node">
<title>TeamRule</title>
<ellipse fill="#fdb462" stroke="black" cx="802" cy="-66.8" rx="51.02" ry="18"/>
<text text-anchor="middle" x="802" y="-62.6" font-family="Times,serif" font-size="14.00">TeamRule</text>
</g>
<!-- TeamRule&#45;&gt;AuthorizationModule -->
<g id="edge24" class="edge">
<title>TeamRule&#45;&gt;AuthorizationModule</title>
<path fill="none" stroke="black" d="M802,-85.1C802,-103.07 802,-127.8 802,-127.8 802,-127.8 1485.03,-127.8 1485.03,-127.8"/>
<polygon fill="black" stroke="black" points="1485.03,-131.3 1495.03,-127.8 1485.03,-124.3 1485.03,-131.3"/>
</g>
<!-- TeamsRepo -->
<g id="node26" class="node">
<title>TeamsRepo</title>
<ellipse fill="#fdb462" stroke="black" cx="676" cy="-66.8" rx="57.32" ry="18"/>
<text text-anchor="middle" x="676" y="-62.6" font-family="Times,serif" font-size="14.00">TeamsRepo</text>
</g>
<!-- TeamsRepo&#45;&gt;AuthorizationModule -->
<g id="edge25" class="edge">
<title>TeamsRepo&#45;&gt;AuthorizationModule</title>
<path fill="none" stroke="black" d="M676,-84.97C676,-103.89 676,-130.8 676,-130.8 676,-130.8 1485.06,-130.8 1485.06,-130.8"/>
<polygon fill="black" stroke="black" points="1485.06,-134.3 1495.06,-130.8 1485.06,-127.3 1485.06,-134.3"/>
</g>
<!-- UserRepo -->
<g id="node27" class="node">
<title>UserRepo</title>
<ellipse fill="#fdb462" stroke="black" cx="551" cy="-66.8" rx="49.81" ry="18"/>
<text text-anchor="middle" x="551" y="-62.6" font-family="Times,serif" font-size="14.00">UserRepo</text>
</g>
<!-- UserRepo&#45;&gt;AuthorizationModule -->
<g id="edge26" class="edge">
<title>UserRepo&#45;&gt;AuthorizationModule</title>
<path fill="none" stroke="black" d="M551,-85.11C551,-104.95 551,-133.8 551,-133.8 551,-133.8 1485.17,-133.8 1485.17,-133.8"/>
<polygon fill="black" stroke="black" points="1485.17,-137.3 1495.17,-133.8 1485.17,-130.3 1485.17,-137.3"/>
</g>
<!-- UserRule -->
<g id="node28" class="node">
<title>UserRule</title>
<ellipse fill="#fdb462" stroke="black" cx="436" cy="-66.8" rx="47.52" ry="18"/>
<text text-anchor="middle" x="436" y="-62.6" font-family="Times,serif" font-size="14.00">UserRule</text>
</g>
<!-- UserRule&#45;&gt;AuthorizationModule -->
<g id="edge27" class="edge">
<title>UserRule&#45;&gt;AuthorizationModule</title>
<path fill="none" stroke="black" d="M436,-84.83C436,-105.57 436,-136.8 436,-136.8 436,-136.8 1485.14,-136.8 1485.14,-136.8"/>
<polygon fill="black" stroke="black" points="1485.14,-140.3 1495.14,-136.8 1485.14,-133.3 1485.14,-140.3"/>
</g>
</g>
</svg>
