<?xml version="1.0" encoding="UTF-8" standalone="no"?>
<!DOCTYPE svg PUBLIC "-//W3C//DTD SVG 1.1//EN"
 "http://www.w3.org/Graphics/SVG/1.1/DTD/svg11.dtd">
<!-- Generated by graphviz version 5.0.0 (20220707.1540)
 -->
<!-- Title: dependencies Pages: 1 -->
<svg width="3678pt" height="247pt"
 viewBox="0.00 0.00 3678.00 246.80" xmlns="http://www.w3.org/2000/svg" xmlns:xlink="http://www.w3.org/1999/xlink">
<g id="graph0" class="graph" transform="scale(1 1) rotate(0) translate(4 242.8)">
<title>dependencies</title>
<polygon fill="white" stroke="transparent" points="-4,4 -4,-242.8 3674,-242.8 3674,4 -4,4"/>
<text text-anchor="middle" x="1835" y="-8.2" font-family="sans-serif" font-size="14.00">dependencies</text>
<g id="clust1" class="cluster">
<title>cluster_AuthorizationModule</title>
<polygon fill="none" stroke="black" stroke-dasharray="1,5" points="8,-32.8 8,-230.8 3662,-230.8 3662,-32.8 8,-32.8"/>
</g>
<g id="clust4" class="cluster">
<title>cluster_AuthorizationModule_exports</title>
<polygon fill="none" stroke="black" points="1384,-170.8 1384,-222.8 1897,-222.8 1897,-170.8 1384,-170.8"/>
</g>
<g id="clust3" class="cluster">
<title>cluster_AuthorizationModule_imports</title>
<polygon fill="none" stroke="black" points="3298,-40.8 3298,-92.8 3654,-92.8 3654,-40.8 3298,-40.8"/>
</g>
<g id="clust6" class="cluster">
<title>cluster_AuthorizationModule_providers</title>
<polygon fill="none" stroke="black" points="16,-40.8 16,-92.8 3290,-92.8 3290,-40.8 16,-40.8"/>
</g>
<!-- FeathersModule -->
<g id="node1" class="node">
<title>FeathersModule</title>
<polygon fill="#8dd3c7" stroke="black" points="3646.48,-84.8 3643.48,-88.8 3622.48,-88.8 3619.48,-84.8 3539.52,-84.8 3539.52,-48.8 3646.48,-48.8 3646.48,-84.8"/>
<text text-anchor="middle" x="3593" y="-62.6" font-family="Times,serif" font-size="14.00">FeathersModule</text>
</g>
<!-- AuthorizationModule -->
<g id="node4" class="node">
<title>AuthorizationModule</title>
<polygon fill="#8dd3c7" stroke="black" points="1706.81,-149.8 1703.81,-153.8 1682.81,-153.8 1679.81,-149.8 1569.19,-149.8 1569.19,-113.8 1706.81,-113.8 1706.81,-149.8"/>
<text text-anchor="middle" x="1638" y="-127.6" font-family="Times,serif" font-size="14.00">AuthorizationModule</text>
</g>
<!-- FeathersModule&#45;&gt;AuthorizationModule -->
<g id="edge1" class="edge">
<title>FeathersModule&#45;&gt;AuthorizationModule</title>
<path fill="none" stroke="black" d="M3593,-84.89C3593,-107.93 3593,-144.8 3593,-144.8 3593,-144.8 1716.72,-144.8 1716.72,-144.8"/>
<polygon fill="black" stroke="black" points="1716.72,-141.3 1706.72,-144.8 1716.72,-148.3 1716.72,-141.3"/>
</g>
<!-- LoggerModule -->
<g id="node2" class="node">
<title>LoggerModule</title>
<polygon fill="#8dd3c7" stroke="black" points="3521.98,-84.8 3518.98,-88.8 3497.98,-88.8 3494.98,-84.8 3422.02,-84.8 3422.02,-48.8 3521.98,-48.8 3521.98,-84.8"/>
<text text-anchor="middle" x="3472" y="-62.6" font-family="Times,serif" font-size="14.00">LoggerModule</text>
</g>
<!-- LoggerModule&#45;&gt;AuthorizationModule -->
<g id="edge2" class="edge">
<title>LoggerModule&#45;&gt;AuthorizationModule</title>
<path fill="none" stroke="black" d="M3472,-84.96C3472,-107.15 3472,-141.8 3472,-141.8 3472,-141.8 1716.82,-141.8 1716.82,-141.8"/>
<polygon fill="black" stroke="black" points="1716.82,-138.3 1706.82,-141.8 1716.82,-145.3 1716.82,-138.3"/>
</g>
<!-- SchoolModule -->
<g id="node3" class="node">
<title>SchoolModule</title>
<polygon fill="#8dd3c7" stroke="black" points="3404.44,-84.8 3401.44,-88.8 3380.44,-88.8 3377.44,-84.8 3305.56,-84.8 3305.56,-48.8 3404.44,-48.8 3404.44,-84.8"/>
<text text-anchor="middle" x="3355" y="-62.6" font-family="Times,serif" font-size="14.00">SchoolModule</text>
</g>
<!-- SchoolModule&#45;&gt;AuthorizationModule -->
<g id="edge3" class="edge">
<title>SchoolModule&#45;&gt;AuthorizationModule</title>
<path fill="none" stroke="black" d="M3355,-84.97C3355,-106.3 3355,-138.8 3355,-138.8 3355,-138.8 1716.9,-138.8 1716.9,-138.8"/>
<polygon fill="black" stroke="black" points="1716.9,-135.3 1706.9,-138.8 1716.9,-142.3 1716.9,-135.3"/>
</g>
<!-- AuthorizationService  -->
<g id="node5" class="node">
<title>AuthorizationService </title>
<polygon fill="#fb8072" stroke="black" points="1888.74,-214.8 1749.26,-214.8 1749.26,-178.8 1888.74,-178.8 1888.74,-214.8"/>
<text text-anchor="middle" x="1819" y="-192.6" font-family="Times,serif" font-size="14.00">AuthorizationService </text>
</g>
<!-- AuthorizationModule&#45;&gt;AuthorizationService  -->
<g id="edge4" class="edge">
<title>AuthorizationModule&#45;&gt;AuthorizationService </title>
<path fill="none" stroke="black" stroke-dasharray="5,2" d="M1706.98,-147.8C1733.07,-147.8 1756.58,-147.8 1756.58,-147.8 1756.58,-147.8 1756.58,-168.55 1756.58,-168.55"/>
<polygon fill="black" stroke="black" points="1753.08,-168.55 1756.58,-178.55 1760.08,-168.55 1753.08,-168.55"/>
</g>
<!-- FeathersAuthorizationService  -->
<g id="node6" class="node">
<title>FeathersAuthorizationService </title>
<polygon fill="#fb8072" stroke="black" points="1731.17,-214.8 1544.83,-214.8 1544.83,-178.8 1731.17,-178.8 1731.17,-214.8"/>
<text text-anchor="middle" x="1638" y="-192.6" font-family="Times,serif" font-size="14.00">FeathersAuthorizationService </text>
</g>
<!-- AuthorizationModule&#45;&gt;FeathersAuthorizationService  -->
<g id="edge5" class="edge">
<title>AuthorizationModule&#45;&gt;FeathersAuthorizationService </title>
<path fill="none" stroke="black" stroke-dasharray="5,2" d="M1638,-149.91C1638,-149.91 1638,-168.79 1638,-168.79"/>
<polygon fill="black" stroke="black" points="1634.5,-168.79 1638,-178.79 1641.5,-168.79 1634.5,-168.79"/>
</g>
<!-- FeathersJwtProvider  -->
<g id="node7" class="node">
<title>FeathersJwtProvider </title>
<polygon fill="#fb8072" stroke="black" points="1526.09,-214.8 1391.91,-214.8 1391.91,-178.8 1526.09,-178.8 1526.09,-214.8"/>
<text text-anchor="middle" x="1459" y="-192.6" font-family="Times,serif" font-size="14.00">FeathersJwtProvider </text>
</g>
<!-- AuthorizationModule&#45;&gt;FeathersJwtProvider  -->
<g id="edge6" class="edge">
<title>AuthorizationModule&#45;&gt;FeathersJwtProvider </title>
<path fill="none" stroke="black" stroke-dasharray="5,2" d="M1569.16,-147.8C1543.66,-147.8 1520.83,-147.8 1520.83,-147.8 1520.83,-147.8 1520.83,-168.55 1520.83,-168.55"/>
<polygon fill="black" stroke="black" points="1517.33,-168.55 1520.83,-178.55 1524.33,-168.55 1517.33,-168.55"/>
</g>
<!-- AuthorizationService -->
<g id="node8" class="node">
<title>AuthorizationService</title>
<ellipse fill="#fdb462" stroke="black" cx="3188" cy="-66.8" rx="93.76" ry="18"/>
<text text-anchor="middle" x="3188" y="-62.6" font-family="Times,serif" font-size="14.00">AuthorizationService</text>
</g>
<!-- AuthorizationService&#45;&gt;AuthorizationModule -->
<g id="edge7" class="edge">
<title>AuthorizationService&#45;&gt;AuthorizationModule</title>
<path fill="none" stroke="black" d="M3188,-84.83C3188,-105.57 3188,-136.8 3188,-136.8 3188,-136.8 1716.85,-136.8 1716.85,-136.8"/>
<polygon fill="black" stroke="black" points="1716.85,-133.3 1706.85,-136.8 1716.85,-140.3 1716.85,-133.3"/>
</g>
<!-- CourseGroupRepo -->
<g id="node9" class="node">
<title>CourseGroupRepo</title>
<ellipse fill="#fdb462" stroke="black" cx="2993" cy="-66.8" rx="83.41" ry="18"/>
<text text-anchor="middle" x="2993" y="-62.6" font-family="Times,serif" font-size="14.00">CourseGroupRepo</text>
</g>
<!-- CourseGroupRepo&#45;&gt;AuthorizationModule -->
<g id="edge8" class="edge">
<title>CourseGroupRepo&#45;&gt;AuthorizationModule</title>
<path fill="none" stroke="black" d="M2993,-85.11C2993,-104.95 2993,-133.8 2993,-133.8 2993,-133.8 1717.06,-133.8 1717.06,-133.8"/>
<polygon fill="black" stroke="black" points="1717.06,-130.3 1707.06,-133.8 1717.06,-137.3 1717.06,-130.3"/>
</g>
<!-- CourseGroupRule -->
<g id="node10" class="node">
<title>CourseGroupRule</title>
<ellipse fill="#fdb462" stroke="black" cx="2810" cy="-66.8" rx="81.12" ry="18"/>
<text text-anchor="middle" x="2810" y="-62.6" font-family="Times,serif" font-size="14.00">CourseGroupRule</text>
</g>
<!-- CourseGroupRule&#45;&gt;AuthorizationModule -->
<g id="edge9" class="edge">
<title>CourseGroupRule&#45;&gt;AuthorizationModule</title>
<path fill="none" stroke="black" d="M2810,-84.97C2810,-103.89 2810,-130.8 2810,-130.8 2810,-130.8 1716.94,-130.8 1716.94,-130.8"/>
<polygon fill="black" stroke="black" points="1716.94,-127.3 1706.94,-130.8 1716.94,-134.3 1716.94,-127.3"/>
</g>
<!-- CourseRepo -->
<g id="node11" class="node">
<title>CourseRepo</title>
<ellipse fill="#fdb462" stroke="black" cx="2652" cy="-66.8" rx="58.56" ry="18"/>
<text text-anchor="middle" x="2652" y="-62.6" font-family="Times,serif" font-size="14.00">CourseRepo</text>
</g>
<!-- CourseRepo&#45;&gt;AuthorizationModule -->
<g id="edge10" class="edge">
<title>CourseRepo&#45;&gt;AuthorizationModule</title>
<path fill="none" stroke="black" d="M2652,-85.1C2652,-103.07 2652,-127.8 2652,-127.8 2652,-127.8 1716.9,-127.8 1716.9,-127.8"/>
<polygon fill="black" stroke="black" points="1716.9,-124.3 1706.9,-127.8 1716.9,-131.3 1716.9,-124.3"/>
</g>
<!-- CourseRule -->
<g id="node12" class="node">
<title>CourseRule</title>
<ellipse fill="#fdb462" stroke="black" cx="2519" cy="-66.8" rx="56.77" ry="18"/>
<text text-anchor="middle" x="2519" y="-62.6" font-family="Times,serif" font-size="14.00">CourseRule</text>
</g>
<!-- CourseRule&#45;&gt;AuthorizationModule -->
<g id="edge11" class="edge">
<title>CourseRule&#45;&gt;AuthorizationModule</title>
<path fill="none" stroke="black" d="M2519,-84.82C2519,-102.17 2519,-125.8 2519,-125.8 2519,-125.8 1716.76,-125.8 1716.76,-125.8"/>
<polygon fill="black" stroke="black" points="1716.76,-122.3 1706.76,-125.8 1716.76,-129.3 1716.76,-122.3"/>
</g>
<!-- FeathersAuthProvider -->
<g id="node13" class="node">
<title>FeathersAuthProvider</title>
<ellipse fill="#fdb462" stroke="black" cx="2348" cy="-66.8" rx="96.14" ry="18"/>
<text text-anchor="middle" x="2348" y="-62.6" font-family="Times,serif" font-size="14.00">FeathersAuthProvider</text>
</g>
<!-- FeathersAuthProvider&#45;&gt;AuthorizationModule -->
<g id="edge12" class="edge">
<title>FeathersAuthProvider&#45;&gt;AuthorizationModule</title>
<path fill="none" stroke="black" d="M2348,-84.83C2348,-101.2 2348,-122.8 2348,-122.8 2348,-122.8 1716.72,-122.8 1716.72,-122.8"/>
<polygon fill="black" stroke="black" points="1716.72,-119.3 1706.72,-122.8 1716.72,-126.3 1716.72,-119.3"/>
</g>
<!-- FeathersAuthorizationService -->
<g id="node14" class="node">
<title>FeathersAuthorizationService</title>
<ellipse fill="#fdb462" stroke="black" cx="2107" cy="-66.8" rx="126.19" ry="18"/>
<text text-anchor="middle" x="2107" y="-62.6" font-family="Times,serif" font-size="14.00">FeathersAuthorizationService</text>
</g>
<!-- FeathersAuthorizationService&#45;&gt;AuthorizationModule -->
<g id="edge13" class="edge">
<title>FeathersAuthorizationService&#45;&gt;AuthorizationModule</title>
<path fill="none" stroke="black" d="M2107,-85.04C2107,-100.37 2107,-119.8 2107,-119.8 2107,-119.8 1716.7,-119.8 1716.7,-119.8"/>
<polygon fill="black" stroke="black" points="1716.7,-116.3 1706.7,-119.8 1716.7,-123.3 1716.7,-116.3"/>
</g>
<!-- FeathersJwtProvider -->
<g id="node15" class="node">
<title>FeathersJwtProvider</title>
<ellipse fill="#fdb462" stroke="black" cx="1872" cy="-66.8" rx="90.35" ry="18"/>
<text text-anchor="middle" x="1872" y="-62.6" font-family="Times,serif" font-size="14.00">FeathersJwtProvider</text>
</g>
<!-- FeathersJwtProvider&#45;&gt;AuthorizationModule -->
<g id="edge14" class="edge">
<title>FeathersJwtProvider&#45;&gt;AuthorizationModule</title>
<path fill="none" stroke="black" d="M1835.1,-83.45C1835.1,-97.99 1835.1,-116.8 1835.1,-116.8 1835.1,-116.8 1716.66,-116.8 1716.66,-116.8"/>
<polygon fill="black" stroke="black" points="1716.66,-113.3 1706.66,-116.8 1716.66,-120.3 1716.66,-113.3"/>
</g>
<!-- LessonRepo -->
<g id="node16" class="node">
<title>LessonRepo</title>
<ellipse fill="#fdb462" stroke="black" cx="1705" cy="-66.8" rx="58.56" ry="18"/>
<text text-anchor="middle" x="1705" y="-62.6" font-family="Times,serif" font-size="14.00">LessonRepo</text>
</g>
<!-- LessonRepo&#45;&gt;AuthorizationModule -->
<g id="edge15" class="edge">
<title>LessonRepo&#45;&gt;AuthorizationModule</title>
<path fill="none" stroke="black" d="M1676.44,-82.53C1676.44,-82.53 1676.44,-103.45 1676.44,-103.45"/>
<polygon fill="black" stroke="black" points="1672.94,-103.45 1676.44,-113.45 1679.94,-103.45 1672.94,-103.45"/>
</g>
<!-- LessonRule -->
<g id="node17" class="node">
<title>LessonRule</title>
<ellipse fill="#fdb462" stroke="black" cx="1572" cy="-66.8" rx="56.77" ry="18"/>
<text text-anchor="middle" x="1572" y="-62.6" font-family="Times,serif" font-size="14.00">LessonRule</text>
</g>
<!-- LessonRule&#45;&gt;AuthorizationModule -->
<g id="edge16" class="edge">
<title>LessonRule&#45;&gt;AuthorizationModule</title>
<path fill="none" stroke="black" d="M1598.99,-82.87C1598.99,-82.87 1598.99,-103.62 1598.99,-103.62"/>
<polygon fill="black" stroke="black" points="1595.49,-103.62 1598.99,-113.62 1602.49,-103.62 1595.49,-103.62"/>
</g>
<!-- ReferenceLoader -->
<g id="node18" class="node">
<title>ReferenceLoader</title>
<ellipse fill="#fdb462" stroke="black" cx="1420" cy="-66.8" rx="77.53" ry="18"/>
<text text-anchor="middle" x="1420" y="-62.6" font-family="Times,serif" font-size="14.00">ReferenceLoader</text>
</g>
<!-- ReferenceLoader&#45;&gt;AuthorizationModule -->
<g id="edge17" class="edge">
<title>ReferenceLoader&#45;&gt;AuthorizationModule</title>
<path fill="none" stroke="black" d="M1444.61,-84.01C1444.61,-98.47 1444.61,-116.8 1444.61,-116.8 1444.61,-116.8 1559.27,-116.8 1559.27,-116.8"/>
<polygon fill="black" stroke="black" points="1559.27,-120.3 1569.27,-116.8 1559.27,-113.3 1559.27,-120.3"/>
</g>
<!-- SchoolRepo -->
<g id="node19" class="node">
<title>SchoolRepo</title>
<ellipse fill="#fdb462" stroke="black" cx="1266" cy="-66.8" rx="58.49" ry="18"/>
<text text-anchor="middle" x="1266" y="-62.6" font-family="Times,serif" font-size="14.00">SchoolRepo</text>
</g>
<!-- SchoolRepo&#45;&gt;AuthorizationModule -->
<g id="edge18" class="edge">
<title>SchoolRepo&#45;&gt;AuthorizationModule</title>
<path fill="none" stroke="black" d="M1266,-85.04C1266,-100.37 1266,-119.8 1266,-119.8 1266,-119.8 1559.34,-119.8 1559.34,-119.8"/>
<polygon fill="black" stroke="black" points="1559.34,-123.3 1569.34,-119.8 1559.34,-116.3 1559.34,-123.3"/>
</g>
<!-- SchoolRule -->
<g id="node20" class="node">
<title>SchoolRule</title>
<ellipse fill="#fdb462" stroke="black" cx="1134" cy="-66.8" rx="56.2" ry="18"/>
<text text-anchor="middle" x="1134" y="-62.6" font-family="Times,serif" font-size="14.00">SchoolRule</text>
</g>
<!-- SchoolRule&#45;&gt;AuthorizationModule -->
<g id="edge19" class="edge">
<title>SchoolRule&#45;&gt;AuthorizationModule</title>
<path fill="none" stroke="black" d="M1134,-84.83C1134,-101.2 1134,-122.8 1134,-122.8 1134,-122.8 1559.24,-122.8 1559.24,-122.8"/>
<polygon fill="black" stroke="black" points="1559.24,-126.3 1569.24,-122.8 1559.24,-119.3 1559.24,-126.3"/>
</g>
<!-- SubmissionRepo -->
<g id="node21" class="node">
<title>SubmissionRepo</title>
<ellipse fill="#fdb462" stroke="black" cx="983" cy="-66.8" rx="76.5" ry="18"/>
<text text-anchor="middle" x="983" y="-62.6" font-family="Times,serif" font-size="14.00">SubmissionRepo</text>
</g>
<!-- SubmissionRepo&#45;&gt;AuthorizationModule -->
<g id="edge20" class="edge">
<title>SubmissionRepo&#45;&gt;AuthorizationModule</title>
<path fill="none" stroke="black" d="M983,-84.82C983,-102.17 983,-125.8 983,-125.8 983,-125.8 1559.14,-125.8 1559.14,-125.8"/>
<polygon fill="black" stroke="black" points="1559.14,-129.3 1569.14,-125.8 1559.14,-122.3 1559.14,-129.3"/>
</g>
<!-- SubmissionRule -->
<g id="node22" class="node">
<title>SubmissionRule</title>
<ellipse fill="#fdb462" stroke="black" cx="814" cy="-66.8" rx="74.21" ry="18"/>
<text text-anchor="middle" x="814" y="-62.6" font-family="Times,serif" font-size="14.00">SubmissionRule</text>
</g>
<!-- SubmissionRule&#45;&gt;AuthorizationModule -->
<g id="edge21" class="edge">
<title>SubmissionRule&#45;&gt;AuthorizationModule</title>
<path fill="none" stroke="black" d="M814,-85.1C814,-103.07 814,-127.8 814,-127.8 814,-127.8 1559.16,-127.8 1559.16,-127.8"/>
<polygon fill="black" stroke="black" points="1559.16,-131.3 1569.16,-127.8 1559.16,-124.3 1559.16,-131.3"/>
</g>
<!-- TaskRepo -->
<g id="node23" class="node">
<title>TaskRepo</title>
<ellipse fill="#fdb462" stroke="black" cx="671" cy="-66.8" rx="50.39" ry="18"/>
<text text-anchor="middle" x="671" y="-62.6" font-family="Times,serif" font-size="14.00">TaskRepo</text>
</g>
<!-- TaskRepo&#45;&gt;AuthorizationModule -->
<g id="edge22" class="edge">
<title>TaskRepo&#45;&gt;AuthorizationModule</title>
<path fill="none" stroke="black" d="M671,-84.97C671,-103.89 671,-130.8 671,-130.8 671,-130.8 1559.23,-130.8 1559.23,-130.8"/>
<polygon fill="black" stroke="black" points="1559.23,-134.3 1569.23,-130.8 1559.23,-127.3 1559.23,-134.3"/>
</g>
<!-- TaskRule -->
<g id="node24" class="node">
<title>TaskRule</title>
<ellipse fill="#fdb462" stroke="black" cx="555" cy="-66.8" rx="48.09" ry="18"/>
<text text-anchor="middle" x="555" y="-62.6" font-family="Times,serif" font-size="14.00">TaskRule</text>
</g>
<!-- TaskRule&#45;&gt;AuthorizationModule -->
<g id="edge23" class="edge">
<title>TaskRule&#45;&gt;AuthorizationModule</title>
<path fill="none" stroke="black" d="M555,-85.11C555,-104.95 555,-133.8 555,-133.8 555,-133.8 1559.02,-133.8 1559.02,-133.8"/>
<polygon fill="black" stroke="black" points="1559.02,-137.3 1569.02,-133.8 1559.02,-130.3 1559.02,-137.3"/>
</g>
<!-- TeamRule -->
<g id="node25" class="node">
<title>TeamRule</title>
<ellipse fill="#fdb462" stroke="black" cx="438" cy="-66.8" rx="51.02" ry="18"/>
<text text-anchor="middle" x="438" y="-62.6" font-family="Times,serif" font-size="14.00">TeamRule</text>
</g>
<!-- TeamRule&#45;&gt;AuthorizationModule -->
<g id="edge24" class="edge">
<title>TeamRule&#45;&gt;AuthorizationModule</title>
<path fill="none" stroke="black" d="M438,-84.83C438,-105.57 438,-136.8 438,-136.8 438,-136.8 1559.17,-136.8 1559.17,-136.8"/>
<polygon fill="black" stroke="black" points="1559.17,-140.3 1569.17,-136.8 1559.17,-133.3 1559.17,-140.3"/>
</g>
<!-- TeamsRepo -->
<g id="node26" class="node">
<title>TeamsRepo</title>
<ellipse fill="#fdb462" stroke="black" cx="312" cy="-66.8" rx="57.32" ry="18"/>
<text text-anchor="middle" x="312" y="-62.6" font-family="Times,serif" font-size="14.00">TeamsRepo</text>
</g>
<!-- TeamsRepo&#45;&gt;AuthorizationModule -->
<g id="edge25" class="edge">
<title>TeamsRepo&#45;&gt;AuthorizationModule</title>
<path fill="none" stroke="black" d="M312,-84.97C312,-106.3 312,-138.8 312,-138.8 312,-138.8 1559.04,-138.8 1559.04,-138.8"/>
<polygon fill="black" stroke="black" points="1559.04,-142.3 1569.04,-138.8 1559.04,-135.3 1559.04,-142.3"/>
</g>
<!-- UserRepo -->
<g id="node27" class="node">
<title>UserRepo</title>
<ellipse fill="#fdb462" stroke="black" cx="187" cy="-66.8" rx="49.81" ry="18"/>
<text text-anchor="middle" x="187" y="-62.6" font-family="Times,serif" font-size="14.00">UserRepo</text>
</g>
<!-- UserRepo&#45;&gt;AuthorizationModule -->
<g id="edge26" class="edge">
<title>UserRepo&#45;&gt;AuthorizationModule</title>
<path fill="none" stroke="black" d="M187,-84.96C187,-107.15 187,-141.8 187,-141.8 187,-141.8 1558.99,-141.8 1558.99,-141.8"/>
<polygon fill="black" stroke="black" points="1558.99,-145.3 1568.99,-141.8 1558.99,-138.3 1558.99,-145.3"/>
</g>
<!-- UserRule -->
<g id="node28" class="node">
<title>UserRule</title>
<ellipse fill="#fdb462" stroke="black" cx="72" cy="-66.8" rx="47.52" ry="18"/>
<text text-anchor="middle" x="72" y="-62.6" font-family="Times,serif" font-size="14.00">UserRule</text>
</g>
<!-- UserRule&#45;&gt;AuthorizationModule -->
<g id="edge27" class="edge">
<title>UserRule&#45;&gt;AuthorizationModule</title>
<path fill="none" stroke="black" d="M72,-84.89C72,-107.93 72,-144.8 72,-144.8 72,-144.8 1559.2,-144.8 1559.2,-144.8"/>
<polygon fill="black" stroke="black" points="1559.2,-148.3 1569.2,-144.8 1559.2,-141.3 1559.2,-148.3"/>
</g>
</g>
</svg>
