<?xml version="1.0" encoding="UTF-8" standalone="no"?>
<!DOCTYPE svg PUBLIC "-//W3C//DTD SVG 1.1//EN"
 "http://www.w3.org/Graphics/SVG/1.1/DTD/svg11.dtd">
<!-- Generated by graphviz version 5.0.0 (20220707.1540)
 -->
<!-- Title: dependencies Pages: 1 -->
<svg width="3444pt" height="247pt"
 viewBox="0.00 0.00 3444.00 246.80" xmlns="http://www.w3.org/2000/svg" xmlns:xlink="http://www.w3.org/1999/xlink">
<g id="graph0" class="graph" transform="scale(1 1) rotate(0) translate(4 242.8)">
<title>dependencies</title>
<polygon fill="white" stroke="transparent" points="-4,4 -4,-242.8 3440,-242.8 3440,4 -4,4"/>
<text text-anchor="middle" x="1718" y="-8.2" font-family="sans-serif" font-size="14.00">dependencies</text>
<g id="clust1" class="cluster">
<title>cluster_AuthorizationModule</title>
<polygon fill="none" stroke="black" stroke-dasharray="1,5" points="8,-32.8 8,-230.8 3428,-230.8 3428,-32.8 8,-32.8"/>
</g>
<g id="clust6" class="cluster">
<title>cluster_AuthorizationModule_providers</title>
<polygon fill="none" stroke="black" points="146,-40.8 146,-92.8 3420,-92.8 3420,-40.8 146,-40.8"/>
</g>
<g id="clust4" class="cluster">
<title>cluster_AuthorizationModule_exports</title>
<polygon fill="none" stroke="black" points="1219,-170.8 1219,-222.8 1732,-222.8 1732,-170.8 1219,-170.8"/>
</g>
<g id="clust3" class="cluster">
<title>cluster_AuthorizationModule_imports</title>
<polygon fill="none" stroke="black" points="16,-40.8 16,-92.8 138,-92.8 138,-40.8 16,-40.8"/>
</g>
<!-- FeathersModule -->
<g id="node1" class="node">
<title>FeathersModule</title>
<polygon fill="#8dd3c7" stroke="black" points="130.48,-84.8 127.48,-88.8 106.48,-88.8 103.48,-84.8 23.52,-84.8 23.52,-48.8 130.48,-48.8 130.48,-84.8"/>
<text text-anchor="middle" x="77" y="-62.6" font-family="Times,serif" font-size="14.00">FeathersModule</text>
</g>
<!-- AuthorizationModule -->
<g id="node2" class="node">
<title>AuthorizationModule</title>
<polygon fill="#8dd3c7" stroke="black" points="1541.81,-149.8 1538.81,-153.8 1517.81,-153.8 1514.81,-149.8 1404.19,-149.8 1404.19,-113.8 1541.81,-113.8 1541.81,-149.8"/>
<text text-anchor="middle" x="1473" y="-127.6" font-family="Times,serif" font-size="14.00">AuthorizationModule</text>
</g>
<!-- FeathersModule&#45;&gt;AuthorizationModule -->
<g id="edge1" class="edge">
<title>FeathersModule&#45;&gt;AuthorizationModule</title>
<path fill="none" stroke="black" d="M77,-85.05C77,-107.82 77,-143.8 77,-143.8 77,-143.8 1394.25,-143.8 1394.25,-143.8"/>
<polygon fill="black" stroke="black" points="1394.25,-147.3 1404.25,-143.8 1394.25,-140.3 1394.25,-147.3"/>
</g>
<!-- AuthorizationService  -->
<g id="node3" class="node">
<title>AuthorizationService </title>
<polygon fill="#fb8072" stroke="black" points="1723.74,-214.8 1584.26,-214.8 1584.26,-178.8 1723.74,-178.8 1723.74,-214.8"/>
<text text-anchor="middle" x="1654" y="-192.6" font-family="Times,serif" font-size="14.00">AuthorizationService </text>
</g>
<!-- AuthorizationModule&#45;&gt;AuthorizationService  -->
<g id="edge2" class="edge">
<title>AuthorizationModule&#45;&gt;AuthorizationService </title>
<path fill="none" stroke="black" stroke-dasharray="5,2" d="M1541.81,-146.8C1574.25,-146.8 1605.95,-146.8 1605.95,-146.8 1605.95,-146.8 1605.95,-168.75 1605.95,-168.75"/>
<polygon fill="black" stroke="black" points="1602.45,-168.75 1605.95,-178.75 1609.45,-168.75 1602.45,-168.75"/>
</g>
<!-- FeathersAuthorizationService  -->
<g id="node4" class="node">
<title>FeathersAuthorizationService </title>
<polygon fill="#fb8072" stroke="black" points="1566.17,-214.8 1379.83,-214.8 1379.83,-178.8 1566.17,-178.8 1566.17,-214.8"/>
<text text-anchor="middle" x="1473" y="-192.6" font-family="Times,serif" font-size="14.00">FeathersAuthorizationService </text>
</g>
<!-- AuthorizationModule&#45;&gt;FeathersAuthorizationService  -->
<g id="edge3" class="edge">
<title>AuthorizationModule&#45;&gt;FeathersAuthorizationService </title>
<path fill="none" stroke="black" stroke-dasharray="5,2" d="M1473,-149.91C1473,-149.91 1473,-168.79 1473,-168.79"/>
<polygon fill="black" stroke="black" points="1469.5,-168.79 1473,-178.79 1476.5,-168.79 1469.5,-168.79"/>
</g>
<!-- FeathersJwtProvider  -->
<g id="node5" class="node">
<title>FeathersJwtProvider </title>
<polygon fill="#fb8072" stroke="black" points="1361.09,-214.8 1226.91,-214.8 1226.91,-178.8 1361.09,-178.8 1361.09,-214.8"/>
<text text-anchor="middle" x="1294" y="-192.6" font-family="Times,serif" font-size="14.00">FeathersJwtProvider </text>
</g>
<!-- AuthorizationModule&#45;&gt;FeathersJwtProvider  -->
<g id="edge4" class="edge">
<title>AuthorizationModule&#45;&gt;FeathersJwtProvider </title>
<path fill="none" stroke="black" stroke-dasharray="5,2" d="M1404.04,-146.8C1375.76,-146.8 1349.52,-146.8 1349.52,-146.8 1349.52,-146.8 1349.52,-168.75 1349.52,-168.75"/>
<polygon fill="black" stroke="black" points="1346.02,-168.75 1349.52,-178.75 1353.02,-168.75 1346.02,-168.75"/>
</g>
<!-- AuthorizationService -->
<g id="node6" class="node">
<title>AuthorizationService</title>
<ellipse fill="#fdb462" stroke="black" cx="3318" cy="-66.8" rx="93.76" ry="18"/>
<text text-anchor="middle" x="3318" y="-62.6" font-family="Times,serif" font-size="14.00">AuthorizationService</text>
</g>
<!-- AuthorizationService&#45;&gt;AuthorizationModule -->
<g id="edge5" class="edge">
<title>AuthorizationService&#45;&gt;AuthorizationModule</title>
<path fill="none" stroke="black" d="M3318,-85.05C3318,-107.82 3318,-143.8 3318,-143.8 3318,-143.8 1551.68,-143.8 1551.68,-143.8"/>
<polygon fill="black" stroke="black" points="1551.68,-140.3 1541.68,-143.8 1551.68,-147.3 1551.68,-140.3"/>
</g>
<!-- CourseGroupRepo -->
<g id="node7" class="node">
<title>CourseGroupRepo</title>
<ellipse fill="#fdb462" stroke="black" cx="3123" cy="-66.8" rx="83.41" ry="18"/>
<text text-anchor="middle" x="3123" y="-62.6" font-family="Times,serif" font-size="14.00">CourseGroupRepo</text>
</g>
<!-- CourseGroupRepo&#45;&gt;AuthorizationModule -->
<g id="edge6" class="edge">
<title>CourseGroupRepo&#45;&gt;AuthorizationModule</title>
<path fill="none" stroke="black" d="M3123,-85.09C3123,-107.01 3123,-140.8 3123,-140.8 3123,-140.8 1551.8,-140.8 1551.8,-140.8"/>
<polygon fill="black" stroke="black" points="1551.8,-137.3 1541.8,-140.8 1551.8,-144.3 1551.8,-137.3"/>
</g>
<!-- CourseGroupRule -->
<g id="node8" class="node">
<title>CourseGroupRule</title>
<ellipse fill="#fdb462" stroke="black" cx="2940" cy="-66.8" rx="81.12" ry="18"/>
<text text-anchor="middle" x="2940" y="-62.6" font-family="Times,serif" font-size="14.00">CourseGroupRule</text>
</g>
<!-- CourseGroupRule&#45;&gt;AuthorizationModule -->
<g id="edge7" class="edge">
<title>CourseGroupRule&#45;&gt;AuthorizationModule</title>
<path fill="none" stroke="black" d="M2940,-85.08C2940,-106.12 2940,-137.8 2940,-137.8 2940,-137.8 1551.79,-137.8 1551.79,-137.8"/>
<polygon fill="black" stroke="black" points="1551.79,-134.3 1541.79,-137.8 1551.79,-141.3 1551.79,-134.3"/>
</g>
<!-- CourseRepo -->
<g id="node9" class="node">
<title>CourseRepo</title>
<ellipse fill="#fdb462" stroke="black" cx="2782" cy="-66.8" rx="58.56" ry="18"/>
<text text-anchor="middle" x="2782" y="-62.6" font-family="Times,serif" font-size="14.00">CourseRepo</text>
</g>
<!-- CourseRepo&#45;&gt;AuthorizationModule -->
<g id="edge8" class="edge">
<title>CourseRepo&#45;&gt;AuthorizationModule</title>
<path fill="none" stroke="black" d="M2782,-85.02C2782,-105.17 2782,-134.8 2782,-134.8 2782,-134.8 1551.99,-134.8 1551.99,-134.8"/>
<polygon fill="black" stroke="black" points="1551.99,-131.3 1541.99,-134.8 1551.99,-138.3 1551.99,-131.3"/>
</g>
<!-- CourseRule -->
<g id="node10" class="node">
<title>CourseRule</title>
<ellipse fill="#fdb462" stroke="black" cx="2649" cy="-66.8" rx="56.77" ry="18"/>
<text text-anchor="middle" x="2649" y="-62.6" font-family="Times,serif" font-size="14.00">CourseRule</text>
</g>
<!-- CourseRule&#45;&gt;AuthorizationModule -->
<g id="edge9" class="edge">
<title>CourseRule&#45;&gt;AuthorizationModule</title>
<path fill="none" stroke="black" d="M2649,-84.91C2649,-104.14 2649,-131.8 2649,-131.8 2649,-131.8 1551.74,-131.8 1551.74,-131.8"/>
<polygon fill="black" stroke="black" points="1551.74,-128.3 1541.74,-131.8 1551.74,-135.3 1551.74,-128.3"/>
</g>
<!-- FeathersAuthProvider -->
<g id="node11" class="node">
<title>FeathersAuthProvider</title>
<ellipse fill="#fdb462" stroke="black" cx="2478" cy="-66.8" rx="96.14" ry="18"/>
<text text-anchor="middle" x="2478" y="-62.6" font-family="Times,serif" font-size="14.00">FeathersAuthProvider</text>
</g>
<!-- FeathersAuthProvider&#45;&gt;AuthorizationModule -->
<g id="edge10" class="edge">
<title>FeathersAuthProvider&#45;&gt;AuthorizationModule</title>
<path fill="none" stroke="black" d="M2478,-85.07C2478,-103.36 2478,-128.8 2478,-128.8 2478,-128.8 1551.68,-128.8 1551.68,-128.8"/>
<polygon fill="black" stroke="black" points="1551.68,-125.3 1541.68,-128.8 1551.68,-132.3 1551.68,-125.3"/>
</g>
<!-- FeathersAuthorizationService -->
<g id="node12" class="node">
<title>FeathersAuthorizationService</title>
<ellipse fill="#fdb462" stroke="black" cx="2237" cy="-66.8" rx="126.19" ry="18"/>
<text text-anchor="middle" x="2237" y="-62.6" font-family="Times,serif" font-size="14.00">FeathersAuthorizationService</text>
</g>
<!-- FeathersAuthorizationService&#45;&gt;AuthorizationModule -->
<g id="edge11" class="edge">
<title>FeathersAuthorizationService&#45;&gt;AuthorizationModule</title>
<path fill="none" stroke="black" d="M2237,-84.82C2237,-102.17 2237,-125.8 2237,-125.8 2237,-125.8 1551.81,-125.8 1551.81,-125.8"/>
<polygon fill="black" stroke="black" points="1551.81,-122.3 1541.81,-125.8 1551.81,-129.3 1551.81,-122.3"/>
</g>
<!-- FeathersJwtProvider -->
<g id="node13" class="node">
<title>FeathersJwtProvider</title>
<ellipse fill="#fdb462" stroke="black" cx="2002" cy="-66.8" rx="90.35" ry="18"/>
<text text-anchor="middle" x="2002" y="-62.6" font-family="Times,serif" font-size="14.00">FeathersJwtProvider</text>
</g>
<!-- FeathersJwtProvider&#45;&gt;AuthorizationModule -->
<g id="edge12" class="edge">
<title>FeathersJwtProvider&#45;&gt;AuthorizationModule</title>
<path fill="none" stroke="black" d="M2002,-84.83C2002,-101.2 2002,-122.8 2002,-122.8 2002,-122.8 1551.89,-122.8 1551.89,-122.8"/>
<polygon fill="black" stroke="black" points="1551.89,-119.3 1541.89,-122.8 1551.89,-126.3 1551.89,-119.3"/>
</g>
<!-- LessonRepo -->
<g id="node14" class="node">
<title>LessonRepo</title>
<ellipse fill="#fdb462" stroke="black" cx="1835" cy="-66.8" rx="58.56" ry="18"/>
<text text-anchor="middle" x="1835" y="-62.6" font-family="Times,serif" font-size="14.00">LessonRepo</text>
</g>
<!-- LessonRepo&#45;&gt;AuthorizationModule -->
<g id="edge13" class="edge">
<title>LessonRepo&#45;&gt;AuthorizationModule</title>
<path fill="none" stroke="black" d="M1835,-85.04C1835,-100.37 1835,-119.8 1835,-119.8 1835,-119.8 1551.94,-119.8 1551.94,-119.8"/>
<polygon fill="black" stroke="black" points="1551.94,-116.3 1541.94,-119.8 1551.94,-123.3 1551.94,-116.3"/>
</g>
<!-- LessonRule -->
<g id="node15" class="node">
<title>LessonRule</title>
<ellipse fill="#fdb462" stroke="black" cx="1702" cy="-66.8" rx="56.77" ry="18"/>
<text text-anchor="middle" x="1702" y="-62.6" font-family="Times,serif" font-size="14.00">LessonRule</text>
</g>
<!-- LessonRule&#45;&gt;AuthorizationModule -->
<g id="edge14" class="edge">
<title>LessonRule&#45;&gt;AuthorizationModule</title>
<path fill="none" stroke="black" d="M1684.49,-84.01C1684.49,-98.47 1684.49,-116.8 1684.49,-116.8 1684.49,-116.8 1551.67,-116.8 1551.67,-116.8"/>
<polygon fill="black" stroke="black" points="1551.67,-113.3 1541.67,-116.8 1551.67,-120.3 1551.67,-113.3"/>
</g>
<!-- ReferenceLoader -->
<g id="node16" class="node">
<title>ReferenceLoader</title>
<ellipse fill="#fdb462" stroke="black" cx="1550" cy="-66.8" rx="77.53" ry="18"/>
<text text-anchor="middle" x="1550" y="-62.6" font-family="Times,serif" font-size="14.00">ReferenceLoader</text>
</g>
<!-- ReferenceLoader&#45;&gt;AuthorizationModule -->
<g id="edge15" class="edge">
<title>ReferenceLoader&#45;&gt;AuthorizationModule</title>
<path fill="none" stroke="black" d="M1507.07,-81.88C1507.07,-81.88 1507.07,-103.56 1507.07,-103.56"/>
<polygon fill="black" stroke="black" points="1503.57,-103.56 1507.07,-113.56 1510.57,-103.56 1503.57,-103.56"/>
</g>
<!-- SchoolRepo -->
<g id="node17" class="node">
<title>SchoolRepo</title>
<ellipse fill="#fdb462" stroke="black" cx="1396" cy="-66.8" rx="58.49" ry="18"/>
<text text-anchor="middle" x="1396" y="-62.6" font-family="Times,serif" font-size="14.00">SchoolRepo</text>
</g>
<!-- SchoolRepo&#45;&gt;AuthorizationModule -->
<g id="edge16" class="edge">
<title>SchoolRepo&#45;&gt;AuthorizationModule</title>
<path fill="none" stroke="black" d="M1429.3,-81.88C1429.3,-81.88 1429.3,-103.56 1429.3,-103.56"/>
<polygon fill="black" stroke="black" points="1425.8,-103.56 1429.3,-113.56 1432.8,-103.56 1425.8,-103.56"/>
</g>
<!-- SchoolRule -->
<g id="node18" class="node">
<title>SchoolRule</title>
<ellipse fill="#fdb462" stroke="black" cx="1264" cy="-66.8" rx="56.2" ry="18"/>
<text text-anchor="middle" x="1264" y="-62.6" font-family="Times,serif" font-size="14.00">SchoolRule</text>
</g>
<!-- SchoolRule&#45;&gt;AuthorizationModule -->
<g id="edge17" class="edge">
<title>SchoolRule&#45;&gt;AuthorizationModule</title>
<path fill="none" stroke="black" d="M1273.4,-84.57C1273.4,-98.94 1273.4,-116.8 1273.4,-116.8 1273.4,-116.8 1394.31,-116.8 1394.31,-116.8"/>
<polygon fill="black" stroke="black" points="1394.31,-120.3 1404.31,-116.8 1394.31,-113.3 1394.31,-120.3"/>
</g>
<!-- SubmissionRepo -->
<g id="node19" class="node">
<title>SubmissionRepo</title>
<ellipse fill="#fdb462" stroke="black" cx="1113" cy="-66.8" rx="76.5" ry="18"/>
<text text-anchor="middle" x="1113" y="-62.6" font-family="Times,serif" font-size="14.00">SubmissionRepo</text>
</g>
<!-- SubmissionRepo&#45;&gt;AuthorizationModule -->
<g id="edge18" class="edge">
<title>SubmissionRepo&#45;&gt;AuthorizationModule</title>
<path fill="none" stroke="black" d="M1113,-85.04C1113,-100.37 1113,-119.8 1113,-119.8 1113,-119.8 1394.01,-119.8 1394.01,-119.8"/>
<polygon fill="black" stroke="black" points="1394.01,-123.3 1404.01,-119.8 1394.01,-116.3 1394.01,-123.3"/>
</g>
<!-- SubmissionRule -->
<g id="node20" class="node">
<title>SubmissionRule</title>
<ellipse fill="#fdb462" stroke="black" cx="944" cy="-66.8" rx="74.21" ry="18"/>
<text text-anchor="middle" x="944" y="-62.6" font-family="Times,serif" font-size="14.00">SubmissionRule</text>
</g>
<!-- SubmissionRule&#45;&gt;AuthorizationModule -->
<g id="edge19" class="edge">
<title>SubmissionRule&#45;&gt;AuthorizationModule</title>
<path fill="none" stroke="black" d="M944,-84.83C944,-101.2 944,-122.8 944,-122.8 944,-122.8 1394.11,-122.8 1394.11,-122.8"/>
<polygon fill="black" stroke="black" points="1394.11,-126.3 1404.11,-122.8 1394.11,-119.3 1394.11,-126.3"/>
</g>
<!-- TaskRepo -->
<g id="node21" class="node">
<title>TaskRepo</title>
<ellipse fill="#fdb462" stroke="black" cx="801" cy="-66.8" rx="50.39" ry="18"/>
<text text-anchor="middle" x="801" y="-62.6" font-family="Times,serif" font-size="14.00">TaskRepo</text>
</g>
<!-- TaskRepo&#45;&gt;AuthorizationModule -->
<g id="edge20" class="edge">
<title>TaskRepo&#45;&gt;AuthorizationModule</title>
<path fill="none" stroke="black" d="M801,-84.82C801,-102.17 801,-125.8 801,-125.8 801,-125.8 1394.24,-125.8 1394.24,-125.8"/>
<polygon fill="black" stroke="black" points="1394.24,-129.3 1404.24,-125.8 1394.24,-122.3 1394.24,-129.3"/>
</g>
<!-- TaskRule -->
<g id="node22" class="node">
<title>TaskRule</title>
<ellipse fill="#fdb462" stroke="black" cx="685" cy="-66.8" rx="48.09" ry="18"/>
<text text-anchor="middle" x="685" y="-62.6" font-family="Times,serif" font-size="14.00">TaskRule</text>
</g>
<!-- TaskRule&#45;&gt;AuthorizationModule -->
<g id="edge21" class="edge">
<title>TaskRule&#45;&gt;AuthorizationModule</title>
<path fill="none" stroke="black" d="M685,-85.07C685,-103.36 685,-128.8 685,-128.8 685,-128.8 1394.11,-128.8 1394.11,-128.8"/>
<polygon fill="black" stroke="black" points="1394.11,-132.3 1404.11,-128.8 1394.11,-125.3 1394.11,-132.3"/>
</g>
<!-- TeamRule -->
<g id="node23" class="node">
<title>TeamRule</title>
<ellipse fill="#fdb462" stroke="black" cx="568" cy="-66.8" rx="51.02" ry="18"/>
<text text-anchor="middle" x="568" y="-62.6" font-family="Times,serif" font-size="14.00">TeamRule</text>
</g>
<!-- TeamRule&#45;&gt;AuthorizationModule -->
<g id="edge22" class="edge">
<title>TeamRule&#45;&gt;AuthorizationModule</title>
<path fill="none" stroke="black" d="M568,-84.91C568,-104.14 568,-131.8 568,-131.8 568,-131.8 1394.24,-131.8 1394.24,-131.8"/>
<polygon fill="black" stroke="black" points="1394.24,-135.3 1404.24,-131.8 1394.24,-128.3 1394.24,-135.3"/>
</g>
<!-- TeamsRepo -->
<g id="node24" class="node">
<title>TeamsRepo</title>
<ellipse fill="#fdb462" stroke="black" cx="442" cy="-66.8" rx="57.32" ry="18"/>
<text text-anchor="middle" x="442" y="-62.6" font-family="Times,serif" font-size="14.00">TeamsRepo</text>
</g>
<!-- TeamsRepo&#45;&gt;AuthorizationModule -->
<g id="edge23" class="edge">
<title>TeamsRepo&#45;&gt;AuthorizationModule</title>
<path fill="none" stroke="black" d="M442,-85.02C442,-105.17 442,-134.8 442,-134.8 442,-134.8 1394.15,-134.8 1394.15,-134.8"/>
<polygon fill="black" stroke="black" points="1394.15,-138.3 1404.15,-134.8 1394.15,-131.3 1394.15,-138.3"/>
</g>
<!-- UserRepo -->
<g id="node25" class="node">
<title>UserRepo</title>
<ellipse fill="#fdb462" stroke="black" cx="317" cy="-66.8" rx="49.81" ry="18"/>
<text text-anchor="middle" x="317" y="-62.6" font-family="Times,serif" font-size="14.00">UserRepo</text>
</g>
<!-- UserRepo&#45;&gt;AuthorizationModule -->
<g id="edge24" class="edge">
<title>UserRepo&#45;&gt;AuthorizationModule</title>
<path fill="none" stroke="black" d="M317,-85.08C317,-106.12 317,-137.8 317,-137.8 317,-137.8 1394.15,-137.8 1394.15,-137.8"/>
<polygon fill="black" stroke="black" points="1394.15,-141.3 1404.15,-137.8 1394.15,-134.3 1394.15,-141.3"/>
</g>
<!-- UserRule -->
<g id="node26" class="node">
<title>UserRule</title>
<ellipse fill="#fdb462" stroke="black" cx="202" cy="-66.8" rx="47.52" ry="18"/>
<text text-anchor="middle" x="202" y="-62.6" font-family="Times,serif" font-size="14.00">UserRule</text>
</g>
<!-- UserRule&#45;&gt;AuthorizationModule -->
<g id="edge25" class="edge">
<title>UserRule&#45;&gt;AuthorizationModule</title>
<path fill="none" stroke="black" d="M202,-85.09C202,-107.01 202,-140.8 202,-140.8 202,-140.8 1394.21,-140.8 1394.21,-140.8"/>
<polygon fill="black" stroke="black" points="1394.21,-144.3 1404.21,-140.8 1394.21,-137.3 1394.21,-144.3"/>
</g>
</g>
</svg>
