<?xml version="1.0" encoding="UTF-8" standalone="no"?>
<!DOCTYPE svg PUBLIC "-//W3C//DTD SVG 1.1//EN"
 "http://www.w3.org/Graphics/SVG/1.1/DTD/svg11.dtd">
<!-- Generated by graphviz version 5.0.0 (20220707.1540)
 -->
<!-- Title: dependencies Pages: 1 -->
<svg width="224pt" height="174pt"
 viewBox="0.00 0.00 224.00 173.80" xmlns="http://www.w3.org/2000/svg" xmlns:xlink="http://www.w3.org/1999/xlink">
<g id="graph0" class="graph" transform="scale(1 1) rotate(0) translate(4 169.8)">
<title>dependencies</title>
<polygon fill="white" stroke="transparent" points="-4,4 -4,-169.8 220,-169.8 220,4 -4,4"/>
<text text-anchor="middle" x="108" y="-8.2" font-family="sans-serif" font-size="14.00">dependencies</text>
<g id="clust1" class="cluster">
<title>cluster_OauthProviderServiceModule</title>
<polygon fill="none" stroke="black" stroke-dasharray="1,5" points="8,-32.8 8,-157.8 208,-157.8 208,-32.8 8,-32.8"/>
</g>
<g id="clust4" class="cluster">
<title>cluster_OauthProviderServiceModule_exports</title>
<polygon fill="none" stroke="black" points="28,-97.8 28,-149.8 188,-149.8 188,-97.8 28,-97.8"/>
</g>
<!-- OauthProviderService  -->
<g id="node1" class="node">
<title>OauthProviderService </title>
<polygon fill="#fb8072" stroke="black" points="179.91,-141.8 36.09,-141.8 36.09,-105.8 179.91,-105.8 179.91,-141.8"/>
<text text-anchor="middle" x="108" y="-119.6" font-family="Times,serif" font-size="14.00">OauthProviderService </text>
</g>
<!-- OauthProviderServiceModule -->
<g id="node2" class="node">
<title>OauthProviderServiceModule</title>
<polygon fill="#8dd3c7" stroke="black" points="199.96,-76.8 196.96,-80.8 175.96,-80.8 172.96,-76.8 16.04,-76.8 16.04,-40.8 199.96,-40.8 199.96,-76.8"/>
<text text-anchor="middle" x="108" y="-54.6" font-family="Times,serif" font-size="14.00">OauthProviderServiceModule</text>
</g>
<!-- OauthProviderServiceModule&#45;&gt;OauthProviderService  -->
<g id="edge1" class="edge">
<title>OauthProviderServiceModule&#45;&gt;OauthProviderService </title>
<path fill="none" stroke="black" stroke-dasharray="5,2" d="M108,-76.91C108,-76.91 108,-95.79 108,-95.79"/>
<polygon fill="black" stroke="black" points="104.5,-95.79 108,-105.79 111.5,-95.79 104.5,-95.79"/>
</g>
</g>
</svg>
