<?xml version="1.0" encoding="UTF-8" standalone="no"?>
<!DOCTYPE svg PUBLIC "-//W3C//DTD SVG 1.1//EN"
 "http://www.w3.org/Graphics/SVG/1.1/DTD/svg11.dtd">
<!-- Generated by graphviz version 5.0.0 (20220707.1540)
 -->
<!-- Title: dependencies Pages: 1 -->
<svg width="390pt" height="247pt"
 viewBox="0.00 0.00 390.00 246.80" xmlns="http://www.w3.org/2000/svg" xmlns:xlink="http://www.w3.org/1999/xlink">
<g id="graph0" class="graph" transform="scale(1 1) rotate(0) translate(4 242.8)">
<title>dependencies</title>
<polygon fill="white" stroke="transparent" points="-4,4 -4,-242.8 386,-242.8 386,4 -4,4"/>
<text text-anchor="middle" x="191" y="-8.2" font-family="sans-serif" font-size="14.00">dependencies</text>
<g id="clust1" class="cluster">
<title>cluster_RoleModule</title>
<polygon fill="none" stroke="black" stroke-dasharray="1,5" points="8,-32.8 8,-230.8 374,-230.8 374,-32.8 8,-32.8"/>
</g>
<g id="clust6" class="cluster">
<title>cluster_RoleModule_providers</title>
<polygon fill="none" stroke="black" points="16,-40.8 16,-92.8 366,-92.8 366,-40.8 16,-40.8"/>
</g>
<g id="clust4" class="cluster">
<title>cluster_RoleModule_exports</title>
<polygon fill="none" stroke="black" points="96,-170.8 96,-222.8 280,-222.8 280,-170.8 96,-170.8"/>
</g>
<!-- RoleService  -->
<g id="node1" class="node">
<title>RoleService </title>
<polygon fill="#fb8072" stroke="black" points="271.92,-214.8 184.08,-214.8 184.08,-178.8 271.92,-178.8 271.92,-214.8"/>
<text text-anchor="middle" x="228" y="-192.6" font-family="Times,serif" font-size="14.00">RoleService </text>
</g>
<!-- RoleUc  -->
<g id="node2" class="node">
<title>RoleUc </title>
<polygon fill="#fb8072" stroke="black" points="166.27,-214.8 103.73,-214.8 103.73,-178.8 166.27,-178.8 166.27,-214.8"/>
<text text-anchor="middle" x="135" y="-192.6" font-family="Times,serif" font-size="14.00">RoleUc </text>
</g>
<!-- RoleModule -->
<g id="node3" class="node">
<title>RoleModule</title>
<polygon fill="#8dd3c7" stroke="black" points="224.99,-149.8 221.99,-153.8 200.99,-153.8 197.99,-149.8 139.01,-149.8 139.01,-113.8 224.99,-113.8 224.99,-149.8"/>
<text text-anchor="middle" x="182" y="-127.6" font-family="Times,serif" font-size="14.00">RoleModule</text>
</g>
<!-- RoleModule&#45;&gt;RoleService  -->
<g id="edge1" class="edge">
<title>RoleModule&#45;&gt;RoleService </title>
<path fill="none" stroke="black" stroke-dasharray="5,2" d="M204.52,-149.91C204.52,-149.91 204.52,-168.79 204.52,-168.79"/>
<polygon fill="black" stroke="black" points="201.02,-168.79 204.52,-178.79 208.02,-168.79 201.02,-168.79"/>
</g>
<!-- RoleModule&#45;&gt;RoleUc  -->
<g id="edge2" class="edge">
<title>RoleModule&#45;&gt;RoleUc </title>
<path fill="none" stroke="black" stroke-dasharray="5,2" d="M152.57,-149.91C152.57,-149.91 152.57,-168.79 152.57,-168.79"/>
<polygon fill="black" stroke="black" points="149.07,-168.79 152.57,-178.79 156.07,-168.79 149.07,-168.79"/>
</g>
<!-- RoleRepo -->
<g id="node4" class="node">
<title>RoleRepo</title>
<ellipse fill="#fdb462" stroke="black" cx="308" cy="-66.8" rx="49.82" ry="18"/>
<text text-anchor="middle" x="308" y="-62.6" font-family="Times,serif" font-size="14.00">RoleRepo</text>
</g>
<!-- RoleRepo&#45;&gt;RoleModule -->
<g id="edge3" class="edge">
<title>RoleRepo&#45;&gt;RoleModule</title>
<path fill="none" stroke="black" d="M265.15,-76.11C265.15,-94.09 265.15,-131.8 265.15,-131.8 265.15,-131.8 235.04,-131.8 235.04,-131.8"/>
<polygon fill="black" stroke="black" points="235.04,-128.3 225.04,-131.8 235.04,-135.3 235.04,-128.3"/>
</g>
<!-- RoleService -->
<g id="node5" class="node">
<title>RoleService</title>
<ellipse fill="#fdb462" stroke="black" cx="182" cy="-66.8" rx="58.46" ry="18"/>
<text text-anchor="middle" x="182" y="-62.6" font-family="Times,serif" font-size="14.00">RoleService</text>
</g>
<!-- RoleService&#45;&gt;RoleModule -->
<g id="edge4" class="edge">
<title>RoleService&#45;&gt;RoleModule</title>
<path fill="none" stroke="black" d="M182,-84.91C182,-84.91 182,-103.79 182,-103.79"/>
<polygon fill="black" stroke="black" points="178.5,-103.79 182,-113.79 185.5,-103.79 178.5,-103.79"/>
</g>
<!-- RoleUc -->
<g id="node6" class="node">
<title>RoleUc</title>
<ellipse fill="#fdb462" stroke="black" cx="65" cy="-66.8" rx="40.57" ry="18"/>
<text text-anchor="middle" x="65" y="-62.6" font-family="Times,serif" font-size="14.00">RoleUc</text>
</g>
<!-- RoleUc&#45;&gt;RoleModule -->
<g id="edge5" class="edge">
<title>RoleUc&#45;&gt;RoleModule</title>
<path fill="none" stroke="black" d="M64.17,-84.91C64.17,-104.14 64.17,-131.8 64.17,-131.8 64.17,-131.8 128.79,-131.8 128.79,-131.8"/>
<polygon fill="black" stroke="black" points="128.79,-135.3 138.79,-131.8 128.79,-128.3 128.79,-135.3"/>
</g>
</g>
</svg>
