<?xml version="1.0" encoding="UTF-8" standalone="no"?>
<!DOCTYPE svg PUBLIC "-//W3C//DTD SVG 1.1//EN"
 "http://www.w3.org/Graphics/SVG/1.1/DTD/svg11.dtd">
<!-- Generated by graphviz version 5.0.0 (20220707.1540)
 -->
<!-- Title: dependencies Pages: 1 -->
<svg width="1380pt" height="174pt"
 viewBox="0.00 0.00 1380.00 173.80" xmlns="http://www.w3.org/2000/svg" xmlns:xlink="http://www.w3.org/1999/xlink">
<g id="graph0" class="graph" transform="scale(1 1) rotate(0) translate(4 169.8)">
<title>dependencies</title>
<polygon fill="white" stroke="transparent" points="-4,4 -4,-169.8 1376,-169.8 1376,4 -4,4"/>
<text text-anchor="middle" x="686" y="-8.2" font-family="sans-serif" font-size="14.00">dependencies</text>
<g id="clust1" class="cluster">
<title>cluster_OauthApiModule</title>
<polygon fill="none" stroke="black" stroke-dasharray="1,5" points="8,-32.8 8,-157.8 1364,-157.8 1364,-32.8 8,-32.8"/>
</g>
<g id="clust6" class="cluster">
<title>cluster_OauthApiModule_providers</title>
<polygon fill="none" stroke="black" points="1090,-40.8 1090,-92.8 1356,-92.8 1356,-40.8 1090,-40.8"/>
</g>
<g id="clust3" class="cluster">
<title>cluster_OauthApiModule_imports</title>
<polygon fill="none" stroke="black" points="16,-40.8 16,-92.8 1082,-92.8 1082,-40.8 16,-40.8"/>
</g>
<!-- AuthorizationModule -->
<g id="node1" class="node">
<title>AuthorizationModule</title>
<polygon fill="#8dd3c7" stroke="black" points="1073.81,-84.8 1070.81,-88.8 1049.81,-88.8 1046.81,-84.8 936.19,-84.8 936.19,-48.8 1073.81,-48.8 1073.81,-84.8"/>
<text text-anchor="middle" x="1005" y="-62.6" font-family="Times,serif" font-size="14.00">AuthorizationModule</text>
</g>
<!-- OauthApiModule -->
<g id="node9" class="node">
<title>OauthApiModule</title>
<polygon fill="#8dd3c7" stroke="black" points="745.27,-149.8 742.27,-153.8 721.27,-153.8 718.27,-149.8 630.73,-149.8 630.73,-113.8 745.27,-113.8 745.27,-149.8"/>
<text text-anchor="middle" x="688" y="-127.6" font-family="Times,serif" font-size="14.00">OauthApiModule</text>
</g>
<!-- AuthorizationModule&#45;&gt;OauthApiModule -->
<g id="edge1" class="edge">
<title>AuthorizationModule&#45;&gt;OauthApiModule</title>
<path fill="none" stroke="black" d="M1005,-85.07C1005,-103.36 1005,-128.8 1005,-128.8 1005,-128.8 755.41,-128.8 755.41,-128.8"/>
<polygon fill="black" stroke="black" points="755.41,-125.3 745.41,-128.8 755.41,-132.3 755.41,-125.3"/>
</g>
<!-- LoggerModule -->
<g id="node2" class="node">
<title>LoggerModule</title>
<polygon fill="#8dd3c7" stroke="black" points="917.98,-84.8 914.98,-88.8 893.98,-88.8 890.98,-84.8 818.02,-84.8 818.02,-48.8 917.98,-48.8 917.98,-84.8"/>
<text text-anchor="middle" x="868" y="-62.6" font-family="Times,serif" font-size="14.00">LoggerModule</text>
</g>
<!-- LoggerModule&#45;&gt;OauthApiModule -->
<g id="edge2" class="edge">
<title>LoggerModule&#45;&gt;OauthApiModule</title>
<path fill="none" stroke="black" d="M868,-84.81C868,-100.85 868,-121.8 868,-121.8 868,-121.8 755.45,-121.8 755.45,-121.8"/>
<polygon fill="black" stroke="black" points="755.45,-118.3 745.45,-121.8 755.45,-125.3 755.45,-118.3"/>
</g>
<!-- OauthModule -->
<g id="node3" class="node">
<title>OauthModule</title>
<polygon fill="#8dd3c7" stroke="black" points="799.77,-84.8 796.77,-88.8 775.77,-88.8 772.77,-84.8 706.23,-84.8 706.23,-48.8 799.77,-48.8 799.77,-84.8"/>
<text text-anchor="middle" x="753" y="-62.6" font-family="Times,serif" font-size="14.00">OauthModule</text>
</g>
<!-- OauthModule&#45;&gt;OauthApiModule -->
<g id="edge3" class="edge">
<title>OauthModule&#45;&gt;OauthApiModule</title>
<path fill="none" stroke="black" d="M725.75,-84.91C725.75,-84.91 725.75,-103.79 725.75,-103.79"/>
<polygon fill="black" stroke="black" points="722.25,-103.79 725.75,-113.79 729.25,-103.79 722.25,-103.79"/>
</g>
<!-- ProvisioningModule -->
<g id="node4" class="node">
<title>ProvisioningModule</title>
<polygon fill="#8dd3c7" stroke="black" points="688.62,-84.8 685.62,-88.8 664.62,-88.8 661.62,-84.8 557.38,-84.8 557.38,-48.8 688.62,-48.8 688.62,-84.8"/>
<text text-anchor="middle" x="623" y="-62.6" font-family="Times,serif" font-size="14.00">ProvisioningModule</text>
</g>
<!-- ProvisioningModule&#45;&gt;OauthApiModule -->
<g id="edge4" class="edge">
<title>ProvisioningModule&#45;&gt;OauthApiModule</title>
<path fill="none" stroke="black" d="M659.59,-84.91C659.59,-84.91 659.59,-103.79 659.59,-103.79"/>
<polygon fill="black" stroke="black" points="656.09,-103.79 659.59,-113.79 663.09,-103.79 656.09,-103.79"/>
</g>
<!-- SchoolModule -->
<g id="node5" class="node">
<title>SchoolModule</title>
<polygon fill="#8dd3c7" stroke="black" points="539.44,-84.8 536.44,-88.8 515.44,-88.8 512.44,-84.8 440.56,-84.8 440.56,-48.8 539.44,-48.8 539.44,-84.8"/>
<text text-anchor="middle" x="490" y="-62.6" font-family="Times,serif" font-size="14.00">SchoolModule</text>
</g>
<!-- SchoolModule&#45;&gt;OauthApiModule -->
<g id="edge5" class="edge">
<title>SchoolModule&#45;&gt;OauthApiModule</title>
<path fill="none" stroke="black" d="M490,-84.81C490,-100.85 490,-121.8 490,-121.8 490,-121.8 620.73,-121.8 620.73,-121.8"/>
<polygon fill="black" stroke="black" points="620.73,-125.3 630.73,-121.8 620.73,-118.3 620.73,-125.3"/>
</g>
<!-- SystemModule -->
<g id="node6" class="node">
<title>SystemModule</title>
<polygon fill="#8dd3c7" stroke="black" points="422.28,-84.8 419.28,-88.8 398.28,-88.8 395.28,-84.8 321.72,-84.8 321.72,-48.8 422.28,-48.8 422.28,-84.8"/>
<text text-anchor="middle" x="372" y="-62.6" font-family="Times,serif" font-size="14.00">SystemModule</text>
</g>
<!-- SystemModule&#45;&gt;OauthApiModule -->
<g id="edge6" class="edge">
<title>SystemModule&#45;&gt;OauthApiModule</title>
<path fill="none" stroke="black" d="M372,-85.07C372,-103.36 372,-128.8 372,-128.8 372,-128.8 620.41,-128.8 620.41,-128.8"/>
<polygon fill="black" stroke="black" points="620.41,-132.3 630.41,-128.8 620.41,-125.3 620.41,-132.3"/>
</g>
<!-- UserLoginMigrationModule -->
<g id="node7" class="node">
<title>UserLoginMigrationModule</title>
<polygon fill="#8dd3c7" stroke="black" points="303.92,-84.8 300.92,-88.8 279.92,-88.8 276.92,-84.8 128.08,-84.8 128.08,-48.8 303.92,-48.8 303.92,-84.8"/>
<text text-anchor="middle" x="216" y="-62.6" font-family="Times,serif" font-size="14.00">UserLoginMigrationModule</text>
</g>
<!-- UserLoginMigrationModule&#45;&gt;OauthApiModule -->
<g id="edge7" class="edge">
<title>UserLoginMigrationModule&#45;&gt;OauthApiModule</title>
<path fill="none" stroke="black" d="M216,-84.93C216,-105.37 216,-135.8 216,-135.8 216,-135.8 620.6,-135.8 620.6,-135.8"/>
<polygon fill="black" stroke="black" points="620.6,-139.3 630.6,-135.8 620.6,-132.3 620.6,-139.3"/>
</g>
<!-- UserModule -->
<g id="node8" class="node">
<title>UserModule</title>
<polygon fill="#8dd3c7" stroke="black" points="109.99,-84.8 106.99,-88.8 85.99,-88.8 82.99,-84.8 24.01,-84.8 24.01,-48.8 109.99,-48.8 109.99,-84.8"/>
<text text-anchor="middle" x="67" y="-62.6" font-family="Times,serif" font-size="14.00">UserModule</text>
</g>
<!-- UserModule&#45;&gt;OauthApiModule -->
<g id="edge8" class="edge">
<title>UserModule&#45;&gt;OauthApiModule</title>
<path fill="none" stroke="black" d="M67,-84.81C67,-107.29 67,-142.8 67,-142.8 67,-142.8 620.69,-142.8 620.69,-142.8"/>
<polygon fill="black" stroke="black" points="620.69,-146.3 630.69,-142.8 620.69,-139.3 620.69,-146.3"/>
</g>
<!-- HydraOauthUc -->
<g id="node10" class="node">
<title>HydraOauthUc</title>
<ellipse fill="#fdb462" stroke="black" cx="1278" cy="-66.8" rx="70.06" ry="18"/>
<text text-anchor="middle" x="1278" y="-62.6" font-family="Times,serif" font-size="14.00">HydraOauthUc</text>
</g>
<!-- HydraOauthUc&#45;&gt;OauthApiModule -->
<g id="edge9" class="edge">
<title>HydraOauthUc&#45;&gt;OauthApiModule</title>
<path fill="none" stroke="black" d="M1278,-84.81C1278,-107.29 1278,-142.8 1278,-142.8 1278,-142.8 755.38,-142.8 755.38,-142.8"/>
<polygon fill="black" stroke="black" points="755.38,-139.3 745.38,-142.8 755.38,-146.3 755.38,-139.3"/>
</g>
<!-- OauthUc -->
<g id="node11" class="node">
<title>OauthUc</title>
<ellipse fill="#fdb462" stroke="black" cx="1144" cy="-66.8" rx="45.79" ry="18"/>
<text text-anchor="middle" x="1144" y="-62.6" font-family="Times,serif" font-size="14.00">OauthUc</text>
</g>
<!-- OauthUc&#45;&gt;OauthApiModule -->
<g id="edge10" class="edge">
<title>OauthUc&#45;&gt;OauthApiModule</title>
<path fill="none" stroke="black" d="M1144,-84.93C1144,-105.37 1144,-135.8 1144,-135.8 1144,-135.8 755.29,-135.8 755.29,-135.8"/>
<polygon fill="black" stroke="black" points="755.29,-132.3 745.29,-135.8 755.29,-139.3 755.29,-132.3"/>
</g>
</g>
</svg>
