<?xml version="1.0" encoding="UTF-8" standalone="no"?>
<!DOCTYPE svg PUBLIC "-//W3C//DTD SVG 1.1//EN"
 "http://www.w3.org/Graphics/SVG/1.1/DTD/svg11.dtd">
<!-- Generated by graphviz version 5.0.0 (20220707.1540)
 -->
<!-- Title: dependencies Pages: 1 -->
<svg width="1229pt" height="174pt"
 viewBox="0.00 0.00 1229.00 173.80" xmlns="http://www.w3.org/2000/svg" xmlns:xlink="http://www.w3.org/1999/xlink">
<g id="graph0" class="graph" transform="scale(1 1) rotate(0) translate(4 169.8)">
<title>dependencies</title>
<polygon fill="white" stroke="transparent" points="-4,4 -4,-169.8 1225,-169.8 1225,4 -4,4"/>
<text text-anchor="middle" x="610.5" y="-8.2" font-family="sans-serif" font-size="14.00">dependencies</text>
<g id="clust1" class="cluster">
<title>cluster_OauthApiModule</title>
<polygon fill="none" stroke="black" stroke-dasharray="1,5" points="8,-32.8 8,-157.8 1213,-157.8 1213,-32.8 8,-32.8"/>
</g>
<g id="clust6" class="cluster">
<title>cluster_OauthApiModule_providers</title>
<polygon fill="none" stroke="black" points="939,-40.8 939,-92.8 1205,-92.8 1205,-40.8 939,-40.8"/>
</g>
<g id="clust3" class="cluster">
<title>cluster_OauthApiModule_imports</title>
<polygon fill="none" stroke="black" points="16,-40.8 16,-92.8 931,-92.8 931,-40.8 16,-40.8"/>
</g>
<!-- AuthorizationModule -->
<g id="node1" class="node">
<title>AuthorizationModule</title>
<polygon fill="#8dd3c7" stroke="black" points="922.81,-84.8 919.81,-88.8 898.81,-88.8 895.81,-84.8 785.19,-84.8 785.19,-48.8 922.81,-48.8 922.81,-84.8"/>
<text text-anchor="middle" x="854" y="-62.6" font-family="Times,serif" font-size="14.00">AuthorizationModule</text>
</g>
<!-- OauthApiModule -->
<g id="node8" class="node">
<title>OauthApiModule</title>
<polygon fill="#8dd3c7" stroke="black" points="659.27,-149.8 656.27,-153.8 635.27,-153.8 632.27,-149.8 544.73,-149.8 544.73,-113.8 659.27,-113.8 659.27,-149.8"/>
<text text-anchor="middle" x="602" y="-127.6" font-family="Times,serif" font-size="14.00">OauthApiModule</text>
</g>
<!-- AuthorizationModule&#45;&gt;OauthApiModule -->
<g id="edge1" class="edge">
<title>AuthorizationModule&#45;&gt;OauthApiModule</title>
<path fill="none" stroke="black" d="M854,-84.83C854,-101.2 854,-122.8 854,-122.8 854,-122.8 669.5,-122.8 669.5,-122.8"/>
<polygon fill="black" stroke="black" points="669.5,-119.3 659.5,-122.8 669.5,-126.3 669.5,-119.3"/>
</g>
<!-- LoggerModule -->
<g id="node2" class="node">
<title>LoggerModule</title>
<polygon fill="#8dd3c7" stroke="black" points="766.98,-84.8 763.98,-88.8 742.98,-88.8 739.98,-84.8 667.02,-84.8 667.02,-48.8 766.98,-48.8 766.98,-84.8"/>
<text text-anchor="middle" x="717" y="-62.6" font-family="Times,serif" font-size="14.00">LoggerModule</text>
</g>
<!-- LoggerModule&#45;&gt;OauthApiModule -->
<g id="edge2" class="edge">
<title>LoggerModule&#45;&gt;OauthApiModule</title>
<path fill="none" stroke="black" d="M666.85,-66.8C659.39,-66.8 654.13,-66.8 654.13,-66.8 654.13,-66.8 654.13,-103.69 654.13,-103.69"/>
<polygon fill="black" stroke="black" points="650.63,-103.69 654.13,-113.69 657.63,-103.69 650.63,-103.69"/>
</g>
<!-- OauthModule -->
<g id="node3" class="node">
<title>OauthModule</title>
<polygon fill="#8dd3c7" stroke="black" points="648.77,-84.8 645.77,-88.8 624.77,-88.8 621.77,-84.8 555.23,-84.8 555.23,-48.8 648.77,-48.8 648.77,-84.8"/>
<text text-anchor="middle" x="602" y="-62.6" font-family="Times,serif" font-size="14.00">OauthModule</text>
</g>
<!-- OauthModule&#45;&gt;OauthApiModule -->
<g id="edge3" class="edge">
<title>OauthModule&#45;&gt;OauthApiModule</title>
<path fill="none" stroke="black" d="M602,-84.91C602,-84.91 602,-103.79 602,-103.79"/>
<polygon fill="black" stroke="black" points="598.5,-103.79 602,-113.79 605.5,-103.79 598.5,-103.79"/>
</g>
<!-- ProvisioningModule -->
<g id="node4" class="node">
<title>ProvisioningModule</title>
<polygon fill="#8dd3c7" stroke="black" points="537.62,-84.8 534.62,-88.8 513.62,-88.8 510.62,-84.8 406.38,-84.8 406.38,-48.8 537.62,-48.8 537.62,-84.8"/>
<text text-anchor="middle" x="472" y="-62.6" font-family="Times,serif" font-size="14.00">ProvisioningModule</text>
</g>
<!-- ProvisioningModule&#45;&gt;OauthApiModule -->
<g id="edge4" class="edge">
<title>ProvisioningModule&#45;&gt;OauthApiModule</title>
<path fill="none" stroke="black" d="M537.7,-66.8C545,-66.8 549.87,-66.8 549.87,-66.8 549.87,-66.8 549.87,-103.69 549.87,-103.69"/>
<polygon fill="black" stroke="black" points="546.37,-103.69 549.87,-113.69 553.37,-103.69 546.37,-103.69"/>
</g>
<!-- SystemModule -->
<g id="node5" class="node">
<title>SystemModule</title>
<polygon fill="#8dd3c7" stroke="black" points="388.28,-84.8 385.28,-88.8 364.28,-88.8 361.28,-84.8 287.72,-84.8 287.72,-48.8 388.28,-48.8 388.28,-84.8"/>
<text text-anchor="middle" x="338" y="-62.6" font-family="Times,serif" font-size="14.00">SystemModule</text>
</g>
<!-- SystemModule&#45;&gt;OauthApiModule -->
<g id="edge5" class="edge">
<title>SystemModule&#45;&gt;OauthApiModule</title>
<path fill="none" stroke="black" d="M338,-84.83C338,-101.2 338,-122.8 338,-122.8 338,-122.8 534.72,-122.8 534.72,-122.8"/>
<polygon fill="black" stroke="black" points="534.72,-126.3 544.72,-122.8 534.72,-119.3 534.72,-126.3"/>
</g>
<!-- UserMigrationModule -->
<g id="node6" class="node">
<title>UserMigrationModule</title>
<polygon fill="#8dd3c7" stroke="black" points="269.98,-84.8 266.98,-88.8 245.98,-88.8 242.98,-84.8 128.02,-84.8 128.02,-48.8 269.98,-48.8 269.98,-84.8"/>
<text text-anchor="middle" x="199" y="-62.6" font-family="Times,serif" font-size="14.00">UserMigrationModule</text>
</g>
<!-- UserMigrationModule&#45;&gt;OauthApiModule -->
<g id="edge6" class="edge">
<title>UserMigrationModule&#45;&gt;OauthApiModule</title>
<path fill="none" stroke="black" d="M199,-84.91C199,-104.14 199,-131.8 199,-131.8 199,-131.8 534.69,-131.8 534.69,-131.8"/>
<polygon fill="black" stroke="black" points="534.69,-135.3 544.69,-131.8 534.69,-128.3 534.69,-135.3"/>
</g>
<!-- UserModule -->
<g id="node7" class="node">
<title>UserModule</title>
<polygon fill="#8dd3c7" stroke="black" points="109.99,-84.8 106.99,-88.8 85.99,-88.8 82.99,-84.8 24.01,-84.8 24.01,-48.8 109.99,-48.8 109.99,-84.8"/>
<text text-anchor="middle" x="67" y="-62.6" font-family="Times,serif" font-size="14.00">UserModule</text>
</g>
<!-- UserModule&#45;&gt;OauthApiModule -->
<g id="edge7" class="edge">
<title>UserModule&#45;&gt;OauthApiModule</title>
<path fill="none" stroke="black" d="M67,-85.09C67,-107.01 67,-140.8 67,-140.8 67,-140.8 534.49,-140.8 534.49,-140.8"/>
<polygon fill="black" stroke="black" points="534.49,-144.3 544.49,-140.8 534.49,-137.3 534.49,-144.3"/>
</g>
<!-- HydraOauthUc -->
<g id="node9" class="node">
<title>HydraOauthUc</title>
<ellipse fill="#fdb462" stroke="black" cx="1127" cy="-66.8" rx="70.06" ry="18"/>
<text text-anchor="middle" x="1127" y="-62.6" font-family="Times,serif" font-size="14.00">HydraOauthUc</text>
</g>
<!-- HydraOauthUc&#45;&gt;OauthApiModule -->
<g id="edge8" class="edge">
<title>HydraOauthUc&#45;&gt;OauthApiModule</title>
<path fill="none" stroke="black" d="M1127,-85.09C1127,-107.01 1127,-140.8 1127,-140.8 1127,-140.8 669.43,-140.8 669.43,-140.8"/>
<polygon fill="black" stroke="black" points="669.43,-137.3 659.43,-140.8 669.43,-144.3 669.43,-137.3"/>
</g>
<!-- OauthUc -->
<g id="node10" class="node">
<title>OauthUc</title>
<ellipse fill="#fdb462" stroke="black" cx="993" cy="-66.8" rx="45.79" ry="18"/>
<text text-anchor="middle" x="993" y="-62.6" font-family="Times,serif" font-size="14.00">OauthUc</text>
</g>
<!-- OauthUc&#45;&gt;OauthApiModule -->
<g id="edge9" class="edge">
<title>OauthUc&#45;&gt;OauthApiModule</title>
<path fill="none" stroke="black" d="M993,-84.91C993,-104.14 993,-131.8 993,-131.8 993,-131.8 669.27,-131.8 669.27,-131.8"/>
<polygon fill="black" stroke="black" points="669.27,-128.3 659.27,-131.8 669.27,-135.3 669.27,-128.3"/>
</g>
</g>
</svg>
