<?xml version="1.0" encoding="UTF-8" standalone="no"?>
<!DOCTYPE svg PUBLIC "-//W3C//DTD SVG 1.1//EN"
 "http://www.w3.org/Graphics/SVG/1.1/DTD/svg11.dtd">
<!-- Generated by graphviz version 5.0.0 (20220707.1540)
 -->
<!-- Title: dependencies Pages: 1 -->
<svg width="1073pt" height="174pt"
 viewBox="0.00 0.00 1073.00 173.80" xmlns="http://www.w3.org/2000/svg" xmlns:xlink="http://www.w3.org/1999/xlink">
<g id="graph0" class="graph" transform="scale(1 1) rotate(0) translate(4 169.8)">
<title>dependencies</title>
<polygon fill="white" stroke="transparent" points="-4,4 -4,-169.8 1069,-169.8 1069,4 -4,4"/>
<text text-anchor="middle" x="532.5" y="-8.2" font-family="sans-serif" font-size="14.00">dependencies</text>
<g id="clust1" class="cluster">
<title>cluster_OauthApiModule</title>
<polygon fill="none" stroke="black" stroke-dasharray="1,5" points="8,-32.8 8,-157.8 1057,-157.8 1057,-32.8 8,-32.8"/>
</g>
<g id="clust6" class="cluster">
<title>cluster_OauthApiModule_providers</title>
<polygon fill="none" stroke="black" points="783,-40.8 783,-92.8 1049,-92.8 1049,-40.8 783,-40.8"/>
</g>
<g id="clust3" class="cluster">
<title>cluster_OauthApiModule_imports</title>
<polygon fill="none" stroke="black" points="16,-40.8 16,-92.8 775,-92.8 775,-40.8 16,-40.8"/>
</g>
<!-- LoggerModule -->
<g id="node1" class="node">
<title>LoggerModule</title>
<polygon fill="#8dd3c7" stroke="black" points="766.98,-84.8 763.98,-88.8 742.98,-88.8 739.98,-84.8 667.02,-84.8 667.02,-48.8 766.98,-48.8 766.98,-84.8"/>
<text text-anchor="middle" x="717" y="-62.6" font-family="Times,serif" font-size="14.00">LoggerModule</text>
</g>
<!-- OauthApiModule -->
<g id="node7" class="node">
<title>OauthApiModule</title>
<polygon fill="#8dd3c7" stroke="black" points="594.27,-149.8 591.27,-153.8 570.27,-153.8 567.27,-149.8 479.73,-149.8 479.73,-113.8 594.27,-113.8 594.27,-149.8"/>
<text text-anchor="middle" x="537" y="-127.6" font-family="Times,serif" font-size="14.00">OauthApiModule</text>
</g>
<!-- LoggerModule&#45;&gt;OauthApiModule -->
<g id="edge1" class="edge">
<title>LoggerModule&#45;&gt;OauthApiModule</title>
<path fill="none" stroke="black" d="M717,-84.83C717,-101.2 717,-122.8 717,-122.8 717,-122.8 604.45,-122.8 604.45,-122.8"/>
<polygon fill="black" stroke="black" points="604.45,-119.3 594.45,-122.8 604.45,-126.3 604.45,-119.3"/>
</g>
<!-- OauthModule -->
<g id="node2" class="node">
<title>OauthModule</title>
<polygon fill="#8dd3c7" stroke="black" points="648.77,-84.8 645.77,-88.8 624.77,-88.8 621.77,-84.8 555.23,-84.8 555.23,-48.8 648.77,-48.8 648.77,-84.8"/>
<text text-anchor="middle" x="602" y="-62.6" font-family="Times,serif" font-size="14.00">OauthModule</text>
</g>
<!-- OauthModule&#45;&gt;OauthApiModule -->
<g id="edge2" class="edge">
<title>OauthModule&#45;&gt;OauthApiModule</title>
<path fill="none" stroke="black" d="M574.75,-84.91C574.75,-84.91 574.75,-103.79 574.75,-103.79"/>
<polygon fill="black" stroke="black" points="571.25,-103.79 574.75,-113.79 578.25,-103.79 571.25,-103.79"/>
</g>
<!-- ProvisioningModule -->
<g id="node3" class="node">
<title>ProvisioningModule</title>
<polygon fill="#8dd3c7" stroke="black" points="537.62,-84.8 534.62,-88.8 513.62,-88.8 510.62,-84.8 406.38,-84.8 406.38,-48.8 537.62,-48.8 537.62,-84.8"/>
<text text-anchor="middle" x="472" y="-62.6" font-family="Times,serif" font-size="14.00">ProvisioningModule</text>
</g>
<!-- ProvisioningModule&#45;&gt;OauthApiModule -->
<g id="edge3" class="edge">
<title>ProvisioningModule&#45;&gt;OauthApiModule</title>
<path fill="none" stroke="black" d="M508.59,-84.91C508.59,-84.91 508.59,-103.79 508.59,-103.79"/>
<polygon fill="black" stroke="black" points="505.09,-103.79 508.59,-113.79 512.09,-103.79 505.09,-103.79"/>
</g>
<!-- SystemModule -->
<g id="node4" class="node">
<title>SystemModule</title>
<polygon fill="#8dd3c7" stroke="black" points="388.28,-84.8 385.28,-88.8 364.28,-88.8 361.28,-84.8 287.72,-84.8 287.72,-48.8 388.28,-48.8 388.28,-84.8"/>
<text text-anchor="middle" x="338" y="-62.6" font-family="Times,serif" font-size="14.00">SystemModule</text>
</g>
<!-- SystemModule&#45;&gt;OauthApiModule -->
<g id="edge4" class="edge">
<title>SystemModule&#45;&gt;OauthApiModule</title>
<path fill="none" stroke="black" d="M338,-84.83C338,-101.2 338,-122.8 338,-122.8 338,-122.8 469.71,-122.8 469.71,-122.8"/>
<polygon fill="black" stroke="black" points="469.71,-126.3 479.71,-122.8 469.71,-119.3 469.71,-126.3"/>
</g>
<!-- UserMigrationModule -->
<g id="node5" class="node">
<title>UserMigrationModule</title>
<polygon fill="#8dd3c7" stroke="black" points="269.98,-84.8 266.98,-88.8 245.98,-88.8 242.98,-84.8 128.02,-84.8 128.02,-48.8 269.98,-48.8 269.98,-84.8"/>
<text text-anchor="middle" x="199" y="-62.6" font-family="Times,serif" font-size="14.00">UserMigrationModule</text>
</g>
<!-- UserMigrationModule&#45;&gt;OauthApiModule -->
<g id="edge5" class="edge">
<title>UserMigrationModule&#45;&gt;OauthApiModule</title>
<path fill="none" stroke="black" d="M199,-84.91C199,-104.14 199,-131.8 199,-131.8 199,-131.8 469.66,-131.8 469.66,-131.8"/>
<polygon fill="black" stroke="black" points="469.66,-135.3 479.66,-131.8 469.66,-128.3 469.66,-135.3"/>
</g>
<!-- UserModule -->
<g id="node6" class="node">
<title>UserModule</title>
<polygon fill="#8dd3c7" stroke="black" points="109.99,-84.8 106.99,-88.8 85.99,-88.8 82.99,-84.8 24.01,-84.8 24.01,-48.8 109.99,-48.8 109.99,-84.8"/>
<text text-anchor="middle" x="67" y="-62.6" font-family="Times,serif" font-size="14.00">UserModule</text>
</g>
<!-- UserModule&#45;&gt;OauthApiModule -->
<g id="edge6" class="edge">
<title>UserModule&#45;&gt;OauthApiModule</title>
<path fill="none" stroke="black" d="M67,-85.09C67,-107.01 67,-140.8 67,-140.8 67,-140.8 469.37,-140.8 469.37,-140.8"/>
<polygon fill="black" stroke="black" points="469.37,-144.3 479.37,-140.8 469.37,-137.3 469.37,-144.3"/>
</g>
<!-- HydraOauthUc -->
<g id="node8" class="node">
<title>HydraOauthUc</title>
<ellipse fill="#fdb462" stroke="black" cx="971" cy="-66.8" rx="70.06" ry="18"/>
<text text-anchor="middle" x="971" y="-62.6" font-family="Times,serif" font-size="14.00">HydraOauthUc</text>
</g>
<!-- HydraOauthUc&#45;&gt;OauthApiModule -->
<g id="edge7" class="edge">
<title>HydraOauthUc&#45;&gt;OauthApiModule</title>
<path fill="none" stroke="black" d="M971,-85.09C971,-107.01 971,-140.8 971,-140.8 971,-140.8 604.63,-140.8 604.63,-140.8"/>
<polygon fill="black" stroke="black" points="604.63,-137.3 594.63,-140.8 604.63,-144.3 604.63,-137.3"/>
</g>
<!-- OauthUc -->
<g id="node9" class="node">
<title>OauthUc</title>
<ellipse fill="#fdb462" stroke="black" cx="837" cy="-66.8" rx="45.79" ry="18"/>
<text text-anchor="middle" x="837" y="-62.6" font-family="Times,serif" font-size="14.00">OauthUc</text>
</g>
<!-- OauthUc&#45;&gt;OauthApiModule -->
<g id="edge8" class="edge">
<title>OauthUc&#45;&gt;OauthApiModule</title>
<path fill="none" stroke="black" d="M837,-84.91C837,-104.14 837,-131.8 837,-131.8 837,-131.8 604.49,-131.8 604.49,-131.8"/>
<polygon fill="black" stroke="black" points="604.49,-128.3 594.49,-131.8 604.49,-135.3 604.49,-128.3"/>
</g>
</g>
</svg>
