<?xml version="1.0" encoding="UTF-8" standalone="no"?>
<!DOCTYPE svg PUBLIC "-//W3C//DTD SVG 1.1//EN"
 "http://www.w3.org/Graphics/SVG/1.1/DTD/svg11.dtd">
<!-- Generated by graphviz version 5.0.0 (20220707.1540)
 -->
<!-- Title: dependencies Pages: 1 -->
<svg width="1073pt" height="174pt"
 viewBox="0.00 0.00 1073.00 173.80" xmlns="http://www.w3.org/2000/svg" xmlns:xlink="http://www.w3.org/1999/xlink">
<g id="graph0" class="graph" transform="scale(1 1) rotate(0) translate(4 169.8)">
<title>dependencies</title>
<polygon fill="white" stroke="transparent" points="-4,4 -4,-169.8 1069,-169.8 1069,4 -4,4"/>
<text text-anchor="middle" x="532.5" y="-8.2" font-family="sans-serif" font-size="14.00">dependencies</text>
<g id="clust1" class="cluster">
<title>cluster_OauthApiModule</title>
<polygon fill="none" stroke="black" stroke-dasharray="1,5" points="8,-32.8 8,-157.8 1057,-157.8 1057,-32.8 8,-32.8"/>
</g>
<g id="clust3" class="cluster">
<title>cluster_OauthApiModule_imports</title>
<polygon fill="none" stroke="black" points="290,-40.8 290,-92.8 1049,-92.8 1049,-40.8 290,-40.8"/>
</g>
<g id="clust6" class="cluster">
<title>cluster_OauthApiModule_providers</title>
<polygon fill="none" stroke="black" points="16,-40.8 16,-92.8 282,-92.8 282,-40.8 16,-40.8"/>
</g>
<!-- LoggerModule -->
<g id="node1" class="node">
<title>LoggerModule</title>
<polygon fill="#8dd3c7" stroke="black" points="1040.98,-84.8 1037.98,-88.8 1016.98,-88.8 1013.98,-84.8 941.02,-84.8 941.02,-48.8 1040.98,-48.8 1040.98,-84.8"/>
<text text-anchor="middle" x="991" y="-62.6" font-family="Times,serif" font-size="14.00">LoggerModule</text>
</g>
<!-- OauthApiModule -->
<g id="node7" class="node">
<title>OauthApiModule</title>
<polygon fill="#8dd3c7" stroke="black" points="599.27,-149.8 596.27,-153.8 575.27,-153.8 572.27,-149.8 484.73,-149.8 484.73,-113.8 599.27,-113.8 599.27,-149.8"/>
<text text-anchor="middle" x="542" y="-127.6" font-family="Times,serif" font-size="14.00">OauthApiModule</text>
</g>
<!-- LoggerModule&#45;&gt;OauthApiModule -->
<g id="edge1" class="edge">
<title>LoggerModule&#45;&gt;OauthApiModule</title>
<path fill="none" stroke="black" d="M991,-85.09C991,-107.01 991,-140.8 991,-140.8 991,-140.8 609.32,-140.8 609.32,-140.8"/>
<polygon fill="black" stroke="black" points="609.32,-137.3 599.32,-140.8 609.32,-144.3 609.32,-137.3"/>
</g>
<!-- OauthModule -->
<g id="node2" class="node">
<title>OauthModule</title>
<polygon fill="#8dd3c7" stroke="black" points="922.77,-84.8 919.77,-88.8 898.77,-88.8 895.77,-84.8 829.23,-84.8 829.23,-48.8 922.77,-48.8 922.77,-84.8"/>
<text text-anchor="middle" x="876" y="-62.6" font-family="Times,serif" font-size="14.00">OauthModule</text>
</g>
<!-- OauthModule&#45;&gt;OauthApiModule -->
<g id="edge2" class="edge">
<title>OauthModule&#45;&gt;OauthApiModule</title>
<path fill="none" stroke="black" d="M876,-84.91C876,-104.14 876,-131.8 876,-131.8 876,-131.8 609.42,-131.8 609.42,-131.8"/>
<polygon fill="black" stroke="black" points="609.42,-128.3 599.42,-131.8 609.42,-135.3 609.42,-128.3"/>
</g>
<!-- ProvisioningModule -->
<g id="node3" class="node">
<title>ProvisioningModule</title>
<polygon fill="#8dd3c7" stroke="black" points="811.62,-84.8 808.62,-88.8 787.62,-88.8 784.62,-84.8 680.38,-84.8 680.38,-48.8 811.62,-48.8 811.62,-84.8"/>
<text text-anchor="middle" x="746" y="-62.6" font-family="Times,serif" font-size="14.00">ProvisioningModule</text>
</g>
<!-- ProvisioningModule&#45;&gt;OauthApiModule -->
<g id="edge3" class="edge">
<title>ProvisioningModule&#45;&gt;OauthApiModule</title>
<path fill="none" stroke="black" d="M746,-84.83C746,-101.2 746,-122.8 746,-122.8 746,-122.8 609.37,-122.8 609.37,-122.8"/>
<polygon fill="black" stroke="black" points="609.37,-119.3 599.37,-122.8 609.37,-126.3 609.37,-119.3"/>
</g>
<!-- SystemModule -->
<g id="node4" class="node">
<title>SystemModule</title>
<polygon fill="#8dd3c7" stroke="black" points="662.28,-84.8 659.28,-88.8 638.28,-88.8 635.28,-84.8 561.72,-84.8 561.72,-48.8 662.28,-48.8 662.28,-84.8"/>
<text text-anchor="middle" x="612" y="-62.6" font-family="Times,serif" font-size="14.00">SystemModule</text>
</g>
<!-- SystemModule&#45;&gt;OauthApiModule -->
<g id="edge4" class="edge">
<title>SystemModule&#45;&gt;OauthApiModule</title>
<path fill="none" stroke="black" d="M580.5,-84.91C580.5,-84.91 580.5,-103.79 580.5,-103.79"/>
<polygon fill="black" stroke="black" points="577,-103.79 580.5,-113.79 584,-103.79 577,-103.79"/>
</g>
<!-- UserMigrationModule -->
<g id="node5" class="node">
<title>UserMigrationModule</title>
<polygon fill="#8dd3c7" stroke="black" points="543.98,-84.8 540.98,-88.8 519.98,-88.8 516.98,-84.8 402.02,-84.8 402.02,-48.8 543.98,-48.8 543.98,-84.8"/>
<text text-anchor="middle" x="473" y="-62.6" font-family="Times,serif" font-size="14.00">UserMigrationModule</text>
</g>
<!-- UserMigrationModule&#45;&gt;OauthApiModule -->
<g id="edge5" class="edge">
<title>UserMigrationModule&#45;&gt;OauthApiModule</title>
<path fill="none" stroke="black" d="M514.3,-84.91C514.3,-84.91 514.3,-103.79 514.3,-103.79"/>
<polygon fill="black" stroke="black" points="510.8,-103.79 514.3,-113.79 517.8,-103.79 510.8,-103.79"/>
</g>
<!-- UserModule -->
<g id="node6" class="node">
<title>UserModule</title>
<polygon fill="#8dd3c7" stroke="black" points="383.99,-84.8 380.99,-88.8 359.99,-88.8 356.99,-84.8 298.01,-84.8 298.01,-48.8 383.99,-48.8 383.99,-84.8"/>
<text text-anchor="middle" x="341" y="-62.6" font-family="Times,serif" font-size="14.00">UserModule</text>
</g>
<!-- UserModule&#45;&gt;OauthApiModule -->
<g id="edge6" class="edge">
<title>UserModule&#45;&gt;OauthApiModule</title>
<path fill="none" stroke="black" d="M341,-84.83C341,-101.2 341,-122.8 341,-122.8 341,-122.8 474.67,-122.8 474.67,-122.8"/>
<polygon fill="black" stroke="black" points="474.67,-126.3 484.67,-122.8 474.67,-119.3 474.67,-126.3"/>
</g>
<!-- HydraOauthUc -->
<g id="node8" class="node">
<title>HydraOauthUc</title>
<ellipse fill="#fdb462" stroke="black" cx="204" cy="-66.8" rx="70.06" ry="18"/>
<text text-anchor="middle" x="204" y="-62.6" font-family="Times,serif" font-size="14.00">HydraOauthUc</text>
</g>
<!-- HydraOauthUc&#45;&gt;OauthApiModule -->
<g id="edge7" class="edge">
<title>HydraOauthUc&#45;&gt;OauthApiModule</title>
<path fill="none" stroke="black" d="M204,-84.91C204,-104.14 204,-131.8 204,-131.8 204,-131.8 474.66,-131.8 474.66,-131.8"/>
<polygon fill="black" stroke="black" points="474.66,-135.3 484.66,-131.8 474.66,-128.3 474.66,-135.3"/>
</g>
<!-- OauthUc -->
<g id="node9" class="node">
<title>OauthUc</title>
<ellipse fill="#fdb462" stroke="black" cx="70" cy="-66.8" rx="45.79" ry="18"/>
<text text-anchor="middle" x="70" y="-62.6" font-family="Times,serif" font-size="14.00">OauthUc</text>
</g>
<!-- OauthUc&#45;&gt;OauthApiModule -->
<g id="edge8" class="edge">
<title>OauthUc&#45;&gt;OauthApiModule</title>
<path fill="none" stroke="black" d="M70,-85.09C70,-107.01 70,-140.8 70,-140.8 70,-140.8 474.6,-140.8 474.6,-140.8"/>
<polygon fill="black" stroke="black" points="474.6,-144.3 484.6,-140.8 474.6,-137.3 474.6,-144.3"/>
</g>
</g>
</svg>
