<?xml version="1.0" encoding="UTF-8" standalone="no"?>
<!DOCTYPE svg PUBLIC "-//W3C//DTD SVG 1.1//EN"
 "http://www.w3.org/Graphics/SVG/1.1/DTD/svg11.dtd">
<!-- Generated by graphviz version 5.0.0 (20220707.1540)
 -->
<!-- Title: dependencies Pages: 1 -->
<svg width="550pt" height="174pt"
 viewBox="0.00 0.00 550.00 173.80" xmlns="http://www.w3.org/2000/svg" xmlns:xlink="http://www.w3.org/1999/xlink">
<g id="graph0" class="graph" transform="scale(1 1) rotate(0) translate(4 169.8)">
<title>dependencies</title>
<polygon fill="white" stroke="transparent" points="-4,4 -4,-169.8 546,-169.8 546,4 -4,4"/>
<text text-anchor="middle" x="271" y="-8.2" font-family="sans-serif" font-size="14.00">dependencies</text>
<g id="clust1" class="cluster">
<title>cluster_SchoolApiModule</title>
<polygon fill="none" stroke="black" stroke-dasharray="1,5" points="8,-32.8 8,-157.8 534,-157.8 534,-32.8 8,-32.8"/>
</g>
<g id="clust3" class="cluster">
<title>cluster_SchoolApiModule_imports</title>
<polygon fill="none" stroke="black" points="138,-40.8 138,-92.8 526,-92.8 526,-40.8 138,-40.8"/>
</g>
<g id="clust6" class="cluster">
<title>cluster_SchoolApiModule_providers</title>
<polygon fill="none" stroke="black" points="16,-40.8 16,-92.8 130,-92.8 130,-40.8 16,-40.8"/>
</g>
<!-- AuthorizationModule -->
<g id="node1" class="node">
<title>AuthorizationModule</title>
<polygon fill="#8dd3c7" stroke="black" points="517.81,-84.8 514.81,-88.8 493.81,-88.8 490.81,-84.8 380.19,-84.8 380.19,-48.8 517.81,-48.8 517.81,-84.8"/>
<text text-anchor="middle" x="449" y="-62.6" font-family="Times,serif" font-size="14.00">AuthorizationModule</text>
</g>
<!-- SchoolApiModule -->
<g id="node4" class="node">
<title>SchoolApiModule</title>
<polygon fill="#8dd3c7" stroke="black" points="312.94,-149.8 309.94,-153.8 288.94,-153.8 285.94,-149.8 193.06,-149.8 193.06,-113.8 312.94,-113.8 312.94,-149.8"/>
<text text-anchor="middle" x="253" y="-127.6" font-family="Times,serif" font-size="14.00">SchoolApiModule</text>
</g>
<!-- AuthorizationModule&#45;&gt;SchoolApiModule -->
<g id="edge1" class="edge">
<title>AuthorizationModule&#45;&gt;SchoolApiModule</title>
<path fill="none" stroke="black" d="M449,-84.91C449,-104.14 449,-131.8 449,-131.8 449,-131.8 322.87,-131.8 322.87,-131.8"/>
<polygon fill="black" stroke="black" points="322.87,-128.3 312.87,-131.8 322.87,-135.3 322.87,-128.3"/>
</g>
<!-- LoggerModule -->
<g id="node2" class="node">
<title>LoggerModule</title>
<polygon fill="#8dd3c7" stroke="black" points="361.98,-84.8 358.98,-88.8 337.98,-88.8 334.98,-84.8 262.02,-84.8 262.02,-48.8 361.98,-48.8 361.98,-84.8"/>
<text text-anchor="middle" x="312" y="-62.6" font-family="Times,serif" font-size="14.00">LoggerModule</text>
</g>
<!-- LoggerModule&#45;&gt;SchoolApiModule -->
<g id="edge2" class="edge">
<title>LoggerModule&#45;&gt;SchoolApiModule</title>
<path fill="none" stroke="black" d="M287.37,-84.91C287.37,-84.91 287.37,-103.79 287.37,-103.79"/>
<polygon fill="black" stroke="black" points="283.87,-103.79 287.37,-113.79 290.87,-103.79 283.87,-103.79"/>
</g>
<!-- SchoolModule -->
<g id="node3" class="node">
<title>SchoolModule</title>
<polygon fill="#8dd3c7" stroke="black" points="244.44,-84.8 241.44,-88.8 220.44,-88.8 217.44,-84.8 145.56,-84.8 145.56,-48.8 244.44,-48.8 244.44,-84.8"/>
<text text-anchor="middle" x="195" y="-62.6" font-family="Times,serif" font-size="14.00">SchoolModule</text>
</g>
<!-- SchoolModule&#45;&gt;SchoolApiModule -->
<g id="edge3" class="edge">
<title>SchoolModule&#45;&gt;SchoolApiModule</title>
<path fill="none" stroke="black" d="M218.75,-84.91C218.75,-84.91 218.75,-103.79 218.75,-103.79"/>
<polygon fill="black" stroke="black" points="215.25,-103.79 218.75,-113.79 222.25,-103.79 215.25,-103.79"/>
</g>
<!-- SchoolUc -->
<g id="node5" class="node">
<title>SchoolUc</title>
<ellipse fill="#fdb462" stroke="black" cx="73" cy="-66.8" rx="49.24" ry="18"/>
<text text-anchor="middle" x="73" y="-62.6" font-family="Times,serif" font-size="14.00">SchoolUc</text>
</g>
<!-- SchoolUc&#45;&gt;SchoolApiModule -->
<g id="edge4" class="edge">
<title>SchoolUc&#45;&gt;SchoolApiModule</title>
<path fill="none" stroke="black" d="M73,-84.91C73,-104.14 73,-131.8 73,-131.8 73,-131.8 183.06,-131.8 183.06,-131.8"/>
<polygon fill="black" stroke="black" points="183.06,-135.3 193.06,-131.8 183.06,-128.3 183.06,-135.3"/>
</g>
</g>
</svg>
