<?xml version="1.0" encoding="UTF-8" standalone="no"?>
<!DOCTYPE svg PUBLIC "-//W3C//DTD SVG 1.1//EN"
 "http://www.w3.org/Graphics/SVG/1.1/DTD/svg11.dtd">
<!-- Generated by graphviz version 5.0.0 (20220707.1540)
 -->
<!-- Title: dependencies Pages: 1 -->
<svg width="550pt" height="174pt"
 viewBox="0.00 0.00 550.00 173.80" xmlns="http://www.w3.org/2000/svg" xmlns:xlink="http://www.w3.org/1999/xlink">
<g id="graph0" class="graph" transform="scale(1 1) rotate(0) translate(4 169.8)">
<title>dependencies</title>
<polygon fill="white" stroke="transparent" points="-4,4 -4,-169.8 546,-169.8 546,4 -4,4"/>
<text text-anchor="middle" x="271" y="-8.2" font-family="sans-serif" font-size="14.00">dependencies</text>
<g id="clust1" class="cluster">
<title>cluster_SchoolApiModule</title>
<polygon fill="none" stroke="black" stroke-dasharray="1,5" points="8,-32.8 8,-157.8 534,-157.8 534,-32.8 8,-32.8"/>
</g>
<g id="clust6" class="cluster">
<title>cluster_SchoolApiModule_providers</title>
<polygon fill="none" stroke="black" points="412,-40.8 412,-92.8 526,-92.8 526,-40.8 412,-40.8"/>
</g>
<g id="clust3" class="cluster">
<title>cluster_SchoolApiModule_imports</title>
<polygon fill="none" stroke="black" points="16,-40.8 16,-92.8 404,-92.8 404,-40.8 16,-40.8"/>
</g>
<!-- AuthorizationModule -->
<g id="node1" class="node">
<title>AuthorizationModule</title>
<polygon fill="#8dd3c7" stroke="black" points="395.81,-84.8 392.81,-88.8 371.81,-88.8 368.81,-84.8 258.19,-84.8 258.19,-48.8 395.81,-48.8 395.81,-84.8"/>
<text text-anchor="middle" x="327" y="-62.6" font-family="Times,serif" font-size="14.00">AuthorizationModule</text>
</g>
<!-- SchoolApiModule -->
<g id="node4" class="node">
<title>SchoolApiModule</title>
<polygon fill="#8dd3c7" stroke="black" points="317.94,-149.8 314.94,-153.8 293.94,-153.8 290.94,-149.8 198.06,-149.8 198.06,-113.8 317.94,-113.8 317.94,-149.8"/>
<text text-anchor="middle" x="258" y="-127.6" font-family="Times,serif" font-size="14.00">SchoolApiModule</text>
</g>
<!-- AuthorizationModule&#45;&gt;SchoolApiModule -->
<g id="edge1" class="edge">
<title>AuthorizationModule&#45;&gt;SchoolApiModule</title>
<path fill="none" stroke="black" d="M288.03,-84.91C288.03,-84.91 288.03,-103.79 288.03,-103.79"/>
<polygon fill="black" stroke="black" points="284.53,-103.79 288.03,-113.79 291.53,-103.79 284.53,-103.79"/>
</g>
<!-- LoggerModule -->
<g id="node2" class="node">
<title>LoggerModule</title>
<polygon fill="#8dd3c7" stroke="black" points="239.98,-84.8 236.98,-88.8 215.98,-88.8 212.98,-84.8 140.02,-84.8 140.02,-48.8 239.98,-48.8 239.98,-84.8"/>
<text text-anchor="middle" x="190" y="-62.6" font-family="Times,serif" font-size="14.00">LoggerModule</text>
</g>
<!-- LoggerModule&#45;&gt;SchoolApiModule -->
<g id="edge2" class="edge">
<title>LoggerModule&#45;&gt;SchoolApiModule</title>
<path fill="none" stroke="black" d="M219.13,-84.91C219.13,-84.91 219.13,-103.79 219.13,-103.79"/>
<polygon fill="black" stroke="black" points="215.63,-103.79 219.13,-113.79 222.63,-103.79 215.63,-103.79"/>
</g>
<!-- SchoolModule -->
<g id="node3" class="node">
<title>SchoolModule</title>
<polygon fill="#8dd3c7" stroke="black" points="122.44,-84.8 119.44,-88.8 98.44,-88.8 95.44,-84.8 23.56,-84.8 23.56,-48.8 122.44,-48.8 122.44,-84.8"/>
<text text-anchor="middle" x="73" y="-62.6" font-family="Times,serif" font-size="14.00">SchoolModule</text>
</g>
<!-- SchoolModule&#45;&gt;SchoolApiModule -->
<g id="edge3" class="edge">
<title>SchoolModule&#45;&gt;SchoolApiModule</title>
<path fill="none" stroke="black" d="M73,-84.91C73,-104.14 73,-131.8 73,-131.8 73,-131.8 188.19,-131.8 188.19,-131.8"/>
<polygon fill="black" stroke="black" points="188.19,-135.3 198.19,-131.8 188.19,-128.3 188.19,-135.3"/>
</g>
<!-- SchoolUc -->
<g id="node5" class="node">
<title>SchoolUc</title>
<ellipse fill="#fdb462" stroke="black" cx="469" cy="-66.8" rx="49.24" ry="18"/>
<text text-anchor="middle" x="469" y="-62.6" font-family="Times,serif" font-size="14.00">SchoolUc</text>
</g>
<!-- SchoolUc&#45;&gt;SchoolApiModule -->
<g id="edge4" class="edge">
<title>SchoolUc&#45;&gt;SchoolApiModule</title>
<path fill="none" stroke="black" d="M469,-84.91C469,-104.14 469,-131.8 469,-131.8 469,-131.8 327.9,-131.8 327.9,-131.8"/>
<polygon fill="black" stroke="black" points="327.9,-128.3 317.9,-131.8 327.9,-135.3 327.9,-128.3"/>
</g>
</g>
</svg>
