<?xml version="1.0" encoding="UTF-8" standalone="no"?>
<!DOCTYPE svg PUBLIC "-//W3C//DTD SVG 1.1//EN"
 "http://www.w3.org/Graphics/SVG/1.1/DTD/svg11.dtd">
<!-- Generated by graphviz version 5.0.0 (20220707.1540)
 -->
<!-- Title: dependencies Pages: 1 -->
<svg width="728pt" height="174pt"
 viewBox="0.00 0.00 728.00 173.80" xmlns="http://www.w3.org/2000/svg" xmlns:xlink="http://www.w3.org/1999/xlink">
<g id="graph0" class="graph" transform="scale(1 1) rotate(0) translate(4 169.8)">
<title>dependencies</title>
<polygon fill="white" stroke="transparent" points="-4,4 -4,-169.8 724,-169.8 724,4 -4,4"/>
<text text-anchor="middle" x="360" y="-8.2" font-family="sans-serif" font-size="14.00">dependencies</text>
<g id="clust1" class="cluster">
<title>cluster_SchoolApiModule</title>
<polygon fill="none" stroke="black" stroke-dasharray="1,5" points="8,-32.8 8,-157.8 712,-157.8 712,-32.8 8,-32.8"/>
</g>
<g id="clust3" class="cluster">
<title>cluster_SchoolApiModule_imports</title>
<polygon fill="none" stroke="black" points="316,-40.8 316,-92.8 704,-92.8 704,-40.8 316,-40.8"/>
</g>
<g id="clust6" class="cluster">
<title>cluster_SchoolApiModule_providers</title>
<polygon fill="none" stroke="black" points="16,-40.8 16,-92.8 308,-92.8 308,-40.8 16,-40.8"/>
</g>
<!-- AuthorizationModule -->
<g id="node1" class="node">
<title>AuthorizationModule</title>
<polygon fill="#8dd3c7" stroke="black" points="695.81,-84.8 692.81,-88.8 671.81,-88.8 668.81,-84.8 558.19,-84.8 558.19,-48.8 695.81,-48.8 695.81,-84.8"/>
<text text-anchor="middle" x="627" y="-62.6" font-family="Times,serif" font-size="14.00">AuthorizationModule</text>
</g>
<!-- SchoolApiModule -->
<g id="node4" class="node">
<title>SchoolApiModule</title>
<polygon fill="#8dd3c7" stroke="black" points="432.94,-149.8 429.94,-153.8 408.94,-153.8 405.94,-149.8 313.06,-149.8 313.06,-113.8 432.94,-113.8 432.94,-149.8"/>
<text text-anchor="middle" x="373" y="-127.6" font-family="Times,serif" font-size="14.00">SchoolApiModule</text>
</g>
<!-- AuthorizationModule&#45;&gt;SchoolApiModule -->
<g id="edge1" class="edge">
<title>AuthorizationModule&#45;&gt;SchoolApiModule</title>
<path fill="none" stroke="black" d="M627,-84.91C627,-104.14 627,-131.8 627,-131.8 627,-131.8 442.87,-131.8 442.87,-131.8"/>
<polygon fill="black" stroke="black" points="442.87,-128.3 432.87,-131.8 442.87,-135.3 442.87,-128.3"/>
</g>
<!-- LoggerModule -->
<g id="node2" class="node">
<title>LoggerModule</title>
<polygon fill="#8dd3c7" stroke="black" points="539.98,-84.8 536.98,-88.8 515.98,-88.8 512.98,-84.8 440.02,-84.8 440.02,-48.8 539.98,-48.8 539.98,-84.8"/>
<text text-anchor="middle" x="490" y="-62.6" font-family="Times,serif" font-size="14.00">LoggerModule</text>
</g>
<!-- LoggerModule&#45;&gt;SchoolApiModule -->
<g id="edge2" class="edge">
<title>LoggerModule&#45;&gt;SchoolApiModule</title>
<path fill="none" stroke="black" d="M439.82,-66.8C432.56,-66.8 427.47,-66.8 427.47,-66.8 427.47,-66.8 427.47,-103.69 427.47,-103.69"/>
<polygon fill="black" stroke="black" points="423.97,-103.69 427.47,-113.69 430.97,-103.69 423.97,-103.69"/>
</g>
<!-- SchoolModule -->
<g id="node3" class="node">
<title>SchoolModule</title>
<polygon fill="#8dd3c7" stroke="black" points="422.44,-84.8 419.44,-88.8 398.44,-88.8 395.44,-84.8 323.56,-84.8 323.56,-48.8 422.44,-48.8 422.44,-84.8"/>
<text text-anchor="middle" x="373" y="-62.6" font-family="Times,serif" font-size="14.00">SchoolModule</text>
</g>
<!-- SchoolModule&#45;&gt;SchoolApiModule -->
<g id="edge3" class="edge">
<title>SchoolModule&#45;&gt;SchoolApiModule</title>
<path fill="none" stroke="black" d="M373,-84.91C373,-84.91 373,-103.79 373,-103.79"/>
<polygon fill="black" stroke="black" points="369.5,-103.79 373,-113.79 376.5,-103.79 369.5,-103.79"/>
</g>
<!-- MigrationMapper -->
<g id="node5" class="node">
<title>MigrationMapper</title>
<ellipse fill="#fdb462" stroke="black" cx="220" cy="-66.8" rx="79.88" ry="18"/>
<text text-anchor="middle" x="220" y="-62.6" font-family="Times,serif" font-size="14.00">MigrationMapper</text>
</g>
<!-- MigrationMapper&#45;&gt;SchoolApiModule -->
<g id="edge4" class="edge">
<title>MigrationMapper&#45;&gt;SchoolApiModule</title>
<path fill="none" stroke="black" d="M300,-66.8C310.95,-66.8 318.53,-66.8 318.53,-66.8 318.53,-66.8 318.53,-103.69 318.53,-103.69"/>
<polygon fill="black" stroke="black" points="315.03,-103.69 318.53,-113.69 322.03,-103.69 315.03,-103.69"/>
</g>
<!-- SchoolUc -->
<g id="node6" class="node">
<title>SchoolUc</title>
<ellipse fill="#fdb462" stroke="black" cx="73" cy="-66.8" rx="49.24" ry="18"/>
<text text-anchor="middle" x="73" y="-62.6" font-family="Times,serif" font-size="14.00">SchoolUc</text>
</g>
<!-- SchoolUc&#45;&gt;SchoolApiModule -->
<g id="edge5" class="edge">
<title>SchoolUc&#45;&gt;SchoolApiModule</title>
<path fill="none" stroke="black" d="M73,-84.91C73,-104.14 73,-131.8 73,-131.8 73,-131.8 303.01,-131.8 303.01,-131.8"/>
<polygon fill="black" stroke="black" points="303.01,-135.3 313.01,-131.8 303.01,-128.3 303.01,-135.3"/>
</g>
</g>
</svg>
