<?xml version="1.0" encoding="UTF-8" standalone="no"?>
<!DOCTYPE svg PUBLIC "-//W3C//DTD SVG 1.1//EN"
 "http://www.w3.org/Graphics/SVG/1.1/DTD/svg11.dtd">
<!-- Generated by graphviz version 5.0.0 (20220707.1540)
 -->
<!-- Title: dependencies Pages: 1 -->
<svg width="946pt" height="247pt"
 viewBox="0.00 0.00 946.00 246.80" xmlns="http://www.w3.org/2000/svg" xmlns:xlink="http://www.w3.org/1999/xlink">
<g id="graph0" class="graph" transform="scale(1 1) rotate(0) translate(4 242.8)">
<title>dependencies</title>
<polygon fill="white" stroke="transparent" points="-4,4 -4,-242.8 942,-242.8 942,4 -4,4"/>
<text text-anchor="middle" x="469" y="-8.2" font-family="sans-serif" font-size="14.00">dependencies</text>
<g id="clust1" class="cluster">
<title>cluster_KeycloakModule</title>
<polygon fill="none" stroke="black" stroke-dasharray="1,5" points="8,-32.8 8,-230.8 930,-230.8 930,-32.8 8,-32.8"/>
</g>
<g id="clust4" class="cluster">
<title>cluster_KeycloakModule_exports</title>
<polygon fill="none" stroke="black" points="133,-170.8 133,-222.8 529,-222.8 529,-170.8 133,-170.8"/>
</g>
<g id="clust6" class="cluster">
<title>cluster_KeycloakModule_providers</title>
<polygon fill="none" stroke="black" points="398,-40.8 398,-92.8 922,-92.8 922,-40.8 398,-40.8"/>
</g>
<g id="clust3" class="cluster">
<title>cluster_KeycloakModule_imports</title>
<polygon fill="none" stroke="black" points="16,-40.8 16,-92.8 390,-92.8 390,-40.8 16,-40.8"/>
</g>
<!-- EncryptionModule -->
<g id="node1" class="node">
<title>EncryptionModule</title>
<polygon fill="#8dd3c7" stroke="black" points="381.76,-84.8 378.76,-88.8 357.76,-88.8 354.76,-84.8 260.24,-84.8 260.24,-48.8 381.76,-48.8 381.76,-84.8"/>
<text text-anchor="middle" x="321" y="-62.6" font-family="Times,serif" font-size="14.00">EncryptionModule</text>
</g>
<!-- KeycloakModule -->
<g id="node4" class="node">
<title>KeycloakModule</title>
<polygon fill="#8dd3c7" stroke="black" points="377.69,-149.8 374.69,-153.8 353.69,-153.8 350.69,-149.8 264.31,-149.8 264.31,-113.8 377.69,-113.8 377.69,-149.8"/>
<text text-anchor="middle" x="321" y="-127.6" font-family="Times,serif" font-size="14.00">KeycloakModule</text>
</g>
<!-- EncryptionModule&#45;&gt;KeycloakModule -->
<g id="edge1" class="edge">
<title>EncryptionModule&#45;&gt;KeycloakModule</title>
<path fill="none" stroke="black" d="M321,-84.91C321,-84.91 321,-103.79 321,-103.79"/>
<polygon fill="black" stroke="black" points="317.5,-103.79 321,-113.79 324.5,-103.79 317.5,-103.79"/>
</g>
<!-- LoggerModule -->
<g id="node2" class="node">
<title>LoggerModule</title>
<polygon fill="#8dd3c7" stroke="black" points="241.98,-84.8 238.98,-88.8 217.98,-88.8 214.98,-84.8 142.02,-84.8 142.02,-48.8 241.98,-48.8 241.98,-84.8"/>
<text text-anchor="middle" x="192" y="-62.6" font-family="Times,serif" font-size="14.00">LoggerModule</text>
</g>
<!-- LoggerModule&#45;&gt;KeycloakModule -->
<g id="edge2" class="edge">
<title>LoggerModule&#45;&gt;KeycloakModule</title>
<path fill="none" stroke="black" d="M192,-84.82C192,-102.17 192,-125.8 192,-125.8 192,-125.8 254.04,-125.8 254.04,-125.8"/>
<polygon fill="black" stroke="black" points="254.04,-129.3 264.04,-125.8 254.04,-122.3 254.04,-129.3"/>
</g>
<!-- SystemModule -->
<g id="node3" class="node">
<title>SystemModule</title>
<polygon fill="#8dd3c7" stroke="black" points="124.28,-84.8 121.28,-88.8 100.28,-88.8 97.28,-84.8 23.72,-84.8 23.72,-48.8 124.28,-48.8 124.28,-84.8"/>
<text text-anchor="middle" x="74" y="-62.6" font-family="Times,serif" font-size="14.00">SystemModule</text>
</g>
<!-- SystemModule&#45;&gt;KeycloakModule -->
<g id="edge3" class="edge">
<title>SystemModule&#45;&gt;KeycloakModule</title>
<path fill="none" stroke="black" d="M74,-85.08C74,-106.12 74,-137.8 74,-137.8 74,-137.8 254.33,-137.8 254.33,-137.8"/>
<polygon fill="black" stroke="black" points="254.33,-141.3 264.33,-137.8 254.33,-134.3 254.33,-141.3"/>
</g>
<!-- KeycloakAdministrationService  -->
<g id="node5" class="node">
<title>KeycloakAdministrationService </title>
<polygon fill="#fb8072" stroke="black" points="520.89,-214.8 321.11,-214.8 321.11,-178.8 520.89,-178.8 520.89,-214.8"/>
<text text-anchor="middle" x="421" y="-192.6" font-family="Times,serif" font-size="14.00">KeycloakAdministrationService </text>
</g>
<!-- KeycloakModule&#45;&gt;KeycloakAdministrationService  -->
<g id="edge4" class="edge">
<title>KeycloakModule&#45;&gt;KeycloakAdministrationService </title>
<path fill="none" stroke="black" stroke-dasharray="5,2" d="M349.32,-149.91C349.32,-149.91 349.32,-168.79 349.32,-168.79"/>
<polygon fill="black" stroke="black" points="345.83,-168.79 349.32,-178.79 352.83,-168.79 345.83,-168.79"/>
</g>
<!-- KeycloakManagementUc  -->
<g id="node6" class="node">
<title>KeycloakManagementUc </title>
<polygon fill="#fb8072" stroke="black" points="303.05,-214.8 140.95,-214.8 140.95,-178.8 303.05,-178.8 303.05,-214.8"/>
<text text-anchor="middle" x="222" y="-192.6" font-family="Times,serif" font-size="14.00">KeycloakManagementUc </text>
</g>
<!-- KeycloakModule&#45;&gt;KeycloakManagementUc  -->
<g id="edge5" class="edge">
<title>KeycloakModule&#45;&gt;KeycloakManagementUc </title>
<path fill="none" stroke="black" stroke-dasharray="5,2" d="M283.84,-149.91C283.84,-149.91 283.84,-168.79 283.84,-168.79"/>
<polygon fill="black" stroke="black" points="280.34,-168.79 283.84,-178.79 287.34,-168.79 280.34,-168.79"/>
</g>
<!-- KeycloakAdministrationService -->
<g id="node7" class="node">
<title>KeycloakAdministrationService</title>
<ellipse fill="#fdb462" stroke="black" cx="779" cy="-66.8" rx="135.44" ry="18"/>
<text text-anchor="middle" x="779" y="-62.6" font-family="Times,serif" font-size="14.00">KeycloakAdministrationService</text>
</g>
<!-- KeycloakAdministrationService&#45;&gt;KeycloakModule -->
<g id="edge6" class="edge">
<title>KeycloakAdministrationService&#45;&gt;KeycloakModule</title>
<path fill="none" stroke="black" d="M779,-85.08C779,-106.12 779,-137.8 779,-137.8 779,-137.8 387.62,-137.8 387.62,-137.8"/>
<polygon fill="black" stroke="black" points="387.62,-134.3 377.62,-137.8 387.62,-141.3 387.62,-134.3"/>
</g>
<!-- KeycloakManagementUc -->
<g id="node8" class="node">
<title>KeycloakManagementUc</title>
<ellipse fill="#fdb462" stroke="black" cx="516" cy="-66.8" rx="109.92" ry="18"/>
<text text-anchor="middle" x="516" y="-62.6" font-family="Times,serif" font-size="14.00">KeycloakManagementUc</text>
</g>
<!-- KeycloakManagementUc&#45;&gt;KeycloakModule -->
<g id="edge7" class="edge">
<title>KeycloakManagementUc&#45;&gt;KeycloakModule</title>
<path fill="none" stroke="black" d="M463.62,-82.92C463.62,-100.39 463.62,-125.8 463.62,-125.8 463.62,-125.8 387.78,-125.8 387.78,-125.8"/>
<polygon fill="black" stroke="black" points="387.78,-122.3 377.78,-125.8 387.78,-129.3 387.78,-122.3"/>
</g>
</g>
</svg>
