<?xml version="1.0" encoding="UTF-8" standalone="no"?>
<!DOCTYPE svg PUBLIC "-//W3C//DTD SVG 1.1//EN"
 "http://www.w3.org/Graphics/SVG/1.1/DTD/svg11.dtd">
<!-- Generated by graphviz version 5.0.0 (20220707.1540)
 -->
<!-- Title: dependencies Pages: 1 -->
<svg width="966pt" height="247pt"
 viewBox="0.00 0.00 966.00 246.80" xmlns="http://www.w3.org/2000/svg" xmlns:xlink="http://www.w3.org/1999/xlink">
<g id="graph0" class="graph" transform="scale(1 1) rotate(0) translate(4 242.8)">
<title>dependencies</title>
<polygon fill="white" stroke="transparent" points="-4,4 -4,-242.8 962,-242.8 962,4 -4,4"/>
<text text-anchor="middle" x="479" y="-8.2" font-family="sans-serif" font-size="14.00">dependencies</text>
<g id="clust1" class="cluster">
<title>cluster_KeycloakModule</title>
<polygon fill="none" stroke="black" stroke-dasharray="1,5" points="8,-32.8 8,-230.8 950,-230.8 950,-32.8 8,-32.8"/>
</g>
<g id="clust6" class="cluster">
<title>cluster_KeycloakModule_providers</title>
<polygon fill="none" stroke="black" points="280,-40.8 280,-92.8 942,-92.8 942,-40.8 280,-40.8"/>
</g>
<g id="clust4" class="cluster">
<title>cluster_KeycloakModule_exports</title>
<polygon fill="none" stroke="black" points="160,-170.8 160,-222.8 556,-222.8 556,-170.8 160,-170.8"/>
</g>
<g id="clust3" class="cluster">
<title>cluster_KeycloakModule_imports</title>
<polygon fill="none" stroke="black" points="16,-40.8 16,-92.8 272,-92.8 272,-40.8 16,-40.8"/>
</g>
<!-- EncryptionModule -->
<g id="node1" class="node">
<title>EncryptionModule</title>
<polygon fill="#8dd3c7" stroke="black" points="263.76,-84.8 260.76,-88.8 239.76,-88.8 236.76,-84.8 142.24,-84.8 142.24,-48.8 263.76,-48.8 263.76,-84.8"/>
<text text-anchor="middle" x="203" y="-62.6" font-family="Times,serif" font-size="14.00">EncryptionModule</text>
</g>
<!-- KeycloakModule -->
<g id="node3" class="node">
<title>KeycloakModule</title>
<polygon fill="#8dd3c7" stroke="black" points="404.69,-149.8 401.69,-153.8 380.69,-153.8 377.69,-149.8 291.31,-149.8 291.31,-113.8 404.69,-113.8 404.69,-149.8"/>
<text text-anchor="middle" x="348" y="-127.6" font-family="Times,serif" font-size="14.00">KeycloakModule</text>
</g>
<!-- EncryptionModule&#45;&gt;KeycloakModule -->
<g id="edge1" class="edge">
<title>EncryptionModule&#45;&gt;KeycloakModule</title>
<path fill="none" stroke="black" d="M215.8,-84.82C215.8,-102.17 215.8,-125.8 215.8,-125.8 215.8,-125.8 281.17,-125.8 281.17,-125.8"/>
<polygon fill="black" stroke="black" points="281.17,-129.3 291.17,-125.8 281.17,-122.3 281.17,-129.3"/>
</g>
<!-- LoggerModule -->
<g id="node2" class="node">
<title>LoggerModule</title>
<polygon fill="#8dd3c7" stroke="black" points="123.98,-84.8 120.98,-88.8 99.98,-88.8 96.98,-84.8 24.02,-84.8 24.02,-48.8 123.98,-48.8 123.98,-84.8"/>
<text text-anchor="middle" x="74" y="-62.6" font-family="Times,serif" font-size="14.00">LoggerModule</text>
</g>
<!-- LoggerModule&#45;&gt;KeycloakModule -->
<g id="edge2" class="edge">
<title>LoggerModule&#45;&gt;KeycloakModule</title>
<path fill="none" stroke="black" d="M74,-85.08C74,-106.12 74,-137.8 74,-137.8 74,-137.8 281.23,-137.8 281.23,-137.8"/>
<polygon fill="black" stroke="black" points="281.23,-141.3 291.23,-137.8 281.23,-134.3 281.23,-141.3"/>
</g>
<!-- KeycloakAdministrationService  -->
<g id="node4" class="node">
<title>KeycloakAdministrationService </title>
<polygon fill="#fb8072" stroke="black" points="547.89,-214.8 348.11,-214.8 348.11,-178.8 547.89,-178.8 547.89,-214.8"/>
<text text-anchor="middle" x="448" y="-192.6" font-family="Times,serif" font-size="14.00">KeycloakAdministrationService </text>
</g>
<!-- KeycloakModule&#45;&gt;KeycloakAdministrationService  -->
<g id="edge3" class="edge">
<title>KeycloakModule&#45;&gt;KeycloakAdministrationService </title>
<path fill="none" stroke="black" stroke-dasharray="5,2" d="M376.32,-149.91C376.32,-149.91 376.32,-168.79 376.32,-168.79"/>
<polygon fill="black" stroke="black" points="372.83,-168.79 376.32,-178.79 379.83,-168.79 372.83,-168.79"/>
</g>
<!-- KeycloakManagementUc  -->
<g id="node5" class="node">
<title>KeycloakManagementUc </title>
<polygon fill="#fb8072" stroke="black" points="330.05,-214.8 167.95,-214.8 167.95,-178.8 330.05,-178.8 330.05,-214.8"/>
<text text-anchor="middle" x="249" y="-192.6" font-family="Times,serif" font-size="14.00">KeycloakManagementUc </text>
</g>
<!-- KeycloakModule&#45;&gt;KeycloakManagementUc  -->
<g id="edge4" class="edge">
<title>KeycloakModule&#45;&gt;KeycloakManagementUc </title>
<path fill="none" stroke="black" stroke-dasharray="5,2" d="M310.84,-149.91C310.84,-149.91 310.84,-168.79 310.84,-168.79"/>
<polygon fill="black" stroke="black" points="307.34,-168.79 310.84,-178.79 314.34,-168.79 307.34,-168.79"/>
</g>
<!-- KeycloakAdministrationService -->
<g id="node6" class="node">
<title>KeycloakAdministrationService</title>
<ellipse fill="#fdb462" stroke="black" cx="799" cy="-66.8" rx="135.44" ry="18"/>
<text text-anchor="middle" x="799" y="-62.6" font-family="Times,serif" font-size="14.00">KeycloakAdministrationService</text>
</g>
<!-- KeycloakAdministrationService&#45;&gt;KeycloakModule -->
<g id="edge5" class="edge">
<title>KeycloakAdministrationService&#45;&gt;KeycloakModule</title>
<path fill="none" stroke="black" d="M799,-85.08C799,-106.12 799,-137.8 799,-137.8 799,-137.8 414.66,-137.8 414.66,-137.8"/>
<polygon fill="black" stroke="black" points="414.66,-134.3 404.66,-137.8 414.66,-141.3 414.66,-134.3"/>
</g>
<!-- KeycloakManagementUc -->
<g id="node7" class="node">
<title>KeycloakManagementUc</title>
<ellipse fill="#fdb462" stroke="black" cx="536" cy="-66.8" rx="109.92" ry="18"/>
<text text-anchor="middle" x="536" y="-62.6" font-family="Times,serif" font-size="14.00">KeycloakManagementUc</text>
</g>
<!-- KeycloakManagementUc&#45;&gt;KeycloakModule -->
<g id="edge6" class="edge">
<title>KeycloakManagementUc&#45;&gt;KeycloakModule</title>
<path fill="none" stroke="black" d="M487.12,-82.92C487.12,-100.39 487.12,-125.8 487.12,-125.8 487.12,-125.8 414.99,-125.8 414.99,-125.8"/>
<polygon fill="black" stroke="black" points="414.99,-122.3 404.99,-125.8 414.99,-129.3 414.99,-122.3"/>
</g>
<!-- SystemRepo -->
<g id="node8" class="node">
<title>SystemRepo</title>
<ellipse fill="#fdb462" stroke="black" cx="348" cy="-66.8" rx="59.72" ry="18"/>
<text text-anchor="middle" x="348" y="-62.6" font-family="Times,serif" font-size="14.00">SystemRepo</text>
</g>
<!-- SystemRepo&#45;&gt;KeycloakModule -->
<g id="edge7" class="edge">
<title>SystemRepo&#45;&gt;KeycloakModule</title>
<path fill="none" stroke="black" d="M348,-84.91C348,-84.91 348,-103.79 348,-103.79"/>
<polygon fill="black" stroke="black" points="344.5,-103.79 348,-113.79 351.5,-103.79 344.5,-103.79"/>
</g>
</g>
</svg>
