<?xml version="1.0" encoding="UTF-8" standalone="no"?>
<!DOCTYPE svg PUBLIC "-//W3C//DTD SVG 1.1//EN"
 "http://www.w3.org/Graphics/SVG/1.1/DTD/svg11.dtd">
<!-- Generated by graphviz version 5.0.0 (20220707.1540)
 -->
<!-- Title: dependencies Pages: 1 -->
<svg width="826pt" height="247pt"
 viewBox="0.00 0.00 826.00 246.80" xmlns="http://www.w3.org/2000/svg" xmlns:xlink="http://www.w3.org/1999/xlink">
<g id="graph0" class="graph" transform="scale(1 1) rotate(0) translate(4 242.8)">
<title>dependencies</title>
<polygon fill="white" stroke="transparent" points="-4,4 -4,-242.8 822,-242.8 822,4 -4,4"/>
<text text-anchor="middle" x="409" y="-8.2" font-family="sans-serif" font-size="14.00">dependencies</text>
<g id="clust1" class="cluster">
<title>cluster_KeycloakModule</title>
<polygon fill="none" stroke="black" stroke-dasharray="1,5" points="8,-32.8 8,-230.8 810,-230.8 810,-32.8 8,-32.8"/>
</g>
<g id="clust4" class="cluster">
<title>cluster_KeycloakModule_exports</title>
<polygon fill="none" stroke="black" points="115,-170.8 115,-222.8 511,-222.8 511,-170.8 115,-170.8"/>
</g>
<g id="clust6" class="cluster">
<title>cluster_KeycloakModule_providers</title>
<polygon fill="none" stroke="black" points="140,-40.8 140,-92.8 802,-92.8 802,-40.8 140,-40.8"/>
</g>
<g id="clust3" class="cluster">
<title>cluster_KeycloakModule_imports</title>
<polygon fill="none" stroke="black" points="16,-40.8 16,-92.8 132,-92.8 132,-40.8 16,-40.8"/>
</g>
<!-- LoggerModule -->
<g id="node1" class="node">
<title>LoggerModule</title>
<polygon fill="#8dd3c7" stroke="black" points="123.98,-84.8 120.98,-88.8 99.98,-88.8 96.98,-84.8 24.02,-84.8 24.02,-48.8 123.98,-48.8 123.98,-84.8"/>
<text text-anchor="middle" x="74" y="-62.6" font-family="Times,serif" font-size="14.00">LoggerModule</text>
</g>
<!-- KeycloakModule -->
<g id="node2" class="node">
<title>KeycloakModule</title>
<polygon fill="#8dd3c7" stroke="black" points="358.69,-149.8 355.69,-153.8 334.69,-153.8 331.69,-149.8 245.31,-149.8 245.31,-113.8 358.69,-113.8 358.69,-149.8"/>
<text text-anchor="middle" x="302" y="-127.6" font-family="Times,serif" font-size="14.00">KeycloakModule</text>
</g>
<!-- LoggerModule&#45;&gt;KeycloakModule -->
<g id="edge1" class="edge">
<title>LoggerModule&#45;&gt;KeycloakModule</title>
<path fill="none" stroke="black" d="M73.37,-84.91C73.37,-104.14 73.37,-131.8 73.37,-131.8 73.37,-131.8 235.19,-131.8 235.19,-131.8"/>
<polygon fill="black" stroke="black" points="235.19,-135.3 245.19,-131.8 235.19,-128.3 235.19,-135.3"/>
</g>
<!-- KeycloakAdministrationService  -->
<g id="node3" class="node">
<title>KeycloakAdministrationService </title>
<polygon fill="#fb8072" stroke="black" points="502.89,-214.8 303.11,-214.8 303.11,-178.8 502.89,-178.8 502.89,-214.8"/>
<text text-anchor="middle" x="403" y="-192.6" font-family="Times,serif" font-size="14.00">KeycloakAdministrationService </text>
</g>
<!-- KeycloakModule&#45;&gt;KeycloakAdministrationService  -->
<g id="edge2" class="edge">
<title>KeycloakModule&#45;&gt;KeycloakAdministrationService </title>
<path fill="none" stroke="black" stroke-dasharray="5,2" d="M330.82,-149.91C330.82,-149.91 330.82,-168.79 330.82,-168.79"/>
<polygon fill="black" stroke="black" points="327.33,-168.79 330.82,-178.79 334.33,-168.79 327.33,-168.79"/>
</g>
<!-- KeycloakManagementUc  -->
<g id="node4" class="node">
<title>KeycloakManagementUc </title>
<polygon fill="#fb8072" stroke="black" points="285.05,-214.8 122.95,-214.8 122.95,-178.8 285.05,-178.8 285.05,-214.8"/>
<text text-anchor="middle" x="204" y="-192.6" font-family="Times,serif" font-size="14.00">KeycloakManagementUc </text>
</g>
<!-- KeycloakModule&#45;&gt;KeycloakManagementUc  -->
<g id="edge3" class="edge">
<title>KeycloakModule&#45;&gt;KeycloakManagementUc </title>
<path fill="none" stroke="black" stroke-dasharray="5,2" d="M265.34,-149.91C265.34,-149.91 265.34,-168.79 265.34,-168.79"/>
<polygon fill="black" stroke="black" points="261.84,-168.79 265.34,-178.79 268.84,-168.79 261.84,-168.79"/>
</g>
<!-- KeycloakAdministrationService -->
<g id="node5" class="node">
<title>KeycloakAdministrationService</title>
<ellipse fill="#fdb462" stroke="black" cx="659" cy="-66.8" rx="135.44" ry="18"/>
<text text-anchor="middle" x="659" y="-62.6" font-family="Times,serif" font-size="14.00">KeycloakAdministrationService</text>
</g>
<!-- KeycloakAdministrationService&#45;&gt;KeycloakModule -->
<g id="edge4" class="edge">
<title>KeycloakAdministrationService&#45;&gt;KeycloakModule</title>
<path fill="none" stroke="black" d="M659,-84.91C659,-104.14 659,-131.8 659,-131.8 659,-131.8 368.96,-131.8 368.96,-131.8"/>
<polygon fill="black" stroke="black" points="368.96,-128.3 358.96,-131.8 368.96,-135.3 368.96,-128.3"/>
</g>
<!-- KeycloakManagementUc -->
<g id="node6" class="node">
<title>KeycloakManagementUc</title>
<ellipse fill="#fdb462" stroke="black" cx="396" cy="-66.8" rx="109.92" ry="18"/>
<text text-anchor="middle" x="396" y="-62.6" font-family="Times,serif" font-size="14.00">KeycloakManagementUc</text>
</g>
<!-- KeycloakManagementUc&#45;&gt;KeycloakModule -->
<g id="edge5" class="edge">
<title>KeycloakManagementUc&#45;&gt;KeycloakModule</title>
<path fill="none" stroke="black" d="M322.44,-80.27C322.44,-80.27 322.44,-103.66 322.44,-103.66"/>
<polygon fill="black" stroke="black" points="318.94,-103.66 322.44,-113.66 325.94,-103.66 318.94,-103.66"/>
</g>
<!-- SystemRepo -->
<g id="node7" class="node">
<title>SystemRepo</title>
<ellipse fill="#fdb462" stroke="black" cx="208" cy="-66.8" rx="59.72" ry="18"/>
<text text-anchor="middle" x="208" y="-62.6" font-family="Times,serif" font-size="14.00">SystemRepo</text>
</g>
<!-- SystemRepo&#45;&gt;KeycloakModule -->
<g id="edge6" class="edge">
<title>SystemRepo&#45;&gt;KeycloakModule</title>
<path fill="none" stroke="black" d="M256.63,-77.53C256.63,-77.53 256.63,-103.67 256.63,-103.67"/>
<polygon fill="black" stroke="black" points="253.13,-103.67 256.63,-113.67 260.13,-103.67 253.13,-103.67"/>
</g>
</g>
</svg>
