<?xml version="1.0" encoding="UTF-8" standalone="no"?>
<!DOCTYPE svg PUBLIC "-//W3C//DTD SVG 1.1//EN"
 "http://www.w3.org/Graphics/SVG/1.1/DTD/svg11.dtd">
<!-- Generated by graphviz version 5.0.0 (20220707.1540)
 -->
<!-- Title: dependencies Pages: 1 -->
<svg width="966pt" height="247pt"
 viewBox="0.00 0.00 966.00 246.80" xmlns="http://www.w3.org/2000/svg" xmlns:xlink="http://www.w3.org/1999/xlink">
<g id="graph0" class="graph" transform="scale(1 1) rotate(0) translate(4 242.8)">
<title>dependencies</title>
<polygon fill="white" stroke="transparent" points="-4,4 -4,-242.8 962,-242.8 962,4 -4,4"/>
<text text-anchor="middle" x="479" y="-8.2" font-family="sans-serif" font-size="14.00">dependencies</text>
<g id="clust1" class="cluster">
<title>cluster_KeycloakModule</title>
<polygon fill="none" stroke="black" stroke-dasharray="1,5" points="8,-32.8 8,-230.8 950,-230.8 950,-32.8 8,-32.8"/>
</g>
<g id="clust3" class="cluster">
<title>cluster_KeycloakModule_imports</title>
<polygon fill="none" stroke="black" points="686,-40.8 686,-92.8 942,-92.8 942,-40.8 686,-40.8"/>
</g>
<g id="clust6" class="cluster">
<title>cluster_KeycloakModule_providers</title>
<polygon fill="none" stroke="black" points="16,-40.8 16,-92.8 678,-92.8 678,-40.8 16,-40.8"/>
</g>
<g id="clust4" class="cluster">
<title>cluster_KeycloakModule_exports</title>
<polygon fill="none" stroke="black" points="347,-170.8 347,-222.8 743,-222.8 743,-170.8 347,-170.8"/>
</g>
<!-- EncryptionModule -->
<g id="node1" class="node">
<title>EncryptionModule</title>
<polygon fill="#8dd3c7" stroke="black" points="933.76,-84.8 930.76,-88.8 909.76,-88.8 906.76,-84.8 812.24,-84.8 812.24,-48.8 933.76,-48.8 933.76,-84.8"/>
<text text-anchor="middle" x="873" y="-62.6" font-family="Times,serif" font-size="14.00">EncryptionModule</text>
</g>
<!-- KeycloakModule -->
<g id="node3" class="node">
<title>KeycloakModule</title>
<polygon fill="#8dd3c7" stroke="black" points="591.69,-149.8 588.69,-153.8 567.69,-153.8 564.69,-149.8 478.31,-149.8 478.31,-113.8 591.69,-113.8 591.69,-149.8"/>
<text text-anchor="middle" x="535" y="-127.6" font-family="Times,serif" font-size="14.00">KeycloakModule</text>
</g>
<!-- EncryptionModule&#45;&gt;KeycloakModule -->
<g id="edge1" class="edge">
<title>EncryptionModule&#45;&gt;KeycloakModule</title>
<path fill="none" stroke="black" d="M873,-85.08C873,-106.12 873,-137.8 873,-137.8 873,-137.8 601.95,-137.8 601.95,-137.8"/>
<polygon fill="black" stroke="black" points="601.95,-134.3 591.95,-137.8 601.95,-141.3 601.95,-134.3"/>
</g>
<!-- LoggerModule -->
<g id="node2" class="node">
<title>LoggerModule</title>
<polygon fill="#8dd3c7" stroke="black" points="793.98,-84.8 790.98,-88.8 769.98,-88.8 766.98,-84.8 694.02,-84.8 694.02,-48.8 793.98,-48.8 793.98,-84.8"/>
<text text-anchor="middle" x="744" y="-62.6" font-family="Times,serif" font-size="14.00">LoggerModule</text>
</g>
<!-- LoggerModule&#45;&gt;KeycloakModule -->
<g id="edge2" class="edge">
<title>LoggerModule&#45;&gt;KeycloakModule</title>
<path fill="none" stroke="black" d="M714.48,-84.82C714.48,-102.17 714.48,-125.8 714.48,-125.8 714.48,-125.8 601.79,-125.8 601.79,-125.8"/>
<polygon fill="black" stroke="black" points="601.79,-122.3 591.79,-125.8 601.79,-129.3 601.79,-122.3"/>
</g>
<!-- KeycloakAdministrationService  -->
<g id="node4" class="node">
<title>KeycloakAdministrationService </title>
<polygon fill="#fb8072" stroke="black" points="734.89,-214.8 535.11,-214.8 535.11,-178.8 734.89,-178.8 734.89,-214.8"/>
<text text-anchor="middle" x="635" y="-192.6" font-family="Times,serif" font-size="14.00">KeycloakAdministrationService </text>
</g>
<!-- KeycloakModule&#45;&gt;KeycloakAdministrationService  -->
<g id="edge3" class="edge">
<title>KeycloakModule&#45;&gt;KeycloakAdministrationService </title>
<path fill="none" stroke="black" stroke-dasharray="5,2" d="M563.32,-149.91C563.32,-149.91 563.32,-168.79 563.32,-168.79"/>
<polygon fill="black" stroke="black" points="559.83,-168.79 563.32,-178.79 566.83,-168.79 559.83,-168.79"/>
</g>
<!-- KeycloakManagementUc  -->
<g id="node5" class="node">
<title>KeycloakManagementUc </title>
<polygon fill="#fb8072" stroke="black" points="517.05,-214.8 354.95,-214.8 354.95,-178.8 517.05,-178.8 517.05,-214.8"/>
<text text-anchor="middle" x="436" y="-192.6" font-family="Times,serif" font-size="14.00">KeycloakManagementUc </text>
</g>
<!-- KeycloakModule&#45;&gt;KeycloakManagementUc  -->
<g id="edge4" class="edge">
<title>KeycloakModule&#45;&gt;KeycloakManagementUc </title>
<path fill="none" stroke="black" stroke-dasharray="5,2" d="M497.84,-149.91C497.84,-149.91 497.84,-168.79 497.84,-168.79"/>
<polygon fill="black" stroke="black" points="494.34,-168.79 497.84,-178.79 501.34,-168.79 494.34,-168.79"/>
</g>
<!-- KeycloakAdministrationService -->
<g id="node6" class="node">
<title>KeycloakAdministrationService</title>
<ellipse fill="#fdb462" stroke="black" cx="535" cy="-66.8" rx="135.44" ry="18"/>
<text text-anchor="middle" x="535" y="-62.6" font-family="Times,serif" font-size="14.00">KeycloakAdministrationService</text>
</g>
<!-- KeycloakAdministrationService&#45;&gt;KeycloakModule -->
<g id="edge5" class="edge">
<title>KeycloakAdministrationService&#45;&gt;KeycloakModule</title>
<path fill="none" stroke="black" d="M535,-84.91C535,-84.91 535,-103.79 535,-103.79"/>
<polygon fill="black" stroke="black" points="531.5,-103.79 535,-113.79 538.5,-103.79 531.5,-103.79"/>
</g>
<!-- KeycloakManagementUc -->
<g id="node7" class="node">
<title>KeycloakManagementUc</title>
<ellipse fill="#fdb462" stroke="black" cx="272" cy="-66.8" rx="109.92" ry="18"/>
<text text-anchor="middle" x="272" y="-62.6" font-family="Times,serif" font-size="14.00">KeycloakManagementUc</text>
</g>
<!-- KeycloakManagementUc&#45;&gt;KeycloakModule -->
<g id="edge6" class="edge">
<title>KeycloakManagementUc&#45;&gt;KeycloakModule</title>
<path fill="none" stroke="black" d="M368.22,-75.51C368.22,-91.92 368.22,-125.8 368.22,-125.8 368.22,-125.8 468.07,-125.8 468.07,-125.8"/>
<polygon fill="black" stroke="black" points="468.07,-129.3 478.07,-125.8 468.07,-122.3 468.07,-129.3"/>
</g>
<!-- SystemRepo -->
<g id="node8" class="node">
<title>SystemRepo</title>
<ellipse fill="#fdb462" stroke="black" cx="84" cy="-66.8" rx="59.72" ry="18"/>
<text text-anchor="middle" x="84" y="-62.6" font-family="Times,serif" font-size="14.00">SystemRepo</text>
</g>
<!-- SystemRepo&#45;&gt;KeycloakModule -->
<g id="edge7" class="edge">
<title>SystemRepo&#45;&gt;KeycloakModule</title>
<path fill="none" stroke="black" d="M84,-85.08C84,-106.12 84,-137.8 84,-137.8 84,-137.8 468.34,-137.8 468.34,-137.8"/>
<polygon fill="black" stroke="black" points="468.34,-141.3 478.34,-137.8 468.34,-134.3 468.34,-141.3"/>
</g>
</g>
</svg>
