<?xml version="1.0" encoding="UTF-8" standalone="no"?>
<!DOCTYPE svg PUBLIC "-//W3C//DTD SVG 1.1//EN"
 "http://www.w3.org/Graphics/SVG/1.1/DTD/svg11.dtd">
<!-- Generated by graphviz version 5.0.0 (20220707.1540)
 -->
<!-- Title: dependencies Pages: 1 -->
<svg width="848pt" height="247pt"
 viewBox="0.00 0.00 848.00 246.80" xmlns="http://www.w3.org/2000/svg" xmlns:xlink="http://www.w3.org/1999/xlink">
<g id="graph0" class="graph" transform="scale(1 1) rotate(0) translate(4 242.8)">
<title>dependencies</title>
<polygon fill="white" stroke="transparent" points="-4,4 -4,-242.8 844,-242.8 844,4 -4,4"/>
<text text-anchor="middle" x="420" y="-8.2" font-family="sans-serif" font-size="14.00">dependencies</text>
<g id="clust1" class="cluster">
<title>cluster_KeycloakModule</title>
<polygon fill="none" stroke="black" stroke-dasharray="1,5" points="8,-32.8 8,-230.8 832,-230.8 832,-32.8 8,-32.8"/>
</g>
<g id="clust6" class="cluster">
<title>cluster_KeycloakModule_providers</title>
<polygon fill="none" stroke="black" points="300,-40.8 300,-92.8 824,-92.8 824,-40.8 300,-40.8"/>
</g>
<g id="clust4" class="cluster">
<title>cluster_KeycloakModule_exports</title>
<polygon fill="none" stroke="black" points="159,-170.8 159,-222.8 512,-222.8 512,-170.8 159,-170.8"/>
</g>
<g id="clust3" class="cluster">
<title>cluster_KeycloakModule_imports</title>
<polygon fill="none" stroke="black" points="16,-40.8 16,-92.8 292,-92.8 292,-40.8 16,-40.8"/>
</g>
<!-- ConsoleWriterModule -->
<g id="node1" class="node">
<title>ConsoleWriterModule</title>
<polygon fill="#8dd3c7" stroke="black" points="283.97,-84.8 280.97,-88.8 259.97,-88.8 256.97,-84.8 142.03,-84.8 142.03,-48.8 283.97,-48.8 283.97,-84.8"/>
<text text-anchor="middle" x="213" y="-62.6" font-family="Times,serif" font-size="14.00">ConsoleWriterModule</text>
</g>
<!-- KeycloakModule -->
<g id="node3" class="node">
<title>KeycloakModule</title>
<polygon fill="#8dd3c7" stroke="black" points="371.69,-149.8 368.69,-153.8 347.69,-153.8 344.69,-149.8 258.31,-149.8 258.31,-113.8 371.69,-113.8 371.69,-149.8"/>
<text text-anchor="middle" x="315" y="-127.6" font-family="Times,serif" font-size="14.00">KeycloakModule</text>
</g>
<!-- ConsoleWriterModule&#45;&gt;KeycloakModule -->
<g id="edge1" class="edge">
<title>ConsoleWriterModule&#45;&gt;KeycloakModule</title>
<path fill="none" stroke="black" d="M271.19,-84.91C271.19,-84.91 271.19,-103.79 271.19,-103.79"/>
<polygon fill="black" stroke="black" points="267.69,-103.79 271.19,-113.79 274.69,-103.79 267.69,-103.79"/>
</g>
<!-- LoggerModule -->
<g id="node2" class="node">
<title>LoggerModule</title>
<polygon fill="#8dd3c7" stroke="black" points="123.98,-84.8 120.98,-88.8 99.98,-88.8 96.98,-84.8 24.02,-84.8 24.02,-48.8 123.98,-48.8 123.98,-84.8"/>
<text text-anchor="middle" x="74" y="-62.6" font-family="Times,serif" font-size="14.00">LoggerModule</text>
</g>
<!-- LoggerModule&#45;&gt;KeycloakModule -->
<g id="edge2" class="edge">
<title>LoggerModule&#45;&gt;KeycloakModule</title>
<path fill="none" stroke="black" d="M74,-84.91C74,-104.14 74,-131.8 74,-131.8 74,-131.8 248.19,-131.8 248.19,-131.8"/>
<polygon fill="black" stroke="black" points="248.19,-135.3 258.19,-131.8 248.19,-128.3 248.19,-135.3"/>
</g>
<!-- KeycloakAdministrationService  -->
<g id="node4" class="node">
<title>KeycloakAdministrationService </title>
<polygon fill="#fb8072" stroke="black" points="503.89,-214.8 304.11,-214.8 304.11,-178.8 503.89,-178.8 503.89,-214.8"/>
<text text-anchor="middle" x="404" y="-192.6" font-family="Times,serif" font-size="14.00">KeycloakAdministrationService </text>
</g>
<!-- KeycloakModule&#45;&gt;KeycloakAdministrationService  -->
<g id="edge3" class="edge">
<title>KeycloakModule&#45;&gt;KeycloakAdministrationService </title>
<path fill="none" stroke="black" stroke-dasharray="5,2" d="M337.82,-149.91C337.82,-149.91 337.82,-168.79 337.82,-168.79"/>
<polygon fill="black" stroke="black" points="334.33,-168.79 337.82,-178.79 341.33,-168.79 334.33,-168.79"/>
</g>
<!-- KeycloakConsole  -->
<g id="node5" class="node">
<title>KeycloakConsole </title>
<polygon fill="#fb8072" stroke="black" points="286.53,-214.8 167.47,-214.8 167.47,-178.8 286.53,-178.8 286.53,-214.8"/>
<text text-anchor="middle" x="227" y="-192.6" font-family="Times,serif" font-size="14.00">KeycloakConsole </text>
</g>
<!-- KeycloakModule&#45;&gt;KeycloakConsole  -->
<g id="edge4" class="edge">
<title>KeycloakModule&#45;&gt;KeycloakConsole </title>
<path fill="none" stroke="black" stroke-dasharray="5,2" d="M272.46,-149.91C272.46,-149.91 272.46,-168.79 272.46,-168.79"/>
<polygon fill="black" stroke="black" points="268.96,-168.79 272.46,-178.79 275.96,-168.79 268.96,-168.79"/>
</g>
<!-- KeycloakAdministrationService -->
<g id="node6" class="node">
<title>KeycloakAdministrationService</title>
<ellipse fill="#fdb462" stroke="black" cx="681" cy="-66.8" rx="135.44" ry="18"/>
<text text-anchor="middle" x="681" y="-62.6" font-family="Times,serif" font-size="14.00">KeycloakAdministrationService</text>
</g>
<!-- KeycloakAdministrationService&#45;&gt;KeycloakModule -->
<g id="edge5" class="edge">
<title>KeycloakAdministrationService&#45;&gt;KeycloakModule</title>
<path fill="none" stroke="black" d="M681,-84.91C681,-104.14 681,-131.8 681,-131.8 681,-131.8 381.79,-131.8 381.79,-131.8"/>
<polygon fill="black" stroke="black" points="381.79,-128.3 371.79,-131.8 381.79,-135.3 381.79,-128.3"/>
</g>
<!-- KeycloakManagementUc -->
<g id="node7" class="node">
<title>KeycloakManagementUc</title>
<ellipse fill="#fdb462" stroke="black" cx="418" cy="-66.8" rx="109.92" ry="18"/>
<text text-anchor="middle" x="418" y="-62.6" font-family="Times,serif" font-size="14.00">KeycloakManagementUc</text>
</g>
<!-- KeycloakManagementUc&#45;&gt;KeycloakModule -->
<g id="edge6" class="edge">
<title>KeycloakManagementUc&#45;&gt;KeycloakModule</title>
<path fill="none" stroke="black" d="M339.94,-79.64C339.94,-79.64 339.94,-103.32 339.94,-103.32"/>
<polygon fill="black" stroke="black" points="336.44,-103.32 339.94,-113.32 343.44,-103.32 336.44,-103.32"/>
</g>
</g>
</svg>
