<?xml version="1.0" encoding="UTF-8" standalone="no"?>
<!DOCTYPE svg PUBLIC "-//W3C//DTD SVG 1.1//EN"
 "http://www.w3.org/Graphics/SVG/1.1/DTD/svg11.dtd">
<!-- Generated by graphviz version 5.0.0 (20220707.1540)
 -->
<!-- Title: dependencies Pages: 1 -->
<svg width="848pt" height="247pt"
 viewBox="0.00 0.00 848.00 246.80" xmlns="http://www.w3.org/2000/svg" xmlns:xlink="http://www.w3.org/1999/xlink">
<g id="graph0" class="graph" transform="scale(1 1) rotate(0) translate(4 242.8)">
<title>dependencies</title>
<polygon fill="white" stroke="transparent" points="-4,4 -4,-242.8 844,-242.8 844,4 -4,4"/>
<text text-anchor="middle" x="420" y="-8.2" font-family="sans-serif" font-size="14.00">dependencies</text>
<g id="clust1" class="cluster">
<title>cluster_KeycloakModule</title>
<polygon fill="none" stroke="black" stroke-dasharray="1,5" points="8,-32.8 8,-230.8 832,-230.8 832,-32.8 8,-32.8"/>
</g>
<g id="clust3" class="cluster">
<title>cluster_KeycloakModule_imports</title>
<polygon fill="none" stroke="black" points="548,-40.8 548,-92.8 824,-92.8 824,-40.8 548,-40.8"/>
</g>
<g id="clust6" class="cluster">
<title>cluster_KeycloakModule_providers</title>
<polygon fill="none" stroke="black" points="16,-40.8 16,-92.8 540,-92.8 540,-40.8 16,-40.8"/>
</g>
<g id="clust4" class="cluster">
<title>cluster_KeycloakModule_exports</title>
<polygon fill="none" stroke="black" points="312,-170.8 312,-222.8 665,-222.8 665,-170.8 312,-170.8"/>
</g>
<!-- ConsoleWriterModule -->
<g id="node1" class="node">
<title>ConsoleWriterModule</title>
<polygon fill="#8dd3c7" stroke="black" points="815.97,-84.8 812.97,-88.8 791.97,-88.8 788.97,-84.8 674.03,-84.8 674.03,-48.8 815.97,-48.8 815.97,-84.8"/>
<text text-anchor="middle" x="745" y="-62.6" font-family="Times,serif" font-size="14.00">ConsoleWriterModule</text>
</g>
<!-- KeycloakModule -->
<g id="node3" class="node">
<title>KeycloakModule</title>
<polygon fill="#8dd3c7" stroke="black" points="524.69,-149.8 521.69,-153.8 500.69,-153.8 497.69,-149.8 411.31,-149.8 411.31,-113.8 524.69,-113.8 524.69,-149.8"/>
<text text-anchor="middle" x="468" y="-127.6" font-family="Times,serif" font-size="14.00">KeycloakModule</text>
</g>
<!-- ConsoleWriterModule&#45;&gt;KeycloakModule -->
<g id="edge1" class="edge">
<title>ConsoleWriterModule&#45;&gt;KeycloakModule</title>
<path fill="none" stroke="black" d="M745,-85.08C745,-106.12 745,-137.8 745,-137.8 745,-137.8 534.72,-137.8 534.72,-137.8"/>
<polygon fill="black" stroke="black" points="534.72,-134.3 524.72,-137.8 534.72,-141.3 534.72,-134.3"/>
</g>
<!-- LoggerModule -->
<g id="node2" class="node">
<title>LoggerModule</title>
<polygon fill="#8dd3c7" stroke="black" points="655.98,-84.8 652.98,-88.8 631.98,-88.8 628.98,-84.8 556.02,-84.8 556.02,-48.8 655.98,-48.8 655.98,-84.8"/>
<text text-anchor="middle" x="606" y="-62.6" font-family="Times,serif" font-size="14.00">LoggerModule</text>
</g>
<!-- LoggerModule&#45;&gt;KeycloakModule -->
<g id="edge2" class="edge">
<title>LoggerModule&#45;&gt;KeycloakModule</title>
<path fill="none" stroke="black" d="M606,-84.82C606,-102.17 606,-125.8 606,-125.8 606,-125.8 534.93,-125.8 534.93,-125.8"/>
<polygon fill="black" stroke="black" points="534.93,-122.3 524.93,-125.8 534.93,-129.3 534.93,-122.3"/>
</g>
<!-- KeycloakAdministrationService  -->
<g id="node4" class="node">
<title>KeycloakAdministrationService </title>
<polygon fill="#fb8072" stroke="black" points="656.89,-214.8 457.11,-214.8 457.11,-178.8 656.89,-178.8 656.89,-214.8"/>
<text text-anchor="middle" x="557" y="-192.6" font-family="Times,serif" font-size="14.00">KeycloakAdministrationService </text>
</g>
<!-- KeycloakModule&#45;&gt;KeycloakAdministrationService  -->
<g id="edge3" class="edge">
<title>KeycloakModule&#45;&gt;KeycloakAdministrationService </title>
<path fill="none" stroke="black" stroke-dasharray="5,2" d="M490.82,-149.91C490.82,-149.91 490.82,-168.79 490.82,-168.79"/>
<polygon fill="black" stroke="black" points="487.33,-168.79 490.82,-178.79 494.33,-168.79 487.33,-168.79"/>
</g>
<!-- KeycloakConsole  -->
<g id="node5" class="node">
<title>KeycloakConsole </title>
<polygon fill="#fb8072" stroke="black" points="439.53,-214.8 320.47,-214.8 320.47,-178.8 439.53,-178.8 439.53,-214.8"/>
<text text-anchor="middle" x="380" y="-192.6" font-family="Times,serif" font-size="14.00">KeycloakConsole </text>
</g>
<!-- KeycloakModule&#45;&gt;KeycloakConsole  -->
<g id="edge4" class="edge">
<title>KeycloakModule&#45;&gt;KeycloakConsole </title>
<path fill="none" stroke="black" stroke-dasharray="5,2" d="M425.46,-149.91C425.46,-149.91 425.46,-168.79 425.46,-168.79"/>
<polygon fill="black" stroke="black" points="421.96,-168.79 425.46,-178.79 428.96,-168.79 421.96,-168.79"/>
</g>
<!-- KeycloakAdministrationService -->
<g id="node6" class="node">
<title>KeycloakAdministrationService</title>
<ellipse fill="#fdb462" stroke="black" cx="397" cy="-66.8" rx="135.44" ry="18"/>
<text text-anchor="middle" x="397" y="-62.6" font-family="Times,serif" font-size="14.00">KeycloakAdministrationService</text>
</g>
<!-- KeycloakAdministrationService&#45;&gt;KeycloakModule -->
<g id="edge5" class="edge">
<title>KeycloakAdministrationService&#45;&gt;KeycloakModule</title>
<path fill="none" stroke="black" d="M468,-82.2C468,-82.2 468,-103.74 468,-103.74"/>
<polygon fill="black" stroke="black" points="464.5,-103.74 468,-113.74 471.5,-103.74 464.5,-103.74"/>
</g>
<!-- KeycloakManagementUc -->
<g id="node7" class="node">
<title>KeycloakManagementUc</title>
<ellipse fill="#fdb462" stroke="black" cx="134" cy="-66.8" rx="109.92" ry="18"/>
<text text-anchor="middle" x="134" y="-62.6" font-family="Times,serif" font-size="14.00">KeycloakManagementUc</text>
</g>
<!-- KeycloakManagementUc&#45;&gt;KeycloakModule -->
<g id="edge6" class="edge">
<title>KeycloakManagementUc&#45;&gt;KeycloakModule</title>
<path fill="none" stroke="black" d="M134,-84.91C134,-104.14 134,-131.8 134,-131.8 134,-131.8 401.34,-131.8 401.34,-131.8"/>
<polygon fill="black" stroke="black" points="401.34,-135.3 411.34,-131.8 401.34,-128.3 401.34,-135.3"/>
</g>
</g>
</svg>
