<?xml version="1.0" encoding="UTF-8" standalone="no"?>
<!DOCTYPE svg PUBLIC "-//W3C//DTD SVG 1.1//EN"
 "http://www.w3.org/Graphics/SVG/1.1/DTD/svg11.dtd">
<!-- Generated by graphviz version 5.0.0 (20220707.1540)
 -->
<!-- Title: dependencies Pages: 1 -->
<svg width="986pt" height="247pt"
 viewBox="0.00 0.00 986.00 246.80" xmlns="http://www.w3.org/2000/svg" xmlns:xlink="http://www.w3.org/1999/xlink">
<g id="graph0" class="graph" transform="scale(1 1) rotate(0) translate(4 242.8)">
<title>dependencies</title>
<polygon fill="white" stroke="transparent" points="-4,4 -4,-242.8 982,-242.8 982,4 -4,4"/>
<text text-anchor="middle" x="489" y="-8.2" font-family="sans-serif" font-size="14.00">dependencies</text>
<g id="clust1" class="cluster">
<title>cluster_KeycloakModule</title>
<polygon fill="none" stroke="black" stroke-dasharray="1,5" points="8,-32.8 8,-230.8 970,-230.8 970,-32.8 8,-32.8"/>
</g>
<g id="clust4" class="cluster">
<title>cluster_KeycloakModule_exports</title>
<polygon fill="none" stroke="black" points="212,-170.8 212,-222.8 565,-222.8 565,-170.8 212,-170.8"/>
</g>
<g id="clust6" class="cluster">
<title>cluster_KeycloakModule_providers</title>
<polygon fill="none" stroke="black" points="300,-40.8 300,-92.8 962,-92.8 962,-40.8 300,-40.8"/>
</g>
<g id="clust3" class="cluster">
<title>cluster_KeycloakModule_imports</title>
<polygon fill="none" stroke="black" points="16,-40.8 16,-92.8 292,-92.8 292,-40.8 16,-40.8"/>
</g>
<!-- ConsoleWriterModule -->
<g id="node1" class="node">
<title>ConsoleWriterModule</title>
<polygon fill="#8dd3c7" stroke="black" points="283.97,-84.8 280.97,-88.8 259.97,-88.8 256.97,-84.8 142.03,-84.8 142.03,-48.8 283.97,-48.8 283.97,-84.8"/>
<text text-anchor="middle" x="213" y="-62.6" font-family="Times,serif" font-size="14.00">ConsoleWriterModule</text>
</g>
<!-- KeycloakModule -->
<g id="node3" class="node">
<title>KeycloakModule</title>
<polygon fill="#8dd3c7" stroke="black" points="424.69,-149.8 421.69,-153.8 400.69,-153.8 397.69,-149.8 311.31,-149.8 311.31,-113.8 424.69,-113.8 424.69,-149.8"/>
<text text-anchor="middle" x="368" y="-127.6" font-family="Times,serif" font-size="14.00">KeycloakModule</text>
</g>
<!-- ConsoleWriterModule&#45;&gt;KeycloakModule -->
<g id="edge1" class="edge">
<title>ConsoleWriterModule&#45;&gt;KeycloakModule</title>
<path fill="none" stroke="black" d="M252.24,-84.82C252.24,-102.17 252.24,-125.8 252.24,-125.8 252.24,-125.8 301.14,-125.8 301.14,-125.8"/>
<polygon fill="black" stroke="black" points="301.14,-129.3 311.14,-125.8 301.14,-122.3 301.14,-129.3"/>
</g>
<!-- LoggerModule -->
<g id="node2" class="node">
<title>LoggerModule</title>
<polygon fill="#8dd3c7" stroke="black" points="123.98,-84.8 120.98,-88.8 99.98,-88.8 96.98,-84.8 24.02,-84.8 24.02,-48.8 123.98,-48.8 123.98,-84.8"/>
<text text-anchor="middle" x="74" y="-62.6" font-family="Times,serif" font-size="14.00">LoggerModule</text>
</g>
<!-- LoggerModule&#45;&gt;KeycloakModule -->
<g id="edge2" class="edge">
<title>LoggerModule&#45;&gt;KeycloakModule</title>
<path fill="none" stroke="black" d="M74,-85.08C74,-106.12 74,-137.8 74,-137.8 74,-137.8 301.31,-137.8 301.31,-137.8"/>
<polygon fill="black" stroke="black" points="301.31,-141.3 311.31,-137.8 301.31,-134.3 301.31,-141.3"/>
</g>
<!-- KeycloakAdministrationService  -->
<g id="node4" class="node">
<title>KeycloakAdministrationService </title>
<polygon fill="#fb8072" stroke="black" points="556.89,-214.8 357.11,-214.8 357.11,-178.8 556.89,-178.8 556.89,-214.8"/>
<text text-anchor="middle" x="457" y="-192.6" font-family="Times,serif" font-size="14.00">KeycloakAdministrationService </text>
</g>
<!-- KeycloakModule&#45;&gt;KeycloakAdministrationService  -->
<g id="edge3" class="edge">
<title>KeycloakModule&#45;&gt;KeycloakAdministrationService </title>
<path fill="none" stroke="black" stroke-dasharray="5,2" d="M390.82,-149.91C390.82,-149.91 390.82,-168.79 390.82,-168.79"/>
<polygon fill="black" stroke="black" points="387.33,-168.79 390.82,-178.79 394.33,-168.79 387.33,-168.79"/>
</g>
<!-- KeycloakConsole  -->
<g id="node5" class="node">
<title>KeycloakConsole </title>
<polygon fill="#fb8072" stroke="black" points="339.53,-214.8 220.47,-214.8 220.47,-178.8 339.53,-178.8 339.53,-214.8"/>
<text text-anchor="middle" x="280" y="-192.6" font-family="Times,serif" font-size="14.00">KeycloakConsole </text>
</g>
<!-- KeycloakModule&#45;&gt;KeycloakConsole  -->
<g id="edge4" class="edge">
<title>KeycloakModule&#45;&gt;KeycloakConsole </title>
<path fill="none" stroke="black" stroke-dasharray="5,2" d="M325.46,-149.91C325.46,-149.91 325.46,-168.79 325.46,-168.79"/>
<polygon fill="black" stroke="black" points="321.96,-168.79 325.46,-178.79 328.96,-168.79 321.96,-168.79"/>
</g>
<!-- KeycloakAdministrationService -->
<g id="node6" class="node">
<title>KeycloakAdministrationService</title>
<ellipse fill="#fdb462" stroke="black" cx="819" cy="-66.8" rx="135.44" ry="18"/>
<text text-anchor="middle" x="819" y="-62.6" font-family="Times,serif" font-size="14.00">KeycloakAdministrationService</text>
</g>
<!-- KeycloakAdministrationService&#45;&gt;KeycloakModule -->
<g id="edge5" class="edge">
<title>KeycloakAdministrationService&#45;&gt;KeycloakModule</title>
<path fill="none" stroke="black" d="M819,-85.08C819,-106.12 819,-137.8 819,-137.8 819,-137.8 434.66,-137.8 434.66,-137.8"/>
<polygon fill="black" stroke="black" points="434.66,-134.3 424.66,-137.8 434.66,-141.3 434.66,-134.3"/>
</g>
<!-- KeycloakManagementUc -->
<g id="node7" class="node">
<title>KeycloakManagementUc</title>
<ellipse fill="#fdb462" stroke="black" cx="556" cy="-66.8" rx="109.92" ry="18"/>
<text text-anchor="middle" x="556" y="-62.6" font-family="Times,serif" font-size="14.00">KeycloakManagementUc</text>
</g>
<!-- KeycloakManagementUc&#45;&gt;KeycloakModule -->
<g id="edge6" class="edge">
<title>KeycloakManagementUc&#45;&gt;KeycloakModule</title>
<path fill="none" stroke="black" d="M501.62,-82.61C501.62,-100.09 501.62,-125.8 501.62,-125.8 501.62,-125.8 434.67,-125.8 434.67,-125.8"/>
<polygon fill="black" stroke="black" points="434.67,-122.3 424.67,-125.8 434.67,-129.3 434.67,-122.3"/>
</g>
<!-- SystemRepo -->
<g id="node8" class="node">
<title>SystemRepo</title>
<ellipse fill="#fdb462" stroke="black" cx="368" cy="-66.8" rx="59.72" ry="18"/>
<text text-anchor="middle" x="368" y="-62.6" font-family="Times,serif" font-size="14.00">SystemRepo</text>
</g>
<!-- SystemRepo&#45;&gt;KeycloakModule -->
<g id="edge7" class="edge">
<title>SystemRepo&#45;&gt;KeycloakModule</title>
<path fill="none" stroke="black" d="M368,-84.91C368,-84.91 368,-103.79 368,-103.79"/>
<polygon fill="black" stroke="black" points="364.5,-103.79 368,-113.79 371.5,-103.79 364.5,-103.79"/>
</g>
</g>
</svg>
