<?xml version="1.0" encoding="UTF-8" standalone="no"?>
<!DOCTYPE svg PUBLIC "-//W3C//DTD SVG 1.1//EN"
 "http://www.w3.org/Graphics/SVG/1.1/DTD/svg11.dtd">
<!-- Generated by graphviz version 5.0.0 (20220707.1540)
 -->
<!-- Title: dependencies Pages: 1 -->
<svg width="1555pt" height="247pt"
 viewBox="0.00 0.00 1555.00 246.80" xmlns="http://www.w3.org/2000/svg" xmlns:xlink="http://www.w3.org/1999/xlink">
<g id="graph0" class="graph" transform="scale(1 1) rotate(0) translate(4 242.8)">
<title>dependencies</title>
<polygon fill="white" stroke="transparent" points="-4,4 -4,-242.8 1551,-242.8 1551,4 -4,4"/>
<text text-anchor="middle" x="773.5" y="-8.2" font-family="sans-serif" font-size="14.00">dependencies</text>
<g id="clust1" class="cluster">
<title>cluster_KeycloakModule</title>
<polygon fill="none" stroke="black" stroke-dasharray="1,5" points="8,-32.8 8,-230.8 1539,-230.8 1539,-32.8 8,-32.8"/>
</g>
<g id="clust4" class="cluster">
<title>cluster_KeycloakModule_exports</title>
<polygon fill="none" stroke="black" points="594,-170.8 594,-222.8 1448,-222.8 1448,-170.8 594,-170.8"/>
</g>
<g id="clust3" class="cluster">
<title>cluster_KeycloakModule_imports</title>
<polygon fill="none" stroke="black" points="1157,-40.8 1157,-92.8 1531,-92.8 1531,-40.8 1157,-40.8"/>
</g>
<g id="clust6" class="cluster">
<title>cluster_KeycloakModule_providers</title>
<polygon fill="none" stroke="black" points="16,-40.8 16,-92.8 1149,-92.8 1149,-40.8 16,-40.8"/>
</g>
<!-- EncryptionModule -->
<g id="node1" class="node">
<title>EncryptionModule</title>
<polygon fill="#8dd3c7" stroke="black" points="1522.76,-84.8 1519.76,-88.8 1498.76,-88.8 1495.76,-84.8 1401.24,-84.8 1401.24,-48.8 1522.76,-48.8 1522.76,-84.8"/>
<text text-anchor="middle" x="1462" y="-62.6" font-family="Times,serif" font-size="14.00">EncryptionModule</text>
</g>
<!-- KeycloakModule -->
<g id="node4" class="node">
<title>KeycloakModule</title>
<polygon fill="#8dd3c7" stroke="black" points="1062.69,-149.8 1059.69,-153.8 1038.69,-153.8 1035.69,-149.8 949.31,-149.8 949.31,-113.8 1062.69,-113.8 1062.69,-149.8"/>
<text text-anchor="middle" x="1006" y="-127.6" font-family="Times,serif" font-size="14.00">KeycloakModule</text>
</g>
<!-- EncryptionModule&#45;&gt;KeycloakModule -->
<g id="edge1" class="edge">
<title>EncryptionModule&#45;&gt;KeycloakModule</title>
<path fill="none" stroke="black" d="M1420.53,-84.93C1420.53,-105.37 1420.53,-135.8 1420.53,-135.8 1420.53,-135.8 1072.77,-135.8 1072.77,-135.8"/>
<polygon fill="black" stroke="black" points="1072.77,-132.3 1062.77,-135.8 1072.77,-139.3 1072.77,-132.3"/>
</g>
<!-- LoggerModule -->
<g id="node2" class="node">
<title>LoggerModule</title>
<polygon fill="#8dd3c7" stroke="black" points="1382.98,-84.8 1379.98,-88.8 1358.98,-88.8 1355.98,-84.8 1283.02,-84.8 1283.02,-48.8 1382.98,-48.8 1382.98,-84.8"/>
<text text-anchor="middle" x="1333" y="-62.6" font-family="Times,serif" font-size="14.00">LoggerModule</text>
</g>
<!-- LoggerModule&#45;&gt;KeycloakModule -->
<g id="edge2" class="edge">
<title>LoggerModule&#45;&gt;KeycloakModule</title>
<path fill="none" stroke="black" d="M1333,-85.07C1333,-103.36 1333,-128.8 1333,-128.8 1333,-128.8 1072.96,-128.8 1072.96,-128.8"/>
<polygon fill="black" stroke="black" points="1072.96,-125.3 1062.96,-128.8 1072.96,-132.3 1072.96,-125.3"/>
</g>
<!-- SystemModule -->
<g id="node3" class="node">
<title>SystemModule</title>
<polygon fill="#8dd3c7" stroke="black" points="1265.28,-84.8 1262.28,-88.8 1241.28,-88.8 1238.28,-84.8 1164.72,-84.8 1164.72,-48.8 1265.28,-48.8 1265.28,-84.8"/>
<text text-anchor="middle" x="1215" y="-62.6" font-family="Times,serif" font-size="14.00">SystemModule</text>
</g>
<!-- SystemModule&#45;&gt;KeycloakModule -->
<g id="edge3" class="edge">
<title>SystemModule&#45;&gt;KeycloakModule</title>
<path fill="none" stroke="black" d="M1193.3,-84.81C1193.3,-100.85 1193.3,-121.8 1193.3,-121.8 1193.3,-121.8 1072.7,-121.8 1072.7,-121.8"/>
<polygon fill="black" stroke="black" points="1072.7,-118.3 1062.7,-121.8 1072.7,-125.3 1072.7,-118.3"/>
</g>
<!-- KeycloakAdministrationService  -->
<g id="node5" class="node">
<title>KeycloakAdministrationService </title>
<polygon fill="#fb8072" stroke="black" points="1439.89,-214.8 1240.11,-214.8 1240.11,-178.8 1439.89,-178.8 1439.89,-214.8"/>
<text text-anchor="middle" x="1340" y="-192.6" font-family="Times,serif" font-size="14.00">KeycloakAdministrationService </text>
</g>
<!-- KeycloakModule&#45;&gt;KeycloakAdministrationService  -->
<g id="edge4" class="edge">
<title>KeycloakModule&#45;&gt;KeycloakAdministrationService </title>
<path fill="none" stroke="black" stroke-dasharray="5,2" d="M1062.6,-142.8C1135.44,-142.8 1252.72,-142.8 1252.72,-142.8 1252.72,-142.8 1252.72,-168.52 1252.72,-168.52"/>
<polygon fill="black" stroke="black" points="1249.22,-168.52 1252.72,-178.52 1256.22,-168.52 1249.22,-168.52"/>
</g>
<!-- KeycloakIdentityManagementOauthService  -->
<g id="node6" class="node">
<title>KeycloakIdentityManagementOauthService </title>
<polygon fill="#fb8072" stroke="black" points="1221.96,-214.8 956.04,-214.8 956.04,-178.8 1221.96,-178.8 1221.96,-214.8"/>
<text text-anchor="middle" x="1089" y="-192.6" font-family="Times,serif" font-size="14.00">KeycloakIdentityManagementOauthService </text>
</g>
<!-- KeycloakModule&#45;&gt;KeycloakIdentityManagementOauthService  -->
<g id="edge5" class="edge">
<title>KeycloakModule&#45;&gt;KeycloakIdentityManagementOauthService </title>
<path fill="none" stroke="black" stroke-dasharray="5,2" d="M1009.31,-149.91C1009.31,-149.91 1009.31,-168.79 1009.31,-168.79"/>
<polygon fill="black" stroke="black" points="1005.81,-168.79 1009.31,-178.79 1012.81,-168.79 1005.81,-168.79"/>
</g>
<!-- KeycloakManagementUc  -->
<g id="node7" class="node">
<title>KeycloakManagementUc </title>
<polygon fill="#fb8072" stroke="black" points="938.05,-214.8 775.95,-214.8 775.95,-178.8 938.05,-178.8 938.05,-214.8"/>
<text text-anchor="middle" x="857" y="-192.6" font-family="Times,serif" font-size="14.00">KeycloakManagementUc </text>
</g>
<!-- KeycloakModule&#45;&gt;KeycloakManagementUc  -->
<g id="edge6" class="edge">
<title>KeycloakModule&#45;&gt;KeycloakManagementUc </title>
<path fill="none" stroke="black" stroke-dasharray="5,2" d="M949.26,-143.8C925.99,-143.8 904.4,-143.8 904.4,-143.8 904.4,-143.8 904.4,-168.56 904.4,-168.56"/>
<polygon fill="black" stroke="black" points="900.9,-168.56 904.4,-178.56 907.9,-168.56 900.9,-168.56"/>
</g>
<!-- KeycloakSystemService  -->
<g id="node8" class="node">
<title>KeycloakSystemService </title>
<polygon fill="#fb8072" stroke="black" points="758.35,-214.8 601.65,-214.8 601.65,-178.8 758.35,-178.8 758.35,-214.8"/>
<text text-anchor="middle" x="680" y="-192.6" font-family="Times,serif" font-size="14.00">KeycloakSystemService </text>
</g>
<!-- KeycloakModule&#45;&gt;KeycloakSystemService  -->
<g id="edge7" class="edge">
<title>KeycloakModule&#45;&gt;KeycloakSystemService </title>
<path fill="none" stroke="black" stroke-dasharray="5,2" d="M949.22,-137.8C855.81,-137.8 680,-137.8 680,-137.8 680,-137.8 680,-168.78 680,-168.78"/>
<polygon fill="black" stroke="black" points="676.5,-168.78 680,-178.78 683.5,-168.78 676.5,-168.78"/>
</g>
<!-- KeycloakAdministrationService -->
<g id="node9" class="node">
<title>KeycloakAdministrationService</title>
<ellipse fill="#fdb462" stroke="black" cx="1006" cy="-66.8" rx="135.44" ry="18"/>
<text text-anchor="middle" x="1006" y="-62.6" font-family="Times,serif" font-size="14.00">KeycloakAdministrationService</text>
</g>
<!-- KeycloakAdministrationService&#45;&gt;KeycloakModule -->
<g id="edge8" class="edge">
<title>KeycloakAdministrationService&#45;&gt;KeycloakModule</title>
<path fill="none" stroke="black" d="M1006,-84.91C1006,-84.91 1006,-103.79 1006,-103.79"/>
<polygon fill="black" stroke="black" points="1002.5,-103.79 1006,-113.79 1009.5,-103.79 1002.5,-103.79"/>
</g>
<!-- KeycloakIdentityManagementOauthService -->
<g id="node10" class="node">
<title>KeycloakIdentityManagementOauthService</title>
<ellipse fill="#fdb462" stroke="black" cx="671" cy="-66.8" rx="181.08" ry="18"/>
<text text-anchor="middle" x="671" y="-62.6" font-family="Times,serif" font-size="14.00">KeycloakIdentityManagementOauthService</text>
</g>
<!-- KeycloakIdentityManagementOauthService&#45;&gt;KeycloakModule -->
<g id="edge9" class="edge">
<title>KeycloakIdentityManagementOauthService&#45;&gt;KeycloakModule</title>
<path fill="none" stroke="black" d="M813.88,-78.04C813.88,-93.6 813.88,-119.8 813.88,-119.8 813.88,-119.8 939.4,-119.8 939.4,-119.8"/>
<polygon fill="black" stroke="black" points="939.4,-123.3 949.4,-119.8 939.4,-116.3 939.4,-123.3"/>
</g>
<!-- KeycloakManagementUc -->
<g id="node11" class="node">
<title>KeycloakManagementUc</title>
<ellipse fill="#fdb462" stroke="black" cx="362" cy="-66.8" rx="109.92" ry="18"/>
<text text-anchor="middle" x="362" y="-62.6" font-family="Times,serif" font-size="14.00">KeycloakManagementUc</text>
</g>
<!-- KeycloakManagementUc&#45;&gt;KeycloakModule -->
<g id="edge10" class="edge">
<title>KeycloakManagementUc&#45;&gt;KeycloakModule</title>
<path fill="none" stroke="black" d="M362,-84.82C362,-102.17 362,-125.8 362,-125.8 362,-125.8 939.13,-125.8 939.13,-125.8"/>
<polygon fill="black" stroke="black" points="939.13,-129.3 949.13,-125.8 939.13,-122.3 939.13,-129.3"/>
</g>
<!-- KeycloakSystemService -->
<g id="node12" class="node">
<title>KeycloakSystemService</title>
<ellipse fill="#fdb462" stroke="black" cx="129" cy="-66.8" rx="105.36" ry="18"/>
<text text-anchor="middle" x="129" y="-62.6" font-family="Times,serif" font-size="14.00">KeycloakSystemService</text>
</g>
<!-- KeycloakSystemService&#45;&gt;KeycloakModule -->
<g id="edge11" class="edge">
<title>KeycloakSystemService&#45;&gt;KeycloakModule</title>
<path fill="none" stroke="black" d="M129,-84.91C129,-104.14 129,-131.8 129,-131.8 129,-131.8 939.13,-131.8 939.13,-131.8"/>
<polygon fill="black" stroke="black" points="939.13,-135.3 949.13,-131.8 939.13,-128.3 939.13,-135.3"/>
</g>
</g>
</svg>
