<?xml version="1.0" encoding="UTF-8" standalone="no"?>
<!DOCTYPE svg PUBLIC "-//W3C//DTD SVG 1.1//EN"
 "http://www.w3.org/Graphics/SVG/1.1/DTD/svg11.dtd">
<!-- Generated by graphviz version 5.0.0 (20220707.1540)
 -->
<!-- Title: dependencies Pages: 1 -->
<svg width="986pt" height="247pt"
 viewBox="0.00 0.00 986.00 246.80" xmlns="http://www.w3.org/2000/svg" xmlns:xlink="http://www.w3.org/1999/xlink">
<g id="graph0" class="graph" transform="scale(1 1) rotate(0) translate(4 242.8)">
<title>dependencies</title>
<polygon fill="white" stroke="transparent" points="-4,4 -4,-242.8 982,-242.8 982,4 -4,4"/>
<text text-anchor="middle" x="489" y="-8.2" font-family="sans-serif" font-size="14.00">dependencies</text>
<g id="clust1" class="cluster">
<title>cluster_KeycloakModule</title>
<polygon fill="none" stroke="black" stroke-dasharray="1,5" points="8,-32.8 8,-230.8 970,-230.8 970,-32.8 8,-32.8"/>
</g>
<g id="clust3" class="cluster">
<title>cluster_KeycloakModule_imports</title>
<polygon fill="none" stroke="black" points="686,-40.8 686,-92.8 962,-92.8 962,-40.8 686,-40.8"/>
</g>
<g id="clust4" class="cluster">
<title>cluster_KeycloakModule_exports</title>
<polygon fill="none" stroke="black" points="379,-170.8 379,-222.8 732,-222.8 732,-170.8 379,-170.8"/>
</g>
<g id="clust6" class="cluster">
<title>cluster_KeycloakModule_providers</title>
<polygon fill="none" stroke="black" points="16,-40.8 16,-92.8 678,-92.8 678,-40.8 16,-40.8"/>
</g>
<!-- ConsoleWriterModule -->
<g id="node1" class="node">
<title>ConsoleWriterModule</title>
<polygon fill="#8dd3c7" stroke="black" points="953.97,-84.8 950.97,-88.8 929.97,-88.8 926.97,-84.8 812.03,-84.8 812.03,-48.8 953.97,-48.8 953.97,-84.8"/>
<text text-anchor="middle" x="883" y="-62.6" font-family="Times,serif" font-size="14.00">ConsoleWriterModule</text>
</g>
<!-- KeycloakModule -->
<g id="node3" class="node">
<title>KeycloakModule</title>
<polygon fill="#8dd3c7" stroke="black" points="591.69,-149.8 588.69,-153.8 567.69,-153.8 564.69,-149.8 478.31,-149.8 478.31,-113.8 591.69,-113.8 591.69,-149.8"/>
<text text-anchor="middle" x="535" y="-127.6" font-family="Times,serif" font-size="14.00">KeycloakModule</text>
</g>
<!-- ConsoleWriterModule&#45;&gt;KeycloakModule -->
<g id="edge1" class="edge">
<title>ConsoleWriterModule&#45;&gt;KeycloakModule</title>
<path fill="none" stroke="black" d="M883,-85.08C883,-106.12 883,-137.8 883,-137.8 883,-137.8 601.69,-137.8 601.69,-137.8"/>
<polygon fill="black" stroke="black" points="601.69,-134.3 591.69,-137.8 601.69,-141.3 601.69,-134.3"/>
</g>
<!-- LoggerModule -->
<g id="node2" class="node">
<title>LoggerModule</title>
<polygon fill="#8dd3c7" stroke="black" points="793.98,-84.8 790.98,-88.8 769.98,-88.8 766.98,-84.8 694.02,-84.8 694.02,-48.8 793.98,-48.8 793.98,-84.8"/>
<text text-anchor="middle" x="744" y="-62.6" font-family="Times,serif" font-size="14.00">LoggerModule</text>
</g>
<!-- LoggerModule&#45;&gt;KeycloakModule -->
<g id="edge2" class="edge">
<title>LoggerModule&#45;&gt;KeycloakModule</title>
<path fill="none" stroke="black" d="M708.98,-84.82C708.98,-102.17 708.98,-125.8 708.98,-125.8 708.98,-125.8 601.97,-125.8 601.97,-125.8"/>
<polygon fill="black" stroke="black" points="601.97,-122.3 591.97,-125.8 601.97,-129.3 601.97,-122.3"/>
</g>
<!-- KeycloakAdministrationService  -->
<g id="node4" class="node">
<title>KeycloakAdministrationService </title>
<polygon fill="#fb8072" stroke="black" points="723.89,-214.8 524.11,-214.8 524.11,-178.8 723.89,-178.8 723.89,-214.8"/>
<text text-anchor="middle" x="624" y="-192.6" font-family="Times,serif" font-size="14.00">KeycloakAdministrationService </text>
</g>
<!-- KeycloakModule&#45;&gt;KeycloakAdministrationService  -->
<g id="edge3" class="edge">
<title>KeycloakModule&#45;&gt;KeycloakAdministrationService </title>
<path fill="none" stroke="black" stroke-dasharray="5,2" d="M557.82,-149.91C557.82,-149.91 557.82,-168.79 557.82,-168.79"/>
<polygon fill="black" stroke="black" points="554.33,-168.79 557.82,-178.79 561.33,-168.79 554.33,-168.79"/>
</g>
<!-- KeycloakConsole  -->
<g id="node5" class="node">
<title>KeycloakConsole </title>
<polygon fill="#fb8072" stroke="black" points="506.53,-214.8 387.47,-214.8 387.47,-178.8 506.53,-178.8 506.53,-214.8"/>
<text text-anchor="middle" x="447" y="-192.6" font-family="Times,serif" font-size="14.00">KeycloakConsole </text>
</g>
<!-- KeycloakModule&#45;&gt;KeycloakConsole  -->
<g id="edge4" class="edge">
<title>KeycloakModule&#45;&gt;KeycloakConsole </title>
<path fill="none" stroke="black" stroke-dasharray="5,2" d="M492.46,-149.91C492.46,-149.91 492.46,-168.79 492.46,-168.79"/>
<polygon fill="black" stroke="black" points="488.96,-168.79 492.46,-178.79 495.96,-168.79 488.96,-168.79"/>
</g>
<!-- KeycloakAdministrationService -->
<g id="node6" class="node">
<title>KeycloakAdministrationService</title>
<ellipse fill="#fdb462" stroke="black" cx="535" cy="-66.8" rx="135.44" ry="18"/>
<text text-anchor="middle" x="535" y="-62.6" font-family="Times,serif" font-size="14.00">KeycloakAdministrationService</text>
</g>
<!-- KeycloakAdministrationService&#45;&gt;KeycloakModule -->
<g id="edge5" class="edge">
<title>KeycloakAdministrationService&#45;&gt;KeycloakModule</title>
<path fill="none" stroke="black" d="M535,-84.91C535,-84.91 535,-103.79 535,-103.79"/>
<polygon fill="black" stroke="black" points="531.5,-103.79 535,-113.79 538.5,-103.79 531.5,-103.79"/>
</g>
<!-- KeycloakManagementUc -->
<g id="node7" class="node">
<title>KeycloakManagementUc</title>
<ellipse fill="#fdb462" stroke="black" cx="272" cy="-66.8" rx="109.92" ry="18"/>
<text text-anchor="middle" x="272" y="-62.6" font-family="Times,serif" font-size="14.00">KeycloakManagementUc</text>
</g>
<!-- KeycloakManagementUc&#45;&gt;KeycloakModule -->
<g id="edge6" class="edge">
<title>KeycloakManagementUc&#45;&gt;KeycloakModule</title>
<path fill="none" stroke="black" d="M272,-84.82C272,-102.17 272,-125.8 272,-125.8 272,-125.8 468.26,-125.8 468.26,-125.8"/>
<polygon fill="black" stroke="black" points="468.26,-129.3 478.26,-125.8 468.26,-122.3 468.26,-129.3"/>
</g>
<!-- SystemRepo -->
<g id="node8" class="node">
<title>SystemRepo</title>
<ellipse fill="#fdb462" stroke="black" cx="84" cy="-66.8" rx="59.72" ry="18"/>
<text text-anchor="middle" x="84" y="-62.6" font-family="Times,serif" font-size="14.00">SystemRepo</text>
</g>
<!-- SystemRepo&#45;&gt;KeycloakModule -->
<g id="edge7" class="edge">
<title>SystemRepo&#45;&gt;KeycloakModule</title>
<path fill="none" stroke="black" d="M84,-85.08C84,-106.12 84,-137.8 84,-137.8 84,-137.8 468.34,-137.8 468.34,-137.8"/>
<polygon fill="black" stroke="black" points="468.34,-141.3 478.34,-137.8 468.34,-134.3 468.34,-141.3"/>
</g>
</g>
</svg>
