<?xml version="1.0" encoding="UTF-8" standalone="no"?>
<!DOCTYPE svg PUBLIC "-//W3C//DTD SVG 1.1//EN"
 "http://www.w3.org/Graphics/SVG/1.1/DTD/svg11.dtd">
<!-- Generated by graphviz version 5.0.0 (20220707.1540)
 -->
<!-- Title: dependencies Pages: 1 -->
<svg width="946pt" height="247pt"
 viewBox="0.00 0.00 946.00 246.80" xmlns="http://www.w3.org/2000/svg" xmlns:xlink="http://www.w3.org/1999/xlink">
<g id="graph0" class="graph" transform="scale(1 1) rotate(0) translate(4 242.8)">
<title>dependencies</title>
<polygon fill="white" stroke="transparent" points="-4,4 -4,-242.8 942,-242.8 942,4 -4,4"/>
<text text-anchor="middle" x="469" y="-8.2" font-family="sans-serif" font-size="14.00">dependencies</text>
<g id="clust1" class="cluster">
<title>cluster_KeycloakModule</title>
<polygon fill="none" stroke="black" stroke-dasharray="1,5" points="8,-32.8 8,-230.8 930,-230.8 930,-32.8 8,-32.8"/>
</g>
<g id="clust4" class="cluster">
<title>cluster_KeycloakModule_exports</title>
<polygon fill="none" stroke="black" points="418,-170.8 418,-222.8 814,-222.8 814,-170.8 418,-170.8"/>
</g>
<g id="clust3" class="cluster">
<title>cluster_KeycloakModule_imports</title>
<polygon fill="none" stroke="black" points="548,-40.8 548,-92.8 922,-92.8 922,-40.8 548,-40.8"/>
</g>
<g id="clust6" class="cluster">
<title>cluster_KeycloakModule_providers</title>
<polygon fill="none" stroke="black" points="16,-40.8 16,-92.8 540,-92.8 540,-40.8 16,-40.8"/>
</g>
<!-- EncryptionModule -->
<g id="node1" class="node">
<title>EncryptionModule</title>
<polygon fill="#8dd3c7" stroke="black" points="913.76,-84.8 910.76,-88.8 889.76,-88.8 886.76,-84.8 792.24,-84.8 792.24,-48.8 913.76,-48.8 913.76,-84.8"/>
<text text-anchor="middle" x="853" y="-62.6" font-family="Times,serif" font-size="14.00">EncryptionModule</text>
</g>
<!-- KeycloakModule -->
<g id="node4" class="node">
<title>KeycloakModule</title>
<polygon fill="#8dd3c7" stroke="black" points="662.69,-149.8 659.69,-153.8 638.69,-153.8 635.69,-149.8 549.31,-149.8 549.31,-113.8 662.69,-113.8 662.69,-149.8"/>
<text text-anchor="middle" x="606" y="-127.6" font-family="Times,serif" font-size="14.00">KeycloakModule</text>
</g>
<!-- EncryptionModule&#45;&gt;KeycloakModule -->
<g id="edge1" class="edge">
<title>EncryptionModule&#45;&gt;KeycloakModule</title>
<path fill="none" stroke="black" d="M799.03,-85.08C799.03,-106.12 799.03,-137.8 799.03,-137.8 799.03,-137.8 672.61,-137.8 672.61,-137.8"/>
<polygon fill="black" stroke="black" points="672.61,-134.3 662.61,-137.8 672.61,-141.3 672.61,-134.3"/>
</g>
<!-- LoggerModule -->
<g id="node2" class="node">
<title>LoggerModule</title>
<polygon fill="#8dd3c7" stroke="black" points="773.98,-84.8 770.98,-88.8 749.98,-88.8 746.98,-84.8 674.02,-84.8 674.02,-48.8 773.98,-48.8 773.98,-84.8"/>
<text text-anchor="middle" x="724" y="-62.6" font-family="Times,serif" font-size="14.00">LoggerModule</text>
</g>
<!-- LoggerModule&#45;&gt;KeycloakModule -->
<g id="edge2" class="edge">
<title>LoggerModule&#45;&gt;KeycloakModule</title>
<path fill="none" stroke="black" d="M724,-84.82C724,-102.17 724,-125.8 724,-125.8 724,-125.8 672.93,-125.8 672.93,-125.8"/>
<polygon fill="black" stroke="black" points="672.93,-122.3 662.93,-125.8 672.93,-129.3 672.93,-122.3"/>
</g>
<!-- SystemModule -->
<g id="node3" class="node">
<title>SystemModule</title>
<polygon fill="#8dd3c7" stroke="black" points="656.28,-84.8 653.28,-88.8 632.28,-88.8 629.28,-84.8 555.72,-84.8 555.72,-48.8 656.28,-48.8 656.28,-84.8"/>
<text text-anchor="middle" x="606" y="-62.6" font-family="Times,serif" font-size="14.00">SystemModule</text>
</g>
<!-- SystemModule&#45;&gt;KeycloakModule -->
<g id="edge3" class="edge">
<title>SystemModule&#45;&gt;KeycloakModule</title>
<path fill="none" stroke="black" d="M606,-84.91C606,-84.91 606,-103.79 606,-103.79"/>
<polygon fill="black" stroke="black" points="602.5,-103.79 606,-113.79 609.5,-103.79 602.5,-103.79"/>
</g>
<!-- KeycloakAdministrationService  -->
<g id="node5" class="node">
<title>KeycloakAdministrationService </title>
<polygon fill="#fb8072" stroke="black" points="805.89,-214.8 606.11,-214.8 606.11,-178.8 805.89,-178.8 805.89,-214.8"/>
<text text-anchor="middle" x="706" y="-192.6" font-family="Times,serif" font-size="14.00">KeycloakAdministrationService </text>
</g>
<!-- KeycloakModule&#45;&gt;KeycloakAdministrationService  -->
<g id="edge4" class="edge">
<title>KeycloakModule&#45;&gt;KeycloakAdministrationService </title>
<path fill="none" stroke="black" stroke-dasharray="5,2" d="M634.32,-149.91C634.32,-149.91 634.32,-168.79 634.32,-168.79"/>
<polygon fill="black" stroke="black" points="630.83,-168.79 634.32,-178.79 637.83,-168.79 630.83,-168.79"/>
</g>
<!-- KeycloakManagementUc  -->
<g id="node6" class="node">
<title>KeycloakManagementUc </title>
<polygon fill="#fb8072" stroke="black" points="588.05,-214.8 425.95,-214.8 425.95,-178.8 588.05,-178.8 588.05,-214.8"/>
<text text-anchor="middle" x="507" y="-192.6" font-family="Times,serif" font-size="14.00">KeycloakManagementUc </text>
</g>
<!-- KeycloakModule&#45;&gt;KeycloakManagementUc  -->
<g id="edge5" class="edge">
<title>KeycloakModule&#45;&gt;KeycloakManagementUc </title>
<path fill="none" stroke="black" stroke-dasharray="5,2" d="M568.84,-149.91C568.84,-149.91 568.84,-168.79 568.84,-168.79"/>
<polygon fill="black" stroke="black" points="565.34,-168.79 568.84,-178.79 572.34,-168.79 565.34,-168.79"/>
</g>
<!-- KeycloakAdministrationService -->
<g id="node7" class="node">
<title>KeycloakAdministrationService</title>
<ellipse fill="#fdb462" stroke="black" cx="397" cy="-66.8" rx="135.44" ry="18"/>
<text text-anchor="middle" x="397" y="-62.6" font-family="Times,serif" font-size="14.00">KeycloakAdministrationService</text>
</g>
<!-- KeycloakAdministrationService&#45;&gt;KeycloakModule -->
<g id="edge6" class="edge">
<title>KeycloakAdministrationService&#45;&gt;KeycloakModule</title>
<path fill="none" stroke="black" d="M479.1,-81.38C479.1,-98.86 479.1,-125.8 479.1,-125.8 479.1,-125.8 539.23,-125.8 539.23,-125.8"/>
<polygon fill="black" stroke="black" points="539.23,-129.3 549.23,-125.8 539.23,-122.3 539.23,-129.3"/>
</g>
<!-- KeycloakManagementUc -->
<g id="node8" class="node">
<title>KeycloakManagementUc</title>
<ellipse fill="#fdb462" stroke="black" cx="134" cy="-66.8" rx="109.92" ry="18"/>
<text text-anchor="middle" x="134" y="-62.6" font-family="Times,serif" font-size="14.00">KeycloakManagementUc</text>
</g>
<!-- KeycloakManagementUc&#45;&gt;KeycloakModule -->
<g id="edge7" class="edge">
<title>KeycloakManagementUc&#45;&gt;KeycloakModule</title>
<path fill="none" stroke="black" d="M134,-85.08C134,-106.12 134,-137.8 134,-137.8 134,-137.8 539.07,-137.8 539.07,-137.8"/>
<polygon fill="black" stroke="black" points="539.07,-141.3 549.07,-137.8 539.07,-134.3 539.07,-141.3"/>
</g>
</g>
</svg>
