<?xml version="1.0" encoding="UTF-8" standalone="no"?>
<!DOCTYPE svg PUBLIC "-//W3C//DTD SVG 1.1//EN"
 "http://www.w3.org/Graphics/SVG/1.1/DTD/svg11.dtd">
<!-- Generated by graphviz version 5.0.0 (20220707.1540)
 -->
<!-- Title: dependencies Pages: 1 -->
<svg width="826pt" height="247pt"
 viewBox="0.00 0.00 826.00 246.80" xmlns="http://www.w3.org/2000/svg" xmlns:xlink="http://www.w3.org/1999/xlink">
<g id="graph0" class="graph" transform="scale(1 1) rotate(0) translate(4 242.8)">
<title>dependencies</title>
<polygon fill="white" stroke="transparent" points="-4,4 -4,-242.8 822,-242.8 822,4 -4,4"/>
<text text-anchor="middle" x="409" y="-8.2" font-family="sans-serif" font-size="14.00">dependencies</text>
<g id="clust1" class="cluster">
<title>cluster_KeycloakModule</title>
<polygon fill="none" stroke="black" stroke-dasharray="1,5" points="8,-32.8 8,-230.8 810,-230.8 810,-32.8 8,-32.8"/>
</g>
<g id="clust3" class="cluster">
<title>cluster_KeycloakModule_imports</title>
<polygon fill="none" stroke="black" points="686,-40.8 686,-92.8 802,-92.8 802,-40.8 686,-40.8"/>
</g>
<g id="clust6" class="cluster">
<title>cluster_KeycloakModule_providers</title>
<polygon fill="none" stroke="black" points="16,-40.8 16,-92.8 678,-92.8 678,-40.8 16,-40.8"/>
</g>
<g id="clust4" class="cluster">
<title>cluster_KeycloakModule_exports</title>
<polygon fill="none" stroke="black" points="195,-170.8 195,-222.8 591,-222.8 591,-170.8 195,-170.8"/>
</g>
<!-- LoggerModule -->
<g id="node1" class="node">
<title>LoggerModule</title>
<polygon fill="#8dd3c7" stroke="black" points="793.98,-84.8 790.98,-88.8 769.98,-88.8 766.98,-84.8 694.02,-84.8 694.02,-48.8 793.98,-48.8 793.98,-84.8"/>
<text text-anchor="middle" x="744" y="-62.6" font-family="Times,serif" font-size="14.00">LoggerModule</text>
</g>
<!-- KeycloakModule -->
<g id="node2" class="node">
<title>KeycloakModule</title>
<polygon fill="#8dd3c7" stroke="black" points="439.69,-149.8 436.69,-153.8 415.69,-153.8 412.69,-149.8 326.31,-149.8 326.31,-113.8 439.69,-113.8 439.69,-149.8"/>
<text text-anchor="middle" x="383" y="-127.6" font-family="Times,serif" font-size="14.00">KeycloakModule</text>
</g>
<!-- LoggerModule&#45;&gt;KeycloakModule -->
<g id="edge1" class="edge">
<title>LoggerModule&#45;&gt;KeycloakModule</title>
<path fill="none" stroke="black" d="M744,-84.91C744,-104.14 744,-131.8 744,-131.8 744,-131.8 449.8,-131.8 449.8,-131.8"/>
<polygon fill="black" stroke="black" points="449.8,-128.3 439.8,-131.8 449.8,-135.3 449.8,-128.3"/>
</g>
<!-- KeycloakAdministrationService  -->
<g id="node3" class="node">
<title>KeycloakAdministrationService </title>
<polygon fill="#fb8072" stroke="black" points="582.89,-214.8 383.11,-214.8 383.11,-178.8 582.89,-178.8 582.89,-214.8"/>
<text text-anchor="middle" x="483" y="-192.6" font-family="Times,serif" font-size="14.00">KeycloakAdministrationService </text>
</g>
<!-- KeycloakModule&#45;&gt;KeycloakAdministrationService  -->
<g id="edge2" class="edge">
<title>KeycloakModule&#45;&gt;KeycloakAdministrationService </title>
<path fill="none" stroke="black" stroke-dasharray="5,2" d="M411.32,-149.91C411.32,-149.91 411.32,-168.79 411.32,-168.79"/>
<polygon fill="black" stroke="black" points="407.83,-168.79 411.32,-178.79 414.83,-168.79 407.83,-168.79"/>
</g>
<!-- KeycloakManagementUc  -->
<g id="node4" class="node">
<title>KeycloakManagementUc </title>
<polygon fill="#fb8072" stroke="black" points="365.05,-214.8 202.95,-214.8 202.95,-178.8 365.05,-178.8 365.05,-214.8"/>
<text text-anchor="middle" x="284" y="-192.6" font-family="Times,serif" font-size="14.00">KeycloakManagementUc </text>
</g>
<!-- KeycloakModule&#45;&gt;KeycloakManagementUc  -->
<g id="edge3" class="edge">
<title>KeycloakModule&#45;&gt;KeycloakManagementUc </title>
<path fill="none" stroke="black" stroke-dasharray="5,2" d="M345.84,-149.91C345.84,-149.91 345.84,-168.79 345.84,-168.79"/>
<polygon fill="black" stroke="black" points="342.34,-168.79 345.84,-178.79 349.34,-168.79 342.34,-168.79"/>
</g>
<!-- KeycloakAdministrationService -->
<g id="node5" class="node">
<title>KeycloakAdministrationService</title>
<ellipse fill="#fdb462" stroke="black" cx="535" cy="-66.8" rx="135.44" ry="18"/>
<text text-anchor="middle" x="535" y="-62.6" font-family="Times,serif" font-size="14.00">KeycloakAdministrationService</text>
</g>
<!-- KeycloakAdministrationService&#45;&gt;KeycloakModule -->
<g id="edge4" class="edge">
<title>KeycloakAdministrationService&#45;&gt;KeycloakModule</title>
<path fill="none" stroke="black" d="M419.56,-76.39C419.56,-76.39 419.56,-103.55 419.56,-103.55"/>
<polygon fill="black" stroke="black" points="416.06,-103.55 419.56,-113.55 423.06,-103.55 416.06,-103.55"/>
</g>
<!-- KeycloakManagementUc -->
<g id="node6" class="node">
<title>KeycloakManagementUc</title>
<ellipse fill="#fdb462" stroke="black" cx="272" cy="-66.8" rx="109.92" ry="18"/>
<text text-anchor="middle" x="272" y="-62.6" font-family="Times,serif" font-size="14.00">KeycloakManagementUc</text>
</g>
<!-- KeycloakManagementUc&#45;&gt;KeycloakModule -->
<g id="edge5" class="edge">
<title>KeycloakManagementUc&#45;&gt;KeycloakModule</title>
<path fill="none" stroke="black" d="M354.06,-79.03C354.06,-79.03 354.06,-103.48 354.06,-103.48"/>
<polygon fill="black" stroke="black" points="350.56,-103.48 354.06,-113.48 357.56,-103.48 350.56,-103.48"/>
</g>
<!-- SystemRepo -->
<g id="node7" class="node">
<title>SystemRepo</title>
<ellipse fill="#fdb462" stroke="black" cx="84" cy="-66.8" rx="59.72" ry="18"/>
<text text-anchor="middle" x="84" y="-62.6" font-family="Times,serif" font-size="14.00">SystemRepo</text>
</g>
<!-- SystemRepo&#45;&gt;KeycloakModule -->
<g id="edge6" class="edge">
<title>SystemRepo&#45;&gt;KeycloakModule</title>
<path fill="none" stroke="black" d="M84,-84.91C84,-104.14 84,-131.8 84,-131.8 84,-131.8 316.06,-131.8 316.06,-131.8"/>
<polygon fill="black" stroke="black" points="316.06,-135.3 326.06,-131.8 316.06,-128.3 316.06,-135.3"/>
</g>
</g>
</svg>
