<?xml version="1.0" encoding="UTF-8" standalone="no"?>
<!DOCTYPE svg PUBLIC "-//W3C//DTD SVG 1.1//EN"
 "http://www.w3.org/Graphics/SVG/1.1/DTD/svg11.dtd">
<!-- Generated by graphviz version 5.0.0 (20220707.1540)
 -->
<!-- Title: dependencies Pages: 1 -->
<svg width="1555pt" height="247pt"
 viewBox="0.00 0.00 1555.00 246.80" xmlns="http://www.w3.org/2000/svg" xmlns:xlink="http://www.w3.org/1999/xlink">
<g id="graph0" class="graph" transform="scale(1 1) rotate(0) translate(4 242.8)">
<title>dependencies</title>
<polygon fill="white" stroke="transparent" points="-4,4 -4,-242.8 1551,-242.8 1551,4 -4,4"/>
<text text-anchor="middle" x="773.5" y="-8.2" font-family="sans-serif" font-size="14.00">dependencies</text>
<g id="clust1" class="cluster">
<title>cluster_KeycloakModule</title>
<polygon fill="none" stroke="black" stroke-dasharray="1,5" points="8,-32.8 8,-230.8 1539,-230.8 1539,-32.8 8,-32.8"/>
</g>
<g id="clust6" class="cluster">
<title>cluster_KeycloakModule_providers</title>
<polygon fill="none" stroke="black" points="398,-40.8 398,-92.8 1531,-92.8 1531,-40.8 398,-40.8"/>
</g>
<g id="clust4" class="cluster">
<title>cluster_KeycloakModule_exports</title>
<polygon fill="none" stroke="black" points="132,-170.8 132,-222.8 986,-222.8 986,-170.8 132,-170.8"/>
</g>
<g id="clust3" class="cluster">
<title>cluster_KeycloakModule_imports</title>
<polygon fill="none" stroke="black" points="16,-40.8 16,-92.8 390,-92.8 390,-40.8 16,-40.8"/>
</g>
<!-- EncryptionModule -->
<g id="node1" class="node">
<title>EncryptionModule</title>
<polygon fill="#8dd3c7" stroke="black" points="381.76,-84.8 378.76,-88.8 357.76,-88.8 354.76,-84.8 260.24,-84.8 260.24,-48.8 381.76,-48.8 381.76,-84.8"/>
<text text-anchor="middle" x="321" y="-62.6" font-family="Times,serif" font-size="14.00">EncryptionModule</text>
</g>
<!-- KeycloakModule -->
<g id="node4" class="node">
<title>KeycloakModule</title>
<polygon fill="#8dd3c7" stroke="black" points="567.69,-149.8 564.69,-153.8 543.69,-153.8 540.69,-149.8 454.31,-149.8 454.31,-113.8 567.69,-113.8 567.69,-149.8"/>
<text text-anchor="middle" x="511" y="-127.6" font-family="Times,serif" font-size="14.00">KeycloakModule</text>
</g>
<!-- EncryptionModule&#45;&gt;KeycloakModule -->
<g id="edge1" class="edge">
<title>EncryptionModule&#45;&gt;KeycloakModule</title>
<path fill="none" stroke="black" d="M347.8,-84.81C347.8,-100.85 347.8,-121.8 347.8,-121.8 347.8,-121.8 444.38,-121.8 444.38,-121.8"/>
<polygon fill="black" stroke="black" points="444.38,-125.3 454.38,-121.8 444.38,-118.3 444.38,-125.3"/>
</g>
<!-- LoggerModule -->
<g id="node2" class="node">
<title>LoggerModule</title>
<polygon fill="#8dd3c7" stroke="black" points="241.98,-84.8 238.98,-88.8 217.98,-88.8 214.98,-84.8 142.02,-84.8 142.02,-48.8 241.98,-48.8 241.98,-84.8"/>
<text text-anchor="middle" x="192" y="-62.6" font-family="Times,serif" font-size="14.00">LoggerModule</text>
</g>
<!-- LoggerModule&#45;&gt;KeycloakModule -->
<g id="edge2" class="edge">
<title>LoggerModule&#45;&gt;KeycloakModule</title>
<path fill="none" stroke="black" d="M192,-85.07C192,-103.36 192,-128.8 192,-128.8 192,-128.8 444.34,-128.8 444.34,-128.8"/>
<polygon fill="black" stroke="black" points="444.34,-132.3 454.34,-128.8 444.34,-125.3 444.34,-132.3"/>
</g>
<!-- SystemModule -->
<g id="node3" class="node">
<title>SystemModule</title>
<polygon fill="#8dd3c7" stroke="black" points="124.28,-84.8 121.28,-88.8 100.28,-88.8 97.28,-84.8 23.72,-84.8 23.72,-48.8 124.28,-48.8 124.28,-84.8"/>
<text text-anchor="middle" x="74" y="-62.6" font-family="Times,serif" font-size="14.00">SystemModule</text>
</g>
<!-- SystemModule&#45;&gt;KeycloakModule -->
<g id="edge3" class="edge">
<title>SystemModule&#45;&gt;KeycloakModule</title>
<path fill="none" stroke="black" d="M74,-84.93C74,-105.37 74,-135.8 74,-135.8 74,-135.8 444.32,-135.8 444.32,-135.8"/>
<polygon fill="black" stroke="black" points="444.32,-139.3 454.32,-135.8 444.32,-132.3 444.32,-139.3"/>
</g>
<!-- KeycloakAdministrationService  -->
<g id="node5" class="node">
<title>KeycloakAdministrationService </title>
<polygon fill="#fb8072" stroke="black" points="977.89,-214.8 778.11,-214.8 778.11,-178.8 977.89,-178.8 977.89,-214.8"/>
<text text-anchor="middle" x="878" y="-192.6" font-family="Times,serif" font-size="14.00">KeycloakAdministrationService </text>
</g>
<!-- KeycloakModule&#45;&gt;KeycloakAdministrationService  -->
<g id="edge4" class="edge">
<title>KeycloakModule&#45;&gt;KeycloakAdministrationService </title>
<path fill="none" stroke="black" stroke-dasharray="5,2" d="M567.63,-142.8C655.8,-142.8 815.88,-142.8 815.88,-142.8 815.88,-142.8 815.88,-168.52 815.88,-168.52"/>
<polygon fill="black" stroke="black" points="812.38,-168.52 815.88,-178.52 819.38,-168.52 812.38,-168.52"/>
</g>
<!-- KeycloakIdentityManagementOauthService  -->
<g id="node6" class="node">
<title>KeycloakIdentityManagementOauthService </title>
<polygon fill="#fb8072" stroke="black" points="759.96,-214.8 494.04,-214.8 494.04,-178.8 759.96,-178.8 759.96,-214.8"/>
<text text-anchor="middle" x="627" y="-192.6" font-family="Times,serif" font-size="14.00">KeycloakIdentityManagementOauthService </text>
</g>
<!-- KeycloakModule&#45;&gt;KeycloakIdentityManagementOauthService  -->
<g id="edge5" class="edge">
<title>KeycloakModule&#45;&gt;KeycloakIdentityManagementOauthService </title>
<path fill="none" stroke="black" stroke-dasharray="5,2" d="M530.81,-149.91C530.81,-149.91 530.81,-168.79 530.81,-168.79"/>
<polygon fill="black" stroke="black" points="527.31,-168.79 530.81,-178.79 534.31,-168.79 527.31,-168.79"/>
</g>
<!-- KeycloakManagementUc  -->
<g id="node7" class="node">
<title>KeycloakManagementUc </title>
<polygon fill="#fb8072" stroke="black" points="476.05,-214.8 313.95,-214.8 313.95,-178.8 476.05,-178.8 476.05,-214.8"/>
<text text-anchor="middle" x="395" y="-192.6" font-family="Times,serif" font-size="14.00">KeycloakManagementUc </text>
</g>
<!-- KeycloakModule&#45;&gt;KeycloakManagementUc  -->
<g id="edge6" class="edge">
<title>KeycloakModule&#45;&gt;KeycloakManagementUc </title>
<path fill="none" stroke="black" stroke-dasharray="5,2" d="M465.34,-149.91C465.34,-149.91 465.34,-168.79 465.34,-168.79"/>
<polygon fill="black" stroke="black" points="461.84,-168.79 465.34,-178.79 468.84,-168.79 461.84,-168.79"/>
</g>
<!-- KeycloakSystemService  -->
<g id="node8" class="node">
<title>KeycloakSystemService </title>
<polygon fill="#fb8072" stroke="black" points="296.35,-214.8 139.65,-214.8 139.65,-178.8 296.35,-178.8 296.35,-214.8"/>
<text text-anchor="middle" x="218" y="-192.6" font-family="Times,serif" font-size="14.00">KeycloakSystemService </text>
</g>
<!-- KeycloakModule&#45;&gt;KeycloakSystemService  -->
<g id="edge7" class="edge">
<title>KeycloakModule&#45;&gt;KeycloakSystemService </title>
<path fill="none" stroke="black" stroke-dasharray="5,2" d="M454.34,-142.8C385.41,-142.8 278.15,-142.8 278.15,-142.8 278.15,-142.8 278.15,-168.52 278.15,-168.52"/>
<polygon fill="black" stroke="black" points="274.65,-168.52 278.15,-178.52 281.65,-168.52 274.65,-168.52"/>
</g>
<!-- KeycloakAdministrationService -->
<g id="node9" class="node">
<title>KeycloakAdministrationService</title>
<ellipse fill="#fdb462" stroke="black" cx="1388" cy="-66.8" rx="135.44" ry="18"/>
<text text-anchor="middle" x="1388" y="-62.6" font-family="Times,serif" font-size="14.00">KeycloakAdministrationService</text>
</g>
<!-- KeycloakAdministrationService&#45;&gt;KeycloakModule -->
<g id="edge8" class="edge">
<title>KeycloakAdministrationService&#45;&gt;KeycloakModule</title>
<path fill="none" stroke="black" d="M1388,-84.93C1388,-105.37 1388,-135.8 1388,-135.8 1388,-135.8 577.87,-135.8 577.87,-135.8"/>
<polygon fill="black" stroke="black" points="577.87,-132.3 567.87,-135.8 577.87,-139.3 577.87,-132.3"/>
</g>
<!-- KeycloakIdentityManagementOauthService -->
<g id="node10" class="node">
<title>KeycloakIdentityManagementOauthService</title>
<ellipse fill="#fdb462" stroke="black" cx="1053" cy="-66.8" rx="181.08" ry="18"/>
<text text-anchor="middle" x="1053" y="-62.6" font-family="Times,serif" font-size="14.00">KeycloakIdentityManagementOauthService</text>
</g>
<!-- KeycloakIdentityManagementOauthService&#45;&gt;KeycloakModule -->
<g id="edge9" class="edge">
<title>KeycloakIdentityManagementOauthService&#45;&gt;KeycloakModule</title>
<path fill="none" stroke="black" d="M924.95,-79.65C924.95,-97.81 924.95,-128.8 924.95,-128.8 924.95,-128.8 577.69,-128.8 577.69,-128.8"/>
<polygon fill="black" stroke="black" points="577.69,-125.3 567.69,-128.8 577.69,-132.3 577.69,-125.3"/>
</g>
<!-- KeycloakManagementUc -->
<g id="node11" class="node">
<title>KeycloakManagementUc</title>
<ellipse fill="#fdb462" stroke="black" cx="744" cy="-66.8" rx="109.92" ry="18"/>
<text text-anchor="middle" x="744" y="-62.6" font-family="Times,serif" font-size="14.00">KeycloakManagementUc</text>
</g>
<!-- KeycloakManagementUc&#45;&gt;KeycloakModule -->
<g id="edge10" class="edge">
<title>KeycloakManagementUc&#45;&gt;KeycloakModule</title>
<path fill="none" stroke="black" d="M697.14,-83.3C697.14,-99.5 697.14,-121.8 697.14,-121.8 697.14,-121.8 577.61,-121.8 577.61,-121.8"/>
<polygon fill="black" stroke="black" points="577.61,-118.3 567.61,-121.8 577.61,-125.3 577.61,-118.3"/>
</g>
<!-- KeycloakSystemService -->
<g id="node12" class="node">
<title>KeycloakSystemService</title>
<ellipse fill="#fdb462" stroke="black" cx="511" cy="-66.8" rx="105.36" ry="18"/>
<text text-anchor="middle" x="511" y="-62.6" font-family="Times,serif" font-size="14.00">KeycloakSystemService</text>
</g>
<!-- KeycloakSystemService&#45;&gt;KeycloakModule -->
<g id="edge11" class="edge">
<title>KeycloakSystemService&#45;&gt;KeycloakModule</title>
<path fill="none" stroke="black" d="M511,-84.91C511,-84.91 511,-103.79 511,-103.79"/>
<polygon fill="black" stroke="black" points="507.5,-103.79 511,-113.79 514.5,-103.79 507.5,-103.79"/>
</g>
</g>
</svg>
