<?xml version="1.0" encoding="UTF-8" standalone="no"?>
<!DOCTYPE svg PUBLIC "-//W3C//DTD SVG 1.1//EN"
 "http://www.w3.org/Graphics/SVG/1.1/DTD/svg11.dtd">
<!-- Generated by graphviz version 5.0.0 (20220707.1540)
 -->
<!-- Title: dependencies Pages: 1 -->
<svg width="1321pt" height="247pt"
 viewBox="0.00 0.00 1321.00 246.80" xmlns="http://www.w3.org/2000/svg" xmlns:xlink="http://www.w3.org/1999/xlink">
<g id="graph0" class="graph" transform="scale(1 1) rotate(0) translate(4 242.8)">
<title>dependencies</title>
<polygon fill="white" stroke="transparent" points="-4,4 -4,-242.8 1317,-242.8 1317,4 -4,4"/>
<text text-anchor="middle" x="656.5" y="-8.2" font-family="sans-serif" font-size="14.00">dependencies</text>
<g id="clust1" class="cluster">
<title>cluster_KeycloakConfigurationModule</title>
<polygon fill="none" stroke="black" stroke-dasharray="1,5" points="8,-32.8 8,-230.8 1305,-230.8 1305,-32.8 8,-32.8"/>
</g>
<g id="clust4" class="cluster">
<title>cluster_KeycloakConfigurationModule_exports</title>
<polygon fill="none" stroke="black" points="495,-170.8 495,-222.8 1002,-222.8 1002,-170.8 495,-170.8"/>
</g>
<g id="clust3" class="cluster">
<title>cluster_KeycloakConfigurationModule_imports</title>
<polygon fill="none" stroke="black" points="547,-40.8 547,-92.8 1297,-92.8 1297,-40.8 547,-40.8"/>
</g>
<g id="clust6" class="cluster">
<title>cluster_KeycloakConfigurationModule_providers</title>
<polygon fill="none" stroke="black" points="16,-40.8 16,-92.8 539,-92.8 539,-40.8 16,-40.8"/>
</g>
<!-- ConsoleWriterModule -->
<g id="node1" class="node">
<title>ConsoleWriterModule</title>
<polygon fill="#8dd3c7" stroke="black" points="1288.97,-84.8 1285.97,-88.8 1264.97,-88.8 1261.97,-84.8 1147.03,-84.8 1147.03,-48.8 1288.97,-48.8 1288.97,-84.8"/>
<text text-anchor="middle" x="1218" y="-62.6" font-family="Times,serif" font-size="14.00">ConsoleWriterModule</text>
</g>
<!-- KeycloakConfigurationModule -->
<g id="node6" class="node">
<title>KeycloakConfigurationModule</title>
<polygon fill="#8dd3c7" stroke="black" points="818.74,-149.8 815.74,-153.8 794.74,-153.8 791.74,-149.8 627.26,-149.8 627.26,-113.8 818.74,-113.8 818.74,-149.8"/>
<text text-anchor="middle" x="723" y="-127.6" font-family="Times,serif" font-size="14.00">KeycloakConfigurationModule</text>
</g>
<!-- ConsoleWriterModule&#45;&gt;KeycloakConfigurationModule -->
<g id="edge1" class="edge">
<title>ConsoleWriterModule&#45;&gt;KeycloakConfigurationModule</title>
<path fill="none" stroke="black" d="M1218,-85.08C1218,-106.12 1218,-137.8 1218,-137.8 1218,-137.8 829.03,-137.8 829.03,-137.8"/>
<polygon fill="black" stroke="black" points="829.03,-134.3 819.03,-137.8 829.03,-141.3 829.03,-134.3"/>
</g>
<!-- EncryptionModule -->
<g id="node2" class="node">
<title>EncryptionModule</title>
<polygon fill="#8dd3c7" stroke="black" points="1128.76,-84.8 1125.76,-88.8 1104.76,-88.8 1101.76,-84.8 1007.24,-84.8 1007.24,-48.8 1128.76,-48.8 1128.76,-84.8"/>
<text text-anchor="middle" x="1068" y="-62.6" font-family="Times,serif" font-size="14.00">EncryptionModule</text>
</g>
<!-- EncryptionModule&#45;&gt;KeycloakConfigurationModule -->
<g id="edge2" class="edge">
<title>EncryptionModule&#45;&gt;KeycloakConfigurationModule</title>
<path fill="none" stroke="black" d="M1068,-84.82C1068,-102.17 1068,-125.8 1068,-125.8 1068,-125.8 829.1,-125.8 829.1,-125.8"/>
<polygon fill="black" stroke="black" points="829.1,-122.3 819.1,-125.8 829.1,-129.3 829.1,-122.3"/>
</g>
<!-- KeycloakAdministrationModule -->
<g id="node3" class="node">
<title>KeycloakAdministrationModule</title>
<polygon fill="#8dd3c7" stroke="black" points="988.97,-84.8 985.97,-88.8 964.97,-88.8 961.97,-84.8 791.03,-84.8 791.03,-48.8 988.97,-48.8 988.97,-84.8"/>
<text text-anchor="middle" x="890" y="-62.6" font-family="Times,serif" font-size="14.00">KeycloakAdministrationModule</text>
</g>
<!-- KeycloakAdministrationModule&#45;&gt;KeycloakConfigurationModule -->
<g id="edge3" class="edge">
<title>KeycloakAdministrationModule&#45;&gt;KeycloakConfigurationModule</title>
<path fill="none" stroke="black" d="M804.94,-84.91C804.94,-84.91 804.94,-103.79 804.94,-103.79"/>
<polygon fill="black" stroke="black" points="801.44,-103.79 804.94,-113.79 808.44,-103.79 801.44,-103.79"/>
</g>
<!-- LoggerModule -->
<g id="node4" class="node">
<title>LoggerModule</title>
<polygon fill="#8dd3c7" stroke="black" points="772.98,-84.8 769.98,-88.8 748.98,-88.8 745.98,-84.8 673.02,-84.8 673.02,-48.8 772.98,-48.8 772.98,-84.8"/>
<text text-anchor="middle" x="723" y="-62.6" font-family="Times,serif" font-size="14.00">LoggerModule</text>
</g>
<!-- LoggerModule&#45;&gt;KeycloakConfigurationModule -->
<g id="edge4" class="edge">
<title>LoggerModule&#45;&gt;KeycloakConfigurationModule</title>
<path fill="none" stroke="black" d="M723,-84.91C723,-84.91 723,-103.79 723,-103.79"/>
<polygon fill="black" stroke="black" points="719.5,-103.79 723,-113.79 726.5,-103.79 719.5,-103.79"/>
</g>
<!-- SystemModule -->
<g id="node5" class="node">
<title>SystemModule</title>
<polygon fill="#8dd3c7" stroke="black" points="655.28,-84.8 652.28,-88.8 631.28,-88.8 628.28,-84.8 554.72,-84.8 554.72,-48.8 655.28,-48.8 655.28,-84.8"/>
<text text-anchor="middle" x="605" y="-62.6" font-family="Times,serif" font-size="14.00">SystemModule</text>
</g>
<!-- SystemModule&#45;&gt;KeycloakConfigurationModule -->
<g id="edge5" class="edge">
<title>SystemModule&#45;&gt;KeycloakConfigurationModule</title>
<path fill="none" stroke="black" d="M641.26,-84.91C641.26,-84.91 641.26,-103.79 641.26,-103.79"/>
<polygon fill="black" stroke="black" points="637.76,-103.79 641.26,-113.79 644.76,-103.79 637.76,-103.79"/>
</g>
<!-- KeycloakConfigurationService  -->
<g id="node7" class="node">
<title>KeycloakConfigurationService </title>
<polygon fill="#fb8072" stroke="black" points="993.67,-214.8 800.33,-214.8 800.33,-178.8 993.67,-178.8 993.67,-214.8"/>
<text text-anchor="middle" x="897" y="-192.6" font-family="Times,serif" font-size="14.00">KeycloakConfigurationService </text>
</g>
<!-- KeycloakConfigurationModule&#45;&gt;KeycloakConfigurationService  -->
<g id="edge6" class="edge">
<title>KeycloakConfigurationModule&#45;&gt;KeycloakConfigurationService </title>
<path fill="none" stroke="black" stroke-dasharray="5,2" d="M809.52,-149.91C809.52,-149.91 809.52,-168.79 809.52,-168.79"/>
<polygon fill="black" stroke="black" points="806.02,-168.79 809.52,-178.79 813.02,-168.79 806.02,-168.79"/>
</g>
<!-- KeycloakConsole  -->
<g id="node8" class="node">
<title>KeycloakConsole </title>
<polygon fill="#fb8072" stroke="black" points="782.53,-214.8 663.47,-214.8 663.47,-178.8 782.53,-178.8 782.53,-214.8"/>
<text text-anchor="middle" x="723" y="-192.6" font-family="Times,serif" font-size="14.00">KeycloakConsole </text>
</g>
<!-- KeycloakConfigurationModule&#45;&gt;KeycloakConsole  -->
<g id="edge7" class="edge">
<title>KeycloakConfigurationModule&#45;&gt;KeycloakConsole </title>
<path fill="none" stroke="black" stroke-dasharray="5,2" d="M723,-149.91C723,-149.91 723,-168.79 723,-168.79"/>
<polygon fill="black" stroke="black" points="719.5,-168.79 723,-178.79 726.5,-168.79 719.5,-168.79"/>
</g>
<!-- KeycloakSeedService  -->
<g id="node9" class="node">
<title>KeycloakSeedService </title>
<polygon fill="#fb8072" stroke="black" points="645.34,-214.8 502.66,-214.8 502.66,-178.8 645.34,-178.8 645.34,-214.8"/>
<text text-anchor="middle" x="574" y="-192.6" font-family="Times,serif" font-size="14.00">KeycloakSeedService </text>
</g>
<!-- KeycloakConfigurationModule&#45;&gt;KeycloakSeedService  -->
<g id="edge8" class="edge">
<title>KeycloakConfigurationModule&#45;&gt;KeycloakSeedService </title>
<path fill="none" stroke="black" stroke-dasharray="5,2" d="M636.15,-149.91C636.15,-149.91 636.15,-168.79 636.15,-168.79"/>
<polygon fill="black" stroke="black" points="632.65,-168.79 636.15,-178.79 639.65,-168.79 632.65,-168.79"/>
</g>
<!-- KeycloakConfigurationService -->
<g id="node10" class="node">
<title>KeycloakConfigurationService</title>
<ellipse fill="#fdb462" stroke="black" cx="400" cy="-66.8" rx="131.35" ry="18"/>
<text text-anchor="middle" x="400" y="-62.6" font-family="Times,serif" font-size="14.00">KeycloakConfigurationService</text>
</g>
<!-- KeycloakConfigurationService&#45;&gt;KeycloakConfigurationModule -->
<g id="edge9" class="edge">
<title>KeycloakConfigurationService&#45;&gt;KeycloakConfigurationModule</title>
<path fill="none" stroke="black" d="M517,-75C517,-91.22 517,-125.8 517,-125.8 517,-125.8 617.24,-125.8 617.24,-125.8"/>
<polygon fill="black" stroke="black" points="617.24,-129.3 627.24,-125.8 617.24,-122.3 617.24,-129.3"/>
</g>
<!-- KeycloakConfigurationUc -->
<g id="node11" class="node">
<title>KeycloakConfigurationUc</title>
<ellipse fill="#fdb462" stroke="black" cx="137" cy="-66.8" rx="113.45" ry="18"/>
<text text-anchor="middle" x="137" y="-62.6" font-family="Times,serif" font-size="14.00">KeycloakConfigurationUc</text>
</g>
<!-- KeycloakConfigurationUc&#45;&gt;KeycloakConfigurationModule -->
<g id="edge10" class="edge">
<title>KeycloakConfigurationUc&#45;&gt;KeycloakConfigurationModule</title>
<path fill="none" stroke="black" d="M137,-85.08C137,-106.12 137,-137.8 137,-137.8 137,-137.8 617.22,-137.8 617.22,-137.8"/>
<polygon fill="black" stroke="black" points="617.22,-141.3 627.22,-137.8 617.22,-134.3 617.22,-141.3"/>
</g>
</g>
</svg>
