<?xml version="1.0" encoding="UTF-8" standalone="no"?>
<!DOCTYPE svg PUBLIC "-//W3C//DTD SVG 1.1//EN"
 "http://www.w3.org/Graphics/SVG/1.1/DTD/svg11.dtd">
<!-- Generated by graphviz version 5.0.0 (20220707.1540)
 -->
<!-- Title: dependencies Pages: 1 -->
<svg width="1321pt" height="247pt"
 viewBox="0.00 0.00 1321.00 246.80" xmlns="http://www.w3.org/2000/svg" xmlns:xlink="http://www.w3.org/1999/xlink">
<g id="graph0" class="graph" transform="scale(1 1) rotate(0) translate(4 242.8)">
<title>dependencies</title>
<polygon fill="white" stroke="transparent" points="-4,4 -4,-242.8 1317,-242.8 1317,4 -4,4"/>
<text text-anchor="middle" x="656.5" y="-8.2" font-family="sans-serif" font-size="14.00">dependencies</text>
<g id="clust1" class="cluster">
<title>cluster_KeycloakConfigurationModule</title>
<polygon fill="none" stroke="black" stroke-dasharray="1,5" points="8,-32.8 8,-230.8 1305,-230.8 1305,-32.8 8,-32.8"/>
</g>
<g id="clust6" class="cluster">
<title>cluster_KeycloakConfigurationModule_providers</title>
<polygon fill="none" stroke="black" points="774,-40.8 774,-92.8 1297,-92.8 1297,-40.8 774,-40.8"/>
</g>
<g id="clust4" class="cluster">
<title>cluster_KeycloakConfigurationModule_exports</title>
<polygon fill="none" stroke="black" points="309,-170.8 309,-222.8 816,-222.8 816,-170.8 309,-170.8"/>
</g>
<g id="clust3" class="cluster">
<title>cluster_KeycloakConfigurationModule_imports</title>
<polygon fill="none" stroke="black" points="16,-40.8 16,-92.8 766,-92.8 766,-40.8 16,-40.8"/>
</g>
<!-- ConsoleWriterModule -->
<g id="node1" class="node">
<title>ConsoleWriterModule</title>
<polygon fill="#8dd3c7" stroke="black" points="757.97,-84.8 754.97,-88.8 733.97,-88.8 730.97,-84.8 616.03,-84.8 616.03,-48.8 757.97,-48.8 757.97,-84.8"/>
<text text-anchor="middle" x="687" y="-62.6" font-family="Times,serif" font-size="14.00">ConsoleWriterModule</text>
</g>
<!-- KeycloakConfigurationModule -->
<g id="node6" class="node">
<title>KeycloakConfigurationModule</title>
<polygon fill="#8dd3c7" stroke="black" points="632.74,-149.8 629.74,-153.8 608.74,-153.8 605.74,-149.8 441.26,-149.8 441.26,-113.8 632.74,-113.8 632.74,-149.8"/>
<text text-anchor="middle" x="537" y="-127.6" font-family="Times,serif" font-size="14.00">KeycloakConfigurationModule</text>
</g>
<!-- ConsoleWriterModule&#45;&gt;KeycloakConfigurationModule -->
<g id="edge1" class="edge">
<title>ConsoleWriterModule&#45;&gt;KeycloakConfigurationModule</title>
<path fill="none" stroke="black" d="M624.44,-84.91C624.44,-84.91 624.44,-103.79 624.44,-103.79"/>
<polygon fill="black" stroke="black" points="620.94,-103.79 624.44,-113.79 627.94,-103.79 620.94,-103.79"/>
</g>
<!-- EncryptionModule -->
<g id="node2" class="node">
<title>EncryptionModule</title>
<polygon fill="#8dd3c7" stroke="black" points="597.76,-84.8 594.76,-88.8 573.76,-88.8 570.76,-84.8 476.24,-84.8 476.24,-48.8 597.76,-48.8 597.76,-84.8"/>
<text text-anchor="middle" x="537" y="-62.6" font-family="Times,serif" font-size="14.00">EncryptionModule</text>
</g>
<!-- EncryptionModule&#45;&gt;KeycloakConfigurationModule -->
<g id="edge2" class="edge">
<title>EncryptionModule&#45;&gt;KeycloakConfigurationModule</title>
<path fill="none" stroke="black" d="M537,-84.91C537,-84.91 537,-103.79 537,-103.79"/>
<polygon fill="black" stroke="black" points="533.5,-103.79 537,-113.79 540.5,-103.79 533.5,-103.79"/>
</g>
<!-- KeycloakAdministrationModule -->
<g id="node3" class="node">
<title>KeycloakAdministrationModule</title>
<polygon fill="#8dd3c7" stroke="black" points="457.97,-84.8 454.97,-88.8 433.97,-88.8 430.97,-84.8 260.03,-84.8 260.03,-48.8 457.97,-48.8 457.97,-84.8"/>
<text text-anchor="middle" x="359" y="-62.6" font-family="Times,serif" font-size="14.00">KeycloakAdministrationModule</text>
</g>
<!-- KeycloakAdministrationModule&#45;&gt;KeycloakConfigurationModule -->
<g id="edge3" class="edge">
<title>KeycloakAdministrationModule&#45;&gt;KeycloakConfigurationModule</title>
<path fill="none" stroke="black" d="M449.56,-84.91C449.56,-84.91 449.56,-103.79 449.56,-103.79"/>
<polygon fill="black" stroke="black" points="446.06,-103.79 449.56,-113.79 453.06,-103.79 446.06,-103.79"/>
</g>
<!-- LoggerModule -->
<g id="node4" class="node">
<title>LoggerModule</title>
<polygon fill="#8dd3c7" stroke="black" points="241.98,-84.8 238.98,-88.8 217.98,-88.8 214.98,-84.8 142.02,-84.8 142.02,-48.8 241.98,-48.8 241.98,-84.8"/>
<text text-anchor="middle" x="192" y="-62.6" font-family="Times,serif" font-size="14.00">LoggerModule</text>
</g>
<!-- LoggerModule&#45;&gt;KeycloakConfigurationModule -->
<g id="edge4" class="edge">
<title>LoggerModule&#45;&gt;KeycloakConfigurationModule</title>
<path fill="none" stroke="black" d="M192,-84.82C192,-102.17 192,-125.8 192,-125.8 192,-125.8 430.9,-125.8 430.9,-125.8"/>
<polygon fill="black" stroke="black" points="430.9,-129.3 440.9,-125.8 430.9,-122.3 430.9,-129.3"/>
</g>
<!-- SystemModule -->
<g id="node5" class="node">
<title>SystemModule</title>
<polygon fill="#8dd3c7" stroke="black" points="124.28,-84.8 121.28,-88.8 100.28,-88.8 97.28,-84.8 23.72,-84.8 23.72,-48.8 124.28,-48.8 124.28,-84.8"/>
<text text-anchor="middle" x="74" y="-62.6" font-family="Times,serif" font-size="14.00">SystemModule</text>
</g>
<!-- SystemModule&#45;&gt;KeycloakConfigurationModule -->
<g id="edge5" class="edge">
<title>SystemModule&#45;&gt;KeycloakConfigurationModule</title>
<path fill="none" stroke="black" d="M74,-85.08C74,-106.12 74,-137.8 74,-137.8 74,-137.8 431.07,-137.8 431.07,-137.8"/>
<polygon fill="black" stroke="black" points="431.07,-141.3 441.07,-137.8 431.07,-134.3 431.07,-141.3"/>
</g>
<!-- KeycloakConfigurationService  -->
<g id="node7" class="node">
<title>KeycloakConfigurationService </title>
<polygon fill="#fb8072" stroke="black" points="807.67,-214.8 614.33,-214.8 614.33,-178.8 807.67,-178.8 807.67,-214.8"/>
<text text-anchor="middle" x="711" y="-192.6" font-family="Times,serif" font-size="14.00">KeycloakConfigurationService </text>
</g>
<!-- KeycloakConfigurationModule&#45;&gt;KeycloakConfigurationService  -->
<g id="edge6" class="edge">
<title>KeycloakConfigurationModule&#45;&gt;KeycloakConfigurationService </title>
<path fill="none" stroke="black" stroke-dasharray="5,2" d="M623.52,-149.91C623.52,-149.91 623.52,-168.79 623.52,-168.79"/>
<polygon fill="black" stroke="black" points="620.02,-168.79 623.52,-178.79 627.02,-168.79 620.02,-168.79"/>
</g>
<!-- KeycloakConsole  -->
<g id="node8" class="node">
<title>KeycloakConsole </title>
<polygon fill="#fb8072" stroke="black" points="596.53,-214.8 477.47,-214.8 477.47,-178.8 596.53,-178.8 596.53,-214.8"/>
<text text-anchor="middle" x="537" y="-192.6" font-family="Times,serif" font-size="14.00">KeycloakConsole </text>
</g>
<!-- KeycloakConfigurationModule&#45;&gt;KeycloakConsole  -->
<g id="edge7" class="edge">
<title>KeycloakConfigurationModule&#45;&gt;KeycloakConsole </title>
<path fill="none" stroke="black" stroke-dasharray="5,2" d="M537,-149.91C537,-149.91 537,-168.79 537,-168.79"/>
<polygon fill="black" stroke="black" points="533.5,-168.79 537,-178.79 540.5,-168.79 533.5,-168.79"/>
</g>
<!-- KeycloakSeedService  -->
<g id="node9" class="node">
<title>KeycloakSeedService </title>
<polygon fill="#fb8072" stroke="black" points="459.34,-214.8 316.66,-214.8 316.66,-178.8 459.34,-178.8 459.34,-214.8"/>
<text text-anchor="middle" x="388" y="-192.6" font-family="Times,serif" font-size="14.00">KeycloakSeedService </text>
</g>
<!-- KeycloakConfigurationModule&#45;&gt;KeycloakSeedService  -->
<g id="edge8" class="edge">
<title>KeycloakConfigurationModule&#45;&gt;KeycloakSeedService </title>
<path fill="none" stroke="black" stroke-dasharray="5,2" d="M450.15,-149.91C450.15,-149.91 450.15,-168.79 450.15,-168.79"/>
<polygon fill="black" stroke="black" points="446.65,-168.79 450.15,-178.79 453.65,-168.79 446.65,-168.79"/>
</g>
<!-- KeycloakConfigurationService -->
<g id="node10" class="node">
<title>KeycloakConfigurationService</title>
<ellipse fill="#fdb462" stroke="black" cx="1158" cy="-66.8" rx="131.35" ry="18"/>
<text text-anchor="middle" x="1158" y="-62.6" font-family="Times,serif" font-size="14.00">KeycloakConfigurationService</text>
</g>
<!-- KeycloakConfigurationService&#45;&gt;KeycloakConfigurationModule -->
<g id="edge9" class="edge">
<title>KeycloakConfigurationService&#45;&gt;KeycloakConfigurationModule</title>
<path fill="none" stroke="black" d="M1158,-85.08C1158,-106.12 1158,-137.8 1158,-137.8 1158,-137.8 643.01,-137.8 643.01,-137.8"/>
<polygon fill="black" stroke="black" points="643.01,-134.3 633.01,-137.8 643.01,-141.3 643.01,-134.3"/>
</g>
<!-- KeycloakConfigurationUc -->
<g id="node11" class="node">
<title>KeycloakConfigurationUc</title>
<ellipse fill="#fdb462" stroke="black" cx="895" cy="-66.8" rx="113.45" ry="18"/>
<text text-anchor="middle" x="895" y="-62.6" font-family="Times,serif" font-size="14.00">KeycloakConfigurationUc</text>
</g>
<!-- KeycloakConfigurationUc&#45;&gt;KeycloakConfigurationModule -->
<g id="edge10" class="edge">
<title>KeycloakConfigurationUc&#45;&gt;KeycloakConfigurationModule</title>
<path fill="none" stroke="black" d="M794.68,-75.25C794.68,-91.57 794.68,-125.8 794.68,-125.8 794.68,-125.8 642.95,-125.8 642.95,-125.8"/>
<polygon fill="black" stroke="black" points="642.95,-122.3 632.95,-125.8 642.95,-129.3 642.95,-122.3"/>
</g>
</g>
</svg>
