<?xml version="1.0" encoding="UTF-8" standalone="no"?>
<!DOCTYPE svg PUBLIC "-//W3C//DTD SVG 1.1//EN"
 "http://www.w3.org/Graphics/SVG/1.1/DTD/svg11.dtd">
<!-- Generated by graphviz version 5.0.0 (20220707.1540)
 -->
<!-- Title: dependencies Pages: 1 -->
<svg width="570pt" height="247pt"
 viewBox="0.00 0.00 570.00 246.80" xmlns="http://www.w3.org/2000/svg" xmlns:xlink="http://www.w3.org/1999/xlink">
<g id="graph0" class="graph" transform="scale(1 1) rotate(0) translate(4 242.8)">
<title>dependencies</title>
<polygon fill="white" stroke="transparent" points="-4,4 -4,-242.8 566,-242.8 566,4 -4,4"/>
<text text-anchor="middle" x="281" y="-8.2" font-family="sans-serif" font-size="14.00">dependencies</text>
<g id="clust1" class="cluster">
<title>cluster_SharingModule</title>
<polygon fill="none" stroke="black" stroke-dasharray="1,5" points="8,-32.8 8,-230.8 554,-230.8 554,-32.8 8,-32.8"/>
</g>
<g id="clust4" class="cluster">
<title>cluster_SharingModule_exports</title>
<polygon fill="none" stroke="black" points="204,-170.8 204,-222.8 350,-222.8 350,-170.8 204,-170.8"/>
</g>
<g id="clust6" class="cluster">
<title>cluster_SharingModule_providers</title>
<polygon fill="none" stroke="black" points="16,-40.8 16,-92.8 546,-92.8 546,-40.8 16,-40.8"/>
</g>
<!-- ShareTokenService  -->
<g id="node1" class="node">
<title>ShareTokenService </title>
<polygon fill="#fb8072" stroke="black" points="341.62,-214.8 212.38,-214.8 212.38,-178.8 341.62,-178.8 341.62,-214.8"/>
<text text-anchor="middle" x="277" y="-192.6" font-family="Times,serif" font-size="14.00">ShareTokenService </text>
</g>
<!-- SharingModule -->
<g id="node2" class="node">
<title>SharingModule</title>
<polygon fill="#8dd3c7" stroke="black" points="328.6,-149.8 325.6,-153.8 304.6,-153.8 301.6,-149.8 225.4,-149.8 225.4,-113.8 328.6,-113.8 328.6,-149.8"/>
<text text-anchor="middle" x="277" y="-127.6" font-family="Times,serif" font-size="14.00">SharingModule</text>
</g>
<!-- SharingModule&#45;&gt;ShareTokenService  -->
<g id="edge1" class="edge">
<title>SharingModule&#45;&gt;ShareTokenService </title>
<path fill="none" stroke="black" stroke-dasharray="5,2" d="M277,-149.91C277,-149.91 277,-168.79 277,-168.79"/>
<polygon fill="black" stroke="black" points="273.5,-168.79 277,-178.79 280.5,-168.79 273.5,-168.79"/>
</g>
<!-- ShareTokenRepo -->
<g id="node3" class="node">
<title>ShareTokenRepo</title>
<ellipse fill="#fdb462" stroke="black" cx="460" cy="-66.8" rx="78.16" ry="18"/>
<text text-anchor="middle" x="460" y="-62.6" font-family="Times,serif" font-size="14.00">ShareTokenRepo</text>
</g>
<!-- ShareTokenRepo&#45;&gt;SharingModule -->
<g id="edge2" class="edge">
<title>ShareTokenRepo&#45;&gt;SharingModule</title>
<path fill="none" stroke="black" d="M460,-84.91C460,-104.14 460,-131.8 460,-131.8 460,-131.8 338.95,-131.8 338.95,-131.8"/>
<polygon fill="black" stroke="black" points="338.95,-128.3 328.95,-131.8 338.95,-135.3 338.95,-128.3"/>
</g>
<!-- ShareTokenService -->
<g id="node4" class="node">
<title>ShareTokenService</title>
<ellipse fill="#fdb462" stroke="black" cx="277" cy="-66.8" rx="86.8" ry="18"/>
<text text-anchor="middle" x="277" y="-62.6" font-family="Times,serif" font-size="14.00">ShareTokenService</text>
</g>
<!-- ShareTokenService&#45;&gt;SharingModule -->
<g id="edge3" class="edge">
<title>ShareTokenService&#45;&gt;SharingModule</title>
<path fill="none" stroke="black" d="M277,-84.91C277,-84.91 277,-103.79 277,-103.79"/>
<polygon fill="black" stroke="black" points="273.5,-103.79 277,-113.79 280.5,-103.79 273.5,-103.79"/>
</g>
<!-- TokenGenerator -->
<g id="node5" class="node">
<title>TokenGenerator</title>
<ellipse fill="#fdb462" stroke="black" cx="98" cy="-66.8" rx="74.12" ry="18"/>
<text text-anchor="middle" x="98" y="-62.6" font-family="Times,serif" font-size="14.00">TokenGenerator</text>
</g>
<!-- TokenGenerator&#45;&gt;SharingModule -->
<g id="edge4" class="edge">
<title>TokenGenerator&#45;&gt;SharingModule</title>
<path fill="none" stroke="black" d="M98,-84.91C98,-104.14 98,-131.8 98,-131.8 98,-131.8 215.23,-131.8 215.23,-131.8"/>
<polygon fill="black" stroke="black" points="215.23,-135.3 225.23,-131.8 215.23,-128.3 215.23,-135.3"/>
</g>
</g>
</svg>
