<?xml version="1.0" encoding="UTF-8" standalone="no"?>
<!DOCTYPE svg PUBLIC "-//W3C//DTD SVG 1.1//EN"
 "http://www.w3.org/Graphics/SVG/1.1/DTD/svg11.dtd">
<!-- Generated by graphviz version 5.0.0 (20220707.1540)
 -->
<!-- Title: dependencies Pages: 1 -->
<svg width="1126pt" height="247pt"
 viewBox="0.00 0.00 1126.00 246.80" xmlns="http://www.w3.org/2000/svg" xmlns:xlink="http://www.w3.org/1999/xlink">
<g id="graph0" class="graph" transform="scale(1 1) rotate(0) translate(4 242.8)">
<title>dependencies</title>
<polygon fill="white" stroke="transparent" points="-4,4 -4,-242.8 1122,-242.8 1122,4 -4,4"/>
<text text-anchor="middle" x="559" y="-8.2" font-family="sans-serif" font-size="14.00">dependencies</text>
<g id="clust1" class="cluster">
<title>cluster_SharingModule</title>
<polygon fill="none" stroke="black" stroke-dasharray="1,5" points="8,-32.8 8,-230.8 1110,-230.8 1110,-32.8 8,-32.8"/>
</g>
<g id="clust4" class="cluster">
<title>cluster_SharingModule_exports</title>
<polygon fill="none" stroke="black" points="542,-170.8 542,-222.8 688,-222.8 688,-170.8 542,-170.8"/>
</g>
<g id="clust3" class="cluster">
<title>cluster_SharingModule_imports</title>
<polygon fill="none" stroke="black" points="690,-40.8 690,-92.8 1102,-92.8 1102,-40.8 690,-40.8"/>
</g>
<g id="clust6" class="cluster">
<title>cluster_SharingModule_providers</title>
<polygon fill="none" stroke="black" points="16,-40.8 16,-92.8 682,-92.8 682,-40.8 16,-40.8"/>
</g>
<!-- AuthorizationModule -->
<g id="node1" class="node">
<title>AuthorizationModule</title>
<polygon fill="#8dd3c7" stroke="black" points="1093.81,-84.8 1090.81,-88.8 1069.81,-88.8 1066.81,-84.8 956.19,-84.8 956.19,-48.8 1093.81,-48.8 1093.81,-84.8"/>
<text text-anchor="middle" x="1025" y="-62.6" font-family="Times,serif" font-size="14.00">AuthorizationModule</text>
</g>
<!-- SharingModule -->
<g id="node4" class="node">
<title>SharingModule</title>
<polygon fill="#8dd3c7" stroke="black" points="666.6,-149.8 663.6,-153.8 642.6,-153.8 639.6,-149.8 563.4,-149.8 563.4,-113.8 666.6,-113.8 666.6,-149.8"/>
<text text-anchor="middle" x="615" y="-127.6" font-family="Times,serif" font-size="14.00">SharingModule</text>
</g>
<!-- AuthorizationModule&#45;&gt;SharingModule -->
<g id="edge1" class="edge">
<title>AuthorizationModule&#45;&gt;SharingModule</title>
<path fill="none" stroke="black" d="M1025,-85.09C1025,-107.01 1025,-140.8 1025,-140.8 1025,-140.8 676.93,-140.8 676.93,-140.8"/>
<polygon fill="black" stroke="black" points="676.93,-137.3 666.93,-140.8 676.93,-144.3 676.93,-137.3"/>
</g>
<!-- LearnroomModule -->
<g id="node2" class="node">
<title>LearnroomModule</title>
<polygon fill="#8dd3c7" stroke="black" points="937.75,-84.8 934.75,-88.8 913.75,-88.8 910.75,-84.8 816.25,-84.8 816.25,-48.8 937.75,-48.8 937.75,-84.8"/>
<text text-anchor="middle" x="877" y="-62.6" font-family="Times,serif" font-size="14.00">LearnroomModule</text>
</g>
<!-- LearnroomModule&#45;&gt;SharingModule -->
<g id="edge2" class="edge">
<title>LearnroomModule&#45;&gt;SharingModule</title>
<path fill="none" stroke="black" d="M877,-84.91C877,-104.14 877,-131.8 877,-131.8 877,-131.8 676.76,-131.8 676.76,-131.8"/>
<polygon fill="black" stroke="black" points="676.76,-128.3 666.76,-131.8 676.76,-135.3 676.76,-128.3"/>
</g>
<!-- LoggerModule -->
<g id="node3" class="node">
<title>LoggerModule</title>
<polygon fill="#8dd3c7" stroke="black" points="797.98,-84.8 794.98,-88.8 773.98,-88.8 770.98,-84.8 698.02,-84.8 698.02,-48.8 797.98,-48.8 797.98,-84.8"/>
<text text-anchor="middle" x="748" y="-62.6" font-family="Times,serif" font-size="14.00">LoggerModule</text>
</g>
<!-- LoggerModule&#45;&gt;SharingModule -->
<g id="edge3" class="edge">
<title>LoggerModule&#45;&gt;SharingModule</title>
<path fill="none" stroke="black" d="M748,-84.83C748,-101.2 748,-122.8 748,-122.8 748,-122.8 676.8,-122.8 676.8,-122.8"/>
<polygon fill="black" stroke="black" points="676.8,-119.3 666.8,-122.8 676.8,-126.3 676.8,-119.3"/>
</g>
<!-- ShareTokenService  -->
<g id="node5" class="node">
<title>ShareTokenService </title>
<polygon fill="#fb8072" stroke="black" points="679.62,-214.8 550.38,-214.8 550.38,-178.8 679.62,-178.8 679.62,-214.8"/>
<text text-anchor="middle" x="615" y="-192.6" font-family="Times,serif" font-size="14.00">ShareTokenService </text>
</g>
<!-- SharingModule&#45;&gt;ShareTokenService  -->
<g id="edge4" class="edge">
<title>SharingModule&#45;&gt;ShareTokenService </title>
<path fill="none" stroke="black" stroke-dasharray="5,2" d="M615,-149.91C615,-149.91 615,-168.79 615,-168.79"/>
<polygon fill="black" stroke="black" points="611.5,-168.79 615,-178.79 618.5,-168.79 611.5,-168.79"/>
</g>
<!-- CourseRepo -->
<g id="node6" class="node">
<title>CourseRepo</title>
<ellipse fill="#fdb462" stroke="black" cx="615" cy="-66.8" rx="58.56" ry="18"/>
<text text-anchor="middle" x="615" y="-62.6" font-family="Times,serif" font-size="14.00">CourseRepo</text>
</g>
<!-- CourseRepo&#45;&gt;SharingModule -->
<g id="edge5" class="edge">
<title>CourseRepo&#45;&gt;SharingModule</title>
<path fill="none" stroke="black" d="M615,-84.91C615,-84.91 615,-103.79 615,-103.79"/>
<polygon fill="black" stroke="black" points="611.5,-103.79 615,-113.79 618.5,-103.79 611.5,-103.79"/>
</g>
<!-- ShareTokenRepo -->
<g id="node7" class="node">
<title>ShareTokenRepo</title>
<ellipse fill="#fdb462" stroke="black" cx="460" cy="-66.8" rx="78.16" ry="18"/>
<text text-anchor="middle" x="460" y="-62.6" font-family="Times,serif" font-size="14.00">ShareTokenRepo</text>
</g>
<!-- ShareTokenRepo&#45;&gt;SharingModule -->
<g id="edge6" class="edge">
<title>ShareTokenRepo&#45;&gt;SharingModule</title>
<path fill="none" stroke="black" d="M460,-84.83C460,-101.2 460,-122.8 460,-122.8 460,-122.8 553.39,-122.8 553.39,-122.8"/>
<polygon fill="black" stroke="black" points="553.39,-126.3 563.39,-122.8 553.39,-119.3 553.39,-126.3"/>
</g>
<!-- ShareTokenService -->
<g id="node8" class="node">
<title>ShareTokenService</title>
<ellipse fill="#fdb462" stroke="black" cx="277" cy="-66.8" rx="86.8" ry="18"/>
<text text-anchor="middle" x="277" y="-62.6" font-family="Times,serif" font-size="14.00">ShareTokenService</text>
</g>
<!-- ShareTokenService&#45;&gt;SharingModule -->
<g id="edge7" class="edge">
<title>ShareTokenService&#45;&gt;SharingModule</title>
<path fill="none" stroke="black" d="M277,-84.91C277,-104.14 277,-131.8 277,-131.8 277,-131.8 553.3,-131.8 553.3,-131.8"/>
<polygon fill="black" stroke="black" points="553.3,-135.3 563.3,-131.8 553.3,-128.3 553.3,-135.3"/>
</g>
<!-- TokenGenerator -->
<g id="node9" class="node">
<title>TokenGenerator</title>
<ellipse fill="#fdb462" stroke="black" cx="98" cy="-66.8" rx="74.12" ry="18"/>
<text text-anchor="middle" x="98" y="-62.6" font-family="Times,serif" font-size="14.00">TokenGenerator</text>
</g>
<!-- TokenGenerator&#45;&gt;SharingModule -->
<g id="edge8" class="edge">
<title>TokenGenerator&#45;&gt;SharingModule</title>
<path fill="none" stroke="black" d="M98,-85.09C98,-107.01 98,-140.8 98,-140.8 98,-140.8 553.06,-140.8 553.06,-140.8"/>
<polygon fill="black" stroke="black" points="553.06,-144.3 563.06,-140.8 553.06,-137.3 553.06,-144.3"/>
</g>
</g>
</svg>
