<?xml version="1.0" encoding="UTF-8" standalone="no"?>
<!DOCTYPE svg PUBLIC "-//W3C//DTD SVG 1.1//EN"
 "http://www.w3.org/Graphics/SVG/1.1/DTD/svg11.dtd">
<!-- Generated by graphviz version 5.0.0 (20220707.1540)
 -->
<!-- Title: dependencies Pages: 1 -->
<svg width="1107pt" height="247pt"
 viewBox="0.00 0.00 1107.00 246.80" xmlns="http://www.w3.org/2000/svg" xmlns:xlink="http://www.w3.org/1999/xlink">
<g id="graph0" class="graph" transform="scale(1 1) rotate(0) translate(4 242.8)">
<title>dependencies</title>
<polygon fill="white" stroke="transparent" points="-4,4 -4,-242.8 1103,-242.8 1103,4 -4,4"/>
<text text-anchor="middle" x="549.5" y="-8.2" font-family="sans-serif" font-size="14.00">dependencies</text>
<g id="clust1" class="cluster">
<title>cluster_SharingModule</title>
<polygon fill="none" stroke="black" stroke-dasharray="1,5" points="8,-32.8 8,-230.8 1091,-230.8 1091,-32.8 8,-32.8"/>
</g>
<g id="clust4" class="cluster">
<title>cluster_SharingModule_exports</title>
<polygon fill="none" stroke="black" points="539,-170.8 539,-222.8 685,-222.8 685,-170.8 539,-170.8"/>
</g>
<g id="clust3" class="cluster">
<title>cluster_SharingModule_imports</title>
<polygon fill="none" stroke="black" points="554,-40.8 554,-92.8 1083,-92.8 1083,-40.8 554,-40.8"/>
</g>
<g id="clust6" class="cluster">
<title>cluster_SharingModule_providers</title>
<polygon fill="none" stroke="black" points="16,-40.8 16,-92.8 546,-92.8 546,-40.8 16,-40.8"/>
</g>
<!-- AuthorizationModule -->
<g id="node1" class="node">
<title>AuthorizationModule</title>
<polygon fill="#8dd3c7" stroke="black" points="1074.81,-84.8 1071.81,-88.8 1050.81,-88.8 1047.81,-84.8 937.19,-84.8 937.19,-48.8 1074.81,-48.8 1074.81,-84.8"/>
<text text-anchor="middle" x="1006" y="-62.6" font-family="Times,serif" font-size="14.00">AuthorizationModule</text>
</g>
<!-- SharingModule -->
<g id="node5" class="node">
<title>SharingModule</title>
<polygon fill="#8dd3c7" stroke="black" points="663.6,-149.8 660.6,-153.8 639.6,-153.8 636.6,-149.8 560.4,-149.8 560.4,-113.8 663.6,-113.8 663.6,-149.8"/>
<text text-anchor="middle" x="612" y="-127.6" font-family="Times,serif" font-size="14.00">SharingModule</text>
</g>
<!-- AuthorizationModule&#45;&gt;SharingModule -->
<g id="edge1" class="edge">
<title>AuthorizationModule&#45;&gt;SharingModule</title>
<path fill="none" stroke="black" d="M1006,-85.09C1006,-107.01 1006,-140.8 1006,-140.8 1006,-140.8 673.91,-140.8 673.91,-140.8"/>
<polygon fill="black" stroke="black" points="673.91,-137.3 663.91,-140.8 673.91,-144.3 673.91,-137.3"/>
</g>
<!-- LearnroomModule -->
<g id="node2" class="node">
<title>LearnroomModule</title>
<polygon fill="#8dd3c7" stroke="black" points="918.75,-84.8 915.75,-88.8 894.75,-88.8 891.75,-84.8 797.25,-84.8 797.25,-48.8 918.75,-48.8 918.75,-84.8"/>
<text text-anchor="middle" x="858" y="-62.6" font-family="Times,serif" font-size="14.00">LearnroomModule</text>
</g>
<!-- LearnroomModule&#45;&gt;SharingModule -->
<g id="edge2" class="edge">
<title>LearnroomModule&#45;&gt;SharingModule</title>
<path fill="none" stroke="black" d="M858,-84.91C858,-104.14 858,-131.8 858,-131.8 858,-131.8 673.57,-131.8 673.57,-131.8"/>
<polygon fill="black" stroke="black" points="673.57,-128.3 663.57,-131.8 673.57,-135.3 673.57,-128.3"/>
</g>
<!-- LessonModule -->
<g id="node3" class="node">
<title>LessonModule</title>
<polygon fill="#8dd3c7" stroke="black" points="779.71,-84.8 776.71,-88.8 755.71,-88.8 752.71,-84.8 680.29,-84.8 680.29,-48.8 779.71,-48.8 779.71,-84.8"/>
<text text-anchor="middle" x="730" y="-62.6" font-family="Times,serif" font-size="14.00">LessonModule</text>
</g>
<!-- LessonModule&#45;&gt;SharingModule -->
<g id="edge3" class="edge">
<title>LessonModule&#45;&gt;SharingModule</title>
<path fill="none" stroke="black" d="M730,-84.83C730,-101.2 730,-122.8 730,-122.8 730,-122.8 673.76,-122.8 673.76,-122.8"/>
<polygon fill="black" stroke="black" points="673.76,-119.3 663.76,-122.8 673.76,-126.3 673.76,-119.3"/>
</g>
<!-- LoggerModule -->
<g id="node4" class="node">
<title>LoggerModule</title>
<polygon fill="#8dd3c7" stroke="black" points="661.98,-84.8 658.98,-88.8 637.98,-88.8 634.98,-84.8 562.02,-84.8 562.02,-48.8 661.98,-48.8 661.98,-84.8"/>
<text text-anchor="middle" x="612" y="-62.6" font-family="Times,serif" font-size="14.00">LoggerModule</text>
</g>
<!-- LoggerModule&#45;&gt;SharingModule -->
<g id="edge4" class="edge">
<title>LoggerModule&#45;&gt;SharingModule</title>
<path fill="none" stroke="black" d="M612,-84.91C612,-84.91 612,-103.79 612,-103.79"/>
<polygon fill="black" stroke="black" points="608.5,-103.79 612,-113.79 615.5,-103.79 608.5,-103.79"/>
</g>
<!-- ShareTokenService  -->
<g id="node6" class="node">
<title>ShareTokenService </title>
<polygon fill="#fb8072" stroke="black" points="676.62,-214.8 547.38,-214.8 547.38,-178.8 676.62,-178.8 676.62,-214.8"/>
<text text-anchor="middle" x="612" y="-192.6" font-family="Times,serif" font-size="14.00">ShareTokenService </text>
</g>
<!-- SharingModule&#45;&gt;ShareTokenService  -->
<g id="edge5" class="edge">
<title>SharingModule&#45;&gt;ShareTokenService </title>
<path fill="none" stroke="black" stroke-dasharray="5,2" d="M612,-149.91C612,-149.91 612,-168.79 612,-168.79"/>
<polygon fill="black" stroke="black" points="608.5,-168.79 612,-178.79 615.5,-168.79 608.5,-168.79"/>
</g>
<!-- ShareTokenRepo -->
<g id="node7" class="node">
<title>ShareTokenRepo</title>
<ellipse fill="#fdb462" stroke="black" cx="460" cy="-66.8" rx="78.16" ry="18"/>
<text text-anchor="middle" x="460" y="-62.6" font-family="Times,serif" font-size="14.00">ShareTokenRepo</text>
</g>
<!-- ShareTokenRepo&#45;&gt;SharingModule -->
<g id="edge6" class="edge">
<title>ShareTokenRepo&#45;&gt;SharingModule</title>
<path fill="none" stroke="black" d="M460,-84.83C460,-101.2 460,-122.8 460,-122.8 460,-122.8 550.12,-122.8 550.12,-122.8"/>
<polygon fill="black" stroke="black" points="550.12,-126.3 560.12,-122.8 550.12,-119.3 550.12,-126.3"/>
</g>
<!-- ShareTokenService -->
<g id="node8" class="node">
<title>ShareTokenService</title>
<ellipse fill="#fdb462" stroke="black" cx="277" cy="-66.8" rx="86.8" ry="18"/>
<text text-anchor="middle" x="277" y="-62.6" font-family="Times,serif" font-size="14.00">ShareTokenService</text>
</g>
<!-- ShareTokenService&#45;&gt;SharingModule -->
<g id="edge7" class="edge">
<title>ShareTokenService&#45;&gt;SharingModule</title>
<path fill="none" stroke="black" d="M277,-84.91C277,-104.14 277,-131.8 277,-131.8 277,-131.8 550.39,-131.8 550.39,-131.8"/>
<polygon fill="black" stroke="black" points="550.39,-135.3 560.39,-131.8 550.39,-128.3 550.39,-135.3"/>
</g>
<!-- TokenGenerator -->
<g id="node9" class="node">
<title>TokenGenerator</title>
<ellipse fill="#fdb462" stroke="black" cx="98" cy="-66.8" rx="74.12" ry="18"/>
<text text-anchor="middle" x="98" y="-62.6" font-family="Times,serif" font-size="14.00">TokenGenerator</text>
</g>
<!-- TokenGenerator&#45;&gt;SharingModule -->
<g id="edge8" class="edge">
<title>TokenGenerator&#45;&gt;SharingModule</title>
<path fill="none" stroke="black" d="M98,-85.09C98,-107.01 98,-140.8 98,-140.8 98,-140.8 550.36,-140.8 550.36,-140.8"/>
<polygon fill="black" stroke="black" points="550.36,-144.3 560.36,-140.8 550.36,-137.3 550.36,-144.3"/>
</g>
</g>
</svg>
