<?xml version="1.0" encoding="UTF-8" standalone="no"?>
<!DOCTYPE svg PUBLIC "-//W3C//DTD SVG 1.1//EN"
 "http://www.w3.org/Graphics/SVG/1.1/DTD/svg11.dtd">
<!-- Generated by graphviz version 5.0.0 (20220707.1540)
 -->
<!-- Title: dependencies Pages: 1 -->
<svg width="1126pt" height="247pt"
 viewBox="0.00 0.00 1126.00 246.80" xmlns="http://www.w3.org/2000/svg" xmlns:xlink="http://www.w3.org/1999/xlink">
<g id="graph0" class="graph" transform="scale(1 1) rotate(0) translate(4 242.8)">
<title>dependencies</title>
<polygon fill="white" stroke="transparent" points="-4,4 -4,-242.8 1122,-242.8 1122,4 -4,4"/>
<text text-anchor="middle" x="559" y="-8.2" font-family="sans-serif" font-size="14.00">dependencies</text>
<g id="clust1" class="cluster">
<title>cluster_SharingModule</title>
<polygon fill="none" stroke="black" stroke-dasharray="1,5" points="8,-32.8 8,-230.8 1110,-230.8 1110,-32.8 8,-32.8"/>
</g>
<g id="clust4" class="cluster">
<title>cluster_SharingModule_exports</title>
<polygon fill="none" stroke="black" points="445,-170.8 445,-222.8 591,-222.8 591,-170.8 445,-170.8"/>
</g>
<g id="clust6" class="cluster">
<title>cluster_SharingModule_providers</title>
<polygon fill="none" stroke="black" points="436,-40.8 436,-92.8 1102,-92.8 1102,-40.8 436,-40.8"/>
</g>
<g id="clust3" class="cluster">
<title>cluster_SharingModule_imports</title>
<polygon fill="none" stroke="black" points="16,-40.8 16,-92.8 428,-92.8 428,-40.8 16,-40.8"/>
</g>
<!-- AuthorizationModule -->
<g id="node1" class="node">
<title>AuthorizationModule</title>
<polygon fill="#8dd3c7" stroke="black" points="419.81,-84.8 416.81,-88.8 395.81,-88.8 392.81,-84.8 282.19,-84.8 282.19,-48.8 419.81,-48.8 419.81,-84.8"/>
<text text-anchor="middle" x="351" y="-62.6" font-family="Times,serif" font-size="14.00">AuthorizationModule</text>
</g>
<!-- SharingModule -->
<g id="node4" class="node">
<title>SharingModule</title>
<polygon fill="#8dd3c7" stroke="black" points="569.6,-149.8 566.6,-153.8 545.6,-153.8 542.6,-149.8 466.4,-149.8 466.4,-113.8 569.6,-113.8 569.6,-149.8"/>
<text text-anchor="middle" x="518" y="-127.6" font-family="Times,serif" font-size="14.00">SharingModule</text>
</g>
<!-- AuthorizationModule&#45;&gt;SharingModule -->
<g id="edge1" class="edge">
<title>AuthorizationModule&#45;&gt;SharingModule</title>
<path fill="none" stroke="black" d="M351,-84.83C351,-101.2 351,-122.8 351,-122.8 351,-122.8 456.08,-122.8 456.08,-122.8"/>
<polygon fill="black" stroke="black" points="456.08,-126.3 466.08,-122.8 456.08,-119.3 456.08,-126.3"/>
</g>
<!-- LearnroomModule -->
<g id="node2" class="node">
<title>LearnroomModule</title>
<polygon fill="#8dd3c7" stroke="black" points="263.75,-84.8 260.75,-88.8 239.75,-88.8 236.75,-84.8 142.25,-84.8 142.25,-48.8 263.75,-48.8 263.75,-84.8"/>
<text text-anchor="middle" x="203" y="-62.6" font-family="Times,serif" font-size="14.00">LearnroomModule</text>
</g>
<!-- LearnroomModule&#45;&gt;SharingModule -->
<g id="edge2" class="edge">
<title>LearnroomModule&#45;&gt;SharingModule</title>
<path fill="none" stroke="black" d="M203,-84.91C203,-104.14 203,-131.8 203,-131.8 203,-131.8 456.34,-131.8 456.34,-131.8"/>
<polygon fill="black" stroke="black" points="456.34,-135.3 466.34,-131.8 456.34,-128.3 456.34,-135.3"/>
</g>
<!-- LoggerModule -->
<g id="node3" class="node">
<title>LoggerModule</title>
<polygon fill="#8dd3c7" stroke="black" points="123.98,-84.8 120.98,-88.8 99.98,-88.8 96.98,-84.8 24.02,-84.8 24.02,-48.8 123.98,-48.8 123.98,-84.8"/>
<text text-anchor="middle" x="74" y="-62.6" font-family="Times,serif" font-size="14.00">LoggerModule</text>
</g>
<!-- LoggerModule&#45;&gt;SharingModule -->
<g id="edge3" class="edge">
<title>LoggerModule&#45;&gt;SharingModule</title>
<path fill="none" stroke="black" d="M74,-85.09C74,-107.01 74,-140.8 74,-140.8 74,-140.8 456.2,-140.8 456.2,-140.8"/>
<polygon fill="black" stroke="black" points="456.2,-144.3 466.2,-140.8 456.2,-137.3 456.2,-144.3"/>
</g>
<!-- ShareTokenService  -->
<g id="node5" class="node">
<title>ShareTokenService </title>
<polygon fill="#fb8072" stroke="black" points="582.62,-214.8 453.38,-214.8 453.38,-178.8 582.62,-178.8 582.62,-214.8"/>
<text text-anchor="middle" x="518" y="-192.6" font-family="Times,serif" font-size="14.00">ShareTokenService </text>
</g>
<!-- SharingModule&#45;&gt;ShareTokenService  -->
<g id="edge4" class="edge">
<title>SharingModule&#45;&gt;ShareTokenService </title>
<path fill="none" stroke="black" stroke-dasharray="5,2" d="M518,-149.91C518,-149.91 518,-168.79 518,-168.79"/>
<polygon fill="black" stroke="black" points="514.5,-168.79 518,-178.79 521.5,-168.79 514.5,-168.79"/>
</g>
<!-- CourseRepo -->
<g id="node6" class="node">
<title>CourseRepo</title>
<ellipse fill="#fdb462" stroke="black" cx="1035" cy="-66.8" rx="58.56" ry="18"/>
<text text-anchor="middle" x="1035" y="-62.6" font-family="Times,serif" font-size="14.00">CourseRepo</text>
</g>
<!-- CourseRepo&#45;&gt;SharingModule -->
<g id="edge5" class="edge">
<title>CourseRepo&#45;&gt;SharingModule</title>
<path fill="none" stroke="black" d="M1035,-85.09C1035,-107.01 1035,-140.8 1035,-140.8 1035,-140.8 579.94,-140.8 579.94,-140.8"/>
<polygon fill="black" stroke="black" points="579.94,-137.3 569.94,-140.8 579.94,-144.3 579.94,-137.3"/>
</g>
<!-- ShareTokenRepo -->
<g id="node7" class="node">
<title>ShareTokenRepo</title>
<ellipse fill="#fdb462" stroke="black" cx="880" cy="-66.8" rx="78.16" ry="18"/>
<text text-anchor="middle" x="880" y="-62.6" font-family="Times,serif" font-size="14.00">ShareTokenRepo</text>
</g>
<!-- ShareTokenRepo&#45;&gt;SharingModule -->
<g id="edge6" class="edge">
<title>ShareTokenRepo&#45;&gt;SharingModule</title>
<path fill="none" stroke="black" d="M880,-84.91C880,-104.14 880,-131.8 880,-131.8 880,-131.8 579.87,-131.8 579.87,-131.8"/>
<polygon fill="black" stroke="black" points="579.87,-128.3 569.87,-131.8 579.87,-135.3 579.87,-128.3"/>
</g>
<!-- ShareTokenService -->
<g id="node8" class="node">
<title>ShareTokenService</title>
<ellipse fill="#fdb462" stroke="black" cx="697" cy="-66.8" rx="86.8" ry="18"/>
<text text-anchor="middle" x="697" y="-62.6" font-family="Times,serif" font-size="14.00">ShareTokenService</text>
</g>
<!-- ShareTokenService&#45;&gt;SharingModule -->
<g id="edge7" class="edge">
<title>ShareTokenService&#45;&gt;SharingModule</title>
<path fill="none" stroke="black" d="M697,-84.83C697,-101.2 697,-122.8 697,-122.8 697,-122.8 579.77,-122.8 579.77,-122.8"/>
<polygon fill="black" stroke="black" points="579.77,-119.3 569.77,-122.8 579.77,-126.3 579.77,-119.3"/>
</g>
<!-- TokenGenerator -->
<g id="node9" class="node">
<title>TokenGenerator</title>
<ellipse fill="#fdb462" stroke="black" cx="518" cy="-66.8" rx="74.12" ry="18"/>
<text text-anchor="middle" x="518" y="-62.6" font-family="Times,serif" font-size="14.00">TokenGenerator</text>
</g>
<!-- TokenGenerator&#45;&gt;SharingModule -->
<g id="edge8" class="edge">
<title>TokenGenerator&#45;&gt;SharingModule</title>
<path fill="none" stroke="black" d="M518,-84.91C518,-84.91 518,-103.79 518,-103.79"/>
<polygon fill="black" stroke="black" points="514.5,-103.79 518,-113.79 521.5,-103.79 514.5,-103.79"/>
</g>
</g>
</svg>
