<?xml version="1.0" encoding="UTF-8" standalone="no"?>
<!DOCTYPE svg PUBLIC "-//W3C//DTD SVG 1.1//EN"
 "http://www.w3.org/Graphics/SVG/1.1/DTD/svg11.dtd">
<!-- Generated by graphviz version 5.0.0 (20220707.1540)
 -->
<!-- Title: dependencies Pages: 1 -->
<svg width="1107pt" height="247pt"
 viewBox="0.00 0.00 1107.00 246.80" xmlns="http://www.w3.org/2000/svg" xmlns:xlink="http://www.w3.org/1999/xlink">
<g id="graph0" class="graph" transform="scale(1 1) rotate(0) translate(4 242.8)">
<title>dependencies</title>
<polygon fill="white" stroke="transparent" points="-4,4 -4,-242.8 1103,-242.8 1103,4 -4,4"/>
<text text-anchor="middle" x="549.5" y="-8.2" font-family="sans-serif" font-size="14.00">dependencies</text>
<g id="clust1" class="cluster">
<title>cluster_SharingModule</title>
<polygon fill="none" stroke="black" stroke-dasharray="1,5" points="8,-32.8 8,-230.8 1091,-230.8 1091,-32.8 8,-32.8"/>
</g>
<g id="clust4" class="cluster">
<title>cluster_SharingModule_exports</title>
<polygon fill="none" stroke="black" points="395,-170.8 395,-222.8 541,-222.8 541,-170.8 395,-170.8"/>
</g>
<g id="clust6" class="cluster">
<title>cluster_SharingModule_providers</title>
<polygon fill="none" stroke="black" points="553,-40.8 553,-92.8 1083,-92.8 1083,-40.8 553,-40.8"/>
</g>
<g id="clust3" class="cluster">
<title>cluster_SharingModule_imports</title>
<polygon fill="none" stroke="black" points="16,-40.8 16,-92.8 545,-92.8 545,-40.8 16,-40.8"/>
</g>
<!-- AuthorizationModule -->
<g id="node1" class="node">
<title>AuthorizationModule</title>
<polygon fill="#8dd3c7" stroke="black" points="536.81,-84.8 533.81,-88.8 512.81,-88.8 509.81,-84.8 399.19,-84.8 399.19,-48.8 536.81,-48.8 536.81,-84.8"/>
<text text-anchor="middle" x="468" y="-62.6" font-family="Times,serif" font-size="14.00">AuthorizationModule</text>
</g>
<!-- SharingModule -->
<g id="node5" class="node">
<title>SharingModule</title>
<polygon fill="#8dd3c7" stroke="black" points="519.6,-149.8 516.6,-153.8 495.6,-153.8 492.6,-149.8 416.4,-149.8 416.4,-113.8 519.6,-113.8 519.6,-149.8"/>
<text text-anchor="middle" x="468" y="-127.6" font-family="Times,serif" font-size="14.00">SharingModule</text>
</g>
<!-- AuthorizationModule&#45;&gt;SharingModule -->
<g id="edge1" class="edge">
<title>AuthorizationModule&#45;&gt;SharingModule</title>
<path fill="none" stroke="black" d="M468,-84.91C468,-84.91 468,-103.79 468,-103.79"/>
<polygon fill="black" stroke="black" points="464.5,-103.79 468,-113.79 471.5,-103.79 464.5,-103.79"/>
</g>
<!-- LearnroomModule -->
<g id="node2" class="node">
<title>LearnroomModule</title>
<polygon fill="#8dd3c7" stroke="black" points="380.75,-84.8 377.75,-88.8 356.75,-88.8 353.75,-84.8 259.25,-84.8 259.25,-48.8 380.75,-48.8 380.75,-84.8"/>
<text text-anchor="middle" x="320" y="-62.6" font-family="Times,serif" font-size="14.00">LearnroomModule</text>
</g>
<!-- LearnroomModule&#45;&gt;SharingModule -->
<g id="edge2" class="edge">
<title>LearnroomModule&#45;&gt;SharingModule</title>
<path fill="none" stroke="black" d="M320,-84.83C320,-101.2 320,-122.8 320,-122.8 320,-122.8 406.24,-122.8 406.24,-122.8"/>
<polygon fill="black" stroke="black" points="406.24,-126.3 416.24,-122.8 406.24,-119.3 406.24,-126.3"/>
</g>
<!-- LessonModule -->
<g id="node3" class="node">
<title>LessonModule</title>
<polygon fill="#8dd3c7" stroke="black" points="241.71,-84.8 238.71,-88.8 217.71,-88.8 214.71,-84.8 142.29,-84.8 142.29,-48.8 241.71,-48.8 241.71,-84.8"/>
<text text-anchor="middle" x="192" y="-62.6" font-family="Times,serif" font-size="14.00">LessonModule</text>
</g>
<!-- LessonModule&#45;&gt;SharingModule -->
<g id="edge3" class="edge">
<title>LessonModule&#45;&gt;SharingModule</title>
<path fill="none" stroke="black" d="M192,-84.91C192,-104.14 192,-131.8 192,-131.8 192,-131.8 406.41,-131.8 406.41,-131.8"/>
<polygon fill="black" stroke="black" points="406.41,-135.3 416.41,-131.8 406.41,-128.3 406.41,-135.3"/>
</g>
<!-- LoggerModule -->
<g id="node4" class="node">
<title>LoggerModule</title>
<polygon fill="#8dd3c7" stroke="black" points="123.98,-84.8 120.98,-88.8 99.98,-88.8 96.98,-84.8 24.02,-84.8 24.02,-48.8 123.98,-48.8 123.98,-84.8"/>
<text text-anchor="middle" x="74" y="-62.6" font-family="Times,serif" font-size="14.00">LoggerModule</text>
</g>
<!-- LoggerModule&#45;&gt;SharingModule -->
<g id="edge4" class="edge">
<title>LoggerModule&#45;&gt;SharingModule</title>
<path fill="none" stroke="black" d="M74,-85.09C74,-107.01 74,-140.8 74,-140.8 74,-140.8 406.09,-140.8 406.09,-140.8"/>
<polygon fill="black" stroke="black" points="406.09,-144.3 416.09,-140.8 406.09,-137.3 406.09,-144.3"/>
</g>
<!-- ShareTokenService  -->
<g id="node6" class="node">
<title>ShareTokenService </title>
<polygon fill="#fb8072" stroke="black" points="532.62,-214.8 403.38,-214.8 403.38,-178.8 532.62,-178.8 532.62,-214.8"/>
<text text-anchor="middle" x="468" y="-192.6" font-family="Times,serif" font-size="14.00">ShareTokenService </text>
</g>
<!-- SharingModule&#45;&gt;ShareTokenService  -->
<g id="edge5" class="edge">
<title>SharingModule&#45;&gt;ShareTokenService </title>
<path fill="none" stroke="black" stroke-dasharray="5,2" d="M468,-149.91C468,-149.91 468,-168.79 468,-168.79"/>
<polygon fill="black" stroke="black" points="464.5,-168.79 468,-178.79 471.5,-168.79 464.5,-168.79"/>
</g>
<!-- ShareTokenRepo -->
<g id="node7" class="node">
<title>ShareTokenRepo</title>
<ellipse fill="#fdb462" stroke="black" cx="997" cy="-66.8" rx="78.16" ry="18"/>
<text text-anchor="middle" x="997" y="-62.6" font-family="Times,serif" font-size="14.00">ShareTokenRepo</text>
</g>
<!-- ShareTokenRepo&#45;&gt;SharingModule -->
<g id="edge6" class="edge">
<title>ShareTokenRepo&#45;&gt;SharingModule</title>
<path fill="none" stroke="black" d="M997,-85.09C997,-107.01 997,-140.8 997,-140.8 997,-140.8 529.69,-140.8 529.69,-140.8"/>
<polygon fill="black" stroke="black" points="529.69,-137.3 519.69,-140.8 529.69,-144.3 529.69,-137.3"/>
</g>
<!-- ShareTokenService -->
<g id="node8" class="node">
<title>ShareTokenService</title>
<ellipse fill="#fdb462" stroke="black" cx="814" cy="-66.8" rx="86.8" ry="18"/>
<text text-anchor="middle" x="814" y="-62.6" font-family="Times,serif" font-size="14.00">ShareTokenService</text>
</g>
<!-- ShareTokenService&#45;&gt;SharingModule -->
<g id="edge7" class="edge">
<title>ShareTokenService&#45;&gt;SharingModule</title>
<path fill="none" stroke="black" d="M814,-84.91C814,-104.14 814,-131.8 814,-131.8 814,-131.8 529.8,-131.8 529.8,-131.8"/>
<polygon fill="black" stroke="black" points="529.8,-128.3 519.8,-131.8 529.8,-135.3 529.8,-128.3"/>
</g>
<!-- TokenGenerator -->
<g id="node9" class="node">
<title>TokenGenerator</title>
<ellipse fill="#fdb462" stroke="black" cx="635" cy="-66.8" rx="74.12" ry="18"/>
<text text-anchor="middle" x="635" y="-62.6" font-family="Times,serif" font-size="14.00">TokenGenerator</text>
</g>
<!-- TokenGenerator&#45;&gt;SharingModule -->
<g id="edge8" class="edge">
<title>TokenGenerator&#45;&gt;SharingModule</title>
<path fill="none" stroke="black" d="M635,-84.83C635,-101.2 635,-122.8 635,-122.8 635,-122.8 529.92,-122.8 529.92,-122.8"/>
<polygon fill="black" stroke="black" points="529.92,-119.3 519.92,-122.8 529.92,-126.3 529.92,-119.3"/>
</g>
</g>
</svg>
