<?xml version="1.0" encoding="UTF-8" standalone="no"?>
<!DOCTYPE svg PUBLIC "-//W3C//DTD SVG 1.1//EN"
 "http://www.w3.org/Graphics/SVG/1.1/DTD/svg11.dtd">
<!-- Generated by graphviz version 3.0.0 (20220226.1711)
 -->
<!-- Title: dependencies Pages: 1 -->
<svg width="1258pt" height="247pt"
 viewBox="0.00 0.00 1258.00 246.80" xmlns="http://www.w3.org/2000/svg" xmlns:xlink="http://www.w3.org/1999/xlink">
<g id="graph0" class="graph" transform="scale(1 1) rotate(0) translate(4 242.8)">
<title>dependencies</title>
<polygon fill="white" stroke="transparent" points="-4,4 -4,-242.8 1254,-242.8 1254,4 -4,4"/>
<text text-anchor="middle" x="625" y="-8.2" font-family="sans-serif" font-size="14.00">dependencies</text>
<g id="clust1" class="cluster">
<title>cluster_AuthModule</title>
<polygon fill="none" stroke="black" stroke-dasharray="1,5" points="8,-32.8 8,-230.8 1242,-230.8 1242,-32.8 8,-32.8"/>
</g>
<g id="clust4" class="cluster">
<title>cluster_AuthModule_exports</title>
<polygon fill="none" stroke="black" points="595,-170.8 595,-222.8 695,-222.8 695,-170.8 595,-170.8"/>
</g>
<g id="clust6" class="cluster">
<title>cluster_AuthModule_providers</title>
<polygon fill="none" stroke="black" points="16,-40.8 16,-92.8 1234,-92.8 1234,-40.8 16,-40.8"/>
</g>
<!-- AccountUc  -->
<g id="node1" class="node">
<title>AccountUc </title>
<polygon fill="#fb8072" stroke="black" points="686.75,-214.8 603.25,-214.8 603.25,-178.8 686.75,-178.8 686.75,-214.8"/>
<text text-anchor="middle" x="645" y="-192.6" font-family="Times,serif" font-size="14.00">AccountUc </text>
</g>
<!-- AuthModule -->
<g id="node2" class="node">
<title>AuthModule</title>
<polygon fill="#8dd3c7" stroke="black" points="688.55,-149.8 685.55,-153.8 664.55,-153.8 661.55,-149.8 601.45,-149.8 601.45,-113.8 688.55,-113.8 688.55,-149.8"/>
<text text-anchor="middle" x="645" y="-127.6" font-family="Times,serif" font-size="14.00">AuthModule</text>
</g>
<!-- AuthModule&#45;&gt;AccountUc  -->
<g id="edge1" class="edge">
<title>AuthModule&#45;&gt;AccountUc </title>
<path fill="none" stroke="black" stroke-dasharray="5,2" d="M645,-149.91C645,-149.91 645,-168.79 645,-168.79"/>
<polygon fill="black" stroke="black" points="641.5,-168.79 645,-178.79 648.5,-168.79 641.5,-168.79"/>
</g>
<!-- AccountRepo -->
<g id="node3" class="node">
<title>AccountRepo</title>
<ellipse fill="#fdb462" stroke="black" cx="1162" cy="-66.8" rx="64.27" ry="18"/>
<text text-anchor="middle" x="1162" y="-62.6" font-family="Times,serif" font-size="14.00">AccountRepo</text>
</g>
<!-- AccountRepo&#45;&gt;AuthModule -->
<g id="edge2" class="edge">
<title>AccountRepo&#45;&gt;AuthModule</title>
<path fill="none" stroke="black" d="M1162,-85.09C1162,-107.01 1162,-140.8 1162,-140.8 1162,-140.8 698.63,-140.8 698.63,-140.8"/>
<polygon fill="black" stroke="black" points="698.63,-137.3 688.63,-140.8 698.63,-144.3 698.63,-137.3"/>
</g>
<!-- AccountService -->
<g id="node4" class="node">
<title>AccountService</title>
<ellipse fill="#fdb462" stroke="black" cx="1007" cy="-66.8" rx="72.92" ry="18"/>
<text text-anchor="middle" x="1007" y="-62.6" font-family="Times,serif" font-size="14.00">AccountService</text>
</g>
<!-- AccountService&#45;&gt;AuthModule -->
<g id="edge3" class="edge">
<title>AccountService&#45;&gt;AuthModule</title>
<path fill="none" stroke="black" d="M1007,-84.91C1007,-104.14 1007,-131.8 1007,-131.8 1007,-131.8 698.67,-131.8 698.67,-131.8"/>
<polygon fill="black" stroke="black" points="698.67,-128.3 688.67,-131.8 698.67,-135.3 698.67,-128.3"/>
</g>
<!-- AccountUc -->
<g id="node5" class="node">
<title>AccountUc</title>
<ellipse fill="#fdb462" stroke="black" cx="861" cy="-66.8" rx="55.02" ry="18"/>
<text text-anchor="middle" x="861" y="-62.6" font-family="Times,serif" font-size="14.00">AccountUc</text>
</g>
<!-- AccountUc&#45;&gt;AuthModule -->
<g id="edge4" class="edge">
<title>AccountUc&#45;&gt;AuthModule</title>
<path fill="none" stroke="black" d="M861,-84.83C861,-101.2 861,-122.8 861,-122.8 861,-122.8 698.71,-122.8 698.71,-122.8"/>
<polygon fill="black" stroke="black" points="698.71,-119.3 688.71,-122.8 698.71,-126.3 698.71,-119.3"/>
</g>
<!-- JwtStrategy -->
<g id="node6" class="node">
<title>JwtStrategy</title>
<ellipse fill="#fdb462" stroke="black" cx="731" cy="-66.8" rx="56.77" ry="18"/>
<text text-anchor="middle" x="731" y="-62.6" font-family="Times,serif" font-size="14.00">JwtStrategy</text>
</g>
<!-- JwtStrategy&#45;&gt;AuthModule -->
<g id="edge5" class="edge">
<title>JwtStrategy&#45;&gt;AuthModule</title>
<path fill="none" stroke="black" d="M681.57,-75.84C681.57,-75.84 681.57,-103.76 681.57,-103.76"/>
<polygon fill="black" stroke="black" points="678.07,-103.76 681.57,-113.76 685.07,-103.76 678.07,-103.76"/>
</g>
<!-- JwtValidationAdapter -->
<g id="node7" class="node">
<title>JwtValidationAdapter</title>
<ellipse fill="#fdb462" stroke="black" cx="560" cy="-66.8" rx="96.14" ry="18"/>
<text text-anchor="middle" x="560" y="-62.6" font-family="Times,serif" font-size="14.00">JwtValidationAdapter</text>
</g>
<!-- JwtValidationAdapter&#45;&gt;AuthModule -->
<g id="edge6" class="edge">
<title>JwtValidationAdapter&#45;&gt;AuthModule</title>
<path fill="none" stroke="black" d="M628.77,-79.64C628.77,-79.64 628.77,-103.32 628.77,-103.32"/>
<polygon fill="black" stroke="black" points="625.27,-103.32 628.77,-113.32 632.27,-103.32 625.27,-103.32"/>
</g>
<!-- PermissionService -->
<g id="node8" class="node">
<title>PermissionService</title>
<ellipse fill="#fdb462" stroke="black" cx="363" cy="-66.8" rx="82.83" ry="18"/>
<text text-anchor="middle" x="363" y="-62.6" font-family="Times,serif" font-size="14.00">PermissionService</text>
</g>
<!-- PermissionService&#45;&gt;AuthModule -->
<g id="edge7" class="edge">
<title>PermissionService&#45;&gt;AuthModule</title>
<path fill="none" stroke="black" d="M363,-84.83C363,-101.2 363,-122.8 363,-122.8 363,-122.8 591.25,-122.8 591.25,-122.8"/>
<polygon fill="black" stroke="black" points="591.25,-126.3 601.25,-122.8 591.25,-119.3 591.25,-126.3"/>
</g>
<!-- SystemRepo -->
<g id="node9" class="node">
<title>SystemRepo</title>
<ellipse fill="#fdb462" stroke="black" cx="202" cy="-66.8" rx="59.72" ry="18"/>
<text text-anchor="middle" x="202" y="-62.6" font-family="Times,serif" font-size="14.00">SystemRepo</text>
</g>
<!-- SystemRepo&#45;&gt;AuthModule -->
<g id="edge8" class="edge">
<title>SystemRepo&#45;&gt;AuthModule</title>
<path fill="none" stroke="black" d="M202,-84.91C202,-104.14 202,-131.8 202,-131.8 202,-131.8 591.31,-131.8 591.31,-131.8"/>
<polygon fill="black" stroke="black" points="591.31,-135.3 601.31,-131.8 591.31,-128.3 591.31,-135.3"/>
</g>
<!-- UserRepo -->
<g id="node10" class="node">
<title>UserRepo</title>
<ellipse fill="#fdb462" stroke="black" cx="74" cy="-66.8" rx="49.81" ry="18"/>
<text text-anchor="middle" x="74" y="-62.6" font-family="Times,serif" font-size="14.00">UserRepo</text>
</g>
<!-- UserRepo&#45;&gt;AuthModule -->
<g id="edge9" class="edge">
<title>UserRepo&#45;&gt;AuthModule</title>
<path fill="none" stroke="black" d="M74,-85.09C74,-107.01 74,-140.8 74,-140.8 74,-140.8 591.14,-140.8 591.14,-140.8"/>
<polygon fill="black" stroke="black" points="591.14,-144.3 601.14,-140.8 591.14,-137.3 591.14,-144.3"/>
</g>
</g>
</svg>
