<?xml version="1.0" encoding="UTF-8" standalone="no"?>
<!DOCTYPE svg PUBLIC "-//W3C//DTD SVG 1.1//EN"
 "http://www.w3.org/Graphics/SVG/1.1/DTD/svg11.dtd">
<!-- Generated by graphviz version 2.47.3 (20210619.1520)
 -->
<!-- Title: dependencies Pages: 1 -->
<svg width="1368pt" height="247pt"
 viewBox="0.00 0.00 1368.00 246.80" xmlns="http://www.w3.org/2000/svg" xmlns:xlink="http://www.w3.org/1999/xlink">
<g id="graph0" class="graph" transform="scale(1 1) rotate(0) translate(4 242.8)">
<title>dependencies</title>
<polygon fill="white" stroke="transparent" points="-4,4 -4,-242.8 1364,-242.8 1364,4 -4,4"/>
<text text-anchor="middle" x="680" y="-8.2" font-family="sans-serif" font-size="14.00">dependencies</text>
<g id="clust1" class="cluster">
<title>cluster_AuthModule</title>
<polygon fill="none" stroke="black" stroke-dasharray="1,5" points="8,-32.8 8,-230.8 1352,-230.8 1352,-32.8 8,-32.8"/>
</g>
<g id="clust3" class="cluster">
<title>cluster_AuthModule_imports</title>
<polygon fill="none" stroke="black" points="1242,-40.8 1242,-92.8 1344,-92.8 1344,-40.8 1242,-40.8"/>
</g>
<g id="clust4" class="cluster">
<title>cluster_AuthModule_exports</title>
<polygon fill="none" stroke="black" points="681,-170.8 681,-222.8 781,-222.8 781,-170.8 681,-170.8"/>
</g>
<g id="clust6" class="cluster">
<title>cluster_AuthModule_providers</title>
<polygon fill="none" stroke="black" points="16,-40.8 16,-92.8 1234,-92.8 1234,-40.8 16,-40.8"/>
</g>
<!-- UserModule -->
<g id="node1" class="node">
<title>UserModule</title>
<polygon fill="#8dd3c7" stroke="black" points="1335.98,-84.8 1332.98,-88.8 1311.98,-88.8 1308.98,-84.8 1250.02,-84.8 1250.02,-48.8 1335.98,-48.8 1335.98,-84.8"/>
<text text-anchor="middle" x="1293" y="-62.6" font-family="Times,serif" font-size="14.00">UserModule</text>
</g>
<!-- AuthModule -->
<g id="node2" class="node">
<title>AuthModule</title>
<polygon fill="#8dd3c7" stroke="black" points="774.55,-149.8 771.55,-153.8 750.55,-153.8 747.55,-149.8 687.45,-149.8 687.45,-113.8 774.55,-113.8 774.55,-149.8"/>
<text text-anchor="middle" x="731" y="-127.6" font-family="Times,serif" font-size="14.00">AuthModule</text>
</g>
<!-- UserModule&#45;&gt;AuthModule -->
<g id="edge1" class="edge">
<title>UserModule&#45;&gt;AuthModule</title>
<path fill="none" stroke="black" d="M1293,-84.81C1293,-107.29 1293,-142.8 1293,-142.8 1293,-142.8 784.63,-142.8 784.63,-142.8"/>
<polygon fill="black" stroke="black" points="784.63,-139.3 774.63,-142.8 784.63,-146.3 784.63,-139.3"/>
</g>
<!-- AccountUc  -->
<g id="node3" class="node">
<title>AccountUc </title>
<polygon fill="#fb8072" stroke="black" points="772.75,-214.8 689.25,-214.8 689.25,-178.8 772.75,-178.8 772.75,-214.8"/>
<text text-anchor="middle" x="731" y="-192.6" font-family="Times,serif" font-size="14.00">AccountUc </text>
</g>
<!-- AuthModule&#45;&gt;AccountUc  -->
<g id="edge2" class="edge">
<title>AuthModule&#45;&gt;AccountUc </title>
<path fill="none" stroke="black" stroke-dasharray="5,2" d="M731,-149.91C731,-149.91 731,-168.79 731,-168.79"/>
<polygon fill="black" stroke="black" points="727.5,-168.79 731,-178.79 734.5,-168.79 727.5,-168.79"/>
</g>
<!-- AccountRepo -->
<g id="node4" class="node">
<title>AccountRepo</title>
<ellipse fill="#fdb462" stroke="black" cx="1162" cy="-66.8" rx="64.27" ry="18"/>
<text text-anchor="middle" x="1162" y="-62.6" font-family="Times,serif" font-size="14.00">AccountRepo</text>
</g>
<!-- AccountRepo&#45;&gt;AuthModule -->
<g id="edge3" class="edge">
<title>AccountRepo&#45;&gt;AuthModule</title>
<path fill="none" stroke="black" d="M1162,-84.93C1162,-105.37 1162,-135.8 1162,-135.8 1162,-135.8 784.7,-135.8 784.7,-135.8"/>
<polygon fill="black" stroke="black" points="784.7,-132.3 774.7,-135.8 784.7,-139.3 784.7,-132.3"/>
</g>
<!-- AccountService -->
<g id="node5" class="node">
<title>AccountService</title>
<ellipse fill="#fdb462" stroke="black" cx="1007" cy="-66.8" rx="72.91" ry="18"/>
<text text-anchor="middle" x="1007" y="-62.6" font-family="Times,serif" font-size="14.00">AccountService</text>
</g>
<!-- AccountService&#45;&gt;AuthModule -->
<g id="edge4" class="edge">
<title>AccountService&#45;&gt;AuthModule</title>
<path fill="none" stroke="black" d="M1007,-85.07C1007,-103.36 1007,-128.8 1007,-128.8 1007,-128.8 784.73,-128.8 784.73,-128.8"/>
<polygon fill="black" stroke="black" points="784.73,-125.3 774.73,-128.8 784.73,-132.3 784.73,-125.3"/>
</g>
<!-- AccountUc -->
<g id="node6" class="node">
<title>AccountUc</title>
<ellipse fill="#fdb462" stroke="black" cx="861" cy="-66.8" rx="55.02" ry="18"/>
<text text-anchor="middle" x="861" y="-62.6" font-family="Times,serif" font-size="14.00">AccountUc</text>
</g>
<!-- AccountUc&#45;&gt;AuthModule -->
<g id="edge5" class="edge">
<title>AccountUc&#45;&gt;AuthModule</title>
<path fill="none" stroke="black" d="M861,-84.81C861,-100.85 861,-121.8 861,-121.8 861,-121.8 784.65,-121.8 784.65,-121.8"/>
<polygon fill="black" stroke="black" points="784.65,-118.3 774.65,-121.8 784.65,-125.3 784.65,-118.3"/>
</g>
<!-- JwtStrategy -->
<g id="node7" class="node">
<title>JwtStrategy</title>
<ellipse fill="#fdb462" stroke="black" cx="731" cy="-66.8" rx="56.76" ry="18"/>
<text text-anchor="middle" x="731" y="-62.6" font-family="Times,serif" font-size="14.00">JwtStrategy</text>
</g>
<!-- JwtStrategy&#45;&gt;AuthModule -->
<g id="edge6" class="edge">
<title>JwtStrategy&#45;&gt;AuthModule</title>
<path fill="none" stroke="black" d="M731,-84.91C731,-84.91 731,-103.79 731,-103.79"/>
<polygon fill="black" stroke="black" points="727.5,-103.79 731,-113.79 734.5,-103.79 727.5,-103.79"/>
</g>
<!-- JwtValidationAdapter -->
<g id="node8" class="node">
<title>JwtValidationAdapter</title>
<ellipse fill="#fdb462" stroke="black" cx="560" cy="-66.8" rx="96.12" ry="18"/>
<text text-anchor="middle" x="560" y="-62.6" font-family="Times,serif" font-size="14.00">JwtValidationAdapter</text>
</g>
<!-- JwtValidationAdapter&#45;&gt;AuthModule -->
<g id="edge7" class="edge">
<title>JwtValidationAdapter&#45;&gt;AuthModule</title>
<path fill="none" stroke="black" d="M560,-84.81C560,-100.85 560,-121.8 560,-121.8 560,-121.8 677.41,-121.8 677.41,-121.8"/>
<polygon fill="black" stroke="black" points="677.41,-125.3 687.41,-121.8 677.41,-118.3 677.41,-125.3"/>
</g>
<!-- PermissionService -->
<g id="node9" class="node">
<title>PermissionService</title>
<ellipse fill="#fdb462" stroke="black" cx="363" cy="-66.8" rx="82.82" ry="18"/>
<text text-anchor="middle" x="363" y="-62.6" font-family="Times,serif" font-size="14.00">PermissionService</text>
</g>
<!-- PermissionService&#45;&gt;AuthModule -->
<g id="edge8" class="edge">
<title>PermissionService&#45;&gt;AuthModule</title>
<path fill="none" stroke="black" d="M363,-85.07C363,-103.36 363,-128.8 363,-128.8 363,-128.8 677.34,-128.8 677.34,-128.8"/>
<polygon fill="black" stroke="black" points="677.34,-132.3 687.34,-128.8 677.34,-125.3 677.34,-132.3"/>
</g>
<!-- SystemRepo -->
<g id="node10" class="node">
<title>SystemRepo</title>
<ellipse fill="#fdb462" stroke="black" cx="202" cy="-66.8" rx="59.71" ry="18"/>
<text text-anchor="middle" x="202" y="-62.6" font-family="Times,serif" font-size="14.00">SystemRepo</text>
</g>
<!-- SystemRepo&#45;&gt;AuthModule -->
<g id="edge9" class="edge">
<title>SystemRepo&#45;&gt;AuthModule</title>
<path fill="none" stroke="black" d="M202,-84.93C202,-105.37 202,-135.8 202,-135.8 202,-135.8 677.26,-135.8 677.26,-135.8"/>
<polygon fill="black" stroke="black" points="677.26,-139.3 687.26,-135.8 677.26,-132.3 677.26,-139.3"/>
</g>
<!-- UserRepo -->
<g id="node11" class="node">
<title>UserRepo</title>
<ellipse fill="#fdb462" stroke="black" cx="74" cy="-66.8" rx="49.8" ry="18"/>
<text text-anchor="middle" x="74" y="-62.6" font-family="Times,serif" font-size="14.00">UserRepo</text>
</g>
<!-- UserRepo&#45;&gt;AuthModule -->
<g id="edge10" class="edge">
<title>UserRepo&#45;&gt;AuthModule</title>
<path fill="none" stroke="black" d="M74,-84.81C74,-107.29 74,-142.8 74,-142.8 74,-142.8 677.38,-142.8 677.38,-142.8"/>
<polygon fill="black" stroke="black" points="677.38,-146.3 687.38,-142.8 677.38,-139.3 677.38,-146.3"/>
</g>
</g>
</svg>
