<?xml version="1.0" encoding="UTF-8" standalone="no"?>
<!DOCTYPE svg PUBLIC "-//W3C//DTD SVG 1.1//EN"
 "http://www.w3.org/Graphics/SVG/1.1/DTD/svg11.dtd">
<!-- Generated by graphviz version 3.0.0 (20220226.1711)
 -->
<!-- Title: dependencies Pages: 1 -->
<svg width="498pt" height="174pt"
 viewBox="0.00 0.00 498.00 173.80" xmlns="http://www.w3.org/2000/svg" xmlns:xlink="http://www.w3.org/1999/xlink">
<g id="graph0" class="graph" transform="scale(1 1) rotate(0) translate(4 169.8)">
<title>dependencies</title>
<polygon fill="white" stroke="transparent" points="-4,4 -4,-169.8 494,-169.8 494,4 -4,4"/>
<text text-anchor="middle" x="245" y="-8.2" font-family="sans-serif" font-size="14.00">dependencies</text>
<g id="clust1" class="cluster">
<title>cluster_AuthModule</title>
<polygon fill="none" stroke="black" stroke-dasharray="1,5" points="8,-32.8 8,-157.8 482,-157.8 482,-32.8 8,-32.8"/>
</g>
<g id="clust6" class="cluster">
<title>cluster_AuthModule_providers</title>
<polygon fill="none" stroke="black" points="16,-40.8 16,-92.8 474,-92.8 474,-40.8 16,-40.8"/>
</g>
<!-- JwtStrategy -->
<g id="node1" class="node">
<title>JwtStrategy</title>
<ellipse fill="#fdb462" stroke="black" cx="409" cy="-66.8" rx="56.77" ry="18"/>
<text text-anchor="middle" x="409" y="-62.6" font-family="Times,serif" font-size="14.00">JwtStrategy</text>
</g>
<!-- AuthModule -->
<g id="node4" class="node">
<title>AuthModule</title>
<polygon fill="#8dd3c7" stroke="black" points="281.55,-149.8 278.55,-153.8 257.55,-153.8 254.55,-149.8 194.45,-149.8 194.45,-113.8 281.55,-113.8 281.55,-149.8"/>
<text text-anchor="middle" x="238" y="-127.6" font-family="Times,serif" font-size="14.00">AuthModule</text>
</g>
<!-- JwtStrategy&#45;&gt;AuthModule -->
<g id="edge1" class="edge">
<title>JwtStrategy&#45;&gt;AuthModule</title>
<path fill="none" stroke="black" d="M409,-84.91C409,-104.14 409,-131.8 409,-131.8 409,-131.8 291.59,-131.8 291.59,-131.8"/>
<polygon fill="black" stroke="black" points="291.59,-128.3 281.59,-131.8 291.59,-135.3 291.59,-128.3"/>
</g>
<!-- JwtValidationAdapter -->
<g id="node2" class="node">
<title>JwtValidationAdapter</title>
<ellipse fill="#fdb462" stroke="black" cx="238" cy="-66.8" rx="96.14" ry="18"/>
<text text-anchor="middle" x="238" y="-62.6" font-family="Times,serif" font-size="14.00">JwtValidationAdapter</text>
</g>
<!-- JwtValidationAdapter&#45;&gt;AuthModule -->
<g id="edge2" class="edge">
<title>JwtValidationAdapter&#45;&gt;AuthModule</title>
<path fill="none" stroke="black" d="M238,-84.91C238,-84.91 238,-103.79 238,-103.79"/>
<polygon fill="black" stroke="black" points="234.5,-103.79 238,-113.79 241.5,-103.79 234.5,-103.79"/>
</g>
<!-- UserRepo -->
<g id="node3" class="node">
<title>UserRepo</title>
<ellipse fill="#fdb462" stroke="black" cx="74" cy="-66.8" rx="49.81" ry="18"/>
<text text-anchor="middle" x="74" y="-62.6" font-family="Times,serif" font-size="14.00">UserRepo</text>
</g>
<!-- UserRepo&#45;&gt;AuthModule -->
<g id="edge3" class="edge">
<title>UserRepo&#45;&gt;AuthModule</title>
<path fill="none" stroke="black" d="M74,-84.91C74,-104.14 74,-131.8 74,-131.8 74,-131.8 184.05,-131.8 184.05,-131.8"/>
<polygon fill="black" stroke="black" points="184.05,-135.3 194.05,-131.8 184.05,-128.3 184.05,-135.3"/>
</g>
</g>
</svg>
