<?xml version="1.0" encoding="UTF-8" standalone="no"?>
<!DOCTYPE svg PUBLIC "-//W3C//DTD SVG 1.1//EN"
 "http://www.w3.org/Graphics/SVG/1.1/DTD/svg11.dtd">
<!-- Generated by graphviz version 2.47.3 (20210619.1520)
 -->
<!-- Title: dependencies Pages: 1 -->
<svg width="608pt" height="174pt"
 viewBox="0.00 0.00 608.00 173.80" xmlns="http://www.w3.org/2000/svg" xmlns:xlink="http://www.w3.org/1999/xlink">
<g id="graph0" class="graph" transform="scale(1 1) rotate(0) translate(4 169.8)">
<title>dependencies</title>
<polygon fill="white" stroke="transparent" points="-4,4 -4,-169.8 604,-169.8 604,4 -4,4"/>
<text text-anchor="middle" x="300" y="-8.2" font-family="sans-serif" font-size="14.00">dependencies</text>
<g id="clust1" class="cluster">
<title>cluster_AuthModule</title>
<polygon fill="none" stroke="black" stroke-dasharray="1,5" points="8,-32.8 8,-157.8 592,-157.8 592,-32.8 8,-32.8"/>
</g>
<g id="clust3" class="cluster">
<title>cluster_AuthModule_imports</title>
<polygon fill="none" stroke="black" points="482,-40.8 482,-92.8 584,-92.8 584,-40.8 482,-40.8"/>
</g>
<g id="clust6" class="cluster">
<title>cluster_AuthModule_providers</title>
<polygon fill="none" stroke="black" points="16,-40.8 16,-92.8 474,-92.8 474,-40.8 16,-40.8"/>
</g>
<!-- UserModule -->
<g id="node1" class="node">
<title>UserModule</title>
<polygon fill="#8dd3c7" stroke="black" points="575.98,-84.8 572.98,-88.8 551.98,-88.8 548.98,-84.8 490.02,-84.8 490.02,-48.8 575.98,-48.8 575.98,-84.8"/>
<text text-anchor="middle" x="533" y="-62.6" font-family="Times,serif" font-size="14.00">UserModule</text>
</g>
<!-- AuthModule -->
<g id="node2" class="node">
<title>AuthModule</title>
<polygon fill="#8dd3c7" stroke="black" points="366.55,-149.8 363.55,-153.8 342.55,-153.8 339.55,-149.8 279.45,-149.8 279.45,-113.8 366.55,-113.8 366.55,-149.8"/>
<text text-anchor="middle" x="323" y="-127.6" font-family="Times,serif" font-size="14.00">AuthModule</text>
</g>
<!-- UserModule&#45;&gt;AuthModule -->
<g id="edge1" class="edge">
<title>UserModule&#45;&gt;AuthModule</title>
<path fill="none" stroke="black" d="M533,-84.91C533,-104.14 533,-131.8 533,-131.8 533,-131.8 376.77,-131.8 376.77,-131.8"/>
<polygon fill="black" stroke="black" points="376.77,-128.3 366.77,-131.8 376.77,-135.3 376.77,-128.3"/>
</g>
<!-- JwtStrategy -->
<g id="node3" class="node">
<title>JwtStrategy</title>
<ellipse fill="#fdb462" stroke="black" cx="409" cy="-66.8" rx="56.76" ry="18"/>
<text text-anchor="middle" x="409" y="-62.6" font-family="Times,serif" font-size="14.00">JwtStrategy</text>
</g>
<!-- JwtStrategy&#45;&gt;AuthModule -->
<g id="edge2" class="edge">
<title>JwtStrategy&#45;&gt;AuthModule</title>
<path fill="none" stroke="black" d="M359.57,-75.84C359.57,-75.84 359.57,-103.76 359.57,-103.76"/>
<polygon fill="black" stroke="black" points="356.07,-103.76 359.57,-113.76 363.07,-103.76 356.07,-103.76"/>
</g>
<!-- JwtValidationAdapter -->
<g id="node4" class="node">
<title>JwtValidationAdapter</title>
<ellipse fill="#fdb462" stroke="black" cx="238" cy="-66.8" rx="96.12" ry="18"/>
<text text-anchor="middle" x="238" y="-62.6" font-family="Times,serif" font-size="14.00">JwtValidationAdapter</text>
</g>
<!-- JwtValidationAdapter&#45;&gt;AuthModule -->
<g id="edge3" class="edge">
<title>JwtValidationAdapter&#45;&gt;AuthModule</title>
<path fill="none" stroke="black" d="M306.77,-79.64C306.77,-79.64 306.77,-103.32 306.77,-103.32"/>
<polygon fill="black" stroke="black" points="303.27,-103.32 306.77,-113.32 310.27,-103.32 303.27,-103.32"/>
</g>
<!-- UserRepo -->
<g id="node5" class="node">
<title>UserRepo</title>
<ellipse fill="#fdb462" stroke="black" cx="74" cy="-66.8" rx="49.8" ry="18"/>
<text text-anchor="middle" x="74" y="-62.6" font-family="Times,serif" font-size="14.00">UserRepo</text>
</g>
<!-- UserRepo&#45;&gt;AuthModule -->
<g id="edge4" class="edge">
<title>UserRepo&#45;&gt;AuthModule</title>
<path fill="none" stroke="black" d="M74,-84.91C74,-104.14 74,-131.8 74,-131.8 74,-131.8 269.34,-131.8 269.34,-131.8"/>
<polygon fill="black" stroke="black" points="269.34,-135.3 279.34,-131.8 269.34,-128.3 269.34,-135.3"/>
</g>
</g>
</svg>
