<?xml version="1.0" encoding="UTF-8" standalone="no"?>
<!DOCTYPE svg PUBLIC "-//W3C//DTD SVG 1.1//EN"
 "http://www.w3.org/Graphics/SVG/1.1/DTD/svg11.dtd">
<!-- Generated by graphviz version 2.47.3 (20210619.1520)
 -->
<!-- Title: dependencies Pages: 1 -->
<svg width="490pt" height="174pt"
 viewBox="0.00 0.00 490.00 173.80" xmlns="http://www.w3.org/2000/svg" xmlns:xlink="http://www.w3.org/1999/xlink">
<g id="graph0" class="graph" transform="scale(1 1) rotate(0) translate(4 169.8)">
<title>dependencies</title>
<polygon fill="white" stroke="transparent" points="-4,4 -4,-169.8 486,-169.8 486,4 -4,4"/>
<text text-anchor="middle" x="241" y="-8.2" font-family="sans-serif" font-size="14.00">dependencies</text>
<g id="clust1" class="cluster">
<title>cluster_AuthModule</title>
<polygon fill="none" stroke="black" stroke-dasharray="1,5" points="8,-32.8 8,-157.8 474,-157.8 474,-32.8 8,-32.8"/>
</g>
<g id="clust6" class="cluster">
<title>cluster_AuthModule_providers</title>
<polygon fill="none" stroke="black" points="126,-40.8 126,-92.8 466,-92.8 466,-40.8 126,-40.8"/>
</g>
<g id="clust3" class="cluster">
<title>cluster_AuthModule_imports</title>
<polygon fill="none" stroke="black" points="16,-40.8 16,-92.8 118,-92.8 118,-40.8 16,-40.8"/>
</g>
<!-- UserModule -->
<g id="node1" class="node">
<title>UserModule</title>
<polygon fill="#8dd3c7" stroke="black" points="109.98,-84.8 106.98,-88.8 85.98,-88.8 82.98,-84.8 24.02,-84.8 24.02,-48.8 109.98,-48.8 109.98,-84.8"/>
<text text-anchor="middle" x="67" y="-62.6" font-family="Times,serif" font-size="14.00">UserModule</text>
</g>
<!-- AuthModule -->
<g id="node2" class="node">
<title>AuthModule</title>
<polygon fill="#8dd3c7" stroke="black" points="273.55,-149.8 270.55,-153.8 249.55,-153.8 246.55,-149.8 186.45,-149.8 186.45,-113.8 273.55,-113.8 273.55,-149.8"/>
<text text-anchor="middle" x="230" y="-127.6" font-family="Times,serif" font-size="14.00">AuthModule</text>
</g>
<!-- UserModule&#45;&gt;AuthModule -->
<g id="edge1" class="edge">
<title>UserModule&#45;&gt;AuthModule</title>
<path fill="none" stroke="black" d="M67,-84.91C67,-104.14 67,-131.8 67,-131.8 67,-131.8 176.32,-131.8 176.32,-131.8"/>
<polygon fill="black" stroke="black" points="176.32,-135.3 186.32,-131.8 176.32,-128.3 176.32,-135.3"/>
</g>
<!-- JwtStrategy -->
<g id="node3" class="node">
<title>JwtStrategy</title>
<ellipse fill="#fdb462" stroke="black" cx="401" cy="-66.8" rx="56.76" ry="18"/>
<text text-anchor="middle" x="401" y="-62.6" font-family="Times,serif" font-size="14.00">JwtStrategy</text>
</g>
<!-- JwtStrategy&#45;&gt;AuthModule -->
<g id="edge2" class="edge">
<title>JwtStrategy&#45;&gt;AuthModule</title>
<path fill="none" stroke="black" d="M401,-84.91C401,-104.14 401,-131.8 401,-131.8 401,-131.8 283.59,-131.8 283.59,-131.8"/>
<polygon fill="black" stroke="black" points="283.59,-128.3 273.59,-131.8 283.59,-135.3 283.59,-128.3"/>
</g>
<!-- JwtValidationAdapter -->
<g id="node4" class="node">
<title>JwtValidationAdapter</title>
<ellipse fill="#fdb462" stroke="black" cx="230" cy="-66.8" rx="96.12" ry="18"/>
<text text-anchor="middle" x="230" y="-62.6" font-family="Times,serif" font-size="14.00">JwtValidationAdapter</text>
</g>
<!-- JwtValidationAdapter&#45;&gt;AuthModule -->
<g id="edge3" class="edge">
<title>JwtValidationAdapter&#45;&gt;AuthModule</title>
<path fill="none" stroke="black" d="M230,-84.91C230,-84.91 230,-103.79 230,-103.79"/>
<polygon fill="black" stroke="black" points="226.5,-103.79 230,-113.79 233.5,-103.79 226.5,-103.79"/>
</g>
</g>
</svg>
