<?xml version="1.0" encoding="UTF-8" standalone="no"?>
<!DOCTYPE svg PUBLIC "-//W3C//DTD SVG 1.1//EN"
 "http://www.w3.org/Graphics/SVG/1.1/DTD/svg11.dtd">
<!-- Generated by graphviz version 2.47.3 (20210619.1520)
 -->
<!-- Title: dependencies Pages: 1 -->
<svg width="1066pt" height="247pt"
 viewBox="0.00 0.00 1066.00 246.80" xmlns="http://www.w3.org/2000/svg" xmlns:xlink="http://www.w3.org/1999/xlink">
<g id="graph0" class="graph" transform="scale(1 1) rotate(0) translate(4 242.8)">
<title>dependencies</title>
<polygon fill="white" stroke="transparent" points="-4,4 -4,-242.8 1062,-242.8 1062,4 -4,4"/>
<text text-anchor="middle" x="529" y="-8.2" font-family="sans-serif" font-size="14.00">dependencies</text>
<g id="clust1" class="cluster">
<title>cluster_AuthModule</title>
<polygon fill="none" stroke="black" stroke-dasharray="1,5" points="8,-32.8 8,-230.8 1050,-230.8 1050,-32.8 8,-32.8"/>
</g>
<g id="clust3" class="cluster">
<title>cluster_AuthModule_imports</title>
<polygon fill="none" stroke="black" points="940,-40.8 940,-92.8 1042,-92.8 1042,-40.8 940,-40.8"/>
</g>
<g id="clust4" class="cluster">
<title>cluster_AuthModule_exports</title>
<polygon fill="none" stroke="black" points="543,-170.8 543,-222.8 643,-222.8 643,-170.8 543,-170.8"/>
</g>
<g id="clust6" class="cluster">
<title>cluster_AuthModule_providers</title>
<polygon fill="none" stroke="black" points="16,-40.8 16,-92.8 932,-92.8 932,-40.8 16,-40.8"/>
</g>
<!-- UserModule -->
<g id="node1" class="node">
<title>UserModule</title>
<polygon fill="#8dd3c7" stroke="black" points="1033.98,-84.8 1030.98,-88.8 1009.98,-88.8 1006.98,-84.8 948.02,-84.8 948.02,-48.8 1033.98,-48.8 1033.98,-84.8"/>
<text text-anchor="middle" x="991" y="-62.6" font-family="Times,serif" font-size="14.00">UserModule</text>
</g>
<!-- AuthModule -->
<g id="node2" class="node">
<title>AuthModule</title>
<polygon fill="#8dd3c7" stroke="black" points="636.55,-149.8 633.55,-153.8 612.55,-153.8 609.55,-149.8 549.45,-149.8 549.45,-113.8 636.55,-113.8 636.55,-149.8"/>
<text text-anchor="middle" x="593" y="-127.6" font-family="Times,serif" font-size="14.00">AuthModule</text>
</g>
<!-- UserModule&#45;&gt;AuthModule -->
<g id="edge1" class="edge">
<title>UserModule&#45;&gt;AuthModule</title>
<path fill="none" stroke="black" d="M991,-85.09C991,-107.01 991,-140.8 991,-140.8 991,-140.8 646.73,-140.8 646.73,-140.8"/>
<polygon fill="black" stroke="black" points="646.73,-137.3 636.73,-140.8 646.73,-144.3 646.73,-137.3"/>
</g>
<!-- AccountUc  -->
<g id="node3" class="node">
<title>AccountUc </title>
<polygon fill="#fb8072" stroke="black" points="634.75,-214.8 551.25,-214.8 551.25,-178.8 634.75,-178.8 634.75,-214.8"/>
<text text-anchor="middle" x="593" y="-192.6" font-family="Times,serif" font-size="14.00">AccountUc </text>
</g>
<!-- AuthModule&#45;&gt;AccountUc  -->
<g id="edge2" class="edge">
<title>AuthModule&#45;&gt;AccountUc </title>
<path fill="none" stroke="black" stroke-dasharray="5,2" d="M593,-149.91C593,-149.91 593,-168.79 593,-168.79"/>
<polygon fill="black" stroke="black" points="589.5,-168.79 593,-178.79 596.5,-168.79 589.5,-168.79"/>
</g>
<!-- AccountRepo -->
<g id="node4" class="node">
<title>AccountRepo</title>
<ellipse fill="#fdb462" stroke="black" cx="860" cy="-66.8" rx="64.27" ry="18"/>
<text text-anchor="middle" x="860" y="-62.6" font-family="Times,serif" font-size="14.00">AccountRepo</text>
</g>
<!-- AccountRepo&#45;&gt;AuthModule -->
<g id="edge3" class="edge">
<title>AccountRepo&#45;&gt;AuthModule</title>
<path fill="none" stroke="black" d="M860,-84.91C860,-104.14 860,-131.8 860,-131.8 860,-131.8 646.79,-131.8 646.79,-131.8"/>
<polygon fill="black" stroke="black" points="646.79,-128.3 636.79,-131.8 646.79,-135.3 646.79,-128.3"/>
</g>
<!-- AccountUc -->
<g id="node5" class="node">
<title>AccountUc</title>
<ellipse fill="#fdb462" stroke="black" cx="723" cy="-66.8" rx="55.02" ry="18"/>
<text text-anchor="middle" x="723" y="-62.6" font-family="Times,serif" font-size="14.00">AccountUc</text>
</g>
<!-- AccountUc&#45;&gt;AuthModule -->
<g id="edge4" class="edge">
<title>AccountUc&#45;&gt;AuthModule</title>
<path fill="none" stroke="black" d="M723,-84.83C723,-101.2 723,-122.8 723,-122.8 723,-122.8 646.65,-122.8 646.65,-122.8"/>
<polygon fill="black" stroke="black" points="646.65,-119.3 636.65,-122.8 646.65,-126.3 646.65,-119.3"/>
</g>
<!-- JwtStrategy -->
<g id="node6" class="node">
<title>JwtStrategy</title>
<ellipse fill="#fdb462" stroke="black" cx="593" cy="-66.8" rx="56.76" ry="18"/>
<text text-anchor="middle" x="593" y="-62.6" font-family="Times,serif" font-size="14.00">JwtStrategy</text>
</g>
<!-- JwtStrategy&#45;&gt;AuthModule -->
<g id="edge5" class="edge">
<title>JwtStrategy&#45;&gt;AuthModule</title>
<path fill="none" stroke="black" d="M593,-84.91C593,-84.91 593,-103.79 593,-103.79"/>
<polygon fill="black" stroke="black" points="589.5,-103.79 593,-113.79 596.5,-103.79 589.5,-103.79"/>
</g>
<!-- JwtValidationAdapter -->
<g id="node7" class="node">
<title>JwtValidationAdapter</title>
<ellipse fill="#fdb462" stroke="black" cx="422" cy="-66.8" rx="96.12" ry="18"/>
<text text-anchor="middle" x="422" y="-62.6" font-family="Times,serif" font-size="14.00">JwtValidationAdapter</text>
</g>
<!-- JwtValidationAdapter&#45;&gt;AuthModule -->
<g id="edge6" class="edge">
<title>JwtValidationAdapter&#45;&gt;AuthModule</title>
<path fill="none" stroke="black" d="M422,-84.83C422,-101.2 422,-122.8 422,-122.8 422,-122.8 539.41,-122.8 539.41,-122.8"/>
<polygon fill="black" stroke="black" points="539.41,-126.3 549.41,-122.8 539.41,-119.3 539.41,-126.3"/>
</g>
<!-- PermissionService -->
<g id="node8" class="node">
<title>PermissionService</title>
<ellipse fill="#fdb462" stroke="black" cx="225" cy="-66.8" rx="82.82" ry="18"/>
<text text-anchor="middle" x="225" y="-62.6" font-family="Times,serif" font-size="14.00">PermissionService</text>
</g>
<!-- PermissionService&#45;&gt;AuthModule -->
<g id="edge7" class="edge">
<title>PermissionService&#45;&gt;AuthModule</title>
<path fill="none" stroke="black" d="M225,-84.91C225,-104.14 225,-131.8 225,-131.8 225,-131.8 539.34,-131.8 539.34,-131.8"/>
<polygon fill="black" stroke="black" points="539.34,-135.3 549.34,-131.8 539.34,-128.3 539.34,-135.3"/>
</g>
<!-- UserRepo -->
<g id="node9" class="node">
<title>UserRepo</title>
<ellipse fill="#fdb462" stroke="black" cx="74" cy="-66.8" rx="49.8" ry="18"/>
<text text-anchor="middle" x="74" y="-62.6" font-family="Times,serif" font-size="14.00">UserRepo</text>
</g>
<!-- UserRepo&#45;&gt;AuthModule -->
<g id="edge8" class="edge">
<title>UserRepo&#45;&gt;AuthModule</title>
<path fill="none" stroke="black" d="M74,-85.09C74,-107.01 74,-140.8 74,-140.8 74,-140.8 539.2,-140.8 539.2,-140.8"/>
<polygon fill="black" stroke="black" points="539.2,-144.3 549.2,-140.8 539.2,-137.3 539.2,-144.3"/>
</g>
</g>
</svg>
