<?xml version="1.0" encoding="UTF-8" standalone="no"?>
<!DOCTYPE svg PUBLIC "-//W3C//DTD SVG 1.1//EN"
 "http://www.w3.org/Graphics/SVG/1.1/DTD/svg11.dtd">
<!-- Generated by graphviz version 2.47.3 (20210619.1520)
 -->
<!-- Title: dependencies Pages: 1 -->
<svg width="1066pt" height="247pt"
 viewBox="0.00 0.00 1066.00 246.80" xmlns="http://www.w3.org/2000/svg" xmlns:xlink="http://www.w3.org/1999/xlink">
<g id="graph0" class="graph" transform="scale(1 1) rotate(0) translate(4 242.8)">
<title>dependencies</title>
<polygon fill="white" stroke="transparent" points="-4,4 -4,-242.8 1062,-242.8 1062,4 -4,4"/>
<text text-anchor="middle" x="529" y="-8.2" font-family="sans-serif" font-size="14.00">dependencies</text>
<g id="clust1" class="cluster">
<title>cluster_AuthModule</title>
<polygon fill="none" stroke="black" stroke-dasharray="1,5" points="8,-32.8 8,-230.8 1050,-230.8 1050,-32.8 8,-32.8"/>
</g>
<g id="clust6" class="cluster">
<title>cluster_AuthModule_providers</title>
<polygon fill="none" stroke="black" points="126,-40.8 126,-92.8 1042,-92.8 1042,-40.8 126,-40.8"/>
</g>
<g id="clust4" class="cluster">
<title>cluster_AuthModule_exports</title>
<polygon fill="none" stroke="black" points="482,-170.8 482,-222.8 582,-222.8 582,-170.8 482,-170.8"/>
</g>
<g id="clust3" class="cluster">
<title>cluster_AuthModule_imports</title>
<polygon fill="none" stroke="black" points="16,-40.8 16,-92.8 118,-92.8 118,-40.8 16,-40.8"/>
</g>
<!-- UserModule -->
<g id="node1" class="node">
<title>UserModule</title>
<polygon fill="#8dd3c7" stroke="black" points="109.98,-84.8 106.98,-88.8 85.98,-88.8 82.98,-84.8 24.02,-84.8 24.02,-48.8 109.98,-48.8 109.98,-84.8"/>
<text text-anchor="middle" x="67" y="-62.6" font-family="Times,serif" font-size="14.00">UserModule</text>
</g>
<!-- AuthModule -->
<g id="node2" class="node">
<title>AuthModule</title>
<polygon fill="#8dd3c7" stroke="black" points="575.55,-149.8 572.55,-153.8 551.55,-153.8 548.55,-149.8 488.45,-149.8 488.45,-113.8 575.55,-113.8 575.55,-149.8"/>
<text text-anchor="middle" x="532" y="-127.6" font-family="Times,serif" font-size="14.00">AuthModule</text>
</g>
<!-- UserModule&#45;&gt;AuthModule -->
<g id="edge1" class="edge">
<title>UserModule&#45;&gt;AuthModule</title>
<path fill="none" stroke="black" d="M67,-85.09C67,-107.01 67,-140.8 67,-140.8 67,-140.8 478.25,-140.8 478.25,-140.8"/>
<polygon fill="black" stroke="black" points="478.25,-144.3 488.25,-140.8 478.25,-137.3 478.25,-144.3"/>
</g>
<!-- AccountUc  -->
<g id="node3" class="node">
<title>AccountUc </title>
<polygon fill="#fb8072" stroke="black" points="573.75,-214.8 490.25,-214.8 490.25,-178.8 573.75,-178.8 573.75,-214.8"/>
<text text-anchor="middle" x="532" y="-192.6" font-family="Times,serif" font-size="14.00">AccountUc </text>
</g>
<!-- AuthModule&#45;&gt;AccountUc  -->
<g id="edge2" class="edge">
<title>AuthModule&#45;&gt;AccountUc </title>
<path fill="none" stroke="black" stroke-dasharray="5,2" d="M532,-149.91C532,-149.91 532,-168.79 532,-168.79"/>
<polygon fill="black" stroke="black" points="528.5,-168.79 532,-178.79 535.5,-168.79 528.5,-168.79"/>
</g>
<!-- AccountRepo -->
<g id="node4" class="node">
<title>AccountRepo</title>
<ellipse fill="#fdb462" stroke="black" cx="970" cy="-66.8" rx="64.27" ry="18"/>
<text text-anchor="middle" x="970" y="-62.6" font-family="Times,serif" font-size="14.00">AccountRepo</text>
</g>
<!-- AccountRepo&#45;&gt;AuthModule -->
<g id="edge3" class="edge">
<title>AccountRepo&#45;&gt;AuthModule</title>
<path fill="none" stroke="black" d="M970,-85.09C970,-107.01 970,-140.8 970,-140.8 970,-140.8 585.6,-140.8 585.6,-140.8"/>
<polygon fill="black" stroke="black" points="585.6,-137.3 575.6,-140.8 585.6,-144.3 585.6,-137.3"/>
</g>
<!-- AccountUc -->
<g id="node5" class="node">
<title>AccountUc</title>
<ellipse fill="#fdb462" stroke="black" cx="833" cy="-66.8" rx="55.02" ry="18"/>
<text text-anchor="middle" x="833" y="-62.6" font-family="Times,serif" font-size="14.00">AccountUc</text>
</g>
<!-- AccountUc&#45;&gt;AuthModule -->
<g id="edge4" class="edge">
<title>AccountUc&#45;&gt;AuthModule</title>
<path fill="none" stroke="black" d="M833,-84.91C833,-104.14 833,-131.8 833,-131.8 833,-131.8 585.77,-131.8 585.77,-131.8"/>
<polygon fill="black" stroke="black" points="585.77,-128.3 575.77,-131.8 585.77,-135.3 585.77,-128.3"/>
</g>
<!-- JwtStrategy -->
<g id="node6" class="node">
<title>JwtStrategy</title>
<ellipse fill="#fdb462" stroke="black" cx="703" cy="-66.8" rx="56.76" ry="18"/>
<text text-anchor="middle" x="703" y="-62.6" font-family="Times,serif" font-size="14.00">JwtStrategy</text>
</g>
<!-- JwtStrategy&#45;&gt;AuthModule -->
<g id="edge5" class="edge">
<title>JwtStrategy&#45;&gt;AuthModule</title>
<path fill="none" stroke="black" d="M703,-84.83C703,-101.2 703,-122.8 703,-122.8 703,-122.8 585.59,-122.8 585.59,-122.8"/>
<polygon fill="black" stroke="black" points="585.59,-119.3 575.59,-122.8 585.59,-126.3 585.59,-119.3"/>
</g>
<!-- JwtValidationAdapter -->
<g id="node7" class="node">
<title>JwtValidationAdapter</title>
<ellipse fill="#fdb462" stroke="black" cx="532" cy="-66.8" rx="96.12" ry="18"/>
<text text-anchor="middle" x="532" y="-62.6" font-family="Times,serif" font-size="14.00">JwtValidationAdapter</text>
</g>
<!-- JwtValidationAdapter&#45;&gt;AuthModule -->
<g id="edge6" class="edge">
<title>JwtValidationAdapter&#45;&gt;AuthModule</title>
<path fill="none" stroke="black" d="M532,-84.91C532,-84.91 532,-103.79 532,-103.79"/>
<polygon fill="black" stroke="black" points="528.5,-103.79 532,-113.79 535.5,-103.79 528.5,-103.79"/>
</g>
<!-- PermissionService -->
<g id="node8" class="node">
<title>PermissionService</title>
<ellipse fill="#fdb462" stroke="black" cx="335" cy="-66.8" rx="82.82" ry="18"/>
<text text-anchor="middle" x="335" y="-62.6" font-family="Times,serif" font-size="14.00">PermissionService</text>
</g>
<!-- PermissionService&#45;&gt;AuthModule -->
<g id="edge7" class="edge">
<title>PermissionService&#45;&gt;AuthModule</title>
<path fill="none" stroke="black" d="M335,-84.83C335,-101.2 335,-122.8 335,-122.8 335,-122.8 478.28,-122.8 478.28,-122.8"/>
<polygon fill="black" stroke="black" points="478.28,-126.3 488.28,-122.8 478.28,-119.3 478.28,-126.3"/>
</g>
<!-- UserRepo -->
<g id="node9" class="node">
<title>UserRepo</title>
<ellipse fill="#fdb462" stroke="black" cx="184" cy="-66.8" rx="49.8" ry="18"/>
<text text-anchor="middle" x="184" y="-62.6" font-family="Times,serif" font-size="14.00">UserRepo</text>
</g>
<!-- UserRepo&#45;&gt;AuthModule -->
<g id="edge8" class="edge">
<title>UserRepo&#45;&gt;AuthModule</title>
<path fill="none" stroke="black" d="M184,-84.91C184,-104.14 184,-131.8 184,-131.8 184,-131.8 478.28,-131.8 478.28,-131.8"/>
<polygon fill="black" stroke="black" points="478.28,-135.3 488.28,-131.8 478.28,-128.3 478.28,-135.3"/>
</g>
</g>
</svg>
