<?xml version="1.0" encoding="UTF-8" standalone="no"?>
<!DOCTYPE svg PUBLIC "-//W3C//DTD SVG 1.1//EN"
 "http://www.w3.org/Graphics/SVG/1.1/DTD/svg11.dtd">
<!-- Generated by graphviz version 2.47.3 (20210619.1520)
 -->
<!-- Title: dependencies Pages: 1 -->
<svg width="882pt" height="247pt"
 viewBox="0.00 0.00 882.00 246.80" xmlns="http://www.w3.org/2000/svg" xmlns:xlink="http://www.w3.org/1999/xlink">
<g id="graph0" class="graph" transform="scale(1 1) rotate(0) translate(4 242.8)">
<title>dependencies</title>
<polygon fill="white" stroke="transparent" points="-4,4 -4,-242.8 878,-242.8 878,4 -4,4"/>
<text text-anchor="middle" x="437" y="-8.2" font-family="sans-serif" font-size="14.00">dependencies</text>
<g id="clust1" class="cluster">
<title>cluster_AuthModule</title>
<polygon fill="none" stroke="black" stroke-dasharray="1,5" points="8,-32.8 8,-230.8 866,-230.8 866,-32.8 8,-32.8"/>
</g>
<g id="clust3" class="cluster">
<title>cluster_AuthModule_imports</title>
<polygon fill="none" stroke="black" points="756,-40.8 756,-92.8 858,-92.8 858,-40.8 756,-40.8"/>
</g>
<g id="clust6" class="cluster">
<title>cluster_AuthModule_providers</title>
<polygon fill="none" stroke="black" points="16,-40.8 16,-92.8 748,-92.8 748,-40.8 16,-40.8"/>
</g>
<g id="clust4" class="cluster">
<title>cluster_AuthModule_exports</title>
<polygon fill="none" stroke="black" points="424,-170.8 424,-222.8 524,-222.8 524,-170.8 424,-170.8"/>
</g>
<!-- UserModule -->
<g id="node1" class="node">
<title>UserModule</title>
<polygon fill="#8dd3c7" stroke="black" points="849.98,-84.8 846.98,-88.8 825.98,-88.8 822.98,-84.8 764.02,-84.8 764.02,-48.8 849.98,-48.8 849.98,-84.8"/>
<text text-anchor="middle" x="807" y="-62.6" font-family="Times,serif" font-size="14.00">UserModule</text>
</g>
<!-- AuthModule -->
<g id="node2" class="node">
<title>AuthModule</title>
<polygon fill="#8dd3c7" stroke="black" points="517.55,-149.8 514.55,-153.8 493.55,-153.8 490.55,-149.8 430.45,-149.8 430.45,-113.8 517.55,-113.8 517.55,-149.8"/>
<text text-anchor="middle" x="474" y="-127.6" font-family="Times,serif" font-size="14.00">AuthModule</text>
</g>
<!-- UserModule&#45;&gt;AuthModule -->
<g id="edge1" class="edge">
<title>UserModule&#45;&gt;AuthModule</title>
<path fill="none" stroke="black" d="M807,-85.08C807,-106.12 807,-137.8 807,-137.8 807,-137.8 527.88,-137.8 527.88,-137.8"/>
<polygon fill="black" stroke="black" points="527.88,-134.3 517.88,-137.8 527.88,-141.3 527.88,-134.3"/>
</g>
<!-- AccountUc  -->
<g id="node3" class="node">
<title>AccountUc </title>
<polygon fill="#fb8072" stroke="black" points="515.75,-214.8 432.25,-214.8 432.25,-178.8 515.75,-178.8 515.75,-214.8"/>
<text text-anchor="middle" x="474" y="-192.6" font-family="Times,serif" font-size="14.00">AccountUc </text>
</g>
<!-- AuthModule&#45;&gt;AccountUc  -->
<g id="edge2" class="edge">
<title>AuthModule&#45;&gt;AccountUc </title>
<path fill="none" stroke="black" stroke-dasharray="5,2" d="M474,-149.91C474,-149.91 474,-168.79 474,-168.79"/>
<polygon fill="black" stroke="black" points="470.5,-168.79 474,-178.79 477.5,-168.79 470.5,-168.79"/>
</g>
<!-- AccountRepo -->
<g id="node4" class="node">
<title>AccountRepo</title>
<ellipse fill="#fdb462" stroke="black" cx="676" cy="-66.8" rx="64.27" ry="18"/>
<text text-anchor="middle" x="676" y="-62.6" font-family="Times,serif" font-size="14.00">AccountRepo</text>
</g>
<!-- AccountRepo&#45;&gt;AuthModule -->
<g id="edge3" class="edge">
<title>AccountRepo&#45;&gt;AuthModule</title>
<path fill="none" stroke="black" d="M676,-84.82C676,-102.17 676,-125.8 676,-125.8 676,-125.8 527.83,-125.8 527.83,-125.8"/>
<polygon fill="black" stroke="black" points="527.83,-122.3 517.83,-125.8 527.83,-129.3 527.83,-122.3"/>
</g>
<!-- AccountUc -->
<g id="node5" class="node">
<title>AccountUc</title>
<ellipse fill="#fdb462" stroke="black" cx="539" cy="-66.8" rx="55.02" ry="18"/>
<text text-anchor="middle" x="539" y="-62.6" font-family="Times,serif" font-size="14.00">AccountUc</text>
</g>
<!-- AccountUc&#45;&gt;AuthModule -->
<g id="edge4" class="edge">
<title>AccountUc&#45;&gt;AuthModule</title>
<path fill="none" stroke="black" d="M500.88,-79.95C500.88,-79.95 500.88,-103.49 500.88,-103.49"/>
<polygon fill="black" stroke="black" points="497.38,-103.49 500.88,-113.49 504.38,-103.49 497.38,-103.49"/>
</g>
<!-- JwtStrategy -->
<g id="node6" class="node">
<title>JwtStrategy</title>
<ellipse fill="#fdb462" stroke="black" cx="409" cy="-66.8" rx="56.76" ry="18"/>
<text text-anchor="middle" x="409" y="-62.6" font-family="Times,serif" font-size="14.00">JwtStrategy</text>
</g>
<!-- JwtStrategy&#45;&gt;AuthModule -->
<g id="edge5" class="edge">
<title>JwtStrategy&#45;&gt;AuthModule</title>
<path fill="none" stroke="black" d="M447.93,-79.95C447.93,-79.95 447.93,-103.49 447.93,-103.49"/>
<polygon fill="black" stroke="black" points="444.43,-103.49 447.93,-113.49 451.43,-103.49 444.43,-103.49"/>
</g>
<!-- JwtValidationAdapter -->
<g id="node7" class="node">
<title>JwtValidationAdapter</title>
<ellipse fill="#fdb462" stroke="black" cx="238" cy="-66.8" rx="96.12" ry="18"/>
<text text-anchor="middle" x="238" y="-62.6" font-family="Times,serif" font-size="14.00">JwtValidationAdapter</text>
</g>
<!-- JwtValidationAdapter&#45;&gt;AuthModule -->
<g id="edge6" class="edge">
<title>JwtValidationAdapter&#45;&gt;AuthModule</title>
<path fill="none" stroke="black" d="M238,-84.82C238,-102.17 238,-125.8 238,-125.8 238,-125.8 420.44,-125.8 420.44,-125.8"/>
<polygon fill="black" stroke="black" points="420.44,-129.3 430.44,-125.8 420.44,-122.3 420.44,-129.3"/>
</g>
<!-- UserRepo -->
<g id="node8" class="node">
<title>UserRepo</title>
<ellipse fill="#fdb462" stroke="black" cx="74" cy="-66.8" rx="49.8" ry="18"/>
<text text-anchor="middle" x="74" y="-62.6" font-family="Times,serif" font-size="14.00">UserRepo</text>
</g>
<!-- UserRepo&#45;&gt;AuthModule -->
<g id="edge7" class="edge">
<title>UserRepo&#45;&gt;AuthModule</title>
<path fill="none" stroke="black" d="M74,-85.08C74,-106.12 74,-137.8 74,-137.8 74,-137.8 420.43,-137.8 420.43,-137.8"/>
<polygon fill="black" stroke="black" points="420.43,-141.3 430.43,-137.8 420.43,-134.3 420.43,-141.3"/>
</g>
</g>
</svg>
