<?xml version="1.0" encoding="UTF-8" standalone="no"?>
<!DOCTYPE svg PUBLIC "-//W3C//DTD SVG 1.1//EN"
 "http://www.w3.org/Graphics/SVG/1.1/DTD/svg11.dtd">
<!-- Generated by graphviz version 5.0.0 (20220707.1540)
 -->
<!-- Title: dependencies Pages: 1 -->
<svg width="2916pt" height="247pt"
 viewBox="0.00 0.00 2916.00 246.80" xmlns="http://www.w3.org/2000/svg" xmlns:xlink="http://www.w3.org/1999/xlink">
<g id="graph0" class="graph" transform="scale(1 1) rotate(0) translate(4 242.8)">
<title>dependencies</title>
<polygon fill="white" stroke="transparent" points="-4,4 -4,-242.8 2912,-242.8 2912,4 -4,4"/>
<text text-anchor="middle" x="1454" y="-8.2" font-family="sans-serif" font-size="14.00">dependencies</text>
<g id="clust1" class="cluster">
<title>cluster_ProvisioningModule</title>
<polygon fill="none" stroke="black" stroke-dasharray="1,5" points="8,-32.8 8,-230.8 2900,-230.8 2900,-32.8 8,-32.8"/>
</g>
<g id="clust4" class="cluster">
<title>cluster_ProvisioningModule_exports</title>
<polygon fill="none" stroke="black" points="1563,-170.8 1563,-222.8 1713,-222.8 1713,-170.8 1563,-170.8"/>
</g>
<g id="clust3" class="cluster">
<title>cluster_ProvisioningModule_imports</title>
<polygon fill="none" stroke="black" points="2209,-40.8 2209,-92.8 2892,-92.8 2892,-40.8 2209,-40.8"/>
</g>
<g id="clust6" class="cluster">
<title>cluster_ProvisioningModule_providers</title>
<polygon fill="none" stroke="black" points="16,-40.8 16,-92.8 2201,-92.8 2201,-40.8 16,-40.8"/>
</g>
<!-- AccountModule -->
<g id="node1" class="node">
<title>AccountModule</title>
<polygon fill="#8dd3c7" stroke="black" points="2884.48,-84.8 2881.48,-88.8 2860.48,-88.8 2857.48,-84.8 2777.52,-84.8 2777.52,-48.8 2884.48,-48.8 2884.48,-84.8"/>
<text text-anchor="middle" x="2831" y="-62.6" font-family="Times,serif" font-size="14.00">AccountModule</text>
</g>
<!-- ProvisioningModule -->
<g id="node7" class="node">
<title>ProvisioningModule</title>
<polygon fill="#8dd3c7" stroke="black" points="1703.62,-149.8 1700.62,-153.8 1679.62,-153.8 1676.62,-149.8 1572.38,-149.8 1572.38,-113.8 1703.62,-113.8 1703.62,-149.8"/>
<text text-anchor="middle" x="1638" y="-127.6" font-family="Times,serif" font-size="14.00">ProvisioningModule</text>
</g>
<!-- AccountModule&#45;&gt;ProvisioningModule -->
<g id="edge1" class="edge">
<title>AccountModule&#45;&gt;ProvisioningModule</title>
<path fill="none" stroke="black" d="M2831,-85.12C2831,-108.46 2831,-145.8 2831,-145.8 2831,-145.8 1713.84,-145.8 1713.84,-145.8"/>
<polygon fill="black" stroke="black" points="1713.84,-142.3 1703.84,-145.8 1713.84,-149.3 1713.84,-142.3"/>
</g>
<!-- LoggerModule -->
<g id="node2" class="node">
<title>LoggerModule</title>
<polygon fill="#8dd3c7" stroke="black" points="2759.98,-84.8 2756.98,-88.8 2735.98,-88.8 2732.98,-84.8 2660.02,-84.8 2660.02,-48.8 2759.98,-48.8 2759.98,-84.8"/>
<text text-anchor="middle" x="2710" y="-62.6" font-family="Times,serif" font-size="14.00">LoggerModule</text>
</g>
<!-- LoggerModule&#45;&gt;ProvisioningModule -->
<g id="edge2" class="edge">
<title>LoggerModule&#45;&gt;ProvisioningModule</title>
<path fill="none" stroke="black" d="M2710,-84.96C2710,-107.15 2710,-141.8 2710,-141.8 2710,-141.8 1713.85,-141.8 1713.85,-141.8"/>
<polygon fill="black" stroke="black" points="1713.85,-138.3 1703.85,-141.8 1713.85,-145.3 1713.85,-138.3"/>
</g>
<!-- RoleModule -->
<g id="node3" class="node">
<title>RoleModule</title>
<polygon fill="#8dd3c7" stroke="black" points="2641.99,-84.8 2638.99,-88.8 2617.99,-88.8 2614.99,-84.8 2556.01,-84.8 2556.01,-48.8 2641.99,-48.8 2641.99,-84.8"/>
<text text-anchor="middle" x="2599" y="-62.6" font-family="Times,serif" font-size="14.00">RoleModule</text>
</g>
<!-- RoleModule&#45;&gt;ProvisioningModule -->
<g id="edge3" class="edge">
<title>RoleModule&#45;&gt;ProvisioningModule</title>
<path fill="none" stroke="black" d="M2599,-85.08C2599,-106.12 2599,-137.8 2599,-137.8 2599,-137.8 1713.68,-137.8 1713.68,-137.8"/>
<polygon fill="black" stroke="black" points="1713.68,-134.3 1703.68,-137.8 1713.68,-141.3 1713.68,-134.3"/>
</g>
<!-- SchoolModule -->
<g id="node4" class="node">
<title>SchoolModule</title>
<polygon fill="#8dd3c7" stroke="black" points="2538.44,-84.8 2535.44,-88.8 2514.44,-88.8 2511.44,-84.8 2439.56,-84.8 2439.56,-48.8 2538.44,-48.8 2538.44,-84.8"/>
<text text-anchor="middle" x="2489" y="-62.6" font-family="Times,serif" font-size="14.00">SchoolModule</text>
</g>
<!-- SchoolModule&#45;&gt;ProvisioningModule -->
<g id="edge4" class="edge">
<title>SchoolModule&#45;&gt;ProvisioningModule</title>
<path fill="none" stroke="black" d="M2489,-85.11C2489,-104.95 2489,-133.8 2489,-133.8 2489,-133.8 1713.72,-133.8 1713.72,-133.8"/>
<polygon fill="black" stroke="black" points="1713.72,-130.3 1703.72,-133.8 1713.72,-137.3 1713.72,-130.3"/>
</g>
<!-- SystemModule -->
<g id="node5" class="node">
<title>SystemModule</title>
<polygon fill="#8dd3c7" stroke="black" points="2421.28,-84.8 2418.28,-88.8 2397.28,-88.8 2394.28,-84.8 2320.72,-84.8 2320.72,-48.8 2421.28,-48.8 2421.28,-84.8"/>
<text text-anchor="middle" x="2371" y="-62.6" font-family="Times,serif" font-size="14.00">SystemModule</text>
</g>
<!-- SystemModule&#45;&gt;ProvisioningModule -->
<g id="edge5" class="edge">
<title>SystemModule&#45;&gt;ProvisioningModule</title>
<path fill="none" stroke="black" d="M2371,-85.02C2371,-103.63 2371,-129.8 2371,-129.8 2371,-129.8 1713.69,-129.8 1713.69,-129.8"/>
<polygon fill="black" stroke="black" points="1713.69,-126.3 1703.69,-129.8 1713.69,-133.3 1713.69,-126.3"/>
</g>
<!-- UserModule -->
<g id="node6" class="node">
<title>UserModule</title>
<polygon fill="#8dd3c7" stroke="black" points="2302.99,-84.8 2299.99,-88.8 2278.99,-88.8 2275.99,-84.8 2217.01,-84.8 2217.01,-48.8 2302.99,-48.8 2302.99,-84.8"/>
<text text-anchor="middle" x="2260" y="-62.6" font-family="Times,serif" font-size="14.00">UserModule</text>
</g>
<!-- UserModule&#45;&gt;ProvisioningModule -->
<g id="edge6" class="edge">
<title>UserModule&#45;&gt;ProvisioningModule</title>
<path fill="none" stroke="black" d="M2260,-84.82C2260,-102.17 2260,-125.8 2260,-125.8 2260,-125.8 1713.68,-125.8 1713.68,-125.8"/>
<polygon fill="black" stroke="black" points="1713.68,-122.3 1703.68,-125.8 1713.68,-129.3 1713.68,-122.3"/>
</g>
<!-- ProvisioningService  -->
<g id="node8" class="node">
<title>ProvisioningService </title>
<polygon fill="#fb8072" stroke="black" points="1704.54,-214.8 1571.46,-214.8 1571.46,-178.8 1704.54,-178.8 1704.54,-214.8"/>
<text text-anchor="middle" x="1638" y="-192.6" font-family="Times,serif" font-size="14.00">ProvisioningService </text>
</g>
<!-- ProvisioningModule&#45;&gt;ProvisioningService  -->
<g id="edge7" class="edge">
<title>ProvisioningModule&#45;&gt;ProvisioningService </title>
<path fill="none" stroke="black" stroke-dasharray="5,2" d="M1638,-149.91C1638,-149.91 1638,-168.79 1638,-168.79"/>
<polygon fill="black" stroke="black" points="1634.5,-168.79 1638,-178.79 1641.5,-168.79 1634.5,-168.79"/>
</g>
<!-- IservProvisioningStrategy -->
<g id="node9" class="node">
<title>IservProvisioningStrategy</title>
<ellipse fill="#fdb462" stroke="black" cx="2081" cy="-66.8" rx="111.78" ry="18"/>
<text text-anchor="middle" x="2081" y="-62.6" font-family="Times,serif" font-size="14.00">IservProvisioningStrategy</text>
</g>
<!-- IservProvisioningStrategy&#45;&gt;ProvisioningModule -->
<g id="edge8" class="edge">
<title>IservProvisioningStrategy&#45;&gt;ProvisioningModule</title>
<path fill="none" stroke="black" d="M2081,-84.81C2081,-100.85 2081,-121.8 2081,-121.8 2081,-121.8 1713.84,-121.8 1713.84,-121.8"/>
<polygon fill="black" stroke="black" points="1713.84,-118.3 1703.84,-121.8 1713.84,-125.3 1713.84,-118.3"/>
</g>
<!-- Logger -->
<g id="node10" class="node">
<title>Logger</title>
<ellipse fill="#fdb462" stroke="black" cx="1912" cy="-66.8" rx="38.85" ry="18"/>
<text text-anchor="middle" x="1912" y="-62.6" font-family="Times,serif" font-size="14.00">Logger</text>
</g>
<!-- Logger&#45;&gt;ProvisioningModule -->
<g id="edge9" class="edge">
<title>Logger&#45;&gt;ProvisioningModule</title>
<path fill="none" stroke="black" d="M1912,-84.92C1912,-99.58 1912,-117.8 1912,-117.8 1912,-117.8 1713.63,-117.8 1713.63,-117.8"/>
<polygon fill="black" stroke="black" points="1713.63,-114.3 1703.63,-117.8 1713.63,-121.3 1713.63,-114.3"/>
</g>
<!-- OidcProvisioningStrategy -->
<g id="node11" class="node">
<title>OidcProvisioningStrategy</title>
<ellipse fill="#fdb462" stroke="black" cx="1744" cy="-66.8" rx="111.21" ry="18"/>
<text text-anchor="middle" x="1744" y="-62.6" font-family="Times,serif" font-size="14.00">OidcProvisioningStrategy</text>
</g>
<!-- OidcProvisioningStrategy&#45;&gt;ProvisioningModule -->
<g id="edge10" class="edge">
<title>OidcProvisioningStrategy&#45;&gt;ProvisioningModule</title>
<path fill="none" stroke="black" d="M1668.1,-80.27C1668.1,-80.27 1668.1,-103.66 1668.1,-103.66"/>
<polygon fill="black" stroke="black" points="1664.6,-103.66 1668.1,-113.66 1671.6,-103.66 1664.6,-103.66"/>
</g>
<!-- PermissionService -->
<g id="node12" class="node">
<title>PermissionService</title>
<ellipse fill="#fdb462" stroke="black" cx="1532" cy="-66.8" rx="82.83" ry="18"/>
<text text-anchor="middle" x="1532" y="-62.6" font-family="Times,serif" font-size="14.00">PermissionService</text>
</g>
<!-- PermissionService&#45;&gt;ProvisioningModule -->
<g id="edge11" class="edge">
<title>PermissionService&#45;&gt;ProvisioningModule</title>
<path fill="none" stroke="black" d="M1593.68,-79.03C1593.68,-79.03 1593.68,-103.48 1593.68,-103.48"/>
<polygon fill="black" stroke="black" points="1590.18,-103.48 1593.68,-113.48 1597.18,-103.48 1590.18,-103.48"/>
</g>
<!-- ProvisioningService -->
<g id="node13" class="node">
<title>ProvisioningService</title>
<ellipse fill="#fdb462" stroke="black" cx="1342" cy="-66.8" rx="89.22" ry="18"/>
<text text-anchor="middle" x="1342" y="-62.6" font-family="Times,serif" font-size="14.00">ProvisioningService</text>
</g>
<!-- ProvisioningService&#45;&gt;ProvisioningModule -->
<g id="edge12" class="edge">
<title>ProvisioningService&#45;&gt;ProvisioningModule</title>
<path fill="none" stroke="black" d="M1342,-84.92C1342,-99.58 1342,-117.8 1342,-117.8 1342,-117.8 1562.31,-117.8 1562.31,-117.8"/>
<polygon fill="black" stroke="black" points="1562.31,-121.3 1572.31,-117.8 1562.31,-114.3 1562.31,-121.3"/>
</g>
<!-- RoleRepo -->
<g id="node14" class="node">
<title>RoleRepo</title>
<ellipse fill="#fdb462" stroke="black" cx="1185" cy="-66.8" rx="49.82" ry="18"/>
<text text-anchor="middle" x="1185" y="-62.6" font-family="Times,serif" font-size="14.00">RoleRepo</text>
</g>
<!-- RoleRepo&#45;&gt;ProvisioningModule -->
<g id="edge13" class="edge">
<title>RoleRepo&#45;&gt;ProvisioningModule</title>
<path fill="none" stroke="black" d="M1185,-84.81C1185,-100.85 1185,-121.8 1185,-121.8 1185,-121.8 1562.13,-121.8 1562.13,-121.8"/>
<polygon fill="black" stroke="black" points="1562.13,-125.3 1572.13,-121.8 1562.13,-118.3 1562.13,-125.3"/>
</g>
<!-- SanisProvisioningStrategy -->
<g id="node15" class="node">
<title>SanisProvisioningStrategy</title>
<ellipse fill="#fdb462" stroke="black" cx="1004" cy="-66.8" rx="113.52" ry="18"/>
<text text-anchor="middle" x="1004" y="-62.6" font-family="Times,serif" font-size="14.00">SanisProvisioningStrategy</text>
</g>
<!-- SanisProvisioningStrategy&#45;&gt;ProvisioningModule -->
<g id="edge14" class="edge">
<title>SanisProvisioningStrategy&#45;&gt;ProvisioningModule</title>
<path fill="none" stroke="black" d="M1004,-84.82C1004,-102.17 1004,-125.8 1004,-125.8 1004,-125.8 1562.24,-125.8 1562.24,-125.8"/>
<polygon fill="black" stroke="black" points="1562.24,-129.3 1572.24,-125.8 1562.24,-122.3 1562.24,-129.3"/>
</g>
<!-- SanisResponseMapper -->
<g id="node16" class="node">
<title>SanisResponseMapper</title>
<ellipse fill="#fdb462" stroke="black" cx="773" cy="-66.8" rx="99.02" ry="18"/>
<text text-anchor="middle" x="773" y="-62.6" font-family="Times,serif" font-size="14.00">SanisResponseMapper</text>
</g>
<!-- SanisResponseMapper&#45;&gt;ProvisioningModule -->
<g id="edge15" class="edge">
<title>SanisResponseMapper&#45;&gt;ProvisioningModule</title>
<path fill="none" stroke="black" d="M773,-85.02C773,-103.63 773,-129.8 773,-129.8 773,-129.8 1562.27,-129.8 1562.27,-129.8"/>
<polygon fill="black" stroke="black" points="1562.27,-133.3 1572.27,-129.8 1562.27,-126.3 1562.27,-133.3"/>
</g>
<!-- SanisSchoolService -->
<g id="node17" class="node">
<title>SanisSchoolService</title>
<ellipse fill="#fdb462" stroke="black" cx="568" cy="-66.8" rx="87.99" ry="18"/>
<text text-anchor="middle" x="568" y="-62.6" font-family="Times,serif" font-size="14.00">SanisSchoolService</text>
</g>
<!-- SanisSchoolService&#45;&gt;ProvisioningModule -->
<g id="edge16" class="edge">
<title>SanisSchoolService&#45;&gt;ProvisioningModule</title>
<path fill="none" stroke="black" d="M568,-85.11C568,-104.95 568,-133.8 568,-133.8 568,-133.8 1562.28,-133.8 1562.28,-133.8"/>
<polygon fill="black" stroke="black" points="1562.28,-137.3 1572.28,-133.8 1562.28,-130.3 1562.28,-137.3"/>
</g>
<!-- SanisUserService -->
<g id="node18" class="node">
<title>SanisUserService</title>
<ellipse fill="#fdb462" stroke="black" cx="383" cy="-66.8" rx="79.31" ry="18"/>
<text text-anchor="middle" x="383" y="-62.6" font-family="Times,serif" font-size="14.00">SanisUserService</text>
</g>
<!-- SanisUserService&#45;&gt;ProvisioningModule -->
<g id="edge17" class="edge">
<title>SanisUserService&#45;&gt;ProvisioningModule</title>
<path fill="none" stroke="black" d="M383,-85.08C383,-106.12 383,-137.8 383,-137.8 383,-137.8 1562.29,-137.8 1562.29,-137.8"/>
<polygon fill="black" stroke="black" points="1562.29,-141.3 1572.29,-137.8 1562.29,-134.3 1562.29,-141.3"/>
</g>
<!-- SchoolRepo -->
<g id="node19" class="node">
<title>SchoolRepo</title>
<ellipse fill="#fdb462" stroke="black" cx="228" cy="-66.8" rx="58.49" ry="18"/>
<text text-anchor="middle" x="228" y="-62.6" font-family="Times,serif" font-size="14.00">SchoolRepo</text>
</g>
<!-- SchoolRepo&#45;&gt;ProvisioningModule -->
<g id="edge18" class="edge">
<title>SchoolRepo&#45;&gt;ProvisioningModule</title>
<path fill="none" stroke="black" d="M228,-84.96C228,-107.15 228,-141.8 228,-141.8 228,-141.8 1562.35,-141.8 1562.35,-141.8"/>
<polygon fill="black" stroke="black" points="1562.35,-145.3 1572.35,-141.8 1562.35,-138.3 1562.35,-145.3"/>
</g>
<!-- UserDORepo -->
<g id="node20" class="node">
<title>UserDORepo</title>
<ellipse fill="#fdb462" stroke="black" cx="88" cy="-66.8" rx="63.71" ry="18"/>
<text text-anchor="middle" x="88" y="-62.6" font-family="Times,serif" font-size="14.00">UserDORepo</text>
</g>
<!-- UserDORepo&#45;&gt;ProvisioningModule -->
<g id="edge19" class="edge">
<title>UserDORepo&#45;&gt;ProvisioningModule</title>
<path fill="none" stroke="black" d="M88,-85.12C88,-108.46 88,-145.8 88,-145.8 88,-145.8 1562.39,-145.8 1562.39,-145.8"/>
<polygon fill="black" stroke="black" points="1562.39,-149.3 1572.39,-145.8 1562.39,-142.3 1562.39,-149.3"/>
</g>
</g>
</svg>
