<?xml version="1.0" encoding="UTF-8" standalone="no"?>
<!DOCTYPE svg PUBLIC "-//W3C//DTD SVG 1.1//EN"
 "http://www.w3.org/Graphics/SVG/1.1/DTD/svg11.dtd">
<!-- Generated by graphviz version 5.0.0 (20220707.1540)
 -->
<!-- Title: dependencies Pages: 1 -->
<svg width="2916pt" height="247pt"
 viewBox="0.00 0.00 2916.00 246.80" xmlns="http://www.w3.org/2000/svg" xmlns:xlink="http://www.w3.org/1999/xlink">
<g id="graph0" class="graph" transform="scale(1 1) rotate(0) translate(4 242.8)">
<title>dependencies</title>
<polygon fill="white" stroke="transparent" points="-4,4 -4,-242.8 2912,-242.8 2912,4 -4,4"/>
<text text-anchor="middle" x="1454" y="-8.2" font-family="sans-serif" font-size="14.00">dependencies</text>
<g id="clust1" class="cluster">
<title>cluster_ProvisioningModule</title>
<polygon fill="none" stroke="black" stroke-dasharray="1,5" points="8,-32.8 8,-230.8 2900,-230.8 2900,-32.8 8,-32.8"/>
</g>
<g id="clust4" class="cluster">
<title>cluster_ProvisioningModule_exports</title>
<polygon fill="none" stroke="black" points="1091,-170.8 1091,-222.8 1241,-222.8 1241,-170.8 1091,-170.8"/>
</g>
<g id="clust6" class="cluster">
<title>cluster_ProvisioningModule_providers</title>
<polygon fill="none" stroke="black" points="707,-40.8 707,-92.8 2892,-92.8 2892,-40.8 707,-40.8"/>
</g>
<g id="clust3" class="cluster">
<title>cluster_ProvisioningModule_imports</title>
<polygon fill="none" stroke="black" points="16,-40.8 16,-92.8 699,-92.8 699,-40.8 16,-40.8"/>
</g>
<!-- AccountModule -->
<g id="node1" class="node">
<title>AccountModule</title>
<polygon fill="#8dd3c7" stroke="black" points="691.48,-84.8 688.48,-88.8 667.48,-88.8 664.48,-84.8 584.52,-84.8 584.52,-48.8 691.48,-48.8 691.48,-84.8"/>
<text text-anchor="middle" x="638" y="-62.6" font-family="Times,serif" font-size="14.00">AccountModule</text>
</g>
<!-- ProvisioningModule -->
<g id="node7" class="node">
<title>ProvisioningModule</title>
<polygon fill="#8dd3c7" stroke="black" points="1231.62,-149.8 1228.62,-153.8 1207.62,-153.8 1204.62,-149.8 1100.38,-149.8 1100.38,-113.8 1231.62,-113.8 1231.62,-149.8"/>
<text text-anchor="middle" x="1166" y="-127.6" font-family="Times,serif" font-size="14.00">ProvisioningModule</text>
</g>
<!-- AccountModule&#45;&gt;ProvisioningModule -->
<g id="edge1" class="edge">
<title>AccountModule&#45;&gt;ProvisioningModule</title>
<path fill="none" stroke="black" d="M638,-84.82C638,-102.17 638,-125.8 638,-125.8 638,-125.8 1090.2,-125.8 1090.2,-125.8"/>
<polygon fill="black" stroke="black" points="1090.2,-129.3 1100.2,-125.8 1090.2,-122.3 1090.2,-129.3"/>
</g>
<!-- LoggerModule -->
<g id="node2" class="node">
<title>LoggerModule</title>
<polygon fill="#8dd3c7" stroke="black" points="566.98,-84.8 563.98,-88.8 542.98,-88.8 539.98,-84.8 467.02,-84.8 467.02,-48.8 566.98,-48.8 566.98,-84.8"/>
<text text-anchor="middle" x="517" y="-62.6" font-family="Times,serif" font-size="14.00">LoggerModule</text>
</g>
<!-- LoggerModule&#45;&gt;ProvisioningModule -->
<g id="edge2" class="edge">
<title>LoggerModule&#45;&gt;ProvisioningModule</title>
<path fill="none" stroke="black" d="M517,-85.02C517,-103.63 517,-129.8 517,-129.8 517,-129.8 1090.2,-129.8 1090.2,-129.8"/>
<polygon fill="black" stroke="black" points="1090.2,-133.3 1100.2,-129.8 1090.2,-126.3 1090.2,-133.3"/>
</g>
<!-- RoleModule -->
<g id="node3" class="node">
<title>RoleModule</title>
<polygon fill="#8dd3c7" stroke="black" points="448.99,-84.8 445.99,-88.8 424.99,-88.8 421.99,-84.8 363.01,-84.8 363.01,-48.8 448.99,-48.8 448.99,-84.8"/>
<text text-anchor="middle" x="406" y="-62.6" font-family="Times,serif" font-size="14.00">RoleModule</text>
</g>
<!-- RoleModule&#45;&gt;ProvisioningModule -->
<g id="edge3" class="edge">
<title>RoleModule&#45;&gt;ProvisioningModule</title>
<path fill="none" stroke="black" d="M406,-85.11C406,-104.95 406,-133.8 406,-133.8 406,-133.8 1090.22,-133.8 1090.22,-133.8"/>
<polygon fill="black" stroke="black" points="1090.22,-137.3 1100.22,-133.8 1090.22,-130.3 1090.22,-137.3"/>
</g>
<!-- SchoolModule -->
<g id="node4" class="node">
<title>SchoolModule</title>
<polygon fill="#8dd3c7" stroke="black" points="345.44,-84.8 342.44,-88.8 321.44,-88.8 318.44,-84.8 246.56,-84.8 246.56,-48.8 345.44,-48.8 345.44,-84.8"/>
<text text-anchor="middle" x="296" y="-62.6" font-family="Times,serif" font-size="14.00">SchoolModule</text>
</g>
<!-- SchoolModule&#45;&gt;ProvisioningModule -->
<g id="edge4" class="edge">
<title>SchoolModule&#45;&gt;ProvisioningModule</title>
<path fill="none" stroke="black" d="M296,-85.08C296,-106.12 296,-137.8 296,-137.8 296,-137.8 1090.25,-137.8 1090.25,-137.8"/>
<polygon fill="black" stroke="black" points="1090.25,-141.3 1100.25,-137.8 1090.25,-134.3 1090.25,-141.3"/>
</g>
<!-- SystemModule -->
<g id="node5" class="node">
<title>SystemModule</title>
<polygon fill="#8dd3c7" stroke="black" points="228.28,-84.8 225.28,-88.8 204.28,-88.8 201.28,-84.8 127.72,-84.8 127.72,-48.8 228.28,-48.8 228.28,-84.8"/>
<text text-anchor="middle" x="178" y="-62.6" font-family="Times,serif" font-size="14.00">SystemModule</text>
</g>
<!-- SystemModule&#45;&gt;ProvisioningModule -->
<g id="edge5" class="edge">
<title>SystemModule&#45;&gt;ProvisioningModule</title>
<path fill="none" stroke="black" d="M178,-84.96C178,-107.15 178,-141.8 178,-141.8 178,-141.8 1090.41,-141.8 1090.41,-141.8"/>
<polygon fill="black" stroke="black" points="1090.41,-145.3 1100.41,-141.8 1090.41,-138.3 1090.41,-145.3"/>
</g>
<!-- UserModule -->
<g id="node6" class="node">
<title>UserModule</title>
<polygon fill="#8dd3c7" stroke="black" points="109.99,-84.8 106.99,-88.8 85.99,-88.8 82.99,-84.8 24.01,-84.8 24.01,-48.8 109.99,-48.8 109.99,-84.8"/>
<text text-anchor="middle" x="67" y="-62.6" font-family="Times,serif" font-size="14.00">UserModule</text>
</g>
<!-- UserModule&#45;&gt;ProvisioningModule -->
<g id="edge6" class="edge">
<title>UserModule&#45;&gt;ProvisioningModule</title>
<path fill="none" stroke="black" d="M67,-85.12C67,-108.46 67,-145.8 67,-145.8 67,-145.8 1090.14,-145.8 1090.14,-145.8"/>
<polygon fill="black" stroke="black" points="1090.14,-149.3 1100.14,-145.8 1090.14,-142.3 1090.14,-149.3"/>
</g>
<!-- ProvisioningService  -->
<g id="node8" class="node">
<title>ProvisioningService </title>
<polygon fill="#fb8072" stroke="black" points="1232.54,-214.8 1099.46,-214.8 1099.46,-178.8 1232.54,-178.8 1232.54,-214.8"/>
<text text-anchor="middle" x="1166" y="-192.6" font-family="Times,serif" font-size="14.00">ProvisioningService </text>
</g>
<!-- ProvisioningModule&#45;&gt;ProvisioningService  -->
<g id="edge7" class="edge">
<title>ProvisioningModule&#45;&gt;ProvisioningService </title>
<path fill="none" stroke="black" stroke-dasharray="5,2" d="M1166,-149.91C1166,-149.91 1166,-168.79 1166,-168.79"/>
<polygon fill="black" stroke="black" points="1162.5,-168.79 1166,-178.79 1169.5,-168.79 1162.5,-168.79"/>
</g>
<!-- IservProvisioningStrategy -->
<g id="node9" class="node">
<title>IservProvisioningStrategy</title>
<ellipse fill="#fdb462" stroke="black" cx="2772" cy="-66.8" rx="111.78" ry="18"/>
<text text-anchor="middle" x="2772" y="-62.6" font-family="Times,serif" font-size="14.00">IservProvisioningStrategy</text>
</g>
<!-- IservProvisioningStrategy&#45;&gt;ProvisioningModule -->
<g id="edge8" class="edge">
<title>IservProvisioningStrategy&#45;&gt;ProvisioningModule</title>
<path fill="none" stroke="black" d="M2772,-85.12C2772,-108.46 2772,-145.8 2772,-145.8 2772,-145.8 1241.7,-145.8 1241.7,-145.8"/>
<polygon fill="black" stroke="black" points="1241.7,-142.3 1231.7,-145.8 1241.7,-149.3 1241.7,-142.3"/>
</g>
<!-- Logger -->
<g id="node10" class="node">
<title>Logger</title>
<ellipse fill="#fdb462" stroke="black" cx="2603" cy="-66.8" rx="38.85" ry="18"/>
<text text-anchor="middle" x="2603" y="-62.6" font-family="Times,serif" font-size="14.00">Logger</text>
</g>
<!-- Logger&#45;&gt;ProvisioningModule -->
<g id="edge9" class="edge">
<title>Logger&#45;&gt;ProvisioningModule</title>
<path fill="none" stroke="black" d="M2603,-84.96C2603,-107.15 2603,-141.8 2603,-141.8 2603,-141.8 1241.95,-141.8 1241.95,-141.8"/>
<polygon fill="black" stroke="black" points="1241.95,-138.3 1231.95,-141.8 1241.95,-145.3 1241.95,-138.3"/>
</g>
<!-- OidcProvisioningStrategy -->
<g id="node11" class="node">
<title>OidcProvisioningStrategy</title>
<ellipse fill="#fdb462" stroke="black" cx="2435" cy="-66.8" rx="111.21" ry="18"/>
<text text-anchor="middle" x="2435" y="-62.6" font-family="Times,serif" font-size="14.00">OidcProvisioningStrategy</text>
</g>
<!-- OidcProvisioningStrategy&#45;&gt;ProvisioningModule -->
<g id="edge10" class="edge">
<title>OidcProvisioningStrategy&#45;&gt;ProvisioningModule</title>
<path fill="none" stroke="black" d="M2435,-85.08C2435,-106.12 2435,-137.8 2435,-137.8 2435,-137.8 1242,-137.8 1242,-137.8"/>
<polygon fill="black" stroke="black" points="1242,-134.3 1232,-137.8 1242,-141.3 1242,-134.3"/>
</g>
<!-- PermissionService -->
<g id="node12" class="node">
<title>PermissionService</title>
<ellipse fill="#fdb462" stroke="black" cx="2223" cy="-66.8" rx="82.83" ry="18"/>
<text text-anchor="middle" x="2223" y="-62.6" font-family="Times,serif" font-size="14.00">PermissionService</text>
</g>
<!-- PermissionService&#45;&gt;ProvisioningModule -->
<g id="edge11" class="edge">
<title>PermissionService&#45;&gt;ProvisioningModule</title>
<path fill="none" stroke="black" d="M2223,-85.11C2223,-104.95 2223,-133.8 2223,-133.8 2223,-133.8 1241.72,-133.8 1241.72,-133.8"/>
<polygon fill="black" stroke="black" points="1241.72,-130.3 1231.72,-133.8 1241.72,-137.3 1241.72,-130.3"/>
</g>
<!-- ProvisioningService -->
<g id="node13" class="node">
<title>ProvisioningService</title>
<ellipse fill="#fdb462" stroke="black" cx="2033" cy="-66.8" rx="89.22" ry="18"/>
<text text-anchor="middle" x="2033" y="-62.6" font-family="Times,serif" font-size="14.00">ProvisioningService</text>
</g>
<!-- ProvisioningService&#45;&gt;ProvisioningModule -->
<g id="edge12" class="edge">
<title>ProvisioningService&#45;&gt;ProvisioningModule</title>
<path fill="none" stroke="black" d="M2033,-85.02C2033,-103.63 2033,-129.8 2033,-129.8 2033,-129.8 1241.88,-129.8 1241.88,-129.8"/>
<polygon fill="black" stroke="black" points="1241.88,-126.3 1231.88,-129.8 1241.88,-133.3 1241.88,-126.3"/>
</g>
<!-- RoleRepo -->
<g id="node14" class="node">
<title>RoleRepo</title>
<ellipse fill="#fdb462" stroke="black" cx="1876" cy="-66.8" rx="49.82" ry="18"/>
<text text-anchor="middle" x="1876" y="-62.6" font-family="Times,serif" font-size="14.00">RoleRepo</text>
</g>
<!-- RoleRepo&#45;&gt;ProvisioningModule -->
<g id="edge13" class="edge">
<title>RoleRepo&#45;&gt;ProvisioningModule</title>
<path fill="none" stroke="black" d="M1876,-84.82C1876,-102.17 1876,-125.8 1876,-125.8 1876,-125.8 1241.84,-125.8 1241.84,-125.8"/>
<polygon fill="black" stroke="black" points="1241.84,-122.3 1231.84,-125.8 1241.84,-129.3 1241.84,-122.3"/>
</g>
<!-- SanisProvisioningStrategy -->
<g id="node15" class="node">
<title>SanisProvisioningStrategy</title>
<ellipse fill="#fdb462" stroke="black" cx="1695" cy="-66.8" rx="113.52" ry="18"/>
<text text-anchor="middle" x="1695" y="-62.6" font-family="Times,serif" font-size="14.00">SanisProvisioningStrategy</text>
</g>
<!-- SanisProvisioningStrategy&#45;&gt;ProvisioningModule -->
<g id="edge14" class="edge">
<title>SanisProvisioningStrategy&#45;&gt;ProvisioningModule</title>
<path fill="none" stroke="black" d="M1695,-84.81C1695,-100.85 1695,-121.8 1695,-121.8 1695,-121.8 1241.66,-121.8 1241.66,-121.8"/>
<polygon fill="black" stroke="black" points="1241.66,-118.3 1231.66,-121.8 1241.66,-125.3 1241.66,-118.3"/>
</g>
<!-- SanisResponseMapper -->
<g id="node16" class="node">
<title>SanisResponseMapper</title>
<ellipse fill="#fdb462" stroke="black" cx="1464" cy="-66.8" rx="99.02" ry="18"/>
<text text-anchor="middle" x="1464" y="-62.6" font-family="Times,serif" font-size="14.00">SanisResponseMapper</text>
</g>
<!-- SanisResponseMapper&#45;&gt;ProvisioningModule -->
<g id="edge15" class="edge">
<title>SanisResponseMapper&#45;&gt;ProvisioningModule</title>
<path fill="none" stroke="black" d="M1464,-84.92C1464,-99.58 1464,-117.8 1464,-117.8 1464,-117.8 1241.77,-117.8 1241.77,-117.8"/>
<polygon fill="black" stroke="black" points="1241.77,-114.3 1231.77,-117.8 1241.77,-121.3 1241.77,-114.3"/>
</g>
<!-- SanisSchoolService -->
<g id="node17" class="node">
<title>SanisSchoolService</title>
<ellipse fill="#fdb462" stroke="black" cx="1259" cy="-66.8" rx="87.99" ry="18"/>
<text text-anchor="middle" x="1259" y="-62.6" font-family="Times,serif" font-size="14.00">SanisSchoolService</text>
</g>
<!-- SanisSchoolService&#45;&gt;ProvisioningModule -->
<g id="edge16" class="edge">
<title>SanisSchoolService&#45;&gt;ProvisioningModule</title>
<path fill="none" stroke="black" d="M1201.41,-80.58C1201.41,-80.58 1201.41,-103.35 1201.41,-103.35"/>
<polygon fill="black" stroke="black" points="1197.91,-103.35 1201.41,-113.35 1204.91,-103.35 1197.91,-103.35"/>
</g>
<!-- SanisUserService -->
<g id="node18" class="node">
<title>SanisUserService</title>
<ellipse fill="#fdb462" stroke="black" cx="1074" cy="-66.8" rx="79.31" ry="18"/>
<text text-anchor="middle" x="1074" y="-62.6" font-family="Times,serif" font-size="14.00">SanisUserService</text>
</g>
<!-- SanisUserService&#45;&gt;ProvisioningModule -->
<g id="edge17" class="edge">
<title>SanisUserService&#45;&gt;ProvisioningModule</title>
<path fill="none" stroke="black" d="M1126.8,-80.27C1126.8,-80.27 1126.8,-103.66 1126.8,-103.66"/>
<polygon fill="black" stroke="black" points="1123.3,-103.66 1126.8,-113.66 1130.3,-103.66 1123.3,-103.66"/>
</g>
<!-- SchoolRepo -->
<g id="node19" class="node">
<title>SchoolRepo</title>
<ellipse fill="#fdb462" stroke="black" cx="919" cy="-66.8" rx="58.49" ry="18"/>
<text text-anchor="middle" x="919" y="-62.6" font-family="Times,serif" font-size="14.00">SchoolRepo</text>
</g>
<!-- SchoolRepo&#45;&gt;ProvisioningModule -->
<g id="edge18" class="edge">
<title>SchoolRepo&#45;&gt;ProvisioningModule</title>
<path fill="none" stroke="black" d="M919,-84.92C919,-99.58 919,-117.8 919,-117.8 919,-117.8 1090.13,-117.8 1090.13,-117.8"/>
<polygon fill="black" stroke="black" points="1090.13,-121.3 1100.13,-117.8 1090.13,-114.3 1090.13,-121.3"/>
</g>
<!-- UserDORepo -->
<g id="node20" class="node">
<title>UserDORepo</title>
<ellipse fill="#fdb462" stroke="black" cx="779" cy="-66.8" rx="63.71" ry="18"/>
<text text-anchor="middle" x="779" y="-62.6" font-family="Times,serif" font-size="14.00">UserDORepo</text>
</g>
<!-- UserDORepo&#45;&gt;ProvisioningModule -->
<g id="edge19" class="edge">
<title>UserDORepo&#45;&gt;ProvisioningModule</title>
<path fill="none" stroke="black" d="M779,-84.81C779,-100.85 779,-121.8 779,-121.8 779,-121.8 1090.35,-121.8 1090.35,-121.8"/>
<polygon fill="black" stroke="black" points="1090.35,-125.3 1100.35,-121.8 1090.35,-118.3 1090.35,-125.3"/>
</g>
</g>
</svg>
