<?xml version="1.0" encoding="UTF-8" standalone="no"?>
<!DOCTYPE svg PUBLIC "-//W3C//DTD SVG 1.1//EN"
 "http://www.w3.org/Graphics/SVG/1.1/DTD/svg11.dtd">
<!-- Generated by graphviz version 5.0.0 (20220707.1540)
 -->
<!-- Title: dependencies Pages: 1 -->
<svg width="2157pt" height="247pt"
 viewBox="0.00 0.00 2157.00 246.80" xmlns="http://www.w3.org/2000/svg" xmlns:xlink="http://www.w3.org/1999/xlink">
<g id="graph0" class="graph" transform="scale(1 1) rotate(0) translate(4 242.8)">
<title>dependencies</title>
<polygon fill="white" stroke="transparent" points="-4,4 -4,-242.8 2153,-242.8 2153,4 -4,4"/>
<text text-anchor="middle" x="1074.5" y="-8.2" font-family="sans-serif" font-size="14.00">dependencies</text>
<g id="clust1" class="cluster">
<title>cluster_ProvisioningModule</title>
<polygon fill="none" stroke="black" stroke-dasharray="1,5" points="8,-32.8 8,-230.8 2141,-230.8 2141,-32.8 8,-32.8"/>
</g>
<g id="clust3" class="cluster">
<title>cluster_ProvisioningModule_imports</title>
<polygon fill="none" stroke="black" points="1574,-40.8 1574,-92.8 2133,-92.8 2133,-40.8 1574,-40.8"/>
</g>
<g id="clust6" class="cluster">
<title>cluster_ProvisioningModule_providers</title>
<polygon fill="none" stroke="black" points="16,-40.8 16,-92.8 1566,-92.8 1566,-40.8 16,-40.8"/>
</g>
<g id="clust4" class="cluster">
<title>cluster_ProvisioningModule_exports</title>
<polygon fill="none" stroke="black" points="1078,-170.8 1078,-222.8 1202,-222.8 1202,-170.8 1078,-170.8"/>
</g>
<!-- LoggerModule -->
<g id="node1" class="node">
<title>LoggerModule</title>
<polygon fill="#8dd3c7" stroke="black" points="2124.98,-84.8 2121.98,-88.8 2100.98,-88.8 2097.98,-84.8 2025.02,-84.8 2025.02,-48.8 2124.98,-48.8 2124.98,-84.8"/>
<text text-anchor="middle" x="2075" y="-62.6" font-family="Times,serif" font-size="14.00">LoggerModule</text>
</g>
<!-- ProvisioningModule -->
<g id="node6" class="node">
<title>ProvisioningModule</title>
<polygon fill="#8dd3c7" stroke="black" points="1205.62,-149.8 1202.62,-153.8 1181.62,-153.8 1178.62,-149.8 1074.38,-149.8 1074.38,-113.8 1205.62,-113.8 1205.62,-149.8"/>
<text text-anchor="middle" x="1140" y="-127.6" font-family="Times,serif" font-size="14.00">ProvisioningModule</text>
</g>
<!-- LoggerModule&#45;&gt;ProvisioningModule -->
<g id="edge1" class="edge">
<title>LoggerModule&#45;&gt;ProvisioningModule</title>
<path fill="none" stroke="black" d="M2075,-85.12C2075,-108.46 2075,-145.8 2075,-145.8 2075,-145.8 1215.75,-145.8 1215.75,-145.8"/>
<polygon fill="black" stroke="black" points="1215.75,-142.3 1205.75,-145.8 1215.75,-149.3 1215.75,-142.3"/>
</g>
<!-- RoleModule -->
<g id="node2" class="node">
<title>RoleModule</title>
<polygon fill="#8dd3c7" stroke="black" points="2006.99,-84.8 2003.99,-88.8 1982.99,-88.8 1979.99,-84.8 1921.01,-84.8 1921.01,-48.8 2006.99,-48.8 2006.99,-84.8"/>
<text text-anchor="middle" x="1964" y="-62.6" font-family="Times,serif" font-size="14.00">RoleModule</text>
</g>
<!-- RoleModule&#45;&gt;ProvisioningModule -->
<g id="edge2" class="edge">
<title>RoleModule&#45;&gt;ProvisioningModule</title>
<path fill="none" stroke="black" d="M1964,-85.09C1964,-107.01 1964,-140.8 1964,-140.8 1964,-140.8 1215.69,-140.8 1215.69,-140.8"/>
<polygon fill="black" stroke="black" points="1215.69,-137.3 1205.69,-140.8 1215.69,-144.3 1215.69,-137.3"/>
</g>
<!-- SchoolModule -->
<g id="node3" class="node">
<title>SchoolModule</title>
<polygon fill="#8dd3c7" stroke="black" points="1903.44,-84.8 1900.44,-88.8 1879.44,-88.8 1876.44,-84.8 1804.56,-84.8 1804.56,-48.8 1903.44,-48.8 1903.44,-84.8"/>
<text text-anchor="middle" x="1854" y="-62.6" font-family="Times,serif" font-size="14.00">SchoolModule</text>
</g>
<!-- SchoolModule&#45;&gt;ProvisioningModule -->
<g id="edge3" class="edge">
<title>SchoolModule&#45;&gt;ProvisioningModule</title>
<path fill="none" stroke="black" d="M1854,-84.83C1854,-105.57 1854,-136.8 1854,-136.8 1854,-136.8 1215.57,-136.8 1215.57,-136.8"/>
<polygon fill="black" stroke="black" points="1215.57,-133.3 1205.57,-136.8 1215.57,-140.3 1215.57,-133.3"/>
</g>
<!-- SystemModule -->
<g id="node4" class="node">
<title>SystemModule</title>
<polygon fill="#8dd3c7" stroke="black" points="1786.28,-84.8 1783.28,-88.8 1762.28,-88.8 1759.28,-84.8 1685.72,-84.8 1685.72,-48.8 1786.28,-48.8 1786.28,-84.8"/>
<text text-anchor="middle" x="1736" y="-62.6" font-family="Times,serif" font-size="14.00">SystemModule</text>
</g>
<!-- SystemModule&#45;&gt;ProvisioningModule -->
<g id="edge4" class="edge">
<title>SystemModule&#45;&gt;ProvisioningModule</title>
<path fill="none" stroke="black" d="M1736,-84.91C1736,-104.14 1736,-131.8 1736,-131.8 1736,-131.8 1215.77,-131.8 1215.77,-131.8"/>
<polygon fill="black" stroke="black" points="1215.77,-128.3 1205.77,-131.8 1215.77,-135.3 1215.77,-128.3"/>
</g>
<!-- UserModule -->
<g id="node5" class="node">
<title>UserModule</title>
<polygon fill="#8dd3c7" stroke="black" points="1667.99,-84.8 1664.99,-88.8 1643.99,-88.8 1640.99,-84.8 1582.01,-84.8 1582.01,-48.8 1667.99,-48.8 1667.99,-84.8"/>
<text text-anchor="middle" x="1625" y="-62.6" font-family="Times,serif" font-size="14.00">UserModule</text>
</g>
<!-- UserModule&#45;&gt;ProvisioningModule -->
<g id="edge5" class="edge">
<title>UserModule&#45;&gt;ProvisioningModule</title>
<path fill="none" stroke="black" d="M1625,-85.1C1625,-103.07 1625,-127.8 1625,-127.8 1625,-127.8 1215.66,-127.8 1215.66,-127.8"/>
<polygon fill="black" stroke="black" points="1215.66,-124.3 1205.66,-127.8 1215.66,-131.3 1215.66,-124.3"/>
</g>
<!-- ProvisioningUc  -->
<g id="node7" class="node">
<title>ProvisioningUc </title>
<polygon fill="#fb8072" stroke="black" points="1193.89,-214.8 1086.11,-214.8 1086.11,-178.8 1193.89,-178.8 1193.89,-214.8"/>
<text text-anchor="middle" x="1140" y="-192.6" font-family="Times,serif" font-size="14.00">ProvisioningUc </text>
</g>
<!-- ProvisioningModule&#45;&gt;ProvisioningUc  -->
<g id="edge6" class="edge">
<title>ProvisioningModule&#45;&gt;ProvisioningUc </title>
<path fill="none" stroke="black" stroke-dasharray="5,2" d="M1140,-149.91C1140,-149.91 1140,-168.79 1140,-168.79"/>
<polygon fill="black" stroke="black" points="1136.5,-168.79 1140,-178.79 1143.5,-168.79 1136.5,-168.79"/>
</g>
<!-- Logger -->
<g id="node8" class="node">
<title>Logger</title>
<ellipse fill="#fdb462" stroke="black" cx="1519" cy="-66.8" rx="38.85" ry="18"/>
<text text-anchor="middle" x="1519" y="-62.6" font-family="Times,serif" font-size="14.00">Logger</text>
</g>
<!-- Logger&#45;&gt;ProvisioningModule -->
<g id="edge7" class="edge">
<title>Logger&#45;&gt;ProvisioningModule</title>
<path fill="none" stroke="black" d="M1519,-84.83C1519,-101.2 1519,-122.8 1519,-122.8 1519,-122.8 1215.58,-122.8 1215.58,-122.8"/>
<polygon fill="black" stroke="black" points="1215.58,-119.3 1205.58,-122.8 1215.58,-126.3 1215.58,-119.3"/>
</g>
<!-- PermissionService -->
<g id="node9" class="node">
<title>PermissionService</title>
<ellipse fill="#fdb462" stroke="black" cx="1379" cy="-66.8" rx="82.83" ry="18"/>
<text text-anchor="middle" x="1379" y="-62.6" font-family="Times,serif" font-size="14.00">PermissionService</text>
</g>
<!-- PermissionService&#45;&gt;ProvisioningModule -->
<g id="edge8" class="edge">
<title>PermissionService&#45;&gt;ProvisioningModule</title>
<path fill="none" stroke="black" d="M1379,-84.99C1379,-99.98 1379,-118.8 1379,-118.8 1379,-118.8 1215.62,-118.8 1215.62,-118.8"/>
<polygon fill="black" stroke="black" points="1215.62,-115.3 1205.62,-118.8 1215.62,-122.3 1215.62,-115.3"/>
</g>
<!-- PlaceholderProvisioningStrategy -->
<g id="node10" class="node">
<title>PlaceholderProvisioningStrategy</title>
<ellipse fill="#fdb462" stroke="black" cx="1140" cy="-66.8" rx="138.33" ry="18"/>
<text text-anchor="middle" x="1140" y="-62.6" font-family="Times,serif" font-size="14.00">PlaceholderProvisioningStrategy</text>
</g>
<!-- PlaceholderProvisioningStrategy&#45;&gt;ProvisioningModule -->
<g id="edge9" class="edge">
<title>PlaceholderProvisioningStrategy&#45;&gt;ProvisioningModule</title>
<path fill="none" stroke="black" d="M1140,-84.91C1140,-84.91 1140,-103.79 1140,-103.79"/>
<polygon fill="black" stroke="black" points="1136.5,-103.79 1140,-113.79 1143.5,-103.79 1136.5,-103.79"/>
</g>
<!-- PlaceholderResponseMapper -->
<g id="node11" class="node">
<title>PlaceholderResponseMapper</title>
<ellipse fill="#fdb462" stroke="black" cx="860" cy="-66.8" rx="123.83" ry="18"/>
<text text-anchor="middle" x="860" y="-62.6" font-family="Times,serif" font-size="14.00">PlaceholderResponseMapper</text>
</g>
<!-- PlaceholderResponseMapper&#45;&gt;ProvisioningModule -->
<g id="edge10" class="edge">
<title>PlaceholderResponseMapper&#45;&gt;ProvisioningModule</title>
<path fill="none" stroke="black" d="M860,-84.99C860,-99.98 860,-118.8 860,-118.8 860,-118.8 1064.35,-118.8 1064.35,-118.8"/>
<polygon fill="black" stroke="black" points="1064.35,-122.3 1074.35,-118.8 1064.35,-115.3 1064.35,-122.3"/>
</g>
<!-- ProvisioningUc -->
<g id="node12" class="node">
<title>ProvisioningUc</title>
<ellipse fill="#fdb462" stroke="black" cx="647" cy="-66.8" rx="71.82" ry="18"/>
<text text-anchor="middle" x="647" y="-62.6" font-family="Times,serif" font-size="14.00">ProvisioningUc</text>
</g>
<!-- ProvisioningUc&#45;&gt;ProvisioningModule -->
<g id="edge11" class="edge">
<title>ProvisioningUc&#45;&gt;ProvisioningModule</title>
<path fill="none" stroke="black" d="M647,-84.83C647,-101.2 647,-122.8 647,-122.8 647,-122.8 1064.28,-122.8 1064.28,-122.8"/>
<polygon fill="black" stroke="black" points="1064.28,-126.3 1074.28,-122.8 1064.28,-119.3 1064.28,-126.3"/>
</g>
<!-- RoleUc -->
<g id="node13" class="node">
<title>RoleUc</title>
<ellipse fill="#fdb462" stroke="black" cx="517" cy="-66.8" rx="40.57" ry="18"/>
<text text-anchor="middle" x="517" y="-62.6" font-family="Times,serif" font-size="14.00">RoleUc</text>
</g>
<!-- RoleUc&#45;&gt;ProvisioningModule -->
<g id="edge12" class="edge">
<title>RoleUc&#45;&gt;ProvisioningModule</title>
<path fill="none" stroke="black" d="M517,-85.1C517,-103.07 517,-127.8 517,-127.8 517,-127.8 1064.21,-127.8 1064.21,-127.8"/>
<polygon fill="black" stroke="black" points="1064.21,-131.3 1074.21,-127.8 1064.21,-124.3 1064.21,-131.3"/>
</g>
<!-- SchoolUc -->
<g id="node14" class="node">
<title>SchoolUc</title>
<ellipse fill="#fdb462" stroke="black" cx="409" cy="-66.8" rx="49.24" ry="18"/>
<text text-anchor="middle" x="409" y="-62.6" font-family="Times,serif" font-size="14.00">SchoolUc</text>
</g>
<!-- SchoolUc&#45;&gt;ProvisioningModule -->
<g id="edge13" class="edge">
<title>SchoolUc&#45;&gt;ProvisioningModule</title>
<path fill="none" stroke="black" d="M409,-84.91C409,-104.14 409,-131.8 409,-131.8 409,-131.8 1064.16,-131.8 1064.16,-131.8"/>
<polygon fill="black" stroke="black" points="1064.16,-135.3 1074.16,-131.8 1064.16,-128.3 1064.16,-135.3"/>
</g>
<!-- SystemUc -->
<g id="node15" class="node">
<title>SystemUc</title>
<ellipse fill="#fdb462" stroke="black" cx="291" cy="-66.8" rx="50.97" ry="18"/>
<text text-anchor="middle" x="291" y="-62.6" font-family="Times,serif" font-size="14.00">SystemUc</text>
</g>
<!-- SystemUc&#45;&gt;ProvisioningModule -->
<g id="edge14" class="edge">
<title>SystemUc&#45;&gt;ProvisioningModule</title>
<path fill="none" stroke="black" d="M291,-84.83C291,-105.57 291,-136.8 291,-136.8 291,-136.8 1064.44,-136.8 1064.44,-136.8"/>
<polygon fill="black" stroke="black" points="1064.44,-140.3 1074.44,-136.8 1064.44,-133.3 1064.44,-140.3"/>
</g>
<!-- UserRepo -->
<g id="node16" class="node">
<title>UserRepo</title>
<ellipse fill="#fdb462" stroke="black" cx="173" cy="-66.8" rx="49.81" ry="18"/>
<text text-anchor="middle" x="173" y="-62.6" font-family="Times,serif" font-size="14.00">UserRepo</text>
</g>
<!-- UserRepo&#45;&gt;ProvisioningModule -->
<g id="edge15" class="edge">
<title>UserRepo&#45;&gt;ProvisioningModule</title>
<path fill="none" stroke="black" d="M173,-85.09C173,-107.01 173,-140.8 173,-140.8 173,-140.8 1064.29,-140.8 1064.29,-140.8"/>
<polygon fill="black" stroke="black" points="1064.29,-144.3 1074.29,-140.8 1064.29,-137.3 1064.29,-144.3"/>
</g>
<!-- UserUc -->
<g id="node17" class="node">
<title>UserUc</title>
<ellipse fill="#fdb462" stroke="black" cx="65" cy="-66.8" rx="40.56" ry="18"/>
<text text-anchor="middle" x="65" y="-62.6" font-family="Times,serif" font-size="14.00">UserUc</text>
</g>
<!-- UserUc&#45;&gt;ProvisioningModule -->
<g id="edge16" class="edge">
<title>UserUc&#45;&gt;ProvisioningModule</title>
<path fill="none" stroke="black" d="M65,-85.12C65,-108.46 65,-145.8 65,-145.8 65,-145.8 1064.37,-145.8 1064.37,-145.8"/>
<polygon fill="black" stroke="black" points="1064.37,-149.3 1074.37,-145.8 1064.37,-142.3 1064.37,-149.3"/>
</g>
</g>
</svg>
