<?xml version="1.0" encoding="UTF-8" standalone="no"?>
<!DOCTYPE svg PUBLIC "-//W3C//DTD SVG 1.1//EN"
 "http://www.w3.org/Graphics/SVG/1.1/DTD/svg11.dtd">
<!-- Generated by graphviz version 5.0.0 (20220707.1540)
 -->
<!-- Title: dependencies Pages: 1 -->
<svg width="716pt" height="174pt"
 viewBox="0.00 0.00 716.00 173.80" xmlns="http://www.w3.org/2000/svg" xmlns:xlink="http://www.w3.org/1999/xlink">
<g id="graph0" class="graph" transform="scale(1 1) rotate(0) translate(4 169.8)">
<title>dependencies</title>
<polygon fill="white" stroke="transparent" points="-4,4 -4,-169.8 712,-169.8 712,4 -4,4"/>
<text text-anchor="middle" x="354" y="-8.2" font-family="sans-serif" font-size="14.00">dependencies</text>
<g id="clust1" class="cluster">
<title>cluster_AccountApiModule</title>
<polygon fill="none" stroke="black" stroke-dasharray="1,5" points="8,-32.8 8,-157.8 700,-157.8 700,-32.8 8,-32.8"/>
</g>
<g id="clust6" class="cluster">
<title>cluster_AccountApiModule_providers</title>
<polygon fill="none" stroke="black" points="264,-40.8 264,-92.8 692,-92.8 692,-40.8 264,-40.8"/>
</g>
<g id="clust3" class="cluster">
<title>cluster_AccountApiModule_imports</title>
<polygon fill="none" stroke="black" points="16,-40.8 16,-92.8 256,-92.8 256,-40.8 16,-40.8"/>
</g>
<!-- AccountModule -->
<g id="node1" class="node">
<title>AccountModule</title>
<polygon fill="#8dd3c7" stroke="black" points="248.48,-84.8 245.48,-88.8 224.48,-88.8 221.48,-84.8 141.52,-84.8 141.52,-48.8 248.48,-48.8 248.48,-84.8"/>
<text text-anchor="middle" x="195" y="-62.6" font-family="Times,serif" font-size="14.00">AccountModule</text>
</g>
<!-- AccountApiModule -->
<g id="node3" class="node">
<title>AccountApiModule</title>
<polygon fill="#8dd3c7" stroke="black" points="385.98,-149.8 382.98,-153.8 361.98,-153.8 358.98,-149.8 258.02,-149.8 258.02,-113.8 385.98,-113.8 385.98,-149.8"/>
<text text-anchor="middle" x="322" y="-127.6" font-family="Times,serif" font-size="14.00">AccountApiModule</text>
</g>
<!-- AccountModule&#45;&gt;AccountApiModule -->
<g id="edge1" class="edge">
<title>AccountModule&#45;&gt;AccountApiModule</title>
<path fill="none" stroke="black" d="M248.55,-66.8C258.15,-66.8 265.18,-66.8 265.18,-66.8 265.18,-66.8 265.18,-103.69 265.18,-103.69"/>
<polygon fill="black" stroke="black" points="261.68,-103.69 265.18,-113.69 268.68,-103.69 261.68,-103.69"/>
</g>
<!-- LoggerModule -->
<g id="node2" class="node">
<title>LoggerModule</title>
<polygon fill="#8dd3c7" stroke="black" points="123.98,-84.8 120.98,-88.8 99.98,-88.8 96.98,-84.8 24.02,-84.8 24.02,-48.8 123.98,-48.8 123.98,-84.8"/>
<text text-anchor="middle" x="74" y="-62.6" font-family="Times,serif" font-size="14.00">LoggerModule</text>
</g>
<!-- LoggerModule&#45;&gt;AccountApiModule -->
<g id="edge2" class="edge">
<title>LoggerModule&#45;&gt;AccountApiModule</title>
<path fill="none" stroke="black" d="M74,-84.91C74,-104.14 74,-131.8 74,-131.8 74,-131.8 247.81,-131.8 247.81,-131.8"/>
<polygon fill="black" stroke="black" points="247.81,-135.3 257.81,-131.8 247.81,-128.3 247.81,-135.3"/>
</g>
<!-- AccountUc -->
<g id="node4" class="node">
<title>AccountUc</title>
<ellipse fill="#fdb462" stroke="black" cx="629" cy="-66.8" rx="55.02" ry="18"/>
<text text-anchor="middle" x="629" y="-62.6" font-family="Times,serif" font-size="14.00">AccountUc</text>
</g>
<!-- AccountUc&#45;&gt;AccountApiModule -->
<g id="edge3" class="edge">
<title>AccountUc&#45;&gt;AccountApiModule</title>
<path fill="none" stroke="black" d="M629,-84.91C629,-104.14 629,-131.8 629,-131.8 629,-131.8 395.98,-131.8 395.98,-131.8"/>
<polygon fill="black" stroke="black" points="395.98,-128.3 385.98,-131.8 395.98,-135.3 395.98,-128.3"/>
</g>
<!-- PermissionService -->
<g id="node5" class="node">
<title>PermissionService</title>
<ellipse fill="#fdb462" stroke="black" cx="473" cy="-66.8" rx="82.83" ry="18"/>
<text text-anchor="middle" x="473" y="-62.6" font-family="Times,serif" font-size="14.00">PermissionService</text>
</g>
<!-- PermissionService&#45;&gt;AccountApiModule -->
<g id="edge4" class="edge">
<title>PermissionService&#45;&gt;AccountApiModule</title>
<path fill="none" stroke="black" d="M390,-66.8C383.17,-66.8 378.82,-66.8 378.82,-66.8 378.82,-66.8 378.82,-103.69 378.82,-103.69"/>
<polygon fill="black" stroke="black" points="375.32,-103.69 378.82,-113.69 382.32,-103.69 375.32,-103.69"/>
</g>
<!-- UserRepo -->
<g id="node6" class="node">
<title>UserRepo</title>
<ellipse fill="#fdb462" stroke="black" cx="322" cy="-66.8" rx="49.81" ry="18"/>
<text text-anchor="middle" x="322" y="-62.6" font-family="Times,serif" font-size="14.00">UserRepo</text>
</g>
<!-- UserRepo&#45;&gt;AccountApiModule -->
<g id="edge5" class="edge">
<title>UserRepo&#45;&gt;AccountApiModule</title>
<path fill="none" stroke="black" d="M322,-84.91C322,-84.91 322,-103.79 322,-103.79"/>
<polygon fill="black" stroke="black" points="318.5,-103.79 322,-113.79 325.5,-103.79 318.5,-103.79"/>
</g>
</g>
</svg>
