<?xml version="1.0" encoding="UTF-8" standalone="no"?>
<!DOCTYPE svg PUBLIC "-//W3C//DTD SVG 1.1//EN"
 "http://www.w3.org/Graphics/SVG/1.1/DTD/svg11.dtd">
<!-- Generated by graphviz version 5.0.0 (20220707.1540)
 -->
<!-- Title: dependencies Pages: 1 -->
<svg width="716pt" height="174pt"
 viewBox="0.00 0.00 716.00 173.80" xmlns="http://www.w3.org/2000/svg" xmlns:xlink="http://www.w3.org/1999/xlink">
<g id="graph0" class="graph" transform="scale(1 1) rotate(0) translate(4 169.8)">
<title>dependencies</title>
<polygon fill="white" stroke="transparent" points="-4,4 -4,-169.8 712,-169.8 712,4 -4,4"/>
<text text-anchor="middle" x="354" y="-8.2" font-family="sans-serif" font-size="14.00">dependencies</text>
<g id="clust1" class="cluster">
<title>cluster_AccountApiModule</title>
<polygon fill="none" stroke="black" stroke-dasharray="1,5" points="8,-32.8 8,-157.8 700,-157.8 700,-32.8 8,-32.8"/>
</g>
<g id="clust3" class="cluster">
<title>cluster_AccountApiModule_imports</title>
<polygon fill="none" stroke="black" points="452,-40.8 452,-92.8 692,-92.8 692,-40.8 452,-40.8"/>
</g>
<g id="clust6" class="cluster">
<title>cluster_AccountApiModule_providers</title>
<polygon fill="none" stroke="black" points="16,-40.8 16,-92.8 444,-92.8 444,-40.8 16,-40.8"/>
</g>
<!-- AccountModule -->
<g id="node1" class="node">
<title>AccountModule</title>
<polygon fill="#8dd3c7" stroke="black" points="684.48,-84.8 681.48,-88.8 660.48,-88.8 657.48,-84.8 577.52,-84.8 577.52,-48.8 684.48,-48.8 684.48,-84.8"/>
<text text-anchor="middle" x="631" y="-62.6" font-family="Times,serif" font-size="14.00">AccountModule</text>
</g>
<!-- AccountApiModule -->
<g id="node3" class="node">
<title>AccountApiModule</title>
<polygon fill="#8dd3c7" stroke="black" points="444.98,-149.8 441.98,-153.8 420.98,-153.8 417.98,-149.8 317.02,-149.8 317.02,-113.8 444.98,-113.8 444.98,-149.8"/>
<text text-anchor="middle" x="381" y="-127.6" font-family="Times,serif" font-size="14.00">AccountApiModule</text>
</g>
<!-- AccountModule&#45;&gt;AccountApiModule -->
<g id="edge1" class="edge">
<title>AccountModule&#45;&gt;AccountApiModule</title>
<path fill="none" stroke="black" d="M631,-84.91C631,-104.14 631,-131.8 631,-131.8 631,-131.8 455.06,-131.8 455.06,-131.8"/>
<polygon fill="black" stroke="black" points="455.06,-128.3 445.06,-131.8 455.06,-135.3 455.06,-128.3"/>
</g>
<!-- LoggerModule -->
<g id="node2" class="node">
<title>LoggerModule</title>
<polygon fill="#8dd3c7" stroke="black" points="559.98,-84.8 556.98,-88.8 535.98,-88.8 532.98,-84.8 460.02,-84.8 460.02,-48.8 559.98,-48.8 559.98,-84.8"/>
<text text-anchor="middle" x="510" y="-62.6" font-family="Times,serif" font-size="14.00">LoggerModule</text>
</g>
<!-- LoggerModule&#45;&gt;AccountApiModule -->
<g id="edge2" class="edge">
<title>LoggerModule&#45;&gt;AccountApiModule</title>
<path fill="none" stroke="black" d="M459.86,-66.8C448.9,-66.8 440.5,-66.8 440.5,-66.8 440.5,-66.8 440.5,-103.69 440.5,-103.69"/>
<polygon fill="black" stroke="black" points="437,-103.69 440.5,-113.69 444,-103.69 437,-103.69"/>
</g>
<!-- AccountUc -->
<g id="node4" class="node">
<title>AccountUc</title>
<ellipse fill="#fdb462" stroke="black" cx="381" cy="-66.8" rx="55.02" ry="18"/>
<text text-anchor="middle" x="381" y="-62.6" font-family="Times,serif" font-size="14.00">AccountUc</text>
</g>
<!-- AccountUc&#45;&gt;AccountApiModule -->
<g id="edge3" class="edge">
<title>AccountUc&#45;&gt;AccountApiModule</title>
<path fill="none" stroke="black" d="M381,-84.91C381,-84.91 381,-103.79 381,-103.79"/>
<polygon fill="black" stroke="black" points="377.5,-103.79 381,-113.79 384.5,-103.79 377.5,-103.79"/>
</g>
<!-- PermissionService -->
<g id="node5" class="node">
<title>PermissionService</title>
<ellipse fill="#fdb462" stroke="black" cx="225" cy="-66.8" rx="82.83" ry="18"/>
<text text-anchor="middle" x="225" y="-62.6" font-family="Times,serif" font-size="14.00">PermissionService</text>
</g>
<!-- PermissionService&#45;&gt;AccountApiModule -->
<g id="edge4" class="edge">
<title>PermissionService&#45;&gt;AccountApiModule</title>
<path fill="none" stroke="black" d="M308.08,-66.8C316.2,-66.8 321.5,-66.8 321.5,-66.8 321.5,-66.8 321.5,-103.69 321.5,-103.69"/>
<polygon fill="black" stroke="black" points="318,-103.69 321.5,-113.69 325,-103.69 318,-103.69"/>
</g>
<!-- UserRepo -->
<g id="node6" class="node">
<title>UserRepo</title>
<ellipse fill="#fdb462" stroke="black" cx="74" cy="-66.8" rx="49.81" ry="18"/>
<text text-anchor="middle" x="74" y="-62.6" font-family="Times,serif" font-size="14.00">UserRepo</text>
</g>
<!-- UserRepo&#45;&gt;AccountApiModule -->
<g id="edge5" class="edge">
<title>UserRepo&#45;&gt;AccountApiModule</title>
<path fill="none" stroke="black" d="M74,-84.91C74,-104.14 74,-131.8 74,-131.8 74,-131.8 307.02,-131.8 307.02,-131.8"/>
<polygon fill="black" stroke="black" points="307.02,-135.3 317.02,-131.8 307.02,-128.3 307.02,-135.3"/>
</g>
</g>
</svg>
