<?xml version="1.0" encoding="UTF-8" standalone="no"?>
<!DOCTYPE svg PUBLIC "-//W3C//DTD SVG 1.1//EN"
 "http://www.w3.org/Graphics/SVG/1.1/DTD/svg11.dtd">
<!-- Generated by graphviz version 5.0.0 (20220707.1540)
 -->
<!-- Title: dependencies Pages: 1 -->
<svg width="156pt" height="174pt"
 viewBox="0.00 0.00 156.00 173.80" xmlns="http://www.w3.org/2000/svg" xmlns:xlink="http://www.w3.org/1999/xlink">
<g id="graph0" class="graph" transform="scale(1 1) rotate(0) translate(4 169.8)">
<title>dependencies</title>
<polygon fill="white" stroke="transparent" points="-4,4 -4,-169.8 152,-169.8 152,4 -4,4"/>
<text text-anchor="middle" x="74" y="-8.2" font-family="sans-serif" font-size="14.00">dependencies</text>
<g id="clust1" class="cluster">
<title>cluster_RedisModule</title>
<polygon fill="none" stroke="black" stroke-dasharray="1,5" points="8,-32.8 8,-157.8 140,-157.8 140,-32.8 8,-32.8"/>
</g>
<g id="clust3" class="cluster">
<title>cluster_RedisModule_imports</title>
<polygon fill="none" stroke="black" points="16,-40.8 16,-92.8 132,-92.8 132,-40.8 16,-40.8"/>
</g>
<!-- LoggerModule -->
<g id="node1" class="node">
<title>LoggerModule</title>
<polygon fill="#8dd3c7" stroke="black" points="123.98,-84.8 120.98,-88.8 99.98,-88.8 96.98,-84.8 24.02,-84.8 24.02,-48.8 123.98,-48.8 123.98,-84.8"/>
<text text-anchor="middle" x="74" y="-62.6" font-family="Times,serif" font-size="14.00">LoggerModule</text>
</g>
<!-- RedisModule -->
<g id="node2" class="node">
<title>RedisModule</title>
<polygon fill="#8dd3c7" stroke="black" points="119.94,-149.8 116.94,-153.8 95.94,-153.8 92.94,-149.8 28.06,-149.8 28.06,-113.8 119.94,-113.8 119.94,-149.8"/>
<text text-anchor="middle" x="74" y="-127.6" font-family="Times,serif" font-size="14.00">RedisModule</text>
</g>
<!-- LoggerModule&#45;&gt;RedisModule -->
<g id="edge1" class="edge">
<title>LoggerModule&#45;&gt;RedisModule</title>
<path fill="none" stroke="black" d="M74,-84.91C74,-84.91 74,-103.79 74,-103.79"/>
<polygon fill="black" stroke="black" points="70.5,-103.79 74,-113.79 77.5,-103.79 70.5,-103.79"/>
</g>
</g>
</svg>
