<?xml version="1.0" encoding="UTF-8" standalone="no"?>
<!DOCTYPE svg PUBLIC "-//W3C//DTD SVG 1.1//EN"
 "http://www.w3.org/Graphics/SVG/1.1/DTD/svg11.dtd">
<!-- Generated by graphviz version 5.0.0 (20220707.1540)
 -->
<!-- Title: dependencies Pages: 1 -->
<svg width="1779pt" height="174pt"
 viewBox="0.00 0.00 1779.00 173.80" xmlns="http://www.w3.org/2000/svg" xmlns:xlink="http://www.w3.org/1999/xlink">
<g id="graph0" class="graph" transform="scale(1 1) rotate(0) translate(4 169.8)">
<title>dependencies</title>
<polygon fill="white" stroke="transparent" points="-4,4 -4,-169.8 1775,-169.8 1775,4 -4,4"/>
<text text-anchor="middle" x="885.5" y="-8.2" font-family="sans-serif" font-size="14.00">dependencies</text>
<g id="clust1" class="cluster">
<title>cluster_ManagementModule</title>
<polygon fill="none" stroke="black" stroke-dasharray="1,5" points="8,-32.8 8,-157.8 1763,-157.8 1763,-32.8 8,-32.8"/>
</g>
<g id="clust6" class="cluster">
<title>cluster_ManagementModule_providers</title>
<polygon fill="none" stroke="black" points="884,-40.8 884,-92.8 1755,-92.8 1755,-40.8 884,-40.8"/>
</g>
<g id="clust3" class="cluster">
<title>cluster_ManagementModule_imports</title>
<polygon fill="none" stroke="black" points="16,-40.8 16,-92.8 876,-92.8 876,-40.8 16,-40.8"/>
</g>
<!-- AuthModule -->
<g id="node1" class="node">
<title>AuthModule</title>
<polygon fill="#8dd3c7" stroke="black" points="867.55,-84.8 864.55,-88.8 843.55,-88.8 840.55,-84.8 780.45,-84.8 780.45,-48.8 867.55,-48.8 867.55,-84.8"/>
<text text-anchor="middle" x="824" y="-62.6" font-family="Times,serif" font-size="14.00">AuthModule</text>
</g>
<!-- ManagementModule -->
<g id="node7" class="node">
<title>ManagementModule</title>
<polygon fill="#8dd3c7" stroke="black" points="825.14,-149.8 822.14,-153.8 801.14,-153.8 798.14,-149.8 692.86,-149.8 692.86,-113.8 825.14,-113.8 825.14,-149.8"/>
<text text-anchor="middle" x="759" y="-127.6" font-family="Times,serif" font-size="14.00">ManagementModule</text>
</g>
<!-- AuthModule&#45;&gt;ManagementModule -->
<g id="edge1" class="edge">
<title>AuthModule&#45;&gt;ManagementModule</title>
<path fill="none" stroke="black" d="M802.77,-84.91C802.77,-84.91 802.77,-103.79 802.77,-103.79"/>
<polygon fill="black" stroke="black" points="799.27,-103.79 802.77,-113.79 806.27,-103.79 799.27,-103.79"/>
</g>
<!-- AuthorizationModule -->
<g id="node2" class="node">
<title>AuthorizationModule</title>
<polygon fill="#8dd3c7" stroke="black" points="762.81,-84.8 759.81,-88.8 738.81,-88.8 735.81,-84.8 625.19,-84.8 625.19,-48.8 762.81,-48.8 762.81,-84.8"/>
<text text-anchor="middle" x="694" y="-62.6" font-family="Times,serif" font-size="14.00">AuthorizationModule</text>
</g>
<!-- AuthorizationModule&#45;&gt;ManagementModule -->
<g id="edge2" class="edge">
<title>AuthorizationModule&#45;&gt;ManagementModule</title>
<path fill="none" stroke="black" d="M727.67,-84.91C727.67,-84.91 727.67,-103.79 727.67,-103.79"/>
<polygon fill="black" stroke="black" points="724.17,-103.79 727.67,-113.79 731.17,-103.79 724.17,-103.79"/>
</g>
<!-- CoreModule -->
<g id="node3" class="node">
<title>CoreModule</title>
<polygon fill="#8dd3c7" stroke="black" points="607.27,-84.8 604.27,-88.8 583.27,-88.8 580.27,-84.8 520.73,-84.8 520.73,-48.8 607.27,-48.8 607.27,-84.8"/>
<text text-anchor="middle" x="564" y="-62.6" font-family="Times,serif" font-size="14.00">CoreModule</text>
</g>
<!-- CoreModule&#45;&gt;ManagementModule -->
<g id="edge3" class="edge">
<title>CoreModule&#45;&gt;ManagementModule</title>
<path fill="none" stroke="black" d="M564,-84.81C564,-100.85 564,-121.8 564,-121.8 564,-121.8 682.71,-121.8 682.71,-121.8"/>
<polygon fill="black" stroke="black" points="682.71,-125.3 692.71,-121.8 682.71,-118.3 682.71,-125.3"/>
</g>
<!-- FilesStorageApiModule -->
<g id="node4" class="node">
<title>FilesStorageApiModule</title>
<polygon fill="#8dd3c7" stroke="black" points="502.05,-84.8 499.05,-88.8 478.05,-88.8 475.05,-84.8 351.95,-84.8 351.95,-48.8 502.05,-48.8 502.05,-84.8"/>
<text text-anchor="middle" x="427" y="-62.6" font-family="Times,serif" font-size="14.00">FilesStorageApiModule</text>
</g>
<!-- FilesStorageApiModule&#45;&gt;ManagementModule -->
<g id="edge4" class="edge">
<title>FilesStorageApiModule&#45;&gt;ManagementModule</title>
<path fill="none" stroke="black" d="M427,-85.07C427,-103.36 427,-128.8 427,-128.8 427,-128.8 682.61,-128.8 682.61,-128.8"/>
<polygon fill="black" stroke="black" points="682.61,-132.3 692.61,-128.8 682.61,-125.3 682.61,-132.3"/>
</g>
<!-- LoggerModule -->
<g id="node5" class="node">
<title>LoggerModule</title>
<polygon fill="#8dd3c7" stroke="black" points="333.98,-84.8 330.98,-88.8 309.98,-88.8 306.98,-84.8 234.02,-84.8 234.02,-48.8 333.98,-48.8 333.98,-84.8"/>
<text text-anchor="middle" x="284" y="-62.6" font-family="Times,serif" font-size="14.00">LoggerModule</text>
</g>
<!-- LoggerModule&#45;&gt;ManagementModule -->
<g id="edge5" class="edge">
<title>LoggerModule&#45;&gt;ManagementModule</title>
<path fill="none" stroke="black" d="M284,-84.93C284,-105.37 284,-135.8 284,-135.8 284,-135.8 682.7,-135.8 682.7,-135.8"/>
<polygon fill="black" stroke="black" points="682.7,-139.3 692.7,-135.8 682.7,-132.3 682.7,-139.3"/>
</g>
<!-- RabbitMQWrapperTestModule -->
<g id="node6" class="node">
<title>RabbitMQWrapperTestModule</title>
<polygon fill="#8dd3c7" stroke="black" points="216.01,-84.8 213.01,-88.8 192.01,-88.8 189.01,-84.8 23.99,-84.8 23.99,-48.8 216.01,-48.8 216.01,-84.8"/>
<text text-anchor="middle" x="120" y="-62.6" font-family="Times,serif" font-size="14.00">RabbitMQWrapperTestModule</text>
</g>
<!-- RabbitMQWrapperTestModule&#45;&gt;ManagementModule -->
<g id="edge6" class="edge">
<title>RabbitMQWrapperTestModule&#45;&gt;ManagementModule</title>
<path fill="none" stroke="black" d="M120,-84.81C120,-107.29 120,-142.8 120,-142.8 120,-142.8 682.72,-142.8 682.72,-142.8"/>
<polygon fill="black" stroke="black" points="682.72,-146.3 692.72,-142.8 682.72,-139.3 682.72,-146.3"/>
</g>
<!-- BsonConverter -->
<g id="node8" class="node">
<title>BsonConverter</title>
<ellipse fill="#fdb462" stroke="black" cx="1677" cy="-66.8" rx="69.51" ry="18"/>
<text text-anchor="middle" x="1677" y="-62.6" font-family="Times,serif" font-size="14.00">BsonConverter</text>
</g>
<!-- BsonConverter&#45;&gt;ManagementModule -->
<g id="edge7" class="edge">
<title>BsonConverter&#45;&gt;ManagementModule</title>
<path fill="none" stroke="black" d="M1677,-84.81C1677,-107.29 1677,-142.8 1677,-142.8 1677,-142.8 835.39,-142.8 835.39,-142.8"/>
<polygon fill="black" stroke="black" points="835.39,-139.3 825.39,-142.8 835.39,-146.3 835.39,-139.3"/>
</g>
<!-- ConsoleWriterService -->
<g id="node9" class="node">
<title>ConsoleWriterService</title>
<ellipse fill="#fdb462" stroke="black" cx="1493" cy="-66.8" rx="96.69" ry="18"/>
<text text-anchor="middle" x="1493" y="-62.6" font-family="Times,serif" font-size="14.00">ConsoleWriterService</text>
</g>
<!-- ConsoleWriterService&#45;&gt;ManagementModule -->
<g id="edge8" class="edge">
<title>ConsoleWriterService&#45;&gt;ManagementModule</title>
<path fill="none" stroke="black" d="M1493,-84.93C1493,-105.37 1493,-135.8 1493,-135.8 1493,-135.8 835.43,-135.8 835.43,-135.8"/>
<polygon fill="black" stroke="black" points="835.43,-132.3 825.43,-135.8 835.43,-139.3 835.43,-132.3"/>
</g>
<!-- DatabaseManagementService -->
<g id="node10" class="node">
<title>DatabaseManagementService</title>
<ellipse fill="#fdb462" stroke="black" cx="1252" cy="-66.8" rx="125.59" ry="18"/>
<text text-anchor="middle" x="1252" y="-62.6" font-family="Times,serif" font-size="14.00">DatabaseManagementService</text>
</g>
<!-- DatabaseManagementService&#45;&gt;ManagementModule -->
<g id="edge9" class="edge">
<title>DatabaseManagementService&#45;&gt;ManagementModule</title>
<path fill="none" stroke="black" d="M1252,-85.07C1252,-103.36 1252,-128.8 1252,-128.8 1252,-128.8 835.23,-128.8 835.23,-128.8"/>
<polygon fill="black" stroke="black" points="835.23,-125.3 825.23,-128.8 835.23,-132.3 835.23,-125.3"/>
</g>
<!-- DatabaseManagementUc -->
<g id="node11" class="node">
<title>DatabaseManagementUc</title>
<ellipse fill="#fdb462" stroke="black" cx="1000" cy="-66.8" rx="108.19" ry="18"/>
<text text-anchor="middle" x="1000" y="-62.6" font-family="Times,serif" font-size="14.00">DatabaseManagementUc</text>
</g>
<!-- DatabaseManagementUc&#45;&gt;ManagementModule -->
<g id="edge10" class="edge">
<title>DatabaseManagementUc&#45;&gt;ManagementModule</title>
<path fill="none" stroke="black" d="M1000,-84.81C1000,-100.85 1000,-121.8 1000,-121.8 1000,-121.8 835.17,-121.8 835.17,-121.8"/>
<polygon fill="black" stroke="black" points="835.17,-118.3 825.17,-121.8 835.17,-125.3 835.17,-118.3"/>
</g>
</g>
</svg>
