<?xml version="1.0" encoding="UTF-8" standalone="no"?>
<!DOCTYPE svg PUBLIC "-//W3C//DTD SVG 1.1//EN"
 "http://www.w3.org/Graphics/SVG/1.1/DTD/svg11.dtd">
<!-- Generated by graphviz version 2.47.3 (20210619.1520)
 -->
<!-- Title: dependencies Pages: 1 -->
<svg width="1259pt" height="174pt"
 viewBox="0.00 0.00 1259.00 173.80" xmlns="http://www.w3.org/2000/svg" xmlns:xlink="http://www.w3.org/1999/xlink">
<g id="graph0" class="graph" transform="scale(1 1) rotate(0) translate(4 169.8)">
<title>dependencies</title>
<polygon fill="white" stroke="transparent" points="-4,4 -4,-169.8 1255,-169.8 1255,4 -4,4"/>
<text text-anchor="middle" x="625.5" y="-8.2" font-family="sans-serif" font-size="14.00">dependencies</text>
<g id="clust1" class="cluster">
<title>cluster_ManagementModule</title>
<polygon fill="none" stroke="black" stroke-dasharray="1,5" points="8,-32.8 8,-157.8 1243,-157.8 1243,-32.8 8,-32.8"/>
</g>
<g id="clust6" class="cluster">
<title>cluster_ManagementModule_providers</title>
<polygon fill="none" stroke="black" points="364,-40.8 364,-92.8 1235,-92.8 1235,-40.8 364,-40.8"/>
</g>
<g id="clust3" class="cluster">
<title>cluster_ManagementModule_imports</title>
<polygon fill="none" stroke="black" points="16,-40.8 16,-92.8 356,-92.8 356,-40.8 16,-40.8"/>
</g>
<!-- DatabaseManagementModule -->
<g id="node1" class="node">
<title>DatabaseManagementModule</title>
<polygon fill="#8dd3c7" stroke="black" points="347.93,-84.8 344.93,-88.8 323.93,-88.8 320.93,-84.8 164.07,-84.8 164.07,-48.8 347.93,-48.8 347.93,-84.8"/>
<text text-anchor="middle" x="256" y="-62.6" font-family="Times,serif" font-size="14.00">DatabaseManagementModule</text>
</g>
<!-- ManagementModule -->
<g id="node3" class="node">
<title>ManagementModule</title>
<polygon fill="#8dd3c7" stroke="black" points="672.13,-149.8 669.13,-153.8 648.13,-153.8 645.13,-149.8 539.87,-149.8 539.87,-113.8 672.13,-113.8 672.13,-149.8"/>
<text text-anchor="middle" x="606" y="-127.6" font-family="Times,serif" font-size="14.00">ManagementModule</text>
</g>
<!-- DatabaseManagementModule&#45;&gt;ManagementModule -->
<g id="edge1" class="edge">
<title>DatabaseManagementModule&#45;&gt;ManagementModule</title>
<path fill="none" stroke="black" d="M256,-84.82C256,-102.17 256,-125.8 256,-125.8 256,-125.8 529.76,-125.8 529.76,-125.8"/>
<polygon fill="black" stroke="black" points="529.76,-129.3 539.76,-125.8 529.76,-122.3 529.76,-129.3"/>
</g>
<!-- FileSystemModule -->
<g id="node2" class="node">
<title>FileSystemModule</title>
<polygon fill="#8dd3c7" stroke="black" points="146.05,-84.8 143.05,-88.8 122.05,-88.8 119.05,-84.8 23.95,-84.8 23.95,-48.8 146.05,-48.8 146.05,-84.8"/>
<text text-anchor="middle" x="85" y="-62.6" font-family="Times,serif" font-size="14.00">FileSystemModule</text>
</g>
<!-- FileSystemModule&#45;&gt;ManagementModule -->
<g id="edge2" class="edge">
<title>FileSystemModule&#45;&gt;ManagementModule</title>
<path fill="none" stroke="black" d="M85,-85.08C85,-106.12 85,-137.8 85,-137.8 85,-137.8 529.75,-137.8 529.75,-137.8"/>
<polygon fill="black" stroke="black" points="529.75,-141.3 539.75,-137.8 529.75,-134.3 529.75,-141.3"/>
</g>
<!-- BsonConverter -->
<g id="node4" class="node">
<title>BsonConverter</title>
<ellipse fill="#fdb462" stroke="black" cx="1157" cy="-66.8" rx="69.5" ry="18"/>
<text text-anchor="middle" x="1157" y="-62.6" font-family="Times,serif" font-size="14.00">BsonConverter</text>
</g>
<!-- BsonConverter&#45;&gt;ManagementModule -->
<g id="edge3" class="edge">
<title>BsonConverter&#45;&gt;ManagementModule</title>
<path fill="none" stroke="black" d="M1157,-85.08C1157,-106.12 1157,-137.8 1157,-137.8 1157,-137.8 682.19,-137.8 682.19,-137.8"/>
<polygon fill="black" stroke="black" points="682.19,-134.3 672.19,-137.8 682.19,-141.3 682.19,-134.3"/>
</g>
<!-- ConsoleWriterService -->
<g id="node5" class="node">
<title>ConsoleWriterService</title>
<ellipse fill="#fdb462" stroke="black" cx="973" cy="-66.8" rx="96.68" ry="18"/>
<text text-anchor="middle" x="973" y="-62.6" font-family="Times,serif" font-size="14.00">ConsoleWriterService</text>
</g>
<!-- ConsoleWriterService&#45;&gt;ManagementModule -->
<g id="edge4" class="edge">
<title>ConsoleWriterService&#45;&gt;ManagementModule</title>
<path fill="none" stroke="black" d="M973,-84.82C973,-102.17 973,-125.8 973,-125.8 973,-125.8 682.46,-125.8 682.46,-125.8"/>
<polygon fill="black" stroke="black" points="682.46,-122.3 672.46,-125.8 682.46,-129.3 682.46,-122.3"/>
</g>
<!-- DatabaseManagementService -->
<g id="node6" class="node">
<title>DatabaseManagementService</title>
<ellipse fill="#fdb462" stroke="black" cx="732" cy="-66.8" rx="125.58" ry="18"/>
<text text-anchor="middle" x="732" y="-62.6" font-family="Times,serif" font-size="14.00">DatabaseManagementService</text>
</g>
<!-- DatabaseManagementService&#45;&gt;ManagementModule -->
<g id="edge5" class="edge">
<title>DatabaseManagementService&#45;&gt;ManagementModule</title>
<path fill="none" stroke="black" d="M639.26,-79.03C639.26,-79.03 639.26,-103.48 639.26,-103.48"/>
<polygon fill="black" stroke="black" points="635.76,-103.48 639.26,-113.48 642.76,-103.48 635.76,-103.48"/>
</g>
<!-- DatabaseManagementUc -->
<g id="node7" class="node">
<title>DatabaseManagementUc</title>
<ellipse fill="#fdb462" stroke="black" cx="480" cy="-66.8" rx="108.19" ry="18"/>
<text text-anchor="middle" x="480" y="-62.6" font-family="Times,serif" font-size="14.00">DatabaseManagementUc</text>
</g>
<!-- DatabaseManagementUc&#45;&gt;ManagementModule -->
<g id="edge6" class="edge">
<title>DatabaseManagementUc&#45;&gt;ManagementModule</title>
<path fill="none" stroke="black" d="M563.89,-78.42C563.89,-78.42 563.89,-103.65 563.89,-103.65"/>
<polygon fill="black" stroke="black" points="560.39,-103.65 563.89,-113.65 567.39,-103.65 560.39,-103.65"/>
</g>
</g>
</svg>
