<?xml version="1.0" encoding="UTF-8" standalone="no"?>
<!DOCTYPE svg PUBLIC "-//W3C//DTD SVG 1.1//EN"
 "http://www.w3.org/Graphics/SVG/1.1/DTD/svg11.dtd">
<!-- Generated by graphviz version 2.47.3 (20210619.1520)
 -->
<!-- Title: dependencies Pages: 1 -->
<svg width="1259pt" height="174pt"
 viewBox="0.00 0.00 1259.00 173.80" xmlns="http://www.w3.org/2000/svg" xmlns:xlink="http://www.w3.org/1999/xlink">
<g id="graph0" class="graph" transform="scale(1 1) rotate(0) translate(4 169.8)">
<title>dependencies</title>
<polygon fill="white" stroke="transparent" points="-4,4 -4,-169.8 1255,-169.8 1255,4 -4,4"/>
<text text-anchor="middle" x="625.5" y="-8.2" font-family="sans-serif" font-size="14.00">dependencies</text>
<g id="clust1" class="cluster">
<title>cluster_ManagementModule</title>
<polygon fill="none" stroke="black" stroke-dasharray="1,5" points="8,-32.8 8,-157.8 1243,-157.8 1243,-32.8 8,-32.8"/>
</g>
<g id="clust3" class="cluster">
<title>cluster_ManagementModule_imports</title>
<polygon fill="none" stroke="black" points="895,-40.8 895,-92.8 1235,-92.8 1235,-40.8 895,-40.8"/>
</g>
<g id="clust6" class="cluster">
<title>cluster_ManagementModule_providers</title>
<polygon fill="none" stroke="black" points="16,-40.8 16,-92.8 887,-92.8 887,-40.8 16,-40.8"/>
</g>
<!-- DatabaseManagementModule -->
<g id="node1" class="node">
<title>DatabaseManagementModule</title>
<polygon fill="#8dd3c7" stroke="black" points="1226.93,-84.8 1223.93,-88.8 1202.93,-88.8 1199.93,-84.8 1043.07,-84.8 1043.07,-48.8 1226.93,-48.8 1226.93,-84.8"/>
<text text-anchor="middle" x="1135" y="-62.6" font-family="Times,serif" font-size="14.00">DatabaseManagementModule</text>
</g>
<!-- ManagementModule -->
<g id="node3" class="node">
<title>ManagementModule</title>
<polygon fill="#8dd3c7" stroke="black" points="783.13,-149.8 780.13,-153.8 759.13,-153.8 756.13,-149.8 650.87,-149.8 650.87,-113.8 783.13,-113.8 783.13,-149.8"/>
<text text-anchor="middle" x="717" y="-127.6" font-family="Times,serif" font-size="14.00">ManagementModule</text>
</g>
<!-- DatabaseManagementModule&#45;&gt;ManagementModule -->
<g id="edge1" class="edge">
<title>DatabaseManagementModule&#45;&gt;ManagementModule</title>
<path fill="none" stroke="black" d="M1135,-85.08C1135,-106.12 1135,-137.8 1135,-137.8 1135,-137.8 793.23,-137.8 793.23,-137.8"/>
<polygon fill="black" stroke="black" points="793.23,-134.3 783.23,-137.8 793.23,-141.3 793.23,-134.3"/>
</g>
<!-- FileSystemModule -->
<g id="node2" class="node">
<title>FileSystemModule</title>
<polygon fill="#8dd3c7" stroke="black" points="1025.05,-84.8 1022.05,-88.8 1001.05,-88.8 998.05,-84.8 902.95,-84.8 902.95,-48.8 1025.05,-48.8 1025.05,-84.8"/>
<text text-anchor="middle" x="964" y="-62.6" font-family="Times,serif" font-size="14.00">FileSystemModule</text>
</g>
<!-- FileSystemModule&#45;&gt;ManagementModule -->
<g id="edge2" class="edge">
<title>FileSystemModule&#45;&gt;ManagementModule</title>
<path fill="none" stroke="black" d="M964,-84.82C964,-102.17 964,-125.8 964,-125.8 964,-125.8 793.19,-125.8 793.19,-125.8"/>
<polygon fill="black" stroke="black" points="793.19,-122.3 783.19,-125.8 793.19,-129.3 793.19,-122.3"/>
</g>
<!-- BsonConverter -->
<g id="node4" class="node">
<title>BsonConverter</title>
<ellipse fill="#fdb462" stroke="black" cx="809" cy="-66.8" rx="69.5" ry="18"/>
<text text-anchor="middle" x="809" y="-62.6" font-family="Times,serif" font-size="14.00">BsonConverter</text>
</g>
<!-- BsonConverter&#45;&gt;ManagementModule -->
<g id="edge3" class="edge">
<title>BsonConverter&#45;&gt;ManagementModule</title>
<path fill="none" stroke="black" d="M761.41,-79.95C761.41,-79.95 761.41,-103.49 761.41,-103.49"/>
<polygon fill="black" stroke="black" points="757.91,-103.49 761.41,-113.49 764.91,-103.49 757.91,-103.49"/>
</g>
<!-- ConsoleWriterService -->
<g id="node5" class="node">
<title>ConsoleWriterService</title>
<ellipse fill="#fdb462" stroke="black" cx="625" cy="-66.8" rx="96.68" ry="18"/>
<text text-anchor="middle" x="625" y="-62.6" font-family="Times,serif" font-size="14.00">ConsoleWriterService</text>
</g>
<!-- ConsoleWriterService&#45;&gt;ManagementModule -->
<g id="edge4" class="edge">
<title>ConsoleWriterService&#45;&gt;ManagementModule</title>
<path fill="none" stroke="black" d="M686.26,-80.9C686.26,-80.9 686.26,-103.52 686.26,-103.52"/>
<polygon fill="black" stroke="black" points="682.76,-103.52 686.26,-113.52 689.76,-103.52 682.76,-103.52"/>
</g>
<!-- DatabaseManagementService -->
<g id="node6" class="node">
<title>DatabaseManagementService</title>
<ellipse fill="#fdb462" stroke="black" cx="384" cy="-66.8" rx="125.58" ry="18"/>
<text text-anchor="middle" x="384" y="-62.6" font-family="Times,serif" font-size="14.00">DatabaseManagementService</text>
</g>
<!-- DatabaseManagementService&#45;&gt;ManagementModule -->
<g id="edge5" class="edge">
<title>DatabaseManagementService&#45;&gt;ManagementModule</title>
<path fill="none" stroke="black" d="M384,-84.82C384,-102.17 384,-125.8 384,-125.8 384,-125.8 640.81,-125.8 640.81,-125.8"/>
<polygon fill="black" stroke="black" points="640.81,-129.3 650.81,-125.8 640.81,-122.3 640.81,-129.3"/>
</g>
<!-- DatabaseManagementUc -->
<g id="node7" class="node">
<title>DatabaseManagementUc</title>
<ellipse fill="#fdb462" stroke="black" cx="132" cy="-66.8" rx="108.19" ry="18"/>
<text text-anchor="middle" x="132" y="-62.6" font-family="Times,serif" font-size="14.00">DatabaseManagementUc</text>
</g>
<!-- DatabaseManagementUc&#45;&gt;ManagementModule -->
<g id="edge6" class="edge">
<title>DatabaseManagementUc&#45;&gt;ManagementModule</title>
<path fill="none" stroke="black" d="M132,-85.08C132,-106.12 132,-137.8 132,-137.8 132,-137.8 640.75,-137.8 640.75,-137.8"/>
<polygon fill="black" stroke="black" points="640.75,-141.3 650.75,-137.8 640.75,-134.3 640.75,-141.3"/>
</g>
</g>
</svg>
