<?xml version="1.0" encoding="UTF-8" standalone="no"?>
<!DOCTYPE svg PUBLIC "-//W3C//DTD SVG 1.1//EN"
 "http://www.w3.org/Graphics/SVG/1.1/DTD/svg11.dtd">
<!-- Generated by graphviz version 2.47.3 (20210619.1520)
 -->
<!-- Title: dependencies Pages: 1 -->
<svg width="1127pt" height="174pt"
 viewBox="0.00 0.00 1127.00 173.80" xmlns="http://www.w3.org/2000/svg" xmlns:xlink="http://www.w3.org/1999/xlink">
<g id="graph0" class="graph" transform="scale(1 1) rotate(0) translate(4 169.8)">
<title>dependencies</title>
<polygon fill="white" stroke="transparent" points="-4,4 -4,-169.8 1123,-169.8 1123,4 -4,4"/>
<text text-anchor="middle" x="559.5" y="-8.2" font-family="sans-serif" font-size="14.00">dependencies</text>
<g id="clust1" class="cluster">
<title>cluster_ManagementModule</title>
<polygon fill="none" stroke="black" stroke-dasharray="1,5" points="8,-32.8 8,-157.8 1111,-157.8 1111,-32.8 8,-32.8"/>
</g>
<g id="clust6" class="cluster">
<title>cluster_ManagementModule_providers</title>
<polygon fill="none" stroke="black" points="232,-40.8 232,-92.8 1103,-92.8 1103,-40.8 232,-40.8"/>
</g>
<g id="clust3" class="cluster">
<title>cluster_ManagementModule_imports</title>
<polygon fill="none" stroke="black" points="16,-40.8 16,-92.8 224,-92.8 224,-40.8 16,-40.8"/>
</g>
<!-- AuthModule -->
<g id="node1" class="node">
<title>AuthModule</title>
<polygon fill="#8dd3c7" stroke="black" points="215.55,-84.8 212.55,-88.8 191.55,-88.8 188.55,-84.8 128.45,-84.8 128.45,-48.8 215.55,-48.8 215.55,-84.8"/>
<text text-anchor="middle" x="172" y="-62.6" font-family="Times,serif" font-size="14.00">AuthModule</text>
</g>
<!-- ManagementModule -->
<g id="node3" class="node">
<title>ManagementModule</title>
<polygon fill="#8dd3c7" stroke="black" points="540.13,-149.8 537.13,-153.8 516.13,-153.8 513.13,-149.8 407.87,-149.8 407.87,-113.8 540.13,-113.8 540.13,-149.8"/>
<text text-anchor="middle" x="474" y="-127.6" font-family="Times,serif" font-size="14.00">ManagementModule</text>
</g>
<!-- AuthModule&#45;&gt;ManagementModule -->
<g id="edge1" class="edge">
<title>AuthModule&#45;&gt;ManagementModule</title>
<path fill="none" stroke="black" d="M172,-84.82C172,-102.17 172,-125.8 172,-125.8 172,-125.8 397.72,-125.8 397.72,-125.8"/>
<polygon fill="black" stroke="black" points="397.72,-129.3 407.72,-125.8 397.72,-122.3 397.72,-129.3"/>
</g>
<!-- CoreModule -->
<g id="node2" class="node">
<title>CoreModule</title>
<polygon fill="#8dd3c7" stroke="black" points="110.26,-84.8 107.26,-88.8 86.26,-88.8 83.26,-84.8 23.74,-84.8 23.74,-48.8 110.26,-48.8 110.26,-84.8"/>
<text text-anchor="middle" x="67" y="-62.6" font-family="Times,serif" font-size="14.00">CoreModule</text>
</g>
<!-- CoreModule&#45;&gt;ManagementModule -->
<g id="edge2" class="edge">
<title>CoreModule&#45;&gt;ManagementModule</title>
<path fill="none" stroke="black" d="M67,-85.08C67,-106.12 67,-137.8 67,-137.8 67,-137.8 397.7,-137.8 397.7,-137.8"/>
<polygon fill="black" stroke="black" points="397.7,-141.3 407.7,-137.8 397.7,-134.3 397.7,-141.3"/>
</g>
<!-- BsonConverter -->
<g id="node4" class="node">
<title>BsonConverter</title>
<ellipse fill="#fdb462" stroke="black" cx="1025" cy="-66.8" rx="69.5" ry="18"/>
<text text-anchor="middle" x="1025" y="-62.6" font-family="Times,serif" font-size="14.00">BsonConverter</text>
</g>
<!-- BsonConverter&#45;&gt;ManagementModule -->
<g id="edge3" class="edge">
<title>BsonConverter&#45;&gt;ManagementModule</title>
<path fill="none" stroke="black" d="M1025,-85.08C1025,-106.12 1025,-137.8 1025,-137.8 1025,-137.8 550.19,-137.8 550.19,-137.8"/>
<polygon fill="black" stroke="black" points="550.19,-134.3 540.19,-137.8 550.19,-141.3 550.19,-134.3"/>
</g>
<!-- ConsoleWriterService -->
<g id="node5" class="node">
<title>ConsoleWriterService</title>
<ellipse fill="#fdb462" stroke="black" cx="841" cy="-66.8" rx="96.68" ry="18"/>
<text text-anchor="middle" x="841" y="-62.6" font-family="Times,serif" font-size="14.00">ConsoleWriterService</text>
</g>
<!-- ConsoleWriterService&#45;&gt;ManagementModule -->
<g id="edge4" class="edge">
<title>ConsoleWriterService&#45;&gt;ManagementModule</title>
<path fill="none" stroke="black" d="M841,-84.82C841,-102.17 841,-125.8 841,-125.8 841,-125.8 550.46,-125.8 550.46,-125.8"/>
<polygon fill="black" stroke="black" points="550.46,-122.3 540.46,-125.8 550.46,-129.3 550.46,-122.3"/>
</g>
<!-- DatabaseManagementService -->
<g id="node6" class="node">
<title>DatabaseManagementService</title>
<ellipse fill="#fdb462" stroke="black" cx="600" cy="-66.8" rx="125.58" ry="18"/>
<text text-anchor="middle" x="600" y="-62.6" font-family="Times,serif" font-size="14.00">DatabaseManagementService</text>
</g>
<!-- DatabaseManagementService&#45;&gt;ManagementModule -->
<g id="edge5" class="edge">
<title>DatabaseManagementService&#45;&gt;ManagementModule</title>
<path fill="none" stroke="black" d="M507.26,-79.03C507.26,-79.03 507.26,-103.48 507.26,-103.48"/>
<polygon fill="black" stroke="black" points="503.76,-103.48 507.26,-113.48 510.76,-103.48 503.76,-103.48"/>
</g>
<!-- DatabaseManagementUc -->
<g id="node7" class="node">
<title>DatabaseManagementUc</title>
<ellipse fill="#fdb462" stroke="black" cx="348" cy="-66.8" rx="108.19" ry="18"/>
<text text-anchor="middle" x="348" y="-62.6" font-family="Times,serif" font-size="14.00">DatabaseManagementUc</text>
</g>
<!-- DatabaseManagementUc&#45;&gt;ManagementModule -->
<g id="edge6" class="edge">
<title>DatabaseManagementUc&#45;&gt;ManagementModule</title>
<path fill="none" stroke="black" d="M431.89,-78.42C431.89,-78.42 431.89,-103.65 431.89,-103.65"/>
<polygon fill="black" stroke="black" points="428.39,-103.65 431.89,-113.65 435.39,-103.65 428.39,-103.65"/>
</g>
</g>
</svg>
