<?xml version="1.0" encoding="UTF-8" standalone="no"?>
<!DOCTYPE svg PUBLIC "-//W3C//DTD SVG 1.1//EN"
 "http://www.w3.org/Graphics/SVG/1.1/DTD/svg11.dtd">
<!-- Generated by graphviz version 5.0.0 (20220707.1540)
 -->
<!-- Title: dependencies Pages: 1 -->
<svg width="1282pt" height="174pt"
 viewBox="0.00 0.00 1282.00 173.80" xmlns="http://www.w3.org/2000/svg" xmlns:xlink="http://www.w3.org/1999/xlink">
<g id="graph0" class="graph" transform="scale(1 1) rotate(0) translate(4 169.8)">
<title>dependencies</title>
<polygon fill="white" stroke="transparent" points="-4,4 -4,-169.8 1278,-169.8 1278,4 -4,4"/>
<text text-anchor="middle" x="637" y="-8.2" font-family="sans-serif" font-size="14.00">dependencies</text>
<g id="clust1" class="cluster">
<title>cluster_ManagementModule</title>
<polygon fill="none" stroke="black" stroke-dasharray="1,5" points="8,-32.8 8,-157.8 1266,-157.8 1266,-32.8 8,-32.8"/>
</g>
<g id="clust3" class="cluster">
<title>cluster_ManagementModule_imports</title>
<polygon fill="none" stroke="black" points="895,-40.8 895,-92.8 1258,-92.8 1258,-40.8 895,-40.8"/>
</g>
<g id="clust6" class="cluster">
<title>cluster_ManagementModule_providers</title>
<polygon fill="none" stroke="black" points="16,-40.8 16,-92.8 887,-92.8 887,-40.8 16,-40.8"/>
</g>
<!-- AuthModule -->
<g id="node1" class="node">
<title>AuthModule</title>
<polygon fill="#8dd3c7" stroke="black" points="1249.55,-84.8 1246.55,-88.8 1225.55,-88.8 1222.55,-84.8 1162.45,-84.8 1162.45,-48.8 1249.55,-48.8 1249.55,-84.8"/>
<text text-anchor="middle" x="1206" y="-62.6" font-family="Times,serif" font-size="14.00">AuthModule</text>
</g>
<!-- ManagementModule -->
<g id="node4" class="node">
<title>ManagementModule</title>
<polygon fill="#8dd3c7" stroke="black" points="875.14,-149.8 872.14,-153.8 851.14,-153.8 848.14,-149.8 742.86,-149.8 742.86,-113.8 875.14,-113.8 875.14,-149.8"/>
<text text-anchor="middle" x="809" y="-127.6" font-family="Times,serif" font-size="14.00">ManagementModule</text>
</g>
<!-- AuthModule&#45;&gt;ManagementModule -->
<g id="edge1" class="edge">
<title>AuthModule&#45;&gt;ManagementModule</title>
<path fill="none" stroke="black" d="M1206,-85.09C1206,-107.01 1206,-140.8 1206,-140.8 1206,-140.8 885.45,-140.8 885.45,-140.8"/>
<polygon fill="black" stroke="black" points="885.45,-137.3 875.45,-140.8 885.45,-144.3 885.45,-137.3"/>
</g>
<!-- AuthorizationModule -->
<g id="node2" class="node">
<title>AuthorizationModule</title>
<polygon fill="#8dd3c7" stroke="black" points="1144.81,-84.8 1141.81,-88.8 1120.81,-88.8 1117.81,-84.8 1007.19,-84.8 1007.19,-48.8 1144.81,-48.8 1144.81,-84.8"/>
<text text-anchor="middle" x="1076" y="-62.6" font-family="Times,serif" font-size="14.00">AuthorizationModule</text>
</g>
<!-- AuthorizationModule&#45;&gt;ManagementModule -->
<g id="edge2" class="edge">
<title>AuthorizationModule&#45;&gt;ManagementModule</title>
<path fill="none" stroke="black" d="M1076,-84.91C1076,-104.14 1076,-131.8 1076,-131.8 1076,-131.8 885.34,-131.8 885.34,-131.8"/>
<polygon fill="black" stroke="black" points="885.34,-128.3 875.34,-131.8 885.34,-135.3 885.34,-128.3"/>
</g>
<!-- CoreModule -->
<g id="node3" class="node">
<title>CoreModule</title>
<polygon fill="#8dd3c7" stroke="black" points="989.27,-84.8 986.27,-88.8 965.27,-88.8 962.27,-84.8 902.73,-84.8 902.73,-48.8 989.27,-48.8 989.27,-84.8"/>
<text text-anchor="middle" x="946" y="-62.6" font-family="Times,serif" font-size="14.00">CoreModule</text>
</g>
<!-- CoreModule&#45;&gt;ManagementModule -->
<g id="edge3" class="edge">
<title>CoreModule&#45;&gt;ManagementModule</title>
<path fill="none" stroke="black" d="M946,-84.83C946,-101.2 946,-122.8 946,-122.8 946,-122.8 885.49,-122.8 885.49,-122.8"/>
<polygon fill="black" stroke="black" points="885.49,-119.3 875.49,-122.8 885.49,-126.3 885.49,-119.3"/>
</g>
<!-- BsonConverter -->
<g id="node5" class="node">
<title>BsonConverter</title>
<ellipse fill="#fdb462" stroke="black" cx="809" cy="-66.8" rx="69.51" ry="18"/>
<text text-anchor="middle" x="809" y="-62.6" font-family="Times,serif" font-size="14.00">BsonConverter</text>
</g>
<!-- BsonConverter&#45;&gt;ManagementModule -->
<g id="edge4" class="edge">
<title>BsonConverter&#45;&gt;ManagementModule</title>
<path fill="none" stroke="black" d="M809,-84.91C809,-84.91 809,-103.79 809,-103.79"/>
<polygon fill="black" stroke="black" points="805.5,-103.79 809,-113.79 812.5,-103.79 805.5,-103.79"/>
</g>
<!-- ConsoleWriterService -->
<g id="node6" class="node">
<title>ConsoleWriterService</title>
<ellipse fill="#fdb462" stroke="black" cx="625" cy="-66.8" rx="96.69" ry="18"/>
<text text-anchor="middle" x="625" y="-62.6" font-family="Times,serif" font-size="14.00">ConsoleWriterService</text>
</g>
<!-- ConsoleWriterService&#45;&gt;ManagementModule -->
<g id="edge5" class="edge">
<title>ConsoleWriterService&#45;&gt;ManagementModule</title>
<path fill="none" stroke="black" d="M625,-84.83C625,-101.2 625,-122.8 625,-122.8 625,-122.8 732.83,-122.8 732.83,-122.8"/>
<polygon fill="black" stroke="black" points="732.83,-126.3 742.83,-122.8 732.83,-119.3 732.83,-126.3"/>
</g>
<!-- DatabaseManagementService -->
<g id="node7" class="node">
<title>DatabaseManagementService</title>
<ellipse fill="#fdb462" stroke="black" cx="384" cy="-66.8" rx="125.59" ry="18"/>
<text text-anchor="middle" x="384" y="-62.6" font-family="Times,serif" font-size="14.00">DatabaseManagementService</text>
</g>
<!-- DatabaseManagementService&#45;&gt;ManagementModule -->
<g id="edge6" class="edge">
<title>DatabaseManagementService&#45;&gt;ManagementModule</title>
<path fill="none" stroke="black" d="M384,-84.91C384,-104.14 384,-131.8 384,-131.8 384,-131.8 732.59,-131.8 732.59,-131.8"/>
<polygon fill="black" stroke="black" points="732.59,-135.3 742.59,-131.8 732.59,-128.3 732.59,-135.3"/>
</g>
<!-- DatabaseManagementUc -->
<g id="node8" class="node">
<title>DatabaseManagementUc</title>
<ellipse fill="#fdb462" stroke="black" cx="132" cy="-66.8" rx="108.19" ry="18"/>
<text text-anchor="middle" x="132" y="-62.6" font-family="Times,serif" font-size="14.00">DatabaseManagementUc</text>
</g>
<!-- DatabaseManagementUc&#45;&gt;ManagementModule -->
<g id="edge7" class="edge">
<title>DatabaseManagementUc&#45;&gt;ManagementModule</title>
<path fill="none" stroke="black" d="M132,-85.09C132,-107.01 132,-140.8 132,-140.8 132,-140.8 732.85,-140.8 732.85,-140.8"/>
<polygon fill="black" stroke="black" points="732.85,-144.3 742.85,-140.8 732.85,-137.3 732.85,-144.3"/>
</g>
</g>
</svg>
