<?xml version="1.0" encoding="UTF-8" standalone="no"?>
<!DOCTYPE svg PUBLIC "-//W3C//DTD SVG 1.1//EN"
 "http://www.w3.org/Graphics/SVG/1.1/DTD/svg11.dtd">
<!-- Generated by graphviz version 5.0.0 (20220707.1540)
 -->
<!-- Title: dependencies Pages: 1 -->
<svg width="1282pt" height="174pt"
 viewBox="0.00 0.00 1282.00 173.80" xmlns="http://www.w3.org/2000/svg" xmlns:xlink="http://www.w3.org/1999/xlink">
<g id="graph0" class="graph" transform="scale(1 1) rotate(0) translate(4 169.8)">
<title>dependencies</title>
<polygon fill="white" stroke="transparent" points="-4,4 -4,-169.8 1278,-169.8 1278,4 -4,4"/>
<text text-anchor="middle" x="637" y="-8.2" font-family="sans-serif" font-size="14.00">dependencies</text>
<g id="clust1" class="cluster">
<title>cluster_ManagementModule</title>
<polygon fill="none" stroke="black" stroke-dasharray="1,5" points="8,-32.8 8,-157.8 1266,-157.8 1266,-32.8 8,-32.8"/>
</g>
<g id="clust6" class="cluster">
<title>cluster_ManagementModule_providers</title>
<polygon fill="none" stroke="black" points="387,-40.8 387,-92.8 1258,-92.8 1258,-40.8 387,-40.8"/>
</g>
<g id="clust3" class="cluster">
<title>cluster_ManagementModule_imports</title>
<polygon fill="none" stroke="black" points="16,-40.8 16,-92.8 379,-92.8 379,-40.8 16,-40.8"/>
</g>
<!-- AuthModule -->
<g id="node1" class="node">
<title>AuthModule</title>
<polygon fill="#8dd3c7" stroke="black" points="370.55,-84.8 367.55,-88.8 346.55,-88.8 343.55,-84.8 283.45,-84.8 283.45,-48.8 370.55,-48.8 370.55,-84.8"/>
<text text-anchor="middle" x="327" y="-62.6" font-family="Times,serif" font-size="14.00">AuthModule</text>
</g>
<!-- ManagementModule -->
<g id="node4" class="node">
<title>ManagementModule</title>
<polygon fill="#8dd3c7" stroke="black" points="569.14,-149.8 566.14,-153.8 545.14,-153.8 542.14,-149.8 436.86,-149.8 436.86,-113.8 569.14,-113.8 569.14,-149.8"/>
<text text-anchor="middle" x="503" y="-127.6" font-family="Times,serif" font-size="14.00">ManagementModule</text>
</g>
<!-- AuthModule&#45;&gt;ManagementModule -->
<g id="edge1" class="edge">
<title>AuthModule&#45;&gt;ManagementModule</title>
<path fill="none" stroke="black" d="M327,-84.83C327,-101.2 327,-122.8 327,-122.8 327,-122.8 426.71,-122.8 426.71,-122.8"/>
<polygon fill="black" stroke="black" points="426.71,-126.3 436.71,-122.8 426.71,-119.3 426.71,-126.3"/>
</g>
<!-- AuthorizationModule -->
<g id="node2" class="node">
<title>AuthorizationModule</title>
<polygon fill="#8dd3c7" stroke="black" points="265.81,-84.8 262.81,-88.8 241.81,-88.8 238.81,-84.8 128.19,-84.8 128.19,-48.8 265.81,-48.8 265.81,-84.8"/>
<text text-anchor="middle" x="197" y="-62.6" font-family="Times,serif" font-size="14.00">AuthorizationModule</text>
</g>
<!-- AuthorizationModule&#45;&gt;ManagementModule -->
<g id="edge2" class="edge">
<title>AuthorizationModule&#45;&gt;ManagementModule</title>
<path fill="none" stroke="black" d="M197,-84.91C197,-104.14 197,-131.8 197,-131.8 197,-131.8 426.6,-131.8 426.6,-131.8"/>
<polygon fill="black" stroke="black" points="426.6,-135.3 436.6,-131.8 426.6,-128.3 426.6,-135.3"/>
</g>
<!-- CoreModule -->
<g id="node3" class="node">
<title>CoreModule</title>
<polygon fill="#8dd3c7" stroke="black" points="110.27,-84.8 107.27,-88.8 86.27,-88.8 83.27,-84.8 23.73,-84.8 23.73,-48.8 110.27,-48.8 110.27,-84.8"/>
<text text-anchor="middle" x="67" y="-62.6" font-family="Times,serif" font-size="14.00">CoreModule</text>
</g>
<!-- CoreModule&#45;&gt;ManagementModule -->
<g id="edge3" class="edge">
<title>CoreModule&#45;&gt;ManagementModule</title>
<path fill="none" stroke="black" d="M67,-85.09C67,-107.01 67,-140.8 67,-140.8 67,-140.8 426.78,-140.8 426.78,-140.8"/>
<polygon fill="black" stroke="black" points="426.78,-144.3 436.78,-140.8 426.78,-137.3 426.78,-144.3"/>
</g>
<!-- BsonConverter -->
<g id="node5" class="node">
<title>BsonConverter</title>
<ellipse fill="#fdb462" stroke="black" cx="1180" cy="-66.8" rx="69.51" ry="18"/>
<text text-anchor="middle" x="1180" y="-62.6" font-family="Times,serif" font-size="14.00">BsonConverter</text>
</g>
<!-- BsonConverter&#45;&gt;ManagementModule -->
<g id="edge4" class="edge">
<title>BsonConverter&#45;&gt;ManagementModule</title>
<path fill="none" stroke="black" d="M1180,-85.09C1180,-107.01 1180,-140.8 1180,-140.8 1180,-140.8 579.15,-140.8 579.15,-140.8"/>
<polygon fill="black" stroke="black" points="579.15,-137.3 569.15,-140.8 579.15,-144.3 579.15,-137.3"/>
</g>
<!-- ConsoleWriterService -->
<g id="node6" class="node">
<title>ConsoleWriterService</title>
<ellipse fill="#fdb462" stroke="black" cx="996" cy="-66.8" rx="96.69" ry="18"/>
<text text-anchor="middle" x="996" y="-62.6" font-family="Times,serif" font-size="14.00">ConsoleWriterService</text>
</g>
<!-- ConsoleWriterService&#45;&gt;ManagementModule -->
<g id="edge5" class="edge">
<title>ConsoleWriterService&#45;&gt;ManagementModule</title>
<path fill="none" stroke="black" d="M996,-84.91C996,-104.14 996,-131.8 996,-131.8 996,-131.8 579.23,-131.8 579.23,-131.8"/>
<polygon fill="black" stroke="black" points="579.23,-128.3 569.23,-131.8 579.23,-135.3 579.23,-128.3"/>
</g>
<!-- DatabaseManagementService -->
<g id="node7" class="node">
<title>DatabaseManagementService</title>
<ellipse fill="#fdb462" stroke="black" cx="755" cy="-66.8" rx="125.59" ry="18"/>
<text text-anchor="middle" x="755" y="-62.6" font-family="Times,serif" font-size="14.00">DatabaseManagementService</text>
</g>
<!-- DatabaseManagementService&#45;&gt;ManagementModule -->
<g id="edge6" class="edge">
<title>DatabaseManagementService&#45;&gt;ManagementModule</title>
<path fill="none" stroke="black" d="M755,-84.83C755,-101.2 755,-122.8 755,-122.8 755,-122.8 579.21,-122.8 579.21,-122.8"/>
<polygon fill="black" stroke="black" points="579.21,-119.3 569.21,-122.8 579.21,-126.3 579.21,-119.3"/>
</g>
<!-- DatabaseManagementUc -->
<g id="node8" class="node">
<title>DatabaseManagementUc</title>
<ellipse fill="#fdb462" stroke="black" cx="503" cy="-66.8" rx="108.19" ry="18"/>
<text text-anchor="middle" x="503" y="-62.6" font-family="Times,serif" font-size="14.00">DatabaseManagementUc</text>
</g>
<!-- DatabaseManagementUc&#45;&gt;ManagementModule -->
<g id="edge7" class="edge">
<title>DatabaseManagementUc&#45;&gt;ManagementModule</title>
<path fill="none" stroke="black" d="M503,-84.91C503,-84.91 503,-103.79 503,-103.79"/>
<polygon fill="black" stroke="black" points="499.5,-103.79 503,-113.79 506.5,-103.79 499.5,-103.79"/>
</g>
</g>
</svg>
