<?xml version="1.0" encoding="UTF-8" standalone="no"?>
<!DOCTYPE svg PUBLIC "-//W3C//DTD SVG 1.1//EN"
 "http://www.w3.org/Graphics/SVG/1.1/DTD/svg11.dtd">
<!-- Generated by graphviz version 5.0.0 (20220707.1540)
 -->
<!-- Title: dependencies Pages: 1 -->
<svg width="1859pt" height="247pt"
 viewBox="0.00 0.00 1859.00 246.80" xmlns="http://www.w3.org/2000/svg" xmlns:xlink="http://www.w3.org/1999/xlink">
<g id="graph0" class="graph" transform="scale(1 1) rotate(0) translate(4 242.8)">
<title>dependencies</title>
<polygon fill="white" stroke="transparent" points="-4,4 -4,-242.8 1855,-242.8 1855,4 -4,4"/>
<text text-anchor="middle" x="925.5" y="-8.2" font-family="sans-serif" font-size="14.00">dependencies</text>
<g id="clust1" class="cluster">
<title>cluster_AccountModule</title>
<polygon fill="none" stroke="black" stroke-dasharray="1,5" points="8,-32.8 8,-230.8 1843,-230.8 1843,-32.8 8,-32.8"/>
</g>
<g id="clust3" class="cluster">
<title>cluster_AccountModule_imports</title>
<polygon fill="none" stroke="black" points="1525,-40.8 1525,-92.8 1835,-92.8 1835,-40.8 1525,-40.8"/>
</g>
<g id="clust4" class="cluster">
<title>cluster_AccountModule_exports</title>
<polygon fill="none" stroke="black" points="688,-170.8 688,-222.8 1100,-222.8 1100,-170.8 688,-170.8"/>
</g>
<g id="clust6" class="cluster">
<title>cluster_AccountModule_providers</title>
<polygon fill="none" stroke="black" points="16,-40.8 16,-92.8 1517,-92.8 1517,-40.8 16,-40.8"/>
</g>
<!-- IdentityManagementModule -->
<g id="node1" class="node">
<title>IdentityManagementModule</title>
<polygon fill="#8dd3c7" stroke="black" points="1827.18,-84.8 1824.18,-88.8 1803.18,-88.8 1800.18,-84.8 1650.82,-84.8 1650.82,-48.8 1827.18,-48.8 1827.18,-84.8"/>
<text text-anchor="middle" x="1739" y="-62.6" font-family="Times,serif" font-size="14.00">IdentityManagementModule</text>
</g>
<!-- AccountModule -->
<g id="node3" class="node">
<title>AccountModule</title>
<polygon fill="#8dd3c7" stroke="black" points="977.48,-149.8 974.48,-153.8 953.48,-153.8 950.48,-149.8 870.52,-149.8 870.52,-113.8 977.48,-113.8 977.48,-149.8"/>
<text text-anchor="middle" x="924" y="-127.6" font-family="Times,serif" font-size="14.00">AccountModule</text>
</g>
<!-- IdentityManagementModule&#45;&gt;AccountModule -->
<g id="edge1" class="edge">
<title>IdentityManagementModule&#45;&gt;AccountModule</title>
<path fill="none" stroke="black" d="M1739,-85.05C1739,-107.82 1739,-143.8 1739,-143.8 1739,-143.8 987.79,-143.8 987.79,-143.8"/>
<polygon fill="black" stroke="black" points="987.79,-140.3 977.79,-143.8 987.79,-147.3 987.79,-140.3"/>
</g>
<!-- LoggerModule -->
<g id="node2" class="node">
<title>LoggerModule</title>
<polygon fill="#8dd3c7" stroke="black" points="1632.98,-84.8 1629.98,-88.8 1608.98,-88.8 1605.98,-84.8 1533.02,-84.8 1533.02,-48.8 1632.98,-48.8 1632.98,-84.8"/>
<text text-anchor="middle" x="1583" y="-62.6" font-family="Times,serif" font-size="14.00">LoggerModule</text>
</g>
<!-- LoggerModule&#45;&gt;AccountModule -->
<g id="edge2" class="edge">
<title>LoggerModule&#45;&gt;AccountModule</title>
<path fill="none" stroke="black" d="M1583,-85.08C1583,-106.12 1583,-137.8 1583,-137.8 1583,-137.8 987.65,-137.8 987.65,-137.8"/>
<polygon fill="black" stroke="black" points="987.65,-134.3 977.65,-137.8 987.65,-141.3 987.65,-134.3"/>
</g>
<!-- AccountService  -->
<g id="node4" class="node">
<title>AccountService </title>
<polygon fill="#fb8072" stroke="black" points="1092.41,-214.8 983.59,-214.8 983.59,-178.8 1092.41,-178.8 1092.41,-214.8"/>
<text text-anchor="middle" x="1038" y="-192.6" font-family="Times,serif" font-size="14.00">AccountService </text>
</g>
<!-- AccountModule&#45;&gt;AccountService  -->
<g id="edge3" class="edge">
<title>AccountModule&#45;&gt;AccountService </title>
<path fill="none" stroke="black" stroke-dasharray="5,2" d="M971.56,-149.91C971.56,-169.14 971.56,-196.8 971.56,-196.8 971.56,-196.8 973.44,-196.8 973.44,-196.8"/>
<polygon fill="black" stroke="black" points="973.44,-200.3 983.44,-196.8 973.44,-193.3 973.44,-200.3"/>
</g>
<!-- AccountUc  -->
<g id="node5" class="node">
<title>AccountUc </title>
<polygon fill="#fb8072" stroke="black" points="965.75,-214.8 882.25,-214.8 882.25,-178.8 965.75,-178.8 965.75,-214.8"/>
<text text-anchor="middle" x="924" y="-192.6" font-family="Times,serif" font-size="14.00">AccountUc </text>
</g>
<!-- AccountModule&#45;&gt;AccountUc  -->
<g id="edge4" class="edge">
<title>AccountModule&#45;&gt;AccountUc </title>
<path fill="none" stroke="black" stroke-dasharray="5,2" d="M924,-149.91C924,-149.91 924,-168.79 924,-168.79"/>
<polygon fill="black" stroke="black" points="920.5,-168.79 924,-178.79 927.5,-168.79 920.5,-168.79"/>
</g>
<!-- AccountValidationService  -->
<g id="node6" class="node">
<title>AccountValidationService </title>
<polygon fill="#fb8072" stroke="black" points="864,-214.8 696,-214.8 696,-178.8 864,-178.8 864,-214.8"/>
<text text-anchor="middle" x="780" y="-192.6" font-family="Times,serif" font-size="14.00">AccountValidationService </text>
</g>
<!-- AccountModule&#45;&gt;AccountValidationService  -->
<g id="edge5" class="edge">
<title>AccountModule&#45;&gt;AccountValidationService </title>
<path fill="none" stroke="black" stroke-dasharray="5,2" d="M876.44,-149.91C876.44,-169.14 876.44,-196.8 876.44,-196.8 876.44,-196.8 874.23,-196.8 874.23,-196.8"/>
<polygon fill="black" stroke="black" points="874.23,-193.3 864.23,-196.8 874.23,-200.3 874.23,-193.3"/>
</g>
<!-- AccountRepo -->
<g id="node7" class="node">
<title>AccountRepo</title>
<ellipse fill="#fdb462" stroke="black" cx="1445" cy="-66.8" rx="64.27" ry="18"/>
<text text-anchor="middle" x="1445" y="-62.6" font-family="Times,serif" font-size="14.00">AccountRepo</text>
</g>
<!-- AccountRepo&#45;&gt;AccountModule -->
<g id="edge6" class="edge">
<title>AccountRepo&#45;&gt;AccountModule</title>
<path fill="none" stroke="black" d="M1445,-84.91C1445,-104.14 1445,-131.8 1445,-131.8 1445,-131.8 987.79,-131.8 987.79,-131.8"/>
<polygon fill="black" stroke="black" points="987.79,-128.3 977.79,-131.8 987.79,-135.3 987.79,-128.3"/>
</g>
<!-- AccountService -->
<g id="node8" class="node">
<title>AccountService</title>
<ellipse fill="#fdb462" stroke="black" cx="1290" cy="-66.8" rx="72.92" ry="18"/>
<text text-anchor="middle" x="1290" y="-62.6" font-family="Times,serif" font-size="14.00">AccountService</text>
</g>
<!-- AccountService&#45;&gt;AccountModule -->
<g id="edge7" class="edge">
<title>AccountService&#45;&gt;AccountModule</title>
<path fill="none" stroke="black" d="M1290,-84.82C1290,-102.17 1290,-125.8 1290,-125.8 1290,-125.8 987.61,-125.8 987.61,-125.8"/>
<polygon fill="black" stroke="black" points="987.61,-122.3 977.61,-125.8 987.61,-129.3 987.61,-122.3"/>
</g>
<!-- AccountServiceDb -->
<g id="node9" class="node">
<title>AccountServiceDb</title>
<ellipse fill="#fdb462" stroke="black" cx="1115" cy="-66.8" rx="84.52" ry="18"/>
<text text-anchor="middle" x="1115" y="-62.6" font-family="Times,serif" font-size="14.00">AccountServiceDb</text>
</g>
<!-- AccountServiceDb&#45;&gt;AccountModule -->
<g id="edge8" class="edge">
<title>AccountServiceDb&#45;&gt;AccountModule</title>
<path fill="none" stroke="black" d="M1061.47,-81C1061.47,-96.7 1061.47,-119.8 1061.47,-119.8 1061.47,-119.8 987.54,-119.8 987.54,-119.8"/>
<polygon fill="black" stroke="black" points="987.54,-116.3 977.54,-119.8 987.54,-123.3 987.54,-116.3"/>
</g>
<!-- AccountServiceIdm -->
<g id="node10" class="node">
<title>AccountServiceIdm</title>
<ellipse fill="#fdb462" stroke="black" cx="924" cy="-66.8" rx="88.03" ry="18"/>
<text text-anchor="middle" x="924" y="-62.6" font-family="Times,serif" font-size="14.00">AccountServiceIdm</text>
</g>
<!-- AccountServiceIdm&#45;&gt;AccountModule -->
<g id="edge9" class="edge">
<title>AccountServiceIdm&#45;&gt;AccountModule</title>
<path fill="none" stroke="black" d="M924,-84.91C924,-84.91 924,-103.79 924,-103.79"/>
<polygon fill="black" stroke="black" points="920.5,-103.79 924,-113.79 927.5,-103.79 920.5,-103.79"/>
</g>
<!-- AccountUc -->
<g id="node11" class="node">
<title>AccountUc</title>
<ellipse fill="#fdb462" stroke="black" cx="763" cy="-66.8" rx="55.02" ry="18"/>
<text text-anchor="middle" x="763" y="-62.6" font-family="Times,serif" font-size="14.00">AccountUc</text>
</g>
<!-- AccountUc&#45;&gt;AccountModule -->
<g id="edge10" class="edge">
<title>AccountUc&#45;&gt;AccountModule</title>
<path fill="none" stroke="black" d="M763,-85.04C763,-100.37 763,-119.8 763,-119.8 763,-119.8 860.39,-119.8 860.39,-119.8"/>
<polygon fill="black" stroke="black" points="860.39,-123.3 870.39,-119.8 860.39,-116.3 860.39,-123.3"/>
</g>
<!-- AccountValidationService -->
<g id="node12" class="node">
<title>AccountValidationService</title>
<ellipse fill="#fdb462" stroke="black" cx="577" cy="-66.8" rx="113.44" ry="18"/>
<text text-anchor="middle" x="577" y="-62.6" font-family="Times,serif" font-size="14.00">AccountValidationService</text>
</g>
<!-- AccountValidationService&#45;&gt;AccountModule -->
<g id="edge11" class="edge">
<title>AccountValidationService&#45;&gt;AccountModule</title>
<path fill="none" stroke="black" d="M577,-84.82C577,-102.17 577,-125.8 577,-125.8 577,-125.8 860.16,-125.8 860.16,-125.8"/>
<polygon fill="black" stroke="black" points="860.16,-129.3 870.16,-125.8 860.16,-122.3 860.16,-129.3"/>
</g>
<!-- PermissionService -->
<g id="node13" class="node">
<title>PermissionService</title>
<ellipse fill="#fdb462" stroke="black" cx="363" cy="-66.8" rx="82.83" ry="18"/>
<text text-anchor="middle" x="363" y="-62.6" font-family="Times,serif" font-size="14.00">PermissionService</text>
</g>
<!-- PermissionService&#45;&gt;AccountModule -->
<g id="edge12" class="edge">
<title>PermissionService&#45;&gt;AccountModule</title>
<path fill="none" stroke="black" d="M363,-84.91C363,-104.14 363,-131.8 363,-131.8 363,-131.8 860.46,-131.8 860.46,-131.8"/>
<polygon fill="black" stroke="black" points="860.46,-135.3 870.46,-131.8 860.46,-128.3 860.46,-135.3"/>
</g>
<!-- SystemRepo -->
<g id="node14" class="node">
<title>SystemRepo</title>
<ellipse fill="#fdb462" stroke="black" cx="202" cy="-66.8" rx="59.72" ry="18"/>
<text text-anchor="middle" x="202" y="-62.6" font-family="Times,serif" font-size="14.00">SystemRepo</text>
</g>
<!-- SystemRepo&#45;&gt;AccountModule -->
<g id="edge13" class="edge">
<title>SystemRepo&#45;&gt;AccountModule</title>
<path fill="none" stroke="black" d="M202,-85.08C202,-106.12 202,-137.8 202,-137.8 202,-137.8 860.32,-137.8 860.32,-137.8"/>
<polygon fill="black" stroke="black" points="860.32,-141.3 870.32,-137.8 860.32,-134.3 860.32,-141.3"/>
</g>
<!-- UserRepo -->
<g id="node15" class="node">
<title>UserRepo</title>
<ellipse fill="#fdb462" stroke="black" cx="74" cy="-66.8" rx="49.81" ry="18"/>
<text text-anchor="middle" x="74" y="-62.6" font-family="Times,serif" font-size="14.00">UserRepo</text>
</g>
<!-- UserRepo&#45;&gt;AccountModule -->
<g id="edge14" class="edge">
<title>UserRepo&#45;&gt;AccountModule</title>
<path fill="none" stroke="black" d="M74,-85.05C74,-107.82 74,-143.8 74,-143.8 74,-143.8 860.51,-143.8 860.51,-143.8"/>
<polygon fill="black" stroke="black" points="860.51,-147.3 870.51,-143.8 860.51,-140.3 860.51,-147.3"/>
</g>
</g>
</svg>
