<?xml version="1.0" encoding="UTF-8" standalone="no"?>
<!DOCTYPE svg PUBLIC "-//W3C//DTD SVG 1.1//EN"
 "http://www.w3.org/Graphics/SVG/1.1/DTD/svg11.dtd">
<!-- Generated by graphviz version 5.0.0 (20220707.1540)
 -->
<!-- Title: dependencies Pages: 1 -->
<svg width="916pt" height="247pt"
 viewBox="0.00 0.00 916.00 246.80" xmlns="http://www.w3.org/2000/svg" xmlns:xlink="http://www.w3.org/1999/xlink">
<g id="graph0" class="graph" transform="scale(1 1) rotate(0) translate(4 242.8)">
<title>dependencies</title>
<polygon fill="white" stroke="transparent" points="-4,4 -4,-242.8 912,-242.8 912,4 -4,4"/>
<text text-anchor="middle" x="454" y="-8.2" font-family="sans-serif" font-size="14.00">dependencies</text>
<g id="clust1" class="cluster">
<title>cluster_AccountModule</title>
<polygon fill="none" stroke="black" stroke-dasharray="1,5" points="8,-32.8 8,-230.8 900,-230.8 900,-32.8 8,-32.8"/>
</g>
<g id="clust4" class="cluster">
<title>cluster_AccountModule_exports</title>
<polygon fill="none" stroke="black" points="334,-170.8 334,-222.8 560,-222.8 560,-170.8 334,-170.8"/>
</g>
<g id="clust6" class="cluster">
<title>cluster_AccountModule_providers</title>
<polygon fill="none" stroke="black" points="16,-40.8 16,-92.8 892,-92.8 892,-40.8 16,-40.8"/>
</g>
<!-- AccountService  -->
<g id="node1" class="node">
<title>AccountService </title>
<polygon fill="#fb8072" stroke="black" points="552.41,-214.8 443.59,-214.8 443.59,-178.8 552.41,-178.8 552.41,-214.8"/>
<text text-anchor="middle" x="498" y="-192.6" font-family="Times,serif" font-size="14.00">AccountService </text>
</g>
<!-- AccountUc  -->
<g id="node2" class="node">
<title>AccountUc </title>
<polygon fill="#fb8072" stroke="black" points="425.75,-214.8 342.25,-214.8 342.25,-178.8 425.75,-178.8 425.75,-214.8"/>
<text text-anchor="middle" x="384" y="-192.6" font-family="Times,serif" font-size="14.00">AccountUc </text>
</g>
<!-- AccountModule -->
<g id="node3" class="node">
<title>AccountModule</title>
<polygon fill="#8dd3c7" stroke="black" points="494.48,-149.8 491.48,-153.8 470.48,-153.8 467.48,-149.8 387.52,-149.8 387.52,-113.8 494.48,-113.8 494.48,-149.8"/>
<text text-anchor="middle" x="441" y="-127.6" font-family="Times,serif" font-size="14.00">AccountModule</text>
</g>
<!-- AccountModule&#45;&gt;AccountService  -->
<g id="edge1" class="edge">
<title>AccountModule&#45;&gt;AccountService </title>
<path fill="none" stroke="black" stroke-dasharray="5,2" d="M469.02,-149.91C469.02,-149.91 469.02,-168.79 469.02,-168.79"/>
<polygon fill="black" stroke="black" points="465.52,-168.79 469.02,-178.79 472.52,-168.79 465.52,-168.79"/>
</g>
<!-- AccountModule&#45;&gt;AccountUc  -->
<g id="edge2" class="edge">
<title>AccountModule&#45;&gt;AccountUc </title>
<path fill="none" stroke="black" stroke-dasharray="5,2" d="M406.57,-149.91C406.57,-149.91 406.57,-168.79 406.57,-168.79"/>
<polygon fill="black" stroke="black" points="403.07,-168.79 406.57,-178.79 410.07,-168.79 403.07,-168.79"/>
</g>
<!-- AccountRepo -->
<g id="node4" class="node">
<title>AccountRepo</title>
<ellipse fill="#fdb462" stroke="black" cx="820" cy="-66.8" rx="64.27" ry="18"/>
<text text-anchor="middle" x="820" y="-62.6" font-family="Times,serif" font-size="14.00">AccountRepo</text>
</g>
<!-- AccountRepo&#45;&gt;AccountModule -->
<g id="edge3" class="edge">
<title>AccountRepo&#45;&gt;AccountModule</title>
<path fill="none" stroke="black" d="M820,-85.08C820,-106.12 820,-137.8 820,-137.8 820,-137.8 504.5,-137.8 504.5,-137.8"/>
<polygon fill="black" stroke="black" points="504.5,-134.3 494.5,-137.8 504.5,-141.3 504.5,-134.3"/>
</g>
<!-- AccountService -->
<g id="node5" class="node">
<title>AccountService</title>
<ellipse fill="#fdb462" stroke="black" cx="665" cy="-66.8" rx="72.92" ry="18"/>
<text text-anchor="middle" x="665" y="-62.6" font-family="Times,serif" font-size="14.00">AccountService</text>
</g>
<!-- AccountService&#45;&gt;AccountModule -->
<g id="edge4" class="edge">
<title>AccountService&#45;&gt;AccountModule</title>
<path fill="none" stroke="black" d="M665,-84.82C665,-102.17 665,-125.8 665,-125.8 665,-125.8 504.65,-125.8 504.65,-125.8"/>
<polygon fill="black" stroke="black" points="504.65,-122.3 494.65,-125.8 504.65,-129.3 504.65,-122.3"/>
</g>
<!-- AccountUc -->
<g id="node6" class="node">
<title>AccountUc</title>
<ellipse fill="#fdb462" stroke="black" cx="519" cy="-66.8" rx="55.02" ry="18"/>
<text text-anchor="middle" x="519" y="-62.6" font-family="Times,serif" font-size="14.00">AccountUc</text>
</g>
<!-- AccountUc&#45;&gt;AccountModule -->
<g id="edge5" class="edge">
<title>AccountUc&#45;&gt;AccountModule</title>
<path fill="none" stroke="black" d="M479.24,-79.33C479.24,-79.33 479.24,-103.65 479.24,-103.65"/>
<polygon fill="black" stroke="black" points="475.74,-103.65 479.24,-113.65 482.74,-103.65 475.74,-103.65"/>
</g>
<!-- PermissionService -->
<g id="node7" class="node">
<title>PermissionService</title>
<ellipse fill="#fdb462" stroke="black" cx="363" cy="-66.8" rx="82.83" ry="18"/>
<text text-anchor="middle" x="363" y="-62.6" font-family="Times,serif" font-size="14.00">PermissionService</text>
</g>
<!-- PermissionService&#45;&gt;AccountModule -->
<g id="edge6" class="edge">
<title>PermissionService&#45;&gt;AccountModule</title>
<path fill="none" stroke="black" d="M416.71,-80.58C416.71,-80.58 416.71,-103.35 416.71,-103.35"/>
<polygon fill="black" stroke="black" points="413.21,-103.35 416.71,-113.35 420.21,-103.35 413.21,-103.35"/>
</g>
<!-- SystemRepo -->
<g id="node8" class="node">
<title>SystemRepo</title>
<ellipse fill="#fdb462" stroke="black" cx="202" cy="-66.8" rx="59.72" ry="18"/>
<text text-anchor="middle" x="202" y="-62.6" font-family="Times,serif" font-size="14.00">SystemRepo</text>
</g>
<!-- SystemRepo&#45;&gt;AccountModule -->
<g id="edge7" class="edge">
<title>SystemRepo&#45;&gt;AccountModule</title>
<path fill="none" stroke="black" d="M202,-84.82C202,-102.17 202,-125.8 202,-125.8 202,-125.8 377.36,-125.8 377.36,-125.8"/>
<polygon fill="black" stroke="black" points="377.36,-129.3 387.36,-125.8 377.36,-122.3 377.36,-129.3"/>
</g>
<!-- UserRepo -->
<g id="node9" class="node">
<title>UserRepo</title>
<ellipse fill="#fdb462" stroke="black" cx="74" cy="-66.8" rx="49.81" ry="18"/>
<text text-anchor="middle" x="74" y="-62.6" font-family="Times,serif" font-size="14.00">UserRepo</text>
</g>
<!-- UserRepo&#45;&gt;AccountModule -->
<g id="edge8" class="edge">
<title>UserRepo&#45;&gt;AccountModule</title>
<path fill="none" stroke="black" d="M74,-85.08C74,-106.12 74,-137.8 74,-137.8 74,-137.8 377.24,-137.8 377.24,-137.8"/>
<polygon fill="black" stroke="black" points="377.24,-141.3 387.24,-137.8 377.24,-134.3 377.24,-141.3"/>
</g>
</g>
</svg>
