<?xml version="1.0" encoding="UTF-8" standalone="no"?>
<!DOCTYPE svg PUBLIC "-//W3C//DTD SVG 1.1//EN"
 "http://www.w3.org/Graphics/SVG/1.1/DTD/svg11.dtd">
<!-- Generated by graphviz version 5.0.0 (20220707.1540)
 -->
<!-- Title: dependencies Pages: 1 -->
<svg width="1160pt" height="247pt"
 viewBox="0.00 0.00 1160.00 246.80" xmlns="http://www.w3.org/2000/svg" xmlns:xlink="http://www.w3.org/1999/xlink">
<g id="graph0" class="graph" transform="scale(1 1) rotate(0) translate(4 242.8)">
<title>dependencies</title>
<polygon fill="white" stroke="transparent" points="-4,4 -4,-242.8 1156,-242.8 1156,4 -4,4"/>
<text text-anchor="middle" x="576" y="-8.2" font-family="sans-serif" font-size="14.00">dependencies</text>
<g id="clust1" class="cluster">
<title>cluster_AccountModule</title>
<polygon fill="none" stroke="black" stroke-dasharray="1,5" points="8,-32.8 8,-230.8 1144,-230.8 1144,-32.8 8,-32.8"/>
</g>
<g id="clust4" class="cluster">
<title>cluster_AccountModule_exports</title>
<polygon fill="none" stroke="black" points="341,-170.8 341,-222.8 753,-222.8 753,-170.8 341,-170.8"/>
</g>
<g id="clust6" class="cluster">
<title>cluster_AccountModule_providers</title>
<polygon fill="none" stroke="black" points="16,-40.8 16,-92.8 1136,-92.8 1136,-40.8 16,-40.8"/>
</g>
<!-- AccountService  -->
<g id="node1" class="node">
<title>AccountService </title>
<polygon fill="#fb8072" stroke="black" points="745.41,-214.8 636.59,-214.8 636.59,-178.8 745.41,-178.8 745.41,-214.8"/>
<text text-anchor="middle" x="691" y="-192.6" font-family="Times,serif" font-size="14.00">AccountService </text>
</g>
<!-- AccountUc  -->
<g id="node2" class="node">
<title>AccountUc </title>
<polygon fill="#fb8072" stroke="black" points="618.75,-214.8 535.25,-214.8 535.25,-178.8 618.75,-178.8 618.75,-214.8"/>
<text text-anchor="middle" x="577" y="-192.6" font-family="Times,serif" font-size="14.00">AccountUc </text>
</g>
<!-- AccountValidationService  -->
<g id="node3" class="node">
<title>AccountValidationService </title>
<polygon fill="#fb8072" stroke="black" points="517,-214.8 349,-214.8 349,-178.8 517,-178.8 517,-214.8"/>
<text text-anchor="middle" x="433" y="-192.6" font-family="Times,serif" font-size="14.00">AccountValidationService </text>
</g>
<!-- AccountModule -->
<g id="node4" class="node">
<title>AccountModule</title>
<polygon fill="#8dd3c7" stroke="black" points="630.48,-149.8 627.48,-153.8 606.48,-153.8 603.48,-149.8 523.52,-149.8 523.52,-113.8 630.48,-113.8 630.48,-149.8"/>
<text text-anchor="middle" x="577" y="-127.6" font-family="Times,serif" font-size="14.00">AccountModule</text>
</g>
<!-- AccountModule&#45;&gt;AccountService  -->
<g id="edge1" class="edge">
<title>AccountModule&#45;&gt;AccountService </title>
<path fill="none" stroke="black" stroke-dasharray="5,2" d="M624.56,-149.91C624.56,-169.14 624.56,-196.8 624.56,-196.8 624.56,-196.8 626.44,-196.8 626.44,-196.8"/>
<polygon fill="black" stroke="black" points="626.44,-200.3 636.44,-196.8 626.44,-193.3 626.44,-200.3"/>
</g>
<!-- AccountModule&#45;&gt;AccountUc  -->
<g id="edge2" class="edge">
<title>AccountModule&#45;&gt;AccountUc </title>
<path fill="none" stroke="black" stroke-dasharray="5,2" d="M577,-149.91C577,-149.91 577,-168.79 577,-168.79"/>
<polygon fill="black" stroke="black" points="573.5,-168.79 577,-178.79 580.5,-168.79 573.5,-168.79"/>
</g>
<!-- AccountModule&#45;&gt;AccountValidationService  -->
<g id="edge3" class="edge">
<title>AccountModule&#45;&gt;AccountValidationService </title>
<path fill="none" stroke="black" stroke-dasharray="5,2" d="M529.44,-149.91C529.44,-169.14 529.44,-196.8 529.44,-196.8 529.44,-196.8 527.23,-196.8 527.23,-196.8"/>
<polygon fill="black" stroke="black" points="527.23,-193.3 517.23,-196.8 527.23,-200.3 527.23,-193.3"/>
</g>
<!-- AccountRepo -->
<g id="node5" class="node">
<title>AccountRepo</title>
<ellipse fill="#fdb462" stroke="black" cx="1064" cy="-66.8" rx="64.27" ry="18"/>
<text text-anchor="middle" x="1064" y="-62.6" font-family="Times,serif" font-size="14.00">AccountRepo</text>
</g>
<!-- AccountRepo&#45;&gt;AccountModule -->
<g id="edge4" class="edge">
<title>AccountRepo&#45;&gt;AccountModule</title>
<path fill="none" stroke="black" d="M1064,-85.09C1064,-107.01 1064,-140.8 1064,-140.8 1064,-140.8 640.51,-140.8 640.51,-140.8"/>
<polygon fill="black" stroke="black" points="640.51,-137.3 630.51,-140.8 640.51,-144.3 640.51,-137.3"/>
</g>
<!-- AccountService -->
<g id="node6" class="node">
<title>AccountService</title>
<ellipse fill="#fdb462" stroke="black" cx="909" cy="-66.8" rx="72.92" ry="18"/>
<text text-anchor="middle" x="909" y="-62.6" font-family="Times,serif" font-size="14.00">AccountService</text>
</g>
<!-- AccountService&#45;&gt;AccountModule -->
<g id="edge5" class="edge">
<title>AccountService&#45;&gt;AccountModule</title>
<path fill="none" stroke="black" d="M909,-84.91C909,-104.14 909,-131.8 909,-131.8 909,-131.8 640.71,-131.8 640.71,-131.8"/>
<polygon fill="black" stroke="black" points="640.71,-128.3 630.71,-131.8 640.71,-135.3 640.71,-128.3"/>
</g>
<!-- AccountUc -->
<g id="node7" class="node">
<title>AccountUc</title>
<ellipse fill="#fdb462" stroke="black" cx="763" cy="-66.8" rx="55.02" ry="18"/>
<text text-anchor="middle" x="763" y="-62.6" font-family="Times,serif" font-size="14.00">AccountUc</text>
</g>
<!-- AccountUc&#45;&gt;AccountModule -->
<g id="edge6" class="edge">
<title>AccountUc&#45;&gt;AccountModule</title>
<path fill="none" stroke="black" d="M726.72,-80.36C726.72,-96.93 726.72,-122.8 726.72,-122.8 726.72,-122.8 640.63,-122.8 640.63,-122.8"/>
<polygon fill="black" stroke="black" points="640.63,-119.3 630.63,-122.8 640.63,-126.3 640.63,-119.3"/>
</g>
<!-- AccountValidationService -->
<g id="node8" class="node">
<title>AccountValidationService</title>
<ellipse fill="#fdb462" stroke="black" cx="577" cy="-66.8" rx="113.44" ry="18"/>
<text text-anchor="middle" x="577" y="-62.6" font-family="Times,serif" font-size="14.00">AccountValidationService</text>
</g>
<!-- AccountValidationService&#45;&gt;AccountModule -->
<g id="edge7" class="edge">
<title>AccountValidationService&#45;&gt;AccountModule</title>
<path fill="none" stroke="black" d="M577,-84.91C577,-84.91 577,-103.79 577,-103.79"/>
<polygon fill="black" stroke="black" points="573.5,-103.79 577,-113.79 580.5,-103.79 573.5,-103.79"/>
</g>
<!-- PermissionService -->
<g id="node9" class="node">
<title>PermissionService</title>
<ellipse fill="#fdb462" stroke="black" cx="363" cy="-66.8" rx="82.83" ry="18"/>
<text text-anchor="middle" x="363" y="-62.6" font-family="Times,serif" font-size="14.00">PermissionService</text>
</g>
<!-- PermissionService&#45;&gt;AccountModule -->
<g id="edge8" class="edge">
<title>PermissionService&#45;&gt;AccountModule</title>
<path fill="none" stroke="black" d="M397.46,-83.3C397.46,-99.82 397.46,-122.8 397.46,-122.8 397.46,-122.8 513.13,-122.8 513.13,-122.8"/>
<polygon fill="black" stroke="black" points="513.13,-126.3 523.13,-122.8 513.13,-119.3 513.13,-126.3"/>
</g>
<!-- SystemRepo -->
<g id="node10" class="node">
<title>SystemRepo</title>
<ellipse fill="#fdb462" stroke="black" cx="202" cy="-66.8" rx="59.72" ry="18"/>
<text text-anchor="middle" x="202" y="-62.6" font-family="Times,serif" font-size="14.00">SystemRepo</text>
</g>
<!-- SystemRepo&#45;&gt;AccountModule -->
<g id="edge9" class="edge">
<title>SystemRepo&#45;&gt;AccountModule</title>
<path fill="none" stroke="black" d="M202,-84.91C202,-104.14 202,-131.8 202,-131.8 202,-131.8 513.27,-131.8 513.27,-131.8"/>
<polygon fill="black" stroke="black" points="513.27,-135.3 523.27,-131.8 513.27,-128.3 513.27,-135.3"/>
</g>
<!-- UserRepo -->
<g id="node11" class="node">
<title>UserRepo</title>
<ellipse fill="#fdb462" stroke="black" cx="74" cy="-66.8" rx="49.81" ry="18"/>
<text text-anchor="middle" x="74" y="-62.6" font-family="Times,serif" font-size="14.00">UserRepo</text>
</g>
<!-- UserRepo&#45;&gt;AccountModule -->
<g id="edge10" class="edge">
<title>UserRepo&#45;&gt;AccountModule</title>
<path fill="none" stroke="black" d="M74,-85.09C74,-107.01 74,-140.8 74,-140.8 74,-140.8 513.17,-140.8 513.17,-140.8"/>
<polygon fill="black" stroke="black" points="513.17,-144.3 523.17,-140.8 513.17,-137.3 513.17,-144.3"/>
</g>
</g>
</svg>
