<?xml version="1.0" encoding="UTF-8" standalone="no"?>
<!DOCTYPE svg PUBLIC "-//W3C//DTD SVG 1.1//EN"
 "http://www.w3.org/Graphics/SVG/1.1/DTD/svg11.dtd">
<!-- Generated by graphviz version 5.0.0 (20220707.1540)
 -->
<!-- Title: dependencies Pages: 1 -->
<svg width="1859pt" height="247pt"
 viewBox="0.00 0.00 1859.00 246.80" xmlns="http://www.w3.org/2000/svg" xmlns:xlink="http://www.w3.org/1999/xlink">
<g id="graph0" class="graph" transform="scale(1 1) rotate(0) translate(4 242.8)">
<title>dependencies</title>
<polygon fill="white" stroke="transparent" points="-4,4 -4,-242.8 1855,-242.8 1855,4 -4,4"/>
<text text-anchor="middle" x="925.5" y="-8.2" font-family="sans-serif" font-size="14.00">dependencies</text>
<g id="clust1" class="cluster">
<title>cluster_AccountModule</title>
<polygon fill="none" stroke="black" stroke-dasharray="1,5" points="8,-32.8 8,-230.8 1843,-230.8 1843,-32.8 8,-32.8"/>
</g>
<g id="clust6" class="cluster">
<title>cluster_AccountModule_providers</title>
<polygon fill="none" stroke="black" points="334,-40.8 334,-92.8 1835,-92.8 1835,-40.8 334,-40.8"/>
</g>
<g id="clust4" class="cluster">
<title>cluster_AccountModule_exports</title>
<polygon fill="none" stroke="black" points="659,-170.8 659,-222.8 1071,-222.8 1071,-170.8 659,-170.8"/>
</g>
<g id="clust3" class="cluster">
<title>cluster_AccountModule_imports</title>
<polygon fill="none" stroke="black" points="16,-40.8 16,-92.8 326,-92.8 326,-40.8 16,-40.8"/>
</g>
<!-- IdentityManagementModule -->
<g id="node1" class="node">
<title>IdentityManagementModule</title>
<polygon fill="#8dd3c7" stroke="black" points="318.18,-84.8 315.18,-88.8 294.18,-88.8 291.18,-84.8 141.82,-84.8 141.82,-48.8 318.18,-48.8 318.18,-84.8"/>
<text text-anchor="middle" x="230" y="-62.6" font-family="Times,serif" font-size="14.00">IdentityManagementModule</text>
</g>
<!-- AccountModule -->
<g id="node3" class="node">
<title>AccountModule</title>
<polygon fill="#8dd3c7" stroke="black" points="948.48,-149.8 945.48,-153.8 924.48,-153.8 921.48,-149.8 841.52,-149.8 841.52,-113.8 948.48,-113.8 948.48,-149.8"/>
<text text-anchor="middle" x="895" y="-127.6" font-family="Times,serif" font-size="14.00">AccountModule</text>
</g>
<!-- IdentityManagementModule&#45;&gt;AccountModule -->
<g id="edge1" class="edge">
<title>IdentityManagementModule&#45;&gt;AccountModule</title>
<path fill="none" stroke="black" d="M230,-85.08C230,-106.12 230,-137.8 230,-137.8 230,-137.8 831.42,-137.8 831.42,-137.8"/>
<polygon fill="black" stroke="black" points="831.42,-141.3 841.42,-137.8 831.42,-134.3 831.42,-141.3"/>
</g>
<!-- LoggerModule -->
<g id="node2" class="node">
<title>LoggerModule</title>
<polygon fill="#8dd3c7" stroke="black" points="123.98,-84.8 120.98,-88.8 99.98,-88.8 96.98,-84.8 24.02,-84.8 24.02,-48.8 123.98,-48.8 123.98,-84.8"/>
<text text-anchor="middle" x="74" y="-62.6" font-family="Times,serif" font-size="14.00">LoggerModule</text>
</g>
<!-- LoggerModule&#45;&gt;AccountModule -->
<g id="edge2" class="edge">
<title>LoggerModule&#45;&gt;AccountModule</title>
<path fill="none" stroke="black" d="M74,-85.05C74,-107.82 74,-143.8 74,-143.8 74,-143.8 831.45,-143.8 831.45,-143.8"/>
<polygon fill="black" stroke="black" points="831.45,-147.3 841.45,-143.8 831.45,-140.3 831.45,-147.3"/>
</g>
<!-- AccountService  -->
<g id="node4" class="node">
<title>AccountService </title>
<polygon fill="#fb8072" stroke="black" points="1063.41,-214.8 954.59,-214.8 954.59,-178.8 1063.41,-178.8 1063.41,-214.8"/>
<text text-anchor="middle" x="1009" y="-192.6" font-family="Times,serif" font-size="14.00">AccountService </text>
</g>
<!-- AccountModule&#45;&gt;AccountService  -->
<g id="edge3" class="edge">
<title>AccountModule&#45;&gt;AccountService </title>
<path fill="none" stroke="black" stroke-dasharray="5,2" d="M942.56,-149.91C942.56,-169.14 942.56,-196.8 942.56,-196.8 942.56,-196.8 944.44,-196.8 944.44,-196.8"/>
<polygon fill="black" stroke="black" points="944.44,-200.3 954.44,-196.8 944.44,-193.3 944.44,-200.3"/>
</g>
<!-- AccountUc  -->
<g id="node5" class="node">
<title>AccountUc </title>
<polygon fill="#fb8072" stroke="black" points="936.75,-214.8 853.25,-214.8 853.25,-178.8 936.75,-178.8 936.75,-214.8"/>
<text text-anchor="middle" x="895" y="-192.6" font-family="Times,serif" font-size="14.00">AccountUc </text>
</g>
<!-- AccountModule&#45;&gt;AccountUc  -->
<g id="edge4" class="edge">
<title>AccountModule&#45;&gt;AccountUc </title>
<path fill="none" stroke="black" stroke-dasharray="5,2" d="M895,-149.91C895,-149.91 895,-168.79 895,-168.79"/>
<polygon fill="black" stroke="black" points="891.5,-168.79 895,-178.79 898.5,-168.79 891.5,-168.79"/>
</g>
<!-- AccountValidationService  -->
<g id="node6" class="node">
<title>AccountValidationService </title>
<polygon fill="#fb8072" stroke="black" points="835,-214.8 667,-214.8 667,-178.8 835,-178.8 835,-214.8"/>
<text text-anchor="middle" x="751" y="-192.6" font-family="Times,serif" font-size="14.00">AccountValidationService </text>
</g>
<!-- AccountModule&#45;&gt;AccountValidationService  -->
<g id="edge5" class="edge">
<title>AccountModule&#45;&gt;AccountValidationService </title>
<path fill="none" stroke="black" stroke-dasharray="5,2" d="M847.44,-149.91C847.44,-169.14 847.44,-196.8 847.44,-196.8 847.44,-196.8 845.23,-196.8 845.23,-196.8"/>
<polygon fill="black" stroke="black" points="845.23,-193.3 835.23,-196.8 845.23,-200.3 845.23,-193.3"/>
</g>
<!-- AccountRepo -->
<g id="node7" class="node">
<title>AccountRepo</title>
<ellipse fill="#fdb462" stroke="black" cx="1763" cy="-66.8" rx="64.27" ry="18"/>
<text text-anchor="middle" x="1763" y="-62.6" font-family="Times,serif" font-size="14.00">AccountRepo</text>
</g>
<!-- AccountRepo&#45;&gt;AccountModule -->
<g id="edge6" class="edge">
<title>AccountRepo&#45;&gt;AccountModule</title>
<path fill="none" stroke="black" d="M1763,-85.05C1763,-107.82 1763,-143.8 1763,-143.8 1763,-143.8 958.64,-143.8 958.64,-143.8"/>
<polygon fill="black" stroke="black" points="958.64,-140.3 948.64,-143.8 958.64,-147.3 958.64,-140.3"/>
</g>
<!-- AccountService -->
<g id="node8" class="node">
<title>AccountService</title>
<ellipse fill="#fdb462" stroke="black" cx="1608" cy="-66.8" rx="72.92" ry="18"/>
<text text-anchor="middle" x="1608" y="-62.6" font-family="Times,serif" font-size="14.00">AccountService</text>
</g>
<!-- AccountService&#45;&gt;AccountModule -->
<g id="edge7" class="edge">
<title>AccountService&#45;&gt;AccountModule</title>
<path fill="none" stroke="black" d="M1608,-85.08C1608,-106.12 1608,-137.8 1608,-137.8 1608,-137.8 958.59,-137.8 958.59,-137.8"/>
<polygon fill="black" stroke="black" points="958.59,-134.3 948.59,-137.8 958.59,-141.3 958.59,-134.3"/>
</g>
<!-- AccountServiceDb -->
<g id="node9" class="node">
<title>AccountServiceDb</title>
<ellipse fill="#fdb462" stroke="black" cx="1433" cy="-66.8" rx="84.52" ry="18"/>
<text text-anchor="middle" x="1433" y="-62.6" font-family="Times,serif" font-size="14.00">AccountServiceDb</text>
</g>
<!-- AccountServiceDb&#45;&gt;AccountModule -->
<g id="edge8" class="edge">
<title>AccountServiceDb&#45;&gt;AccountModule</title>
<path fill="none" stroke="black" d="M1433,-84.91C1433,-104.14 1433,-131.8 1433,-131.8 1433,-131.8 958.55,-131.8 958.55,-131.8"/>
<polygon fill="black" stroke="black" points="958.55,-128.3 948.55,-131.8 958.55,-135.3 958.55,-128.3"/>
</g>
<!-- AccountServiceIdm -->
<g id="node10" class="node">
<title>AccountServiceIdm</title>
<ellipse fill="#fdb462" stroke="black" cx="1242" cy="-66.8" rx="88.03" ry="18"/>
<text text-anchor="middle" x="1242" y="-62.6" font-family="Times,serif" font-size="14.00">AccountServiceIdm</text>
</g>
<!-- AccountServiceIdm&#45;&gt;AccountModule -->
<g id="edge9" class="edge">
<title>AccountServiceIdm&#45;&gt;AccountModule</title>
<path fill="none" stroke="black" d="M1242,-84.82C1242,-102.17 1242,-125.8 1242,-125.8 1242,-125.8 958.84,-125.8 958.84,-125.8"/>
<polygon fill="black" stroke="black" points="958.84,-122.3 948.84,-125.8 958.84,-129.3 958.84,-122.3"/>
</g>
<!-- AccountUc -->
<g id="node11" class="node">
<title>AccountUc</title>
<ellipse fill="#fdb462" stroke="black" cx="1081" cy="-66.8" rx="55.02" ry="18"/>
<text text-anchor="middle" x="1081" y="-62.6" font-family="Times,serif" font-size="14.00">AccountUc</text>
</g>
<!-- AccountUc&#45;&gt;AccountModule -->
<g id="edge10" class="edge">
<title>AccountUc&#45;&gt;AccountModule</title>
<path fill="none" stroke="black" d="M1044.72,-80.45C1044.72,-96.15 1044.72,-119.8 1044.72,-119.8 1044.72,-119.8 958.63,-119.8 958.63,-119.8"/>
<polygon fill="black" stroke="black" points="958.63,-116.3 948.63,-119.8 958.63,-123.3 958.63,-116.3"/>
</g>
<!-- AccountValidationService -->
<g id="node12" class="node">
<title>AccountValidationService</title>
<ellipse fill="#fdb462" stroke="black" cx="895" cy="-66.8" rx="113.44" ry="18"/>
<text text-anchor="middle" x="895" y="-62.6" font-family="Times,serif" font-size="14.00">AccountValidationService</text>
</g>
<!-- AccountValidationService&#45;&gt;AccountModule -->
<g id="edge11" class="edge">
<title>AccountValidationService&#45;&gt;AccountModule</title>
<path fill="none" stroke="black" d="M895,-84.91C895,-84.91 895,-103.79 895,-103.79"/>
<polygon fill="black" stroke="black" points="891.5,-103.79 895,-113.79 898.5,-103.79 891.5,-103.79"/>
</g>
<!-- PermissionService -->
<g id="node13" class="node">
<title>PermissionService</title>
<ellipse fill="#fdb462" stroke="black" cx="681" cy="-66.8" rx="82.83" ry="18"/>
<text text-anchor="middle" x="681" y="-62.6" font-family="Times,serif" font-size="14.00">PermissionService</text>
</g>
<!-- PermissionService&#45;&gt;AccountModule -->
<g id="edge12" class="edge">
<title>PermissionService&#45;&gt;AccountModule</title>
<path fill="none" stroke="black" d="M715.46,-83.28C715.46,-98.84 715.46,-119.8 715.46,-119.8 715.46,-119.8 831.13,-119.8 831.13,-119.8"/>
<polygon fill="black" stroke="black" points="831.13,-123.3 841.13,-119.8 831.13,-116.3 831.13,-123.3"/>
</g>
<!-- SystemRepo -->
<g id="node14" class="node">
<title>SystemRepo</title>
<ellipse fill="#fdb462" stroke="black" cx="520" cy="-66.8" rx="59.72" ry="18"/>
<text text-anchor="middle" x="520" y="-62.6" font-family="Times,serif" font-size="14.00">SystemRepo</text>
</g>
<!-- SystemRepo&#45;&gt;AccountModule -->
<g id="edge13" class="edge">
<title>SystemRepo&#45;&gt;AccountModule</title>
<path fill="none" stroke="black" d="M520,-84.82C520,-102.17 520,-125.8 520,-125.8 520,-125.8 831.27,-125.8 831.27,-125.8"/>
<polygon fill="black" stroke="black" points="831.27,-129.3 841.27,-125.8 831.27,-122.3 831.27,-129.3"/>
</g>
<!-- UserRepo -->
<g id="node15" class="node">
<title>UserRepo</title>
<ellipse fill="#fdb462" stroke="black" cx="392" cy="-66.8" rx="49.81" ry="18"/>
<text text-anchor="middle" x="392" y="-62.6" font-family="Times,serif" font-size="14.00">UserRepo</text>
</g>
<!-- UserRepo&#45;&gt;AccountModule -->
<g id="edge14" class="edge">
<title>UserRepo&#45;&gt;AccountModule</title>
<path fill="none" stroke="black" d="M392,-84.91C392,-104.14 392,-131.8 392,-131.8 392,-131.8 831.17,-131.8 831.17,-131.8"/>
<polygon fill="black" stroke="black" points="831.17,-135.3 841.17,-131.8 831.17,-128.3 831.17,-135.3"/>
</g>
</g>
</svg>
