<?xml version="1.0" encoding="UTF-8" standalone="no"?>
<!DOCTYPE svg PUBLIC "-//W3C//DTD SVG 1.1//EN"
 "http://www.w3.org/Graphics/SVG/1.1/DTD/svg11.dtd">
<!-- Generated by graphviz version 5.0.0 (20220707.1540)
 -->
<!-- Title: dependencies Pages: 1 -->
<svg width="1173pt" height="174pt"
 viewBox="0.00 0.00 1173.00 173.80" xmlns="http://www.w3.org/2000/svg" xmlns:xlink="http://www.w3.org/1999/xlink">
<g id="graph0" class="graph" transform="scale(1 1) rotate(0) translate(4 169.8)">
<title>dependencies</title>
<polygon fill="white" stroke="transparent" points="-4,4 -4,-169.8 1169,-169.8 1169,4 -4,4"/>
<text text-anchor="middle" x="582.5" y="-8.2" font-family="sans-serif" font-size="14.00">dependencies</text>
<g id="clust1" class="cluster">
<title>cluster_FilesStorageTestModule</title>
<polygon fill="none" stroke="black" stroke-dasharray="1,5" points="8,-32.8 8,-157.8 1157,-157.8 1157,-32.8 8,-32.8"/>
</g>
<g id="clust3" class="cluster">
<title>cluster_FilesStorageTestModule_imports</title>
<polygon fill="none" stroke="black" points="16,-40.8 16,-92.8 1149,-92.8 1149,-40.8 16,-40.8"/>
</g>
<!-- AuthenticationModule -->
<g id="node1" class="node">
<title>AuthenticationModule</title>
<polygon fill="#8dd3c7" stroke="black" points="1141.25,-84.8 1138.25,-88.8 1117.25,-88.8 1114.25,-84.8 998.75,-84.8 998.75,-48.8 1141.25,-48.8 1141.25,-84.8"/>
<text text-anchor="middle" x="1070" y="-62.6" font-family="Times,serif" font-size="14.00">AuthenticationModule</text>
</g>
<!-- FilesStorageTestModule -->
<g id="node8" class="node">
<title>FilesStorageTestModule</title>
<polygon fill="#8dd3c7" stroke="black" points="721.65,-149.8 718.65,-153.8 697.65,-153.8 694.65,-149.8 568.35,-149.8 568.35,-113.8 721.65,-113.8 721.65,-149.8"/>
<text text-anchor="middle" x="645" y="-127.6" font-family="Times,serif" font-size="14.00">FilesStorageTestModule</text>
</g>
<!-- AuthenticationModule&#45;&gt;FilesStorageTestModule -->
<g id="edge1" class="edge">
<title>AuthenticationModule&#45;&gt;FilesStorageTestModule</title>
<path fill="none" stroke="black" d="M1070,-85.09C1070,-107.01 1070,-140.8 1070,-140.8 1070,-140.8 731.96,-140.8 731.96,-140.8"/>
<polygon fill="black" stroke="black" points="731.96,-137.3 721.96,-140.8 731.96,-144.3 731.96,-137.3"/>
</g>
<!-- AuthorizationModule -->
<g id="node2" class="node">
<title>AuthorizationModule</title>
<polygon fill="#8dd3c7" stroke="black" points="980.81,-84.8 977.81,-88.8 956.81,-88.8 953.81,-84.8 843.19,-84.8 843.19,-48.8 980.81,-48.8 980.81,-84.8"/>
<text text-anchor="middle" x="912" y="-62.6" font-family="Times,serif" font-size="14.00">AuthorizationModule</text>
</g>
<!-- AuthorizationModule&#45;&gt;FilesStorageTestModule -->
<g id="edge2" class="edge">
<title>AuthorizationModule&#45;&gt;FilesStorageTestModule</title>
<path fill="none" stroke="black" d="M912,-84.91C912,-104.14 912,-131.8 912,-131.8 912,-131.8 731.87,-131.8 731.87,-131.8"/>
<polygon fill="black" stroke="black" points="731.87,-128.3 721.87,-131.8 731.87,-135.3 731.87,-128.3"/>
</g>
<!-- CoreModule -->
<g id="node3" class="node">
<title>CoreModule</title>
<polygon fill="#8dd3c7" stroke="black" points="825.27,-84.8 822.27,-88.8 801.27,-88.8 798.27,-84.8 738.73,-84.8 738.73,-48.8 825.27,-48.8 825.27,-84.8"/>
<text text-anchor="middle" x="782" y="-62.6" font-family="Times,serif" font-size="14.00">CoreModule</text>
</g>
<!-- CoreModule&#45;&gt;FilesStorageTestModule -->
<g id="edge3" class="edge">
<title>CoreModule&#45;&gt;FilesStorageTestModule</title>
<path fill="none" stroke="black" d="M782,-84.83C782,-101.2 782,-122.8 782,-122.8 782,-122.8 731.91,-122.8 731.91,-122.8"/>
<polygon fill="black" stroke="black" points="731.91,-119.3 721.91,-122.8 731.91,-126.3 731.91,-119.3"/>
</g>
<!-- FilesStorageApiModule -->
<g id="node4" class="node">
<title>FilesStorageApiModule</title>
<polygon fill="#8dd3c7" stroke="black" points="720.05,-84.8 717.05,-88.8 696.05,-88.8 693.05,-84.8 569.95,-84.8 569.95,-48.8 720.05,-48.8 720.05,-84.8"/>
<text text-anchor="middle" x="645" y="-62.6" font-family="Times,serif" font-size="14.00">FilesStorageApiModule</text>
</g>
<!-- FilesStorageApiModule&#45;&gt;FilesStorageTestModule -->
<g id="edge4" class="edge">
<title>FilesStorageApiModule&#45;&gt;FilesStorageTestModule</title>
<path fill="none" stroke="black" d="M645,-84.91C645,-84.91 645,-103.79 645,-103.79"/>
<polygon fill="black" stroke="black" points="641.5,-103.79 645,-113.79 648.5,-103.79 641.5,-103.79"/>
</g>
<!-- LoggerModule -->
<g id="node5" class="node">
<title>LoggerModule</title>
<polygon fill="#8dd3c7" stroke="black" points="551.98,-84.8 548.98,-88.8 527.98,-88.8 524.98,-84.8 452.02,-84.8 452.02,-48.8 551.98,-48.8 551.98,-84.8"/>
<text text-anchor="middle" x="502" y="-62.6" font-family="Times,serif" font-size="14.00">LoggerModule</text>
</g>
<!-- LoggerModule&#45;&gt;FilesStorageTestModule -->
<g id="edge5" class="edge">
<title>LoggerModule&#45;&gt;FilesStorageTestModule</title>
<path fill="none" stroke="black" d="M502,-84.83C502,-101.2 502,-122.8 502,-122.8 502,-122.8 558.06,-122.8 558.06,-122.8"/>
<polygon fill="black" stroke="black" points="558.06,-126.3 568.06,-122.8 558.06,-119.3 558.06,-126.3"/>
</g>
<!-- MongoMemoryDatabaseModule -->
<g id="node6" class="node">
<title>MongoMemoryDatabaseModule</title>
<polygon fill="#8dd3c7" stroke="black" points="433.52,-84.8 430.52,-88.8 409.52,-88.8 406.52,-84.8 234.48,-84.8 234.48,-48.8 433.52,-48.8 433.52,-84.8"/>
<text text-anchor="middle" x="334" y="-62.6" font-family="Times,serif" font-size="14.00">MongoMemoryDatabaseModule</text>
</g>
<!-- MongoMemoryDatabaseModule&#45;&gt;FilesStorageTestModule -->
<g id="edge6" class="edge">
<title>MongoMemoryDatabaseModule&#45;&gt;FilesStorageTestModule</title>
<path fill="none" stroke="black" d="M334,-84.91C334,-104.14 334,-131.8 334,-131.8 334,-131.8 558.12,-131.8 558.12,-131.8"/>
<polygon fill="black" stroke="black" points="558.12,-135.3 568.12,-131.8 558.12,-128.3 558.12,-135.3"/>
</g>
<!-- RabbitMQWrapperTestModule -->
<g id="node7" class="node">
<title>RabbitMQWrapperTestModule</title>
<polygon fill="#8dd3c7" stroke="black" points="216.01,-84.8 213.01,-88.8 192.01,-88.8 189.01,-84.8 23.99,-84.8 23.99,-48.8 216.01,-48.8 216.01,-84.8"/>
<text text-anchor="middle" x="120" y="-62.6" font-family="Times,serif" font-size="14.00">RabbitMQWrapperTestModule</text>
</g>
<!-- RabbitMQWrapperTestModule&#45;&gt;FilesStorageTestModule -->
<g id="edge7" class="edge">
<title>RabbitMQWrapperTestModule&#45;&gt;FilesStorageTestModule</title>
<path fill="none" stroke="black" d="M120,-85.09C120,-107.01 120,-140.8 120,-140.8 120,-140.8 558.1,-140.8 558.1,-140.8"/>
<polygon fill="black" stroke="black" points="558.1,-144.3 568.1,-140.8 558.1,-137.3 558.1,-144.3"/>
</g>
</g>
</svg>
