<?xml version="1.0" encoding="UTF-8" standalone="no"?>
<!DOCTYPE svg PUBLIC "-//W3C//DTD SVG 1.1//EN"
 "http://www.w3.org/Graphics/SVG/1.1/DTD/svg11.dtd">
<!-- Generated by graphviz version 2.47.3 (20210619.1520)
 -->
<!-- Title: dependencies Pages: 1 -->
<svg width="1431pt" height="174pt"
 viewBox="0.00 0.00 1431.00 173.80" xmlns="http://www.w3.org/2000/svg" xmlns:xlink="http://www.w3.org/1999/xlink">
<g id="graph0" class="graph" transform="scale(1 1) rotate(0) translate(4 169.8)">
<title>dependencies</title>
<polygon fill="white" stroke="transparent" points="-4,4 -4,-169.8 1427,-169.8 1427,4 -4,4"/>
<text text-anchor="middle" x="711.5" y="-8.2" font-family="sans-serif" font-size="14.00">dependencies</text>
<g id="clust1" class="cluster">
<title>cluster_FilesStorageTestModule</title>
<polygon fill="none" stroke="black" stroke-dasharray="1,5" points="8,-32.8 8,-157.8 1415,-157.8 1415,-32.8 8,-32.8"/>
</g>
<g id="clust6" class="cluster">
<title>cluster_FilesStorageTestModule_providers</title>
<polygon fill="none" stroke="black" points="660,-40.8 660,-92.8 1407,-92.8 1407,-40.8 660,-40.8"/>
</g>
<g id="clust3" class="cluster">
<title>cluster_FilesStorageTestModule_imports</title>
<polygon fill="none" stroke="black" points="16,-40.8 16,-92.8 652,-92.8 652,-40.8 16,-40.8"/>
</g>
<!-- AuthModule -->
<g id="node1" class="node">
<title>AuthModule</title>
<polygon fill="#8dd3c7" stroke="black" points="643.55,-84.8 640.55,-88.8 619.55,-88.8 616.55,-84.8 556.45,-84.8 556.45,-48.8 643.55,-48.8 643.55,-84.8"/>
<text text-anchor="middle" x="600" y="-62.6" font-family="Times,serif" font-size="14.00">AuthModule</text>
</g>
<!-- FilesStorageTestModule -->
<g id="node5" class="node">
<title>FilesStorageTestModule</title>
<polygon fill="#8dd3c7" stroke="black" points="820.64,-149.8 817.64,-153.8 796.64,-153.8 793.64,-149.8 667.36,-149.8 667.36,-113.8 820.64,-113.8 820.64,-149.8"/>
<text text-anchor="middle" x="744" y="-127.6" font-family="Times,serif" font-size="14.00">FilesStorageTestModule</text>
</g>
<!-- AuthModule&#45;&gt;FilesStorageTestModule -->
<g id="edge1" class="edge">
<title>AuthModule&#45;&gt;FilesStorageTestModule</title>
<path fill="none" stroke="black" d="M600,-84.81C600,-100.85 600,-121.8 600,-121.8 600,-121.8 656.94,-121.8 656.94,-121.8"/>
<polygon fill="black" stroke="black" points="656.94,-125.3 666.94,-121.8 656.94,-118.3 656.94,-125.3"/>
</g>
<!-- CoreModule -->
<g id="node2" class="node">
<title>CoreModule</title>
<polygon fill="#8dd3c7" stroke="black" points="538.26,-84.8 535.26,-88.8 514.26,-88.8 511.26,-84.8 451.74,-84.8 451.74,-48.8 538.26,-48.8 538.26,-84.8"/>
<text text-anchor="middle" x="495" y="-62.6" font-family="Times,serif" font-size="14.00">CoreModule</text>
</g>
<!-- CoreModule&#45;&gt;FilesStorageTestModule -->
<g id="edge2" class="edge">
<title>CoreModule&#45;&gt;FilesStorageTestModule</title>
<path fill="none" stroke="black" d="M495,-85.07C495,-103.36 495,-128.8 495,-128.8 495,-128.8 657.26,-128.8 657.26,-128.8"/>
<polygon fill="black" stroke="black" points="657.26,-132.3 667.26,-128.8 657.26,-125.3 657.26,-132.3"/>
</g>
<!-- MongoMemoryDatabaseModule -->
<g id="node3" class="node">
<title>MongoMemoryDatabaseModule</title>
<polygon fill="#8dd3c7" stroke="black" points="433.51,-84.8 430.51,-88.8 409.51,-88.8 406.51,-84.8 234.49,-84.8 234.49,-48.8 433.51,-48.8 433.51,-84.8"/>
<text text-anchor="middle" x="334" y="-62.6" font-family="Times,serif" font-size="14.00">MongoMemoryDatabaseModule</text>
</g>
<!-- MongoMemoryDatabaseModule&#45;&gt;FilesStorageTestModule -->
<g id="edge3" class="edge">
<title>MongoMemoryDatabaseModule&#45;&gt;FilesStorageTestModule</title>
<path fill="none" stroke="black" d="M334,-84.93C334,-105.37 334,-135.8 334,-135.8 334,-135.8 656.88,-135.8 656.88,-135.8"/>
<polygon fill="black" stroke="black" points="656.88,-139.3 666.88,-135.8 656.88,-132.3 656.88,-139.3"/>
</g>
<!-- RabbitMQWrapperTestModule -->
<g id="node4" class="node">
<title>RabbitMQWrapperTestModule</title>
<polygon fill="#8dd3c7" stroke="black" points="216,-84.8 213,-88.8 192,-88.8 189,-84.8 24,-84.8 24,-48.8 216,-48.8 216,-84.8"/>
<text text-anchor="middle" x="120" y="-62.6" font-family="Times,serif" font-size="14.00">RabbitMQWrapperTestModule</text>
</g>
<!-- RabbitMQWrapperTestModule&#45;&gt;FilesStorageTestModule -->
<g id="edge4" class="edge">
<title>RabbitMQWrapperTestModule&#45;&gt;FilesStorageTestModule</title>
<path fill="none" stroke="black" d="M120,-84.81C120,-107.29 120,-142.8 120,-142.8 120,-142.8 657.17,-142.8 657.17,-142.8"/>
<polygon fill="black" stroke="black" points="657.17,-146.3 667.17,-142.8 657.17,-139.3 657.17,-146.3"/>
</g>
<!-- FileRecordRepo -->
<g id="node6" class="node">
<title>FileRecordRepo</title>
<ellipse fill="#fdb462" stroke="black" cx="1325" cy="-66.8" rx="74.16" ry="18"/>
<text text-anchor="middle" x="1325" y="-62.6" font-family="Times,serif" font-size="14.00">FileRecordRepo</text>
</g>
<!-- FileRecordRepo&#45;&gt;FilesStorageTestModule -->
<g id="edge5" class="edge">
<title>FileRecordRepo&#45;&gt;FilesStorageTestModule</title>
<path fill="none" stroke="black" d="M1325,-84.81C1325,-107.29 1325,-142.8 1325,-142.8 1325,-142.8 830.85,-142.8 830.85,-142.8"/>
<polygon fill="black" stroke="black" points="830.85,-139.3 820.85,-142.8 830.85,-146.3 830.85,-139.3"/>
</g>
<!-- FileRecordUC -->
<g id="node7" class="node">
<title>FileRecordUC</title>
<ellipse fill="#fdb462" stroke="black" cx="1165" cy="-66.8" rx="67.21" ry="18"/>
<text text-anchor="middle" x="1165" y="-62.6" font-family="Times,serif" font-size="14.00">FileRecordUC</text>
</g>
<!-- FileRecordUC&#45;&gt;FilesStorageTestModule -->
<g id="edge6" class="edge">
<title>FileRecordUC&#45;&gt;FilesStorageTestModule</title>
<path fill="none" stroke="black" d="M1165,-84.93C1165,-105.37 1165,-135.8 1165,-135.8 1165,-135.8 830.73,-135.8 830.73,-135.8"/>
<polygon fill="black" stroke="black" points="830.73,-132.3 820.73,-135.8 830.73,-139.3 830.73,-132.3"/>
</g>
<!-- FilesStorageUC -->
<g id="node8" class="node">
<title>FilesStorageUC</title>
<ellipse fill="#fdb462" stroke="black" cx="1007" cy="-66.8" rx="72.95" ry="18"/>
<text text-anchor="middle" x="1007" y="-62.6" font-family="Times,serif" font-size="14.00">FilesStorageUC</text>
</g>
<!-- FilesStorageUC&#45;&gt;FilesStorageTestModule -->
<g id="edge7" class="edge">
<title>FilesStorageUC&#45;&gt;FilesStorageTestModule</title>
<path fill="none" stroke="black" d="M1007,-85.07C1007,-103.36 1007,-128.8 1007,-128.8 1007,-128.8 830.78,-128.8 830.78,-128.8"/>
<polygon fill="black" stroke="black" points="830.78,-125.3 820.78,-128.8 830.78,-132.3 830.78,-125.3"/>
</g>
<!-- Logger -->
<g id="node9" class="node">
<title>Logger</title>
<ellipse fill="#fdb462" stroke="black" cx="877" cy="-66.8" rx="38.85" ry="18"/>
<text text-anchor="middle" x="877" y="-62.6" font-family="Times,serif" font-size="14.00">Logger</text>
</g>
<!-- Logger&#45;&gt;FilesStorageTestModule -->
<g id="edge8" class="edge">
<title>Logger&#45;&gt;FilesStorageTestModule</title>
<path fill="none" stroke="black" d="M877,-84.81C877,-100.85 877,-121.8 877,-121.8 877,-121.8 830.98,-121.8 830.98,-121.8"/>
<polygon fill="black" stroke="black" points="830.98,-118.3 820.98,-121.8 830.98,-125.3 830.98,-118.3"/>
</g>
<!-- S3ClientAdapter -->
<g id="node10" class="node">
<title>S3ClientAdapter</title>
<ellipse fill="#fdb462" stroke="black" cx="744" cy="-66.8" rx="75.88" ry="18"/>
<text text-anchor="middle" x="744" y="-62.6" font-family="Times,serif" font-size="14.00">S3ClientAdapter</text>
</g>
<!-- S3ClientAdapter&#45;&gt;FilesStorageTestModule -->
<g id="edge9" class="edge">
<title>S3ClientAdapter&#45;&gt;FilesStorageTestModule</title>
<path fill="none" stroke="black" d="M744,-84.91C744,-84.91 744,-103.79 744,-103.79"/>
<polygon fill="black" stroke="black" points="740.5,-103.79 744,-113.79 747.5,-103.79 740.5,-103.79"/>
</g>
</g>
</svg>
