<?xml version="1.0" encoding="UTF-8" standalone="no"?>
<!DOCTYPE svg PUBLIC "-//W3C//DTD SVG 1.1//EN"
 "http://www.w3.org/Graphics/SVG/1.1/DTD/svg11.dtd">
<!-- Generated by graphviz version 3.0.0 (20220226.1711)
 -->
<!-- Title: dependencies Pages: 1 -->
<svg width="1431pt" height="174pt"
 viewBox="0.00 0.00 1431.00 173.80" xmlns="http://www.w3.org/2000/svg" xmlns:xlink="http://www.w3.org/1999/xlink">
<g id="graph0" class="graph" transform="scale(1 1) rotate(0) translate(4 169.8)">
<title>dependencies</title>
<polygon fill="white" stroke="transparent" points="-4,4 -4,-169.8 1427,-169.8 1427,4 -4,4"/>
<text text-anchor="middle" x="711.5" y="-8.2" font-family="sans-serif" font-size="14.00">dependencies</text>
<g id="clust1" class="cluster">
<title>cluster_FilesStorageTestModule</title>
<polygon fill="none" stroke="black" stroke-dasharray="1,5" points="8,-32.8 8,-157.8 1415,-157.8 1415,-32.8 8,-32.8"/>
</g>
<g id="clust3" class="cluster">
<title>cluster_FilesStorageTestModule_imports</title>
<polygon fill="none" stroke="black" points="771,-40.8 771,-92.8 1407,-92.8 1407,-40.8 771,-40.8"/>
</g>
<g id="clust6" class="cluster">
<title>cluster_FilesStorageTestModule_providers</title>
<polygon fill="none" stroke="black" points="16,-40.8 16,-92.8 763,-92.8 763,-40.8 16,-40.8"/>
</g>
<!-- AuthModule -->
<g id="node1" class="node">
<title>AuthModule</title>
<polygon fill="#8dd3c7" stroke="black" points="1398.55,-84.8 1395.55,-88.8 1374.55,-88.8 1371.55,-84.8 1311.45,-84.8 1311.45,-48.8 1398.55,-48.8 1398.55,-84.8"/>
<text text-anchor="middle" x="1355" y="-62.6" font-family="Times,serif" font-size="14.00">AuthModule</text>
</g>
<!-- FilesStorageTestModule -->
<g id="node5" class="node">
<title>FilesStorageTestModule</title>
<polygon fill="#8dd3c7" stroke="black" points="757.65,-149.8 754.65,-153.8 733.65,-153.8 730.65,-149.8 604.35,-149.8 604.35,-113.8 757.65,-113.8 757.65,-149.8"/>
<text text-anchor="middle" x="681" y="-127.6" font-family="Times,serif" font-size="14.00">FilesStorageTestModule</text>
</g>
<!-- AuthModule&#45;&gt;FilesStorageTestModule -->
<g id="edge1" class="edge">
<title>AuthModule&#45;&gt;FilesStorageTestModule</title>
<path fill="none" stroke="black" d="M1355,-84.81C1355,-107.29 1355,-142.8 1355,-142.8 1355,-142.8 767.66,-142.8 767.66,-142.8"/>
<polygon fill="black" stroke="black" points="767.66,-139.3 757.66,-142.8 767.66,-146.3 767.66,-139.3"/>
</g>
<!-- CoreModule -->
<g id="node2" class="node">
<title>CoreModule</title>
<polygon fill="#8dd3c7" stroke="black" points="1293.27,-84.8 1290.27,-88.8 1269.27,-88.8 1266.27,-84.8 1206.73,-84.8 1206.73,-48.8 1293.27,-48.8 1293.27,-84.8"/>
<text text-anchor="middle" x="1250" y="-62.6" font-family="Times,serif" font-size="14.00">CoreModule</text>
</g>
<!-- CoreModule&#45;&gt;FilesStorageTestModule -->
<g id="edge2" class="edge">
<title>CoreModule&#45;&gt;FilesStorageTestModule</title>
<path fill="none" stroke="black" d="M1250,-84.93C1250,-105.37 1250,-135.8 1250,-135.8 1250,-135.8 767.74,-135.8 767.74,-135.8"/>
<polygon fill="black" stroke="black" points="767.74,-132.3 757.74,-135.8 767.74,-139.3 767.74,-132.3"/>
</g>
<!-- MongoMemoryDatabaseModule -->
<g id="node3" class="node">
<title>MongoMemoryDatabaseModule</title>
<polygon fill="#8dd3c7" stroke="black" points="1188.52,-84.8 1185.52,-88.8 1164.52,-88.8 1161.52,-84.8 989.48,-84.8 989.48,-48.8 1188.52,-48.8 1188.52,-84.8"/>
<text text-anchor="middle" x="1089" y="-62.6" font-family="Times,serif" font-size="14.00">MongoMemoryDatabaseModule</text>
</g>
<!-- MongoMemoryDatabaseModule&#45;&gt;FilesStorageTestModule -->
<g id="edge3" class="edge">
<title>MongoMemoryDatabaseModule&#45;&gt;FilesStorageTestModule</title>
<path fill="none" stroke="black" d="M1089,-85.07C1089,-103.36 1089,-128.8 1089,-128.8 1089,-128.8 767.74,-128.8 767.74,-128.8"/>
<polygon fill="black" stroke="black" points="767.74,-125.3 757.74,-128.8 767.74,-132.3 767.74,-125.3"/>
</g>
<!-- RabbitMQWrapperTestModule -->
<g id="node4" class="node">
<title>RabbitMQWrapperTestModule</title>
<polygon fill="#8dd3c7" stroke="black" points="971.01,-84.8 968.01,-88.8 947.01,-88.8 944.01,-84.8 778.99,-84.8 778.99,-48.8 971.01,-48.8 971.01,-84.8"/>
<text text-anchor="middle" x="875" y="-62.6" font-family="Times,serif" font-size="14.00">RabbitMQWrapperTestModule</text>
</g>
<!-- RabbitMQWrapperTestModule&#45;&gt;FilesStorageTestModule -->
<g id="edge4" class="edge">
<title>RabbitMQWrapperTestModule&#45;&gt;FilesStorageTestModule</title>
<path fill="none" stroke="black" d="M875,-84.81C875,-100.85 875,-121.8 875,-121.8 875,-121.8 767.67,-121.8 767.67,-121.8"/>
<polygon fill="black" stroke="black" points="767.67,-118.3 757.67,-121.8 767.67,-125.3 767.67,-118.3"/>
</g>
<!-- FileRecordRepo -->
<g id="node6" class="node">
<title>FileRecordRepo</title>
<ellipse fill="#fdb462" stroke="black" cx="681" cy="-66.8" rx="74.16" ry="18"/>
<text text-anchor="middle" x="681" y="-62.6" font-family="Times,serif" font-size="14.00">FileRecordRepo</text>
</g>
<!-- FileRecordRepo&#45;&gt;FilesStorageTestModule -->
<g id="edge5" class="edge">
<title>FileRecordRepo&#45;&gt;FilesStorageTestModule</title>
<path fill="none" stroke="black" d="M681,-84.91C681,-84.91 681,-103.79 681,-103.79"/>
<polygon fill="black" stroke="black" points="677.5,-103.79 681,-113.79 684.5,-103.79 677.5,-103.79"/>
</g>
<!-- FileRecordUC -->
<g id="node7" class="node">
<title>FileRecordUC</title>
<ellipse fill="#fdb462" stroke="black" cx="521" cy="-66.8" rx="67.22" ry="18"/>
<text text-anchor="middle" x="521" y="-62.6" font-family="Times,serif" font-size="14.00">FileRecordUC</text>
</g>
<!-- FileRecordUC&#45;&gt;FilesStorageTestModule -->
<g id="edge6" class="edge">
<title>FileRecordUC&#45;&gt;FilesStorageTestModule</title>
<path fill="none" stroke="black" d="M521,-84.81C521,-100.85 521,-121.8 521,-121.8 521,-121.8 594.28,-121.8 594.28,-121.8"/>
<polygon fill="black" stroke="black" points="594.28,-125.3 604.28,-121.8 594.28,-118.3 594.28,-125.3"/>
</g>
<!-- FilesStorageUC -->
<g id="node8" class="node">
<title>FilesStorageUC</title>
<ellipse fill="#fdb462" stroke="black" cx="363" cy="-66.8" rx="72.96" ry="18"/>
<text text-anchor="middle" x="363" y="-62.6" font-family="Times,serif" font-size="14.00">FilesStorageUC</text>
</g>
<!-- FilesStorageUC&#45;&gt;FilesStorageTestModule -->
<g id="edge7" class="edge">
<title>FilesStorageUC&#45;&gt;FilesStorageTestModule</title>
<path fill="none" stroke="black" d="M363,-85.07C363,-103.36 363,-128.8 363,-128.8 363,-128.8 594.02,-128.8 594.02,-128.8"/>
<polygon fill="black" stroke="black" points="594.02,-132.3 604.02,-128.8 594.02,-125.3 594.02,-132.3"/>
</g>
<!-- Logger -->
<g id="node9" class="node">
<title>Logger</title>
<ellipse fill="#fdb462" stroke="black" cx="233" cy="-66.8" rx="38.85" ry="18"/>
<text text-anchor="middle" x="233" y="-62.6" font-family="Times,serif" font-size="14.00">Logger</text>
</g>
<!-- Logger&#45;&gt;FilesStorageTestModule -->
<g id="edge8" class="edge">
<title>Logger&#45;&gt;FilesStorageTestModule</title>
<path fill="none" stroke="black" d="M233,-84.93C233,-105.37 233,-135.8 233,-135.8 233,-135.8 594.24,-135.8 594.24,-135.8"/>
<polygon fill="black" stroke="black" points="594.24,-139.3 604.24,-135.8 594.24,-132.3 594.24,-139.3"/>
</g>
<!-- S3ClientAdapter -->
<g id="node10" class="node">
<title>S3ClientAdapter</title>
<ellipse fill="#fdb462" stroke="black" cx="100" cy="-66.8" rx="75.89" ry="18"/>
<text text-anchor="middle" x="100" y="-62.6" font-family="Times,serif" font-size="14.00">S3ClientAdapter</text>
</g>
<!-- S3ClientAdapter&#45;&gt;FilesStorageTestModule -->
<g id="edge9" class="edge">
<title>S3ClientAdapter&#45;&gt;FilesStorageTestModule</title>
<path fill="none" stroke="black" d="M100,-84.81C100,-107.29 100,-142.8 100,-142.8 100,-142.8 594.15,-142.8 594.15,-142.8"/>
<polygon fill="black" stroke="black" points="594.15,-146.3 604.15,-142.8 594.15,-139.3 594.15,-146.3"/>
</g>
</g>
</svg>
