<?xml version="1.0" encoding="UTF-8" standalone="no"?>
<!DOCTYPE svg PUBLIC "-//W3C//DTD SVG 1.1//EN"
 "http://www.w3.org/Graphics/SVG/1.1/DTD/svg11.dtd">
<!-- Generated by graphviz version 2.47.3 (20210619.1520)
 -->
<!-- Title: dependencies Pages: 1 -->
<svg width="986pt" height="174pt"
 viewBox="0.00 0.00 986.00 173.80" xmlns="http://www.w3.org/2000/svg" xmlns:xlink="http://www.w3.org/1999/xlink">
<g id="graph0" class="graph" transform="scale(1 1) rotate(0) translate(4 169.8)">
<title>dependencies</title>
<polygon fill="white" stroke="transparent" points="-4,4 -4,-169.8 982,-169.8 982,4 -4,4"/>
<text text-anchor="middle" x="489" y="-8.2" font-family="sans-serif" font-size="14.00">dependencies</text>
<g id="clust1" class="cluster">
<title>cluster_FilesStorageTestModule</title>
<polygon fill="none" stroke="black" stroke-dasharray="1,5" points="8,-32.8 8,-157.8 970,-157.8 970,-32.8 8,-32.8"/>
</g>
<g id="clust6" class="cluster">
<title>cluster_FilesStorageTestModule_providers</title>
<polygon fill="none" stroke="black" points="464,-40.8 464,-92.8 962,-92.8 962,-40.8 464,-40.8"/>
</g>
<g id="clust3" class="cluster">
<title>cluster_FilesStorageTestModule_imports</title>
<polygon fill="none" stroke="black" points="16,-40.8 16,-92.8 456,-92.8 456,-40.8 16,-40.8"/>
</g>
<!-- AuthModule -->
<g id="node1" class="node">
<title>AuthModule</title>
<polygon fill="#8dd3c7" stroke="black" points="447.55,-84.8 444.55,-88.8 423.55,-88.8 420.55,-84.8 360.45,-84.8 360.45,-48.8 447.55,-48.8 447.55,-84.8"/>
<text text-anchor="middle" x="404" y="-62.6" font-family="Times,serif" font-size="14.00">AuthModule</text>
</g>
<!-- FilesStorageTestModule -->
<g id="node4" class="node">
<title>FilesStorageTestModule</title>
<polygon fill="#8dd3c7" stroke="black" points="552.64,-149.8 549.64,-153.8 528.64,-153.8 525.64,-149.8 399.36,-149.8 399.36,-113.8 552.64,-113.8 552.64,-149.8"/>
<text text-anchor="middle" x="476" y="-127.6" font-family="Times,serif" font-size="14.00">FilesStorageTestModule</text>
</g>
<!-- AuthModule&#45;&gt;FilesStorageTestModule -->
<g id="edge1" class="edge">
<title>AuthModule&#45;&gt;FilesStorageTestModule</title>
<path fill="none" stroke="black" d="M423.48,-84.91C423.48,-84.91 423.48,-103.79 423.48,-103.79"/>
<polygon fill="black" stroke="black" points="419.98,-103.79 423.48,-113.79 426.98,-103.79 419.98,-103.79"/>
</g>
<!-- LoggerModule -->
<g id="node2" class="node">
<title>LoggerModule</title>
<polygon fill="#8dd3c7" stroke="black" points="341.98,-84.8 338.98,-88.8 317.98,-88.8 314.98,-84.8 242.02,-84.8 242.02,-48.8 341.98,-48.8 341.98,-84.8"/>
<text text-anchor="middle" x="292" y="-62.6" font-family="Times,serif" font-size="14.00">LoggerModule</text>
</g>
<!-- LoggerModule&#45;&gt;FilesStorageTestModule -->
<g id="edge2" class="edge">
<title>LoggerModule&#45;&gt;FilesStorageTestModule</title>
<path fill="none" stroke="black" d="M292,-84.82C292,-102.17 292,-125.8 292,-125.8 292,-125.8 389.3,-125.8 389.3,-125.8"/>
<polygon fill="black" stroke="black" points="389.3,-129.3 399.3,-125.8 389.3,-122.3 389.3,-129.3"/>
</g>
<!-- MongoMemoryDatabaseModule -->
<g id="node3" class="node">
<title>MongoMemoryDatabaseModule</title>
<polygon fill="#8dd3c7" stroke="black" points="223.51,-84.8 220.51,-88.8 199.51,-88.8 196.51,-84.8 24.49,-84.8 24.49,-48.8 223.51,-48.8 223.51,-84.8"/>
<text text-anchor="middle" x="124" y="-62.6" font-family="Times,serif" font-size="14.00">MongoMemoryDatabaseModule</text>
</g>
<!-- MongoMemoryDatabaseModule&#45;&gt;FilesStorageTestModule -->
<g id="edge3" class="edge">
<title>MongoMemoryDatabaseModule&#45;&gt;FilesStorageTestModule</title>
<path fill="none" stroke="black" d="M124,-85.08C124,-106.12 124,-137.8 124,-137.8 124,-137.8 389.19,-137.8 389.19,-137.8"/>
<polygon fill="black" stroke="black" points="389.19,-141.3 399.19,-137.8 389.19,-134.3 389.19,-141.3"/>
</g>
<!-- FileRecordRepo -->
<g id="node5" class="node">
<title>FileRecordRepo</title>
<ellipse fill="#fdb462" stroke="black" cx="880" cy="-66.8" rx="74.16" ry="18"/>
<text text-anchor="middle" x="880" y="-62.6" font-family="Times,serif" font-size="14.00">FileRecordRepo</text>
</g>
<!-- FileRecordRepo&#45;&gt;FilesStorageTestModule -->
<g id="edge4" class="edge">
<title>FileRecordRepo&#45;&gt;FilesStorageTestModule</title>
<path fill="none" stroke="black" d="M880,-85.08C880,-106.12 880,-137.8 880,-137.8 880,-137.8 562.94,-137.8 562.94,-137.8"/>
<polygon fill="black" stroke="black" points="562.94,-134.3 552.94,-137.8 562.94,-141.3 562.94,-134.3"/>
</g>
<!-- FilesStorageUC -->
<g id="node6" class="node">
<title>FilesStorageUC</title>
<ellipse fill="#fdb462" stroke="black" cx="715" cy="-66.8" rx="72.95" ry="18"/>
<text text-anchor="middle" x="715" y="-62.6" font-family="Times,serif" font-size="14.00">FilesStorageUC</text>
</g>
<!-- FilesStorageUC&#45;&gt;FilesStorageTestModule -->
<g id="edge5" class="edge">
<title>FilesStorageUC&#45;&gt;FilesStorageTestModule</title>
<path fill="none" stroke="black" d="M715,-84.82C715,-102.17 715,-125.8 715,-125.8 715,-125.8 562.94,-125.8 562.94,-125.8"/>
<polygon fill="black" stroke="black" points="562.94,-122.3 552.94,-125.8 562.94,-129.3 562.94,-122.3"/>
</g>
<!-- S3ClientAdapter -->
<g id="node7" class="node">
<title>S3ClientAdapter</title>
<ellipse fill="#fdb462" stroke="black" cx="548" cy="-66.8" rx="75.88" ry="18"/>
<text text-anchor="middle" x="548" y="-62.6" font-family="Times,serif" font-size="14.00">S3ClientAdapter</text>
</g>
<!-- S3ClientAdapter&#45;&gt;FilesStorageTestModule -->
<g id="edge6" class="edge">
<title>S3ClientAdapter&#45;&gt;FilesStorageTestModule</title>
<path fill="none" stroke="black" d="M512.44,-82.87C512.44,-82.87 512.44,-103.62 512.44,-103.62"/>
<polygon fill="black" stroke="black" points="508.94,-103.62 512.44,-113.62 515.94,-103.62 508.94,-103.62"/>
</g>
</g>
</svg>
