<?xml version="1.0" encoding="UTF-8" standalone="no"?>
<!DOCTYPE svg PUBLIC "-//W3C//DTD SVG 1.1//EN"
 "http://www.w3.org/Graphics/SVG/1.1/DTD/svg11.dtd">
<!-- Generated by graphviz version 2.47.3 (20210619.1520)
 -->
<!-- Title: dependencies Pages: 1 -->
<svg width="1335pt" height="174pt"
 viewBox="0.00 0.00 1335.00 173.80" xmlns="http://www.w3.org/2000/svg" xmlns:xlink="http://www.w3.org/1999/xlink">
<g id="graph0" class="graph" transform="scale(1 1) rotate(0) translate(4 169.8)">
<title>dependencies</title>
<polygon fill="white" stroke="transparent" points="-4,4 -4,-169.8 1331,-169.8 1331,4 -4,4"/>
<text text-anchor="middle" x="663.5" y="-8.2" font-family="sans-serif" font-size="14.00">dependencies</text>
<g id="clust1" class="cluster">
<title>cluster_FilesStorageTestModule</title>
<polygon fill="none" stroke="black" stroke-dasharray="1,5" points="8,-32.8 8,-157.8 1319,-157.8 1319,-32.8 8,-32.8"/>
</g>
<g id="clust3" class="cluster">
<title>cluster_FilesStorageTestModule_imports</title>
<polygon fill="none" stroke="black" points="675,-40.8 675,-92.8 1311,-92.8 1311,-40.8 675,-40.8"/>
</g>
<g id="clust6" class="cluster">
<title>cluster_FilesStorageTestModule_providers</title>
<polygon fill="none" stroke="black" points="16,-40.8 16,-92.8 667,-92.8 667,-40.8 16,-40.8"/>
</g>
<!-- AuthModule -->
<g id="node1" class="node">
<title>AuthModule</title>
<polygon fill="#8dd3c7" stroke="black" points="1302.55,-84.8 1299.55,-88.8 1278.55,-88.8 1275.55,-84.8 1215.45,-84.8 1215.45,-48.8 1302.55,-48.8 1302.55,-84.8"/>
<text text-anchor="middle" x="1259" y="-62.6" font-family="Times,serif" font-size="14.00">AuthModule</text>
</g>
<!-- FilesStorageTestModule -->
<g id="node5" class="node">
<title>FilesStorageTestModule</title>
<polygon fill="#8dd3c7" stroke="black" points="758.64,-149.8 755.64,-153.8 734.64,-153.8 731.64,-149.8 605.36,-149.8 605.36,-113.8 758.64,-113.8 758.64,-149.8"/>
<text text-anchor="middle" x="682" y="-127.6" font-family="Times,serif" font-size="14.00">FilesStorageTestModule</text>
</g>
<!-- AuthModule&#45;&gt;FilesStorageTestModule -->
<g id="edge1" class="edge">
<title>AuthModule&#45;&gt;FilesStorageTestModule</title>
<path fill="none" stroke="black" d="M1259,-85.09C1259,-107.01 1259,-140.8 1259,-140.8 1259,-140.8 768.92,-140.8 768.92,-140.8"/>
<polygon fill="black" stroke="black" points="768.92,-137.3 758.92,-140.8 768.92,-144.3 768.92,-137.3"/>
</g>
<!-- CoreModule -->
<g id="node2" class="node">
<title>CoreModule</title>
<polygon fill="#8dd3c7" stroke="black" points="1197.26,-84.8 1194.26,-88.8 1173.26,-88.8 1170.26,-84.8 1110.74,-84.8 1110.74,-48.8 1197.26,-48.8 1197.26,-84.8"/>
<text text-anchor="middle" x="1154" y="-62.6" font-family="Times,serif" font-size="14.00">CoreModule</text>
</g>
<!-- CoreModule&#45;&gt;FilesStorageTestModule -->
<g id="edge2" class="edge">
<title>CoreModule&#45;&gt;FilesStorageTestModule</title>
<path fill="none" stroke="black" d="M1154,-84.91C1154,-104.14 1154,-131.8 1154,-131.8 1154,-131.8 768.89,-131.8 768.89,-131.8"/>
<polygon fill="black" stroke="black" points="768.89,-128.3 758.89,-131.8 768.89,-135.3 768.89,-128.3"/>
</g>
<!-- MongoMemoryDatabaseModule -->
<g id="node3" class="node">
<title>MongoMemoryDatabaseModule</title>
<polygon fill="#8dd3c7" stroke="black" points="1092.51,-84.8 1089.51,-88.8 1068.51,-88.8 1065.51,-84.8 893.49,-84.8 893.49,-48.8 1092.51,-48.8 1092.51,-84.8"/>
<text text-anchor="middle" x="993" y="-62.6" font-family="Times,serif" font-size="14.00">MongoMemoryDatabaseModule</text>
</g>
<!-- MongoMemoryDatabaseModule&#45;&gt;FilesStorageTestModule -->
<g id="edge3" class="edge">
<title>MongoMemoryDatabaseModule&#45;&gt;FilesStorageTestModule</title>
<path fill="none" stroke="black" d="M993,-84.83C993,-101.2 993,-122.8 993,-122.8 993,-122.8 768.88,-122.8 768.88,-122.8"/>
<polygon fill="black" stroke="black" points="768.88,-119.3 758.88,-122.8 768.88,-126.3 768.88,-119.3"/>
</g>
<!-- RabbitMQWrapperTestModule -->
<g id="node4" class="node">
<title>RabbitMQWrapperTestModule</title>
<polygon fill="#8dd3c7" stroke="black" points="875,-84.8 872,-88.8 851,-88.8 848,-84.8 683,-84.8 683,-48.8 875,-48.8 875,-84.8"/>
<text text-anchor="middle" x="779" y="-62.6" font-family="Times,serif" font-size="14.00">RabbitMQWrapperTestModule</text>
</g>
<!-- RabbitMQWrapperTestModule&#45;&gt;FilesStorageTestModule -->
<g id="edge4" class="edge">
<title>RabbitMQWrapperTestModule&#45;&gt;FilesStorageTestModule</title>
<path fill="none" stroke="black" d="M720.78,-84.91C720.78,-84.91 720.78,-103.79 720.78,-103.79"/>
<polygon fill="black" stroke="black" points="717.28,-103.79 720.78,-113.79 724.28,-103.79 717.28,-103.79"/>
</g>
<!-- FileRecordRepo -->
<g id="node6" class="node">
<title>FileRecordRepo</title>
<ellipse fill="#fdb462" stroke="black" cx="585" cy="-66.8" rx="74.16" ry="18"/>
<text text-anchor="middle" x="585" y="-62.6" font-family="Times,serif" font-size="14.00">FileRecordRepo</text>
</g>
<!-- FileRecordRepo&#45;&gt;FilesStorageTestModule -->
<g id="edge5" class="edge">
<title>FileRecordRepo&#45;&gt;FilesStorageTestModule</title>
<path fill="none" stroke="black" d="M632.25,-80.9C632.25,-80.9 632.25,-103.52 632.25,-103.52"/>
<polygon fill="black" stroke="black" points="628.75,-103.52 632.25,-113.52 635.75,-103.52 628.75,-103.52"/>
</g>
<!-- FileRecordUC -->
<g id="node7" class="node">
<title>FileRecordUC</title>
<ellipse fill="#fdb462" stroke="black" cx="425" cy="-66.8" rx="67.21" ry="18"/>
<text text-anchor="middle" x="425" y="-62.6" font-family="Times,serif" font-size="14.00">FileRecordUC</text>
</g>
<!-- FileRecordUC&#45;&gt;FilesStorageTestModule -->
<g id="edge6" class="edge">
<title>FileRecordUC&#45;&gt;FilesStorageTestModule</title>
<path fill="none" stroke="black" d="M425,-84.83C425,-101.2 425,-122.8 425,-122.8 425,-122.8 595.24,-122.8 595.24,-122.8"/>
<polygon fill="black" stroke="black" points="595.24,-126.3 605.24,-122.8 595.24,-119.3 595.24,-126.3"/>
</g>
<!-- FilesStorageUC -->
<g id="node8" class="node">
<title>FilesStorageUC</title>
<ellipse fill="#fdb462" stroke="black" cx="267" cy="-66.8" rx="72.95" ry="18"/>
<text text-anchor="middle" x="267" y="-62.6" font-family="Times,serif" font-size="14.00">FilesStorageUC</text>
</g>
<!-- FilesStorageUC&#45;&gt;FilesStorageTestModule -->
<g id="edge7" class="edge">
<title>FilesStorageUC&#45;&gt;FilesStorageTestModule</title>
<path fill="none" stroke="black" d="M267,-84.91C267,-104.14 267,-131.8 267,-131.8 267,-131.8 594.91,-131.8 594.91,-131.8"/>
<polygon fill="black" stroke="black" points="594.91,-135.3 604.91,-131.8 594.91,-128.3 594.91,-135.3"/>
</g>
<!-- S3ClientAdapter -->
<g id="node9" class="node">
<title>S3ClientAdapter</title>
<ellipse fill="#fdb462" stroke="black" cx="100" cy="-66.8" rx="75.88" ry="18"/>
<text text-anchor="middle" x="100" y="-62.6" font-family="Times,serif" font-size="14.00">S3ClientAdapter</text>
</g>
<!-- S3ClientAdapter&#45;&gt;FilesStorageTestModule -->
<g id="edge8" class="edge">
<title>S3ClientAdapter&#45;&gt;FilesStorageTestModule</title>
<path fill="none" stroke="black" d="M100,-85.09C100,-107.01 100,-140.8 100,-140.8 100,-140.8 595.32,-140.8 595.32,-140.8"/>
<polygon fill="black" stroke="black" points="595.32,-144.3 605.32,-140.8 595.32,-137.3 595.32,-144.3"/>
</g>
</g>
</svg>
