<?xml version="1.0" encoding="UTF-8" standalone="no"?>
<!DOCTYPE svg PUBLIC "-//W3C//DTD SVG 1.1//EN"
 "http://www.w3.org/Graphics/SVG/1.1/DTD/svg11.dtd">
<!-- Generated by graphviz version 2.47.3 (20210619.1520)
 -->
<!-- Title: dependencies Pages: 1 -->
<svg width="972pt" height="174pt"
 viewBox="0.00 0.00 972.00 173.80" xmlns="http://www.w3.org/2000/svg" xmlns:xlink="http://www.w3.org/1999/xlink">
<g id="graph0" class="graph" transform="scale(1 1) rotate(0) translate(4 169.8)">
<title>dependencies</title>
<polygon fill="white" stroke="transparent" points="-4,4 -4,-169.8 968,-169.8 968,4 -4,4"/>
<text text-anchor="middle" x="482" y="-8.2" font-family="sans-serif" font-size="14.00">dependencies</text>
<g id="clust1" class="cluster">
<title>cluster_FilesStorageTestModule</title>
<polygon fill="none" stroke="black" stroke-dasharray="1,5" points="8,-32.8 8,-157.8 956,-157.8 956,-32.8 8,-32.8"/>
</g>
<g id="clust3" class="cluster">
<title>cluster_FilesStorageTestModule_imports</title>
<polygon fill="none" stroke="black" points="522,-40.8 522,-92.8 948,-92.8 948,-40.8 522,-40.8"/>
</g>
<g id="clust6" class="cluster">
<title>cluster_FilesStorageTestModule_providers</title>
<polygon fill="none" stroke="black" points="16,-40.8 16,-92.8 514,-92.8 514,-40.8 16,-40.8"/>
</g>
<!-- AuthModule -->
<g id="node1" class="node">
<title>AuthModule</title>
<polygon fill="#8dd3c7" stroke="black" points="939.55,-84.8 936.55,-88.8 915.55,-88.8 912.55,-84.8 852.45,-84.8 852.45,-48.8 939.55,-48.8 939.55,-84.8"/>
<text text-anchor="middle" x="896" y="-62.6" font-family="Times,serif" font-size="14.00">AuthModule</text>
</g>
<!-- FilesStorageTestModule -->
<g id="node4" class="node">
<title>FilesStorageTestModule</title>
<polygon fill="#8dd3c7" stroke="black" points="607.64,-149.8 604.64,-153.8 583.64,-153.8 580.64,-149.8 454.36,-149.8 454.36,-113.8 607.64,-113.8 607.64,-149.8"/>
<text text-anchor="middle" x="531" y="-127.6" font-family="Times,serif" font-size="14.00">FilesStorageTestModule</text>
</g>
<!-- AuthModule&#45;&gt;FilesStorageTestModule -->
<g id="edge1" class="edge">
<title>AuthModule&#45;&gt;FilesStorageTestModule</title>
<path fill="none" stroke="black" d="M896,-85.08C896,-106.12 896,-137.8 896,-137.8 896,-137.8 617.96,-137.8 617.96,-137.8"/>
<polygon fill="black" stroke="black" points="617.96,-134.3 607.96,-137.8 617.96,-141.3 617.96,-134.3"/>
</g>
<!-- CoreModule -->
<g id="node2" class="node">
<title>CoreModule</title>
<polygon fill="#8dd3c7" stroke="black" points="834.26,-84.8 831.26,-88.8 810.26,-88.8 807.26,-84.8 747.74,-84.8 747.74,-48.8 834.26,-48.8 834.26,-84.8"/>
<text text-anchor="middle" x="791" y="-62.6" font-family="Times,serif" font-size="14.00">CoreModule</text>
</g>
<!-- CoreModule&#45;&gt;FilesStorageTestModule -->
<g id="edge2" class="edge">
<title>CoreModule&#45;&gt;FilesStorageTestModule</title>
<path fill="none" stroke="black" d="M791,-84.82C791,-102.17 791,-125.8 791,-125.8 791,-125.8 617.95,-125.8 617.95,-125.8"/>
<polygon fill="black" stroke="black" points="617.95,-122.3 607.95,-125.8 617.95,-129.3 617.95,-122.3"/>
</g>
<!-- MongoMemoryDatabaseModule -->
<g id="node3" class="node">
<title>MongoMemoryDatabaseModule</title>
<polygon fill="#8dd3c7" stroke="black" points="729.51,-84.8 726.51,-88.8 705.51,-88.8 702.51,-84.8 530.49,-84.8 530.49,-48.8 729.51,-48.8 729.51,-84.8"/>
<text text-anchor="middle" x="630" y="-62.6" font-family="Times,serif" font-size="14.00">MongoMemoryDatabaseModule</text>
</g>
<!-- MongoMemoryDatabaseModule&#45;&gt;FilesStorageTestModule -->
<g id="edge3" class="edge">
<title>MongoMemoryDatabaseModule&#45;&gt;FilesStorageTestModule</title>
<path fill="none" stroke="black" d="M569.03,-84.91C569.03,-84.91 569.03,-103.79 569.03,-103.79"/>
<polygon fill="black" stroke="black" points="565.53,-103.79 569.03,-113.79 572.53,-103.79 565.53,-103.79"/>
</g>
<!-- FileRecordRepo -->
<g id="node5" class="node">
<title>FileRecordRepo</title>
<ellipse fill="#fdb462" stroke="black" cx="432" cy="-66.8" rx="74.16" ry="18"/>
<text text-anchor="middle" x="432" y="-62.6" font-family="Times,serif" font-size="14.00">FileRecordRepo</text>
</g>
<!-- FileRecordRepo&#45;&gt;FilesStorageTestModule -->
<g id="edge4" class="edge">
<title>FileRecordRepo&#45;&gt;FilesStorageTestModule</title>
<path fill="none" stroke="black" d="M480.25,-80.58C480.25,-80.58 480.25,-103.35 480.25,-103.35"/>
<polygon fill="black" stroke="black" points="476.75,-103.35 480.25,-113.35 483.75,-103.35 476.75,-103.35"/>
</g>
<!-- FilesStorageUC -->
<g id="node6" class="node">
<title>FilesStorageUC</title>
<ellipse fill="#fdb462" stroke="black" cx="267" cy="-66.8" rx="72.95" ry="18"/>
<text text-anchor="middle" x="267" y="-62.6" font-family="Times,serif" font-size="14.00">FilesStorageUC</text>
</g>
<!-- FilesStorageUC&#45;&gt;FilesStorageTestModule -->
<g id="edge5" class="edge">
<title>FilesStorageUC&#45;&gt;FilesStorageTestModule</title>
<path fill="none" stroke="black" d="M267,-84.82C267,-102.17 267,-125.8 267,-125.8 267,-125.8 444.29,-125.8 444.29,-125.8"/>
<polygon fill="black" stroke="black" points="444.29,-129.3 454.29,-125.8 444.29,-122.3 444.29,-129.3"/>
</g>
<!-- S3ClientAdapter -->
<g id="node7" class="node">
<title>S3ClientAdapter</title>
<ellipse fill="#fdb462" stroke="black" cx="100" cy="-66.8" rx="75.88" ry="18"/>
<text text-anchor="middle" x="100" y="-62.6" font-family="Times,serif" font-size="14.00">S3ClientAdapter</text>
</g>
<!-- S3ClientAdapter&#45;&gt;FilesStorageTestModule -->
<g id="edge6" class="edge">
<title>S3ClientAdapter&#45;&gt;FilesStorageTestModule</title>
<path fill="none" stroke="black" d="M100,-85.08C100,-106.12 100,-137.8 100,-137.8 100,-137.8 443.95,-137.8 443.95,-137.8"/>
<polygon fill="black" stroke="black" points="443.95,-141.3 453.95,-137.8 443.95,-134.3 443.95,-141.3"/>
</g>
</g>
</svg>
