<?xml version="1.0" encoding="UTF-8" standalone="no"?>
<!DOCTYPE svg PUBLIC "-//W3C//DTD SVG 1.1//EN"
 "http://www.w3.org/Graphics/SVG/1.1/DTD/svg11.dtd">
<!-- Generated by graphviz version 5.0.0 (20220707.1540)
 -->
<!-- Title: dependencies Pages: 1 -->
<svg width="1586pt" height="174pt"
 viewBox="0.00 0.00 1586.00 173.80" xmlns="http://www.w3.org/2000/svg" xmlns:xlink="http://www.w3.org/1999/xlink">
<g id="graph0" class="graph" transform="scale(1 1) rotate(0) translate(4 169.8)">
<title>dependencies</title>
<polygon fill="white" stroke="transparent" points="-4,4 -4,-169.8 1582,-169.8 1582,4 -4,4"/>
<text text-anchor="middle" x="789" y="-8.2" font-family="sans-serif" font-size="14.00">dependencies</text>
<g id="clust1" class="cluster">
<title>cluster_FilesStorageTestModule</title>
<polygon fill="none" stroke="black" stroke-dasharray="1,5" points="8,-32.8 8,-157.8 1570,-157.8 1570,-32.8 8,-32.8"/>
</g>
<g id="clust6" class="cluster">
<title>cluster_FilesStorageTestModule_providers</title>
<polygon fill="none" stroke="black" points="815,-40.8 815,-92.8 1562,-92.8 1562,-40.8 815,-40.8"/>
</g>
<g id="clust3" class="cluster">
<title>cluster_FilesStorageTestModule_imports</title>
<polygon fill="none" stroke="black" points="16,-40.8 16,-92.8 807,-92.8 807,-40.8 16,-40.8"/>
</g>
<!-- AuthModule -->
<g id="node1" class="node">
<title>AuthModule</title>
<polygon fill="#8dd3c7" stroke="black" points="798.55,-84.8 795.55,-88.8 774.55,-88.8 771.55,-84.8 711.45,-84.8 711.45,-48.8 798.55,-48.8 798.55,-84.8"/>
<text text-anchor="middle" x="755" y="-62.6" font-family="Times,serif" font-size="14.00">AuthModule</text>
</g>
<!-- FilesStorageTestModule -->
<g id="node6" class="node">
<title>FilesStorageTestModule</title>
<polygon fill="#8dd3c7" stroke="black" points="903.65,-149.8 900.65,-153.8 879.65,-153.8 876.65,-149.8 750.35,-149.8 750.35,-113.8 903.65,-113.8 903.65,-149.8"/>
<text text-anchor="middle" x="827" y="-127.6" font-family="Times,serif" font-size="14.00">FilesStorageTestModule</text>
</g>
<!-- AuthModule&#45;&gt;FilesStorageTestModule -->
<g id="edge1" class="edge">
<title>AuthModule&#45;&gt;FilesStorageTestModule</title>
<path fill="none" stroke="black" d="M774.48,-84.91C774.48,-84.91 774.48,-103.79 774.48,-103.79"/>
<polygon fill="black" stroke="black" points="770.98,-103.79 774.48,-113.79 777.98,-103.79 770.98,-103.79"/>
</g>
<!-- AuthorizationModule -->
<g id="node2" class="node">
<title>AuthorizationModule</title>
<polygon fill="#8dd3c7" stroke="black" points="693.81,-84.8 690.81,-88.8 669.81,-88.8 666.81,-84.8 556.19,-84.8 556.19,-48.8 693.81,-48.8 693.81,-84.8"/>
<text text-anchor="middle" x="625" y="-62.6" font-family="Times,serif" font-size="14.00">AuthorizationModule</text>
</g>
<!-- AuthorizationModule&#45;&gt;FilesStorageTestModule -->
<g id="edge2" class="edge">
<title>AuthorizationModule&#45;&gt;FilesStorageTestModule</title>
<path fill="none" stroke="black" d="M625,-84.81C625,-100.85 625,-121.8 625,-121.8 625,-121.8 740.34,-121.8 740.34,-121.8"/>
<polygon fill="black" stroke="black" points="740.34,-125.3 750.34,-121.8 740.34,-118.3 740.34,-125.3"/>
</g>
<!-- CoreModule -->
<g id="node3" class="node">
<title>CoreModule</title>
<polygon fill="#8dd3c7" stroke="black" points="538.27,-84.8 535.27,-88.8 514.27,-88.8 511.27,-84.8 451.73,-84.8 451.73,-48.8 538.27,-48.8 538.27,-84.8"/>
<text text-anchor="middle" x="495" y="-62.6" font-family="Times,serif" font-size="14.00">CoreModule</text>
</g>
<!-- CoreModule&#45;&gt;FilesStorageTestModule -->
<g id="edge3" class="edge">
<title>CoreModule&#45;&gt;FilesStorageTestModule</title>
<path fill="none" stroke="black" d="M495,-85.07C495,-103.36 495,-128.8 495,-128.8 495,-128.8 740,-128.8 740,-128.8"/>
<polygon fill="black" stroke="black" points="740,-132.3 750,-128.8 740,-125.3 740,-132.3"/>
</g>
<!-- MongoMemoryDatabaseModule -->
<g id="node4" class="node">
<title>MongoMemoryDatabaseModule</title>
<polygon fill="#8dd3c7" stroke="black" points="433.52,-84.8 430.52,-88.8 409.52,-88.8 406.52,-84.8 234.48,-84.8 234.48,-48.8 433.52,-48.8 433.52,-84.8"/>
<text text-anchor="middle" x="334" y="-62.6" font-family="Times,serif" font-size="14.00">MongoMemoryDatabaseModule</text>
</g>
<!-- MongoMemoryDatabaseModule&#45;&gt;FilesStorageTestModule -->
<g id="edge4" class="edge">
<title>MongoMemoryDatabaseModule&#45;&gt;FilesStorageTestModule</title>
<path fill="none" stroke="black" d="M334,-84.93C334,-105.37 334,-135.8 334,-135.8 334,-135.8 740.24,-135.8 740.24,-135.8"/>
<polygon fill="black" stroke="black" points="740.24,-139.3 750.24,-135.8 740.24,-132.3 740.24,-139.3"/>
</g>
<!-- RabbitMQWrapperTestModule -->
<g id="node5" class="node">
<title>RabbitMQWrapperTestModule</title>
<polygon fill="#8dd3c7" stroke="black" points="216.01,-84.8 213.01,-88.8 192.01,-88.8 189.01,-84.8 23.99,-84.8 23.99,-48.8 216.01,-48.8 216.01,-84.8"/>
<text text-anchor="middle" x="120" y="-62.6" font-family="Times,serif" font-size="14.00">RabbitMQWrapperTestModule</text>
</g>
<!-- RabbitMQWrapperTestModule&#45;&gt;FilesStorageTestModule -->
<g id="edge5" class="edge">
<title>RabbitMQWrapperTestModule&#45;&gt;FilesStorageTestModule</title>
<path fill="none" stroke="black" d="M120,-84.81C120,-107.29 120,-142.8 120,-142.8 120,-142.8 740.33,-142.8 740.33,-142.8"/>
<polygon fill="black" stroke="black" points="740.33,-146.3 750.33,-142.8 740.33,-139.3 740.33,-146.3"/>
</g>
<!-- FileRecordRepo -->
<g id="node7" class="node">
<title>FileRecordRepo</title>
<ellipse fill="#fdb462" stroke="black" cx="1480" cy="-66.8" rx="74.16" ry="18"/>
<text text-anchor="middle" x="1480" y="-62.6" font-family="Times,serif" font-size="14.00">FileRecordRepo</text>
</g>
<!-- FileRecordRepo&#45;&gt;FilesStorageTestModule -->
<g id="edge6" class="edge">
<title>FileRecordRepo&#45;&gt;FilesStorageTestModule</title>
<path fill="none" stroke="black" d="M1480,-84.81C1480,-107.29 1480,-142.8 1480,-142.8 1480,-142.8 913.83,-142.8 913.83,-142.8"/>
<polygon fill="black" stroke="black" points="913.83,-139.3 903.83,-142.8 913.83,-146.3 913.83,-139.3"/>
</g>
<!-- FileRecordUC -->
<g id="node8" class="node">
<title>FileRecordUC</title>
<ellipse fill="#fdb462" stroke="black" cx="1320" cy="-66.8" rx="67.22" ry="18"/>
<text text-anchor="middle" x="1320" y="-62.6" font-family="Times,serif" font-size="14.00">FileRecordUC</text>
</g>
<!-- FileRecordUC&#45;&gt;FilesStorageTestModule -->
<g id="edge7" class="edge">
<title>FileRecordUC&#45;&gt;FilesStorageTestModule</title>
<path fill="none" stroke="black" d="M1320,-84.93C1320,-105.37 1320,-135.8 1320,-135.8 1320,-135.8 913.76,-135.8 913.76,-135.8"/>
<polygon fill="black" stroke="black" points="913.76,-132.3 903.76,-135.8 913.76,-139.3 913.76,-132.3"/>
</g>
<!-- FilesStorageUC -->
<g id="node9" class="node">
<title>FilesStorageUC</title>
<ellipse fill="#fdb462" stroke="black" cx="1162" cy="-66.8" rx="72.96" ry="18"/>
<text text-anchor="middle" x="1162" y="-62.6" font-family="Times,serif" font-size="14.00">FilesStorageUC</text>
</g>
<!-- FilesStorageUC&#45;&gt;FilesStorageTestModule -->
<g id="edge8" class="edge">
<title>FilesStorageUC&#45;&gt;FilesStorageTestModule</title>
<path fill="none" stroke="black" d="M1162,-85.07C1162,-103.36 1162,-128.8 1162,-128.8 1162,-128.8 913.86,-128.8 913.86,-128.8"/>
<polygon fill="black" stroke="black" points="913.86,-125.3 903.86,-128.8 913.86,-132.3 913.86,-125.3"/>
</g>
<!-- Logger -->
<g id="node10" class="node">
<title>Logger</title>
<ellipse fill="#fdb462" stroke="black" cx="1032" cy="-66.8" rx="38.85" ry="18"/>
<text text-anchor="middle" x="1032" y="-62.6" font-family="Times,serif" font-size="14.00">Logger</text>
</g>
<!-- Logger&#45;&gt;FilesStorageTestModule -->
<g id="edge9" class="edge">
<title>Logger&#45;&gt;FilesStorageTestModule</title>
<path fill="none" stroke="black" d="M1032,-84.81C1032,-100.85 1032,-121.8 1032,-121.8 1032,-121.8 913.92,-121.8 913.92,-121.8"/>
<polygon fill="black" stroke="black" points="913.92,-118.3 903.92,-121.8 913.92,-125.3 913.92,-118.3"/>
</g>
<!-- S3ClientAdapter -->
<g id="node11" class="node">
<title>S3ClientAdapter</title>
<ellipse fill="#fdb462" stroke="black" cx="899" cy="-66.8" rx="75.89" ry="18"/>
<text text-anchor="middle" x="899" y="-62.6" font-family="Times,serif" font-size="14.00">S3ClientAdapter</text>
</g>
<!-- S3ClientAdapter&#45;&gt;FilesStorageTestModule -->
<g id="edge10" class="edge">
<title>S3ClientAdapter&#45;&gt;FilesStorageTestModule</title>
<path fill="none" stroke="black" d="M863.44,-82.87C863.44,-82.87 863.44,-103.62 863.44,-103.62"/>
<polygon fill="black" stroke="black" points="859.94,-103.62 863.44,-113.62 866.94,-103.62 859.94,-103.62"/>
</g>
</g>
</svg>
