<?xml version="1.0" encoding="UTF-8" standalone="no"?>
<!DOCTYPE svg PUBLIC "-//W3C//DTD SVG 1.1//EN"
 "http://www.w3.org/Graphics/SVG/1.1/DTD/svg11.dtd">
<!-- Generated by graphviz version 2.47.3 (20210619.1520)
 -->
<!-- Title: dependencies Pages: 1 -->
<svg width="1335pt" height="174pt"
 viewBox="0.00 0.00 1335.00 173.80" xmlns="http://www.w3.org/2000/svg" xmlns:xlink="http://www.w3.org/1999/xlink">
<g id="graph0" class="graph" transform="scale(1 1) rotate(0) translate(4 169.8)">
<title>dependencies</title>
<polygon fill="white" stroke="transparent" points="-4,4 -4,-169.8 1331,-169.8 1331,4 -4,4"/>
<text text-anchor="middle" x="663.5" y="-8.2" font-family="sans-serif" font-size="14.00">dependencies</text>
<g id="clust1" class="cluster">
<title>cluster_FilesStorageTestModule</title>
<polygon fill="none" stroke="black" stroke-dasharray="1,5" points="8,-32.8 8,-157.8 1319,-157.8 1319,-32.8 8,-32.8"/>
</g>
<g id="clust6" class="cluster">
<title>cluster_FilesStorageTestModule_providers</title>
<polygon fill="none" stroke="black" points="660,-40.8 660,-92.8 1311,-92.8 1311,-40.8 660,-40.8"/>
</g>
<g id="clust3" class="cluster">
<title>cluster_FilesStorageTestModule_imports</title>
<polygon fill="none" stroke="black" points="16,-40.8 16,-92.8 652,-92.8 652,-40.8 16,-40.8"/>
</g>
<!-- AuthModule -->
<g id="node1" class="node">
<title>AuthModule</title>
<polygon fill="#8dd3c7" stroke="black" points="643.55,-84.8 640.55,-88.8 619.55,-88.8 616.55,-84.8 556.45,-84.8 556.45,-48.8 643.55,-48.8 643.55,-84.8"/>
<text text-anchor="middle" x="600" y="-62.6" font-family="Times,serif" font-size="14.00">AuthModule</text>
</g>
<!-- FilesStorageTestModule -->
<g id="node5" class="node">
<title>FilesStorageTestModule</title>
<polygon fill="#8dd3c7" stroke="black" points="748.64,-149.8 745.64,-153.8 724.64,-153.8 721.64,-149.8 595.36,-149.8 595.36,-113.8 748.64,-113.8 748.64,-149.8"/>
<text text-anchor="middle" x="672" y="-127.6" font-family="Times,serif" font-size="14.00">FilesStorageTestModule</text>
</g>
<!-- AuthModule&#45;&gt;FilesStorageTestModule -->
<g id="edge1" class="edge">
<title>AuthModule&#45;&gt;FilesStorageTestModule</title>
<path fill="none" stroke="black" d="M619.48,-84.91C619.48,-84.91 619.48,-103.79 619.48,-103.79"/>
<polygon fill="black" stroke="black" points="615.98,-103.79 619.48,-113.79 622.98,-103.79 615.98,-103.79"/>
</g>
<!-- CoreModule -->
<g id="node2" class="node">
<title>CoreModule</title>
<polygon fill="#8dd3c7" stroke="black" points="538.26,-84.8 535.26,-88.8 514.26,-88.8 511.26,-84.8 451.74,-84.8 451.74,-48.8 538.26,-48.8 538.26,-84.8"/>
<text text-anchor="middle" x="495" y="-62.6" font-family="Times,serif" font-size="14.00">CoreModule</text>
</g>
<!-- CoreModule&#45;&gt;FilesStorageTestModule -->
<g id="edge2" class="edge">
<title>CoreModule&#45;&gt;FilesStorageTestModule</title>
<path fill="none" stroke="black" d="M495,-84.83C495,-101.2 495,-122.8 495,-122.8 495,-122.8 585.14,-122.8 585.14,-122.8"/>
<polygon fill="black" stroke="black" points="585.14,-126.3 595.14,-122.8 585.14,-119.3 585.14,-126.3"/>
</g>
<!-- MongoMemoryDatabaseModule -->
<g id="node3" class="node">
<title>MongoMemoryDatabaseModule</title>
<polygon fill="#8dd3c7" stroke="black" points="433.51,-84.8 430.51,-88.8 409.51,-88.8 406.51,-84.8 234.49,-84.8 234.49,-48.8 433.51,-48.8 433.51,-84.8"/>
<text text-anchor="middle" x="334" y="-62.6" font-family="Times,serif" font-size="14.00">MongoMemoryDatabaseModule</text>
</g>
<!-- MongoMemoryDatabaseModule&#45;&gt;FilesStorageTestModule -->
<g id="edge3" class="edge">
<title>MongoMemoryDatabaseModule&#45;&gt;FilesStorageTestModule</title>
<path fill="none" stroke="black" d="M334,-84.91C334,-104.14 334,-131.8 334,-131.8 334,-131.8 585.3,-131.8 585.3,-131.8"/>
<polygon fill="black" stroke="black" points="585.3,-135.3 595.3,-131.8 585.3,-128.3 585.3,-135.3"/>
</g>
<!-- RabbitMQWrapperTestModule -->
<g id="node4" class="node">
<title>RabbitMQWrapperTestModule</title>
<polygon fill="#8dd3c7" stroke="black" points="216,-84.8 213,-88.8 192,-88.8 189,-84.8 24,-84.8 24,-48.8 216,-48.8 216,-84.8"/>
<text text-anchor="middle" x="120" y="-62.6" font-family="Times,serif" font-size="14.00">RabbitMQWrapperTestModule</text>
</g>
<!-- RabbitMQWrapperTestModule&#45;&gt;FilesStorageTestModule -->
<g id="edge4" class="edge">
<title>RabbitMQWrapperTestModule&#45;&gt;FilesStorageTestModule</title>
<path fill="none" stroke="black" d="M120,-85.09C120,-107.01 120,-140.8 120,-140.8 120,-140.8 585.25,-140.8 585.25,-140.8"/>
<polygon fill="black" stroke="black" points="585.25,-144.3 595.25,-140.8 585.25,-137.3 585.25,-144.3"/>
</g>
<!-- FileRecordRepo -->
<g id="node6" class="node">
<title>FileRecordRepo</title>
<ellipse fill="#fdb462" stroke="black" cx="1229" cy="-66.8" rx="74.16" ry="18"/>
<text text-anchor="middle" x="1229" y="-62.6" font-family="Times,serif" font-size="14.00">FileRecordRepo</text>
</g>
<!-- FileRecordRepo&#45;&gt;FilesStorageTestModule -->
<g id="edge5" class="edge">
<title>FileRecordRepo&#45;&gt;FilesStorageTestModule</title>
<path fill="none" stroke="black" d="M1229,-85.09C1229,-107.01 1229,-140.8 1229,-140.8 1229,-140.8 758.86,-140.8 758.86,-140.8"/>
<polygon fill="black" stroke="black" points="758.86,-137.3 748.86,-140.8 758.86,-144.3 758.86,-137.3"/>
</g>
<!-- FileRecordUC -->
<g id="node7" class="node">
<title>FileRecordUC</title>
<ellipse fill="#fdb462" stroke="black" cx="1069" cy="-66.8" rx="67.21" ry="18"/>
<text text-anchor="middle" x="1069" y="-62.6" font-family="Times,serif" font-size="14.00">FileRecordUC</text>
</g>
<!-- FileRecordUC&#45;&gt;FilesStorageTestModule -->
<g id="edge6" class="edge">
<title>FileRecordUC&#45;&gt;FilesStorageTestModule</title>
<path fill="none" stroke="black" d="M1069,-84.91C1069,-104.14 1069,-131.8 1069,-131.8 1069,-131.8 759.02,-131.8 759.02,-131.8"/>
<polygon fill="black" stroke="black" points="759.02,-128.3 749.02,-131.8 759.02,-135.3 759.02,-128.3"/>
</g>
<!-- FilesStorageUC -->
<g id="node8" class="node">
<title>FilesStorageUC</title>
<ellipse fill="#fdb462" stroke="black" cx="911" cy="-66.8" rx="72.95" ry="18"/>
<text text-anchor="middle" x="911" y="-62.6" font-family="Times,serif" font-size="14.00">FilesStorageUC</text>
</g>
<!-- FilesStorageUC&#45;&gt;FilesStorageTestModule -->
<g id="edge7" class="edge">
<title>FilesStorageUC&#45;&gt;FilesStorageTestModule</title>
<path fill="none" stroke="black" d="M911,-84.83C911,-101.2 911,-122.8 911,-122.8 911,-122.8 758.94,-122.8 758.94,-122.8"/>
<polygon fill="black" stroke="black" points="758.94,-119.3 748.94,-122.8 758.94,-126.3 758.94,-119.3"/>
</g>
<!-- S3ClientAdapter -->
<g id="node9" class="node">
<title>S3ClientAdapter</title>
<ellipse fill="#fdb462" stroke="black" cx="744" cy="-66.8" rx="75.88" ry="18"/>
<text text-anchor="middle" x="744" y="-62.6" font-family="Times,serif" font-size="14.00">S3ClientAdapter</text>
</g>
<!-- S3ClientAdapter&#45;&gt;FilesStorageTestModule -->
<g id="edge8" class="edge">
<title>S3ClientAdapter&#45;&gt;FilesStorageTestModule</title>
<path fill="none" stroke="black" d="M708.44,-82.87C708.44,-82.87 708.44,-103.62 708.44,-103.62"/>
<polygon fill="black" stroke="black" points="704.94,-103.62 708.44,-113.62 711.94,-103.62 704.94,-103.62"/>
</g>
</g>
</svg>
