<?xml version="1.0" encoding="UTF-8" standalone="no"?>
<!DOCTYPE svg PUBLIC "-//W3C//DTD SVG 1.1//EN"
 "http://www.w3.org/Graphics/SVG/1.1/DTD/svg11.dtd">
<!-- Generated by graphviz version 5.0.0 (20220707.1540)
 -->
<!-- Title: dependencies Pages: 1 -->
<svg width="837pt" height="247pt"
 viewBox="0.00 0.00 837.00 246.80" xmlns="http://www.w3.org/2000/svg" xmlns:xlink="http://www.w3.org/1999/xlink">
<g id="graph0" class="graph" transform="scale(1 1) rotate(0) translate(4 242.8)">
<title>dependencies</title>
<polygon fill="white" stroke="transparent" points="-4,4 -4,-242.8 833,-242.8 833,4 -4,4"/>
<text text-anchor="middle" x="414.5" y="-8.2" font-family="sans-serif" font-size="14.00">dependencies</text>
<g id="clust1" class="cluster">
<title>cluster_UserMigrationModule</title>
<polygon fill="none" stroke="black" stroke-dasharray="1,5" points="8,-32.8 8,-230.8 821,-230.8 821,-32.8 8,-32.8"/>
</g>
<g id="clust3" class="cluster">
<title>cluster_UserMigrationModule_imports</title>
<polygon fill="none" stroke="black" points="234,-40.8 234,-92.8 813,-92.8 813,-40.8 234,-40.8"/>
</g>
<g id="clust4" class="cluster">
<title>cluster_UserMigrationModule_exports</title>
<polygon fill="none" stroke="black" points="375,-170.8 375,-222.8 535,-222.8 535,-170.8 375,-170.8"/>
</g>
<g id="clust6" class="cluster">
<title>cluster_UserMigrationModule_providers</title>
<polygon fill="none" stroke="black" points="16,-40.8 16,-92.8 226,-92.8 226,-40.8 16,-40.8"/>
</g>
<!-- AccountModule -->
<g id="node1" class="node">
<title>AccountModule</title>
<polygon fill="#8dd3c7" stroke="black" points="805.48,-84.8 802.48,-88.8 781.48,-88.8 778.48,-84.8 698.52,-84.8 698.52,-48.8 805.48,-48.8 805.48,-84.8"/>
<text text-anchor="middle" x="752" y="-62.6" font-family="Times,serif" font-size="14.00">AccountModule</text>
</g>
<!-- UserMigrationModule -->
<g id="node6" class="node">
<title>UserMigrationModule</title>
<polygon fill="#8dd3c7" stroke="black" points="525.98,-149.8 522.98,-153.8 501.98,-153.8 498.98,-149.8 384.02,-149.8 384.02,-113.8 525.98,-113.8 525.98,-149.8"/>
<text text-anchor="middle" x="455" y="-127.6" font-family="Times,serif" font-size="14.00">UserMigrationModule</text>
</g>
<!-- AccountModule&#45;&gt;UserMigrationModule -->
<g id="edge1" class="edge">
<title>AccountModule&#45;&gt;UserMigrationModule</title>
<path fill="none" stroke="black" d="M752,-85.08C752,-106.12 752,-137.8 752,-137.8 752,-137.8 536.14,-137.8 536.14,-137.8"/>
<polygon fill="black" stroke="black" points="536.14,-134.3 526.14,-137.8 536.14,-141.3 536.14,-134.3"/>
</g>
<!-- LoggerModule -->
<g id="node2" class="node">
<title>LoggerModule</title>
<polygon fill="#8dd3c7" stroke="black" points="680.98,-84.8 677.98,-88.8 656.98,-88.8 653.98,-84.8 581.02,-84.8 581.02,-48.8 680.98,-48.8 680.98,-84.8"/>
<text text-anchor="middle" x="631" y="-62.6" font-family="Times,serif" font-size="14.00">LoggerModule</text>
</g>
<!-- LoggerModule&#45;&gt;UserMigrationModule -->
<g id="edge2" class="edge">
<title>LoggerModule&#45;&gt;UserMigrationModule</title>
<path fill="none" stroke="black" d="M631,-84.82C631,-102.17 631,-125.8 631,-125.8 631,-125.8 536.08,-125.8 536.08,-125.8"/>
<polygon fill="black" stroke="black" points="536.08,-122.3 526.08,-125.8 536.08,-129.3 536.08,-122.3"/>
</g>
<!-- SchoolModule -->
<g id="node3" class="node">
<title>SchoolModule</title>
<polygon fill="#8dd3c7" stroke="black" points="563.44,-84.8 560.44,-88.8 539.44,-88.8 536.44,-84.8 464.56,-84.8 464.56,-48.8 563.44,-48.8 563.44,-84.8"/>
<text text-anchor="middle" x="514" y="-62.6" font-family="Times,serif" font-size="14.00">SchoolModule</text>
</g>
<!-- SchoolModule&#45;&gt;UserMigrationModule -->
<g id="edge3" class="edge">
<title>SchoolModule&#45;&gt;UserMigrationModule</title>
<path fill="none" stroke="black" d="M495.38,-84.91C495.38,-84.91 495.38,-103.79 495.38,-103.79"/>
<polygon fill="black" stroke="black" points="491.88,-103.79 495.38,-113.79 498.88,-103.79 491.88,-103.79"/>
</g>
<!-- SystemModule -->
<g id="node4" class="node">
<title>SystemModule</title>
<polygon fill="#8dd3c7" stroke="black" points="446.28,-84.8 443.28,-88.8 422.28,-88.8 419.28,-84.8 345.72,-84.8 345.72,-48.8 446.28,-48.8 446.28,-84.8"/>
<text text-anchor="middle" x="396" y="-62.6" font-family="Times,serif" font-size="14.00">SystemModule</text>
</g>
<!-- SystemModule&#45;&gt;UserMigrationModule -->
<g id="edge4" class="edge">
<title>SystemModule&#45;&gt;UserMigrationModule</title>
<path fill="none" stroke="black" d="M415.2,-84.91C415.2,-84.91 415.2,-103.79 415.2,-103.79"/>
<polygon fill="black" stroke="black" points="411.7,-103.79 415.2,-113.79 418.7,-103.79 411.7,-103.79"/>
</g>
<!-- UserModule -->
<g id="node5" class="node">
<title>UserModule</title>
<polygon fill="#8dd3c7" stroke="black" points="327.99,-84.8 324.99,-88.8 303.99,-88.8 300.99,-84.8 242.01,-84.8 242.01,-48.8 327.99,-48.8 327.99,-84.8"/>
<text text-anchor="middle" x="285" y="-62.6" font-family="Times,serif" font-size="14.00">UserModule</text>
</g>
<!-- UserModule&#45;&gt;UserMigrationModule -->
<g id="edge5" class="edge">
<title>UserModule&#45;&gt;UserMigrationModule</title>
<path fill="none" stroke="black" d="M285,-84.82C285,-102.17 285,-125.8 285,-125.8 285,-125.8 373.89,-125.8 373.89,-125.8"/>
<polygon fill="black" stroke="black" points="373.89,-129.3 383.89,-125.8 373.89,-122.3 373.89,-129.3"/>
</g>
<!-- UserMigrationService  -->
<g id="node7" class="node">
<title>UserMigrationService </title>
<polygon fill="#fb8072" stroke="black" points="526.91,-214.8 383.09,-214.8 383.09,-178.8 526.91,-178.8 526.91,-214.8"/>
<text text-anchor="middle" x="455" y="-192.6" font-family="Times,serif" font-size="14.00">UserMigrationService </text>
</g>
<!-- UserMigrationModule&#45;&gt;UserMigrationService  -->
<g id="edge6" class="edge">
<title>UserMigrationModule&#45;&gt;UserMigrationService </title>
<path fill="none" stroke="black" stroke-dasharray="5,2" d="M455,-149.91C455,-149.91 455,-168.79 455,-168.79"/>
<polygon fill="black" stroke="black" points="451.5,-168.79 455,-178.79 458.5,-168.79 451.5,-168.79"/>
</g>
<!-- UserMigrationService -->
<g id="node8" class="node">
<title>UserMigrationService</title>
<ellipse fill="#fdb462" stroke="black" cx="121" cy="-66.8" rx="96.7" ry="18"/>
<text text-anchor="middle" x="121" y="-62.6" font-family="Times,serif" font-size="14.00">UserMigrationService</text>
</g>
<!-- UserMigrationService&#45;&gt;UserMigrationModule -->
<g id="edge7" class="edge">
<title>UserMigrationService&#45;&gt;UserMigrationModule</title>
<path fill="none" stroke="black" d="M121,-85.08C121,-106.12 121,-137.8 121,-137.8 121,-137.8 373.76,-137.8 373.76,-137.8"/>
<polygon fill="black" stroke="black" points="373.76,-141.3 383.76,-137.8 373.76,-134.3 373.76,-141.3"/>
</g>
</g>
</svg>
