<?xml version="1.0" encoding="UTF-8" standalone="no"?>
<!DOCTYPE svg PUBLIC "-//W3C//DTD SVG 1.1//EN"
 "http://www.w3.org/Graphics/SVG/1.1/DTD/svg11.dtd">
<!-- Generated by graphviz version 5.0.0 (20220707.1540)
 -->
<!-- Title: dependencies Pages: 1 -->
<svg width="491pt" height="247pt"
 viewBox="0.00 0.00 491.00 246.80" xmlns="http://www.w3.org/2000/svg" xmlns:xlink="http://www.w3.org/1999/xlink">
<g id="graph0" class="graph" transform="scale(1 1) rotate(0) translate(4 242.8)">
<title>dependencies</title>
<polygon fill="white" stroke="transparent" points="-4,4 -4,-242.8 487,-242.8 487,4 -4,4"/>
<text text-anchor="middle" x="241.5" y="-8.2" font-family="sans-serif" font-size="14.00">dependencies</text>
<g id="clust1" class="cluster">
<title>cluster_UserMigrationModule</title>
<polygon fill="none" stroke="black" stroke-dasharray="1,5" points="8,-32.8 8,-230.8 475,-230.8 475,-32.8 8,-32.8"/>
</g>
<g id="clust4" class="cluster">
<title>cluster_UserMigrationModule_exports</title>
<polygon fill="none" stroke="black" points="212,-170.8 212,-222.8 372,-222.8 372,-170.8 212,-170.8"/>
</g>
<g id="clust3" class="cluster">
<title>cluster_UserMigrationModule_imports</title>
<polygon fill="none" stroke="black" points="234,-40.8 234,-92.8 467,-92.8 467,-40.8 234,-40.8"/>
</g>
<g id="clust6" class="cluster">
<title>cluster_UserMigrationModule_providers</title>
<polygon fill="none" stroke="black" points="16,-40.8 16,-92.8 226,-92.8 226,-40.8 16,-40.8"/>
</g>
<!-- SchoolModule -->
<g id="node1" class="node">
<title>SchoolModule</title>
<polygon fill="#8dd3c7" stroke="black" points="459.44,-84.8 456.44,-88.8 435.44,-88.8 432.44,-84.8 360.56,-84.8 360.56,-48.8 459.44,-48.8 459.44,-84.8"/>
<text text-anchor="middle" x="410" y="-62.6" font-family="Times,serif" font-size="14.00">SchoolModule</text>
</g>
<!-- UserMigrationModule -->
<g id="node3" class="node">
<title>UserMigrationModule</title>
<polygon fill="#8dd3c7" stroke="black" points="362.98,-149.8 359.98,-153.8 338.98,-153.8 335.98,-149.8 221.02,-149.8 221.02,-113.8 362.98,-113.8 362.98,-149.8"/>
<text text-anchor="middle" x="292" y="-127.6" font-family="Times,serif" font-size="14.00">UserMigrationModule</text>
</g>
<!-- SchoolModule&#45;&gt;UserMigrationModule -->
<g id="edge1" class="edge">
<title>SchoolModule&#45;&gt;UserMigrationModule</title>
<path fill="none" stroke="black" d="M360.71,-66.8C355.24,-66.8 351.58,-66.8 351.58,-66.8 351.58,-66.8 351.58,-103.69 351.58,-103.69"/>
<polygon fill="black" stroke="black" points="348.08,-103.69 351.58,-113.69 355.08,-103.69 348.08,-103.69"/>
</g>
<!-- SystemModule -->
<g id="node2" class="node">
<title>SystemModule</title>
<polygon fill="#8dd3c7" stroke="black" points="342.28,-84.8 339.28,-88.8 318.28,-88.8 315.28,-84.8 241.72,-84.8 241.72,-48.8 342.28,-48.8 342.28,-84.8"/>
<text text-anchor="middle" x="292" y="-62.6" font-family="Times,serif" font-size="14.00">SystemModule</text>
</g>
<!-- SystemModule&#45;&gt;UserMigrationModule -->
<g id="edge2" class="edge">
<title>SystemModule&#45;&gt;UserMigrationModule</title>
<path fill="none" stroke="black" d="M292,-84.91C292,-84.91 292,-103.79 292,-103.79"/>
<polygon fill="black" stroke="black" points="288.5,-103.79 292,-113.79 295.5,-103.79 288.5,-103.79"/>
</g>
<!-- UserMigrationService  -->
<g id="node4" class="node">
<title>UserMigrationService </title>
<polygon fill="#fb8072" stroke="black" points="363.91,-214.8 220.09,-214.8 220.09,-178.8 363.91,-178.8 363.91,-214.8"/>
<text text-anchor="middle" x="292" y="-192.6" font-family="Times,serif" font-size="14.00">UserMigrationService </text>
</g>
<!-- UserMigrationModule&#45;&gt;UserMigrationService  -->
<g id="edge3" class="edge">
<title>UserMigrationModule&#45;&gt;UserMigrationService </title>
<path fill="none" stroke="black" stroke-dasharray="5,2" d="M292,-149.91C292,-149.91 292,-168.79 292,-168.79"/>
<polygon fill="black" stroke="black" points="288.5,-168.79 292,-178.79 295.5,-168.79 288.5,-168.79"/>
</g>
<!-- UserMigrationService -->
<g id="node5" class="node">
<title>UserMigrationService</title>
<ellipse fill="#fdb462" stroke="black" cx="121" cy="-66.8" rx="96.7" ry="18"/>
<text text-anchor="middle" x="121" y="-62.6" font-family="Times,serif" font-size="14.00">UserMigrationService</text>
</g>
<!-- UserMigrationService&#45;&gt;UserMigrationModule -->
<g id="edge4" class="edge">
<title>UserMigrationService&#45;&gt;UserMigrationModule</title>
<path fill="none" stroke="black" d="M218.22,-66.8C226.22,-66.8 231.31,-66.8 231.31,-66.8 231.31,-66.8 231.31,-103.69 231.31,-103.69"/>
<polygon fill="black" stroke="black" points="227.81,-103.69 231.31,-113.69 234.81,-103.69 227.81,-103.69"/>
</g>
</g>
</svg>
