<?xml version="1.0" encoding="UTF-8" standalone="no"?>
<!DOCTYPE svg PUBLIC "-//W3C//DTD SVG 1.1//EN"
 "http://www.w3.org/Graphics/SVG/1.1/DTD/svg11.dtd">
<!-- Generated by graphviz version 5.0.0 (20220707.1540)
 -->
<!-- Title: dependencies Pages: 1 -->
<svg width="837pt" height="247pt"
 viewBox="0.00 0.00 837.00 246.80" xmlns="http://www.w3.org/2000/svg" xmlns:xlink="http://www.w3.org/1999/xlink">
<g id="graph0" class="graph" transform="scale(1 1) rotate(0) translate(4 242.8)">
<title>dependencies</title>
<polygon fill="white" stroke="transparent" points="-4,4 -4,-242.8 833,-242.8 833,4 -4,4"/>
<text text-anchor="middle" x="414.5" y="-8.2" font-family="sans-serif" font-size="14.00">dependencies</text>
<g id="clust1" class="cluster">
<title>cluster_UserMigrationModule</title>
<polygon fill="none" stroke="black" stroke-dasharray="1,5" points="8,-32.8 8,-230.8 821,-230.8 821,-32.8 8,-32.8"/>
</g>
<g id="clust4" class="cluster">
<title>cluster_UserMigrationModule_exports</title>
<polygon fill="none" stroke="black" points="274,-170.8 274,-222.8 434,-222.8 434,-170.8 274,-170.8"/>
</g>
<g id="clust6" class="cluster">
<title>cluster_UserMigrationModule_providers</title>
<polygon fill="none" stroke="black" points="603,-40.8 603,-92.8 813,-92.8 813,-40.8 603,-40.8"/>
</g>
<g id="clust3" class="cluster">
<title>cluster_UserMigrationModule_imports</title>
<polygon fill="none" stroke="black" points="16,-40.8 16,-92.8 595,-92.8 595,-40.8 16,-40.8"/>
</g>
<!-- AccountModule -->
<g id="node1" class="node">
<title>AccountModule</title>
<polygon fill="#8dd3c7" stroke="black" points="587.48,-84.8 584.48,-88.8 563.48,-88.8 560.48,-84.8 480.52,-84.8 480.52,-48.8 587.48,-48.8 587.48,-84.8"/>
<text text-anchor="middle" x="534" y="-62.6" font-family="Times,serif" font-size="14.00">AccountModule</text>
</g>
<!-- UserMigrationModule -->
<g id="node6" class="node">
<title>UserMigrationModule</title>
<polygon fill="#8dd3c7" stroke="black" points="424.98,-149.8 421.98,-153.8 400.98,-153.8 397.98,-149.8 283.02,-149.8 283.02,-113.8 424.98,-113.8 424.98,-149.8"/>
<text text-anchor="middle" x="354" y="-127.6" font-family="Times,serif" font-size="14.00">UserMigrationModule</text>
</g>
<!-- AccountModule&#45;&gt;UserMigrationModule -->
<g id="edge1" class="edge">
<title>AccountModule&#45;&gt;UserMigrationModule</title>
<path fill="none" stroke="black" d="M534,-84.82C534,-102.17 534,-125.8 534,-125.8 534,-125.8 435.14,-125.8 435.14,-125.8"/>
<polygon fill="black" stroke="black" points="435.14,-122.3 425.14,-125.8 435.14,-129.3 435.14,-122.3"/>
</g>
<!-- LoggerModule -->
<g id="node2" class="node">
<title>LoggerModule</title>
<polygon fill="#8dd3c7" stroke="black" points="462.98,-84.8 459.98,-88.8 438.98,-88.8 435.98,-84.8 363.02,-84.8 363.02,-48.8 462.98,-48.8 462.98,-84.8"/>
<text text-anchor="middle" x="413" y="-62.6" font-family="Times,serif" font-size="14.00">LoggerModule</text>
</g>
<!-- LoggerModule&#45;&gt;UserMigrationModule -->
<g id="edge2" class="edge">
<title>LoggerModule&#45;&gt;UserMigrationModule</title>
<path fill="none" stroke="black" d="M394,-84.91C394,-84.91 394,-103.79 394,-103.79"/>
<polygon fill="black" stroke="black" points="390.5,-103.79 394,-113.79 397.5,-103.79 390.5,-103.79"/>
</g>
<!-- SchoolModule -->
<g id="node3" class="node">
<title>SchoolModule</title>
<polygon fill="#8dd3c7" stroke="black" points="345.44,-84.8 342.44,-88.8 321.44,-88.8 318.44,-84.8 246.56,-84.8 246.56,-48.8 345.44,-48.8 345.44,-84.8"/>
<text text-anchor="middle" x="296" y="-62.6" font-family="Times,serif" font-size="14.00">SchoolModule</text>
</g>
<!-- SchoolModule&#45;&gt;UserMigrationModule -->
<g id="edge3" class="edge">
<title>SchoolModule&#45;&gt;UserMigrationModule</title>
<path fill="none" stroke="black" d="M314.12,-84.91C314.12,-84.91 314.12,-103.79 314.12,-103.79"/>
<polygon fill="black" stroke="black" points="310.62,-103.79 314.12,-113.79 317.62,-103.79 310.62,-103.79"/>
</g>
<!-- SystemModule -->
<g id="node4" class="node">
<title>SystemModule</title>
<polygon fill="#8dd3c7" stroke="black" points="228.28,-84.8 225.28,-88.8 204.28,-88.8 201.28,-84.8 127.72,-84.8 127.72,-48.8 228.28,-48.8 228.28,-84.8"/>
<text text-anchor="middle" x="178" y="-62.6" font-family="Times,serif" font-size="14.00">SystemModule</text>
</g>
<!-- SystemModule&#45;&gt;UserMigrationModule -->
<g id="edge4" class="edge">
<title>SystemModule&#45;&gt;UserMigrationModule</title>
<path fill="none" stroke="black" d="M178,-84.82C178,-102.17 178,-125.8 178,-125.8 178,-125.8 272.92,-125.8 272.92,-125.8"/>
<polygon fill="black" stroke="black" points="272.92,-129.3 282.92,-125.8 272.92,-122.3 272.92,-129.3"/>
</g>
<!-- UserModule -->
<g id="node5" class="node">
<title>UserModule</title>
<polygon fill="#8dd3c7" stroke="black" points="109.99,-84.8 106.99,-88.8 85.99,-88.8 82.99,-84.8 24.01,-84.8 24.01,-48.8 109.99,-48.8 109.99,-84.8"/>
<text text-anchor="middle" x="67" y="-62.6" font-family="Times,serif" font-size="14.00">UserModule</text>
</g>
<!-- UserModule&#45;&gt;UserMigrationModule -->
<g id="edge5" class="edge">
<title>UserModule&#45;&gt;UserMigrationModule</title>
<path fill="none" stroke="black" d="M67,-85.08C67,-106.12 67,-137.8 67,-137.8 67,-137.8 272.69,-137.8 272.69,-137.8"/>
<polygon fill="black" stroke="black" points="272.69,-141.3 282.69,-137.8 272.69,-134.3 272.69,-141.3"/>
</g>
<!-- UserMigrationService  -->
<g id="node7" class="node">
<title>UserMigrationService </title>
<polygon fill="#fb8072" stroke="black" points="425.91,-214.8 282.09,-214.8 282.09,-178.8 425.91,-178.8 425.91,-214.8"/>
<text text-anchor="middle" x="354" y="-192.6" font-family="Times,serif" font-size="14.00">UserMigrationService </text>
</g>
<!-- UserMigrationModule&#45;&gt;UserMigrationService  -->
<g id="edge6" class="edge">
<title>UserMigrationModule&#45;&gt;UserMigrationService </title>
<path fill="none" stroke="black" stroke-dasharray="5,2" d="M354,-149.91C354,-149.91 354,-168.79 354,-168.79"/>
<polygon fill="black" stroke="black" points="350.5,-168.79 354,-178.79 357.5,-168.79 350.5,-168.79"/>
</g>
<!-- UserMigrationService -->
<g id="node8" class="node">
<title>UserMigrationService</title>
<ellipse fill="#fdb462" stroke="black" cx="708" cy="-66.8" rx="96.7" ry="18"/>
<text text-anchor="middle" x="708" y="-62.6" font-family="Times,serif" font-size="14.00">UserMigrationService</text>
</g>
<!-- UserMigrationService&#45;&gt;UserMigrationModule -->
<g id="edge7" class="edge">
<title>UserMigrationService&#45;&gt;UserMigrationModule</title>
<path fill="none" stroke="black" d="M708,-85.08C708,-106.12 708,-137.8 708,-137.8 708,-137.8 435.21,-137.8 435.21,-137.8"/>
<polygon fill="black" stroke="black" points="435.21,-134.3 425.21,-137.8 435.21,-141.3 435.21,-134.3"/>
</g>
</g>
</svg>
