<?xml version="1.0" encoding="UTF-8" standalone="no"?>
<!DOCTYPE svg PUBLIC "-//W3C//DTD SVG 1.1//EN"
 "http://www.w3.org/Graphics/SVG/1.1/DTD/svg11.dtd">
<!-- Generated by graphviz version 5.0.0 (20220707.1540)
 -->
<!-- Title: dependencies Pages: 1 -->
<svg width="374pt" height="247pt"
 viewBox="0.00 0.00 374.00 246.80" xmlns="http://www.w3.org/2000/svg" xmlns:xlink="http://www.w3.org/1999/xlink">
<g id="graph0" class="graph" transform="scale(1 1) rotate(0) translate(4 242.8)">
<title>dependencies</title>
<polygon fill="white" stroke="transparent" points="-4,4 -4,-242.8 370,-242.8 370,4 -4,4"/>
<text text-anchor="middle" x="183" y="-8.2" font-family="sans-serif" font-size="14.00">dependencies</text>
<g id="clust1" class="cluster">
<title>cluster_UserMigrationModule</title>
<polygon fill="none" stroke="black" stroke-dasharray="1,5" points="8,-32.8 8,-230.8 358,-230.8 358,-32.8 8,-32.8"/>
</g>
<g id="clust4" class="cluster">
<title>cluster_UserMigrationModule_exports</title>
<polygon fill="none" stroke="black" points="115,-170.8 115,-222.8 275,-222.8 275,-170.8 115,-170.8"/>
</g>
<g id="clust3" class="cluster">
<title>cluster_UserMigrationModule_imports</title>
<polygon fill="none" stroke="black" points="234,-40.8 234,-92.8 350,-92.8 350,-40.8 234,-40.8"/>
</g>
<g id="clust6" class="cluster">
<title>cluster_UserMigrationModule_providers</title>
<polygon fill="none" stroke="black" points="16,-40.8 16,-92.8 226,-92.8 226,-40.8 16,-40.8"/>
</g>
<!-- SystemModule -->
<g id="node1" class="node">
<title>SystemModule</title>
<polygon fill="#8dd3c7" stroke="black" points="342.28,-84.8 339.28,-88.8 318.28,-88.8 315.28,-84.8 241.72,-84.8 241.72,-48.8 342.28,-48.8 342.28,-84.8"/>
<text text-anchor="middle" x="292" y="-62.6" font-family="Times,serif" font-size="14.00">SystemModule</text>
</g>
<!-- UserMigrationModule -->
<g id="node2" class="node">
<title>UserMigrationModule</title>
<polygon fill="#8dd3c7" stroke="black" points="265.98,-149.8 262.98,-153.8 241.98,-153.8 238.98,-149.8 124.02,-149.8 124.02,-113.8 265.98,-113.8 265.98,-149.8"/>
<text text-anchor="middle" x="195" y="-127.6" font-family="Times,serif" font-size="14.00">UserMigrationModule</text>
</g>
<!-- SystemModule&#45;&gt;UserMigrationModule -->
<g id="edge1" class="edge">
<title>SystemModule&#45;&gt;UserMigrationModule</title>
<path fill="none" stroke="black" d="M253.8,-84.91C253.8,-84.91 253.8,-103.79 253.8,-103.79"/>
<polygon fill="black" stroke="black" points="250.3,-103.79 253.8,-113.79 257.3,-103.79 250.3,-103.79"/>
</g>
<!-- UserMigrationService  -->
<g id="node3" class="node">
<title>UserMigrationService </title>
<polygon fill="#fb8072" stroke="black" points="266.91,-214.8 123.09,-214.8 123.09,-178.8 266.91,-178.8 266.91,-214.8"/>
<text text-anchor="middle" x="195" y="-192.6" font-family="Times,serif" font-size="14.00">UserMigrationService </text>
</g>
<!-- UserMigrationModule&#45;&gt;UserMigrationService  -->
<g id="edge2" class="edge">
<title>UserMigrationModule&#45;&gt;UserMigrationService </title>
<path fill="none" stroke="black" stroke-dasharray="5,2" d="M195,-149.91C195,-149.91 195,-168.79 195,-168.79"/>
<polygon fill="black" stroke="black" points="191.5,-168.79 195,-178.79 198.5,-168.79 191.5,-168.79"/>
</g>
<!-- UserMigrationService -->
<g id="node4" class="node">
<title>UserMigrationService</title>
<ellipse fill="#fdb462" stroke="black" cx="121" cy="-66.8" rx="96.7" ry="18"/>
<text text-anchor="middle" x="121" y="-62.6" font-family="Times,serif" font-size="14.00">UserMigrationService</text>
</g>
<!-- UserMigrationService&#45;&gt;UserMigrationModule -->
<g id="edge3" class="edge">
<title>UserMigrationService&#45;&gt;UserMigrationModule</title>
<path fill="none" stroke="black" d="M170.93,-82.53C170.93,-82.53 170.93,-103.45 170.93,-103.45"/>
<polygon fill="black" stroke="black" points="167.43,-103.45 170.93,-113.45 174.43,-103.45 167.43,-103.45"/>
</g>
</g>
</svg>
