<?xml version="1.0" encoding="UTF-8" standalone="no"?>
<!DOCTYPE svg PUBLIC "-//W3C//DTD SVG 1.1//EN"
 "http://www.w3.org/Graphics/SVG/1.1/DTD/svg11.dtd">
<!-- Generated by graphviz version 5.0.0 (20220707.1540)
 -->
<!-- Title: dependencies Pages: 1 -->
<svg width="491pt" height="247pt"
 viewBox="0.00 0.00 491.00 246.80" xmlns="http://www.w3.org/2000/svg" xmlns:xlink="http://www.w3.org/1999/xlink">
<g id="graph0" class="graph" transform="scale(1 1) rotate(0) translate(4 242.8)">
<title>dependencies</title>
<polygon fill="white" stroke="transparent" points="-4,4 -4,-242.8 487,-242.8 487,4 -4,4"/>
<text text-anchor="middle" x="241.5" y="-8.2" font-family="sans-serif" font-size="14.00">dependencies</text>
<g id="clust1" class="cluster">
<title>cluster_UserMigrationModule</title>
<polygon fill="none" stroke="black" stroke-dasharray="1,5" points="8,-32.8 8,-230.8 475,-230.8 475,-32.8 8,-32.8"/>
</g>
<g id="clust6" class="cluster">
<title>cluster_UserMigrationModule_providers</title>
<polygon fill="none" stroke="black" points="257,-40.8 257,-92.8 467,-92.8 467,-40.8 257,-40.8"/>
</g>
<g id="clust3" class="cluster">
<title>cluster_UserMigrationModule_imports</title>
<polygon fill="none" stroke="black" points="16,-40.8 16,-92.8 249,-92.8 249,-40.8 16,-40.8"/>
</g>
<g id="clust4" class="cluster">
<title>cluster_UserMigrationModule_exports</title>
<polygon fill="none" stroke="black" points="112,-170.8 112,-222.8 272,-222.8 272,-170.8 112,-170.8"/>
</g>
<!-- SchoolModule -->
<g id="node1" class="node">
<title>SchoolModule</title>
<polygon fill="#8dd3c7" stroke="black" points="241.44,-84.8 238.44,-88.8 217.44,-88.8 214.44,-84.8 142.56,-84.8 142.56,-48.8 241.44,-48.8 241.44,-84.8"/>
<text text-anchor="middle" x="192" y="-62.6" font-family="Times,serif" font-size="14.00">SchoolModule</text>
</g>
<!-- UserMigrationModule -->
<g id="node3" class="node">
<title>UserMigrationModule</title>
<polygon fill="#8dd3c7" stroke="black" points="262.98,-149.8 259.98,-153.8 238.98,-153.8 235.98,-149.8 121.02,-149.8 121.02,-113.8 262.98,-113.8 262.98,-149.8"/>
<text text-anchor="middle" x="192" y="-127.6" font-family="Times,serif" font-size="14.00">UserMigrationModule</text>
</g>
<!-- SchoolModule&#45;&gt;UserMigrationModule -->
<g id="edge1" class="edge">
<title>SchoolModule&#45;&gt;UserMigrationModule</title>
<path fill="none" stroke="black" d="M192,-84.91C192,-84.91 192,-103.79 192,-103.79"/>
<polygon fill="black" stroke="black" points="188.5,-103.79 192,-113.79 195.5,-103.79 188.5,-103.79"/>
</g>
<!-- SystemModule -->
<g id="node2" class="node">
<title>SystemModule</title>
<polygon fill="#8dd3c7" stroke="black" points="124.28,-84.8 121.28,-88.8 100.28,-88.8 97.28,-84.8 23.72,-84.8 23.72,-48.8 124.28,-48.8 124.28,-84.8"/>
<text text-anchor="middle" x="74" y="-62.6" font-family="Times,serif" font-size="14.00">SystemModule</text>
</g>
<!-- SystemModule&#45;&gt;UserMigrationModule -->
<g id="edge2" class="edge">
<title>SystemModule&#45;&gt;UserMigrationModule</title>
<path fill="none" stroke="black" d="M124.53,-66.8C129.98,-66.8 133.58,-66.8 133.58,-66.8 133.58,-66.8 133.58,-103.69 133.58,-103.69"/>
<polygon fill="black" stroke="black" points="130.08,-103.69 133.58,-113.69 137.08,-103.69 130.08,-103.69"/>
</g>
<!-- UserMigrationService  -->
<g id="node4" class="node">
<title>UserMigrationService </title>
<polygon fill="#fb8072" stroke="black" points="263.91,-214.8 120.09,-214.8 120.09,-178.8 263.91,-178.8 263.91,-214.8"/>
<text text-anchor="middle" x="192" y="-192.6" font-family="Times,serif" font-size="14.00">UserMigrationService </text>
</g>
<!-- UserMigrationModule&#45;&gt;UserMigrationService  -->
<g id="edge3" class="edge">
<title>UserMigrationModule&#45;&gt;UserMigrationService </title>
<path fill="none" stroke="black" stroke-dasharray="5,2" d="M192,-149.91C192,-149.91 192,-168.79 192,-168.79"/>
<polygon fill="black" stroke="black" points="188.5,-168.79 192,-178.79 195.5,-168.79 188.5,-168.79"/>
</g>
<!-- UserMigrationService -->
<g id="node5" class="node">
<title>UserMigrationService</title>
<ellipse fill="#fdb462" stroke="black" cx="362" cy="-66.8" rx="96.7" ry="18"/>
<text text-anchor="middle" x="362" y="-62.6" font-family="Times,serif" font-size="14.00">UserMigrationService</text>
</g>
<!-- UserMigrationService&#45;&gt;UserMigrationModule -->
<g id="edge4" class="edge">
<title>UserMigrationService&#45;&gt;UserMigrationModule</title>
<path fill="none" stroke="black" d="M265.14,-66.8C257.18,-66.8 252.11,-66.8 252.11,-66.8 252.11,-66.8 252.11,-103.69 252.11,-103.69"/>
<polygon fill="black" stroke="black" points="248.61,-103.69 252.11,-113.69 255.61,-103.69 248.61,-103.69"/>
</g>
</g>
</svg>
