<?xml version="1.0" encoding="UTF-8" standalone="no"?>
<!DOCTYPE svg PUBLIC "-//W3C//DTD SVG 1.1//EN"
 "http://www.w3.org/Graphics/SVG/1.1/DTD/svg11.dtd">
<!-- Generated by graphviz version 5.0.0 (20220707.1540)
 -->
<!-- Title: dependencies Pages: 1 -->
<svg width="565pt" height="174pt"
 viewBox="0.00 0.00 565.00 173.80" xmlns="http://www.w3.org/2000/svg" xmlns:xlink="http://www.w3.org/1999/xlink">
<g id="graph0" class="graph" transform="scale(1 1) rotate(0) translate(4 169.8)">
<title>dependencies</title>
<polygon fill="white" stroke="transparent" points="-4,4 -4,-169.8 561,-169.8 561,4 -4,4"/>
<text text-anchor="middle" x="278.5" y="-8.2" font-family="sans-serif" font-size="14.00">dependencies</text>
<g id="clust1" class="cluster">
<title>cluster_ServerConsoleModule</title>
<polygon fill="none" stroke="black" stroke-dasharray="1,5" points="8,-32.8 8,-157.8 549,-157.8 549,-32.8 8,-32.8"/>
</g>
<g id="clust3" class="cluster">
<title>cluster_ServerConsoleModule_imports</title>
<polygon fill="none" stroke="black" points="16,-40.8 16,-92.8 541,-92.8 541,-40.8 16,-40.8"/>
</g>
<!-- BoardModule -->
<g id="node1" class="node">
<title>BoardModule</title>
<polygon fill="#8dd3c7" stroke="black" points="532.77,-84.8 529.77,-88.8 508.77,-88.8 505.77,-84.8 439.23,-84.8 439.23,-48.8 532.77,-48.8 532.77,-84.8"/>
<text text-anchor="middle" x="486" y="-62.6" font-family="Times,serif" font-size="14.00">BoardModule</text>
</g>
<!-- ServerConsoleModule -->
<g id="node5" class="node">
<title>ServerConsoleModule</title>
<polygon fill="#8dd3c7" stroke="black" points="354.98,-149.8 351.98,-153.8 330.98,-153.8 327.98,-149.8 213.02,-149.8 213.02,-113.8 354.98,-113.8 354.98,-149.8"/>
<text text-anchor="middle" x="284" y="-127.6" font-family="Times,serif" font-size="14.00">ServerConsoleModule</text>
</g>
<!-- BoardModule&#45;&gt;ServerConsoleModule -->
<g id="edge1" class="edge">
<title>BoardModule&#45;&gt;ServerConsoleModule</title>
<path fill="none" stroke="black" d="M486,-84.91C486,-104.14 486,-131.8 486,-131.8 486,-131.8 365.22,-131.8 365.22,-131.8"/>
<polygon fill="black" stroke="black" points="365.22,-128.3 355.22,-131.8 365.22,-135.3 365.22,-128.3"/>
</g>
<!-- ConsoleWriterModule -->
<g id="node2" class="node">
<title>ConsoleWriterModule</title>
<polygon fill="#8dd3c7" stroke="black" points="420.97,-84.8 417.97,-88.8 396.97,-88.8 393.97,-84.8 279.03,-84.8 279.03,-48.8 420.97,-48.8 420.97,-84.8"/>
<text text-anchor="middle" x="350" y="-62.6" font-family="Times,serif" font-size="14.00">ConsoleWriterModule</text>
</g>
<!-- ConsoleWriterModule&#45;&gt;ServerConsoleModule -->
<g id="edge2" class="edge">
<title>ConsoleWriterModule&#45;&gt;ServerConsoleModule</title>
<path fill="none" stroke="black" d="M317,-84.91C317,-84.91 317,-103.79 317,-103.79"/>
<polygon fill="black" stroke="black" points="313.5,-103.79 317,-113.79 320.5,-103.79 313.5,-103.79"/>
</g>
<!-- FilesModule -->
<g id="node3" class="node">
<title>FilesModule</title>
<polygon fill="#8dd3c7" stroke="black" points="261.28,-84.8 258.28,-88.8 237.28,-88.8 234.28,-84.8 174.72,-84.8 174.72,-48.8 261.28,-48.8 261.28,-84.8"/>
<text text-anchor="middle" x="218" y="-62.6" font-family="Times,serif" font-size="14.00">FilesModule</text>
</g>
<!-- FilesModule&#45;&gt;ServerConsoleModule -->
<g id="edge3" class="edge">
<title>FilesModule&#45;&gt;ServerConsoleModule</title>
<path fill="none" stroke="black" d="M237.2,-84.91C237.2,-84.91 237.2,-103.79 237.2,-103.79"/>
<polygon fill="black" stroke="black" points="233.7,-103.79 237.2,-113.79 240.7,-103.79 233.7,-103.79"/>
</g>
<!-- ManagementModule -->
<g id="node4" class="node">
<title>ManagementModule</title>
<polygon fill="#8dd3c7" stroke="black" points="156.14,-84.8 153.14,-88.8 132.14,-88.8 129.14,-84.8 23.86,-84.8 23.86,-48.8 156.14,-48.8 156.14,-84.8"/>
<text text-anchor="middle" x="90" y="-62.6" font-family="Times,serif" font-size="14.00">ManagementModule</text>
</g>
<!-- ManagementModule&#45;&gt;ServerConsoleModule -->
<g id="edge4" class="edge">
<title>ManagementModule&#45;&gt;ServerConsoleModule</title>
<path fill="none" stroke="black" d="M90,-84.91C90,-104.14 90,-131.8 90,-131.8 90,-131.8 202.86,-131.8 202.86,-131.8"/>
<polygon fill="black" stroke="black" points="202.86,-135.3 212.86,-131.8 202.86,-128.3 202.86,-135.3"/>
</g>
</g>
</svg>
