<?xml version="1.0" encoding="UTF-8" standalone="no"?>
<!DOCTYPE svg PUBLIC "-//W3C//DTD SVG 1.1//EN"
 "http://www.w3.org/Graphics/SVG/1.1/DTD/svg11.dtd">
<!-- Generated by graphviz version 2.47.3 (20210619.1520)
 -->
<!-- Title: dependencies Pages: 1 -->
<svg width="312pt" height="174pt"
 viewBox="0.00 0.00 312.00 173.80" xmlns="http://www.w3.org/2000/svg" xmlns:xlink="http://www.w3.org/1999/xlink">
<g id="graph0" class="graph" transform="scale(1 1) rotate(0) translate(4 169.8)">
<title>dependencies</title>
<polygon fill="white" stroke="transparent" points="-4,4 -4,-169.8 308,-169.8 308,4 -4,4"/>
<text text-anchor="middle" x="152" y="-8.2" font-family="sans-serif" font-size="14.00">dependencies</text>
<g id="clust1" class="cluster">
<title>cluster_ServerConsoleModule</title>
<polygon fill="none" stroke="black" stroke-dasharray="1,5" points="8,-32.8 8,-157.8 296,-157.8 296,-32.8 8,-32.8"/>
</g>
<g id="clust3" class="cluster">
<title>cluster_ServerConsoleModule_imports</title>
<polygon fill="none" stroke="black" points="176,-40.8 176,-92.8 288,-92.8 288,-40.8 176,-40.8"/>
</g>
<g id="clust6" class="cluster">
<title>cluster_ServerConsoleModule_providers</title>
<polygon fill="none" stroke="black" points="16,-40.8 16,-92.8 168,-92.8 168,-40.8 16,-40.8"/>
</g>
<!-- ServerModule -->
<g id="node1" class="node">
<title>ServerModule</title>
<polygon fill="#8dd3c7" stroke="black" points="280.08,-84.8 277.08,-88.8 256.08,-88.8 253.08,-84.8 183.92,-84.8 183.92,-48.8 280.08,-48.8 280.08,-84.8"/>
<text text-anchor="middle" x="232" y="-62.6" font-family="Times,serif" font-size="14.00">ServerModule</text>
</g>
<!-- ServerConsoleModule -->
<g id="node2" class="node">
<title>ServerConsoleModule</title>
<polygon fill="#8dd3c7" stroke="black" points="224.97,-149.8 221.97,-153.8 200.97,-153.8 197.97,-149.8 83.03,-149.8 83.03,-113.8 224.97,-113.8 224.97,-149.8"/>
<text text-anchor="middle" x="154" y="-127.6" font-family="Times,serif" font-size="14.00">ServerConsoleModule</text>
</g>
<!-- ServerModule&#45;&gt;ServerConsoleModule -->
<g id="edge1" class="edge">
<title>ServerModule&#45;&gt;ServerConsoleModule</title>
<path fill="none" stroke="black" d="M204.47,-84.91C204.47,-84.91 204.47,-103.79 204.47,-103.79"/>
<polygon fill="black" stroke="black" points="200.97,-103.79 204.47,-113.79 207.97,-103.79 200.97,-103.79"/>
</g>
<!-- ConsoleWriter -->
<g id="node3" class="node">
<title>ConsoleWriter</title>
<ellipse fill="#fdb462" stroke="black" cx="92" cy="-66.8" rx="67.77" ry="18"/>
<text text-anchor="middle" x="92" y="-62.6" font-family="Times,serif" font-size="14.00">ConsoleWriter</text>
</g>
<!-- ConsoleWriter&#45;&gt;ServerConsoleModule -->
<g id="edge2" class="edge">
<title>ConsoleWriter&#45;&gt;ServerConsoleModule</title>
<path fill="none" stroke="black" d="M121.45,-83.2C121.45,-83.2 121.45,-103.34 121.45,-103.34"/>
<polygon fill="black" stroke="black" points="117.95,-103.34 121.45,-113.34 124.95,-103.34 117.95,-103.34"/>
</g>
</g>
</svg>
