<?xml version="1.0" encoding="UTF-8" standalone="no"?>
<!DOCTYPE svg PUBLIC "-//W3C//DTD SVG 1.1//EN"
 "http://www.w3.org/Graphics/SVG/1.1/DTD/svg11.dtd">
<!-- Generated by graphviz version 2.47.3 (20210619.1520)
 -->
<!-- Title: dependencies Pages: 1 -->
<svg width="348pt" height="174pt"
 viewBox="0.00 0.00 348.00 173.80" xmlns="http://www.w3.org/2000/svg" xmlns:xlink="http://www.w3.org/1999/xlink">
<g id="graph0" class="graph" transform="scale(1 1) rotate(0) translate(4 169.8)">
<title>dependencies</title>
<polygon fill="white" stroke="transparent" points="-4,4 -4,-169.8 344,-169.8 344,4 -4,4"/>
<text text-anchor="middle" x="170" y="-8.2" font-family="sans-serif" font-size="14.00">dependencies</text>
<g id="clust1" class="cluster">
<title>cluster_ServerConsoleModule</title>
<polygon fill="none" stroke="black" stroke-dasharray="1,5" points="8,-32.8 8,-157.8 332,-157.8 332,-32.8 8,-32.8"/>
</g>
<g id="clust3" class="cluster">
<title>cluster_ServerConsoleModule_imports</title>
<polygon fill="none" stroke="black" points="16,-40.8 16,-92.8 324,-92.8 324,-40.8 16,-40.8"/>
</g>
<!-- ConsoleWriterModule -->
<g id="node1" class="node">
<title>ConsoleWriterModule</title>
<polygon fill="#8dd3c7" stroke="black" points="315.97,-84.8 312.97,-88.8 291.97,-88.8 288.97,-84.8 174.03,-84.8 174.03,-48.8 315.97,-48.8 315.97,-84.8"/>
<text text-anchor="middle" x="245" y="-62.6" font-family="Times,serif" font-size="14.00">ConsoleWriterModule</text>
</g>
<!-- ServerConsoleModule -->
<g id="node3" class="node">
<title>ServerConsoleModule</title>
<polygon fill="#8dd3c7" stroke="black" points="237.97,-149.8 234.97,-153.8 213.97,-153.8 210.97,-149.8 96.03,-149.8 96.03,-113.8 237.97,-113.8 237.97,-149.8"/>
<text text-anchor="middle" x="167" y="-127.6" font-family="Times,serif" font-size="14.00">ServerConsoleModule</text>
</g>
<!-- ConsoleWriterModule&#45;&gt;ServerConsoleModule -->
<g id="edge1" class="edge">
<title>ConsoleWriterModule&#45;&gt;ServerConsoleModule</title>
<path fill="none" stroke="black" d="M206,-84.91C206,-84.91 206,-103.79 206,-103.79"/>
<polygon fill="black" stroke="black" points="202.5,-103.79 206,-113.79 209.5,-103.79 202.5,-103.79"/>
</g>
<!-- ManagementModule -->
<g id="node2" class="node">
<title>ManagementModule</title>
<polygon fill="#8dd3c7" stroke="black" points="156.13,-84.8 153.13,-88.8 132.13,-88.8 129.13,-84.8 23.87,-84.8 23.87,-48.8 156.13,-48.8 156.13,-84.8"/>
<text text-anchor="middle" x="90" y="-62.6" font-family="Times,serif" font-size="14.00">ManagementModule</text>
</g>
<!-- ManagementModule&#45;&gt;ServerConsoleModule -->
<g id="edge2" class="edge">
<title>ManagementModule&#45;&gt;ServerConsoleModule</title>
<path fill="none" stroke="black" d="M126.17,-84.91C126.17,-84.91 126.17,-103.79 126.17,-103.79"/>
<polygon fill="black" stroke="black" points="122.67,-103.79 126.17,-113.79 129.67,-103.79 122.67,-103.79"/>
</g>
</g>
</svg>
