<?xml version="1.0" encoding="UTF-8" standalone="no"?>
<!DOCTYPE svg PUBLIC "-//W3C//DTD SVG 1.1//EN"
 "http://www.w3.org/Graphics/SVG/1.1/DTD/svg11.dtd">
<!-- Generated by graphviz version 2.47.3 (20210619.1520)
 -->
<!-- Title: dependencies Pages: 1 -->
<svg width="508pt" height="174pt"
 viewBox="0.00 0.00 508.00 173.80" xmlns="http://www.w3.org/2000/svg" xmlns:xlink="http://www.w3.org/1999/xlink">
<g id="graph0" class="graph" transform="scale(1 1) rotate(0) translate(4 169.8)">
<title>dependencies</title>
<polygon fill="white" stroke="transparent" points="-4,4 -4,-169.8 504,-169.8 504,4 -4,4"/>
<text text-anchor="middle" x="250" y="-8.2" font-family="sans-serif" font-size="14.00">dependencies</text>
<g id="clust1" class="cluster">
<title>cluster_ServerConsoleModule</title>
<polygon fill="none" stroke="black" stroke-dasharray="1,5" points="8,-32.8 8,-157.8 492,-157.8 492,-32.8 8,-32.8"/>
</g>
<g id="clust3" class="cluster">
<title>cluster_ServerConsoleModule_imports</title>
<polygon fill="none" stroke="black" points="176,-40.8 176,-92.8 484,-92.8 484,-40.8 176,-40.8"/>
</g>
<g id="clust6" class="cluster">
<title>cluster_ServerConsoleModule_providers</title>
<polygon fill="none" stroke="black" points="16,-40.8 16,-92.8 168,-92.8 168,-40.8 16,-40.8"/>
</g>
<!-- ConsoleWriterModule -->
<g id="node1" class="node">
<title>ConsoleWriterModule</title>
<polygon fill="#8dd3c7" stroke="black" points="475.97,-84.8 472.97,-88.8 451.97,-88.8 448.97,-84.8 334.03,-84.8 334.03,-48.8 475.97,-48.8 475.97,-84.8"/>
<text text-anchor="middle" x="405" y="-62.6" font-family="Times,serif" font-size="14.00">ConsoleWriterModule</text>
</g>
<!-- ServerConsoleModule -->
<g id="node3" class="node">
<title>ServerConsoleModule</title>
<polygon fill="#8dd3c7" stroke="black" points="320.97,-149.8 317.97,-153.8 296.97,-153.8 293.97,-149.8 179.03,-149.8 179.03,-113.8 320.97,-113.8 320.97,-149.8"/>
<text text-anchor="middle" x="250" y="-127.6" font-family="Times,serif" font-size="14.00">ServerConsoleModule</text>
</g>
<!-- ConsoleWriterModule&#45;&gt;ServerConsoleModule -->
<g id="edge1" class="edge">
<title>ConsoleWriterModule&#45;&gt;ServerConsoleModule</title>
<path fill="none" stroke="black" d="M405,-84.91C405,-104.14 405,-131.8 405,-131.8 405,-131.8 331.15,-131.8 331.15,-131.8"/>
<polygon fill="black" stroke="black" points="331.15,-128.3 321.15,-131.8 331.15,-135.3 331.15,-128.3"/>
</g>
<!-- ManagementModule -->
<g id="node2" class="node">
<title>ManagementModule</title>
<polygon fill="#8dd3c7" stroke="black" points="316.13,-84.8 313.13,-88.8 292.13,-88.8 289.13,-84.8 183.87,-84.8 183.87,-48.8 316.13,-48.8 316.13,-84.8"/>
<text text-anchor="middle" x="250" y="-62.6" font-family="Times,serif" font-size="14.00">ManagementModule</text>
</g>
<!-- ManagementModule&#45;&gt;ServerConsoleModule -->
<g id="edge2" class="edge">
<title>ManagementModule&#45;&gt;ServerConsoleModule</title>
<path fill="none" stroke="black" d="M250,-84.91C250,-84.91 250,-103.79 250,-103.79"/>
<polygon fill="black" stroke="black" points="246.5,-103.79 250,-113.79 253.5,-103.79 246.5,-103.79"/>
</g>
<!-- ConsoleWriter -->
<g id="node4" class="node">
<title>ConsoleWriter</title>
<ellipse fill="#fdb462" stroke="black" cx="92" cy="-66.8" rx="67.77" ry="18"/>
<text text-anchor="middle" x="92" y="-62.6" font-family="Times,serif" font-size="14.00">ConsoleWriter</text>
</g>
<!-- ConsoleWriter&#45;&gt;ServerConsoleModule -->
<g id="edge3" class="edge">
<title>ConsoleWriter&#45;&gt;ServerConsoleModule</title>
<path fill="none" stroke="black" d="M92,-84.91C92,-104.14 92,-131.8 92,-131.8 92,-131.8 168.86,-131.8 168.86,-131.8"/>
<polygon fill="black" stroke="black" points="168.86,-135.3 178.86,-131.8 168.86,-128.3 168.86,-135.3"/>
</g>
</g>
</svg>
