<?xml version="1.0" encoding="UTF-8" standalone="no"?>
<!DOCTYPE svg PUBLIC "-//W3C//DTD SVG 1.1//EN"
 "http://www.w3.org/Graphics/SVG/1.1/DTD/svg11.dtd">
<!-- Generated by graphviz version 3.0.0 (20220226.1711)
 -->
<!-- Title: dependencies Pages: 1 -->
<svg width="453pt" height="174pt"
 viewBox="0.00 0.00 453.00 173.80" xmlns="http://www.w3.org/2000/svg" xmlns:xlink="http://www.w3.org/1999/xlink">
<g id="graph0" class="graph" transform="scale(1 1) rotate(0) translate(4 169.8)">
<title>dependencies</title>
<polygon fill="white" stroke="transparent" points="-4,4 -4,-169.8 449,-169.8 449,4 -4,4"/>
<text text-anchor="middle" x="222.5" y="-8.2" font-family="sans-serif" font-size="14.00">dependencies</text>
<g id="clust1" class="cluster">
<title>cluster_ServerConsoleModule</title>
<polygon fill="none" stroke="black" stroke-dasharray="1,5" points="8,-32.8 8,-157.8 437,-157.8 437,-32.8 8,-32.8"/>
</g>
<g id="clust3" class="cluster">
<title>cluster_ServerConsoleModule_imports</title>
<polygon fill="none" stroke="black" points="16,-40.8 16,-92.8 429,-92.8 429,-40.8 16,-40.8"/>
</g>
<!-- ConsoleWriterModule -->
<g id="node1" class="node">
<title>ConsoleWriterModule</title>
<polygon fill="#8dd3c7" stroke="black" points="420.97,-84.8 417.97,-88.8 396.97,-88.8 393.97,-84.8 279.03,-84.8 279.03,-48.8 420.97,-48.8 420.97,-84.8"/>
<text text-anchor="middle" x="350" y="-62.6" font-family="Times,serif" font-size="14.00">ConsoleWriterModule</text>
</g>
<!-- ServerConsoleModule -->
<g id="node4" class="node">
<title>ServerConsoleModule</title>
<polygon fill="#8dd3c7" stroke="black" points="288.98,-149.8 285.98,-153.8 264.98,-153.8 261.98,-149.8 147.02,-149.8 147.02,-113.8 288.98,-113.8 288.98,-149.8"/>
<text text-anchor="middle" x="218" y="-127.6" font-family="Times,serif" font-size="14.00">ServerConsoleModule</text>
</g>
<!-- ConsoleWriterModule&#45;&gt;ServerConsoleModule -->
<g id="edge1" class="edge">
<title>ConsoleWriterModule&#45;&gt;ServerConsoleModule</title>
<path fill="none" stroke="black" d="M284,-84.91C284,-84.91 284,-103.79 284,-103.79"/>
<polygon fill="black" stroke="black" points="280.5,-103.79 284,-113.79 287.5,-103.79 280.5,-103.79"/>
</g>
<!-- FilesModule -->
<g id="node2" class="node">
<title>FilesModule</title>
<polygon fill="#8dd3c7" stroke="black" points="261.28,-84.8 258.28,-88.8 237.28,-88.8 234.28,-84.8 174.72,-84.8 174.72,-48.8 261.28,-48.8 261.28,-84.8"/>
<text text-anchor="middle" x="218" y="-62.6" font-family="Times,serif" font-size="14.00">FilesModule</text>
</g>
<!-- FilesModule&#45;&gt;ServerConsoleModule -->
<g id="edge2" class="edge">
<title>FilesModule&#45;&gt;ServerConsoleModule</title>
<path fill="none" stroke="black" d="M218,-84.91C218,-84.91 218,-103.79 218,-103.79"/>
<polygon fill="black" stroke="black" points="214.5,-103.79 218,-113.79 221.5,-103.79 214.5,-103.79"/>
</g>
<!-- ManagementModule -->
<g id="node3" class="node">
<title>ManagementModule</title>
<polygon fill="#8dd3c7" stroke="black" points="156.14,-84.8 153.14,-88.8 132.14,-88.8 129.14,-84.8 23.86,-84.8 23.86,-48.8 156.14,-48.8 156.14,-84.8"/>
<text text-anchor="middle" x="90" y="-62.6" font-family="Times,serif" font-size="14.00">ManagementModule</text>
</g>
<!-- ManagementModule&#45;&gt;ServerConsoleModule -->
<g id="edge3" class="edge">
<title>ManagementModule&#45;&gt;ServerConsoleModule</title>
<path fill="none" stroke="black" d="M151.66,-84.91C151.66,-84.91 151.66,-103.79 151.66,-103.79"/>
<polygon fill="black" stroke="black" points="148.16,-103.79 151.66,-113.79 155.16,-103.79 148.16,-103.79"/>
</g>
</g>
</svg>
