<?xml version="1.0" encoding="UTF-8" standalone="no"?>
<!DOCTYPE svg PUBLIC "-//W3C//DTD SVG 1.1//EN"
 "http://www.w3.org/Graphics/SVG/1.1/DTD/svg11.dtd">
<!-- Generated by graphviz version 5.0.0 (20220707.1540)
 -->
<!-- Title: dependencies Pages: 1 -->
<svg width="448pt" height="247pt"
 viewBox="0.00 0.00 448.00 246.80" xmlns="http://www.w3.org/2000/svg" xmlns:xlink="http://www.w3.org/1999/xlink">
<g id="graph0" class="graph" transform="scale(1 1) rotate(0) translate(4 242.8)">
<title>dependencies</title>
<polygon fill="white" stroke="transparent" points="-4,4 -4,-242.8 444,-242.8 444,4 -4,4"/>
<text text-anchor="middle" x="220" y="-8.2" font-family="sans-serif" font-size="14.00">dependencies</text>
<g id="clust1" class="cluster">
<title>cluster_EncryptionModule</title>
<polygon fill="none" stroke="black" stroke-dasharray="1,5" points="8,-32.8 8,-230.8 432,-230.8 432,-32.8 8,-32.8"/>
</g>
<g id="clust4" class="cluster">
<title>cluster_EncryptionModule_exports</title>
<polygon fill="none" stroke="black" points="130,-170.8 130,-222.8 344,-222.8 344,-170.8 130,-170.8"/>
</g>
<g id="clust3" class="cluster">
<title>cluster_EncryptionModule_imports</title>
<polygon fill="none" stroke="black" points="308,-40.8 308,-92.8 424,-92.8 424,-40.8 308,-40.8"/>
</g>
<g id="clust6" class="cluster">
<title>cluster_EncryptionModule_providers</title>
<polygon fill="none" stroke="black" points="16,-40.8 16,-92.8 300,-92.8 300,-40.8 16,-40.8"/>
</g>
<!-- LoggerModule -->
<g id="node1" class="node">
<title>LoggerModule</title>
<polygon fill="#8dd3c7" stroke="black" points="415.98,-84.8 412.98,-88.8 391.98,-88.8 388.98,-84.8 316.02,-84.8 316.02,-48.8 415.98,-48.8 415.98,-84.8"/>
<text text-anchor="middle" x="366" y="-62.6" font-family="Times,serif" font-size="14.00">LoggerModule</text>
</g>
<!-- EncryptionModule -->
<g id="node2" class="node">
<title>EncryptionModule</title>
<polygon fill="#8dd3c7" stroke="black" points="297.76,-149.8 294.76,-153.8 273.76,-153.8 270.76,-149.8 176.24,-149.8 176.24,-113.8 297.76,-113.8 297.76,-149.8"/>
<text text-anchor="middle" x="237" y="-127.6" font-family="Times,serif" font-size="14.00">EncryptionModule</text>
</g>
<!-- LoggerModule&#45;&gt;EncryptionModule -->
<g id="edge1" class="edge">
<title>LoggerModule&#45;&gt;EncryptionModule</title>
<path fill="none" stroke="black" d="M325.89,-84.91C325.89,-104.14 325.89,-131.8 325.89,-131.8 325.89,-131.8 307.77,-131.8 307.77,-131.8"/>
<polygon fill="black" stroke="black" points="307.77,-128.3 297.77,-131.8 307.77,-135.3 307.77,-128.3"/>
</g>
<!-- SymetricKeyEncryptionService  -->
<g id="node3" class="node">
<title>SymetricKeyEncryptionService </title>
<polygon fill="#fb8072" stroke="black" points="335.56,-214.8 138.44,-214.8 138.44,-178.8 335.56,-178.8 335.56,-214.8"/>
<text text-anchor="middle" x="237" y="-192.6" font-family="Times,serif" font-size="14.00">SymetricKeyEncryptionService </text>
</g>
<!-- EncryptionModule&#45;&gt;SymetricKeyEncryptionService  -->
<g id="edge2" class="edge">
<title>EncryptionModule&#45;&gt;SymetricKeyEncryptionService </title>
<path fill="none" stroke="black" stroke-dasharray="5,2" d="M237,-149.91C237,-149.91 237,-168.79 237,-168.79"/>
<polygon fill="black" stroke="black" points="233.5,-168.79 237,-178.79 240.5,-168.79 233.5,-168.79"/>
</g>
<!-- SymetricKeyEncryptionService -->
<g id="node4" class="node">
<title>SymetricKeyEncryptionService</title>
<ellipse fill="#fdb462" stroke="black" cx="158" cy="-66.8" rx="133.71" ry="18"/>
<text text-anchor="middle" x="158" y="-62.6" font-family="Times,serif" font-size="14.00">SymetricKeyEncryptionService</text>
</g>
<!-- SymetricKeyEncryptionService&#45;&gt;EncryptionModule -->
<g id="edge3" class="edge">
<title>SymetricKeyEncryptionService&#45;&gt;EncryptionModule</title>
<path fill="none" stroke="black" d="M233.99,-81.88C233.99,-81.88 233.99,-103.56 233.99,-103.56"/>
<polygon fill="black" stroke="black" points="230.49,-103.56 233.99,-113.56 237.49,-103.56 230.49,-103.56"/>
</g>
</g>
</svg>
