<?xml version="1.0" encoding="UTF-8" standalone="no"?>
<!DOCTYPE svg PUBLIC "-//W3C//DTD SVG 1.1//EN"
 "http://www.w3.org/Graphics/SVG/1.1/DTD/svg11.dtd">
<!-- Generated by graphviz version 5.0.0 (20220707.1540)
 -->
<!-- Title: dependencies Pages: 1 -->
<svg width="448pt" height="247pt"
 viewBox="0.00 0.00 448.00 246.80" xmlns="http://www.w3.org/2000/svg" xmlns:xlink="http://www.w3.org/1999/xlink">
<g id="graph0" class="graph" transform="scale(1 1) rotate(0) translate(4 242.8)">
<title>dependencies</title>
<polygon fill="white" stroke="transparent" points="-4,4 -4,-242.8 444,-242.8 444,4 -4,4"/>
<text text-anchor="middle" x="220" y="-8.2" font-family="sans-serif" font-size="14.00">dependencies</text>
<g id="clust1" class="cluster">
<title>cluster_EncryptionModule</title>
<polygon fill="none" stroke="black" stroke-dasharray="1,5" points="8,-32.8 8,-230.8 432,-230.8 432,-32.8 8,-32.8"/>
</g>
<g id="clust6" class="cluster">
<title>cluster_EncryptionModule_providers</title>
<polygon fill="none" stroke="black" points="140,-40.8 140,-92.8 424,-92.8 424,-40.8 140,-40.8"/>
</g>
<g id="clust4" class="cluster">
<title>cluster_EncryptionModule_exports</title>
<polygon fill="none" stroke="black" points="95,-170.8 95,-222.8 309,-222.8 309,-170.8 95,-170.8"/>
</g>
<g id="clust3" class="cluster">
<title>cluster_EncryptionModule_imports</title>
<polygon fill="none" stroke="black" points="16,-40.8 16,-92.8 132,-92.8 132,-40.8 16,-40.8"/>
</g>
<!-- LoggerModule -->
<g id="node1" class="node">
<title>LoggerModule</title>
<polygon fill="#8dd3c7" stroke="black" points="123.98,-84.8 120.98,-88.8 99.98,-88.8 96.98,-84.8 24.02,-84.8 24.02,-48.8 123.98,-48.8 123.98,-84.8"/>
<text text-anchor="middle" x="74" y="-62.6" font-family="Times,serif" font-size="14.00">LoggerModule</text>
</g>
<!-- EncryptionModule -->
<g id="node2" class="node">
<title>EncryptionModule</title>
<polygon fill="#8dd3c7" stroke="black" points="262.76,-149.8 259.76,-153.8 238.76,-153.8 235.76,-149.8 141.24,-149.8 141.24,-113.8 262.76,-113.8 262.76,-149.8"/>
<text text-anchor="middle" x="202" y="-127.6" font-family="Times,serif" font-size="14.00">EncryptionModule</text>
</g>
<!-- LoggerModule&#45;&gt;EncryptionModule -->
<g id="edge1" class="edge">
<title>LoggerModule&#45;&gt;EncryptionModule</title>
<path fill="none" stroke="black" d="M124.2,-66.8C135.71,-66.8 144.63,-66.8 144.63,-66.8 144.63,-66.8 144.63,-103.69 144.63,-103.69"/>
<polygon fill="black" stroke="black" points="141.13,-103.69 144.63,-113.69 148.13,-103.69 141.13,-103.69"/>
</g>
<!-- SymetricKeyEncryptionService  -->
<g id="node3" class="node">
<title>SymetricKeyEncryptionService </title>
<polygon fill="#fb8072" stroke="black" points="300.56,-214.8 103.44,-214.8 103.44,-178.8 300.56,-178.8 300.56,-214.8"/>
<text text-anchor="middle" x="202" y="-192.6" font-family="Times,serif" font-size="14.00">SymetricKeyEncryptionService </text>
</g>
<!-- EncryptionModule&#45;&gt;SymetricKeyEncryptionService  -->
<g id="edge2" class="edge">
<title>EncryptionModule&#45;&gt;SymetricKeyEncryptionService </title>
<path fill="none" stroke="black" stroke-dasharray="5,2" d="M202,-149.91C202,-149.91 202,-168.79 202,-168.79"/>
<polygon fill="black" stroke="black" points="198.5,-168.79 202,-178.79 205.5,-168.79 198.5,-168.79"/>
</g>
<!-- SymetricKeyEncryptionService -->
<g id="node4" class="node">
<title>SymetricKeyEncryptionService</title>
<ellipse fill="#fdb462" stroke="black" cx="282" cy="-66.8" rx="133.71" ry="18"/>
<text text-anchor="middle" x="282" y="-62.6" font-family="Times,serif" font-size="14.00">SymetricKeyEncryptionService</text>
</g>
<!-- SymetricKeyEncryptionService&#45;&gt;EncryptionModule -->
<g id="edge3" class="edge">
<title>SymetricKeyEncryptionService&#45;&gt;EncryptionModule</title>
<path fill="none" stroke="black" d="M205.51,-81.88C205.51,-81.88 205.51,-103.56 205.51,-103.56"/>
<polygon fill="black" stroke="black" points="202.01,-103.56 205.51,-113.56 209.01,-103.56 202.01,-103.56"/>
</g>
</g>
</svg>
