<?xml version="1.0" encoding="UTF-8" standalone="no"?>
<!DOCTYPE svg PUBLIC "-//W3C//DTD SVG 1.1//EN"
 "http://www.w3.org/Graphics/SVG/1.1/DTD/svg11.dtd">
<!-- Generated by graphviz version 5.0.0 (20220707.1540)
 -->
<!-- Title: dependencies Pages: 1 -->
<svg width="450pt" height="247pt"
 viewBox="0.00 0.00 450.00 246.80" xmlns="http://www.w3.org/2000/svg" xmlns:xlink="http://www.w3.org/1999/xlink">
<g id="graph0" class="graph" transform="scale(1 1) rotate(0) translate(4 242.8)">
<title>dependencies</title>
<polygon fill="white" stroke="transparent" points="-4,4 -4,-242.8 446,-242.8 446,4 -4,4"/>
<text text-anchor="middle" x="221" y="-8.2" font-family="sans-serif" font-size="14.00">dependencies</text>
<g id="clust1" class="cluster">
<title>cluster_SystemModule</title>
<polygon fill="none" stroke="black" stroke-dasharray="1,5" points="8,-32.8 8,-230.8 434,-230.8 434,-32.8 8,-32.8"/>
</g>
<g id="clust6" class="cluster">
<title>cluster_SystemModule_providers</title>
<polygon fill="none" stroke="black" points="16,-40.8 16,-92.8 426,-92.8 426,-40.8 16,-40.8"/>
</g>
<g id="clust4" class="cluster">
<title>cluster_SystemModule_exports</title>
<polygon fill="none" stroke="black" points="111,-170.8 111,-222.8 325,-222.8 325,-170.8 111,-170.8"/>
</g>
<!-- SystemService  -->
<g id="node1" class="node">
<title>SystemService </title>
<polygon fill="#fb8072" stroke="black" points="317.21,-214.8 214.79,-214.8 214.79,-178.8 317.21,-178.8 317.21,-214.8"/>
<text text-anchor="middle" x="266" y="-192.6" font-family="Times,serif" font-size="14.00">SystemService </text>
</g>
<!-- SystemUc  -->
<g id="node2" class="node">
<title>SystemUc </title>
<polygon fill="#fb8072" stroke="black" points="196.55,-214.8 119.45,-214.8 119.45,-178.8 196.55,-178.8 196.55,-214.8"/>
<text text-anchor="middle" x="158" y="-192.6" font-family="Times,serif" font-size="14.00">SystemUc </text>
</g>
<!-- SystemModule -->
<g id="node3" class="node">
<title>SystemModule</title>
<polygon fill="#8dd3c7" stroke="black" points="262.28,-149.8 259.28,-153.8 238.28,-153.8 235.28,-149.8 161.72,-149.8 161.72,-113.8 262.28,-113.8 262.28,-149.8"/>
<text text-anchor="middle" x="212" y="-127.6" font-family="Times,serif" font-size="14.00">SystemModule</text>
</g>
<!-- SystemModule&#45;&gt;SystemService  -->
<g id="edge1" class="edge">
<title>SystemModule&#45;&gt;SystemService </title>
<path fill="none" stroke="black" stroke-dasharray="5,2" d="M238.52,-149.91C238.52,-149.91 238.52,-168.79 238.52,-168.79"/>
<polygon fill="black" stroke="black" points="235.02,-168.79 238.52,-178.79 242.02,-168.79 235.02,-168.79"/>
</g>
<!-- SystemModule&#45;&gt;SystemUc  -->
<g id="edge2" class="edge">
<title>SystemModule&#45;&gt;SystemUc </title>
<path fill="none" stroke="black" stroke-dasharray="5,2" d="M179.07,-149.91C179.07,-149.91 179.07,-168.79 179.07,-168.79"/>
<polygon fill="black" stroke="black" points="175.57,-168.79 179.07,-178.79 182.57,-168.79 175.57,-168.79"/>
</g>
<!-- SystemRepo -->
<g id="node4" class="node">
<title>SystemRepo</title>
<ellipse fill="#fdb462" stroke="black" cx="358" cy="-66.8" rx="59.72" ry="18"/>
<text text-anchor="middle" x="358" y="-62.6" font-family="Times,serif" font-size="14.00">SystemRepo</text>
</g>
<!-- SystemRepo&#45;&gt;SystemModule -->
<g id="edge3" class="edge">
<title>SystemRepo&#45;&gt;SystemModule</title>
<path fill="none" stroke="black" d="M307.75,-76.67C307.75,-94.86 307.75,-131.8 307.75,-131.8 307.75,-131.8 272.4,-131.8 272.4,-131.8"/>
<polygon fill="black" stroke="black" points="272.4,-128.3 262.4,-131.8 272.4,-135.3 272.4,-128.3"/>
</g>
<!-- SystemService -->
<g id="node5" class="node">
<title>SystemService</title>
<ellipse fill="#fdb462" stroke="black" cx="212" cy="-66.8" rx="68.36" ry="18"/>
<text text-anchor="middle" x="212" y="-62.6" font-family="Times,serif" font-size="14.00">SystemService</text>
</g>
<!-- SystemService&#45;&gt;SystemModule -->
<g id="edge4" class="edge">
<title>SystemService&#45;&gt;SystemModule</title>
<path fill="none" stroke="black" d="M212,-84.91C212,-84.91 212,-103.79 212,-103.79"/>
<polygon fill="black" stroke="black" points="208.5,-103.79 212,-113.79 215.5,-103.79 208.5,-103.79"/>
</g>
<!-- SystemUc -->
<g id="node6" class="node">
<title>SystemUc</title>
<ellipse fill="#fdb462" stroke="black" cx="75" cy="-66.8" rx="50.97" ry="18"/>
<text text-anchor="middle" x="75" y="-62.6" font-family="Times,serif" font-size="14.00">SystemUc</text>
</g>
<!-- SystemUc&#45;&gt;SystemModule -->
<g id="edge5" class="edge">
<title>SystemUc&#45;&gt;SystemModule</title>
<path fill="none" stroke="black" d="M71.87,-84.91C71.87,-104.14 71.87,-131.8 71.87,-131.8 71.87,-131.8 151.41,-131.8 151.41,-131.8"/>
<polygon fill="black" stroke="black" points="151.41,-135.3 161.41,-131.8 151.41,-128.3 151.41,-135.3"/>
</g>
</g>
</svg>
