<?xml version="1.0" encoding="UTF-8" standalone="no"?>
<!DOCTYPE svg PUBLIC "-//W3C//DTD SVG 1.1//EN"
 "http://www.w3.org/Graphics/SVG/1.1/DTD/svg11.dtd">
<!-- Generated by graphviz version 5.0.0 (20220707.1540)
 -->
<!-- Title: dependencies Pages: 1 -->
<svg width="242pt" height="247pt"
 viewBox="0.00 0.00 242.00 246.80" xmlns="http://www.w3.org/2000/svg" xmlns:xlink="http://www.w3.org/1999/xlink">
<g id="graph0" class="graph" transform="scale(1 1) rotate(0) translate(4 242.8)">
<title>dependencies</title>
<polygon fill="white" stroke="transparent" points="-4,4 -4,-242.8 238,-242.8 238,4 -4,4"/>
<text text-anchor="middle" x="117" y="-8.2" font-family="sans-serif" font-size="14.00">dependencies</text>
<g id="clust1" class="cluster">
<title>cluster_DatabaseManagementModule</title>
<polygon fill="none" stroke="black" stroke-dasharray="1,5" points="8,-32.8 8,-230.8 226,-230.8 226,-32.8 8,-32.8"/>
</g>
<g id="clust4" class="cluster">
<title>cluster_DatabaseManagementModule_exports</title>
<polygon fill="none" stroke="black" points="16,-170.8 16,-222.8 218,-222.8 218,-170.8 16,-170.8"/>
</g>
<g id="clust3" class="cluster">
<title>cluster_DatabaseManagementModule_imports</title>
<polygon fill="none" stroke="black" points="18,-40.8 18,-92.8 216,-92.8 216,-40.8 18,-40.8"/>
</g>
<!-- DatabaseManagementService -->
<g id="node1" class="node">
<title>DatabaseManagementService</title>
<polygon fill="#8dd3c7" stroke="black" points="208.37,-84.8 205.37,-88.8 184.37,-88.8 181.37,-84.8 25.63,-84.8 25.63,-48.8 208.37,-48.8 208.37,-84.8"/>
<text text-anchor="middle" x="117" y="-62.6" font-family="Times,serif" font-size="14.00">DatabaseManagementService</text>
</g>
<!-- DatabaseManagementModule -->
<g id="node2" class="node">
<title>DatabaseManagementModule</title>
<polygon fill="#8dd3c7" stroke="black" points="208.94,-149.8 205.94,-153.8 184.94,-153.8 181.94,-149.8 25.06,-149.8 25.06,-113.8 208.94,-113.8 208.94,-149.8"/>
<text text-anchor="middle" x="117" y="-127.6" font-family="Times,serif" font-size="14.00">DatabaseManagementModule</text>
</g>
<!-- DatabaseManagementService&#45;&gt;DatabaseManagementModule -->
<g id="edge1" class="edge">
<title>DatabaseManagementService&#45;&gt;DatabaseManagementModule</title>
<path fill="none" stroke="black" d="M117,-84.91C117,-84.91 117,-103.79 117,-103.79"/>
<polygon fill="black" stroke="black" points="113.5,-103.79 117,-113.79 120.5,-103.79 113.5,-103.79"/>
</g>
<!-- DatabaseManagementService  -->
<g id="node3" class="node">
<title>DatabaseManagementService </title>
<polygon fill="#fb8072" stroke="black" points="209.87,-214.8 24.13,-214.8 24.13,-178.8 209.87,-178.8 209.87,-214.8"/>
<text text-anchor="middle" x="117" y="-192.6" font-family="Times,serif" font-size="14.00">DatabaseManagementService </text>
</g>
<!-- DatabaseManagementModule&#45;&gt;DatabaseManagementService  -->
<g id="edge2" class="edge">
<title>DatabaseManagementModule&#45;&gt;DatabaseManagementService </title>
<path fill="none" stroke="black" stroke-dasharray="5,2" d="M117,-149.91C117,-149.91 117,-168.79 117,-168.79"/>
<polygon fill="black" stroke="black" points="113.5,-168.79 117,-178.79 120.5,-168.79 113.5,-168.79"/>
</g>
</g>
</svg>
