<?xml version="1.0" encoding="UTF-8" standalone="no"?>
<!DOCTYPE svg PUBLIC "-//W3C//DTD SVG 1.1//EN"
 "http://www.w3.org/Graphics/SVG/1.1/DTD/svg11.dtd">
<!-- Generated by graphviz version 3.0.0 (20220226.1711)
 -->
<!-- Title: dependencies Pages: 1 -->
<svg width="828pt" height="247pt"
 viewBox="0.00 0.00 828.00 246.80" xmlns="http://www.w3.org/2000/svg" xmlns:xlink="http://www.w3.org/1999/xlink">
<g id="graph0" class="graph" transform="scale(1 1) rotate(0) translate(4 242.8)">
<title>dependencies</title>
<polygon fill="white" stroke="transparent" points="-4,4 -4,-242.8 824,-242.8 824,4 -4,4"/>
<text text-anchor="middle" x="410" y="-8.2" font-family="sans-serif" font-size="14.00">dependencies</text>
<g id="clust1" class="cluster">
<title>cluster_CollaborativeStorageAdapterModule</title>
<polygon fill="none" stroke="black" stroke-dasharray="1,5" points="8,-32.8 8,-230.8 812,-230.8 812,-32.8 8,-32.8"/>
</g>
<g id="clust3" class="cluster">
<title>cluster_CollaborativeStorageAdapterModule_imports</title>
<polygon fill="none" stroke="black" points="614,-40.8 614,-92.8 804,-92.8 804,-40.8 614,-40.8"/>
</g>
<g id="clust4" class="cluster">
<title>cluster_CollaborativeStorageAdapterModule_exports</title>
<polygon fill="none" stroke="black" points="473,-170.8 473,-222.8 673,-222.8 673,-170.8 473,-170.8"/>
</g>
<g id="clust6" class="cluster">
<title>cluster_CollaborativeStorageAdapterModule_providers</title>
<polygon fill="none" stroke="black" points="16,-40.8 16,-92.8 606,-92.8 606,-40.8 16,-40.8"/>
</g>
<!-- Logger -->
<g id="node1" class="node">
<title>Logger</title>
<polygon fill="#8dd3c7" stroke="black" points="796.43,-84.8 793.43,-88.8 772.43,-88.8 769.43,-84.8 739.57,-84.8 739.57,-48.8 796.43,-48.8 796.43,-84.8"/>
<text text-anchor="middle" x="768" y="-62.6" font-family="Times,serif" font-size="14.00">Logger</text>
</g>
<!-- CollaborativeStorageAdapterModule -->
<g id="node3" class="node">
<title>CollaborativeStorageAdapterModule</title>
<polygon fill="#8dd3c7" stroke="black" points="684.61,-149.8 681.61,-153.8 660.61,-153.8 657.61,-149.8 461.39,-149.8 461.39,-113.8 684.61,-113.8 684.61,-149.8"/>
<text text-anchor="middle" x="573" y="-127.6" font-family="Times,serif" font-size="14.00">CollaborativeStorageAdapterModule</text>
</g>
<!-- Logger&#45;&gt;CollaborativeStorageAdapterModule -->
<g id="edge1" class="edge">
<title>Logger&#45;&gt;CollaborativeStorageAdapterModule</title>
<path fill="none" stroke="black" d="M768,-84.91C768,-104.14 768,-131.8 768,-131.8 768,-131.8 694.74,-131.8 694.74,-131.8"/>
<polygon fill="black" stroke="black" points="694.74,-128.3 684.74,-131.8 694.74,-135.3 694.74,-128.3"/>
</g>
<!-- LoggerModule -->
<g id="node2" class="node">
<title>LoggerModule</title>
<polygon fill="#8dd3c7" stroke="black" points="721.98,-84.8 718.98,-88.8 697.98,-88.8 694.98,-84.8 622.02,-84.8 622.02,-48.8 721.98,-48.8 721.98,-84.8"/>
<text text-anchor="middle" x="672" y="-62.6" font-family="Times,serif" font-size="14.00">LoggerModule</text>
</g>
<!-- LoggerModule&#45;&gt;CollaborativeStorageAdapterModule -->
<g id="edge2" class="edge">
<title>LoggerModule&#45;&gt;CollaborativeStorageAdapterModule</title>
<path fill="none" stroke="black" d="M653.41,-84.91C653.41,-84.91 653.41,-103.79 653.41,-103.79"/>
<polygon fill="black" stroke="black" points="649.91,-103.79 653.41,-113.79 656.91,-103.79 649.91,-103.79"/>
</g>
<!-- CollaborativeStorageAdapter  -->
<g id="node4" class="node">
<title>CollaborativeStorageAdapter </title>
<polygon fill="#fb8072" stroke="black" points="664.56,-214.8 481.44,-214.8 481.44,-178.8 664.56,-178.8 664.56,-214.8"/>
<text text-anchor="middle" x="573" y="-192.6" font-family="Times,serif" font-size="14.00">CollaborativeStorageAdapter </text>
</g>
<!-- CollaborativeStorageAdapterModule&#45;&gt;CollaborativeStorageAdapter  -->
<g id="edge3" class="edge">
<title>CollaborativeStorageAdapterModule&#45;&gt;CollaborativeStorageAdapter </title>
<path fill="none" stroke="black" stroke-dasharray="5,2" d="M573,-149.91C573,-149.91 573,-168.79 573,-168.79"/>
<polygon fill="black" stroke="black" points="569.5,-168.79 573,-178.79 576.5,-168.79 569.5,-168.79"/>
</g>
<!-- CollaborativeStorageAdapter -->
<g id="node5" class="node">
<title>CollaborativeStorageAdapter</title>
<ellipse fill="#fdb462" stroke="black" cx="474" cy="-66.8" rx="124.4" ry="18"/>
<text text-anchor="middle" x="474" y="-62.6" font-family="Times,serif" font-size="14.00">CollaborativeStorageAdapter</text>
</g>
<!-- CollaborativeStorageAdapter&#45;&gt;CollaborativeStorageAdapterModule -->
<g id="edge4" class="edge">
<title>CollaborativeStorageAdapter&#45;&gt;CollaborativeStorageAdapterModule</title>
<path fill="none" stroke="black" d="M529.7,-83.2C529.7,-83.2 529.7,-103.34 529.7,-103.34"/>
<polygon fill="black" stroke="black" points="526.2,-103.34 529.7,-113.34 533.2,-103.34 526.2,-103.34"/>
</g>
<!-- CollaborativeStorageAdapterMapper -->
<g id="node6" class="node">
<title>CollaborativeStorageAdapterMapper</title>
<ellipse fill="#fdb462" stroke="black" cx="178" cy="-66.8" rx="154.46" ry="18"/>
<text text-anchor="middle" x="178" y="-62.6" font-family="Times,serif" font-size="14.00">CollaborativeStorageAdapterMapper</text>
</g>
<!-- CollaborativeStorageAdapterMapper&#45;&gt;CollaborativeStorageAdapterModule -->
<g id="edge5" class="edge">
<title>CollaborativeStorageAdapterMapper&#45;&gt;CollaborativeStorageAdapterModule</title>
<path fill="none" stroke="black" d="M178,-84.91C178,-104.14 178,-131.8 178,-131.8 178,-131.8 451.13,-131.8 451.13,-131.8"/>
<polygon fill="black" stroke="black" points="451.13,-135.3 461.13,-131.8 451.13,-128.3 451.13,-135.3"/>
</g>
</g>
</svg>
