<?xml version="1.0" encoding="UTF-8" standalone="no"?>
<!DOCTYPE svg PUBLIC "-//W3C//DTD SVG 1.1//EN"
 "http://www.w3.org/Graphics/SVG/1.1/DTD/svg11.dtd">
<!-- Generated by graphviz version 5.0.0 (20220707.1540)
 -->
<!-- Title: dependencies Pages: 1 -->
<svg width="828pt" height="247pt"
 viewBox="0.00 0.00 828.00 246.80" xmlns="http://www.w3.org/2000/svg" xmlns:xlink="http://www.w3.org/1999/xlink">
<g id="graph0" class="graph" transform="scale(1 1) rotate(0) translate(4 242.8)">
<title>dependencies</title>
<polygon fill="white" stroke="transparent" points="-4,4 -4,-242.8 824,-242.8 824,4 -4,4"/>
<text text-anchor="middle" x="410" y="-8.2" font-family="sans-serif" font-size="14.00">dependencies</text>
<g id="clust1" class="cluster">
<title>cluster_CollaborativeStorageAdapterModule</title>
<polygon fill="none" stroke="black" stroke-dasharray="1,5" points="8,-32.8 8,-230.8 812,-230.8 812,-32.8 8,-32.8"/>
</g>
<g id="clust4" class="cluster">
<title>cluster_CollaborativeStorageAdapterModule_exports</title>
<polygon fill="none" stroke="black" points="173,-170.8 173,-222.8 373,-222.8 373,-170.8 173,-170.8"/>
</g>
<g id="clust6" class="cluster">
<title>cluster_CollaborativeStorageAdapterModule_providers</title>
<polygon fill="none" stroke="black" points="214,-40.8 214,-92.8 804,-92.8 804,-40.8 214,-40.8"/>
</g>
<g id="clust3" class="cluster">
<title>cluster_CollaborativeStorageAdapterModule_imports</title>
<polygon fill="none" stroke="black" points="16,-40.8 16,-92.8 206,-92.8 206,-40.8 16,-40.8"/>
</g>
<!-- Logger -->
<g id="node1" class="node">
<title>Logger</title>
<polygon fill="#8dd3c7" stroke="black" points="198.43,-84.8 195.43,-88.8 174.43,-88.8 171.43,-84.8 141.57,-84.8 141.57,-48.8 198.43,-48.8 198.43,-84.8"/>
<text text-anchor="middle" x="170" y="-62.6" font-family="Times,serif" font-size="14.00">Logger</text>
</g>
<!-- CollaborativeStorageAdapterModule -->
<g id="node3" class="node">
<title>CollaborativeStorageAdapterModule</title>
<polygon fill="#8dd3c7" stroke="black" points="384.61,-149.8 381.61,-153.8 360.61,-153.8 357.61,-149.8 161.39,-149.8 161.39,-113.8 384.61,-113.8 384.61,-149.8"/>
<text text-anchor="middle" x="273" y="-127.6" font-family="Times,serif" font-size="14.00">CollaborativeStorageAdapterModule</text>
</g>
<!-- Logger&#45;&gt;CollaborativeStorageAdapterModule -->
<g id="edge1" class="edge">
<title>Logger&#45;&gt;CollaborativeStorageAdapterModule</title>
<path fill="none" stroke="black" d="M179.71,-84.91C179.71,-84.91 179.71,-103.79 179.71,-103.79"/>
<polygon fill="black" stroke="black" points="176.21,-103.79 179.71,-113.79 183.21,-103.79 176.21,-103.79"/>
</g>
<!-- LoggerModule -->
<g id="node2" class="node">
<title>LoggerModule</title>
<polygon fill="#8dd3c7" stroke="black" points="123.98,-84.8 120.98,-88.8 99.98,-88.8 96.98,-84.8 24.02,-84.8 24.02,-48.8 123.98,-48.8 123.98,-84.8"/>
<text text-anchor="middle" x="74" y="-62.6" font-family="Times,serif" font-size="14.00">LoggerModule</text>
</g>
<!-- LoggerModule&#45;&gt;CollaborativeStorageAdapterModule -->
<g id="edge2" class="edge">
<title>LoggerModule&#45;&gt;CollaborativeStorageAdapterModule</title>
<path fill="none" stroke="black" d="M74,-84.91C74,-104.14 74,-131.8 74,-131.8 74,-131.8 151.28,-131.8 151.28,-131.8"/>
<polygon fill="black" stroke="black" points="151.28,-135.3 161.28,-131.8 151.28,-128.3 151.28,-135.3"/>
</g>
<!-- CollaborativeStorageAdapter  -->
<g id="node4" class="node">
<title>CollaborativeStorageAdapter </title>
<polygon fill="#fb8072" stroke="black" points="364.56,-214.8 181.44,-214.8 181.44,-178.8 364.56,-178.8 364.56,-214.8"/>
<text text-anchor="middle" x="273" y="-192.6" font-family="Times,serif" font-size="14.00">CollaborativeStorageAdapter </text>
</g>
<!-- CollaborativeStorageAdapterModule&#45;&gt;CollaborativeStorageAdapter  -->
<g id="edge3" class="edge">
<title>CollaborativeStorageAdapterModule&#45;&gt;CollaborativeStorageAdapter </title>
<path fill="none" stroke="black" stroke-dasharray="5,2" d="M273,-149.91C273,-149.91 273,-168.79 273,-168.79"/>
<polygon fill="black" stroke="black" points="269.5,-168.79 273,-178.79 276.5,-168.79 269.5,-168.79"/>
</g>
<!-- CollaborativeStorageAdapter -->
<g id="node5" class="node">
<title>CollaborativeStorageAdapter</title>
<ellipse fill="#fdb462" stroke="black" cx="672" cy="-66.8" rx="124.4" ry="18"/>
<text text-anchor="middle" x="672" y="-62.6" font-family="Times,serif" font-size="14.00">CollaborativeStorageAdapter</text>
</g>
<!-- CollaborativeStorageAdapter&#45;&gt;CollaborativeStorageAdapterModule -->
<g id="edge4" class="edge">
<title>CollaborativeStorageAdapter&#45;&gt;CollaborativeStorageAdapterModule</title>
<path fill="none" stroke="black" d="M672,-84.91C672,-104.14 672,-131.8 672,-131.8 672,-131.8 394.67,-131.8 394.67,-131.8"/>
<polygon fill="black" stroke="black" points="394.67,-128.3 384.67,-131.8 394.67,-135.3 394.67,-128.3"/>
</g>
<!-- CollaborativeStorageAdapterMapper -->
<g id="node6" class="node">
<title>CollaborativeStorageAdapterMapper</title>
<ellipse fill="#fdb462" stroke="black" cx="376" cy="-66.8" rx="154.46" ry="18"/>
<text text-anchor="middle" x="376" y="-62.6" font-family="Times,serif" font-size="14.00">CollaborativeStorageAdapterMapper</text>
</g>
<!-- CollaborativeStorageAdapterMapper&#45;&gt;CollaborativeStorageAdapterModule -->
<g id="edge5" class="edge">
<title>CollaborativeStorageAdapterMapper&#45;&gt;CollaborativeStorageAdapterModule</title>
<path fill="none" stroke="black" d="M303.29,-82.87C303.29,-82.87 303.29,-103.62 303.29,-103.62"/>
<polygon fill="black" stroke="black" points="299.79,-103.62 303.29,-113.62 306.79,-103.62 299.79,-103.62"/>
</g>
</g>
</svg>
