<?xml version="1.0" encoding="UTF-8" standalone="no"?>
<!DOCTYPE svg PUBLIC "-//W3C//DTD SVG 1.1//EN"
 "http://www.w3.org/Graphics/SVG/1.1/DTD/svg11.dtd">
<!-- Generated by graphviz version 5.0.0 (20220707.1540)
 -->
<!-- Title: dependencies Pages: 1 -->
<svg width="440pt" height="247pt"
 viewBox="0.00 0.00 440.00 246.80" xmlns="http://www.w3.org/2000/svg" xmlns:xlink="http://www.w3.org/1999/xlink">
<g id="graph0" class="graph" transform="scale(1 1) rotate(0) translate(4 242.8)">
<title>dependencies</title>
<polygon fill="white" stroke="transparent" points="-4,4 -4,-242.8 436,-242.8 436,4 -4,4"/>
<text text-anchor="middle" x="216" y="-8.2" font-family="sans-serif" font-size="14.00">dependencies</text>
<g id="clust1" class="cluster">
<title>cluster_SchoolModule</title>
<polygon fill="none" stroke="black" stroke-dasharray="1,5" points="8,-32.8 8,-230.8 424,-230.8 424,-32.8 8,-32.8"/>
</g>
<g id="clust4" class="cluster">
<title>cluster_SchoolModule_exports</title>
<polygon fill="none" stroke="black" points="109,-170.8 109,-222.8 318,-222.8 318,-170.8 109,-170.8"/>
</g>
<g id="clust6" class="cluster">
<title>cluster_SchoolModule_providers</title>
<polygon fill="none" stroke="black" points="16,-40.8 16,-92.8 416,-92.8 416,-40.8 16,-40.8"/>
</g>
<!-- SchoolService  -->
<g id="node1" class="node">
<title>SchoolService </title>
<polygon fill="#fb8072" stroke="black" points="310.37,-214.8 209.63,-214.8 209.63,-178.8 310.37,-178.8 310.37,-214.8"/>
<text text-anchor="middle" x="260" y="-192.6" font-family="Times,serif" font-size="14.00">SchoolService </text>
</g>
<!-- SchoolUc  -->
<g id="node2" class="node">
<title>SchoolUc </title>
<polygon fill="#fb8072" stroke="black" points="191.21,-214.8 116.79,-214.8 116.79,-178.8 191.21,-178.8 191.21,-214.8"/>
<text text-anchor="middle" x="154" y="-192.6" font-family="Times,serif" font-size="14.00">SchoolUc </text>
</g>
<!-- SchoolModule -->
<g id="node3" class="node">
<title>SchoolModule</title>
<polygon fill="#8dd3c7" stroke="black" points="256.44,-149.8 253.44,-153.8 232.44,-153.8 229.44,-149.8 157.56,-149.8 157.56,-113.8 256.44,-113.8 256.44,-149.8"/>
<text text-anchor="middle" x="207" y="-127.6" font-family="Times,serif" font-size="14.00">SchoolModule</text>
</g>
<!-- SchoolModule&#45;&gt;SchoolService  -->
<g id="edge1" class="edge">
<title>SchoolModule&#45;&gt;SchoolService </title>
<path fill="none" stroke="black" stroke-dasharray="5,2" d="M233.02,-149.91C233.02,-149.91 233.02,-168.79 233.02,-168.79"/>
<polygon fill="black" stroke="black" points="229.52,-168.79 233.02,-178.79 236.52,-168.79 229.52,-168.79"/>
</g>
<!-- SchoolModule&#45;&gt;SchoolUc  -->
<g id="edge2" class="edge">
<title>SchoolModule&#45;&gt;SchoolUc </title>
<path fill="none" stroke="black" stroke-dasharray="5,2" d="M174.57,-149.91C174.57,-149.91 174.57,-168.79 174.57,-168.79"/>
<polygon fill="black" stroke="black" points="171.07,-168.79 174.57,-178.79 178.07,-168.79 171.07,-168.79"/>
</g>
<!-- SchoolRepo -->
<g id="node4" class="node">
<title>SchoolRepo</title>
<ellipse fill="#fdb462" stroke="black" cx="350" cy="-66.8" rx="58.49" ry="18"/>
<text text-anchor="middle" x="350" y="-62.6" font-family="Times,serif" font-size="14.00">SchoolRepo</text>
</g>
<!-- SchoolRepo&#45;&gt;SchoolModule -->
<g id="edge3" class="edge">
<title>SchoolRepo&#45;&gt;SchoolModule</title>
<path fill="none" stroke="black" d="M300.97,-76.67C300.97,-94.86 300.97,-131.8 300.97,-131.8 300.97,-131.8 266.46,-131.8 266.46,-131.8"/>
<polygon fill="black" stroke="black" points="266.46,-128.3 256.46,-131.8 266.46,-135.3 266.46,-128.3"/>
</g>
<!-- SchoolService -->
<g id="node5" class="node">
<title>SchoolService</title>
<ellipse fill="#fdb462" stroke="black" cx="207" cy="-66.8" rx="66.64" ry="18"/>
<text text-anchor="middle" x="207" y="-62.6" font-family="Times,serif" font-size="14.00">SchoolService</text>
</g>
<!-- SchoolService&#45;&gt;SchoolModule -->
<g id="edge4" class="edge">
<title>SchoolService&#45;&gt;SchoolModule</title>
<path fill="none" stroke="black" d="M207,-84.91C207,-84.91 207,-103.79 207,-103.79"/>
<polygon fill="black" stroke="black" points="203.5,-103.79 207,-113.79 210.5,-103.79 203.5,-103.79"/>
</g>
<!-- SchoolUc -->
<g id="node6" class="node">
<title>SchoolUc</title>
<ellipse fill="#fdb462" stroke="black" cx="73" cy="-66.8" rx="49.24" ry="18"/>
<text text-anchor="middle" x="73" y="-62.6" font-family="Times,serif" font-size="14.00">SchoolUc</text>
</g>
<!-- SchoolUc&#45;&gt;SchoolModule -->
<g id="edge5" class="edge">
<title>SchoolUc&#45;&gt;SchoolModule</title>
<path fill="none" stroke="black" d="M70.26,-84.91C70.26,-104.14 70.26,-131.8 70.26,-131.8 70.26,-131.8 147.63,-131.8 147.63,-131.8"/>
<polygon fill="black" stroke="black" points="147.63,-135.3 157.63,-131.8 147.63,-128.3 147.63,-135.3"/>
</g>
</g>
</svg>
