<?xml version="1.0" encoding="UTF-8" standalone="no"?>
<!DOCTYPE svg PUBLIC "-//W3C//DTD SVG 1.1//EN"
 "http://www.w3.org/Graphics/SVG/1.1/DTD/svg11.dtd">
<!-- Generated by graphviz version 5.0.0 (20220707.1540)
 -->
<!-- Title: dependencies Pages: 1 -->
<svg width="602pt" height="247pt"
 viewBox="0.00 0.00 602.00 246.80" xmlns="http://www.w3.org/2000/svg" xmlns:xlink="http://www.w3.org/1999/xlink">
<g id="graph0" class="graph" transform="scale(1 1) rotate(0) translate(4 242.8)">
<title>dependencies</title>
<polygon fill="white" stroke="transparent" points="-4,4 -4,-242.8 598,-242.8 598,4 -4,4"/>
<text text-anchor="middle" x="297" y="-8.2" font-family="sans-serif" font-size="14.00">dependencies</text>
<g id="clust1" class="cluster">
<title>cluster_SchoolModule</title>
<polygon fill="none" stroke="black" stroke-dasharray="1,5" points="8,-32.8 8,-230.8 586,-230.8 586,-32.8 8,-32.8"/>
</g>
<g id="clust3" class="cluster">
<title>cluster_SchoolModule_imports</title>
<polygon fill="none" stroke="black" points="462,-40.8 462,-92.8 578,-92.8 578,-40.8 462,-40.8"/>
</g>
<g id="clust6" class="cluster">
<title>cluster_SchoolModule_providers</title>
<polygon fill="none" stroke="black" points="16,-40.8 16,-92.8 454,-92.8 454,-40.8 16,-40.8"/>
</g>
<g id="clust4" class="cluster">
<title>cluster_SchoolModule_exports</title>
<polygon fill="none" stroke="black" points="189,-170.8 189,-222.8 425,-222.8 425,-170.8 189,-170.8"/>
</g>
<!-- LoggerModule -->
<g id="node1" class="node">
<title>LoggerModule</title>
<polygon fill="#8dd3c7" stroke="black" points="569.98,-84.8 566.98,-88.8 545.98,-88.8 542.98,-84.8 470.02,-84.8 470.02,-48.8 569.98,-48.8 569.98,-84.8"/>
<text text-anchor="middle" x="520" y="-62.6" font-family="Times,serif" font-size="14.00">LoggerModule</text>
</g>
<!-- SchoolModule -->
<g id="node2" class="node">
<title>SchoolModule</title>
<polygon fill="#8dd3c7" stroke="black" points="355.44,-149.8 352.44,-153.8 331.44,-153.8 328.44,-149.8 256.56,-149.8 256.56,-113.8 355.44,-113.8 355.44,-149.8"/>
<text text-anchor="middle" x="306" y="-127.6" font-family="Times,serif" font-size="14.00">SchoolModule</text>
</g>
<!-- LoggerModule&#45;&gt;SchoolModule -->
<g id="edge1" class="edge">
<title>LoggerModule&#45;&gt;SchoolModule</title>
<path fill="none" stroke="black" d="M520,-84.91C520,-104.14 520,-131.8 520,-131.8 520,-131.8 365.36,-131.8 365.36,-131.8"/>
<polygon fill="black" stroke="black" points="365.36,-128.3 355.36,-131.8 365.36,-135.3 365.36,-128.3"/>
</g>
<!-- SchoolMapper  -->
<g id="node3" class="node">
<title>SchoolMapper </title>
<polygon fill="#fb8072" stroke="black" points="416.93,-214.8 315.07,-214.8 315.07,-178.8 416.93,-178.8 416.93,-214.8"/>
<text text-anchor="middle" x="366" y="-192.6" font-family="Times,serif" font-size="14.00">SchoolMapper </text>
</g>
<!-- SchoolModule&#45;&gt;SchoolMapper  -->
<g id="edge2" class="edge">
<title>SchoolModule&#45;&gt;SchoolMapper </title>
<path fill="none" stroke="black" stroke-dasharray="5,2" d="M335.13,-149.91C335.13,-149.91 335.13,-168.79 335.13,-168.79"/>
<polygon fill="black" stroke="black" points="331.63,-168.79 335.13,-178.79 338.63,-168.79 331.63,-168.79"/>
</g>
<!-- SchoolService  -->
<g id="node4" class="node">
<title>SchoolService </title>
<polygon fill="#fb8072" stroke="black" points="297.37,-214.8 196.63,-214.8 196.63,-178.8 297.37,-178.8 297.37,-214.8"/>
<text text-anchor="middle" x="247" y="-192.6" font-family="Times,serif" font-size="14.00">SchoolService </text>
</g>
<!-- SchoolModule&#45;&gt;SchoolService  -->
<g id="edge3" class="edge">
<title>SchoolModule&#45;&gt;SchoolService </title>
<path fill="none" stroke="black" stroke-dasharray="5,2" d="M276.98,-149.91C276.98,-149.91 276.98,-168.79 276.98,-168.79"/>
<polygon fill="black" stroke="black" points="273.48,-168.79 276.98,-178.79 280.48,-168.79 273.48,-168.79"/>
</g>
<!-- SchoolMapper -->
<g id="node5" class="node">
<title>SchoolMapper</title>
<ellipse fill="#fdb462" stroke="black" cx="378" cy="-66.8" rx="67.79" ry="18"/>
<text text-anchor="middle" x="378" y="-62.6" font-family="Times,serif" font-size="14.00">SchoolMapper</text>
</g>
<!-- SchoolMapper&#45;&gt;SchoolModule -->
<g id="edge4" class="edge">
<title>SchoolMapper&#45;&gt;SchoolModule</title>
<path fill="none" stroke="black" d="M332.66,-80.27C332.66,-80.27 332.66,-103.66 332.66,-103.66"/>
<polygon fill="black" stroke="black" points="329.16,-103.66 332.66,-113.66 336.16,-103.66 329.16,-103.66"/>
</g>
<!-- SchoolRepo -->
<g id="node6" class="node">
<title>SchoolRepo</title>
<ellipse fill="#fdb462" stroke="black" cx="234" cy="-66.8" rx="58.49" ry="18"/>
<text text-anchor="middle" x="234" y="-62.6" font-family="Times,serif" font-size="14.00">SchoolRepo</text>
</g>
<!-- SchoolRepo&#45;&gt;SchoolModule -->
<g id="edge5" class="edge">
<title>SchoolRepo&#45;&gt;SchoolModule</title>
<path fill="none" stroke="black" d="M274.51,-79.95C274.51,-79.95 274.51,-103.49 274.51,-103.49"/>
<polygon fill="black" stroke="black" points="271.01,-103.49 274.51,-113.49 278.01,-103.49 271.01,-103.49"/>
</g>
<!-- SchoolService -->
<g id="node7" class="node">
<title>SchoolService</title>
<ellipse fill="#fdb462" stroke="black" cx="91" cy="-66.8" rx="66.64" ry="18"/>
<text text-anchor="middle" x="91" y="-62.6" font-family="Times,serif" font-size="14.00">SchoolService</text>
</g>
<!-- SchoolService&#45;&gt;SchoolModule -->
<g id="edge6" class="edge">
<title>SchoolService&#45;&gt;SchoolModule</title>
<path fill="none" stroke="black" d="M91,-84.91C91,-104.14 91,-131.8 91,-131.8 91,-131.8 246.67,-131.8 246.67,-131.8"/>
<polygon fill="black" stroke="black" points="246.67,-135.3 256.67,-131.8 246.67,-128.3 246.67,-135.3"/>
</g>
</g>
</svg>
