<?xml version="1.0" encoding="UTF-8" standalone="no"?>
<!DOCTYPE svg PUBLIC "-//W3C//DTD SVG 1.1//EN"
 "http://www.w3.org/Graphics/SVG/1.1/DTD/svg11.dtd">
<!-- Generated by graphviz version 5.0.0 (20220707.1540)
 -->
<!-- Title: dependencies Pages: 1 -->
<svg width="602pt" height="247pt"
 viewBox="0.00 0.00 602.00 246.80" xmlns="http://www.w3.org/2000/svg" xmlns:xlink="http://www.w3.org/1999/xlink">
<g id="graph0" class="graph" transform="scale(1 1) rotate(0) translate(4 242.8)">
<title>dependencies</title>
<polygon fill="white" stroke="transparent" points="-4,4 -4,-242.8 598,-242.8 598,4 -4,4"/>
<text text-anchor="middle" x="297" y="-8.2" font-family="sans-serif" font-size="14.00">dependencies</text>
<g id="clust1" class="cluster">
<title>cluster_SchoolModule</title>
<polygon fill="none" stroke="black" stroke-dasharray="1,5" points="8,-32.8 8,-230.8 586,-230.8 586,-32.8 8,-32.8"/>
</g>
<g id="clust4" class="cluster">
<title>cluster_SchoolModule_exports</title>
<polygon fill="none" stroke="black" points="169,-170.8 169,-222.8 405,-222.8 405,-170.8 169,-170.8"/>
</g>
<g id="clust6" class="cluster">
<title>cluster_SchoolModule_providers</title>
<polygon fill="none" stroke="black" points="140,-40.8 140,-92.8 578,-92.8 578,-40.8 140,-40.8"/>
</g>
<g id="clust3" class="cluster">
<title>cluster_SchoolModule_imports</title>
<polygon fill="none" stroke="black" points="16,-40.8 16,-92.8 132,-92.8 132,-40.8 16,-40.8"/>
</g>
<!-- LoggerModule -->
<g id="node1" class="node">
<title>LoggerModule</title>
<polygon fill="#8dd3c7" stroke="black" points="123.98,-84.8 120.98,-88.8 99.98,-88.8 96.98,-84.8 24.02,-84.8 24.02,-48.8 123.98,-48.8 123.98,-84.8"/>
<text text-anchor="middle" x="74" y="-62.6" font-family="Times,serif" font-size="14.00">LoggerModule</text>
</g>
<!-- SchoolModule -->
<g id="node2" class="node">
<title>SchoolModule</title>
<polygon fill="#8dd3c7" stroke="black" points="335.44,-149.8 332.44,-153.8 311.44,-153.8 308.44,-149.8 236.56,-149.8 236.56,-113.8 335.44,-113.8 335.44,-149.8"/>
<text text-anchor="middle" x="286" y="-127.6" font-family="Times,serif" font-size="14.00">SchoolModule</text>
</g>
<!-- LoggerModule&#45;&gt;SchoolModule -->
<g id="edge1" class="edge">
<title>LoggerModule&#45;&gt;SchoolModule</title>
<path fill="none" stroke="black" d="M74,-84.91C74,-104.14 74,-131.8 74,-131.8 74,-131.8 226.56,-131.8 226.56,-131.8"/>
<polygon fill="black" stroke="black" points="226.56,-135.3 236.56,-131.8 226.56,-128.3 226.56,-135.3"/>
</g>
<!-- SchoolMapper  -->
<g id="node3" class="node">
<title>SchoolMapper </title>
<polygon fill="#fb8072" stroke="black" points="396.93,-214.8 295.07,-214.8 295.07,-178.8 396.93,-178.8 396.93,-214.8"/>
<text text-anchor="middle" x="346" y="-192.6" font-family="Times,serif" font-size="14.00">SchoolMapper </text>
</g>
<!-- SchoolModule&#45;&gt;SchoolMapper  -->
<g id="edge2" class="edge">
<title>SchoolModule&#45;&gt;SchoolMapper </title>
<path fill="none" stroke="black" stroke-dasharray="5,2" d="M315.13,-149.91C315.13,-149.91 315.13,-168.79 315.13,-168.79"/>
<polygon fill="black" stroke="black" points="311.63,-168.79 315.13,-178.79 318.63,-168.79 311.63,-168.79"/>
</g>
<!-- SchoolService  -->
<g id="node4" class="node">
<title>SchoolService </title>
<polygon fill="#fb8072" stroke="black" points="277.37,-214.8 176.63,-214.8 176.63,-178.8 277.37,-178.8 277.37,-214.8"/>
<text text-anchor="middle" x="227" y="-192.6" font-family="Times,serif" font-size="14.00">SchoolService </text>
</g>
<!-- SchoolModule&#45;&gt;SchoolService  -->
<g id="edge3" class="edge">
<title>SchoolModule&#45;&gt;SchoolService </title>
<path fill="none" stroke="black" stroke-dasharray="5,2" d="M256.98,-149.91C256.98,-149.91 256.98,-168.79 256.98,-168.79"/>
<polygon fill="black" stroke="black" points="253.48,-168.79 256.98,-178.79 260.48,-168.79 253.48,-168.79"/>
</g>
<!-- SchoolMapper -->
<g id="node5" class="node">
<title>SchoolMapper</title>
<ellipse fill="#fdb462" stroke="black" cx="502" cy="-66.8" rx="67.79" ry="18"/>
<text text-anchor="middle" x="502" y="-62.6" font-family="Times,serif" font-size="14.00">SchoolMapper</text>
</g>
<!-- SchoolMapper&#45;&gt;SchoolModule -->
<g id="edge4" class="edge">
<title>SchoolMapper&#45;&gt;SchoolModule</title>
<path fill="none" stroke="black" d="M502,-84.91C502,-104.14 502,-131.8 502,-131.8 502,-131.8 345.28,-131.8 345.28,-131.8"/>
<polygon fill="black" stroke="black" points="345.28,-128.3 335.28,-131.8 345.28,-135.3 345.28,-128.3"/>
</g>
<!-- SchoolRepo -->
<g id="node6" class="node">
<title>SchoolRepo</title>
<ellipse fill="#fdb462" stroke="black" cx="358" cy="-66.8" rx="58.49" ry="18"/>
<text text-anchor="middle" x="358" y="-62.6" font-family="Times,serif" font-size="14.00">SchoolRepo</text>
</g>
<!-- SchoolRepo&#45;&gt;SchoolModule -->
<g id="edge5" class="edge">
<title>SchoolRepo&#45;&gt;SchoolModule</title>
<path fill="none" stroke="black" d="M317.49,-79.95C317.49,-79.95 317.49,-103.49 317.49,-103.49"/>
<polygon fill="black" stroke="black" points="313.99,-103.49 317.49,-113.49 320.99,-103.49 313.99,-103.49"/>
</g>
<!-- SchoolService -->
<g id="node7" class="node">
<title>SchoolService</title>
<ellipse fill="#fdb462" stroke="black" cx="215" cy="-66.8" rx="66.64" ry="18"/>
<text text-anchor="middle" x="215" y="-62.6" font-family="Times,serif" font-size="14.00">SchoolService</text>
</g>
<!-- SchoolService&#45;&gt;SchoolModule -->
<g id="edge6" class="edge">
<title>SchoolService&#45;&gt;SchoolModule</title>
<path fill="none" stroke="black" d="M259.3,-80.58C259.3,-80.58 259.3,-103.35 259.3,-103.35"/>
<polygon fill="black" stroke="black" points="255.8,-103.35 259.3,-113.35 262.8,-103.35 255.8,-103.35"/>
</g>
</g>
</svg>
